<?xml version="1.0" encoding="UTF-8" standalone="no"?>
<!DOCTYPE svg PUBLIC "-//W3C//DTD SVG 1.1//EN"
 "http://www.w3.org/Graphics/SVG/1.1/DTD/svg11.dtd">
<!-- Generated by graphviz version 2.43.0 (0)
 -->
<!-- Title: Ponca::Line&lt; DataPoint, _NFilter, T &gt; Pages: 1 -->
<svg width="206pt" height="340pt"
 viewBox="0.00 0.00 206.00 340.00" xmlns="http://www.w3.org/2000/svg" xmlns:xlink="http://www.w3.org/1999/xlink">
<g id="graph0" class="graph" transform="scale(1 1) rotate(0) translate(4 336)">
<title>Ponca::Line&lt; DataPoint, _NFilter, T &gt;</title>
<!-- Node1 -->
<g id="Node000001" class="node">
<title>Node1</title>
<g id="a_Node000001"><a xlink:title="A parametrized line is defined by an origin point &#160;and a unit direction vector &#160;such that the line co...">
<polygon fill="#999999" stroke="transparent" points="128,-225 0,-225 0,0 128,0 128,-225"/>
<text text-anchor="start" x="5" y="-212.5" font-family="Helvetica,sans-Serif" font-size="10.00">Ponca::Line&lt; DataPoint,</text>
<text text-anchor="start" x="32" y="-201.5" font-family="Helvetica,sans-Serif" font-size="10.00"> _NFilter, T &gt;</text>
<text text-anchor="start" x="62" y="-186.5" font-family="Helvetica,sans-Serif" font-size="10.00"> </text>
<text text-anchor="start" x="11.5" y="-171.5" font-family="Helvetica,sans-Serif" font-size="10.00">+</text>
<text text-anchor="start" x="32" y="-171.5" font-family="Helvetica,sans-Serif" font-size="10.00">line()</text>
<text text-anchor="start" x="11.5" y="-156.5" font-family="Helvetica,sans-Serif" font-size="10.00">+</text>
<text text-anchor="start" x="32" y="-156.5" font-family="Helvetica,sans-Serif" font-size="10.00">line()</text>
<text text-anchor="start" x="11.5" y="-141.5" font-family="Helvetica,sans-Serif" font-size="10.00">+</text>
<text text-anchor="start" x="32" y="-141.5" font-family="Helvetica,sans-Serif" font-size="10.00">init()</text>
<text text-anchor="start" x="11.5" y="-126.5" font-family="Helvetica,sans-Serif" font-size="10.00">+</text>
<text text-anchor="start" x="32" y="-126.5" font-family="Helvetica,sans-Serif" font-size="10.00">isValid()</text>
<text text-anchor="start" x="11.5" y="-111.5" font-family="Helvetica,sans-Serif" font-size="10.00">+</text>
<text text-anchor="start" x="32" y="-111.5" font-family="Helvetica,sans-Serif" font-size="10.00">operator==()</text>
<text text-anchor="start" x="11.5" y="-96.5" font-family="Helvetica,sans-Serif" font-size="10.00">+</text>
<text text-anchor="start" x="32" y="-96.5" font-family="Helvetica,sans-Serif" font-size="10.00">operator!=()</text>
<text text-anchor="start" x="11.5" y="-81.5" font-family="Helvetica,sans-Serif" font-size="10.00">+</text>
<text text-anchor="start" x="32" y="-81.5" font-family="Helvetica,sans-Serif" font-size="10.00">setLine()</text>
<text text-anchor="start" x="11.5" y="-66.5" font-family="Helvetica,sans-Serif" font-size="10.00">+</text>
<text text-anchor="start" x="32" y="-66.5" font-family="Helvetica,sans-Serif" font-size="10.00">changeBasis()</text>
<text text-anchor="start" x="11.5" y="-51.5" font-family="Helvetica,sans-Serif" font-size="10.00">+</text>
<text text-anchor="start" x="32" y="-51.5" font-family="Helvetica,sans-Serif" font-size="10.00">potential()</text>
<text text-anchor="start" x="11.5" y="-36.5" font-family="Helvetica,sans-Serif" font-size="10.00">+</text>
<text text-anchor="start" x="32" y="-36.5" font-family="Helvetica,sans-Serif" font-size="10.00">potential()</text>
<text text-anchor="start" x="11.5" y="-21.5" font-family="Helvetica,sans-Serif" font-size="10.00">+</text>
<text text-anchor="start" x="32" y="-21.5" font-family="Helvetica,sans-Serif" font-size="10.00">project()</text>
<text text-anchor="start" x="11.5" y="-6.5" font-family="Helvetica,sans-Serif" font-size="10.00">#</text>
<text text-anchor="start" x="32" y="-6.5" font-family="Helvetica,sans-Serif" font-size="10.00">potentialLocal()</text>
<polygon fill="#666666" stroke="#666666" points="0,-196.5 0,-196.5 128,-196.5 128,-196.5 0,-196.5"/>
<polygon fill="#666666" stroke="#666666" points="0,-181.5 0,-181.5 128,-181.5 128,-181.5 0,-181.5"/>
<polygon fill="none" stroke="#666666" points="0,0 0,-225 128,-225 128,0 0,0"/>
</a>
</g>
</g>
<!-- Node2 -->
<g id="Node000002" class="node">
<title>Node2</title>
<g id="a_Node000002"><a xlink:title=" ">
<polygon fill="white" stroke="transparent" points="19.5,-321 2.5,-321 2.5,-272 19.5,-272 19.5,-321"/>
<text text-anchor="start" x="8" y="-308.5" font-family="Helvetica,sans-Serif" font-size="10.00">T</text>
<text text-anchor="start" x="9.5" y="-293.5" font-family="Helvetica,sans-Serif" font-size="10.00"> </text>
<text text-anchor="start" x="9.5" y="-278.5" font-family="Helvetica,sans-Serif" font-size="10.00"> </text>
<polygon fill="#bfbfbf" stroke="#bfbfbf" points="3,-303.5 3,-303.5 20,-303.5 20,-303.5 3,-303.5"/>
<polygon fill="#bfbfbf" stroke="#bfbfbf" points="3,-288.5 3,-288.5 20,-288.5 20,-288.5 3,-288.5"/>
<polygon fill="none" stroke="#bfbfbf" points="2.5,-272 2.5,-321 19.5,-321 19.5,-272 2.5,-272"/>
</a>
</g>
</g>
<!-- Node2&#45;&gt;Node1 -->
<g id="edge1_Node000001_Node000002" class="edge">
<title>Node2&#45;&gt;Node1</title>
<g id="a_edge1_Node000001_Node000002"><a xlink:title=" ">
<path fill="none" stroke="#63b8ff" d="M20.76,-261.97C23.9,-251.19 27.57,-238.59 31.42,-225.37"/>
<polygon fill="none" stroke="#63b8ff" points="17.36,-261.13 17.93,-271.71 24.09,-263.08 17.36,-261.13"/>
</a>
</g>
</g>
<!-- Node3 -->
<g id="Node000003" class="node">
<title>Node3</title>
<g id="a_Node000003"><a xlink:title=" ">
<polygon fill="white" stroke="transparent" points="198,-332 38,-332 38,-261 198,-261 198,-332"/>
<text text-anchor="start" x="43" y="-319.5" font-family="Helvetica,sans-Serif" font-size="10.00">Eigen::ParametrizedLine</text>
<text text-anchor="start" x="43" y="-308.5" font-family="Helvetica,sans-Serif" font-size="10.00">&lt; DataPoint::Scalar, DataPoint</text>
<text text-anchor="start" x="99" y="-297.5" font-family="Helvetica,sans-Serif" font-size="10.00">::Dim &gt;</text>
<text text-anchor="start" x="116" y="-282.5" font-family="Helvetica,sans-Serif" font-size="10.00"> </text>
<text text-anchor="start" x="116" y="-267.5" font-family="Helvetica,sans-Serif" font-size="10.00"> </text>
<polygon fill="#bfbfbf" stroke="#bfbfbf" points="38,-292.5 38,-292.5 198,-292.5 198,-292.5 38,-292.5"/>
<polygon fill="#bfbfbf" stroke="#bfbfbf" points="38,-277.5 38,-277.5 198,-277.5 198,-277.5 38,-277.5"/>
<polygon fill="none" stroke="#bfbfbf" points="38,-261 38,-332 198,-332 198,-261 38,-261"/>
</a>
</g>
</g>
<!-- Node3&#45;&gt;Node1 -->
<g id="edge2_Node000001_Node000003" class="edge">
<title>Node3&#45;&gt;Node1</title>
<g id="a_edge2_Node000001_Node000003"><a xlink:title=" ">
<path fill="none" stroke="#63b8ff" d="M104.86,-251.23C102.44,-243.05 99.81,-234.18 97.09,-225.01"/>
<polygon fill="none" stroke="#63b8ff" points="101.52,-252.25 107.72,-260.84 108.23,-250.26 101.52,-252.25"/>
</a>
</g>
</g>
</g>
</svg>
