<?xml version="1.0" encoding="UTF-8" standalone="no"?>
<!DOCTYPE svg PUBLIC "-//W3C//DTD SVG 1.1//EN"
 "http://www.w3.org/Graphics/SVG/1.1/DTD/svg11.dtd">
<!-- Generated by graphviz version 2.43.0 (0)
 -->
<!-- Title: Ponca::KdTreeQuery&lt; DataPoint &gt; Pages: 1 -->
<!--zoomable 943 -->
<svg id="main" version="1.1" xmlns="http://www.w3.org/2000/svg" xmlns:xlink="http://www.w3.org/1999/xlink" xml:space="preserve" onload="init(evt)">
<style type="text/css"><![CDATA[
.edge:hover path { stroke: red; }
.edge:hover polygon { stroke: red; fill: red; }
]]></style>
<script type="text/javascript"><![CDATA[
var edges = document.getElementsByTagName('g');
if (edges && edges.length) {
  for (var i=0;i<edges.length;i++) {
    if (edges[i].id.substr(0,4)=='edge') {
      edges[i].setAttribute('class','edge');
    }
  }
}
]]></script>
        <defs>
                <circle id="rim" cx="0" cy="0" r="7"/>
                <circle id="rim2" cx="0" cy="0" r="3.5"/>
                <g id="zoomPlus">
                        <use xlink:href="#rim" fill="#404040">
                                <set attributeName="fill" to="#808080" begin="zoomplus.mouseover" end="zoomplus.mouseout"/>
                        </use>
                        <path d="M-4,0h8M0,-4v8" fill="none" stroke="white" stroke-width="1.5" pointer-events="none"/>
                </g>
                <g id="zoomMin">
                        <use xlink:href="#rim" fill="#404040">
                                <set attributeName="fill" to="#808080" begin="zoomminus.mouseover" end="zoomminus.mouseout"/>
                        </use>
                        <path d="M-4,0h8" fill="none" stroke="white" stroke-width="1.5" pointer-events="none"/>
                </g>
                <g id="dirArrow">
                        <path fill="none" stroke="white" stroke-width="1.5" d="M0,-3.0v7 M-2.5,-0.5L0,-3.0L2.5,-0.5"/>
                </g>
               <g id="resetDef">
                       <use xlink:href="#rim2" fill="#404040">
                               <set attributeName="fill" to="#808080" begin="reset.mouseover" end="reset.mouseout"/>
                       </use>
               </g>
        </defs>

<script type="text/javascript">
var viewWidth = 504;
var viewHeight = 943;
var sectionId = 'dynsection-1';
</script>
<script xlink:href="svgpan.js"/>
<svg id="graph" class="graph">
<g id="viewport">
<title>Ponca::KdTreeQuery&lt; DataPoint &gt;</title>
<polygon fill="white" stroke="transparent" points="-4,4 -4,-939 500,-939 500,4 -4,4"/>
<!-- Node1 -->
<g id="node1" class="node">
<title>Node1</title>
<g id="a_node1"><a xlink:title=" ">
<polygon fill="#bfbfbf" stroke="black" points="167,-0.5 167,-79.5 281,-79.5 281,-0.5 167,-0.5"/>
<text text-anchor="start" x="175" y="-67.5" font-family="Helvetica,sans-Serif" font-size="10.00">Ponca::KdTreeQuery</text>
<text text-anchor="middle" x="224" y="-56.5" font-family="Helvetica,sans-Serif" font-size="10.00">&lt; DataPoint &gt;</text>
<polyline fill="none" stroke="black" points="167,-49.5 281,-49.5 "/>
<text text-anchor="start" x="175" y="-37.5" font-family="Helvetica,sans-Serif" font-size="10.00"># m_kdtree</text>
<polyline fill="none" stroke="black" points="167,-30.5 281,-30.5 "/>
<text text-anchor="start" x="175" y="-18.5" font-family="Helvetica,sans-Serif" font-size="10.00">+ KdTreeQuery()</text>
<text text-anchor="start" x="175" y="-7.5" font-family="Helvetica,sans-Serif" font-size="10.00"># reset()</text>
</a>
</g>
</g>
<!-- Node2 -->
<g id="node2" class="node">
<title>Node2</title>
<g id="a_node2"><a xlink:href="classPonca_1_1Stack.html" target="_top" xlink:title=" ">
<polygon fill="white" stroke="black" points="157,-127.5 157,-305.5 291,-305.5 291,-127.5 157,-127.5"/>
<text text-anchor="start" x="165" y="-293.5" font-family="Helvetica,sans-Serif" font-size="10.00">Ponca::Stack&lt; Ponca</text>
<text text-anchor="start" x="165" y="-282.5" font-family="Helvetica,sans-Serif" font-size="10.00">::IndexSquaredDistance</text>
<text text-anchor="start" x="165" y="-271.5" font-family="Helvetica,sans-Serif" font-size="10.00">&lt; typename DataPoint::</text>
<text text-anchor="middle" x="224" y="-260.5" font-family="Helvetica,sans-Serif" font-size="10.00">Scalar &gt;, 2 *32 &gt;</text>
<polyline fill="none" stroke="black" points="157,-253.5 291,-253.5 "/>
<text text-anchor="start" x="165" y="-241.5" font-family="Helvetica,sans-Serif" font-size="10.00"># m_size</text>
<polyline fill="none" stroke="black" points="157,-234.5 291,-234.5 "/>
<text text-anchor="start" x="165" y="-222.5" font-family="Helvetica,sans-Serif" font-size="10.00">+ Stack()</text>
<text text-anchor="start" x="165" y="-211.5" font-family="Helvetica,sans-Serif" font-size="10.00">+ top()</text>
<text text-anchor="start" x="165" y="-200.5" font-family="Helvetica,sans-Serif" font-size="10.00">+ top()</text>
<text text-anchor="start" x="165" y="-189.5" font-family="Helvetica,sans-Serif" font-size="10.00">+ empty()</text>
<text text-anchor="start" x="165" y="-178.5" font-family="Helvetica,sans-Serif" font-size="10.00">+ size()</text>
<text text-anchor="start" x="165" y="-167.5" font-family="Helvetica,sans-Serif" font-size="10.00">+ push()</text>
<text text-anchor="start" x="165" y="-156.5" font-family="Helvetica,sans-Serif" font-size="10.00">+ push()</text>
<text text-anchor="start" x="165" y="-145.5" font-family="Helvetica,sans-Serif" font-size="10.00">+ pop()</text>
<text text-anchor="start" x="165" y="-134.5" font-family="Helvetica,sans-Serif" font-size="10.00">+ clear()</text>
</a>
</g>
</g>
<!-- Node2&#45;&gt;Node1 -->
<g id="edge1" class="edge">
<title>Node2&#45;&gt;Node1</title>
<path fill="none" stroke="#404040" d="M224,-127.48C224,-115.3 224,-103.13 224,-91.94"/>
<polygon fill="none" stroke="#404040" points="224,-91.76 220,-85.76 224,-79.76 228,-85.76 224,-91.76"/>
<text text-anchor="middle" x="250.5" y="-101" font-family="Helvetica,sans-Serif" font-size="10.00"> #m_stack</text>
</g>
<!-- Node3 -->
<g id="node3" class="node">
<title>Node3</title>
<g id="a_node3"><a xlink:title=" ">
<polygon fill="white" stroke="#bfbfbf" points="105,-568.5 105,-658.5 233,-658.5 233,-568.5 105,-568.5"/>
<text text-anchor="start" x="113" y="-646.5" font-family="Helvetica,sans-Serif" font-size="10.00">std::array&lt; Ponca::</text>
<text text-anchor="start" x="113" y="-635.5" font-family="Helvetica,sans-Serif" font-size="10.00">IndexSquaredDistance</text>
<text text-anchor="start" x="113" y="-624.5" font-family="Helvetica,sans-Serif" font-size="10.00">&lt; typename DataPoint</text>
<text text-anchor="middle" x="169" y="-613.5" font-family="Helvetica,sans-Serif" font-size="10.00">::Scalar &gt;, N &gt;</text>
<polyline fill="none" stroke="#bfbfbf" points="105,-606.5 233,-606.5 "/>
<text text-anchor="middle" x="169" y="-594.5" font-family="Helvetica,sans-Serif" font-size="10.00"> </text>
<polyline fill="none" stroke="#bfbfbf" points="105,-587.5 233,-587.5 "/>
<text text-anchor="middle" x="169" y="-575.5" font-family="Helvetica,sans-Serif" font-size="10.00"> </text>
</a>
</g>
</g>
<!-- Node3&#45;&gt;Node2 -->
<g id="edge2" class="edge">
<title>Node3&#45;&gt;Node2</title>
<path fill="none" stroke="#404040" d="M175.15,-568.34C183.53,-508.12 198.8,-398.5 210.04,-317.77"/>
<polygon fill="none" stroke="#404040" points="210.08,-317.46 206.95,-310.96 211.74,-305.57 214.87,-312.07 210.08,-317.46"/>
<text text-anchor="middle" x="226.5" y="-445.5" font-family="Helvetica,sans-Serif" font-size="10.00"> #m_data</text>
</g>
<!-- Node4 -->
<g id="node4" class="node">
<title>Node4</title>
<g id="a_node4"><a xlink:href="structPonca_1_1IndexSquaredDistance.html" target="_top" xlink:title=" ">
<polygon fill="white" stroke="black" points="0,-717.5 0,-796.5 176,-796.5 176,-717.5 0,-717.5"/>
<text text-anchor="start" x="8" y="-784.5" font-family="Helvetica,sans-Serif" font-size="10.00">Ponca::IndexSquaredDistance</text>
<text text-anchor="middle" x="88" y="-773.5" font-family="Helvetica,sans-Serif" font-size="10.00">&lt; typename DataPoint::Scalar &gt;</text>
<polyline fill="none" stroke="black" points="0,-766.5 176,-766.5 "/>
<text text-anchor="start" x="8" y="-754.5" font-family="Helvetica,sans-Serif" font-size="10.00">+ index</text>
<text text-anchor="start" x="8" y="-743.5" font-family="Helvetica,sans-Serif" font-size="10.00">+ squared_distance</text>
<polyline fill="none" stroke="black" points="0,-736.5 176,-736.5 "/>
<text text-anchor="start" x="8" y="-724.5" font-family="Helvetica,sans-Serif" font-size="10.00">+ operator&lt;()</text>
</a>
</g>
</g>
<!-- Node4&#45;&gt;Node3 -->
<g id="edge3" class="edge">
<title>Node4&#45;&gt;Node3</title>
<path fill="none" stroke="#404040" d="M81.88,-717.44C81.42,-704.03 82.91,-689.29 89,-677 91.18,-672.6 93.84,-668.41 96.84,-664.45"/>
<polygon fill="none" stroke="#404040" points="97.1,-664.14 97.99,-656.99 104.94,-655.05 104.05,-662.21 97.1,-664.14"/>
<text text-anchor="middle" x="118" y="-685.5" font-family="Helvetica,sans-Serif" font-size="10.00"> +elements</text>
</g>
<!-- Node5 -->
<g id="node5" class="node">
<title>Node5</title>
<g id="a_node5"><a xlink:href="structPonca_1_1IndexSquaredDistance.html" target="_top" xlink:title="Associates an index with a distance.">
<polygon fill="white" stroke="black" points="7.5,-855.5 7.5,-934.5 168.5,-934.5 168.5,-855.5 7.5,-855.5"/>
<text text-anchor="start" x="15.5" y="-922.5" font-family="Helvetica,sans-Serif" font-size="10.00">Ponca::IndexSquaredDistance</text>
<text text-anchor="middle" x="88" y="-911.5" font-family="Helvetica,sans-Serif" font-size="10.00">&lt; Scalar &gt;</text>
<polyline fill="none" stroke="black" points="7.5,-904.5 168.5,-904.5 "/>
<text text-anchor="start" x="15.5" y="-892.5" font-family="Helvetica,sans-Serif" font-size="10.00">+ index</text>
<text text-anchor="start" x="15.5" y="-881.5" font-family="Helvetica,sans-Serif" font-size="10.00">+ squared_distance</text>
<polyline fill="none" stroke="black" points="7.5,-874.5 168.5,-874.5 "/>
<text text-anchor="start" x="15.5" y="-862.5" font-family="Helvetica,sans-Serif" font-size="10.00">+ operator&lt;()</text>
</a>
</g>
</g>
<!-- Node5&#45;&gt;Node4 -->
<g id="edge4" class="edge">
<title>Node5&#45;&gt;Node4</title>
<path fill="none" stroke="orange" d="M88,-845.18C88,-829.25 88,-811.79 88,-796.7"/>
<polygon fill="orange" stroke="orange" points="84.5,-845.39 88,-855.39 91.5,-845.39 84.5,-845.39"/>
<text text-anchor="start" x="88" y="-829" font-family="Helvetica,sans-Serif" font-size="10.00"> &lt; typename DataPoint</text>
<text text-anchor="middle" x="145.5" y="-818" font-family="Helvetica,sans-Serif" font-size="10.00">::Scalar &gt;</text>
</g>
<!-- Node6 -->
<g id="node6" class="node">
<title>Node6</title>
<g id="a_node6"><a xlink:title="STL class.">
<polygon fill="white" stroke="#bfbfbf" points="309,-728.5 309,-785.5 401,-785.5 401,-728.5 309,-728.5"/>
<text text-anchor="middle" x="355" y="-773.5" font-family="Helvetica,sans-Serif" font-size="10.00">std::array&lt; T &gt;</text>
<polyline fill="none" stroke="#bfbfbf" points="309,-766.5 401,-766.5 "/>
<text text-anchor="middle" x="355" y="-754.5" font-family="Helvetica,sans-Serif" font-size="10.00"> </text>
<polyline fill="none" stroke="#bfbfbf" points="309,-747.5 401,-747.5 "/>
<text text-anchor="middle" x="355" y="-735.5" font-family="Helvetica,sans-Serif" font-size="10.00"> </text>
</a>
</g>
</g>
<!-- Node6&#45;&gt;Node3 -->
<g id="edge5" class="edge">
<title>Node6&#45;&gt;Node3</title>
<path fill="none" stroke="orange" d="M298.8,-754.13C257.72,-749.52 204.28,-736.14 175,-699 166.17,-687.8 163.17,-672.95 162.85,-658.83"/>
<polygon fill="orange" stroke="orange" points="298.66,-757.63 308.95,-755.12 299.34,-750.67 298.66,-757.63"/>
<text text-anchor="start" x="175" y="-691" font-family="Helvetica,sans-Serif" font-size="10.00"> &lt; Ponca::IndexSquaredDistance</text>
<text text-anchor="middle" x="267" y="-680" font-family="Helvetica,sans-Serif" font-size="10.00">&lt; typename DataPoint::Scalar &gt;, N &gt;</text>
</g>
<!-- Node9 -->
<g id="node9" class="node">
<title>Node9</title>
<g id="a_node9"><a xlink:title=" ">
<polygon fill="white" stroke="#bfbfbf" points="323.5,-585 323.5,-642 428.5,-642 428.5,-585 323.5,-585"/>
<text text-anchor="middle" x="376" y="-630" font-family="Helvetica,sans-Serif" font-size="10.00">std::array&lt; T, N &gt;</text>
<polyline fill="none" stroke="#bfbfbf" points="323.5,-623 428.5,-623 "/>
<text text-anchor="middle" x="376" y="-611" font-family="Helvetica,sans-Serif" font-size="10.00"> </text>
<polyline fill="none" stroke="#bfbfbf" points="323.5,-604 428.5,-604 "/>
<text text-anchor="middle" x="376" y="-592" font-family="Helvetica,sans-Serif" font-size="10.00"> </text>
</a>
</g>
</g>
<!-- Node6&#45;&gt;Node9 -->
<g id="edge10" class="edge">
<title>Node6&#45;&gt;Node9</title>
<path fill="none" stroke="orange" d="M360.61,-718.21C364.17,-694.23 368.69,-663.75 371.91,-642.05"/>
<polygon fill="orange" stroke="orange" points="357.1,-717.98 359.1,-728.38 364.03,-719 357.1,-717.98"/>
<text text-anchor="middle" x="389" y="-685.5" font-family="Helvetica,sans-Serif" font-size="10.00"> &lt; T, N &gt;</text>
</g>
<!-- Node7 -->
<g id="node7" class="node">
<title>Node7</title>
<g id="a_node7"><a xlink:title=" ">
<polygon fill="white" stroke="#bfbfbf" points="383.5,-866.5 383.5,-923.5 412.5,-923.5 412.5,-866.5 383.5,-866.5"/>
<text text-anchor="middle" x="398" y="-911.5" font-family="Helvetica,sans-Serif" font-size="10.00">T</text>
<polyline fill="none" stroke="#bfbfbf" points="383.5,-904.5 412.5,-904.5 "/>
<text text-anchor="middle" x="398" y="-892.5" font-family="Helvetica,sans-Serif" font-size="10.00"> </text>
<polyline fill="none" stroke="#bfbfbf" points="383.5,-885.5 412.5,-885.5 "/>
<text text-anchor="middle" x="398" y="-873.5" font-family="Helvetica,sans-Serif" font-size="10.00"> </text>
</a>
</g>
</g>
<!-- Node7&#45;&gt;Node6 -->
<g id="edge6" class="edge">
<title>Node7&#45;&gt;Node6</title>
<path fill="none" stroke="#404040" d="M383.5,-873.58C376.79,-863.12 369.35,-849.89 365,-837 360.82,-824.62 358.37,-810.62 356.93,-797.87"/>
<polygon fill="none" stroke="#404040" points="356.91,-797.61 352.38,-792 355.81,-785.66 360.34,-791.27 356.91,-797.61"/>
<text text-anchor="middle" x="394" y="-823.5" font-family="Helvetica,sans-Serif" font-size="10.00"> +elements</text>
</g>
<!-- Node7&#45;&gt;Node9 -->
<g id="edge9" class="edge">
<title>Node7&#45;&gt;Node9</title>
<path fill="none" stroke="#404040" d="M412.6,-866.93C416.82,-857.71 420.87,-847.15 423,-837 431.21,-797.85 457.73,-807.27 416,-677 413.3,-668.57 409.16,-660.15 404.56,-652.36"/>
<polygon fill="none" stroke="#404040" points="404.52,-652.3 397.92,-649.38 398.08,-642.17 404.67,-645.09 404.52,-652.3"/>
<text text-anchor="middle" x="467" y="-754.5" font-family="Helvetica,sans-Serif" font-size="10.00"> +elements</text>
</g>
<!-- Node8 -->
<g id="node8" class="node">
<title>Node8</title>
<g id="a_node8"><a xlink:href="classPonca_1_1Stack.html" target="_top" xlink:title="Stack with fixed&#45;size storage.">
<polygon fill="white" stroke="black" points="295.5,-375.5 295.5,-520.5 416.5,-520.5 416.5,-375.5 295.5,-375.5"/>
<text text-anchor="middle" x="356" y="-508.5" font-family="Helvetica,sans-Serif" font-size="10.00">Ponca::Stack&lt; T, N &gt;</text>
<polyline fill="none" stroke="black" points="295.5,-501.5 416.5,-501.5 "/>
<text text-anchor="start" x="303.5" y="-489.5" font-family="Helvetica,sans-Serif" font-size="10.00"># m_size</text>
<polyline fill="none" stroke="black" points="295.5,-482.5 416.5,-482.5 "/>
<text text-anchor="start" x="303.5" y="-470.5" font-family="Helvetica,sans-Serif" font-size="10.00">+ Stack()</text>
<text text-anchor="start" x="303.5" y="-459.5" font-family="Helvetica,sans-Serif" font-size="10.00">+ top()</text>
<text text-anchor="start" x="303.5" y="-448.5" font-family="Helvetica,sans-Serif" font-size="10.00">+ top()</text>
<text text-anchor="start" x="303.5" y="-437.5" font-family="Helvetica,sans-Serif" font-size="10.00">+ empty()</text>
<text text-anchor="start" x="303.5" y="-426.5" font-family="Helvetica,sans-Serif" font-size="10.00">+ size()</text>
<text text-anchor="start" x="303.5" y="-415.5" font-family="Helvetica,sans-Serif" font-size="10.00">+ push()</text>
<text text-anchor="start" x="303.5" y="-404.5" font-family="Helvetica,sans-Serif" font-size="10.00">+ push()</text>
<text text-anchor="start" x="303.5" y="-393.5" font-family="Helvetica,sans-Serif" font-size="10.00">+ pop()</text>
<text text-anchor="start" x="303.5" y="-382.5" font-family="Helvetica,sans-Serif" font-size="10.00">+ clear()</text>
</a>
</g>
</g>
<!-- Node8&#45;&gt;Node2 -->
<g id="edge7" class="edge">
<title>Node8&#45;&gt;Node2</title>
<path fill="none" stroke="orange" d="M309.64,-366.4C298.33,-346.73 286.16,-325.58 274.66,-305.58"/>
<polygon fill="orange" stroke="orange" points="306.76,-368.41 314.78,-375.33 312.83,-364.92 306.76,-368.41"/>
<text text-anchor="start" x="302" y="-349" font-family="Helvetica,sans-Serif" font-size="10.00"> &lt; Ponca::IndexSquaredDistance</text>
<text text-anchor="start" x="302" y="-338" font-family="Helvetica,sans-Serif" font-size="10.00">&lt; typename DataPoint::Scalar</text>
<text text-anchor="middle" x="382" y="-327" font-family="Helvetica,sans-Serif" font-size="10.00"> &gt;, 2 *32 &gt;</text>
</g>
<!-- Node9&#45;&gt;Node8 -->
<g id="edge8" class="edge">
<title>Node9&#45;&gt;Node8</title>
<path fill="none" stroke="#404040" d="M372.61,-584.76C370.83,-570.2 368.54,-551.49 366.23,-532.64"/>
<polygon fill="none" stroke="#404040" points="366.22,-532.52 361.52,-527.05 364.76,-520.61 369.46,-526.08 366.22,-532.52"/>
<text text-anchor="middle" x="391.5" y="-542" font-family="Helvetica,sans-Serif" font-size="10.00"> #m_data</text>
</g>
</g>
</svg>
        <g id="navigator" transform="translate(0 0)" fill="#404254">
                <rect fill="#f2f5e9" fill-opacity="0.5" stroke="#606060" stroke-width=".5" x="0" y="0" width="60" height="60"/>
                <use id="zoomplus" xlink:href="#zoomPlus" x="17" y="9" onmousedown="handleZoom(evt,'in')"/>
                <use id="zoomminus" xlink:href="#zoomMin" x="42" y="9" onmousedown="handleZoom(evt,'out')"/>
                <use id="reset" xlink:href="#resetDef" x="30" y="36" onmousedown="handleReset()"/>
                <g id="arrowUp" xlink:href="#dirArrow" transform="translate(30 24)" onmousedown="handlePan(0,-1)">
                  <use xlink:href="#rim" fill="#404040">
                        <set attributeName="fill" to="#808080" begin="arrowUp.mouseover" end="arrowUp.mouseout"/>
                  </use>
                  <path fill="none" stroke="white" stroke-width="1.5" d="M0,-3.0v7 M-2.5,-0.5L0,-3.0L2.5,-0.5"/>
                </g>
                <g id="arrowRight" xlink:href="#dirArrow" transform="rotate(90) translate(36 -43)" onmousedown="handlePan(1,0)">
                  <use xlink:href="#rim" fill="#404040">
                        <set attributeName="fill" to="#808080" begin="arrowRight.mouseover" end="arrowRight.mouseout"/>
                  </use>
                  <path fill="none" stroke="white" stroke-width="1.5" d="M0,-3.0v7 M-2.5,-0.5L0,-3.0L2.5,-0.5"/>
                </g>
                <g id="arrowDown" xlink:href="#dirArrow" transform="rotate(180) translate(-30 -48)" onmousedown="handlePan(0,1)">
                  <use xlink:href="#rim" fill="#404040">
                        <set attributeName="fill" to="#808080" begin="arrowDown.mouseover" end="arrowDown.mouseout"/>
                  </use>
                  <path fill="none" stroke="white" stroke-width="1.5" d="M0,-3.0v7 M-2.5,-0.5L0,-3.0L2.5,-0.5"/>
                </g>
                <g id="arrowLeft" xlink:href="#dirArrow" transform="rotate(270) translate(-36 17)" onmousedown="handlePan(-1,0)">
                  <use xlink:href="#rim" fill="#404040">
                        <set attributeName="fill" to="#808080" begin="arrowLeft.mouseover" end="arrowLeft.mouseout"/>
                  </use>
                  <path fill="none" stroke="white" stroke-width="1.5" d="M0,-3.0v7 M-2.5,-0.5L0,-3.0L2.5,-0.5"/>
                </g>
        </g>
        <svg viewBox="0 0 15 15" width="100%" height="30px" preserveAspectRatio="xMaxYMin meet">
         <g id="arrow_out" transform="scale(0.3 0.3)">
          <a xlink:href="classPonca_1_1KdTreeQuery__coll__graph_org.svg" target="_base">
           <rect id="button" ry="5" rx="5" y="6" x="6" height="38" width="38"
                fill="#f2f5e9" fill-opacity="0.5" stroke="#606060" stroke-width="1.0"/>
           <path id="arrow"
             d="M 11.500037,31.436501 C 11.940474,20.09759 22.043105,11.32322 32.158766,21.979434 L 37.068811,17.246167 C 37.068811,17.246167 37.088388,32 37.088388,32 L 22.160133,31.978069 C 22.160133,31.978069 26.997745,27.140456 26.997745,27.140456 C 18.528582,18.264221 13.291696,25.230495 11.500037,31.436501 z"
             style="fill:#404040;"/>
          </a>
         </g>
        </svg>
</svg>
