<?xml version="1.0" encoding="UTF-8" standalone="no"?>
<!DOCTYPE svg PUBLIC "-//W3C//DTD SVG 1.1//EN"
 "http://www.w3.org/Graphics/SVG/1.1/DTD/svg11.dtd">
<!-- Generated by graphviz version 2.43.0 (0)
 -->
<!-- Title: Ponca::StaticKdTreeBase&lt; Traits &gt; Pages: 1 -->
<!--zoomable 505 -->

<svg id="main" version="1.1" xmlns="http://www.w3.org/2000/svg" xmlns:xlink="http://www.w3.org/1999/xlink" xml:space="preserve" onload="init(evt)">
<style type="text/css"><![CDATA[
.node, .edge {opacity: 0.7;}
.node.selected, .edge.selected {opacity: 1;}
.edge:hover path { stroke: red; }
.edge:hover polygon { stroke: red; fill: red; }
]]></style>

<defs>
  <circle id="rim" cx="0" cy="0" r="7"/>
  <circle id="rim2" cx="0" cy="0" r="3.5"/>
  <g id="zoomPlus">
    <use xlink:href="#rim" fill="#404040"><set attributeName="fill" to="#808080" begin="zoomplus.mouseover" end="zoomplus.mouseout"/></use>
    <path d="M-4,0h8M0,-4v8" fill="none" stroke="white" stroke-width="1.5" pointer-events="none"/>
  </g>
  <g id="zoomMin">
    <use xlink:href="#rim" fill="#404040"><set attributeName="fill" to="#808080" begin="zoomminus.mouseover" end="zoomminus.mouseout"/></use>
    <path d="M-4,0h8" fill="none" stroke="white" stroke-width="1.5" pointer-events="none"/>
  </g>
  <g id="arrowUp" transform="translate(30 24)">
    <use xlink:href="#rim"/>
    <path pointer-events="none" fill="none" stroke="white" stroke-width="1.5" d="M0,-3.0v7 M-2.5,-0.5L0,-3.0L2.5,-0.5"/>
  </g>
  <g id="arrowRight" transform="rotate(90) translate(36 -43)">
    <use xlink:href="#rim"/>
    <path pointer-events="none" fill="none" stroke="white" stroke-width="1.5" d="M0,-3.0v7 M-2.5,-0.5L0,-3.0L2.5,-0.5"/>
  </g>
  <g id="arrowDown" transform="rotate(180) translate(-30 -48)">
    <use xlink:href="#rim"/>
    <path pointer-events="none" fill="none" stroke="white" stroke-width="1.5" d="M0,-3.0v7 M-2.5,-0.5L0,-3.0L2.5,-0.5"/>
  </g>
  <g id="arrowLeft" transform="rotate(270) translate(-36 17)">
    <use xlink:href="#rim"/>
    <path pointer-events="none" fill="none" stroke="white" stroke-width="1.5" d="M0,-3.0v7 M-2.5,-0.5L0,-3.0L2.5,-0.5"/>
  </g>
  <g id="resetDef">
    <use xlink:href="#rim2" fill="#404040"><set attributeName="fill" to="#808080" begin="reset.mouseover" end="reset.mouseout"/></use>
  </g>
</defs>
<script type="application/ecmascript">
var viewWidth = 158;
var viewHeight = 505;
var sectionId = 'dynsection-1';
</script>
<script type="application/ecmascript" xlink:href="svg.min.js"/>
<svg id="graph" class="graph">
<g id="viewport">
<title>Ponca::StaticKdTreeBase&lt; Traits &gt;</title>
<!-- Node1 -->
<g id="Node000001" class="node">
<title>Node1</title>
<g id="a_Node000001"><a xlink:title="Customizable static base class for KdTree datastructure implementations.">
<polygon fill="#999999" stroke="transparent" points="150,-300 0,-300 0,0 150,0 150,-300"/>
<text text-anchor="start" x="14.5" y="-288" font-family="Helvetica,sans-Serif" font-size="10.00">Ponca::StaticKdTreeBase</text>
<text text-anchor="start" x="50.5" y="-277" font-family="Helvetica,sans-Serif" font-size="10.00">&lt; Traits &gt;</text>
<text text-anchor="start" x="4" y="-262" font-family="Helvetica,sans-Serif" font-size="10.00">+</text>
<text text-anchor="start" x="17" y="-262" font-family="Helvetica,sans-Serif" font-size="10.00">MAX_NODE_COUNT</text>
<text text-anchor="start" x="4" y="-247" font-family="Helvetica,sans-Serif" font-size="10.00">+</text>
<text text-anchor="start" x="17" y="-247" font-family="Helvetica,sans-Serif" font-size="10.00">MAX_POINT_COUNT</text>
<text text-anchor="start" x="4" y="-232" font-family="Helvetica,sans-Serif" font-size="10.00">+</text>
<text text-anchor="start" x="17" y="-232" font-family="Helvetica,sans-Serif" font-size="10.00">MAX_DEPTH</text>
<text text-anchor="start" x="4" y="-217" font-family="Helvetica,sans-Serif" font-size="10.00">+</text>
<text text-anchor="start" x="17" y="-217" font-family="Helvetica,sans-Serif" font-size="10.00">SUPPORTS_SUBSAMPLING</text>
<text text-anchor="start" x="4" y="-202" font-family="Helvetica,sans-Serif" font-size="10.00">#</text>
<text text-anchor="start" x="17" y="-202" font-family="Helvetica,sans-Serif" font-size="10.00">m_min_cell_size</text>
<text text-anchor="start" x="4" y="-187" font-family="Helvetica,sans-Serif" font-size="10.00">#</text>
<text text-anchor="start" x="17" y="-187" font-family="Helvetica,sans-Serif" font-size="10.00">m_leaf_count</text>
<text text-anchor="start" x="4" y="-172" font-family="Helvetica,sans-Serif" font-size="10.00">+</text>
<text text-anchor="start" x="17" y="-172" font-family="Helvetica,sans-Serif" font-size="10.00">StaticKdTreeBase()</text>
<text text-anchor="start" x="4" y="-157" font-family="Helvetica,sans-Serif" font-size="10.00">+</text>
<text text-anchor="start" x="17" y="-157" font-family="Helvetica,sans-Serif" font-size="10.00">nodeCount()</text>
<text text-anchor="start" x="4" y="-142" font-family="Helvetica,sans-Serif" font-size="10.00">+</text>
<text text-anchor="start" x="17" y="-142" font-family="Helvetica,sans-Serif" font-size="10.00">sampleCount()</text>
<text text-anchor="start" x="4" y="-127" font-family="Helvetica,sans-Serif" font-size="10.00">+</text>
<text text-anchor="start" x="17" y="-127" font-family="Helvetica,sans-Serif" font-size="10.00">pointCount()</text>
<text text-anchor="start" x="4" y="-112" font-family="Helvetica,sans-Serif" font-size="10.00">+</text>
<text text-anchor="start" x="17" y="-112" font-family="Helvetica,sans-Serif" font-size="10.00">leafCount()</text>
<text text-anchor="start" x="4" y="-97" font-family="Helvetica,sans-Serif" font-size="10.00">+</text>
<text text-anchor="start" x="17" y="-97" font-family="Helvetica,sans-Serif" font-size="10.00">points()</text>
<text text-anchor="start" x="4" y="-82" font-family="Helvetica,sans-Serif" font-size="10.00">+</text>
<text text-anchor="start" x="17" y="-82" font-family="Helvetica,sans-Serif" font-size="10.00">points()</text>
<text text-anchor="start" x="4" y="-67" font-family="Helvetica,sans-Serif" font-size="10.00">+</text>
<text text-anchor="start" x="17" y="-67" font-family="Helvetica,sans-Serif" font-size="10.00">nodes()</text>
<text text-anchor="start" x="4" y="-52" font-family="Helvetica,sans-Serif" font-size="10.00">+</text>
<text text-anchor="start" x="17" y="-52" font-family="Helvetica,sans-Serif" font-size="10.00">samples()</text>
<text text-anchor="start" x="4" y="-37" font-family="Helvetica,sans-Serif" font-size="10.00">+</text>
<text text-anchor="start" x="17" y="-37" font-family="Helvetica,sans-Serif" font-size="10.00">buffers()</text>
<text text-anchor="start" x="17" y="-22" font-family="Helvetica,sans-Serif" font-size="10.00">and 19 more...</text>
<text text-anchor="start" x="4" y="-7" font-family="Helvetica,sans-Serif" font-size="10.00">#</text>
<text text-anchor="start" x="17" y="-7" font-family="Helvetica,sans-Serif" font-size="10.00">StaticKdTreeBase()</text>
<polygon fill="#666666" stroke="#666666" points="0,-272 0,-272 150,-272 150,-272 0,-272"/>
<polygon fill="#666666" stroke="#666666" points="0,-182 0,-182 15,-182 15,-182 0,-182"/>
<polygon fill="#666666" stroke="#666666" points="15,-182 15,-182 150,-182 150,-182 15,-182"/>
<polygon fill="none" stroke="#666666" points="0,0 0,-300 150,-300 150,0 0,0"/>
</a>
</g>
</g>
<!-- Node2 -->
<g id="Node000002" class="node">
<title>Node2</title>
<g id="a_Node000002"><a xlink:href="structPonca_1_1StaticKdTreeBase_1_1Buffers.html" target="_top" xlink:title="Internal structure storing all the buffers used by the KdTree.">
<polygon fill="white" stroke="transparent" points="140.5,-497 9.5,-497 9.5,-347 140.5,-347 140.5,-497"/>
<text text-anchor="start" x="15" y="-485" font-family="Helvetica,sans-Serif" font-size="10.00">Ponca::StaticKdTreeBase</text>
<text text-anchor="start" x="30.5" y="-474" font-family="Helvetica,sans-Serif" font-size="10.00">&lt; Traits &gt;::Buffers</text>
<text text-anchor="start" x="26.5" y="-459" font-family="Helvetica,sans-Serif" font-size="10.00">+</text>
<text text-anchor="start" x="52" y="-459" font-family="Helvetica,sans-Serif" font-size="10.00">points</text>
<text text-anchor="start" x="26.5" y="-444" font-family="Helvetica,sans-Serif" font-size="10.00">+</text>
<text text-anchor="start" x="52" y="-444" font-family="Helvetica,sans-Serif" font-size="10.00">nodes</text>
<text text-anchor="start" x="26.5" y="-429" font-family="Helvetica,sans-Serif" font-size="10.00">+</text>
<text text-anchor="start" x="52" y="-429" font-family="Helvetica,sans-Serif" font-size="10.00">indices</text>
<text text-anchor="start" x="26.5" y="-414" font-family="Helvetica,sans-Serif" font-size="10.00">+</text>
<text text-anchor="start" x="52" y="-414" font-family="Helvetica,sans-Serif" font-size="10.00">points_size</text>
<text text-anchor="start" x="26.5" y="-399" font-family="Helvetica,sans-Serif" font-size="10.00">+</text>
<text text-anchor="start" x="52" y="-399" font-family="Helvetica,sans-Serif" font-size="10.00">nodes_size</text>
<text text-anchor="start" x="26.5" y="-384" font-family="Helvetica,sans-Serif" font-size="10.00">+</text>
<text text-anchor="start" x="52" y="-384" font-family="Helvetica,sans-Serif" font-size="10.00">indices_size</text>
<text text-anchor="start" x="26.5" y="-369" font-family="Helvetica,sans-Serif" font-size="10.00">+</text>
<text text-anchor="start" x="52" y="-369" font-family="Helvetica,sans-Serif" font-size="10.00">Buffers()</text>
<text text-anchor="start" x="26.5" y="-354" font-family="Helvetica,sans-Serif" font-size="10.00">+</text>
<text text-anchor="start" x="52" y="-354" font-family="Helvetica,sans-Serif" font-size="10.00">Buffers()</text>
<polygon fill="#666666" stroke="#666666" points="10,-469 10,-469 141,-469 141,-469 10,-469"/>
<polygon fill="#666666" stroke="#666666" points="10,-379 10,-379 50,-379 50,-379 10,-379"/>
<polygon fill="#666666" stroke="#666666" points="50,-379 50,-379 141,-379 141,-379 50,-379"/>
<polygon fill="none" stroke="#666666" points="9.5,-347 9.5,-497 140.5,-497 140.5,-347 9.5,-347"/>
</a>
</g>
</g>
<!-- Node2&#45;&gt;Node1 -->
<g id="edge1_Node000001_Node000002" class="edge">
<title>Node2&#45;&gt;Node1</title>
<g id="a_edge1_Node000001_Node000002"><a xlink:title=" ">
<path fill="none" stroke="#63b8ff" d="M75,-346.86C75,-335.86 75,-324.17 75,-312.19"/>
<polygon fill="none" stroke="#63b8ff" points="75,-312.14 71,-306.14 75,-300.14 79,-306.14 75,-312.14"/>
</a>
</g>
<text text-anchor="middle" x="99" y="-321" font-family="Helvetica,sans-Serif" font-size="10.00" fill="grey"> #m_bufs</text>
</g>
</g>
</svg>

<g id="navigator" transform="translate(0 0)" fill="#404254">
  <rect fill="#f2f5e9" fill-opacity="0.5" stroke="#606060" stroke-width=".5" x="0" y="0" width="60" height="60"/>
  <use id="zoomplus" xlink:href="#zoomPlus" x="17" y="9" onmousedown="handleZoom(evt,'in')"/>
  <use id="zoomminus" xlink:href="#zoomMin" x="42" y="9" onmousedown="handleZoom(evt,'out')"/>
  <use id="reset" xlink:href="#resetDef" x="30" y="36" onmousedown="handleReset()"/>
   <use id="arrowup" xlink:href="#arrowUp" x="0" y="0" onmousedown="handlePan(0,-1)"/>
  <use id="arrowright" xlink:href="#arrowRight" x="0" y="0" onmousedown="handlePan(1,0)"/>
  <use id="arrowdown" xlink:href="#arrowDown" x="0" y="0" onmousedown="handlePan(0,1)"/>
  <use id="arrowleft" xlink:href="#arrowLeft" x="0" y="0" onmousedown="handlePan(-1,0)"/>
</g>
<svg viewBox="0 0 15 15" width="100%" height="30px" preserveAspectRatio="xMaxYMin meet">
 <g id="arrow_out" transform="scale(0.3 0.3)">
  <a xlink:href="classPonca_1_1StaticKdTreeBase__coll__graph_org.svg" target="_base">
   <rect id="button" ry="5" rx="5" y="6" x="6" height="38" width="38"
        fill="#f2f5e9" fill-opacity="0.5" stroke="#606060" stroke-width="1.0"/>
   <path id="arrow"
     d="M 11.500037,31.436501 C 11.940474,20.09759 22.043105,11.32322 32.158766,21.979434 L 37.068811,17.246167 C 37.068811,17.246167 37.088388,32 37.088388,32 L 22.160133,31.978069 C 22.160133,31.978069 26.997745,27.140456 26.997745,27.140456 C 18.528582,18.264221 13.291696,25.230495 11.500037,31.436501 z"
     style="fill:#404040;"/>
  </a>
 </g>
</svg>

<style type='text/css'>
<![CDATA[
[data-mouse-over-selected='false'] { opacity: 0.7; }
[data-mouse-over-selected='true']  { opacity: 1.0; }
]]>
</style>
<script type="application/ecmascript"><![CDATA[
document.addEventListener('DOMContentLoaded', (event) => {
  highlightEdges();
  highlightAdjacentNodes();
});
]]></script>
</svg>
