<?xml version="1.0" encoding="UTF-8" standalone="no"?>
<!DOCTYPE svg PUBLIC "-//W3C//DTD SVG 1.1//EN"
 "http://www.w3.org/Graphics/SVG/1.1/DTD/svg11.dtd">
<!-- Generated by graphviz version 2.43.0 (0)
 -->
<!-- Title: Ponca::KdTreeQuery&lt; Traits &gt; Pages: 1 -->
<svg width="522pt" height="265pt"
 viewBox="0.00 0.00 521.50 265.00" xmlns="http://www.w3.org/2000/svg" xmlns:xlink="http://www.w3.org/1999/xlink">
<g id="graph0" class="graph" transform="scale(1 1) rotate(0) translate(4 261)">
<title>Ponca::KdTreeQuery&lt; Traits &gt;</title>
<!-- Node1 -->
<g id="Node000001" class="node">
<title>Node1</title>
<g id="a_Node000001"><a xlink:title=" ">
<polygon fill="#999999" stroke="transparent" points="309,-257 201,-257 201,-152 309,-152 309,-257"/>
<text text-anchor="start" x="206" y="-244.5" font-family="Helvetica,sans-Serif" font-size="10.00">Ponca::KdTreeQuery</text>
<text text-anchor="start" x="230.5" y="-233.5" font-family="Helvetica,sans-Serif" font-size="10.00">&lt; Traits &gt;</text>
<text text-anchor="start" x="206" y="-218.5" font-family="Helvetica,sans-Serif" font-size="10.00">#</text>
<text text-anchor="start" x="220" y="-218.5" font-family="Helvetica,sans-Serif" font-size="10.00">m_kdtree</text>
<text text-anchor="start" x="206" y="-203.5" font-family="Helvetica,sans-Serif" font-size="10.00">#</text>
<text text-anchor="start" x="220" y="-203.5" font-family="Helvetica,sans-Serif" font-size="10.00">m_stack</text>
<text text-anchor="start" x="206" y="-188.5" font-family="Helvetica,sans-Serif" font-size="10.00">+</text>
<text text-anchor="start" x="220" y="-188.5" font-family="Helvetica,sans-Serif" font-size="10.00">KdTreeQuery()</text>
<text text-anchor="start" x="206" y="-173.5" font-family="Helvetica,sans-Serif" font-size="10.00">#</text>
<text text-anchor="start" x="220" y="-173.5" font-family="Helvetica,sans-Serif" font-size="10.00">reset()</text>
<text text-anchor="start" x="206" y="-158.5" font-family="Helvetica,sans-Serif" font-size="10.00">#</text>
<text text-anchor="start" x="220" y="-158.5" font-family="Helvetica,sans-Serif" font-size="10.00">search_internal()</text>
<polygon fill="#666666" stroke="#666666" points="201,-228.5 201,-228.5 309,-228.5 309,-228.5 201,-228.5"/>
<polygon fill="#666666" stroke="#666666" points="201,-198.5 201,-198.5 218,-198.5 218,-198.5 201,-198.5"/>
<polygon fill="#666666" stroke="#666666" points="218,-198.5 218,-198.5 309,-198.5 309,-198.5 218,-198.5"/>
<polygon fill="none" stroke="#666666" points="201,-152 201,-257 309,-257 309,-152 201,-152"/>
</a>
</g>
</g>
<!-- Node2 -->
<g id="Node000002" class="node">
<title>Node2</title>
<g id="a_Node000002"><a xlink:href="classPonca_1_1KdTreeKNearestQueryBase.html" target="_top" xlink:title=" ">
<polygon fill="white" stroke="transparent" points="160,-116 0,-116 0,0 160,0 160,-116"/>
<text text-anchor="start" x="8.5" y="-104" font-family="Helvetica,sans-Serif" font-size="10.00">Ponca::KdTreeKNearestQuery</text>
<text text-anchor="start" x="8.5" y="-93" font-family="Helvetica,sans-Serif" font-size="10.00">Base&lt; Traits, IteratorType,</text>
<text text-anchor="start" x="46.5" y="-82" font-family="Helvetica,sans-Serif" font-size="10.00"> QueryType &gt;</text>
<text text-anchor="start" x="78" y="-67" font-family="Helvetica,sans-Serif" font-size="10.00"> </text>
<text text-anchor="start" x="4" y="-52" font-family="Helvetica,sans-Serif" font-size="10.00">+</text>
<text text-anchor="start" x="17" y="-52" font-family="Helvetica,sans-Serif" font-size="10.00">KdTreeKNearestQueryBase()</text>
<text text-anchor="start" x="4" y="-37" font-family="Helvetica,sans-Serif" font-size="10.00">+</text>
<text text-anchor="start" x="17" y="-37" font-family="Helvetica,sans-Serif" font-size="10.00">begin()</text>
<text text-anchor="start" x="4" y="-22" font-family="Helvetica,sans-Serif" font-size="10.00">+</text>
<text text-anchor="start" x="17" y="-22" font-family="Helvetica,sans-Serif" font-size="10.00">end()</text>
<text text-anchor="start" x="4" y="-7" font-family="Helvetica,sans-Serif" font-size="10.00">#</text>
<text text-anchor="start" x="17" y="-7" font-family="Helvetica,sans-Serif" font-size="10.00">search()</text>
<polygon fill="#bfbfbf" stroke="#bfbfbf" points="0,-77 0,-77 160,-77 160,-77 0,-77"/>
<polygon fill="#bfbfbf" stroke="#bfbfbf" points="0,-62 0,-62 160,-62 160,-62 0,-62"/>
<polygon fill="none" stroke="#bfbfbf" points="0,0 0,-116 160,-116 160,0 0,0"/>
</a>
</g>
</g>
<!-- Node1&#45;&gt;Node2 -->
<g id="edge1_Node000001_Node000002" class="edge">
<title>Node1&#45;&gt;Node2</title>
<g id="a_edge1_Node000001_Node000002"><a xlink:title=" ">
<path fill="none" stroke="#63b8ff" d="M192.85,-152.18C178.72,-140.51 163.63,-128.05 149.22,-116.16"/>
<polygon fill="none" stroke="#63b8ff" points="190.65,-154.9 200.59,-158.57 195.11,-149.51 190.65,-154.9"/>
</a>
</g>
</g>
<!-- Node3 -->
<g id="Node000003" class="node">
<title>Node3</title>
<g id="a_Node000003"><a xlink:href="classPonca_1_1KdTreeNearestQueryBase.html" target="_top" xlink:title=" ">
<polygon fill="white" stroke="transparent" points="332,-116 178,-116 178,0 332,0 332,-116"/>
<text text-anchor="start" x="187" y="-104" font-family="Helvetica,sans-Serif" font-size="10.00">Ponca::KdTreeNearestQuery</text>
<text text-anchor="start" x="187" y="-93" font-family="Helvetica,sans-Serif" font-size="10.00">Base&lt; Traits, IteratorType,</text>
<text text-anchor="start" x="221.5" y="-82" font-family="Helvetica,sans-Serif" font-size="10.00"> QueryType &gt;</text>
<text text-anchor="start" x="253" y="-67" font-family="Helvetica,sans-Serif" font-size="10.00"> </text>
<text text-anchor="start" x="182" y="-52" font-family="Helvetica,sans-Serif" font-size="10.00">+</text>
<text text-anchor="start" x="195" y="-52" font-family="Helvetica,sans-Serif" font-size="10.00">KdTreeNearestQueryBase()</text>
<text text-anchor="start" x="182" y="-37" font-family="Helvetica,sans-Serif" font-size="10.00">+</text>
<text text-anchor="start" x="195" y="-37" font-family="Helvetica,sans-Serif" font-size="10.00">begin()</text>
<text text-anchor="start" x="182" y="-22" font-family="Helvetica,sans-Serif" font-size="10.00">+</text>
<text text-anchor="start" x="195" y="-22" font-family="Helvetica,sans-Serif" font-size="10.00">end()</text>
<text text-anchor="start" x="182" y="-7" font-family="Helvetica,sans-Serif" font-size="10.00">#</text>
<text text-anchor="start" x="195" y="-7" font-family="Helvetica,sans-Serif" font-size="10.00">search()</text>
<polygon fill="#bfbfbf" stroke="#bfbfbf" points="178,-77 178,-77 332,-77 332,-77 178,-77"/>
<polygon fill="#bfbfbf" stroke="#bfbfbf" points="178,-62 178,-62 332,-62 332,-62 178,-62"/>
<polygon fill="none" stroke="#bfbfbf" points="178,0 178,-116 332,-116 332,0 178,0"/>
</a>
</g>
</g>
<!-- Node1&#45;&gt;Node3 -->
<g id="edge2_Node000001_Node000003" class="edge">
<title>Node1&#45;&gt;Node3</title>
<g id="a_edge2_Node000001_Node000003"><a xlink:title=" ">
<path fill="none" stroke="#63b8ff" d="M255,-141.61C255,-133.2 255,-124.6 255,-116.28"/>
<polygon fill="none" stroke="#63b8ff" points="251.5,-141.74 255,-151.74 258.5,-141.74 251.5,-141.74"/>
</a>
</g>
</g>
<!-- Node4 -->
<g id="Node000004" class="node">
<title>Node4</title>
<g id="a_Node000004"><a xlink:href="classPonca_1_1KdTreeRangeQueryBase.html" target="_top" xlink:title=" ">
<polygon fill="white" stroke="transparent" points="513.5,-116 350.5,-116 350.5,0 513.5,0 513.5,-116"/>
<text text-anchor="start" x="356" y="-104" font-family="Helvetica,sans-Serif" font-size="10.00">Ponca::KdTreeRangeQueryBase</text>
<text text-anchor="start" x="356" y="-93" font-family="Helvetica,sans-Serif" font-size="10.00">&lt; Traits, IteratorType,</text>
<text text-anchor="start" x="399" y="-82" font-family="Helvetica,sans-Serif" font-size="10.00"> QueryType &gt;</text>
<text text-anchor="start" x="359" y="-67" font-family="Helvetica,sans-Serif" font-size="10.00">#</text>
<text text-anchor="start" x="376" y="-67" font-family="Helvetica,sans-Serif" font-size="10.00">Iterator</text>
<text text-anchor="start" x="359" y="-52" font-family="Helvetica,sans-Serif" font-size="10.00">+</text>
<text text-anchor="start" x="376" y="-52" font-family="Helvetica,sans-Serif" font-size="10.00">KdTreeRangeQueryBase()</text>
<text text-anchor="start" x="359" y="-37" font-family="Helvetica,sans-Serif" font-size="10.00">+</text>
<text text-anchor="start" x="376" y="-37" font-family="Helvetica,sans-Serif" font-size="10.00">begin()</text>
<text text-anchor="start" x="359" y="-22" font-family="Helvetica,sans-Serif" font-size="10.00">+</text>
<text text-anchor="start" x="376" y="-22" font-family="Helvetica,sans-Serif" font-size="10.00">end()</text>
<text text-anchor="start" x="359" y="-7" font-family="Helvetica,sans-Serif" font-size="10.00">#</text>
<text text-anchor="start" x="376" y="-7" font-family="Helvetica,sans-Serif" font-size="10.00">advance()</text>
<polygon fill="#bfbfbf" stroke="#bfbfbf" points="351,-77 351,-77 514,-77 514,-77 351,-77"/>
<polygon fill="#bfbfbf" stroke="#bfbfbf" points="351,-62 351,-62 374,-62 374,-62 351,-62"/>
<polygon fill="#bfbfbf" stroke="#bfbfbf" points="374,-62 374,-62 514,-62 514,-62 374,-62"/>
<polygon fill="none" stroke="#bfbfbf" points="350.5,0 350.5,-116 513.5,-116 513.5,0 350.5,0"/>
</a>
</g>
</g>
<!-- Node1&#45;&gt;Node4 -->
<g id="edge3_Node000001_Node000004" class="edge">
<title>Node1&#45;&gt;Node4</title>
<g id="a_edge3_Node000001_Node000004"><a xlink:title=" ">
<path fill="none" stroke="#63b8ff" d="M317.01,-152.87C331.53,-141.02 347.09,-128.32 361.93,-116.2"/>
<polygon fill="none" stroke="#63b8ff" points="314.6,-150.32 309.07,-159.36 319.03,-155.75 314.6,-150.32"/>
</a>
</g>
</g>
</g>
</svg>
