<?xml version="1.0" encoding="UTF-8" standalone="no"?>
<!DOCTYPE svg PUBLIC "-//W3C//DTD SVG 1.1//EN"
 "http://www.w3.org/Graphics/SVG/1.1/DTD/svg11.dtd">
<!-- Generated by graphviz version 2.43.0 (0)
 -->
<!-- Title: Ponca::DryFit&lt; DataPoint, _WFunctor, T &gt; Pages: 1 -->
<svg width="210pt" height="236pt"
 viewBox="0.00 0.00 209.50 236.00" xmlns="http://www.w3.org/2000/svg" xmlns:xlink="http://www.w3.org/1999/xlink">
<g id="graph0" class="graph" transform="scale(1 1) rotate(0) translate(4 232)">
<title>Ponca::DryFit&lt; DataPoint, _WFunctor, T &gt;</title>
<!-- Node1 -->
<g id="node1" class="node">
<title>Node1</title>
<g id="a_node1"><a xlink:title="Empty fitting object doing no computation.">
<polygon fill="#999999" stroke="#666666" points="201.5,-151 52.5,-151 52.5,0 201.5,0 201.5,-151"/>
<text text-anchor="start" x="60.5" y="-139" font-family="Helvetica,sans-Serif" font-size="10.00">{Ponca::DryFit&lt; DataPoint,</text>
<text text-anchor="middle" x="127" y="-128" font-family="Helvetica,sans-Serif" font-size="10.00"> _WFunctor, T &gt;</text>
<text text-anchor="start" x="60.5" y="-117" font-family="Helvetica,sans-Serif" font-size="10.00">||+ dryfit()</text>
<text text-anchor="start" x="60.5" y="-106" font-family="Helvetica,sans-Serif" font-size="10.00">+ dryfit()</text>
<text text-anchor="start" x="60.5" y="-95" font-family="Helvetica,sans-Serif" font-size="10.00">+ addLocalNeighbor()</text>
<text text-anchor="start" x="60.5" y="-84" font-family="Helvetica,sans-Serif" font-size="10.00">+ finalize()</text>
<text text-anchor="start" x="60.5" y="-73" font-family="Helvetica,sans-Serif" font-size="10.00">+ setWeightFunc()</text>
<text text-anchor="start" x="60.5" y="-62" font-family="Helvetica,sans-Serif" font-size="10.00">+ potential()</text>
<text text-anchor="start" x="60.5" y="-51" font-family="Helvetica,sans-Serif" font-size="10.00">+ potential()</text>
<text text-anchor="start" x="60.5" y="-40" font-family="Helvetica,sans-Serif" font-size="10.00">+ project()</text>
<text text-anchor="start" x="60.5" y="-29" font-family="Helvetica,sans-Serif" font-size="10.00">+ primitiveGradient()</text>
<text text-anchor="start" x="60.5" y="-18" font-family="Helvetica,sans-Serif" font-size="10.00">+ primitiveGradient()</text>
<text text-anchor="middle" x="127" y="-7" font-family="Helvetica,sans-Serif" font-size="10.00">}</text>
</a>
</g>
</g>
<!-- Node2 -->
<g id="node2" class="node">
<title>Node2</title>
<g id="a_node2"><a xlink:title=" ">
<polygon fill="white" stroke="#bfbfbf" points="148,-228 0,-228 0,-187 148,-187 148,-228"/>
<text text-anchor="start" x="8" y="-216" font-family="Helvetica,sans-Serif" font-size="10.00">{Concept::FittingProcedure</text>
<text text-anchor="middle" x="74" y="-205" font-family="Helvetica,sans-Serif" font-size="10.00">Concept</text>
<text text-anchor="middle" x="74" y="-194" font-family="Helvetica,sans-Serif" font-size="10.00">||}</text>
</a>
</g>
</g>
<!-- Node2&#45;&gt;Node1 -->
<g id="edge1" class="edge">
<title>Node2&#45;&gt;Node1</title>
<path fill="none" stroke="#63b8ff" d="M85.91,-177.29C89.15,-169.33 92.82,-160.33 96.6,-151.07"/>
<polygon fill="none" stroke="#63b8ff" points="82.58,-176.17 82.05,-186.76 89.07,-178.82 82.58,-176.17"/>
</g>
<!-- Node3 -->
<g id="node3" class="node">
<title>Node3</title>
<g id="a_node3"><a xlink:title=" ">
<polygon fill="white" stroke="#bfbfbf" points="195.5,-222.5 166.5,-222.5 166.5,-192.5 195.5,-192.5 195.5,-222.5"/>
<text text-anchor="middle" x="181" y="-210.5" font-family="Helvetica,sans-Serif" font-size="10.00">{T</text>
<text text-anchor="middle" x="181" y="-199.5" font-family="Helvetica,sans-Serif" font-size="10.00">||}</text>
</a>
</g>
</g>
<!-- Node3&#45;&gt;Node1 -->
<g id="edge2" class="edge">
<title>Node3&#45;&gt;Node1</title>
<path fill="none" stroke="#63b8ff" d="M171.18,-182.85C167.37,-173.68 162.77,-162.61 158.01,-151.14"/>
<polygon fill="none" stroke="#63b8ff" points="168.05,-184.45 175.12,-192.34 174.51,-181.76 168.05,-184.45"/>
</g>
</g>
</svg>
