<?xml version="1.0" encoding="UTF-8" standalone="no"?>
<!DOCTYPE svg PUBLIC "-//W3C//DTD SVG 1.1//EN"
 "http://www.w3.org/Graphics/SVG/1.1/DTD/svg11.dtd">
<!-- Generated by graphviz version 2.43.0 (0)
 -->
<!-- Title: Ponca::BasketDiff&lt; BasketType, Type, Ext0, Exts &gt; Pages: 1 -->
<svg width="163pt" height="231pt"
 viewBox="0.00 0.00 163.00 231.00" xmlns="http://www.w3.org/2000/svg" xmlns:xlink="http://www.w3.org/1999/xlink">
<g id="graph0" class="graph" transform="scale(1 1) rotate(0) translate(4 227)">
<title>Ponca::BasketDiff&lt; BasketType, Type, Ext0, Exts &gt;</title>
<!-- Node1 -->
<g id="Node000001" class="node">
<title>Node1</title>
<g id="a_Node000001"><a xlink:title="Aggregator class used to declare specialized structures with derivatives computations,...">
<polygon fill="#999999" stroke="transparent" points="141.5,-116 13.5,-116 13.5,0 141.5,0 141.5,-116"/>
<text text-anchor="start" x="18.5" y="-104" font-family="Helvetica,sans-Serif" font-size="10.00">Ponca::BasketDiff&lt;</text>
<text text-anchor="start" x="18.5" y="-93" font-family="Helvetica,sans-Serif" font-size="10.00"> BasketType, Type, Ext0,</text>
<text text-anchor="start" x="59.5" y="-82" font-family="Helvetica,sans-Serif" font-size="10.00"> Exts &gt;</text>
<text text-anchor="start" x="75.5" y="-67" font-family="Helvetica,sans-Serif" font-size="10.00"> </text>
<text text-anchor="start" x="22" y="-52" font-family="Helvetica,sans-Serif" font-size="10.00">+</text>
<text text-anchor="start" x="39.5" y="-52" font-family="Helvetica,sans-Serif" font-size="10.00">compute()</text>
<text text-anchor="start" x="22" y="-37" font-family="Helvetica,sans-Serif" font-size="10.00">+</text>
<text text-anchor="start" x="39.5" y="-37" font-family="Helvetica,sans-Serif" font-size="10.00">computeWithIds()</text>
<text text-anchor="start" x="22" y="-22" font-family="Helvetica,sans-Serif" font-size="10.00">+</text>
<text text-anchor="start" x="39.5" y="-22" font-family="Helvetica,sans-Serif" font-size="10.00">compute()</text>
<text text-anchor="start" x="22" y="-7" font-family="Helvetica,sans-Serif" font-size="10.00">+</text>
<text text-anchor="start" x="39.5" y="-7" font-family="Helvetica,sans-Serif" font-size="10.00">addNeighbor()</text>
<polygon fill="#666666" stroke="#666666" points="13.5,-77 13.5,-77 141.5,-77 141.5,-77 13.5,-77"/>
<polygon fill="#666666" stroke="#666666" points="13.5,-62 13.5,-62 141.5,-62 141.5,-62 13.5,-62"/>
<polygon fill="none" stroke="#666666" points="13.5,0 13.5,-116 141.5,-116 141.5,0 13.5,0"/>
</a>
</g>
</g>
<!-- Node2 -->
<g id="Node000002" class="node">
<title>Node2</title>
<g id="a_Node000002"><a xlink:title=" ">
<polygon fill="white" stroke="transparent" points="155,-223 0,-223 0,-152 155,-152 155,-223"/>
<text text-anchor="start" x="5.5" y="-210.5" font-family="Helvetica,sans-Serif" font-size="10.00">internal::BasketDiffAggregate</text>
<text text-anchor="start" x="5.5" y="-199.5" font-family="Helvetica,sans-Serif" font-size="10.00">&lt; BasketType, Type, Ext0,</text>
<text text-anchor="start" x="41.5" y="-188.5" font-family="Helvetica,sans-Serif" font-size="10.00"> Exts... &gt;::type</text>
<text text-anchor="start" x="76" y="-173.5" font-family="Helvetica,sans-Serif" font-size="10.00"> </text>
<text text-anchor="start" x="76" y="-158.5" font-family="Helvetica,sans-Serif" font-size="10.00"> </text>
<polygon fill="#bfbfbf" stroke="#bfbfbf" points="0.5,-183.5 0.5,-183.5 155.5,-183.5 155.5,-183.5 0.5,-183.5"/>
<polygon fill="#bfbfbf" stroke="#bfbfbf" points="0.5,-168.5 0.5,-168.5 155.5,-168.5 155.5,-168.5 0.5,-168.5"/>
<polygon fill="none" stroke="#bfbfbf" points="0,-152 0,-223 155,-223 155,-152 0,-152"/>
</a>
</g>
</g>
<!-- Node2&#45;&gt;Node1 -->
<g id="edge1_Node000001_Node000002" class="edge">
<title>Node2&#45;&gt;Node1</title>
<g id="a_edge1_Node000001_Node000002"><a xlink:title=" ">
<path fill="none" stroke="#63b8ff" d="M77.5,-141.8C77.5,-133.5 77.5,-124.74 77.5,-116.14"/>
<polygon fill="none" stroke="#63b8ff" points="74,-142 77.5,-152 81,-142 74,-142"/>
</a>
</g>
</g>
</g>
</svg>
