<?xml version="1.0" encoding="UTF-8" standalone="no"?>
<!DOCTYPE svg PUBLIC "-//W3C//DTD SVG 1.1//EN"
 "http://www.w3.org/Graphics/SVG/1.1/DTD/svg11.dtd">
<!-- Generated by graphviz version 2.43.0 (0)
 -->
<!-- Title: Ponca::CovariancePlaneDerImpl&lt; DataPoint, _WFunctor, DiffType, T &gt; Pages: 1 -->
<svg width="214pt" height="192pt"
 viewBox="0.00 0.00 213.50 192.00" xmlns="http://www.w3.org/2000/svg" xmlns:xlink="http://www.w3.org/1999/xlink">
<g id="graph0" class="graph" transform="scale(1 1) rotate(0) translate(4 188)">
<title>Ponca::CovariancePlaneDerImpl&lt; DataPoint, _WFunctor, DiffType, T &gt;</title>
<!-- Node1 -->
<g id="node1" class="node">
<title>Node1</title>
<g id="a_node1"><a xlink:title="[CovariancePlaneFit Definition]">
<polygon fill="#999999" stroke="#666666" points="205.5,-107 47.5,-107 47.5,0 205.5,0 205.5,-107"/>
<text text-anchor="start" x="55.5" y="-95" font-family="Helvetica,sans-Serif" font-size="10.00">{Ponca::CovariancePlaneDer</text>
<text text-anchor="start" x="55.5" y="-84" font-family="Helvetica,sans-Serif" font-size="10.00">Impl&lt; DataPoint, _WFunctor,</text>
<text text-anchor="middle" x="126.5" y="-73" font-family="Helvetica,sans-Serif" font-size="10.00"> DiffType, T &gt;</text>
<text text-anchor="start" x="55.5" y="-62" font-family="Helvetica,sans-Serif" font-size="10.00">||+ covariancePlaneDer()</text>
<text text-anchor="start" x="55.5" y="-51" font-family="Helvetica,sans-Serif" font-size="10.00">+ covariancePlaneDer()</text>
<text text-anchor="start" x="55.5" y="-40" font-family="Helvetica,sans-Serif" font-size="10.00">+ finalize()</text>
<text text-anchor="start" x="55.5" y="-29" font-family="Helvetica,sans-Serif" font-size="10.00">+ dPotential()</text>
<text text-anchor="start" x="55.5" y="-18" font-family="Helvetica,sans-Serif" font-size="10.00">+ dNormal()</text>
<text text-anchor="middle" x="126.5" y="-7" font-family="Helvetica,sans-Serif" font-size="10.00">}</text>
</a>
</g>
</g>
<!-- Node2 -->
<g id="node2" class="node">
<title>Node2</title>
<g id="a_node2"><a xlink:title=" ">
<polygon fill="white" stroke="#bfbfbf" points="147,-184 0,-184 0,-143 147,-143 147,-184"/>
<text text-anchor="start" x="8" y="-172" font-family="Helvetica,sans-Serif" font-size="10.00">{Concept::FittingExtension</text>
<text text-anchor="middle" x="73.5" y="-161" font-family="Helvetica,sans-Serif" font-size="10.00">Concept</text>
<text text-anchor="middle" x="73.5" y="-150" font-family="Helvetica,sans-Serif" font-size="10.00">||}</text>
</a>
</g>
</g>
<!-- Node2&#45;&gt;Node1 -->
<g id="edge1" class="edge">
<title>Node2&#45;&gt;Node1</title>
<path fill="none" stroke="#63b8ff" d="M87.57,-133.84C91.59,-125.63 96.11,-116.42 100.61,-107.26"/>
<polygon fill="none" stroke="#63b8ff" points="84.36,-132.42 83.1,-142.94 90.65,-135.51 84.36,-132.42"/>
</g>
<!-- Node3 -->
<g id="node3" class="node">
<title>Node3</title>
<g id="a_node3"><a xlink:title=" ">
<polygon fill="white" stroke="#bfbfbf" points="194,-178.5 165,-178.5 165,-148.5 194,-148.5 194,-178.5"/>
<text text-anchor="middle" x="179.5" y="-166.5" font-family="Helvetica,sans-Serif" font-size="10.00">{T</text>
<text text-anchor="middle" x="179.5" y="-155.5" font-family="Helvetica,sans-Serif" font-size="10.00">||}</text>
</a>
</g>
</g>
<!-- Node3&#45;&gt;Node1 -->
<g id="edge2" class="edge">
<title>Node3&#45;&gt;Node1</title>
<path fill="none" stroke="#63b8ff" d="M168.12,-139.31C163.49,-129.87 157.93,-118.54 152.4,-107.28"/>
<polygon fill="none" stroke="#63b8ff" points="165.02,-140.95 172.57,-148.38 171.31,-137.86 165.02,-140.95"/>
</g>
</g>
</svg>
