<?xml version="1.0" encoding="UTF-8" standalone="no"?>
<!DOCTYPE svg PUBLIC "-//W3C//DTD SVG 1.1//EN"
 "http://www.w3.org/Graphics/SVG/1.1/DTD/svg11.dtd">
<!-- Generated by graphviz version 2.43.0 (0)
 -->
<!-- Title: Ponca::OrientedSphereFitImpl&lt; DataPoint, _WFunctor, T &gt; Pages: 1 -->
<svg width="220pt" height="259pt"
 viewBox="0.00 0.00 220.00 259.00" xmlns="http://www.w3.org/2000/svg" xmlns:xlink="http://www.w3.org/1999/xlink">
<g id="graph0" class="graph" transform="scale(1 1) rotate(0) translate(4 255)">
<title>Ponca::OrientedSphereFitImpl&lt; DataPoint, _WFunctor, T &gt;</title>
<!-- Node1 -->
<g id="node1" class="node">
<title>Node1</title>
<g id="a_node1"><a xlink:title="Algebraic Sphere fitting procedure on oriented point sets.">
<polygon fill="#bfbfbf" stroke="black" points="34,-0.5 34,-145.5 212,-145.5 212,-0.5 34,-0.5"/>
<text text-anchor="start" x="42" y="-133.5" font-family="Helvetica,sans-Serif" font-size="10.00">Ponca::OrientedSphereFit</text>
<text text-anchor="middle" x="123" y="-122.5" font-family="Helvetica,sans-Serif" font-size="10.00">Impl&lt; DataPoint, _WFunctor, T &gt;</text>
<polyline fill="none" stroke="black" points="34,-115.5 212,-115.5 "/>
<text text-anchor="start" x="42" y="-103.5" font-family="Helvetica,sans-Serif" font-size="10.00"># m_sumDotPN</text>
<text text-anchor="start" x="42" y="-92.5" font-family="Helvetica,sans-Serif" font-size="10.00"># m_sumDotPP</text>
<text text-anchor="start" x="42" y="-81.5" font-family="Helvetica,sans-Serif" font-size="10.00"># m_nume</text>
<text text-anchor="start" x="42" y="-70.5" font-family="Helvetica,sans-Serif" font-size="10.00"># m_deno</text>
<polyline fill="none" stroke="black" points="34,-63.5 212,-63.5 "/>
<text text-anchor="start" x="42" y="-51.5" font-family="Helvetica,sans-Serif" font-size="10.00">+ orientedSphereFit()</text>
<text text-anchor="start" x="42" y="-40.5" font-family="Helvetica,sans-Serif" font-size="10.00">+ orientedSphereFit()</text>
<text text-anchor="start" x="42" y="-29.5" font-family="Helvetica,sans-Serif" font-size="10.00">+ init()</text>
<text text-anchor="start" x="42" y="-18.5" font-family="Helvetica,sans-Serif" font-size="10.00">+ addLocalNeighbor()</text>
<text text-anchor="start" x="42" y="-7.5" font-family="Helvetica,sans-Serif" font-size="10.00">+ finalize()</text>
</a>
</g>
</g>
<!-- Node2 -->
<g id="node2" class="node">
<title>Node2</title>
<g id="a_node2"><a xlink:title=" ">
<polygon fill="none" stroke="#bfbfbf" points="0,-182.5 0,-250.5 142,-250.5 142,-182.5 0,-182.5"/>
<text text-anchor="start" x="8" y="-238.5" font-family="Helvetica,sans-Serif" font-size="10.00">Concept::FittingProcedure</text>
<text text-anchor="middle" x="71" y="-227.5" font-family="Helvetica,sans-Serif" font-size="10.00">Concept</text>
<polyline fill="none" stroke="#bfbfbf" points="0,-220.5 142,-220.5 "/>
<text text-anchor="middle" x="71" y="-208.5" font-family="Helvetica,sans-Serif" font-size="10.00"> </text>
<polyline fill="none" stroke="#bfbfbf" points="0,-201.5 142,-201.5 "/>
<text text-anchor="middle" x="71" y="-189.5" font-family="Helvetica,sans-Serif" font-size="10.00"> </text>
</a>
</g>
</g>
<!-- Node2&#45;&gt;Node1 -->
<g id="edge1" class="edge">
<title>Node2&#45;&gt;Node1</title>
<path fill="none" stroke="midnightblue" d="M86.64,-172.93C89.81,-164.32 93.21,-155.06 96.63,-145.77"/>
<polygon fill="none" stroke="midnightblue" points="83.36,-171.73 83.19,-182.32 89.93,-174.15 83.36,-171.73"/>
</g>
<!-- Node3 -->
<g id="node3" class="node">
<title>Node3</title>
<g id="a_node3"><a xlink:title=" ">
<polygon fill="none" stroke="#bfbfbf" points="160.5,-188 160.5,-245 189.5,-245 189.5,-188 160.5,-188"/>
<text text-anchor="middle" x="175" y="-233" font-family="Helvetica,sans-Serif" font-size="10.00">T</text>
<polyline fill="none" stroke="#bfbfbf" points="160.5,-226 189.5,-226 "/>
<text text-anchor="middle" x="175" y="-214" font-family="Helvetica,sans-Serif" font-size="10.00"> </text>
<polyline fill="none" stroke="#bfbfbf" points="160.5,-207 189.5,-207 "/>
<text text-anchor="middle" x="175" y="-195" font-family="Helvetica,sans-Serif" font-size="10.00"> </text>
</a>
</g>
</g>
<!-- Node3&#45;&gt;Node1 -->
<g id="edge2" class="edge">
<title>Node3&#45;&gt;Node1</title>
<path fill="none" stroke="midnightblue" d="M161.31,-178.23C157.6,-168.15 153.46,-156.89 149.31,-145.6"/>
<polygon fill="none" stroke="midnightblue" points="158.12,-179.7 164.85,-187.88 164.69,-177.29 158.12,-179.7"/>
</g>
</g>
</svg>
