<?xml version="1.0" encoding="UTF-8" standalone="no"?>
<!DOCTYPE svg PUBLIC "-//W3C//DTD SVG 1.1//EN"
 "http://www.w3.org/Graphics/SVG/1.1/DTD/svg11.dtd">
<!-- Generated by graphviz version 2.43.0 (0)
 -->
<!-- Title: Ponca::KdTreeQuery&lt; Traits &gt; Pages: 1 -->
<svg width="488pt" height="932pt"
 viewBox="0.00 0.00 487.50 932.00" xmlns="http://www.w3.org/2000/svg" xmlns:xlink="http://www.w3.org/1999/xlink">
<g id="graph0" class="graph" transform="scale(1 1) rotate(0) translate(4 928)">
<title>Ponca::KdTreeQuery&lt; Traits &gt;</title>
<!-- Node1 -->
<g id="node1" class="node">
<title>Node1</title>
<g id="a_node1"><a xlink:title=" ">
<polygon fill="#999999" stroke="#666666" points="147.5,-0.5 147.5,-90.5 261.5,-90.5 261.5,-0.5 147.5,-0.5"/>
<text text-anchor="start" x="155.5" y="-78.5" font-family="Helvetica,sans-Serif" font-size="10.00">Ponca::KdTreeQuery</text>
<text text-anchor="middle" x="204.5" y="-67.5" font-family="Helvetica,sans-Serif" font-size="10.00">&lt; Traits &gt;</text>
<polyline fill="none" stroke="#666666" points="147.5,-60.5 261.5,-60.5 "/>
<text text-anchor="start" x="155.5" y="-48.5" font-family="Helvetica,sans-Serif" font-size="10.00"># m_kdtree</text>
<polyline fill="none" stroke="#666666" points="147.5,-41.5 261.5,-41.5 "/>
<text text-anchor="start" x="155.5" y="-29.5" font-family="Helvetica,sans-Serif" font-size="10.00">+ KdTreeQuery()</text>
<text text-anchor="start" x="155.5" y="-18.5" font-family="Helvetica,sans-Serif" font-size="10.00"># reset()</text>
<text text-anchor="start" x="155.5" y="-7.5" font-family="Helvetica,sans-Serif" font-size="10.00"># search_internal()</text>
</a>
</g>
</g>
<!-- Node2 -->
<g id="node2" class="node">
<title>Node2</title>
<g id="a_node2"><a xlink:href="classPonca_1_1Stack.html" target="_top" xlink:title=" ">
<polygon fill="white" stroke="#666666" points="135.5,-138.5 135.5,-316.5 273.5,-316.5 273.5,-138.5 135.5,-138.5"/>
<text text-anchor="start" x="143.5" y="-304.5" font-family="Helvetica,sans-Serif" font-size="10.00">Ponca::Stack&lt; Ponca</text>
<text text-anchor="start" x="143.5" y="-293.5" font-family="Helvetica,sans-Serif" font-size="10.00">::IndexSquaredDistance</text>
<text text-anchor="start" x="143.5" y="-282.5" font-family="Helvetica,sans-Serif" font-size="10.00">&lt; IndexType, Scalar &gt;,</text>
<text text-anchor="middle" x="204.5" y="-271.5" font-family="Helvetica,sans-Serif" font-size="10.00"> 2 *Traits::MAX_DEPTH &gt;</text>
<polyline fill="none" stroke="#666666" points="135.5,-264.5 273.5,-264.5 "/>
<text text-anchor="start" x="143.5" y="-252.5" font-family="Helvetica,sans-Serif" font-size="10.00"># m_size</text>
<polyline fill="none" stroke="#666666" points="135.5,-245.5 273.5,-245.5 "/>
<text text-anchor="start" x="143.5" y="-233.5" font-family="Helvetica,sans-Serif" font-size="10.00">+ Stack()</text>
<text text-anchor="start" x="143.5" y="-222.5" font-family="Helvetica,sans-Serif" font-size="10.00">+ top()</text>
<text text-anchor="start" x="143.5" y="-211.5" font-family="Helvetica,sans-Serif" font-size="10.00">+ top()</text>
<text text-anchor="start" x="143.5" y="-200.5" font-family="Helvetica,sans-Serif" font-size="10.00">+ empty()</text>
<text text-anchor="start" x="143.5" y="-189.5" font-family="Helvetica,sans-Serif" font-size="10.00">+ size()</text>
<text text-anchor="start" x="143.5" y="-178.5" font-family="Helvetica,sans-Serif" font-size="10.00">+ push()</text>
<text text-anchor="start" x="143.5" y="-167.5" font-family="Helvetica,sans-Serif" font-size="10.00">+ push()</text>
<text text-anchor="start" x="143.5" y="-156.5" font-family="Helvetica,sans-Serif" font-size="10.00">+ pop()</text>
<text text-anchor="start" x="143.5" y="-145.5" font-family="Helvetica,sans-Serif" font-size="10.00">+ clear()</text>
</a>
</g>
</g>
<!-- Node2&#45;&gt;Node1 -->
<g id="edge1" class="edge">
<title>Node2&#45;&gt;Node1</title>
<path fill="none" stroke="#404040" d="M204.5,-138.35C204.5,-126.31 204.5,-114.23 204.5,-102.96"/>
<polygon fill="none" stroke="#404040" points="204.5,-102.64 200.5,-96.64 204.5,-90.64 208.5,-96.64 204.5,-102.64"/>
<text text-anchor="middle" x="231" y="-112" font-family="Helvetica,sans-Serif" font-size="10.00"> #m_stack</text>
</g>
<!-- Node3 -->
<g id="node3" class="node">
<title>Node3</title>
<g id="a_node3"><a xlink:title=" ">
<polygon fill="white" stroke="#666666" points="87,-579.5 87,-658.5 236,-658.5 236,-579.5 87,-579.5"/>
<text text-anchor="start" x="95" y="-646.5" font-family="Helvetica,sans-Serif" font-size="10.00">std::array&lt; Ponca::</text>
<text text-anchor="start" x="95" y="-635.5" font-family="Helvetica,sans-Serif" font-size="10.00">IndexSquaredDistance</text>
<text text-anchor="middle" x="161.5" y="-624.5" font-family="Helvetica,sans-Serif" font-size="10.00">&lt; IndexType, Scalar &gt;, N &gt;</text>
<polyline fill="none" stroke="#666666" points="87,-617.5 236,-617.5 "/>
<text text-anchor="middle" x="161.5" y="-605.5" font-family="Helvetica,sans-Serif" font-size="10.00"> </text>
<polyline fill="none" stroke="#666666" points="87,-598.5 236,-598.5 "/>
<text text-anchor="middle" x="161.5" y="-586.5" font-family="Helvetica,sans-Serif" font-size="10.00"> </text>
</a>
</g>
</g>
<!-- Node3&#45;&gt;Node2 -->
<g id="edge2" class="edge">
<title>Node3&#45;&gt;Node2</title>
<path fill="none" stroke="#404040" d="M165.78,-579.23C172.17,-521.33 184.42,-410.36 193.44,-328.69"/>
<polygon fill="none" stroke="#404040" points="193.46,-328.54 190.14,-322.13 194.77,-316.61 198.09,-323.01 193.46,-328.54"/>
<text text-anchor="middle" x="212" y="-456.5" font-family="Helvetica,sans-Serif" font-size="10.00"> #m_data</text>
</g>
<!-- Node4 -->
<g id="node4" class="node">
<title>Node4</title>
<g id="a_node4"><a xlink:href="structPonca_1_1IndexSquaredDistance.html" target="_top" xlink:title=" ">
<polygon fill="white" stroke="#666666" points="0,-717.5 0,-796.5 161,-796.5 161,-717.5 0,-717.5"/>
<text text-anchor="start" x="8" y="-784.5" font-family="Helvetica,sans-Serif" font-size="10.00">Ponca::IndexSquaredDistance</text>
<text text-anchor="middle" x="80.5" y="-773.5" font-family="Helvetica,sans-Serif" font-size="10.00">&lt; IndexType, Scalar &gt;</text>
<polyline fill="none" stroke="#666666" points="0,-766.5 161,-766.5 "/>
<text text-anchor="start" x="8" y="-754.5" font-family="Helvetica,sans-Serif" font-size="10.00">+ index</text>
<text text-anchor="start" x="8" y="-743.5" font-family="Helvetica,sans-Serif" font-size="10.00">+ squared_distance</text>
<polyline fill="none" stroke="#666666" points="0,-736.5 161,-736.5 "/>
<text text-anchor="start" x="8" y="-724.5" font-family="Helvetica,sans-Serif" font-size="10.00">+ operator&lt;()</text>
</a>
</g>
</g>
<!-- Node4&#45;&gt;Node3 -->
<g id="edge3" class="edge">
<title>Node4&#45;&gt;Node3</title>
<path fill="none" stroke="#404040" d="M74.08,-717.28C73.6,-703.87 75.14,-689.15 81.5,-677 83.13,-673.88 85.02,-670.9 87.11,-668.05"/>
<polygon fill="none" stroke="#404040" points="87.16,-667.99 88,-660.83 94.94,-658.85 94.09,-666.01 87.16,-667.99"/>
<text text-anchor="middle" x="110.5" y="-685.5" font-family="Helvetica,sans-Serif" font-size="10.00"> +elements</text>
</g>
<!-- Node5 -->
<g id="node5" class="node">
<title>Node5</title>
<g id="a_node5"><a xlink:href="structPonca_1_1IndexSquaredDistance.html" target="_top" xlink:title="Associates an index with a distance.">
<polygon fill="white" stroke="#666666" points="0,-844.5 0,-923.5 161,-923.5 161,-844.5 0,-844.5"/>
<text text-anchor="start" x="8" y="-911.5" font-family="Helvetica,sans-Serif" font-size="10.00">Ponca::IndexSquaredDistance</text>
<text text-anchor="middle" x="80.5" y="-900.5" font-family="Helvetica,sans-Serif" font-size="10.00">&lt; Index, Scalar &gt;</text>
<polyline fill="none" stroke="#666666" points="0,-893.5 161,-893.5 "/>
<text text-anchor="start" x="8" y="-881.5" font-family="Helvetica,sans-Serif" font-size="10.00">+ index</text>
<text text-anchor="start" x="8" y="-870.5" font-family="Helvetica,sans-Serif" font-size="10.00">+ squared_distance</text>
<polyline fill="none" stroke="#666666" points="0,-863.5 161,-863.5 "/>
<text text-anchor="start" x="8" y="-851.5" font-family="Helvetica,sans-Serif" font-size="10.00">+ operator&lt;()</text>
</a>
</g>
</g>
<!-- Node5&#45;&gt;Node4 -->
<g id="edge4" class="edge">
<title>Node5&#45;&gt;Node4</title>
<path fill="none" stroke="orange" d="M80.5,-834.22C80.5,-821.74 80.5,-808.5 80.5,-796.61"/>
<polygon fill="orange" stroke="orange" points="77,-834.48 80.5,-844.48 84,-834.48 77,-834.48"/>
<text text-anchor="middle" x="136.5" y="-818" font-family="Helvetica,sans-Serif" font-size="10.00"> &lt; IndexType, Scalar &gt;</text>
</g>
<!-- Node6 -->
<g id="node6" class="node">
<title>Node6</title>
<g id="a_node6"><a xlink:title=" ">
<polygon fill="white" stroke="#666666" points="277.5,-728.5 277.5,-785.5 369.5,-785.5 369.5,-728.5 277.5,-728.5"/>
<text text-anchor="middle" x="323.5" y="-773.5" font-family="Helvetica,sans-Serif" font-size="10.00">std::array&lt; T &gt;</text>
<polyline fill="none" stroke="#666666" points="277.5,-766.5 369.5,-766.5 "/>
<text text-anchor="middle" x="323.5" y="-754.5" font-family="Helvetica,sans-Serif" font-size="10.00"> </text>
<polyline fill="none" stroke="#666666" points="277.5,-747.5 369.5,-747.5 "/>
<text text-anchor="middle" x="323.5" y="-735.5" font-family="Helvetica,sans-Serif" font-size="10.00"> </text>
</a>
</g>
</g>
<!-- Node6&#45;&gt;Node3 -->
<g id="edge5" class="edge">
<title>Node6&#45;&gt;Node3</title>
<path fill="none" stroke="orange" d="M267.55,-750.32C233.38,-743.75 191.9,-729.56 168.5,-699 159.88,-687.74 157.06,-672.75 156.77,-658.86"/>
<polygon fill="orange" stroke="orange" points="266.97,-753.78 277.43,-752.06 268.18,-746.88 266.97,-753.78"/>
<text text-anchor="start" x="168.5" y="-691" font-family="Helvetica,sans-Serif" font-size="10.00"> &lt; Ponca::IndexSquaredDistance</text>
<text text-anchor="middle" x="248.5" y="-680" font-family="Helvetica,sans-Serif" font-size="10.00">&lt; IndexType, Scalar &gt;, N &gt;</text>
</g>
<!-- Node9 -->
<g id="node9" class="node">
<title>Node9</title>
<g id="a_node9"><a xlink:title=" ">
<polygon fill="white" stroke="#666666" points="292,-590.5 292,-647.5 397,-647.5 397,-590.5 292,-590.5"/>
<text text-anchor="middle" x="344.5" y="-635.5" font-family="Helvetica,sans-Serif" font-size="10.00">std::array&lt; T, N &gt;</text>
<polyline fill="none" stroke="#666666" points="292,-628.5 397,-628.5 "/>
<text text-anchor="middle" x="344.5" y="-616.5" font-family="Helvetica,sans-Serif" font-size="10.00"> </text>
<polyline fill="none" stroke="#666666" points="292,-609.5 397,-609.5 "/>
<text text-anchor="middle" x="344.5" y="-597.5" font-family="Helvetica,sans-Serif" font-size="10.00"> </text>
</a>
</g>
</g>
<!-- Node6&#45;&gt;Node9 -->
<g id="edge10" class="edge">
<title>Node6&#45;&gt;Node9</title>
<path fill="none" stroke="orange" d="M329.31,-718.35C332.76,-696.06 337.04,-668.29 340.18,-647.95"/>
<polygon fill="orange" stroke="orange" points="325.82,-718.06 327.75,-728.48 332.73,-719.13 325.82,-718.06"/>
<text text-anchor="middle" x="357.5" y="-685.5" font-family="Helvetica,sans-Serif" font-size="10.00"> &lt; T, N &gt;</text>
</g>
<!-- Node7 -->
<g id="node7" class="node">
<title>Node7</title>
<g id="a_node7"><a xlink:title=" ">
<polygon fill="white" stroke="#bfbfbf" points="352,-855.5 352,-912.5 381,-912.5 381,-855.5 352,-855.5"/>
<text text-anchor="middle" x="366.5" y="-900.5" font-family="Helvetica,sans-Serif" font-size="10.00">T</text>
<polyline fill="none" stroke="#bfbfbf" points="352,-893.5 381,-893.5 "/>
<text text-anchor="middle" x="366.5" y="-881.5" font-family="Helvetica,sans-Serif" font-size="10.00"> </text>
<polyline fill="none" stroke="#bfbfbf" points="352,-874.5 381,-874.5 "/>
<text text-anchor="middle" x="366.5" y="-862.5" font-family="Helvetica,sans-Serif" font-size="10.00"> </text>
</a>
</g>
</g>
<!-- Node7&#45;&gt;Node6 -->
<g id="edge6" class="edge">
<title>Node7&#45;&gt;Node6</title>
<path fill="none" stroke="#404040" d="M351.94,-862.27C345.3,-851.85 337.94,-838.74 333.5,-826 330.39,-817.07 328.24,-807.15 326.77,-797.71"/>
<polygon fill="none" stroke="#404040" points="326.75,-797.6 322,-792.17 325.18,-785.7 329.93,-791.13 326.75,-797.6"/>
<text text-anchor="middle" x="362.5" y="-818" font-family="Helvetica,sans-Serif" font-size="10.00"> +elements</text>
</g>
<!-- Node7&#45;&gt;Node9 -->
<g id="edge9" class="edge">
<title>Node7&#45;&gt;Node9</title>
<path fill="none" stroke="#404040" d="M381.1,-855.93C385.32,-846.71 389.37,-836.15 391.5,-826 399.74,-786.7 478.43,-950.08 384.5,-677 382.21,-670.34 378.89,-663.75 375.12,-657.55"/>
<polygon fill="none" stroke="#404040" points="375.11,-657.54 368.46,-654.76 368.47,-647.55 375.12,-650.33 375.11,-657.54"/>
<text text-anchor="middle" x="450.5" y="-754.5" font-family="Helvetica,sans-Serif" font-size="10.00"> +elements</text>
</g>
<!-- Node8 -->
<g id="node8" class="node">
<title>Node8</title>
<g id="a_node8"><a xlink:href="classPonca_1_1Stack.html" target="_top" xlink:title="Stack with fixed&#45;size storage.">
<polygon fill="white" stroke="#666666" points="270,-386.5 270,-531.5 391,-531.5 391,-386.5 270,-386.5"/>
<text text-anchor="middle" x="330.5" y="-519.5" font-family="Helvetica,sans-Serif" font-size="10.00">Ponca::Stack&lt; T, N &gt;</text>
<polyline fill="none" stroke="#666666" points="270,-512.5 391,-512.5 "/>
<text text-anchor="start" x="278" y="-500.5" font-family="Helvetica,sans-Serif" font-size="10.00"># m_size</text>
<polyline fill="none" stroke="#666666" points="270,-493.5 391,-493.5 "/>
<text text-anchor="start" x="278" y="-481.5" font-family="Helvetica,sans-Serif" font-size="10.00">+ Stack()</text>
<text text-anchor="start" x="278" y="-470.5" font-family="Helvetica,sans-Serif" font-size="10.00">+ top()</text>
<text text-anchor="start" x="278" y="-459.5" font-family="Helvetica,sans-Serif" font-size="10.00">+ top()</text>
<text text-anchor="start" x="278" y="-448.5" font-family="Helvetica,sans-Serif" font-size="10.00">+ empty()</text>
<text text-anchor="start" x="278" y="-437.5" font-family="Helvetica,sans-Serif" font-size="10.00">+ size()</text>
<text text-anchor="start" x="278" y="-426.5" font-family="Helvetica,sans-Serif" font-size="10.00">+ push()</text>
<text text-anchor="start" x="278" y="-415.5" font-family="Helvetica,sans-Serif" font-size="10.00">+ push()</text>
<text text-anchor="start" x="278" y="-404.5" font-family="Helvetica,sans-Serif" font-size="10.00">+ pop()</text>
<text text-anchor="start" x="278" y="-393.5" font-family="Helvetica,sans-Serif" font-size="10.00">+ clear()</text>
</a>
</g>
</g>
<!-- Node8&#45;&gt;Node2 -->
<g id="edge7" class="edge">
<title>Node8&#45;&gt;Node2</title>
<path fill="none" stroke="orange" d="M286.25,-377.4C275.45,-357.73 263.84,-336.58 252.86,-316.58"/>
<polygon fill="orange" stroke="orange" points="283.27,-379.25 291.15,-386.33 289.41,-375.88 283.27,-379.25"/>
<text text-anchor="start" x="279.5" y="-360" font-family="Helvetica,sans-Serif" font-size="10.00"> &lt; Ponca::IndexSquaredDistance</text>
<text text-anchor="start" x="279.5" y="-349" font-family="Helvetica,sans-Serif" font-size="10.00">&lt; IndexType, Scalar &gt;, 2</text>
<text text-anchor="middle" x="359.5" y="-338" font-family="Helvetica,sans-Serif" font-size="10.00"> *Traits::MAX_DEPTH &gt;</text>
</g>
<!-- Node9&#45;&gt;Node8 -->
<g id="edge8" class="edge">
<title>Node9&#45;&gt;Node8</title>
<path fill="none" stroke="#404040" d="M342.06,-590.48C340.9,-577.32 339.43,-560.78 337.94,-543.94"/>
<polygon fill="none" stroke="#404040" points="337.91,-543.62 333.4,-538 336.85,-531.67 341.36,-537.29 337.91,-543.62"/>
<text text-anchor="middle" x="363" y="-553" font-family="Helvetica,sans-Serif" font-size="10.00"> #m_data</text>
</g>
</g>
</svg>
