<?xml version="1.0" encoding="UTF-8" standalone="no"?>
<!DOCTYPE svg PUBLIC "-//W3C//DTD SVG 1.1//EN"
 "http://www.w3.org/Graphics/SVG/1.1/DTD/svg11.dtd">
<!-- Generated by graphviz version 2.43.0 (0)
 -->
<!-- Title: Ponca::CovarianceFitDer&lt; DataPoint, _WFunctor, DiffType, T &gt; Pages: 1 -->
<svg width="194pt" height="226pt"
 viewBox="0.00 0.00 193.50 226.00" xmlns="http://www.w3.org/2000/svg" xmlns:xlink="http://www.w3.org/1999/xlink">
<g id="graph0" class="graph" transform="scale(1 1) rotate(0) translate(4 222)">
<title>Ponca::CovarianceFitDer&lt; DataPoint, _WFunctor, DiffType, T &gt;</title>
<!-- Node1 -->
<g id="node1" class="node">
<title>Node1</title>
<g id="a_node1"><a xlink:title="Internal generic class computing the derivatives of covariance matrix computed by CovarianceFitBase.">
<polygon fill="#bfbfbf" stroke="black" points="49.5,-0.5 49.5,-123.5 185.5,-123.5 185.5,-0.5 49.5,-0.5"/>
<text text-anchor="start" x="57.5" y="-111.5" font-family="Helvetica,sans-Serif" font-size="10.00">Ponca::CovarianceFitDer</text>
<text text-anchor="start" x="57.5" y="-100.5" font-family="Helvetica,sans-Serif" font-size="10.00">&lt; DataPoint, _WFunctor,</text>
<text text-anchor="middle" x="117.5" y="-89.5" font-family="Helvetica,sans-Serif" font-size="10.00"> DiffType, T &gt;</text>
<polyline fill="none" stroke="black" points="49.5,-82.5 185.5,-82.5 "/>
<text text-anchor="start" x="57.5" y="-70.5" font-family="Helvetica,sans-Serif" font-size="10.00"># m_dCov</text>
<polyline fill="none" stroke="black" points="49.5,-63.5 185.5,-63.5 "/>
<text text-anchor="start" x="57.5" y="-51.5" font-family="Helvetica,sans-Serif" font-size="10.00">+ covarianceFitDer()</text>
<text text-anchor="start" x="57.5" y="-40.5" font-family="Helvetica,sans-Serif" font-size="10.00">+ covarianceFitDer()</text>
<text text-anchor="start" x="57.5" y="-29.5" font-family="Helvetica,sans-Serif" font-size="10.00">+ init()</text>
<text text-anchor="start" x="57.5" y="-18.5" font-family="Helvetica,sans-Serif" font-size="10.00">+ addLocalNeighbor()</text>
<text text-anchor="start" x="57.5" y="-7.5" font-family="Helvetica,sans-Serif" font-size="10.00">+ finalize()</text>
</a>
</g>
</g>
<!-- Node2 -->
<g id="node2" class="node">
<title>Node2</title>
<g id="a_node2"><a xlink:title=" ">
<polygon fill="none" stroke="#bfbfbf" points="0,-160.5 0,-217.5 135,-217.5 135,-160.5 0,-160.5"/>
<text text-anchor="middle" x="67.5" y="-205.5" font-family="Helvetica,sans-Serif" font-size="10.00">FittingExtensionConcept</text>
<polyline fill="none" stroke="#bfbfbf" points="0,-198.5 135,-198.5 "/>
<text text-anchor="middle" x="67.5" y="-186.5" font-family="Helvetica,sans-Serif" font-size="10.00"> </text>
<polyline fill="none" stroke="#bfbfbf" points="0,-179.5 135,-179.5 "/>
<text text-anchor="middle" x="67.5" y="-167.5" font-family="Helvetica,sans-Serif" font-size="10.00"> </text>
</a>
</g>
</g>
<!-- Node2&#45;&gt;Node1 -->
<g id="edge1" class="edge">
<title>Node2&#45;&gt;Node1</title>
<path fill="none" stroke="midnightblue" d="M82.33,-150.93C85.76,-142.34 89.51,-132.98 93.23,-123.67"/>
<polygon fill="none" stroke="midnightblue" points="79.06,-149.67 78.6,-160.26 85.56,-152.27 79.06,-149.67"/>
</g>
<!-- Node3 -->
<g id="node3" class="node">
<title>Node3</title>
<g id="a_node3"><a xlink:title=" ">
<polygon fill="none" stroke="#bfbfbf" points="153,-160.5 153,-217.5 182,-217.5 182,-160.5 153,-160.5"/>
<text text-anchor="middle" x="167.5" y="-205.5" font-family="Helvetica,sans-Serif" font-size="10.00">T</text>
<polyline fill="none" stroke="#bfbfbf" points="153,-198.5 182,-198.5 "/>
<text text-anchor="middle" x="167.5" y="-186.5" font-family="Helvetica,sans-Serif" font-size="10.00"> </text>
<polyline fill="none" stroke="#bfbfbf" points="153,-179.5 182,-179.5 "/>
<text text-anchor="middle" x="167.5" y="-167.5" font-family="Helvetica,sans-Serif" font-size="10.00"> </text>
</a>
</g>
</g>
<!-- Node3&#45;&gt;Node1 -->
<g id="edge2" class="edge">
<title>Node3&#45;&gt;Node1</title>
<path fill="none" stroke="midnightblue" d="M152.67,-150.93C149.24,-142.34 145.49,-132.98 141.77,-123.67"/>
<polygon fill="none" stroke="midnightblue" points="149.44,-152.27 156.4,-160.26 155.94,-149.67 149.44,-152.27"/>
</g>
</g>
</svg>
