<?xml version="1.0" encoding="UTF-8" standalone="no"?>
<!DOCTYPE svg PUBLIC "-//W3C//DTD SVG 1.1//EN"
 "http://www.w3.org/Graphics/SVG/1.1/DTD/svg11.dtd">
<!-- Generated by graphviz version 2.43.0 (0)
 -->
<!-- Title: Ponca::UnorientedSphereDerImpl&lt; DataPoint, _WFunctor, DiffType, T &gt; Pages: 1 -->
<svg width="160pt" height="314pt"
 viewBox="0.00 0.00 160.00 314.00" xmlns="http://www.w3.org/2000/svg" xmlns:xlink="http://www.w3.org/1999/xlink">

<svg id="main" version="1.1" xmlns="http://www.w3.org/2000/svg" xmlns:xlink="http://www.w3.org/1999/xlink" xml:space="preserve" onload="init(evt)">
<style type="text/css"><![CDATA[
.node, .edge {opacity: 0.7;}
.node.selected, .edge.selected {opacity: 1;}
.edge:hover path { stroke: red; }
.edge:hover polygon { stroke: red; fill: red; }
]]></style>
<script type="application/ecmascript" xlink:href="svg.min.js"/>
<svg id="graph" class="graph">
<g id="graph0" class="graph" transform="scale(1 1) rotate(0) translate(4 310)">
<title>Ponca::UnorientedSphereDerImpl&lt; DataPoint, _WFunctor, DiffType, T &gt;</title>
<!-- Node1 -->
<g id="Node000001" class="node">
<title>Node1</title>
<g id="a_Node000001"><a xlink:title=" ">
<polygon fill="#999999" stroke="transparent" points="152,-221 0,-221 0,0 152,0 152,-221"/>
<text text-anchor="start" x="5" y="-208.5" font-family="Helvetica,sans-Serif" font-size="10.00">Ponca::UnorientedSphereDer</text>
<text text-anchor="start" x="5" y="-197.5" font-family="Helvetica,sans-Serif" font-size="10.00">Impl&lt; DataPoint, _WFunctor,</text>
<text text-anchor="start" x="42.5" y="-186.5" font-family="Helvetica,sans-Serif" font-size="10.00"> DiffType, T &gt;</text>
<text text-anchor="start" x="8.5" y="-171.5" font-family="Helvetica,sans-Serif" font-size="10.00">+</text>
<text text-anchor="start" x="26" y="-171.5" font-family="Helvetica,sans-Serif" font-size="10.00">m_dUc</text>
<text text-anchor="start" x="8.5" y="-156.5" font-family="Helvetica,sans-Serif" font-size="10.00">+</text>
<text text-anchor="start" x="26" y="-156.5" font-family="Helvetica,sans-Serif" font-size="10.00">m_dUl</text>
<text text-anchor="start" x="8.5" y="-141.5" font-family="Helvetica,sans-Serif" font-size="10.00">+</text>
<text text-anchor="start" x="26" y="-141.5" font-family="Helvetica,sans-Serif" font-size="10.00">m_dUq</text>
<text text-anchor="start" x="8.5" y="-126.5" font-family="Helvetica,sans-Serif" font-size="10.00">#</text>
<text text-anchor="start" x="26" y="-126.5" font-family="Helvetica,sans-Serif" font-size="10.00">m_dmatA</text>
<text text-anchor="start" x="8.5" y="-111.5" font-family="Helvetica,sans-Serif" font-size="10.00">#</text>
<text text-anchor="start" x="26" y="-111.5" font-family="Helvetica,sans-Serif" font-size="10.00">m_dSumDotPP</text>
<text text-anchor="start" x="8.5" y="-96.5" font-family="Helvetica,sans-Serif" font-size="10.00">+</text>
<text text-anchor="start" x="26" y="-96.5" font-family="Helvetica,sans-Serif" font-size="10.00">unorientedSphereDer()</text>
<text text-anchor="start" x="8.5" y="-81.5" font-family="Helvetica,sans-Serif" font-size="10.00">+</text>
<text text-anchor="start" x="26" y="-81.5" font-family="Helvetica,sans-Serif" font-size="10.00">unorientedSphereDer()</text>
<text text-anchor="start" x="8.5" y="-66.5" font-family="Helvetica,sans-Serif" font-size="10.00">+</text>
<text text-anchor="start" x="26" y="-66.5" font-family="Helvetica,sans-Serif" font-size="10.00">init()</text>
<text text-anchor="start" x="8.5" y="-51.5" font-family="Helvetica,sans-Serif" font-size="10.00">+</text>
<text text-anchor="start" x="26" y="-51.5" font-family="Helvetica,sans-Serif" font-size="10.00">addLocalNeighbor()</text>
<text text-anchor="start" x="8.5" y="-36.5" font-family="Helvetica,sans-Serif" font-size="10.00">+</text>
<text text-anchor="start" x="26" y="-36.5" font-family="Helvetica,sans-Serif" font-size="10.00">finalize()</text>
<text text-anchor="start" x="8.5" y="-21.5" font-family="Helvetica,sans-Serif" font-size="10.00">+</text>
<text text-anchor="start" x="26" y="-21.5" font-family="Helvetica,sans-Serif" font-size="10.00">dPotential()</text>
<text text-anchor="start" x="8.5" y="-6.5" font-family="Helvetica,sans-Serif" font-size="10.00">+</text>
<text text-anchor="start" x="26" y="-6.5" font-family="Helvetica,sans-Serif" font-size="10.00">dNormal()</text>
<polygon fill="#666666" stroke="#666666" points="0,-181.5 0,-181.5 152,-181.5 152,-181.5 0,-181.5"/>
<polygon fill="#666666" stroke="#666666" points="0,-106.5 0,-106.5 24,-106.5 24,-106.5 0,-106.5"/>
<polygon fill="#666666" stroke="#666666" points="24,-106.5 24,-106.5 152,-106.5 152,-106.5 24,-106.5"/>
<polygon fill="none" stroke="#666666" points="0,0 0,-221 152,-221 152,0 0,0"/>
</a>
</g>
</g>
<!-- Node2 -->
<g id="Node000002" class="node">
<title>Node2</title>
<g id="a_Node000002"><a xlink:title=" ">
<polygon fill="white" stroke="transparent" points="84.5,-306 67.5,-306 67.5,-257 84.5,-257 84.5,-306"/>
<text text-anchor="start" x="73" y="-293.5" font-family="Helvetica,sans-Serif" font-size="10.00">T</text>
<text text-anchor="start" x="74.5" y="-278.5" font-family="Helvetica,sans-Serif" font-size="10.00"> </text>
<text text-anchor="start" x="74.5" y="-263.5" font-family="Helvetica,sans-Serif" font-size="10.00"> </text>
<polygon fill="#bfbfbf" stroke="#bfbfbf" points="68,-288.5 68,-288.5 85,-288.5 85,-288.5 68,-288.5"/>
<polygon fill="#bfbfbf" stroke="#bfbfbf" points="68,-273.5 68,-273.5 85,-273.5 85,-273.5 68,-273.5"/>
<polygon fill="none" stroke="#bfbfbf" points="67.5,-257 67.5,-306 84.5,-306 84.5,-257 67.5,-257"/>
</a>
</g>
</g>
<!-- Node2&#45;&gt;Node1 -->
<g id="edge1_Node000001_Node000002" class="edge">
<title>Node2&#45;&gt;Node1</title>
<g id="a_edge1_Node000001_Node000002"><a xlink:title=" ">
<path fill="none" stroke="#63b8ff" d="M76,-246.44C76,-238.77 76,-230.23 76,-221.28"/>
<polygon fill="none" stroke="#63b8ff" points="72.5,-246.64 76,-256.64 79.5,-246.64 72.5,-246.64"/>
</a>
</g>
</g>
</g>
</svg>
</svg>

<style type='text/css'>
<![CDATA[
[data-mouse-over-selected='false'] { opacity: 0.7; }
[data-mouse-over-selected='true']  { opacity: 1.0; }
]]>
</style>
<script type="application/ecmascript"><![CDATA[
document.addEventListener('DOMContentLoaded', (event) => {
  highlightEdges();
  highlightAdjacentNodes();
});
]]></script>
</svg>
