<?xml version="1.0" encoding="UTF-8" standalone="no"?>
<!DOCTYPE svg PUBLIC "-//W3C//DTD SVG 1.1//EN"
 "http://www.w3.org/Graphics/SVG/1.1/DTD/svg11.dtd">
<!-- Generated by graphviz version 2.43.0 (0)
 -->
<!-- Title: Ponca::internal::CurvatureEstimatorBase&lt; DataPoint, _NFilter, T &gt; Pages: 1 -->
<svg width="308pt" height="406pt"
 viewBox="0.00 0.00 308.00 406.00" xmlns="http://www.w3.org/2000/svg" xmlns:xlink="http://www.w3.org/1999/xlink">
<g id="graph0" class="graph" transform="scale(1 1) rotate(0) translate(4 402)">
<title>Ponca::internal::CurvatureEstimatorBase&lt; DataPoint, _NFilter, T &gt;</title>
<!-- Node1 -->
<g id="Node000001" class="node">
<title>Node1</title>
<g id="a_Node000001"><a xlink:title="Base class for any 3d curvature estimator: holds , &#160;and associated vectors, such that .">
<polygon fill="#999999" stroke="transparent" points="221.5,-313 77.5,-313 77.5,-122 221.5,-122 221.5,-313"/>
<text text-anchor="start" x="82.5" y="-300.5" font-family="Helvetica,sans-Serif" font-size="10.00">Ponca::internal::Curvature</text>
<text text-anchor="start" x="82.5" y="-289.5" font-family="Helvetica,sans-Serif" font-size="10.00">EstimatorBase&lt; DataPoint,</text>
<text text-anchor="start" x="117.5" y="-278.5" font-family="Helvetica,sans-Serif" font-size="10.00"> _NFilter, T &gt;</text>
<text text-anchor="start" x="147.5" y="-263.5" font-family="Helvetica,sans-Serif" font-size="10.00"> </text>
<text text-anchor="start" x="86.5" y="-248.5" font-family="Helvetica,sans-Serif" font-size="10.00">+</text>
<text text-anchor="start" x="104.5" y="-248.5" font-family="Helvetica,sans-Serif" font-size="10.00">init()</text>
<text text-anchor="start" x="86.5" y="-233.5" font-family="Helvetica,sans-Serif" font-size="10.00">+</text>
<text text-anchor="start" x="104.5" y="-233.5" font-family="Helvetica,sans-Serif" font-size="10.00">isValid()</text>
<text text-anchor="start" x="86.5" y="-218.5" font-family="Helvetica,sans-Serif" font-size="10.00">+</text>
<text text-anchor="start" x="104.5" y="-218.5" font-family="Helvetica,sans-Serif" font-size="10.00">kmin()</text>
<text text-anchor="start" x="86.5" y="-203.5" font-family="Helvetica,sans-Serif" font-size="10.00">+</text>
<text text-anchor="start" x="104.5" y="-203.5" font-family="Helvetica,sans-Serif" font-size="10.00">kmax()</text>
<text text-anchor="start" x="86.5" y="-188.5" font-family="Helvetica,sans-Serif" font-size="10.00">+</text>
<text text-anchor="start" x="104.5" y="-188.5" font-family="Helvetica,sans-Serif" font-size="10.00">kminDirection()</text>
<text text-anchor="start" x="86.5" y="-173.5" font-family="Helvetica,sans-Serif" font-size="10.00">+</text>
<text text-anchor="start" x="104.5" y="-173.5" font-family="Helvetica,sans-Serif" font-size="10.00">kmaxDirection()</text>
<text text-anchor="start" x="86.5" y="-158.5" font-family="Helvetica,sans-Serif" font-size="10.00">+</text>
<text text-anchor="start" x="104.5" y="-158.5" font-family="Helvetica,sans-Serif" font-size="10.00">kMean()</text>
<text text-anchor="start" x="86.5" y="-143.5" font-family="Helvetica,sans-Serif" font-size="10.00">+</text>
<text text-anchor="start" x="104.5" y="-143.5" font-family="Helvetica,sans-Serif" font-size="10.00">GaussianCurvature()</text>
<text text-anchor="start" x="86.5" y="-128.5" font-family="Helvetica,sans-Serif" font-size="10.00">#</text>
<text text-anchor="start" x="104.5" y="-128.5" font-family="Helvetica,sans-Serif" font-size="10.00">setCurvatureValues()</text>
<polygon fill="#666666" stroke="#666666" points="77.5,-273.5 77.5,-273.5 221.5,-273.5 221.5,-273.5 77.5,-273.5"/>
<polygon fill="#666666" stroke="#666666" points="77.5,-258.5 77.5,-258.5 221.5,-258.5 221.5,-258.5 77.5,-258.5"/>
<polygon fill="none" stroke="#666666" points="77.5,-122 77.5,-313 221.5,-313 221.5,-122 77.5,-122"/>
</a>
</g>
</g>
<!-- Node3 -->
<g id="Node000003" class="node">
<title>Node3</title>
<g id="a_Node000003"><a xlink:href="classPonca_1_1CurvatureEstimator.html" target="_top" xlink:title="Make CurvatureEstimatorBase available to standard Basket object.">
<polygon fill="white" stroke="transparent" points="141,-80.5 0,-80.5 0,-5.5 141,-5.5 141,-80.5"/>
<text text-anchor="start" x="5.5" y="-68" font-family="Helvetica,sans-Serif" font-size="10.00">Ponca::CurvatureEstimator</text>
<text text-anchor="start" x="7.5" y="-57" font-family="Helvetica,sans-Serif" font-size="10.00">&lt; DataPoint, _NFilter, T &gt;</text>
<text text-anchor="start" x="69" y="-42" font-family="Helvetica,sans-Serif" font-size="10.00"> </text>
<text text-anchor="start" x="9" y="-27" font-family="Helvetica,sans-Serif" font-size="10.00">+</text>
<text text-anchor="start" x="26.5" y="-27" font-family="Helvetica,sans-Serif" font-size="10.00">curvatureEstimator()</text>
<text text-anchor="start" x="9" y="-12" font-family="Helvetica,sans-Serif" font-size="10.00">+</text>
<text text-anchor="start" x="26.5" y="-12" font-family="Helvetica,sans-Serif" font-size="10.00">curvatureEstimator()</text>
<polygon fill="#666666" stroke="#666666" points="0.5,-52 0.5,-52 141.5,-52 141.5,-52 0.5,-52"/>
<polygon fill="#666666" stroke="#666666" points="0.5,-37 0.5,-37 141.5,-37 141.5,-37 0.5,-37"/>
<polygon fill="none" stroke="#666666" points="0,-5.5 0,-80.5 141,-80.5 141,-5.5 0,-5.5"/>
</a>
</g>
</g>
<!-- Node1&#45;&gt;Node3 -->
<g id="edge2_Node000001_Node000003" class="edge">
<title>Node1&#45;&gt;Node3</title>
<g id="a_edge2_Node000001_Node000003"><a xlink:title=" ">
<path fill="none" stroke="#63b8ff" d="M101.98,-112.75C96.79,-101.39 91.78,-90.47 87.35,-80.79"/>
<polygon fill="none" stroke="#63b8ff" points="98.84,-114.29 106.19,-121.92 105.2,-111.37 98.84,-114.29"/>
</a>
</g>
</g>
<!-- Node4 -->
<g id="Node000004" class="node">
<title>Node4</title>
<g id="a_Node000004"><a xlink:href="classPonca_1_1CurvatureEstimatorDer.html" target="_top" xlink:title="Make CurvatureEstimatorBase available to BasketDiff object.">
<polygon fill="white" stroke="transparent" points="300,-86 159,-86 159,0 300,0 300,-86"/>
<text text-anchor="start" x="164.5" y="-74" font-family="Helvetica,sans-Serif" font-size="10.00">Ponca::CurvatureEstimator</text>
<text text-anchor="start" x="164.5" y="-63" font-family="Helvetica,sans-Serif" font-size="10.00">Der&lt; DataPoint, _NFilter,</text>
<text text-anchor="start" x="196.5" y="-52" font-family="Helvetica,sans-Serif" font-size="10.00"> DiffType, T &gt;</text>
<text text-anchor="start" x="228" y="-37" font-family="Helvetica,sans-Serif" font-size="10.00"> </text>
<text text-anchor="start" x="168" y="-22" font-family="Helvetica,sans-Serif" font-size="10.00">+</text>
<text text-anchor="start" x="185.5" y="-22" font-family="Helvetica,sans-Serif" font-size="10.00">curvatureEstimator()</text>
<text text-anchor="start" x="168" y="-7" font-family="Helvetica,sans-Serif" font-size="10.00">+</text>
<text text-anchor="start" x="185.5" y="-7" font-family="Helvetica,sans-Serif" font-size="10.00">curvatureEstimator()</text>
<polygon fill="#666666" stroke="#666666" points="159.5,-47 159.5,-47 300.5,-47 300.5,-47 159.5,-47"/>
<polygon fill="#666666" stroke="#666666" points="159.5,-32 159.5,-32 300.5,-32 300.5,-32 159.5,-32"/>
<polygon fill="none" stroke="#666666" points="159,0 159,-86 300,-86 300,0 159,0"/>
</a>
</g>
</g>
<!-- Node1&#45;&gt;Node4 -->
<g id="edge3_Node000001_Node000004" class="edge">
<title>Node1&#45;&gt;Node4</title>
<g id="a_edge3_Node000001_Node000004"><a xlink:title=" ">
<path fill="none" stroke="#63b8ff" d="M197.7,-112.57C202,-103.29 206.17,-94.3 210,-86.05"/>
<polygon fill="none" stroke="#63b8ff" points="194.39,-111.38 193.36,-121.92 200.74,-114.32 194.39,-111.38"/>
</a>
</g>
</g>
<!-- Node2 -->
<g id="Node000002" class="node">
<title>Node2</title>
<g id="a_Node000002"><a xlink:title=" ">
<polygon fill="white" stroke="transparent" points="158,-398 141,-398 141,-349 158,-349 158,-398"/>
<text text-anchor="start" x="146.5" y="-385.5" font-family="Helvetica,sans-Serif" font-size="10.00">T</text>
<text text-anchor="start" x="148" y="-370.5" font-family="Helvetica,sans-Serif" font-size="10.00"> </text>
<text text-anchor="start" x="148" y="-355.5" font-family="Helvetica,sans-Serif" font-size="10.00"> </text>
<polygon fill="#bfbfbf" stroke="#bfbfbf" points="141.5,-380.5 141.5,-380.5 158.5,-380.5 158.5,-380.5 141.5,-380.5"/>
<polygon fill="#bfbfbf" stroke="#bfbfbf" points="141.5,-365.5 141.5,-365.5 158.5,-365.5 158.5,-365.5 141.5,-365.5"/>
<polygon fill="none" stroke="#bfbfbf" points="141,-349 141,-398 158,-398 158,-349 141,-349"/>
</a>
</g>
</g>
<!-- Node2&#45;&gt;Node1 -->
<g id="edge1_Node000001_Node000002" class="edge">
<title>Node2&#45;&gt;Node1</title>
<g id="a_edge1_Node000001_Node000002"><a xlink:title=" ">
<path fill="none" stroke="#63b8ff" d="M149.5,-338.72C149.5,-330.91 149.5,-322.22 149.5,-313.19"/>
<polygon fill="none" stroke="#63b8ff" points="146,-338.77 149.5,-348.77 153,-338.78 146,-338.77"/>
</a>
</g>
</g>
</g>
</svg>
