<?xml version="1.0" encoding="UTF-8" standalone="no"?>
<!DOCTYPE svg PUBLIC "-//W3C//DTD SVG 1.1//EN"
 "http://www.w3.org/Graphics/SVG/1.1/DTD/svg11.dtd">
<!-- Generated by graphviz version 2.43.0 (0)
 -->
<!-- Title: Ponca::internal::WeingartenCurvatureEstimatorBase&lt; DataPoint, _NFilter, T &gt; Pages: 1 -->
<svg width="384pt" height="286pt"
 viewBox="0.00 0.00 384.00 286.00" xmlns="http://www.w3.org/2000/svg" xmlns:xlink="http://www.w3.org/1999/xlink">

<svg id="main" version="1.1" xmlns="http://www.w3.org/2000/svg" xmlns:xlink="http://www.w3.org/1999/xlink" xml:space="preserve" onload="init(evt)">
<style type="text/css"><![CDATA[
.node, .edge {opacity: 0.7;}
.node.selected, .edge.selected {opacity: 1;}
.edge:hover path { stroke: red; }
.edge:hover polygon { stroke: red; fill: red; }
]]></style>
<script type="application/ecmascript" xlink:href="svg.min.js"/>
<svg id="graph" class="graph">
<g id="graph0" class="graph" transform="scale(1 1) rotate(0) translate(4 282)">
<title>Ponca::internal::WeingartenCurvatureEstimatorBase&lt; DataPoint, _NFilter, T &gt;</title>
<!-- Node1 -->
<g id="Node000001" class="node">
<title>Node1</title>
<g id="a_Node000001"><a xlink:title="Compute principal curvatures from a base class providing fundamental forms.">
<polygon fill="#999999" stroke="transparent" points="260,-193 115,-193 115,-122 260,-122 260,-193"/>
<text text-anchor="start" x="120.5" y="-180.5" font-family="Helvetica,sans-Serif" font-size="10.00">Ponca::internal::Weingarten</text>
<text text-anchor="start" x="120.5" y="-169.5" font-family="Helvetica,sans-Serif" font-size="10.00">CurvatureEstimatorBase&lt;</text>
<text text-anchor="start" x="129" y="-158.5" font-family="Helvetica,sans-Serif" font-size="10.00"> DataPoint, _NFilter, T &gt;</text>
<text text-anchor="start" x="186" y="-143.5" font-family="Helvetica,sans-Serif" font-size="10.00"> </text>
<text text-anchor="start" x="139.5" y="-128.5" font-family="Helvetica,sans-Serif" font-size="10.00">+</text>
<text text-anchor="start" x="172.5" y="-128.5" font-family="Helvetica,sans-Serif" font-size="10.00">finalize()</text>
<polygon fill="#666666" stroke="#666666" points="115.5,-153.5 115.5,-153.5 260.5,-153.5 260.5,-153.5 115.5,-153.5"/>
<polygon fill="#666666" stroke="#666666" points="115.5,-138.5 115.5,-138.5 260.5,-138.5 260.5,-138.5 115.5,-138.5"/>
<polygon fill="none" stroke="#666666" points="115,-122 115,-193 260,-193 260,-122 115,-122"/>
</a>
</g>
</g>
<!-- Node3 -->
<g id="Node000003" class="node">
<title>Node3</title>
<g id="a_Node000003"><a xlink:href="structPonca_1_1WeingartenCurvatureEstimator.html" target="_top" xlink:title="Compute principal curvatures from a base class providing fundamental forms.">
<polygon fill="white" stroke="transparent" points="179,-86 0,-86 0,0 179,0 179,-86"/>
<text text-anchor="start" x="20.5" y="-74" font-family="Helvetica,sans-Serif" font-size="10.00">Ponca::WeingartenCurvature</text>
<text text-anchor="start" x="20.5" y="-63" font-family="Helvetica,sans-Serif" font-size="10.00">Estimator&lt; DataPoint, </text>
<text text-anchor="start" x="59.5" y="-52" font-family="Helvetica,sans-Serif" font-size="10.00">_NFilter, T &gt;</text>
<text text-anchor="start" x="88" y="-37" font-family="Helvetica,sans-Serif" font-size="10.00"> </text>
<text text-anchor="start" x="4.5" y="-22" font-family="Helvetica,sans-Serif" font-size="10.00">+</text>
<text text-anchor="start" x="17.5" y="-22" font-family="Helvetica,sans-Serif" font-size="10.00">weingartenCurvatureEstimator()</text>
<text text-anchor="start" x="4.5" y="-7" font-family="Helvetica,sans-Serif" font-size="10.00">+</text>
<text text-anchor="start" x="17.5" y="-7" font-family="Helvetica,sans-Serif" font-size="10.00">weingartenCurvatureEstimator()</text>
<polygon fill="#666666" stroke="#666666" points="0.5,-47 0.5,-47 179.5,-47 179.5,-47 0.5,-47"/>
<polygon fill="#666666" stroke="#666666" points="0.5,-32 0.5,-32 179.5,-32 179.5,-32 0.5,-32"/>
<polygon fill="none" stroke="#666666" points="0,0 0,-86 179,-86 179,0 0,0"/>
</a>
</g>
</g>
<!-- Node1&#45;&gt;Node3 -->
<g id="edge2_Node000001_Node000003" class="edge">
<title>Node1&#45;&gt;Node3</title>
<g id="a_edge2_Node000001_Node000003"><a xlink:title=" ">
<path fill="none" stroke="#63b8ff" d="M150.73,-114.29C142.75,-105.13 134.31,-95.44 126.33,-86.28"/>
<polygon fill="none" stroke="#63b8ff" points="148.09,-116.59 157.3,-121.83 153.37,-111.99 148.09,-116.59"/>
</a>
</g>
</g>
<!-- Node4 -->
<g id="Node000004" class="node">
<title>Node4</title>
<g id="a_Node000004"><a xlink:href="structPonca_1_1WeingartenCurvatureEstimatorDer.html" target="_top" xlink:title="Compute principal curvatures from a base class providing fundamental forms.">
<polygon fill="white" stroke="transparent" points="376,-86 197,-86 197,0 376,0 376,-86"/>
<text text-anchor="start" x="217.5" y="-74" font-family="Helvetica,sans-Serif" font-size="10.00">Ponca::WeingartenCurvature</text>
<text text-anchor="start" x="217.5" y="-63" font-family="Helvetica,sans-Serif" font-size="10.00">EstimatorDer&lt; DataPoint,</text>
<text text-anchor="start" x="232" y="-52" font-family="Helvetica,sans-Serif" font-size="10.00"> _NFilter, DiffType, T &gt;</text>
<text text-anchor="start" x="285" y="-37" font-family="Helvetica,sans-Serif" font-size="10.00"> </text>
<text text-anchor="start" x="201.5" y="-22" font-family="Helvetica,sans-Serif" font-size="10.00">+</text>
<text text-anchor="start" x="214.5" y="-22" font-family="Helvetica,sans-Serif" font-size="10.00">weingartenCurvatureEstimator()</text>
<text text-anchor="start" x="201.5" y="-7" font-family="Helvetica,sans-Serif" font-size="10.00">+</text>
<text text-anchor="start" x="214.5" y="-7" font-family="Helvetica,sans-Serif" font-size="10.00">weingartenCurvatureEstimator()</text>
<polygon fill="#666666" stroke="#666666" points="197.5,-47 197.5,-47 376.5,-47 376.5,-47 197.5,-47"/>
<polygon fill="#666666" stroke="#666666" points="197.5,-32 197.5,-32 376.5,-32 376.5,-32 197.5,-32"/>
<polygon fill="none" stroke="#666666" points="197,0 197,-86 376,-86 376,0 197,0"/>
</a>
</g>
</g>
<!-- Node1&#45;&gt;Node4 -->
<g id="edge3_Node000001_Node000004" class="edge">
<title>Node1&#45;&gt;Node4</title>
<g id="a_edge3_Node000001_Node000004"><a xlink:title=" ">
<path fill="none" stroke="#63b8ff" d="M224.65,-114.29C232.71,-105.13 241.23,-95.44 249.29,-86.28"/>
<polygon fill="none" stroke="#63b8ff" points="221.99,-112.01 218.01,-121.83 227.24,-116.63 221.99,-112.01"/>
</a>
</g>
</g>
<!-- Node2 -->
<g id="Node000002" class="node">
<title>Node2</title>
<g id="a_Node000002"><a xlink:title=" ">
<polygon fill="white" stroke="transparent" points="196,-278 179,-278 179,-229 196,-229 196,-278"/>
<text text-anchor="start" x="184.5" y="-265.5" font-family="Helvetica,sans-Serif" font-size="10.00">T</text>
<text text-anchor="start" x="186" y="-250.5" font-family="Helvetica,sans-Serif" font-size="10.00"> </text>
<text text-anchor="start" x="186" y="-235.5" font-family="Helvetica,sans-Serif" font-size="10.00"> </text>
<polygon fill="#bfbfbf" stroke="#bfbfbf" points="179.5,-260.5 179.5,-260.5 196.5,-260.5 196.5,-260.5 179.5,-260.5"/>
<polygon fill="#bfbfbf" stroke="#bfbfbf" points="179.5,-245.5 179.5,-245.5 196.5,-245.5 196.5,-245.5 179.5,-245.5"/>
<polygon fill="none" stroke="#bfbfbf" points="179,-229 179,-278 196,-278 196,-229 179,-229"/>
</a>
</g>
</g>
<!-- Node2&#45;&gt;Node1 -->
<g id="edge1_Node000001_Node000002" class="edge">
<title>Node2&#45;&gt;Node1</title>
<g id="a_edge1_Node000001_Node000002"><a xlink:title=" ">
<path fill="none" stroke="#63b8ff" d="M187.5,-218.7C187.5,-210.42 187.5,-201.55 187.5,-193.23"/>
<polygon fill="none" stroke="#63b8ff" points="184,-218.78 187.5,-228.78 191,-218.78 184,-218.78"/>
</a>
</g>
</g>
</g>
</svg>
</svg>

<style type='text/css'>
<![CDATA[
[data-mouse-over-selected='false'] { opacity: 0.7; }
[data-mouse-over-selected='true']  { opacity: 1.0; }
]]>
</style>
<script type="application/ecmascript"><![CDATA[
document.addEventListener('DOMContentLoaded', (event) => {
  highlightEdges();
  highlightAdjacentNodes();
});
]]></script>
</svg>
