<?xml version="1.0" encoding="UTF-8" standalone="no"?>
<!DOCTYPE svg PUBLIC "-//W3C//DTD SVG 1.1//EN"
 "http://www.w3.org/Graphics/SVG/1.1/DTD/svg11.dtd">
<!-- Generated by graphviz version 2.43.0 (0)
 -->
<!-- Title: Ponca::KdTreeNearestIndexQuery&lt; DataPoint &gt; Pages: 1 -->
<svg width="571pt" height="1126pt"
 viewBox="0.00 0.00 571.00 1126.00" xmlns="http://www.w3.org/2000/svg" xmlns:xlink="http://www.w3.org/1999/xlink">
<g id="graph0" class="graph" transform="scale(1 1) rotate(0) translate(4 1122)">
<title>Ponca::KdTreeNearestIndexQuery&lt; DataPoint &gt;</title>
<!-- Node1 -->
<g id="node1" class="node">
<title>Node1</title>
<g id="a_node1"><a xlink:title=" ">
<polygon fill="#bfbfbf" stroke="black" points="27,-0.5 27,-101.5 190,-101.5 190,-0.5 27,-0.5"/>
<text text-anchor="start" x="35" y="-89.5" font-family="Helvetica,sans-Serif" font-size="10.00">Ponca::KdTreeNearestIndex</text>
<text text-anchor="middle" x="108.5" y="-78.5" font-family="Helvetica,sans-Serif" font-size="10.00">Query&lt; DataPoint &gt;</text>
<polyline fill="none" stroke="black" points="27,-71.5 190,-71.5 "/>
<text text-anchor="middle" x="108.5" y="-59.5" font-family="Helvetica,sans-Serif" font-size="10.00"> </text>
<polyline fill="none" stroke="black" points="27,-52.5 190,-52.5 "/>
<text text-anchor="start" x="35" y="-40.5" font-family="Helvetica,sans-Serif" font-size="10.00">+ KdTreeNearestIndexQuery()</text>
<text text-anchor="start" x="35" y="-29.5" font-family="Helvetica,sans-Serif" font-size="10.00">+ begin()</text>
<text text-anchor="start" x="35" y="-18.5" font-family="Helvetica,sans-Serif" font-size="10.00">+ end()</text>
<text text-anchor="start" x="35" y="-7.5" font-family="Helvetica,sans-Serif" font-size="10.00"># search()</text>
</a>
</g>
</g>
<!-- Node2 -->
<g id="node2" class="node">
<title>Node2</title>
<g id="a_node2"><a xlink:href="group__spatialpartitioning.html#classPonca_1_1KdTreeQuery" target="_top" xlink:title=" ">
<polygon fill="none" stroke="#bfbfbf" points="39.5,-139.5 39.5,-229.5 153.5,-229.5 153.5,-139.5 39.5,-139.5"/>
<text text-anchor="start" x="47.5" y="-217.5" font-family="Helvetica,sans-Serif" font-size="10.00">Ponca::KdTreeQuery</text>
<text text-anchor="middle" x="96.5" y="-206.5" font-family="Helvetica,sans-Serif" font-size="10.00">&lt; DataPoint &gt;</text>
<polyline fill="none" stroke="#bfbfbf" points="39.5,-199.5 153.5,-199.5 "/>
<text text-anchor="start" x="47.5" y="-187.5" font-family="Helvetica,sans-Serif" font-size="10.00"># m_kdtree</text>
<text text-anchor="start" x="47.5" y="-176.5" font-family="Helvetica,sans-Serif" font-size="10.00"># m_stack</text>
<polyline fill="none" stroke="#bfbfbf" points="39.5,-169.5 153.5,-169.5 "/>
<text text-anchor="start" x="47.5" y="-157.5" font-family="Helvetica,sans-Serif" font-size="10.00">+ KdTreeQuery()</text>
<text text-anchor="start" x="47.5" y="-146.5" font-family="Helvetica,sans-Serif" font-size="10.00"># reset()</text>
</a>
</g>
</g>
<!-- Node2&#45;&gt;Node1 -->
<g id="edge1" class="edge">
<title>Node2&#45;&gt;Node1</title>
<path fill="none" stroke="midnightblue" d="M101.45,-129.22C102.28,-120.11 103.14,-110.69 103.96,-101.7"/>
<polygon fill="none" stroke="midnightblue" points="97.95,-129.07 100.53,-139.35 104.92,-129.71 97.95,-129.07"/>
</g>
<!-- Node3 -->
<g id="node3" class="node">
<title>Node3</title>
<g id="a_node3"><a xlink:href="group__spatialpartitioning.html" target="_top" xlink:title=" ">
<polygon fill="none" stroke="black" points="171.5,-150.5 171.5,-218.5 317.5,-218.5 317.5,-150.5 171.5,-150.5"/>
<text text-anchor="start" x="179.5" y="-206.5" font-family="Helvetica,sans-Serif" font-size="10.00">Ponca::NearestIndexQuery</text>
<text text-anchor="middle" x="244.5" y="-195.5" font-family="Helvetica,sans-Serif" font-size="10.00">&lt; DataPoint::Scalar &gt;</text>
<polyline fill="none" stroke="black" points="171.5,-188.5 317.5,-188.5 "/>
<text text-anchor="middle" x="244.5" y="-176.5" font-family="Helvetica,sans-Serif" font-size="10.00"> </text>
<polyline fill="none" stroke="black" points="171.5,-169.5 317.5,-169.5 "/>
<text text-anchor="middle" x="244.5" y="-157.5" font-family="Helvetica,sans-Serif" font-size="10.00"> </text>
</a>
</g>
</g>
<!-- Node3&#45;&gt;Node1 -->
<g id="edge2" class="edge">
<title>Node3&#45;&gt;Node1</title>
<path fill="none" stroke="midnightblue" d="M202.82,-143.2C189.23,-130.06 173.99,-115.32 159.78,-101.59"/>
<polygon fill="none" stroke="midnightblue" points="200.56,-145.88 210.18,-150.32 205.43,-140.85 200.56,-145.88"/>
</g>
<!-- Node4 -->
<g id="node4" class="node">
<title>Node4</title>
<g id="a_node4"><a xlink:href="group__spatialpartitioning.html" target="_top" xlink:title=" ">
<polygon fill="none" stroke="#bfbfbf" points="86,-383.5 86,-473.5 253,-473.5 253,-383.5 86,-383.5"/>
<text text-anchor="start" x="94" y="-461.5" font-family="Helvetica,sans-Serif" font-size="10.00">Ponca::Query&lt; QueryInput</text>
<text text-anchor="start" x="94" y="-450.5" font-family="Helvetica,sans-Serif" font-size="10.00">IsIndex, QueryOutputIsNearest</text>
<text text-anchor="middle" x="169.5" y="-439.5" font-family="Helvetica,sans-Serif" font-size="10.00">&lt; DataPoint::Scalar &gt; &gt;</text>
<polyline fill="none" stroke="#bfbfbf" points="86,-432.5 253,-432.5 "/>
<text text-anchor="middle" x="169.5" y="-420.5" font-family="Helvetica,sans-Serif" font-size="10.00"> </text>
<polyline fill="none" stroke="#bfbfbf" points="86,-413.5 253,-413.5 "/>
<text text-anchor="start" x="94" y="-401.5" font-family="Helvetica,sans-Serif" font-size="10.00">+ Query()</text>
<text text-anchor="start" x="94" y="-390.5" font-family="Helvetica,sans-Serif" font-size="10.00">+ Query()</text>
</a>
</g>
</g>
<!-- Node4&#45;&gt;Node3 -->
<g id="edge3" class="edge">
<title>Node4&#45;&gt;Node3</title>
<path fill="none" stroke="midnightblue" d="M186.2,-373.6C200.89,-326.21 221.8,-258.74 234.18,-218.8"/>
<polygon fill="none" stroke="midnightblue" points="182.79,-372.81 183.17,-383.39 189.47,-374.88 182.79,-372.81"/>
</g>
<!-- Node5 -->
<g id="node5" class="node">
<title>Node5</title>
<g id="a_node5"><a xlink:href="group__spatialpartitioning.html#structPonca_1_1QueryInputIsIndex" target="_top" xlink:title="Base class for queries storing points.">
<polygon fill="none" stroke="black" points="314,-565.5 314,-622.5 455,-622.5 455,-565.5 314,-565.5"/>
<text text-anchor="middle" x="384.5" y="-610.5" font-family="Helvetica,sans-Serif" font-size="10.00">Ponca::QueryInputIsIndex</text>
<polyline fill="none" stroke="black" points="314,-603.5 455,-603.5 "/>
<text text-anchor="middle" x="384.5" y="-591.5" font-family="Helvetica,sans-Serif" font-size="10.00"> </text>
<polyline fill="none" stroke="black" points="314,-584.5 455,-584.5 "/>
<text text-anchor="start" x="322" y="-572.5" font-family="Helvetica,sans-Serif" font-size="10.00">+ QueryInputIsIndex()</text>
</a>
</g>
</g>
<!-- Node5&#45;&gt;Node4 -->
<g id="edge4" class="edge">
<title>Node5&#45;&gt;Node4</title>
<path fill="none" stroke="midnightblue" d="M388.59,-555.4C388.77,-534.21 385.07,-508.72 369.5,-492 344.37,-465.01 323.86,-484.48 288.5,-474 276.97,-470.58 264.96,-466.6 253.2,-462.46"/>
<polygon fill="none" stroke="midnightblue" points="385.1,-555.28 388.23,-565.4 392.09,-555.53 385.1,-555.28"/>
</g>
<!-- Node16 -->
<g id="node16" class="node">
<title>Node16</title>
<g id="a_node16"><a xlink:href="group__spatialpartitioning.html" target="_top" xlink:title=" ">
<polygon fill="none" stroke="#bfbfbf" points="298,-383.5 298,-473.5 465,-473.5 465,-383.5 298,-383.5"/>
<text text-anchor="start" x="306" y="-461.5" font-family="Helvetica,sans-Serif" font-size="10.00">Ponca::Query&lt; QueryInput</text>
<text text-anchor="start" x="306" y="-450.5" font-family="Helvetica,sans-Serif" font-size="10.00">IsIndex, QueryOutputIsNearest</text>
<text text-anchor="middle" x="381.5" y="-439.5" font-family="Helvetica,sans-Serif" font-size="10.00">&lt; Scalar &gt; &gt;</text>
<polyline fill="none" stroke="#bfbfbf" points="298,-432.5 465,-432.5 "/>
<text text-anchor="middle" x="381.5" y="-420.5" font-family="Helvetica,sans-Serif" font-size="10.00"> </text>
<polyline fill="none" stroke="#bfbfbf" points="298,-413.5 465,-413.5 "/>
<text text-anchor="start" x="306" y="-401.5" font-family="Helvetica,sans-Serif" font-size="10.00">+ Query()</text>
<text text-anchor="start" x="306" y="-390.5" font-family="Helvetica,sans-Serif" font-size="10.00">+ Query()</text>
</a>
</g>
</g>
<!-- Node5&#45;&gt;Node16 -->
<g id="edge18" class="edge">
<title>Node5&#45;&gt;Node16</title>
<path fill="none" stroke="midnightblue" d="M391.87,-555.09C394.64,-536.14 396.65,-512.85 394.5,-492 393.89,-486.05 392.95,-479.82 391.86,-473.71"/>
<polygon fill="none" stroke="midnightblue" points="388.39,-554.7 390.28,-565.13 395.3,-555.8 388.39,-554.7"/>
</g>
<!-- Node6 -->
<g id="node6" class="node">
<title>Node6</title>
<g id="a_node6"><a xlink:href="group__spatialpartitioning.html" target="_top" xlink:title=" ">
<polygon fill="none" stroke="black" points="382.5,-789 382.5,-879 496.5,-879 496.5,-789 382.5,-789"/>
<text text-anchor="start" x="390.5" y="-867" font-family="Helvetica,sans-Serif" font-size="10.00">Ponca::QueryInput&lt;</text>
<text text-anchor="middle" x="439.5" y="-856" font-family="Helvetica,sans-Serif" font-size="10.00"> int &gt;</text>
<polyline fill="none" stroke="black" points="382.5,-849 496.5,-849 "/>
<text text-anchor="middle" x="439.5" y="-837" font-family="Helvetica,sans-Serif" font-size="10.00"> </text>
<polyline fill="none" stroke="black" points="382.5,-830 496.5,-830 "/>
<text text-anchor="start" x="390.5" y="-818" font-family="Helvetica,sans-Serif" font-size="10.00">+ QueryInput()</text>
<text text-anchor="start" x="390.5" y="-807" font-family="Helvetica,sans-Serif" font-size="10.00">+ input()</text>
<text text-anchor="start" x="390.5" y="-796" font-family="Helvetica,sans-Serif" font-size="10.00"># editInput()</text>
</a>
</g>
</g>
<!-- Node6&#45;&gt;Node5 -->
<g id="edge5" class="edge">
<title>Node6&#45;&gt;Node5</title>
<path fill="none" stroke="midnightblue" d="M405.3,-779.75C403.06,-774.88 401.08,-769.93 399.5,-765 384.01,-716.61 382.54,-656.76 383.26,-622.52"/>
<polygon fill="none" stroke="midnightblue" points="402.29,-781.56 409.86,-788.97 408.56,-778.45 402.29,-781.56"/>
</g>
<!-- Node7 -->
<g id="node7" class="node">
<title>Node7</title>
<g id="a_node7"><a xlink:href="group__spatialpartitioning.html#structPonca_1_1QueryInputBase" target="_top" xlink:title="Base class for queries input type.">
<polygon fill="none" stroke="black" points="363.5,-1060.5 363.5,-1117.5 493.5,-1117.5 493.5,-1060.5 363.5,-1060.5"/>
<text text-anchor="middle" x="428.5" y="-1105.5" font-family="Helvetica,sans-Serif" font-size="10.00">Ponca::QueryInputBase</text>
<polyline fill="none" stroke="black" points="363.5,-1098.5 493.5,-1098.5 "/>
<text text-anchor="middle" x="428.5" y="-1086.5" font-family="Helvetica,sans-Serif" font-size="10.00"> </text>
<polyline fill="none" stroke="black" points="363.5,-1079.5 493.5,-1079.5 "/>
<text text-anchor="middle" x="428.5" y="-1067.5" font-family="Helvetica,sans-Serif" font-size="10.00"> </text>
</a>
</g>
</g>
<!-- Node7&#45;&gt;Node6 -->
<g id="edge6" class="edge">
<title>Node7&#45;&gt;Node6</title>
<path fill="none" stroke="midnightblue" d="M430.14,-1050.35C432.13,-1004.59 435.48,-927.49 437.59,-879.03"/>
<polygon fill="none" stroke="midnightblue" points="426.64,-1050.3 429.7,-1060.44 433.63,-1050.6 426.64,-1050.3"/>
</g>
<!-- Node8 -->
<g id="node8" class="node">
<title>Node8</title>
<g id="a_node8"><a xlink:href="group__spatialpartitioning.html#structPonca_1_1QueryInput" target="_top" xlink:title="Base class for typed queries input type.">
<polygon fill="none" stroke="black" points="444.5,-932.5 444.5,-1022.5 558.5,-1022.5 558.5,-932.5 444.5,-932.5"/>
<text text-anchor="start" x="452.5" y="-1010.5" font-family="Helvetica,sans-Serif" font-size="10.00">Ponca::QueryInput&lt;</text>
<text text-anchor="middle" x="501.5" y="-999.5" font-family="Helvetica,sans-Serif" font-size="10.00"> InputType_ &gt;</text>
<polyline fill="none" stroke="black" points="444.5,-992.5 558.5,-992.5 "/>
<text text-anchor="middle" x="501.5" y="-980.5" font-family="Helvetica,sans-Serif" font-size="10.00"> </text>
<polyline fill="none" stroke="black" points="444.5,-973.5 558.5,-973.5 "/>
<text text-anchor="start" x="452.5" y="-961.5" font-family="Helvetica,sans-Serif" font-size="10.00">+ QueryInput()</text>
<text text-anchor="start" x="452.5" y="-950.5" font-family="Helvetica,sans-Serif" font-size="10.00">+ input()</text>
<text text-anchor="start" x="452.5" y="-939.5" font-family="Helvetica,sans-Serif" font-size="10.00"># editInput()</text>
</a>
</g>
</g>
<!-- Node7&#45;&gt;Node8 -->
<g id="edge8" class="edge">
<title>Node7&#45;&gt;Node8</title>
<path fill="none" stroke="midnightblue" d="M452.47,-1052.04C458.72,-1042.68 465.51,-1032.48 472.01,-1022.74"/>
<polygon fill="none" stroke="midnightblue" points="449.56,-1050.11 446.92,-1060.37 455.38,-1053.99 449.56,-1050.11"/>
</g>
<!-- Node8&#45;&gt;Node6 -->
<g id="edge7" class="edge">
<title>Node8&#45;&gt;Node6</title>
<path fill="none" stroke="orange" d="M477.98,-922.83C471.68,-908.44 464.93,-893.04 458.88,-879.23"/>
<polygon fill="orange" stroke="orange" points="474.83,-924.36 482.05,-932.12 481.25,-921.55 474.83,-924.36"/>
<text text-anchor="middle" x="491" y="-906" font-family="Helvetica,sans-Serif" font-size="10.00"> &lt; int &gt;</text>
</g>
<!-- Node9 -->
<g id="node9" class="node">
<title>Node9</title>
<g id="a_node9"><a xlink:href="group__spatialpartitioning.html" target="_top" xlink:title=" ">
<polygon fill="none" stroke="black" points="0,-543.5 0,-644.5 161,-644.5 161,-543.5 0,-543.5"/>
<text text-anchor="start" x="8" y="-632.5" font-family="Helvetica,sans-Serif" font-size="10.00">Ponca::QueryOutputIsNearest</text>
<text text-anchor="middle" x="80.5" y="-621.5" font-family="Helvetica,sans-Serif" font-size="10.00">&lt; DataPoint::Scalar &gt;</text>
<polyline fill="none" stroke="black" points="0,-614.5 161,-614.5 "/>
<text text-anchor="start" x="8" y="-602.5" font-family="Helvetica,sans-Serif" font-size="10.00"># m_nearest</text>
<text text-anchor="start" x="8" y="-591.5" font-family="Helvetica,sans-Serif" font-size="10.00"># m_squared_distance</text>
<polyline fill="none" stroke="black" points="0,-584.5 161,-584.5 "/>
<text text-anchor="start" x="8" y="-572.5" font-family="Helvetica,sans-Serif" font-size="10.00">+ QueryOutputIsNearest()</text>
<text text-anchor="start" x="8" y="-561.5" font-family="Helvetica,sans-Serif" font-size="10.00">+ get()</text>
<text text-anchor="start" x="8" y="-550.5" font-family="Helvetica,sans-Serif" font-size="10.00"># reset()</text>
</a>
</g>
</g>
<!-- Node9&#45;&gt;Node4 -->
<g id="edge9" class="edge">
<title>Node9&#45;&gt;Node4</title>
<path fill="none" stroke="midnightblue" d="M90.86,-533.73C94.81,-519.48 100.19,-504.72 107.5,-492 111.15,-485.64 115.62,-479.46 120.46,-473.63"/>
<polygon fill="none" stroke="midnightblue" points="87.45,-532.91 88.35,-543.47 94.23,-534.66 87.45,-532.91"/>
</g>
<!-- Node10 -->
<g id="node10" class="node">
<title>Node10</title>
<g id="a_node10"><a xlink:href="group__spatialpartitioning.html#structPonca_1_1QueryOutputBase" target="_top" xlink:title="Base class for queries output type.">
<polygon fill="none" stroke="black" points="38.5,-949 38.5,-1006 176.5,-1006 176.5,-949 38.5,-949"/>
<text text-anchor="middle" x="107.5" y="-994" font-family="Helvetica,sans-Serif" font-size="10.00">Ponca::QueryOutputBase</text>
<polyline fill="none" stroke="black" points="38.5,-987 176.5,-987 "/>
<text text-anchor="middle" x="107.5" y="-975" font-family="Helvetica,sans-Serif" font-size="10.00"> </text>
<polyline fill="none" stroke="black" points="38.5,-968 176.5,-968 "/>
<text text-anchor="middle" x="107.5" y="-956" font-family="Helvetica,sans-Serif" font-size="10.00"> </text>
</a>
</g>
</g>
<!-- Node10&#45;&gt;Node9 -->
<g id="edge10" class="edge">
<title>Node10&#45;&gt;Node9</title>
<path fill="none" stroke="midnightblue" d="M60.55,-941.87C43.63,-926.55 26.5,-907 17.5,-885 -15.54,-804.3 22.65,-703.55 52.32,-644.53"/>
<polygon fill="none" stroke="midnightblue" points="58.43,-944.67 68.27,-948.61 63.04,-939.4 58.43,-944.67"/>
</g>
<!-- Node11 -->
<g id="node11" class="node">
<title>Node11</title>
<g id="a_node11"><a xlink:href="group__spatialpartitioning.html#structPonca_1_1QueryOutputIsNearest" target="_top" xlink:title="Base class for nearest queries.">
<polygon fill="none" stroke="black" points="27,-783.5 27,-884.5 188,-884.5 188,-783.5 27,-783.5"/>
<text text-anchor="start" x="35" y="-872.5" font-family="Helvetica,sans-Serif" font-size="10.00">Ponca::QueryOutputIsNearest</text>
<text text-anchor="middle" x="107.5" y="-861.5" font-family="Helvetica,sans-Serif" font-size="10.00">&lt; Scalar &gt;</text>
<polyline fill="none" stroke="black" points="27,-854.5 188,-854.5 "/>
<text text-anchor="start" x="35" y="-842.5" font-family="Helvetica,sans-Serif" font-size="10.00"># m_nearest</text>
<text text-anchor="start" x="35" y="-831.5" font-family="Helvetica,sans-Serif" font-size="10.00"># m_squared_distance</text>
<polyline fill="none" stroke="black" points="27,-824.5 188,-824.5 "/>
<text text-anchor="start" x="35" y="-812.5" font-family="Helvetica,sans-Serif" font-size="10.00">+ QueryOutputIsNearest()</text>
<text text-anchor="start" x="35" y="-801.5" font-family="Helvetica,sans-Serif" font-size="10.00">+ get()</text>
<text text-anchor="start" x="35" y="-790.5" font-family="Helvetica,sans-Serif" font-size="10.00"># reset()</text>
</a>
</g>
</g>
<!-- Node10&#45;&gt;Node11 -->
<g id="edge12" class="edge">
<title>Node10&#45;&gt;Node11</title>
<path fill="none" stroke="midnightblue" d="M107.5,-938.49C107.5,-921.93 107.5,-902.3 107.5,-884.6"/>
<polygon fill="none" stroke="midnightblue" points="104,-938.88 107.5,-948.88 111,-938.88 104,-938.88"/>
</g>
<!-- Node17 -->
<g id="node17" class="node">
<title>Node17</title>
<g id="a_node17"><a xlink:href="group__spatialpartitioning.html#structPonca_1_1QueryOutputIsNearest" target="_top" xlink:title="Base class for nearest queries.">
<polygon fill="none" stroke="black" points="402,-663.5 402,-764.5 563,-764.5 563,-663.5 402,-663.5"/>
<text text-anchor="start" x="410" y="-752.5" font-family="Helvetica,sans-Serif" font-size="10.00">Ponca::QueryOutputIsNearest</text>
<text text-anchor="middle" x="482.5" y="-741.5" font-family="Helvetica,sans-Serif" font-size="10.00">&lt; Scalar &gt;</text>
<polyline fill="none" stroke="black" points="402,-734.5 563,-734.5 "/>
<text text-anchor="start" x="410" y="-722.5" font-family="Helvetica,sans-Serif" font-size="10.00"># m_nearest</text>
<text text-anchor="start" x="410" y="-711.5" font-family="Helvetica,sans-Serif" font-size="10.00"># m_squared_distance</text>
<polyline fill="none" stroke="black" points="402,-704.5 563,-704.5 "/>
<text text-anchor="start" x="410" y="-692.5" font-family="Helvetica,sans-Serif" font-size="10.00">+ QueryOutputIsNearest()</text>
<text text-anchor="start" x="410" y="-681.5" font-family="Helvetica,sans-Serif" font-size="10.00">+ get()</text>
<text text-anchor="start" x="410" y="-670.5" font-family="Helvetica,sans-Serif" font-size="10.00"># reset()</text>
</a>
</g>
</g>
<!-- Node10&#45;&gt;Node17 -->
<g id="edge20" class="edge">
<title>Node10&#45;&gt;Node17</title>
<path fill="none" stroke="midnightblue" d="M186.33,-961.51C234.68,-948.63 294.74,-925.48 334.5,-885 368.51,-850.37 342.64,-820.46 373.5,-783 381.58,-773.19 391.47,-764.37 401.96,-756.6"/>
<polygon fill="none" stroke="midnightblue" points="185.33,-958.15 176.51,-964.03 187.07,-964.93 185.33,-958.15"/>
</g>
<!-- Node11&#45;&gt;Node9 -->
<g id="edge11" class="edge">
<title>Node11&#45;&gt;Node9</title>
<path fill="none" stroke="orange" d="M100.73,-773.31C96.22,-733.58 90.37,-681.99 86.12,-644.54"/>
<polygon fill="orange" stroke="orange" points="97.27,-773.86 101.87,-783.4 104.22,-773.07 97.27,-773.86"/>
<text text-anchor="middle" x="155.5" y="-711.5" font-family="Helvetica,sans-Serif" font-size="10.00"> &lt; DataPoint::Scalar &gt;</text>
</g>
<!-- Node12 -->
<g id="node12" class="node">
<title>Node12</title>
<g id="a_node12"><a xlink:href="group__spatialpartitioning.html#structPonca_1_1Query" target="_top" xlink:title=" ">
<polygon fill="none" stroke="#bfbfbf" points="179,-554.5 179,-633.5 296,-633.5 296,-554.5 179,-554.5"/>
<text text-anchor="start" x="187" y="-621.5" font-family="Helvetica,sans-Serif" font-size="10.00">Ponca::Query&lt; Input</text>
<text text-anchor="middle" x="237.5" y="-610.5" font-family="Helvetica,sans-Serif" font-size="10.00">_, Output_ &gt;</text>
<polyline fill="none" stroke="#bfbfbf" points="179,-603.5 296,-603.5 "/>
<text text-anchor="middle" x="237.5" y="-591.5" font-family="Helvetica,sans-Serif" font-size="10.00"> </text>
<polyline fill="none" stroke="#bfbfbf" points="179,-584.5 296,-584.5 "/>
<text text-anchor="start" x="187" y="-572.5" font-family="Helvetica,sans-Serif" font-size="10.00">+ Query()</text>
<text text-anchor="start" x="187" y="-561.5" font-family="Helvetica,sans-Serif" font-size="10.00">+ Query()</text>
</a>
</g>
</g>
<!-- Node12&#45;&gt;Node4 -->
<g id="edge13" class="edge">
<title>Node12&#45;&gt;Node4</title>
<path fill="none" stroke="orange" d="M179.95,-548.9C176.48,-546.8 172.98,-544.82 169.5,-543 147.44,-531.5 130.99,-545.22 116.5,-525 105.01,-508.97 111.61,-490.2 123.49,-473.57"/>
<polygon fill="orange" stroke="orange" points="178.19,-551.92 188.51,-554.31 181.93,-546 178.19,-551.92"/>
<text text-anchor="start" x="116.5" y="-517" font-family="Helvetica,sans-Serif" font-size="10.00"> &lt; QueryInputIsIndex,</text>
<text text-anchor="start" x="116.5" y="-506" font-family="Helvetica,sans-Serif" font-size="10.00"> QueryOutputIsNearest</text>
<text text-anchor="middle" x="175.5" y="-495" font-family="Helvetica,sans-Serif" font-size="10.00">&lt; DataPoint::Scalar &gt; &gt;</text>
</g>
<!-- Node12&#45;&gt;Node16 -->
<g id="edge21" class="edge">
<title>Node12&#45;&gt;Node16</title>
<path fill="none" stroke="orange" d="M250.09,-544.63C256.47,-526.7 265.66,-507.07 278.5,-492 284.2,-485.31 290.8,-479.14 297.85,-473.48"/>
<polygon fill="orange" stroke="orange" points="246.68,-543.79 246.82,-554.38 253.32,-546.01 246.68,-543.79"/>
<text text-anchor="start" x="278.5" y="-517" font-family="Helvetica,sans-Serif" font-size="10.00"> &lt; QueryInputIsIndex,</text>
<text text-anchor="start" x="278.5" y="-506" font-family="Helvetica,sans-Serif" font-size="10.00"> QueryOutputIsNearest</text>
<text text-anchor="middle" x="334.5" y="-495" font-family="Helvetica,sans-Serif" font-size="10.00">&lt; Scalar &gt; &gt;</text>
</g>
<!-- Node13 -->
<g id="node13" class="node">
<title>Node13</title>
<g id="a_node13"><a xlink:title=" ">
<polygon fill="none" stroke="#bfbfbf" points="206,-805.5 206,-862.5 253,-862.5 253,-805.5 206,-805.5"/>
<text text-anchor="middle" x="229.5" y="-850.5" font-family="Helvetica,sans-Serif" font-size="10.00">Input_</text>
<polyline fill="none" stroke="#bfbfbf" points="206,-843.5 253,-843.5 "/>
<text text-anchor="middle" x="229.5" y="-831.5" font-family="Helvetica,sans-Serif" font-size="10.00"> </text>
<polyline fill="none" stroke="#bfbfbf" points="206,-824.5 253,-824.5 "/>
<text text-anchor="middle" x="229.5" y="-812.5" font-family="Helvetica,sans-Serif" font-size="10.00"> </text>
</a>
</g>
</g>
<!-- Node13&#45;&gt;Node12 -->
<g id="edge14" class="edge">
<title>Node13&#45;&gt;Node12</title>
<path fill="none" stroke="midnightblue" d="M230.77,-795.18C232.26,-750.95 234.71,-678.14 236.2,-633.59"/>
<polygon fill="none" stroke="midnightblue" points="227.27,-795.12 230.43,-805.23 234.27,-795.36 227.27,-795.12"/>
</g>
<!-- Node14 -->
<g id="node14" class="node">
<title>Node14</title>
<g id="a_node14"><a xlink:title=" ">
<polygon fill="none" stroke="#bfbfbf" points="271,-805.5 271,-862.5 326,-862.5 326,-805.5 271,-805.5"/>
<text text-anchor="middle" x="298.5" y="-850.5" font-family="Helvetica,sans-Serif" font-size="10.00">Output_</text>
<polyline fill="none" stroke="#bfbfbf" points="271,-843.5 326,-843.5 "/>
<text text-anchor="middle" x="298.5" y="-831.5" font-family="Helvetica,sans-Serif" font-size="10.00"> </text>
<polyline fill="none" stroke="#bfbfbf" points="271,-824.5 326,-824.5 "/>
<text text-anchor="middle" x="298.5" y="-812.5" font-family="Helvetica,sans-Serif" font-size="10.00"> </text>
</a>
</g>
</g>
<!-- Node14&#45;&gt;Node12 -->
<g id="edge15" class="edge">
<title>Node14&#45;&gt;Node12</title>
<path fill="none" stroke="midnightblue" d="M288.88,-795.46C277.55,-751.26 258.83,-678.23 247.39,-633.59"/>
<polygon fill="none" stroke="midnightblue" points="285.51,-796.41 291.38,-805.23 292.29,-794.68 285.51,-796.41"/>
</g>
<!-- Node15 -->
<g id="node15" class="node">
<title>Node15</title>
<g id="a_node15"><a xlink:href="group__spatialpartitioning.html#structPonca_1_1NearestIndexQuery" target="_top" xlink:title="Base Query class combining QueryInputIsIndex and QueryOutputIsNearest.">
<polygon fill="none" stroke="black" points="260.5,-277.5 260.5,-345.5 406.5,-345.5 406.5,-277.5 260.5,-277.5"/>
<text text-anchor="start" x="268.5" y="-333.5" font-family="Helvetica,sans-Serif" font-size="10.00">Ponca::NearestIndexQuery</text>
<text text-anchor="middle" x="333.5" y="-322.5" font-family="Helvetica,sans-Serif" font-size="10.00">&lt; Scalar &gt;</text>
<polyline fill="none" stroke="black" points="260.5,-315.5 406.5,-315.5 "/>
<text text-anchor="middle" x="333.5" y="-303.5" font-family="Helvetica,sans-Serif" font-size="10.00"> </text>
<polyline fill="none" stroke="black" points="260.5,-296.5 406.5,-296.5 "/>
<text text-anchor="middle" x="333.5" y="-284.5" font-family="Helvetica,sans-Serif" font-size="10.00"> </text>
</a>
</g>
</g>
<!-- Node15&#45;&gt;Node3 -->
<g id="edge16" class="edge">
<title>Node15&#45;&gt;Node3</title>
<path fill="none" stroke="orange" d="M303.97,-269.03C292.36,-252.72 279.21,-234.24 268.23,-218.82"/>
<polygon fill="orange" stroke="orange" points="301.23,-271.21 309.88,-277.33 306.93,-267.15 301.23,-271.21"/>
<text text-anchor="middle" x="349.5" y="-251" font-family="Helvetica,sans-Serif" font-size="10.00"> &lt; DataPoint::Scalar &gt;</text>
</g>
<!-- Node16&#45;&gt;Node15 -->
<g id="edge17" class="edge">
<title>Node16&#45;&gt;Node15</title>
<path fill="none" stroke="midnightblue" d="M359.23,-374.13C355.17,-364.41 351.05,-354.54 347.32,-345.62"/>
<polygon fill="none" stroke="midnightblue" points="356,-375.49 363.08,-383.37 362.46,-372.79 356,-375.49"/>
</g>
<!-- Node17&#45;&gt;Node16 -->
<g id="edge19" class="edge">
<title>Node17&#45;&gt;Node16</title>
<path fill="none" stroke="midnightblue" d="M483.72,-653.33C482.57,-619.89 478.01,-578 464.5,-543 454.83,-517.95 438.14,-493.47 422.26,-473.7"/>
<polygon fill="none" stroke="midnightblue" points="480.22,-653.51 483.97,-663.42 487.22,-653.34 480.22,-653.51"/>
</g>
</g>
</svg>
