<?xml version="1.0" encoding="UTF-8" standalone="no"?>
<!DOCTYPE svg PUBLIC "-//W3C//DTD SVG 1.1//EN"
 "http://www.w3.org/Graphics/SVG/1.1/DTD/svg11.dtd">
<!-- Generated by graphviz version 2.43.0 (0)
 -->
<!-- Title: Ponca::SmoothWeightKernel&lt; _Scalar &gt; Pages: 1 -->
<svg width="169pt" height="198pt"
 viewBox="0.00 0.00 169.00 198.00" xmlns="http://www.w3.org/2000/svg" xmlns:xlink="http://www.w3.org/1999/xlink">
<g id="graph0" class="graph" transform="scale(1 1) rotate(0) translate(4 194)">
<title>Ponca::SmoothWeightKernel&lt; _Scalar &gt;</title>
<!-- Node1 -->
<g id="Node000001" class="node">
<title>Node1</title>
<g id="a_Node000001"><a xlink:title="Smooth WeightKernel defined in .">
<polygon fill="#999999" stroke="transparent" points="154.5,-105 6.5,-105 6.5,0 154.5,0 154.5,-105"/>
<text text-anchor="start" x="11.5" y="-92.5" font-family="Helvetica,sans-Serif" font-size="10.00">Ponca::SmoothWeightKernel</text>
<text text-anchor="start" x="51.5" y="-81.5" font-family="Helvetica,sans-Serif" font-size="10.00">&lt; _Scalar &gt;</text>
<text text-anchor="start" x="30" y="-66.5" font-family="Helvetica,sans-Serif" font-size="10.00">+</text>
<text text-anchor="start" x="62.5" y="-66.5" font-family="Helvetica,sans-Serif" font-size="10.00">isDValid</text>
<text text-anchor="start" x="30" y="-51.5" font-family="Helvetica,sans-Serif" font-size="10.00">+</text>
<text text-anchor="start" x="62.5" y="-51.5" font-family="Helvetica,sans-Serif" font-size="10.00">isDDValid</text>
<text text-anchor="start" x="30" y="-36.5" font-family="Helvetica,sans-Serif" font-size="10.00">+</text>
<text text-anchor="start" x="62.5" y="-36.5" font-family="Helvetica,sans-Serif" font-size="10.00">f()</text>
<text text-anchor="start" x="30" y="-21.5" font-family="Helvetica,sans-Serif" font-size="10.00">+</text>
<text text-anchor="start" x="62.5" y="-21.5" font-family="Helvetica,sans-Serif" font-size="10.00">df()</text>
<text text-anchor="start" x="30" y="-6.5" font-family="Helvetica,sans-Serif" font-size="10.00">+</text>
<text text-anchor="start" x="62.5" y="-6.5" font-family="Helvetica,sans-Serif" font-size="10.00">ddf()</text>
<polygon fill="#666666" stroke="#666666" points="6.5,-76.5 6.5,-76.5 154.5,-76.5 154.5,-76.5 6.5,-76.5"/>
<polygon fill="#666666" stroke="#666666" points="6.5,-46.5 6.5,-46.5 60.5,-46.5 60.5,-46.5 6.5,-46.5"/>
<polygon fill="#666666" stroke="#666666" points="60.5,-46.5 60.5,-46.5 154.5,-46.5 154.5,-46.5 60.5,-46.5"/>
<polygon fill="none" stroke="#666666" points="6.5,0 6.5,-105 154.5,-105 154.5,0 6.5,0"/>
</a>
</g>
</g>
<!-- Node2 -->
<g id="Node000002" class="node">
<title>Node2</title>
<g id="a_Node000002"><a xlink:title=" ">
<polygon fill="white" stroke="transparent" points="161,-190 0,-190 0,-141 161,-141 161,-190"/>
<text text-anchor="start" x="5.5" y="-177.5" font-family="Helvetica,sans-Serif" font-size="10.00">Concept::WeightKernelConcept</text>
<text text-anchor="start" x="79" y="-162.5" font-family="Helvetica,sans-Serif" font-size="10.00"> </text>
<text text-anchor="start" x="79" y="-147.5" font-family="Helvetica,sans-Serif" font-size="10.00"> </text>
<polygon fill="#bfbfbf" stroke="#bfbfbf" points="0.5,-172.5 0.5,-172.5 161.5,-172.5 161.5,-172.5 0.5,-172.5"/>
<polygon fill="#bfbfbf" stroke="#bfbfbf" points="0.5,-157.5 0.5,-157.5 161.5,-157.5 161.5,-157.5 0.5,-157.5"/>
<polygon fill="none" stroke="#bfbfbf" points="0,-141 0,-190 161,-190 161,-141 0,-141"/>
</a>
</g>
</g>
<!-- Node2&#45;&gt;Node1 -->
<g id="edge1_Node000001_Node000002" class="edge">
<title>Node2&#45;&gt;Node1</title>
<g id="a_edge1_Node000001_Node000002"><a xlink:title=" ">
<path fill="none" stroke="#63b8ff" d="M80.5,-130.85C80.5,-122.79 80.5,-114 80.5,-105.32"/>
<polygon fill="none" stroke="#63b8ff" points="77,-130.96 80.5,-140.96 84,-130.96 77,-130.96"/>
</a>
</g>
</g>
</g>
</svg>
