<?xml version="1.0" encoding="UTF-8" standalone="no"?>
<!DOCTYPE svg PUBLIC "-//W3C//DTD SVG 1.1//EN"
 "http://www.w3.org/Graphics/SVG/1.1/DTD/svg11.dtd">
<!-- Generated by graphviz version 2.43.0 (0)
 -->
<!-- Title: Ponca::LimitedPriorityQueue&lt; T, N, CompareT &gt; Pages: 1 -->
<svg width="223pt" height="628pt"
 viewBox="0.00 0.00 223.00 628.00" xmlns="http://www.w3.org/2000/svg" xmlns:xlink="http://www.w3.org/1999/xlink">
<g id="graph0" class="graph" transform="scale(1 1) rotate(0) translate(4 624)">
<title>Ponca::LimitedPriorityQueue&lt; T, N, CompareT &gt;</title>
<!-- Node1 -->
<g id="Node000001" class="node">
<title>Node1</title>
<g id="a_Node000001"><a xlink:title="The LimitedPriorityQueue class is similar to std::priority_queue but has a limited capacity and handl...">
<polygon fill="#999999" stroke="transparent" points="165.5,-620 16.5,-620 16.5,-350 165.5,-350 165.5,-620"/>
<text text-anchor="start" x="22" y="-608" font-family="Helvetica,sans-Serif" font-size="10.00">Ponca::LimitedPriorityQueue</text>
<text text-anchor="start" x="42" y="-597" font-family="Helvetica,sans-Serif" font-size="10.00">&lt; T, N, CompareT &gt;</text>
<text text-anchor="start" x="23" y="-582" font-family="Helvetica,sans-Serif" font-size="10.00">#</text>
<text text-anchor="start" x="38" y="-582" font-family="Helvetica,sans-Serif" font-size="10.00">m_data</text>
<text text-anchor="start" x="23" y="-567" font-family="Helvetica,sans-Serif" font-size="10.00">#</text>
<text text-anchor="start" x="38" y="-567" font-family="Helvetica,sans-Serif" font-size="10.00">m_comp</text>
<text text-anchor="start" x="23" y="-552" font-family="Helvetica,sans-Serif" font-size="10.00">#</text>
<text text-anchor="start" x="38" y="-552" font-family="Helvetica,sans-Serif" font-size="10.00">m_size</text>
<text text-anchor="start" x="23" y="-537" font-family="Helvetica,sans-Serif" font-size="10.00">#</text>
<text text-anchor="start" x="38" y="-537" font-family="Helvetica,sans-Serif" font-size="10.00">m_capacity</text>
<text text-anchor="start" x="23" y="-522" font-family="Helvetica,sans-Serif" font-size="10.00">+</text>
<text text-anchor="start" x="38" y="-522" font-family="Helvetica,sans-Serif" font-size="10.00">LimitedPriorityQueue()</text>
<text text-anchor="start" x="23" y="-507" font-family="Helvetica,sans-Serif" font-size="10.00">+</text>
<text text-anchor="start" x="38" y="-507" font-family="Helvetica,sans-Serif" font-size="10.00">LimitedPriorityQueue()</text>
<text text-anchor="start" x="23" y="-492" font-family="Helvetica,sans-Serif" font-size="10.00">+</text>
<text text-anchor="start" x="38" y="-492" font-family="Helvetica,sans-Serif" font-size="10.00">LimitedPriorityQueue()</text>
<text text-anchor="start" x="23" y="-477" font-family="Helvetica,sans-Serif" font-size="10.00">+</text>
<text text-anchor="start" x="38" y="-477" font-family="Helvetica,sans-Serif" font-size="10.00">LimitedPriorityQueue()</text>
<text text-anchor="start" x="23" y="-462" font-family="Helvetica,sans-Serif" font-size="10.00">+</text>
<text text-anchor="start" x="38" y="-462" font-family="Helvetica,sans-Serif" font-size="10.00">~LimitedPriorityQueue()</text>
<text text-anchor="start" x="23" y="-447" font-family="Helvetica,sans-Serif" font-size="10.00">+</text>
<text text-anchor="start" x="38" y="-447" font-family="Helvetica,sans-Serif" font-size="10.00">operator=()</text>
<text text-anchor="start" x="23" y="-432" font-family="Helvetica,sans-Serif" font-size="10.00">+</text>
<text text-anchor="start" x="38" y="-432" font-family="Helvetica,sans-Serif" font-size="10.00">begin()</text>
<text text-anchor="start" x="23" y="-417" font-family="Helvetica,sans-Serif" font-size="10.00">+</text>
<text text-anchor="start" x="38" y="-417" font-family="Helvetica,sans-Serif" font-size="10.00">begin()</text>
<text text-anchor="start" x="23" y="-402" font-family="Helvetica,sans-Serif" font-size="10.00">+</text>
<text text-anchor="start" x="38" y="-402" font-family="Helvetica,sans-Serif" font-size="10.00">cbegin()</text>
<text text-anchor="start" x="23" y="-387" font-family="Helvetica,sans-Serif" font-size="10.00">+</text>
<text text-anchor="start" x="38" y="-387" font-family="Helvetica,sans-Serif" font-size="10.00">end()</text>
<text text-anchor="start" x="38" y="-372" font-family="Helvetica,sans-Serif" font-size="10.00">and 16 more...</text>
<text text-anchor="start" x="23" y="-357" font-family="Helvetica,sans-Serif" font-size="10.00">#</text>
<text text-anchor="start" x="38" y="-357" font-family="Helvetica,sans-Serif" font-size="10.00">pushImpl()</text>
<polygon fill="#666666" stroke="#666666" points="17,-592 17,-592 166,-592 166,-592 17,-592"/>
<polygon fill="#666666" stroke="#666666" points="17,-532 17,-532 36,-532 36,-532 17,-532"/>
<polygon fill="#666666" stroke="#666666" points="36,-532 36,-532 166,-532 166,-532 36,-532"/>
<polygon fill="none" stroke="#666666" points="16.5,-350 16.5,-620 165.5,-620 165.5,-350 16.5,-350"/>
</a>
</g>
</g>
<!-- Node2 -->
<g id="Node000002" class="node">
<title>Node2</title>
<g id="a_Node000002"><a xlink:href="classPonca_1_1LimitedPriorityQueue.html" target="_top" xlink:title=" ">
<polygon fill="white" stroke="transparent" points="182,-281 0,-281 0,0 182,0 182,-281"/>
<text text-anchor="start" x="5" y="-268.5" font-family="Helvetica,sans-Serif" font-size="10.00">Ponca::LimitedPriorityQueue</text>
<text text-anchor="start" x="5" y="-257.5" font-family="Helvetica,sans-Serif" font-size="10.00">&lt; IndexSquaredDistance&lt;</text>
<text text-anchor="start" x="5" y="-246.5" font-family="Helvetica,sans-Serif" font-size="10.00"> Index, Scalar &gt;, MAX_KNN_SIZE &gt;</text>
<text text-anchor="start" x="14" y="-231.5" font-family="Helvetica,sans-Serif" font-size="10.00">#</text>
<text text-anchor="start" x="37" y="-231.5" font-family="Helvetica,sans-Serif" font-size="10.00">m_data</text>
<text text-anchor="start" x="14" y="-216.5" font-family="Helvetica,sans-Serif" font-size="10.00">#</text>
<text text-anchor="start" x="37" y="-216.5" font-family="Helvetica,sans-Serif" font-size="10.00">m_comp</text>
<text text-anchor="start" x="14" y="-201.5" font-family="Helvetica,sans-Serif" font-size="10.00">#</text>
<text text-anchor="start" x="37" y="-201.5" font-family="Helvetica,sans-Serif" font-size="10.00">m_size</text>
<text text-anchor="start" x="14" y="-186.5" font-family="Helvetica,sans-Serif" font-size="10.00">#</text>
<text text-anchor="start" x="37" y="-186.5" font-family="Helvetica,sans-Serif" font-size="10.00">m_capacity</text>
<text text-anchor="start" x="14" y="-171.5" font-family="Helvetica,sans-Serif" font-size="10.00">+</text>
<text text-anchor="start" x="37" y="-171.5" font-family="Helvetica,sans-Serif" font-size="10.00">LimitedPriorityQueue()</text>
<text text-anchor="start" x="14" y="-156.5" font-family="Helvetica,sans-Serif" font-size="10.00">+</text>
<text text-anchor="start" x="37" y="-156.5" font-family="Helvetica,sans-Serif" font-size="10.00">LimitedPriorityQueue()</text>
<text text-anchor="start" x="14" y="-141.5" font-family="Helvetica,sans-Serif" font-size="10.00">+</text>
<text text-anchor="start" x="37" y="-141.5" font-family="Helvetica,sans-Serif" font-size="10.00">LimitedPriorityQueue()</text>
<text text-anchor="start" x="14" y="-126.5" font-family="Helvetica,sans-Serif" font-size="10.00">+</text>
<text text-anchor="start" x="37" y="-126.5" font-family="Helvetica,sans-Serif" font-size="10.00">LimitedPriorityQueue()</text>
<text text-anchor="start" x="14" y="-111.5" font-family="Helvetica,sans-Serif" font-size="10.00">+</text>
<text text-anchor="start" x="37" y="-111.5" font-family="Helvetica,sans-Serif" font-size="10.00">~LimitedPriorityQueue()</text>
<text text-anchor="start" x="14" y="-96.5" font-family="Helvetica,sans-Serif" font-size="10.00">+</text>
<text text-anchor="start" x="37" y="-96.5" font-family="Helvetica,sans-Serif" font-size="10.00">operator=()</text>
<text text-anchor="start" x="14" y="-81.5" font-family="Helvetica,sans-Serif" font-size="10.00">+</text>
<text text-anchor="start" x="37" y="-81.5" font-family="Helvetica,sans-Serif" font-size="10.00">begin()</text>
<text text-anchor="start" x="14" y="-66.5" font-family="Helvetica,sans-Serif" font-size="10.00">+</text>
<text text-anchor="start" x="37" y="-66.5" font-family="Helvetica,sans-Serif" font-size="10.00">begin()</text>
<text text-anchor="start" x="14" y="-51.5" font-family="Helvetica,sans-Serif" font-size="10.00">+</text>
<text text-anchor="start" x="37" y="-51.5" font-family="Helvetica,sans-Serif" font-size="10.00">cbegin()</text>
<text text-anchor="start" x="14" y="-36.5" font-family="Helvetica,sans-Serif" font-size="10.00">+</text>
<text text-anchor="start" x="37" y="-36.5" font-family="Helvetica,sans-Serif" font-size="10.00">end()</text>
<text text-anchor="start" x="37" y="-21.5" font-family="Helvetica,sans-Serif" font-size="10.00">and 16 more...</text>
<text text-anchor="start" x="14" y="-6.5" font-family="Helvetica,sans-Serif" font-size="10.00">#</text>
<text text-anchor="start" x="37" y="-6.5" font-family="Helvetica,sans-Serif" font-size="10.00">pushImpl()</text>
<polygon fill="#666666" stroke="#666666" points="0,-241.5 0,-241.5 182,-241.5 182,-241.5 0,-241.5"/>
<polygon fill="#666666" stroke="#666666" points="0,-181.5 0,-181.5 35,-181.5 35,-181.5 0,-181.5"/>
<polygon fill="#666666" stroke="#666666" points="35,-181.5 35,-181.5 182,-181.5 182,-181.5 35,-181.5"/>
<polygon fill="none" stroke="#666666" points="0,0 0,-281 182,-281 182,0 0,0"/>
</a>
</g>
</g>
<!-- Node1&#45;&gt;Node2 -->
<g id="edge1_Node000001_Node000002" class="edge">
<title>Node1&#45;&gt;Node2</title>
<g id="a_edge1_Node000001_Node000002"><a xlink:title=" ">
<path fill="none" stroke="orange" d="M91,-339.55C91,-320.2 91,-300.39 91,-281.13"/>
<polygon fill="orange" stroke="orange" points="87.5,-339.62 91,-349.62 94.5,-339.62 87.5,-339.62"/>
</a>
</g>
<text text-anchor="start" x="91" y="-324" font-family="Helvetica,sans-Serif" font-size="10.00" fill="grey"> &lt; IndexSquaredDistance</text>
<text text-anchor="start" x="91" y="-313" font-family="Helvetica,sans-Serif" font-size="10.00" fill="grey">&lt; Index, Scalar &gt;, MAX</text>
<text text-anchor="middle" x="153" y="-302" font-family="Helvetica,sans-Serif" font-size="10.00" fill="grey">_KNN_SIZE &gt;</text>
</g>
</g>
</svg>
