<?xml version="1.0" encoding="UTF-8" standalone="no"?>
<!DOCTYPE svg PUBLIC "-//W3C//DTD SVG 1.1//EN"
 "http://www.w3.org/Graphics/SVG/1.1/DTD/svg11.dtd">
<!-- Generated by graphviz version 2.43.0 (0)
 -->
<!-- Title: Ponca::KdTreeNearestPointQuery&lt; DataPoint &gt; Pages: 1 -->
<!--zoomable 1093 -->
<svg id="main" version="1.1" xmlns="http://www.w3.org/2000/svg" xmlns:xlink="http://www.w3.org/1999/xlink" xml:space="preserve" onload="init(evt)">
<style type="text/css"><![CDATA[
.edge:hover path { stroke: red; }
.edge:hover polygon { stroke: red; fill: red; }
]]></style>
<script type="text/javascript"><![CDATA[
var edges = document.getElementsByTagName('g');
if (edges && edges.length) {
  for (var i=0;i<edges.length;i++) {
    if (edges[i].id.substr(0,4)=='edge') {
      edges[i].setAttribute('class','edge');
    }
  }
}
]]></script>
        <defs>
                <circle id="rim" cx="0" cy="0" r="7"/>
                <circle id="rim2" cx="0" cy="0" r="3.5"/>
                <g id="zoomPlus">
                        <use xlink:href="#rim" fill="#404040">
                                <set attributeName="fill" to="#808080" begin="zoomplus.mouseover" end="zoomplus.mouseout"/>
                        </use>
                        <path d="M-4,0h8M0,-4v8" fill="none" stroke="white" stroke-width="1.5" pointer-events="none"/>
                </g>
                <g id="zoomMin">
                        <use xlink:href="#rim" fill="#404040">
                                <set attributeName="fill" to="#808080" begin="zoomminus.mouseover" end="zoomminus.mouseout"/>
                        </use>
                        <path d="M-4,0h8" fill="none" stroke="white" stroke-width="1.5" pointer-events="none"/>
                </g>
                <g id="dirArrow">
                        <path fill="none" stroke="white" stroke-width="1.5" d="M0,-3.0v7 M-2.5,-0.5L0,-3.0L2.5,-0.5"/>
                </g>
               <g id="resetDef">
                       <use xlink:href="#rim2" fill="#404040">
                               <set attributeName="fill" to="#808080" begin="reset.mouseover" end="reset.mouseout"/>
                       </use>
               </g>
        </defs>

<script type="text/javascript">
var viewWidth = 995;
var viewHeight = 1093;
var sectionId = 'dynsection-1';
</script>
<script xlink:href="svgpan.js"/>
<svg id="graph" class="graph">
<g id="viewport">
<title>Ponca::KdTreeNearestPointQuery&lt; DataPoint &gt;</title>
<polygon fill="white" stroke="transparent" points="-4,4 -4,-1089 991,-1089 991,4 -4,4"/>
<!-- Node1 -->
<g id="node1" class="node">
<title>Node1</title>
<g id="a_node1"><a xlink:title=" ">
<polygon fill="#bfbfbf" stroke="black" points="424.5,-0.5 424.5,-101.5 585.5,-101.5 585.5,-0.5 424.5,-0.5"/>
<text text-anchor="start" x="432.5" y="-89.5" font-family="Helvetica,sans-Serif" font-size="10.00">Ponca::KdTreeNearestPoint</text>
<text text-anchor="middle" x="505" y="-78.5" font-family="Helvetica,sans-Serif" font-size="10.00">Query&lt; DataPoint &gt;</text>
<polyline fill="none" stroke="black" points="424.5,-71.5 585.5,-71.5 "/>
<text text-anchor="middle" x="505" y="-59.5" font-family="Helvetica,sans-Serif" font-size="10.00"> </text>
<polyline fill="none" stroke="black" points="424.5,-52.5 585.5,-52.5 "/>
<text text-anchor="start" x="432.5" y="-40.5" font-family="Helvetica,sans-Serif" font-size="10.00">+ KdTreeNearestPointQuery()</text>
<text text-anchor="start" x="432.5" y="-29.5" font-family="Helvetica,sans-Serif" font-size="10.00">+ begin()</text>
<text text-anchor="start" x="432.5" y="-18.5" font-family="Helvetica,sans-Serif" font-size="10.00">+ end()</text>
<text text-anchor="start" x="432.5" y="-7.5" font-family="Helvetica,sans-Serif" font-size="10.00"># search()</text>
</a>
</g>
</g>
<!-- Node2 -->
<g id="node2" class="node">
<title>Node2</title>
<g id="a_node2"><a xlink:href="structPonca_1_1NearestPointQuery.html" target="_top" xlink:title="Base Query class combining QueryInputIsPosition and QueryOutputIsNearest.">
<polygon fill="white" stroke="black" points="360,-145 360,-213 504,-213 504,-145 360,-145"/>
<text text-anchor="start" x="368" y="-201" font-family="Helvetica,sans-Serif" font-size="10.00">Ponca::NearestPointQuery</text>
<text text-anchor="middle" x="432" y="-190" font-family="Helvetica,sans-Serif" font-size="10.00">&lt; DataPoint &gt;</text>
<polyline fill="none" stroke="black" points="360,-183 504,-183 "/>
<text text-anchor="middle" x="432" y="-171" font-family="Helvetica,sans-Serif" font-size="10.00"> </text>
<polyline fill="none" stroke="black" points="360,-164 504,-164 "/>
<text text-anchor="middle" x="432" y="-152" font-family="Helvetica,sans-Serif" font-size="10.00"> </text>
</a>
</g>
</g>
<!-- Node2&#45;&gt;Node1 -->
<g id="edge1" class="edge">
<title>Node2&#45;&gt;Node1</title>
<path fill="none" stroke="midnightblue" d="M456.34,-135.99C462.66,-125.09 469.52,-113.24 476.05,-101.97"/>
<polygon fill="none" stroke="midnightblue" points="453.16,-134.49 451.18,-144.89 459.22,-138 453.16,-134.49"/>
</g>
<!-- Node3 -->
<g id="node3" class="node">
<title>Node3</title>
<g id="a_node3"><a xlink:href="structPonca_1_1Query.html" target="_top" xlink:title=" ">
<polygon fill="white" stroke="black" points="341,-305 341,-406 487,-406 487,-305 341,-305"/>
<text text-anchor="start" x="349" y="-394" font-family="Helvetica,sans-Serif" font-size="10.00">Ponca::Query&lt; QueryInput</text>
<text text-anchor="start" x="349" y="-383" font-family="Helvetica,sans-Serif" font-size="10.00">IsPosition&lt; DataPoint</text>
<text text-anchor="start" x="349" y="-372" font-family="Helvetica,sans-Serif" font-size="10.00"> &gt;, QueryOutputIsNearest</text>
<text text-anchor="middle" x="414" y="-361" font-family="Helvetica,sans-Serif" font-size="10.00">&lt; DataPoint::Scalar &gt; &gt;</text>
<polyline fill="none" stroke="black" points="341,-354 487,-354 "/>
<text text-anchor="middle" x="414" y="-342" font-family="Helvetica,sans-Serif" font-size="10.00"> </text>
<polyline fill="none" stroke="black" points="341,-335 487,-335 "/>
<text text-anchor="start" x="349" y="-323" font-family="Helvetica,sans-Serif" font-size="10.00">+ Query()</text>
<text text-anchor="start" x="349" y="-312" font-family="Helvetica,sans-Serif" font-size="10.00">+ Query()</text>
</a>
</g>
</g>
<!-- Node3&#45;&gt;Node2 -->
<g id="edge2" class="edge">
<title>Node3&#45;&gt;Node2</title>
<path fill="none" stroke="midnightblue" d="M420.17,-294.72C422.98,-267.4 426.21,-236.09 428.59,-213.09"/>
<polygon fill="none" stroke="midnightblue" points="416.65,-294.66 419.11,-304.96 423.62,-295.37 416.65,-294.66"/>
</g>
<!-- Node4 -->
<g id="node4" class="node">
<title>Node4</title>
<g id="a_node4"><a xlink:href="structPonca_1_1QueryInputIsPosition.html" target="_top" xlink:title="Base class for queries storing points.">
<polygon fill="white" stroke="black" points="72.5,-553 72.5,-621 225.5,-621 225.5,-553 72.5,-553"/>
<text text-anchor="start" x="80.5" y="-609" font-family="Helvetica,sans-Serif" font-size="10.00">Ponca::QueryInputIsPosition</text>
<text text-anchor="middle" x="149" y="-598" font-family="Helvetica,sans-Serif" font-size="10.00">&lt; DataPoint &gt;</text>
<polyline fill="none" stroke="black" points="72.5,-591 225.5,-591 "/>
<text text-anchor="middle" x="149" y="-579" font-family="Helvetica,sans-Serif" font-size="10.00"> </text>
<polyline fill="none" stroke="black" points="72.5,-572 225.5,-572 "/>
<text text-anchor="start" x="80.5" y="-560" font-family="Helvetica,sans-Serif" font-size="10.00">+ QueryInputIsPosition()</text>
</a>
</g>
</g>
<!-- Node4&#45;&gt;Node3 -->
<g id="edge3" class="edge">
<title>Node4&#45;&gt;Node3</title>
<path fill="none" stroke="midnightblue" d="M195.07,-546.1C239.97,-507.22 308.34,-448.01 356.71,-406.11"/>
<polygon fill="none" stroke="midnightblue" points="192.52,-543.68 187.25,-552.87 197.1,-548.97 192.52,-543.68"/>
</g>
<!-- Node5 -->
<g id="node5" class="node">
<title>Node5</title>
<g id="a_node5"><a xlink:href="structPonca_1_1QueryInput.html" target="_top" xlink:title=" ">
<polygon fill="white" stroke="black" points="33,-718.5 33,-797.5 171,-797.5 171,-718.5 33,-718.5"/>
<text text-anchor="start" x="41" y="-785.5" font-family="Helvetica,sans-Serif" font-size="10.00">Ponca::QueryInput&lt;</text>
<text text-anchor="middle" x="102" y="-774.5" font-family="Helvetica,sans-Serif" font-size="10.00"> DataPoint::VectorType &gt;</text>
<polyline fill="none" stroke="black" points="33,-767.5 171,-767.5 "/>
<text text-anchor="middle" x="102" y="-755.5" font-family="Helvetica,sans-Serif" font-size="10.00"> </text>
<polyline fill="none" stroke="black" points="33,-748.5 171,-748.5 "/>
<text text-anchor="start" x="41" y="-736.5" font-family="Helvetica,sans-Serif" font-size="10.00">+ QueryInput()</text>
<text text-anchor="start" x="41" y="-725.5" font-family="Helvetica,sans-Serif" font-size="10.00">+ input()</text>
</a>
</g>
</g>
<!-- Node5&#45;&gt;Node4 -->
<g id="edge4" class="edge">
<title>Node5&#45;&gt;Node4</title>
<path fill="none" stroke="midnightblue" d="M115.56,-708.26C123.32,-680.32 132.87,-645.99 139.77,-621.18"/>
<polygon fill="none" stroke="midnightblue" points="112.09,-707.66 112.78,-718.23 118.83,-709.53 112.09,-707.66"/>
</g>
<!-- Node6 -->
<g id="node6" class="node">
<title>Node6</title>
<g id="a_node6"><a xlink:href="structPonca_1_1QueryInputBase.html" target="_top" xlink:title="Base class for queries input type.">
<polygon fill="white" stroke="black" points="0,-1016.5 0,-1073.5 130,-1073.5 130,-1016.5 0,-1016.5"/>
<text text-anchor="middle" x="65" y="-1061.5" font-family="Helvetica,sans-Serif" font-size="10.00">Ponca::QueryInputBase</text>
<polyline fill="none" stroke="black" points="0,-1054.5 130,-1054.5 "/>
<text text-anchor="middle" x="65" y="-1042.5" font-family="Helvetica,sans-Serif" font-size="10.00"> </text>
<polyline fill="none" stroke="black" points="0,-1035.5 130,-1035.5 "/>
<text text-anchor="middle" x="65" y="-1023.5" font-family="Helvetica,sans-Serif" font-size="10.00"> </text>
</a>
</g>
</g>
<!-- Node6&#45;&gt;Node5 -->
<g id="edge5" class="edge">
<title>Node6&#45;&gt;Node5</title>
<path fill="none" stroke="midnightblue" d="M60.18,-1006.37C56.54,-970.31 53.49,-914.5 62,-867 66.27,-843.19 75.44,-817.76 83.92,-797.56"/>
<polygon fill="none" stroke="midnightblue" points="56.72,-1006.88 61.27,-1016.45 63.68,-1006.13 56.72,-1006.88"/>
</g>
<!-- Node7 -->
<g id="node7" class="node">
<title>Node7</title>
<g id="a_node7"><a xlink:href="structPonca_1_1QueryInput.html" target="_top" xlink:title="Base class for typed queries input type.">
<polygon fill="white" stroke="black" points="71,-867.5 71,-946.5 185,-946.5 185,-867.5 71,-867.5"/>
<text text-anchor="start" x="79" y="-934.5" font-family="Helvetica,sans-Serif" font-size="10.00">Ponca::QueryInput&lt;</text>
<text text-anchor="middle" x="128" y="-923.5" font-family="Helvetica,sans-Serif" font-size="10.00"> InputType_ &gt;</text>
<polyline fill="none" stroke="black" points="71,-916.5 185,-916.5 "/>
<text text-anchor="middle" x="128" y="-904.5" font-family="Helvetica,sans-Serif" font-size="10.00"> </text>
<polyline fill="none" stroke="black" points="71,-897.5 185,-897.5 "/>
<text text-anchor="start" x="79" y="-885.5" font-family="Helvetica,sans-Serif" font-size="10.00">+ QueryInput()</text>
<text text-anchor="start" x="79" y="-874.5" font-family="Helvetica,sans-Serif" font-size="10.00">+ input()</text>
</a>
</g>
</g>
<!-- Node6&#45;&gt;Node7 -->
<g id="edge7" class="edge">
<title>Node6&#45;&gt;Node7</title>
<path fill="none" stroke="midnightblue" d="M81.98,-1007.34C90.7,-988.53 101.3,-965.63 110.14,-946.56"/>
<polygon fill="none" stroke="midnightblue" points="78.78,-1005.93 77.75,-1016.48 85.13,-1008.88 78.78,-1005.93"/>
</g>
<!-- Node7&#45;&gt;Node5 -->
<g id="edge6" class="edge">
<title>Node7&#45;&gt;Node5</title>
<path fill="none" stroke="orange" d="M105.36,-857.96C104.44,-854.97 103.64,-851.97 103,-849 99.45,-832.5 98.71,-813.91 99.05,-797.92"/>
<polygon fill="orange" stroke="orange" points="102.06,-859.14 108.64,-867.45 108.68,-856.85 102.06,-859.14"/>
<text text-anchor="middle" x="169.5" y="-835.5" font-family="Helvetica,sans-Serif" font-size="10.00"> &lt; DataPoint::VectorType &gt;</text>
</g>
<!-- Node8 -->
<g id="node8" class="node">
<title>Node8</title>
<g id="a_node8"><a xlink:href="structPonca_1_1QueryOutputIsNearest.html" target="_top" xlink:title=" ">
<polygon fill="white" stroke="black" points="257.5,-536.5 257.5,-637.5 418.5,-637.5 418.5,-536.5 257.5,-536.5"/>
<text text-anchor="start" x="265.5" y="-625.5" font-family="Helvetica,sans-Serif" font-size="10.00">Ponca::QueryOutputIsNearest</text>
<text text-anchor="middle" x="338" y="-614.5" font-family="Helvetica,sans-Serif" font-size="10.00">&lt; DataPoint::Scalar &gt;</text>
<polyline fill="none" stroke="black" points="257.5,-607.5 418.5,-607.5 "/>
<text text-anchor="start" x="265.5" y="-595.5" font-family="Helvetica,sans-Serif" font-size="10.00"># m_nearest</text>
<text text-anchor="start" x="265.5" y="-584.5" font-family="Helvetica,sans-Serif" font-size="10.00"># m_squared_distance</text>
<polyline fill="none" stroke="black" points="257.5,-577.5 418.5,-577.5 "/>
<text text-anchor="start" x="265.5" y="-565.5" font-family="Helvetica,sans-Serif" font-size="10.00">+ QueryOutputIsNearest()</text>
<text text-anchor="start" x="265.5" y="-554.5" font-family="Helvetica,sans-Serif" font-size="10.00">+ get()</text>
<text text-anchor="start" x="265.5" y="-543.5" font-family="Helvetica,sans-Serif" font-size="10.00"># reset()</text>
</a>
</g>
</g>
<!-- Node8&#45;&gt;Node3 -->
<g id="edge8" class="edge">
<title>Node8&#45;&gt;Node3</title>
<path fill="none" stroke="midnightblue" d="M357.63,-526.74C369.99,-489.39 385.78,-441.71 397.5,-406.32"/>
<polygon fill="none" stroke="midnightblue" points="354.22,-525.89 354.4,-536.48 360.86,-528.09 354.22,-525.89"/>
</g>
<!-- Node9 -->
<g id="node9" class="node">
<title>Node9</title>
<g id="a_node9"><a xlink:href="structPonca_1_1QueryOutputBase.html" target="_top" xlink:title="Base class for queries output type.">
<polygon fill="white" stroke="black" points="226,-878.5 226,-935.5 364,-935.5 364,-878.5 226,-878.5"/>
<text text-anchor="middle" x="295" y="-923.5" font-family="Helvetica,sans-Serif" font-size="10.00">Ponca::QueryOutputBase</text>
<polyline fill="none" stroke="black" points="226,-916.5 364,-916.5 "/>
<text text-anchor="middle" x="295" y="-904.5" font-family="Helvetica,sans-Serif" font-size="10.00"> </text>
<polyline fill="none" stroke="black" points="226,-897.5 364,-897.5 "/>
<text text-anchor="middle" x="295" y="-885.5" font-family="Helvetica,sans-Serif" font-size="10.00"> </text>
</a>
</g>
</g>
<!-- Node9&#45;&gt;Node8 -->
<g id="edge9" class="edge">
<title>Node9&#45;&gt;Node8</title>
<path fill="none" stroke="midnightblue" d="M281.51,-868.48C268.94,-828.03 254.19,-762.06 269,-707 275.57,-682.55 288.53,-657.95 301.46,-637.51"/>
<polygon fill="none" stroke="midnightblue" points="278.24,-869.74 284.63,-878.19 284.9,-867.6 278.24,-869.74"/>
</g>
<!-- Node10 -->
<g id="node10" class="node">
<title>Node10</title>
<g id="a_node10"><a xlink:href="structPonca_1_1QueryOutputIsNearest.html" target="_top" xlink:title="Base class for nearest queries.">
<polygon fill="white" stroke="black" points="278.5,-707.5 278.5,-808.5 439.5,-808.5 439.5,-707.5 278.5,-707.5"/>
<text text-anchor="start" x="286.5" y="-796.5" font-family="Helvetica,sans-Serif" font-size="10.00">Ponca::QueryOutputIsNearest</text>
<text text-anchor="middle" x="359" y="-785.5" font-family="Helvetica,sans-Serif" font-size="10.00">&lt; Scalar &gt;</text>
<polyline fill="none" stroke="black" points="278.5,-778.5 439.5,-778.5 "/>
<text text-anchor="start" x="286.5" y="-766.5" font-family="Helvetica,sans-Serif" font-size="10.00"># m_nearest</text>
<text text-anchor="start" x="286.5" y="-755.5" font-family="Helvetica,sans-Serif" font-size="10.00"># m_squared_distance</text>
<polyline fill="none" stroke="black" points="278.5,-748.5 439.5,-748.5 "/>
<text text-anchor="start" x="286.5" y="-736.5" font-family="Helvetica,sans-Serif" font-size="10.00">+ QueryOutputIsNearest()</text>
<text text-anchor="start" x="286.5" y="-725.5" font-family="Helvetica,sans-Serif" font-size="10.00">+ get()</text>
<text text-anchor="start" x="286.5" y="-714.5" font-family="Helvetica,sans-Serif" font-size="10.00"># reset()</text>
</a>
</g>
</g>
<!-- Node9&#45;&gt;Node10 -->
<g id="edge11" class="edge">
<title>Node9&#45;&gt;Node10</title>
<path fill="none" stroke="midnightblue" d="M311.04,-869.17C319.02,-850.82 328.8,-828.37 337.43,-808.54"/>
<polygon fill="none" stroke="midnightblue" points="307.82,-867.78 307.04,-878.35 314.24,-870.58 307.82,-867.78"/>
</g>
<!-- Node10&#45;&gt;Node8 -->
<g id="edge10" class="edge">
<title>Node10&#45;&gt;Node8</title>
<path fill="none" stroke="orange" d="M351.57,-697.23C349.15,-677.76 346.5,-656.38 344.18,-637.73"/>
<polygon fill="orange" stroke="orange" points="348.11,-697.72 352.81,-707.21 355.05,-696.85 348.11,-697.72"/>
<text text-anchor="middle" x="406" y="-681" font-family="Helvetica,sans-Serif" font-size="10.00"> &lt; DataPoint::Scalar &gt;</text>
</g>
<!-- Node11 -->
<g id="node11" class="node">
<title>Node11</title>
<g id="a_node11"><a xlink:href="structPonca_1_1Query.html" target="_top" xlink:title=" ">
<polygon fill="white" stroke="black" points="436.5,-547.5 436.5,-626.5 553.5,-626.5 553.5,-547.5 436.5,-547.5"/>
<text text-anchor="start" x="444.5" y="-614.5" font-family="Helvetica,sans-Serif" font-size="10.00">Ponca::Query&lt; Input</text>
<text text-anchor="middle" x="495" y="-603.5" font-family="Helvetica,sans-Serif" font-size="10.00">_, Output_ &gt;</text>
<polyline fill="none" stroke="black" points="436.5,-596.5 553.5,-596.5 "/>
<text text-anchor="middle" x="495" y="-584.5" font-family="Helvetica,sans-Serif" font-size="10.00"> </text>
<polyline fill="none" stroke="black" points="436.5,-577.5 553.5,-577.5 "/>
<text text-anchor="start" x="444.5" y="-565.5" font-family="Helvetica,sans-Serif" font-size="10.00">+ Query()</text>
<text text-anchor="start" x="444.5" y="-554.5" font-family="Helvetica,sans-Serif" font-size="10.00">+ Query()</text>
</a>
</g>
</g>
<!-- Node11&#45;&gt;Node3 -->
<g id="edge12" class="edge">
<title>Node11&#45;&gt;Node3</title>
<path fill="none" stroke="orange" d="M478.01,-537.86C464.37,-499.23 445.3,-445.19 431.53,-406.17"/>
<polygon fill="orange" stroke="orange" points="474.72,-539.06 481.35,-547.33 481.32,-536.73 474.72,-539.06"/>
<text text-anchor="start" x="462" y="-488" font-family="Helvetica,sans-Serif" font-size="10.00"> &lt; QueryInputIsPosition</text>
<text text-anchor="start" x="462" y="-477" font-family="Helvetica,sans-Serif" font-size="10.00">&lt; DataPoint &gt;, QueryOutputIs</text>
<text text-anchor="middle" x="540.5" y="-466" font-family="Helvetica,sans-Serif" font-size="10.00">Nearest&lt; DataPoint::Scalar &gt; &gt;</text>
</g>
<!-- Node12 -->
<g id="node12" class="node">
<title>Node12</title>
<g id="a_node12"><a xlink:title=" ">
<polygon fill="white" stroke="#bfbfbf" points="457.5,-729.5 457.5,-786.5 504.5,-786.5 504.5,-729.5 457.5,-729.5"/>
<text text-anchor="middle" x="481" y="-774.5" font-family="Helvetica,sans-Serif" font-size="10.00">Input_</text>
<polyline fill="none" stroke="#bfbfbf" points="457.5,-767.5 504.5,-767.5 "/>
<text text-anchor="middle" x="481" y="-755.5" font-family="Helvetica,sans-Serif" font-size="10.00"> </text>
<polyline fill="none" stroke="#bfbfbf" points="457.5,-748.5 504.5,-748.5 "/>
<text text-anchor="middle" x="481" y="-736.5" font-family="Helvetica,sans-Serif" font-size="10.00"> </text>
</a>
</g>
</g>
<!-- Node12&#45;&gt;Node11 -->
<g id="edge13" class="edge">
<title>Node12&#45;&gt;Node11</title>
<path fill="none" stroke="midnightblue" d="M484.11,-719.41C486.4,-691.79 489.5,-654.4 491.81,-626.56"/>
<polygon fill="none" stroke="midnightblue" points="480.62,-719.22 483.28,-729.47 487.59,-719.79 480.62,-719.22"/>
</g>
<!-- Node13 -->
<g id="node13" class="node">
<title>Node13</title>
<g id="a_node13"><a xlink:title=" ">
<polygon fill="white" stroke="#bfbfbf" points="522.5,-729.5 522.5,-786.5 577.5,-786.5 577.5,-729.5 522.5,-729.5"/>
<text text-anchor="middle" x="550" y="-774.5" font-family="Helvetica,sans-Serif" font-size="10.00">Output_</text>
<polyline fill="none" stroke="#bfbfbf" points="522.5,-767.5 577.5,-767.5 "/>
<text text-anchor="middle" x="550" y="-755.5" font-family="Helvetica,sans-Serif" font-size="10.00"> </text>
<polyline fill="none" stroke="#bfbfbf" points="522.5,-748.5 577.5,-748.5 "/>
<text text-anchor="middle" x="550" y="-736.5" font-family="Helvetica,sans-Serif" font-size="10.00"> </text>
</a>
</g>
</g>
<!-- Node13&#45;&gt;Node11 -->
<g id="edge14" class="edge">
<title>Node13&#45;&gt;Node11</title>
<path fill="none" stroke="midnightblue" d="M537.88,-719.77C528.89,-692.12 516.65,-654.52 507.55,-626.56"/>
<polygon fill="none" stroke="midnightblue" points="534.62,-721.05 541.04,-729.47 541.27,-718.88 534.62,-721.05"/>
</g>
<!-- Node14 -->
<g id="node14" class="node">
<title>Node14</title>
<g id="a_node14"><a xlink:href="classPonca_1_1KdTreeQuery.html" target="_top" xlink:title=" ">
<polygon fill="white" stroke="black" points="562,-139.5 562,-218.5 676,-218.5 676,-139.5 562,-139.5"/>
<text text-anchor="start" x="570" y="-206.5" font-family="Helvetica,sans-Serif" font-size="10.00">Ponca::KdTreeQuery</text>
<text text-anchor="middle" x="619" y="-195.5" font-family="Helvetica,sans-Serif" font-size="10.00">&lt; DataPoint &gt;</text>
<polyline fill="none" stroke="black" points="562,-188.5 676,-188.5 "/>
<text text-anchor="start" x="570" y="-176.5" font-family="Helvetica,sans-Serif" font-size="10.00"># m_kdtree</text>
<polyline fill="none" stroke="black" points="562,-169.5 676,-169.5 "/>
<text text-anchor="start" x="570" y="-157.5" font-family="Helvetica,sans-Serif" font-size="10.00">+ KdTreeQuery()</text>
<text text-anchor="start" x="570" y="-146.5" font-family="Helvetica,sans-Serif" font-size="10.00"># reset()</text>
</a>
</g>
</g>
<!-- Node14&#45;&gt;Node1 -->
<g id="edge15" class="edge">
<title>Node14&#45;&gt;Node1</title>
<path fill="none" stroke="midnightblue" d="M576.93,-131.5C568.13,-121.77 558.81,-111.47 549.9,-101.63"/>
<polygon fill="none" stroke="midnightblue" points="574.56,-134.1 583.87,-139.17 579.75,-129.4 574.56,-134.1"/>
</g>
<!-- Node15 -->
<g id="node15" class="node">
<title>Node15</title>
<g id="a_node15"><a xlink:href="classPonca_1_1Stack.html" target="_top" xlink:title=" ">
<polygon fill="white" stroke="black" points="593,-266.5 593,-444.5 727,-444.5 727,-266.5 593,-266.5"/>
<text text-anchor="start" x="601" y="-432.5" font-family="Helvetica,sans-Serif" font-size="10.00">Ponca::Stack&lt; Ponca</text>
<text text-anchor="start" x="601" y="-421.5" font-family="Helvetica,sans-Serif" font-size="10.00">::IndexSquaredDistance</text>
<text text-anchor="start" x="601" y="-410.5" font-family="Helvetica,sans-Serif" font-size="10.00">&lt; typename DataPoint::</text>
<text text-anchor="middle" x="660" y="-399.5" font-family="Helvetica,sans-Serif" font-size="10.00">Scalar &gt;, 2 *32 &gt;</text>
<polyline fill="none" stroke="black" points="593,-392.5 727,-392.5 "/>
<text text-anchor="start" x="601" y="-380.5" font-family="Helvetica,sans-Serif" font-size="10.00"># m_size</text>
<polyline fill="none" stroke="black" points="593,-373.5 727,-373.5 "/>
<text text-anchor="start" x="601" y="-361.5" font-family="Helvetica,sans-Serif" font-size="10.00">+ Stack()</text>
<text text-anchor="start" x="601" y="-350.5" font-family="Helvetica,sans-Serif" font-size="10.00">+ top()</text>
<text text-anchor="start" x="601" y="-339.5" font-family="Helvetica,sans-Serif" font-size="10.00">+ top()</text>
<text text-anchor="start" x="601" y="-328.5" font-family="Helvetica,sans-Serif" font-size="10.00">+ empty()</text>
<text text-anchor="start" x="601" y="-317.5" font-family="Helvetica,sans-Serif" font-size="10.00">+ size()</text>
<text text-anchor="start" x="601" y="-306.5" font-family="Helvetica,sans-Serif" font-size="10.00">+ push()</text>
<text text-anchor="start" x="601" y="-295.5" font-family="Helvetica,sans-Serif" font-size="10.00">+ push()</text>
<text text-anchor="start" x="601" y="-284.5" font-family="Helvetica,sans-Serif" font-size="10.00">+ pop()</text>
<text text-anchor="start" x="601" y="-273.5" font-family="Helvetica,sans-Serif" font-size="10.00">+ clear()</text>
</a>
</g>
</g>
<!-- Node15&#45;&gt;Node14 -->
<g id="edge16" class="edge">
<title>Node15&#45;&gt;Node14</title>
<path fill="none" stroke="#404040" d="M639.32,-266.48C636.43,-254.17 633.54,-241.87 630.88,-230.58"/>
<polygon fill="none" stroke="#404040" points="630.85,-230.44 625.59,-225.52 628.11,-218.76 633.37,-223.69 630.85,-230.44"/>
<text text-anchor="middle" x="661.5" y="-240" font-family="Helvetica,sans-Serif" font-size="10.00"> #m_stack</text>
</g>
<!-- Node16 -->
<g id="node16" class="node">
<title>Node16</title>
<g id="a_node16"><a xlink:title=" ">
<polygon fill="white" stroke="#bfbfbf" points="596,-713 596,-803 724,-803 724,-713 596,-713"/>
<text text-anchor="start" x="604" y="-791" font-family="Helvetica,sans-Serif" font-size="10.00">std::array&lt; Ponca::</text>
<text text-anchor="start" x="604" y="-780" font-family="Helvetica,sans-Serif" font-size="10.00">IndexSquaredDistance</text>
<text text-anchor="start" x="604" y="-769" font-family="Helvetica,sans-Serif" font-size="10.00">&lt; typename DataPoint</text>
<text text-anchor="middle" x="660" y="-758" font-family="Helvetica,sans-Serif" font-size="10.00">::Scalar &gt;, N &gt;</text>
<polyline fill="none" stroke="#bfbfbf" points="596,-751 724,-751 "/>
<text text-anchor="middle" x="660" y="-739" font-family="Helvetica,sans-Serif" font-size="10.00"> </text>
<polyline fill="none" stroke="#bfbfbf" points="596,-732 724,-732 "/>
<text text-anchor="middle" x="660" y="-720" font-family="Helvetica,sans-Serif" font-size="10.00"> </text>
</a>
</g>
</g>
<!-- Node16&#45;&gt;Node15 -->
<g id="edge17" class="edge">
<title>Node16&#45;&gt;Node15</title>
<path fill="none" stroke="#404040" d="M660,-712.99C660,-651.76 660,-539.11 660,-456.78"/>
<polygon fill="none" stroke="#404040" points="660,-456.61 656,-450.61 660,-444.61 664,-450.61 660,-456.61"/>
<text text-anchor="middle" x="684.5" y="-584.5" font-family="Helvetica,sans-Serif" font-size="10.00"> #m_data</text>
</g>
<!-- Node17 -->
<g id="node17" class="node">
<title>Node17</title>
<g id="a_node17"><a xlink:href="structPonca_1_1IndexSquaredDistance.html" target="_top" xlink:title=" ">
<polygon fill="white" stroke="black" points="491,-867.5 491,-946.5 667,-946.5 667,-867.5 491,-867.5"/>
<text text-anchor="start" x="499" y="-934.5" font-family="Helvetica,sans-Serif" font-size="10.00">Ponca::IndexSquaredDistance</text>
<text text-anchor="middle" x="579" y="-923.5" font-family="Helvetica,sans-Serif" font-size="10.00">&lt; typename DataPoint::Scalar &gt;</text>
<polyline fill="none" stroke="black" points="491,-916.5 667,-916.5 "/>
<text text-anchor="start" x="499" y="-904.5" font-family="Helvetica,sans-Serif" font-size="10.00">+ index</text>
<text text-anchor="start" x="499" y="-893.5" font-family="Helvetica,sans-Serif" font-size="10.00">+ squared_distance</text>
<polyline fill="none" stroke="black" points="491,-886.5 667,-886.5 "/>
<text text-anchor="start" x="499" y="-874.5" font-family="Helvetica,sans-Serif" font-size="10.00">+ operator&lt;()</text>
</a>
</g>
</g>
<!-- Node17&#45;&gt;Node16 -->
<g id="edge18" class="edge">
<title>Node17&#45;&gt;Node16</title>
<path fill="none" stroke="#404040" d="M573.15,-867.17C572.76,-853.89 574.22,-839.29 580,-827 582.33,-822.04 585.22,-817.31 588.5,-812.82"/>
<polygon fill="none" stroke="#404040" points="588.63,-812.66 589.35,-805.48 596.24,-803.38 595.53,-810.56 588.63,-812.66"/>
<text text-anchor="middle" x="609" y="-835.5" font-family="Helvetica,sans-Serif" font-size="10.00"> +elements</text>
</g>
<!-- Node18 -->
<g id="node18" class="node">
<title>Node18</title>
<g id="a_node18"><a xlink:href="structPonca_1_1IndexSquaredDistance.html" target="_top" xlink:title="Associates an index with a distance.">
<polygon fill="white" stroke="black" points="498.5,-1005.5 498.5,-1084.5 659.5,-1084.5 659.5,-1005.5 498.5,-1005.5"/>
<text text-anchor="start" x="506.5" y="-1072.5" font-family="Helvetica,sans-Serif" font-size="10.00">Ponca::IndexSquaredDistance</text>
<text text-anchor="middle" x="579" y="-1061.5" font-family="Helvetica,sans-Serif" font-size="10.00">&lt; Scalar &gt;</text>
<polyline fill="none" stroke="black" points="498.5,-1054.5 659.5,-1054.5 "/>
<text text-anchor="start" x="506.5" y="-1042.5" font-family="Helvetica,sans-Serif" font-size="10.00">+ index</text>
<text text-anchor="start" x="506.5" y="-1031.5" font-family="Helvetica,sans-Serif" font-size="10.00">+ squared_distance</text>
<polyline fill="none" stroke="black" points="498.5,-1024.5 659.5,-1024.5 "/>
<text text-anchor="start" x="506.5" y="-1012.5" font-family="Helvetica,sans-Serif" font-size="10.00">+ operator&lt;()</text>
</a>
</g>
</g>
<!-- Node18&#45;&gt;Node17 -->
<g id="edge19" class="edge">
<title>Node18&#45;&gt;Node17</title>
<path fill="none" stroke="orange" d="M579,-995.18C579,-979.25 579,-961.79 579,-946.7"/>
<polygon fill="orange" stroke="orange" points="575.5,-995.39 579,-1005.39 582.5,-995.39 575.5,-995.39"/>
<text text-anchor="start" x="579" y="-979" font-family="Helvetica,sans-Serif" font-size="10.00"> &lt; typename DataPoint</text>
<text text-anchor="middle" x="636.5" y="-968" font-family="Helvetica,sans-Serif" font-size="10.00">::Scalar &gt;</text>
</g>
<!-- Node19 -->
<g id="node19" class="node">
<title>Node19</title>
<g id="a_node19"><a xlink:title="STL class.">
<polygon fill="white" stroke="#bfbfbf" points="800,-878.5 800,-935.5 892,-935.5 892,-878.5 800,-878.5"/>
<text text-anchor="middle" x="846" y="-923.5" font-family="Helvetica,sans-Serif" font-size="10.00">std::array&lt; T &gt;</text>
<polyline fill="none" stroke="#bfbfbf" points="800,-916.5 892,-916.5 "/>
<text text-anchor="middle" x="846" y="-904.5" font-family="Helvetica,sans-Serif" font-size="10.00"> </text>
<polyline fill="none" stroke="#bfbfbf" points="800,-897.5 892,-897.5 "/>
<text text-anchor="middle" x="846" y="-885.5" font-family="Helvetica,sans-Serif" font-size="10.00"> </text>
</a>
</g>
</g>
<!-- Node19&#45;&gt;Node16 -->
<g id="edge20" class="edge">
<title>Node19&#45;&gt;Node16</title>
<path fill="none" stroke="orange" d="M789.78,-903.93C749.02,-899.21 696.13,-885.76 667,-849 656.97,-836.35 653.88,-819.31 653.77,-803.46"/>
<polygon fill="orange" stroke="orange" points="789.56,-907.43 799.86,-904.96 790.27,-900.47 789.56,-907.43"/>
<text text-anchor="start" x="667" y="-841" font-family="Helvetica,sans-Serif" font-size="10.00"> &lt; Ponca::IndexSquaredDistance</text>
<text text-anchor="middle" x="759" y="-830" font-family="Helvetica,sans-Serif" font-size="10.00">&lt; typename DataPoint::Scalar &gt;, N &gt;</text>
</g>
<!-- Node22 -->
<g id="node22" class="node">
<title>Node22</title>
<g id="a_node22"><a xlink:title=" ">
<polygon fill="white" stroke="#bfbfbf" points="814.5,-729.5 814.5,-786.5 919.5,-786.5 919.5,-729.5 814.5,-729.5"/>
<text text-anchor="middle" x="867" y="-774.5" font-family="Helvetica,sans-Serif" font-size="10.00">std::array&lt; T, N &gt;</text>
<polyline fill="none" stroke="#bfbfbf" points="814.5,-767.5 919.5,-767.5 "/>
<text text-anchor="middle" x="867" y="-755.5" font-family="Helvetica,sans-Serif" font-size="10.00"> </text>
<polyline fill="none" stroke="#bfbfbf" points="814.5,-748.5 919.5,-748.5 "/>
<text text-anchor="middle" x="867" y="-736.5" font-family="Helvetica,sans-Serif" font-size="10.00"> </text>
</a>
</g>
</g>
<!-- Node19&#45;&gt;Node22 -->
<g id="edge25" class="edge">
<title>Node19&#45;&gt;Node22</title>
<path fill="none" stroke="orange" d="M851.39,-868.28C855.04,-842.74 859.77,-809.59 863.07,-786.53"/>
<polygon fill="orange" stroke="orange" points="847.9,-867.96 849.95,-878.35 854.83,-868.95 847.9,-867.96"/>
<text text-anchor="middle" x="881" y="-835.5" font-family="Helvetica,sans-Serif" font-size="10.00"> &lt; T, N &gt;</text>
</g>
<!-- Node20 -->
<g id="node20" class="node">
<title>Node20</title>
<g id="a_node20"><a xlink:title=" ">
<polygon fill="white" stroke="#bfbfbf" points="876.5,-1016.5 876.5,-1073.5 905.5,-1073.5 905.5,-1016.5 876.5,-1016.5"/>
<text text-anchor="middle" x="891" y="-1061.5" font-family="Helvetica,sans-Serif" font-size="10.00">T</text>
<polyline fill="none" stroke="#bfbfbf" points="876.5,-1054.5 905.5,-1054.5 "/>
<text text-anchor="middle" x="891" y="-1042.5" font-family="Helvetica,sans-Serif" font-size="10.00"> </text>
<polyline fill="none" stroke="#bfbfbf" points="876.5,-1035.5 905.5,-1035.5 "/>
<text text-anchor="middle" x="891" y="-1023.5" font-family="Helvetica,sans-Serif" font-size="10.00"> </text>
</a>
</g>
</g>
<!-- Node20&#45;&gt;Node19 -->
<g id="edge21" class="edge">
<title>Node20&#45;&gt;Node19</title>
<path fill="none" stroke="#404040" d="M876.49,-1025C869.14,-1014.38 860.78,-1000.58 856,-987 851.66,-974.68 849.17,-960.69 847.74,-947.94"/>
<polygon fill="none" stroke="#404040" points="847.72,-947.67 843.2,-942.05 846.64,-935.71 851.16,-941.33 847.72,-947.67"/>
<text text-anchor="middle" x="885" y="-973.5" font-family="Helvetica,sans-Serif" font-size="10.00"> +elements</text>
</g>
<!-- Node20&#45;&gt;Node22 -->
<g id="edge24" class="edge">
<title>Node20&#45;&gt;Node22</title>
<path fill="none" stroke="#404040" d="M904.68,-1016.24C908.48,-1007.15 912.09,-996.85 914,-987 921.6,-947.87 947.27,-957.18 908,-827 904.88,-816.64 899.81,-806.25 894.3,-796.81"/>
<polygon fill="none" stroke="#404040" points="894.29,-796.8 887.73,-793.82 887.95,-786.61 894.52,-789.59 894.29,-796.8"/>
<text text-anchor="middle" x="958" y="-904.5" font-family="Helvetica,sans-Serif" font-size="10.00"> +elements</text>
</g>
<!-- Node21 -->
<g id="node21" class="node">
<title>Node21</title>
<g id="a_node21"><a xlink:href="classPonca_1_1Stack.html" target="_top" xlink:title="Stack with fixed&#45;size storage.">
<polygon fill="white" stroke="black" points="766.5,-514.5 766.5,-659.5 887.5,-659.5 887.5,-514.5 766.5,-514.5"/>
<text text-anchor="middle" x="827" y="-647.5" font-family="Helvetica,sans-Serif" font-size="10.00">Ponca::Stack&lt; T, N &gt;</text>
<polyline fill="none" stroke="black" points="766.5,-640.5 887.5,-640.5 "/>
<text text-anchor="start" x="774.5" y="-628.5" font-family="Helvetica,sans-Serif" font-size="10.00"># m_size</text>
<polyline fill="none" stroke="black" points="766.5,-621.5 887.5,-621.5 "/>
<text text-anchor="start" x="774.5" y="-609.5" font-family="Helvetica,sans-Serif" font-size="10.00">+ Stack()</text>
<text text-anchor="start" x="774.5" y="-598.5" font-family="Helvetica,sans-Serif" font-size="10.00">+ top()</text>
<text text-anchor="start" x="774.5" y="-587.5" font-family="Helvetica,sans-Serif" font-size="10.00">+ top()</text>
<text text-anchor="start" x="774.5" y="-576.5" font-family="Helvetica,sans-Serif" font-size="10.00">+ empty()</text>
<text text-anchor="start" x="774.5" y="-565.5" font-family="Helvetica,sans-Serif" font-size="10.00">+ size()</text>
<text text-anchor="start" x="774.5" y="-554.5" font-family="Helvetica,sans-Serif" font-size="10.00">+ push()</text>
<text text-anchor="start" x="774.5" y="-543.5" font-family="Helvetica,sans-Serif" font-size="10.00">+ push()</text>
<text text-anchor="start" x="774.5" y="-532.5" font-family="Helvetica,sans-Serif" font-size="10.00">+ pop()</text>
<text text-anchor="start" x="774.5" y="-521.5" font-family="Helvetica,sans-Serif" font-size="10.00">+ clear()</text>
</a>
</g>
</g>
<!-- Node21&#45;&gt;Node15 -->
<g id="edge22" class="edge">
<title>Node21&#45;&gt;Node15</title>
<path fill="none" stroke="orange" d="M768.93,-506.2C754.45,-486.3 738.84,-464.85 724.09,-444.58"/>
<polygon fill="orange" stroke="orange" points="766.13,-508.3 774.85,-514.33 771.79,-504.18 766.13,-508.3"/>
<text text-anchor="start" x="759" y="-488" font-family="Helvetica,sans-Serif" font-size="10.00"> &lt; Ponca::IndexSquaredDistance</text>
<text text-anchor="start" x="759" y="-477" font-family="Helvetica,sans-Serif" font-size="10.00">&lt; typename DataPoint::Scalar</text>
<text text-anchor="middle" x="839" y="-466" font-family="Helvetica,sans-Serif" font-size="10.00"> &gt;, 2 *32 &gt;</text>
</g>
<!-- Node22&#45;&gt;Node21 -->
<g id="edge23" class="edge">
<title>Node22&#45;&gt;Node21</title>
<path fill="none" stroke="#404040" d="M860.48,-729.47C856.71,-713.53 851.74,-692.51 846.78,-671.58"/>
<polygon fill="none" stroke="#404040" points="846.72,-671.32 841.45,-666.4 843.96,-659.64 849.23,-664.56 846.72,-671.32"/>
<text text-anchor="middle" x="875.5" y="-681" font-family="Helvetica,sans-Serif" font-size="10.00"> #m_data</text>
</g>
</g>
</svg>
        <g id="navigator" transform="translate(0 0)" fill="#404254">
                <rect fill="#f2f5e9" fill-opacity="0.5" stroke="#606060" stroke-width=".5" x="0" y="0" width="60" height="60"/>
                <use id="zoomplus" xlink:href="#zoomPlus" x="17" y="9" onmousedown="handleZoom(evt,'in')"/>
                <use id="zoomminus" xlink:href="#zoomMin" x="42" y="9" onmousedown="handleZoom(evt,'out')"/>
                <use id="reset" xlink:href="#resetDef" x="30" y="36" onmousedown="handleReset()"/>
                <g id="arrowUp" xlink:href="#dirArrow" transform="translate(30 24)" onmousedown="handlePan(0,-1)">
                  <use xlink:href="#rim" fill="#404040">
                        <set attributeName="fill" to="#808080" begin="arrowUp.mouseover" end="arrowUp.mouseout"/>
                  </use>
                  <path fill="none" stroke="white" stroke-width="1.5" d="M0,-3.0v7 M-2.5,-0.5L0,-3.0L2.5,-0.5"/>
                </g>
                <g id="arrowRight" xlink:href="#dirArrow" transform="rotate(90) translate(36 -43)" onmousedown="handlePan(1,0)">
                  <use xlink:href="#rim" fill="#404040">
                        <set attributeName="fill" to="#808080" begin="arrowRight.mouseover" end="arrowRight.mouseout"/>
                  </use>
                  <path fill="none" stroke="white" stroke-width="1.5" d="M0,-3.0v7 M-2.5,-0.5L0,-3.0L2.5,-0.5"/>
                </g>
                <g id="arrowDown" xlink:href="#dirArrow" transform="rotate(180) translate(-30 -48)" onmousedown="handlePan(0,1)">
                  <use xlink:href="#rim" fill="#404040">
                        <set attributeName="fill" to="#808080" begin="arrowDown.mouseover" end="arrowDown.mouseout"/>
                  </use>
                  <path fill="none" stroke="white" stroke-width="1.5" d="M0,-3.0v7 M-2.5,-0.5L0,-3.0L2.5,-0.5"/>
                </g>
                <g id="arrowLeft" xlink:href="#dirArrow" transform="rotate(270) translate(-36 17)" onmousedown="handlePan(-1,0)">
                  <use xlink:href="#rim" fill="#404040">
                        <set attributeName="fill" to="#808080" begin="arrowLeft.mouseover" end="arrowLeft.mouseout"/>
                  </use>
                  <path fill="none" stroke="white" stroke-width="1.5" d="M0,-3.0v7 M-2.5,-0.5L0,-3.0L2.5,-0.5"/>
                </g>
        </g>
        <svg viewBox="0 0 15 15" width="100%" height="30px" preserveAspectRatio="xMaxYMin meet">
         <g id="arrow_out" transform="scale(0.3 0.3)">
          <a xlink:href="classPonca_1_1KdTreeNearestPointQuery__coll__graph_org.svg" target="_base">
           <rect id="button" ry="5" rx="5" y="6" x="6" height="38" width="38"
                fill="#f2f5e9" fill-opacity="0.5" stroke="#606060" stroke-width="1.0"/>
           <path id="arrow"
             d="M 11.500037,31.436501 C 11.940474,20.09759 22.043105,11.32322 32.158766,21.979434 L 37.068811,17.246167 C 37.068811,17.246167 37.088388,32 37.088388,32 L 22.160133,31.978069 C 22.160133,31.978069 26.997745,27.140456 26.997745,27.140456 C 18.528582,18.264221 13.291696,25.230495 11.500037,31.436501 z"
             style="fill:#404040;"/>
          </a>
         </g>
        </svg>
</svg>
