<?xml version="1.0" encoding="UTF-8" standalone="no"?>
<!DOCTYPE svg PUBLIC "-//W3C//DTD SVG 1.1//EN"
 "http://www.w3.org/Graphics/SVG/1.1/DTD/svg11.dtd">
<!-- Generated by graphviz version 2.43.0 (0)
 -->
<!-- Title: Ponca::Basket&lt; P, W, Ext0, Exts &gt; Pages: 1 -->
<svg width="160pt" height="215pt"
 viewBox="0.00 0.00 160.00 215.00" xmlns="http://www.w3.org/2000/svg" xmlns:xlink="http://www.w3.org/1999/xlink">
<g id="graph0" class="graph" transform="scale(1 1) rotate(0) translate(4 211)">
<title>Ponca::Basket&lt; P, W, Ext0, Exts &gt;</title>
<!-- Node1 -->
<g id="node1" class="node">
<title>Node1</title>
<g id="a_node1"><a xlink:title="Aggregator class used to declare specialized structures using CRTP.">
<polygon fill="#999999" stroke="#666666" points="15.5,-0.5 15.5,-101.5 136.5,-101.5 136.5,-0.5 15.5,-0.5"/>
<text text-anchor="start" x="23.5" y="-89.5" font-family="Helvetica,sans-Serif" font-size="10.00">Ponca::Basket&lt; P, W,</text>
<text text-anchor="middle" x="76" y="-78.5" font-family="Helvetica,sans-Serif" font-size="10.00"> Ext0, Exts &gt;</text>
<polyline fill="none" stroke="#666666" points="15.5,-71.5 136.5,-71.5 "/>
<text text-anchor="middle" x="76" y="-59.5" font-family="Helvetica,sans-Serif" font-size="10.00"> </text>
<polyline fill="none" stroke="#666666" points="15.5,-52.5 136.5,-52.5 "/>
<text text-anchor="start" x="23.5" y="-40.5" font-family="Helvetica,sans-Serif" font-size="10.00">+ compute()</text>
<text text-anchor="start" x="23.5" y="-29.5" font-family="Helvetica,sans-Serif" font-size="10.00">+ computeWithIds()</text>
<text text-anchor="start" x="23.5" y="-18.5" font-family="Helvetica,sans-Serif" font-size="10.00">+ compute()</text>
<text text-anchor="start" x="23.5" y="-7.5" font-family="Helvetica,sans-Serif" font-size="10.00">+ addNeighbor()</text>
</a>
</g>
</g>
<!-- Node2 -->
<g id="node2" class="node">
<title>Node2</title>
<g id="a_node2"><a xlink:title=" ">
<polygon fill="white" stroke="#bfbfbf" points="0,-138.5 0,-206.5 152,-206.5 152,-138.5 0,-138.5"/>
<text text-anchor="start" x="8" y="-194.5" font-family="Helvetica,sans-Serif" font-size="10.00">internal::BasketAggregate</text>
<text text-anchor="middle" x="76" y="-183.5" font-family="Helvetica,sans-Serif" font-size="10.00">&lt; P, W, Ext0, Exts... &gt;::type</text>
<polyline fill="none" stroke="#bfbfbf" points="0,-176.5 152,-176.5 "/>
<text text-anchor="middle" x="76" y="-164.5" font-family="Helvetica,sans-Serif" font-size="10.00"> </text>
<polyline fill="none" stroke="#bfbfbf" points="0,-157.5 152,-157.5 "/>
<text text-anchor="middle" x="76" y="-145.5" font-family="Helvetica,sans-Serif" font-size="10.00"> </text>
</a>
</g>
</g>
<!-- Node2&#45;&gt;Node1 -->
<g id="edge1" class="edge">
<title>Node2&#45;&gt;Node1</title>
<path fill="none" stroke="#63b8ff" d="M76,-128.05C76,-119.47 76,-110.41 76,-101.65"/>
<polygon fill="none" stroke="#63b8ff" points="72.5,-128.21 76,-138.21 79.5,-128.21 72.5,-128.21"/>
</g>
</g>
</svg>
