<?xml version="1.0" encoding="UTF-8" standalone="no"?>
<!DOCTYPE svg PUBLIC "-//W3C//DTD SVG 1.1//EN"
 "http://www.w3.org/Graphics/SVG/1.1/DTD/svg11.dtd">
<!-- Generated by graphviz version 2.43.0 (0)
 -->
<!-- Title: Ponca::OrientedSphereDerImpl&lt; DataPoint, _WFunctor, DiffType, T &gt; Pages: 1 -->
<svg width="205pt" height="380pt"
 viewBox="0.00 0.00 204.50 380.00" xmlns="http://www.w3.org/2000/svg" xmlns:xlink="http://www.w3.org/1999/xlink">
<g id="graph0" class="graph" transform="scale(1 1) rotate(0) translate(4 376)">
<title>Ponca::OrientedSphereDerImpl&lt; DataPoint, _WFunctor, DiffType, T &gt;</title>
<!-- Node1 -->
<g id="node1" class="node">
<title>Node1</title>
<g id="a_node1"><a xlink:title="[OrientedSphereFit Definition]">
<polygon fill="#bfbfbf" stroke="black" points="38.5,-0.5 38.5,-277.5 196.5,-277.5 196.5,-0.5 38.5,-0.5"/>
<text text-anchor="start" x="46.5" y="-265.5" font-family="Helvetica,sans-Serif" font-size="10.00">Ponca::OrientedSphereDer</text>
<text text-anchor="start" x="46.5" y="-254.5" font-family="Helvetica,sans-Serif" font-size="10.00">Impl&lt; DataPoint, _WFunctor,</text>
<text text-anchor="middle" x="117.5" y="-243.5" font-family="Helvetica,sans-Serif" font-size="10.00"> DiffType, T &gt;</text>
<polyline fill="none" stroke="black" points="38.5,-236.5 196.5,-236.5 "/>
<text text-anchor="start" x="46.5" y="-224.5" font-family="Helvetica,sans-Serif" font-size="10.00">+ m_dUc</text>
<text text-anchor="start" x="46.5" y="-213.5" font-family="Helvetica,sans-Serif" font-size="10.00">+ m_dUq</text>
<text text-anchor="start" x="46.5" y="-202.5" font-family="Helvetica,sans-Serif" font-size="10.00">+ m_dUl</text>
<text text-anchor="start" x="46.5" y="-191.5" font-family="Helvetica,sans-Serif" font-size="10.00"># m_dSumN</text>
<text text-anchor="start" x="46.5" y="-180.5" font-family="Helvetica,sans-Serif" font-size="10.00"># m_dSumDotPN</text>
<text text-anchor="start" x="46.5" y="-169.5" font-family="Helvetica,sans-Serif" font-size="10.00"># m_dSumDotPP</text>
<text text-anchor="start" x="46.5" y="-158.5" font-family="Helvetica,sans-Serif" font-size="10.00"># m_dNume</text>
<text text-anchor="start" x="46.5" y="-147.5" font-family="Helvetica,sans-Serif" font-size="10.00"># m_dDeno</text>
<polyline fill="none" stroke="black" points="38.5,-140.5 196.5,-140.5 "/>
<text text-anchor="start" x="46.5" y="-128.5" font-family="Helvetica,sans-Serif" font-size="10.00">+ orientedSphereDer()</text>
<text text-anchor="start" x="46.5" y="-117.5" font-family="Helvetica,sans-Serif" font-size="10.00">+ orientedSphereDer()</text>
<text text-anchor="start" x="46.5" y="-106.5" font-family="Helvetica,sans-Serif" font-size="10.00">+ init()</text>
<text text-anchor="start" x="46.5" y="-95.5" font-family="Helvetica,sans-Serif" font-size="10.00">+ addLocalNeighbor()</text>
<text text-anchor="start" x="46.5" y="-84.5" font-family="Helvetica,sans-Serif" font-size="10.00">+ finalize()</text>
<text text-anchor="start" x="46.5" y="-73.5" font-family="Helvetica,sans-Serif" font-size="10.00">+ dPotential()</text>
<text text-anchor="start" x="46.5" y="-62.5" font-family="Helvetica,sans-Serif" font-size="10.00">+ dNormal()</text>
<text text-anchor="start" x="46.5" y="-51.5" font-family="Helvetica,sans-Serif" font-size="10.00">+ dprattNorm2()</text>
<text text-anchor="start" x="46.5" y="-40.5" font-family="Helvetica,sans-Serif" font-size="10.00">+ dprattNorm2()</text>
<text text-anchor="start" x="46.5" y="-29.5" font-family="Helvetica,sans-Serif" font-size="10.00">+ dprattNorm()</text>
<text text-anchor="start" x="46.5" y="-18.5" font-family="Helvetica,sans-Serif" font-size="10.00">+ dprattNorm()</text>
<text text-anchor="start" x="46.5" y="-7.5" font-family="Helvetica,sans-Serif" font-size="10.00">+ applyPrattNorm()</text>
</a>
</g>
</g>
<!-- Node2 -->
<g id="node2" class="node">
<title>Node2</title>
<g id="a_node2"><a xlink:title=" ">
<polygon fill="none" stroke="#bfbfbf" points="0,-314.5 0,-371.5 135,-371.5 135,-314.5 0,-314.5"/>
<text text-anchor="middle" x="67.5" y="-359.5" font-family="Helvetica,sans-Serif" font-size="10.00">FittingExtensionConcept</text>
<polyline fill="none" stroke="#bfbfbf" points="0,-352.5 135,-352.5 "/>
<text text-anchor="middle" x="67.5" y="-340.5" font-family="Helvetica,sans-Serif" font-size="10.00"> </text>
<polyline fill="none" stroke="#bfbfbf" points="0,-333.5 135,-333.5 "/>
<text text-anchor="middle" x="67.5" y="-321.5" font-family="Helvetica,sans-Serif" font-size="10.00"> </text>
</a>
</g>
</g>
<!-- Node2&#45;&gt;Node1 -->
<g id="edge1" class="edge">
<title>Node2&#45;&gt;Node1</title>
<path fill="none" stroke="midnightblue" d="M76.77,-304.54C78.79,-296.38 81.04,-287.3 83.41,-277.7"/>
<polygon fill="none" stroke="midnightblue" points="73.35,-303.79 74.35,-314.34 80.15,-305.47 73.35,-303.79"/>
</g>
<!-- Node3 -->
<g id="node3" class="node">
<title>Node3</title>
<g id="a_node3"><a xlink:title=" ">
<polygon fill="none" stroke="#bfbfbf" points="153,-314.5 153,-371.5 182,-371.5 182,-314.5 153,-314.5"/>
<text text-anchor="middle" x="167.5" y="-359.5" font-family="Helvetica,sans-Serif" font-size="10.00">T</text>
<polyline fill="none" stroke="#bfbfbf" points="153,-352.5 182,-352.5 "/>
<text text-anchor="middle" x="167.5" y="-340.5" font-family="Helvetica,sans-Serif" font-size="10.00"> </text>
<polyline fill="none" stroke="#bfbfbf" points="153,-333.5 182,-333.5 "/>
<text text-anchor="middle" x="167.5" y="-321.5" font-family="Helvetica,sans-Serif" font-size="10.00"> </text>
</a>
</g>
</g>
<!-- Node3&#45;&gt;Node1 -->
<g id="edge2" class="edge">
<title>Node3&#45;&gt;Node1</title>
<path fill="none" stroke="midnightblue" d="M158.23,-304.54C156.21,-296.38 153.96,-287.3 151.59,-277.7"/>
<polygon fill="none" stroke="midnightblue" points="154.85,-305.47 160.65,-314.34 161.65,-303.79 154.85,-305.47"/>
</g>
</g>
</svg>
