<?xml version="1.0" encoding="UTF-8" standalone="no"?>
<!DOCTYPE svg PUBLIC "-//W3C//DTD SVG 1.1//EN"
 "http://www.w3.org/Graphics/SVG/1.1/DTD/svg11.dtd">
<!-- Generated by graphviz version 2.43.0 (0)
 -->
<!-- Title: Ponca::MeanPosition&lt; DataPoint, _WFunctor, T &gt; Pages: 1 -->
<svg width="209pt" height="237pt"
 viewBox="0.00 0.00 209.00 237.00" xmlns="http://www.w3.org/2000/svg" xmlns:xlink="http://www.w3.org/1999/xlink">
<g id="graph0" class="graph" transform="scale(1 1) rotate(0) translate(4 233)">
<title>Ponca::MeanPosition&lt; DataPoint, _WFunctor, T &gt;</title>
<!-- Node1 -->
<g id="node1" class="node">
<title>Node1</title>
<g id="a_node1"><a xlink:title="Compute the barycenter of the input points.">
<polygon fill="#999999" stroke="#666666" points="45,-0.5 45,-123.5 201,-123.5 201,-0.5 45,-0.5"/>
<text text-anchor="start" x="53" y="-111.5" font-family="Helvetica,sans-Serif" font-size="10.00">Ponca::MeanPosition</text>
<text text-anchor="middle" x="123" y="-100.5" font-family="Helvetica,sans-Serif" font-size="10.00">&lt; DataPoint, _WFunctor, T &gt;</text>
<polyline fill="none" stroke="#666666" points="45,-93.5 201,-93.5 "/>
<text text-anchor="start" x="53" y="-81.5" font-family="Helvetica,sans-Serif" font-size="10.00"># m_sumP</text>
<polyline fill="none" stroke="#666666" points="45,-74.5 201,-74.5 "/>
<text text-anchor="start" x="53" y="-62.5" font-family="Helvetica,sans-Serif" font-size="10.00">+ meanPosition()</text>
<text text-anchor="start" x="53" y="-51.5" font-family="Helvetica,sans-Serif" font-size="10.00">+ meanPosition()</text>
<text text-anchor="start" x="53" y="-40.5" font-family="Helvetica,sans-Serif" font-size="10.00">+ init()</text>
<text text-anchor="start" x="53" y="-29.5" font-family="Helvetica,sans-Serif" font-size="10.00">+ addLocalNeighbor()</text>
<text text-anchor="start" x="53" y="-18.5" font-family="Helvetica,sans-Serif" font-size="10.00">+ barycenter()</text>
<text text-anchor="start" x="53" y="-7.5" font-family="Helvetica,sans-Serif" font-size="10.00"># barycenterLocal()</text>
</a>
</g>
</g>
<!-- Node2 -->
<g id="node2" class="node">
<title>Node2</title>
<g id="a_node2"><a xlink:title=" ">
<polygon fill="white" stroke="#bfbfbf" points="0,-160.5 0,-228.5 142,-228.5 142,-160.5 0,-160.5"/>
<text text-anchor="start" x="8" y="-216.5" font-family="Helvetica,sans-Serif" font-size="10.00">Concept::FittingProcedure</text>
<text text-anchor="middle" x="71" y="-205.5" font-family="Helvetica,sans-Serif" font-size="10.00">Concept</text>
<polyline fill="none" stroke="#bfbfbf" points="0,-198.5 142,-198.5 "/>
<text text-anchor="middle" x="71" y="-186.5" font-family="Helvetica,sans-Serif" font-size="10.00"> </text>
<polyline fill="none" stroke="#bfbfbf" points="0,-179.5 142,-179.5 "/>
<text text-anchor="middle" x="71" y="-167.5" font-family="Helvetica,sans-Serif" font-size="10.00"> </text>
</a>
</g>
</g>
<!-- Node2&#45;&gt;Node1 -->
<g id="edge1" class="edge">
<title>Node2&#45;&gt;Node1</title>
<path fill="none" stroke="#63b8ff" d="M88.04,-150.73C91.5,-142.05 95.2,-132.77 98.85,-123.61"/>
<polygon fill="none" stroke="#63b8ff" points="84.71,-149.65 84.26,-160.23 91.21,-152.24 84.71,-149.65"/>
</g>
<!-- Node3 -->
<g id="node3" class="node">
<title>Node3</title>
<g id="a_node3"><a xlink:title=" ">
<polygon fill="white" stroke="#bfbfbf" points="160.5,-166 160.5,-223 189.5,-223 189.5,-166 160.5,-166"/>
<text text-anchor="middle" x="175" y="-211" font-family="Helvetica,sans-Serif" font-size="10.00">T</text>
<polyline fill="none" stroke="#bfbfbf" points="160.5,-204 189.5,-204 "/>
<text text-anchor="middle" x="175" y="-192" font-family="Helvetica,sans-Serif" font-size="10.00"> </text>
<polyline fill="none" stroke="#bfbfbf" points="160.5,-185 189.5,-185 "/>
<text text-anchor="middle" x="175" y="-173" font-family="Helvetica,sans-Serif" font-size="10.00"> </text>
</a>
</g>
</g>
<!-- Node3&#45;&gt;Node1 -->
<g id="edge2" class="edge">
<title>Node3&#45;&gt;Node1</title>
<path fill="none" stroke="#63b8ff" d="M160.22,-156.42C156.15,-146.2 151.63,-134.84 147.17,-123.66"/>
<polygon fill="none" stroke="#63b8ff" points="157.02,-157.83 163.97,-165.82 163.52,-155.24 157.02,-157.83"/>
</g>
</g>
</svg>
