<?xml version="1.0" encoding="UTF-8" standalone="no"?>
<!DOCTYPE svg PUBLIC "-//W3C//DTD SVG 1.1//EN"
 "http://www.w3.org/Graphics/SVG/1.1/DTD/svg11.dtd">
<!-- Generated by graphviz version 2.43.0 (0)
 -->
<!-- Title: Ponca::KdTreeRangeIndexQuery&lt; DataPoint &gt; Pages: 1 -->
<svg width="679pt" height="1090pt"
 viewBox="0.00 0.00 679.00 1090.00" xmlns="http://www.w3.org/2000/svg" xmlns:xlink="http://www.w3.org/1999/xlink">
<g id="graph0" class="graph" transform="scale(1 1) rotate(0) translate(4 1086)">
<title>Ponca::KdTreeRangeIndexQuery&lt; DataPoint &gt;</title>
<polygon fill="white" stroke="transparent" points="-4,4 -4,-1086 675,-1086 675,4 -4,4"/>
<!-- Node1 -->
<g id="node1" class="node">
<title>Node1</title>
<g id="a_node1"><a xlink:title=" ">
<polygon fill="#bfbfbf" stroke="black" points="81,-0.5 81,-112.5 253,-112.5 253,-0.5 81,-0.5"/>
<text text-anchor="start" x="89" y="-100.5" font-family="Helvetica,sans-Serif" font-size="10.00">Ponca::KdTreeRangeIndexQuery</text>
<text text-anchor="middle" x="167" y="-89.5" font-family="Helvetica,sans-Serif" font-size="10.00">&lt; DataPoint &gt;</text>
<polyline fill="none" stroke="black" points="81,-82.5 253,-82.5 "/>
<text text-anchor="start" x="89" y="-70.5" font-family="Helvetica,sans-Serif" font-size="10.00"># Iterator</text>
<polyline fill="none" stroke="black" points="81,-63.5 253,-63.5 "/>
<text text-anchor="start" x="89" y="-51.5" font-family="Helvetica,sans-Serif" font-size="10.00">+ KdTreeRangeIndexQuery()</text>
<text text-anchor="start" x="89" y="-40.5" font-family="Helvetica,sans-Serif" font-size="10.00">+ begin()</text>
<text text-anchor="start" x="89" y="-29.5" font-family="Helvetica,sans-Serif" font-size="10.00">+ end()</text>
<text text-anchor="start" x="89" y="-18.5" font-family="Helvetica,sans-Serif" font-size="10.00"># initialize()</text>
<text text-anchor="start" x="89" y="-7.5" font-family="Helvetica,sans-Serif" font-size="10.00"># advance()</text>
</a>
</g>
</g>
<!-- Node2 -->
<g id="node2" class="node">
<title>Node2</title>
<g id="a_node2"><a xlink:href="classPonca_1_1KdTreeQuery.html" target="_top" xlink:title=" ">
<polygon fill="white" stroke="black" points="98,-150.5 98,-240.5 212,-240.5 212,-150.5 98,-150.5"/>
<text text-anchor="start" x="106" y="-228.5" font-family="Helvetica,sans-Serif" font-size="10.00">Ponca::KdTreeQuery</text>
<text text-anchor="middle" x="155" y="-217.5" font-family="Helvetica,sans-Serif" font-size="10.00">&lt; DataPoint &gt;</text>
<polyline fill="none" stroke="black" points="98,-210.5 212,-210.5 "/>
<text text-anchor="start" x="106" y="-198.5" font-family="Helvetica,sans-Serif" font-size="10.00"># m_kdtree</text>
<text text-anchor="start" x="106" y="-187.5" font-family="Helvetica,sans-Serif" font-size="10.00"># m_stack</text>
<polyline fill="none" stroke="black" points="98,-180.5 212,-180.5 "/>
<text text-anchor="start" x="106" y="-168.5" font-family="Helvetica,sans-Serif" font-size="10.00">+ KdTreeQuery()</text>
<text text-anchor="start" x="106" y="-157.5" font-family="Helvetica,sans-Serif" font-size="10.00"># reset()</text>
</a>
</g>
</g>
<!-- Node2&#45;&gt;Node1 -->
<g id="edge1" class="edge">
<title>Node2&#45;&gt;Node1</title>
<path fill="none" stroke="midnightblue" d="M159.75,-140.29C160.55,-131.18 161.38,-121.71 162.18,-112.57"/>
<polygon fill="none" stroke="midnightblue" points="156.25,-140.13 158.86,-150.4 163.22,-140.74 156.25,-140.13"/>
</g>
<!-- Node3 -->
<g id="node3" class="node">
<title>Node3</title>
<g id="a_node3"><a xlink:href="structPonca_1_1RangeIndexQuery.html" target="_top" xlink:title=" ">
<polygon fill="white" stroke="black" points="230.5,-161.5 230.5,-229.5 369.5,-229.5 369.5,-161.5 230.5,-161.5"/>
<text text-anchor="start" x="238.5" y="-217.5" font-family="Helvetica,sans-Serif" font-size="10.00">Ponca::RangeIndexQuery</text>
<text text-anchor="middle" x="300" y="-206.5" font-family="Helvetica,sans-Serif" font-size="10.00">&lt; DataPoint::Scalar &gt;</text>
<polyline fill="none" stroke="black" points="230.5,-199.5 369.5,-199.5 "/>
<text text-anchor="middle" x="300" y="-187.5" font-family="Helvetica,sans-Serif" font-size="10.00"> </text>
<polyline fill="none" stroke="black" points="230.5,-180.5 369.5,-180.5 "/>
<text text-anchor="middle" x="300" y="-168.5" font-family="Helvetica,sans-Serif" font-size="10.00"> </text>
</a>
</g>
</g>
<!-- Node3&#45;&gt;Node1 -->
<g id="edge2" class="edge">
<title>Node3&#45;&gt;Node1</title>
<path fill="none" stroke="midnightblue" d="M260.59,-153.9C248,-140.93 233.84,-126.35 220.43,-112.54"/>
<polygon fill="none" stroke="midnightblue" points="258.33,-156.6 267.8,-161.34 263.35,-151.72 258.33,-156.6"/>
</g>
<!-- Node4 -->
<g id="node4" class="node">
<title>Node4</title>
<g id="a_node4"><a xlink:href="structPonca_1_1Query.html" target="_top" xlink:title=" ">
<polygon fill="white" stroke="black" points="148.5,-394.5 148.5,-484.5 307.5,-484.5 307.5,-394.5 148.5,-394.5"/>
<text text-anchor="start" x="156.5" y="-472.5" font-family="Helvetica,sans-Serif" font-size="10.00">Ponca::Query&lt; QueryInput</text>
<text text-anchor="start" x="156.5" y="-461.5" font-family="Helvetica,sans-Serif" font-size="10.00">IsIndex, QueryOutputIsRange</text>
<text text-anchor="middle" x="228" y="-450.5" font-family="Helvetica,sans-Serif" font-size="10.00">&lt; DataPoint::Scalar &gt; &gt;</text>
<polyline fill="none" stroke="black" points="148.5,-443.5 307.5,-443.5 "/>
<text text-anchor="middle" x="228" y="-431.5" font-family="Helvetica,sans-Serif" font-size="10.00"> </text>
<polyline fill="none" stroke="black" points="148.5,-424.5 307.5,-424.5 "/>
<text text-anchor="start" x="156.5" y="-412.5" font-family="Helvetica,sans-Serif" font-size="10.00">+ Query()</text>
<text text-anchor="start" x="156.5" y="-401.5" font-family="Helvetica,sans-Serif" font-size="10.00">+ Query()</text>
</a>
</g>
</g>
<!-- Node4&#45;&gt;Node3 -->
<g id="edge3" class="edge">
<title>Node4&#45;&gt;Node3</title>
<path fill="none" stroke="midnightblue" d="M244.04,-384.6C258.13,-337.21 278.21,-269.74 290.09,-229.8"/>
<polygon fill="none" stroke="midnightblue" points="240.62,-383.81 241.12,-394.39 247.33,-385.81 240.62,-383.81"/>
</g>
<!-- Node5 -->
<g id="node5" class="node">
<title>Node5</title>
<g id="a_node5"><a xlink:href="structPonca_1_1QueryInputIsIndex.html" target="_top" xlink:title="Base class for queries storing points.">
<polygon fill="white" stroke="black" points="40.5,-587.5 40.5,-644.5 181.5,-644.5 181.5,-587.5 40.5,-587.5"/>
<text text-anchor="middle" x="111" y="-632.5" font-family="Helvetica,sans-Serif" font-size="10.00">Ponca::QueryInputIsIndex</text>
<polyline fill="none" stroke="black" points="40.5,-625.5 181.5,-625.5 "/>
<text text-anchor="middle" x="111" y="-613.5" font-family="Helvetica,sans-Serif" font-size="10.00"> </text>
<polyline fill="none" stroke="black" points="40.5,-606.5 181.5,-606.5 "/>
<text text-anchor="start" x="48.5" y="-594.5" font-family="Helvetica,sans-Serif" font-size="10.00">+ QueryInputIsIndex()</text>
</a>
</g>
</g>
<!-- Node5&#45;&gt;Node4 -->
<g id="edge4" class="edge">
<title>Node5&#45;&gt;Node4</title>
<path fill="none" stroke="midnightblue" d="M135.23,-578.86C153.57,-551.51 178.84,-513.81 198.38,-484.67"/>
<polygon fill="none" stroke="midnightblue" points="132.2,-577.09 129.54,-587.35 138.02,-580.99 132.2,-577.09"/>
</g>
<!-- Node16 -->
<g id="node16" class="node">
<title>Node16</title>
<g id="a_node16"><a xlink:href="structPonca_1_1Query.html" target="_top" xlink:title=" ">
<polygon fill="white" stroke="black" points="325.5,-394.5 325.5,-484.5 484.5,-484.5 484.5,-394.5 325.5,-394.5"/>
<text text-anchor="start" x="333.5" y="-472.5" font-family="Helvetica,sans-Serif" font-size="10.00">Ponca::Query&lt; QueryInput</text>
<text text-anchor="start" x="333.5" y="-461.5" font-family="Helvetica,sans-Serif" font-size="10.00">IsIndex, QueryOutputIsRange</text>
<text text-anchor="middle" x="405" y="-450.5" font-family="Helvetica,sans-Serif" font-size="10.00">&lt; Scalar &gt; &gt;</text>
<polyline fill="none" stroke="black" points="325.5,-443.5 484.5,-443.5 "/>
<text text-anchor="middle" x="405" y="-431.5" font-family="Helvetica,sans-Serif" font-size="10.00"> </text>
<polyline fill="none" stroke="black" points="325.5,-424.5 484.5,-424.5 "/>
<text text-anchor="start" x="333.5" y="-412.5" font-family="Helvetica,sans-Serif" font-size="10.00">+ Query()</text>
<text text-anchor="start" x="333.5" y="-401.5" font-family="Helvetica,sans-Serif" font-size="10.00">+ Query()</text>
</a>
</g>
</g>
<!-- Node5&#45;&gt;Node16 -->
<g id="edge18" class="edge">
<title>Node5&#45;&gt;Node16</title>
<path fill="none" stroke="midnightblue" d="M152.86,-581.04C164.88,-571.85 178.21,-562.19 191,-554 215.3,-538.44 275.06,-506.94 325.27,-481.06"/>
<polygon fill="none" stroke="midnightblue" points="150.53,-578.42 144.76,-587.3 154.81,-583.95 150.53,-578.42"/>
</g>
<!-- Node6 -->
<g id="node6" class="node">
<title>Node6</title>
<g id="a_node6"><a xlink:href="structPonca_1_1QueryInput.html" target="_top" xlink:title=" ">
<polygon fill="white" stroke="black" points="54,-742 54,-832 168,-832 168,-742 54,-742"/>
<text text-anchor="start" x="62" y="-820" font-family="Helvetica,sans-Serif" font-size="10.00">Ponca::QueryInput&lt;</text>
<text text-anchor="middle" x="111" y="-809" font-family="Helvetica,sans-Serif" font-size="10.00"> int &gt;</text>
<polyline fill="none" stroke="black" points="54,-802 168,-802 "/>
<text text-anchor="middle" x="111" y="-790" font-family="Helvetica,sans-Serif" font-size="10.00"> </text>
<polyline fill="none" stroke="black" points="54,-783 168,-783 "/>
<text text-anchor="start" x="62" y="-771" font-family="Helvetica,sans-Serif" font-size="10.00">+ QueryInput()</text>
<text text-anchor="start" x="62" y="-760" font-family="Helvetica,sans-Serif" font-size="10.00">+ input()</text>
<text text-anchor="start" x="62" y="-749" font-family="Helvetica,sans-Serif" font-size="10.00"># editInput()</text>
</a>
</g>
</g>
<!-- Node6&#45;&gt;Node5 -->
<g id="edge5" class="edge">
<title>Node6&#45;&gt;Node5</title>
<path fill="none" stroke="midnightblue" d="M111,-731.22C111,-702.32 111,-668.11 111,-644.71"/>
<polygon fill="none" stroke="midnightblue" points="107.5,-731.6 111,-741.6 114.5,-731.6 107.5,-731.6"/>
</g>
<!-- Node7 -->
<g id="node7" class="node">
<title>Node7</title>
<g id="a_node7"><a xlink:href="structPonca_1_1QueryInputBase.html" target="_top" xlink:title="Base class for queries input type.">
<polygon fill="white" stroke="black" points="0,-1024.5 0,-1081.5 130,-1081.5 130,-1024.5 0,-1024.5"/>
<text text-anchor="middle" x="65" y="-1069.5" font-family="Helvetica,sans-Serif" font-size="10.00">Ponca::QueryInputBase</text>
<polyline fill="none" stroke="black" points="0,-1062.5 130,-1062.5 "/>
<text text-anchor="middle" x="65" y="-1050.5" font-family="Helvetica,sans-Serif" font-size="10.00"> </text>
<polyline fill="none" stroke="black" points="0,-1043.5 130,-1043.5 "/>
<text text-anchor="middle" x="65" y="-1031.5" font-family="Helvetica,sans-Serif" font-size="10.00"> </text>
</a>
</g>
</g>
<!-- Node7&#45;&gt;Node6 -->
<g id="edge6" class="edge">
<title>Node7&#45;&gt;Node6</title>
<path fill="none" stroke="midnightblue" d="M63.54,-1014.17C63.05,-982.34 64.11,-935.78 72,-896 76.28,-874.39 84.14,-851.32 91.68,-832.07"/>
<polygon fill="none" stroke="midnightblue" points="60.04,-1014.44 63.75,-1024.37 67.04,-1014.29 60.04,-1014.44"/>
</g>
<!-- Node8 -->
<g id="node8" class="node">
<title>Node8</title>
<g id="a_node8"><a xlink:href="structPonca_1_1QueryInput.html" target="_top" xlink:title="Base class for typed queries input type.">
<polygon fill="white" stroke="black" points="81,-896.5 81,-986.5 195,-986.5 195,-896.5 81,-896.5"/>
<text text-anchor="start" x="89" y="-974.5" font-family="Helvetica,sans-Serif" font-size="10.00">Ponca::QueryInput&lt;</text>
<text text-anchor="middle" x="138" y="-963.5" font-family="Helvetica,sans-Serif" font-size="10.00"> InputType_ &gt;</text>
<polyline fill="none" stroke="black" points="81,-956.5 195,-956.5 "/>
<text text-anchor="middle" x="138" y="-944.5" font-family="Helvetica,sans-Serif" font-size="10.00"> </text>
<polyline fill="none" stroke="black" points="81,-937.5 195,-937.5 "/>
<text text-anchor="start" x="89" y="-925.5" font-family="Helvetica,sans-Serif" font-size="10.00">+ QueryInput()</text>
<text text-anchor="start" x="89" y="-914.5" font-family="Helvetica,sans-Serif" font-size="10.00">+ input()</text>
<text text-anchor="start" x="89" y="-903.5" font-family="Helvetica,sans-Serif" font-size="10.00"># editInput()</text>
</a>
</g>
</g>
<!-- Node7&#45;&gt;Node8 -->
<g id="edge8" class="edge">
<title>Node7&#45;&gt;Node8</title>
<path fill="none" stroke="midnightblue" d="M88.97,-1016.04C95.22,-1006.68 102.01,-996.48 108.51,-986.74"/>
<polygon fill="none" stroke="midnightblue" points="86.06,-1014.11 83.42,-1024.37 91.88,-1017.99 86.06,-1014.11"/>
</g>
<!-- Node8&#45;&gt;Node6 -->
<g id="edge7" class="edge">
<title>Node8&#45;&gt;Node6</title>
<path fill="none" stroke="orange" d="M128.38,-886.17C125.24,-868.41 121.78,-848.91 118.79,-832.01"/>
<polygon fill="orange" stroke="orange" points="125,-887.15 130.19,-896.39 131.89,-885.93 125,-887.15"/>
<text text-anchor="middle" x="146.5" y="-870" font-family="Helvetica,sans-Serif" font-size="10.00"> &lt; int &gt;</text>
</g>
<!-- Node9 -->
<g id="node9" class="node">
<title>Node9</title>
<g id="a_node9"><a xlink:href="structPonca_1_1QueryOutputIsRange.html" target="_top" xlink:title=" ">
<polygon fill="white" stroke="black" points="199.5,-554.5 199.5,-677.5 352.5,-677.5 352.5,-554.5 199.5,-554.5"/>
<text text-anchor="start" x="207.5" y="-665.5" font-family="Helvetica,sans-Serif" font-size="10.00">Ponca::QueryOutputIsRange</text>
<text text-anchor="middle" x="276" y="-654.5" font-family="Helvetica,sans-Serif" font-size="10.00">&lt; DataPoint::Scalar &gt;</text>
<polyline fill="none" stroke="black" points="199.5,-647.5 352.5,-647.5 "/>
<text text-anchor="start" x="207.5" y="-635.5" font-family="Helvetica,sans-Serif" font-size="10.00"># m_squared_radius</text>
<polyline fill="none" stroke="black" points="199.5,-628.5 352.5,-628.5 "/>
<text text-anchor="start" x="207.5" y="-616.5" font-family="Helvetica,sans-Serif" font-size="10.00">+ QueryOutputIsRange()</text>
<text text-anchor="start" x="207.5" y="-605.5" font-family="Helvetica,sans-Serif" font-size="10.00">+ radius()</text>
<text text-anchor="start" x="207.5" y="-594.5" font-family="Helvetica,sans-Serif" font-size="10.00">+ squared_radius()</text>
<text text-anchor="start" x="207.5" y="-583.5" font-family="Helvetica,sans-Serif" font-size="10.00">+ set_radius()</text>
<text text-anchor="start" x="207.5" y="-572.5" font-family="Helvetica,sans-Serif" font-size="10.00">+ set_squared_radius()</text>
<text text-anchor="start" x="207.5" y="-561.5" font-family="Helvetica,sans-Serif" font-size="10.00"># reset()</text>
</a>
</g>
</g>
<!-- Node9&#45;&gt;Node4 -->
<g id="edge9" class="edge">
<title>Node9&#45;&gt;Node4</title>
<path fill="none" stroke="midnightblue" d="M256.65,-544.64C251.08,-524.39 245.16,-502.89 240.16,-484.71"/>
<polygon fill="none" stroke="midnightblue" points="253.32,-545.74 259.35,-554.46 260.07,-543.89 253.32,-545.74"/>
</g>
<!-- Node10 -->
<g id="node10" class="node">
<title>Node10</title>
<g id="a_node10"><a xlink:href="structPonca_1_1QueryOutputBase.html" target="_top" xlink:title="Base class for queries output type.">
<polygon fill="white" stroke="black" points="216,-913 216,-970 354,-970 354,-913 216,-913"/>
<text text-anchor="middle" x="285" y="-958" font-family="Helvetica,sans-Serif" font-size="10.00">Ponca::QueryOutputBase</text>
<polyline fill="none" stroke="black" points="216,-951 354,-951 "/>
<text text-anchor="middle" x="285" y="-939" font-family="Helvetica,sans-Serif" font-size="10.00"> </text>
<polyline fill="none" stroke="black" points="216,-932 354,-932 "/>
<text text-anchor="middle" x="285" y="-920" font-family="Helvetica,sans-Serif" font-size="10.00"> </text>
</a>
</g>
</g>
<!-- Node10&#45;&gt;Node9 -->
<g id="edge10" class="edge">
<title>Node10&#45;&gt;Node9</title>
<path fill="none" stroke="midnightblue" d="M273.87,-903.01C269.55,-886.59 265.13,-867 263,-849 256.14,-791.11 261.16,-724.66 266.85,-677.75"/>
<polygon fill="none" stroke="midnightblue" points="270.53,-904.05 276.53,-912.78 277.28,-902.21 270.53,-904.05"/>
</g>
<!-- Node11 -->
<g id="node11" class="node">
<title>Node11</title>
<g id="a_node11"><a xlink:href="structPonca_1_1QueryOutputIsRange.html" target="_top" xlink:title="Base class for range queries.">
<polygon fill="white" stroke="black" points="271.5,-725.5 271.5,-848.5 424.5,-848.5 424.5,-725.5 271.5,-725.5"/>
<text text-anchor="start" x="279.5" y="-836.5" font-family="Helvetica,sans-Serif" font-size="10.00">Ponca::QueryOutputIsRange</text>
<text text-anchor="middle" x="348" y="-825.5" font-family="Helvetica,sans-Serif" font-size="10.00">&lt; Scalar &gt;</text>
<polyline fill="none" stroke="black" points="271.5,-818.5 424.5,-818.5 "/>
<text text-anchor="start" x="279.5" y="-806.5" font-family="Helvetica,sans-Serif" font-size="10.00"># m_squared_radius</text>
<polyline fill="none" stroke="black" points="271.5,-799.5 424.5,-799.5 "/>
<text text-anchor="start" x="279.5" y="-787.5" font-family="Helvetica,sans-Serif" font-size="10.00">+ QueryOutputIsRange()</text>
<text text-anchor="start" x="279.5" y="-776.5" font-family="Helvetica,sans-Serif" font-size="10.00">+ radius()</text>
<text text-anchor="start" x="279.5" y="-765.5" font-family="Helvetica,sans-Serif" font-size="10.00">+ squared_radius()</text>
<text text-anchor="start" x="279.5" y="-754.5" font-family="Helvetica,sans-Serif" font-size="10.00">+ set_radius()</text>
<text text-anchor="start" x="279.5" y="-743.5" font-family="Helvetica,sans-Serif" font-size="10.00">+ set_squared_radius()</text>
<text text-anchor="start" x="279.5" y="-732.5" font-family="Helvetica,sans-Serif" font-size="10.00"># reset()</text>
</a>
</g>
</g>
<!-- Node10&#45;&gt;Node11 -->
<g id="edge12" class="edge">
<title>Node10&#45;&gt;Node11</title>
<path fill="none" stroke="midnightblue" d="M300.25,-903.59C307.07,-887.09 315.28,-867.19 322.97,-848.6"/>
<polygon fill="none" stroke="midnightblue" points="296.99,-902.3 296.41,-912.88 303.46,-904.98 296.99,-902.3"/>
</g>
<!-- Node11&#45;&gt;Node9 -->
<g id="edge11" class="edge">
<title>Node11&#45;&gt;Node9</title>
<path fill="none" stroke="orange" d="M281.41,-716.67C279.76,-713.51 278.28,-710.28 277,-707 273.43,-697.83 271.55,-687.72 270.75,-677.69"/>
<polygon fill="orange" stroke="orange" points="278.43,-718.52 286.46,-725.43 284.49,-715.02 278.43,-718.52"/>
<text text-anchor="middle" x="332" y="-699" font-family="Helvetica,sans-Serif" font-size="10.00"> &lt; DataPoint::Scalar &gt;</text>
</g>
<!-- Node11&#45;&gt;Node16 -->
<g id="edge19" class="edge">
<title>Node11&#45;&gt;Node16</title>
<path fill="none" stroke="midnightblue" d="M384.32,-715.84C385.31,-712.89 386.21,-709.93 387,-707 407.5,-630.88 408.71,-538.33 407.21,-484.75"/>
<polygon fill="none" stroke="midnightblue" points="381.02,-714.65 380.87,-725.24 387.6,-717.06 381.02,-714.65"/>
</g>
<!-- Node12 -->
<g id="node12" class="node">
<title>Node12</title>
<g id="a_node12"><a xlink:href="structPonca_1_1Query.html" target="_top" xlink:title=" ">
<polygon fill="white" stroke="black" points="496.5,-576.5 496.5,-655.5 613.5,-655.5 613.5,-576.5 496.5,-576.5"/>
<text text-anchor="start" x="504.5" y="-643.5" font-family="Helvetica,sans-Serif" font-size="10.00">Ponca::Query&lt; Input</text>
<text text-anchor="middle" x="555" y="-632.5" font-family="Helvetica,sans-Serif" font-size="10.00">_, Output_ &gt;</text>
<polyline fill="none" stroke="black" points="496.5,-625.5 613.5,-625.5 "/>
<text text-anchor="middle" x="555" y="-613.5" font-family="Helvetica,sans-Serif" font-size="10.00"> </text>
<polyline fill="none" stroke="black" points="496.5,-606.5 613.5,-606.5 "/>
<text text-anchor="start" x="504.5" y="-594.5" font-family="Helvetica,sans-Serif" font-size="10.00">+ Query()</text>
<text text-anchor="start" x="504.5" y="-583.5" font-family="Helvetica,sans-Serif" font-size="10.00">+ Query()</text>
</a>
</g>
</g>
<!-- Node12&#45;&gt;Node4 -->
<g id="edge13" class="edge">
<title>Node12&#45;&gt;Node4</title>
<path fill="none" stroke="orange" d="M487.3,-578.87C435.04,-550.99 362.61,-512.33 307.58,-482.96"/>
<polygon fill="orange" stroke="orange" points="485.69,-581.98 496.16,-583.6 488.99,-575.81 485.69,-581.98"/>
<text text-anchor="start" x="401" y="-528" font-family="Helvetica,sans-Serif" font-size="10.00"> &lt; QueryInputIsIndex,</text>
<text text-anchor="start" x="401" y="-517" font-family="Helvetica,sans-Serif" font-size="10.00"> QueryOutputIsRange</text>
<text text-anchor="middle" x="460" y="-506" font-family="Helvetica,sans-Serif" font-size="10.00">&lt; DataPoint::Scalar &gt; &gt;</text>
</g>
<!-- Node12&#45;&gt;Node16 -->
<g id="edge20" class="edge">
<title>Node12&#45;&gt;Node16</title>
<path fill="none" stroke="orange" d="M565.35,-566.25C567.14,-545.16 565.31,-521.21 553,-503 537.22,-479.66 510.86,-465.01 484.71,-455.83"/>
<polygon fill="orange" stroke="orange" points="561.85,-566 564.2,-576.33 568.81,-566.79 561.85,-566"/>
<text text-anchor="start" x="564" y="-528" font-family="Helvetica,sans-Serif" font-size="10.00"> &lt; QueryInputIsIndex,</text>
<text text-anchor="start" x="564" y="-517" font-family="Helvetica,sans-Serif" font-size="10.00"> QueryOutputIsRange</text>
<text text-anchor="middle" x="617.5" y="-506" font-family="Helvetica,sans-Serif" font-size="10.00">&lt; Scalar &gt; &gt;</text>
</g>
<!-- Node13 -->
<g id="node13" class="node">
<title>Node13</title>
<g id="a_node13"><a xlink:title=" ">
<polygon fill="white" stroke="#bfbfbf" points="496.5,-758.5 496.5,-815.5 543.5,-815.5 543.5,-758.5 496.5,-758.5"/>
<text text-anchor="middle" x="520" y="-803.5" font-family="Helvetica,sans-Serif" font-size="10.00">Input_</text>
<polyline fill="none" stroke="#bfbfbf" points="496.5,-796.5 543.5,-796.5 "/>
<text text-anchor="middle" x="520" y="-784.5" font-family="Helvetica,sans-Serif" font-size="10.00"> </text>
<polyline fill="none" stroke="#bfbfbf" points="496.5,-777.5 543.5,-777.5 "/>
<text text-anchor="middle" x="520" y="-765.5" font-family="Helvetica,sans-Serif" font-size="10.00"> </text>
</a>
</g>
</g>
<!-- Node13&#45;&gt;Node12 -->
<g id="edge14" class="edge">
<title>Node13&#45;&gt;Node12</title>
<path fill="none" stroke="midnightblue" d="M527.79,-748.41C533.5,-720.79 541.25,-683.4 547.01,-655.56"/>
<polygon fill="none" stroke="midnightblue" points="524.3,-747.97 525.7,-758.47 531.16,-749.39 524.3,-747.97"/>
</g>
<!-- Node14 -->
<g id="node14" class="node">
<title>Node14</title>
<g id="a_node14"><a xlink:title=" ">
<polygon fill="white" stroke="#bfbfbf" points="561.5,-758.5 561.5,-815.5 616.5,-815.5 616.5,-758.5 561.5,-758.5"/>
<text text-anchor="middle" x="589" y="-803.5" font-family="Helvetica,sans-Serif" font-size="10.00">Output_</text>
<polyline fill="none" stroke="#bfbfbf" points="561.5,-796.5 616.5,-796.5 "/>
<text text-anchor="middle" x="589" y="-784.5" font-family="Helvetica,sans-Serif" font-size="10.00"> </text>
<polyline fill="none" stroke="#bfbfbf" points="561.5,-777.5 616.5,-777.5 "/>
<text text-anchor="middle" x="589" y="-765.5" font-family="Helvetica,sans-Serif" font-size="10.00"> </text>
</a>
</g>
</g>
<!-- Node14&#45;&gt;Node12 -->
<g id="edge15" class="edge">
<title>Node14&#45;&gt;Node12</title>
<path fill="none" stroke="midnightblue" d="M581.44,-748.41C575.88,-720.79 568.36,-683.4 562.76,-655.56"/>
<polygon fill="none" stroke="midnightblue" points="578.06,-749.36 583.46,-758.47 584.92,-747.98 578.06,-749.36"/>
</g>
<!-- Node15 -->
<g id="node15" class="node">
<title>Node15</title>
<g id="a_node15"><a xlink:href="structPonca_1_1RangeIndexQuery.html" target="_top" xlink:title="Base Query class combining QueryInputIsIndex and QueryOutputIsRange.">
<polygon fill="white" stroke="black" points="315.5,-288.5 315.5,-356.5 454.5,-356.5 454.5,-288.5 315.5,-288.5"/>
<text text-anchor="start" x="323.5" y="-344.5" font-family="Helvetica,sans-Serif" font-size="10.00">Ponca::RangeIndexQuery</text>
<text text-anchor="middle" x="385" y="-333.5" font-family="Helvetica,sans-Serif" font-size="10.00">&lt; Scalar &gt;</text>
<polyline fill="none" stroke="black" points="315.5,-326.5 454.5,-326.5 "/>
<text text-anchor="middle" x="385" y="-314.5" font-family="Helvetica,sans-Serif" font-size="10.00"> </text>
<polyline fill="none" stroke="black" points="315.5,-307.5 454.5,-307.5 "/>
<text text-anchor="middle" x="385" y="-295.5" font-family="Helvetica,sans-Serif" font-size="10.00"> </text>
</a>
</g>
</g>
<!-- Node15&#45;&gt;Node3 -->
<g id="edge16" class="edge">
<title>Node15&#45;&gt;Node3</title>
<path fill="none" stroke="orange" d="M356.8,-280.03C345.71,-263.72 333.15,-245.24 322.66,-229.82"/>
<polygon fill="orange" stroke="orange" points="353.93,-282.03 362.44,-288.33 359.72,-278.09 353.93,-282.03"/>
<text text-anchor="middle" x="402" y="-262" font-family="Helvetica,sans-Serif" font-size="10.00"> &lt; DataPoint::Scalar &gt;</text>
</g>
<!-- Node16&#45;&gt;Node15 -->
<g id="edge17" class="edge">
<title>Node16&#45;&gt;Node15</title>
<path fill="none" stroke="midnightblue" d="M395.56,-384.23C393.92,-374.8 392.26,-365.26 390.76,-356.62"/>
<polygon fill="none" stroke="midnightblue" points="392.16,-385.11 397.32,-394.37 399.06,-383.92 392.16,-385.11"/>
</g>
</g>
</svg>
