<?xml version="1.0" encoding="UTF-8" standalone="no"?>
<!DOCTYPE svg PUBLIC "-//W3C//DTD SVG 1.1//EN"
 "http://www.w3.org/Graphics/SVG/1.1/DTD/svg11.dtd">
<!-- Generated by graphviz version 2.43.0 (0)
 -->
<!-- Title: Ponca::MeanNormal&lt; DataPoint, _WFunctor, T &gt; Pages: 1 -->
<svg width="209pt" height="181pt"
 viewBox="0.00 0.00 209.00 181.00" xmlns="http://www.w3.org/2000/svg" xmlns:xlink="http://www.w3.org/1999/xlink">
<g id="graph0" class="graph" transform="scale(1 1) rotate(0) translate(4 177)">
<title>Ponca::MeanNormal&lt; DataPoint, _WFunctor, T &gt;</title>
<!-- Node1 -->
<g id="node1" class="node">
<title>Node1</title>
<g id="a_node1"><a xlink:title="Compute the barycenter of the input points + their normals.">
<polygon fill="#999999" stroke="#666666" points="201,-96 53,-96 53,0 201,0 201,-96"/>
<text text-anchor="start" x="61" y="-84" font-family="Helvetica,sans-Serif" font-size="10.00">{Ponca::MeanNormal&lt;</text>
<text text-anchor="middle" x="127" y="-73" font-family="Helvetica,sans-Serif" font-size="10.00"> DataPoint, _WFunctor, T &gt;</text>
<text text-anchor="start" x="61" y="-62" font-family="Helvetica,sans-Serif" font-size="10.00">|# m_sumN</text>
<text text-anchor="start" x="61" y="-51" font-family="Helvetica,sans-Serif" font-size="10.00">|+ meanNormal()</text>
<text text-anchor="start" x="61" y="-40" font-family="Helvetica,sans-Serif" font-size="10.00">+ meanNormal()</text>
<text text-anchor="start" x="61" y="-29" font-family="Helvetica,sans-Serif" font-size="10.00">+ init()</text>
<text text-anchor="start" x="61" y="-18" font-family="Helvetica,sans-Serif" font-size="10.00">+ addLocalNeighbor()</text>
<text text-anchor="middle" x="127" y="-7" font-family="Helvetica,sans-Serif" font-size="10.00">}</text>
</a>
</g>
</g>
<!-- Node2 -->
<g id="node2" class="node">
<title>Node2</title>
<g id="a_node2"><a xlink:title=" ">
<polygon fill="white" stroke="#bfbfbf" points="148,-173 0,-173 0,-132 148,-132 148,-173"/>
<text text-anchor="start" x="8" y="-161" font-family="Helvetica,sans-Serif" font-size="10.00">{Concept::FittingProcedure</text>
<text text-anchor="middle" x="74" y="-150" font-family="Helvetica,sans-Serif" font-size="10.00">Concept</text>
<text text-anchor="middle" x="74" y="-139" font-family="Helvetica,sans-Serif" font-size="10.00">||}</text>
</a>
</g>
</g>
<!-- Node2&#45;&gt;Node1 -->
<g id="edge1" class="edge">
<title>Node2&#45;&gt;Node1</title>
<path fill="none" stroke="#63b8ff" d="M88.93,-122.63C93.16,-114.44 97.89,-105.31 102.53,-96.33"/>
<polygon fill="none" stroke="#63b8ff" points="85.7,-121.25 84.22,-131.74 91.92,-124.46 85.7,-121.25"/>
</g>
<!-- Node3 -->
<g id="node3" class="node">
<title>Node3</title>
<g id="a_node3"><a xlink:title=" ">
<polygon fill="white" stroke="#bfbfbf" points="195.5,-167.5 166.5,-167.5 166.5,-137.5 195.5,-137.5 195.5,-167.5"/>
<text text-anchor="middle" x="181" y="-155.5" font-family="Helvetica,sans-Serif" font-size="10.00">{T</text>
<text text-anchor="middle" x="181" y="-144.5" font-family="Helvetica,sans-Serif" font-size="10.00">||}</text>
</a>
</g>
</g>
<!-- Node3&#45;&gt;Node1 -->
<g id="edge2" class="edge">
<title>Node3&#45;&gt;Node1</title>
<path fill="none" stroke="#63b8ff" d="M168.81,-128.37C163.76,-118.77 157.69,-107.26 151.78,-96.03"/>
<polygon fill="none" stroke="#63b8ff" points="165.73,-130.03 173.49,-137.25 171.93,-126.77 165.73,-130.03"/>
</g>
</g>
</svg>
