<?xml version="1.0" encoding="UTF-8" standalone="no"?>
<!DOCTYPE svg PUBLIC "-//W3C//DTD SVG 1.1//EN"
 "http://www.w3.org/Graphics/SVG/1.1/DTD/svg11.dtd">
<!-- Generated by graphviz version 2.43.0 (0)
 -->
<!-- Title: Ponca::KdTreeKNearestIndexQuery&lt; DataPoint &gt; Pages: 1 -->
<!--zoomable 1002 -->
<svg id="main" version="1.1" xmlns="http://www.w3.org/2000/svg" xmlns:xlink="http://www.w3.org/1999/xlink" xml:space="preserve" onload="init(evt)">
<style type="text/css"><![CDATA[
.edge:hover path { stroke: red; }
.edge:hover polygon { stroke: red; fill: red; }
]]></style>
<script type="text/javascript"><![CDATA[
var edges = document.getElementsByTagName('g');
if (edges && edges.length) {
  for (var i=0;i<edges.length;i++) {
    if (edges[i].id.substr(0,4)=='edge') {
      edges[i].setAttribute('class','edge');
    }
  }
}
]]></script>
        <defs>
                <circle id="rim" cx="0" cy="0" r="7"/>
                <circle id="rim2" cx="0" cy="0" r="3.5"/>
                <g id="zoomPlus">
                        <use xlink:href="#rim" fill="#404040">
                                <set attributeName="fill" to="#808080" begin="zoomplus.mouseover" end="zoomplus.mouseout"/>
                        </use>
                        <path d="M-4,0h8M0,-4v8" fill="none" stroke="white" stroke-width="1.5" pointer-events="none"/>
                </g>
                <g id="zoomMin">
                        <use xlink:href="#rim" fill="#404040">
                                <set attributeName="fill" to="#808080" begin="zoomminus.mouseover" end="zoomminus.mouseout"/>
                        </use>
                        <path d="M-4,0h8" fill="none" stroke="white" stroke-width="1.5" pointer-events="none"/>
                </g>
                <g id="dirArrow">
                        <path fill="none" stroke="white" stroke-width="1.5" d="M0,-3.0v7 M-2.5,-0.5L0,-3.0L2.5,-0.5"/>
                </g>
               <g id="resetDef">
                       <use xlink:href="#rim2" fill="#404040">
                               <set attributeName="fill" to="#808080" begin="reset.mouseover" end="reset.mouseout"/>
                       </use>
               </g>
        </defs>

<script type="text/javascript">
var viewWidth = 697;
var viewHeight = 1002;
var sectionId = 'dynsection-0';
</script>
<script xlink:href="svgpan.js"/>
<svg id="graph" class="graph">
<g id="viewport">
<title>Ponca::KdTreeKNearestIndexQuery&lt; DataPoint &gt;</title>
<polygon fill="white" stroke="transparent" points="-4,4 -4,-998 693,-998 693,4 -4,4"/>
<!-- Node1 -->
<g id="node1" class="node">
<title>Node1</title>
<g id="a_node1"><a xlink:title=" ">
<polygon fill="#bfbfbf" stroke="black" points="73,-0.5 73,-101.5 243,-101.5 243,-0.5 73,-0.5"/>
<text text-anchor="start" x="81" y="-89.5" font-family="Helvetica,sans-Serif" font-size="10.00">Ponca::KdTreeKNearestIndex</text>
<text text-anchor="middle" x="158" y="-78.5" font-family="Helvetica,sans-Serif" font-size="10.00">Query&lt; DataPoint &gt;</text>
<polyline fill="none" stroke="black" points="73,-71.5 243,-71.5 "/>
<text text-anchor="middle" x="158" y="-59.5" font-family="Helvetica,sans-Serif" font-size="10.00"> </text>
<polyline fill="none" stroke="black" points="73,-52.5 243,-52.5 "/>
<text text-anchor="start" x="81" y="-40.5" font-family="Helvetica,sans-Serif" font-size="10.00">+ KdTreeKNearestIndexQuery()</text>
<text text-anchor="start" x="81" y="-29.5" font-family="Helvetica,sans-Serif" font-size="10.00">+ begin()</text>
<text text-anchor="start" x="81" y="-18.5" font-family="Helvetica,sans-Serif" font-size="10.00">+ end()</text>
<text text-anchor="start" x="81" y="-7.5" font-family="Helvetica,sans-Serif" font-size="10.00"># search()</text>
</a>
</g>
</g>
<!-- Node2 -->
<g id="node2" class="node">
<title>Node2</title>
<g id="a_node2"><a xlink:href="classPonca_1_1KdTreeQuery.html" target="_top" xlink:title=" ">
<polygon fill="white" stroke="black" points="89,-139.5 89,-229.5 203,-229.5 203,-139.5 89,-139.5"/>
<text text-anchor="start" x="97" y="-217.5" font-family="Helvetica,sans-Serif" font-size="10.00">Ponca::KdTreeQuery</text>
<text text-anchor="middle" x="146" y="-206.5" font-family="Helvetica,sans-Serif" font-size="10.00">&lt; DataPoint &gt;</text>
<polyline fill="none" stroke="black" points="89,-199.5 203,-199.5 "/>
<text text-anchor="start" x="97" y="-187.5" font-family="Helvetica,sans-Serif" font-size="10.00"># m_kdtree</text>
<text text-anchor="start" x="97" y="-176.5" font-family="Helvetica,sans-Serif" font-size="10.00"># m_stack</text>
<polyline fill="none" stroke="black" points="89,-169.5 203,-169.5 "/>
<text text-anchor="start" x="97" y="-157.5" font-family="Helvetica,sans-Serif" font-size="10.00">+ KdTreeQuery()</text>
<text text-anchor="start" x="97" y="-146.5" font-family="Helvetica,sans-Serif" font-size="10.00"># reset()</text>
</a>
</g>
</g>
<!-- Node2&#45;&gt;Node1 -->
<g id="edge1" class="edge">
<title>Node2&#45;&gt;Node1</title>
<path fill="none" stroke="midnightblue" d="M150.95,-129.22C151.78,-120.11 152.64,-110.69 153.46,-101.7"/>
<polygon fill="none" stroke="midnightblue" points="147.45,-129.07 150.03,-139.35 154.42,-129.71 147.45,-129.07"/>
</g>
<!-- Node3 -->
<g id="node3" class="node">
<title>Node3</title>
<g id="a_node3"><a xlink:href="structPonca_1_1KNearestIndexQuery.html" target="_top" xlink:title=" ">
<polygon fill="white" stroke="black" points="221.5,-150.5 221.5,-218.5 374.5,-218.5 374.5,-150.5 221.5,-150.5"/>
<text text-anchor="start" x="229.5" y="-206.5" font-family="Helvetica,sans-Serif" font-size="10.00">Ponca::KNearestIndexQuery</text>
<text text-anchor="middle" x="298" y="-195.5" font-family="Helvetica,sans-Serif" font-size="10.00">&lt; DataPoint::Scalar &gt;</text>
<polyline fill="none" stroke="black" points="221.5,-188.5 374.5,-188.5 "/>
<text text-anchor="middle" x="298" y="-176.5" font-family="Helvetica,sans-Serif" font-size="10.00"> </text>
<polyline fill="none" stroke="black" points="221.5,-169.5 374.5,-169.5 "/>
<text text-anchor="middle" x="298" y="-157.5" font-family="Helvetica,sans-Serif" font-size="10.00"> </text>
</a>
</g>
</g>
<!-- Node3&#45;&gt;Node1 -->
<g id="edge2" class="edge">
<title>Node3&#45;&gt;Node1</title>
<path fill="none" stroke="midnightblue" d="M255.1,-143.2C241.11,-130.06 225.42,-115.32 210.79,-101.59"/>
<polygon fill="none" stroke="midnightblue" points="252.99,-146.02 262.67,-150.32 257.78,-140.92 252.99,-146.02"/>
</g>
<!-- Node4 -->
<g id="node4" class="node">
<title>Node4</title>
<g id="a_node4"><a xlink:href="structPonca_1_1Query.html" target="_top" xlink:title=" ">
<polygon fill="white" stroke="black" points="133.5,-383.5 133.5,-473.5 306.5,-473.5 306.5,-383.5 133.5,-383.5"/>
<text text-anchor="start" x="141.5" y="-461.5" font-family="Helvetica,sans-Serif" font-size="10.00">Ponca::Query&lt; QueryInput</text>
<text text-anchor="start" x="141.5" y="-450.5" font-family="Helvetica,sans-Serif" font-size="10.00">IsIndex, QueryOutputIsKNearest</text>
<text text-anchor="middle" x="220" y="-439.5" font-family="Helvetica,sans-Serif" font-size="10.00">&lt; DataPoint::Scalar &gt; &gt;</text>
<polyline fill="none" stroke="black" points="133.5,-432.5 306.5,-432.5 "/>
<text text-anchor="middle" x="220" y="-420.5" font-family="Helvetica,sans-Serif" font-size="10.00"> </text>
<polyline fill="none" stroke="black" points="133.5,-413.5 306.5,-413.5 "/>
<text text-anchor="start" x="141.5" y="-401.5" font-family="Helvetica,sans-Serif" font-size="10.00">+ Query()</text>
<text text-anchor="start" x="141.5" y="-390.5" font-family="Helvetica,sans-Serif" font-size="10.00">+ Query()</text>
</a>
</g>
</g>
<!-- Node4&#45;&gt;Node3 -->
<g id="edge3" class="edge">
<title>Node4&#45;&gt;Node3</title>
<path fill="none" stroke="midnightblue" d="M237.37,-373.6C252.65,-326.21 274.39,-258.74 287.27,-218.8"/>
<polygon fill="none" stroke="midnightblue" points="233.95,-372.8 234.22,-383.39 240.61,-374.95 233.95,-372.8"/>
</g>
<!-- Node5 -->
<g id="node5" class="node">
<title>Node5</title>
<g id="a_node5"><a xlink:href="structPonca_1_1QueryInputIsIndex.html" target="_top" xlink:title="Base class for queries storing points.">
<polygon fill="white" stroke="black" points="37.5,-560 37.5,-617 178.5,-617 178.5,-560 37.5,-560"/>
<text text-anchor="middle" x="108" y="-605" font-family="Helvetica,sans-Serif" font-size="10.00">Ponca::QueryInputIsIndex</text>
<polyline fill="none" stroke="black" points="37.5,-598 178.5,-598 "/>
<text text-anchor="middle" x="108" y="-586" font-family="Helvetica,sans-Serif" font-size="10.00"> </text>
<polyline fill="none" stroke="black" points="37.5,-579 178.5,-579 "/>
<text text-anchor="start" x="45.5" y="-567" font-family="Helvetica,sans-Serif" font-size="10.00">+ QueryInputIsIndex()</text>
</a>
</g>
</g>
<!-- Node5&#45;&gt;Node4 -->
<g id="edge4" class="edge">
<title>Node5&#45;&gt;Node4</title>
<path fill="none" stroke="midnightblue" d="M133.3,-551.8C149.71,-528.67 171.19,-498.36 188.67,-473.7"/>
<polygon fill="none" stroke="midnightblue" points="130.44,-549.8 127.51,-559.98 136.15,-553.84 130.44,-549.8"/>
</g>
<!-- Node16 -->
<g id="node16" class="node">
<title>Node16</title>
<g id="a_node16"><a xlink:href="structPonca_1_1Query.html" target="_top" xlink:title=" ">
<polygon fill="white" stroke="black" points="324.5,-383.5 324.5,-473.5 497.5,-473.5 497.5,-383.5 324.5,-383.5"/>
<text text-anchor="start" x="332.5" y="-461.5" font-family="Helvetica,sans-Serif" font-size="10.00">Ponca::Query&lt; QueryInput</text>
<text text-anchor="start" x="332.5" y="-450.5" font-family="Helvetica,sans-Serif" font-size="10.00">IsIndex, QueryOutputIsKNearest</text>
<text text-anchor="middle" x="411" y="-439.5" font-family="Helvetica,sans-Serif" font-size="10.00">&lt; Scalar &gt; &gt;</text>
<polyline fill="none" stroke="black" points="324.5,-432.5 497.5,-432.5 "/>
<text text-anchor="middle" x="411" y="-420.5" font-family="Helvetica,sans-Serif" font-size="10.00"> </text>
<polyline fill="none" stroke="black" points="324.5,-413.5 497.5,-413.5 "/>
<text text-anchor="start" x="332.5" y="-401.5" font-family="Helvetica,sans-Serif" font-size="10.00">+ Query()</text>
<text text-anchor="start" x="332.5" y="-390.5" font-family="Helvetica,sans-Serif" font-size="10.00">+ Query()</text>
</a>
</g>
</g>
<!-- Node5&#45;&gt;Node16 -->
<g id="edge18" class="edge">
<title>Node5&#45;&gt;Node16</title>
<path fill="none" stroke="midnightblue" d="M166.14,-554.83C173.48,-550.81 180.9,-546.78 188,-543 232.67,-519.22 282.87,-493.57 324.31,-472.69"/>
<polygon fill="none" stroke="midnightblue" points="163.99,-552.02 156.92,-559.91 167.37,-558.15 163.99,-552.02"/>
</g>
<!-- Node6 -->
<g id="node6" class="node">
<title>Node6</title>
<g id="a_node6"><a xlink:href="structPonca_1_1QueryInput.html" target="_top" xlink:title=" ">
<polygon fill="white" stroke="black" points="51,-687 51,-766 165,-766 165,-687 51,-687"/>
<text text-anchor="start" x="59" y="-754" font-family="Helvetica,sans-Serif" font-size="10.00">Ponca::QueryInput&lt;</text>
<text text-anchor="middle" x="108" y="-743" font-family="Helvetica,sans-Serif" font-size="10.00"> int &gt;</text>
<polyline fill="none" stroke="black" points="51,-736 165,-736 "/>
<text text-anchor="middle" x="108" y="-724" font-family="Helvetica,sans-Serif" font-size="10.00"> </text>
<polyline fill="none" stroke="black" points="51,-717 165,-717 "/>
<text text-anchor="start" x="59" y="-705" font-family="Helvetica,sans-Serif" font-size="10.00">+ QueryInput()</text>
<text text-anchor="start" x="59" y="-694" font-family="Helvetica,sans-Serif" font-size="10.00">+ input()</text>
</a>
</g>
</g>
<!-- Node6&#45;&gt;Node5 -->
<g id="edge5" class="edge">
<title>Node6&#45;&gt;Node5</title>
<path fill="none" stroke="midnightblue" d="M108,-676.73C108,-656.8 108,-634.47 108,-617.4"/>
<polygon fill="none" stroke="midnightblue" points="104.5,-676.89 108,-686.89 111.5,-676.89 104.5,-676.89"/>
</g>
<!-- Node7 -->
<g id="node7" class="node">
<title>Node7</title>
<g id="a_node7"><a xlink:href="structPonca_1_1QueryInputBase.html" target="_top" xlink:title="Base class for queries input type.">
<polygon fill="white" stroke="black" points="0,-936.5 0,-993.5 130,-993.5 130,-936.5 0,-936.5"/>
<text text-anchor="middle" x="65" y="-981.5" font-family="Helvetica,sans-Serif" font-size="10.00">Ponca::QueryInputBase</text>
<polyline fill="none" stroke="black" points="0,-974.5 130,-974.5 "/>
<text text-anchor="middle" x="65" y="-962.5" font-family="Helvetica,sans-Serif" font-size="10.00"> </text>
<polyline fill="none" stroke="black" points="0,-955.5 130,-955.5 "/>
<text text-anchor="middle" x="65" y="-943.5" font-family="Helvetica,sans-Serif" font-size="10.00"> </text>
</a>
</g>
</g>
<!-- Node7&#45;&gt;Node6 -->
<g id="edge6" class="edge">
<title>Node7&#45;&gt;Node6</title>
<path fill="none" stroke="midnightblue" d="M63.48,-926.12C63.1,-896.6 64.32,-854.77 72,-819 75.84,-801.14 82.75,-782.23 89.51,-766.26"/>
<polygon fill="none" stroke="midnightblue" points="59.99,-926.47 63.69,-936.4 66.99,-926.33 59.99,-926.47"/>
</g>
<!-- Node8 -->
<g id="node8" class="node">
<title>Node8</title>
<g id="a_node8"><a xlink:href="structPonca_1_1QueryInput.html" target="_top" xlink:title="Base class for typed queries input type.">
<polygon fill="white" stroke="black" points="81,-819.5 81,-898.5 195,-898.5 195,-819.5 81,-819.5"/>
<text text-anchor="start" x="89" y="-886.5" font-family="Helvetica,sans-Serif" font-size="10.00">Ponca::QueryInput&lt;</text>
<text text-anchor="middle" x="138" y="-875.5" font-family="Helvetica,sans-Serif" font-size="10.00"> InputType_ &gt;</text>
<polyline fill="none" stroke="black" points="81,-868.5 195,-868.5 "/>
<text text-anchor="middle" x="138" y="-856.5" font-family="Helvetica,sans-Serif" font-size="10.00"> </text>
<polyline fill="none" stroke="black" points="81,-849.5 195,-849.5 "/>
<text text-anchor="start" x="89" y="-837.5" font-family="Helvetica,sans-Serif" font-size="10.00">+ QueryInput()</text>
<text text-anchor="start" x="89" y="-826.5" font-family="Helvetica,sans-Serif" font-size="10.00">+ input()</text>
</a>
</g>
</g>
<!-- Node7&#45;&gt;Node8 -->
<g id="edge8" class="edge">
<title>Node7&#45;&gt;Node8</title>
<path fill="none" stroke="midnightblue" d="M90.29,-927.98C96.92,-918.52 104.11,-908.28 110.84,-898.69"/>
<polygon fill="none" stroke="midnightblue" points="87.25,-926.21 84.37,-936.4 92.98,-930.23 87.25,-926.21"/>
</g>
<!-- Node8&#45;&gt;Node6 -->
<g id="edge7" class="edge">
<title>Node8&#45;&gt;Node6</title>
<path fill="none" stroke="orange" d="M126.77,-809.15C123.52,-795.03 120.02,-779.81 116.94,-766.38"/>
<polygon fill="orange" stroke="orange" points="123.43,-810.24 129.08,-819.2 130.25,-808.67 123.43,-810.24"/>
<text text-anchor="middle" x="144.5" y="-793" font-family="Helvetica,sans-Serif" font-size="10.00"> &lt; int &gt;</text>
</g>
<!-- Node9 -->
<g id="node9" class="node">
<title>Node9</title>
<g id="a_node9"><a xlink:href="structPonca_1_1QueryOutputIsKNearest.html" target="_top" xlink:title=" ">
<polygon fill="white" stroke="black" points="196.5,-543.5 196.5,-633.5 363.5,-633.5 363.5,-543.5 196.5,-543.5"/>
<text text-anchor="start" x="204.5" y="-621.5" font-family="Helvetica,sans-Serif" font-size="10.00">Ponca::QueryOutputIsKNearest</text>
<text text-anchor="middle" x="280" y="-610.5" font-family="Helvetica,sans-Serif" font-size="10.00">&lt; DataPoint::Scalar &gt;</text>
<polyline fill="none" stroke="black" points="196.5,-603.5 363.5,-603.5 "/>
<text text-anchor="start" x="204.5" y="-591.5" font-family="Helvetica,sans-Serif" font-size="10.00"># m_queue</text>
<polyline fill="none" stroke="black" points="196.5,-584.5 363.5,-584.5 "/>
<text text-anchor="start" x="204.5" y="-572.5" font-family="Helvetica,sans-Serif" font-size="10.00">+ QueryOutputIsKNearest()</text>
<text text-anchor="start" x="204.5" y="-561.5" font-family="Helvetica,sans-Serif" font-size="10.00">+ queue()</text>
<text text-anchor="start" x="204.5" y="-550.5" font-family="Helvetica,sans-Serif" font-size="10.00"># reset()</text>
</a>
</g>
</g>
<!-- Node9&#45;&gt;Node4 -->
<g id="edge9" class="edge">
<title>Node9&#45;&gt;Node4</title>
<path fill="none" stroke="midnightblue" d="M259.7,-534.04C252.23,-514.36 243.85,-492.31 236.73,-473.55"/>
<polygon fill="none" stroke="midnightblue" points="256.46,-535.38 263.29,-543.49 263.01,-532.9 256.46,-535.38"/>
</g>
<!-- Node10 -->
<g id="node10" class="node">
<title>Node10</title>
<g id="a_node10"><a xlink:href="structPonca_1_1QueryOutputBase.html" target="_top" xlink:title="Base class for queries output type.">
<polygon fill="white" stroke="black" points="218,-830.5 218,-887.5 356,-887.5 356,-830.5 218,-830.5"/>
<text text-anchor="middle" x="287" y="-875.5" font-family="Helvetica,sans-Serif" font-size="10.00">Ponca::QueryOutputBase</text>
<polyline fill="none" stroke="black" points="218,-868.5 356,-868.5 "/>
<text text-anchor="middle" x="287" y="-856.5" font-family="Helvetica,sans-Serif" font-size="10.00"> </text>
<polyline fill="none" stroke="black" points="218,-849.5 356,-849.5 "/>
<text text-anchor="middle" x="287" y="-837.5" font-family="Helvetica,sans-Serif" font-size="10.00"> </text>
</a>
</g>
</g>
<!-- Node10&#45;&gt;Node9 -->
<g id="edge10" class="edge">
<title>Node10&#45;&gt;Node9</title>
<path fill="none" stroke="midnightblue" d="M275.78,-820.52C271.85,-805.58 267.94,-788.12 266,-772 260.34,-724.99 266.01,-670.88 271.74,-633.86"/>
<polygon fill="none" stroke="midnightblue" points="272.47,-821.7 278.48,-830.42 279.23,-819.86 272.47,-821.7"/>
</g>
<!-- Node11 -->
<g id="node11" class="node">
<title>Node11</title>
<g id="a_node11"><a xlink:href="structPonca_1_1QueryOutputIsKNearest.html" target="_top" xlink:title="Base class for knearest queries.">
<polygon fill="white" stroke="black" points="274.5,-681.5 274.5,-771.5 441.5,-771.5 441.5,-681.5 274.5,-681.5"/>
<text text-anchor="start" x="282.5" y="-759.5" font-family="Helvetica,sans-Serif" font-size="10.00">Ponca::QueryOutputIsKNearest</text>
<text text-anchor="middle" x="358" y="-748.5" font-family="Helvetica,sans-Serif" font-size="10.00">&lt; Scalar &gt;</text>
<polyline fill="none" stroke="black" points="274.5,-741.5 441.5,-741.5 "/>
<text text-anchor="start" x="282.5" y="-729.5" font-family="Helvetica,sans-Serif" font-size="10.00"># m_queue</text>
<polyline fill="none" stroke="black" points="274.5,-722.5 441.5,-722.5 "/>
<text text-anchor="start" x="282.5" y="-710.5" font-family="Helvetica,sans-Serif" font-size="10.00">+ QueryOutputIsKNearest()</text>
<text text-anchor="start" x="282.5" y="-699.5" font-family="Helvetica,sans-Serif" font-size="10.00">+ queue()</text>
<text text-anchor="start" x="282.5" y="-688.5" font-family="Helvetica,sans-Serif" font-size="10.00"># reset()</text>
</a>
</g>
</g>
<!-- Node10&#45;&gt;Node11 -->
<g id="edge12" class="edge">
<title>Node10&#45;&gt;Node11</title>
<path fill="none" stroke="midnightblue" d="M307.07,-821.11C315.46,-805.7 325.26,-787.67 334.02,-771.57"/>
<polygon fill="none" stroke="midnightblue" points="303.76,-819.87 302.06,-830.32 309.91,-823.21 303.76,-819.87"/>
</g>
<!-- Node11&#45;&gt;Node9 -->
<g id="edge11" class="edge">
<title>Node11&#45;&gt;Node9</title>
<path fill="none" stroke="orange" d="M286.84,-672.98C284.64,-669.79 282.68,-666.46 281,-663 276.66,-654.04 274.87,-643.72 274.48,-633.7"/>
<polygon fill="orange" stroke="orange" points="284.26,-675.37 293.15,-681.14 289.8,-671.09 284.26,-675.37"/>
<text text-anchor="middle" x="336" y="-655" font-family="Helvetica,sans-Serif" font-size="10.00"> &lt; DataPoint::Scalar &gt;</text>
</g>
<!-- Node11&#45;&gt;Node16 -->
<g id="edge19" class="edge">
<title>Node11&#45;&gt;Node16</title>
<path fill="none" stroke="midnightblue" d="M387.98,-671.93C389.11,-668.95 390.13,-665.97 391,-663 409.74,-599.17 412.7,-521.63 412.39,-473.93"/>
<polygon fill="none" stroke="midnightblue" points="384.67,-670.77 384.04,-681.35 391.13,-673.47 384.67,-670.77"/>
</g>
<!-- Node12 -->
<g id="node12" class="node">
<title>Node12</title>
<g id="a_node12"><a xlink:href="structPonca_1_1Query.html" target="_top" xlink:title=" ">
<polygon fill="white" stroke="black" points="507.5,-549 507.5,-628 624.5,-628 624.5,-549 507.5,-549"/>
<text text-anchor="start" x="515.5" y="-616" font-family="Helvetica,sans-Serif" font-size="10.00">Ponca::Query&lt; Input</text>
<text text-anchor="middle" x="566" y="-605" font-family="Helvetica,sans-Serif" font-size="10.00">_, Output_ &gt;</text>
<polyline fill="none" stroke="black" points="507.5,-598 624.5,-598 "/>
<text text-anchor="middle" x="566" y="-586" font-family="Helvetica,sans-Serif" font-size="10.00"> </text>
<polyline fill="none" stroke="black" points="507.5,-579 624.5,-579 "/>
<text text-anchor="start" x="515.5" y="-567" font-family="Helvetica,sans-Serif" font-size="10.00">+ Query()</text>
<text text-anchor="start" x="515.5" y="-556" font-family="Helvetica,sans-Serif" font-size="10.00">+ Query()</text>
</a>
</g>
</g>
<!-- Node12&#45;&gt;Node4 -->
<g id="edge13" class="edge">
<title>Node12&#45;&gt;Node4</title>
<path fill="none" stroke="orange" d="M498.19,-556.89C447.86,-534.13 377.59,-502.25 316,-474 312.91,-472.58 309.77,-471.14 306.59,-469.68"/>
<polygon fill="orange" stroke="orange" points="496.79,-560.1 507.35,-561.03 499.68,-553.72 496.79,-560.1"/>
<text text-anchor="start" x="425" y="-517" font-family="Helvetica,sans-Serif" font-size="10.00"> &lt; QueryInputIsIndex,</text>
<text text-anchor="start" x="425" y="-506" font-family="Helvetica,sans-Serif" font-size="10.00"> QueryOutputIsKNearest</text>
<text text-anchor="middle" x="484.5" y="-495" font-family="Helvetica,sans-Serif" font-size="10.00">&lt; DataPoint::Scalar &gt; &gt;</text>
</g>
<!-- Node12&#45;&gt;Node16 -->
<g id="edge20" class="edge">
<title>Node12&#45;&gt;Node16</title>
<path fill="none" stroke="orange" d="M571.55,-538.58C571,-522.46 567.6,-505.27 558,-492 543.37,-471.78 520.86,-458.05 497.82,-448.75"/>
<polygon fill="orange" stroke="orange" points="568.05,-538.97 571.53,-548.98 575.05,-538.98 568.05,-538.97"/>
<text text-anchor="start" x="570" y="-517" font-family="Helvetica,sans-Serif" font-size="10.00"> &lt; QueryInputIsIndex,</text>
<text text-anchor="start" x="570" y="-506" font-family="Helvetica,sans-Serif" font-size="10.00"> QueryOutputIsKNearest</text>
<text text-anchor="middle" x="629.5" y="-495" font-family="Helvetica,sans-Serif" font-size="10.00">&lt; Scalar &gt; &gt;</text>
</g>
<!-- Node13 -->
<g id="node13" class="node">
<title>Node13</title>
<g id="a_node13"><a xlink:title=" ">
<polygon fill="white" stroke="#bfbfbf" points="507.5,-698 507.5,-755 554.5,-755 554.5,-698 507.5,-698"/>
<text text-anchor="middle" x="531" y="-743" font-family="Helvetica,sans-Serif" font-size="10.00">Input_</text>
<polyline fill="none" stroke="#bfbfbf" points="507.5,-736 554.5,-736 "/>
<text text-anchor="middle" x="531" y="-724" font-family="Helvetica,sans-Serif" font-size="10.00"> </text>
<polyline fill="none" stroke="#bfbfbf" points="507.5,-717 554.5,-717 "/>
<text text-anchor="middle" x="531" y="-705" font-family="Helvetica,sans-Serif" font-size="10.00"> </text>
</a>
</g>
</g>
<!-- Node13&#45;&gt;Node12 -->
<g id="edge14" class="edge">
<title>Node13&#45;&gt;Node12</title>
<path fill="none" stroke="midnightblue" d="M540.64,-688.06C545.44,-669.4 551.24,-646.87 556.08,-628.06"/>
<polygon fill="none" stroke="midnightblue" points="537.19,-687.42 538.08,-697.98 543.96,-689.17 537.19,-687.42"/>
</g>
<!-- Node14 -->
<g id="node14" class="node">
<title>Node14</title>
<g id="a_node14"><a xlink:title=" ">
<polygon fill="white" stroke="#bfbfbf" points="572.5,-698 572.5,-755 627.5,-755 627.5,-698 572.5,-698"/>
<text text-anchor="middle" x="600" y="-743" font-family="Helvetica,sans-Serif" font-size="10.00">Output_</text>
<polyline fill="none" stroke="#bfbfbf" points="572.5,-736 627.5,-736 "/>
<text text-anchor="middle" x="600" y="-724" font-family="Helvetica,sans-Serif" font-size="10.00"> </text>
<polyline fill="none" stroke="#bfbfbf" points="572.5,-717 627.5,-717 "/>
<text text-anchor="middle" x="600" y="-705" font-family="Helvetica,sans-Serif" font-size="10.00"> </text>
</a>
</g>
</g>
<!-- Node14&#45;&gt;Node12 -->
<g id="edge15" class="edge">
<title>Node14&#45;&gt;Node12</title>
<path fill="none" stroke="midnightblue" d="M590.64,-688.06C585.98,-669.4 580.34,-646.87 575.64,-628.06"/>
<polygon fill="none" stroke="midnightblue" points="587.3,-689.13 593.12,-697.98 594.09,-687.43 587.3,-689.13"/>
</g>
<!-- Node15 -->
<g id="node15" class="node">
<title>Node15</title>
<g id="a_node15"><a xlink:href="structPonca_1_1KNearestIndexQuery.html" target="_top" xlink:title="Base Query class combining QueryInputIsIndex and QueryOutputIsKNearest.">
<polygon fill="white" stroke="black" points="312.5,-277.5 312.5,-345.5 465.5,-345.5 465.5,-277.5 312.5,-277.5"/>
<text text-anchor="start" x="320.5" y="-333.5" font-family="Helvetica,sans-Serif" font-size="10.00">Ponca::KNearestIndexQuery</text>
<text text-anchor="middle" x="389" y="-322.5" font-family="Helvetica,sans-Serif" font-size="10.00">&lt; Scalar &gt;</text>
<polyline fill="none" stroke="black" points="312.5,-315.5 465.5,-315.5 "/>
<text text-anchor="middle" x="389" y="-303.5" font-family="Helvetica,sans-Serif" font-size="10.00"> </text>
<polyline fill="none" stroke="black" points="312.5,-296.5 465.5,-296.5 "/>
<text text-anchor="middle" x="389" y="-284.5" font-family="Helvetica,sans-Serif" font-size="10.00"> </text>
</a>
</g>
</g>
<!-- Node15&#45;&gt;Node3 -->
<g id="edge16" class="edge">
<title>Node15&#45;&gt;Node3</title>
<path fill="none" stroke="orange" d="M358.81,-269.03C346.93,-252.72 333.48,-234.24 322.26,-218.82"/>
<polygon fill="orange" stroke="orange" points="356.14,-271.31 364.85,-277.33 361.8,-267.19 356.14,-271.31"/>
<text text-anchor="middle" x="403" y="-251" font-family="Helvetica,sans-Serif" font-size="10.00"> &lt; DataPoint::Scalar &gt;</text>
</g>
<!-- Node16&#45;&gt;Node15 -->
<g id="edge17" class="edge">
<title>Node16&#45;&gt;Node15</title>
<path fill="none" stroke="midnightblue" d="M400.68,-373.53C398.85,-364.01 397.01,-354.35 395.34,-345.62"/>
<polygon fill="none" stroke="midnightblue" points="397.24,-374.2 402.56,-383.37 404.12,-372.89 397.24,-374.2"/>
</g>
</g>
</svg>
        <g id="navigator" transform="translate(0 0)" fill="#404254">
                <rect fill="#f2f5e9" fill-opacity="0.5" stroke="#606060" stroke-width=".5" x="0" y="0" width="60" height="60"/>
                <use id="zoomplus" xlink:href="#zoomPlus" x="17" y="9" onmousedown="handleZoom(evt,'in')"/>
                <use id="zoomminus" xlink:href="#zoomMin" x="42" y="9" onmousedown="handleZoom(evt,'out')"/>
                <use id="reset" xlink:href="#resetDef" x="30" y="36" onmousedown="handleReset()"/>
                <g id="arrowUp" xlink:href="#dirArrow" transform="translate(30 24)" onmousedown="handlePan(0,-1)">
                  <use xlink:href="#rim" fill="#404040">
                        <set attributeName="fill" to="#808080" begin="arrowUp.mouseover" end="arrowUp.mouseout"/>
                  </use>
                  <path fill="none" stroke="white" stroke-width="1.5" d="M0,-3.0v7 M-2.5,-0.5L0,-3.0L2.5,-0.5"/>
                </g>
                <g id="arrowRight" xlink:href="#dirArrow" transform="rotate(90) translate(36 -43)" onmousedown="handlePan(1,0)">
                  <use xlink:href="#rim" fill="#404040">
                        <set attributeName="fill" to="#808080" begin="arrowRight.mouseover" end="arrowRight.mouseout"/>
                  </use>
                  <path fill="none" stroke="white" stroke-width="1.5" d="M0,-3.0v7 M-2.5,-0.5L0,-3.0L2.5,-0.5"/>
                </g>
                <g id="arrowDown" xlink:href="#dirArrow" transform="rotate(180) translate(-30 -48)" onmousedown="handlePan(0,1)">
                  <use xlink:href="#rim" fill="#404040">
                        <set attributeName="fill" to="#808080" begin="arrowDown.mouseover" end="arrowDown.mouseout"/>
                  </use>
                  <path fill="none" stroke="white" stroke-width="1.5" d="M0,-3.0v7 M-2.5,-0.5L0,-3.0L2.5,-0.5"/>
                </g>
                <g id="arrowLeft" xlink:href="#dirArrow" transform="rotate(270) translate(-36 17)" onmousedown="handlePan(-1,0)">
                  <use xlink:href="#rim" fill="#404040">
                        <set attributeName="fill" to="#808080" begin="arrowLeft.mouseover" end="arrowLeft.mouseout"/>
                  </use>
                  <path fill="none" stroke="white" stroke-width="1.5" d="M0,-3.0v7 M-2.5,-0.5L0,-3.0L2.5,-0.5"/>
                </g>
        </g>
        <svg viewBox="0 0 15 15" width="100%" height="30px" preserveAspectRatio="xMaxYMin meet">
         <g id="arrow_out" transform="scale(0.3 0.3)">
          <a xlink:href="classPonca_1_1KdTreeKNearestIndexQuery__inherit__graph_org.svg" target="_base">
           <rect id="button" ry="5" rx="5" y="6" x="6" height="38" width="38"
                fill="#f2f5e9" fill-opacity="0.5" stroke="#606060" stroke-width="1.0"/>
           <path id="arrow"
             d="M 11.500037,31.436501 C 11.940474,20.09759 22.043105,11.32322 32.158766,21.979434 L 37.068811,17.246167 C 37.068811,17.246167 37.088388,32 37.088388,32 L 22.160133,31.978069 C 22.160133,31.978069 26.997745,27.140456 26.997745,27.140456 C 18.528582,18.264221 13.291696,25.230495 11.500037,31.436501 z"
             style="fill:#404040;"/>
          </a>
         </g>
        </svg>
</svg>
