<?xml version="1.0" encoding="UTF-8" standalone="no"?>
<!DOCTYPE svg PUBLIC "-//W3C//DTD SVG 1.1//EN"
 "http://www.w3.org/Graphics/SVG/1.1/DTD/svg11.dtd">
<!-- Generated by graphviz version 2.43.0 (0)
 -->
<!-- Title: Ponca::KdTreeKNearestQueryBase&lt; Traits, IteratorType, QueryType &gt; Pages: 1 -->
<svg width="196pt" height="265pt"
 viewBox="0.00 0.00 196.00 265.00" xmlns="http://www.w3.org/2000/svg" xmlns:xlink="http://www.w3.org/1999/xlink">

<svg id="main" version="1.1" xmlns="http://www.w3.org/2000/svg" xmlns:xlink="http://www.w3.org/1999/xlink" xml:space="preserve" onload="init(evt)">
<style type="text/css"><![CDATA[
.node, .edge {opacity: 0.7;}
.node.selected, .edge.selected {opacity: 1;}
.edge:hover path { stroke: red; }
.edge:hover polygon { stroke: red; fill: red; }
]]></style>
<script type="application/ecmascript" xlink:href="svg.min.js"/>
<svg id="graph" class="graph">
<g id="graph0" class="graph" transform="scale(1 1) rotate(0) translate(4 261)">
<title>Ponca::KdTreeKNearestQueryBase&lt; Traits, IteratorType, QueryType &gt;</title>
<!-- Node1 -->
<g id="Node000001" class="node">
<title>Node1</title>
<g id="a_Node000001"><a xlink:title=" ">
<polygon fill="#999999" stroke="transparent" points="185,-116 25,-116 25,0 185,0 185,-116"/>
<text text-anchor="start" x="33.5" y="-104" font-family="Helvetica,sans-Serif" font-size="10.00">Ponca::KdTreeKNearestQuery</text>
<text text-anchor="start" x="33.5" y="-93" font-family="Helvetica,sans-Serif" font-size="10.00">Base&lt; Traits, IteratorType,</text>
<text text-anchor="start" x="71.5" y="-82" font-family="Helvetica,sans-Serif" font-size="10.00"> QueryType &gt;</text>
<text text-anchor="start" x="103" y="-67" font-family="Helvetica,sans-Serif" font-size="10.00"> </text>
<text text-anchor="start" x="29" y="-52" font-family="Helvetica,sans-Serif" font-size="10.00">+</text>
<text text-anchor="start" x="42" y="-52" font-family="Helvetica,sans-Serif" font-size="10.00">KdTreeKNearestQueryBase()</text>
<text text-anchor="start" x="29" y="-37" font-family="Helvetica,sans-Serif" font-size="10.00">+</text>
<text text-anchor="start" x="42" y="-37" font-family="Helvetica,sans-Serif" font-size="10.00">begin()</text>
<text text-anchor="start" x="29" y="-22" font-family="Helvetica,sans-Serif" font-size="10.00">+</text>
<text text-anchor="start" x="42" y="-22" font-family="Helvetica,sans-Serif" font-size="10.00">end()</text>
<text text-anchor="start" x="29" y="-7" font-family="Helvetica,sans-Serif" font-size="10.00">#</text>
<text text-anchor="start" x="42" y="-7" font-family="Helvetica,sans-Serif" font-size="10.00">search()</text>
<polygon fill="#666666" stroke="#666666" points="25,-77 25,-77 185,-77 185,-77 25,-77"/>
<polygon fill="#666666" stroke="#666666" points="25,-62 25,-62 185,-62 185,-62 25,-62"/>
<polygon fill="none" stroke="#666666" points="25,0 25,-116 185,-116 185,0 25,0"/>
</a>
</g>
</g>
<!-- Node2 -->
<g id="Node000002" class="node">
<title>Node2</title>
<g id="a_Node000002"><a xlink:href="classPonca_1_1KdTreeQuery.html" target="_top" xlink:title=" ">
<polygon fill="white" stroke="transparent" points="108,-257 0,-257 0,-152 108,-152 108,-257"/>
<text text-anchor="start" x="5" y="-244.5" font-family="Helvetica,sans-Serif" font-size="10.00">Ponca::KdTreeQuery</text>
<text text-anchor="start" x="29.5" y="-233.5" font-family="Helvetica,sans-Serif" font-size="10.00">&lt; Traits &gt;</text>
<text text-anchor="start" x="5" y="-218.5" font-family="Helvetica,sans-Serif" font-size="10.00">#</text>
<text text-anchor="start" x="19" y="-218.5" font-family="Helvetica,sans-Serif" font-size="10.00">m_kdtree</text>
<text text-anchor="start" x="5" y="-203.5" font-family="Helvetica,sans-Serif" font-size="10.00">#</text>
<text text-anchor="start" x="19" y="-203.5" font-family="Helvetica,sans-Serif" font-size="10.00">m_stack</text>
<text text-anchor="start" x="5" y="-188.5" font-family="Helvetica,sans-Serif" font-size="10.00">+</text>
<text text-anchor="start" x="19" y="-188.5" font-family="Helvetica,sans-Serif" font-size="10.00">KdTreeQuery()</text>
<text text-anchor="start" x="5" y="-173.5" font-family="Helvetica,sans-Serif" font-size="10.00">#</text>
<text text-anchor="start" x="19" y="-173.5" font-family="Helvetica,sans-Serif" font-size="10.00">reset()</text>
<text text-anchor="start" x="5" y="-158.5" font-family="Helvetica,sans-Serif" font-size="10.00">#</text>
<text text-anchor="start" x="19" y="-158.5" font-family="Helvetica,sans-Serif" font-size="10.00">search_internal()</text>
<polygon fill="#bfbfbf" stroke="#bfbfbf" points="0,-228.5 0,-228.5 108,-228.5 108,-228.5 0,-228.5"/>
<polygon fill="#bfbfbf" stroke="#bfbfbf" points="0,-198.5 0,-198.5 17,-198.5 17,-198.5 0,-198.5"/>
<polygon fill="#bfbfbf" stroke="#bfbfbf" points="17,-198.5 17,-198.5 108,-198.5 108,-198.5 17,-198.5"/>
<polygon fill="none" stroke="#bfbfbf" points="0,-152 0,-257 108,-257 108,-152 0,-152"/>
</a>
</g>
</g>
<!-- Node2&#45;&gt;Node1 -->
<g id="edge1_Node000001_Node000002" class="edge">
<title>Node2&#45;&gt;Node1</title>
<g id="a_edge1_Node000001_Node000002"><a xlink:title=" ">
<path fill="none" stroke="#63b8ff" d="M75.65,-142.16C78.68,-133.58 81.78,-124.79 84.78,-116.28"/>
<polygon fill="none" stroke="#63b8ff" points="72.3,-141.15 72.27,-151.74 78.9,-143.48 72.3,-141.15"/>
</a>
</g>
</g>
<!-- Node3 -->
<g id="Node000003" class="node">
<title>Node3</title>
<g id="a_Node000003"><a xlink:title=" ">
<polygon fill="white" stroke="transparent" points="188,-229 126,-229 126,-180 188,-180 188,-229"/>
<text text-anchor="start" x="131" y="-216.5" font-family="Helvetica,sans-Serif" font-size="10.00">QueryType</text>
<text text-anchor="start" x="155" y="-201.5" font-family="Helvetica,sans-Serif" font-size="10.00"> </text>
<text text-anchor="start" x="155" y="-186.5" font-family="Helvetica,sans-Serif" font-size="10.00"> </text>
<polygon fill="#bfbfbf" stroke="#bfbfbf" points="126,-211.5 126,-211.5 188,-211.5 188,-211.5 126,-211.5"/>
<polygon fill="#bfbfbf" stroke="#bfbfbf" points="126,-196.5 126,-196.5 188,-196.5 188,-196.5 126,-196.5"/>
<polygon fill="none" stroke="#bfbfbf" points="126,-180 126,-229 188,-229 188,-180 126,-180"/>
</a>
</g>
</g>
<!-- Node3&#45;&gt;Node1 -->
<g id="edge2_Node000001_Node000003" class="edge">
<title>Node3&#45;&gt;Node1</title>
<g id="a_edge2_Node000001_Node000003"><a xlink:title=" ">
<path fill="none" stroke="#63b8ff" d="M145.12,-170.48C139.34,-154.42 132.22,-134.64 125.59,-116.22"/>
<polygon fill="none" stroke="#63b8ff" points="141.85,-171.74 148.53,-179.96 148.44,-169.37 141.85,-171.74"/>
</a>
</g>
</g>
</g>
</svg>
</svg>

<style type='text/css'>
<![CDATA[
[data-mouse-over-selected='false'] { opacity: 0.7; }
[data-mouse-over-selected='true']  { opacity: 1.0; }
]]>
</style>
<script type="application/ecmascript"><![CDATA[
document.addEventListener('DOMContentLoaded', (event) => {
  highlightEdges();
  highlightAdjacentNodes();
});
]]></script>
</svg>
