<?xml version="1.0" encoding="UTF-8" standalone="no"?>
<!DOCTYPE svg PUBLIC "-//W3C//DTD SVG 1.1//EN"
 "http://www.w3.org/Graphics/SVG/1.1/DTD/svg11.dtd">
<!-- Generated by graphviz version 2.43.0 (0)
 -->
<!-- Title: Ponca::Concept::FittingProcedureConcept&lt; DataPoint, _WFunctor, T &gt; Pages: 1 -->
<!--zoomable 380 -->
<svg id="main" version="1.1" xmlns="http://www.w3.org/2000/svg" xmlns:xlink="http://www.w3.org/1999/xlink" xml:space="preserve" onload="init(evt)">
<style type="text/css"><![CDATA[
.edge:hover path { stroke: red; }
.edge:hover polygon { stroke: red; fill: red; }
]]></style>
<script type="text/javascript"><![CDATA[
var edges = document.getElementsByTagName('g');
if (edges && edges.length) {
  for (var i=0;i<edges.length;i++) {
    if (edges[i].id.substr(0,4)=='edge') {
      edges[i].setAttribute('class','edge');
    }
  }
}
]]></script>
        <defs>
                <circle id="rim" cx="0" cy="0" r="7"/>
                <circle id="rim2" cx="0" cy="0" r="3.5"/>
                <g id="zoomPlus">
                        <use xlink:href="#rim" fill="#404040">
                                <set attributeName="fill" to="#808080" begin="zoomplus.mouseover" end="zoomplus.mouseout"/>
                        </use>
                        <path d="M-4,0h8M0,-4v8" fill="none" stroke="white" stroke-width="1.5" pointer-events="none"/>
                </g>
                <g id="zoomMin">
                        <use xlink:href="#rim" fill="#404040">
                                <set attributeName="fill" to="#808080" begin="zoomminus.mouseover" end="zoomminus.mouseout"/>
                        </use>
                        <path d="M-4,0h8" fill="none" stroke="white" stroke-width="1.5" pointer-events="none"/>
                </g>
                <g id="dirArrow">
                        <path fill="none" stroke="white" stroke-width="1.5" d="M0,-3.0v7 M-2.5,-0.5L0,-3.0L2.5,-0.5"/>
                </g>
               <g id="resetDef">
                       <use xlink:href="#rim2" fill="#404040">
                               <set attributeName="fill" to="#808080" begin="reset.mouseover" end="reset.mouseout"/>
                       </use>
               </g>
        </defs>

<script type="text/javascript">
var viewWidth = 1200;
var viewHeight = 380;
var sectionId = 'dynsection-0';
</script>
<script xlink:href="svgpan.js"/>
<svg id="graph" class="graph">
<g id="viewport">
<title>Ponca::Concept::FittingProcedureConcept&lt; DataPoint, _WFunctor, T &gt;</title>
<polygon fill="white" stroke="transparent" points="-4,4 -4,-376 1196,-376 1196,4 -4,4"/>
<!-- Node1 -->
<g id="node1" class="node">
<title>Node1</title>
<g id="a_node1"><a xlink:title="Describes the procedure to fit a primitive to point samples.">
<polygon fill="#bfbfbf" stroke="black" points="490,-270.5 490,-371.5 686,-371.5 686,-270.5 490,-270.5"/>
<text text-anchor="start" x="498" y="-359.5" font-family="Helvetica,sans-Serif" font-size="10.00">Ponca::Concept::FittingProcedure</text>
<text text-anchor="middle" x="588" y="-348.5" font-family="Helvetica,sans-Serif" font-size="10.00">Concept&lt; DataPoint, _WFunctor, T &gt;</text>
<polyline fill="none" stroke="black" points="490,-341.5 686,-341.5 "/>
<text text-anchor="middle" x="588" y="-329.5" font-family="Helvetica,sans-Serif" font-size="10.00"> </text>
<polyline fill="none" stroke="black" points="490,-322.5 686,-322.5 "/>
<text text-anchor="start" x="498" y="-310.5" font-family="Helvetica,sans-Serif" font-size="10.00">+ setWeightFunc()</text>
<text text-anchor="start" x="498" y="-299.5" font-family="Helvetica,sans-Serif" font-size="10.00">+ init()</text>
<text text-anchor="start" x="498" y="-288.5" font-family="Helvetica,sans-Serif" font-size="10.00">+ addNeighbor()</text>
<text text-anchor="start" x="498" y="-277.5" font-family="Helvetica,sans-Serif" font-size="10.00">+ finalize()</text>
</a>
</g>
</g>
<!-- Node2 -->
<g id="node2" class="node">
<title>Node2</title>
<g id="a_node2"><a xlink:href="classPonca_1_1CovarianceLineFit.html" target="_top" xlink:title="Line fitting procedure that minimize the orthogonal distance between the samples and the fitted primi...">
<polygon fill="white" stroke="black" points="0,-28 0,-206 156,-206 156,-28 0,-28"/>
<text text-anchor="start" x="8" y="-194" font-family="Helvetica,sans-Serif" font-size="10.00">Ponca::CovarianceLineFit</text>
<text text-anchor="middle" x="78" y="-183" font-family="Helvetica,sans-Serif" font-size="10.00">&lt; DataPoint, _WFunctor, T &gt;</text>
<polyline fill="none" stroke="black" points="0,-176 156,-176 "/>
<text text-anchor="start" x="8" y="-164" font-family="Helvetica,sans-Serif" font-size="10.00"># m_sum</text>
<text text-anchor="start" x="8" y="-153" font-family="Helvetica,sans-Serif" font-size="10.00"># m_cog</text>
<text text-anchor="start" x="8" y="-142" font-family="Helvetica,sans-Serif" font-size="10.00"># m_cov</text>
<text text-anchor="start" x="8" y="-131" font-family="Helvetica,sans-Serif" font-size="10.00"># m_solver</text>
<text text-anchor="start" x="8" y="-120" font-family="Helvetica,sans-Serif" font-size="10.00"># m_w</text>
<polyline fill="none" stroke="black" points="0,-113 156,-113 "/>
<text text-anchor="start" x="8" y="-101" font-family="Helvetica,sans-Serif" font-size="10.00">+ CovarianceLineFit()</text>
<text text-anchor="start" x="8" y="-90" font-family="Helvetica,sans-Serif" font-size="10.00">+ leastSquareLine()</text>
<text text-anchor="start" x="8" y="-79" font-family="Helvetica,sans-Serif" font-size="10.00">+ setWeightFunc()</text>
<text text-anchor="start" x="8" y="-68" font-family="Helvetica,sans-Serif" font-size="10.00">+ init()</text>
<text text-anchor="start" x="8" y="-57" font-family="Helvetica,sans-Serif" font-size="10.00">+ addNeighbor()</text>
<text text-anchor="start" x="8" y="-46" font-family="Helvetica,sans-Serif" font-size="10.00">+ finalize()</text>
<text text-anchor="start" x="8" y="-35" font-family="Helvetica,sans-Serif" font-size="10.00">+ solver()</text>
</a>
</g>
</g>
<!-- Node1&#45;&gt;Node2 -->
<g id="edge1" class="edge">
<title>Node1&#45;&gt;Node2</title>
<path fill="none" stroke="midnightblue" d="M479.58,-318.89C389.11,-313.31 260.08,-294.13 165,-234 153.19,-226.53 142.41,-216.85 132.78,-206.27"/>
<polygon fill="none" stroke="midnightblue" points="479.4,-322.39 489.58,-319.47 479.8,-315.4 479.4,-322.39"/>
</g>
<!-- Node3 -->
<g id="node3" class="node">
<title>Node3</title>
<g id="a_node3"><a xlink:href="classPonca_1_1CovariancePlaneFit.html" target="_top" xlink:title="Plane fitting procedure using only points position.">
<polygon fill="white" stroke="black" points="174,-0.5 174,-233.5 330,-233.5 330,-0.5 174,-0.5"/>
<text text-anchor="start" x="182" y="-221.5" font-family="Helvetica,sans-Serif" font-size="10.00">Ponca::CovariancePlaneFit</text>
<text text-anchor="middle" x="252" y="-210.5" font-family="Helvetica,sans-Serif" font-size="10.00">&lt; DataPoint, _WFunctor, T &gt;</text>
<polyline fill="none" stroke="black" points="174,-203.5 330,-203.5 "/>
<text text-anchor="start" x="182" y="-191.5" font-family="Helvetica,sans-Serif" font-size="10.00"># m_sumW</text>
<text text-anchor="start" x="182" y="-180.5" font-family="Helvetica,sans-Serif" font-size="10.00"># m_cog</text>
<text text-anchor="start" x="182" y="-169.5" font-family="Helvetica,sans-Serif" font-size="10.00"># m_cov</text>
<text text-anchor="start" x="182" y="-158.5" font-family="Helvetica,sans-Serif" font-size="10.00"># m_solver</text>
<text text-anchor="start" x="182" y="-147.5" font-family="Helvetica,sans-Serif" font-size="10.00"># m_w</text>
<polyline fill="none" stroke="black" points="174,-140.5 330,-140.5 "/>
<text text-anchor="start" x="182" y="-128.5" font-family="Helvetica,sans-Serif" font-size="10.00">+ CovariancePlaneFit()</text>
<text text-anchor="start" x="182" y="-117.5" font-family="Helvetica,sans-Serif" font-size="10.00">+ covariancePlaneFit()</text>
<text text-anchor="start" x="182" y="-106.5" font-family="Helvetica,sans-Serif" font-size="10.00">+ setWeightFunc()</text>
<text text-anchor="start" x="182" y="-95.5" font-family="Helvetica,sans-Serif" font-size="10.00">+ init()</text>
<text text-anchor="start" x="182" y="-84.5" font-family="Helvetica,sans-Serif" font-size="10.00">+ addNeighbor()</text>
<text text-anchor="start" x="182" y="-73.5" font-family="Helvetica,sans-Serif" font-size="10.00">+ finalize()</text>
<text text-anchor="start" x="182" y="-62.5" font-family="Helvetica,sans-Serif" font-size="10.00">+ solver()</text>
<text text-anchor="start" x="182" y="-51.5" font-family="Helvetica,sans-Serif" font-size="10.00">+ surfaceVariation()</text>
<text text-anchor="start" x="182" y="-40.5" font-family="Helvetica,sans-Serif" font-size="10.00">+ worldToTangentPlane()</text>
<text text-anchor="start" x="182" y="-29.5" font-family="Helvetica,sans-Serif" font-size="10.00">+ tangentPlaneToWorld()</text>
<text text-anchor="start" x="182" y="-18.5" font-family="Helvetica,sans-Serif" font-size="10.00">+ worldToTangentPlane()</text>
<text text-anchor="start" x="182" y="-7.5" font-family="Helvetica,sans-Serif" font-size="10.00">+ tangentPlaneToWorld()</text>
</a>
</g>
</g>
<!-- Node1&#45;&gt;Node3 -->
<g id="edge2" class="edge">
<title>Node1&#45;&gt;Node3</title>
<path fill="none" stroke="midnightblue" d="M480.19,-297.8C433.7,-284.59 380.58,-264.31 339,-234 335.95,-231.78 332.96,-229.41 330.03,-226.94"/>
<polygon fill="none" stroke="midnightblue" points="479.43,-301.22 490,-300.51 481.29,-294.47 479.43,-301.22"/>
</g>
<!-- Node4 -->
<g id="node4" class="node">
<title>Node4</title>
<g id="a_node4"><a xlink:href="classPonca_1_1DryFit.html" target="_top" xlink:title="Empty fitting object doing no computation.">
<polygon fill="white" stroke="black" points="348.5,-33.5 348.5,-200.5 491.5,-200.5 491.5,-33.5 348.5,-33.5"/>
<text text-anchor="start" x="356.5" y="-188.5" font-family="Helvetica,sans-Serif" font-size="10.00">Ponca::DryFit&lt; DataPoint,</text>
<text text-anchor="middle" x="420" y="-177.5" font-family="Helvetica,sans-Serif" font-size="10.00"> _WFunctor, T &gt;</text>
<polyline fill="none" stroke="black" points="348.5,-170.5 491.5,-170.5 "/>
<text text-anchor="middle" x="420" y="-158.5" font-family="Helvetica,sans-Serif" font-size="10.00"> </text>
<polyline fill="none" stroke="black" points="348.5,-151.5 491.5,-151.5 "/>
<text text-anchor="start" x="356.5" y="-139.5" font-family="Helvetica,sans-Serif" font-size="10.00">+ DryFit()</text>
<text text-anchor="start" x="356.5" y="-128.5" font-family="Helvetica,sans-Serif" font-size="10.00">+ setWeightFunc()</text>
<text text-anchor="start" x="356.5" y="-117.5" font-family="Helvetica,sans-Serif" font-size="10.00">+ init()</text>
<text text-anchor="start" x="356.5" y="-106.5" font-family="Helvetica,sans-Serif" font-size="10.00">+ addNeighbor()</text>
<text text-anchor="start" x="356.5" y="-95.5" font-family="Helvetica,sans-Serif" font-size="10.00">+ finalize()</text>
<text text-anchor="start" x="356.5" y="-84.5" font-family="Helvetica,sans-Serif" font-size="10.00">+ potential()</text>
<text text-anchor="start" x="356.5" y="-73.5" font-family="Helvetica,sans-Serif" font-size="10.00">+ potential()</text>
<text text-anchor="start" x="356.5" y="-62.5" font-family="Helvetica,sans-Serif" font-size="10.00">+ project()</text>
<text text-anchor="start" x="356.5" y="-51.5" font-family="Helvetica,sans-Serif" font-size="10.00">+ primitiveGradient()</text>
<text text-anchor="start" x="356.5" y="-40.5" font-family="Helvetica,sans-Serif" font-size="10.00">+ primitiveGradient()</text>
</a>
</g>
</g>
<!-- Node1&#45;&gt;Node4 -->
<g id="edge3" class="edge">
<title>Node1&#45;&gt;Node4</title>
<path fill="none" stroke="midnightblue" d="M527.16,-262.7C518.11,-253.37 509.1,-243.61 501,-234 492.13,-223.48 483.27,-212.02 474.84,-200.52"/>
<polygon fill="none" stroke="midnightblue" points="524.91,-265.41 534.42,-270.08 529.9,-260.5 524.91,-265.41"/>
</g>
<!-- Node5 -->
<g id="node5" class="node">
<title>Node5</title>
<g id="a_node5"><a xlink:href="classPonca_1_1MeanPlaneFit.html" target="_top" xlink:title="Plane fitting procedure computing the mean position and orientation from oriented points.">
<polygon fill="white" stroke="black" points="510,-44.5 510,-189.5 666,-189.5 666,-44.5 510,-44.5"/>
<text text-anchor="start" x="518" y="-177.5" font-family="Helvetica,sans-Serif" font-size="10.00">Ponca::MeanPlaneFit</text>
<text text-anchor="middle" x="588" y="-166.5" font-family="Helvetica,sans-Serif" font-size="10.00">&lt; DataPoint, _WFunctor, T &gt;</text>
<polyline fill="none" stroke="black" points="510,-159.5 666,-159.5 "/>
<text text-anchor="start" x="518" y="-147.5" font-family="Helvetica,sans-Serif" font-size="10.00"># m_sumW</text>
<text text-anchor="start" x="518" y="-136.5" font-family="Helvetica,sans-Serif" font-size="10.00"># m_sumN</text>
<text text-anchor="start" x="518" y="-125.5" font-family="Helvetica,sans-Serif" font-size="10.00"># m_sumP</text>
<text text-anchor="start" x="518" y="-114.5" font-family="Helvetica,sans-Serif" font-size="10.00"># m_w</text>
<polyline fill="none" stroke="black" points="510,-107.5 666,-107.5 "/>
<text text-anchor="start" x="518" y="-95.5" font-family="Helvetica,sans-Serif" font-size="10.00">+ MeanPlaneFit()</text>
<text text-anchor="start" x="518" y="-84.5" font-family="Helvetica,sans-Serif" font-size="10.00">+ setWeightFunc()</text>
<text text-anchor="start" x="518" y="-73.5" font-family="Helvetica,sans-Serif" font-size="10.00">+ init()</text>
<text text-anchor="start" x="518" y="-62.5" font-family="Helvetica,sans-Serif" font-size="10.00">+ addNeighbor()</text>
<text text-anchor="start" x="518" y="-51.5" font-family="Helvetica,sans-Serif" font-size="10.00">+ finalize()</text>
</a>
</g>
</g>
<!-- Node1&#45;&gt;Node5 -->
<g id="edge4" class="edge">
<title>Node1&#45;&gt;Node5</title>
<path fill="none" stroke="midnightblue" d="M588,-260.08C588,-237.96 588,-212.68 588,-189.64"/>
<polygon fill="none" stroke="midnightblue" points="584.5,-260.33 588,-270.33 591.5,-260.33 584.5,-260.33"/>
</g>
<!-- Node6 -->
<g id="node6" class="node">
<title>Node6</title>
<g id="a_node6"><a xlink:href="classPonca_1_1OrientedSphereFit.html" target="_top" xlink:title="Algebraic Sphere fitting procedure on oriented point sets.">
<polygon fill="white" stroke="black" points="684,-22.5 684,-211.5 840,-211.5 840,-22.5 684,-22.5"/>
<text text-anchor="start" x="692" y="-199.5" font-family="Helvetica,sans-Serif" font-size="10.00">Ponca::OrientedSphereFit</text>
<text text-anchor="middle" x="762" y="-188.5" font-family="Helvetica,sans-Serif" font-size="10.00">&lt; DataPoint, _WFunctor, T &gt;</text>
<polyline fill="none" stroke="black" points="684,-181.5 840,-181.5 "/>
<text text-anchor="start" x="692" y="-169.5" font-family="Helvetica,sans-Serif" font-size="10.00"># m_sumN</text>
<text text-anchor="start" x="692" y="-158.5" font-family="Helvetica,sans-Serif" font-size="10.00"># m_sumP</text>
<text text-anchor="start" x="692" y="-147.5" font-family="Helvetica,sans-Serif" font-size="10.00"># m_sumDotPN</text>
<text text-anchor="start" x="692" y="-136.5" font-family="Helvetica,sans-Serif" font-size="10.00"># m_sumDotPP</text>
<text text-anchor="start" x="692" y="-125.5" font-family="Helvetica,sans-Serif" font-size="10.00"># m_sumW</text>
<text text-anchor="start" x="692" y="-114.5" font-family="Helvetica,sans-Serif" font-size="10.00"># m_nume</text>
<text text-anchor="start" x="692" y="-103.5" font-family="Helvetica,sans-Serif" font-size="10.00"># m_deno</text>
<text text-anchor="start" x="692" y="-92.5" font-family="Helvetica,sans-Serif" font-size="10.00"># m_w</text>
<polyline fill="none" stroke="black" points="684,-85.5 840,-85.5 "/>
<text text-anchor="start" x="692" y="-73.5" font-family="Helvetica,sans-Serif" font-size="10.00">+ OrientedSphereFit()</text>
<text text-anchor="start" x="692" y="-62.5" font-family="Helvetica,sans-Serif" font-size="10.00">+ setWeightFunc()</text>
<text text-anchor="start" x="692" y="-51.5" font-family="Helvetica,sans-Serif" font-size="10.00">+ init()</text>
<text text-anchor="start" x="692" y="-40.5" font-family="Helvetica,sans-Serif" font-size="10.00">+ addNeighbor()</text>
<text text-anchor="start" x="692" y="-29.5" font-family="Helvetica,sans-Serif" font-size="10.00">+ finalize()</text>
</a>
</g>
</g>
<!-- Node1&#45;&gt;Node6 -->
<g id="edge5" class="edge">
<title>Node1&#45;&gt;Node6</title>
<path fill="none" stroke="midnightblue" d="M647.91,-263.11C657.22,-253.61 666.54,-243.69 675,-234 681.21,-226.89 687.46,-219.37 693.62,-211.72"/>
<polygon fill="none" stroke="midnightblue" points="645.36,-260.71 640.81,-270.28 650.34,-265.64 645.36,-260.71"/>
</g>
<!-- Node7 -->
<g id="node7" class="node">
<title>Node7</title>
<g id="a_node7"><a xlink:href="classPonca_1_1SphereFit.html" target="_top" xlink:title="Algebraic Sphere fitting procedure on point sets without normals.">
<polygon fill="white" stroke="black" points="858,-50 858,-184 1018,-184 1018,-50 858,-50"/>
<text text-anchor="start" x="866" y="-172" font-family="Helvetica,sans-Serif" font-size="10.00">Ponca::SphereFit&lt; DataPoint,</text>
<text text-anchor="middle" x="938" y="-161" font-family="Helvetica,sans-Serif" font-size="10.00"> _WFunctor, T &gt;</text>
<polyline fill="none" stroke="black" points="858,-154 1018,-154 "/>
<text text-anchor="start" x="866" y="-142" font-family="Helvetica,sans-Serif" font-size="10.00"># m_matA</text>
<text text-anchor="start" x="866" y="-131" font-family="Helvetica,sans-Serif" font-size="10.00"># m_sumW</text>
<text text-anchor="start" x="866" y="-120" font-family="Helvetica,sans-Serif" font-size="10.00"># m_w</text>
<polyline fill="none" stroke="black" points="858,-113 1018,-113 "/>
<text text-anchor="start" x="866" y="-101" font-family="Helvetica,sans-Serif" font-size="10.00">+ SphereFit()</text>
<text text-anchor="start" x="866" y="-90" font-family="Helvetica,sans-Serif" font-size="10.00">+ setWeightFunc()</text>
<text text-anchor="start" x="866" y="-79" font-family="Helvetica,sans-Serif" font-size="10.00">+ init()</text>
<text text-anchor="start" x="866" y="-68" font-family="Helvetica,sans-Serif" font-size="10.00">+ addNeighbor()</text>
<text text-anchor="start" x="866" y="-57" font-family="Helvetica,sans-Serif" font-size="10.00">+ finalize()</text>
</a>
</g>
</g>
<!-- Node1&#45;&gt;Node7 -->
<g id="edge6" class="edge">
<title>Node1&#45;&gt;Node7</title>
<path fill="none" stroke="midnightblue" d="M695.99,-299.8C745.8,-286.79 803.77,-266.1 849,-234 867.73,-220.7 884.34,-202.31 897.99,-184.09"/>
<polygon fill="none" stroke="midnightblue" points="694.97,-296.44 686.14,-302.3 696.69,-303.23 694.97,-296.44"/>
</g>
<!-- Node8 -->
<g id="node8" class="node">
<title>Node8</title>
<g id="a_node8"><a xlink:href="classPonca_1_1UnorientedSphereFit.html" target="_top" xlink:title="Algebraic Sphere fitting procedure on point sets with non&#45;oriented normals.">
<polygon fill="white" stroke="black" points="1036,-39 1036,-195 1192,-195 1192,-39 1036,-39"/>
<text text-anchor="start" x="1044" y="-183" font-family="Helvetica,sans-Serif" font-size="10.00">Ponca::UnorientedSphereFit</text>
<text text-anchor="middle" x="1114" y="-172" font-family="Helvetica,sans-Serif" font-size="10.00">&lt; DataPoint, _WFunctor, T &gt;</text>
<polyline fill="none" stroke="black" points="1036,-165 1192,-165 "/>
<text text-anchor="start" x="1044" y="-153" font-family="Helvetica,sans-Serif" font-size="10.00"># m_matA</text>
<text text-anchor="start" x="1044" y="-142" font-family="Helvetica,sans-Serif" font-size="10.00"># m_sumP</text>
<text text-anchor="start" x="1044" y="-131" font-family="Helvetica,sans-Serif" font-size="10.00"># m_sumDotPP</text>
<text text-anchor="start" x="1044" y="-120" font-family="Helvetica,sans-Serif" font-size="10.00"># m_sumW</text>
<text text-anchor="start" x="1044" y="-109" font-family="Helvetica,sans-Serif" font-size="10.00"># m_w</text>
<polyline fill="none" stroke="black" points="1036,-102 1192,-102 "/>
<text text-anchor="start" x="1044" y="-90" font-family="Helvetica,sans-Serif" font-size="10.00">+ UnorientedSphereFit()</text>
<text text-anchor="start" x="1044" y="-79" font-family="Helvetica,sans-Serif" font-size="10.00">+ setWeightFunc()</text>
<text text-anchor="start" x="1044" y="-68" font-family="Helvetica,sans-Serif" font-size="10.00">+ init()</text>
<text text-anchor="start" x="1044" y="-57" font-family="Helvetica,sans-Serif" font-size="10.00">+ addNeighbor()</text>
<text text-anchor="start" x="1044" y="-46" font-family="Helvetica,sans-Serif" font-size="10.00">+ finalize()</text>
</a>
</g>
</g>
<!-- Node1&#45;&gt;Node8 -->
<g id="edge7" class="edge">
<title>Node1&#45;&gt;Node8</title>
<path fill="none" stroke="midnightblue" d="M696.34,-307.79C807.96,-293.64 973.04,-267.86 1027,-234 1042.89,-224.03 1056.89,-210.04 1068.77,-195.21"/>
<polygon fill="none" stroke="midnightblue" points="695.87,-304.32 686.38,-309.04 696.74,-311.27 695.87,-304.32"/>
</g>
</g>
</svg>
        <g id="navigator" transform="translate(0 0)" fill="#404254">
                <rect fill="#f2f5e9" fill-opacity="0.5" stroke="#606060" stroke-width=".5" x="0" y="0" width="60" height="60"/>
                <use id="zoomplus" xlink:href="#zoomPlus" x="17" y="9" onmousedown="handleZoom(evt,'in')"/>
                <use id="zoomminus" xlink:href="#zoomMin" x="42" y="9" onmousedown="handleZoom(evt,'out')"/>
                <use id="reset" xlink:href="#resetDef" x="30" y="36" onmousedown="handleReset()"/>
                <g id="arrowUp" xlink:href="#dirArrow" transform="translate(30 24)" onmousedown="handlePan(0,-1)">
                  <use xlink:href="#rim" fill="#404040">
                        <set attributeName="fill" to="#808080" begin="arrowUp.mouseover" end="arrowUp.mouseout"/>
                  </use>
                  <path fill="none" stroke="white" stroke-width="1.5" d="M0,-3.0v7 M-2.5,-0.5L0,-3.0L2.5,-0.5"/>
                </g>
                <g id="arrowRight" xlink:href="#dirArrow" transform="rotate(90) translate(36 -43)" onmousedown="handlePan(1,0)">
                  <use xlink:href="#rim" fill="#404040">
                        <set attributeName="fill" to="#808080" begin="arrowRight.mouseover" end="arrowRight.mouseout"/>
                  </use>
                  <path fill="none" stroke="white" stroke-width="1.5" d="M0,-3.0v7 M-2.5,-0.5L0,-3.0L2.5,-0.5"/>
                </g>
                <g id="arrowDown" xlink:href="#dirArrow" transform="rotate(180) translate(-30 -48)" onmousedown="handlePan(0,1)">
                  <use xlink:href="#rim" fill="#404040">
                        <set attributeName="fill" to="#808080" begin="arrowDown.mouseover" end="arrowDown.mouseout"/>
                  </use>
                  <path fill="none" stroke="white" stroke-width="1.5" d="M0,-3.0v7 M-2.5,-0.5L0,-3.0L2.5,-0.5"/>
                </g>
                <g id="arrowLeft" xlink:href="#dirArrow" transform="rotate(270) translate(-36 17)" onmousedown="handlePan(-1,0)">
                  <use xlink:href="#rim" fill="#404040">
                        <set attributeName="fill" to="#808080" begin="arrowLeft.mouseover" end="arrowLeft.mouseout"/>
                  </use>
                  <path fill="none" stroke="white" stroke-width="1.5" d="M0,-3.0v7 M-2.5,-0.5L0,-3.0L2.5,-0.5"/>
                </g>
        </g>
        <svg viewBox="0 0 15 15" width="100%" height="30px" preserveAspectRatio="xMaxYMin meet">
         <g id="arrow_out" transform="scale(0.3 0.3)">
          <a xlink:href="classPonca_1_1Concept_1_1FittingProcedureConcept__inherit__graph_org.svg" target="_base">
           <rect id="button" ry="5" rx="5" y="6" x="6" height="38" width="38"
                fill="#f2f5e9" fill-opacity="0.5" stroke="#606060" stroke-width="1.0"/>
           <path id="arrow"
             d="M 11.500037,31.436501 C 11.940474,20.09759 22.043105,11.32322 32.158766,21.979434 L 37.068811,17.246167 C 37.068811,17.246167 37.088388,32 37.088388,32 L 22.160133,31.978069 C 22.160133,31.978069 26.997745,27.140456 26.997745,27.140456 C 18.528582,18.264221 13.291696,25.230495 11.500037,31.436501 z"
             style="fill:#404040;"/>
          </a>
         </g>
        </svg>
</svg>
