<?xml version="1.0" encoding="UTF-8" standalone="no"?>
<!DOCTYPE svg PUBLIC "-//W3C//DTD SVG 1.1//EN"
 "http://www.w3.org/Graphics/SVG/1.1/DTD/svg11.dtd">
<!-- Generated by graphviz version 2.43.0 (0)
 -->
<!-- Title: Ponca::internal::Forward&lt; class, class, T &gt; Pages: 1 -->
<svg width="323pt" height="647pt"
 viewBox="0.00 0.00 322.50 647.00" xmlns="http://www.w3.org/2000/svg" xmlns:xlink="http://www.w3.org/1999/xlink">
<g id="graph0" class="graph" transform="scale(1 1) rotate(0) translate(4 643)">
<title>Ponca::internal::Forward&lt; class, class, T &gt;</title>
<polygon fill="white" stroke="transparent" points="-4,4 -4,-643 318.5,-643 318.5,4 -4,4"/>
<!-- Node1 -->
<g id="node1" class="node">
<title>Node1</title>
<g id="a_node1"><a xlink:title="Internal class used to build the Basket structure.">
<polygon fill="#bfbfbf" stroke="black" points="40.5,-475.5 40.5,-543.5 174.5,-543.5 174.5,-475.5 40.5,-475.5"/>
<text text-anchor="start" x="48.5" y="-531.5" font-family="Helvetica,sans-Serif" font-size="10.00">Ponca::internal::Forward</text>
<text text-anchor="middle" x="107.5" y="-520.5" font-family="Helvetica,sans-Serif" font-size="10.00">&lt; class, class, T &gt;</text>
<polyline fill="none" stroke="black" points="40.5,-513.5 174.5,-513.5 "/>
<text text-anchor="middle" x="107.5" y="-501.5" font-family="Helvetica,sans-Serif" font-size="10.00"> </text>
<polyline fill="none" stroke="black" points="40.5,-494.5 174.5,-494.5 "/>
<text text-anchor="middle" x="107.5" y="-482.5" font-family="Helvetica,sans-Serif" font-size="10.00"> </text>
</a>
</g>
</g>
<!-- Node3 -->
<g id="node3" class="node">
<title>Node3</title>
<g id="a_node3"><a xlink:href="classPonca_1_1internal_1_1Forward.html" target="_top" xlink:title=" ">
<polygon fill="white" stroke="black" points="0,-139.5 0,-317.5 215,-317.5 215,-139.5 0,-139.5"/>
<text text-anchor="start" x="8" y="-305.5" font-family="Helvetica,sans-Serif" font-size="10.00">Ponca::internal::Forward</text>
<text text-anchor="start" x="8" y="-294.5" font-family="Helvetica,sans-Serif" font-size="10.00">&lt; P, W, internal::Forward</text>
<text text-anchor="start" x="8" y="-283.5" font-family="Helvetica,sans-Serif" font-size="10.00">&lt; P, W, internal::Forward</text>
<text text-anchor="start" x="8" y="-272.5" font-family="Helvetica,sans-Serif" font-size="10.00">&lt; P, W, internal::Forward</text>
<text text-anchor="start" x="8" y="-261.5" font-family="Helvetica,sans-Serif" font-size="10.00">&lt; P, W, internal::Forward&lt;</text>
<text text-anchor="start" x="8" y="-250.5" font-family="Helvetica,sans-Serif" font-size="10.00"> P, W, internal::Forward&lt; P,</text>
<text text-anchor="start" x="8" y="-239.5" font-family="Helvetica,sans-Serif" font-size="10.00"> W, internal::Forward&lt; P, W,</text>
<text text-anchor="start" x="8" y="-228.5" font-family="Helvetica,sans-Serif" font-size="10.00"> internal::Forward&lt; P, W, internal</text>
<text text-anchor="start" x="8" y="-217.5" font-family="Helvetica,sans-Serif" font-size="10.00">::Forward&lt; P, W, internal::Forward</text>
<text text-anchor="start" x="8" y="-206.5" font-family="Helvetica,sans-Serif" font-size="10.00">&lt; P, W, internal::Forward&lt; P, W, internal</text>
<text text-anchor="start" x="8" y="-195.5" font-family="Helvetica,sans-Serif" font-size="10.00">::Forward&lt; P, W, Fit&lt; P, W, void &gt; &gt; &gt;</text>
<text text-anchor="middle" x="107.5" y="-184.5" font-family="Helvetica,sans-Serif" font-size="10.00"> &gt; &gt; &gt; &gt; &gt; &gt; &gt; &gt; &gt; &gt;</text>
<polyline fill="none" stroke="black" points="0,-177.5 215,-177.5 "/>
<text text-anchor="middle" x="107.5" y="-165.5" font-family="Helvetica,sans-Serif" font-size="10.00"> </text>
<polyline fill="none" stroke="black" points="0,-158.5 215,-158.5 "/>
<text text-anchor="middle" x="107.5" y="-146.5" font-family="Helvetica,sans-Serif" font-size="10.00"> </text>
</a>
</g>
</g>
<!-- Node1&#45;&gt;Node3 -->
<g id="edge2" class="edge">
<title>Node1&#45;&gt;Node3</title>
<path fill="none" stroke="orange" d="M107.5,-465.38C107.5,-426.14 107.5,-367 107.5,-317.75"/>
<polygon fill="orange" stroke="orange" points="104,-465.4 107.5,-475.4 111,-465.4 104,-465.4"/>
<text text-anchor="start" x="107.5" y="-449" font-family="Helvetica,sans-Serif" font-size="10.00"> &lt; P, W, internal::Forward</text>
<text text-anchor="start" x="107.5" y="-438" font-family="Helvetica,sans-Serif" font-size="10.00">&lt; P, W, internal::Forward</text>
<text text-anchor="start" x="107.5" y="-427" font-family="Helvetica,sans-Serif" font-size="10.00">&lt; P, W, internal::Forward</text>
<text text-anchor="start" x="107.5" y="-416" font-family="Helvetica,sans-Serif" font-size="10.00">&lt; P, W, internal::Forward</text>
<text text-anchor="start" x="107.5" y="-405" font-family="Helvetica,sans-Serif" font-size="10.00">&lt; P, W, internal::Forward&lt;</text>
<text text-anchor="start" x="107.5" y="-394" font-family="Helvetica,sans-Serif" font-size="10.00"> P, W, internal::Forward&lt; P,</text>
<text text-anchor="start" x="107.5" y="-383" font-family="Helvetica,sans-Serif" font-size="10.00"> W, internal::Forward&lt; P, W,</text>
<text text-anchor="start" x="107.5" y="-372" font-family="Helvetica,sans-Serif" font-size="10.00"> internal::Forward&lt; P, W, internal</text>
<text text-anchor="start" x="107.5" y="-361" font-family="Helvetica,sans-Serif" font-size="10.00">::Forward&lt; P, W, internal::Forward</text>
<text text-anchor="start" x="107.5" y="-350" font-family="Helvetica,sans-Serif" font-size="10.00">&lt; P, W, internal::Forward&lt; P, W, Fit</text>
<text text-anchor="middle" x="211" y="-339" font-family="Helvetica,sans-Serif" font-size="10.00">&lt; P, W, void &gt; &gt; &gt; &gt; &gt; &gt; &gt; &gt; &gt; &gt; &gt; &gt; &gt;</text>
</g>
<!-- Node2 -->
<g id="node2" class="node">
<title>Node2</title>
<g id="a_node2"><a xlink:title=" ">
<polygon fill="white" stroke="#bfbfbf" points="93,-581.5 93,-638.5 122,-638.5 122,-581.5 93,-581.5"/>
<text text-anchor="middle" x="107.5" y="-626.5" font-family="Helvetica,sans-Serif" font-size="10.00">T</text>
<polyline fill="none" stroke="#bfbfbf" points="93,-619.5 122,-619.5 "/>
<text text-anchor="middle" x="107.5" y="-607.5" font-family="Helvetica,sans-Serif" font-size="10.00"> </text>
<polyline fill="none" stroke="#bfbfbf" points="93,-600.5 122,-600.5 "/>
<text text-anchor="middle" x="107.5" y="-588.5" font-family="Helvetica,sans-Serif" font-size="10.00"> </text>
</a>
</g>
</g>
<!-- Node2&#45;&gt;Node1 -->
<g id="edge1" class="edge">
<title>Node2&#45;&gt;Node1</title>
<path fill="none" stroke="midnightblue" d="M107.5,-571.01C107.5,-561.96 107.5,-552.38 107.5,-543.58"/>
<polygon fill="none" stroke="midnightblue" points="104,-571.3 107.5,-581.3 111,-571.3 104,-571.3"/>
</g>
<!-- Node4 -->
<g id="node4" class="node">
<title>Node4</title>
<g id="a_node4"><a xlink:href="classPonca_1_1Basket.html" target="_top" xlink:title="Agregator class used to declare specialized structures using CRTP (Curiously Recurring Template Patte...">
<polygon fill="white" stroke="black" points="40.5,-0.5 40.5,-101.5 174.5,-101.5 174.5,-0.5 40.5,-0.5"/>
<text text-anchor="start" x="48.5" y="-89.5" font-family="Helvetica,sans-Serif" font-size="10.00">Ponca::Basket&lt; P, W,</text>
<text text-anchor="start" x="48.5" y="-78.5" font-family="Helvetica,sans-Serif" font-size="10.00"> Fit, Ext0, Ext1, Ext2,</text>
<text text-anchor="start" x="48.5" y="-67.5" font-family="Helvetica,sans-Serif" font-size="10.00"> Ext3, Ext4, Ext5, Ext6,</text>
<text text-anchor="start" x="48.5" y="-56.5" font-family="Helvetica,sans-Serif" font-size="10.00"> Ext7, Ext8, Ext9, Ext10,</text>
<text text-anchor="middle" x="107.5" y="-45.5" font-family="Helvetica,sans-Serif" font-size="10.00"> Ext11 &gt;</text>
<polyline fill="none" stroke="black" points="40.5,-38.5 174.5,-38.5 "/>
<text text-anchor="middle" x="107.5" y="-26.5" font-family="Helvetica,sans-Serif" font-size="10.00"> </text>
<polyline fill="none" stroke="black" points="40.5,-19.5 174.5,-19.5 "/>
<text text-anchor="start" x="48.5" y="-7.5" font-family="Helvetica,sans-Serif" font-size="10.00">+ compute()</text>
</a>
</g>
</g>
<!-- Node3&#45;&gt;Node4 -->
<g id="edge3" class="edge">
<title>Node3&#45;&gt;Node4</title>
<path fill="none" stroke="midnightblue" d="M107.5,-129.46C107.5,-119.87 107.5,-110.45 107.5,-101.66"/>
<polygon fill="none" stroke="midnightblue" points="104,-129.49 107.5,-139.49 111,-129.49 104,-129.49"/>
</g>
</g>
</svg>
