<?xml version="1.0" encoding="UTF-8" standalone="no"?>
<!DOCTYPE svg PUBLIC "-//W3C//DTD SVG 1.1//EN"
 "http://www.w3.org/Graphics/SVG/1.1/DTD/svg11.dtd">
<!-- Generated by graphviz version 2.43.0 (0)
 -->
<!-- Title: Ponca::KnnGraphRangeQuery&lt; Traits &gt; Pages: 1 -->
<svg width="627pt" height="1152pt"
 viewBox="0.00 0.00 626.50 1152.00" xmlns="http://www.w3.org/2000/svg" xmlns:xlink="http://www.w3.org/1999/xlink">
<g id="graph0" class="graph" transform="scale(1 1) rotate(0) translate(4 1148)">
<title>Ponca::KnnGraphRangeQuery&lt; Traits &gt;</title>
<!-- Node1 -->
<g id="Node000001" class="node">
<title>Node1</title>
<g id="a_Node000001"><a xlink:title="Extension of the Query class that allows to read the result of a range neighbor search on the KnnGrap...">
<polygon fill="#999999" stroke="transparent" points="477.5,-150 323.5,-150 323.5,0 477.5,0 477.5,-150"/>
<text text-anchor="start" x="328.5" y="-138" font-family="Helvetica,sans-Serif" font-size="10.00">Ponca::KnnGraphRangeQuery</text>
<text text-anchor="start" x="376" y="-127" font-family="Helvetica,sans-Serif" font-size="10.00">&lt; Traits &gt;</text>
<text text-anchor="start" x="331.5" y="-112" font-family="Helvetica,sans-Serif" font-size="10.00">#</text>
<text text-anchor="start" x="348.5" y="-112" font-family="Helvetica,sans-Serif" font-size="10.00">m_graph</text>
<text text-anchor="start" x="331.5" y="-97" font-family="Helvetica,sans-Serif" font-size="10.00">+</text>
<text text-anchor="start" x="348.5" y="-97" font-family="Helvetica,sans-Serif" font-size="10.00">KnnGraphRangeQuery()</text>
<text text-anchor="start" x="331.5" y="-82" font-family="Helvetica,sans-Serif" font-size="10.00">+</text>
<text text-anchor="start" x="348.5" y="-82" font-family="Helvetica,sans-Serif" font-size="10.00">operator()()</text>
<text text-anchor="start" x="331.5" y="-67" font-family="Helvetica,sans-Serif" font-size="10.00">+</text>
<text text-anchor="start" x="348.5" y="-67" font-family="Helvetica,sans-Serif" font-size="10.00">operator()()</text>
<text text-anchor="start" x="331.5" y="-52" font-family="Helvetica,sans-Serif" font-size="10.00">+</text>
<text text-anchor="start" x="348.5" y="-52" font-family="Helvetica,sans-Serif" font-size="10.00">begin()</text>
<text text-anchor="start" x="331.5" y="-37" font-family="Helvetica,sans-Serif" font-size="10.00">+</text>
<text text-anchor="start" x="348.5" y="-37" font-family="Helvetica,sans-Serif" font-size="10.00">end()</text>
<text text-anchor="start" x="331.5" y="-22" font-family="Helvetica,sans-Serif" font-size="10.00">#</text>
<text text-anchor="start" x="348.5" y="-22" font-family="Helvetica,sans-Serif" font-size="10.00">initialize()</text>
<text text-anchor="start" x="331.5" y="-7" font-family="Helvetica,sans-Serif" font-size="10.00">#</text>
<text text-anchor="start" x="348.5" y="-7" font-family="Helvetica,sans-Serif" font-size="10.00">advance()</text>
<polygon fill="#666666" stroke="#666666" points="323.5,-122 323.5,-122 477.5,-122 477.5,-122 323.5,-122"/>
<polygon fill="#666666" stroke="#666666" points="323.5,-107 323.5,-107 346.5,-107 346.5,-107 323.5,-107"/>
<polygon fill="#666666" stroke="#666666" points="346.5,-107 346.5,-107 477.5,-107 477.5,-107 346.5,-107"/>
<polygon fill="none" stroke="#666666" points="323.5,0 323.5,-150 477.5,-150 477.5,0 323.5,0"/>
</a>
</g>
</g>
<!-- Node2 -->
<g id="Node000002" class="node">
<title>Node2</title>
<g id="a_Node000002"><a xlink:href="group__spatialpartitioning.html" target="_top" xlink:title=" ">
<polygon fill="white" stroke="transparent" points="341.5,-268 205.5,-268 205.5,-197 341.5,-197 341.5,-268"/>
<text text-anchor="start" x="210.5" y="-255.5" font-family="Helvetica,sans-Serif" font-size="10.00">Ponca::RangeIndexQuery</text>
<text text-anchor="start" x="210.5" y="-244.5" font-family="Helvetica,sans-Serif" font-size="10.00">&lt; Traits::IndexType, Traits</text>
<text text-anchor="start" x="222.5" y="-233.5" font-family="Helvetica,sans-Serif" font-size="10.00">::DataPoint::Scalar &gt;</text>
<text text-anchor="start" x="271.5" y="-218.5" font-family="Helvetica,sans-Serif" font-size="10.00"> </text>
<text text-anchor="start" x="271.5" y="-203.5" font-family="Helvetica,sans-Serif" font-size="10.00"> </text>
<polygon fill="#666666" stroke="#666666" points="205.5,-228.5 205.5,-228.5 341.5,-228.5 341.5,-228.5 205.5,-228.5"/>
<polygon fill="#666666" stroke="#666666" points="205.5,-213.5 205.5,-213.5 341.5,-213.5 341.5,-213.5 205.5,-213.5"/>
<polygon fill="none" stroke="#666666" points="205.5,-197 205.5,-268 341.5,-268 341.5,-197 205.5,-197"/>
</a>
</g>
</g>
<!-- Node2&#45;&gt;Node1 -->
<g id="edge1_Node000001_Node000002" class="edge">
<title>Node2&#45;&gt;Node1</title>
<g id="a_edge1_Node000001_Node000002"><a xlink:title=" ">
<path fill="none" stroke="#63b8ff" d="M308.27,-188.92C318.08,-176.92 329.04,-163.49 339.89,-150.21"/>
<polygon fill="none" stroke="#63b8ff" points="305.3,-187.03 301.69,-196.99 310.72,-191.46 305.3,-187.03"/>
</a>
</g>
</g>
<!-- Node3 -->
<g id="Node000003" class="node">
<title>Node3</title>
<g id="a_Node000003"><a xlink:href="group__spatialpartitioning.html#structPonca_1_1Query" target="_top" xlink:title="Composes the Query object depending on an input type and output type.">
<polygon fill="white" stroke="transparent" points="111,-764 0,-764 0,-659 111,-659 111,-764"/>
<text text-anchor="start" x="5.5" y="-751.5" font-family="Helvetica,sans-Serif" font-size="10.00">Ponca::Query&lt; Input</text>
<text text-anchor="start" x="25.5" y="-740.5" font-family="Helvetica,sans-Serif" font-size="10.00">_, Output_ &gt;</text>
<text text-anchor="start" x="54" y="-725.5" font-family="Helvetica,sans-Serif" font-size="10.00"> </text>
<text text-anchor="start" x="12.5" y="-710.5" font-family="Helvetica,sans-Serif" font-size="10.00">+</text>
<text text-anchor="start" x="33.5" y="-710.5" font-family="Helvetica,sans-Serif" font-size="10.00">Query()</text>
<text text-anchor="start" x="12.5" y="-695.5" font-family="Helvetica,sans-Serif" font-size="10.00">+</text>
<text text-anchor="start" x="33.5" y="-695.5" font-family="Helvetica,sans-Serif" font-size="10.00">Query()</text>
<text text-anchor="start" x="12.5" y="-680.5" font-family="Helvetica,sans-Serif" font-size="10.00">+</text>
<text text-anchor="start" x="33.5" y="-680.5" font-family="Helvetica,sans-Serif" font-size="10.00">operator()()</text>
<text text-anchor="start" x="12.5" y="-665.5" font-family="Helvetica,sans-Serif" font-size="10.00">+</text>
<text text-anchor="start" x="33.5" y="-665.5" font-family="Helvetica,sans-Serif" font-size="10.00">operator()()</text>
<polygon fill="#666666" stroke="#666666" points="0.5,-735.5 0.5,-735.5 111.5,-735.5 111.5,-735.5 0.5,-735.5"/>
<polygon fill="#666666" stroke="#666666" points="0.5,-720.5 0.5,-720.5 111.5,-720.5 111.5,-720.5 0.5,-720.5"/>
<polygon fill="none" stroke="#666666" points="0,-659 0,-764 111,-764 111,-659 0,-659"/>
</a>
</g>
</g>
<!-- Node3&#45;&gt;Node2 -->
<g id="edge2_Node000002_Node000003" class="edge">
<title>Node3&#45;&gt;Node2</title>
<g id="a_edge2_Node000002_Node000003"><a xlink:title=" ">
<path fill="none" stroke="#63b8ff" d="M74.22,-649.07C98.43,-573.36 144.26,-441.86 200.5,-337 213.49,-312.78 231.2,-287.53 245.92,-268.04"/>
<polygon fill="none" stroke="#63b8ff" points="70.78,-648.34 71.09,-658.93 77.45,-650.46 70.78,-648.34"/>
</a>
</g>
</g>
<!-- Node4 -->
<g id="Node000004" class="node">
<title>Node4</title>
<g id="a_Node000004"><a xlink:title=" ">
<polygon fill="white" stroke="transparent" points="164,-900.5 123,-900.5 123,-851.5 164,-851.5 164,-900.5"/>
<text text-anchor="start" x="128.5" y="-888" font-family="Helvetica,sans-Serif" font-size="10.00">Input_</text>
<text text-anchor="start" x="142" y="-873" font-family="Helvetica,sans-Serif" font-size="10.00"> </text>
<text text-anchor="start" x="142" y="-858" font-family="Helvetica,sans-Serif" font-size="10.00"> </text>
<polygon fill="#bfbfbf" stroke="#bfbfbf" points="123.5,-883 123.5,-883 164.5,-883 164.5,-883 123.5,-883"/>
<polygon fill="#bfbfbf" stroke="#bfbfbf" points="123.5,-868 123.5,-868 164.5,-868 164.5,-868 123.5,-868"/>
<polygon fill="none" stroke="#bfbfbf" points="123,-851.5 123,-900.5 164,-900.5 164,-851.5 123,-851.5"/>
</a>
</g>
</g>
<!-- Node4&#45;&gt;Node3 -->
<g id="edge3_Node000003_Node000004" class="edge">
<title>Node4&#45;&gt;Node3</title>
<g id="a_edge3_Node000003_Node000004"><a xlink:title=" ">
<path fill="none" stroke="#63b8ff" d="M125.94,-842.57C113.78,-820.12 97.34,-789.76 83.4,-764.01"/>
<polygon fill="none" stroke="#63b8ff" points="122.86,-844.24 130.7,-851.37 129.02,-840.91 122.86,-844.24"/>
</a>
</g>
</g>
<!-- Node14 -->
<g id="Node000014" class="node">
<title>Node14</title>
<g id="a_Node000014"><a xlink:href="group__spatialpartitioning.html#structPonca_1_1Query" target="_top" xlink:title="Composes the Query object depending on an input type and output type.">
<polygon fill="white" stroke="transparent" points="240,-764 129,-764 129,-659 240,-659 240,-764"/>
<text text-anchor="start" x="134.5" y="-751.5" font-family="Helvetica,sans-Serif" font-size="10.00">Ponca::Query&lt; Input</text>
<text text-anchor="start" x="154.5" y="-740.5" font-family="Helvetica,sans-Serif" font-size="10.00">_, Output_ &gt;</text>
<text text-anchor="start" x="183" y="-725.5" font-family="Helvetica,sans-Serif" font-size="10.00"> </text>
<text text-anchor="start" x="141.5" y="-710.5" font-family="Helvetica,sans-Serif" font-size="10.00">+</text>
<text text-anchor="start" x="162.5" y="-710.5" font-family="Helvetica,sans-Serif" font-size="10.00">Query()</text>
<text text-anchor="start" x="141.5" y="-695.5" font-family="Helvetica,sans-Serif" font-size="10.00">+</text>
<text text-anchor="start" x="162.5" y="-695.5" font-family="Helvetica,sans-Serif" font-size="10.00">Query()</text>
<text text-anchor="start" x="141.5" y="-680.5" font-family="Helvetica,sans-Serif" font-size="10.00">+</text>
<text text-anchor="start" x="162.5" y="-680.5" font-family="Helvetica,sans-Serif" font-size="10.00">operator()()</text>
<text text-anchor="start" x="141.5" y="-665.5" font-family="Helvetica,sans-Serif" font-size="10.00">+</text>
<text text-anchor="start" x="162.5" y="-665.5" font-family="Helvetica,sans-Serif" font-size="10.00">operator()()</text>
<polygon fill="#666666" stroke="#666666" points="129.5,-735.5 129.5,-735.5 240.5,-735.5 240.5,-735.5 129.5,-735.5"/>
<polygon fill="#666666" stroke="#666666" points="129.5,-720.5 129.5,-720.5 240.5,-720.5 240.5,-720.5 129.5,-720.5"/>
<polygon fill="none" stroke="#666666" points="129,-659 129,-764 240,-764 240,-659 129,-659"/>
</a>
</g>
</g>
<!-- Node4&#45;&gt;Node14 -->
<g id="edge15_Node000014_Node000004" class="edge">
<title>Node4&#45;&gt;Node14</title>
<g id="a_edge15_Node000014_Node000004"><a xlink:title=" ">
<path fill="none" stroke="#63b8ff" d="M151.91,-841.67C157.55,-819.31 165.09,-789.41 171.5,-764.01"/>
<polygon fill="none" stroke="#63b8ff" points="148.51,-840.82 149.46,-851.37 155.3,-842.53 148.51,-840.82"/>
</a>
</g>
</g>
<!-- Node5 -->
<g id="Node000005" class="node">
<title>Node5</title>
<g id="a_Node000005"><a xlink:title=" ">
<polygon fill="white" stroke="transparent" points="100,-900.5 51,-900.5 51,-851.5 100,-851.5 100,-900.5"/>
<text text-anchor="start" x="56.5" y="-888" font-family="Helvetica,sans-Serif" font-size="10.00">Output_</text>
<text text-anchor="start" x="74" y="-873" font-family="Helvetica,sans-Serif" font-size="10.00"> </text>
<text text-anchor="start" x="74" y="-858" font-family="Helvetica,sans-Serif" font-size="10.00"> </text>
<polygon fill="#bfbfbf" stroke="#bfbfbf" points="51.5,-883 51.5,-883 100.5,-883 100.5,-883 51.5,-883"/>
<polygon fill="#bfbfbf" stroke="#bfbfbf" points="51.5,-868 51.5,-868 100.5,-868 100.5,-868 51.5,-868"/>
<polygon fill="none" stroke="#bfbfbf" points="51,-851.5 51,-900.5 100,-900.5 100,-851.5 51,-851.5"/>
</a>
</g>
</g>
<!-- Node5&#45;&gt;Node3 -->
<g id="edge4_Node000003_Node000005" class="edge">
<title>Node5&#45;&gt;Node3</title>
<g id="a_edge4_Node000003_Node000005"><a xlink:title=" ">
<path fill="none" stroke="#63b8ff" d="M71.36,-841.37C68.61,-819.04 64.95,-789.3 61.84,-764.01"/>
<polygon fill="none" stroke="#63b8ff" points="67.9,-841.87 72.59,-851.37 74.84,-841.02 67.9,-841.87"/>
</a>
</g>
</g>
<!-- Node5&#45;&gt;Node14 -->
<g id="edge16_Node000014_Node000005" class="edge">
<title>Node5&#45;&gt;Node14</title>
<g id="a_edge16_Node000014_Node000005"><a xlink:title=" ">
<path fill="none" stroke="#63b8ff" d="M97.05,-842.87C112.13,-820.39 132.6,-789.87 149.95,-764.01"/>
<polygon fill="none" stroke="#63b8ff" points="94.01,-841.12 91.35,-851.37 99.83,-845.02 94.01,-841.12"/>
</a>
</g>
</g>
<!-- Node6 -->
<g id="Node000006" class="node">
<title>Node6</title>
<g id="a_Node000006"><a xlink:href="group__spatialpartitioning.html#structPonca_1_1RangeIndexQuery" target="_top" xlink:title="Base Query class combining QueryInputIsIndex and QueryOutputIsRange.">
<polygon fill="white" stroke="transparent" points="343,-397 210,-397 210,-337 343,-337 343,-397"/>
<text text-anchor="start" x="215.5" y="-385" font-family="Helvetica,sans-Serif" font-size="10.00">Ponca::RangeIndexQuery</text>
<text text-anchor="start" x="234" y="-374" font-family="Helvetica,sans-Serif" font-size="10.00">&lt; Index, Scalar &gt;</text>
<text text-anchor="start" x="275" y="-359" font-family="Helvetica,sans-Serif" font-size="10.00"> </text>
<text text-anchor="start" x="275" y="-344" font-family="Helvetica,sans-Serif" font-size="10.00"> </text>
<polygon fill="#666666" stroke="#666666" points="210.5,-369 210.5,-369 343.5,-369 343.5,-369 210.5,-369"/>
<polygon fill="#666666" stroke="#666666" points="210.5,-354 210.5,-354 343.5,-354 343.5,-354 210.5,-354"/>
<polygon fill="none" stroke="#666666" points="210,-337 210,-397 343,-397 343,-337 210,-337"/>
</a>
</g>
</g>
<!-- Node6&#45;&gt;Node2 -->
<g id="edge5_Node000002_Node000006" class="edge">
<title>Node6&#45;&gt;Node2</title>
<g id="a_edge5_Node000002_Node000006"><a xlink:title=" ">
<path fill="none" stroke="orange" d="M275.61,-326.71C275.19,-308.12 274.69,-286.11 274.28,-268.15"/>
<polygon fill="orange" stroke="orange" points="272.12,-327 275.84,-336.92 279.11,-326.85 272.12,-327"/>
</a>
</g>
<text text-anchor="start" x="275.5" y="-311" font-family="Helvetica,sans-Serif" font-size="10.00" fill="grey"> &lt; Traits::IndexType,</text>
<text text-anchor="start" x="275.5" y="-300" font-family="Helvetica,sans-Serif" font-size="10.00" fill="grey"> Traits::DataPoint::</text>
<text text-anchor="middle" x="325.5" y="-289" font-family="Helvetica,sans-Serif" font-size="10.00" fill="grey">Scalar &gt;</text>
</g>
<!-- Node7 -->
<g id="Node000007" class="node">
<title>Node7</title>
<g id="a_Node000007"><a xlink:href="group__spatialpartitioning.html" target="_top" xlink:title=" ">
<polygon fill="white" stroke="transparent" points="366.5,-560 202.5,-560 202.5,-444 366.5,-444 366.5,-560"/>
<text text-anchor="start" x="207.5" y="-548" font-family="Helvetica,sans-Serif" font-size="10.00">Ponca::Query&lt; QueryInput</text>
<text text-anchor="start" x="207.5" y="-537" font-family="Helvetica,sans-Serif" font-size="10.00">IsIndex&lt; Index &gt;, QueryOutput</text>
<text text-anchor="start" x="216.5" y="-526" font-family="Helvetica,sans-Serif" font-size="10.00">IsRange&lt; Index, Scalar &gt; &gt;</text>
<text text-anchor="start" x="282.5" y="-511" font-family="Helvetica,sans-Serif" font-size="10.00"> </text>
<text text-anchor="start" x="228" y="-496" font-family="Helvetica,sans-Serif" font-size="10.00">+</text>
<text text-anchor="start" x="262.5" y="-496" font-family="Helvetica,sans-Serif" font-size="10.00">Query()</text>
<text text-anchor="start" x="228" y="-481" font-family="Helvetica,sans-Serif" font-size="10.00">+</text>
<text text-anchor="start" x="262.5" y="-481" font-family="Helvetica,sans-Serif" font-size="10.00">Query()</text>
<text text-anchor="start" x="228" y="-466" font-family="Helvetica,sans-Serif" font-size="10.00">+</text>
<text text-anchor="start" x="262.5" y="-466" font-family="Helvetica,sans-Serif" font-size="10.00">operator()()</text>
<text text-anchor="start" x="228" y="-451" font-family="Helvetica,sans-Serif" font-size="10.00">+</text>
<text text-anchor="start" x="262.5" y="-451" font-family="Helvetica,sans-Serif" font-size="10.00">operator()()</text>
<polygon fill="#666666" stroke="#666666" points="202.5,-521 202.5,-521 366.5,-521 366.5,-521 202.5,-521"/>
<polygon fill="#666666" stroke="#666666" points="202.5,-506 202.5,-506 366.5,-506 366.5,-506 202.5,-506"/>
<polygon fill="none" stroke="#666666" points="202.5,-444 202.5,-560 366.5,-560 366.5,-444 202.5,-444"/>
</a>
</g>
</g>
<!-- Node7&#45;&gt;Node6 -->
<g id="edge6_Node000006_Node000007" class="edge">
<title>Node7&#45;&gt;Node6</title>
<g id="a_edge6_Node000006_Node000007"><a xlink:title=" ">
<path fill="none" stroke="#63b8ff" d="M280.45,-433.6C279.68,-420.83 278.91,-408.09 278.26,-397.29"/>
<polygon fill="none" stroke="#63b8ff" points="276.97,-434.05 281.06,-443.82 283.95,-433.63 276.97,-434.05"/>
</a>
</g>
</g>
<!-- Node8 -->
<g id="Node000008" class="node">
<title>Node8</title>
<g id="a_Node000008"><a xlink:href="group__spatialpartitioning.html#structPonca_1_1QueryInputIsIndex" target="_top" xlink:title="Extension of QueryInput that handles an index based search, in a partitioning structure.">
<polygon fill="white" stroke="transparent" points="579,-764 444,-764 444,-659 579,-659 579,-764"/>
<text text-anchor="start" x="449.5" y="-751.5" font-family="Helvetica,sans-Serif" font-size="10.00">Ponca::QueryInputIsIndex</text>
<text text-anchor="start" x="487" y="-740.5" font-family="Helvetica,sans-Serif" font-size="10.00">&lt; Index &gt;</text>
<text text-anchor="start" x="510" y="-725.5" font-family="Helvetica,sans-Serif" font-size="10.00"> </text>
<text text-anchor="start" x="452.5" y="-710.5" font-family="Helvetica,sans-Serif" font-size="10.00">+</text>
<text text-anchor="start" x="469.5" y="-710.5" font-family="Helvetica,sans-Serif" font-size="10.00">QueryInputIsIndex()</text>
<text text-anchor="start" x="452.5" y="-695.5" font-family="Helvetica,sans-Serif" font-size="10.00">+</text>
<text text-anchor="start" x="469.5" y="-695.5" font-family="Helvetica,sans-Serif" font-size="10.00">operator()()</text>
<text text-anchor="start" x="452.5" y="-680.5" font-family="Helvetica,sans-Serif" font-size="10.00">#</text>
<text text-anchor="start" x="469.5" y="-680.5" font-family="Helvetica,sans-Serif" font-size="10.00">skipIndexFunctor()</text>
<text text-anchor="start" x="452.5" y="-665.5" font-family="Helvetica,sans-Serif" font-size="10.00">#</text>
<text text-anchor="start" x="469.5" y="-665.5" font-family="Helvetica,sans-Serif" font-size="10.00">getInputPosition()</text>
<polygon fill="#666666" stroke="#666666" points="444.5,-735.5 444.5,-735.5 579.5,-735.5 579.5,-735.5 444.5,-735.5"/>
<polygon fill="#666666" stroke="#666666" points="444.5,-720.5 444.5,-720.5 579.5,-720.5 579.5,-720.5 444.5,-720.5"/>
<polygon fill="none" stroke="#666666" points="444,-659 444,-764 579,-764 579,-659 444,-659"/>
</a>
</g>
</g>
<!-- Node8&#45;&gt;Node7 -->
<g id="edge7_Node000007_Node000008" class="edge">
<title>Node8&#45;&gt;Node7</title>
<g id="a_edge7_Node000007_Node000008"><a xlink:title=" ">
<path fill="none" stroke="#63b8ff" d="M456.98,-651.17C449.56,-643.58 441.93,-636.01 434.5,-629 409.64,-605.55 381.18,-581.09 355.78,-560.03"/>
<polygon fill="none" stroke="#63b8ff" points="454.85,-654 464.32,-658.76 459.88,-649.14 454.85,-654"/>
</a>
</g>
</g>
<!-- Node9 -->
<g id="Node000009" class="node">
<title>Node9</title>
<g id="a_Node000009"><a xlink:href="group__spatialpartitioning.html" target="_top" xlink:title=" ">
<polygon fill="white" stroke="transparent" points="565.5,-921 457.5,-921 457.5,-831 565.5,-831 565.5,-921"/>
<text text-anchor="start" x="462.5" y="-909" font-family="Helvetica,sans-Serif" font-size="10.00">Ponca::QueryInput&lt;</text>
<text text-anchor="start" x="490.5" y="-898" font-family="Helvetica,sans-Serif" font-size="10.00"> Index &gt;</text>
<text text-anchor="start" x="509.5" y="-883" font-family="Helvetica,sans-Serif" font-size="10.00"> </text>
<text text-anchor="start" x="467.5" y="-868" font-family="Helvetica,sans-Serif" font-size="10.00">+</text>
<text text-anchor="start" x="486.5" y="-868" font-family="Helvetica,sans-Serif" font-size="10.00">QueryInput()</text>
<text text-anchor="start" x="467.5" y="-853" font-family="Helvetica,sans-Serif" font-size="10.00">+</text>
<text text-anchor="start" x="486.5" y="-853" font-family="Helvetica,sans-Serif" font-size="10.00">input()</text>
<text text-anchor="start" x="467.5" y="-838" font-family="Helvetica,sans-Serif" font-size="10.00">#</text>
<text text-anchor="start" x="486.5" y="-838" font-family="Helvetica,sans-Serif" font-size="10.00">setInput()</text>
<polygon fill="#666666" stroke="#666666" points="457.5,-893 457.5,-893 565.5,-893 565.5,-893 457.5,-893"/>
<polygon fill="#666666" stroke="#666666" points="457.5,-878 457.5,-878 565.5,-878 565.5,-878 457.5,-878"/>
<polygon fill="none" stroke="#666666" points="457.5,-831 457.5,-921 565.5,-921 565.5,-831 457.5,-831"/>
</a>
</g>
</g>
<!-- Node9&#45;&gt;Node8 -->
<g id="edge8_Node000008_Node000009" class="edge">
<title>Node9&#45;&gt;Node8</title>
<g id="a_edge8_Node000008_Node000009"><a xlink:title=" ">
<path fill="none" stroke="#63b8ff" d="M511.5,-820.43C511.5,-802.22 511.5,-782.01 511.5,-764.04"/>
<polygon fill="none" stroke="#63b8ff" points="508,-820.6 511.5,-830.6 515,-820.6 508,-820.6"/>
</a>
</g>
</g>
<!-- Node10 -->
<g id="Node000010" class="node">
<title>Node10</title>
<g id="a_Node000010"><a xlink:href="group__spatialpartitioning.html#structPonca_1_1QueryInputBase" target="_top" xlink:title="Base class for queries input type.">
<polygon fill="white" stroke="transparent" points="556.5,-1144 432.5,-1144 432.5,-1095 556.5,-1095 556.5,-1144"/>
<text text-anchor="start" x="437.5" y="-1131.5" font-family="Helvetica,sans-Serif" font-size="10.00">Ponca::QueryInputBase</text>
<text text-anchor="start" x="492.5" y="-1116.5" font-family="Helvetica,sans-Serif" font-size="10.00"> </text>
<text text-anchor="start" x="492.5" y="-1101.5" font-family="Helvetica,sans-Serif" font-size="10.00"> </text>
<polygon fill="#666666" stroke="#666666" points="432.5,-1126.5 432.5,-1126.5 556.5,-1126.5 556.5,-1126.5 432.5,-1126.5"/>
<polygon fill="#666666" stroke="#666666" points="432.5,-1111.5 432.5,-1111.5 556.5,-1111.5 556.5,-1111.5 432.5,-1111.5"/>
<polygon fill="none" stroke="#666666" points="432.5,-1095 432.5,-1144 556.5,-1144 556.5,-1095 432.5,-1095"/>
</a>
</g>
</g>
<!-- Node10&#45;&gt;Node9 -->
<g id="edge9_Node000009_Node000010" class="edge">
<title>Node10&#45;&gt;Node9</title>
<g id="a_edge9_Node000009_Node000010"><a xlink:title=" ">
<path fill="none" stroke="#63b8ff" d="M495.47,-1084.64C496.48,-1054.11 498.37,-1008.01 501.5,-968 502.69,-952.79 504.39,-936.19 506.06,-921.38"/>
<polygon fill="none" stroke="#63b8ff" points="491.96,-1084.64 495.14,-1094.75 498.96,-1084.87 491.96,-1084.64"/>
</a>
</g>
</g>
<!-- Node11 -->
<g id="Node000011" class="node">
<title>Node11</title>
<g id="a_Node000011"><a xlink:href="group__spatialpartitioning.html#structPonca_1_1QueryInput" target="_top" xlink:title="Base class for Query input type.">
<polygon fill="white" stroke="transparent" points="618.5,-1058 510.5,-1058 510.5,-968 618.5,-968 618.5,-1058"/>
<text text-anchor="start" x="515.5" y="-1046" font-family="Helvetica,sans-Serif" font-size="10.00">Ponca::QueryInput&lt;</text>
<text text-anchor="start" x="531" y="-1035" font-family="Helvetica,sans-Serif" font-size="10.00"> InputType_ &gt;</text>
<text text-anchor="start" x="562.5" y="-1020" font-family="Helvetica,sans-Serif" font-size="10.00"> </text>
<text text-anchor="start" x="520.5" y="-1005" font-family="Helvetica,sans-Serif" font-size="10.00">+</text>
<text text-anchor="start" x="539.5" y="-1005" font-family="Helvetica,sans-Serif" font-size="10.00">QueryInput()</text>
<text text-anchor="start" x="520.5" y="-990" font-family="Helvetica,sans-Serif" font-size="10.00">+</text>
<text text-anchor="start" x="539.5" y="-990" font-family="Helvetica,sans-Serif" font-size="10.00">input()</text>
<text text-anchor="start" x="520.5" y="-975" font-family="Helvetica,sans-Serif" font-size="10.00">#</text>
<text text-anchor="start" x="539.5" y="-975" font-family="Helvetica,sans-Serif" font-size="10.00">setInput()</text>
<polygon fill="#666666" stroke="#666666" points="510.5,-1030 510.5,-1030 618.5,-1030 618.5,-1030 510.5,-1030"/>
<polygon fill="#666666" stroke="#666666" points="510.5,-1015 510.5,-1015 618.5,-1015 618.5,-1015 510.5,-1015"/>
<polygon fill="none" stroke="#666666" points="510.5,-968 510.5,-1058 618.5,-1058 618.5,-968 510.5,-968"/>
</a>
</g>
</g>
<!-- Node10&#45;&gt;Node11 -->
<g id="edge11_Node000011_Node000010" class="edge">
<title>Node10&#45;&gt;Node11</title>
<g id="a_edge11_Node000011_Node000010"><a xlink:title=" ">
<path fill="none" stroke="#63b8ff" d="M516.1,-1086.26C522.04,-1077.39 528.59,-1067.6 534.91,-1058.18"/>
<polygon fill="none" stroke="#63b8ff" points="513.04,-1084.53 510.38,-1094.79 518.86,-1088.43 513.04,-1084.53"/>
</a>
</g>
</g>
<!-- Node11&#45;&gt;Node9 -->
<g id="edge10_Node000009_Node000011" class="edge">
<title>Node11&#45;&gt;Node9</title>
<g id="a_edge10_Node000009_Node000011"><a xlink:title=" ">
<path fill="none" stroke="orange" d="M543.36,-958.16C538.56,-945.93 533.52,-933.08 528.89,-921.3"/>
<polygon fill="orange" stroke="orange" points="540.23,-959.77 547.15,-967.8 546.75,-957.21 540.23,-959.77"/>
</a>
</g>
<text text-anchor="middle" x="566" y="-942" font-family="Helvetica,sans-Serif" font-size="10.00" fill="grey"> &lt; Index &gt;</text>
</g>
<!-- Node12 -->
<g id="Node000012" class="node">
<title>Node12</title>
<g id="a_Node000012"><a xlink:href="group__spatialpartitioning.html#structPonca_1_1QueryOutputIsRange" target="_top" xlink:title="Class to construct the range query output.">
<polygon fill="white" stroke="transparent" points="425.5,-794 267.5,-794 267.5,-629 425.5,-629 425.5,-794"/>
<text text-anchor="start" x="278" y="-781.5" font-family="Helvetica,sans-Serif" font-size="10.00">Ponca::QueryOutputIsRange</text>
<text text-anchor="start" x="303.5" y="-770.5" font-family="Helvetica,sans-Serif" font-size="10.00">&lt; Index, Scalar &gt;</text>
<text text-anchor="start" x="271.5" y="-755.5" font-family="Helvetica,sans-Serif" font-size="10.00">#</text>
<text text-anchor="start" x="284.5" y="-755.5" font-family="Helvetica,sans-Serif" font-size="10.00">m_squared_radius</text>
<text text-anchor="start" x="271.5" y="-740.5" font-family="Helvetica,sans-Serif" font-size="10.00">+</text>
<text text-anchor="start" x="284.5" y="-740.5" font-family="Helvetica,sans-Serif" font-size="10.00">QueryOutputIsRange()</text>
<text text-anchor="start" x="271.5" y="-725.5" font-family="Helvetica,sans-Serif" font-size="10.00">+</text>
<text text-anchor="start" x="284.5" y="-725.5" font-family="Helvetica,sans-Serif" font-size="10.00">operator()()</text>
<text text-anchor="start" x="271.5" y="-710.5" font-family="Helvetica,sans-Serif" font-size="10.00">+</text>
<text text-anchor="start" x="284.5" y="-710.5" font-family="Helvetica,sans-Serif" font-size="10.00">radius()</text>
<text text-anchor="start" x="271.5" y="-695.5" font-family="Helvetica,sans-Serif" font-size="10.00">+</text>
<text text-anchor="start" x="284.5" y="-695.5" font-family="Helvetica,sans-Serif" font-size="10.00">squaredRadius()</text>
<text text-anchor="start" x="271.5" y="-680.5" font-family="Helvetica,sans-Serif" font-size="10.00">+</text>
<text text-anchor="start" x="284.5" y="-680.5" font-family="Helvetica,sans-Serif" font-size="10.00">setRadius()</text>
<text text-anchor="start" x="271.5" y="-665.5" font-family="Helvetica,sans-Serif" font-size="10.00">+</text>
<text text-anchor="start" x="284.5" y="-665.5" font-family="Helvetica,sans-Serif" font-size="10.00">setSquaredRadius()</text>
<text text-anchor="start" x="271.5" y="-650.5" font-family="Helvetica,sans-Serif" font-size="10.00">#</text>
<text text-anchor="start" x="284.5" y="-650.5" font-family="Helvetica,sans-Serif" font-size="10.00">reset()</text>
<text text-anchor="start" x="271.5" y="-635.5" font-family="Helvetica,sans-Serif" font-size="10.00">#</text>
<text text-anchor="start" x="284.5" y="-635.5" font-family="Helvetica,sans-Serif" font-size="10.00">descentDistanceThreshold()</text>
<polygon fill="#666666" stroke="#666666" points="267.5,-765.5 267.5,-765.5 425.5,-765.5 425.5,-765.5 267.5,-765.5"/>
<polygon fill="#666666" stroke="#666666" points="267.5,-750.5 267.5,-750.5 282.5,-750.5 282.5,-750.5 267.5,-750.5"/>
<polygon fill="#666666" stroke="#666666" points="282.5,-750.5 282.5,-750.5 425.5,-750.5 425.5,-750.5 282.5,-750.5"/>
<polygon fill="none" stroke="#666666" points="267.5,-629 267.5,-794 425.5,-794 425.5,-629 267.5,-629"/>
</a>
</g>
</g>
<!-- Node12&#45;&gt;Node7 -->
<g id="edge12_Node000007_Node000012" class="edge">
<title>Node12&#45;&gt;Node7</title>
<g id="a_edge12_Node000007_Node000012"><a xlink:title=" ">
<path fill="none" stroke="#63b8ff" d="M346.82,-618.74C345,-604.83 342.07,-590.85 337.5,-578 335.36,-571.99 332.6,-566.03 329.46,-560.24"/>
<polygon fill="none" stroke="#63b8ff" points="343.36,-619.29 347.95,-628.84 350.32,-618.51 343.36,-619.29"/>
</a>
</g>
</g>
<!-- Node13 -->
<g id="Node000013" class="node">
<title>Node13</title>
<g id="a_Node000013"><a xlink:href="group__spatialpartitioning.html#structPonca_1_1QueryOutputBase" target="_top" xlink:title="Base class for queries output types.">
<polygon fill="white" stroke="transparent" points="412.5,-900.5 280.5,-900.5 280.5,-851.5 412.5,-851.5 412.5,-900.5"/>
<text text-anchor="start" x="285.5" y="-888" font-family="Helvetica,sans-Serif" font-size="10.00">Ponca::QueryOutputBase</text>
<text text-anchor="start" x="344.5" y="-873" font-family="Helvetica,sans-Serif" font-size="10.00"> </text>
<text text-anchor="start" x="344.5" y="-858" font-family="Helvetica,sans-Serif" font-size="10.00"> </text>
<polygon fill="#666666" stroke="#666666" points="280.5,-883 280.5,-883 412.5,-883 412.5,-883 280.5,-883"/>
<polygon fill="#666666" stroke="#666666" points="280.5,-868 280.5,-868 412.5,-868 412.5,-868 280.5,-868"/>
<polygon fill="none" stroke="#666666" points="280.5,-851.5 280.5,-900.5 412.5,-900.5 412.5,-851.5 280.5,-851.5"/>
</a>
</g>
</g>
<!-- Node13&#45;&gt;Node12 -->
<g id="edge13_Node000012_Node000013" class="edge">
<title>Node13&#45;&gt;Node12</title>
<g id="a_edge13_Node000012_Node000013"><a xlink:title=" ">
<path fill="none" stroke="#63b8ff" d="M346.5,-840.98C346.5,-827.22 346.5,-810.68 346.5,-794.13"/>
<polygon fill="none" stroke="#63b8ff" points="343,-841.37 346.5,-851.37 350,-841.37 343,-841.37"/>
</a>
</g>
</g>
<!-- Node14&#45;&gt;Node7 -->
<g id="edge14_Node000007_Node000014" class="edge">
<title>Node14&#45;&gt;Node7</title>
<g id="a_edge14_Node000007_Node000014"><a xlink:title=" ">
<path fill="none" stroke="orange" d="M167.69,-648.65C164.62,-625.35 165.34,-599.35 176.5,-578 182.8,-565.96 192,-555.47 202.42,-546.46"/>
<polygon fill="orange" stroke="orange" points="164.27,-649.46 169.27,-658.8 171.19,-648.37 164.27,-649.46"/>
</a>
</g>
<text text-anchor="start" x="176.5" y="-603" font-family="Helvetica,sans-Serif" font-size="10.00" fill="grey"> &lt; QueryInputIsIndex</text>
<text text-anchor="start" x="176.5" y="-592" font-family="Helvetica,sans-Serif" font-size="10.00" fill="grey">&lt; Index &gt;, QueryOutputIsRange</text>
<text text-anchor="middle" x="255" y="-581" font-family="Helvetica,sans-Serif" font-size="10.00" fill="grey">&lt; Index, Scalar &gt; &gt;</text>
</g>
<!-- Node15 -->
<g id="Node000015" class="node">
<title>Node15</title>
<g id="a_Node000015"><a xlink:title=" ">
<polygon fill="white" stroke="transparent" points="441.5,-257 359.5,-257 359.5,-208 441.5,-208 441.5,-257"/>
<text text-anchor="start" x="364.5" y="-244.5" font-family="Helvetica,sans-Serif" font-size="10.00">std::set&lt; int &gt;</text>
<text text-anchor="start" x="373" y="-229.5" font-family="Helvetica,sans-Serif" font-size="10.00">+</text>
<text text-anchor="start" x="395.5" y="-229.5" font-family="Helvetica,sans-Serif" font-size="10.00">keys</text>
<text text-anchor="start" x="398.5" y="-214.5" font-family="Helvetica,sans-Serif" font-size="10.00"> </text>
<polygon fill="#666666" stroke="#666666" points="359.5,-239.5 359.5,-239.5 441.5,-239.5 441.5,-239.5 359.5,-239.5"/>
<polygon fill="#666666" stroke="#666666" points="359.5,-224.5 359.5,-224.5 393.5,-224.5 393.5,-224.5 359.5,-224.5"/>
<polygon fill="#666666" stroke="#666666" points="393.5,-224.5 393.5,-224.5 441.5,-224.5 441.5,-224.5 393.5,-224.5"/>
<polygon fill="none" stroke="#666666" points="359.5,-208 359.5,-257 441.5,-257 441.5,-208 359.5,-208"/>
</a>
</g>
</g>
<!-- Node15&#45;&gt;Node1 -->
<g id="edge17_Node000001_Node000015" class="edge">
<title>Node15&#45;&gt;Node1</title>
<g id="a_edge17_Node000001_Node000015"><a xlink:title=" ">
<path fill="none" stroke="#63b8ff" d="M400.5,-207.88C400.5,-195.37 400.5,-179.15 400.5,-162.38"/>
<polygon fill="none" stroke="#63b8ff" points="400.5,-162.12 396.5,-156.12 400.5,-150.12 404.5,-156.12 400.5,-162.12"/>
</a>
</g>
<text text-anchor="middle" x="423" y="-171" font-family="Helvetica,sans-Serif" font-size="10.00" fill="grey"> #m_flag</text>
</g>
<!-- Node16 -->
<g id="Node000016" class="node">
<title>Node16</title>
<g id="a_Node000016"><a xlink:title=" ">
<polygon fill="white" stroke="transparent" points="438.5,-391.5 362.5,-391.5 362.5,-342.5 438.5,-342.5 438.5,-391.5"/>
<text text-anchor="start" x="367.5" y="-379" font-family="Helvetica,sans-Serif" font-size="10.00">std::set&lt; K &gt;</text>
<text text-anchor="start" x="398.5" y="-364" font-family="Helvetica,sans-Serif" font-size="10.00"> </text>
<text text-anchor="start" x="398.5" y="-349" font-family="Helvetica,sans-Serif" font-size="10.00"> </text>
<polygon fill="#666666" stroke="#666666" points="362.5,-374 362.5,-374 438.5,-374 438.5,-374 362.5,-374"/>
<polygon fill="#666666" stroke="#666666" points="362.5,-359 362.5,-359 438.5,-359 438.5,-359 362.5,-359"/>
<polygon fill="none" stroke="#666666" points="362.5,-342.5 362.5,-391.5 438.5,-391.5 438.5,-342.5 362.5,-342.5"/>
</a>
</g>
</g>
<!-- Node16&#45;&gt;Node15 -->
<g id="edge18_Node000015_Node000016" class="edge">
<title>Node16&#45;&gt;Node15</title>
<g id="a_edge18_Node000015_Node000016"><a xlink:title=" ">
<path fill="none" stroke="orange" d="M400.5,-332.14C400.5,-308.78 400.5,-278.29 400.5,-257.43"/>
<polygon fill="orange" stroke="orange" points="397,-332.31 400.5,-342.31 404,-332.31 397,-332.31"/>
</a>
</g>
<text text-anchor="middle" x="420" y="-300" font-family="Helvetica,sans-Serif" font-size="10.00" fill="grey"> &lt; int &gt;</text>
</g>
<!-- Node17 -->
<g id="Node000017" class="node">
<title>Node17</title>
<g id="a_Node000017"><a xlink:title=" ">
<polygon fill="white" stroke="transparent" points="409,-526.5 392,-526.5 392,-477.5 409,-477.5 409,-526.5"/>
<text text-anchor="start" x="397.5" y="-514" font-family="Helvetica,sans-Serif" font-size="10.00">K</text>
<text text-anchor="start" x="399" y="-499" font-family="Helvetica,sans-Serif" font-size="10.00"> </text>
<text text-anchor="start" x="399" y="-484" font-family="Helvetica,sans-Serif" font-size="10.00"> </text>
<polygon fill="#bfbfbf" stroke="#bfbfbf" points="392.5,-509 392.5,-509 409.5,-509 409.5,-509 392.5,-509"/>
<polygon fill="#bfbfbf" stroke="#bfbfbf" points="392.5,-494 392.5,-494 409.5,-494 409.5,-494 392.5,-494"/>
<polygon fill="none" stroke="#bfbfbf" points="392,-477.5 392,-526.5 409,-526.5 409,-477.5 392,-477.5"/>
</a>
</g>
</g>
<!-- Node17&#45;&gt;Node16 -->
<g id="edge19_Node000016_Node000017" class="edge">
<title>Node17&#45;&gt;Node16</title>
<g id="a_edge19_Node000016_Node000017"><a xlink:title=" ">
<path fill="none" stroke="#63b8ff" d="M400.5,-477.22C400.5,-456.8 400.5,-427.04 400.5,-403.75"/>
<polygon fill="none" stroke="#63b8ff" points="400.5,-403.57 396.5,-397.57 400.5,-391.57 404.5,-397.57 400.5,-403.57"/>
</a>
</g>
<text text-anchor="middle" x="417.5" y="-418" font-family="Helvetica,sans-Serif" font-size="10.00" fill="grey"> +keys</text>
</g>
<!-- Node18 -->
<g id="Node000018" class="node">
<title>Node18</title>
<g id="a_Node000018"><a xlink:title=" ">
<polygon fill="white" stroke="transparent" points="553,-257 460,-257 460,-208 553,-208 553,-257"/>
<text text-anchor="start" x="465.5" y="-244.5" font-family="Helvetica,sans-Serif" font-size="10.00">std::stack&lt; int &gt;</text>
<text text-anchor="start" x="471" y="-229.5" font-family="Helvetica,sans-Serif" font-size="10.00">+</text>
<text text-anchor="start" x="490.5" y="-229.5" font-family="Helvetica,sans-Serif" font-size="10.00">elements</text>
<text text-anchor="start" x="505" y="-214.5" font-family="Helvetica,sans-Serif" font-size="10.00"> </text>
<polygon fill="#666666" stroke="#666666" points="460.5,-239.5 460.5,-239.5 553.5,-239.5 553.5,-239.5 460.5,-239.5"/>
<polygon fill="#666666" stroke="#666666" points="460.5,-224.5 460.5,-224.5 488.5,-224.5 488.5,-224.5 460.5,-224.5"/>
<polygon fill="#666666" stroke="#666666" points="488.5,-224.5 488.5,-224.5 553.5,-224.5 553.5,-224.5 488.5,-224.5"/>
<polygon fill="none" stroke="#666666" points="460,-208 460,-257 553,-257 553,-208 460,-208"/>
</a>
</g>
</g>
<!-- Node18&#45;&gt;Node1 -->
<g id="edge20_Node000001_Node000018" class="edge">
<title>Node18&#45;&gt;Node1</title>
<g id="a_edge20_Node000001_Node000018"><a xlink:title=" ">
<path fill="none" stroke="#63b8ff" d="M490.4,-207.88C481.54,-194.89 469.95,-177.88 458.05,-160.43"/>
<polygon fill="none" stroke="#63b8ff" points="457.79,-160.04 451.1,-157.33 451.03,-150.12 457.71,-152.83 457.79,-160.04"/>
</a>
</g>
<text text-anchor="middle" x="496" y="-171" font-family="Helvetica,sans-Serif" font-size="10.00" fill="grey"> #m_stack</text>
</g>
<!-- Node19 -->
<g id="Node000019" class="node">
<title>Node19</title>
<g id="a_Node000019"><a xlink:title=" ">
<polygon fill="white" stroke="transparent" points="549.5,-391.5 463.5,-391.5 463.5,-342.5 549.5,-342.5 549.5,-391.5"/>
<text text-anchor="start" x="468.5" y="-379" font-family="Helvetica,sans-Serif" font-size="10.00">std::stack&lt; T &gt;</text>
<text text-anchor="start" x="504.5" y="-364" font-family="Helvetica,sans-Serif" font-size="10.00"> </text>
<text text-anchor="start" x="504.5" y="-349" font-family="Helvetica,sans-Serif" font-size="10.00"> </text>
<polygon fill="#666666" stroke="#666666" points="463.5,-374 463.5,-374 549.5,-374 549.5,-374 463.5,-374"/>
<polygon fill="#666666" stroke="#666666" points="463.5,-359 463.5,-359 549.5,-359 549.5,-359 463.5,-359"/>
<polygon fill="none" stroke="#666666" points="463.5,-342.5 463.5,-391.5 549.5,-391.5 549.5,-342.5 463.5,-342.5"/>
</a>
</g>
</g>
<!-- Node19&#45;&gt;Node18 -->
<g id="edge21_Node000018_Node000019" class="edge">
<title>Node19&#45;&gt;Node18</title>
<g id="a_edge21_Node000018_Node000019"><a xlink:title=" ">
<path fill="none" stroke="orange" d="M506.5,-332.14C506.5,-308.78 506.5,-278.29 506.5,-257.43"/>
<polygon fill="orange" stroke="orange" points="503,-332.31 506.5,-342.31 510,-332.31 503,-332.31"/>
</a>
</g>
<text text-anchor="middle" x="526" y="-300" font-family="Helvetica,sans-Serif" font-size="10.00" fill="grey"> &lt; int &gt;</text>
</g>
<!-- Node20 -->
<g id="Node000020" class="node">
<title>Node20</title>
<g id="a_Node000020"><a xlink:title=" ">
<polygon fill="white" stroke="transparent" points="515,-526.5 498,-526.5 498,-477.5 515,-477.5 515,-526.5"/>
<text text-anchor="start" x="503.5" y="-514" font-family="Helvetica,sans-Serif" font-size="10.00">T</text>
<text text-anchor="start" x="505" y="-499" font-family="Helvetica,sans-Serif" font-size="10.00"> </text>
<text text-anchor="start" x="505" y="-484" font-family="Helvetica,sans-Serif" font-size="10.00"> </text>
<polygon fill="#bfbfbf" stroke="#bfbfbf" points="498.5,-509 498.5,-509 515.5,-509 515.5,-509 498.5,-509"/>
<polygon fill="#bfbfbf" stroke="#bfbfbf" points="498.5,-494 498.5,-494 515.5,-494 515.5,-494 498.5,-494"/>
<polygon fill="none" stroke="#bfbfbf" points="498,-477.5 498,-526.5 515,-526.5 515,-477.5 498,-477.5"/>
</a>
</g>
</g>
<!-- Node20&#45;&gt;Node19 -->
<g id="edge22_Node000019_Node000020" class="edge">
<title>Node20&#45;&gt;Node19</title>
<g id="a_edge22_Node000019_Node000020"><a xlink:title=" ">
<path fill="none" stroke="#63b8ff" d="M506.5,-477.22C506.5,-456.8 506.5,-427.04 506.5,-403.75"/>
<polygon fill="none" stroke="#63b8ff" points="506.5,-403.57 502.5,-397.57 506.5,-391.57 510.5,-397.57 506.5,-403.57"/>
</a>
</g>
<text text-anchor="middle" x="535.5" y="-418" font-family="Helvetica,sans-Serif" font-size="10.00" fill="grey"> +elements</text>
</g>
</g>
</svg>
