<?xml version="1.0" encoding="UTF-8" standalone="no"?>
<!DOCTYPE svg PUBLIC "-//W3C//DTD SVG 1.1//EN"
 "http://www.w3.org/Graphics/SVG/1.1/DTD/svg11.dtd">
<!-- Generated by graphviz version 2.43.0 (0)
 -->
<!-- Title: Ponca::KdTreeSparseBase&lt; Traits &gt; Pages: 1 -->
<!--zoomable 968 -->

<svg id="main" version="1.1" xmlns="http://www.w3.org/2000/svg" xmlns:xlink="http://www.w3.org/1999/xlink" xml:space="preserve" onload="init(evt)">
<style type="text/css"><![CDATA[
.node, .edge {opacity: 0.7;}
.node.selected, .edge.selected {opacity: 1;}
.edge:hover path { stroke: red; }
.edge:hover polygon { stroke: red; fill: red; }
]]></style>

<defs>
  <circle id="rim" cx="0" cy="0" r="7"/>
  <circle id="rim2" cx="0" cy="0" r="3.5"/>
  <g id="zoomPlus">
    <use xlink:href="#rim" fill="#404040"><set attributeName="fill" to="#808080" begin="zoomplus.mouseover" end="zoomplus.mouseout"/></use>
    <path d="M-4,0h8M0,-4v8" fill="none" stroke="white" stroke-width="1.5" pointer-events="none"/>
  </g>
  <g id="zoomMin">
    <use xlink:href="#rim" fill="#404040"><set attributeName="fill" to="#808080" begin="zoomminus.mouseover" end="zoomminus.mouseout"/></use>
    <path d="M-4,0h8" fill="none" stroke="white" stroke-width="1.5" pointer-events="none"/>
  </g>
  <g id="arrowUp" transform="translate(30 24)">
    <use xlink:href="#rim"/>
    <path pointer-events="none" fill="none" stroke="white" stroke-width="1.5" d="M0,-3.0v7 M-2.5,-0.5L0,-3.0L2.5,-0.5"/>
  </g>
  <g id="arrowRight" transform="rotate(90) translate(36 -43)">
    <use xlink:href="#rim"/>
    <path pointer-events="none" fill="none" stroke="white" stroke-width="1.5" d="M0,-3.0v7 M-2.5,-0.5L0,-3.0L2.5,-0.5"/>
  </g>
  <g id="arrowDown" transform="rotate(180) translate(-30 -48)">
    <use xlink:href="#rim"/>
    <path pointer-events="none" fill="none" stroke="white" stroke-width="1.5" d="M0,-3.0v7 M-2.5,-0.5L0,-3.0L2.5,-0.5"/>
  </g>
  <g id="arrowLeft" transform="rotate(270) translate(-36 17)">
    <use xlink:href="#rim"/>
    <path pointer-events="none" fill="none" stroke="white" stroke-width="1.5" d="M0,-3.0v7 M-2.5,-0.5L0,-3.0L2.5,-0.5"/>
  </g>
  <g id="resetDef">
    <use xlink:href="#rim2" fill="#404040"><set attributeName="fill" to="#808080" begin="reset.mouseover" end="reset.mouseout"/></use>
  </g>
</defs>
<script type="application/ecmascript">
var viewWidth = 193;
var viewHeight = 968;
var sectionId = 'dynsection-0';
</script>
<script type="application/ecmascript" xlink:href="svg.min.js"/>
<svg id="graph" class="graph">
<g id="viewport">
<title>Ponca::KdTreeSparseBase&lt; Traits &gt;</title>
<!-- Node1 -->
<g id="Node000001" class="node">
<title>Node1</title>
<g id="a_Node000001"><a xlink:title="Customizable base class for KdTreeSparse datastructure.">
<polygon fill="#999999" stroke="transparent" points="150,-436 0,-436 0,-301 150,-301 150,-436"/>
<text text-anchor="start" x="12" y="-423.5" font-family="Helvetica,sans-Serif" font-size="10.00">Ponca::KdTreeSparseBase</text>
<text text-anchor="start" x="50.5" y="-412.5" font-family="Helvetica,sans-Serif" font-size="10.00">&lt; Traits &gt;</text>
<text text-anchor="start" x="4" y="-397.5" font-family="Helvetica,sans-Serif" font-size="10.00">+</text>
<text text-anchor="start" x="17" y="-397.5" font-family="Helvetica,sans-Serif" font-size="10.00">SUPPORTS_SUBSAMPLING</text>
<text text-anchor="start" x="4" y="-382.5" font-family="Helvetica,sans-Serif" font-size="10.00">+</text>
<text text-anchor="start" x="17" y="-382.5" font-family="Helvetica,sans-Serif" font-size="10.00">KdTreeSparseBase()</text>
<text text-anchor="start" x="4" y="-367.5" font-family="Helvetica,sans-Serif" font-size="10.00">+</text>
<text text-anchor="start" x="17" y="-367.5" font-family="Helvetica,sans-Serif" font-size="10.00">KdTreeSparseBase()</text>
<text text-anchor="start" x="4" y="-352.5" font-family="Helvetica,sans-Serif" font-size="10.00">+</text>
<text text-anchor="start" x="17" y="-352.5" font-family="Helvetica,sans-Serif" font-size="10.00">KdTreeSparseBase()</text>
<text text-anchor="start" x="4" y="-337.5" font-family="Helvetica,sans-Serif" font-size="10.00">+</text>
<text text-anchor="start" x="17" y="-337.5" font-family="Helvetica,sans-Serif" font-size="10.00">buildWithSampling()</text>
<text text-anchor="start" x="4" y="-322.5" font-family="Helvetica,sans-Serif" font-size="10.00">+</text>
<text text-anchor="start" x="17" y="-322.5" font-family="Helvetica,sans-Serif" font-size="10.00">buildWithSampling()</text>
<text text-anchor="start" x="4" y="-307.5" font-family="Helvetica,sans-Serif" font-size="10.00">+</text>
<text text-anchor="start" x="17" y="-307.5" font-family="Helvetica,sans-Serif" font-size="10.00">buildWithSampling()</text>
<polygon fill="#666666" stroke="#666666" points="0,-407.5 0,-407.5 150,-407.5 150,-407.5 0,-407.5"/>
<polygon fill="#666666" stroke="#666666" points="0,-392.5 0,-392.5 15,-392.5 15,-392.5 0,-392.5"/>
<polygon fill="#666666" stroke="#666666" points="15,-392.5 15,-392.5 150,-392.5 150,-392.5 15,-392.5"/>
<polygon fill="none" stroke="#666666" points="0,-301 0,-436 150,-436 150,-301 0,-301"/>
</a>
</g>
</g>
<!-- Node4 -->
<g id="Node000004" class="node">
<title>Node4</title>
<g id="a_Node000004"><a xlink:href="classPonca_1_1KdTreeSparseBase.html" target="_top" xlink:title=" ">
<polygon fill="white" stroke="transparent" points="150,-243 0,-243 0,-97 150,-97 150,-243"/>
<text text-anchor="start" x="12" y="-231" font-family="Helvetica,sans-Serif" font-size="10.00">Ponca::KdTreeSparseBase</text>
<text text-anchor="start" x="12" y="-220" font-family="Helvetica,sans-Serif" font-size="10.00">&lt; KdTreeDefaultTraits</text>
<text text-anchor="start" x="34" y="-209" font-family="Helvetica,sans-Serif" font-size="10.00">&lt; DataPoint &gt; &gt;</text>
<text text-anchor="start" x="4" y="-194" font-family="Helvetica,sans-Serif" font-size="10.00">+</text>
<text text-anchor="start" x="17" y="-194" font-family="Helvetica,sans-Serif" font-size="10.00">SUPPORTS_SUBSAMPLING</text>
<text text-anchor="start" x="4" y="-179" font-family="Helvetica,sans-Serif" font-size="10.00">+</text>
<text text-anchor="start" x="17" y="-179" font-family="Helvetica,sans-Serif" font-size="10.00">KdTreeSparseBase()</text>
<text text-anchor="start" x="4" y="-164" font-family="Helvetica,sans-Serif" font-size="10.00">+</text>
<text text-anchor="start" x="17" y="-164" font-family="Helvetica,sans-Serif" font-size="10.00">KdTreeSparseBase()</text>
<text text-anchor="start" x="4" y="-149" font-family="Helvetica,sans-Serif" font-size="10.00">+</text>
<text text-anchor="start" x="17" y="-149" font-family="Helvetica,sans-Serif" font-size="10.00">KdTreeSparseBase()</text>
<text text-anchor="start" x="4" y="-134" font-family="Helvetica,sans-Serif" font-size="10.00">+</text>
<text text-anchor="start" x="17" y="-134" font-family="Helvetica,sans-Serif" font-size="10.00">buildWithSampling()</text>
<text text-anchor="start" x="4" y="-119" font-family="Helvetica,sans-Serif" font-size="10.00">+</text>
<text text-anchor="start" x="17" y="-119" font-family="Helvetica,sans-Serif" font-size="10.00">buildWithSampling()</text>
<text text-anchor="start" x="4" y="-104" font-family="Helvetica,sans-Serif" font-size="10.00">+</text>
<text text-anchor="start" x="17" y="-104" font-family="Helvetica,sans-Serif" font-size="10.00">buildWithSampling()</text>
<polygon fill="#666666" stroke="#666666" points="0,-204 0,-204 150,-204 150,-204 0,-204"/>
<polygon fill="#666666" stroke="#666666" points="0,-189 0,-189 15,-189 15,-189 0,-189"/>
<polygon fill="#666666" stroke="#666666" points="15,-189 15,-189 150,-189 150,-189 15,-189"/>
<polygon fill="none" stroke="#666666" points="0,-97 0,-243 150,-243 150,-97 0,-97"/>
</a>
</g>
</g>
<!-- Node1&#45;&gt;Node4 -->
<g id="edge3_Node000001_Node000004" class="edge">
<title>Node1&#45;&gt;Node4</title>
<g id="a_edge3_Node000001_Node000004"><a xlink:title=" ">
<path fill="none" stroke="orange" d="M75,-290.8C75,-275.13 75,-258.69 75,-243.18"/>
<polygon fill="orange" stroke="orange" points="71.5,-290.97 75,-300.97 78.5,-290.97 71.5,-290.97"/>
</a>
</g>
<text text-anchor="start" x="75" y="-275" font-family="Helvetica,sans-Serif" font-size="10.00" fill="grey"> &lt; KdTreeDefaultTraits</text>
<text text-anchor="middle" x="130" y="-264" font-family="Helvetica,sans-Serif" font-size="10.00" fill="grey">&lt; DataPoint &gt; &gt;</text>
</g>
<!-- Node2 -->
<g id="Node000002" class="node">
<title>Node2</title>
<g id="a_Node000002"><a xlink:href="classPonca_1_1KdTreeBase.html" target="_top" xlink:title=" ">
<polygon fill="white" stroke="transparent" points="135.5,-608 14.5,-608 14.5,-473 135.5,-473 135.5,-608"/>
<text text-anchor="start" x="25" y="-595.5" font-family="Helvetica,sans-Serif" font-size="10.00">Ponca::KdTreeBase&lt;</text>
<text text-anchor="start" x="55" y="-584.5" font-family="Helvetica,sans-Serif" font-size="10.00"> Traits &gt;</text>
<text text-anchor="start" x="73.5" y="-569.5" font-family="Helvetica,sans-Serif" font-size="10.00"> </text>
<text text-anchor="start" x="19" y="-554.5" font-family="Helvetica,sans-Serif" font-size="10.00">+</text>
<text text-anchor="start" x="32" y="-554.5" font-family="Helvetica,sans-Serif" font-size="10.00">build()</text>
<text text-anchor="start" x="19" y="-539.5" font-family="Helvetica,sans-Serif" font-size="10.00">+</text>
<text text-anchor="start" x="32" y="-539.5" font-family="Helvetica,sans-Serif" font-size="10.00">build()</text>
<text text-anchor="start" x="19" y="-524.5" font-family="Helvetica,sans-Serif" font-size="10.00">+</text>
<text text-anchor="start" x="32" y="-524.5" font-family="Helvetica,sans-Serif" font-size="10.00">build()</text>
<text text-anchor="start" x="19" y="-509.5" font-family="Helvetica,sans-Serif" font-size="10.00">+</text>
<text text-anchor="start" x="32" y="-509.5" font-family="Helvetica,sans-Serif" font-size="10.00">buildWithSampling()</text>
<text text-anchor="start" x="19" y="-494.5" font-family="Helvetica,sans-Serif" font-size="10.00">#</text>
<text text-anchor="start" x="32" y="-494.5" font-family="Helvetica,sans-Serif" font-size="10.00">buildWithSampling()</text>
<text text-anchor="start" x="19" y="-479.5" font-family="Helvetica,sans-Serif" font-size="10.00">#</text>
<text text-anchor="start" x="32" y="-479.5" font-family="Helvetica,sans-Serif" font-size="10.00">buildWithSampling()</text>
<polygon fill="#666666" stroke="#666666" points="15,-579.5 15,-579.5 136,-579.5 136,-579.5 15,-579.5"/>
<polygon fill="#666666" stroke="#666666" points="15,-564.5 15,-564.5 136,-564.5 136,-564.5 15,-564.5"/>
<polygon fill="none" stroke="#666666" points="14.5,-473 14.5,-608 135.5,-608 135.5,-473 14.5,-473"/>
</a>
</g>
</g>
<!-- Node2&#45;&gt;Node1 -->
<g id="edge1_Node000001_Node000002" class="edge">
<title>Node2&#45;&gt;Node1</title>
<g id="a_edge1_Node000001_Node000002"><a xlink:title=" ">
<path fill="none" stroke="#63b8ff" d="M75,-462.78C75,-453.85 75,-444.79 75,-436.01"/>
<polygon fill="none" stroke="#63b8ff" points="71.5,-462.8 75,-472.8 78.5,-462.8 71.5,-462.8"/>
</a>
</g>
</g>
<!-- Node3 -->
<g id="Node000003" class="node">
<title>Node3</title>
<g id="a_Node000003"><a xlink:href="classPonca_1_1StaticKdTreeBase.html" target="_top" xlink:title="Customizable static base class for KdTree datastructure implementations.">
<polygon fill="white" stroke="transparent" points="150,-960 0,-960 0,-645 150,-645 150,-960"/>
<text text-anchor="start" x="14.5" y="-947.5" font-family="Helvetica,sans-Serif" font-size="10.00">Ponca::StaticKdTreeBase</text>
<text text-anchor="start" x="50.5" y="-936.5" font-family="Helvetica,sans-Serif" font-size="10.00">&lt; Traits &gt;</text>
<text text-anchor="start" x="4" y="-921.5" font-family="Helvetica,sans-Serif" font-size="10.00">+</text>
<text text-anchor="start" x="17" y="-921.5" font-family="Helvetica,sans-Serif" font-size="10.00">MAX_NODE_COUNT</text>
<text text-anchor="start" x="4" y="-906.5" font-family="Helvetica,sans-Serif" font-size="10.00">+</text>
<text text-anchor="start" x="17" y="-906.5" font-family="Helvetica,sans-Serif" font-size="10.00">MAX_POINT_COUNT</text>
<text text-anchor="start" x="4" y="-891.5" font-family="Helvetica,sans-Serif" font-size="10.00">+</text>
<text text-anchor="start" x="17" y="-891.5" font-family="Helvetica,sans-Serif" font-size="10.00">MAX_DEPTH</text>
<text text-anchor="start" x="4" y="-876.5" font-family="Helvetica,sans-Serif" font-size="10.00">+</text>
<text text-anchor="start" x="17" y="-876.5" font-family="Helvetica,sans-Serif" font-size="10.00">SUPPORTS_SUBSAMPLING</text>
<text text-anchor="start" x="4" y="-861.5" font-family="Helvetica,sans-Serif" font-size="10.00">#</text>
<text text-anchor="start" x="17" y="-861.5" font-family="Helvetica,sans-Serif" font-size="10.00">m_bufs</text>
<text text-anchor="start" x="4" y="-846.5" font-family="Helvetica,sans-Serif" font-size="10.00">#</text>
<text text-anchor="start" x="17" y="-846.5" font-family="Helvetica,sans-Serif" font-size="10.00">m_min_cell_size</text>
<text text-anchor="start" x="4" y="-831.5" font-family="Helvetica,sans-Serif" font-size="10.00">#</text>
<text text-anchor="start" x="17" y="-831.5" font-family="Helvetica,sans-Serif" font-size="10.00">m_leaf_count</text>
<text text-anchor="start" x="4" y="-816.5" font-family="Helvetica,sans-Serif" font-size="10.00">+</text>
<text text-anchor="start" x="17" y="-816.5" font-family="Helvetica,sans-Serif" font-size="10.00">StaticKdTreeBase()</text>
<text text-anchor="start" x="4" y="-801.5" font-family="Helvetica,sans-Serif" font-size="10.00">+</text>
<text text-anchor="start" x="17" y="-801.5" font-family="Helvetica,sans-Serif" font-size="10.00">nodeCount()</text>
<text text-anchor="start" x="4" y="-786.5" font-family="Helvetica,sans-Serif" font-size="10.00">+</text>
<text text-anchor="start" x="17" y="-786.5" font-family="Helvetica,sans-Serif" font-size="10.00">sampleCount()</text>
<text text-anchor="start" x="4" y="-771.5" font-family="Helvetica,sans-Serif" font-size="10.00">+</text>
<text text-anchor="start" x="17" y="-771.5" font-family="Helvetica,sans-Serif" font-size="10.00">pointCount()</text>
<text text-anchor="start" x="4" y="-756.5" font-family="Helvetica,sans-Serif" font-size="10.00">+</text>
<text text-anchor="start" x="17" y="-756.5" font-family="Helvetica,sans-Serif" font-size="10.00">leafCount()</text>
<text text-anchor="start" x="4" y="-741.5" font-family="Helvetica,sans-Serif" font-size="10.00">+</text>
<text text-anchor="start" x="17" y="-741.5" font-family="Helvetica,sans-Serif" font-size="10.00">points()</text>
<text text-anchor="start" x="4" y="-726.5" font-family="Helvetica,sans-Serif" font-size="10.00">+</text>
<text text-anchor="start" x="17" y="-726.5" font-family="Helvetica,sans-Serif" font-size="10.00">points()</text>
<text text-anchor="start" x="4" y="-711.5" font-family="Helvetica,sans-Serif" font-size="10.00">+</text>
<text text-anchor="start" x="17" y="-711.5" font-family="Helvetica,sans-Serif" font-size="10.00">nodes()</text>
<text text-anchor="start" x="4" y="-696.5" font-family="Helvetica,sans-Serif" font-size="10.00">+</text>
<text text-anchor="start" x="17" y="-696.5" font-family="Helvetica,sans-Serif" font-size="10.00">samples()</text>
<text text-anchor="start" x="4" y="-681.5" font-family="Helvetica,sans-Serif" font-size="10.00">+</text>
<text text-anchor="start" x="17" y="-681.5" font-family="Helvetica,sans-Serif" font-size="10.00">buffers()</text>
<text text-anchor="start" x="17" y="-666.5" font-family="Helvetica,sans-Serif" font-size="10.00">and 19 more...</text>
<text text-anchor="start" x="4" y="-651.5" font-family="Helvetica,sans-Serif" font-size="10.00">#</text>
<text text-anchor="start" x="17" y="-651.5" font-family="Helvetica,sans-Serif" font-size="10.00">StaticKdTreeBase()</text>
<polygon fill="#666666" stroke="#666666" points="0,-931.5 0,-931.5 150,-931.5 150,-931.5 0,-931.5"/>
<polygon fill="#666666" stroke="#666666" points="0,-826.5 0,-826.5 15,-826.5 15,-826.5 0,-826.5"/>
<polygon fill="#666666" stroke="#666666" points="15,-826.5 15,-826.5 150,-826.5 150,-826.5 15,-826.5"/>
<polygon fill="none" stroke="#666666" points="0,-645 0,-960 150,-960 150,-645 0,-645"/>
</a>
</g>
</g>
<!-- Node3&#45;&gt;Node2 -->
<g id="edge2_Node000002_Node000003" class="edge">
<title>Node3&#45;&gt;Node2</title>
<g id="a_edge2_Node000002_Node000003"><a xlink:title=" ">
<path fill="none" stroke="#63b8ff" d="M75,-634.34C75,-625.32 75,-616.55 75,-608.24"/>
<polygon fill="none" stroke="#63b8ff" points="71.5,-634.63 75,-644.63 78.5,-634.63 71.5,-634.63"/>
</a>
</g>
</g>
<!-- Node5 -->
<g id="Node000005" class="node">
<title>Node5</title>
<g id="a_Node000005"><a xlink:href="structPonca_1_1KdTreeSparse.html" target="_top" xlink:title="Public interface for sparse KdTree datastructure.">
<polygon fill="white" stroke="transparent" points="131,-60 19,-60 19,0 131,0 131,-60"/>
<text text-anchor="start" x="24" y="-48" font-family="Helvetica,sans-Serif" font-size="10.00">Ponca::KdTreeSparse</text>
<text text-anchor="start" x="39.5" y="-37" font-family="Helvetica,sans-Serif" font-size="10.00">&lt; DataPoint &gt;</text>
<text text-anchor="start" x="73" y="-22" font-family="Helvetica,sans-Serif" font-size="10.00"> </text>
<text text-anchor="start" x="73" y="-7" font-family="Helvetica,sans-Serif" font-size="10.00"> </text>
<polygon fill="#666666" stroke="#666666" points="19,-32 19,-32 131,-32 131,-32 19,-32"/>
<polygon fill="#666666" stroke="#666666" points="19,-17 19,-17 131,-17 131,-17 19,-17"/>
<polygon fill="none" stroke="#666666" points="19,0 19,-60 131,-60 131,0 19,0"/>
</a>
</g>
</g>
<!-- Node4&#45;&gt;Node5 -->
<g id="edge4_Node000004_Node000005" class="edge">
<title>Node4&#45;&gt;Node5</title>
<g id="a_edge4_Node000004_Node000005"><a xlink:title=" ">
<path fill="none" stroke="#63b8ff" d="M75,-86.54C75,-77.21 75,-68.23 75,-60.3"/>
<polygon fill="none" stroke="#63b8ff" points="71.5,-86.77 75,-96.77 78.5,-86.77 71.5,-86.77"/>
</a>
</g>
</g>
</g>
</svg>

<g id="navigator" transform="translate(0 0)" fill="#404254">
  <rect fill="#f2f5e9" fill-opacity="0.5" stroke="#606060" stroke-width=".5" x="0" y="0" width="60" height="60"/>
  <use id="zoomplus" xlink:href="#zoomPlus" x="17" y="9" onmousedown="handleZoom(evt,'in')"/>
  <use id="zoomminus" xlink:href="#zoomMin" x="42" y="9" onmousedown="handleZoom(evt,'out')"/>
  <use id="reset" xlink:href="#resetDef" x="30" y="36" onmousedown="handleReset()"/>
   <use id="arrowup" xlink:href="#arrowUp" x="0" y="0" onmousedown="handlePan(0,-1)"/>
  <use id="arrowright" xlink:href="#arrowRight" x="0" y="0" onmousedown="handlePan(1,0)"/>
  <use id="arrowdown" xlink:href="#arrowDown" x="0" y="0" onmousedown="handlePan(0,1)"/>
  <use id="arrowleft" xlink:href="#arrowLeft" x="0" y="0" onmousedown="handlePan(-1,0)"/>
</g>
<svg viewBox="0 0 15 15" width="100%" height="30px" preserveAspectRatio="xMaxYMin meet">
 <g id="arrow_out" transform="scale(0.3 0.3)">
  <a xlink:href="classPonca_1_1KdTreeSparseBase__inherit__graph_org.svg" target="_base">
   <rect id="button" ry="5" rx="5" y="6" x="6" height="38" width="38"
        fill="#f2f5e9" fill-opacity="0.5" stroke="#606060" stroke-width="1.0"/>
   <path id="arrow"
     d="M 11.500037,31.436501 C 11.940474,20.09759 22.043105,11.32322 32.158766,21.979434 L 37.068811,17.246167 C 37.068811,17.246167 37.088388,32 37.088388,32 L 22.160133,31.978069 C 22.160133,31.978069 26.997745,27.140456 26.997745,27.140456 C 18.528582,18.264221 13.291696,25.230495 11.500037,31.436501 z"
     style="fill:#404040;"/>
  </a>
 </g>
</svg>

<style type='text/css'>
<![CDATA[
[data-mouse-over-selected='false'] { opacity: 0.7; }
[data-mouse-over-selected='true']  { opacity: 1.0; }
]]>
</style>
<script type="application/ecmascript"><![CDATA[
document.addEventListener('DOMContentLoaded', (event) => {
  highlightEdges();
  highlightAdjacentNodes();
});
]]></script>
</svg>
