<?xml version="1.0" encoding="UTF-8" standalone="no"?>
<!DOCTYPE svg PUBLIC "-//W3C//DTD SVG 1.1//EN"
 "http://www.w3.org/Graphics/SVG/1.1/DTD/svg11.dtd">
<!-- Generated by graphviz version 2.43.0 (0)
 -->
<!-- Title: Ponca::KdTreeBase&lt; Traits &gt; Pages: 1 -->
<!--zoomable 677 -->

<svg id="main" version="1.1" xmlns="http://www.w3.org/2000/svg" xmlns:xlink="http://www.w3.org/1999/xlink" xml:space="preserve" onload="init(evt)">
<style type="text/css"><![CDATA[
.node, .edge {opacity: 0.7;}
.node.selected, .edge.selected {opacity: 1;}
.edge:hover path { stroke: red; }
.edge:hover polygon { stroke: red; fill: red; }
]]></style>

<defs>
  <circle id="rim" cx="0" cy="0" r="7"/>
  <circle id="rim2" cx="0" cy="0" r="3.5"/>
  <g id="zoomPlus">
    <use xlink:href="#rim" fill="#404040"><set attributeName="fill" to="#808080" begin="zoomplus.mouseover" end="zoomplus.mouseout"/></use>
    <path d="M-4,0h8M0,-4v8" fill="none" stroke="white" stroke-width="1.5" pointer-events="none"/>
  </g>
  <g id="zoomMin">
    <use xlink:href="#rim" fill="#404040"><set attributeName="fill" to="#808080" begin="zoomminus.mouseover" end="zoomminus.mouseout"/></use>
    <path d="M-4,0h8" fill="none" stroke="white" stroke-width="1.5" pointer-events="none"/>
  </g>
  <g id="arrowUp" transform="translate(30 24)">
    <use xlink:href="#rim"/>
    <path pointer-events="none" fill="none" stroke="white" stroke-width="1.5" d="M0,-3.0v7 M-2.5,-0.5L0,-3.0L2.5,-0.5"/>
  </g>
  <g id="arrowRight" transform="rotate(90) translate(36 -43)">
    <use xlink:href="#rim"/>
    <path pointer-events="none" fill="none" stroke="white" stroke-width="1.5" d="M0,-3.0v7 M-2.5,-0.5L0,-3.0L2.5,-0.5"/>
  </g>
  <g id="arrowDown" transform="rotate(180) translate(-30 -48)">
    <use xlink:href="#rim"/>
    <path pointer-events="none" fill="none" stroke="white" stroke-width="1.5" d="M0,-3.0v7 M-2.5,-0.5L0,-3.0L2.5,-0.5"/>
  </g>
  <g id="arrowLeft" transform="rotate(270) translate(-36 17)">
    <use xlink:href="#rim"/>
    <path pointer-events="none" fill="none" stroke="white" stroke-width="1.5" d="M0,-3.0v7 M-2.5,-0.5L0,-3.0L2.5,-0.5"/>
  </g>
  <g id="resetDef">
    <use xlink:href="#rim2" fill="#404040"><set attributeName="fill" to="#808080" begin="reset.mouseover" end="reset.mouseout"/></use>
  </g>
</defs>
<script type="application/ecmascript">
var viewWidth = 158;
var viewHeight = 677;
var sectionId = 'dynsection-1';
</script>
<script type="application/ecmascript" xlink:href="svg.min.js"/>
<svg id="graph" class="graph">
<g id="viewport">
<title>Ponca::KdTreeBase&lt; Traits &gt;</title>
<!-- Node1 -->
<g id="Node000001" class="node">
<title>Node1</title>
<g id="a_Node000001"><a xlink:title=" ">
<polygon fill="#999999" stroke="transparent" points="135.5,-135 14.5,-135 14.5,0 135.5,0 135.5,-135"/>
<text text-anchor="start" x="25" y="-122.5" font-family="Helvetica,sans-Serif" font-size="10.00">Ponca::KdTreeBase&lt;</text>
<text text-anchor="start" x="55" y="-111.5" font-family="Helvetica,sans-Serif" font-size="10.00"> Traits &gt;</text>
<text text-anchor="start" x="73.5" y="-96.5" font-family="Helvetica,sans-Serif" font-size="10.00"> </text>
<text text-anchor="start" x="19" y="-81.5" font-family="Helvetica,sans-Serif" font-size="10.00">+</text>
<text text-anchor="start" x="32" y="-81.5" font-family="Helvetica,sans-Serif" font-size="10.00">build()</text>
<text text-anchor="start" x="19" y="-66.5" font-family="Helvetica,sans-Serif" font-size="10.00">+</text>
<text text-anchor="start" x="32" y="-66.5" font-family="Helvetica,sans-Serif" font-size="10.00">build()</text>
<text text-anchor="start" x="19" y="-51.5" font-family="Helvetica,sans-Serif" font-size="10.00">+</text>
<text text-anchor="start" x="32" y="-51.5" font-family="Helvetica,sans-Serif" font-size="10.00">build()</text>
<text text-anchor="start" x="19" y="-36.5" font-family="Helvetica,sans-Serif" font-size="10.00">+</text>
<text text-anchor="start" x="32" y="-36.5" font-family="Helvetica,sans-Serif" font-size="10.00">buildWithSampling()</text>
<text text-anchor="start" x="19" y="-21.5" font-family="Helvetica,sans-Serif" font-size="10.00">#</text>
<text text-anchor="start" x="32" y="-21.5" font-family="Helvetica,sans-Serif" font-size="10.00">buildWithSampling()</text>
<text text-anchor="start" x="19" y="-6.5" font-family="Helvetica,sans-Serif" font-size="10.00">#</text>
<text text-anchor="start" x="32" y="-6.5" font-family="Helvetica,sans-Serif" font-size="10.00">buildWithSampling()</text>
<polygon fill="#666666" stroke="#666666" points="15,-106.5 15,-106.5 136,-106.5 136,-106.5 15,-106.5"/>
<polygon fill="#666666" stroke="#666666" points="15,-91.5 15,-91.5 136,-91.5 136,-91.5 15,-91.5"/>
<polygon fill="none" stroke="#666666" points="14.5,0 14.5,-135 135.5,-135 135.5,0 14.5,0"/>
</a>
</g>
</g>
<!-- Node2 -->
<g id="Node000002" class="node">
<title>Node2</title>
<g id="a_Node000002"><a xlink:href="classPonca_1_1StaticKdTreeBase.html" target="_top" xlink:title="Customizable static base class for KdTree datastructure implementations.">
<polygon fill="white" stroke="transparent" points="150,-472 0,-472 0,-172 150,-172 150,-472"/>
<text text-anchor="start" x="14.5" y="-460" font-family="Helvetica,sans-Serif" font-size="10.00">Ponca::StaticKdTreeBase</text>
<text text-anchor="start" x="50.5" y="-449" font-family="Helvetica,sans-Serif" font-size="10.00">&lt; Traits &gt;</text>
<text text-anchor="start" x="4" y="-434" font-family="Helvetica,sans-Serif" font-size="10.00">+</text>
<text text-anchor="start" x="17" y="-434" font-family="Helvetica,sans-Serif" font-size="10.00">MAX_NODE_COUNT</text>
<text text-anchor="start" x="4" y="-419" font-family="Helvetica,sans-Serif" font-size="10.00">+</text>
<text text-anchor="start" x="17" y="-419" font-family="Helvetica,sans-Serif" font-size="10.00">MAX_POINT_COUNT</text>
<text text-anchor="start" x="4" y="-404" font-family="Helvetica,sans-Serif" font-size="10.00">+</text>
<text text-anchor="start" x="17" y="-404" font-family="Helvetica,sans-Serif" font-size="10.00">MAX_DEPTH</text>
<text text-anchor="start" x="4" y="-389" font-family="Helvetica,sans-Serif" font-size="10.00">+</text>
<text text-anchor="start" x="17" y="-389" font-family="Helvetica,sans-Serif" font-size="10.00">SUPPORTS_SUBSAMPLING</text>
<text text-anchor="start" x="4" y="-374" font-family="Helvetica,sans-Serif" font-size="10.00">#</text>
<text text-anchor="start" x="17" y="-374" font-family="Helvetica,sans-Serif" font-size="10.00">m_min_cell_size</text>
<text text-anchor="start" x="4" y="-359" font-family="Helvetica,sans-Serif" font-size="10.00">#</text>
<text text-anchor="start" x="17" y="-359" font-family="Helvetica,sans-Serif" font-size="10.00">m_leaf_count</text>
<text text-anchor="start" x="4" y="-344" font-family="Helvetica,sans-Serif" font-size="10.00">+</text>
<text text-anchor="start" x="17" y="-344" font-family="Helvetica,sans-Serif" font-size="10.00">StaticKdTreeBase()</text>
<text text-anchor="start" x="4" y="-329" font-family="Helvetica,sans-Serif" font-size="10.00">+</text>
<text text-anchor="start" x="17" y="-329" font-family="Helvetica,sans-Serif" font-size="10.00">nodeCount()</text>
<text text-anchor="start" x="4" y="-314" font-family="Helvetica,sans-Serif" font-size="10.00">+</text>
<text text-anchor="start" x="17" y="-314" font-family="Helvetica,sans-Serif" font-size="10.00">sampleCount()</text>
<text text-anchor="start" x="4" y="-299" font-family="Helvetica,sans-Serif" font-size="10.00">+</text>
<text text-anchor="start" x="17" y="-299" font-family="Helvetica,sans-Serif" font-size="10.00">pointCount()</text>
<text text-anchor="start" x="4" y="-284" font-family="Helvetica,sans-Serif" font-size="10.00">+</text>
<text text-anchor="start" x="17" y="-284" font-family="Helvetica,sans-Serif" font-size="10.00">leafCount()</text>
<text text-anchor="start" x="4" y="-269" font-family="Helvetica,sans-Serif" font-size="10.00">+</text>
<text text-anchor="start" x="17" y="-269" font-family="Helvetica,sans-Serif" font-size="10.00">points()</text>
<text text-anchor="start" x="4" y="-254" font-family="Helvetica,sans-Serif" font-size="10.00">+</text>
<text text-anchor="start" x="17" y="-254" font-family="Helvetica,sans-Serif" font-size="10.00">points()</text>
<text text-anchor="start" x="4" y="-239" font-family="Helvetica,sans-Serif" font-size="10.00">+</text>
<text text-anchor="start" x="17" y="-239" font-family="Helvetica,sans-Serif" font-size="10.00">nodes()</text>
<text text-anchor="start" x="4" y="-224" font-family="Helvetica,sans-Serif" font-size="10.00">+</text>
<text text-anchor="start" x="17" y="-224" font-family="Helvetica,sans-Serif" font-size="10.00">samples()</text>
<text text-anchor="start" x="4" y="-209" font-family="Helvetica,sans-Serif" font-size="10.00">+</text>
<text text-anchor="start" x="17" y="-209" font-family="Helvetica,sans-Serif" font-size="10.00">buffers()</text>
<text text-anchor="start" x="17" y="-194" font-family="Helvetica,sans-Serif" font-size="10.00">and 19 more...</text>
<text text-anchor="start" x="4" y="-179" font-family="Helvetica,sans-Serif" font-size="10.00">#</text>
<text text-anchor="start" x="17" y="-179" font-family="Helvetica,sans-Serif" font-size="10.00">StaticKdTreeBase()</text>
<polygon fill="#666666" stroke="#666666" points="0,-444 0,-444 150,-444 150,-444 0,-444"/>
<polygon fill="#666666" stroke="#666666" points="0,-354 0,-354 15,-354 15,-354 0,-354"/>
<polygon fill="#666666" stroke="#666666" points="15,-354 15,-354 150,-354 150,-354 15,-354"/>
<polygon fill="none" stroke="#666666" points="0,-172 0,-472 150,-472 150,-172 0,-172"/>
</a>
</g>
</g>
<!-- Node2&#45;&gt;Node1 -->
<g id="edge1_Node000001_Node000002" class="edge">
<title>Node2&#45;&gt;Node1</title>
<g id="a_edge1_Node000001_Node000002"><a xlink:title=" ">
<path fill="none" stroke="#63b8ff" d="M75,-161.8C75,-152.54 75,-143.54 75,-135.02"/>
<polygon fill="none" stroke="#63b8ff" points="71.5,-161.93 75,-171.93 78.5,-161.93 71.5,-161.93"/>
</a>
</g>
</g>
<!-- Node3 -->
<g id="Node000003" class="node">
<title>Node3</title>
<g id="a_Node000003"><a xlink:href="structPonca_1_1StaticKdTreeBase_1_1Buffers.html" target="_top" xlink:title="Internal structure storing all the buffers used by the KdTree.">
<polygon fill="white" stroke="transparent" points="140.5,-669 9.5,-669 9.5,-519 140.5,-519 140.5,-669"/>
<text text-anchor="start" x="15" y="-657" font-family="Helvetica,sans-Serif" font-size="10.00">Ponca::StaticKdTreeBase</text>
<text text-anchor="start" x="30.5" y="-646" font-family="Helvetica,sans-Serif" font-size="10.00">&lt; Traits &gt;::Buffers</text>
<text text-anchor="start" x="26.5" y="-631" font-family="Helvetica,sans-Serif" font-size="10.00">+</text>
<text text-anchor="start" x="52" y="-631" font-family="Helvetica,sans-Serif" font-size="10.00">points</text>
<text text-anchor="start" x="26.5" y="-616" font-family="Helvetica,sans-Serif" font-size="10.00">+</text>
<text text-anchor="start" x="52" y="-616" font-family="Helvetica,sans-Serif" font-size="10.00">nodes</text>
<text text-anchor="start" x="26.5" y="-601" font-family="Helvetica,sans-Serif" font-size="10.00">+</text>
<text text-anchor="start" x="52" y="-601" font-family="Helvetica,sans-Serif" font-size="10.00">indices</text>
<text text-anchor="start" x="26.5" y="-586" font-family="Helvetica,sans-Serif" font-size="10.00">+</text>
<text text-anchor="start" x="52" y="-586" font-family="Helvetica,sans-Serif" font-size="10.00">points_size</text>
<text text-anchor="start" x="26.5" y="-571" font-family="Helvetica,sans-Serif" font-size="10.00">+</text>
<text text-anchor="start" x="52" y="-571" font-family="Helvetica,sans-Serif" font-size="10.00">nodes_size</text>
<text text-anchor="start" x="26.5" y="-556" font-family="Helvetica,sans-Serif" font-size="10.00">+</text>
<text text-anchor="start" x="52" y="-556" font-family="Helvetica,sans-Serif" font-size="10.00">indices_size</text>
<text text-anchor="start" x="26.5" y="-541" font-family="Helvetica,sans-Serif" font-size="10.00">+</text>
<text text-anchor="start" x="52" y="-541" font-family="Helvetica,sans-Serif" font-size="10.00">Buffers()</text>
<text text-anchor="start" x="26.5" y="-526" font-family="Helvetica,sans-Serif" font-size="10.00">+</text>
<text text-anchor="start" x="52" y="-526" font-family="Helvetica,sans-Serif" font-size="10.00">Buffers()</text>
<polygon fill="#666666" stroke="#666666" points="10,-641 10,-641 141,-641 141,-641 10,-641"/>
<polygon fill="#666666" stroke="#666666" points="10,-551 10,-551 50,-551 50,-551 10,-551"/>
<polygon fill="#666666" stroke="#666666" points="50,-551 50,-551 141,-551 141,-551 50,-551"/>
<polygon fill="none" stroke="#666666" points="9.5,-519 9.5,-669 140.5,-669 140.5,-519 9.5,-519"/>
</a>
</g>
</g>
<!-- Node3&#45;&gt;Node2 -->
<g id="edge2_Node000002_Node000003" class="edge">
<title>Node3&#45;&gt;Node2</title>
<g id="a_edge2_Node000002_Node000003"><a xlink:title=" ">
<path fill="none" stroke="#63b8ff" d="M75,-518.86C75,-507.86 75,-496.17 75,-484.19"/>
<polygon fill="none" stroke="#63b8ff" points="75,-484.14 71,-478.14 75,-472.14 79,-478.14 75,-484.14"/>
</a>
</g>
<text text-anchor="middle" x="99" y="-493" font-family="Helvetica,sans-Serif" font-size="10.00" fill="grey"> #m_bufs</text>
</g>
</g>
</svg>

<g id="navigator" transform="translate(0 0)" fill="#404254">
  <rect fill="#f2f5e9" fill-opacity="0.5" stroke="#606060" stroke-width=".5" x="0" y="0" width="60" height="60"/>
  <use id="zoomplus" xlink:href="#zoomPlus" x="17" y="9" onmousedown="handleZoom(evt,'in')"/>
  <use id="zoomminus" xlink:href="#zoomMin" x="42" y="9" onmousedown="handleZoom(evt,'out')"/>
  <use id="reset" xlink:href="#resetDef" x="30" y="36" onmousedown="handleReset()"/>
   <use id="arrowup" xlink:href="#arrowUp" x="0" y="0" onmousedown="handlePan(0,-1)"/>
  <use id="arrowright" xlink:href="#arrowRight" x="0" y="0" onmousedown="handlePan(1,0)"/>
  <use id="arrowdown" xlink:href="#arrowDown" x="0" y="0" onmousedown="handlePan(0,1)"/>
  <use id="arrowleft" xlink:href="#arrowLeft" x="0" y="0" onmousedown="handlePan(-1,0)"/>
</g>
<svg viewBox="0 0 15 15" width="100%" height="30px" preserveAspectRatio="xMaxYMin meet">
 <g id="arrow_out" transform="scale(0.3 0.3)">
  <a xlink:href="classPonca_1_1KdTreeBase__coll__graph_org.svg" target="_base">
   <rect id="button" ry="5" rx="5" y="6" x="6" height="38" width="38"
        fill="#f2f5e9" fill-opacity="0.5" stroke="#606060" stroke-width="1.0"/>
   <path id="arrow"
     d="M 11.500037,31.436501 C 11.940474,20.09759 22.043105,11.32322 32.158766,21.979434 L 37.068811,17.246167 C 37.068811,17.246167 37.088388,32 37.088388,32 L 22.160133,31.978069 C 22.160133,31.978069 26.997745,27.140456 26.997745,27.140456 C 18.528582,18.264221 13.291696,25.230495 11.500037,31.436501 z"
     style="fill:#404040;"/>
  </a>
 </g>
</svg>

<style type='text/css'>
<![CDATA[
[data-mouse-over-selected='false'] { opacity: 0.7; }
[data-mouse-over-selected='true']  { opacity: 1.0; }
]]>
</style>
<script type="application/ecmascript"><![CDATA[
document.addEventListener('DOMContentLoaded', (event) => {
  highlightEdges();
  highlightAdjacentNodes();
});
]]></script>
</svg>
