<?xml version="1.0" encoding="UTF-8" standalone="no"?>
<!DOCTYPE svg PUBLIC "-//W3C//DTD SVG 1.1//EN"
 "http://www.w3.org/Graphics/SVG/1.1/DTD/svg11.dtd">
<!-- Generated by graphviz version 2.43.0 (0)
 -->
<!-- Title: Ponca::CovariancePlaneFit&lt; DataPoint, _WFunctor, T &gt; Pages: 1 -->
<svg width="557pt" height="1060pt"
 viewBox="0.00 0.00 557.00 1060.00" xmlns="http://www.w3.org/2000/svg" xmlns:xlink="http://www.w3.org/1999/xlink">
<g id="graph0" class="graph" transform="scale(1 1) rotate(0) translate(4 1056)">
<title>Ponca::CovariancePlaneFit&lt; DataPoint, _WFunctor, T &gt;</title>
<polygon fill="white" stroke="transparent" points="-4,4 -4,-1056 553,-1056 553,4 -4,4"/>
<!-- Node1 -->
<g id="node1" class="node">
<title>Node1</title>
<g id="a_node1"><a xlink:title="Plane fitting procedure using only points position.">
<polygon fill="#bfbfbf" stroke="black" points="32,-0.5 32,-233.5 188,-233.5 188,-0.5 32,-0.5"/>
<text text-anchor="start" x="40" y="-221.5" font-family="Helvetica,sans-Serif" font-size="10.00">Ponca::CovariancePlaneFit</text>
<text text-anchor="middle" x="110" y="-210.5" font-family="Helvetica,sans-Serif" font-size="10.00">&lt; DataPoint, _WFunctor, T &gt;</text>
<polyline fill="none" stroke="black" points="32,-203.5 188,-203.5 "/>
<text text-anchor="start" x="40" y="-191.5" font-family="Helvetica,sans-Serif" font-size="10.00"># m_sumW</text>
<text text-anchor="start" x="40" y="-180.5" font-family="Helvetica,sans-Serif" font-size="10.00"># m_cog</text>
<text text-anchor="start" x="40" y="-169.5" font-family="Helvetica,sans-Serif" font-size="10.00"># m_cov</text>
<text text-anchor="start" x="40" y="-158.5" font-family="Helvetica,sans-Serif" font-size="10.00"># m_solver</text>
<text text-anchor="start" x="40" y="-147.5" font-family="Helvetica,sans-Serif" font-size="10.00"># m_w</text>
<polyline fill="none" stroke="black" points="32,-140.5 188,-140.5 "/>
<text text-anchor="start" x="40" y="-128.5" font-family="Helvetica,sans-Serif" font-size="10.00">+ CovariancePlaneFit()</text>
<text text-anchor="start" x="40" y="-117.5" font-family="Helvetica,sans-Serif" font-size="10.00">+ covariancePlaneFit()</text>
<text text-anchor="start" x="40" y="-106.5" font-family="Helvetica,sans-Serif" font-size="10.00">+ setWeightFunc()</text>
<text text-anchor="start" x="40" y="-95.5" font-family="Helvetica,sans-Serif" font-size="10.00">+ init()</text>
<text text-anchor="start" x="40" y="-84.5" font-family="Helvetica,sans-Serif" font-size="10.00">+ addNeighbor()</text>
<text text-anchor="start" x="40" y="-73.5" font-family="Helvetica,sans-Serif" font-size="10.00">+ finalize()</text>
<text text-anchor="start" x="40" y="-62.5" font-family="Helvetica,sans-Serif" font-size="10.00">+ solver()</text>
<text text-anchor="start" x="40" y="-51.5" font-family="Helvetica,sans-Serif" font-size="10.00">+ surfaceVariation()</text>
<text text-anchor="start" x="40" y="-40.5" font-family="Helvetica,sans-Serif" font-size="10.00">+ worldToTangentPlane()</text>
<text text-anchor="start" x="40" y="-29.5" font-family="Helvetica,sans-Serif" font-size="10.00">+ tangentPlaneToWorld()</text>
<text text-anchor="start" x="40" y="-18.5" font-family="Helvetica,sans-Serif" font-size="10.00">+ worldToTangentPlane()</text>
<text text-anchor="start" x="40" y="-7.5" font-family="Helvetica,sans-Serif" font-size="10.00">+ tangentPlaneToWorld()</text>
</a>
</g>
</g>
<!-- Node2 -->
<g id="node2" class="node">
<title>Node2</title>
<g id="a_node2"><a xlink:href="classPonca_1_1Concept_1_1FittingProcedureConcept.html" target="_top" xlink:title="Describes the procedure to fit a primitive to point samples.">
<polygon fill="white" stroke="black" points="0,-321 0,-422 196,-422 196,-321 0,-321"/>
<text text-anchor="start" x="8" y="-410" font-family="Helvetica,sans-Serif" font-size="10.00">Ponca::Concept::FittingProcedure</text>
<text text-anchor="middle" x="98" y="-399" font-family="Helvetica,sans-Serif" font-size="10.00">Concept&lt; DataPoint, _WFunctor, T &gt;</text>
<polyline fill="none" stroke="black" points="0,-392 196,-392 "/>
<text text-anchor="middle" x="98" y="-380" font-family="Helvetica,sans-Serif" font-size="10.00"> </text>
<polyline fill="none" stroke="black" points="0,-373 196,-373 "/>
<text text-anchor="start" x="8" y="-361" font-family="Helvetica,sans-Serif" font-size="10.00">+ setWeightFunc()</text>
<text text-anchor="start" x="8" y="-350" font-family="Helvetica,sans-Serif" font-size="10.00">+ init()</text>
<text text-anchor="start" x="8" y="-339" font-family="Helvetica,sans-Serif" font-size="10.00">+ addNeighbor()</text>
<text text-anchor="start" x="8" y="-328" font-family="Helvetica,sans-Serif" font-size="10.00">+ finalize()</text>
</a>
</g>
</g>
<!-- Node2&#45;&gt;Node1 -->
<g id="edge1" class="edge">
<title>Node2&#45;&gt;Node1</title>
<path fill="none" stroke="midnightblue" d="M100.83,-310.92C101.93,-287.73 103.24,-260.35 104.51,-233.6"/>
<polygon fill="none" stroke="midnightblue" points="97.34,-310.76 100.36,-320.92 104.33,-311.09 97.34,-310.76"/>
</g>
<!-- Node3 -->
<g id="node3" class="node">
<title>Node3</title>
<g id="a_node3"><a xlink:href="classPonca_1_1Plane.html" target="_top" xlink:title=" ">
<polygon fill="white" stroke="black" points="214.5,-271.5 214.5,-471.5 355.5,-471.5 355.5,-271.5 214.5,-271.5"/>
<text text-anchor="start" x="222.5" y="-459.5" font-family="Helvetica,sans-Serif" font-size="10.00">Ponca::Plane&lt; DataPoint,</text>
<text text-anchor="middle" x="285" y="-448.5" font-family="Helvetica,sans-Serif" font-size="10.00"> _WFunctor &gt;</text>
<polyline fill="none" stroke="black" points="214.5,-441.5 355.5,-441.5 "/>
<text text-anchor="middle" x="285" y="-429.5" font-family="Helvetica,sans-Serif" font-size="10.00"> </text>
<polyline fill="none" stroke="black" points="214.5,-422.5 355.5,-422.5 "/>
<text text-anchor="start" x="222.5" y="-410.5" font-family="Helvetica,sans-Serif" font-size="10.00">+ Plane()</text>
<text text-anchor="start" x="222.5" y="-399.5" font-family="Helvetica,sans-Serif" font-size="10.00">+ compactPlane()</text>
<text text-anchor="start" x="222.5" y="-388.5" font-family="Helvetica,sans-Serif" font-size="10.00">+ resetPrimitive()</text>
<text text-anchor="start" x="222.5" y="-377.5" font-family="Helvetica,sans-Serif" font-size="10.00">+ operator==()</text>
<text text-anchor="start" x="222.5" y="-366.5" font-family="Helvetica,sans-Serif" font-size="10.00">+ operator!=()</text>
<text text-anchor="start" x="222.5" y="-355.5" font-family="Helvetica,sans-Serif" font-size="10.00">+ basisCenter()</text>
<text text-anchor="start" x="222.5" y="-344.5" font-family="Helvetica,sans-Serif" font-size="10.00">+ basisCenter()</text>
<text text-anchor="start" x="222.5" y="-333.5" font-family="Helvetica,sans-Serif" font-size="10.00">+ setPlane()</text>
<text text-anchor="start" x="222.5" y="-322.5" font-family="Helvetica,sans-Serif" font-size="10.00">+ potential()</text>
<text text-anchor="start" x="222.5" y="-311.5" font-family="Helvetica,sans-Serif" font-size="10.00">+ potential()</text>
<text text-anchor="start" x="222.5" y="-300.5" font-family="Helvetica,sans-Serif" font-size="10.00">+ project()</text>
<text text-anchor="start" x="222.5" y="-289.5" font-family="Helvetica,sans-Serif" font-size="10.00">+ primitiveGradient()</text>
<text text-anchor="start" x="222.5" y="-278.5" font-family="Helvetica,sans-Serif" font-size="10.00">+ primitiveGradient()</text>
</a>
</g>
</g>
<!-- Node3&#45;&gt;Node1 -->
<g id="edge2" class="edge">
<title>Node3&#45;&gt;Node1</title>
<path fill="none" stroke="midnightblue" d="M210.42,-262.9C203.01,-252.2 195.47,-241.33 188.03,-230.58"/>
<polygon fill="none" stroke="midnightblue" points="207.76,-265.2 216.34,-271.43 213.52,-261.22 207.76,-265.2"/>
</g>
<!-- Node4 -->
<g id="node4" class="node">
<title>Node4</title>
<g id="a_node4"><a xlink:href="classPonca_1_1PrimitiveBase.html" target="_top" xlink:title=" ">
<polygon fill="white" stroke="black" points="346,-757.5 346,-880.5 490,-880.5 490,-757.5 346,-757.5"/>
<text text-anchor="start" x="354" y="-868.5" font-family="Helvetica,sans-Serif" font-size="10.00">Ponca::PrimitiveBase</text>
<text text-anchor="middle" x="418" y="-857.5" font-family="Helvetica,sans-Serif" font-size="10.00">&lt; DataPoint, _WFunctor &gt;</text>
<polyline fill="none" stroke="black" points="346,-850.5 490,-850.5 "/>
<text text-anchor="start" x="354" y="-838.5" font-family="Helvetica,sans-Serif" font-size="10.00"># m_eCurrentState</text>
<text text-anchor="start" x="354" y="-827.5" font-family="Helvetica,sans-Serif" font-size="10.00"># m_nbNeighbors</text>
<polyline fill="none" stroke="black" points="346,-820.5 490,-820.5 "/>
<text text-anchor="start" x="354" y="-808.5" font-family="Helvetica,sans-Serif" font-size="10.00">+ PrimitiveBase()</text>
<text text-anchor="start" x="354" y="-797.5" font-family="Helvetica,sans-Serif" font-size="10.00">+ resetPrimitive()</text>
<text text-anchor="start" x="354" y="-786.5" font-family="Helvetica,sans-Serif" font-size="10.00">+ isReady()</text>
<text text-anchor="start" x="354" y="-775.5" font-family="Helvetica,sans-Serif" font-size="10.00">+ isStable()</text>
<text text-anchor="start" x="354" y="-764.5" font-family="Helvetica,sans-Serif" font-size="10.00">+ getCurrentState()</text>
</a>
</g>
</g>
<!-- Node4&#45;&gt;Node3 -->
<g id="edge3" class="edge">
<title>Node4&#45;&gt;Node3</title>
<path fill="none" stroke="midnightblue" d="M433.76,-747.57C445.6,-678.68 454.12,-572.39 417,-490 403.96,-461.05 379.89,-436.3 355.83,-417.09"/>
<polygon fill="none" stroke="midnightblue" points="430.31,-747 432,-757.46 437.2,-748.23 430.31,-747"/>
</g>
<!-- Node7 -->
<g id="node7" class="node">
<title>Node7</title>
<g id="a_node7"><a xlink:href="classPonca_1_1Plane.html" target="_top" xlink:title="Implicit hyperplane defined by an homogeneous vector .">
<polygon fill="white" stroke="black" points="261.5,-519.5 261.5,-719.5 402.5,-719.5 402.5,-519.5 261.5,-519.5"/>
<text text-anchor="start" x="269.5" y="-707.5" font-family="Helvetica,sans-Serif" font-size="10.00">Ponca::Plane&lt; DataPoint,</text>
<text text-anchor="middle" x="332" y="-696.5" font-family="Helvetica,sans-Serif" font-size="10.00"> _WFunctor, T &gt;</text>
<polyline fill="none" stroke="black" points="261.5,-689.5 402.5,-689.5 "/>
<text text-anchor="middle" x="332" y="-677.5" font-family="Helvetica,sans-Serif" font-size="10.00"> </text>
<polyline fill="none" stroke="black" points="261.5,-670.5 402.5,-670.5 "/>
<text text-anchor="start" x="269.5" y="-658.5" font-family="Helvetica,sans-Serif" font-size="10.00">+ Plane()</text>
<text text-anchor="start" x="269.5" y="-647.5" font-family="Helvetica,sans-Serif" font-size="10.00">+ compactPlane()</text>
<text text-anchor="start" x="269.5" y="-636.5" font-family="Helvetica,sans-Serif" font-size="10.00">+ resetPrimitive()</text>
<text text-anchor="start" x="269.5" y="-625.5" font-family="Helvetica,sans-Serif" font-size="10.00">+ operator==()</text>
<text text-anchor="start" x="269.5" y="-614.5" font-family="Helvetica,sans-Serif" font-size="10.00">+ operator!=()</text>
<text text-anchor="start" x="269.5" y="-603.5" font-family="Helvetica,sans-Serif" font-size="10.00">+ basisCenter()</text>
<text text-anchor="start" x="269.5" y="-592.5" font-family="Helvetica,sans-Serif" font-size="10.00">+ basisCenter()</text>
<text text-anchor="start" x="269.5" y="-581.5" font-family="Helvetica,sans-Serif" font-size="10.00">+ setPlane()</text>
<text text-anchor="start" x="269.5" y="-570.5" font-family="Helvetica,sans-Serif" font-size="10.00">+ potential()</text>
<text text-anchor="start" x="269.5" y="-559.5" font-family="Helvetica,sans-Serif" font-size="10.00">+ potential()</text>
<text text-anchor="start" x="269.5" y="-548.5" font-family="Helvetica,sans-Serif" font-size="10.00">+ project()</text>
<text text-anchor="start" x="269.5" y="-537.5" font-family="Helvetica,sans-Serif" font-size="10.00">+ primitiveGradient()</text>
<text text-anchor="start" x="269.5" y="-526.5" font-family="Helvetica,sans-Serif" font-size="10.00">+ primitiveGradient()</text>
</a>
</g>
</g>
<!-- Node4&#45;&gt;Node7 -->
<g id="edge7" class="edge">
<title>Node4&#45;&gt;Node7</title>
<path fill="none" stroke="midnightblue" d="M387.49,-747.94C383.48,-738.72 379.31,-729.14 375.13,-719.55"/>
<polygon fill="none" stroke="midnightblue" points="384.41,-749.63 391.61,-757.4 390.83,-746.84 384.41,-749.63"/>
</g>
<!-- Node5 -->
<g id="node5" class="node">
<title>Node5</title>
<g id="a_node5"><a xlink:href="classPonca_1_1PrimitiveBase.html" target="_top" xlink:title="Primitive base class.">
<polygon fill="white" stroke="black" points="340,-928.5 340,-1051.5 496,-1051.5 496,-928.5 340,-928.5"/>
<text text-anchor="start" x="348" y="-1039.5" font-family="Helvetica,sans-Serif" font-size="10.00">Ponca::PrimitiveBase</text>
<text text-anchor="middle" x="418" y="-1028.5" font-family="Helvetica,sans-Serif" font-size="10.00">&lt; DataPoint, _WFunctor, T &gt;</text>
<polyline fill="none" stroke="black" points="340,-1021.5 496,-1021.5 "/>
<text text-anchor="start" x="348" y="-1009.5" font-family="Helvetica,sans-Serif" font-size="10.00"># m_eCurrentState</text>
<text text-anchor="start" x="348" y="-998.5" font-family="Helvetica,sans-Serif" font-size="10.00"># m_nbNeighbors</text>
<polyline fill="none" stroke="black" points="340,-991.5 496,-991.5 "/>
<text text-anchor="start" x="348" y="-979.5" font-family="Helvetica,sans-Serif" font-size="10.00">+ PrimitiveBase()</text>
<text text-anchor="start" x="348" y="-968.5" font-family="Helvetica,sans-Serif" font-size="10.00">+ resetPrimitive()</text>
<text text-anchor="start" x="348" y="-957.5" font-family="Helvetica,sans-Serif" font-size="10.00">+ isReady()</text>
<text text-anchor="start" x="348" y="-946.5" font-family="Helvetica,sans-Serif" font-size="10.00">+ isStable()</text>
<text text-anchor="start" x="348" y="-935.5" font-family="Helvetica,sans-Serif" font-size="10.00">+ getCurrentState()</text>
</a>
</g>
</g>
<!-- Node5&#45;&gt;Node4 -->
<g id="edge4" class="edge">
<title>Node5&#45;&gt;Node4</title>
<path fill="none" stroke="orange" d="M418,-918.13C418,-905.68 418,-892.82 418,-880.68"/>
<polygon fill="orange" stroke="orange" points="414.5,-918.46 418,-928.46 421.5,-918.46 414.5,-918.46"/>
<text text-anchor="middle" x="483.5" y="-902" font-family="Helvetica,sans-Serif" font-size="10.00"> &lt; DataPoint, _WFunctor &gt;</text>
</g>
<!-- Node6 -->
<g id="node6" class="node">
<title>Node6</title>
<g id="a_node6"><a xlink:title=" ">
<polygon fill="white" stroke="#bfbfbf" points="189,-779.5 189,-858.5 303,-858.5 303,-779.5 189,-779.5"/>
<text text-anchor="start" x="197" y="-846.5" font-family="Helvetica,sans-Serif" font-size="10.00">Eigen::Hyperplane&lt;</text>
<text text-anchor="start" x="197" y="-835.5" font-family="Helvetica,sans-Serif" font-size="10.00"> DataPoint::Scalar,</text>
<text text-anchor="middle" x="246" y="-824.5" font-family="Helvetica,sans-Serif" font-size="10.00"> DataPoint::Dim &gt;</text>
<polyline fill="none" stroke="#bfbfbf" points="189,-817.5 303,-817.5 "/>
<text text-anchor="middle" x="246" y="-805.5" font-family="Helvetica,sans-Serif" font-size="10.00"> </text>
<polyline fill="none" stroke="#bfbfbf" points="189,-798.5 303,-798.5 "/>
<text text-anchor="middle" x="246" y="-786.5" font-family="Helvetica,sans-Serif" font-size="10.00"> </text>
</a>
</g>
</g>
<!-- Node6&#45;&gt;Node3 -->
<g id="edge5" class="edge">
<title>Node6&#45;&gt;Node3</title>
<path fill="none" stroke="midnightblue" d="M243.97,-768.9C242.21,-709.49 241.37,-606.52 252,-519 253.87,-503.6 256.65,-487.45 259.82,-471.72"/>
<polygon fill="none" stroke="midnightblue" points="240.48,-769.24 244.29,-779.12 247.47,-769.01 240.48,-769.24"/>
</g>
<!-- Node6&#45;&gt;Node7 -->
<g id="edge8" class="edge">
<title>Node6&#45;&gt;Node7</title>
<path fill="none" stroke="midnightblue" d="M266.81,-770.2C273.5,-754.85 281.17,-737.24 288.85,-719.6"/>
<polygon fill="none" stroke="midnightblue" points="263.57,-768.89 262.79,-779.45 269.99,-771.68 263.57,-768.89"/>
</g>
<!-- Node7&#45;&gt;Node3 -->
<g id="edge6" class="edge">
<title>Node7&#45;&gt;Node3</title>
<path fill="none" stroke="orange" d="M287.82,-509.52C287.15,-506.67 286.54,-503.82 286,-501 284.18,-491.58 282.95,-481.7 282.15,-471.78"/>
<polygon fill="orange" stroke="orange" points="284.44,-510.41 290.29,-519.24 291.22,-508.69 284.44,-510.41"/>
<text text-anchor="middle" x="351.5" y="-493" font-family="Helvetica,sans-Serif" font-size="10.00"> &lt; DataPoint, _WFunctor &gt;</text>
</g>
</g>
</svg>
