<?xml version="1.0" encoding="UTF-8" standalone="no"?>
<!DOCTYPE svg PUBLIC "-//W3C//DTD SVG 1.1//EN"
 "http://www.w3.org/Graphics/SVG/1.1/DTD/svg11.dtd">
<!-- Generated by graphviz version 2.43.0 (0)
 -->
<!-- Title: Ponca::Basket&lt; P, W, Ext0, Exts &gt; Pages: 1 -->
<svg width="468pt" height="696pt"
 viewBox="0.00 0.00 467.50 696.00" xmlns="http://www.w3.org/2000/svg" xmlns:xlink="http://www.w3.org/1999/xlink">
<g id="graph0" class="graph" transform="scale(1 1) rotate(0) translate(4 692)">
<title>Ponca::Basket&lt; P, W, Ext0, Exts &gt;</title>
<!-- Node1 -->
<g id="Node000001" class="node">
<title>Node1</title>
<g id="a_Node000001"><a xlink:title="Aggregator class used to declare specialized structures using CRTP.">
<polygon fill="#999999" stroke="transparent" points="270.5,-60 155.5,-60 155.5,0 270.5,0 270.5,-60"/>
<text text-anchor="start" x="161" y="-48" font-family="Helvetica,sans-Serif" font-size="10.00">Ponca::Basket&lt; P, W,</text>
<text text-anchor="start" x="181.5" y="-37" font-family="Helvetica,sans-Serif" font-size="10.00"> Ext0, Exts &gt;</text>
<text text-anchor="start" x="211.5" y="-22" font-family="Helvetica,sans-Serif" font-size="10.00"> </text>
<text text-anchor="start" x="166" y="-7" font-family="Helvetica,sans-Serif" font-size="10.00">+</text>
<text text-anchor="start" x="185" y="-7" font-family="Helvetica,sans-Serif" font-size="10.00">addNeighbor()</text>
<polygon fill="#666666" stroke="#666666" points="156,-32 156,-32 271,-32 271,-32 156,-32"/>
<polygon fill="#666666" stroke="#666666" points="156,-17 156,-17 271,-17 271,-17 156,-17"/>
<polygon fill="none" stroke="#666666" points="155.5,0 155.5,-60 270.5,-60 270.5,0 155.5,0"/>
</a>
</g>
</g>
<!-- Node2 -->
<g id="Node000002" class="node">
<title>Node2</title>
<g id="a_Node000002"><a xlink:href="structPonca_1_1BasketComputeObject.html" target="_top" xlink:title=" ">
<polygon fill="white" stroke="transparent" points="292,-209 134,-209 134,-97 292,-97 292,-209"/>
<text text-anchor="start" x="139" y="-197" font-family="Helvetica,sans-Serif" font-size="10.00">Ponca::BasketComputeObject</text>
<text text-anchor="start" x="139" y="-186" font-family="Helvetica,sans-Serif" font-size="10.00">&lt; Basket&lt; P, W, Ext0, Exts...</text>
<text text-anchor="start" x="139" y="-175" font-family="Helvetica,sans-Serif" font-size="10.00"> &gt;, internal::BasketAggregate</text>
<text text-anchor="start" x="139" y="-164" font-family="Helvetica,sans-Serif" font-size="10.00">&lt; P, W, Ext0, Exts... &gt;::type &gt;</text>
<text text-anchor="start" x="211" y="-149" font-family="Helvetica,sans-Serif" font-size="10.00"> </text>
<text text-anchor="start" x="150" y="-134" font-family="Helvetica,sans-Serif" font-size="10.00">+</text>
<text text-anchor="start" x="175" y="-134" font-family="Helvetica,sans-Serif" font-size="10.00">compute()</text>
<text text-anchor="start" x="150" y="-119" font-family="Helvetica,sans-Serif" font-size="10.00">+</text>
<text text-anchor="start" x="175" y="-119" font-family="Helvetica,sans-Serif" font-size="10.00">computeWithIds()</text>
<text text-anchor="start" x="150" y="-104" font-family="Helvetica,sans-Serif" font-size="10.00">#</text>
<text text-anchor="start" x="175" y="-104" font-family="Helvetica,sans-Serif" font-size="10.00">base()</text>
<polygon fill="#666666" stroke="#666666" points="134,-159 134,-159 292,-159 292,-159 134,-159"/>
<polygon fill="#666666" stroke="#666666" points="134,-144 134,-144 292,-144 292,-144 134,-144"/>
<polygon fill="none" stroke="#666666" points="134,-97 134,-209 292,-209 292,-97 134,-97"/>
</a>
</g>
</g>
<!-- Node2&#45;&gt;Node1 -->
<g id="edge1_Node000001_Node000002" class="edge">
<title>Node2&#45;&gt;Node1</title>
<g id="a_edge1_Node000001_Node000002"><a xlink:title=" ">
<path fill="none" stroke="#63b8ff" d="M213,-86.75C213,-77.5 213,-68.4 213,-60.32"/>
<polygon fill="none" stroke="#63b8ff" points="209.5,-86.81 213,-96.81 216.5,-86.81 209.5,-86.81"/>
</a>
</g>
</g>
<!-- Node3 -->
<g id="Node000003" class="node">
<title>Node3</title>
<g id="a_Node000003"><a xlink:href="structPonca_1_1ComputeObject.html" target="_top" xlink:title="ComputeObject is a virtual object that represents an algorithm which can be used with the compute fun...">
<polygon fill="white" stroke="transparent" points="122,-394 0,-394 0,-289 122,-289 122,-394"/>
<text text-anchor="start" x="5" y="-381.5" font-family="Helvetica,sans-Serif" font-size="10.00">Ponca::ComputeObject</text>
<text text-anchor="start" x="30.5" y="-370.5" font-family="Helvetica,sans-Serif" font-size="10.00">&lt; Derived &gt;</text>
<text text-anchor="start" x="59" y="-355.5" font-family="Helvetica,sans-Serif" font-size="10.00"> </text>
<text text-anchor="start" x="7" y="-340.5" font-family="Helvetica,sans-Serif" font-size="10.00">+</text>
<text text-anchor="start" x="23" y="-340.5" font-family="Helvetica,sans-Serif" font-size="10.00">compute()</text>
<text text-anchor="start" x="7" y="-325.5" font-family="Helvetica,sans-Serif" font-size="10.00">+</text>
<text text-anchor="start" x="23" y="-325.5" font-family="Helvetica,sans-Serif" font-size="10.00">compute()</text>
<text text-anchor="start" x="7" y="-310.5" font-family="Helvetica,sans-Serif" font-size="10.00">+</text>
<text text-anchor="start" x="23" y="-310.5" font-family="Helvetica,sans-Serif" font-size="10.00">computeWithIds()</text>
<text text-anchor="start" x="7" y="-295.5" font-family="Helvetica,sans-Serif" font-size="10.00">#</text>
<text text-anchor="start" x="23" y="-295.5" font-family="Helvetica,sans-Serif" font-size="10.00">derived()</text>
<polygon fill="#666666" stroke="#666666" points="0,-365.5 0,-365.5 122,-365.5 122,-365.5 0,-365.5"/>
<polygon fill="#666666" stroke="#666666" points="0,-350.5 0,-350.5 122,-350.5 122,-350.5 0,-350.5"/>
<polygon fill="none" stroke="#666666" points="0,-289 0,-394 122,-394 122,-289 0,-289"/>
</a>
</g>
</g>
<!-- Node3&#45;&gt;Node2 -->
<g id="edge2_Node000002_Node000003" class="edge">
<title>Node3&#45;&gt;Node2</title>
<g id="a_edge2_Node000002_Node000003"><a xlink:title=" ">
<path fill="none" stroke="#63b8ff" d="M109.83,-280.59C128.49,-257.69 149.67,-231.7 167.97,-209.26"/>
<polygon fill="none" stroke="#63b8ff" points="106.95,-278.59 103.34,-288.55 112.37,-283.01 106.95,-278.59"/>
</a>
</g>
</g>
<!-- Node4 -->
<g id="Node000004" class="node">
<title>Node4</title>
<g id="a_Node000004"><a xlink:title=" ">
<polygon fill="white" stroke="transparent" points="286,-371.5 140,-371.5 140,-311.5 286,-311.5 286,-371.5"/>
<text text-anchor="start" x="145" y="-359.5" font-family="Helvetica,sans-Serif" font-size="10.00">internal::BasketAggregate</text>
<text text-anchor="start" x="145" y="-348.5" font-family="Helvetica,sans-Serif" font-size="10.00">&lt; P, W, Ext0, Exts... &gt;::type</text>
<text text-anchor="start" x="211" y="-333.5" font-family="Helvetica,sans-Serif" font-size="10.00"> </text>
<text text-anchor="start" x="211" y="-318.5" font-family="Helvetica,sans-Serif" font-size="10.00"> </text>
<polygon fill="#bfbfbf" stroke="#bfbfbf" points="140,-343.5 140,-343.5 286,-343.5 286,-343.5 140,-343.5"/>
<polygon fill="#bfbfbf" stroke="#bfbfbf" points="140,-328.5 140,-328.5 286,-328.5 286,-328.5 140,-328.5"/>
<polygon fill="none" stroke="#bfbfbf" points="140,-311.5 140,-371.5 286,-371.5 286,-311.5 140,-311.5"/>
</a>
</g>
</g>
<!-- Node4&#45;&gt;Node2 -->
<g id="edge3_Node000002_Node000004" class="edge">
<title>Node4&#45;&gt;Node2</title>
<g id="a_edge3_Node000002_Node000004"><a xlink:title=" ">
<path fill="none" stroke="#63b8ff" d="M213,-301.23C213,-274.51 213,-238.77 213,-209.2"/>
<polygon fill="none" stroke="#63b8ff" points="209.5,-301.36 213,-311.36 216.5,-301.36 209.5,-301.36"/>
</a>
</g>
</g>
<!-- Node5 -->
<g id="Node000005" class="node">
<title>Node5</title>
<g id="a_Node000005"><a xlink:href="structPonca_1_1BasketComputeObject.html" target="_top" xlink:title="Base ComputeObject for the Basket classes.">
<polygon fill="white" stroke="transparent" points="459.5,-386.5 304.5,-386.5 304.5,-296.5 459.5,-296.5 459.5,-386.5"/>
<text text-anchor="start" x="310" y="-374.5" font-family="Helvetica,sans-Serif" font-size="10.00">Ponca::BasketComputeObject</text>
<text text-anchor="start" x="331.5" y="-363.5" font-family="Helvetica,sans-Serif" font-size="10.00">&lt; _Derived, _Base &gt;</text>
<text text-anchor="start" x="380.5" y="-348.5" font-family="Helvetica,sans-Serif" font-size="10.00"> </text>
<text text-anchor="start" x="320.5" y="-333.5" font-family="Helvetica,sans-Serif" font-size="10.00">+</text>
<text text-anchor="start" x="345" y="-333.5" font-family="Helvetica,sans-Serif" font-size="10.00">compute()</text>
<text text-anchor="start" x="320.5" y="-318.5" font-family="Helvetica,sans-Serif" font-size="10.00">+</text>
<text text-anchor="start" x="345" y="-318.5" font-family="Helvetica,sans-Serif" font-size="10.00">computeWithIds()</text>
<text text-anchor="start" x="320.5" y="-303.5" font-family="Helvetica,sans-Serif" font-size="10.00">#</text>
<text text-anchor="start" x="345" y="-303.5" font-family="Helvetica,sans-Serif" font-size="10.00">base()</text>
<polygon fill="#666666" stroke="#666666" points="305,-358.5 305,-358.5 460,-358.5 460,-358.5 305,-358.5"/>
<polygon fill="#666666" stroke="#666666" points="305,-343.5 305,-343.5 460,-343.5 460,-343.5 305,-343.5"/>
<polygon fill="none" stroke="#666666" points="304.5,-296.5 304.5,-386.5 459.5,-386.5 459.5,-296.5 304.5,-296.5"/>
</a>
</g>
</g>
<!-- Node5&#45;&gt;Node2 -->
<g id="edge4_Node000002_Node000005" class="edge">
<title>Node5&#45;&gt;Node2</title>
<g id="a_edge4_Node000002_Node000005"><a xlink:title=" ">
<path fill="none" stroke="orange" d="M335.14,-288.79C312.73,-264.05 285.87,-234.41 263.05,-209.23"/>
<polygon fill="orange" stroke="orange" points="332.64,-291.24 341.95,-296.3 337.83,-286.54 332.64,-291.24"/>
</a>
</g>
<text text-anchor="start" x="318" y="-263" font-family="Helvetica,sans-Serif" font-size="10.00" fill="grey"> &lt; Basket&lt; P, W, Ext0,</text>
<text text-anchor="start" x="318" y="-252" font-family="Helvetica,sans-Serif" font-size="10.00" fill="grey"> Exts... &gt;, internal</text>
<text text-anchor="start" x="318" y="-241" font-family="Helvetica,sans-Serif" font-size="10.00" fill="grey">::BasketAggregate&lt; P,</text>
<text text-anchor="middle" x="381.5" y="-230" font-family="Helvetica,sans-Serif" font-size="10.00" fill="grey"> W, Ext0, Exts... &gt;::type &gt;</text>
</g>
<!-- Node6 -->
<g id="Node000006" class="node">
<title>Node6</title>
<g id="a_Node000006"><a xlink:href="structPonca_1_1ComputeObject.html" target="_top" xlink:title=" ">
<polygon fill="white" stroke="transparent" points="375,-536 253,-536 253,-431 375,-431 375,-536"/>
<text text-anchor="start" x="258" y="-523.5" font-family="Helvetica,sans-Serif" font-size="10.00">Ponca::ComputeObject</text>
<text text-anchor="start" x="280.5" y="-512.5" font-family="Helvetica,sans-Serif" font-size="10.00">&lt; _Derived &gt;</text>
<text text-anchor="start" x="312" y="-497.5" font-family="Helvetica,sans-Serif" font-size="10.00"> </text>
<text text-anchor="start" x="260" y="-482.5" font-family="Helvetica,sans-Serif" font-size="10.00">+</text>
<text text-anchor="start" x="276" y="-482.5" font-family="Helvetica,sans-Serif" font-size="10.00">compute()</text>
<text text-anchor="start" x="260" y="-467.5" font-family="Helvetica,sans-Serif" font-size="10.00">+</text>
<text text-anchor="start" x="276" y="-467.5" font-family="Helvetica,sans-Serif" font-size="10.00">compute()</text>
<text text-anchor="start" x="260" y="-452.5" font-family="Helvetica,sans-Serif" font-size="10.00">+</text>
<text text-anchor="start" x="276" y="-452.5" font-family="Helvetica,sans-Serif" font-size="10.00">computeWithIds()</text>
<text text-anchor="start" x="260" y="-437.5" font-family="Helvetica,sans-Serif" font-size="10.00">#</text>
<text text-anchor="start" x="276" y="-437.5" font-family="Helvetica,sans-Serif" font-size="10.00">derived()</text>
<polygon fill="#666666" stroke="#666666" points="253,-507.5 253,-507.5 375,-507.5 375,-507.5 253,-507.5"/>
<polygon fill="#666666" stroke="#666666" points="253,-492.5 253,-492.5 375,-492.5 375,-492.5 253,-492.5"/>
<polygon fill="none" stroke="#666666" points="253,-431 253,-536 375,-536 375,-431 253,-431"/>
</a>
</g>
</g>
<!-- Node6&#45;&gt;Node5 -->
<g id="edge5_Node000005_Node000006" class="edge">
<title>Node6&#45;&gt;Node5</title>
<g id="a_edge5_Node000005_Node000006"><a xlink:title=" ">
<path fill="none" stroke="#63b8ff" d="M343.64,-421.47C349.33,-409.76 355.18,-397.71 360.55,-386.66"/>
<polygon fill="none" stroke="#63b8ff" points="340.35,-420.24 339.13,-430.77 346.64,-423.3 340.35,-420.24"/>
</a>
</g>
</g>
<!-- Node7 -->
<g id="Node000007" class="node">
<title>Node7</title>
<g id="a_Node000007"><a xlink:href="structPonca_1_1ComputeObject.html" target="_top" xlink:title="ComputeObject is a virtual object that represents an algorithm which can be used with the compute fun...">
<polygon fill="white" stroke="transparent" points="375,-688 253,-688 253,-583 375,-583 375,-688"/>
<text text-anchor="start" x="258" y="-675.5" font-family="Helvetica,sans-Serif" font-size="10.00">Ponca::ComputeObject</text>
<text text-anchor="start" x="283.5" y="-664.5" font-family="Helvetica,sans-Serif" font-size="10.00">&lt; Derived &gt;</text>
<text text-anchor="start" x="312" y="-649.5" font-family="Helvetica,sans-Serif" font-size="10.00"> </text>
<text text-anchor="start" x="260" y="-634.5" font-family="Helvetica,sans-Serif" font-size="10.00">+</text>
<text text-anchor="start" x="276" y="-634.5" font-family="Helvetica,sans-Serif" font-size="10.00">compute()</text>
<text text-anchor="start" x="260" y="-619.5" font-family="Helvetica,sans-Serif" font-size="10.00">+</text>
<text text-anchor="start" x="276" y="-619.5" font-family="Helvetica,sans-Serif" font-size="10.00">compute()</text>
<text text-anchor="start" x="260" y="-604.5" font-family="Helvetica,sans-Serif" font-size="10.00">+</text>
<text text-anchor="start" x="276" y="-604.5" font-family="Helvetica,sans-Serif" font-size="10.00">computeWithIds()</text>
<text text-anchor="start" x="260" y="-589.5" font-family="Helvetica,sans-Serif" font-size="10.00">#</text>
<text text-anchor="start" x="276" y="-589.5" font-family="Helvetica,sans-Serif" font-size="10.00">derived()</text>
<polygon fill="#666666" stroke="#666666" points="253,-659.5 253,-659.5 375,-659.5 375,-659.5 253,-659.5"/>
<polygon fill="#666666" stroke="#666666" points="253,-644.5 253,-644.5 375,-644.5 375,-644.5 253,-644.5"/>
<polygon fill="none" stroke="#666666" points="253,-583 253,-688 375,-688 375,-583 253,-583"/>
</a>
</g>
</g>
<!-- Node7&#45;&gt;Node6 -->
<g id="edge6_Node000006_Node000007" class="edge">
<title>Node7&#45;&gt;Node6</title>
<g id="a_edge6_Node000006_Node000007"><a xlink:title=" ">
<path fill="none" stroke="orange" d="M314,-572.81C314,-560.65 314,-548.01 314,-536.22"/>
<polygon fill="orange" stroke="orange" points="310.5,-572.88 314,-582.88 317.5,-572.88 310.5,-572.88"/>
</a>
</g>
<text text-anchor="middle" x="349" y="-557" font-family="Helvetica,sans-Serif" font-size="10.00" fill="grey"> &lt; _Derived &gt;</text>
</g>
<!-- Node8 -->
<g id="Node000008" class="node">
<title>Node8</title>
<g id="a_Node000008"><a xlink:title=" ">
<polygon fill="white" stroke="transparent" points="433,-508 393,-508 393,-459 433,-459 433,-508"/>
<text text-anchor="start" x="398" y="-495.5" font-family="Helvetica,sans-Serif" font-size="10.00">_Base</text>
<text text-anchor="start" x="411" y="-480.5" font-family="Helvetica,sans-Serif" font-size="10.00"> </text>
<text text-anchor="start" x="411" y="-465.5" font-family="Helvetica,sans-Serif" font-size="10.00"> </text>
<polygon fill="#bfbfbf" stroke="#bfbfbf" points="393,-490.5 393,-490.5 433,-490.5 433,-490.5 393,-490.5"/>
<polygon fill="#bfbfbf" stroke="#bfbfbf" points="393,-475.5 393,-475.5 433,-475.5 433,-475.5 393,-475.5"/>
<polygon fill="none" stroke="#bfbfbf" points="393,-459 393,-508 433,-508 433,-459 393,-459"/>
</a>
</g>
</g>
<!-- Node8&#45;&gt;Node5 -->
<g id="edge7_Node000005_Node000008" class="edge">
<title>Node8&#45;&gt;Node5</title>
<g id="a_edge7_Node000005_Node000008"><a xlink:title=" ">
<path fill="none" stroke="#63b8ff" d="M405.57,-448.94C401.44,-430.31 396.26,-406.9 391.8,-386.78"/>
<polygon fill="none" stroke="#63b8ff" points="402.16,-449.74 407.74,-458.75 409,-448.23 402.16,-449.74"/>
</a>
</g>
</g>
</g>
</svg>
