<?xml version="1.0" encoding="UTF-8" standalone="no"?>
<!DOCTYPE svg PUBLIC "-//W3C//DTD SVG 1.1//EN"
 "http://www.w3.org/Graphics/SVG/1.1/DTD/svg11.dtd">
<!-- Generated by graphviz version 2.43.0 (0)
 -->
<!-- Title: Ponca::NormalDerivativesCurvatureEstimator&lt; DataPoint, _WFunctor, DiffType, T &gt; Pages: 1 -->
<svg width="213pt" height="237pt"
 viewBox="0.00 0.00 212.50 237.00" xmlns="http://www.w3.org/2000/svg" xmlns:xlink="http://www.w3.org/1999/xlink">
<g id="graph0" class="graph" transform="scale(1 1) rotate(0) translate(4 233)">
<title>Ponca::NormalDerivativesCurvatureEstimator&lt; DataPoint, _WFunctor, DiffType, T &gt;</title>
<!-- Node1 -->
<g id="node1" class="node">
<title>Node1</title>
<g id="a_node1"><a xlink:title="Extension to compute curvature values from the Weingarten map .">
<polygon fill="#bfbfbf" stroke="black" points="30.5,-0.5 30.5,-134.5 204.5,-134.5 204.5,-0.5 30.5,-0.5"/>
<text text-anchor="start" x="38.5" y="-122.5" font-family="Helvetica,sans-Serif" font-size="10.00">Ponca::NormalDerivatives</text>
<text text-anchor="start" x="38.5" y="-111.5" font-family="Helvetica,sans-Serif" font-size="10.00">CurvatureEstimator&lt; DataPoint,</text>
<text text-anchor="middle" x="117.5" y="-100.5" font-family="Helvetica,sans-Serif" font-size="10.00"> _WFunctor, DiffType, T &gt;</text>
<polyline fill="none" stroke="black" points="30.5,-93.5 204.5,-93.5 "/>
<text text-anchor="middle" x="117.5" y="-81.5" font-family="Helvetica,sans-Serif" font-size="10.00"> </text>
<polyline fill="none" stroke="black" points="30.5,-74.5 204.5,-74.5 "/>
<text text-anchor="start" x="38.5" y="-62.5" font-family="Helvetica,sans-Serif" font-size="10.00">+ normalDerivativesCurvature</text>
<text text-anchor="start" x="38.5" y="-51.5" font-family="Helvetica,sans-Serif" font-size="10.00">Estimator()</text>
<text text-anchor="start" x="38.5" y="-40.5" font-family="Helvetica,sans-Serif" font-size="10.00">+ normalDerivativesCurvature</text>
<text text-anchor="start" x="38.5" y="-29.5" font-family="Helvetica,sans-Serif" font-size="10.00">Estimator()</text>
<text text-anchor="start" x="38.5" y="-18.5" font-family="Helvetica,sans-Serif" font-size="10.00">+ finalize()</text>
<text text-anchor="start" x="38.5" y="-7.5" font-family="Helvetica,sans-Serif" font-size="10.00"># tangentPlane()</text>
</a>
</g>
</g>
<!-- Node2 -->
<g id="node2" class="node">
<title>Node2</title>
<g id="a_node2"><a xlink:title=" ">
<polygon fill="none" stroke="#bfbfbf" points="0,-171.5 0,-228.5 135,-228.5 135,-171.5 0,-171.5"/>
<text text-anchor="middle" x="67.5" y="-216.5" font-family="Helvetica,sans-Serif" font-size="10.00">FittingExtensionConcept</text>
<polyline fill="none" stroke="#bfbfbf" points="0,-209.5 135,-209.5 "/>
<text text-anchor="middle" x="67.5" y="-197.5" font-family="Helvetica,sans-Serif" font-size="10.00"> </text>
<polyline fill="none" stroke="#bfbfbf" points="0,-190.5 135,-190.5 "/>
<text text-anchor="middle" x="67.5" y="-178.5" font-family="Helvetica,sans-Serif" font-size="10.00"> </text>
</a>
</g>
</g>
<!-- Node2&#45;&gt;Node1 -->
<g id="edge1" class="edge">
<title>Node2&#45;&gt;Node1</title>
<path fill="none" stroke="midnightblue" d="M81.78,-161.72C85.05,-153.19 88.62,-143.87 92.2,-134.53"/>
<polygon fill="none" stroke="midnightblue" points="78.41,-160.73 78.1,-171.32 84.95,-163.24 78.41,-160.73"/>
</g>
<!-- Node3 -->
<g id="node3" class="node">
<title>Node3</title>
<g id="a_node3"><a xlink:title=" ">
<polygon fill="none" stroke="#bfbfbf" points="153,-171.5 153,-228.5 182,-228.5 182,-171.5 153,-171.5"/>
<text text-anchor="middle" x="167.5" y="-216.5" font-family="Helvetica,sans-Serif" font-size="10.00">T</text>
<polyline fill="none" stroke="#bfbfbf" points="153,-209.5 182,-209.5 "/>
<text text-anchor="middle" x="167.5" y="-197.5" font-family="Helvetica,sans-Serif" font-size="10.00"> </text>
<polyline fill="none" stroke="#bfbfbf" points="153,-190.5 182,-190.5 "/>
<text text-anchor="middle" x="167.5" y="-178.5" font-family="Helvetica,sans-Serif" font-size="10.00"> </text>
</a>
</g>
</g>
<!-- Node3&#45;&gt;Node1 -->
<g id="edge2" class="edge">
<title>Node3&#45;&gt;Node1</title>
<path fill="none" stroke="midnightblue" d="M153.22,-161.72C149.95,-153.19 146.38,-143.87 142.8,-134.53"/>
<polygon fill="none" stroke="midnightblue" points="150.05,-163.24 156.9,-171.32 156.59,-160.73 150.05,-163.24"/>
</g>
</g>
</svg>
