<?xml version="1.0" encoding="UTF-8" standalone="no"?>
<!DOCTYPE svg PUBLIC "-//W3C//DTD SVG 1.1//EN"
 "http://www.w3.org/Graphics/SVG/1.1/DTD/svg11.dtd">
<!-- Generated by graphviz version 2.43.0 (0)
 -->
<!-- Title: Ponca::CovarianceLineFitImpl&lt; DataPoint, _WFunctor, T &gt; Pages: 1 -->
<svg width="220pt" height="204pt"
 viewBox="0.00 0.00 220.00 204.00" xmlns="http://www.w3.org/2000/svg" xmlns:xlink="http://www.w3.org/1999/xlink">
<g id="graph0" class="graph" transform="scale(1 1) rotate(0) translate(4 200)">
<title>Ponca::CovarianceLineFitImpl&lt; DataPoint, _WFunctor, T &gt;</title>
<!-- Node1 -->
<g id="node1" class="node">
<title>Node1</title>
<g id="a_node1"><a xlink:title="Line fitting procedure that minimize the orthogonal distance between the samples and the fitted primi...">
<polygon fill="#999999" stroke="#666666" points="34,-0.5 34,-90.5 212,-90.5 212,-0.5 34,-0.5"/>
<text text-anchor="start" x="42" y="-78.5" font-family="Helvetica,sans-Serif" font-size="10.00">Ponca::CovarianceLineFit</text>
<text text-anchor="middle" x="123" y="-67.5" font-family="Helvetica,sans-Serif" font-size="10.00">Impl&lt; DataPoint, _WFunctor, T &gt;</text>
<polyline fill="none" stroke="#666666" points="34,-60.5 212,-60.5 "/>
<text text-anchor="middle" x="123" y="-48.5" font-family="Helvetica,sans-Serif" font-size="10.00"> </text>
<polyline fill="none" stroke="#666666" points="34,-41.5 212,-41.5 "/>
<text text-anchor="start" x="42" y="-29.5" font-family="Helvetica,sans-Serif" font-size="10.00">+ covarianceLineFit()</text>
<text text-anchor="start" x="42" y="-18.5" font-family="Helvetica,sans-Serif" font-size="10.00">+ covarianceLineFit()</text>
<text text-anchor="start" x="42" y="-7.5" font-family="Helvetica,sans-Serif" font-size="10.00">+ finalize()</text>
</a>
</g>
</g>
<!-- Node2 -->
<g id="node2" class="node">
<title>Node2</title>
<g id="a_node2"><a xlink:title=" ">
<polygon fill="white" stroke="#bfbfbf" points="0,-127.5 0,-195.5 142,-195.5 142,-127.5 0,-127.5"/>
<text text-anchor="start" x="8" y="-183.5" font-family="Helvetica,sans-Serif" font-size="10.00">Concept::FittingProcedure</text>
<text text-anchor="middle" x="71" y="-172.5" font-family="Helvetica,sans-Serif" font-size="10.00">Concept</text>
<polyline fill="none" stroke="#bfbfbf" points="0,-165.5 142,-165.5 "/>
<text text-anchor="middle" x="71" y="-153.5" font-family="Helvetica,sans-Serif" font-size="10.00"> </text>
<polyline fill="none" stroke="#bfbfbf" points="0,-146.5 142,-146.5 "/>
<text text-anchor="middle" x="71" y="-134.5" font-family="Helvetica,sans-Serif" font-size="10.00"> </text>
</a>
</g>
</g>
<!-- Node2&#45;&gt;Node1 -->
<g id="edge1" class="edge">
<title>Node2&#45;&gt;Node1</title>
<path fill="none" stroke="#63b8ff" d="M90.34,-118.11C94.43,-109.14 98.75,-99.66 102.87,-90.64"/>
<polygon fill="none" stroke="#63b8ff" points="87.15,-116.67 86.18,-127.22 93.51,-119.57 87.15,-116.67"/>
</g>
<!-- Node3 -->
<g id="node3" class="node">
<title>Node3</title>
<g id="a_node3"><a xlink:title=" ">
<polygon fill="white" stroke="#bfbfbf" points="160.5,-133 160.5,-190 189.5,-190 189.5,-133 160.5,-133"/>
<text text-anchor="middle" x="175" y="-178" font-family="Helvetica,sans-Serif" font-size="10.00">T</text>
<polyline fill="none" stroke="#bfbfbf" points="160.5,-171 189.5,-171 "/>
<text text-anchor="middle" x="175" y="-159" font-family="Helvetica,sans-Serif" font-size="10.00"> </text>
<polyline fill="none" stroke="#bfbfbf" points="160.5,-152 189.5,-152 "/>
<text text-anchor="middle" x="175" y="-140" font-family="Helvetica,sans-Serif" font-size="10.00"> </text>
</a>
</g>
</g>
<!-- Node3&#45;&gt;Node1 -->
<g id="edge2" class="edge">
<title>Node3&#45;&gt;Node1</title>
<path fill="none" stroke="#63b8ff" d="M158.18,-123.62C153.39,-113.13 148.14,-101.61 143.18,-90.74"/>
<polygon fill="none" stroke="#63b8ff" points="155.08,-125.26 162.41,-132.9 161.45,-122.35 155.08,-125.26"/>
</g>
</g>
</svg>
