<?xml version="1.0" encoding="UTF-8" standalone="no"?>
<!DOCTYPE svg PUBLIC "-//W3C//DTD SVG 1.1//EN"
 "http://www.w3.org/Graphics/SVG/1.1/DTD/svg11.dtd">
<!-- Generated by graphviz version 2.43.0 (0)
 -->
<!-- Title: Ponca::MongePatch&lt; DataPoint, _NFilter, T &gt; Pages: 1 -->
<svg width="222pt" height="303pt"
 viewBox="0.00 0.00 222.00 303.00" xmlns="http://www.w3.org/2000/svg" xmlns:xlink="http://www.w3.org/1999/xlink">
<g id="graph0" class="graph" transform="scale(1 1) rotate(0) translate(4 299)">
<title>Ponca::MongePatch&lt; DataPoint, _NFilter, T &gt;</title>
<!-- Node1 -->
<g id="Node000001" class="node">
<title>Node1</title>
<g id="a_Node000001"><a xlink:title="Monge Patch primitive, defined as , with &#160;defined by a Base class.">
<polygon fill="#999999" stroke="transparent" points="214,-210 0,-210 0,0 214,0 214,-210"/>
<text text-anchor="start" x="48" y="-198" font-family="Helvetica,sans-Serif" font-size="10.00">Ponca::MongePatch&lt;</text>
<text text-anchor="start" x="48" y="-187" font-family="Helvetica,sans-Serif" font-size="10.00"> DataPoint, _NFilter, T &gt;</text>
<text text-anchor="start" x="105" y="-172" font-family="Helvetica,sans-Serif" font-size="10.00"> </text>
<text text-anchor="start" x="4" y="-157" font-family="Helvetica,sans-Serif" font-size="10.00">+</text>
<text text-anchor="start" x="17" y="-157" font-family="Helvetica,sans-Serif" font-size="10.00">MongePatch()</text>
<text text-anchor="start" x="4" y="-142" font-family="Helvetica,sans-Serif" font-size="10.00">+</text>
<text text-anchor="start" x="17" y="-142" font-family="Helvetica,sans-Serif" font-size="10.00">mongePatchPrimitive()</text>
<text text-anchor="start" x="4" y="-127" font-family="Helvetica,sans-Serif" font-size="10.00">+</text>
<text text-anchor="start" x="17" y="-127" font-family="Helvetica,sans-Serif" font-size="10.00">mongePatchPrimitive()</text>
<text text-anchor="start" x="4" y="-112" font-family="Helvetica,sans-Serif" font-size="10.00">+</text>
<text text-anchor="start" x="17" y="-112" font-family="Helvetica,sans-Serif" font-size="10.00">potential()</text>
<text text-anchor="start" x="4" y="-97" font-family="Helvetica,sans-Serif" font-size="10.00">+</text>
<text text-anchor="start" x="17" y="-97" font-family="Helvetica,sans-Serif" font-size="10.00">potential()</text>
<text text-anchor="start" x="4" y="-82" font-family="Helvetica,sans-Serif" font-size="10.00">+</text>
<text text-anchor="start" x="17" y="-82" font-family="Helvetica,sans-Serif" font-size="10.00">project()</text>
<text text-anchor="start" x="4" y="-67" font-family="Helvetica,sans-Serif" font-size="10.00">+</text>
<text text-anchor="start" x="17" y="-67" font-family="Helvetica,sans-Serif" font-size="10.00">primitiveGradient()</text>
<text text-anchor="start" x="4" y="-52" font-family="Helvetica,sans-Serif" font-size="10.00">+</text>
<text text-anchor="start" x="17" y="-52" font-family="Helvetica,sans-Serif" font-size="10.00">primitiveGradient()</text>
<text text-anchor="start" x="4" y="-37" font-family="Helvetica,sans-Serif" font-size="10.00">+</text>
<text text-anchor="start" x="17" y="-37" font-family="Helvetica,sans-Serif" font-size="10.00">primitiveGradientLocal()</text>
<text text-anchor="start" x="4" y="-22" font-family="Helvetica,sans-Serif" font-size="10.00">+</text>
<text text-anchor="start" x="17" y="-22" font-family="Helvetica,sans-Serif" font-size="10.00">firstFundamentalFormComponents()</text>
<text text-anchor="start" x="4" y="-7" font-family="Helvetica,sans-Serif" font-size="10.00">+</text>
<text text-anchor="start" x="17" y="-7" font-family="Helvetica,sans-Serif" font-size="10.00">secondFundamentalFormComponents()</text>
<polygon fill="#666666" stroke="#666666" points="0,-182 0,-182 214,-182 214,-182 0,-182"/>
<polygon fill="#666666" stroke="#666666" points="0,-167 0,-167 214,-167 214,-167 0,-167"/>
<polygon fill="none" stroke="#666666" points="0,0 0,-210 214,-210 214,0 0,0"/>
</a>
</g>
</g>
<!-- Node2 -->
<g id="Node000002" class="node">
<title>Node2</title>
<g id="a_Node000002"><a xlink:title=" ">
<polygon fill="white" stroke="transparent" points="115.5,-295 98.5,-295 98.5,-246 115.5,-246 115.5,-295"/>
<text text-anchor="start" x="104" y="-282.5" font-family="Helvetica,sans-Serif" font-size="10.00">T</text>
<text text-anchor="start" x="105.5" y="-267.5" font-family="Helvetica,sans-Serif" font-size="10.00"> </text>
<text text-anchor="start" x="105.5" y="-252.5" font-family="Helvetica,sans-Serif" font-size="10.00"> </text>
<polygon fill="#bfbfbf" stroke="#bfbfbf" points="99,-277.5 99,-277.5 116,-277.5 116,-277.5 99,-277.5"/>
<polygon fill="#bfbfbf" stroke="#bfbfbf" points="99,-262.5 99,-262.5 116,-262.5 116,-262.5 99,-262.5"/>
<polygon fill="none" stroke="#bfbfbf" points="98.5,-246 98.5,-295 115.5,-295 115.5,-246 98.5,-246"/>
</a>
</g>
</g>
<!-- Node2&#45;&gt;Node1 -->
<g id="edge1_Node000001_Node000002" class="edge">
<title>Node2&#45;&gt;Node1</title>
<g id="a_edge1_Node000001_Node000002"><a xlink:title=" ">
<path fill="none" stroke="#63b8ff" d="M107,-235.69C107,-227.89 107,-219.18 107,-210.08"/>
<polygon fill="none" stroke="#63b8ff" points="103.5,-235.73 107,-245.73 110.5,-235.73 103.5,-235.73"/>
</a>
</g>
</g>
</g>
</svg>
