<?xml version="1.0" encoding="UTF-8" standalone="no"?>
<!DOCTYPE svg PUBLIC "-//W3C//DTD SVG 1.1//EN"
 "http://www.w3.org/Graphics/SVG/1.1/DTD/svg11.dtd">
<!-- Generated by graphviz version 2.43.0 (0)
 -->
<!-- Title: Ponca::StaticKdTreeBase&lt; Traits &gt; Pages: 1 -->
<svg width="665pt" height="1212pt"
 viewBox="0.00 0.00 665.00 1212.00" xmlns="http://www.w3.org/2000/svg" xmlns:xlink="http://www.w3.org/1999/xlink">
<g id="graph0" class="graph" transform="scale(1 1) rotate(0) translate(4 1208)">
<title>Ponca::StaticKdTreeBase&lt; Traits &gt;</title>
<!-- Node1 -->
<g id="Node000001" class="node">
<title>Node1</title>
<g id="a_Node000001"><a xlink:title="Customizable static base class for KdTree datastructure implementations.">
<polygon fill="#999999" stroke="transparent" points="406.5,-1204 256.5,-1204 256.5,-889 406.5,-889 406.5,-1204"/>
<text text-anchor="start" x="271" y="-1191.5" font-family="Helvetica,sans-Serif" font-size="10.00">Ponca::StaticKdTreeBase</text>
<text text-anchor="start" x="307" y="-1180.5" font-family="Helvetica,sans-Serif" font-size="10.00">&lt; Traits &gt;</text>
<text text-anchor="start" x="260.5" y="-1165.5" font-family="Helvetica,sans-Serif" font-size="10.00">+</text>
<text text-anchor="start" x="273.5" y="-1165.5" font-family="Helvetica,sans-Serif" font-size="10.00">MAX_NODE_COUNT</text>
<text text-anchor="start" x="260.5" y="-1150.5" font-family="Helvetica,sans-Serif" font-size="10.00">+</text>
<text text-anchor="start" x="273.5" y="-1150.5" font-family="Helvetica,sans-Serif" font-size="10.00">MAX_POINT_COUNT</text>
<text text-anchor="start" x="260.5" y="-1135.5" font-family="Helvetica,sans-Serif" font-size="10.00">+</text>
<text text-anchor="start" x="273.5" y="-1135.5" font-family="Helvetica,sans-Serif" font-size="10.00">MAX_DEPTH</text>
<text text-anchor="start" x="260.5" y="-1120.5" font-family="Helvetica,sans-Serif" font-size="10.00">+</text>
<text text-anchor="start" x="273.5" y="-1120.5" font-family="Helvetica,sans-Serif" font-size="10.00">SUPPORTS_SUBSAMPLING</text>
<text text-anchor="start" x="260.5" y="-1105.5" font-family="Helvetica,sans-Serif" font-size="10.00">#</text>
<text text-anchor="start" x="273.5" y="-1105.5" font-family="Helvetica,sans-Serif" font-size="10.00">m_bufs</text>
<text text-anchor="start" x="260.5" y="-1090.5" font-family="Helvetica,sans-Serif" font-size="10.00">#</text>
<text text-anchor="start" x="273.5" y="-1090.5" font-family="Helvetica,sans-Serif" font-size="10.00">m_min_cell_size</text>
<text text-anchor="start" x="260.5" y="-1075.5" font-family="Helvetica,sans-Serif" font-size="10.00">#</text>
<text text-anchor="start" x="273.5" y="-1075.5" font-family="Helvetica,sans-Serif" font-size="10.00">m_leaf_count</text>
<text text-anchor="start" x="260.5" y="-1060.5" font-family="Helvetica,sans-Serif" font-size="10.00">+</text>
<text text-anchor="start" x="273.5" y="-1060.5" font-family="Helvetica,sans-Serif" font-size="10.00">StaticKdTreeBase()</text>
<text text-anchor="start" x="260.5" y="-1045.5" font-family="Helvetica,sans-Serif" font-size="10.00">+</text>
<text text-anchor="start" x="273.5" y="-1045.5" font-family="Helvetica,sans-Serif" font-size="10.00">nodeCount()</text>
<text text-anchor="start" x="260.5" y="-1030.5" font-family="Helvetica,sans-Serif" font-size="10.00">+</text>
<text text-anchor="start" x="273.5" y="-1030.5" font-family="Helvetica,sans-Serif" font-size="10.00">sampleCount()</text>
<text text-anchor="start" x="260.5" y="-1015.5" font-family="Helvetica,sans-Serif" font-size="10.00">+</text>
<text text-anchor="start" x="273.5" y="-1015.5" font-family="Helvetica,sans-Serif" font-size="10.00">pointCount()</text>
<text text-anchor="start" x="260.5" y="-1000.5" font-family="Helvetica,sans-Serif" font-size="10.00">+</text>
<text text-anchor="start" x="273.5" y="-1000.5" font-family="Helvetica,sans-Serif" font-size="10.00">leafCount()</text>
<text text-anchor="start" x="260.5" y="-985.5" font-family="Helvetica,sans-Serif" font-size="10.00">+</text>
<text text-anchor="start" x="273.5" y="-985.5" font-family="Helvetica,sans-Serif" font-size="10.00">points()</text>
<text text-anchor="start" x="260.5" y="-970.5" font-family="Helvetica,sans-Serif" font-size="10.00">+</text>
<text text-anchor="start" x="273.5" y="-970.5" font-family="Helvetica,sans-Serif" font-size="10.00">points()</text>
<text text-anchor="start" x="260.5" y="-955.5" font-family="Helvetica,sans-Serif" font-size="10.00">+</text>
<text text-anchor="start" x="273.5" y="-955.5" font-family="Helvetica,sans-Serif" font-size="10.00">nodes()</text>
<text text-anchor="start" x="260.5" y="-940.5" font-family="Helvetica,sans-Serif" font-size="10.00">+</text>
<text text-anchor="start" x="273.5" y="-940.5" font-family="Helvetica,sans-Serif" font-size="10.00">samples()</text>
<text text-anchor="start" x="260.5" y="-925.5" font-family="Helvetica,sans-Serif" font-size="10.00">+</text>
<text text-anchor="start" x="273.5" y="-925.5" font-family="Helvetica,sans-Serif" font-size="10.00">buffers()</text>
<text text-anchor="start" x="273.5" y="-910.5" font-family="Helvetica,sans-Serif" font-size="10.00">and 19 more...</text>
<text text-anchor="start" x="260.5" y="-895.5" font-family="Helvetica,sans-Serif" font-size="10.00">#</text>
<text text-anchor="start" x="273.5" y="-895.5" font-family="Helvetica,sans-Serif" font-size="10.00">StaticKdTreeBase()</text>
<polygon fill="#666666" stroke="#666666" points="256.5,-1175.5 256.5,-1175.5 406.5,-1175.5 406.5,-1175.5 256.5,-1175.5"/>
<polygon fill="#666666" stroke="#666666" points="256.5,-1070.5 256.5,-1070.5 271.5,-1070.5 271.5,-1070.5 256.5,-1070.5"/>
<polygon fill="#666666" stroke="#666666" points="271.5,-1070.5 271.5,-1070.5 406.5,-1070.5 406.5,-1070.5 271.5,-1070.5"/>
<polygon fill="none" stroke="#666666" points="256.5,-889 256.5,-1204 406.5,-1204 406.5,-889 256.5,-889"/>
</a>
</g>
</g>
<!-- Node2 -->
<g id="Node000002" class="node">
<title>Node2</title>
<g id="a_Node000002"><a xlink:href="classPonca_1_1KdTreeBase.html" target="_top" xlink:title=" ">
<polygon fill="white" stroke="transparent" points="135,-447 14,-447 14,-301 135,-301 135,-447"/>
<text text-anchor="start" x="24.5" y="-435" font-family="Helvetica,sans-Serif" font-size="10.00">Ponca::KdTreeBase&lt;</text>
<text text-anchor="start" x="24.5" y="-424" font-family="Helvetica,sans-Serif" font-size="10.00"> KdTreeDefaultTraits</text>
<text text-anchor="start" x="34" y="-413" font-family="Helvetica,sans-Serif" font-size="10.00">&lt; DataPoint &gt; &gt;</text>
<text text-anchor="start" x="73" y="-398" font-family="Helvetica,sans-Serif" font-size="10.00"> </text>
<text text-anchor="start" x="18.5" y="-383" font-family="Helvetica,sans-Serif" font-size="10.00">+</text>
<text text-anchor="start" x="31.5" y="-383" font-family="Helvetica,sans-Serif" font-size="10.00">build()</text>
<text text-anchor="start" x="18.5" y="-368" font-family="Helvetica,sans-Serif" font-size="10.00">+</text>
<text text-anchor="start" x="31.5" y="-368" font-family="Helvetica,sans-Serif" font-size="10.00">build()</text>
<text text-anchor="start" x="18.5" y="-353" font-family="Helvetica,sans-Serif" font-size="10.00">+</text>
<text text-anchor="start" x="31.5" y="-353" font-family="Helvetica,sans-Serif" font-size="10.00">build()</text>
<text text-anchor="start" x="18.5" y="-338" font-family="Helvetica,sans-Serif" font-size="10.00">+</text>
<text text-anchor="start" x="31.5" y="-338" font-family="Helvetica,sans-Serif" font-size="10.00">buildWithSampling()</text>
<text text-anchor="start" x="18.5" y="-323" font-family="Helvetica,sans-Serif" font-size="10.00">#</text>
<text text-anchor="start" x="31.5" y="-323" font-family="Helvetica,sans-Serif" font-size="10.00">buildWithSampling()</text>
<text text-anchor="start" x="18.5" y="-308" font-family="Helvetica,sans-Serif" font-size="10.00">#</text>
<text text-anchor="start" x="31.5" y="-308" font-family="Helvetica,sans-Serif" font-size="10.00">buildWithSampling()</text>
<polygon fill="#666666" stroke="#666666" points="14.5,-408 14.5,-408 135.5,-408 135.5,-408 14.5,-408"/>
<polygon fill="#666666" stroke="#666666" points="14.5,-393 14.5,-393 135.5,-393 135.5,-393 14.5,-393"/>
<polygon fill="none" stroke="#666666" points="14,-301 14,-447 135,-447 135,-301 14,-301"/>
</a>
</g>
</g>
<!-- Node1&#45;&gt;Node2 -->
<g id="edge1_Node000001_Node000002" class="edge">
<title>Node1&#45;&gt;Node2</title>
<g id="a_edge1_Node000001_Node000002"><a xlink:title=" ">
<path fill="none" stroke="#63b8ff" d="M267.78,-879.25C214.62,-740.57 141.45,-549.66 102.14,-447.11"/>
<polygon fill="none" stroke="#63b8ff" points="264.56,-880.64 271.41,-888.72 271.1,-878.13 264.56,-880.64"/>
</a>
</g>
</g>
<!-- Node4 -->
<g id="Node000004" class="node">
<title>Node4</title>
<g id="a_Node000004"><a xlink:href="classPonca_1_1KdTreeBase.html" target="_top" xlink:title=" ">
<polygon fill="white" stroke="transparent" points="392,-735.5 271,-735.5 271,-600.5 392,-600.5 392,-735.5"/>
<text text-anchor="start" x="281.5" y="-723" font-family="Helvetica,sans-Serif" font-size="10.00">Ponca::KdTreeBase&lt;</text>
<text text-anchor="start" x="311.5" y="-712" font-family="Helvetica,sans-Serif" font-size="10.00"> Traits &gt;</text>
<text text-anchor="start" x="330" y="-697" font-family="Helvetica,sans-Serif" font-size="10.00"> </text>
<text text-anchor="start" x="275.5" y="-682" font-family="Helvetica,sans-Serif" font-size="10.00">+</text>
<text text-anchor="start" x="288.5" y="-682" font-family="Helvetica,sans-Serif" font-size="10.00">build()</text>
<text text-anchor="start" x="275.5" y="-667" font-family="Helvetica,sans-Serif" font-size="10.00">+</text>
<text text-anchor="start" x="288.5" y="-667" font-family="Helvetica,sans-Serif" font-size="10.00">build()</text>
<text text-anchor="start" x="275.5" y="-652" font-family="Helvetica,sans-Serif" font-size="10.00">+</text>
<text text-anchor="start" x="288.5" y="-652" font-family="Helvetica,sans-Serif" font-size="10.00">build()</text>
<text text-anchor="start" x="275.5" y="-637" font-family="Helvetica,sans-Serif" font-size="10.00">+</text>
<text text-anchor="start" x="288.5" y="-637" font-family="Helvetica,sans-Serif" font-size="10.00">buildWithSampling()</text>
<text text-anchor="start" x="275.5" y="-622" font-family="Helvetica,sans-Serif" font-size="10.00">#</text>
<text text-anchor="start" x="288.5" y="-622" font-family="Helvetica,sans-Serif" font-size="10.00">buildWithSampling()</text>
<text text-anchor="start" x="275.5" y="-607" font-family="Helvetica,sans-Serif" font-size="10.00">#</text>
<text text-anchor="start" x="288.5" y="-607" font-family="Helvetica,sans-Serif" font-size="10.00">buildWithSampling()</text>
<polygon fill="#666666" stroke="#666666" points="271.5,-707 271.5,-707 392.5,-707 392.5,-707 271.5,-707"/>
<polygon fill="#666666" stroke="#666666" points="271.5,-692 271.5,-692 392.5,-692 392.5,-692 271.5,-692"/>
<polygon fill="none" stroke="#666666" points="271,-600.5 271,-735.5 392,-735.5 392,-600.5 271,-600.5"/>
</a>
</g>
</g>
<!-- Node1&#45;&gt;Node4 -->
<g id="edge3_Node000001_Node000004" class="edge">
<title>Node1&#45;&gt;Node4</title>
<g id="a_edge3_Node000001_Node000004"><a xlink:title=" ">
<path fill="none" stroke="#63b8ff" d="M331.5,-878.76C331.5,-828.25 331.5,-775.66 331.5,-735.76"/>
<polygon fill="none" stroke="#63b8ff" points="328,-878.83 331.5,-888.83 335,-878.83 328,-878.83"/>
</a>
</g>
</g>
<!-- Node11 -->
<g id="Node000011" class="node">
<title>Node11</title>
<g id="a_Node000011"><a xlink:href="classPonca_1_1StaticKdTreeBase.html" target="_top" xlink:title=" ">
<polygon fill="white" stroke="transparent" points="619.5,-831 469.5,-831 469.5,-505 619.5,-505 619.5,-831"/>
<text text-anchor="start" x="484" y="-819" font-family="Helvetica,sans-Serif" font-size="10.00">Ponca::StaticKdTreeBase</text>
<text text-anchor="start" x="484" y="-808" font-family="Helvetica,sans-Serif" font-size="10.00">&lt; KdTreeDefaultTraits</text>
<text text-anchor="start" x="503.5" y="-797" font-family="Helvetica,sans-Serif" font-size="10.00">&lt; DataPoint &gt; &gt;</text>
<text text-anchor="start" x="473.5" y="-782" font-family="Helvetica,sans-Serif" font-size="10.00">+</text>
<text text-anchor="start" x="486.5" y="-782" font-family="Helvetica,sans-Serif" font-size="10.00">MAX_NODE_COUNT</text>
<text text-anchor="start" x="473.5" y="-767" font-family="Helvetica,sans-Serif" font-size="10.00">+</text>
<text text-anchor="start" x="486.5" y="-767" font-family="Helvetica,sans-Serif" font-size="10.00">MAX_POINT_COUNT</text>
<text text-anchor="start" x="473.5" y="-752" font-family="Helvetica,sans-Serif" font-size="10.00">+</text>
<text text-anchor="start" x="486.5" y="-752" font-family="Helvetica,sans-Serif" font-size="10.00">MAX_DEPTH</text>
<text text-anchor="start" x="473.5" y="-737" font-family="Helvetica,sans-Serif" font-size="10.00">+</text>
<text text-anchor="start" x="486.5" y="-737" font-family="Helvetica,sans-Serif" font-size="10.00">SUPPORTS_SUBSAMPLING</text>
<text text-anchor="start" x="473.5" y="-722" font-family="Helvetica,sans-Serif" font-size="10.00">#</text>
<text text-anchor="start" x="486.5" y="-722" font-family="Helvetica,sans-Serif" font-size="10.00">m_bufs</text>
<text text-anchor="start" x="473.5" y="-707" font-family="Helvetica,sans-Serif" font-size="10.00">#</text>
<text text-anchor="start" x="486.5" y="-707" font-family="Helvetica,sans-Serif" font-size="10.00">m_min_cell_size</text>
<text text-anchor="start" x="473.5" y="-692" font-family="Helvetica,sans-Serif" font-size="10.00">#</text>
<text text-anchor="start" x="486.5" y="-692" font-family="Helvetica,sans-Serif" font-size="10.00">m_leaf_count</text>
<text text-anchor="start" x="473.5" y="-677" font-family="Helvetica,sans-Serif" font-size="10.00">+</text>
<text text-anchor="start" x="486.5" y="-677" font-family="Helvetica,sans-Serif" font-size="10.00">StaticKdTreeBase()</text>
<text text-anchor="start" x="473.5" y="-662" font-family="Helvetica,sans-Serif" font-size="10.00">+</text>
<text text-anchor="start" x="486.5" y="-662" font-family="Helvetica,sans-Serif" font-size="10.00">nodeCount()</text>
<text text-anchor="start" x="473.5" y="-647" font-family="Helvetica,sans-Serif" font-size="10.00">+</text>
<text text-anchor="start" x="486.5" y="-647" font-family="Helvetica,sans-Serif" font-size="10.00">sampleCount()</text>
<text text-anchor="start" x="473.5" y="-632" font-family="Helvetica,sans-Serif" font-size="10.00">+</text>
<text text-anchor="start" x="486.5" y="-632" font-family="Helvetica,sans-Serif" font-size="10.00">pointCount()</text>
<text text-anchor="start" x="473.5" y="-617" font-family="Helvetica,sans-Serif" font-size="10.00">+</text>
<text text-anchor="start" x="486.5" y="-617" font-family="Helvetica,sans-Serif" font-size="10.00">leafCount()</text>
<text text-anchor="start" x="473.5" y="-602" font-family="Helvetica,sans-Serif" font-size="10.00">+</text>
<text text-anchor="start" x="486.5" y="-602" font-family="Helvetica,sans-Serif" font-size="10.00">points()</text>
<text text-anchor="start" x="473.5" y="-587" font-family="Helvetica,sans-Serif" font-size="10.00">+</text>
<text text-anchor="start" x="486.5" y="-587" font-family="Helvetica,sans-Serif" font-size="10.00">points()</text>
<text text-anchor="start" x="473.5" y="-572" font-family="Helvetica,sans-Serif" font-size="10.00">+</text>
<text text-anchor="start" x="486.5" y="-572" font-family="Helvetica,sans-Serif" font-size="10.00">nodes()</text>
<text text-anchor="start" x="473.5" y="-557" font-family="Helvetica,sans-Serif" font-size="10.00">+</text>
<text text-anchor="start" x="486.5" y="-557" font-family="Helvetica,sans-Serif" font-size="10.00">samples()</text>
<text text-anchor="start" x="473.5" y="-542" font-family="Helvetica,sans-Serif" font-size="10.00">+</text>
<text text-anchor="start" x="486.5" y="-542" font-family="Helvetica,sans-Serif" font-size="10.00">buffers()</text>
<text text-anchor="start" x="486.5" y="-527" font-family="Helvetica,sans-Serif" font-size="10.00">and 19 more...</text>
<text text-anchor="start" x="473.5" y="-512" font-family="Helvetica,sans-Serif" font-size="10.00">#</text>
<text text-anchor="start" x="486.5" y="-512" font-family="Helvetica,sans-Serif" font-size="10.00">StaticKdTreeBase()</text>
<polygon fill="#666666" stroke="#666666" points="469.5,-792 469.5,-792 619.5,-792 619.5,-792 469.5,-792"/>
<polygon fill="#666666" stroke="#666666" points="469.5,-687 469.5,-687 484.5,-687 484.5,-687 469.5,-687"/>
<polygon fill="#666666" stroke="#666666" points="484.5,-687 484.5,-687 619.5,-687 619.5,-687 484.5,-687"/>
<polygon fill="none" stroke="#666666" points="469.5,-505 469.5,-831 619.5,-831 619.5,-505 469.5,-505"/>
</a>
</g>
</g>
<!-- Node1&#45;&gt;Node11 -->
<g id="edge13_Node000001_Node000011" class="edge">
<title>Node1&#45;&gt;Node11</title>
<g id="a_edge13_Node000001_Node000011"><a xlink:title=" ">
<path fill="none" stroke="orange" d="M411.64,-903.85C430.56,-870.4 450.67,-834.85 469.36,-801.81"/>
<polygon fill="orange" stroke="orange" points="408.47,-902.33 406.6,-912.76 414.57,-905.78 408.47,-902.33"/>
</a>
</g>
<text text-anchor="start" x="438.5" y="-863" font-family="Helvetica,sans-Serif" font-size="10.00" fill="grey"> &lt; KdTreeDefaultTraits</text>
<text text-anchor="middle" x="493.5" y="-852" font-family="Helvetica,sans-Serif" font-size="10.00" fill="grey">&lt; DataPoint &gt; &gt;</text>
</g>
<!-- Node3 -->
<g id="Node000003" class="node">
<title>Node3</title>
<g id="a_Node000003"><a xlink:href="structPonca_1_1KdTree.html" target="_top" xlink:title="Abstract KdTree type with KdTreeDefaultTraits.">
<polygon fill="white" stroke="transparent" points="149,-194.5 0,-194.5 0,-145.5 149,-145.5 149,-194.5"/>
<text text-anchor="start" x="5.5" y="-182" font-family="Helvetica,sans-Serif" font-size="10.00">Ponca::KdTree&lt; DataPoint &gt;</text>
<text text-anchor="start" x="73" y="-167" font-family="Helvetica,sans-Serif" font-size="10.00"> </text>
<text text-anchor="start" x="73" y="-152" font-family="Helvetica,sans-Serif" font-size="10.00"> </text>
<polygon fill="#666666" stroke="#666666" points="0.5,-177 0.5,-177 149.5,-177 149.5,-177 0.5,-177"/>
<polygon fill="#666666" stroke="#666666" points="0.5,-162 0.5,-162 149.5,-162 149.5,-162 0.5,-162"/>
<polygon fill="none" stroke="#666666" points="0,-145.5 0,-194.5 149,-194.5 149,-145.5 0,-145.5"/>
</a>
</g>
</g>
<!-- Node2&#45;&gt;Node3 -->
<g id="edge2_Node000002_Node000003" class="edge">
<title>Node2&#45;&gt;Node3</title>
<g id="a_edge2_Node000002_Node000003"><a xlink:title=" ">
<path fill="none" stroke="#63b8ff" d="M74.5,-290.79C74.5,-256.2 74.5,-218.56 74.5,-194.88"/>
<polygon fill="none" stroke="#63b8ff" points="71,-290.93 74.5,-300.93 78,-290.93 71,-290.93"/>
</a>
</g>
</g>
<!-- Node4&#45;&gt;Node2 -->
<g id="edge12_Node000004_Node000002" class="edge">
<title>Node4&#45;&gt;Node2</title>
<g id="a_edge12_Node000004_Node000002"><a xlink:title=" ">
<path fill="none" stroke="orange" d="M263.72,-603.03C229.63,-569.64 188.45,-527.42 154.5,-487 143.97,-474.47 133.35,-460.62 123.44,-447.06"/>
<polygon fill="orange" stroke="orange" points="261.28,-605.54 270.88,-610.02 266.17,-600.53 261.28,-605.54"/>
</a>
</g>
<text text-anchor="start" x="154.5" y="-479" font-family="Helvetica,sans-Serif" font-size="10.00" fill="grey"> &lt; KdTreeDefaultTraits</text>
<text text-anchor="middle" x="209.5" y="-468" font-family="Helvetica,sans-Serif" font-size="10.00" fill="grey">&lt; DataPoint &gt; &gt;</text>
</g>
<!-- Node5 -->
<g id="Node000005" class="node">
<title>Node5</title>
<g id="a_Node000005"><a xlink:href="classPonca_1_1KdTreeDenseBase.html" target="_top" xlink:title=" ">
<polygon fill="white" stroke="transparent" points="484.5,-213 350.5,-213 350.5,-127 484.5,-127 484.5,-213"/>
<text text-anchor="start" x="355.5" y="-201" font-family="Helvetica,sans-Serif" font-size="10.00">Ponca::KdTreeDenseBase</text>
<text text-anchor="start" x="355.5" y="-190" font-family="Helvetica,sans-Serif" font-size="10.00">&lt; KdTreeDefaultTraits</text>
<text text-anchor="start" x="376.5" y="-179" font-family="Helvetica,sans-Serif" font-size="10.00">&lt; DataPoint &gt; &gt;</text>
<text text-anchor="start" x="415.5" y="-164" font-family="Helvetica,sans-Serif" font-size="10.00"> </text>
<text text-anchor="start" x="358.5" y="-149" font-family="Helvetica,sans-Serif" font-size="10.00">+</text>
<text text-anchor="start" x="375.5" y="-149" font-family="Helvetica,sans-Serif" font-size="10.00">KdTreeDenseBase()</text>
<text text-anchor="start" x="358.5" y="-134" font-family="Helvetica,sans-Serif" font-size="10.00">+</text>
<text text-anchor="start" x="375.5" y="-134" font-family="Helvetica,sans-Serif" font-size="10.00">KdTreeDenseBase()</text>
<polygon fill="#666666" stroke="#666666" points="350.5,-174 350.5,-174 484.5,-174 484.5,-174 350.5,-174"/>
<polygon fill="#666666" stroke="#666666" points="350.5,-159 350.5,-159 484.5,-159 484.5,-159 350.5,-159"/>
<polygon fill="none" stroke="#666666" points="350.5,-127 350.5,-213 484.5,-213 484.5,-127 350.5,-127"/>
</a>
</g>
</g>
<!-- Node4&#45;&gt;Node5 -->
<g id="edge4_Node000004_Node000005" class="edge">
<title>Node4&#45;&gt;Node5</title>
<g id="a_edge4_Node000004_Node000005"><a xlink:title=" ">
<path fill="none" stroke="#63b8ff" d="M341.99,-590.13C352.47,-515.9 369.69,-400.42 388.5,-301 394.09,-271.46 401.48,-238.4 407.4,-213.01"/>
<polygon fill="none" stroke="#63b8ff" points="338.48,-589.93 340.56,-600.32 345.41,-590.91 338.48,-589.93"/>
</a>
</g>
</g>
<!-- Node7 -->
<g id="Node000007" class="node">
<title>Node7</title>
<g id="a_Node000007"><a xlink:href="classPonca_1_1KdTreeSparseBase.html" target="_top" xlink:title=" ">
<polygon fill="white" stroke="transparent" points="332.5,-243 182.5,-243 182.5,-97 332.5,-97 332.5,-243"/>
<text text-anchor="start" x="194.5" y="-231" font-family="Helvetica,sans-Serif" font-size="10.00">Ponca::KdTreeSparseBase</text>
<text text-anchor="start" x="194.5" y="-220" font-family="Helvetica,sans-Serif" font-size="10.00">&lt; KdTreeDefaultTraits</text>
<text text-anchor="start" x="216.5" y="-209" font-family="Helvetica,sans-Serif" font-size="10.00">&lt; DataPoint &gt; &gt;</text>
<text text-anchor="start" x="186.5" y="-194" font-family="Helvetica,sans-Serif" font-size="10.00">+</text>
<text text-anchor="start" x="199.5" y="-194" font-family="Helvetica,sans-Serif" font-size="10.00">SUPPORTS_SUBSAMPLING</text>
<text text-anchor="start" x="186.5" y="-179" font-family="Helvetica,sans-Serif" font-size="10.00">+</text>
<text text-anchor="start" x="199.5" y="-179" font-family="Helvetica,sans-Serif" font-size="10.00">KdTreeSparseBase()</text>
<text text-anchor="start" x="186.5" y="-164" font-family="Helvetica,sans-Serif" font-size="10.00">+</text>
<text text-anchor="start" x="199.5" y="-164" font-family="Helvetica,sans-Serif" font-size="10.00">KdTreeSparseBase()</text>
<text text-anchor="start" x="186.5" y="-149" font-family="Helvetica,sans-Serif" font-size="10.00">+</text>
<text text-anchor="start" x="199.5" y="-149" font-family="Helvetica,sans-Serif" font-size="10.00">KdTreeSparseBase()</text>
<text text-anchor="start" x="186.5" y="-134" font-family="Helvetica,sans-Serif" font-size="10.00">+</text>
<text text-anchor="start" x="199.5" y="-134" font-family="Helvetica,sans-Serif" font-size="10.00">buildWithSampling()</text>
<text text-anchor="start" x="186.5" y="-119" font-family="Helvetica,sans-Serif" font-size="10.00">+</text>
<text text-anchor="start" x="199.5" y="-119" font-family="Helvetica,sans-Serif" font-size="10.00">buildWithSampling()</text>
<text text-anchor="start" x="186.5" y="-104" font-family="Helvetica,sans-Serif" font-size="10.00">+</text>
<text text-anchor="start" x="199.5" y="-104" font-family="Helvetica,sans-Serif" font-size="10.00">buildWithSampling()</text>
<polygon fill="#666666" stroke="#666666" points="182.5,-204 182.5,-204 332.5,-204 332.5,-204 182.5,-204"/>
<polygon fill="#666666" stroke="#666666" points="182.5,-189 182.5,-189 197.5,-189 197.5,-189 182.5,-189"/>
<polygon fill="#666666" stroke="#666666" points="197.5,-189 197.5,-189 332.5,-189 332.5,-189 197.5,-189"/>
<polygon fill="none" stroke="#666666" points="182.5,-97 182.5,-243 332.5,-243 332.5,-97 182.5,-97"/>
</a>
</g>
</g>
<!-- Node4&#45;&gt;Node7 -->
<g id="edge6_Node000004_Node000007" class="edge">
<title>Node4&#45;&gt;Node7</title>
<g id="a_edge6_Node000004_Node000007"><a xlink:title=" ">
<path fill="none" stroke="#63b8ff" d="M341.08,-590.28C348.7,-507.02 352.95,-371.21 317.5,-261 315.57,-255.01 313.12,-249.05 310.32,-243.21"/>
<polygon fill="none" stroke="#63b8ff" points="337.58,-590.13 340.11,-600.42 344.54,-590.79 337.58,-590.13"/>
</a>
</g>
</g>
<!-- Node9 -->
<g id="Node000009" class="node">
<title>Node9</title>
<g id="a_Node000009"><a xlink:href="classPonca_1_1KdTreeDenseBase.html" target="_top" xlink:title="Customizable base class for dense KdTree datastructure.">
<polygon fill="white" stroke="transparent" points="531.5,-411.5 397.5,-411.5 397.5,-336.5 531.5,-336.5 531.5,-411.5"/>
<text text-anchor="start" x="402.5" y="-399" font-family="Helvetica,sans-Serif" font-size="10.00">Ponca::KdTreeDenseBase</text>
<text text-anchor="start" x="440" y="-388" font-family="Helvetica,sans-Serif" font-size="10.00">&lt; Traits &gt;</text>
<text text-anchor="start" x="462.5" y="-373" font-family="Helvetica,sans-Serif" font-size="10.00"> </text>
<text text-anchor="start" x="405.5" y="-358" font-family="Helvetica,sans-Serif" font-size="10.00">+</text>
<text text-anchor="start" x="422.5" y="-358" font-family="Helvetica,sans-Serif" font-size="10.00">KdTreeDenseBase()</text>
<text text-anchor="start" x="405.5" y="-343" font-family="Helvetica,sans-Serif" font-size="10.00">+</text>
<text text-anchor="start" x="422.5" y="-343" font-family="Helvetica,sans-Serif" font-size="10.00">KdTreeDenseBase()</text>
<polygon fill="#666666" stroke="#666666" points="397.5,-383 397.5,-383 531.5,-383 531.5,-383 397.5,-383"/>
<polygon fill="#666666" stroke="#666666" points="397.5,-368 397.5,-368 531.5,-368 531.5,-368 397.5,-368"/>
<polygon fill="none" stroke="#666666" points="397.5,-336.5 397.5,-411.5 531.5,-411.5 531.5,-336.5 397.5,-336.5"/>
</a>
</g>
</g>
<!-- Node4&#45;&gt;Node9 -->
<g id="edge8_Node000004_Node000009" class="edge">
<title>Node4&#45;&gt;Node9</title>
<g id="a_edge8_Node000004_Node000009"><a xlink:title=" ">
<path fill="none" stroke="#63b8ff" d="M365.99,-591.27C392.33,-533.46 427.45,-456.34 447.86,-411.53"/>
<polygon fill="none" stroke="#63b8ff" points="362.81,-589.82 361.85,-600.38 369.18,-592.73 362.81,-589.82"/>
</a>
</g>
</g>
<!-- Node10 -->
<g id="Node000010" class="node">
<title>Node10</title>
<g id="a_Node000010"><a xlink:href="classPonca_1_1KdTreeSparseBase.html" target="_top" xlink:title="Customizable base class for KdTreeSparse datastructure.">
<polygon fill="white" stroke="transparent" points="303.5,-441.5 153.5,-441.5 153.5,-306.5 303.5,-306.5 303.5,-441.5"/>
<text text-anchor="start" x="165.5" y="-429" font-family="Helvetica,sans-Serif" font-size="10.00">Ponca::KdTreeSparseBase</text>
<text text-anchor="start" x="204" y="-418" font-family="Helvetica,sans-Serif" font-size="10.00">&lt; Traits &gt;</text>
<text text-anchor="start" x="157.5" y="-403" font-family="Helvetica,sans-Serif" font-size="10.00">+</text>
<text text-anchor="start" x="170.5" y="-403" font-family="Helvetica,sans-Serif" font-size="10.00">SUPPORTS_SUBSAMPLING</text>
<text text-anchor="start" x="157.5" y="-388" font-family="Helvetica,sans-Serif" font-size="10.00">+</text>
<text text-anchor="start" x="170.5" y="-388" font-family="Helvetica,sans-Serif" font-size="10.00">KdTreeSparseBase()</text>
<text text-anchor="start" x="157.5" y="-373" font-family="Helvetica,sans-Serif" font-size="10.00">+</text>
<text text-anchor="start" x="170.5" y="-373" font-family="Helvetica,sans-Serif" font-size="10.00">KdTreeSparseBase()</text>
<text text-anchor="start" x="157.5" y="-358" font-family="Helvetica,sans-Serif" font-size="10.00">+</text>
<text text-anchor="start" x="170.5" y="-358" font-family="Helvetica,sans-Serif" font-size="10.00">KdTreeSparseBase()</text>
<text text-anchor="start" x="157.5" y="-343" font-family="Helvetica,sans-Serif" font-size="10.00">+</text>
<text text-anchor="start" x="170.5" y="-343" font-family="Helvetica,sans-Serif" font-size="10.00">buildWithSampling()</text>
<text text-anchor="start" x="157.5" y="-328" font-family="Helvetica,sans-Serif" font-size="10.00">+</text>
<text text-anchor="start" x="170.5" y="-328" font-family="Helvetica,sans-Serif" font-size="10.00">buildWithSampling()</text>
<text text-anchor="start" x="157.5" y="-313" font-family="Helvetica,sans-Serif" font-size="10.00">+</text>
<text text-anchor="start" x="170.5" y="-313" font-family="Helvetica,sans-Serif" font-size="10.00">buildWithSampling()</text>
<polygon fill="#666666" stroke="#666666" points="153.5,-413 153.5,-413 303.5,-413 303.5,-413 153.5,-413"/>
<polygon fill="#666666" stroke="#666666" points="153.5,-398 153.5,-398 168.5,-398 168.5,-398 153.5,-398"/>
<polygon fill="#666666" stroke="#666666" points="168.5,-398 168.5,-398 303.5,-398 303.5,-398 168.5,-398"/>
<polygon fill="none" stroke="#666666" points="153.5,-306.5 153.5,-441.5 303.5,-441.5 303.5,-306.5 153.5,-306.5"/>
</a>
</g>
</g>
<!-- Node4&#45;&gt;Node10 -->
<g id="edge10_Node000004_Node000010" class="edge">
<title>Node4&#45;&gt;Node10</title>
<g id="a_edge10_Node000004_Node000010"><a xlink:title=" ">
<path fill="none" stroke="#63b8ff" d="M309.89,-590.39C298.58,-552.34 283.89,-505.87 268.5,-465 265.67,-457.48 262.53,-449.69 259.29,-441.98"/>
<polygon fill="none" stroke="#63b8ff" points="306.65,-591.79 312.84,-600.39 313.36,-589.8 306.65,-591.79"/>
</a>
</g>
</g>
<!-- Node6 -->
<g id="Node000006" class="node">
<title>Node6</title>
<g id="a_Node000006"><a xlink:href="structPonca_1_1KdTreeDense.html" target="_top" xlink:title="Public interface for dense KdTree datastructure.">
<polygon fill="white" stroke="transparent" points="472.5,-60 362.5,-60 362.5,0 472.5,0 472.5,-60"/>
<text text-anchor="start" x="367.5" y="-48" font-family="Helvetica,sans-Serif" font-size="10.00">Ponca::KdTreeDense</text>
<text text-anchor="start" x="382" y="-37" font-family="Helvetica,sans-Serif" font-size="10.00">&lt; DataPoint &gt;</text>
<text text-anchor="start" x="415.5" y="-22" font-family="Helvetica,sans-Serif" font-size="10.00"> </text>
<text text-anchor="start" x="415.5" y="-7" font-family="Helvetica,sans-Serif" font-size="10.00"> </text>
<polygon fill="#666666" stroke="#666666" points="362.5,-32 362.5,-32 472.5,-32 472.5,-32 362.5,-32"/>
<polygon fill="#666666" stroke="#666666" points="362.5,-17 362.5,-17 472.5,-17 472.5,-17 362.5,-17"/>
<polygon fill="none" stroke="#666666" points="362.5,0 362.5,-60 472.5,-60 472.5,0 362.5,0"/>
</a>
</g>
</g>
<!-- Node5&#45;&gt;Node6 -->
<g id="edge5_Node000005_Node000006" class="edge">
<title>Node5&#45;&gt;Node6</title>
<g id="a_edge5_Node000005_Node000006"><a xlink:title=" ">
<path fill="none" stroke="#63b8ff" d="M417.5,-116.74C417.5,-97.6 417.5,-76.63 417.5,-60.22"/>
<polygon fill="none" stroke="#63b8ff" points="414,-116.85 417.5,-126.85 421,-116.85 414,-116.85"/>
</a>
</g>
</g>
<!-- Node8 -->
<g id="Node000008" class="node">
<title>Node8</title>
<g id="a_Node000008"><a xlink:href="structPonca_1_1KdTreeSparse.html" target="_top" xlink:title="Public interface for sparse KdTree datastructure.">
<polygon fill="white" stroke="transparent" points="313.5,-60 201.5,-60 201.5,0 313.5,0 313.5,-60"/>
<text text-anchor="start" x="206.5" y="-48" font-family="Helvetica,sans-Serif" font-size="10.00">Ponca::KdTreeSparse</text>
<text text-anchor="start" x="222" y="-37" font-family="Helvetica,sans-Serif" font-size="10.00">&lt; DataPoint &gt;</text>
<text text-anchor="start" x="255.5" y="-22" font-family="Helvetica,sans-Serif" font-size="10.00"> </text>
<text text-anchor="start" x="255.5" y="-7" font-family="Helvetica,sans-Serif" font-size="10.00"> </text>
<polygon fill="#666666" stroke="#666666" points="201.5,-32 201.5,-32 313.5,-32 313.5,-32 201.5,-32"/>
<polygon fill="#666666" stroke="#666666" points="201.5,-17 201.5,-17 313.5,-17 313.5,-17 201.5,-17"/>
<polygon fill="none" stroke="#666666" points="201.5,0 201.5,-60 313.5,-60 313.5,0 201.5,0"/>
</a>
</g>
</g>
<!-- Node7&#45;&gt;Node8 -->
<g id="edge7_Node000007_Node000008" class="edge">
<title>Node7&#45;&gt;Node8</title>
<g id="a_edge7_Node000007_Node000008"><a xlink:title=" ">
<path fill="none" stroke="#63b8ff" d="M257.5,-86.54C257.5,-77.21 257.5,-68.23 257.5,-60.3"/>
<polygon fill="none" stroke="#63b8ff" points="254,-86.77 257.5,-96.77 261,-86.77 254,-86.77"/>
</a>
</g>
</g>
<!-- Node9&#45;&gt;Node5 -->
<g id="edge9_Node000009_Node000005" class="edge">
<title>Node9&#45;&gt;Node5</title>
<g id="a_edge9_Node000009_Node000005"><a xlink:title=" ">
<path fill="none" stroke="orange" d="M453.72,-326.68C445.77,-292.51 435.04,-246.41 427.33,-213.25"/>
<polygon fill="orange" stroke="orange" points="450.31,-327.47 455.99,-336.42 457.13,-325.89 450.31,-327.47"/>
</a>
</g>
<text text-anchor="start" x="442.5" y="-275" font-family="Helvetica,sans-Serif" font-size="10.00" fill="grey"> &lt; KdTreeDefaultTraits</text>
<text text-anchor="middle" x="497.5" y="-264" font-family="Helvetica,sans-Serif" font-size="10.00" fill="grey">&lt; DataPoint &gt; &gt;</text>
</g>
<!-- Node10&#45;&gt;Node7 -->
<g id="edge11_Node000010_Node000007" class="edge">
<title>Node10&#45;&gt;Node7</title>
<g id="a_edge11_Node000010_Node000007"><a xlink:title=" ">
<path fill="none" stroke="orange" d="M205.15,-296.4C204.1,-284.49 204.55,-272.37 207.5,-261 209.05,-255.03 211.08,-249.04 213.45,-243.13"/>
<polygon fill="orange" stroke="orange" points="201.68,-296.84 206.36,-306.34 208.63,-295.99 201.68,-296.84"/>
</a>
</g>
<text text-anchor="start" x="207.5" y="-275" font-family="Helvetica,sans-Serif" font-size="10.00" fill="grey"> &lt; KdTreeDefaultTraits</text>
<text text-anchor="middle" x="262.5" y="-264" font-family="Helvetica,sans-Serif" font-size="10.00" fill="grey">&lt; DataPoint &gt; &gt;</text>
</g>
<!-- Node12 -->
<g id="Node000012" class="node">
<title>Node12</title>
<g id="a_Node000012"><a xlink:href="structPonca_1_1StaticKdTree.html" target="_top" xlink:title="A KdTree type with KdTreeDefaultTraits that doesn&#39;t define the build function.">
<polygon fill="white" stroke="transparent" points="657,-404 550,-404 550,-344 657,-344 657,-404"/>
<text text-anchor="start" x="555.5" y="-392" font-family="Helvetica,sans-Serif" font-size="10.00">Ponca::StaticKdTree</text>
<text text-anchor="start" x="568.5" y="-381" font-family="Helvetica,sans-Serif" font-size="10.00">&lt; DataPoint &gt;</text>
<text text-anchor="start" x="602" y="-366" font-family="Helvetica,sans-Serif" font-size="10.00"> </text>
<text text-anchor="start" x="602" y="-351" font-family="Helvetica,sans-Serif" font-size="10.00"> </text>
<polygon fill="#666666" stroke="#666666" points="550.5,-376 550.5,-376 657.5,-376 657.5,-376 550.5,-376"/>
<polygon fill="#666666" stroke="#666666" points="550.5,-361 550.5,-361 657.5,-361 657.5,-361 550.5,-361"/>
<polygon fill="none" stroke="#666666" points="550,-344 550,-404 657,-404 657,-344 550,-344"/>
</a>
</g>
</g>
<!-- Node11&#45;&gt;Node12 -->
<g id="edge14_Node000011_Node000012" class="edge">
<title>Node11&#45;&gt;Node12</title>
<g id="a_edge14_Node000011_Node000012"><a xlink:title=" ">
<path fill="none" stroke="#63b8ff" d="M579.29,-494.8C586.41,-459.6 593.09,-426.51 597.63,-404.06"/>
<polygon fill="none" stroke="#63b8ff" points="575.83,-494.28 577.28,-504.78 582.69,-495.67 575.83,-494.28"/>
</a>
</g>
</g>
</g>
</svg>
