<?xml version="1.0" encoding="UTF-8" standalone="no"?>
<!DOCTYPE svg PUBLIC "-//W3C//DTD SVG 1.1//EN"
 "http://www.w3.org/Graphics/SVG/1.1/DTD/svg11.dtd">
<!-- Generated by graphviz version 2.43.0 (0)
 -->
<!-- Title: Ponca::internal::CovariancePlaneDer&lt; DataPoint, _WFunctor, T, Type &gt; Pages: 1 -->
<!--zoomable 702 -->
<svg id="main" version="1.1" xmlns="http://www.w3.org/2000/svg" xmlns:xlink="http://www.w3.org/1999/xlink" xml:space="preserve" onload="init(evt)">
<style type="text/css"><![CDATA[
.edge:hover path { stroke: red; }
.edge:hover polygon { stroke: red; fill: red; }
]]></style>
<script type="text/javascript"><![CDATA[
var edges = document.getElementsByTagName('g');
if (edges && edges.length) {
  for (var i=0;i<edges.length;i++) {
    if (edges[i].id.substr(0,4)=='edge') {
      edges[i].setAttribute('class','edge');
    }
  }
}
]]></script>
        <defs>
                <circle id="rim" cx="0" cy="0" r="7"/>
                <circle id="rim2" cx="0" cy="0" r="3.5"/>
                <g id="zoomPlus">
                        <use xlink:href="#rim" fill="#404040">
                                <set attributeName="fill" to="#808080" begin="zoomplus.mouseover" end="zoomplus.mouseout"/>
                        </use>
                        <path d="M-4,0h8M0,-4v8" fill="none" stroke="white" stroke-width="1.5" pointer-events="none"/>
                </g>
                <g id="zoomMin">
                        <use xlink:href="#rim" fill="#404040">
                                <set attributeName="fill" to="#808080" begin="zoomminus.mouseover" end="zoomminus.mouseout"/>
                        </use>
                        <path d="M-4,0h8" fill="none" stroke="white" stroke-width="1.5" pointer-events="none"/>
                </g>
                <g id="dirArrow">
                        <path fill="none" stroke="white" stroke-width="1.5" d="M0,-3.0v7 M-2.5,-0.5L0,-3.0L2.5,-0.5"/>
                </g>
               <g id="resetDef">
                       <use xlink:href="#rim2" fill="#404040">
                               <set attributeName="fill" to="#808080" begin="reset.mouseover" end="reset.mouseout"/>
                       </use>
               </g>
        </defs>

<script type="text/javascript">
var viewWidth = 600;
var viewHeight = 702;
var sectionId = 'dynsection-0';
</script>
<script xlink:href="svgpan.js"/>
<svg id="graph" class="graph">
<g id="viewport">
<title>Ponca::internal::CovariancePlaneDer&lt; DataPoint, _WFunctor, T, Type &gt;</title>
<polygon fill="white" stroke="transparent" points="-4,4 -4,-698 595.5,-698 595.5,4 -4,4"/>
<!-- Node1 -->
<g id="node1" class="node">
<title>Node1</title>
<g id="a_node1"><a xlink:title="Internal generic class computing the derivatives of covariance plane fits.">
<polygon fill="#bfbfbf" stroke="black" points="198,-387.5 198,-554.5 378,-554.5 378,-387.5 198,-387.5"/>
<text text-anchor="start" x="206" y="-542.5" font-family="Helvetica,sans-Serif" font-size="10.00">Ponca::internal::Covariance</text>
<text text-anchor="start" x="206" y="-531.5" font-family="Helvetica,sans-Serif" font-size="10.00">PlaneDer&lt; DataPoint, _WFunctor,</text>
<text text-anchor="middle" x="288" y="-520.5" font-family="Helvetica,sans-Serif" font-size="10.00"> T, Type &gt;</text>
<polyline fill="none" stroke="black" points="198,-513.5 378,-513.5 "/>
<text text-anchor="start" x="206" y="-501.5" font-family="Helvetica,sans-Serif" font-size="10.00"># NbDerivatives</text>
<text text-anchor="start" x="206" y="-490.5" font-family="Helvetica,sans-Serif" font-size="10.00"># DerStorageOrder</text>
<polyline fill="none" stroke="black" points="198,-483.5 378,-483.5 "/>
<text text-anchor="start" x="206" y="-471.5" font-family="Helvetica,sans-Serif" font-size="10.00">+ init()</text>
<text text-anchor="start" x="206" y="-460.5" font-family="Helvetica,sans-Serif" font-size="10.00">+ addNeighbor()</text>
<text text-anchor="start" x="206" y="-449.5" font-family="Helvetica,sans-Serif" font-size="10.00">+ finalize()</text>
<text text-anchor="start" x="206" y="-438.5" font-family="Helvetica,sans-Serif" font-size="10.00">+ dPotential()</text>
<text text-anchor="start" x="206" y="-427.5" font-family="Helvetica,sans-Serif" font-size="10.00">+ dNormal()</text>
<text text-anchor="start" x="206" y="-416.5" font-family="Helvetica,sans-Serif" font-size="10.00">+ isScaleDer()</text>
<text text-anchor="start" x="206" y="-405.5" font-family="Helvetica,sans-Serif" font-size="10.00">+ isSpaceDer()</text>
<text text-anchor="start" x="206" y="-394.5" font-family="Helvetica,sans-Serif" font-size="10.00">+ derDimension()</text>
</a>
</g>
</g>
<!-- Node4 -->
<g id="node4" class="node">
<title>Node4</title>
<g id="a_node4"><a xlink:href="classPonca_1_1internal_1_1CovariancePlaneDer.html" target="_top" xlink:title=" ">
<polygon fill="white" stroke="black" points="0,-145 0,-312 180,-312 180,-145 0,-145"/>
<text text-anchor="start" x="8" y="-300" font-family="Helvetica,sans-Serif" font-size="10.00">Ponca::internal::Covariance</text>
<text text-anchor="start" x="8" y="-289" font-family="Helvetica,sans-Serif" font-size="10.00">PlaneDer&lt; DataPoint, _WFunctor,</text>
<text text-anchor="middle" x="90" y="-278" font-family="Helvetica,sans-Serif" font-size="10.00"> T, internal::FitSpaceDer &gt;</text>
<polyline fill="none" stroke="black" points="0,-271 180,-271 "/>
<text text-anchor="start" x="8" y="-259" font-family="Helvetica,sans-Serif" font-size="10.00"># NbDerivatives</text>
<text text-anchor="start" x="8" y="-248" font-family="Helvetica,sans-Serif" font-size="10.00"># DerStorageOrder</text>
<polyline fill="none" stroke="black" points="0,-241 180,-241 "/>
<text text-anchor="start" x="8" y="-229" font-family="Helvetica,sans-Serif" font-size="10.00">+ init()</text>
<text text-anchor="start" x="8" y="-218" font-family="Helvetica,sans-Serif" font-size="10.00">+ addNeighbor()</text>
<text text-anchor="start" x="8" y="-207" font-family="Helvetica,sans-Serif" font-size="10.00">+ finalize()</text>
<text text-anchor="start" x="8" y="-196" font-family="Helvetica,sans-Serif" font-size="10.00">+ dPotential()</text>
<text text-anchor="start" x="8" y="-185" font-family="Helvetica,sans-Serif" font-size="10.00">+ dNormal()</text>
<text text-anchor="start" x="8" y="-174" font-family="Helvetica,sans-Serif" font-size="10.00">+ isScaleDer()</text>
<text text-anchor="start" x="8" y="-163" font-family="Helvetica,sans-Serif" font-size="10.00">+ isSpaceDer()</text>
<text text-anchor="start" x="8" y="-152" font-family="Helvetica,sans-Serif" font-size="10.00">+ derDimension()</text>
</a>
</g>
</g>
<!-- Node1&#45;&gt;Node4 -->
<g id="edge3" class="edge">
<title>Node1&#45;&gt;Node4</title>
<path fill="none" stroke="orange" d="M189.9,-404.47C177.25,-393.54 165.17,-381.62 155,-369 141.41,-352.15 129.92,-332 120.55,-312.32"/>
<polygon fill="orange" stroke="orange" points="187.94,-407.39 197.85,-411.14 192.44,-402.03 187.94,-407.39"/>
<text text-anchor="start" x="155" y="-355.5" font-family="Helvetica,sans-Serif" font-size="10.00"> &lt; DataPoint, _WFunctor,</text>
<text text-anchor="middle" x="219.5" y="-344.5" font-family="Helvetica,sans-Serif" font-size="10.00"> T, internal::FitSpaceDer &gt;</text>
</g>
<!-- Node6 -->
<g id="node6" class="node">
<title>Node6</title>
<g id="a_node6"><a xlink:href="classPonca_1_1internal_1_1CovariancePlaneDer.html" target="_top" xlink:title=" ">
<polygon fill="white" stroke="black" points="198,-145 198,-312 378,-312 378,-145 198,-145"/>
<text text-anchor="start" x="206" y="-300" font-family="Helvetica,sans-Serif" font-size="10.00">Ponca::internal::Covariance</text>
<text text-anchor="start" x="206" y="-289" font-family="Helvetica,sans-Serif" font-size="10.00">PlaneDer&lt; DataPoint, _WFunctor,</text>
<text text-anchor="middle" x="288" y="-278" font-family="Helvetica,sans-Serif" font-size="10.00"> T, internal::FitScaleDer &gt;</text>
<polyline fill="none" stroke="black" points="198,-271 378,-271 "/>
<text text-anchor="start" x="206" y="-259" font-family="Helvetica,sans-Serif" font-size="10.00"># NbDerivatives</text>
<text text-anchor="start" x="206" y="-248" font-family="Helvetica,sans-Serif" font-size="10.00"># DerStorageOrder</text>
<polyline fill="none" stroke="black" points="198,-241 378,-241 "/>
<text text-anchor="start" x="206" y="-229" font-family="Helvetica,sans-Serif" font-size="10.00">+ init()</text>
<text text-anchor="start" x="206" y="-218" font-family="Helvetica,sans-Serif" font-size="10.00">+ addNeighbor()</text>
<text text-anchor="start" x="206" y="-207" font-family="Helvetica,sans-Serif" font-size="10.00">+ finalize()</text>
<text text-anchor="start" x="206" y="-196" font-family="Helvetica,sans-Serif" font-size="10.00">+ dPotential()</text>
<text text-anchor="start" x="206" y="-185" font-family="Helvetica,sans-Serif" font-size="10.00">+ dNormal()</text>
<text text-anchor="start" x="206" y="-174" font-family="Helvetica,sans-Serif" font-size="10.00">+ isScaleDer()</text>
<text text-anchor="start" x="206" y="-163" font-family="Helvetica,sans-Serif" font-size="10.00">+ isSpaceDer()</text>
<text text-anchor="start" x="206" y="-152" font-family="Helvetica,sans-Serif" font-size="10.00">+ derDimension()</text>
</a>
</g>
</g>
<!-- Node1&#45;&gt;Node6 -->
<g id="edge5" class="edge">
<title>Node1&#45;&gt;Node6</title>
<path fill="none" stroke="orange" d="M288,-377.14C288,-355.68 288,-332.99 288,-312.01"/>
<polygon fill="orange" stroke="orange" points="284.5,-377.23 288,-387.23 291.5,-377.23 284.5,-377.23"/>
<text text-anchor="start" x="288" y="-355.5" font-family="Helvetica,sans-Serif" font-size="10.00"> &lt; DataPoint, _WFunctor,</text>
<text text-anchor="middle" x="351" y="-344.5" font-family="Helvetica,sans-Serif" font-size="10.00"> T, internal::FitScaleDer &gt;</text>
</g>
<!-- Node8 -->
<g id="node8" class="node">
<title>Node8</title>
<g id="a_node8"><a xlink:href="classPonca_1_1internal_1_1CovariancePlaneDer.html" target="_top" xlink:title=" ">
<polygon fill="white" stroke="black" points="398,-139.5 398,-317.5 578,-317.5 578,-139.5 398,-139.5"/>
<text text-anchor="start" x="406" y="-305.5" font-family="Helvetica,sans-Serif" font-size="10.00">Ponca::internal::Covariance</text>
<text text-anchor="start" x="406" y="-294.5" font-family="Helvetica,sans-Serif" font-size="10.00">PlaneDer&lt; DataPoint, _WFunctor,</text>
<text text-anchor="start" x="406" y="-283.5" font-family="Helvetica,sans-Serif" font-size="10.00"> T, internal::FitSpaceDer|internal</text>
<text text-anchor="middle" x="488" y="-272.5" font-family="Helvetica,sans-Serif" font-size="10.00">::FitScaleDer &gt;</text>
<polyline fill="none" stroke="black" points="398,-265.5 578,-265.5 "/>
<text text-anchor="start" x="406" y="-253.5" font-family="Helvetica,sans-Serif" font-size="10.00"># NbDerivatives</text>
<text text-anchor="start" x="406" y="-242.5" font-family="Helvetica,sans-Serif" font-size="10.00"># DerStorageOrder</text>
<polyline fill="none" stroke="black" points="398,-235.5 578,-235.5 "/>
<text text-anchor="start" x="406" y="-223.5" font-family="Helvetica,sans-Serif" font-size="10.00">+ init()</text>
<text text-anchor="start" x="406" y="-212.5" font-family="Helvetica,sans-Serif" font-size="10.00">+ addNeighbor()</text>
<text text-anchor="start" x="406" y="-201.5" font-family="Helvetica,sans-Serif" font-size="10.00">+ finalize()</text>
<text text-anchor="start" x="406" y="-190.5" font-family="Helvetica,sans-Serif" font-size="10.00">+ dPotential()</text>
<text text-anchor="start" x="406" y="-179.5" font-family="Helvetica,sans-Serif" font-size="10.00">+ dNormal()</text>
<text text-anchor="start" x="406" y="-168.5" font-family="Helvetica,sans-Serif" font-size="10.00">+ isScaleDer()</text>
<text text-anchor="start" x="406" y="-157.5" font-family="Helvetica,sans-Serif" font-size="10.00">+ isSpaceDer()</text>
<text text-anchor="start" x="406" y="-146.5" font-family="Helvetica,sans-Serif" font-size="10.00">+ derDimension()</text>
</a>
</g>
</g>
<!-- Node1&#45;&gt;Node8 -->
<g id="edge7" class="edge">
<title>Node1&#45;&gt;Node8</title>
<path fill="none" stroke="orange" d="M385.79,-401.98C397.39,-391.68 408.48,-380.59 418,-369 430.64,-353.61 441.79,-335.56 451.27,-317.64"/>
<polygon fill="orange" stroke="orange" points="383.37,-399.44 378.09,-408.63 387.95,-404.74 383.37,-399.44"/>
<text text-anchor="start" x="439" y="-361" font-family="Helvetica,sans-Serif" font-size="10.00"> &lt; DataPoint, _WFunctor,</text>
<text text-anchor="start" x="439" y="-350" font-family="Helvetica,sans-Serif" font-size="10.00"> T, internal::FitSpaceDer|</text>
<text text-anchor="middle" x="500.5" y="-339" font-family="Helvetica,sans-Serif" font-size="10.00">internal::FitScaleDer &gt;</text>
</g>
<!-- Node2 -->
<g id="node2" class="node">
<title>Node2</title>
<g id="a_node2"><a xlink:href="classPonca_1_1Concept_1_1FittingExtensionConcept.html" target="_top" xlink:title="Describes how to add features to an existing fitting procedure.">
<polygon fill="white" stroke="black" points="125,-592.5 125,-693.5 321,-693.5 321,-592.5 125,-592.5"/>
<text text-anchor="start" x="133" y="-681.5" font-family="Helvetica,sans-Serif" font-size="10.00">Ponca::Concept::FittingExtension</text>
<text text-anchor="middle" x="223" y="-670.5" font-family="Helvetica,sans-Serif" font-size="10.00">Concept&lt; DataPoint, _WFunctor, T &gt;</text>
<polyline fill="none" stroke="black" points="125,-663.5 321,-663.5 "/>
<text text-anchor="middle" x="223" y="-651.5" font-family="Helvetica,sans-Serif" font-size="10.00"> </text>
<polyline fill="none" stroke="black" points="125,-644.5 321,-644.5 "/>
<text text-anchor="start" x="133" y="-632.5" font-family="Helvetica,sans-Serif" font-size="10.00">+ setWeightFunc()</text>
<text text-anchor="start" x="133" y="-621.5" font-family="Helvetica,sans-Serif" font-size="10.00">+ init()</text>
<text text-anchor="start" x="133" y="-610.5" font-family="Helvetica,sans-Serif" font-size="10.00">+ addNeighbor()</text>
<text text-anchor="start" x="133" y="-599.5" font-family="Helvetica,sans-Serif" font-size="10.00">+ finalize()</text>
</a>
</g>
</g>
<!-- Node2&#45;&gt;Node1 -->
<g id="edge1" class="edge">
<title>Node2&#45;&gt;Node1</title>
<path fill="none" stroke="midnightblue" d="M245.56,-583C249.07,-573.83 252.74,-564.21 256.4,-554.63"/>
<polygon fill="none" stroke="midnightblue" points="242.28,-581.78 241.98,-592.37 248.82,-584.28 242.28,-581.78"/>
</g>
<!-- Node3 -->
<g id="node3" class="node">
<title>Node3</title>
<g id="a_node3"><a xlink:title=" ">
<polygon fill="white" stroke="#bfbfbf" points="338.5,-614.5 338.5,-671.5 367.5,-671.5 367.5,-614.5 338.5,-614.5"/>
<text text-anchor="middle" x="353" y="-659.5" font-family="Helvetica,sans-Serif" font-size="10.00">T</text>
<polyline fill="none" stroke="#bfbfbf" points="338.5,-652.5 367.5,-652.5 "/>
<text text-anchor="middle" x="353" y="-640.5" font-family="Helvetica,sans-Serif" font-size="10.00"> </text>
<polyline fill="none" stroke="#bfbfbf" points="338.5,-633.5 367.5,-633.5 "/>
<text text-anchor="middle" x="353" y="-621.5" font-family="Helvetica,sans-Serif" font-size="10.00"> </text>
</a>
</g>
</g>
<!-- Node3&#45;&gt;Node1 -->
<g id="edge2" class="edge">
<title>Node3&#45;&gt;Node1</title>
<path fill="none" stroke="midnightblue" d="M338.69,-604.58C333.05,-589.81 326.32,-572.23 319.65,-554.77"/>
<polygon fill="none" stroke="midnightblue" points="335.57,-606.22 342.41,-614.31 342.11,-603.72 335.57,-606.22"/>
</g>
<!-- Node5 -->
<g id="node5" class="node">
<title>Node5</title>
<g id="a_node5"><a xlink:href="classPonca_1_1CovariancePlaneSpaceDer.html" target="_top" xlink:title="Spatial differentiation of the CovariancePlaneFit.">
<polygon fill="white" stroke="black" points="3.5,-0.5 3.5,-101.5 176.5,-101.5 176.5,-0.5 3.5,-0.5"/>
<text text-anchor="start" x="11.5" y="-89.5" font-family="Helvetica,sans-Serif" font-size="10.00">Ponca::CovariancePlaneSpace</text>
<text text-anchor="middle" x="90" y="-78.5" font-family="Helvetica,sans-Serif" font-size="10.00">Der&lt; DataPoint, _WFunctor, T &gt;</text>
<polyline fill="none" stroke="black" points="3.5,-71.5 176.5,-71.5 "/>
<text text-anchor="start" x="11.5" y="-59.5" font-family="Helvetica,sans-Serif" font-size="10.00">~ __pad0__</text>
<text text-anchor="start" x="11.5" y="-48.5" font-family="Helvetica,sans-Serif" font-size="10.00">~ _WFunctor</text>
<text text-anchor="start" x="11.5" y="-37.5" font-family="Helvetica,sans-Serif" font-size="10.00">~ T</text>
<text text-anchor="start" x="11.5" y="-26.5" font-family="Helvetica,sans-Serif" font-size="10.00">~ __pad1__</text>
<polyline fill="none" stroke="black" points="3.5,-19.5 176.5,-19.5 "/>
<text text-anchor="middle" x="90" y="-7.5" font-family="Helvetica,sans-Serif" font-size="10.00"> </text>
</a>
</g>
</g>
<!-- Node4&#45;&gt;Node5 -->
<g id="edge4" class="edge">
<title>Node4&#45;&gt;Node5</title>
<path fill="none" stroke="midnightblue" d="M90,-134.85C90,-123.43 90,-112.13 90,-101.71"/>
<polygon fill="none" stroke="midnightblue" points="86.5,-134.89 90,-144.89 93.5,-134.89 86.5,-134.89"/>
</g>
<!-- Node7 -->
<g id="node7" class="node">
<title>Node7</title>
<g id="a_node7"><a xlink:href="classPonca_1_1CovariancePlaneScaleDer.html" target="_top" xlink:title="Differentiation in scale of the CovariancePlaneFit.">
<polygon fill="white" stroke="black" points="197.5,-0.5 197.5,-101.5 370.5,-101.5 370.5,-0.5 197.5,-0.5"/>
<text text-anchor="start" x="205.5" y="-89.5" font-family="Helvetica,sans-Serif" font-size="10.00">Ponca::CovariancePlaneScale</text>
<text text-anchor="middle" x="284" y="-78.5" font-family="Helvetica,sans-Serif" font-size="10.00">Der&lt; DataPoint, _WFunctor, T &gt;</text>
<polyline fill="none" stroke="black" points="197.5,-71.5 370.5,-71.5 "/>
<text text-anchor="start" x="205.5" y="-59.5" font-family="Helvetica,sans-Serif" font-size="10.00">~ __pad0__</text>
<text text-anchor="start" x="205.5" y="-48.5" font-family="Helvetica,sans-Serif" font-size="10.00">~ _WFunctor</text>
<text text-anchor="start" x="205.5" y="-37.5" font-family="Helvetica,sans-Serif" font-size="10.00">~ T</text>
<text text-anchor="start" x="205.5" y="-26.5" font-family="Helvetica,sans-Serif" font-size="10.00">~ __pad1__</text>
<polyline fill="none" stroke="black" points="197.5,-19.5 370.5,-19.5 "/>
<text text-anchor="middle" x="284" y="-7.5" font-family="Helvetica,sans-Serif" font-size="10.00"> </text>
</a>
</g>
</g>
<!-- Node6&#45;&gt;Node7 -->
<g id="edge6" class="edge">
<title>Node6&#45;&gt;Node7</title>
<path fill="none" stroke="midnightblue" d="M285.89,-134.85C285.63,-123.43 285.37,-112.13 285.13,-101.71"/>
<polygon fill="none" stroke="midnightblue" points="282.39,-134.97 286.12,-144.89 289.39,-134.81 282.39,-134.97"/>
</g>
<!-- Node9 -->
<g id="node9" class="node">
<title>Node9</title>
<g id="a_node9"><a xlink:href="classPonca_1_1CovariancePlaneScaleSpaceDer.html" target="_top" xlink:title="Differentiation both in scale and space of the CovariancePlaneFit.">
<polygon fill="white" stroke="black" points="388.5,-0.5 388.5,-101.5 591.5,-101.5 591.5,-0.5 388.5,-0.5"/>
<text text-anchor="start" x="396.5" y="-89.5" font-family="Helvetica,sans-Serif" font-size="10.00">Ponca::CovariancePlaneScale</text>
<text text-anchor="middle" x="490" y="-78.5" font-family="Helvetica,sans-Serif" font-size="10.00">SpaceDer&lt; DataPoint, _WFunctor, T &gt;</text>
<polyline fill="none" stroke="black" points="388.5,-71.5 591.5,-71.5 "/>
<text text-anchor="start" x="396.5" y="-59.5" font-family="Helvetica,sans-Serif" font-size="10.00">~ __pad0__</text>
<text text-anchor="start" x="396.5" y="-48.5" font-family="Helvetica,sans-Serif" font-size="10.00">~ _WFunctor</text>
<text text-anchor="start" x="396.5" y="-37.5" font-family="Helvetica,sans-Serif" font-size="10.00">~ T</text>
<text text-anchor="start" x="396.5" y="-26.5" font-family="Helvetica,sans-Serif" font-size="10.00">~ __pad1__</text>
<polyline fill="none" stroke="black" points="388.5,-19.5 591.5,-19.5 "/>
<text text-anchor="middle" x="490" y="-7.5" font-family="Helvetica,sans-Serif" font-size="10.00"> </text>
</a>
</g>
</g>
<!-- Node8&#45;&gt;Node9 -->
<g id="edge8" class="edge">
<title>Node8&#45;&gt;Node9</title>
<path fill="none" stroke="midnightblue" d="M489.12,-129.46C489.23,-119.87 489.33,-110.45 489.43,-101.66"/>
<polygon fill="none" stroke="midnightblue" points="485.62,-129.45 489,-139.49 492.62,-129.53 485.62,-129.45"/>
</g>
</g>
</svg>
        <g id="navigator" transform="translate(0 0)" fill="#404254">
                <rect fill="#f2f5e9" fill-opacity="0.5" stroke="#606060" stroke-width=".5" x="0" y="0" width="60" height="60"/>
                <use id="zoomplus" xlink:href="#zoomPlus" x="17" y="9" onmousedown="handleZoom(evt,'in')"/>
                <use id="zoomminus" xlink:href="#zoomMin" x="42" y="9" onmousedown="handleZoom(evt,'out')"/>
                <use id="reset" xlink:href="#resetDef" x="30" y="36" onmousedown="handleReset()"/>
                <g id="arrowUp" xlink:href="#dirArrow" transform="translate(30 24)" onmousedown="handlePan(0,-1)">
                  <use xlink:href="#rim" fill="#404040">
                        <set attributeName="fill" to="#808080" begin="arrowUp.mouseover" end="arrowUp.mouseout"/>
                  </use>
                  <path fill="none" stroke="white" stroke-width="1.5" d="M0,-3.0v7 M-2.5,-0.5L0,-3.0L2.5,-0.5"/>
                </g>
                <g id="arrowRight" xlink:href="#dirArrow" transform="rotate(90) translate(36 -43)" onmousedown="handlePan(1,0)">
                  <use xlink:href="#rim" fill="#404040">
                        <set attributeName="fill" to="#808080" begin="arrowRight.mouseover" end="arrowRight.mouseout"/>
                  </use>
                  <path fill="none" stroke="white" stroke-width="1.5" d="M0,-3.0v7 M-2.5,-0.5L0,-3.0L2.5,-0.5"/>
                </g>
                <g id="arrowDown" xlink:href="#dirArrow" transform="rotate(180) translate(-30 -48)" onmousedown="handlePan(0,1)">
                  <use xlink:href="#rim" fill="#404040">
                        <set attributeName="fill" to="#808080" begin="arrowDown.mouseover" end="arrowDown.mouseout"/>
                  </use>
                  <path fill="none" stroke="white" stroke-width="1.5" d="M0,-3.0v7 M-2.5,-0.5L0,-3.0L2.5,-0.5"/>
                </g>
                <g id="arrowLeft" xlink:href="#dirArrow" transform="rotate(270) translate(-36 17)" onmousedown="handlePan(-1,0)">
                  <use xlink:href="#rim" fill="#404040">
                        <set attributeName="fill" to="#808080" begin="arrowLeft.mouseover" end="arrowLeft.mouseout"/>
                  </use>
                  <path fill="none" stroke="white" stroke-width="1.5" d="M0,-3.0v7 M-2.5,-0.5L0,-3.0L2.5,-0.5"/>
                </g>
        </g>
        <svg viewBox="0 0 15 15" width="100%" height="30px" preserveAspectRatio="xMaxYMin meet">
         <g id="arrow_out" transform="scale(0.3 0.3)">
          <a xlink:href="classPonca_1_1internal_1_1CovariancePlaneDer__inherit__graph_org.svg" target="_base">
           <rect id="button" ry="5" rx="5" y="6" x="6" height="38" width="38"
                fill="#f2f5e9" fill-opacity="0.5" stroke="#606060" stroke-width="1.0"/>
           <path id="arrow"
             d="M 11.500037,31.436501 C 11.940474,20.09759 22.043105,11.32322 32.158766,21.979434 L 37.068811,17.246167 C 37.068811,17.246167 37.088388,32 37.088388,32 L 22.160133,31.978069 C 22.160133,31.978069 26.997745,27.140456 26.997745,27.140456 C 18.528582,18.264221 13.291696,25.230495 11.500037,31.436501 z"
             style="fill:#404040;"/>
          </a>
         </g>
        </svg>
</svg>
