<?xml version="1.0" encoding="UTF-8" standalone="no"?>
<!DOCTYPE svg PUBLIC "-//W3C//DTD SVG 1.1//EN"
 "http://www.w3.org/Graphics/SVG/1.1/DTD/svg11.dtd">
<!-- Generated by graphviz version 2.43.0 (0)
 -->
<!-- Title: Ponca::Plane&lt; DataPoint, _WFunctor, T &gt; Pages: 1 -->
<svg width="290pt" height="541pt"
 viewBox="0.00 0.00 290.00 541.00" xmlns="http://www.w3.org/2000/svg" xmlns:xlink="http://www.w3.org/1999/xlink">
<g id="graph0" class="graph" transform="scale(1 1) rotate(0) translate(4 537)">
<title>Ponca::Plane&lt; DataPoint, _WFunctor, T &gt;</title>
<polygon fill="white" stroke="transparent" points="-4,4 -4,-537 286,-537 286,4 -4,4"/>
<!-- Node1 -->
<g id="node1" class="node">
<title>Node1</title>
<g id="a_node1"><a xlink:title="Implicit hyperplane defined by an homogeneous vector .">
<polygon fill="#bfbfbf" stroke="black" points="117.5,-0.5 117.5,-200.5 258.5,-200.5 258.5,-0.5 117.5,-0.5"/>
<text text-anchor="start" x="125.5" y="-188.5" font-family="Helvetica,sans-Serif" font-size="10.00">Ponca::Plane&lt; DataPoint,</text>
<text text-anchor="middle" x="188" y="-177.5" font-family="Helvetica,sans-Serif" font-size="10.00"> _WFunctor, T &gt;</text>
<polyline fill="none" stroke="black" points="117.5,-170.5 258.5,-170.5 "/>
<text text-anchor="middle" x="188" y="-158.5" font-family="Helvetica,sans-Serif" font-size="10.00"> </text>
<polyline fill="none" stroke="black" points="117.5,-151.5 258.5,-151.5 "/>
<text text-anchor="start" x="125.5" y="-139.5" font-family="Helvetica,sans-Serif" font-size="10.00">+ Plane()</text>
<text text-anchor="start" x="125.5" y="-128.5" font-family="Helvetica,sans-Serif" font-size="10.00">+ compactPlane()</text>
<text text-anchor="start" x="125.5" y="-117.5" font-family="Helvetica,sans-Serif" font-size="10.00">+ resetPrimitive()</text>
<text text-anchor="start" x="125.5" y="-106.5" font-family="Helvetica,sans-Serif" font-size="10.00">+ operator==()</text>
<text text-anchor="start" x="125.5" y="-95.5" font-family="Helvetica,sans-Serif" font-size="10.00">+ operator!=()</text>
<text text-anchor="start" x="125.5" y="-84.5" font-family="Helvetica,sans-Serif" font-size="10.00">+ basisCenter()</text>
<text text-anchor="start" x="125.5" y="-73.5" font-family="Helvetica,sans-Serif" font-size="10.00">+ basisCenter()</text>
<text text-anchor="start" x="125.5" y="-62.5" font-family="Helvetica,sans-Serif" font-size="10.00">+ setPlane()</text>
<text text-anchor="start" x="125.5" y="-51.5" font-family="Helvetica,sans-Serif" font-size="10.00">+ potential()</text>
<text text-anchor="start" x="125.5" y="-40.5" font-family="Helvetica,sans-Serif" font-size="10.00">+ potential()</text>
<text text-anchor="start" x="125.5" y="-29.5" font-family="Helvetica,sans-Serif" font-size="10.00">+ project()</text>
<text text-anchor="start" x="125.5" y="-18.5" font-family="Helvetica,sans-Serif" font-size="10.00">+ primitiveGradient()</text>
<text text-anchor="start" x="125.5" y="-7.5" font-family="Helvetica,sans-Serif" font-size="10.00">+ primitiveGradient()</text>
</a>
</g>
</g>
<!-- Node2 -->
<g id="node2" class="node">
<title>Node2</title>
<g id="a_node2"><a xlink:href="classPonca_1_1PrimitiveBase.html" target="_top" xlink:title=" ">
<polygon fill="white" stroke="black" points="6,-238.5 6,-361.5 150,-361.5 150,-238.5 6,-238.5"/>
<text text-anchor="start" x="14" y="-349.5" font-family="Helvetica,sans-Serif" font-size="10.00">Ponca::PrimitiveBase</text>
<text text-anchor="middle" x="78" y="-338.5" font-family="Helvetica,sans-Serif" font-size="10.00">&lt; DataPoint, _WFunctor &gt;</text>
<polyline fill="none" stroke="black" points="6,-331.5 150,-331.5 "/>
<text text-anchor="start" x="14" y="-319.5" font-family="Helvetica,sans-Serif" font-size="10.00"># m_eCurrentState</text>
<text text-anchor="start" x="14" y="-308.5" font-family="Helvetica,sans-Serif" font-size="10.00"># m_nbNeighbors</text>
<polyline fill="none" stroke="black" points="6,-301.5 150,-301.5 "/>
<text text-anchor="start" x="14" y="-289.5" font-family="Helvetica,sans-Serif" font-size="10.00">+ PrimitiveBase()</text>
<text text-anchor="start" x="14" y="-278.5" font-family="Helvetica,sans-Serif" font-size="10.00">+ resetPrimitive()</text>
<text text-anchor="start" x="14" y="-267.5" font-family="Helvetica,sans-Serif" font-size="10.00">+ isReady()</text>
<text text-anchor="start" x="14" y="-256.5" font-family="Helvetica,sans-Serif" font-size="10.00">+ isStable()</text>
<text text-anchor="start" x="14" y="-245.5" font-family="Helvetica,sans-Serif" font-size="10.00">+ getCurrentState()</text>
</a>
</g>
</g>
<!-- Node2&#45;&gt;Node1 -->
<g id="edge1" class="edge">
<title>Node2&#45;&gt;Node1</title>
<path fill="none" stroke="midnightblue" d="M116.7,-229.52C121.93,-220.13 127.38,-210.34 132.83,-200.55"/>
<polygon fill="none" stroke="midnightblue" points="113.56,-227.96 111.75,-238.4 119.67,-231.37 113.56,-227.96"/>
</g>
<!-- Node3 -->
<g id="node3" class="node">
<title>Node3</title>
<g id="a_node3"><a xlink:href="classPonca_1_1PrimitiveBase.html" target="_top" xlink:title="Primitive base class.">
<polygon fill="white" stroke="black" points="0,-409.5 0,-532.5 156,-532.5 156,-409.5 0,-409.5"/>
<text text-anchor="start" x="8" y="-520.5" font-family="Helvetica,sans-Serif" font-size="10.00">Ponca::PrimitiveBase</text>
<text text-anchor="middle" x="78" y="-509.5" font-family="Helvetica,sans-Serif" font-size="10.00">&lt; DataPoint, _WFunctor, T &gt;</text>
<polyline fill="none" stroke="black" points="0,-502.5 156,-502.5 "/>
<text text-anchor="start" x="8" y="-490.5" font-family="Helvetica,sans-Serif" font-size="10.00"># m_eCurrentState</text>
<text text-anchor="start" x="8" y="-479.5" font-family="Helvetica,sans-Serif" font-size="10.00"># m_nbNeighbors</text>
<polyline fill="none" stroke="black" points="0,-472.5 156,-472.5 "/>
<text text-anchor="start" x="8" y="-460.5" font-family="Helvetica,sans-Serif" font-size="10.00">+ PrimitiveBase()</text>
<text text-anchor="start" x="8" y="-449.5" font-family="Helvetica,sans-Serif" font-size="10.00">+ resetPrimitive()</text>
<text text-anchor="start" x="8" y="-438.5" font-family="Helvetica,sans-Serif" font-size="10.00">+ isReady()</text>
<text text-anchor="start" x="8" y="-427.5" font-family="Helvetica,sans-Serif" font-size="10.00">+ isStable()</text>
<text text-anchor="start" x="8" y="-416.5" font-family="Helvetica,sans-Serif" font-size="10.00">+ getCurrentState()</text>
</a>
</g>
</g>
<!-- Node3&#45;&gt;Node2 -->
<g id="edge2" class="edge">
<title>Node3&#45;&gt;Node2</title>
<path fill="none" stroke="orange" d="M78,-399.13C78,-386.68 78,-373.82 78,-361.68"/>
<polygon fill="orange" stroke="orange" points="74.5,-399.46 78,-409.46 81.5,-399.46 74.5,-399.46"/>
<text text-anchor="middle" x="143.5" y="-383" font-family="Helvetica,sans-Serif" font-size="10.00"> &lt; DataPoint, _WFunctor &gt;</text>
</g>
<!-- Node4 -->
<g id="node4" class="node">
<title>Node4</title>
<g id="a_node4"><a xlink:title=" ">
<polygon fill="white" stroke="#bfbfbf" points="168,-260.5 168,-339.5 282,-339.5 282,-260.5 168,-260.5"/>
<text text-anchor="start" x="176" y="-327.5" font-family="Helvetica,sans-Serif" font-size="10.00">Eigen::Hyperplane&lt;</text>
<text text-anchor="start" x="176" y="-316.5" font-family="Helvetica,sans-Serif" font-size="10.00"> DataPoint::Scalar,</text>
<text text-anchor="middle" x="225" y="-305.5" font-family="Helvetica,sans-Serif" font-size="10.00"> DataPoint::Dim &gt;</text>
<polyline fill="none" stroke="#bfbfbf" points="168,-298.5 282,-298.5 "/>
<text text-anchor="middle" x="225" y="-286.5" font-family="Helvetica,sans-Serif" font-size="10.00"> </text>
<polyline fill="none" stroke="#bfbfbf" points="168,-279.5 282,-279.5 "/>
<text text-anchor="middle" x="225" y="-267.5" font-family="Helvetica,sans-Serif" font-size="10.00"> </text>
</a>
</g>
</g>
<!-- Node4&#45;&gt;Node1 -->
<g id="edge3" class="edge">
<title>Node4&#45;&gt;Node1</title>
<path fill="none" stroke="midnightblue" d="M215.88,-250.33C213.05,-235.19 209.81,-217.9 206.57,-200.6"/>
<polygon fill="none" stroke="midnightblue" points="212.5,-251.27 217.78,-260.45 219.38,-249.98 212.5,-251.27"/>
</g>
</g>
</svg>
