<?xml version="1.0" encoding="UTF-8" standalone="no"?>
<!DOCTYPE svg PUBLIC "-//W3C//DTD SVG 1.1//EN"
 "http://www.w3.org/Graphics/SVG/1.1/DTD/svg11.dtd">
<!-- Generated by graphviz version 2.43.0 (0)
 -->
<!-- Title: Ponca::KdTreeRangeIndexQuery&lt; DataPoint &gt; Pages: 1 -->
<svg width="698pt" height="1047pt"
 viewBox="0.00 0.00 698.00 1047.00" xmlns="http://www.w3.org/2000/svg" xmlns:xlink="http://www.w3.org/1999/xlink">
<g id="graph0" class="graph" transform="scale(1 1) rotate(0) translate(4 1043)">
<title>Ponca::KdTreeRangeIndexQuery&lt; DataPoint &gt;</title>
<!-- Node1 -->
<g id="node1" class="node">
<title>Node1</title>
<g id="a_node1"><a xlink:title=" ">
<polygon fill="#999999" stroke="#666666" points="0,-0.5 0,-112.5 172,-112.5 172,-0.5 0,-0.5"/>
<text text-anchor="start" x="8" y="-100.5" font-family="Helvetica,sans-Serif" font-size="10.00">Ponca::KdTreeRangeIndexQuery</text>
<text text-anchor="middle" x="86" y="-89.5" font-family="Helvetica,sans-Serif" font-size="10.00">&lt; DataPoint &gt;</text>
<polyline fill="none" stroke="#666666" points="0,-82.5 172,-82.5 "/>
<text text-anchor="start" x="8" y="-70.5" font-family="Helvetica,sans-Serif" font-size="10.00"># Iterator</text>
<polyline fill="none" stroke="#666666" points="0,-63.5 172,-63.5 "/>
<text text-anchor="start" x="8" y="-51.5" font-family="Helvetica,sans-Serif" font-size="10.00">+ KdTreeRangeIndexQuery()</text>
<text text-anchor="start" x="8" y="-40.5" font-family="Helvetica,sans-Serif" font-size="10.00">+ begin()</text>
<text text-anchor="start" x="8" y="-29.5" font-family="Helvetica,sans-Serif" font-size="10.00">+ end()</text>
<text text-anchor="start" x="8" y="-18.5" font-family="Helvetica,sans-Serif" font-size="10.00"># initialize()</text>
<text text-anchor="start" x="8" y="-7.5" font-family="Helvetica,sans-Serif" font-size="10.00"># advance()</text>
</a>
</g>
</g>
<!-- Node2 -->
<g id="node2" class="node">
<title>Node2</title>
<g id="a_node2"><a xlink:href="classPonca_1_1KdTreeQuery.html" target="_top" xlink:title=" ">
<polygon fill="white" stroke="#bfbfbf" points="17,-150.5 17,-240.5 131,-240.5 131,-150.5 17,-150.5"/>
<text text-anchor="start" x="25" y="-228.5" font-family="Helvetica,sans-Serif" font-size="10.00">Ponca::KdTreeQuery</text>
<text text-anchor="middle" x="74" y="-217.5" font-family="Helvetica,sans-Serif" font-size="10.00">&lt; DataPoint &gt;</text>
<polyline fill="none" stroke="#bfbfbf" points="17,-210.5 131,-210.5 "/>
<text text-anchor="start" x="25" y="-198.5" font-family="Helvetica,sans-Serif" font-size="10.00"># m_kdtree</text>
<text text-anchor="start" x="25" y="-187.5" font-family="Helvetica,sans-Serif" font-size="10.00"># m_stack</text>
<polyline fill="none" stroke="#bfbfbf" points="17,-180.5 131,-180.5 "/>
<text text-anchor="start" x="25" y="-168.5" font-family="Helvetica,sans-Serif" font-size="10.00">+ KdTreeQuery()</text>
<text text-anchor="start" x="25" y="-157.5" font-family="Helvetica,sans-Serif" font-size="10.00"># reset()</text>
</a>
</g>
</g>
<!-- Node2&#45;&gt;Node1 -->
<g id="edge1" class="edge">
<title>Node2&#45;&gt;Node1</title>
<path fill="none" stroke="#63b8ff" d="M78.75,-140.29C79.55,-131.18 80.38,-121.71 81.18,-112.57"/>
<polygon fill="none" stroke="#63b8ff" points="75.25,-140.13 77.86,-150.4 82.22,-140.74 75.25,-140.13"/>
</g>
<!-- Node3 -->
<g id="node3" class="node">
<title>Node3</title>
<g id="a_node3"><a xlink:href="group__spatialpartitioning.html" target="_top" xlink:title=" ">
<polygon fill="white" stroke="#666666" points="149.5,-161.5 149.5,-229.5 288.5,-229.5 288.5,-161.5 149.5,-161.5"/>
<text text-anchor="start" x="157.5" y="-217.5" font-family="Helvetica,sans-Serif" font-size="10.00">Ponca::RangeIndexQuery</text>
<text text-anchor="middle" x="219" y="-206.5" font-family="Helvetica,sans-Serif" font-size="10.00">&lt; DataPoint::Scalar &gt;</text>
<polyline fill="none" stroke="#666666" points="149.5,-199.5 288.5,-199.5 "/>
<text text-anchor="middle" x="219" y="-187.5" font-family="Helvetica,sans-Serif" font-size="10.00"> </text>
<polyline fill="none" stroke="#666666" points="149.5,-180.5 288.5,-180.5 "/>
<text text-anchor="middle" x="219" y="-168.5" font-family="Helvetica,sans-Serif" font-size="10.00"> </text>
</a>
</g>
</g>
<!-- Node3&#45;&gt;Node1 -->
<g id="edge2" class="edge">
<title>Node3&#45;&gt;Node1</title>
<path fill="none" stroke="#63b8ff" d="M179.59,-153.9C167,-140.93 152.84,-126.35 139.43,-112.54"/>
<polygon fill="none" stroke="#63b8ff" points="177.33,-156.6 186.8,-161.34 182.35,-151.72 177.33,-156.6"/>
</g>
<!-- Node4 -->
<g id="node4" class="node">
<title>Node4</title>
<g id="a_node4"><a xlink:href="group__spatialpartitioning.html#structPonca_1_1Query" target="_top" xlink:title=" ">
<polygon fill="white" stroke="#bfbfbf" points="66.5,-576.5 66.5,-655.5 183.5,-655.5 183.5,-576.5 66.5,-576.5"/>
<text text-anchor="start" x="74.5" y="-643.5" font-family="Helvetica,sans-Serif" font-size="10.00">Ponca::Query&lt; Input</text>
<text text-anchor="middle" x="125" y="-632.5" font-family="Helvetica,sans-Serif" font-size="10.00">_, Output_ &gt;</text>
<polyline fill="none" stroke="#bfbfbf" points="66.5,-625.5 183.5,-625.5 "/>
<text text-anchor="middle" x="125" y="-613.5" font-family="Helvetica,sans-Serif" font-size="10.00"> </text>
<polyline fill="none" stroke="#bfbfbf" points="66.5,-606.5 183.5,-606.5 "/>
<text text-anchor="start" x="74.5" y="-594.5" font-family="Helvetica,sans-Serif" font-size="10.00">+ Query()</text>
<text text-anchor="start" x="74.5" y="-583.5" font-family="Helvetica,sans-Serif" font-size="10.00">+ Query()</text>
</a>
</g>
</g>
<!-- Node4&#45;&gt;Node3 -->
<g id="edge3" class="edge">
<title>Node4&#45;&gt;Node3</title>
<path fill="none" stroke="#63b8ff" d="M135.87,-566.61C155.18,-480.63 194.99,-303.39 211.54,-229.73"/>
<polygon fill="none" stroke="#63b8ff" points="132.45,-565.85 133.67,-576.38 139.28,-567.39 132.45,-565.85"/>
</g>
<!-- Node5 -->
<g id="node5" class="node">
<title>Node5</title>
<g id="a_node5"><a xlink:title=" ">
<polygon fill="white" stroke="#bfbfbf" points="197.5,-732 197.5,-789 244.5,-789 244.5,-732 197.5,-732"/>
<text text-anchor="middle" x="221" y="-777" font-family="Helvetica,sans-Serif" font-size="10.00">Input_</text>
<polyline fill="none" stroke="#bfbfbf" points="197.5,-770 244.5,-770 "/>
<text text-anchor="middle" x="221" y="-758" font-family="Helvetica,sans-Serif" font-size="10.00"> </text>
<polyline fill="none" stroke="#bfbfbf" points="197.5,-751 244.5,-751 "/>
<text text-anchor="middle" x="221" y="-739" font-family="Helvetica,sans-Serif" font-size="10.00"> </text>
</a>
</g>
</g>
<!-- Node5&#45;&gt;Node4 -->
<g id="edge4" class="edge">
<title>Node5&#45;&gt;Node4</title>
<path fill="none" stroke="#63b8ff" d="M196.52,-723.17C182.58,-702.48 165.13,-676.57 150.95,-655.52"/>
<polygon fill="none" stroke="#63b8ff" points="193.77,-725.35 202.26,-731.69 199.58,-721.44 193.77,-725.35"/>
</g>
<!-- Node15 -->
<g id="node15" class="node">
<title>Node15</title>
<g id="a_node15"><a xlink:href="group__spatialpartitioning.html#structPonca_1_1Query" target="_top" xlink:title=" ">
<polygon fill="white" stroke="#bfbfbf" points="201.5,-576.5 201.5,-655.5 318.5,-655.5 318.5,-576.5 201.5,-576.5"/>
<text text-anchor="start" x="209.5" y="-643.5" font-family="Helvetica,sans-Serif" font-size="10.00">Ponca::Query&lt; Input</text>
<text text-anchor="middle" x="260" y="-632.5" font-family="Helvetica,sans-Serif" font-size="10.00">_, Output_ &gt;</text>
<polyline fill="none" stroke="#bfbfbf" points="201.5,-625.5 318.5,-625.5 "/>
<text text-anchor="middle" x="260" y="-613.5" font-family="Helvetica,sans-Serif" font-size="10.00"> </text>
<polyline fill="none" stroke="#bfbfbf" points="201.5,-606.5 318.5,-606.5 "/>
<text text-anchor="start" x="209.5" y="-594.5" font-family="Helvetica,sans-Serif" font-size="10.00">+ Query()</text>
<text text-anchor="start" x="209.5" y="-583.5" font-family="Helvetica,sans-Serif" font-size="10.00">+ Query()</text>
</a>
</g>
</g>
<!-- Node5&#45;&gt;Node15 -->
<g id="edge16" class="edge">
<title>Node5&#45;&gt;Node15</title>
<path fill="none" stroke="#63b8ff" d="M231.32,-721.77C236.92,-701.32 243.83,-676.1 249.46,-655.52"/>
<polygon fill="none" stroke="#63b8ff" points="227.88,-721.12 228.61,-731.69 234.63,-722.96 227.88,-721.12"/>
</g>
<!-- Node6 -->
<g id="node6" class="node">
<title>Node6</title>
<g id="a_node6"><a xlink:title=" ">
<polygon fill="white" stroke="#bfbfbf" points="119.5,-732 119.5,-789 174.5,-789 174.5,-732 119.5,-732"/>
<text text-anchor="middle" x="147" y="-777" font-family="Helvetica,sans-Serif" font-size="10.00">Output_</text>
<polyline fill="none" stroke="#bfbfbf" points="119.5,-770 174.5,-770 "/>
<text text-anchor="middle" x="147" y="-758" font-family="Helvetica,sans-Serif" font-size="10.00"> </text>
<polyline fill="none" stroke="#bfbfbf" points="119.5,-751 174.5,-751 "/>
<text text-anchor="middle" x="147" y="-739" font-family="Helvetica,sans-Serif" font-size="10.00"> </text>
</a>
</g>
</g>
<!-- Node6&#45;&gt;Node4 -->
<g id="edge5" class="edge">
<title>Node6&#45;&gt;Node4</title>
<path fill="none" stroke="#63b8ff" d="M141.18,-721.77C138.02,-701.32 134.12,-676.1 130.95,-655.52"/>
<polygon fill="none" stroke="#63b8ff" points="137.72,-722.34 142.71,-731.69 144.64,-721.27 137.72,-722.34"/>
</g>
<!-- Node6&#45;&gt;Node15 -->
<g id="edge17" class="edge">
<title>Node6&#45;&gt;Node15</title>
<path fill="none" stroke="#63b8ff" d="M175.37,-723.72C191.85,-702.94 212.61,-676.76 229.45,-655.52"/>
<polygon fill="none" stroke="#63b8ff" points="172.53,-721.68 169.06,-731.69 178.01,-726.03 172.53,-721.68"/>
</g>
<!-- Node7 -->
<g id="node7" class="node">
<title>Node7</title>
<g id="a_node7"><a xlink:href="group__spatialpartitioning.html#structPonca_1_1RangeIndexQuery" target="_top" xlink:title="Base Query class combining QueryInputIsIndex and QueryOutputIsRange.">
<polygon fill="white" stroke="#666666" points="218.5,-288.5 218.5,-356.5 357.5,-356.5 357.5,-288.5 218.5,-288.5"/>
<text text-anchor="start" x="226.5" y="-344.5" font-family="Helvetica,sans-Serif" font-size="10.00">Ponca::RangeIndexQuery</text>
<text text-anchor="middle" x="288" y="-333.5" font-family="Helvetica,sans-Serif" font-size="10.00">&lt; Scalar &gt;</text>
<polyline fill="none" stroke="#666666" points="218.5,-326.5 357.5,-326.5 "/>
<text text-anchor="middle" x="288" y="-314.5" font-family="Helvetica,sans-Serif" font-size="10.00"> </text>
<polyline fill="none" stroke="#666666" points="218.5,-307.5 357.5,-307.5 "/>
<text text-anchor="middle" x="288" y="-295.5" font-family="Helvetica,sans-Serif" font-size="10.00"> </text>
</a>
</g>
</g>
<!-- Node7&#45;&gt;Node3 -->
<g id="edge6" class="edge">
<title>Node7&#45;&gt;Node3</title>
<path fill="none" stroke="orange" d="M264.61,-279.13C255.73,-263.04 245.75,-244.96 237.4,-229.82"/>
<polygon fill="orange" stroke="orange" points="261.79,-281.27 269.69,-288.33 267.92,-277.88 261.79,-281.27"/>
<text text-anchor="middle" x="312" y="-262" font-family="Helvetica,sans-Serif" font-size="10.00"> &lt; DataPoint::Scalar &gt;</text>
</g>
<!-- Node8 -->
<g id="node8" class="node">
<title>Node8</title>
<g id="a_node8"><a xlink:href="group__spatialpartitioning.html" target="_top" xlink:title=" ">
<polygon fill="white" stroke="#bfbfbf" points="237.5,-394.5 237.5,-484.5 396.5,-484.5 396.5,-394.5 237.5,-394.5"/>
<text text-anchor="start" x="245.5" y="-472.5" font-family="Helvetica,sans-Serif" font-size="10.00">Ponca::Query&lt; QueryInput</text>
<text text-anchor="start" x="245.5" y="-461.5" font-family="Helvetica,sans-Serif" font-size="10.00">IsIndex, QueryOutputIsRange</text>
<text text-anchor="middle" x="317" y="-450.5" font-family="Helvetica,sans-Serif" font-size="10.00">&lt; Scalar &gt; &gt;</text>
<polyline fill="none" stroke="#bfbfbf" points="237.5,-443.5 396.5,-443.5 "/>
<text text-anchor="middle" x="317" y="-431.5" font-family="Helvetica,sans-Serif" font-size="10.00"> </text>
<polyline fill="none" stroke="#bfbfbf" points="237.5,-424.5 396.5,-424.5 "/>
<text text-anchor="start" x="245.5" y="-412.5" font-family="Helvetica,sans-Serif" font-size="10.00">+ Query()</text>
<text text-anchor="start" x="245.5" y="-401.5" font-family="Helvetica,sans-Serif" font-size="10.00">+ Query()</text>
</a>
</g>
</g>
<!-- Node8&#45;&gt;Node7 -->
<g id="edge7" class="edge">
<title>Node8&#45;&gt;Node7</title>
<path fill="none" stroke="#63b8ff" d="M303.39,-384.53C300.99,-375.01 298.55,-365.35 296.35,-356.62"/>
<polygon fill="none" stroke="#63b8ff" points="300.03,-385.53 305.87,-394.37 306.82,-383.81 300.03,-385.53"/>
</g>
<!-- Node9 -->
<g id="node9" class="node">
<title>Node9</title>
<g id="a_node9"><a xlink:href="group__spatialpartitioning.html#structPonca_1_1QueryInputIsIndex" target="_top" xlink:title="Base class for queries storing points.">
<polygon fill="white" stroke="#666666" points="507.5,-587.5 507.5,-644.5 648.5,-644.5 648.5,-587.5 507.5,-587.5"/>
<text text-anchor="middle" x="578" y="-632.5" font-family="Helvetica,sans-Serif" font-size="10.00">Ponca::QueryInputIsIndex</text>
<polyline fill="none" stroke="#666666" points="507.5,-625.5 648.5,-625.5 "/>
<text text-anchor="middle" x="578" y="-613.5" font-family="Helvetica,sans-Serif" font-size="10.00"> </text>
<polyline fill="none" stroke="#666666" points="507.5,-606.5 648.5,-606.5 "/>
<text text-anchor="start" x="515.5" y="-594.5" font-family="Helvetica,sans-Serif" font-size="10.00">+ QueryInputIsIndex()</text>
</a>
</g>
</g>
<!-- Node9&#45;&gt;Node8 -->
<g id="edge8" class="edge">
<title>Node9&#45;&gt;Node8</title>
<path fill="none" stroke="#63b8ff" d="M535.66,-581.06C523.96,-572.03 511.14,-562.44 499,-554 464.45,-529.98 424.94,-505.05 391.58,-484.69"/>
<polygon fill="none" stroke="#63b8ff" points="533.52,-583.83 543.56,-587.21 537.82,-578.31 533.52,-583.83"/>
</g>
<!-- Node10 -->
<g id="node10" class="node">
<title>Node10</title>
<g id="a_node10"><a xlink:href="group__spatialpartitioning.html" target="_top" xlink:title=" ">
<polygon fill="white" stroke="#666666" points="521,-715.5 521,-805.5 635,-805.5 635,-715.5 521,-715.5"/>
<text text-anchor="start" x="529" y="-793.5" font-family="Helvetica,sans-Serif" font-size="10.00">Ponca::QueryInput&lt;</text>
<text text-anchor="middle" x="578" y="-782.5" font-family="Helvetica,sans-Serif" font-size="10.00"> int &gt;</text>
<polyline fill="none" stroke="#666666" points="521,-775.5 635,-775.5 "/>
<text text-anchor="middle" x="578" y="-763.5" font-family="Helvetica,sans-Serif" font-size="10.00"> </text>
<polyline fill="none" stroke="#666666" points="521,-756.5 635,-756.5 "/>
<text text-anchor="start" x="529" y="-744.5" font-family="Helvetica,sans-Serif" font-size="10.00">+ QueryInput()</text>
<text text-anchor="start" x="529" y="-733.5" font-family="Helvetica,sans-Serif" font-size="10.00">+ input()</text>
<text text-anchor="start" x="529" y="-722.5" font-family="Helvetica,sans-Serif" font-size="10.00"># editInput()</text>
</a>
</g>
</g>
<!-- Node10&#45;&gt;Node9 -->
<g id="edge9" class="edge">
<title>Node10&#45;&gt;Node9</title>
<path fill="none" stroke="#63b8ff" d="M578,-704.96C578,-684.37 578,-661.81 578,-644.69"/>
<polygon fill="none" stroke="#63b8ff" points="574.5,-705.19 578,-715.19 581.5,-705.19 574.5,-705.19"/>
</g>
<!-- Node11 -->
<g id="node11" class="node">
<title>Node11</title>
<g id="a_node11"><a xlink:href="group__spatialpartitioning.html#structPonca_1_1QueryInputBase" target="_top" xlink:title="Base class for queries input type.">
<polygon fill="white" stroke="#666666" points="495,-981.5 495,-1038.5 625,-1038.5 625,-981.5 495,-981.5"/>
<text text-anchor="middle" x="560" y="-1026.5" font-family="Helvetica,sans-Serif" font-size="10.00">Ponca::QueryInputBase</text>
<polyline fill="none" stroke="#666666" points="495,-1019.5 625,-1019.5 "/>
<text text-anchor="middle" x="560" y="-1007.5" font-family="Helvetica,sans-Serif" font-size="10.00"> </text>
<polyline fill="none" stroke="#666666" points="495,-1000.5 625,-1000.5 "/>
<text text-anchor="middle" x="560" y="-988.5" font-family="Helvetica,sans-Serif" font-size="10.00"> </text>
</a>
</g>
</g>
<!-- Node11&#45;&gt;Node10 -->
<g id="edge10" class="edge">
<title>Node11&#45;&gt;Node10</title>
<path fill="none" stroke="#63b8ff" d="M560.9,-971.21C561.85,-939.59 563.68,-893.3 567,-853 568.27,-837.53 570.16,-820.65 572.02,-805.65"/>
<polygon fill="none" stroke="#63b8ff" points="557.4,-971.25 560.62,-981.34 564.4,-971.45 557.4,-971.25"/>
</g>
<!-- Node12 -->
<g id="node12" class="node">
<title>Node12</title>
<g id="a_node12"><a xlink:href="group__spatialpartitioning.html#structPonca_1_1QueryInput" target="_top" xlink:title="Base class for typed queries input type.">
<polygon fill="white" stroke="#666666" points="576,-853.5 576,-943.5 690,-943.5 690,-853.5 576,-853.5"/>
<text text-anchor="start" x="584" y="-931.5" font-family="Helvetica,sans-Serif" font-size="10.00">Ponca::QueryInput&lt;</text>
<text text-anchor="middle" x="633" y="-920.5" font-family="Helvetica,sans-Serif" font-size="10.00"> InputType_ &gt;</text>
<polyline fill="none" stroke="#666666" points="576,-913.5 690,-913.5 "/>
<text text-anchor="middle" x="633" y="-901.5" font-family="Helvetica,sans-Serif" font-size="10.00"> </text>
<polyline fill="none" stroke="#666666" points="576,-894.5 690,-894.5 "/>
<text text-anchor="start" x="584" y="-882.5" font-family="Helvetica,sans-Serif" font-size="10.00">+ QueryInput()</text>
<text text-anchor="start" x="584" y="-871.5" font-family="Helvetica,sans-Serif" font-size="10.00">+ input()</text>
<text text-anchor="start" x="584" y="-860.5" font-family="Helvetica,sans-Serif" font-size="10.00"># editInput()</text>
</a>
</g>
</g>
<!-- Node11&#45;&gt;Node12 -->
<g id="edge12" class="edge">
<title>Node11&#45;&gt;Node12</title>
<path fill="none" stroke="#63b8ff" d="M583.97,-973.04C590.22,-963.68 597.01,-953.48 603.51,-943.74"/>
<polygon fill="none" stroke="#63b8ff" points="581.06,-971.11 578.42,-981.37 586.88,-974.99 581.06,-971.11"/>
</g>
<!-- Node12&#45;&gt;Node10 -->
<g id="edge11" class="edge">
<title>Node12&#45;&gt;Node10</title>
<path fill="none" stroke="orange" d="M611.32,-843.89C606.23,-831.3 600.86,-818.03 595.96,-805.9"/>
<polygon fill="orange" stroke="orange" points="608.15,-845.39 615.14,-853.34 614.64,-842.76 608.15,-845.39"/>
<text text-anchor="middle" x="626.5" y="-827" font-family="Helvetica,sans-Serif" font-size="10.00"> &lt; int &gt;</text>
</g>
<!-- Node13 -->
<g id="node13" class="node">
<title>Node13</title>
<g id="a_node13"><a xlink:href="group__spatialpartitioning.html#structPonca_1_1QueryOutputIsRange" target="_top" xlink:title="Base class for range queries.">
<polygon fill="white" stroke="#666666" points="336.5,-554.5 336.5,-677.5 489.5,-677.5 489.5,-554.5 336.5,-554.5"/>
<text text-anchor="start" x="344.5" y="-665.5" font-family="Helvetica,sans-Serif" font-size="10.00">Ponca::QueryOutputIsRange</text>
<text text-anchor="middle" x="413" y="-654.5" font-family="Helvetica,sans-Serif" font-size="10.00">&lt; Scalar &gt;</text>
<polyline fill="none" stroke="#666666" points="336.5,-647.5 489.5,-647.5 "/>
<text text-anchor="start" x="344.5" y="-635.5" font-family="Helvetica,sans-Serif" font-size="10.00"># m_squared_radius</text>
<polyline fill="none" stroke="#666666" points="336.5,-628.5 489.5,-628.5 "/>
<text text-anchor="start" x="344.5" y="-616.5" font-family="Helvetica,sans-Serif" font-size="10.00">+ QueryOutputIsRange()</text>
<text text-anchor="start" x="344.5" y="-605.5" font-family="Helvetica,sans-Serif" font-size="10.00">+ radius()</text>
<text text-anchor="start" x="344.5" y="-594.5" font-family="Helvetica,sans-Serif" font-size="10.00">+ squared_radius()</text>
<text text-anchor="start" x="344.5" y="-583.5" font-family="Helvetica,sans-Serif" font-size="10.00">+ set_radius()</text>
<text text-anchor="start" x="344.5" y="-572.5" font-family="Helvetica,sans-Serif" font-size="10.00">+ set_squared_radius()</text>
<text text-anchor="start" x="344.5" y="-561.5" font-family="Helvetica,sans-Serif" font-size="10.00"># reset()</text>
</a>
</g>
</g>
<!-- Node13&#45;&gt;Node8 -->
<g id="edge13" class="edge">
<title>Node13&#45;&gt;Node8</title>
<path fill="none" stroke="#63b8ff" d="M406.66,-544.55C403.35,-530.14 398.39,-515.56 391,-503 387.16,-496.48 382.39,-490.32 377.13,-484.59"/>
<polygon fill="none" stroke="#63b8ff" points="403.26,-545.39 408.7,-554.48 410.12,-543.98 403.26,-545.39"/>
</g>
<!-- Node14 -->
<g id="node14" class="node">
<title>Node14</title>
<g id="a_node14"><a xlink:href="group__spatialpartitioning.html#structPonca_1_1QueryOutputBase" target="_top" xlink:title="Base class for queries output type.">
<polygon fill="white" stroke="#666666" points="344,-732 344,-789 482,-789 482,-732 344,-732"/>
<text text-anchor="middle" x="413" y="-777" font-family="Helvetica,sans-Serif" font-size="10.00">Ponca::QueryOutputBase</text>
<polyline fill="none" stroke="#666666" points="344,-770 482,-770 "/>
<text text-anchor="middle" x="413" y="-758" font-family="Helvetica,sans-Serif" font-size="10.00"> </text>
<polyline fill="none" stroke="#666666" points="344,-751 482,-751 "/>
<text text-anchor="middle" x="413" y="-739" font-family="Helvetica,sans-Serif" font-size="10.00"> </text>
</a>
</g>
</g>
<!-- Node14&#45;&gt;Node13 -->
<g id="edge14" class="edge">
<title>Node14&#45;&gt;Node13</title>
<path fill="none" stroke="#63b8ff" d="M413,-721.41C413,-708 413,-692.58 413,-677.77"/>
<polygon fill="none" stroke="#63b8ff" points="409.5,-721.69 413,-731.69 416.5,-721.69 409.5,-721.69"/>
</g>
<!-- Node15&#45;&gt;Node8 -->
<g id="edge15" class="edge">
<title>Node15&#45;&gt;Node8</title>
<path fill="none" stroke="orange" d="M267.37,-566.58C271.19,-546.55 276.62,-523.31 284,-503 286.22,-496.89 288.94,-490.63 291.85,-484.54"/>
<polygon fill="orange" stroke="orange" points="263.92,-565.96 265.57,-576.43 270.81,-567.22 263.92,-565.96"/>
<text text-anchor="start" x="284" y="-528" font-family="Helvetica,sans-Serif" font-size="10.00"> &lt; QueryInputIsIndex,</text>
<text text-anchor="start" x="284" y="-517" font-family="Helvetica,sans-Serif" font-size="10.00"> QueryOutputIsRange</text>
<text text-anchor="middle" x="337.5" y="-506" font-family="Helvetica,sans-Serif" font-size="10.00">&lt; Scalar &gt; &gt;</text>
</g>
</g>
</svg>
