<?xml version="1.0" encoding="UTF-8" standalone="no"?>
<!DOCTYPE svg PUBLIC "-//W3C//DTD SVG 1.1//EN"
 "http://www.w3.org/Graphics/SVG/1.1/DTD/svg11.dtd">
<!-- Generated by graphviz version 2.43.0 (0)
 -->
<!-- Title: Ponca::KdTreeNearestIndexQuery&lt; DataPoint &gt; Pages: 1 -->
<svg width="1379pt" height="1265pt"
 viewBox="0.00 0.00 1379.00 1265.00" xmlns="http://www.w3.org/2000/svg" xmlns:xlink="http://www.w3.org/1999/xlink">
<g id="graph0" class="graph" transform="scale(1 1) rotate(0) translate(4 1261)">
<title>Ponca::KdTreeNearestIndexQuery&lt; DataPoint &gt;</title>
<!-- Node1 -->
<g id="node1" class="node">
<title>Node1</title>
<g id="a_node1"><a xlink:title=" ">
<polygon fill="#999999" stroke="#666666" points="615,-0.5 615,-101.5 778,-101.5 778,-0.5 615,-0.5"/>
<text text-anchor="start" x="623" y="-89.5" font-family="Helvetica,sans-Serif" font-size="10.00">Ponca::KdTreeNearestIndex</text>
<text text-anchor="middle" x="696.5" y="-78.5" font-family="Helvetica,sans-Serif" font-size="10.00">Query&lt; DataPoint &gt;</text>
<polyline fill="none" stroke="#666666" points="615,-71.5 778,-71.5 "/>
<text text-anchor="middle" x="696.5" y="-59.5" font-family="Helvetica,sans-Serif" font-size="10.00"> </text>
<polyline fill="none" stroke="#666666" points="615,-52.5 778,-52.5 "/>
<text text-anchor="start" x="623" y="-40.5" font-family="Helvetica,sans-Serif" font-size="10.00">+ KdTreeNearestIndexQuery()</text>
<text text-anchor="start" x="623" y="-29.5" font-family="Helvetica,sans-Serif" font-size="10.00">+ begin()</text>
<text text-anchor="start" x="623" y="-18.5" font-family="Helvetica,sans-Serif" font-size="10.00">+ end()</text>
<text text-anchor="start" x="623" y="-7.5" font-family="Helvetica,sans-Serif" font-size="10.00"># search()</text>
</a>
</g>
</g>
<!-- Node2 -->
<g id="node2" class="node">
<title>Node2</title>
<g id="a_node2"><a xlink:href="classPonca_1_1KdTreeQuery.html" target="_top" xlink:title=" ">
<polygon fill="white" stroke="#bfbfbf" points="511.5,-139.5 511.5,-218.5 625.5,-218.5 625.5,-139.5 511.5,-139.5"/>
<text text-anchor="start" x="519.5" y="-206.5" font-family="Helvetica,sans-Serif" font-size="10.00">Ponca::KdTreeQuery</text>
<text text-anchor="middle" x="568.5" y="-195.5" font-family="Helvetica,sans-Serif" font-size="10.00">&lt; DataPoint &gt;</text>
<polyline fill="none" stroke="#bfbfbf" points="511.5,-188.5 625.5,-188.5 "/>
<text text-anchor="middle" x="568.5" y="-176.5" font-family="Helvetica,sans-Serif" font-size="10.00"> </text>
<polyline fill="none" stroke="#bfbfbf" points="511.5,-169.5 625.5,-169.5 "/>
<text text-anchor="start" x="519.5" y="-157.5" font-family="Helvetica,sans-Serif" font-size="10.00">+ KdTreeQuery()</text>
<text text-anchor="start" x="519.5" y="-146.5" font-family="Helvetica,sans-Serif" font-size="10.00"># reset()</text>
</a>
</g>
</g>
<!-- Node2&#45;&gt;Node1 -->
<g id="edge1" class="edge">
<title>Node2&#45;&gt;Node1</title>
<path fill="none" stroke="#63b8ff" d="M615.15,-132.08C625.21,-122.18 635.88,-111.67 646.08,-101.63"/>
<polygon fill="none" stroke="#63b8ff" points="612.62,-129.66 607.95,-139.17 617.53,-134.65 612.62,-129.66"/>
</g>
<!-- Node3 -->
<g id="node3" class="node">
<title>Node3</title>
<g id="a_node3"><a xlink:href="classPonca_1_1KdTree.html" target="_top" xlink:title=" ">
<polygon fill="white" stroke="#666666" points="244,-266.5 244,-444.5 399,-444.5 399,-266.5 244,-266.5"/>
<text text-anchor="middle" x="321.5" y="-432.5" font-family="Helvetica,sans-Serif" font-size="10.00">Ponca::KdTree&lt; DataPoint &gt;</text>
<polyline fill="none" stroke="#666666" points="244,-425.5 399,-425.5 "/>
<text text-anchor="start" x="252" y="-413.5" font-family="Helvetica,sans-Serif" font-size="10.00"># m_min_cell_size</text>
<text text-anchor="start" x="252" y="-402.5" font-family="Helvetica,sans-Serif" font-size="10.00"># m_leaf_count</text>
<polyline fill="none" stroke="#666666" points="244,-395.5 399,-395.5 "/>
<text text-anchor="start" x="252" y="-383.5" font-family="Helvetica,sans-Serif" font-size="10.00">+ KdTree()</text>
<text text-anchor="start" x="252" y="-372.5" font-family="Helvetica,sans-Serif" font-size="10.00">+ KdTree()</text>
<text text-anchor="start" x="252" y="-361.5" font-family="Helvetica,sans-Serif" font-size="10.00">+ KdTree()</text>
<text text-anchor="start" x="252" y="-350.5" font-family="Helvetica,sans-Serif" font-size="10.00">+ clear()</text>
<text text-anchor="start" x="252" y="-339.5" font-family="Helvetica,sans-Serif" font-size="10.00">+ build()</text>
<text text-anchor="start" x="252" y="-328.5" font-family="Helvetica,sans-Serif" font-size="10.00">+ build()</text>
<text text-anchor="start" x="252" y="-317.5" font-family="Helvetica,sans-Serif" font-size="10.00">+ buildWithSampling()</text>
<text text-anchor="start" x="252" y="-306.5" font-family="Helvetica,sans-Serif" font-size="10.00">+ buildWithSampling()</text>
<text text-anchor="start" x="252" y="-295.5" font-family="Helvetica,sans-Serif" font-size="10.00">+ rebuild()</text>
<text text-anchor="start" x="252" y="-284.5" font-family="Helvetica,sans-Serif" font-size="10.00">+ valid()</text>
<text text-anchor="start" x="252" y="-273.5" font-family="Helvetica,sans-Serif" font-size="10.00">and 21 more...</text>
</a>
</g>
</g>
<!-- Node3&#45;&gt;Node2 -->
<g id="edge2" class="edge">
<title>Node3&#45;&gt;Node2</title>
<path fill="none" stroke="#404040" d="M399.31,-299.53C432.87,-275.82 471.67,-248.41 503.64,-225.82"/>
<polygon fill="none" stroke="#404040" points="503.96,-225.59 506.56,-218.87 513.76,-218.67 511.17,-225.4 503.96,-225.59"/>
<text text-anchor="middle" x="511.5" y="-240" font-family="Helvetica,sans-Serif" font-size="10.00"> #m_kdtree</text>
</g>
<!-- Node4 -->
<g id="node4" class="node">
<title>Node4</title>
<g id="a_node4"><a xlink:title=" ">
<polygon fill="white" stroke="#666666" points="0,-784.5 0,-841.5 139,-841.5 139,-784.5 0,-784.5"/>
<text text-anchor="middle" x="69.5" y="-829.5" font-family="Helvetica,sans-Serif" font-size="10.00">std::vector&lt; DataPoint &gt;</text>
<polyline fill="none" stroke="#666666" points="0,-822.5 139,-822.5 "/>
<text text-anchor="start" x="8" y="-810.5" font-family="Helvetica,sans-Serif" font-size="10.00">+ elements</text>
<polyline fill="none" stroke="#666666" points="0,-803.5 139,-803.5 "/>
<text text-anchor="middle" x="69.5" y="-791.5" font-family="Helvetica,sans-Serif" font-size="10.00"> </text>
</a>
</g>
</g>
<!-- Node4&#45;&gt;Node3 -->
<g id="edge3" class="edge">
<title>Node4&#45;&gt;Node3</title>
<path fill="none" stroke="#404040" d="M59.29,-784.26C40.7,-728.75 7.64,-601.8 57.5,-514 94.7,-448.49 171.14,-407.34 232.23,-383.6"/>
<polygon fill="none" stroke="#404040" points="232.61,-383.46 236.82,-377.6 243.84,-379.23 239.64,-385.09 232.61,-383.46"/>
<text text-anchor="middle" x="86" y="-601" font-family="Helvetica,sans-Serif" font-size="10.00"> #m_points</text>
</g>
<!-- Node9 -->
<g id="node9" class="node">
<title>Node9</title>
<g id="a_node9"><a xlink:href="classPonca_1_1KdTree.html" target="_top" xlink:title=" ">
<polygon fill="white" stroke="#666666" points="124,-514.5 124,-692.5 285,-692.5 285,-514.5 124,-514.5"/>
<text text-anchor="middle" x="204.5" y="-680.5" font-family="Helvetica,sans-Serif" font-size="10.00">Ponca::KdTree&lt; _DataPoint &gt;</text>
<polyline fill="none" stroke="#666666" points="124,-673.5 285,-673.5 "/>
<text text-anchor="start" x="132" y="-661.5" font-family="Helvetica,sans-Serif" font-size="10.00"># m_min_cell_size</text>
<text text-anchor="start" x="132" y="-650.5" font-family="Helvetica,sans-Serif" font-size="10.00"># m_leaf_count</text>
<polyline fill="none" stroke="#666666" points="124,-643.5 285,-643.5 "/>
<text text-anchor="start" x="132" y="-631.5" font-family="Helvetica,sans-Serif" font-size="10.00">+ KdTree()</text>
<text text-anchor="start" x="132" y="-620.5" font-family="Helvetica,sans-Serif" font-size="10.00">+ KdTree()</text>
<text text-anchor="start" x="132" y="-609.5" font-family="Helvetica,sans-Serif" font-size="10.00">+ KdTree()</text>
<text text-anchor="start" x="132" y="-598.5" font-family="Helvetica,sans-Serif" font-size="10.00">+ clear()</text>
<text text-anchor="start" x="132" y="-587.5" font-family="Helvetica,sans-Serif" font-size="10.00">+ build()</text>
<text text-anchor="start" x="132" y="-576.5" font-family="Helvetica,sans-Serif" font-size="10.00">+ build()</text>
<text text-anchor="start" x="132" y="-565.5" font-family="Helvetica,sans-Serif" font-size="10.00">+ buildWithSampling()</text>
<text text-anchor="start" x="132" y="-554.5" font-family="Helvetica,sans-Serif" font-size="10.00">+ buildWithSampling()</text>
<text text-anchor="start" x="132" y="-543.5" font-family="Helvetica,sans-Serif" font-size="10.00">+ rebuild()</text>
<text text-anchor="start" x="132" y="-532.5" font-family="Helvetica,sans-Serif" font-size="10.00">+ valid()</text>
<text text-anchor="start" x="132" y="-521.5" font-family="Helvetica,sans-Serif" font-size="10.00">and 21 more...</text>
</a>
</g>
</g>
<!-- Node4&#45;&gt;Node9 -->
<g id="edge11" class="edge">
<title>Node4&#45;&gt;Node9</title>
<path fill="none" stroke="#404040" d="M87.43,-784.45C101.15,-763.35 120.97,-732.88 140.41,-703"/>
<polygon fill="none" stroke="#404040" points="140.44,-702.96 140.36,-695.75 146.98,-692.9 147.06,-700.11 140.44,-702.96"/>
<text text-anchor="middle" x="162" y="-725" font-family="Helvetica,sans-Serif" font-size="10.00"> #m_points</text>
</g>
<!-- Node5 -->
<g id="node5" class="node">
<title>Node5</title>
<g id="a_node5"><a xlink:title=" ">
<polygon fill="white" stroke="#666666" points="186,-939 186,-996 283,-996 283,-939 186,-939"/>
<text text-anchor="middle" x="234.5" y="-984" font-family="Helvetica,sans-Serif" font-size="10.00">std::vector&lt; T &gt;</text>
<polyline fill="none" stroke="#666666" points="186,-977 283,-977 "/>
<text text-anchor="middle" x="234.5" y="-965" font-family="Helvetica,sans-Serif" font-size="10.00"> </text>
<polyline fill="none" stroke="#666666" points="186,-958 283,-958 "/>
<text text-anchor="middle" x="234.5" y="-946" font-family="Helvetica,sans-Serif" font-size="10.00"> </text>
</a>
</g>
</g>
<!-- Node5&#45;&gt;Node4 -->
<g id="edge4" class="edge">
<title>Node5&#45;&gt;Node4</title>
<path fill="none" stroke="orange" d="M176.46,-940.64C158.48,-930.85 139.48,-918.51 124.5,-904 106.09,-886.16 91.36,-860.92 81.8,-841.7"/>
<polygon fill="orange" stroke="orange" points="175.26,-943.97 185.74,-945.53 178.52,-937.77 175.26,-943.97"/>
<text text-anchor="middle" x="161.5" y="-890.5" font-family="Helvetica,sans-Serif" font-size="10.00"> &lt; DataPoint &gt;</text>
</g>
<!-- Node7 -->
<g id="node7" class="node">
<title>Node7</title>
<g id="a_node7"><a xlink:title=" ">
<polygon fill="white" stroke="#666666" points="281.5,-779 281.5,-847 419.5,-847 419.5,-779 281.5,-779"/>
<text text-anchor="start" x="289.5" y="-835" font-family="Helvetica,sans-Serif" font-size="10.00">std::vector&lt; KdTreeNode</text>
<text text-anchor="middle" x="350.5" y="-824" font-family="Helvetica,sans-Serif" font-size="10.00">&lt; Scalar &gt; &gt;</text>
<polyline fill="none" stroke="#666666" points="281.5,-817 419.5,-817 "/>
<text text-anchor="start" x="289.5" y="-805" font-family="Helvetica,sans-Serif" font-size="10.00">+ elements</text>
<polyline fill="none" stroke="#666666" points="281.5,-798 419.5,-798 "/>
<text text-anchor="middle" x="350.5" y="-786" font-family="Helvetica,sans-Serif" font-size="10.00"> </text>
</a>
</g>
</g>
<!-- Node5&#45;&gt;Node7 -->
<g id="edge7" class="edge">
<title>Node5&#45;&gt;Node7</title>
<path fill="none" stroke="orange" d="M250.92,-929.68C258.58,-914.27 268.45,-896.59 279.5,-882 288.77,-869.75 300.3,-857.71 311.35,-847.25"/>
<polygon fill="orange" stroke="orange" points="247.64,-928.4 246.44,-938.93 253.95,-931.45 247.64,-928.4"/>
<text text-anchor="middle" x="348" y="-890.5" font-family="Helvetica,sans-Serif" font-size="10.00"> &lt; KdTreeNode&lt; Scalar &gt; &gt;</text>
</g>
<!-- Node8 -->
<g id="node8" class="node">
<title>Node8</title>
<g id="a_node8"><a xlink:title=" ">
<polygon fill="white" stroke="#666666" points="157.5,-784.5 157.5,-841.5 261.5,-841.5 261.5,-784.5 157.5,-784.5"/>
<text text-anchor="middle" x="209.5" y="-829.5" font-family="Helvetica,sans-Serif" font-size="10.00">std::vector&lt; int &gt;</text>
<polyline fill="none" stroke="#666666" points="157.5,-822.5 261.5,-822.5 "/>
<text text-anchor="start" x="165.5" y="-810.5" font-family="Helvetica,sans-Serif" font-size="10.00">+ elements</text>
<polyline fill="none" stroke="#666666" points="157.5,-803.5 261.5,-803.5 "/>
<text text-anchor="middle" x="209.5" y="-791.5" font-family="Helvetica,sans-Serif" font-size="10.00"> </text>
</a>
</g>
</g>
<!-- Node5&#45;&gt;Node8 -->
<g id="edge9" class="edge">
<title>Node5&#45;&gt;Node8</title>
<path fill="none" stroke="orange" d="M213.58,-929.85C209.83,-921.6 206.48,-912.7 204.5,-904 199.81,-883.4 201.46,-859.5 204.06,-841.51"/>
<polygon fill="orange" stroke="orange" points="210.44,-931.38 217.95,-938.86 216.74,-928.33 210.44,-931.38"/>
<text text-anchor="middle" x="224" y="-890.5" font-family="Helvetica,sans-Serif" font-size="10.00"> &lt; int &gt;</text>
</g>
<!-- Node6 -->
<g id="node6" class="node">
<title>Node6</title>
<g id="a_node6"><a xlink:title=" ">
<polygon fill="white" stroke="#bfbfbf" points="654,-1088 654,-1145 683,-1145 683,-1088 654,-1088"/>
<text text-anchor="middle" x="668.5" y="-1133" font-family="Helvetica,sans-Serif" font-size="10.00">T</text>
<polyline fill="none" stroke="#bfbfbf" points="654,-1126 683,-1126 "/>
<text text-anchor="middle" x="668.5" y="-1114" font-family="Helvetica,sans-Serif" font-size="10.00"> </text>
<polyline fill="none" stroke="#bfbfbf" points="654,-1107 683,-1107 "/>
<text text-anchor="middle" x="668.5" y="-1095" font-family="Helvetica,sans-Serif" font-size="10.00"> </text>
</a>
</g>
</g>
<!-- Node6&#45;&gt;Node5 -->
<g id="edge5" class="edge">
<title>Node6&#45;&gt;Node5</title>
<path fill="none" stroke="#404040" d="M653.89,-1101.72C632.05,-1082.08 588.7,-1046.67 544.5,-1031 453.7,-998.81 421.53,-1038.01 328.5,-1013 317.24,-1009.97 305.68,-1005.64 294.69,-1000.86"/>
<polygon fill="none" stroke="#404040" points="294.39,-1000.72 287.28,-1001.87 283.48,-995.74 290.6,-994.59 294.39,-1000.72"/>
<text text-anchor="middle" x="618.5" y="-1039.5" font-family="Helvetica,sans-Serif" font-size="10.00"> +elements</text>
</g>
<!-- Node14 -->
<g id="node14" class="node">
<title>Node14</title>
<g id="a_node14"><a xlink:title=" ">
<polygon fill="white" stroke="#666666" points="622.5,-939 622.5,-996 714.5,-996 714.5,-939 622.5,-939"/>
<text text-anchor="middle" x="668.5" y="-984" font-family="Helvetica,sans-Serif" font-size="10.00">std::array&lt; T &gt;</text>
<polyline fill="none" stroke="#666666" points="622.5,-977 714.5,-977 "/>
<text text-anchor="middle" x="668.5" y="-965" font-family="Helvetica,sans-Serif" font-size="10.00"> </text>
<polyline fill="none" stroke="#666666" points="622.5,-958 714.5,-958 "/>
<text text-anchor="middle" x="668.5" y="-946" font-family="Helvetica,sans-Serif" font-size="10.00"> </text>
</a>
</g>
</g>
<!-- Node6&#45;&gt;Node14 -->
<g id="edge19" class="edge">
<title>Node6&#45;&gt;Node14</title>
<path fill="none" stroke="#404040" d="M668.5,-1087.85C668.5,-1065.37 668.5,-1033.35 668.5,-1008.14"/>
<polygon fill="none" stroke="#404040" points="668.5,-1008.03 664.5,-1002.03 668.5,-996.03 672.5,-1002.03 668.5,-1008.03"/>
<text text-anchor="middle" x="697.5" y="-1039.5" font-family="Helvetica,sans-Serif" font-size="10.00"> +elements</text>
</g>
<!-- Node16 -->
<g id="node16" class="node">
<title>Node16</title>
<g id="a_node16"><a xlink:title=" ">
<polygon fill="white" stroke="#666666" points="658,-784.5 658,-841.5 763,-841.5 763,-784.5 658,-784.5"/>
<text text-anchor="middle" x="710.5" y="-829.5" font-family="Helvetica,sans-Serif" font-size="10.00">std::array&lt; T, N &gt;</text>
<polyline fill="none" stroke="#666666" points="658,-822.5 763,-822.5 "/>
<text text-anchor="middle" x="710.5" y="-810.5" font-family="Helvetica,sans-Serif" font-size="10.00"> </text>
<polyline fill="none" stroke="#666666" points="658,-803.5 763,-803.5 "/>
<text text-anchor="middle" x="710.5" y="-791.5" font-family="Helvetica,sans-Serif" font-size="10.00"> </text>
</a>
</g>
</g>
<!-- Node6&#45;&gt;Node16 -->
<g id="edge22" class="edge">
<title>Node6&#45;&gt;Node16</title>
<path fill="none" stroke="#404040" d="M683.14,-1105.45C697.86,-1094.45 719.86,-1075.36 730.5,-1053 763.3,-984.07 764.9,-956.08 746.5,-882 743.98,-871.84 739.63,-861.53 734.8,-852.12"/>
<polygon fill="none" stroke="#404040" points="734.77,-852.06 728.38,-848.72 729.01,-841.54 735.4,-844.88 734.77,-852.06"/>
<text text-anchor="middle" x="786.5" y="-965" font-family="Helvetica,sans-Serif" font-size="10.00"> +elements</text>
</g>
<!-- Node7&#45;&gt;Node3 -->
<g id="edge6" class="edge">
<title>Node7&#45;&gt;Node3</title>
<path fill="none" stroke="#404040" d="M363.43,-778.75C371.87,-755.21 382.11,-722.68 386.5,-693 398.14,-614.3 401.97,-592.04 386.5,-514 382.67,-494.69 376.44,-474.77 369.31,-455.87"/>
<polygon fill="none" stroke="#404040" points="369.26,-455.73 363.35,-451.6 364.9,-444.56 370.81,-448.69 369.26,-455.73"/>
<text text-anchor="middle" x="425.5" y="-601" font-family="Helvetica,sans-Serif" font-size="10.00"> #m_nodes</text>
</g>
<!-- Node7&#45;&gt;Node9 -->
<g id="edge12" class="edge">
<title>Node7&#45;&gt;Node9</title>
<path fill="none" stroke="#404040" d="M327.04,-778.66C312.47,-757.95 292.91,-730.15 273.7,-702.85"/>
<polygon fill="none" stroke="#404040" points="273.55,-702.64 266.83,-700.03 266.65,-692.83 273.37,-695.43 273.55,-702.64"/>
<text text-anchor="middle" x="327.5" y="-725" font-family="Helvetica,sans-Serif" font-size="10.00"> #m_nodes</text>
</g>
<!-- Node8&#45;&gt;Node3 -->
<g id="edge8" class="edge">
<title>Node8&#45;&gt;Node3</title>
<path fill="none" stroke="#404040" d="M240.2,-784.28C251.75,-772.67 264.31,-758.52 273.5,-744 286.52,-723.43 287.99,-716.72 293.5,-693 311.62,-615.06 318.37,-524.56 320.73,-457.06"/>
<polygon fill="none" stroke="#404040" points="320.75,-456.73 316.94,-450.6 321.13,-444.73 324.93,-450.86 320.75,-456.73"/>
<text text-anchor="middle" x="349" y="-601" font-family="Helvetica,sans-Serif" font-size="10.00"> #m_indices</text>
</g>
<!-- Node8&#45;&gt;Node9 -->
<g id="edge13" class="edge">
<title>Node8&#45;&gt;Node9</title>
<path fill="none" stroke="#404040" d="M208.84,-784.45C208.34,-763.81 207.63,-734.2 206.92,-704.95"/>
<polygon fill="none" stroke="#404040" points="206.92,-704.9 202.78,-699 206.63,-692.9 210.77,-698.81 206.92,-704.9"/>
<text text-anchor="middle" x="239" y="-725" font-family="Helvetica,sans-Serif" font-size="10.00"> #m_indices</text>
</g>
<!-- Node9&#45;&gt;Node3 -->
<g id="edge10" class="edge">
<title>Node9&#45;&gt;Node3</title>
<path fill="none" stroke="orange" d="M218.54,-504.52C222.39,-490.21 227.28,-475.95 233.5,-463 236.56,-456.62 240.09,-450.3 243.93,-444.1"/>
<polygon fill="orange" stroke="orange" points="215.1,-503.86 216.04,-514.41 221.89,-505.57 215.1,-503.86"/>
<text text-anchor="middle" x="270.5" y="-477" font-family="Helvetica,sans-Serif" font-size="10.00"> &lt; DataPoint &gt;</text>
</g>
<!-- Node10 -->
<g id="node10" class="node">
<title>Node10</title>
<g id="a_node10"><a xlink:href="classPonca_1_1Stack.html" target="_top" xlink:title=" ">
<polygon fill="white" stroke="#666666" points="501.5,-266.5 501.5,-444.5 635.5,-444.5 635.5,-266.5 501.5,-266.5"/>
<text text-anchor="start" x="509.5" y="-432.5" font-family="Helvetica,sans-Serif" font-size="10.00">Ponca::Stack&lt; Ponca</text>
<text text-anchor="start" x="509.5" y="-421.5" font-family="Helvetica,sans-Serif" font-size="10.00">::IndexSquaredDistance</text>
<text text-anchor="start" x="509.5" y="-410.5" font-family="Helvetica,sans-Serif" font-size="10.00">&lt; typename DataPoint::</text>
<text text-anchor="middle" x="568.5" y="-399.5" font-family="Helvetica,sans-Serif" font-size="10.00">Scalar &gt;, 2 *32 &gt;</text>
<polyline fill="none" stroke="#666666" points="501.5,-392.5 635.5,-392.5 "/>
<text text-anchor="start" x="509.5" y="-380.5" font-family="Helvetica,sans-Serif" font-size="10.00"># m_size</text>
<polyline fill="none" stroke="#666666" points="501.5,-373.5 635.5,-373.5 "/>
<text text-anchor="start" x="509.5" y="-361.5" font-family="Helvetica,sans-Serif" font-size="10.00">+ Stack()</text>
<text text-anchor="start" x="509.5" y="-350.5" font-family="Helvetica,sans-Serif" font-size="10.00">+ top()</text>
<text text-anchor="start" x="509.5" y="-339.5" font-family="Helvetica,sans-Serif" font-size="10.00">+ top()</text>
<text text-anchor="start" x="509.5" y="-328.5" font-family="Helvetica,sans-Serif" font-size="10.00">+ empty()</text>
<text text-anchor="start" x="509.5" y="-317.5" font-family="Helvetica,sans-Serif" font-size="10.00">+ size()</text>
<text text-anchor="start" x="509.5" y="-306.5" font-family="Helvetica,sans-Serif" font-size="10.00">+ push()</text>
<text text-anchor="start" x="509.5" y="-295.5" font-family="Helvetica,sans-Serif" font-size="10.00">+ push()</text>
<text text-anchor="start" x="509.5" y="-284.5" font-family="Helvetica,sans-Serif" font-size="10.00">+ pop()</text>
<text text-anchor="start" x="509.5" y="-273.5" font-family="Helvetica,sans-Serif" font-size="10.00">+ clear()</text>
</a>
</g>
</g>
<!-- Node10&#45;&gt;Node2 -->
<g id="edge14" class="edge">
<title>Node10&#45;&gt;Node2</title>
<path fill="none" stroke="#404040" d="M568.5,-266.48C568.5,-254.3 568.5,-242.13 568.5,-230.94"/>
<polygon fill="none" stroke="#404040" points="568.5,-230.76 564.5,-224.76 568.5,-218.76 572.5,-224.76 568.5,-230.76"/>
<text text-anchor="middle" x="595" y="-240" font-family="Helvetica,sans-Serif" font-size="10.00"> #m_stack</text>
</g>
<!-- Node11 -->
<g id="node11" class="node">
<title>Node11</title>
<g id="a_node11"><a xlink:title=" ">
<polygon fill="white" stroke="#666666" points="442.5,-768 442.5,-858 570.5,-858 570.5,-768 442.5,-768"/>
<text text-anchor="start" x="450.5" y="-846" font-family="Helvetica,sans-Serif" font-size="10.00">std::array&lt; Ponca::</text>
<text text-anchor="start" x="450.5" y="-835" font-family="Helvetica,sans-Serif" font-size="10.00">IndexSquaredDistance</text>
<text text-anchor="start" x="450.5" y="-824" font-family="Helvetica,sans-Serif" font-size="10.00">&lt; typename DataPoint</text>
<text text-anchor="middle" x="506.5" y="-813" font-family="Helvetica,sans-Serif" font-size="10.00">::Scalar &gt;, N &gt;</text>
<polyline fill="none" stroke="#666666" points="442.5,-806 570.5,-806 "/>
<text text-anchor="middle" x="506.5" y="-794" font-family="Helvetica,sans-Serif" font-size="10.00"> </text>
<polyline fill="none" stroke="#666666" points="442.5,-787 570.5,-787 "/>
<text text-anchor="middle" x="506.5" y="-775" font-family="Helvetica,sans-Serif" font-size="10.00"> </text>
</a>
</g>
</g>
<!-- Node11&#45;&gt;Node10 -->
<g id="edge15" class="edge">
<title>Node11&#45;&gt;Node10</title>
<path fill="none" stroke="#404040" d="M512.5,-767.91C522.22,-696.54 541.63,-553.92 554.84,-456.84"/>
<polygon fill="none" stroke="#404040" points="554.84,-456.82 551.69,-450.34 556.46,-444.93 559.62,-451.42 554.84,-456.82"/>
<text text-anchor="middle" x="572" y="-601" font-family="Helvetica,sans-Serif" font-size="10.00"> #m_data</text>
</g>
<!-- Node12 -->
<g id="node12" class="node">
<title>Node12</title>
<g id="a_node12"><a xlink:href="structPonca_1_1IndexSquaredDistance.html" target="_top" xlink:title=" ">
<polygon fill="white" stroke="#666666" points="337.5,-928 337.5,-1007 513.5,-1007 513.5,-928 337.5,-928"/>
<text text-anchor="start" x="345.5" y="-995" font-family="Helvetica,sans-Serif" font-size="10.00">Ponca::IndexSquaredDistance</text>
<text text-anchor="middle" x="425.5" y="-984" font-family="Helvetica,sans-Serif" font-size="10.00">&lt; typename DataPoint::Scalar &gt;</text>
<polyline fill="none" stroke="#666666" points="337.5,-977 513.5,-977 "/>
<text text-anchor="start" x="345.5" y="-965" font-family="Helvetica,sans-Serif" font-size="10.00">+ index</text>
<text text-anchor="start" x="345.5" y="-954" font-family="Helvetica,sans-Serif" font-size="10.00">+ squared_distance</text>
<polyline fill="none" stroke="#666666" points="337.5,-947 513.5,-947 "/>
<text text-anchor="start" x="345.5" y="-935" font-family="Helvetica,sans-Serif" font-size="10.00">+ operator&lt;()</text>
</a>
</g>
</g>
<!-- Node12&#45;&gt;Node11 -->
<g id="edge16" class="edge">
<title>Node12&#45;&gt;Node11</title>
<path fill="none" stroke="#404040" d="M419.32,-927.96C418.58,-912.98 419.89,-896.08 426.5,-882 428.83,-877.04 431.72,-872.31 434.99,-867.82"/>
<polygon fill="none" stroke="#404040" points="435.13,-867.66 435.84,-860.48 442.74,-858.38 442.02,-865.55 435.13,-867.66"/>
<text text-anchor="middle" x="455.5" y="-890.5" font-family="Helvetica,sans-Serif" font-size="10.00"> +elements</text>
</g>
<!-- Node13 -->
<g id="node13" class="node">
<title>Node13</title>
<g id="a_node13"><a xlink:href="structPonca_1_1IndexSquaredDistance.html" target="_top" xlink:title="Associates an index with a distance.">
<polygon fill="white" stroke="#666666" points="345,-1077 345,-1156 506,-1156 506,-1077 345,-1077"/>
<text text-anchor="start" x="353" y="-1144" font-family="Helvetica,sans-Serif" font-size="10.00">Ponca::IndexSquaredDistance</text>
<text text-anchor="middle" x="425.5" y="-1133" font-family="Helvetica,sans-Serif" font-size="10.00">&lt; Scalar &gt;</text>
<polyline fill="none" stroke="#666666" points="345,-1126 506,-1126 "/>
<text text-anchor="start" x="353" y="-1114" font-family="Helvetica,sans-Serif" font-size="10.00">+ index</text>
<text text-anchor="start" x="353" y="-1103" font-family="Helvetica,sans-Serif" font-size="10.00">+ squared_distance</text>
<polyline fill="none" stroke="#666666" points="345,-1096 506,-1096 "/>
<text text-anchor="start" x="353" y="-1084" font-family="Helvetica,sans-Serif" font-size="10.00">+ operator&lt;()</text>
</a>
</g>
</g>
<!-- Node13&#45;&gt;Node12 -->
<g id="edge17" class="edge">
<title>Node13&#45;&gt;Node12</title>
<path fill="none" stroke="orange" d="M425.5,-1066.72C425.5,-1047.34 425.5,-1025.36 425.5,-1007.12"/>
<polygon fill="orange" stroke="orange" points="422,-1066.88 425.5,-1076.88 429,-1066.88 422,-1066.88"/>
<text text-anchor="start" x="425.5" y="-1045" font-family="Helvetica,sans-Serif" font-size="10.00"> &lt; typename DataPoint</text>
<text text-anchor="middle" x="483" y="-1034" font-family="Helvetica,sans-Serif" font-size="10.00">::Scalar &gt;</text>
</g>
<!-- Node14&#45;&gt;Node11 -->
<g id="edge18" class="edge">
<title>Node14&#45;&gt;Node11</title>
<path fill="none" stroke="orange" d="M612.43,-952.58C569.83,-940.73 516.42,-922.71 503.5,-904 494.44,-890.88 493.07,-873.93 494.71,-858.28"/>
<polygon fill="orange" stroke="orange" points="611.6,-955.98 622.17,-955.23 613.44,-949.23 611.6,-955.98"/>
<text text-anchor="start" x="503.5" y="-896" font-family="Helvetica,sans-Serif" font-size="10.00"> &lt; Ponca::IndexSquaredDistance</text>
<text text-anchor="middle" x="595.5" y="-885" font-family="Helvetica,sans-Serif" font-size="10.00">&lt; typename DataPoint::Scalar &gt;, N &gt;</text>
</g>
<!-- Node14&#45;&gt;Node16 -->
<g id="edge23" class="edge">
<title>Node14&#45;&gt;Node16</title>
<path fill="none" stroke="orange" d="M683.17,-929.36C686.15,-921.09 689.11,-912.31 691.5,-904 697.42,-883.44 702.35,-859.74 705.7,-841.83"/>
<polygon fill="orange" stroke="orange" points="679.87,-928.19 679.68,-938.78 686.43,-930.62 679.87,-928.19"/>
<text text-anchor="middle" x="719.5" y="-890.5" font-family="Helvetica,sans-Serif" font-size="10.00"> &lt; T, N &gt;</text>
</g>
<!-- Node15 -->
<g id="node15" class="node">
<title>Node15</title>
<g id="a_node15"><a xlink:href="classPonca_1_1Stack.html" target="_top" xlink:title="Stack with fixed&#45;size storage.">
<polygon fill="white" stroke="#666666" points="624,-531 624,-676 745,-676 745,-531 624,-531"/>
<text text-anchor="middle" x="684.5" y="-664" font-family="Helvetica,sans-Serif" font-size="10.00">Ponca::Stack&lt; T, N &gt;</text>
<polyline fill="none" stroke="#666666" points="624,-657 745,-657 "/>
<text text-anchor="start" x="632" y="-645" font-family="Helvetica,sans-Serif" font-size="10.00"># m_size</text>
<polyline fill="none" stroke="#666666" points="624,-638 745,-638 "/>
<text text-anchor="start" x="632" y="-626" font-family="Helvetica,sans-Serif" font-size="10.00">+ Stack()</text>
<text text-anchor="start" x="632" y="-615" font-family="Helvetica,sans-Serif" font-size="10.00">+ top()</text>
<text text-anchor="start" x="632" y="-604" font-family="Helvetica,sans-Serif" font-size="10.00">+ top()</text>
<text text-anchor="start" x="632" y="-593" font-family="Helvetica,sans-Serif" font-size="10.00">+ empty()</text>
<text text-anchor="start" x="632" y="-582" font-family="Helvetica,sans-Serif" font-size="10.00">+ size()</text>
<text text-anchor="start" x="632" y="-571" font-family="Helvetica,sans-Serif" font-size="10.00">+ push()</text>
<text text-anchor="start" x="632" y="-560" font-family="Helvetica,sans-Serif" font-size="10.00">+ push()</text>
<text text-anchor="start" x="632" y="-549" font-family="Helvetica,sans-Serif" font-size="10.00">+ pop()</text>
<text text-anchor="start" x="632" y="-538" font-family="Helvetica,sans-Serif" font-size="10.00">+ clear()</text>
</a>
</g>
</g>
<!-- Node15&#45;&gt;Node10 -->
<g id="edge20" class="edge">
<title>Node15&#45;&gt;Node10</title>
<path fill="none" stroke="orange" d="M646.25,-521.38C634.64,-496.77 621.83,-469.61 610.02,-444.55"/>
<polygon fill="orange" stroke="orange" points="643.21,-523.13 650.64,-530.69 649.54,-520.15 643.21,-523.13"/>
<text text-anchor="start" x="633.5" y="-488" font-family="Helvetica,sans-Serif" font-size="10.00"> &lt; Ponca::IndexSquaredDistance</text>
<text text-anchor="start" x="633.5" y="-477" font-family="Helvetica,sans-Serif" font-size="10.00">&lt; typename DataPoint::Scalar</text>
<text text-anchor="middle" x="713.5" y="-466" font-family="Helvetica,sans-Serif" font-size="10.00"> &gt;, 2 *32 &gt;</text>
</g>
<!-- Node16&#45;&gt;Node15 -->
<g id="edge21" class="edge">
<title>Node16&#45;&gt;Node15</title>
<path fill="none" stroke="#404040" d="M707.05,-784.45C703.97,-759.89 699.3,-722.64 695.01,-688.4"/>
<polygon fill="none" stroke="#404040" points="695.01,-688.34 690.29,-682.88 693.51,-676.43 698.23,-681.89 695.01,-688.34"/>
<text text-anchor="middle" x="725" y="-725" font-family="Helvetica,sans-Serif" font-size="10.00"> #m_data</text>
</g>
<!-- Node17 -->
<g id="node17" class="node">
<title>Node17</title>
<g id="a_node17"><a xlink:href="group__spatialpartitioning.html" target="_top" xlink:title=" ">
<polygon fill="white" stroke="#666666" points="766.5,-145 766.5,-213 912.5,-213 912.5,-145 766.5,-145"/>
<text text-anchor="start" x="774.5" y="-201" font-family="Helvetica,sans-Serif" font-size="10.00">Ponca::NearestIndexQuery</text>
<text text-anchor="middle" x="839.5" y="-190" font-family="Helvetica,sans-Serif" font-size="10.00">&lt; DataPoint::Scalar &gt;</text>
<polyline fill="none" stroke="#666666" points="766.5,-183 912.5,-183 "/>
<text text-anchor="middle" x="839.5" y="-171" font-family="Helvetica,sans-Serif" font-size="10.00"> </text>
<polyline fill="none" stroke="#666666" points="766.5,-164 912.5,-164 "/>
<text text-anchor="middle" x="839.5" y="-152" font-family="Helvetica,sans-Serif" font-size="10.00"> </text>
</a>
</g>
</g>
<!-- Node17&#45;&gt;Node1 -->
<g id="edge24" class="edge">
<title>Node17&#45;&gt;Node1</title>
<path fill="none" stroke="#63b8ff" d="M794.36,-138.23C781.22,-126.65 766.69,-113.84 752.94,-101.73"/>
<polygon fill="none" stroke="#63b8ff" points="792.11,-140.91 801.93,-144.89 796.74,-135.66 792.11,-140.91"/>
</g>
<!-- Node18 -->
<g id="node18" class="node">
<title>Node18</title>
<g id="a_node18"><a xlink:href="group__spatialpartitioning.html#structPonca_1_1Query" target="_top" xlink:title=" ">
<polygon fill="white" stroke="#bfbfbf" points="781,-773.5 781,-852.5 898,-852.5 898,-773.5 781,-773.5"/>
<text text-anchor="start" x="789" y="-840.5" font-family="Helvetica,sans-Serif" font-size="10.00">Ponca::Query&lt; Input</text>
<text text-anchor="middle" x="839.5" y="-829.5" font-family="Helvetica,sans-Serif" font-size="10.00">_, Output_ &gt;</text>
<polyline fill="none" stroke="#bfbfbf" points="781,-822.5 898,-822.5 "/>
<text text-anchor="middle" x="839.5" y="-810.5" font-family="Helvetica,sans-Serif" font-size="10.00"> </text>
<polyline fill="none" stroke="#bfbfbf" points="781,-803.5 898,-803.5 "/>
<text text-anchor="start" x="789" y="-791.5" font-family="Helvetica,sans-Serif" font-size="10.00">+ Query()</text>
<text text-anchor="start" x="789" y="-780.5" font-family="Helvetica,sans-Serif" font-size="10.00">+ Query()</text>
</a>
</g>
</g>
<!-- Node18&#45;&gt;Node17 -->
<g id="edge25" class="edge">
<title>Node18&#45;&gt;Node17</title>
<path fill="none" stroke="#63b8ff" d="M839.5,-763.13C839.5,-639.6 839.5,-317.28 839.5,-213.04"/>
<polygon fill="none" stroke="#63b8ff" points="836,-763.42 839.5,-773.42 843,-763.42 836,-763.42"/>
</g>
<!-- Node19 -->
<g id="node19" class="node">
<title>Node19</title>
<g id="a_node19"><a xlink:title=" ">
<polygon fill="white" stroke="#bfbfbf" points="942,-939 942,-996 989,-996 989,-939 942,-939"/>
<text text-anchor="middle" x="965.5" y="-984" font-family="Helvetica,sans-Serif" font-size="10.00">Input_</text>
<polyline fill="none" stroke="#bfbfbf" points="942,-977 989,-977 "/>
<text text-anchor="middle" x="965.5" y="-965" font-family="Helvetica,sans-Serif" font-size="10.00"> </text>
<polyline fill="none" stroke="#bfbfbf" points="942,-958 989,-958 "/>
<text text-anchor="middle" x="965.5" y="-946" font-family="Helvetica,sans-Serif" font-size="10.00"> </text>
</a>
</g>
</g>
<!-- Node19&#45;&gt;Node18 -->
<g id="edge26" class="edge">
<title>Node19&#45;&gt;Node18</title>
<path fill="none" stroke="#63b8ff" d="M937.56,-930.76C935.18,-927.78 932.81,-924.83 930.5,-922 911.61,-898.8 890.06,-873.19 872.67,-852.73"/>
<polygon fill="none" stroke="#63b8ff" points="934.84,-932.96 943.8,-938.61 940.32,-928.6 934.84,-932.96"/>
</g>
<!-- Node29 -->
<g id="node29" class="node">
<title>Node29</title>
<g id="a_node29"><a xlink:href="group__spatialpartitioning.html#structPonca_1_1Query" target="_top" xlink:title=" ">
<polygon fill="white" stroke="#bfbfbf" points="916,-773.5 916,-852.5 1033,-852.5 1033,-773.5 916,-773.5"/>
<text text-anchor="start" x="924" y="-840.5" font-family="Helvetica,sans-Serif" font-size="10.00">Ponca::Query&lt; Input</text>
<text text-anchor="middle" x="974.5" y="-829.5" font-family="Helvetica,sans-Serif" font-size="10.00">_, Output_ &gt;</text>
<polyline fill="none" stroke="#bfbfbf" points="916,-822.5 1033,-822.5 "/>
<text text-anchor="middle" x="974.5" y="-810.5" font-family="Helvetica,sans-Serif" font-size="10.00"> </text>
<polyline fill="none" stroke="#bfbfbf" points="916,-803.5 1033,-803.5 "/>
<text text-anchor="start" x="924" y="-791.5" font-family="Helvetica,sans-Serif" font-size="10.00">+ Query()</text>
<text text-anchor="start" x="924" y="-780.5" font-family="Helvetica,sans-Serif" font-size="10.00">+ Query()</text>
</a>
</g>
</g>
<!-- Node19&#45;&gt;Node29 -->
<g id="edge38" class="edge">
<title>Node19&#45;&gt;Node29</title>
<path fill="none" stroke="#63b8ff" d="M967.73,-928.73C969.1,-905.55 970.85,-875.93 972.22,-852.6"/>
<polygon fill="none" stroke="#63b8ff" points="964.23,-928.69 967.13,-938.88 971.21,-929.11 964.23,-928.69"/>
</g>
<!-- Node20 -->
<g id="node20" class="node">
<title>Node20</title>
<g id="a_node20"><a xlink:title=" ">
<polygon fill="white" stroke="#bfbfbf" points="866,-939 866,-996 921,-996 921,-939 866,-939"/>
<text text-anchor="middle" x="893.5" y="-984" font-family="Helvetica,sans-Serif" font-size="10.00">Output_</text>
<polyline fill="none" stroke="#bfbfbf" points="866,-977 921,-977 "/>
<text text-anchor="middle" x="893.5" y="-965" font-family="Helvetica,sans-Serif" font-size="10.00"> </text>
<polyline fill="none" stroke="#bfbfbf" points="866,-958 921,-958 "/>
<text text-anchor="middle" x="893.5" y="-946" font-family="Helvetica,sans-Serif" font-size="10.00"> </text>
</a>
</g>
</g>
<!-- Node20&#45;&gt;Node18 -->
<g id="edge27" class="edge">
<title>Node20&#45;&gt;Node18</title>
<path fill="none" stroke="#63b8ff" d="M880.35,-929.35C872.11,-906.08 861.5,-876.14 853.17,-852.6"/>
<polygon fill="none" stroke="#63b8ff" points="877.08,-930.63 883.72,-938.88 883.68,-928.29 877.08,-930.63"/>
</g>
<!-- Node20&#45;&gt;Node29 -->
<g id="edge39" class="edge">
<title>Node20&#45;&gt;Node29</title>
<path fill="none" stroke="#63b8ff" d="M912.9,-929.98C925.31,-906.61 941.38,-876.35 954,-852.6"/>
<polygon fill="none" stroke="#63b8ff" points="909.77,-928.41 908.17,-938.88 915.95,-931.69 909.77,-928.41"/>
</g>
<!-- Node21 -->
<g id="node21" class="node">
<title>Node21</title>
<g id="a_node21"><a xlink:href="group__spatialpartitioning.html#structPonca_1_1NearestIndexQuery" target="_top" xlink:title="Base Query class combining QueryInputIsIndex and QueryOutputIsNearest.">
<polygon fill="white" stroke="#666666" points="891.5,-321.5 891.5,-389.5 1037.5,-389.5 1037.5,-321.5 891.5,-321.5"/>
<text text-anchor="start" x="899.5" y="-377.5" font-family="Helvetica,sans-Serif" font-size="10.00">Ponca::NearestIndexQuery</text>
<text text-anchor="middle" x="964.5" y="-366.5" font-family="Helvetica,sans-Serif" font-size="10.00">&lt; Scalar &gt;</text>
<polyline fill="none" stroke="#666666" points="891.5,-359.5 1037.5,-359.5 "/>
<text text-anchor="middle" x="964.5" y="-347.5" font-family="Helvetica,sans-Serif" font-size="10.00"> </text>
<polyline fill="none" stroke="#666666" points="891.5,-340.5 1037.5,-340.5 "/>
<text text-anchor="middle" x="964.5" y="-328.5" font-family="Helvetica,sans-Serif" font-size="10.00"> </text>
</a>
</g>
</g>
<!-- Node21&#45;&gt;Node17 -->
<g id="edge28" class="edge">
<title>Node21&#45;&gt;Node17</title>
<path fill="none" stroke="orange" d="M934.73,-312.95C912.86,-282.41 883.52,-241.45 863.22,-213.11"/>
<polygon fill="orange" stroke="orange" points="932.03,-315.18 940.69,-321.27 937.72,-311.1 932.03,-315.18"/>
<text text-anchor="middle" x="941.5" y="-240" font-family="Helvetica,sans-Serif" font-size="10.00"> &lt; DataPoint::Scalar &gt;</text>
</g>
<!-- Node22 -->
<g id="node22" class="node">
<title>Node22</title>
<g id="a_node22"><a xlink:href="group__spatialpartitioning.html" target="_top" xlink:title=" ">
<polygon fill="white" stroke="#bfbfbf" points="959,-558.5 959,-648.5 1126,-648.5 1126,-558.5 959,-558.5"/>
<text text-anchor="start" x="967" y="-636.5" font-family="Helvetica,sans-Serif" font-size="10.00">Ponca::Query&lt; QueryInput</text>
<text text-anchor="start" x="967" y="-625.5" font-family="Helvetica,sans-Serif" font-size="10.00">IsIndex, QueryOutputIsNearest</text>
<text text-anchor="middle" x="1042.5" y="-614.5" font-family="Helvetica,sans-Serif" font-size="10.00">&lt; Scalar &gt; &gt;</text>
<polyline fill="none" stroke="#bfbfbf" points="959,-607.5 1126,-607.5 "/>
<text text-anchor="middle" x="1042.5" y="-595.5" font-family="Helvetica,sans-Serif" font-size="10.00"> </text>
<polyline fill="none" stroke="#bfbfbf" points="959,-588.5 1126,-588.5 "/>
<text text-anchor="start" x="967" y="-576.5" font-family="Helvetica,sans-Serif" font-size="10.00">+ Query()</text>
<text text-anchor="start" x="967" y="-565.5" font-family="Helvetica,sans-Serif" font-size="10.00">+ Query()</text>
</a>
</g>
</g>
<!-- Node22&#45;&gt;Node21 -->
<g id="edge29" class="edge">
<title>Node22&#45;&gt;Node21</title>
<path fill="none" stroke="#63b8ff" d="M1025.39,-548.54C1010.03,-500.1 987.97,-430.52 975.05,-389.77"/>
<polygon fill="none" stroke="#63b8ff" points="1022.11,-549.76 1028.47,-558.24 1028.78,-547.65 1022.11,-549.76"/>
</g>
<!-- Node23 -->
<g id="node23" class="node">
<title>Node23</title>
<g id="a_node23"><a xlink:href="group__spatialpartitioning.html#structPonca_1_1QueryInputIsIndex" target="_top" xlink:title="Base class for queries storing points.">
<polygon fill="white" stroke="#666666" points="1051,-784.5 1051,-841.5 1192,-841.5 1192,-784.5 1051,-784.5"/>
<text text-anchor="middle" x="1121.5" y="-829.5" font-family="Helvetica,sans-Serif" font-size="10.00">Ponca::QueryInputIsIndex</text>
<polyline fill="none" stroke="#666666" points="1051,-822.5 1192,-822.5 "/>
<text text-anchor="middle" x="1121.5" y="-810.5" font-family="Helvetica,sans-Serif" font-size="10.00"> </text>
<polyline fill="none" stroke="#666666" points="1051,-803.5 1192,-803.5 "/>
<text text-anchor="start" x="1059" y="-791.5" font-family="Helvetica,sans-Serif" font-size="10.00">+ QueryInputIsIndex()</text>
</a>
</g>
</g>
<!-- Node23&#45;&gt;Node22 -->
<g id="edge30" class="edge">
<title>Node23&#45;&gt;Node22</title>
<path fill="none" stroke="#63b8ff" d="M1117.4,-774.39C1114.56,-755.04 1109.91,-731.32 1102.5,-711 1094.65,-689.47 1082.75,-667.15 1071.6,-648.54"/>
<polygon fill="none" stroke="#63b8ff" points="1113.94,-774.92 1118.77,-784.35 1120.88,-773.97 1113.94,-774.92"/>
</g>
<!-- Node24 -->
<g id="node24" class="node">
<title>Node24</title>
<g id="a_node24"><a xlink:href="group__spatialpartitioning.html" target="_top" xlink:title=" ">
<polygon fill="white" stroke="#666666" points="1064.5,-922.5 1064.5,-1012.5 1178.5,-1012.5 1178.5,-922.5 1064.5,-922.5"/>
<text text-anchor="start" x="1072.5" y="-1000.5" font-family="Helvetica,sans-Serif" font-size="10.00">Ponca::QueryInput&lt;</text>
<text text-anchor="middle" x="1121.5" y="-989.5" font-family="Helvetica,sans-Serif" font-size="10.00"> int &gt;</text>
<polyline fill="none" stroke="#666666" points="1064.5,-982.5 1178.5,-982.5 "/>
<text text-anchor="middle" x="1121.5" y="-970.5" font-family="Helvetica,sans-Serif" font-size="10.00"> </text>
<polyline fill="none" stroke="#666666" points="1064.5,-963.5 1178.5,-963.5 "/>
<text text-anchor="start" x="1072.5" y="-951.5" font-family="Helvetica,sans-Serif" font-size="10.00">+ QueryInput()</text>
<text text-anchor="start" x="1072.5" y="-940.5" font-family="Helvetica,sans-Serif" font-size="10.00">+ input()</text>
<text text-anchor="start" x="1072.5" y="-929.5" font-family="Helvetica,sans-Serif" font-size="10.00"># editInput()</text>
</a>
</g>
</g>
<!-- Node24&#45;&gt;Node23 -->
<g id="edge31" class="edge">
<title>Node24&#45;&gt;Node23</title>
<path fill="none" stroke="#63b8ff" d="M1121.5,-912.37C1121.5,-888.46 1121.5,-861.38 1121.5,-841.69"/>
<polygon fill="none" stroke="#63b8ff" points="1118,-912.39 1121.5,-922.39 1125,-912.39 1118,-912.39"/>
</g>
<!-- Node25 -->
<g id="node25" class="node">
<title>Node25</title>
<g id="a_node25"><a xlink:href="group__spatialpartitioning.html#structPonca_1_1QueryInputBase" target="_top" xlink:title="Base class for queries input type.">
<polygon fill="white" stroke="#666666" points="1038.5,-1199.5 1038.5,-1256.5 1168.5,-1256.5 1168.5,-1199.5 1038.5,-1199.5"/>
<text text-anchor="middle" x="1103.5" y="-1244.5" font-family="Helvetica,sans-Serif" font-size="10.00">Ponca::QueryInputBase</text>
<polyline fill="none" stroke="#666666" points="1038.5,-1237.5 1168.5,-1237.5 "/>
<text text-anchor="middle" x="1103.5" y="-1225.5" font-family="Helvetica,sans-Serif" font-size="10.00"> </text>
<polyline fill="none" stroke="#666666" points="1038.5,-1218.5 1168.5,-1218.5 "/>
<text text-anchor="middle" x="1103.5" y="-1206.5" font-family="Helvetica,sans-Serif" font-size="10.00"> </text>
</a>
</g>
</g>
<!-- Node25&#45;&gt;Node24 -->
<g id="edge32" class="edge">
<title>Node25&#45;&gt;Node24</title>
<path fill="none" stroke="#63b8ff" d="M1104.54,-1189.22C1105.57,-1157.6 1107.44,-1111.32 1110.5,-1071 1111.96,-1051.82 1114.13,-1030.67 1116.16,-1012.59"/>
<polygon fill="none" stroke="#63b8ff" points="1101.04,-1189.25 1104.22,-1199.35 1108.03,-1189.47 1101.04,-1189.25"/>
</g>
<!-- Node26 -->
<g id="node26" class="node">
<title>Node26</title>
<g id="a_node26"><a xlink:href="group__spatialpartitioning.html#structPonca_1_1QueryInput" target="_top" xlink:title="Base class for typed queries input type.">
<polygon fill="white" stroke="#666666" points="1119.5,-1071.5 1119.5,-1161.5 1233.5,-1161.5 1233.5,-1071.5 1119.5,-1071.5"/>
<text text-anchor="start" x="1127.5" y="-1149.5" font-family="Helvetica,sans-Serif" font-size="10.00">Ponca::QueryInput&lt;</text>
<text text-anchor="middle" x="1176.5" y="-1138.5" font-family="Helvetica,sans-Serif" font-size="10.00"> InputType_ &gt;</text>
<polyline fill="none" stroke="#666666" points="1119.5,-1131.5 1233.5,-1131.5 "/>
<text text-anchor="middle" x="1176.5" y="-1119.5" font-family="Helvetica,sans-Serif" font-size="10.00"> </text>
<polyline fill="none" stroke="#666666" points="1119.5,-1112.5 1233.5,-1112.5 "/>
<text text-anchor="start" x="1127.5" y="-1100.5" font-family="Helvetica,sans-Serif" font-size="10.00">+ QueryInput()</text>
<text text-anchor="start" x="1127.5" y="-1089.5" font-family="Helvetica,sans-Serif" font-size="10.00">+ input()</text>
<text text-anchor="start" x="1127.5" y="-1078.5" font-family="Helvetica,sans-Serif" font-size="10.00"># editInput()</text>
</a>
</g>
</g>
<!-- Node25&#45;&gt;Node26 -->
<g id="edge34" class="edge">
<title>Node25&#45;&gt;Node26</title>
<path fill="none" stroke="#63b8ff" d="M1127.47,-1191.04C1133.72,-1181.68 1140.51,-1171.48 1147.01,-1161.74"/>
<polygon fill="none" stroke="#63b8ff" points="1124.56,-1189.11 1121.92,-1199.37 1130.38,-1192.99 1124.56,-1189.11"/>
</g>
<!-- Node26&#45;&gt;Node24 -->
<g id="edge33" class="edge">
<title>Node26&#45;&gt;Node24</title>
<path fill="none" stroke="orange" d="M1156.49,-1062.02C1150.41,-1045.78 1143.81,-1028.12 1137.99,-1012.57"/>
<polygon fill="orange" stroke="orange" points="1153.22,-1063.26 1160,-1071.4 1159.77,-1060.8 1153.22,-1063.26"/>
<text text-anchor="middle" x="1171" y="-1039.5" font-family="Helvetica,sans-Serif" font-size="10.00"> &lt; int &gt;</text>
</g>
<!-- Node27 -->
<g id="node27" class="node">
<title>Node27</title>
<g id="a_node27"><a xlink:href="group__spatialpartitioning.html#structPonca_1_1QueryOutputIsNearest" target="_top" xlink:title="Base class for nearest queries.">
<polygon fill="white" stroke="#666666" points="1210,-762.5 1210,-863.5 1371,-863.5 1371,-762.5 1210,-762.5"/>
<text text-anchor="start" x="1218" y="-851.5" font-family="Helvetica,sans-Serif" font-size="10.00">Ponca::QueryOutputIsNearest</text>
<text text-anchor="middle" x="1290.5" y="-840.5" font-family="Helvetica,sans-Serif" font-size="10.00">&lt; Scalar &gt;</text>
<polyline fill="none" stroke="#666666" points="1210,-833.5 1371,-833.5 "/>
<text text-anchor="start" x="1218" y="-821.5" font-family="Helvetica,sans-Serif" font-size="10.00"># m_nearest</text>
<text text-anchor="start" x="1218" y="-810.5" font-family="Helvetica,sans-Serif" font-size="10.00"># m_squared_distance</text>
<polyline fill="none" stroke="#666666" points="1210,-803.5 1371,-803.5 "/>
<text text-anchor="start" x="1218" y="-791.5" font-family="Helvetica,sans-Serif" font-size="10.00">+ QueryOutputIsNearest()</text>
<text text-anchor="start" x="1218" y="-780.5" font-family="Helvetica,sans-Serif" font-size="10.00">+ get()</text>
<text text-anchor="start" x="1218" y="-769.5" font-family="Helvetica,sans-Serif" font-size="10.00"># reset()</text>
</a>
</g>
</g>
<!-- Node27&#45;&gt;Node22 -->
<g id="edge35" class="edge">
<title>Node27&#45;&gt;Node22</title>
<path fill="none" stroke="#63b8ff" d="M1223.18,-755.68C1182.9,-721.97 1132.44,-679.76 1095.1,-648.51"/>
<polygon fill="none" stroke="#63b8ff" points="1221.18,-758.57 1231.1,-762.3 1225.67,-753.2 1221.18,-758.57"/>
</g>
<!-- Node28 -->
<g id="node28" class="node">
<title>Node28</title>
<g id="a_node28"><a xlink:href="group__spatialpartitioning.html#structPonca_1_1QueryOutputBase" target="_top" xlink:title="Base class for queries output type.">
<polygon fill="white" stroke="#666666" points="1221.5,-939 1221.5,-996 1359.5,-996 1359.5,-939 1221.5,-939"/>
<text text-anchor="middle" x="1290.5" y="-984" font-family="Helvetica,sans-Serif" font-size="10.00">Ponca::QueryOutputBase</text>
<polyline fill="none" stroke="#666666" points="1221.5,-977 1359.5,-977 "/>
<text text-anchor="middle" x="1290.5" y="-965" font-family="Helvetica,sans-Serif" font-size="10.00"> </text>
<polyline fill="none" stroke="#666666" points="1221.5,-958 1359.5,-958 "/>
<text text-anchor="middle" x="1290.5" y="-946" font-family="Helvetica,sans-Serif" font-size="10.00"> </text>
</a>
</g>
</g>
<!-- Node28&#45;&gt;Node27 -->
<g id="edge36" class="edge">
<title>Node28&#45;&gt;Node27</title>
<path fill="none" stroke="#63b8ff" d="M1290.5,-928.77C1290.5,-909.1 1290.5,-884.79 1290.5,-863.61"/>
<polygon fill="none" stroke="#63b8ff" points="1287,-928.88 1290.5,-938.88 1294,-928.88 1287,-928.88"/>
</g>
<!-- Node29&#45;&gt;Node22 -->
<g id="edge37" class="edge">
<title>Node29&#45;&gt;Node22</title>
<path fill="none" stroke="orange" d="M979.24,-763.31C981.65,-746.49 985.24,-727.68 990.5,-711 997.22,-689.71 1007.58,-667.34 1017.3,-648.62"/>
<polygon fill="orange" stroke="orange" points="975.73,-763.12 977.88,-773.49 982.67,-764.04 975.73,-763.12"/>
<text text-anchor="start" x="990.5" y="-736" font-family="Helvetica,sans-Serif" font-size="10.00"> &lt; QueryInputIsIndex,</text>
<text text-anchor="start" x="990.5" y="-725" font-family="Helvetica,sans-Serif" font-size="10.00"> QueryOutputIsNearest</text>
<text text-anchor="middle" x="1046.5" y="-714" font-family="Helvetica,sans-Serif" font-size="10.00">&lt; Scalar &gt; &gt;</text>
</g>
</g>
</svg>
