<?xml version="1.0" encoding="UTF-8" standalone="no"?>
<!DOCTYPE svg PUBLIC "-//W3C//DTD SVG 1.1//EN"
 "http://www.w3.org/Graphics/SVG/1.1/DTD/svg11.dtd">
<!-- Generated by graphviz version 2.43.0 (0)
 -->
<!-- Title: Ponca::DistWeightFunc&lt; DataPoint, WeightKernel &gt; Pages: 1 -->
<svg width="248pt" height="818pt"
 viewBox="0.00 0.00 248.00 818.00" xmlns="http://www.w3.org/2000/svg" xmlns:xlink="http://www.w3.org/1999/xlink">
<g id="graph0" class="graph" transform="scale(1 1) rotate(0) translate(4 814)">
<title>Ponca::DistWeightFunc&lt; DataPoint, WeightKernel &gt;</title>
<!-- Node1 -->
<g id="Node000001" class="node">
<title>Node1</title>
<g id="a_Node000001"><a xlink:title="Weight neighbors according to the Euclidean distance between a query and a reference position.">
<polygon fill="#999999" stroke="transparent" points="170,-638 18,-638 18,-428 170,-428 170,-638"/>
<text text-anchor="start" x="23" y="-626" font-family="Helvetica,sans-Serif" font-size="10.00">Ponca::DistWeightFunc</text>
<text text-anchor="start" x="23" y="-615" font-family="Helvetica,sans-Serif" font-size="10.00">&lt; DataPoint, WeightKernel &gt;</text>
<text text-anchor="start" x="33.5" y="-600" font-family="Helvetica,sans-Serif" font-size="10.00">+</text>
<text text-anchor="start" x="58" y="-600" font-family="Helvetica,sans-Serif" font-size="10.00">isCompact</text>
<text text-anchor="start" x="33.5" y="-585" font-family="Helvetica,sans-Serif" font-size="10.00">#</text>
<text text-anchor="start" x="58" y="-585" font-family="Helvetica,sans-Serif" font-size="10.00">m_t</text>
<text text-anchor="start" x="33.5" y="-570" font-family="Helvetica,sans-Serif" font-size="10.00">#</text>
<text text-anchor="start" x="58" y="-570" font-family="Helvetica,sans-Serif" font-size="10.00">m_wk</text>
<text text-anchor="start" x="33.5" y="-555" font-family="Helvetica,sans-Serif" font-size="10.00">+</text>
<text text-anchor="start" x="58" y="-555" font-family="Helvetica,sans-Serif" font-size="10.00">DistWeightFunc()</text>
<text text-anchor="start" x="33.5" y="-540" font-family="Helvetica,sans-Serif" font-size="10.00">+</text>
<text text-anchor="start" x="58" y="-540" font-family="Helvetica,sans-Serif" font-size="10.00">DistWeightFunc()</text>
<text text-anchor="start" x="33.5" y="-525" font-family="Helvetica,sans-Serif" font-size="10.00">+</text>
<text text-anchor="start" x="58" y="-525" font-family="Helvetica,sans-Serif" font-size="10.00">operator()()</text>
<text text-anchor="start" x="33.5" y="-510" font-family="Helvetica,sans-Serif" font-size="10.00">+</text>
<text text-anchor="start" x="58" y="-510" font-family="Helvetica,sans-Serif" font-size="10.00">spacedw()</text>
<text text-anchor="start" x="33.5" y="-495" font-family="Helvetica,sans-Serif" font-size="10.00">+</text>
<text text-anchor="start" x="58" y="-495" font-family="Helvetica,sans-Serif" font-size="10.00">spaced2w()</text>
<text text-anchor="start" x="33.5" y="-480" font-family="Helvetica,sans-Serif" font-size="10.00">+</text>
<text text-anchor="start" x="58" y="-480" font-family="Helvetica,sans-Serif" font-size="10.00">scaledw()</text>
<text text-anchor="start" x="33.5" y="-465" font-family="Helvetica,sans-Serif" font-size="10.00">+</text>
<text text-anchor="start" x="58" y="-465" font-family="Helvetica,sans-Serif" font-size="10.00">scaled2w()</text>
<text text-anchor="start" x="33.5" y="-450" font-family="Helvetica,sans-Serif" font-size="10.00">+</text>
<text text-anchor="start" x="58" y="-450" font-family="Helvetica,sans-Serif" font-size="10.00">scaleSpaced2w()</text>
<text text-anchor="start" x="33.5" y="-435" font-family="Helvetica,sans-Serif" font-size="10.00">+</text>
<text text-anchor="start" x="58" y="-435" font-family="Helvetica,sans-Serif" font-size="10.00">evalScale()</text>
<polygon fill="#666666" stroke="#666666" points="18,-610 18,-610 170,-610 170,-610 18,-610"/>
<polygon fill="#666666" stroke="#666666" points="18,-565 18,-565 56,-565 56,-565 18,-565"/>
<polygon fill="#666666" stroke="#666666" points="56,-565 56,-565 170,-565 170,-565 56,-565"/>
<polygon fill="none" stroke="#666666" points="18,-428 18,-638 170,-638 170,-428 18,-428"/>
</a>
</g>
</g>
<!-- Node3 -->
<g id="Node000003" class="node">
<title>Node3</title>
<g id="a_Node000003"><a xlink:href="classPonca_1_1DistWeightFunc.html" target="_top" xlink:title=" ">
<polygon fill="white" stroke="transparent" points="170.5,-370 17.5,-370 17.5,-149 170.5,-149 170.5,-370"/>
<text text-anchor="start" x="23" y="-357.5" font-family="Helvetica,sans-Serif" font-size="10.00">Ponca::DistWeightFunc</text>
<text text-anchor="start" x="23" y="-346.5" font-family="Helvetica,sans-Serif" font-size="10.00">&lt; DataPoint, ConstantWeight</text>
<text text-anchor="start" x="47" y="-335.5" font-family="Helvetica,sans-Serif" font-size="10.00">Kernel&lt; Scalar &gt; &gt;</text>
<text text-anchor="start" x="34" y="-320.5" font-family="Helvetica,sans-Serif" font-size="10.00">+</text>
<text text-anchor="start" x="59" y="-320.5" font-family="Helvetica,sans-Serif" font-size="10.00">isCompact</text>
<text text-anchor="start" x="34" y="-305.5" font-family="Helvetica,sans-Serif" font-size="10.00">#</text>
<text text-anchor="start" x="59" y="-305.5" font-family="Helvetica,sans-Serif" font-size="10.00">m_t</text>
<text text-anchor="start" x="34" y="-290.5" font-family="Helvetica,sans-Serif" font-size="10.00">#</text>
<text text-anchor="start" x="59" y="-290.5" font-family="Helvetica,sans-Serif" font-size="10.00">m_wk</text>
<text text-anchor="start" x="34" y="-275.5" font-family="Helvetica,sans-Serif" font-size="10.00">+</text>
<text text-anchor="start" x="59" y="-275.5" font-family="Helvetica,sans-Serif" font-size="10.00">DistWeightFunc()</text>
<text text-anchor="start" x="34" y="-260.5" font-family="Helvetica,sans-Serif" font-size="10.00">+</text>
<text text-anchor="start" x="59" y="-260.5" font-family="Helvetica,sans-Serif" font-size="10.00">DistWeightFunc()</text>
<text text-anchor="start" x="34" y="-245.5" font-family="Helvetica,sans-Serif" font-size="10.00">+</text>
<text text-anchor="start" x="59" y="-245.5" font-family="Helvetica,sans-Serif" font-size="10.00">operator()()</text>
<text text-anchor="start" x="34" y="-230.5" font-family="Helvetica,sans-Serif" font-size="10.00">+</text>
<text text-anchor="start" x="59" y="-230.5" font-family="Helvetica,sans-Serif" font-size="10.00">spacedw()</text>
<text text-anchor="start" x="34" y="-215.5" font-family="Helvetica,sans-Serif" font-size="10.00">+</text>
<text text-anchor="start" x="59" y="-215.5" font-family="Helvetica,sans-Serif" font-size="10.00">spaced2w()</text>
<text text-anchor="start" x="34" y="-200.5" font-family="Helvetica,sans-Serif" font-size="10.00">+</text>
<text text-anchor="start" x="59" y="-200.5" font-family="Helvetica,sans-Serif" font-size="10.00">scaledw()</text>
<text text-anchor="start" x="34" y="-185.5" font-family="Helvetica,sans-Serif" font-size="10.00">+</text>
<text text-anchor="start" x="59" y="-185.5" font-family="Helvetica,sans-Serif" font-size="10.00">scaled2w()</text>
<text text-anchor="start" x="34" y="-170.5" font-family="Helvetica,sans-Serif" font-size="10.00">+</text>
<text text-anchor="start" x="59" y="-170.5" font-family="Helvetica,sans-Serif" font-size="10.00">scaleSpaced2w()</text>
<text text-anchor="start" x="34" y="-155.5" font-family="Helvetica,sans-Serif" font-size="10.00">+</text>
<text text-anchor="start" x="59" y="-155.5" font-family="Helvetica,sans-Serif" font-size="10.00">evalScale()</text>
<polygon fill="#666666" stroke="#666666" points="18,-330.5 18,-330.5 171,-330.5 171,-330.5 18,-330.5"/>
<polygon fill="#666666" stroke="#666666" points="18,-285.5 18,-285.5 57,-285.5 57,-285.5 18,-285.5"/>
<polygon fill="#666666" stroke="#666666" points="57,-285.5 57,-285.5 171,-285.5 171,-285.5 57,-285.5"/>
<polygon fill="none" stroke="#666666" points="17.5,-149 17.5,-370 170.5,-370 170.5,-149 17.5,-149"/>
</a>
</g>
</g>
<!-- Node1&#45;&gt;Node3 -->
<g id="edge2_Node000001_Node000003" class="edge">
<title>Node1&#45;&gt;Node3</title>
<g id="a_edge2_Node000001_Node000003"><a xlink:title=" ">
<path fill="none" stroke="orange" d="M94,-417.58C94,-401.91 94,-385.85 94,-370.27"/>
<polygon fill="orange" stroke="orange" points="90.5,-417.81 94,-427.81 97.5,-417.81 90.5,-417.81"/>
</a>
</g>
<text text-anchor="start" x="94" y="-402" font-family="Helvetica,sans-Serif" font-size="10.00" fill="grey"> &lt; DataPoint, ConstantWeight</text>
<text text-anchor="middle" x="167" y="-391" font-family="Helvetica,sans-Serif" font-size="10.00" fill="grey">Kernel&lt; Scalar &gt; &gt;</text>
</g>
<!-- Node2 -->
<g id="Node000002" class="node">
<title>Node2</title>
<g id="a_Node000002"><a xlink:href="classPonca_1_1internal_1_1CenteredNeighborhoodFrame.html" target="_top" xlink:title="NeighborhoodFrame that express 3d points relatively to a prescribed center.">
<polygon fill="white" stroke="transparent" points="184,-810 4,-810 4,-675 184,-675 184,-810"/>
<text text-anchor="start" x="9" y="-797.5" font-family="Helvetica,sans-Serif" font-size="10.00">Ponca::internal::Centered</text>
<text text-anchor="start" x="9" y="-786.5" font-family="Helvetica,sans-Serif" font-size="10.00">NeighborhoodFrame&lt; DataPoint &gt;</text>
<text text-anchor="start" x="10" y="-771.5" font-family="Helvetica,sans-Serif" font-size="10.00">+</text>
<text text-anchor="start" x="25" y="-771.5" font-family="Helvetica,sans-Serif" font-size="10.00">hasLocalFrame</text>
<text text-anchor="start" x="10" y="-756.5" font-family="Helvetica,sans-Serif" font-size="10.00">+</text>
<text text-anchor="start" x="25" y="-756.5" font-family="Helvetica,sans-Serif" font-size="10.00">CenteredNeighborhoodFrame()</text>
<text text-anchor="start" x="10" y="-741.5" font-family="Helvetica,sans-Serif" font-size="10.00">+</text>
<text text-anchor="start" x="25" y="-741.5" font-family="Helvetica,sans-Serif" font-size="10.00">CenteredNeighborhoodFrame()</text>
<text text-anchor="start" x="10" y="-726.5" font-family="Helvetica,sans-Serif" font-size="10.00">+</text>
<text text-anchor="start" x="25" y="-726.5" font-family="Helvetica,sans-Serif" font-size="10.00">changeNeighborhoodFrame()</text>
<text text-anchor="start" x="10" y="-711.5" font-family="Helvetica,sans-Serif" font-size="10.00">+</text>
<text text-anchor="start" x="25" y="-711.5" font-family="Helvetica,sans-Serif" font-size="10.00">convertToGlobalBasis()</text>
<text text-anchor="start" x="10" y="-696.5" font-family="Helvetica,sans-Serif" font-size="10.00">+</text>
<text text-anchor="start" x="25" y="-696.5" font-family="Helvetica,sans-Serif" font-size="10.00">convertToLocalBasis()</text>
<text text-anchor="start" x="10" y="-681.5" font-family="Helvetica,sans-Serif" font-size="10.00">+</text>
<text text-anchor="start" x="25" y="-681.5" font-family="Helvetica,sans-Serif" font-size="10.00">evalPos()</text>
<polygon fill="#666666" stroke="#666666" points="4,-781.5 4,-781.5 184,-781.5 184,-781.5 4,-781.5"/>
<polygon fill="#666666" stroke="#666666" points="4,-766.5 4,-766.5 23,-766.5 23,-766.5 4,-766.5"/>
<polygon fill="#666666" stroke="#666666" points="23,-766.5 23,-766.5 184,-766.5 184,-766.5 23,-766.5"/>
<polygon fill="none" stroke="#666666" points="4,-675 4,-810 184,-810 184,-675 4,-675"/>
</a>
</g>
</g>
<!-- Node2&#45;&gt;Node1 -->
<g id="edge1_Node000001_Node000002" class="edge">
<title>Node2&#45;&gt;Node1</title>
<g id="a_edge1_Node000001_Node000002"><a xlink:title=" ">
<path fill="none" stroke="#63b8ff" d="M94,-664.93C94,-656.24 94,-647.28 94,-638.31"/>
<polygon fill="none" stroke="#63b8ff" points="90.5,-664.99 94,-674.99 97.5,-664.99 90.5,-664.99"/>
</a>
</g>
</g>
<!-- Node4 -->
<g id="Node000004" class="node">
<title>Node4</title>
<g id="a_Node000004"><a xlink:href="classPonca_1_1NeighborFilterStoreNormal.html" target="_top" xlink:title=" ">
<polygon fill="white" stroke="transparent" points="188,-112 0,-112 0,0 188,0 188,-112"/>
<text text-anchor="start" x="5" y="-100" font-family="Helvetica,sans-Serif" font-size="10.00">Ponca::NeighborFilterStore</text>
<text text-anchor="start" x="5" y="-89" font-family="Helvetica,sans-Serif" font-size="10.00">Normal&lt; DataPoint, DistWeightFunc</text>
<text text-anchor="start" x="5" y="-78" font-family="Helvetica,sans-Serif" font-size="10.00">&lt; DataPoint, ConstantWeightKernel</text>
<text text-anchor="start" x="56" y="-67" font-family="Helvetica,sans-Serif" font-size="10.00">&lt; Scalar &gt; &gt; &gt;</text>
<text text-anchor="start" x="11" y="-52" font-family="Helvetica,sans-Serif" font-size="10.00">#</text>
<text text-anchor="start" x="31" y="-52" font-family="Helvetica,sans-Serif" font-size="10.00">m_n</text>
<text text-anchor="start" x="11" y="-37" font-family="Helvetica,sans-Serif" font-size="10.00">+</text>
<text text-anchor="start" x="31" y="-37" font-family="Helvetica,sans-Serif" font-size="10.00">NeighborFilterStoreNormal()</text>
<text text-anchor="start" x="11" y="-22" font-family="Helvetica,sans-Serif" font-size="10.00">+</text>
<text text-anchor="start" x="31" y="-22" font-family="Helvetica,sans-Serif" font-size="10.00">NeighborFilterStoreNormal()</text>
<text text-anchor="start" x="11" y="-7" font-family="Helvetica,sans-Serif" font-size="10.00">+</text>
<text text-anchor="start" x="31" y="-7" font-family="Helvetica,sans-Serif" font-size="10.00">evalNormal()</text>
<polygon fill="#666666" stroke="#666666" points="0,-62 0,-62 188,-62 188,-62 0,-62"/>
<polygon fill="#666666" stroke="#666666" points="0,-47 0,-47 29,-47 29,-47 0,-47"/>
<polygon fill="#666666" stroke="#666666" points="29,-47 29,-47 188,-47 188,-47 29,-47"/>
<polygon fill="none" stroke="#666666" points="0,0 0,-112 188,-112 188,0 0,0"/>
</a>
</g>
</g>
<!-- Node3&#45;&gt;Node4 -->
<g id="edge3_Node000003_Node000004" class="edge">
<title>Node3&#45;&gt;Node4</title>
<g id="a_edge3_Node000003_Node000004"><a xlink:title=" ">
<path fill="none" stroke="#63b8ff" d="M94,-138.81C94,-129.57 94,-120.55 94,-112.08"/>
<polygon fill="none" stroke="#63b8ff" points="90.5,-138.91 94,-148.91 97.5,-138.91 90.5,-138.91"/>
</a>
</g>
</g>
</g>
</svg>
