<?xml version="1.0" encoding="UTF-8" standalone="no"?>
<!DOCTYPE svg PUBLIC "-//W3C//DTD SVG 1.1//EN"
 "http://www.w3.org/Graphics/SVG/1.1/DTD/svg11.dtd">
<!-- Generated by graphviz version 2.43.0 (0)
 -->
<!-- Title: Ponca::KnnGraphRangeQuery&lt; Traits &gt; Pages: 1 -->
<svg width="650pt" height="1089pt"
 viewBox="0.00 0.00 649.50 1089.00" xmlns="http://www.w3.org/2000/svg" xmlns:xlink="http://www.w3.org/1999/xlink">
<g id="graph0" class="graph" transform="scale(1 1) rotate(0) translate(4 1085)">
<title>Ponca::KnnGraphRangeQuery&lt; Traits &gt;</title>
<!-- Node1 -->
<g id="node1" class="node">
<title>Node1</title>
<g id="a_node1"><a xlink:title=" ">
<polygon fill="#999999" stroke="#666666" points="338.5,-0.5 338.5,-112.5 498.5,-112.5 498.5,-0.5 338.5,-0.5"/>
<text text-anchor="start" x="346.5" y="-100.5" font-family="Helvetica,sans-Serif" font-size="10.00">Ponca::KnnGraphRangeQuery</text>
<text text-anchor="middle" x="418.5" y="-89.5" font-family="Helvetica,sans-Serif" font-size="10.00">&lt; Traits &gt;</text>
<polyline fill="none" stroke="#666666" points="338.5,-82.5 498.5,-82.5 "/>
<text text-anchor="start" x="346.5" y="-70.5" font-family="Helvetica,sans-Serif" font-size="10.00"># m_graph</text>
<polyline fill="none" stroke="#666666" points="338.5,-63.5 498.5,-63.5 "/>
<text text-anchor="start" x="346.5" y="-51.5" font-family="Helvetica,sans-Serif" font-size="10.00">+ KnnGraphRangeQuery()</text>
<text text-anchor="start" x="346.5" y="-40.5" font-family="Helvetica,sans-Serif" font-size="10.00">+ begin()</text>
<text text-anchor="start" x="346.5" y="-29.5" font-family="Helvetica,sans-Serif" font-size="10.00">+ end()</text>
<text text-anchor="start" x="346.5" y="-18.5" font-family="Helvetica,sans-Serif" font-size="10.00"># initialize()</text>
<text text-anchor="start" x="346.5" y="-7.5" font-family="Helvetica,sans-Serif" font-size="10.00"># advance()</text>
</a>
</g>
</g>
<!-- Node2 -->
<g id="node2" class="node">
<title>Node2</title>
<g id="a_node2"><a xlink:href="group__spatialpartitioning.html" target="_top" xlink:title=" ">
<polygon fill="white" stroke="#666666" points="214.5,-160.5 214.5,-239.5 356.5,-239.5 356.5,-160.5 214.5,-160.5"/>
<text text-anchor="start" x="222.5" y="-227.5" font-family="Helvetica,sans-Serif" font-size="10.00">Ponca::RangeIndexQuery</text>
<text text-anchor="start" x="222.5" y="-216.5" font-family="Helvetica,sans-Serif" font-size="10.00">&lt; Traits::IndexType, Traits</text>
<text text-anchor="middle" x="285.5" y="-205.5" font-family="Helvetica,sans-Serif" font-size="10.00">::DataPoint::Scalar &gt;</text>
<polyline fill="none" stroke="#666666" points="214.5,-198.5 356.5,-198.5 "/>
<text text-anchor="middle" x="285.5" y="-186.5" font-family="Helvetica,sans-Serif" font-size="10.00"> </text>
<polyline fill="none" stroke="#666666" points="214.5,-179.5 356.5,-179.5 "/>
<text text-anchor="middle" x="285.5" y="-167.5" font-family="Helvetica,sans-Serif" font-size="10.00"> </text>
</a>
</g>
</g>
<!-- Node2&#45;&gt;Node1 -->
<g id="edge1" class="edge">
<title>Node2&#45;&gt;Node1</title>
<path fill="none" stroke="#63b8ff" d="M328.82,-152.91C340.93,-140.03 354.2,-125.9 366.75,-112.56"/>
<polygon fill="none" stroke="#63b8ff" points="326.14,-150.65 321.84,-160.33 331.24,-155.45 326.14,-150.65"/>
</g>
<!-- Node3 -->
<g id="node3" class="node">
<title>Node3</title>
<g id="a_node3"><a xlink:href="group__spatialpartitioning.html#structPonca_1_1Query" target="_top" xlink:title=" ">
<polygon fill="white" stroke="#bfbfbf" points="0,-613 0,-692 117,-692 117,-613 0,-613"/>
<text text-anchor="start" x="8" y="-680" font-family="Helvetica,sans-Serif" font-size="10.00">Ponca::Query&lt; Input</text>
<text text-anchor="middle" x="58.5" y="-669" font-family="Helvetica,sans-Serif" font-size="10.00">_, Output_ &gt;</text>
<polyline fill="none" stroke="#bfbfbf" points="0,-662 117,-662 "/>
<text text-anchor="middle" x="58.5" y="-650" font-family="Helvetica,sans-Serif" font-size="10.00"> </text>
<polyline fill="none" stroke="#bfbfbf" points="0,-643 117,-643 "/>
<text text-anchor="start" x="8" y="-631" font-family="Helvetica,sans-Serif" font-size="10.00">+ Query()</text>
<text text-anchor="start" x="8" y="-620" font-family="Helvetica,sans-Serif" font-size="10.00">+ Query()</text>
</a>
</g>
</g>
<!-- Node3&#45;&gt;Node2 -->
<g id="edge2" class="edge">
<title>Node3&#45;&gt;Node2</title>
<path fill="none" stroke="#63b8ff" d="M76.27,-603.26C101.97,-535.61 152.68,-409.58 209.5,-309 223.03,-285.05 240.58,-259.82 255.4,-239.77"/>
<polygon fill="none" stroke="#63b8ff" points="72.92,-602.22 72.66,-612.81 79.47,-604.69 72.92,-602.22"/>
</g>
<!-- Node4 -->
<g id="node4" class="node">
<title>Node4</title>
<g id="a_node4"><a xlink:title=" ">
<polygon fill="white" stroke="#bfbfbf" points="131,-774 131,-831 178,-831 178,-774 131,-774"/>
<text text-anchor="middle" x="154.5" y="-819" font-family="Helvetica,sans-Serif" font-size="10.00">Input_</text>
<polyline fill="none" stroke="#bfbfbf" points="131,-812 178,-812 "/>
<text text-anchor="middle" x="154.5" y="-800" font-family="Helvetica,sans-Serif" font-size="10.00"> </text>
<polyline fill="none" stroke="#bfbfbf" points="131,-793 178,-793 "/>
<text text-anchor="middle" x="154.5" y="-781" font-family="Helvetica,sans-Serif" font-size="10.00"> </text>
</a>
</g>
</g>
<!-- Node4&#45;&gt;Node3 -->
<g id="edge3" class="edge">
<title>Node4&#45;&gt;Node3</title>
<path fill="none" stroke="#63b8ff" d="M130.94,-765.19C116.56,-743.01 98.19,-714.68 83.54,-692.1"/>
<polygon fill="none" stroke="#63b8ff" points="128.06,-767.18 136.44,-773.66 133.94,-763.37 128.06,-767.18"/>
</g>
<!-- Node14 -->
<g id="node14" class="node">
<title>Node14</title>
<g id="a_node14"><a xlink:href="group__spatialpartitioning.html#structPonca_1_1Query" target="_top" xlink:title=" ">
<polygon fill="white" stroke="#bfbfbf" points="135,-613 135,-692 252,-692 252,-613 135,-613"/>
<text text-anchor="start" x="143" y="-680" font-family="Helvetica,sans-Serif" font-size="10.00">Ponca::Query&lt; Input</text>
<text text-anchor="middle" x="193.5" y="-669" font-family="Helvetica,sans-Serif" font-size="10.00">_, Output_ &gt;</text>
<polyline fill="none" stroke="#bfbfbf" points="135,-662 252,-662 "/>
<text text-anchor="middle" x="193.5" y="-650" font-family="Helvetica,sans-Serif" font-size="10.00"> </text>
<polyline fill="none" stroke="#bfbfbf" points="135,-643 252,-643 "/>
<text text-anchor="start" x="143" y="-631" font-family="Helvetica,sans-Serif" font-size="10.00">+ Query()</text>
<text text-anchor="start" x="143" y="-620" font-family="Helvetica,sans-Serif" font-size="10.00">+ Query()</text>
</a>
</g>
</g>
<!-- Node4&#45;&gt;Node14 -->
<g id="edge15" class="edge">
<title>Node4&#45;&gt;Node14</title>
<path fill="none" stroke="#63b8ff" d="M164.46,-763.71C170.24,-741.76 177.51,-714.18 183.33,-692.1"/>
<polygon fill="none" stroke="#63b8ff" points="161,-763.1 161.84,-773.66 167.77,-764.88 161,-763.1"/>
</g>
<!-- Node5 -->
<g id="node5" class="node">
<title>Node5</title>
<g id="a_node5"><a xlink:title=" ">
<polygon fill="white" stroke="#bfbfbf" points="53,-774 53,-831 108,-831 108,-774 53,-774"/>
<text text-anchor="middle" x="80.5" y="-819" font-family="Helvetica,sans-Serif" font-size="10.00">Output_</text>
<polyline fill="none" stroke="#bfbfbf" points="53,-812 108,-812 "/>
<text text-anchor="middle" x="80.5" y="-800" font-family="Helvetica,sans-Serif" font-size="10.00"> </text>
<polyline fill="none" stroke="#bfbfbf" points="53,-793 108,-793 "/>
<text text-anchor="middle" x="80.5" y="-781" font-family="Helvetica,sans-Serif" font-size="10.00"> </text>
</a>
</g>
</g>
<!-- Node5&#45;&gt;Node3 -->
<g id="edge4" class="edge">
<title>Node5&#45;&gt;Node3</title>
<path fill="none" stroke="#63b8ff" d="M74.88,-763.71C71.62,-741.76 67.52,-714.18 64.24,-692.1"/>
<polygon fill="none" stroke="#63b8ff" points="71.43,-764.29 76.36,-773.66 78.35,-763.26 71.43,-764.29"/>
</g>
<!-- Node5&#45;&gt;Node14 -->
<g id="edge16" class="edge">
<title>Node5&#45;&gt;Node14</title>
<path fill="none" stroke="#63b8ff" d="M108,-765.48C124.96,-743.26 146.71,-714.78 164.03,-692.1"/>
<polygon fill="none" stroke="#63b8ff" points="105.04,-763.59 101.75,-773.66 110.6,-767.84 105.04,-763.59"/>
</g>
<!-- Node6 -->
<g id="node6" class="node">
<title>Node6</title>
<g id="a_node6"><a xlink:href="group__spatialpartitioning.html#structPonca_1_1RangeIndexQuery" target="_top" xlink:title="Base Query class combining QueryInputIsIndex and QueryOutputIsRange.">
<polygon fill="white" stroke="#666666" points="219,-309.5 219,-377.5 358,-377.5 358,-309.5 219,-309.5"/>
<text text-anchor="start" x="227" y="-365.5" font-family="Helvetica,sans-Serif" font-size="10.00">Ponca::RangeIndexQuery</text>
<text text-anchor="middle" x="288.5" y="-354.5" font-family="Helvetica,sans-Serif" font-size="10.00">&lt; Index, Scalar &gt;</text>
<polyline fill="none" stroke="#666666" points="219,-347.5 358,-347.5 "/>
<text text-anchor="middle" x="288.5" y="-335.5" font-family="Helvetica,sans-Serif" font-size="10.00"> </text>
<polyline fill="none" stroke="#666666" points="219,-328.5 358,-328.5 "/>
<text text-anchor="middle" x="288.5" y="-316.5" font-family="Helvetica,sans-Serif" font-size="10.00"> </text>
</a>
</g>
</g>
<!-- Node6&#45;&gt;Node2 -->
<g id="edge5" class="edge">
<title>Node6&#45;&gt;Node2</title>
<path fill="none" stroke="orange" d="M287.58,-299.16C287.18,-280.2 286.71,-258.14 286.32,-239.73"/>
<polygon fill="orange" stroke="orange" points="284.09,-299.4 287.8,-309.32 291.08,-299.25 284.09,-299.4"/>
<text text-anchor="start" x="287.5" y="-283" font-family="Helvetica,sans-Serif" font-size="10.00"> &lt; Traits::IndexType,</text>
<text text-anchor="start" x="287.5" y="-272" font-family="Helvetica,sans-Serif" font-size="10.00"> Traits::DataPoint::</text>
<text text-anchor="middle" x="337.5" y="-261" font-family="Helvetica,sans-Serif" font-size="10.00">Scalar &gt;</text>
</g>
<!-- Node7 -->
<g id="node7" class="node">
<title>Node7</title>
<g id="a_node7"><a xlink:href="group__spatialpartitioning.html" target="_top" xlink:title=" ">
<polygon fill="white" stroke="#bfbfbf" points="210.5,-425.5 210.5,-515.5 380.5,-515.5 380.5,-425.5 210.5,-425.5"/>
<text text-anchor="start" x="218.5" y="-503.5" font-family="Helvetica,sans-Serif" font-size="10.00">Ponca::Query&lt; QueryInput</text>
<text text-anchor="start" x="218.5" y="-492.5" font-family="Helvetica,sans-Serif" font-size="10.00">IsIndex&lt; Index &gt;, QueryOutput</text>
<text text-anchor="middle" x="295.5" y="-481.5" font-family="Helvetica,sans-Serif" font-size="10.00">IsRange&lt; Index, Scalar &gt; &gt;</text>
<polyline fill="none" stroke="#bfbfbf" points="210.5,-474.5 380.5,-474.5 "/>
<text text-anchor="middle" x="295.5" y="-462.5" font-family="Helvetica,sans-Serif" font-size="10.00"> </text>
<polyline fill="none" stroke="#bfbfbf" points="210.5,-455.5 380.5,-455.5 "/>
<text text-anchor="start" x="218.5" y="-443.5" font-family="Helvetica,sans-Serif" font-size="10.00">+ Query()</text>
<text text-anchor="start" x="218.5" y="-432.5" font-family="Helvetica,sans-Serif" font-size="10.00">+ Query()</text>
</a>
</g>
</g>
<!-- Node7&#45;&gt;Node6 -->
<g id="edge6" class="edge">
<title>Node7&#45;&gt;Node6</title>
<path fill="none" stroke="#63b8ff" d="M292.46,-415.28C291.74,-402.44 291,-389.13 290.35,-377.57"/>
<polygon fill="none" stroke="#63b8ff" points="288.98,-415.64 293.03,-425.43 295.97,-415.25 288.98,-415.64"/>
</g>
<!-- Node8 -->
<g id="node8" class="node">
<title>Node8</title>
<g id="a_node8"><a xlink:href="group__spatialpartitioning.html#structPonca_1_1QueryInputIsIndex" target="_top" xlink:title="Base class for queries storing points.">
<polygon fill="white" stroke="#666666" points="459,-607.5 459,-697.5 600,-697.5 600,-607.5 459,-607.5"/>
<text text-anchor="start" x="467" y="-685.5" font-family="Helvetica,sans-Serif" font-size="10.00">Ponca::QueryInputIsIndex</text>
<text text-anchor="middle" x="529.5" y="-674.5" font-family="Helvetica,sans-Serif" font-size="10.00">&lt; Index &gt;</text>
<polyline fill="none" stroke="#666666" points="459,-667.5 600,-667.5 "/>
<text text-anchor="middle" x="529.5" y="-655.5" font-family="Helvetica,sans-Serif" font-size="10.00"> </text>
<polyline fill="none" stroke="#666666" points="459,-648.5 600,-648.5 "/>
<text text-anchor="start" x="467" y="-636.5" font-family="Helvetica,sans-Serif" font-size="10.00">+ QueryInputIsIndex()</text>
<text text-anchor="start" x="467" y="-625.5" font-family="Helvetica,sans-Serif" font-size="10.00"># skipIndexFunctor()</text>
<text text-anchor="start" x="467" y="-614.5" font-family="Helvetica,sans-Serif" font-size="10.00"># getInputPosition()</text>
</a>
</g>
</g>
<!-- Node8&#45;&gt;Node7 -->
<g id="edge7" class="edge">
<title>Node8&#45;&gt;Node7</title>
<path fill="none" stroke="#63b8ff" d="M469.53,-601.01C462.81,-595.55 456.04,-590.12 449.5,-585 419.56,-561.55 385.59,-536.38 357.19,-515.71"/>
<polygon fill="none" stroke="#63b8ff" points="467.4,-603.79 477.36,-607.42 471.83,-598.38 467.4,-603.79"/>
</g>
<!-- Node9 -->
<g id="node9" class="node">
<title>Node9</title>
<g id="a_node9"><a xlink:href="group__spatialpartitioning.html" target="_top" xlink:title=" ">
<polygon fill="white" stroke="#666666" points="472.5,-757.5 472.5,-847.5 586.5,-847.5 586.5,-757.5 472.5,-757.5"/>
<text text-anchor="start" x="480.5" y="-835.5" font-family="Helvetica,sans-Serif" font-size="10.00">Ponca::QueryInput&lt;</text>
<text text-anchor="middle" x="529.5" y="-824.5" font-family="Helvetica,sans-Serif" font-size="10.00"> Index &gt;</text>
<polyline fill="none" stroke="#666666" points="472.5,-817.5 586.5,-817.5 "/>
<text text-anchor="middle" x="529.5" y="-805.5" font-family="Helvetica,sans-Serif" font-size="10.00"> </text>
<polyline fill="none" stroke="#666666" points="472.5,-798.5 586.5,-798.5 "/>
<text text-anchor="start" x="480.5" y="-786.5" font-family="Helvetica,sans-Serif" font-size="10.00">+ QueryInput()</text>
<text text-anchor="start" x="480.5" y="-775.5" font-family="Helvetica,sans-Serif" font-size="10.00">+ input()</text>
<text text-anchor="start" x="480.5" y="-764.5" font-family="Helvetica,sans-Serif" font-size="10.00"># editInput()</text>
</a>
</g>
</g>
<!-- Node9&#45;&gt;Node8 -->
<g id="edge8" class="edge">
<title>Node9&#45;&gt;Node8</title>
<path fill="none" stroke="#63b8ff" d="M529.5,-747.5C529.5,-731.09 529.5,-713.26 529.5,-697.59"/>
<polygon fill="none" stroke="#63b8ff" points="526,-747.5 529.5,-757.5 533,-747.5 526,-747.5"/>
</g>
<!-- Node10 -->
<g id="node10" class="node">
<title>Node10</title>
<g id="a_node10"><a xlink:href="group__spatialpartitioning.html#structPonca_1_1QueryInputBase" target="_top" xlink:title="Base class for queries input type.">
<polygon fill="white" stroke="#666666" points="446.5,-1023.5 446.5,-1080.5 576.5,-1080.5 576.5,-1023.5 446.5,-1023.5"/>
<text text-anchor="middle" x="511.5" y="-1068.5" font-family="Helvetica,sans-Serif" font-size="10.00">Ponca::QueryInputBase</text>
<polyline fill="none" stroke="#666666" points="446.5,-1061.5 576.5,-1061.5 "/>
<text text-anchor="middle" x="511.5" y="-1049.5" font-family="Helvetica,sans-Serif" font-size="10.00"> </text>
<polyline fill="none" stroke="#666666" points="446.5,-1042.5 576.5,-1042.5 "/>
<text text-anchor="middle" x="511.5" y="-1030.5" font-family="Helvetica,sans-Serif" font-size="10.00"> </text>
</a>
</g>
</g>
<!-- Node10&#45;&gt;Node9 -->
<g id="edge9" class="edge">
<title>Node10&#45;&gt;Node9</title>
<path fill="none" stroke="#63b8ff" d="M512.4,-1013.21C513.35,-981.59 515.18,-935.3 518.5,-895 519.77,-879.53 521.66,-862.65 523.52,-847.65"/>
<polygon fill="none" stroke="#63b8ff" points="508.9,-1013.25 512.12,-1023.34 515.9,-1013.45 508.9,-1013.25"/>
</g>
<!-- Node11 -->
<g id="node11" class="node">
<title>Node11</title>
<g id="a_node11"><a xlink:href="group__spatialpartitioning.html#structPonca_1_1QueryInput" target="_top" xlink:title="Base class for typed queries input type.">
<polygon fill="white" stroke="#666666" points="527.5,-895.5 527.5,-985.5 641.5,-985.5 641.5,-895.5 527.5,-895.5"/>
<text text-anchor="start" x="535.5" y="-973.5" font-family="Helvetica,sans-Serif" font-size="10.00">Ponca::QueryInput&lt;</text>
<text text-anchor="middle" x="584.5" y="-962.5" font-family="Helvetica,sans-Serif" font-size="10.00"> InputType_ &gt;</text>
<polyline fill="none" stroke="#666666" points="527.5,-955.5 641.5,-955.5 "/>
<text text-anchor="middle" x="584.5" y="-943.5" font-family="Helvetica,sans-Serif" font-size="10.00"> </text>
<polyline fill="none" stroke="#666666" points="527.5,-936.5 641.5,-936.5 "/>
<text text-anchor="start" x="535.5" y="-924.5" font-family="Helvetica,sans-Serif" font-size="10.00">+ QueryInput()</text>
<text text-anchor="start" x="535.5" y="-913.5" font-family="Helvetica,sans-Serif" font-size="10.00">+ input()</text>
<text text-anchor="start" x="535.5" y="-902.5" font-family="Helvetica,sans-Serif" font-size="10.00"># editInput()</text>
</a>
</g>
</g>
<!-- Node10&#45;&gt;Node11 -->
<g id="edge11" class="edge">
<title>Node10&#45;&gt;Node11</title>
<path fill="none" stroke="#63b8ff" d="M535.47,-1015.04C541.72,-1005.68 548.51,-995.48 555.01,-985.74"/>
<polygon fill="none" stroke="#63b8ff" points="532.56,-1013.11 529.92,-1023.37 538.38,-1016.99 532.56,-1013.11"/>
</g>
<!-- Node11&#45;&gt;Node9 -->
<g id="edge10" class="edge">
<title>Node11&#45;&gt;Node9</title>
<path fill="none" stroke="orange" d="M562.82,-885.89C557.73,-873.3 552.36,-860.03 547.46,-847.9"/>
<polygon fill="orange" stroke="orange" points="559.65,-887.39 566.64,-895.34 566.14,-884.76 559.65,-887.39"/>
<text text-anchor="middle" x="585" y="-869" font-family="Helvetica,sans-Serif" font-size="10.00"> &lt; Index &gt;</text>
</g>
<!-- Node12 -->
<g id="node12" class="node">
<title>Node12</title>
<g id="a_node12"><a xlink:href="group__spatialpartitioning.html#structPonca_1_1QueryOutputIsRange" target="_top" xlink:title="Base class for range queries.">
<polygon fill="white" stroke="#666666" points="276.5,-585.5 276.5,-719.5 440.5,-719.5 440.5,-585.5 276.5,-585.5"/>
<text text-anchor="start" x="284.5" y="-707.5" font-family="Helvetica,sans-Serif" font-size="10.00">Ponca::QueryOutputIsRange</text>
<text text-anchor="middle" x="358.5" y="-696.5" font-family="Helvetica,sans-Serif" font-size="10.00">&lt; Index, Scalar &gt;</text>
<polyline fill="none" stroke="#666666" points="276.5,-689.5 440.5,-689.5 "/>
<text text-anchor="start" x="284.5" y="-677.5" font-family="Helvetica,sans-Serif" font-size="10.00"># m_squared_radius</text>
<polyline fill="none" stroke="#666666" points="276.5,-670.5 440.5,-670.5 "/>
<text text-anchor="start" x="284.5" y="-658.5" font-family="Helvetica,sans-Serif" font-size="10.00">+ QueryOutputIsRange()</text>
<text text-anchor="start" x="284.5" y="-647.5" font-family="Helvetica,sans-Serif" font-size="10.00">+ radius()</text>
<text text-anchor="start" x="284.5" y="-636.5" font-family="Helvetica,sans-Serif" font-size="10.00">+ squared_radius()</text>
<text text-anchor="start" x="284.5" y="-625.5" font-family="Helvetica,sans-Serif" font-size="10.00">+ set_radius()</text>
<text text-anchor="start" x="284.5" y="-614.5" font-family="Helvetica,sans-Serif" font-size="10.00">+ set_squared_radius()</text>
<text text-anchor="start" x="284.5" y="-603.5" font-family="Helvetica,sans-Serif" font-size="10.00"># reset()</text>
<text text-anchor="start" x="284.5" y="-592.5" font-family="Helvetica,sans-Serif" font-size="10.00"># descentDistanceThreshold()</text>
</a>
</g>
</g>
<!-- Node12&#45;&gt;Node7 -->
<g id="edge12" class="edge">
<title>Node12&#45;&gt;Node7</title>
<path fill="none" stroke="#63b8ff" d="M358.06,-575.28C356.12,-561.19 352.84,-546.87 347.5,-534 344.9,-527.74 341.45,-521.63 337.55,-515.84"/>
<polygon fill="none" stroke="#63b8ff" points="354.62,-575.95 359.24,-585.48 361.57,-575.14 354.62,-575.95"/>
</g>
<!-- Node13 -->
<g id="node13" class="node">
<title>Node13</title>
<g id="a_node13"><a xlink:href="group__spatialpartitioning.html#structPonca_1_1QueryOutputBase" target="_top" xlink:title="Base class for queries output type.">
<polygon fill="white" stroke="#666666" points="289.5,-774 289.5,-831 427.5,-831 427.5,-774 289.5,-774"/>
<text text-anchor="middle" x="358.5" y="-819" font-family="Helvetica,sans-Serif" font-size="10.00">Ponca::QueryOutputBase</text>
<polyline fill="none" stroke="#666666" points="289.5,-812 427.5,-812 "/>
<text text-anchor="middle" x="358.5" y="-800" font-family="Helvetica,sans-Serif" font-size="10.00"> </text>
<polyline fill="none" stroke="#666666" points="289.5,-793 427.5,-793 "/>
<text text-anchor="middle" x="358.5" y="-781" font-family="Helvetica,sans-Serif" font-size="10.00"> </text>
</a>
</g>
</g>
<!-- Node13&#45;&gt;Node12 -->
<g id="edge13" class="edge">
<title>Node13&#45;&gt;Node12</title>
<path fill="none" stroke="#63b8ff" d="M358.5,-763.43C358.5,-750.05 358.5,-734.61 358.5,-719.6"/>
<polygon fill="none" stroke="#63b8ff" points="355,-763.66 358.5,-773.66 362,-763.66 355,-763.66"/>
</g>
<!-- Node14&#45;&gt;Node7 -->
<g id="edge14" class="edge">
<title>Node14&#45;&gt;Node7</title>
<path fill="none" stroke="orange" d="M178.82,-602.78C174.94,-580.46 174.64,-554.47 186.5,-534 192.46,-523.71 200.82,-514.97 210.29,-507.59"/>
<polygon fill="orange" stroke="orange" points="175.43,-603.64 180.83,-612.75 182.29,-602.26 175.43,-603.64"/>
<text text-anchor="start" x="186.5" y="-559" font-family="Helvetica,sans-Serif" font-size="10.00"> &lt; QueryInputIsIndex</text>
<text text-anchor="start" x="186.5" y="-548" font-family="Helvetica,sans-Serif" font-size="10.00">&lt; Index &gt;, QueryOutputIsRange</text>
<text text-anchor="middle" x="265" y="-537" font-family="Helvetica,sans-Serif" font-size="10.00">&lt; Index, Scalar &gt; &gt;</text>
</g>
<!-- Node15 -->
<g id="node15" class="node">
<title>Node15</title>
<g id="a_node15"><a xlink:title=" ">
<polygon fill="white" stroke="#666666" points="374.5,-171.5 374.5,-228.5 462.5,-228.5 462.5,-171.5 374.5,-171.5"/>
<text text-anchor="middle" x="418.5" y="-216.5" font-family="Helvetica,sans-Serif" font-size="10.00">std::set&lt; int &gt;</text>
<polyline fill="none" stroke="#666666" points="374.5,-209.5 462.5,-209.5 "/>
<text text-anchor="start" x="382.5" y="-197.5" font-family="Helvetica,sans-Serif" font-size="10.00">+ keys</text>
<polyline fill="none" stroke="#666666" points="374.5,-190.5 462.5,-190.5 "/>
<text text-anchor="middle" x="418.5" y="-178.5" font-family="Helvetica,sans-Serif" font-size="10.00"> </text>
</a>
</g>
</g>
<!-- Node15&#45;&gt;Node1 -->
<g id="edge17" class="edge">
<title>Node15&#45;&gt;Node1</title>
<path fill="none" stroke="#404040" d="M418.5,-171.38C418.5,-158.05 418.5,-141.42 418.5,-125.01"/>
<polygon fill="none" stroke="#404040" points="418.5,-124.57 414.5,-118.57 418.5,-112.57 422.5,-118.57 418.5,-124.57"/>
<text text-anchor="middle" x="441" y="-134" font-family="Helvetica,sans-Serif" font-size="10.00"> #m_flag</text>
</g>
<!-- Node16 -->
<g id="node16" class="node">
<title>Node16</title>
<g id="a_node16"><a xlink:title=" ">
<polygon fill="white" stroke="#666666" points="377.5,-315 377.5,-372 459.5,-372 459.5,-315 377.5,-315"/>
<text text-anchor="middle" x="418.5" y="-360" font-family="Helvetica,sans-Serif" font-size="10.00">std::set&lt; K &gt;</text>
<polyline fill="none" stroke="#666666" points="377.5,-353 459.5,-353 "/>
<text text-anchor="middle" x="418.5" y="-341" font-family="Helvetica,sans-Serif" font-size="10.00"> </text>
<polyline fill="none" stroke="#666666" points="377.5,-334 459.5,-334 "/>
<text text-anchor="middle" x="418.5" y="-322" font-family="Helvetica,sans-Serif" font-size="10.00"> </text>
</a>
</g>
</g>
<!-- Node16&#45;&gt;Node15 -->
<g id="edge18" class="edge">
<title>Node16&#45;&gt;Node15</title>
<path fill="none" stroke="orange" d="M418.5,-304.71C418.5,-280.73 418.5,-250.25 418.5,-228.55"/>
<polygon fill="orange" stroke="orange" points="415,-304.88 418.5,-314.88 422,-304.88 415,-304.88"/>
<text text-anchor="middle" x="438" y="-272" font-family="Helvetica,sans-Serif" font-size="10.00"> &lt; int &gt;</text>
</g>
<!-- Node17 -->
<g id="node17" class="node">
<title>Node17</title>
<g id="a_node17"><a xlink:title=" ">
<polygon fill="white" stroke="#bfbfbf" points="404,-442 404,-499 433,-499 433,-442 404,-442"/>
<text text-anchor="middle" x="418.5" y="-487" font-family="Helvetica,sans-Serif" font-size="10.00">K</text>
<polyline fill="none" stroke="#bfbfbf" points="404,-480 433,-480 "/>
<text text-anchor="middle" x="418.5" y="-468" font-family="Helvetica,sans-Serif" font-size="10.00"> </text>
<polyline fill="none" stroke="#bfbfbf" points="404,-461 433,-461 "/>
<text text-anchor="middle" x="418.5" y="-449" font-family="Helvetica,sans-Serif" font-size="10.00"> </text>
</a>
</g>
</g>
<!-- Node17&#45;&gt;Node16 -->
<g id="edge19" class="edge">
<title>Node17&#45;&gt;Node16</title>
<path fill="none" stroke="#404040" d="M418.5,-441.76C418.5,-424.85 418.5,-402.96 418.5,-384.23"/>
<polygon fill="none" stroke="#404040" points="418.5,-384.16 414.5,-378.16 418.5,-372.16 422.5,-378.16 418.5,-384.16"/>
<text text-anchor="middle" x="435.5" y="-399" font-family="Helvetica,sans-Serif" font-size="10.00"> +keys</text>
</g>
<!-- Node18 -->
<g id="node18" class="node">
<title>Node18</title>
<g id="a_node18"><a xlink:title=" ">
<polygon fill="white" stroke="#666666" points="481,-171.5 481,-228.5 580,-228.5 580,-171.5 481,-171.5"/>
<text text-anchor="middle" x="530.5" y="-216.5" font-family="Helvetica,sans-Serif" font-size="10.00">std::stack&lt; int &gt;</text>
<polyline fill="none" stroke="#666666" points="481,-209.5 580,-209.5 "/>
<text text-anchor="start" x="489" y="-197.5" font-family="Helvetica,sans-Serif" font-size="10.00">+ elements</text>
<polyline fill="none" stroke="#666666" points="481,-190.5 580,-190.5 "/>
<text text-anchor="middle" x="530.5" y="-178.5" font-family="Helvetica,sans-Serif" font-size="10.00"> </text>
</a>
</g>
</g>
<!-- Node18&#45;&gt;Node1 -->
<g id="edge20" class="edge">
<title>Node18&#45;&gt;Node1</title>
<path fill="none" stroke="#404040" d="M508.64,-171.38C497.47,-157.27 483.36,-139.45 469.65,-122.12"/>
<polygon fill="none" stroke="#404040" points="469.54,-121.98 462.68,-119.76 462.09,-112.57 468.95,-114.8 469.54,-121.98"/>
<text text-anchor="middle" x="512" y="-134" font-family="Helvetica,sans-Serif" font-size="10.00"> #m_stack</text>
</g>
<!-- Node19 -->
<g id="node19" class="node">
<title>Node19</title>
<g id="a_node19"><a xlink:title=" ">
<polygon fill="white" stroke="#666666" points="484.5,-315 484.5,-372 576.5,-372 576.5,-315 484.5,-315"/>
<text text-anchor="middle" x="530.5" y="-360" font-family="Helvetica,sans-Serif" font-size="10.00">std::stack&lt; T &gt;</text>
<polyline fill="none" stroke="#666666" points="484.5,-353 576.5,-353 "/>
<text text-anchor="middle" x="530.5" y="-341" font-family="Helvetica,sans-Serif" font-size="10.00"> </text>
<polyline fill="none" stroke="#666666" points="484.5,-334 576.5,-334 "/>
<text text-anchor="middle" x="530.5" y="-322" font-family="Helvetica,sans-Serif" font-size="10.00"> </text>
</a>
</g>
</g>
<!-- Node19&#45;&gt;Node18 -->
<g id="edge21" class="edge">
<title>Node19&#45;&gt;Node18</title>
<path fill="none" stroke="orange" d="M530.5,-304.71C530.5,-280.73 530.5,-250.25 530.5,-228.55"/>
<polygon fill="orange" stroke="orange" points="527,-304.88 530.5,-314.88 534,-304.88 527,-304.88"/>
<text text-anchor="middle" x="550" y="-272" font-family="Helvetica,sans-Serif" font-size="10.00"> &lt; int &gt;</text>
</g>
<!-- Node20 -->
<g id="node20" class="node">
<title>Node20</title>
<g id="a_node20"><a xlink:title=" ">
<polygon fill="white" stroke="#bfbfbf" points="516,-442 516,-499 545,-499 545,-442 516,-442"/>
<text text-anchor="middle" x="530.5" y="-487" font-family="Helvetica,sans-Serif" font-size="10.00">T</text>
<polyline fill="none" stroke="#bfbfbf" points="516,-480 545,-480 "/>
<text text-anchor="middle" x="530.5" y="-468" font-family="Helvetica,sans-Serif" font-size="10.00"> </text>
<polyline fill="none" stroke="#bfbfbf" points="516,-461 545,-461 "/>
<text text-anchor="middle" x="530.5" y="-449" font-family="Helvetica,sans-Serif" font-size="10.00"> </text>
</a>
</g>
</g>
<!-- Node20&#45;&gt;Node19 -->
<g id="edge22" class="edge">
<title>Node20&#45;&gt;Node19</title>
<path fill="none" stroke="#404040" d="M530.5,-441.76C530.5,-424.85 530.5,-402.96 530.5,-384.23"/>
<polygon fill="none" stroke="#404040" points="530.5,-384.16 526.5,-378.16 530.5,-372.16 534.5,-378.16 530.5,-384.16"/>
<text text-anchor="middle" x="559.5" y="-399" font-family="Helvetica,sans-Serif" font-size="10.00"> +elements</text>
</g>
</g>
</svg>
