<?xml version="1.0" encoding="UTF-8" standalone="no"?>
<!DOCTYPE svg PUBLIC "-//W3C//DTD SVG 1.1//EN"
 "http://www.w3.org/Graphics/SVG/1.1/DTD/svg11.dtd">
<!-- Generated by graphviz version 2.43.0 (0)
 -->
<!-- Title: Ponca::StaticKnnGraphBase&lt; Traits &gt; Pages: 1 -->
<svg width="187pt" height="475pt"
 viewBox="0.00 0.00 187.00 475.00" xmlns="http://www.w3.org/2000/svg" xmlns:xlink="http://www.w3.org/1999/xlink">
<g id="graph0" class="graph" transform="scale(1 1) rotate(0) translate(4 471)">
<title>Ponca::StaticKnnGraphBase&lt; Traits &gt;</title>
<!-- Node1 -->
<g id="Node000001" class="node">
<title>Node1</title>
<g id="a_Node000001"><a xlink:title="Customizable base class for KnnGraph datastructure.">
<polygon fill="#999999" stroke="transparent" points="179,-270 0,-270 0,0 179,0 179,-270"/>
<text text-anchor="start" x="22" y="-258" font-family="Helvetica,sans-Serif" font-size="10.00">Ponca::StaticKnnGraphBase</text>
<text text-anchor="start" x="65.5" y="-247" font-family="Helvetica,sans-Serif" font-size="10.00">&lt; Traits &gt;</text>
<text text-anchor="start" x="88" y="-232" font-family="Helvetica,sans-Serif" font-size="10.00"> </text>
<text text-anchor="start" x="4.5" y="-217" font-family="Helvetica,sans-Serif" font-size="10.00">+</text>
<text text-anchor="start" x="17.5" y="-217" font-family="Helvetica,sans-Serif" font-size="10.00">StaticKnnGraphBase()</text>
<text text-anchor="start" x="4.5" y="-202" font-family="Helvetica,sans-Serif" font-size="10.00">+</text>
<text text-anchor="start" x="17.5" y="-202" font-family="Helvetica,sans-Serif" font-size="10.00">kNearestNeighbors()</text>
<text text-anchor="start" x="4.5" y="-187" font-family="Helvetica,sans-Serif" font-size="10.00">+</text>
<text text-anchor="start" x="17.5" y="-187" font-family="Helvetica,sans-Serif" font-size="10.00">rangeNeighbors()</text>
<text text-anchor="start" x="4.5" y="-172" font-family="Helvetica,sans-Serif" font-size="10.00">+</text>
<text text-anchor="start" x="17.5" y="-172" font-family="Helvetica,sans-Serif" font-size="10.00">kNearestNeighborsIndexQuery()</text>
<text text-anchor="start" x="4.5" y="-157" font-family="Helvetica,sans-Serif" font-size="10.00">+</text>
<text text-anchor="start" x="17.5" y="-157" font-family="Helvetica,sans-Serif" font-size="10.00">rangeNeighborsIndexQuery()</text>
<text text-anchor="start" x="4.5" y="-142" font-family="Helvetica,sans-Serif" font-size="10.00">+</text>
<text text-anchor="start" x="17.5" y="-142" font-family="Helvetica,sans-Serif" font-size="10.00">k()</text>
<text text-anchor="start" x="4.5" y="-127" font-family="Helvetica,sans-Serif" font-size="10.00">+</text>
<text text-anchor="start" x="17.5" y="-127" font-family="Helvetica,sans-Serif" font-size="10.00">size()</text>
<text text-anchor="start" x="4.5" y="-112" font-family="Helvetica,sans-Serif" font-size="10.00">+</text>
<text text-anchor="start" x="17.5" y="-112" font-family="Helvetica,sans-Serif" font-size="10.00">sampleCount()</text>
<text text-anchor="start" x="4.5" y="-97" font-family="Helvetica,sans-Serif" font-size="10.00">+</text>
<text text-anchor="start" x="17.5" y="-97" font-family="Helvetica,sans-Serif" font-size="10.00">pointCount()</text>
<text text-anchor="start" x="4.5" y="-82" font-family="Helvetica,sans-Serif" font-size="10.00">+</text>
<text text-anchor="start" x="17.5" y="-82" font-family="Helvetica,sans-Serif" font-size="10.00">points()</text>
<text text-anchor="start" x="4.5" y="-67" font-family="Helvetica,sans-Serif" font-size="10.00">+</text>
<text text-anchor="start" x="17.5" y="-67" font-family="Helvetica,sans-Serif" font-size="10.00">samples()</text>
<text text-anchor="start" x="4.5" y="-52" font-family="Helvetica,sans-Serif" font-size="10.00">+</text>
<text text-anchor="start" x="17.5" y="-52" font-family="Helvetica,sans-Serif" font-size="10.00">buffers()</text>
<text text-anchor="start" x="4.5" y="-37" font-family="Helvetica,sans-Serif" font-size="10.00">#</text>
<text text-anchor="start" x="17.5" y="-37" font-family="Helvetica,sans-Serif" font-size="10.00">getIndexPtr()</text>
<text text-anchor="start" x="4.5" y="-22" font-family="Helvetica,sans-Serif" font-size="10.00">#</text>
<text text-anchor="start" x="17.5" y="-22" font-family="Helvetica,sans-Serif" font-size="10.00">getIndexPtr()</text>
<text text-anchor="start" x="4.5" y="-7" font-family="Helvetica,sans-Serif" font-size="10.00">#</text>
<text text-anchor="start" x="17.5" y="-7" font-family="Helvetica,sans-Serif" font-size="10.00">StaticKnnGraphBase()</text>
<polygon fill="#666666" stroke="#666666" points="0.5,-242 0.5,-242 179.5,-242 179.5,-242 0.5,-242"/>
<polygon fill="#666666" stroke="#666666" points="0.5,-227 0.5,-227 179.5,-227 179.5,-227 0.5,-227"/>
<polygon fill="none" stroke="#666666" points="0,0 0,-270 179,-270 179,0 0,0"/>
</a>
</g>
</g>
<!-- Node2 -->
<g id="Node000002" class="node">
<title>Node2</title>
<g id="a_Node000002"><a xlink:href="structPonca_1_1StaticKnnGraphBase_1_1Buffers.html" target="_top" xlink:title="Internal structure storing all the buffers used by the KdTree.">
<polygon fill="white" stroke="transparent" points="162.5,-467 16.5,-467 16.5,-317 162.5,-317 162.5,-467"/>
<text text-anchor="start" x="21.5" y="-455" font-family="Helvetica,sans-Serif" font-size="10.00">Ponca::StaticKnnGraphBase</text>
<text text-anchor="start" x="44.5" y="-444" font-family="Helvetica,sans-Serif" font-size="10.00">&lt; Traits &gt;::Buffers</text>
<text text-anchor="start" x="36.5" y="-429" font-family="Helvetica,sans-Serif" font-size="10.00">+</text>
<text text-anchor="start" x="65.5" y="-429" font-family="Helvetica,sans-Serif" font-size="10.00">points</text>
<text text-anchor="start" x="36.5" y="-414" font-family="Helvetica,sans-Serif" font-size="10.00">+</text>
<text text-anchor="start" x="65.5" y="-414" font-family="Helvetica,sans-Serif" font-size="10.00">indices</text>
<text text-anchor="start" x="36.5" y="-399" font-family="Helvetica,sans-Serif" font-size="10.00">+</text>
<text text-anchor="start" x="65.5" y="-399" font-family="Helvetica,sans-Serif" font-size="10.00">points_size</text>
<text text-anchor="start" x="36.5" y="-384" font-family="Helvetica,sans-Serif" font-size="10.00">+</text>
<text text-anchor="start" x="65.5" y="-384" font-family="Helvetica,sans-Serif" font-size="10.00">indices_size</text>
<text text-anchor="start" x="36.5" y="-369" font-family="Helvetica,sans-Serif" font-size="10.00">+</text>
<text text-anchor="start" x="65.5" y="-369" font-family="Helvetica,sans-Serif" font-size="10.00">k</text>
<text text-anchor="start" x="36.5" y="-354" font-family="Helvetica,sans-Serif" font-size="10.00">+</text>
<text text-anchor="start" x="65.5" y="-354" font-family="Helvetica,sans-Serif" font-size="10.00">Buffers()</text>
<text text-anchor="start" x="36.5" y="-339" font-family="Helvetica,sans-Serif" font-size="10.00">+</text>
<text text-anchor="start" x="65.5" y="-339" font-family="Helvetica,sans-Serif" font-size="10.00">Buffers()</text>
<text text-anchor="start" x="36.5" y="-324" font-family="Helvetica,sans-Serif" font-size="10.00">+</text>
<text text-anchor="start" x="65.5" y="-324" font-family="Helvetica,sans-Serif" font-size="10.00">Buffers()</text>
<polygon fill="#666666" stroke="#666666" points="16.5,-439 16.5,-439 162.5,-439 162.5,-439 16.5,-439"/>
<polygon fill="#666666" stroke="#666666" points="16.5,-364 16.5,-364 63.5,-364 63.5,-364 16.5,-364"/>
<polygon fill="#666666" stroke="#666666" points="63.5,-364 63.5,-364 162.5,-364 162.5,-364 63.5,-364"/>
<polygon fill="none" stroke="#666666" points="16.5,-317 16.5,-467 162.5,-467 162.5,-317 16.5,-317"/>
</a>
</g>
</g>
<!-- Node2&#45;&gt;Node1 -->
<g id="edge1_Node000001_Node000002" class="edge">
<title>Node2&#45;&gt;Node1</title>
<g id="a_edge1_Node000001_Node000002"><a xlink:title=" ">
<path fill="none" stroke="#63b8ff" d="M89.5,-316.9C89.5,-305.99 89.5,-294.44 89.5,-282.66"/>
<polygon fill="none" stroke="#63b8ff" points="89.5,-282.33 85.5,-276.33 89.5,-270.33 93.5,-276.33 89.5,-282.33"/>
</a>
</g>
<text text-anchor="middle" x="113.5" y="-291" font-family="Helvetica,sans-Serif" font-size="10.00" fill="grey"> #m_bufs</text>
</g>
</g>
</svg>
