<?xml version="1.0" encoding="UTF-8" standalone="no"?>
<!DOCTYPE svg PUBLIC "-//W3C//DTD SVG 1.1//EN"
 "http://www.w3.org/Graphics/SVG/1.1/DTD/svg11.dtd">
<!-- Generated by graphviz version 2.43.0 (0)
 -->
<!-- Title: Ponca::KdTreeKNearestIterator&lt; Index, DataPoint &gt; Pages: 1 -->
<!--zoomable 972 -->

<svg id="main" version="1.1" xmlns="http://www.w3.org/2000/svg" xmlns:xlink="http://www.w3.org/1999/xlink" xml:space="preserve" onload="init(evt)">
<style type="text/css"><![CDATA[
.node, .edge {opacity: 0.7;}
.node.selected, .edge.selected {opacity: 1;}
.edge:hover path { stroke: red; }
.edge:hover polygon { stroke: red; fill: red; }
]]></style>

<defs>
  <circle id="rim" cx="0" cy="0" r="7"/>
  <circle id="rim2" cx="0" cy="0" r="3.5"/>
  <g id="zoomPlus">
    <use xlink:href="#rim" fill="#404040"><set attributeName="fill" to="#808080" begin="zoomplus.mouseover" end="zoomplus.mouseout"/></use>
    <path d="M-4,0h8M0,-4v8" fill="none" stroke="white" stroke-width="1.5" pointer-events="none"/>
  </g>
  <g id="zoomMin">
    <use xlink:href="#rim" fill="#404040"><set attributeName="fill" to="#808080" begin="zoomminus.mouseover" end="zoomminus.mouseout"/></use>
    <path d="M-4,0h8" fill="none" stroke="white" stroke-width="1.5" pointer-events="none"/>
  </g>
  <g id="arrowUp" transform="translate(30 24)">
    <use xlink:href="#rim"/>
    <path pointer-events="none" fill="none" stroke="white" stroke-width="1.5" d="M0,-3.0v7 M-2.5,-0.5L0,-3.0L2.5,-0.5"/>
  </g>
  <g id="arrowRight" transform="rotate(90) translate(36 -43)">
    <use xlink:href="#rim"/>
    <path pointer-events="none" fill="none" stroke="white" stroke-width="1.5" d="M0,-3.0v7 M-2.5,-0.5L0,-3.0L2.5,-0.5"/>
  </g>
  <g id="arrowDown" transform="rotate(180) translate(-30 -48)">
    <use xlink:href="#rim"/>
    <path pointer-events="none" fill="none" stroke="white" stroke-width="1.5" d="M0,-3.0v7 M-2.5,-0.5L0,-3.0L2.5,-0.5"/>
  </g>
  <g id="arrowLeft" transform="rotate(270) translate(-36 17)">
    <use xlink:href="#rim"/>
    <path pointer-events="none" fill="none" stroke="white" stroke-width="1.5" d="M0,-3.0v7 M-2.5,-0.5L0,-3.0L2.5,-0.5"/>
  </g>
  <g id="resetDef">
    <use xlink:href="#rim2" fill="#404040"><set attributeName="fill" to="#808080" begin="reset.mouseover" end="reset.mouseout"/></use>
  </g>
</defs>
<script type="application/ecmascript">
var viewWidth = 354;
var viewHeight = 972;
var sectionId = 'dynsection-0';
</script>
<script type="application/ecmascript" xlink:href="svg.min.js"/>
<svg id="graph" class="graph">
<g id="viewport">
<title>Ponca::KdTreeKNearestIterator&lt; Index, DataPoint &gt;</title>
<!-- Node1 -->
<g id="Node000001" class="node">
<title>Node1</title>
<g id="a_Node000001"><a xlink:title="Input iterator to read the KdTreeKNearestQueryBase object.">
<polygon fill="#999999" stroke="transparent" points="280,-180 120,-180 120,0 280,0 280,-180"/>
<text text-anchor="start" x="125" y="-168" font-family="Helvetica,sans-Serif" font-size="10.00">Ponca::KdTreeKNearestIterator</text>
<text text-anchor="start" x="148" y="-157" font-family="Helvetica,sans-Serif" font-size="10.00">&lt; Index, DataPoint &gt;</text>
<text text-anchor="start" x="198" y="-142" font-family="Helvetica,sans-Serif" font-size="10.00"> </text>
<text text-anchor="start" x="126" y="-127" font-family="Helvetica,sans-Serif" font-size="10.00">+</text>
<text text-anchor="start" x="141" y="-127" font-family="Helvetica,sans-Serif" font-size="10.00">KdTreeKNearestIterator()</text>
<text text-anchor="start" x="126" y="-112" font-family="Helvetica,sans-Serif" font-size="10.00">+</text>
<text text-anchor="start" x="141" y="-112" font-family="Helvetica,sans-Serif" font-size="10.00">KdTreeKNearestIterator()</text>
<text text-anchor="start" x="126" y="-97" font-family="Helvetica,sans-Serif" font-size="10.00">+</text>
<text text-anchor="start" x="141" y="-97" font-family="Helvetica,sans-Serif" font-size="10.00">~KdTreeKNearestIterator()</text>
<text text-anchor="start" x="126" y="-82" font-family="Helvetica,sans-Serif" font-size="10.00">+</text>
<text text-anchor="start" x="141" y="-82" font-family="Helvetica,sans-Serif" font-size="10.00">operator!=()</text>
<text text-anchor="start" x="126" y="-67" font-family="Helvetica,sans-Serif" font-size="10.00">+</text>
<text text-anchor="start" x="141" y="-67" font-family="Helvetica,sans-Serif" font-size="10.00">operator==()</text>
<text text-anchor="start" x="126" y="-52" font-family="Helvetica,sans-Serif" font-size="10.00">+</text>
<text text-anchor="start" x="141" y="-52" font-family="Helvetica,sans-Serif" font-size="10.00">operator++()</text>
<text text-anchor="start" x="126" y="-37" font-family="Helvetica,sans-Serif" font-size="10.00">+</text>
<text text-anchor="start" x="141" y="-37" font-family="Helvetica,sans-Serif" font-size="10.00">operator++()</text>
<text text-anchor="start" x="126" y="-22" font-family="Helvetica,sans-Serif" font-size="10.00">+</text>
<text text-anchor="start" x="141" y="-22" font-family="Helvetica,sans-Serif" font-size="10.00">operator+=()</text>
<text text-anchor="start" x="126" y="-7" font-family="Helvetica,sans-Serif" font-size="10.00">+</text>
<text text-anchor="start" x="141" y="-7" font-family="Helvetica,sans-Serif" font-size="10.00">operator*()</text>
<polygon fill="#666666" stroke="#666666" points="120,-152 120,-152 280,-152 280,-152 120,-152"/>
<polygon fill="#666666" stroke="#666666" points="120,-137 120,-137 280,-137 280,-137 120,-137"/>
<polygon fill="none" stroke="#666666" points="120,0 120,-180 280,-180 280,0 120,0"/>
</a>
</g>
</g>
<!-- Node2 -->
<g id="Node000002" class="node">
<title>Node2</title>
<g id="a_Node000002"><a xlink:href="classPonca_1_1limited__priority__queue.html" target="_top" xlink:title=" ">
<polygon fill="white" stroke="transparent" points="283.5,-463 116.5,-463 116.5,-227 283.5,-227 283.5,-463"/>
<text text-anchor="start" x="122" y="-451" font-family="Helvetica,sans-Serif" font-size="10.00">Ponca::limited_priority</text>
<text text-anchor="start" x="122" y="-440" font-family="Helvetica,sans-Serif" font-size="10.00">_queue&lt; IndexSquaredDistance</text>
<text text-anchor="start" x="152" y="-429" font-family="Helvetica,sans-Serif" font-size="10.00">&lt; Index, Scalar &gt; &gt;</text>
<text text-anchor="start" x="125.5" y="-414" font-family="Helvetica,sans-Serif" font-size="10.00">#</text>
<text text-anchor="start" x="143" y="-414" font-family="Helvetica,sans-Serif" font-size="10.00">m_comp</text>
<text text-anchor="start" x="125.5" y="-399" font-family="Helvetica,sans-Serif" font-size="10.00">#</text>
<text text-anchor="start" x="143" y="-399" font-family="Helvetica,sans-Serif" font-size="10.00">m_size</text>
<text text-anchor="start" x="125.5" y="-384" font-family="Helvetica,sans-Serif" font-size="10.00">+</text>
<text text-anchor="start" x="143" y="-384" font-family="Helvetica,sans-Serif" font-size="10.00">limited_priority_queue()</text>
<text text-anchor="start" x="125.5" y="-369" font-family="Helvetica,sans-Serif" font-size="10.00">+</text>
<text text-anchor="start" x="143" y="-369" font-family="Helvetica,sans-Serif" font-size="10.00">limited_priority_queue()</text>
<text text-anchor="start" x="125.5" y="-354" font-family="Helvetica,sans-Serif" font-size="10.00">+</text>
<text text-anchor="start" x="143" y="-354" font-family="Helvetica,sans-Serif" font-size="10.00">limited_priority_queue()</text>
<text text-anchor="start" x="125.5" y="-339" font-family="Helvetica,sans-Serif" font-size="10.00">+</text>
<text text-anchor="start" x="143" y="-339" font-family="Helvetica,sans-Serif" font-size="10.00">limited_priority_queue()</text>
<text text-anchor="start" x="125.5" y="-324" font-family="Helvetica,sans-Serif" font-size="10.00">+</text>
<text text-anchor="start" x="143" y="-324" font-family="Helvetica,sans-Serif" font-size="10.00">~limited_priority_queue()</text>
<text text-anchor="start" x="125.5" y="-309" font-family="Helvetica,sans-Serif" font-size="10.00">+</text>
<text text-anchor="start" x="143" y="-309" font-family="Helvetica,sans-Serif" font-size="10.00">operator=()</text>
<text text-anchor="start" x="125.5" y="-294" font-family="Helvetica,sans-Serif" font-size="10.00">+</text>
<text text-anchor="start" x="143" y="-294" font-family="Helvetica,sans-Serif" font-size="10.00">begin()</text>
<text text-anchor="start" x="125.5" y="-279" font-family="Helvetica,sans-Serif" font-size="10.00">+</text>
<text text-anchor="start" x="143" y="-279" font-family="Helvetica,sans-Serif" font-size="10.00">begin()</text>
<text text-anchor="start" x="125.5" y="-264" font-family="Helvetica,sans-Serif" font-size="10.00">+</text>
<text text-anchor="start" x="143" y="-264" font-family="Helvetica,sans-Serif" font-size="10.00">cbegin()</text>
<text text-anchor="start" x="125.5" y="-249" font-family="Helvetica,sans-Serif" font-size="10.00">+</text>
<text text-anchor="start" x="143" y="-249" font-family="Helvetica,sans-Serif" font-size="10.00">end()</text>
<text text-anchor="start" x="143" y="-234" font-family="Helvetica,sans-Serif" font-size="10.00">and 16 more...</text>
<polygon fill="#666666" stroke="#666666" points="117,-424 117,-424 284,-424 284,-424 117,-424"/>
<polygon fill="#666666" stroke="#666666" points="117,-394 117,-394 141,-394 141,-394 117,-394"/>
<polygon fill="#666666" stroke="#666666" points="141,-394 141,-394 284,-394 284,-394 141,-394"/>
<polygon fill="none" stroke="#666666" points="116.5,-227 116.5,-463 283.5,-463 283.5,-227 116.5,-227"/>
</a>
</g>
</g>
<!-- Node2&#45;&gt;Node1 -->
<g id="edge1_Node000001_Node000002" class="edge">
<title>Node2&#45;&gt;Node1</title>
<g id="a_edge1_Node000001_Node000002"><a xlink:title=" ">
<path fill="none" stroke="#63b8ff" d="M200,-226.76C200,-215.27 200,-203.68 200,-192.37"/>
<polygon fill="none" stroke="#63b8ff" points="200,-192.23 196,-186.23 200,-180.23 204,-186.23 200,-192.23"/>
</a>
</g>
<text text-anchor="middle" x="231.5" y="-201" font-family="Helvetica,sans-Serif" font-size="10.00" fill="grey"> #m_iterator</text>
</g>
<!-- Node3 -->
<g id="Node000003" class="node">
<title>Node3</title>
<g id="a_Node000003"><a xlink:title=" ">
<polygon fill="white" stroke="transparent" points="150,-671 0,-671 0,-611 150,-611 150,-671"/>
<text text-anchor="start" x="5" y="-659" font-family="Helvetica,sans-Serif" font-size="10.00">std::vector&lt; IndexSquared</text>
<text text-anchor="start" x="5" y="-648" font-family="Helvetica,sans-Serif" font-size="10.00">Distance&lt; Index, Scalar &gt; &gt;</text>
<text text-anchor="start" x="24.5" y="-633" font-family="Helvetica,sans-Serif" font-size="10.00">+</text>
<text text-anchor="start" x="58" y="-633" font-family="Helvetica,sans-Serif" font-size="10.00">elements</text>
<text text-anchor="start" x="73" y="-618" font-family="Helvetica,sans-Serif" font-size="10.00"> </text>
<polygon fill="#666666" stroke="#666666" points="0,-643 0,-643 150,-643 150,-643 0,-643"/>
<polygon fill="#666666" stroke="#666666" points="0,-628 0,-628 56,-628 56,-628 0,-628"/>
<polygon fill="#666666" stroke="#666666" points="56,-628 56,-628 150,-628 150,-628 56,-628"/>
<polygon fill="none" stroke="#666666" points="0,-611 0,-671 150,-671 150,-611 0,-611"/>
</a>
</g>
</g>
<!-- Node3&#45;&gt;Node2 -->
<g id="edge2_Node000002_Node000003" class="edge">
<title>Node3&#45;&gt;Node2</title>
<g id="a_edge2_Node000002_Node000003"><a xlink:title=" ">
<path fill="none" stroke="#63b8ff" d="M87.44,-610.74C101.08,-578.67 123.89,-525.02 145.42,-474.38"/>
<polygon fill="none" stroke="#63b8ff" points="145.44,-474.33 144.1,-467.24 150.13,-463.29 151.47,-470.37 145.44,-474.33"/>
</a>
</g>
<text text-anchor="middle" x="158" y="-489.5" font-family="Helvetica,sans-Serif" font-size="10.00" fill="grey"> #m_c</text>
</g>
<!-- Node4 -->
<g id="Node000004" class="node">
<title>Node4</title>
<g id="a_Node000004"><a xlink:title=" ">
<polygon fill="white" stroke="transparent" points="120.5,-868 29.5,-868 29.5,-819 120.5,-819 120.5,-868"/>
<text text-anchor="start" x="35" y="-855.5" font-family="Helvetica,sans-Serif" font-size="10.00">std::vector&lt; T &gt;</text>
<text text-anchor="start" x="73.5" y="-840.5" font-family="Helvetica,sans-Serif" font-size="10.00"> </text>
<text text-anchor="start" x="73.5" y="-825.5" font-family="Helvetica,sans-Serif" font-size="10.00"> </text>
<polygon fill="#666666" stroke="#666666" points="30,-850.5 30,-850.5 121,-850.5 121,-850.5 30,-850.5"/>
<polygon fill="#666666" stroke="#666666" points="30,-835.5 30,-835.5 121,-835.5 121,-835.5 30,-835.5"/>
<polygon fill="none" stroke="#666666" points="29.5,-819 29.5,-868 120.5,-868 120.5,-819 29.5,-819"/>
</a>
</g>
</g>
<!-- Node4&#45;&gt;Node3 -->
<g id="edge3_Node000003_Node000004" class="edge">
<title>Node4&#45;&gt;Node3</title>
<g id="a_edge3_Node000003_Node000004"><a xlink:title=" ">
<path fill="none" stroke="orange" d="M75,-808.51C75,-769.96 75,-707.75 75,-671.27"/>
<polygon fill="orange" stroke="orange" points="71.5,-808.71 75,-818.71 78.5,-808.71 71.5,-808.71"/>
</a>
</g>
<text text-anchor="start" x="75" y="-793" font-family="Helvetica,sans-Serif" font-size="10.00" fill="grey"> &lt; IndexSquaredDistance</text>
<text text-anchor="middle" x="137" y="-782" font-family="Helvetica,sans-Serif" font-size="10.00" fill="grey">&lt; Index, Scalar &gt; &gt;</text>
</g>
<!-- Node5 -->
<g id="Node000005" class="node">
<title>Node5</title>
<g id="a_Node000005"><a xlink:title=" ">
<polygon fill="white" stroke="transparent" points="83.5,-964 66.5,-964 66.5,-915 83.5,-915 83.5,-964"/>
<text text-anchor="start" x="72" y="-951.5" font-family="Helvetica,sans-Serif" font-size="10.00">T</text>
<text text-anchor="start" x="73.5" y="-936.5" font-family="Helvetica,sans-Serif" font-size="10.00"> </text>
<text text-anchor="start" x="73.5" y="-921.5" font-family="Helvetica,sans-Serif" font-size="10.00"> </text>
<polygon fill="#bfbfbf" stroke="#bfbfbf" points="67,-946.5 67,-946.5 84,-946.5 84,-946.5 67,-946.5"/>
<polygon fill="#bfbfbf" stroke="#bfbfbf" points="67,-931.5 67,-931.5 84,-931.5 84,-931.5 67,-931.5"/>
<polygon fill="none" stroke="#bfbfbf" points="66.5,-915 66.5,-964 83.5,-964 83.5,-915 66.5,-915"/>
</a>
</g>
</g>
<!-- Node5&#45;&gt;Node4 -->
<g id="edge4_Node000004_Node000005" class="edge">
<title>Node5&#45;&gt;Node4</title>
<g id="a_edge4_Node000004_Node000005"><a xlink:title=" ">
<path fill="none" stroke="#63b8ff" d="M75,-914.78C75,-904.32 75,-891.79 75,-880.23"/>
<polygon fill="none" stroke="#63b8ff" points="75,-880.21 71,-874.21 75,-868.21 79,-874.21 75,-880.21"/>
</a>
</g>
<text text-anchor="middle" x="104" y="-889" font-family="Helvetica,sans-Serif" font-size="10.00" fill="grey"> +elements</text>
</g>
<!-- Node6 -->
<g id="Node000006" class="node">
<title>Node6</title>
<g id="a_Node000006"><a xlink:href="classPonca_1_1limited__priority__queue.html" target="_top" xlink:title="The limited_priority_queue class is similar to std::priority_queue but has a limited capacity and han...">
<polygon fill="white" stroke="transparent" points="316,-761 168,-761 168,-521 316,-521 316,-761"/>
<text text-anchor="start" x="181.5" y="-749" font-family="Helvetica,sans-Serif" font-size="10.00">Ponca::limited_priority</text>
<text text-anchor="start" x="181.5" y="-738" font-family="Helvetica,sans-Serif" font-size="10.00">_queue&lt; T, CompareT &gt;</text>
<text text-anchor="start" x="172" y="-723" font-family="Helvetica,sans-Serif" font-size="10.00">#</text>
<text text-anchor="start" x="185" y="-723" font-family="Helvetica,sans-Serif" font-size="10.00">m_c</text>
<text text-anchor="start" x="172" y="-708" font-family="Helvetica,sans-Serif" font-size="10.00">#</text>
<text text-anchor="start" x="185" y="-708" font-family="Helvetica,sans-Serif" font-size="10.00">m_comp</text>
<text text-anchor="start" x="172" y="-693" font-family="Helvetica,sans-Serif" font-size="10.00">#</text>
<text text-anchor="start" x="185" y="-693" font-family="Helvetica,sans-Serif" font-size="10.00">m_size</text>
<text text-anchor="start" x="172" y="-678" font-family="Helvetica,sans-Serif" font-size="10.00">+</text>
<text text-anchor="start" x="185" y="-678" font-family="Helvetica,sans-Serif" font-size="10.00">limited_priority_queue()</text>
<text text-anchor="start" x="172" y="-663" font-family="Helvetica,sans-Serif" font-size="10.00">+</text>
<text text-anchor="start" x="185" y="-663" font-family="Helvetica,sans-Serif" font-size="10.00">limited_priority_queue()</text>
<text text-anchor="start" x="172" y="-648" font-family="Helvetica,sans-Serif" font-size="10.00">+</text>
<text text-anchor="start" x="185" y="-648" font-family="Helvetica,sans-Serif" font-size="10.00">limited_priority_queue()</text>
<text text-anchor="start" x="172" y="-633" font-family="Helvetica,sans-Serif" font-size="10.00">+</text>
<text text-anchor="start" x="185" y="-633" font-family="Helvetica,sans-Serif" font-size="10.00">limited_priority_queue()</text>
<text text-anchor="start" x="172" y="-618" font-family="Helvetica,sans-Serif" font-size="10.00">+</text>
<text text-anchor="start" x="185" y="-618" font-family="Helvetica,sans-Serif" font-size="10.00">~limited_priority_queue()</text>
<text text-anchor="start" x="172" y="-603" font-family="Helvetica,sans-Serif" font-size="10.00">+</text>
<text text-anchor="start" x="185" y="-603" font-family="Helvetica,sans-Serif" font-size="10.00">operator=()</text>
<text text-anchor="start" x="172" y="-588" font-family="Helvetica,sans-Serif" font-size="10.00">+</text>
<text text-anchor="start" x="185" y="-588" font-family="Helvetica,sans-Serif" font-size="10.00">begin()</text>
<text text-anchor="start" x="172" y="-573" font-family="Helvetica,sans-Serif" font-size="10.00">+</text>
<text text-anchor="start" x="185" y="-573" font-family="Helvetica,sans-Serif" font-size="10.00">begin()</text>
<text text-anchor="start" x="172" y="-558" font-family="Helvetica,sans-Serif" font-size="10.00">+</text>
<text text-anchor="start" x="185" y="-558" font-family="Helvetica,sans-Serif" font-size="10.00">cbegin()</text>
<text text-anchor="start" x="172" y="-543" font-family="Helvetica,sans-Serif" font-size="10.00">+</text>
<text text-anchor="start" x="185" y="-543" font-family="Helvetica,sans-Serif" font-size="10.00">end()</text>
<text text-anchor="start" x="185" y="-528" font-family="Helvetica,sans-Serif" font-size="10.00">and 16 more...</text>
<polygon fill="#666666" stroke="#666666" points="168,-733 168,-733 316,-733 316,-733 168,-733"/>
<polygon fill="#666666" stroke="#666666" points="168,-688 168,-688 183,-688 183,-688 168,-688"/>
<polygon fill="#666666" stroke="#666666" points="183,-688 183,-688 316,-688 316,-688 183,-688"/>
<polygon fill="none" stroke="#666666" points="168,-521 168,-761 316,-761 316,-521 168,-521"/>
</a>
</g>
</g>
<!-- Node6&#45;&gt;Node2 -->
<g id="edge5_Node000002_Node000006" class="edge">
<title>Node6&#45;&gt;Node2</title>
<g id="a_edge5_Node000002_Node000006"><a xlink:title=" ">
<path fill="none" stroke="orange" d="M223.51,-510.58C221.27,-494.89 218.99,-478.92 216.77,-463.42"/>
<polygon fill="orange" stroke="orange" points="220.1,-511.44 224.98,-520.84 227.03,-510.45 220.1,-511.44"/>
</a>
</g>
<text text-anchor="start" x="222" y="-495" font-family="Helvetica,sans-Serif" font-size="10.00" fill="grey"> &lt; IndexSquaredDistance</text>
<text text-anchor="middle" x="284" y="-484" font-family="Helvetica,sans-Serif" font-size="10.00" fill="grey">&lt; Index, Scalar &gt; &gt;</text>
</g>
</g>
</svg>

<g id="navigator" transform="translate(0 0)" fill="#404254">
  <rect fill="#f2f5e9" fill-opacity="0.5" stroke="#606060" stroke-width=".5" x="0" y="0" width="60" height="60"/>
  <use id="zoomplus" xlink:href="#zoomPlus" x="17" y="9" onmousedown="handleZoom(evt,'in')"/>
  <use id="zoomminus" xlink:href="#zoomMin" x="42" y="9" onmousedown="handleZoom(evt,'out')"/>
  <use id="reset" xlink:href="#resetDef" x="30" y="36" onmousedown="handleReset()"/>
   <use id="arrowup" xlink:href="#arrowUp" x="0" y="0" onmousedown="handlePan(0,-1)"/>
  <use id="arrowright" xlink:href="#arrowRight" x="0" y="0" onmousedown="handlePan(1,0)"/>
  <use id="arrowdown" xlink:href="#arrowDown" x="0" y="0" onmousedown="handlePan(0,1)"/>
  <use id="arrowleft" xlink:href="#arrowLeft" x="0" y="0" onmousedown="handlePan(-1,0)"/>
</g>
<svg viewBox="0 0 15 15" width="100%" height="30px" preserveAspectRatio="xMaxYMin meet">
 <g id="arrow_out" transform="scale(0.3 0.3)">
  <a xlink:href="classPonca_1_1KdTreeKNearestIterator__coll__graph_org.svg" target="_base">
   <rect id="button" ry="5" rx="5" y="6" x="6" height="38" width="38"
        fill="#f2f5e9" fill-opacity="0.5" stroke="#606060" stroke-width="1.0"/>
   <path id="arrow"
     d="M 11.500037,31.436501 C 11.940474,20.09759 22.043105,11.32322 32.158766,21.979434 L 37.068811,17.246167 C 37.068811,17.246167 37.088388,32 37.088388,32 L 22.160133,31.978069 C 22.160133,31.978069 26.997745,27.140456 26.997745,27.140456 C 18.528582,18.264221 13.291696,25.230495 11.500037,31.436501 z"
     style="fill:#404040;"/>
  </a>
 </g>
</svg>

<style type='text/css'>
<![CDATA[
[data-mouse-over-selected='false'] { opacity: 0.7; }
[data-mouse-over-selected='true']  { opacity: 1.0; }
]]>
</style>
<script type="application/ecmascript"><![CDATA[
document.addEventListener('DOMContentLoaded', (event) => {
  highlightEdges();
  highlightAdjacentNodes();
});
]]></script>
</svg>
