<?xml version="1.0" encoding="UTF-8" standalone="no"?>
<!DOCTYPE svg PUBLIC "-//W3C//DTD SVG 1.1//EN"
 "http://www.w3.org/Graphics/SVG/1.1/DTD/svg11.dtd">
<!-- Generated by graphviz version 2.43.0 (0)
 -->
<!-- Title: Ponca::UnorientedSphereFitImpl&lt; DataPoint, _WFunctor, T &gt; Pages: 1 -->
<svg width="224pt" height="203pt"
 viewBox="0.00 0.00 224.00 203.00" xmlns="http://www.w3.org/2000/svg" xmlns:xlink="http://www.w3.org/1999/xlink">
<g id="graph0" class="graph" transform="scale(1 1) rotate(0) translate(4 199)">
<title>Ponca::UnorientedSphereFitImpl&lt; DataPoint, _WFunctor, T &gt;</title>
<!-- Node1 -->
<g id="node1" class="node">
<title>Node1</title>
<g id="a_node1"><a xlink:title="Algebraic Sphere fitting procedure on point sets with non&#45;oriented normals.">
<polygon fill="#999999" stroke="#666666" points="216,-118 38,-118 38,0 216,0 216,-118"/>
<text text-anchor="start" x="46" y="-106" font-family="Helvetica,sans-Serif" font-size="10.00">{Ponca::UnorientedSphereFit</text>
<text text-anchor="middle" x="127" y="-95" font-family="Helvetica,sans-Serif" font-size="10.00">Impl&lt; DataPoint, _WFunctor, T &gt;</text>
<text text-anchor="start" x="46" y="-84" font-family="Helvetica,sans-Serif" font-size="10.00">|# m_matA</text>
<text text-anchor="start" x="46" y="-73" font-family="Helvetica,sans-Serif" font-size="10.00"># m_sumDotPP</text>
<text text-anchor="start" x="46" y="-62" font-family="Helvetica,sans-Serif" font-size="10.00">|+ unorientedSphereFit()</text>
<text text-anchor="start" x="46" y="-51" font-family="Helvetica,sans-Serif" font-size="10.00">+ unorientedSphereFit()</text>
<text text-anchor="start" x="46" y="-40" font-family="Helvetica,sans-Serif" font-size="10.00">+ init()</text>
<text text-anchor="start" x="46" y="-29" font-family="Helvetica,sans-Serif" font-size="10.00">+ addLocalNeighbor()</text>
<text text-anchor="start" x="46" y="-18" font-family="Helvetica,sans-Serif" font-size="10.00">+ finalize()</text>
<text text-anchor="middle" x="127" y="-7" font-family="Helvetica,sans-Serif" font-size="10.00">}</text>
</a>
</g>
</g>
<!-- Node2 -->
<g id="node2" class="node">
<title>Node2</title>
<g id="a_node2"><a xlink:title=" ">
<polygon fill="white" stroke="#bfbfbf" points="148,-195 0,-195 0,-154 148,-154 148,-195"/>
<text text-anchor="start" x="8" y="-183" font-family="Helvetica,sans-Serif" font-size="10.00">{Concept::FittingProcedure</text>
<text text-anchor="middle" x="74" y="-172" font-family="Helvetica,sans-Serif" font-size="10.00">Concept</text>
<text text-anchor="middle" x="74" y="-161" font-family="Helvetica,sans-Serif" font-size="10.00">||}</text>
</a>
</g>
</g>
<!-- Node2&#45;&gt;Node1 -->
<g id="edge1" class="edge">
<title>Node2&#45;&gt;Node1</title>
<path fill="none" stroke="#63b8ff" d="M87.46,-144.67C91.24,-136.57 95.5,-127.46 99.78,-118.3"/>
<polygon fill="none" stroke="#63b8ff" points="84.17,-143.45 83.11,-153.99 90.51,-146.41 84.17,-143.45"/>
</g>
<!-- Node3 -->
<g id="node3" class="node">
<title>Node3</title>
<g id="a_node3"><a xlink:title=" ">
<polygon fill="white" stroke="#bfbfbf" points="195.5,-189.5 166.5,-189.5 166.5,-159.5 195.5,-159.5 195.5,-189.5"/>
<text text-anchor="middle" x="181" y="-177.5" font-family="Helvetica,sans-Serif" font-size="10.00">{T</text>
<text text-anchor="middle" x="181" y="-166.5" font-family="Helvetica,sans-Serif" font-size="10.00">||}</text>
</a>
</g>
</g>
<!-- Node3&#45;&gt;Node1 -->
<g id="edge2" class="edge">
<title>Node3&#45;&gt;Node1</title>
<path fill="none" stroke="#63b8ff" d="M169.74,-149.83C165.32,-140.53 160.02,-129.41 154.7,-118.22"/>
<polygon fill="none" stroke="#63b8ff" points="166.7,-151.6 174.16,-159.13 173.03,-148.59 166.7,-151.6"/>
</g>
</g>
</svg>
