<?xml version="1.0" encoding="UTF-8" standalone="no"?>
<!DOCTYPE svg PUBLIC "-//W3C//DTD SVG 1.1//EN"
 "http://www.w3.org/Graphics/SVG/1.1/DTD/svg11.dtd">
<!-- Generated by graphviz version 2.43.0 (0)
 -->
<!-- Title: Ponca::KdTree&lt; _DataPoint &gt; Pages: 1 -->
<svg width="426pt" height="502pt"
 viewBox="0.00 0.00 425.50 502.00" xmlns="http://www.w3.org/2000/svg" xmlns:xlink="http://www.w3.org/1999/xlink">
<g id="graph0" class="graph" transform="scale(1 1) rotate(0) translate(4 498)">
<title>Ponca::KdTree&lt; _DataPoint &gt;</title>
<polygon fill="white" stroke="transparent" points="-4,4 -4,-498 421.5,-498 421.5,4 -4,4"/>
<!-- Node1 -->
<g id="node1" class="node">
<title>Node1</title>
<g id="a_node1"><a xlink:title=" ">
<polygon fill="#bfbfbf" stroke="black" points="129,-0.5 129,-167.5 290,-167.5 290,-0.5 129,-0.5"/>
<text text-anchor="middle" x="209.5" y="-155.5" font-family="Helvetica,sans-Serif" font-size="10.00">Ponca::KdTree&lt; _DataPoint &gt;</text>
<polyline fill="none" stroke="black" points="129,-148.5 290,-148.5 "/>
<text text-anchor="start" x="137" y="-136.5" font-family="Helvetica,sans-Serif" font-size="10.00"># m_min_cell_size</text>
<polyline fill="none" stroke="black" points="129,-129.5 290,-129.5 "/>
<text text-anchor="start" x="137" y="-117.5" font-family="Helvetica,sans-Serif" font-size="10.00">+ KdTree()</text>
<text text-anchor="start" x="137" y="-106.5" font-family="Helvetica,sans-Serif" font-size="10.00">+ KdTree()</text>
<text text-anchor="start" x="137" y="-95.5" font-family="Helvetica,sans-Serif" font-size="10.00">+ KdTree()</text>
<text text-anchor="start" x="137" y="-84.5" font-family="Helvetica,sans-Serif" font-size="10.00">+ clear()</text>
<text text-anchor="start" x="137" y="-73.5" font-family="Helvetica,sans-Serif" font-size="10.00">+ build()</text>
<text text-anchor="start" x="137" y="-62.5" font-family="Helvetica,sans-Serif" font-size="10.00">+ build()</text>
<text text-anchor="start" x="137" y="-51.5" font-family="Helvetica,sans-Serif" font-size="10.00">+ buildWithSampling()</text>
<text text-anchor="start" x="137" y="-40.5" font-family="Helvetica,sans-Serif" font-size="10.00">+ buildWithSampling()</text>
<text text-anchor="start" x="137" y="-29.5" font-family="Helvetica,sans-Serif" font-size="10.00">+ rebuild()</text>
<text text-anchor="start" x="137" y="-18.5" font-family="Helvetica,sans-Serif" font-size="10.00">+ valid()</text>
<text text-anchor="start" x="137" y="-7.5" font-family="Helvetica,sans-Serif" font-size="10.00">and 20 more...</text>
</a>
</g>
</g>
<!-- Node2 -->
<g id="node2" class="node">
<title>Node2</title>
<g id="a_node2"><a xlink:title=" ">
<polygon fill="white" stroke="#bfbfbf" points="0,-221 0,-278 139,-278 139,-221 0,-221"/>
<text text-anchor="middle" x="69.5" y="-266" font-family="Helvetica,sans-Serif" font-size="10.00">std::vector&lt; DataPoint &gt;</text>
<polyline fill="none" stroke="#bfbfbf" points="0,-259 139,-259 "/>
<text text-anchor="start" x="8" y="-247" font-family="Helvetica,sans-Serif" font-size="10.00">+ elements</text>
<polyline fill="none" stroke="#bfbfbf" points="0,-240 139,-240 "/>
<text text-anchor="middle" x="69.5" y="-228" font-family="Helvetica,sans-Serif" font-size="10.00"> </text>
</a>
</g>
</g>
<!-- Node2&#45;&gt;Node1 -->
<g id="edge1" class="edge">
<title>Node2&#45;&gt;Node1</title>
<path fill="none" stroke="#404040" d="M93.25,-220.76C103.88,-208.35 117.08,-192.93 130.74,-176.98"/>
<polygon fill="none" stroke="#404040" points="131.01,-176.66 131.88,-169.5 138.82,-167.55 137.95,-174.7 131.01,-176.66"/>
<text text-anchor="middle" x="152" y="-189" font-family="Helvetica,sans-Serif" font-size="10.00"> #m_points</text>
</g>
<!-- Node3 -->
<g id="node3" class="node">
<title>Node3</title>
<g id="a_node3"><a xlink:title="STL class.">
<polygon fill="white" stroke="#bfbfbf" points="161,-331.5 161,-388.5 258,-388.5 258,-331.5 161,-331.5"/>
<text text-anchor="middle" x="209.5" y="-376.5" font-family="Helvetica,sans-Serif" font-size="10.00">std::vector&lt; T &gt;</text>
<polyline fill="none" stroke="#bfbfbf" points="161,-369.5 258,-369.5 "/>
<text text-anchor="middle" x="209.5" y="-357.5" font-family="Helvetica,sans-Serif" font-size="10.00"> </text>
<polyline fill="none" stroke="#bfbfbf" points="161,-350.5 258,-350.5 "/>
<text text-anchor="middle" x="209.5" y="-338.5" font-family="Helvetica,sans-Serif" font-size="10.00"> </text>
</a>
</g>
</g>
<!-- Node3&#45;&gt;Node2 -->
<g id="edge2" class="edge">
<title>Node3&#45;&gt;Node2</title>
<path fill="none" stroke="orange" d="M151.86,-327.31C144.82,-322.77 137.87,-317.95 131.5,-313 118.23,-302.68 104.92,-289.69 94.05,-278.23"/>
<polygon fill="orange" stroke="orange" points="150.46,-330.56 160.8,-332.89 154.17,-324.62 150.46,-330.56"/>
<text text-anchor="middle" x="168.5" y="-305" font-family="Helvetica,sans-Serif" font-size="10.00"> &lt; DataPoint &gt;</text>
</g>
<!-- Node5 -->
<g id="node5" class="node">
<title>Node5</title>
<g id="a_node5"><a xlink:title=" ">
<polygon fill="white" stroke="#bfbfbf" points="157.5,-221 157.5,-278 261.5,-278 261.5,-221 157.5,-221"/>
<text text-anchor="middle" x="209.5" y="-266" font-family="Helvetica,sans-Serif" font-size="10.00">std::vector&lt; int &gt;</text>
<polyline fill="none" stroke="#bfbfbf" points="157.5,-259 261.5,-259 "/>
<text text-anchor="start" x="165.5" y="-247" font-family="Helvetica,sans-Serif" font-size="10.00">+ elements</text>
<polyline fill="none" stroke="#bfbfbf" points="157.5,-240 261.5,-240 "/>
<text text-anchor="middle" x="209.5" y="-228" font-family="Helvetica,sans-Serif" font-size="10.00"> </text>
</a>
</g>
</g>
<!-- Node3&#45;&gt;Node5 -->
<g id="edge5" class="edge">
<title>Node3&#45;&gt;Node5</title>
<path fill="none" stroke="orange" d="M209.5,-320.94C209.5,-306.83 209.5,-291.11 209.5,-278.11"/>
<polygon fill="orange" stroke="orange" points="206,-321.34 209.5,-331.34 213,-321.34 206,-321.34"/>
<text text-anchor="middle" x="229" y="-305" font-family="Helvetica,sans-Serif" font-size="10.00"> &lt; int &gt;</text>
</g>
<!-- Node6 -->
<g id="node6" class="node">
<title>Node6</title>
<g id="a_node6"><a xlink:title=" ">
<polygon fill="white" stroke="#bfbfbf" points="279.5,-215.5 279.5,-283.5 417.5,-283.5 417.5,-215.5 279.5,-215.5"/>
<text text-anchor="start" x="287.5" y="-271.5" font-family="Helvetica,sans-Serif" font-size="10.00">std::vector&lt; KdTreeNode</text>
<text text-anchor="middle" x="348.5" y="-260.5" font-family="Helvetica,sans-Serif" font-size="10.00">&lt; Scalar &gt; &gt;</text>
<polyline fill="none" stroke="#bfbfbf" points="279.5,-253.5 417.5,-253.5 "/>
<text text-anchor="start" x="287.5" y="-241.5" font-family="Helvetica,sans-Serif" font-size="10.00">+ elements</text>
<polyline fill="none" stroke="#bfbfbf" points="279.5,-234.5 417.5,-234.5 "/>
<text text-anchor="middle" x="348.5" y="-222.5" font-family="Helvetica,sans-Serif" font-size="10.00"> </text>
</a>
</g>
</g>
<!-- Node3&#45;&gt;Node6 -->
<g id="edge7" class="edge">
<title>Node3&#45;&gt;Node6</title>
<path fill="none" stroke="orange" d="M253.04,-325.01C270,-311.77 289.36,-296.66 306.2,-283.52"/>
<polygon fill="orange" stroke="orange" points="250.66,-322.43 244.94,-331.34 254.97,-327.95 250.66,-322.43"/>
<text text-anchor="middle" x="348" y="-305" font-family="Helvetica,sans-Serif" font-size="10.00"> &lt; KdTreeNode&lt; Scalar &gt; &gt;</text>
</g>
<!-- Node4 -->
<g id="node4" class="node">
<title>Node4</title>
<g id="a_node4"><a xlink:title=" ">
<polygon fill="white" stroke="#bfbfbf" points="195,-436.5 195,-493.5 224,-493.5 224,-436.5 195,-436.5"/>
<text text-anchor="middle" x="209.5" y="-481.5" font-family="Helvetica,sans-Serif" font-size="10.00">T</text>
<polyline fill="none" stroke="#bfbfbf" points="195,-474.5 224,-474.5 "/>
<text text-anchor="middle" x="209.5" y="-462.5" font-family="Helvetica,sans-Serif" font-size="10.00"> </text>
<polyline fill="none" stroke="#bfbfbf" points="195,-455.5 224,-455.5 "/>
<text text-anchor="middle" x="209.5" y="-443.5" font-family="Helvetica,sans-Serif" font-size="10.00"> </text>
</a>
</g>
</g>
<!-- Node4&#45;&gt;Node3 -->
<g id="edge3" class="edge">
<title>Node4&#45;&gt;Node3</title>
<path fill="none" stroke="#404040" d="M209.5,-436.4C209.5,-425.55 209.5,-412.87 209.5,-401.05"/>
<polygon fill="none" stroke="#404040" points="209.5,-400.68 205.5,-394.68 209.5,-388.68 213.5,-394.68 209.5,-400.68"/>
<text text-anchor="middle" x="238.5" y="-410" font-family="Helvetica,sans-Serif" font-size="10.00"> +elements</text>
</g>
<!-- Node5&#45;&gt;Node1 -->
<g id="edge4" class="edge">
<title>Node5&#45;&gt;Node1</title>
<path fill="none" stroke="#404040" d="M209.5,-220.76C209.5,-209.05 209.5,-194.65 209.5,-179.66"/>
<polygon fill="none" stroke="#404040" points="209.5,-179.55 205.5,-173.55 209.5,-167.55 213.5,-173.55 209.5,-179.55"/>
<text text-anchor="middle" x="240" y="-189" font-family="Helvetica,sans-Serif" font-size="10.00"> #m_indices</text>
</g>
<!-- Node6&#45;&gt;Node1 -->
<g id="edge6" class="edge">
<title>Node6&#45;&gt;Node1</title>
<path fill="none" stroke="#404040" d="M320.37,-215.41C310.77,-204.12 299.51,-190.87 287.91,-177.23"/>
<polygon fill="none" stroke="#404040" points="287.62,-176.88 280.68,-174.9 279.84,-167.74 286.78,-169.72 287.62,-176.88"/>
<text text-anchor="middle" x="332.5" y="-189" font-family="Helvetica,sans-Serif" font-size="10.00"> #m_nodes</text>
</g>
</g>
</svg>
