<?xml version="1.0" encoding="UTF-8" standalone="no"?>
<!DOCTYPE svg PUBLIC "-//W3C//DTD SVG 1.1//EN"
 "http://www.w3.org/Graphics/SVG/1.1/DTD/svg11.dtd">
<!-- Generated by graphviz version 2.43.0 (0)
 -->
<!-- Title: Ponca::MeanNormal&lt; DataPoint, _WFunctor, T &gt; Pages: 1 -->
<svg width="200pt" height="204pt"
 viewBox="0.00 0.00 200.00 204.00" xmlns="http://www.w3.org/2000/svg" xmlns:xlink="http://www.w3.org/1999/xlink">
<g id="graph0" class="graph" transform="scale(1 1) rotate(0) translate(4 200)">
<title>Ponca::MeanNormal&lt; DataPoint, _WFunctor, T &gt;</title>
<!-- Node1 -->
<g id="node1" class="node">
<title>Node1</title>
<g id="a_node1"><a xlink:title="Compute the barycenter of the input points + their normals.">
<polygon fill="#bfbfbf" stroke="black" points="44,-0.5 44,-101.5 192,-101.5 192,-0.5 44,-0.5"/>
<text text-anchor="start" x="52" y="-89.5" font-family="Helvetica,sans-Serif" font-size="10.00">Ponca::MeanNormal&lt;</text>
<text text-anchor="middle" x="118" y="-78.5" font-family="Helvetica,sans-Serif" font-size="10.00"> DataPoint, _WFunctor, T &gt;</text>
<polyline fill="none" stroke="black" points="44,-71.5 192,-71.5 "/>
<text text-anchor="start" x="52" y="-59.5" font-family="Helvetica,sans-Serif" font-size="10.00"># m_sumN</text>
<polyline fill="none" stroke="black" points="44,-52.5 192,-52.5 "/>
<text text-anchor="start" x="52" y="-40.5" font-family="Helvetica,sans-Serif" font-size="10.00">+ meanNormal()</text>
<text text-anchor="start" x="52" y="-29.5" font-family="Helvetica,sans-Serif" font-size="10.00">+ meanNormal()</text>
<text text-anchor="start" x="52" y="-18.5" font-family="Helvetica,sans-Serif" font-size="10.00">+ init()</text>
<text text-anchor="start" x="52" y="-7.5" font-family="Helvetica,sans-Serif" font-size="10.00">+ addLocalNeighbor()</text>
</a>
</g>
</g>
<!-- Node2 -->
<g id="node2" class="node">
<title>Node2</title>
<g id="a_node2"><a xlink:title=" ">
<polygon fill="none" stroke="#bfbfbf" points="0,-138.5 0,-195.5 136,-195.5 136,-138.5 0,-138.5"/>
<text text-anchor="middle" x="68" y="-183.5" font-family="Helvetica,sans-Serif" font-size="10.00">FittingProcedureConcept</text>
<polyline fill="none" stroke="#bfbfbf" points="0,-176.5 136,-176.5 "/>
<text text-anchor="middle" x="68" y="-164.5" font-family="Helvetica,sans-Serif" font-size="10.00"> </text>
<polyline fill="none" stroke="#bfbfbf" points="0,-157.5 136,-157.5 "/>
<text text-anchor="middle" x="68" y="-145.5" font-family="Helvetica,sans-Serif" font-size="10.00"> </text>
</a>
</g>
</g>
<!-- Node2&#45;&gt;Node1 -->
<g id="edge1" class="edge">
<title>Node2&#45;&gt;Node1</title>
<path fill="none" stroke="midnightblue" d="M84.14,-129.2C88,-120.4 92.18,-110.87 96.24,-101.61"/>
<polygon fill="none" stroke="midnightblue" points="80.92,-127.84 80.1,-138.4 87.33,-130.65 80.92,-127.84"/>
</g>
<!-- Node3 -->
<g id="node3" class="node">
<title>Node3</title>
<g id="a_node3"><a xlink:title=" ">
<polygon fill="none" stroke="#bfbfbf" points="154.5,-138.5 154.5,-195.5 183.5,-195.5 183.5,-138.5 154.5,-138.5"/>
<text text-anchor="middle" x="169" y="-183.5" font-family="Helvetica,sans-Serif" font-size="10.00">T</text>
<polyline fill="none" stroke="#bfbfbf" points="154.5,-176.5 183.5,-176.5 "/>
<text text-anchor="middle" x="169" y="-164.5" font-family="Helvetica,sans-Serif" font-size="10.00"> </text>
<polyline fill="none" stroke="#bfbfbf" points="154.5,-157.5 183.5,-157.5 "/>
<text text-anchor="middle" x="169" y="-145.5" font-family="Helvetica,sans-Serif" font-size="10.00"> </text>
</a>
</g>
</g>
<!-- Node3&#45;&gt;Node1 -->
<g id="edge2" class="edge">
<title>Node3&#45;&gt;Node1</title>
<path fill="none" stroke="midnightblue" d="M152.54,-129.2C148.6,-120.4 144.34,-110.87 140.19,-101.61"/>
<polygon fill="none" stroke="midnightblue" points="149.38,-130.7 156.65,-138.4 155.77,-127.85 149.38,-130.7"/>
</g>
</g>
</svg>
