<?xml version="1.0" encoding="UTF-8" standalone="no"?>
<!DOCTYPE svg PUBLIC "-//W3C//DTD SVG 1.1//EN"
 "http://www.w3.org/Graphics/SVG/1.1/DTD/svg11.dtd">
<!-- Generated by graphviz version 2.43.0 (0)
 -->
<!-- Title: Ponca::internal::CenteredNeighborhoodFrame&lt; DataPoint &gt; Pages: 1 -->
<svg width="188pt" height="389pt"
 viewBox="0.00 0.00 188.00 389.00" xmlns="http://www.w3.org/2000/svg" xmlns:xlink="http://www.w3.org/1999/xlink">
<g id="graph0" class="graph" transform="scale(1 1) rotate(0) translate(4 385)">
<title>Ponca::internal::CenteredNeighborhoodFrame&lt; DataPoint &gt;</title>
<!-- Node1 -->
<g id="Node000001" class="node">
<title>Node1</title>
<g id="a_Node000001"><a xlink:title="NeighborhoodFrame that express 3d points relatively to a prescribed center.">
<polygon fill="#999999" stroke="transparent" points="180,-381 0,-381 0,-246 180,-246 180,-381"/>
<text text-anchor="start" x="5" y="-368.5" font-family="Helvetica,sans-Serif" font-size="10.00">Ponca::internal::Centered</text>
<text text-anchor="start" x="5" y="-357.5" font-family="Helvetica,sans-Serif" font-size="10.00">NeighborhoodFrame&lt; DataPoint &gt;</text>
<text text-anchor="start" x="6" y="-342.5" font-family="Helvetica,sans-Serif" font-size="10.00">+</text>
<text text-anchor="start" x="21" y="-342.5" font-family="Helvetica,sans-Serif" font-size="10.00">hasLocalFrame</text>
<text text-anchor="start" x="6" y="-327.5" font-family="Helvetica,sans-Serif" font-size="10.00">+</text>
<text text-anchor="start" x="21" y="-327.5" font-family="Helvetica,sans-Serif" font-size="10.00">CenteredNeighborhoodFrame()</text>
<text text-anchor="start" x="6" y="-312.5" font-family="Helvetica,sans-Serif" font-size="10.00">+</text>
<text text-anchor="start" x="21" y="-312.5" font-family="Helvetica,sans-Serif" font-size="10.00">CenteredNeighborhoodFrame()</text>
<text text-anchor="start" x="6" y="-297.5" font-family="Helvetica,sans-Serif" font-size="10.00">+</text>
<text text-anchor="start" x="21" y="-297.5" font-family="Helvetica,sans-Serif" font-size="10.00">changeNeighborhoodFrame()</text>
<text text-anchor="start" x="6" y="-282.5" font-family="Helvetica,sans-Serif" font-size="10.00">+</text>
<text text-anchor="start" x="21" y="-282.5" font-family="Helvetica,sans-Serif" font-size="10.00">convertToGlobalBasis()</text>
<text text-anchor="start" x="6" y="-267.5" font-family="Helvetica,sans-Serif" font-size="10.00">+</text>
<text text-anchor="start" x="21" y="-267.5" font-family="Helvetica,sans-Serif" font-size="10.00">convertToLocalBasis()</text>
<text text-anchor="start" x="6" y="-252.5" font-family="Helvetica,sans-Serif" font-size="10.00">+</text>
<text text-anchor="start" x="21" y="-252.5" font-family="Helvetica,sans-Serif" font-size="10.00">evalPos()</text>
<polygon fill="#666666" stroke="#666666" points="0,-352.5 0,-352.5 180,-352.5 180,-352.5 0,-352.5"/>
<polygon fill="#666666" stroke="#666666" points="0,-337.5 0,-337.5 19,-337.5 19,-337.5 0,-337.5"/>
<polygon fill="#666666" stroke="#666666" points="19,-337.5 19,-337.5 180,-337.5 180,-337.5 19,-337.5"/>
<polygon fill="none" stroke="#666666" points="0,-246 0,-381 180,-381 180,-246 0,-246"/>
</a>
</g>
</g>
<!-- Node2 -->
<g id="Node000002" class="node">
<title>Node2</title>
<g id="a_Node000002"><a xlink:href="classPonca_1_1DistWeightFunc.html" target="_top" xlink:title="Weight neighbors according to the Euclidean distance between a query and a reference position.">
<polygon fill="white" stroke="transparent" points="166,-210 14,-210 14,0 166,0 166,-210"/>
<text text-anchor="start" x="19" y="-198" font-family="Helvetica,sans-Serif" font-size="10.00">Ponca::DistWeightFunc</text>
<text text-anchor="start" x="19" y="-187" font-family="Helvetica,sans-Serif" font-size="10.00">&lt; DataPoint, WeightKernel &gt;</text>
<text text-anchor="start" x="29.5" y="-172" font-family="Helvetica,sans-Serif" font-size="10.00">+</text>
<text text-anchor="start" x="54" y="-172" font-family="Helvetica,sans-Serif" font-size="10.00">isCompact</text>
<text text-anchor="start" x="29.5" y="-157" font-family="Helvetica,sans-Serif" font-size="10.00">#</text>
<text text-anchor="start" x="54" y="-157" font-family="Helvetica,sans-Serif" font-size="10.00">m_t</text>
<text text-anchor="start" x="29.5" y="-142" font-family="Helvetica,sans-Serif" font-size="10.00">#</text>
<text text-anchor="start" x="54" y="-142" font-family="Helvetica,sans-Serif" font-size="10.00">m_wk</text>
<text text-anchor="start" x="29.5" y="-127" font-family="Helvetica,sans-Serif" font-size="10.00">+</text>
<text text-anchor="start" x="54" y="-127" font-family="Helvetica,sans-Serif" font-size="10.00">DistWeightFunc()</text>
<text text-anchor="start" x="29.5" y="-112" font-family="Helvetica,sans-Serif" font-size="10.00">+</text>
<text text-anchor="start" x="54" y="-112" font-family="Helvetica,sans-Serif" font-size="10.00">DistWeightFunc()</text>
<text text-anchor="start" x="29.5" y="-97" font-family="Helvetica,sans-Serif" font-size="10.00">+</text>
<text text-anchor="start" x="54" y="-97" font-family="Helvetica,sans-Serif" font-size="10.00">operator()()</text>
<text text-anchor="start" x="29.5" y="-82" font-family="Helvetica,sans-Serif" font-size="10.00">+</text>
<text text-anchor="start" x="54" y="-82" font-family="Helvetica,sans-Serif" font-size="10.00">spacedw()</text>
<text text-anchor="start" x="29.5" y="-67" font-family="Helvetica,sans-Serif" font-size="10.00">+</text>
<text text-anchor="start" x="54" y="-67" font-family="Helvetica,sans-Serif" font-size="10.00">spaced2w()</text>
<text text-anchor="start" x="29.5" y="-52" font-family="Helvetica,sans-Serif" font-size="10.00">+</text>
<text text-anchor="start" x="54" y="-52" font-family="Helvetica,sans-Serif" font-size="10.00">scaledw()</text>
<text text-anchor="start" x="29.5" y="-37" font-family="Helvetica,sans-Serif" font-size="10.00">+</text>
<text text-anchor="start" x="54" y="-37" font-family="Helvetica,sans-Serif" font-size="10.00">scaled2w()</text>
<text text-anchor="start" x="29.5" y="-22" font-family="Helvetica,sans-Serif" font-size="10.00">+</text>
<text text-anchor="start" x="54" y="-22" font-family="Helvetica,sans-Serif" font-size="10.00">scaleSpaced2w()</text>
<text text-anchor="start" x="29.5" y="-7" font-family="Helvetica,sans-Serif" font-size="10.00">+</text>
<text text-anchor="start" x="54" y="-7" font-family="Helvetica,sans-Serif" font-size="10.00">evalScale()</text>
<polygon fill="#666666" stroke="#666666" points="14,-182 14,-182 166,-182 166,-182 14,-182"/>
<polygon fill="#666666" stroke="#666666" points="14,-137 14,-137 52,-137 52,-137 14,-137"/>
<polygon fill="#666666" stroke="#666666" points="52,-137 52,-137 166,-137 166,-137 52,-137"/>
<polygon fill="none" stroke="#666666" points="14,0 14,-210 166,-210 166,0 14,0"/>
</a>
</g>
</g>
<!-- Node1&#45;&gt;Node2 -->
<g id="edge1_Node000001_Node000002" class="edge">
<title>Node1&#45;&gt;Node2</title>
<g id="a_edge1_Node000001_Node000002"><a xlink:title=" ">
<path fill="none" stroke="#63b8ff" d="M90,-235.67C90,-227.31 90,-218.69 90,-210.07"/>
<polygon fill="none" stroke="#63b8ff" points="86.5,-235.74 90,-245.74 93.5,-235.74 86.5,-235.74"/>
</a>
</g>
</g>
</g>
</svg>
