<?xml version="1.0" encoding="UTF-8" standalone="no"?>
<!DOCTYPE svg PUBLIC "-//W3C//DTD SVG 1.1//EN"
 "http://www.w3.org/Graphics/SVG/1.1/DTD/svg11.dtd">
<!-- Generated by graphviz version 2.43.0 (0)
 -->
<!-- Title: Ponca::SphereFitImpl&lt; DataPoint, _WFunctor, T &gt; Pages: 1 -->
<svg width="204pt" height="215pt"
 viewBox="0.00 0.00 204.00 215.00" xmlns="http://www.w3.org/2000/svg" xmlns:xlink="http://www.w3.org/1999/xlink">
<g id="graph0" class="graph" transform="scale(1 1) rotate(0) translate(4 211)">
<title>Ponca::SphereFitImpl&lt; DataPoint, _WFunctor, T &gt;</title>
<!-- Node1 -->
<g id="node1" class="node">
<title>Node1</title>
<g id="a_node1"><a xlink:title="Algebraic Sphere fitting procedure on point sets without normals.">
<polygon fill="#bfbfbf" stroke="black" points="40,-0.5 40,-112.5 196,-112.5 196,-0.5 40,-0.5"/>
<text text-anchor="start" x="48" y="-100.5" font-family="Helvetica,sans-Serif" font-size="10.00">Ponca::SphereFitImpl</text>
<text text-anchor="middle" x="118" y="-89.5" font-family="Helvetica,sans-Serif" font-size="10.00">&lt; DataPoint, _WFunctor, T &gt;</text>
<polyline fill="none" stroke="black" points="40,-82.5 196,-82.5 "/>
<text text-anchor="start" x="48" y="-70.5" font-family="Helvetica,sans-Serif" font-size="10.00"># m_matA</text>
<polyline fill="none" stroke="black" points="40,-63.5 196,-63.5 "/>
<text text-anchor="start" x="48" y="-51.5" font-family="Helvetica,sans-Serif" font-size="10.00">+ sphereFit()</text>
<text text-anchor="start" x="48" y="-40.5" font-family="Helvetica,sans-Serif" font-size="10.00">+ sphereFit()</text>
<text text-anchor="start" x="48" y="-29.5" font-family="Helvetica,sans-Serif" font-size="10.00">+ init()</text>
<text text-anchor="start" x="48" y="-18.5" font-family="Helvetica,sans-Serif" font-size="10.00">+ addLocalNeighbor()</text>
<text text-anchor="start" x="48" y="-7.5" font-family="Helvetica,sans-Serif" font-size="10.00">+ finalize()</text>
</a>
</g>
</g>
<!-- Node2 -->
<g id="node2" class="node">
<title>Node2</title>
<g id="a_node2"><a xlink:title=" ">
<polygon fill="none" stroke="#bfbfbf" points="0,-149.5 0,-206.5 136,-206.5 136,-149.5 0,-149.5"/>
<text text-anchor="middle" x="68" y="-194.5" font-family="Helvetica,sans-Serif" font-size="10.00">FittingProcedureConcept</text>
<polyline fill="none" stroke="#bfbfbf" points="0,-187.5 136,-187.5 "/>
<text text-anchor="middle" x="68" y="-175.5" font-family="Helvetica,sans-Serif" font-size="10.00"> </text>
<polyline fill="none" stroke="#bfbfbf" points="0,-168.5 136,-168.5 "/>
<text text-anchor="middle" x="68" y="-156.5" font-family="Helvetica,sans-Serif" font-size="10.00"> </text>
</a>
</g>
</g>
<!-- Node2&#45;&gt;Node1 -->
<g id="edge1" class="edge">
<title>Node2&#45;&gt;Node1</title>
<path fill="none" stroke="midnightblue" d="M83.51,-139.94C87.1,-131.35 91,-122.02 94.85,-112.83"/>
<polygon fill="none" stroke="midnightblue" points="80.23,-138.71 79.6,-149.28 86.69,-141.41 80.23,-138.71"/>
</g>
<!-- Node3 -->
<g id="node3" class="node">
<title>Node3</title>
<g id="a_node3"><a xlink:title=" ">
<polygon fill="none" stroke="#bfbfbf" points="154.5,-149.5 154.5,-206.5 183.5,-206.5 183.5,-149.5 154.5,-149.5"/>
<text text-anchor="middle" x="169" y="-194.5" font-family="Helvetica,sans-Serif" font-size="10.00">T</text>
<polyline fill="none" stroke="#bfbfbf" points="154.5,-187.5 183.5,-187.5 "/>
<text text-anchor="middle" x="169" y="-175.5" font-family="Helvetica,sans-Serif" font-size="10.00"> </text>
<polyline fill="none" stroke="#bfbfbf" points="154.5,-168.5 183.5,-168.5 "/>
<text text-anchor="middle" x="169" y="-156.5" font-family="Helvetica,sans-Serif" font-size="10.00"> </text>
</a>
</g>
</g>
<!-- Node3&#45;&gt;Node1 -->
<g id="edge2" class="edge">
<title>Node3&#45;&gt;Node1</title>
<path fill="none" stroke="midnightblue" d="M153.18,-139.94C149.52,-131.35 145.54,-122.02 141.62,-112.83"/>
<polygon fill="none" stroke="midnightblue" points="150.03,-141.46 157.17,-149.28 156.47,-138.71 150.03,-141.46"/>
</g>
</g>
</svg>
