<?xml version="1.0" encoding="UTF-8" standalone="no"?>
<!DOCTYPE svg PUBLIC "-//W3C//DTD SVG 1.1//EN"
 "http://www.w3.org/Graphics/SVG/1.1/DTD/svg11.dtd">
<!-- Generated by graphviz version 2.43.0 (0)
 -->
<!-- Title: Ponca::PrimitiveDer&lt; DataPoint, _WFunctor, Type, T &gt; Pages: 1 -->
<svg width="188pt" height="265pt"
 viewBox="0.00 0.00 187.50 265.00" xmlns="http://www.w3.org/2000/svg" xmlns:xlink="http://www.w3.org/1999/xlink">
<g id="graph0" class="graph" transform="scale(1 1) rotate(0) translate(4 261)">
<title>Ponca::PrimitiveDer&lt; DataPoint, _WFunctor, Type, T &gt;</title>
<!-- Node1 -->
<g id="Node000001" class="node">
<title>Node1</title>
<g id="a_Node000001"><a xlink:title="Generic class performing the Fit derivation.">
<polygon fill="#999999" stroke="transparent" points="179.5,-161 49.5,-161 49.5,0 179.5,0 179.5,-161"/>
<text text-anchor="start" x="54.5" y="-148.5" font-family="Helvetica,sans-Serif" font-size="10.00">Ponca::PrimitiveDer</text>
<text text-anchor="start" x="54.5" y="-137.5" font-family="Helvetica,sans-Serif" font-size="10.00">&lt; DataPoint, _WFunctor,</text>
<text text-anchor="start" x="90" y="-126.5" font-family="Helvetica,sans-Serif" font-size="10.00"> Type, T &gt;</text>
<text text-anchor="start" x="56.5" y="-111.5" font-family="Helvetica,sans-Serif" font-size="10.00">#</text>
<text text-anchor="start" x="72.5" y="-111.5" font-family="Helvetica,sans-Serif" font-size="10.00">m_dSumW</text>
<text text-anchor="start" x="56.5" y="-96.5" font-family="Helvetica,sans-Serif" font-size="10.00">#</text>
<text text-anchor="start" x="72.5" y="-96.5" font-family="Helvetica,sans-Serif" font-size="10.00">NbDerivatives</text>
<text text-anchor="start" x="56.5" y="-81.5" font-family="Helvetica,sans-Serif" font-size="10.00">#</text>
<text text-anchor="start" x="72.5" y="-81.5" font-family="Helvetica,sans-Serif" font-size="10.00">DerStorageOrder</text>
<text text-anchor="start" x="56.5" y="-66.5" font-family="Helvetica,sans-Serif" font-size="10.00">+</text>
<text text-anchor="start" x="72.5" y="-66.5" font-family="Helvetica,sans-Serif" font-size="10.00">init()</text>
<text text-anchor="start" x="56.5" y="-51.5" font-family="Helvetica,sans-Serif" font-size="10.00">+</text>
<text text-anchor="start" x="72.5" y="-51.5" font-family="Helvetica,sans-Serif" font-size="10.00">addLocalNeighbor()</text>
<text text-anchor="start" x="56.5" y="-36.5" font-family="Helvetica,sans-Serif" font-size="10.00">+</text>
<text text-anchor="start" x="72.5" y="-36.5" font-family="Helvetica,sans-Serif" font-size="10.00">isScaleDer()</text>
<text text-anchor="start" x="56.5" y="-21.5" font-family="Helvetica,sans-Serif" font-size="10.00">+</text>
<text text-anchor="start" x="72.5" y="-21.5" font-family="Helvetica,sans-Serif" font-size="10.00">isSpaceDer()</text>
<text text-anchor="start" x="56.5" y="-6.5" font-family="Helvetica,sans-Serif" font-size="10.00">+</text>
<text text-anchor="start" x="72.5" y="-6.5" font-family="Helvetica,sans-Serif" font-size="10.00">derDimension()</text>
<polygon fill="#666666" stroke="#666666" points="49.5,-121.5 49.5,-121.5 179.5,-121.5 179.5,-121.5 49.5,-121.5"/>
<polygon fill="#666666" stroke="#666666" points="49.5,-76.5 49.5,-76.5 70.5,-76.5 70.5,-76.5 49.5,-76.5"/>
<polygon fill="#666666" stroke="#666666" points="70.5,-76.5 70.5,-76.5 179.5,-76.5 179.5,-76.5 70.5,-76.5"/>
<polygon fill="none" stroke="#666666" points="49.5,0 49.5,-161 179.5,-161 179.5,0 49.5,0"/>
</a>
</g>
</g>
<!-- Node2 -->
<g id="Node000002" class="node">
<title>Node2</title>
<g id="a_Node000002"><a xlink:title=" ">
<polygon fill="white" stroke="transparent" points="135,-257 0,-257 0,-197 135,-197 135,-257"/>
<text text-anchor="start" x="5.5" y="-245" font-family="Helvetica,sans-Serif" font-size="10.00">Concept::FittingExtension</text>
<text text-anchor="start" x="48" y="-234" font-family="Helvetica,sans-Serif" font-size="10.00">Concept</text>
<text text-anchor="start" x="66" y="-219" font-family="Helvetica,sans-Serif" font-size="10.00"> </text>
<text text-anchor="start" x="66" y="-204" font-family="Helvetica,sans-Serif" font-size="10.00"> </text>
<polygon fill="#bfbfbf" stroke="#bfbfbf" points="0.5,-229 0.5,-229 135.5,-229 135.5,-229 0.5,-229"/>
<polygon fill="#bfbfbf" stroke="#bfbfbf" points="0.5,-214 0.5,-214 135.5,-214 135.5,-214 0.5,-214"/>
<polygon fill="none" stroke="#bfbfbf" points="0,-197 0,-257 135,-257 135,-197 0,-197"/>
</a>
</g>
</g>
<!-- Node2&#45;&gt;Node1 -->
<g id="edge1_Node000001_Node000002" class="edge">
<title>Node2&#45;&gt;Node1</title>
<g id="a_edge1_Node000001_Node000002"><a xlink:title=" ">
<path fill="none" stroke="#63b8ff" d="M80.11,-187.24C82.75,-179.11 85.63,-170.25 88.57,-161.24"/>
<polygon fill="none" stroke="#63b8ff" points="76.78,-186.17 77.01,-196.76 83.43,-188.33 76.78,-186.17"/>
</a>
</g>
</g>
<!-- Node3 -->
<g id="Node000003" class="node">
<title>Node3</title>
<g id="a_Node000003"><a xlink:title=" ">
<polygon fill="white" stroke="transparent" points="170,-251.5 153,-251.5 153,-202.5 170,-202.5 170,-251.5"/>
<text text-anchor="start" x="158.5" y="-239" font-family="Helvetica,sans-Serif" font-size="10.00">T</text>
<text text-anchor="start" x="160" y="-224" font-family="Helvetica,sans-Serif" font-size="10.00"> </text>
<text text-anchor="start" x="160" y="-209" font-family="Helvetica,sans-Serif" font-size="10.00"> </text>
<polygon fill="#bfbfbf" stroke="#bfbfbf" points="153.5,-234 153.5,-234 170.5,-234 170.5,-234 153.5,-234"/>
<polygon fill="#bfbfbf" stroke="#bfbfbf" points="153.5,-219 153.5,-219 170.5,-219 170.5,-219 153.5,-219"/>
<polygon fill="none" stroke="#bfbfbf" points="153,-202.5 153,-251.5 170,-251.5 170,-202.5 153,-202.5"/>
</a>
</g>
</g>
<!-- Node3&#45;&gt;Node1 -->
<g id="edge2_Node000001_Node000003" class="edge">
<title>Node3&#45;&gt;Node1</title>
<g id="a_edge2_Node000001_Node000003"><a xlink:title=" ">
<path fill="none" stroke="#63b8ff" d="M150.66,-192.68C147.56,-183.16 144.05,-172.34 140.45,-161.29"/>
<polygon fill="none" stroke="#63b8ff" points="147.42,-194.03 153.84,-202.46 154.08,-191.87 147.42,-194.03"/>
</a>
</g>
</g>
</g>
</svg>
