<?xml version="1.0" encoding="UTF-8" standalone="no"?>
<!DOCTYPE svg PUBLIC "-//W3C//DTD SVG 1.1//EN"
 "http://www.w3.org/Graphics/SVG/1.1/DTD/svg11.dtd">
<!-- Generated by graphviz version 2.43.0 (0)
 -->
<!-- Title: Ponca::CovarianceFitDer&lt; DataPoint, _WFunctor, DiffType, T &gt; Pages: 1 -->
<svg width="206pt" height="203pt"
 viewBox="0.00 0.00 205.50 203.00" xmlns="http://www.w3.org/2000/svg" xmlns:xlink="http://www.w3.org/1999/xlink">
<g id="graph0" class="graph" transform="scale(1 1) rotate(0) translate(4 199)">
<title>Ponca::CovarianceFitDer&lt; DataPoint, _WFunctor, DiffType, T &gt;</title>
<!-- Node1 -->
<g id="node1" class="node">
<title>Node1</title>
<g id="a_node1"><a xlink:title="Internal generic class computing the derivatives of covariance matrix computed by CovarianceFitBase.">
<polygon fill="#999999" stroke="#666666" points="197.5,-118 55.5,-118 55.5,0 197.5,0 197.5,-118"/>
<text text-anchor="start" x="63.5" y="-106" font-family="Helvetica,sans-Serif" font-size="10.00">{Ponca::CovarianceFitDer</text>
<text text-anchor="start" x="63.5" y="-95" font-family="Helvetica,sans-Serif" font-size="10.00">&lt; DataPoint, _WFunctor,</text>
<text text-anchor="middle" x="126.5" y="-84" font-family="Helvetica,sans-Serif" font-size="10.00"> DiffType, T &gt;</text>
<text text-anchor="start" x="63.5" y="-73" font-family="Helvetica,sans-Serif" font-size="10.00">|# m_dCov</text>
<text text-anchor="start" x="63.5" y="-62" font-family="Helvetica,sans-Serif" font-size="10.00">|+ covarianceFitDer()</text>
<text text-anchor="start" x="63.5" y="-51" font-family="Helvetica,sans-Serif" font-size="10.00">+ covarianceFitDer()</text>
<text text-anchor="start" x="63.5" y="-40" font-family="Helvetica,sans-Serif" font-size="10.00">+ init()</text>
<text text-anchor="start" x="63.5" y="-29" font-family="Helvetica,sans-Serif" font-size="10.00">+ addLocalNeighbor()</text>
<text text-anchor="start" x="63.5" y="-18" font-family="Helvetica,sans-Serif" font-size="10.00">+ finalize()</text>
<text text-anchor="middle" x="126.5" y="-7" font-family="Helvetica,sans-Serif" font-size="10.00">}</text>
</a>
</g>
</g>
<!-- Node2 -->
<g id="node2" class="node">
<title>Node2</title>
<g id="a_node2"><a xlink:title=" ">
<polygon fill="white" stroke="#bfbfbf" points="147,-195 0,-195 0,-154 147,-154 147,-195"/>
<text text-anchor="start" x="8" y="-183" font-family="Helvetica,sans-Serif" font-size="10.00">{Concept::FittingExtension</text>
<text text-anchor="middle" x="73.5" y="-172" font-family="Helvetica,sans-Serif" font-size="10.00">Concept</text>
<text text-anchor="middle" x="73.5" y="-161" font-family="Helvetica,sans-Serif" font-size="10.00">||}</text>
</a>
</g>
</g>
<!-- Node2&#45;&gt;Node1 -->
<g id="edge1" class="edge">
<title>Node2&#45;&gt;Node1</title>
<path fill="none" stroke="#63b8ff" d="M86.96,-144.67C90.74,-136.57 95,-127.46 99.28,-118.3"/>
<polygon fill="none" stroke="#63b8ff" points="83.67,-143.45 82.61,-153.99 90.01,-146.41 83.67,-143.45"/>
</g>
<!-- Node3 -->
<g id="node3" class="node">
<title>Node3</title>
<g id="a_node3"><a xlink:title=" ">
<polygon fill="white" stroke="#bfbfbf" points="194,-189.5 165,-189.5 165,-159.5 194,-159.5 194,-189.5"/>
<text text-anchor="middle" x="179.5" y="-177.5" font-family="Helvetica,sans-Serif" font-size="10.00">{T</text>
<text text-anchor="middle" x="179.5" y="-166.5" font-family="Helvetica,sans-Serif" font-size="10.00">||}</text>
</a>
</g>
</g>
<!-- Node3&#45;&gt;Node1 -->
<g id="edge2" class="edge">
<title>Node3&#45;&gt;Node1</title>
<path fill="none" stroke="#63b8ff" d="M168.45,-149.83C164.11,-140.53 158.91,-129.41 153.68,-118.22"/>
<polygon fill="none" stroke="#63b8ff" points="165.39,-151.55 172.79,-159.13 171.73,-148.58 165.39,-151.55"/>
</g>
</g>
</svg>
