<?xml version="1.0" encoding="UTF-8" standalone="no"?>
<!DOCTYPE svg PUBLIC "-//W3C//DTD SVG 1.1//EN"
 "http://www.w3.org/Graphics/SVG/1.1/DTD/svg11.dtd">
<!-- Generated by graphviz version 2.43.0 (0)
 -->
<!-- Title: Ponca::KdTreeKNearestIndexQuery&lt; DataPoint &gt; Pages: 1 -->
<svg width="720pt" height="1003pt"
 viewBox="0.00 0.00 720.00 1003.00" xmlns="http://www.w3.org/2000/svg" xmlns:xlink="http://www.w3.org/1999/xlink">
<g id="graph0" class="graph" transform="scale(1 1) rotate(0) translate(4 999)">
<title>Ponca::KdTreeKNearestIndexQuery&lt; DataPoint &gt;</title>
<!-- Node1 -->
<g id="node1" class="node">
<title>Node1</title>
<g id="a_node1"><a xlink:title=" ">
<polygon fill="#999999" stroke="#666666" points="0,-0.5 0,-101.5 170,-101.5 170,-0.5 0,-0.5"/>
<text text-anchor="start" x="8" y="-89.5" font-family="Helvetica,sans-Serif" font-size="10.00">Ponca::KdTreeKNearestIndex</text>
<text text-anchor="middle" x="85" y="-78.5" font-family="Helvetica,sans-Serif" font-size="10.00">Query&lt; DataPoint &gt;</text>
<polyline fill="none" stroke="#666666" points="0,-71.5 170,-71.5 "/>
<text text-anchor="middle" x="85" y="-59.5" font-family="Helvetica,sans-Serif" font-size="10.00"> </text>
<polyline fill="none" stroke="#666666" points="0,-52.5 170,-52.5 "/>
<text text-anchor="start" x="8" y="-40.5" font-family="Helvetica,sans-Serif" font-size="10.00">+ KdTreeKNearestIndexQuery()</text>
<text text-anchor="start" x="8" y="-29.5" font-family="Helvetica,sans-Serif" font-size="10.00">+ begin()</text>
<text text-anchor="start" x="8" y="-18.5" font-family="Helvetica,sans-Serif" font-size="10.00">+ end()</text>
<text text-anchor="start" x="8" y="-7.5" font-family="Helvetica,sans-Serif" font-size="10.00"># search()</text>
</a>
</g>
</g>
<!-- Node2 -->
<g id="node2" class="node">
<title>Node2</title>
<g id="a_node2"><a xlink:href="classPonca_1_1KdTreeQuery.html" target="_top" xlink:title=" ">
<polygon fill="white" stroke="#bfbfbf" points="16,-139.5 16,-229.5 130,-229.5 130,-139.5 16,-139.5"/>
<text text-anchor="start" x="24" y="-217.5" font-family="Helvetica,sans-Serif" font-size="10.00">Ponca::KdTreeQuery</text>
<text text-anchor="middle" x="73" y="-206.5" font-family="Helvetica,sans-Serif" font-size="10.00">&lt; DataPoint &gt;</text>
<polyline fill="none" stroke="#bfbfbf" points="16,-199.5 130,-199.5 "/>
<text text-anchor="start" x="24" y="-187.5" font-family="Helvetica,sans-Serif" font-size="10.00"># m_kdtree</text>
<text text-anchor="start" x="24" y="-176.5" font-family="Helvetica,sans-Serif" font-size="10.00"># m_stack</text>
<polyline fill="none" stroke="#bfbfbf" points="16,-169.5 130,-169.5 "/>
<text text-anchor="start" x="24" y="-157.5" font-family="Helvetica,sans-Serif" font-size="10.00">+ KdTreeQuery()</text>
<text text-anchor="start" x="24" y="-146.5" font-family="Helvetica,sans-Serif" font-size="10.00"># reset()</text>
</a>
</g>
</g>
<!-- Node2&#45;&gt;Node1 -->
<g id="edge1" class="edge">
<title>Node2&#45;&gt;Node1</title>
<path fill="none" stroke="#63b8ff" d="M77.95,-129.22C78.78,-120.11 79.64,-110.69 80.46,-101.7"/>
<polygon fill="none" stroke="#63b8ff" points="74.45,-129.07 77.03,-139.35 81.42,-129.71 74.45,-129.07"/>
</g>
<!-- Node3 -->
<g id="node3" class="node">
<title>Node3</title>
<g id="a_node3"><a xlink:href="group__spatialpartitioning.html" target="_top" xlink:title=" ">
<polygon fill="white" stroke="#666666" points="148.5,-150.5 148.5,-218.5 301.5,-218.5 301.5,-150.5 148.5,-150.5"/>
<text text-anchor="start" x="156.5" y="-206.5" font-family="Helvetica,sans-Serif" font-size="10.00">Ponca::KNearestIndexQuery</text>
<text text-anchor="middle" x="225" y="-195.5" font-family="Helvetica,sans-Serif" font-size="10.00">&lt; DataPoint::Scalar &gt;</text>
<polyline fill="none" stroke="#666666" points="148.5,-188.5 301.5,-188.5 "/>
<text text-anchor="middle" x="225" y="-176.5" font-family="Helvetica,sans-Serif" font-size="10.00"> </text>
<polyline fill="none" stroke="#666666" points="148.5,-169.5 301.5,-169.5 "/>
<text text-anchor="middle" x="225" y="-157.5" font-family="Helvetica,sans-Serif" font-size="10.00"> </text>
</a>
</g>
</g>
<!-- Node3&#45;&gt;Node1 -->
<g id="edge2" class="edge">
<title>Node3&#45;&gt;Node1</title>
<path fill="none" stroke="#63b8ff" d="M182.1,-143.2C168.11,-130.06 152.42,-115.32 137.79,-101.59"/>
<polygon fill="none" stroke="#63b8ff" points="179.99,-146.02 189.67,-150.32 184.78,-140.92 179.99,-146.02"/>
</g>
<!-- Node4 -->
<g id="node4" class="node">
<title>Node4</title>
<g id="a_node4"><a xlink:href="group__spatialpartitioning.html#structPonca_1_1Query" target="_top" xlink:title=" ">
<polygon fill="white" stroke="#bfbfbf" points="74.5,-549 74.5,-628 191.5,-628 191.5,-549 74.5,-549"/>
<text text-anchor="start" x="82.5" y="-616" font-family="Helvetica,sans-Serif" font-size="10.00">Ponca::Query&lt; Input</text>
<text text-anchor="middle" x="133" y="-605" font-family="Helvetica,sans-Serif" font-size="10.00">_, Output_ &gt;</text>
<polyline fill="none" stroke="#bfbfbf" points="74.5,-598 191.5,-598 "/>
<text text-anchor="middle" x="133" y="-586" font-family="Helvetica,sans-Serif" font-size="10.00"> </text>
<polyline fill="none" stroke="#bfbfbf" points="74.5,-579 191.5,-579 "/>
<text text-anchor="start" x="82.5" y="-567" font-family="Helvetica,sans-Serif" font-size="10.00">+ Query()</text>
<text text-anchor="start" x="82.5" y="-556" font-family="Helvetica,sans-Serif" font-size="10.00">+ Query()</text>
</a>
</g>
</g>
<!-- Node4&#45;&gt;Node3 -->
<g id="edge3" class="edge">
<title>Node4&#45;&gt;Node3</title>
<path fill="none" stroke="#63b8ff" d="M144.09,-539.04C163.06,-456.16 201.24,-289.33 217.45,-218.51"/>
<polygon fill="none" stroke="#63b8ff" points="140.64,-538.43 141.82,-548.95 147.46,-539.99 140.64,-538.43"/>
</g>
<!-- Node5 -->
<g id="node5" class="node">
<title>Node5</title>
<g id="a_node5"><a xlink:title=" ">
<polygon fill="white" stroke="#bfbfbf" points="205.5,-688 205.5,-745 252.5,-745 252.5,-688 205.5,-688"/>
<text text-anchor="middle" x="229" y="-733" font-family="Helvetica,sans-Serif" font-size="10.00">Input_</text>
<polyline fill="none" stroke="#bfbfbf" points="205.5,-726 252.5,-726 "/>
<text text-anchor="middle" x="229" y="-714" font-family="Helvetica,sans-Serif" font-size="10.00"> </text>
<polyline fill="none" stroke="#bfbfbf" points="205.5,-707 252.5,-707 "/>
<text text-anchor="middle" x="229" y="-695" font-family="Helvetica,sans-Serif" font-size="10.00"> </text>
</a>
</g>
</g>
<!-- Node5&#45;&gt;Node4 -->
<g id="edge4" class="edge">
<title>Node5&#45;&gt;Node4</title>
<path fill="none" stroke="#63b8ff" d="M201.73,-679.71C189.45,-663.59 174.92,-644.52 162.39,-628.08"/>
<polygon fill="none" stroke="#63b8ff" points="199.09,-682.02 207.93,-687.85 204.66,-677.77 199.09,-682.02"/>
</g>
<!-- Node15 -->
<g id="node15" class="node">
<title>Node15</title>
<g id="a_node15"><a xlink:href="group__spatialpartitioning.html#structPonca_1_1Query" target="_top" xlink:title=" ">
<polygon fill="white" stroke="#bfbfbf" points="209.5,-549 209.5,-628 326.5,-628 326.5,-549 209.5,-549"/>
<text text-anchor="start" x="217.5" y="-616" font-family="Helvetica,sans-Serif" font-size="10.00">Ponca::Query&lt; Input</text>
<text text-anchor="middle" x="268" y="-605" font-family="Helvetica,sans-Serif" font-size="10.00">_, Output_ &gt;</text>
<polyline fill="none" stroke="#bfbfbf" points="209.5,-598 326.5,-598 "/>
<text text-anchor="middle" x="268" y="-586" font-family="Helvetica,sans-Serif" font-size="10.00"> </text>
<polyline fill="none" stroke="#bfbfbf" points="209.5,-579 326.5,-579 "/>
<text text-anchor="start" x="217.5" y="-567" font-family="Helvetica,sans-Serif" font-size="10.00">+ Query()</text>
<text text-anchor="start" x="217.5" y="-556" font-family="Helvetica,sans-Serif" font-size="10.00">+ Query()</text>
</a>
</g>
</g>
<!-- Node5&#45;&gt;Node15 -->
<g id="edge16" class="edge">
<title>Node5&#45;&gt;Node15</title>
<path fill="none" stroke="#63b8ff" d="M240.63,-677.93C245.5,-662.19 251.16,-643.92 256.06,-628.08"/>
<polygon fill="none" stroke="#63b8ff" points="237.17,-677.26 237.56,-687.85 243.86,-679.33 237.17,-677.26"/>
</g>
<!-- Node6 -->
<g id="node6" class="node">
<title>Node6</title>
<g id="a_node6"><a xlink:title=" ">
<polygon fill="white" stroke="#bfbfbf" points="127.5,-688 127.5,-745 182.5,-745 182.5,-688 127.5,-688"/>
<text text-anchor="middle" x="155" y="-733" font-family="Helvetica,sans-Serif" font-size="10.00">Output_</text>
<polyline fill="none" stroke="#bfbfbf" points="127.5,-726 182.5,-726 "/>
<text text-anchor="middle" x="155" y="-714" font-family="Helvetica,sans-Serif" font-size="10.00"> </text>
<polyline fill="none" stroke="#bfbfbf" points="127.5,-707 182.5,-707 "/>
<text text-anchor="middle" x="155" y="-695" font-family="Helvetica,sans-Serif" font-size="10.00"> </text>
</a>
</g>
</g>
<!-- Node6&#45;&gt;Node4 -->
<g id="edge5" class="edge">
<title>Node6&#45;&gt;Node4</title>
<path fill="none" stroke="#63b8ff" d="M148.44,-677.93C145.69,-662.19 142.5,-643.92 139.74,-628.08"/>
<polygon fill="none" stroke="#63b8ff" points="145,-678.6 150.17,-687.85 151.9,-677.4 145,-678.6"/>
</g>
<!-- Node6&#45;&gt;Node15 -->
<g id="edge17" class="edge">
<title>Node6&#45;&gt;Node15</title>
<path fill="none" stroke="#63b8ff" d="M186.7,-680.16C201.24,-663.94 218.52,-644.67 233.4,-628.08"/>
<polygon fill="none" stroke="#63b8ff" points="183.87,-678.07 179.8,-687.85 189.08,-682.74 183.87,-678.07"/>
</g>
<!-- Node7 -->
<g id="node7" class="node">
<title>Node7</title>
<g id="a_node7"><a xlink:href="group__spatialpartitioning.html#structPonca_1_1KNearestIndexQuery" target="_top" xlink:title="Base Query class combining QueryInputIsIndex and QueryOutputIsKNearest.">
<polygon fill="white" stroke="#666666" points="223.5,-277.5 223.5,-345.5 376.5,-345.5 376.5,-277.5 223.5,-277.5"/>
<text text-anchor="start" x="231.5" y="-333.5" font-family="Helvetica,sans-Serif" font-size="10.00">Ponca::KNearestIndexQuery</text>
<text text-anchor="middle" x="300" y="-322.5" font-family="Helvetica,sans-Serif" font-size="10.00">&lt; Scalar &gt;</text>
<polyline fill="none" stroke="#666666" points="223.5,-315.5 376.5,-315.5 "/>
<text text-anchor="middle" x="300" y="-303.5" font-family="Helvetica,sans-Serif" font-size="10.00"> </text>
<polyline fill="none" stroke="#666666" points="223.5,-296.5 376.5,-296.5 "/>
<text text-anchor="middle" x="300" y="-284.5" font-family="Helvetica,sans-Serif" font-size="10.00"> </text>
</a>
</g>
</g>
<!-- Node7&#45;&gt;Node3 -->
<g id="edge6" class="edge">
<title>Node7&#45;&gt;Node3</title>
<path fill="none" stroke="orange" d="M274.85,-268.58C265.13,-252.38 254.16,-234.1 244.99,-218.82"/>
<polygon fill="orange" stroke="orange" points="271.95,-270.56 280.1,-277.33 277.95,-266.95 271.95,-270.56"/>
<text text-anchor="middle" x="321" y="-251" font-family="Helvetica,sans-Serif" font-size="10.00"> &lt; DataPoint::Scalar &gt;</text>
</g>
<!-- Node8 -->
<g id="node8" class="node">
<title>Node8</title>
<g id="a_node8"><a xlink:href="group__spatialpartitioning.html" target="_top" xlink:title=" ">
<polygon fill="white" stroke="#bfbfbf" points="244.5,-383.5 244.5,-473.5 417.5,-473.5 417.5,-383.5 244.5,-383.5"/>
<text text-anchor="start" x="252.5" y="-461.5" font-family="Helvetica,sans-Serif" font-size="10.00">Ponca::Query&lt; QueryInput</text>
<text text-anchor="start" x="252.5" y="-450.5" font-family="Helvetica,sans-Serif" font-size="10.00">IsIndex, QueryOutputIsKNearest</text>
<text text-anchor="middle" x="331" y="-439.5" font-family="Helvetica,sans-Serif" font-size="10.00">&lt; Scalar &gt; &gt;</text>
<polyline fill="none" stroke="#bfbfbf" points="244.5,-432.5 417.5,-432.5 "/>
<text text-anchor="middle" x="331" y="-420.5" font-family="Helvetica,sans-Serif" font-size="10.00"> </text>
<polyline fill="none" stroke="#bfbfbf" points="244.5,-413.5 417.5,-413.5 "/>
<text text-anchor="start" x="252.5" y="-401.5" font-family="Helvetica,sans-Serif" font-size="10.00">+ Query()</text>
<text text-anchor="start" x="252.5" y="-390.5" font-family="Helvetica,sans-Serif" font-size="10.00">+ Query()</text>
</a>
</g>
</g>
<!-- Node8&#45;&gt;Node7 -->
<g id="edge7" class="edge">
<title>Node8&#45;&gt;Node7</title>
<path fill="none" stroke="#63b8ff" d="M316.45,-373.53C313.88,-364.01 311.28,-354.35 308.93,-345.62"/>
<polygon fill="none" stroke="#63b8ff" points="313.12,-374.62 319.1,-383.37 319.88,-372.8 313.12,-374.62"/>
</g>
<!-- Node9 -->
<g id="node9" class="node">
<title>Node9</title>
<g id="a_node9"><a xlink:href="group__spatialpartitioning.html#structPonca_1_1QueryInputIsIndex" target="_top" xlink:title="Base class for queries storing points.">
<polygon fill="white" stroke="#666666" points="529.5,-560 529.5,-617 670.5,-617 670.5,-560 529.5,-560"/>
<text text-anchor="middle" x="600" y="-605" font-family="Helvetica,sans-Serif" font-size="10.00">Ponca::QueryInputIsIndex</text>
<polyline fill="none" stroke="#666666" points="529.5,-598 670.5,-598 "/>
<text text-anchor="middle" x="600" y="-586" font-family="Helvetica,sans-Serif" font-size="10.00"> </text>
<polyline fill="none" stroke="#666666" points="529.5,-579 670.5,-579 "/>
<text text-anchor="start" x="537.5" y="-567" font-family="Helvetica,sans-Serif" font-size="10.00">+ QueryInputIsIndex()</text>
</a>
</g>
</g>
<!-- Node9&#45;&gt;Node8 -->
<g id="edge8" class="edge">
<title>Node9&#45;&gt;Node8</title>
<path fill="none" stroke="#63b8ff" d="M544.32,-554.79C504.28,-531.28 449.85,-499.31 405.99,-473.55"/>
<polygon fill="none" stroke="#63b8ff" points="542.75,-557.93 553.14,-559.98 546.29,-551.9 542.75,-557.93"/>
</g>
<!-- Node10 -->
<g id="node10" class="node">
<title>Node10</title>
<g id="a_node10"><a xlink:href="group__spatialpartitioning.html" target="_top" xlink:title=" ">
<polygon fill="white" stroke="#666666" points="543,-671.5 543,-761.5 657,-761.5 657,-671.5 543,-671.5"/>
<text text-anchor="start" x="551" y="-749.5" font-family="Helvetica,sans-Serif" font-size="10.00">Ponca::QueryInput&lt;</text>
<text text-anchor="middle" x="600" y="-738.5" font-family="Helvetica,sans-Serif" font-size="10.00"> int &gt;</text>
<polyline fill="none" stroke="#666666" points="543,-731.5 657,-731.5 "/>
<text text-anchor="middle" x="600" y="-719.5" font-family="Helvetica,sans-Serif" font-size="10.00"> </text>
<polyline fill="none" stroke="#666666" points="543,-712.5 657,-712.5 "/>
<text text-anchor="start" x="551" y="-700.5" font-family="Helvetica,sans-Serif" font-size="10.00">+ QueryInput()</text>
<text text-anchor="start" x="551" y="-689.5" font-family="Helvetica,sans-Serif" font-size="10.00">+ input()</text>
<text text-anchor="start" x="551" y="-678.5" font-family="Helvetica,sans-Serif" font-size="10.00"># editInput()</text>
</a>
</g>
</g>
<!-- Node10&#45;&gt;Node9 -->
<g id="edge9" class="edge">
<title>Node10&#45;&gt;Node9</title>
<path fill="none" stroke="#63b8ff" d="M600,-661.1C600,-645.95 600,-630.12 600,-617.21"/>
<polygon fill="none" stroke="#63b8ff" points="596.5,-661.43 600,-671.43 603.5,-661.43 596.5,-661.43"/>
</g>
<!-- Node11 -->
<g id="node11" class="node">
<title>Node11</title>
<g id="a_node11"><a xlink:href="group__spatialpartitioning.html#structPonca_1_1QueryInputBase" target="_top" xlink:title="Base class for queries input type.">
<polygon fill="white" stroke="#666666" points="517,-937.5 517,-994.5 647,-994.5 647,-937.5 517,-937.5"/>
<text text-anchor="middle" x="582" y="-982.5" font-family="Helvetica,sans-Serif" font-size="10.00">Ponca::QueryInputBase</text>
<polyline fill="none" stroke="#666666" points="517,-975.5 647,-975.5 "/>
<text text-anchor="middle" x="582" y="-963.5" font-family="Helvetica,sans-Serif" font-size="10.00"> </text>
<polyline fill="none" stroke="#666666" points="517,-956.5 647,-956.5 "/>
<text text-anchor="middle" x="582" y="-944.5" font-family="Helvetica,sans-Serif" font-size="10.00"> </text>
</a>
</g>
</g>
<!-- Node11&#45;&gt;Node10 -->
<g id="edge10" class="edge">
<title>Node11&#45;&gt;Node10</title>
<path fill="none" stroke="#63b8ff" d="M582.9,-927.21C583.85,-895.59 585.68,-849.3 589,-809 590.27,-793.53 592.16,-776.65 594.02,-761.65"/>
<polygon fill="none" stroke="#63b8ff" points="579.4,-927.25 582.62,-937.34 586.4,-927.45 579.4,-927.25"/>
</g>
<!-- Node12 -->
<g id="node12" class="node">
<title>Node12</title>
<g id="a_node12"><a xlink:href="group__spatialpartitioning.html#structPonca_1_1QueryInput" target="_top" xlink:title="Base class for typed queries input type.">
<polygon fill="white" stroke="#666666" points="598,-809.5 598,-899.5 712,-899.5 712,-809.5 598,-809.5"/>
<text text-anchor="start" x="606" y="-887.5" font-family="Helvetica,sans-Serif" font-size="10.00">Ponca::QueryInput&lt;</text>
<text text-anchor="middle" x="655" y="-876.5" font-family="Helvetica,sans-Serif" font-size="10.00"> InputType_ &gt;</text>
<polyline fill="none" stroke="#666666" points="598,-869.5 712,-869.5 "/>
<text text-anchor="middle" x="655" y="-857.5" font-family="Helvetica,sans-Serif" font-size="10.00"> </text>
<polyline fill="none" stroke="#666666" points="598,-850.5 712,-850.5 "/>
<text text-anchor="start" x="606" y="-838.5" font-family="Helvetica,sans-Serif" font-size="10.00">+ QueryInput()</text>
<text text-anchor="start" x="606" y="-827.5" font-family="Helvetica,sans-Serif" font-size="10.00">+ input()</text>
<text text-anchor="start" x="606" y="-816.5" font-family="Helvetica,sans-Serif" font-size="10.00"># editInput()</text>
</a>
</g>
</g>
<!-- Node11&#45;&gt;Node12 -->
<g id="edge12" class="edge">
<title>Node11&#45;&gt;Node12</title>
<path fill="none" stroke="#63b8ff" d="M605.97,-929.04C612.22,-919.68 619.01,-909.48 625.51,-899.74"/>
<polygon fill="none" stroke="#63b8ff" points="603.06,-927.11 600.42,-937.37 608.88,-930.99 603.06,-927.11"/>
</g>
<!-- Node12&#45;&gt;Node10 -->
<g id="edge11" class="edge">
<title>Node12&#45;&gt;Node10</title>
<path fill="none" stroke="orange" d="M633.32,-799.89C628.23,-787.3 622.86,-774.03 617.96,-761.9"/>
<polygon fill="orange" stroke="orange" points="630.15,-801.39 637.14,-809.34 636.64,-798.76 630.15,-801.39"/>
<text text-anchor="middle" x="648.5" y="-783" font-family="Helvetica,sans-Serif" font-size="10.00"> &lt; int &gt;</text>
</g>
<!-- Node13 -->
<g id="node13" class="node">
<title>Node13</title>
<g id="a_node13"><a xlink:href="group__spatialpartitioning.html#structPonca_1_1QueryOutputIsKNearest" target="_top" xlink:title="Base class for knearest queries.">
<polygon fill="white" stroke="#666666" points="344.5,-543.5 344.5,-633.5 511.5,-633.5 511.5,-543.5 344.5,-543.5"/>
<text text-anchor="start" x="352.5" y="-621.5" font-family="Helvetica,sans-Serif" font-size="10.00">Ponca::QueryOutputIsKNearest</text>
<text text-anchor="middle" x="428" y="-610.5" font-family="Helvetica,sans-Serif" font-size="10.00">&lt; Scalar &gt;</text>
<polyline fill="none" stroke="#666666" points="344.5,-603.5 511.5,-603.5 "/>
<text text-anchor="start" x="352.5" y="-591.5" font-family="Helvetica,sans-Serif" font-size="10.00"># m_queue</text>
<polyline fill="none" stroke="#666666" points="344.5,-584.5 511.5,-584.5 "/>
<text text-anchor="start" x="352.5" y="-572.5" font-family="Helvetica,sans-Serif" font-size="10.00">+ QueryOutputIsKNearest()</text>
<text text-anchor="start" x="352.5" y="-561.5" font-family="Helvetica,sans-Serif" font-size="10.00">+ queue()</text>
<text text-anchor="start" x="352.5" y="-550.5" font-family="Helvetica,sans-Serif" font-size="10.00"># reset()</text>
</a>
</g>
</g>
<!-- Node13&#45;&gt;Node8 -->
<g id="edge13" class="edge">
<title>Node13&#45;&gt;Node8</title>
<path fill="none" stroke="#63b8ff" d="M422.53,-533.21C419.42,-519.07 414.56,-504.35 407,-492 402.99,-485.44 398.03,-479.26 392.6,-473.52"/>
<polygon fill="none" stroke="#63b8ff" points="419.16,-534.22 424.5,-543.37 426.03,-532.88 419.16,-534.22"/>
</g>
<!-- Node14 -->
<g id="node14" class="node">
<title>Node14</title>
<g id="a_node14"><a xlink:href="group__spatialpartitioning.html#structPonca_1_1QueryOutputBase" target="_top" xlink:title="Base class for queries output type.">
<polygon fill="white" stroke="#666666" points="359,-688 359,-745 497,-745 497,-688 359,-688"/>
<text text-anchor="middle" x="428" y="-733" font-family="Helvetica,sans-Serif" font-size="10.00">Ponca::QueryOutputBase</text>
<polyline fill="none" stroke="#666666" points="359,-726 497,-726 "/>
<text text-anchor="middle" x="428" y="-714" font-family="Helvetica,sans-Serif" font-size="10.00"> </text>
<polyline fill="none" stroke="#666666" points="359,-707 497,-707 "/>
<text text-anchor="middle" x="428" y="-695" font-family="Helvetica,sans-Serif" font-size="10.00"> </text>
</a>
</g>
</g>
<!-- Node14&#45;&gt;Node13 -->
<g id="edge14" class="edge">
<title>Node14&#45;&gt;Node13</title>
<path fill="none" stroke="#63b8ff" d="M428,-677.74C428,-663.95 428,-648.23 428,-633.92"/>
<polygon fill="none" stroke="#63b8ff" points="424.5,-677.85 428,-687.85 431.5,-677.85 424.5,-677.85"/>
</g>
<!-- Node15&#45;&gt;Node8 -->
<g id="edge15" class="edge">
<title>Node15&#45;&gt;Node8</title>
<path fill="none" stroke="orange" d="M274.33,-538.92C277.34,-523.52 281.71,-506.69 288,-492 290.64,-485.83 293.94,-479.63 297.53,-473.67"/>
<polygon fill="orange" stroke="orange" points="270.88,-538.33 272.54,-548.8 277.77,-539.58 270.88,-538.33"/>
<text text-anchor="start" x="288" y="-517" font-family="Helvetica,sans-Serif" font-size="10.00"> &lt; QueryInputIsIndex,</text>
<text text-anchor="start" x="288" y="-506" font-family="Helvetica,sans-Serif" font-size="10.00"> QueryOutputIsKNearest</text>
<text text-anchor="middle" x="347.5" y="-495" font-family="Helvetica,sans-Serif" font-size="10.00">&lt; Scalar &gt; &gt;</text>
</g>
</g>
</svg>
