<?xml version="1.0" encoding="UTF-8" standalone="no"?>
<!DOCTYPE svg PUBLIC "-//W3C//DTD SVG 1.1//EN"
 "http://www.w3.org/Graphics/SVG/1.1/DTD/svg11.dtd">
<!-- Generated by graphviz version 2.43.0 (0)
 -->
<!-- Title: Ponca::UnorientedSphereFitImpl&lt; DataPoint, _NFilter, T &gt; Pages: 1 -->
<svg width="202pt" height="284pt"
 viewBox="0.00 0.00 202.00 284.00" xmlns="http://www.w3.org/2000/svg" xmlns:xlink="http://www.w3.org/1999/xlink">
<g id="graph0" class="graph" transform="scale(1 1) rotate(0) translate(4 280)">
<title>Ponca::UnorientedSphereFitImpl&lt; DataPoint, _NFilter, T &gt;</title>
<!-- Node1 -->
<g id="Node000001" class="node">
<title>Node1</title>
<g id="a_Node000001"><a xlink:title="Algebraic Sphere fitting procedure on point sets with non&#45;oriented normals.">
<polygon fill="#999999" stroke="transparent" points="194,-180 36,-180 36,0 194,0 194,-180"/>
<text text-anchor="start" x="41" y="-168" font-family="Helvetica,sans-Serif" font-size="10.00">Ponca::UnorientedSphereFit</text>
<text text-anchor="start" x="41" y="-157" font-family="Helvetica,sans-Serif" font-size="10.00">Impl&lt; DataPoint, _NFilter, T &gt;</text>
<text text-anchor="start" x="47.5" y="-142" font-family="Helvetica,sans-Serif" font-size="10.00">+</text>
<text text-anchor="start" x="68" y="-142" font-family="Helvetica,sans-Serif" font-size="10.00">m_matA</text>
<text text-anchor="start" x="47.5" y="-127" font-family="Helvetica,sans-Serif" font-size="10.00">+</text>
<text text-anchor="start" x="68" y="-127" font-family="Helvetica,sans-Serif" font-size="10.00">m_matQ</text>
<text text-anchor="start" x="47.5" y="-112" font-family="Helvetica,sans-Serif" font-size="10.00">+</text>
<text text-anchor="start" x="68" y="-112" font-family="Helvetica,sans-Serif" font-size="10.00">m_sumDotPP</text>
<text text-anchor="start" x="47.5" y="-97" font-family="Helvetica,sans-Serif" font-size="10.00">+</text>
<text text-anchor="start" x="68" y="-97" font-family="Helvetica,sans-Serif" font-size="10.00">m_solver</text>
<text text-anchor="start" x="47.5" y="-82" font-family="Helvetica,sans-Serif" font-size="10.00">+</text>
<text text-anchor="start" x="68" y="-82" font-family="Helvetica,sans-Serif" font-size="10.00">unorientedSphereFit()</text>
<text text-anchor="start" x="47.5" y="-67" font-family="Helvetica,sans-Serif" font-size="10.00">+</text>
<text text-anchor="start" x="68" y="-67" font-family="Helvetica,sans-Serif" font-size="10.00">unorientedSphereFit()</text>
<text text-anchor="start" x="47.5" y="-52" font-family="Helvetica,sans-Serif" font-size="10.00">+</text>
<text text-anchor="start" x="68" y="-52" font-family="Helvetica,sans-Serif" font-size="10.00">init()</text>
<text text-anchor="start" x="47.5" y="-37" font-family="Helvetica,sans-Serif" font-size="10.00">+</text>
<text text-anchor="start" x="68" y="-37" font-family="Helvetica,sans-Serif" font-size="10.00">addLocalNeighbor()</text>
<text text-anchor="start" x="47.5" y="-22" font-family="Helvetica,sans-Serif" font-size="10.00">+</text>
<text text-anchor="start" x="68" y="-22" font-family="Helvetica,sans-Serif" font-size="10.00">finalize()</text>
<text text-anchor="start" x="47.5" y="-7" font-family="Helvetica,sans-Serif" font-size="10.00">+</text>
<text text-anchor="start" x="68" y="-7" font-family="Helvetica,sans-Serif" font-size="10.00">isSigned()</text>
<polygon fill="#666666" stroke="#666666" points="36,-152 36,-152 194,-152 194,-152 36,-152"/>
<polygon fill="#666666" stroke="#666666" points="36,-92 36,-92 66,-92 66,-92 36,-92"/>
<polygon fill="#666666" stroke="#666666" points="66,-92 66,-92 194,-92 194,-92 66,-92"/>
<polygon fill="none" stroke="#666666" points="36,0 36,-180 194,-180 194,0 36,0"/>
</a>
</g>
</g>
<!-- Node2 -->
<g id="Node000002" class="node">
<title>Node2</title>
<g id="a_Node000002"><a xlink:title=" ">
<polygon fill="white" stroke="transparent" points="136,-276 0,-276 0,-216 136,-216 136,-276"/>
<text text-anchor="start" x="5" y="-264" font-family="Helvetica,sans-Serif" font-size="10.00">Concept::FittingProcedure</text>
<text text-anchor="start" x="48" y="-253" font-family="Helvetica,sans-Serif" font-size="10.00">Concept</text>
<text text-anchor="start" x="66" y="-238" font-family="Helvetica,sans-Serif" font-size="10.00"> </text>
<text text-anchor="start" x="66" y="-223" font-family="Helvetica,sans-Serif" font-size="10.00"> </text>
<polygon fill="#bfbfbf" stroke="#bfbfbf" points="0,-248 0,-248 136,-248 136,-248 0,-248"/>
<polygon fill="#bfbfbf" stroke="#bfbfbf" points="0,-233 0,-233 136,-233 136,-233 0,-233"/>
<polygon fill="none" stroke="#bfbfbf" points="0,-216 0,-276 136,-276 136,-216 0,-216"/>
</a>
</g>
</g>
<!-- Node2&#45;&gt;Node1 -->
<g id="edge1_Node000001_Node000002" class="edge">
<title>Node2&#45;&gt;Node1</title>
<g id="a_edge1_Node000001_Node000002"><a xlink:title=" ">
<path fill="none" stroke="#63b8ff" d="M79.92,-205.96C82.36,-197.95 85.03,-189.21 87.76,-180.24"/>
<polygon fill="none" stroke="#63b8ff" points="76.52,-205.09 76.95,-215.67 83.22,-207.13 76.52,-205.09"/>
</a>
</g>
</g>
<!-- Node3 -->
<g id="Node000003" class="node">
<title>Node3</title>
<g id="a_Node000003"><a xlink:title=" ">
<polygon fill="white" stroke="transparent" points="171.5,-270.5 154.5,-270.5 154.5,-221.5 171.5,-221.5 171.5,-270.5"/>
<text text-anchor="start" x="160" y="-258" font-family="Helvetica,sans-Serif" font-size="10.00">T</text>
<text text-anchor="start" x="161.5" y="-243" font-family="Helvetica,sans-Serif" font-size="10.00"> </text>
<text text-anchor="start" x="161.5" y="-228" font-family="Helvetica,sans-Serif" font-size="10.00"> </text>
<polygon fill="#bfbfbf" stroke="#bfbfbf" points="155,-253 155,-253 172,-253 172,-253 155,-253"/>
<polygon fill="#bfbfbf" stroke="#bfbfbf" points="155,-238 155,-238 172,-238 172,-238 155,-238"/>
<polygon fill="none" stroke="#bfbfbf" points="154.5,-221.5 154.5,-270.5 171.5,-270.5 171.5,-221.5 154.5,-221.5"/>
</a>
</g>
</g>
<!-- Node3&#45;&gt;Node1 -->
<g id="edge2_Node000001_Node000003" class="edge">
<title>Node3&#45;&gt;Node1</title>
<g id="a_edge2_Node000001_Node000003"><a xlink:title=" ">
<path fill="none" stroke="#63b8ff" d="M152.57,-211.52C149.6,-202.01 146.23,-191.19 142.75,-180.02"/>
<polygon fill="none" stroke="#63b8ff" points="149.29,-212.77 155.61,-221.27 155.97,-210.69 149.29,-212.77"/>
</a>
</g>
</g>
</g>
</svg>
