<?xml version="1.0" encoding="UTF-8" standalone="no"?>
<!DOCTYPE svg PUBLIC "-//W3C//DTD SVG 1.1//EN"
 "http://www.w3.org/Graphics/SVG/1.1/DTD/svg11.dtd">
<!-- Generated by graphviz version 2.43.0 (0)
 -->
<!-- Title: Ponca::Concept::WeightFuncConcept&lt; Point &gt; Pages: 1 -->
<svg width="166pt" height="303pt"
 viewBox="0.00 0.00 166.00 303.00" xmlns="http://www.w3.org/2000/svg" xmlns:xlink="http://www.w3.org/1999/xlink">
<g id="graph0" class="graph" transform="scale(1 1) rotate(0) translate(4 299)">
<title>Ponca::Concept::WeightFuncConcept&lt; Point &gt;</title>
<polygon fill="white" stroke="transparent" points="-4,4 -4,-299 162,-299 162,4 -4,4"/>
<!-- Node1 -->
<g id="node1" class="node">
<title>Node1</title>
<g id="a_node1"><a xlink:title="Applies a Concept::WeightKernelConcept to a Concept::PointConcept query.">
<polygon fill="#bfbfbf" stroke="black" points="2,-193.5 2,-294.5 156,-294.5 156,-193.5 2,-193.5"/>
<text text-anchor="start" x="10" y="-282.5" font-family="Helvetica,sans-Serif" font-size="10.00">Ponca::Concept::WeightFunc</text>
<text text-anchor="middle" x="79" y="-271.5" font-family="Helvetica,sans-Serif" font-size="10.00">Concept&lt; Point &gt;</text>
<polyline fill="none" stroke="black" points="2,-264.5 156,-264.5 "/>
<text text-anchor="middle" x="79" y="-252.5" font-family="Helvetica,sans-Serif" font-size="10.00"> </text>
<polyline fill="none" stroke="black" points="2,-245.5 156,-245.5 "/>
<text text-anchor="start" x="10" y="-233.5" font-family="Helvetica,sans-Serif" font-size="10.00">+ w()</text>
<text text-anchor="start" x="10" y="-222.5" font-family="Helvetica,sans-Serif" font-size="10.00">+ spacedw()</text>
<text text-anchor="start" x="10" y="-211.5" font-family="Helvetica,sans-Serif" font-size="10.00">+ scaledw()</text>
<text text-anchor="start" x="10" y="-200.5" font-family="Helvetica,sans-Serif" font-size="10.00">+ evalScale()</text>
</a>
</g>
</g>
<!-- Node2 -->
<g id="node2" class="node">
<title>Node2</title>
<g id="a_node2"><a xlink:href="classPonca_1_1DistWeightFunc.html" target="_top" xlink:title="Weighting function based on the euclidean distance between a query and a reference position.">
<polygon fill="white" stroke="black" points="0,-0.5 0,-156.5 158,-156.5 158,-0.5 0,-0.5"/>
<text text-anchor="start" x="8" y="-144.5" font-family="Helvetica,sans-Serif" font-size="10.00">Ponca::DistWeightFunc</text>
<text text-anchor="middle" x="79" y="-133.5" font-family="Helvetica,sans-Serif" font-size="10.00">&lt; DataPoint, WeightKernel &gt;</text>
<polyline fill="none" stroke="black" points="0,-126.5 158,-126.5 "/>
<text text-anchor="start" x="8" y="-114.5" font-family="Helvetica,sans-Serif" font-size="10.00"># m_t</text>
<text text-anchor="start" x="8" y="-103.5" font-family="Helvetica,sans-Serif" font-size="10.00"># m_wk</text>
<polyline fill="none" stroke="black" points="0,-96.5 158,-96.5 "/>
<text text-anchor="start" x="8" y="-84.5" font-family="Helvetica,sans-Serif" font-size="10.00">+ DistWeightFunc()</text>
<text text-anchor="start" x="8" y="-73.5" font-family="Helvetica,sans-Serif" font-size="10.00">+ w()</text>
<text text-anchor="start" x="8" y="-62.5" font-family="Helvetica,sans-Serif" font-size="10.00">+ spacedw()</text>
<text text-anchor="start" x="8" y="-51.5" font-family="Helvetica,sans-Serif" font-size="10.00">+ spaced2w()</text>
<text text-anchor="start" x="8" y="-40.5" font-family="Helvetica,sans-Serif" font-size="10.00">+ scaledw()</text>
<text text-anchor="start" x="8" y="-29.5" font-family="Helvetica,sans-Serif" font-size="10.00">+ scaled2w()</text>
<text text-anchor="start" x="8" y="-18.5" font-family="Helvetica,sans-Serif" font-size="10.00">+ scaleSpaced2w()</text>
<text text-anchor="start" x="8" y="-7.5" font-family="Helvetica,sans-Serif" font-size="10.00">+ evalScale()</text>
</a>
</g>
</g>
<!-- Node1&#45;&gt;Node2 -->
<g id="edge1" class="edge">
<title>Node1&#45;&gt;Node2</title>
<path fill="none" stroke="midnightblue" d="M79,-182.82C79,-174.26 79,-165.36 79,-156.54"/>
<polygon fill="none" stroke="midnightblue" points="75.5,-183.06 79,-193.06 82.5,-183.06 75.5,-183.06"/>
</g>
</g>
</svg>
