<?xml version="1.0" encoding="UTF-8" standalone="no"?>
<!DOCTYPE svg PUBLIC "-//W3C//DTD SVG 1.1//EN"
 "http://www.w3.org/Graphics/SVG/1.1/DTD/svg11.dtd">
<!-- Generated by graphviz version 2.43.0 (0)
 -->
<!-- Title: Ponca::GLSGeomVar&lt; DataPoint, _WFunctor, T &gt; Pages: 1 -->
<svg width="251pt" height="215pt"
 viewBox="0.00 0.00 250.50 215.00" xmlns="http://www.w3.org/2000/svg" xmlns:xlink="http://www.w3.org/1999/xlink">
<g id="graph0" class="graph" transform="scale(1 1) rotate(0) translate(4 211)">
<title>Ponca::GLSGeomVar&lt; DataPoint, _WFunctor, T &gt;</title>
<polygon fill="white" stroke="transparent" points="-4,4 -4,-211 246.5,-211 246.5,4 -4,4"/>
<!-- Node1 -->
<g id="node1" class="node">
<title>Node1</title>
<g id="a_node1"><a xlink:title="Extension to compute the Geometric Variation of GLSParam.">
<polygon fill="#bfbfbf" stroke="black" points="89,-0.5 89,-68.5 237,-68.5 237,-0.5 89,-0.5"/>
<text text-anchor="start" x="97" y="-56.5" font-family="Helvetica,sans-Serif" font-size="10.00">Ponca::GLSGeomVar&lt;</text>
<text text-anchor="middle" x="163" y="-45.5" font-family="Helvetica,sans-Serif" font-size="10.00"> DataPoint, _WFunctor, T &gt;</text>
<polyline fill="none" stroke="black" points="89,-38.5 237,-38.5 "/>
<text text-anchor="middle" x="163" y="-26.5" font-family="Helvetica,sans-Serif" font-size="10.00"> </text>
<polyline fill="none" stroke="black" points="89,-19.5 237,-19.5 "/>
<text text-anchor="start" x="97" y="-7.5" font-family="Helvetica,sans-Serif" font-size="10.00">+ geomVar()</text>
</a>
</g>
</g>
<!-- Node2 -->
<g id="node2" class="node">
<title>Node2</title>
<g id="a_node2"><a xlink:href="classPonca_1_1Concept_1_1FittingExtensionConcept.html" target="_top" xlink:title="Describes how to add features to an existing fitting procedure.">
<polygon fill="white" stroke="black" points="0,-105.5 0,-206.5 196,-206.5 196,-105.5 0,-105.5"/>
<text text-anchor="start" x="8" y="-194.5" font-family="Helvetica,sans-Serif" font-size="10.00">Ponca::Concept::FittingExtension</text>
<text text-anchor="middle" x="98" y="-183.5" font-family="Helvetica,sans-Serif" font-size="10.00">Concept&lt; DataPoint, _WFunctor, T &gt;</text>
<polyline fill="none" stroke="black" points="0,-176.5 196,-176.5 "/>
<text text-anchor="middle" x="98" y="-164.5" font-family="Helvetica,sans-Serif" font-size="10.00"> </text>
<polyline fill="none" stroke="black" points="0,-157.5 196,-157.5 "/>
<text text-anchor="start" x="8" y="-145.5" font-family="Helvetica,sans-Serif" font-size="10.00">+ setWeightFunc()</text>
<text text-anchor="start" x="8" y="-134.5" font-family="Helvetica,sans-Serif" font-size="10.00">+ init()</text>
<text text-anchor="start" x="8" y="-123.5" font-family="Helvetica,sans-Serif" font-size="10.00">+ addNeighbor()</text>
<text text-anchor="start" x="8" y="-112.5" font-family="Helvetica,sans-Serif" font-size="10.00">+ finalize()</text>
</a>
</g>
</g>
<!-- Node2&#45;&gt;Node1 -->
<g id="edge1" class="edge">
<title>Node2&#45;&gt;Node1</title>
<path fill="none" stroke="midnightblue" d="M129.91,-96.34C135.05,-86.89 140.21,-77.4 144.87,-68.83"/>
<polygon fill="none" stroke="midnightblue" points="126.7,-94.9 125,-105.36 132.85,-98.25 126.7,-94.9"/>
</g>
<!-- Node3 -->
<g id="node3" class="node">
<title>Node3</title>
<g id="a_node3"><a xlink:title=" ">
<polygon fill="white" stroke="#bfbfbf" points="213.5,-127.5 213.5,-184.5 242.5,-184.5 242.5,-127.5 213.5,-127.5"/>
<text text-anchor="middle" x="228" y="-172.5" font-family="Helvetica,sans-Serif" font-size="10.00">T</text>
<polyline fill="none" stroke="#bfbfbf" points="213.5,-165.5 242.5,-165.5 "/>
<text text-anchor="middle" x="228" y="-153.5" font-family="Helvetica,sans-Serif" font-size="10.00"> </text>
<polyline fill="none" stroke="#bfbfbf" points="213.5,-146.5 242.5,-146.5 "/>
<text text-anchor="middle" x="228" y="-134.5" font-family="Helvetica,sans-Serif" font-size="10.00"> </text>
</a>
</g>
</g>
<!-- Node3&#45;&gt;Node1 -->
<g id="edge2" class="edge">
<title>Node3&#45;&gt;Node1</title>
<path fill="none" stroke="midnightblue" d="M211.7,-118.3C209.52,-113.78 207.26,-109.26 205,-105 198.6,-92.92 191.02,-80.01 184.07,-68.64"/>
<polygon fill="none" stroke="midnightblue" points="208.59,-119.92 216.01,-127.48 214.92,-116.94 208.59,-119.92"/>
</g>
</g>
</svg>
