<?xml version="1.0" encoding="UTF-8" standalone="no"?>
<!DOCTYPE svg PUBLIC "-//W3C//DTD SVG 1.1//EN"
 "http://www.w3.org/Graphics/SVG/1.1/DTD/svg11.dtd">
<!-- Generated by graphviz version 2.43.0 (0)
 -->
<!-- Title: Ponca::CompactExpWeightKernel&lt; _Scalar &gt; Pages: 1 -->
<svg width="180pt" height="213pt"
 viewBox="0.00 0.00 180.00 213.00" xmlns="http://www.w3.org/2000/svg" xmlns:xlink="http://www.w3.org/1999/xlink">

<svg id="main" version="1.1" xmlns="http://www.w3.org/2000/svg" xmlns:xlink="http://www.w3.org/1999/xlink" xml:space="preserve" onload="init(evt)">
<style type="text/css"><![CDATA[
.node, .edge {opacity: 0.7;}
.node.selected, .edge.selected {opacity: 1;}
.edge:hover path { stroke: red; }
.edge:hover polygon { stroke: red; fill: red; }
]]></style>
<script type="application/ecmascript" xlink:href="svg.min.js"/>
<svg id="graph" class="graph">
<g id="graph0" class="graph" transform="scale(1 1) rotate(0) translate(4 209)">
<title>Ponca::CompactExpWeightKernel&lt; _Scalar &gt;</title>
<!-- Node1 -->
<g id="Node000001" class="node">
<title>Node1</title>
<g id="a_Node000001"><a xlink:title="Compact Exponential WeightKernel defined in .">
<polygon fill="#999999" stroke="transparent" points="172,-120 0,-120 0,0 172,0 172,-120"/>
<text text-anchor="start" x="5" y="-108" font-family="Helvetica,sans-Serif" font-size="10.00">Ponca::CompactExpWeightKernel</text>
<text text-anchor="start" x="57" y="-97" font-family="Helvetica,sans-Serif" font-size="10.00">&lt; _Scalar &gt;</text>
<text text-anchor="start" x="28.5" y="-82" font-family="Helvetica,sans-Serif" font-size="10.00">+</text>
<text text-anchor="start" x="66" y="-82" font-family="Helvetica,sans-Serif" font-size="10.00">isCompact</text>
<text text-anchor="start" x="28.5" y="-67" font-family="Helvetica,sans-Serif" font-size="10.00">+</text>
<text text-anchor="start" x="66" y="-67" font-family="Helvetica,sans-Serif" font-size="10.00">isDValid</text>
<text text-anchor="start" x="28.5" y="-52" font-family="Helvetica,sans-Serif" font-size="10.00">+</text>
<text text-anchor="start" x="66" y="-52" font-family="Helvetica,sans-Serif" font-size="10.00">isDDValid</text>
<text text-anchor="start" x="28.5" y="-37" font-family="Helvetica,sans-Serif" font-size="10.00">+</text>
<text text-anchor="start" x="66" y="-37" font-family="Helvetica,sans-Serif" font-size="10.00">f()</text>
<text text-anchor="start" x="28.5" y="-22" font-family="Helvetica,sans-Serif" font-size="10.00">+</text>
<text text-anchor="start" x="66" y="-22" font-family="Helvetica,sans-Serif" font-size="10.00">df()</text>
<text text-anchor="start" x="28.5" y="-7" font-family="Helvetica,sans-Serif" font-size="10.00">+</text>
<text text-anchor="start" x="66" y="-7" font-family="Helvetica,sans-Serif" font-size="10.00">ddf()</text>
<polygon fill="#666666" stroke="#666666" points="0,-92 0,-92 172,-92 172,-92 0,-92"/>
<polygon fill="#666666" stroke="#666666" points="0,-47 0,-47 64,-47 64,-47 0,-47"/>
<polygon fill="#666666" stroke="#666666" points="64,-47 64,-47 172,-47 172,-47 64,-47"/>
<polygon fill="none" stroke="#666666" points="0,0 0,-120 172,-120 172,0 0,0"/>
</a>
</g>
</g>
<!-- Node2 -->
<g id="Node000002" class="node">
<title>Node2</title>
<g id="a_Node000002"><a xlink:title=" ">
<polygon fill="white" stroke="transparent" points="166.5,-205 5.5,-205 5.5,-156 166.5,-156 166.5,-205"/>
<text text-anchor="start" x="11" y="-192.5" font-family="Helvetica,sans-Serif" font-size="10.00">Concept::WeightKernelConcept</text>
<text text-anchor="start" x="84.5" y="-177.5" font-family="Helvetica,sans-Serif" font-size="10.00"> </text>
<text text-anchor="start" x="84.5" y="-162.5" font-family="Helvetica,sans-Serif" font-size="10.00"> </text>
<polygon fill="#bfbfbf" stroke="#bfbfbf" points="6,-187.5 6,-187.5 167,-187.5 167,-187.5 6,-187.5"/>
<polygon fill="#bfbfbf" stroke="#bfbfbf" points="6,-172.5 6,-172.5 167,-172.5 167,-172.5 6,-172.5"/>
<polygon fill="none" stroke="#bfbfbf" points="5.5,-156 5.5,-205 166.5,-205 166.5,-156 5.5,-156"/>
</a>
</g>
</g>
<!-- Node2&#45;&gt;Node1 -->
<g id="edge1_Node000001_Node000002" class="edge">
<title>Node2&#45;&gt;Node1</title>
<g id="a_edge1_Node000001_Node000002"><a xlink:title=" ">
<path fill="none" stroke="#63b8ff" d="M86,-145.59C86,-137.71 86,-129.09 86,-120.47"/>
<polygon fill="none" stroke="#63b8ff" points="82.5,-145.8 86,-155.8 89.5,-145.8 82.5,-145.8"/>
</a>
</g>
</g>
</g>
</svg>
</svg>

<style type='text/css'>
<![CDATA[
[data-mouse-over-selected='false'] { opacity: 0.7; }
[data-mouse-over-selected='true']  { opacity: 1.0; }
]]>
</style>
<script type="application/ecmascript"><![CDATA[
document.addEventListener('DOMContentLoaded', (event) => {
  highlightEdges();
  highlightAdjacentNodes();
});
]]></script>
</svg>
