<?xml version="1.0" encoding="UTF-8" standalone="no"?>
<!DOCTYPE svg PUBLIC "-//W3C//DTD SVG 1.1//EN"
 "http://www.w3.org/Graphics/SVG/1.1/DTD/svg11.dtd">
<!-- Generated by graphviz version 2.43.0 (0)
 -->
<!-- Title: Ponca::KdTreeRangeIndexQuery&lt; DataPoint &gt; Pages: 1 -->
<!--zoomable 1287 -->
<svg id="main" version="1.1" xmlns="http://www.w3.org/2000/svg" xmlns:xlink="http://www.w3.org/1999/xlink" xml:space="preserve" onload="init(evt)">
<style type="text/css"><![CDATA[
.edge:hover path { stroke: red; }
.edge:hover polygon { stroke: red; fill: red; }
]]></style>
<script type="text/javascript"><![CDATA[
var edges = document.getElementsByTagName('g');
if (edges && edges.length) {
  for (var i=0;i<edges.length;i++) {
    if (edges[i].id.substr(0,4)=='edge') {
      edges[i].setAttribute('class','edge');
    }
  }
}
]]></script>
        <defs>
                <circle id="rim" cx="0" cy="0" r="7"/>
                <circle id="rim2" cx="0" cy="0" r="3.5"/>
                <g id="zoomPlus">
                        <use xlink:href="#rim" fill="#404040">
                                <set attributeName="fill" to="#808080" begin="zoomplus.mouseover" end="zoomplus.mouseout"/>
                        </use>
                        <path d="M-4,0h8M0,-4v8" fill="none" stroke="white" stroke-width="1.5" pointer-events="none"/>
                </g>
                <g id="zoomMin">
                        <use xlink:href="#rim" fill="#404040">
                                <set attributeName="fill" to="#808080" begin="zoomminus.mouseover" end="zoomminus.mouseout"/>
                        </use>
                        <path d="M-4,0h8" fill="none" stroke="white" stroke-width="1.5" pointer-events="none"/>
                </g>
                <g id="dirArrow">
                        <path fill="none" stroke="white" stroke-width="1.5" d="M0,-3.0v7 M-2.5,-0.5L0,-3.0L2.5,-0.5"/>
                </g>
               <g id="resetDef">
                       <use xlink:href="#rim2" fill="#404040">
                               <set attributeName="fill" to="#808080" begin="reset.mouseover" end="reset.mouseout"/>
                       </use>
               </g>
        </defs>

<script type="text/javascript">
var viewWidth = 1110;
var viewHeight = 1287;
var sectionId = 'dynsection-1';
</script>
<script xlink:href="svgpan.js"/>
<svg id="graph" class="graph">
<g id="viewport">
<title>Ponca::KdTreeRangeIndexQuery&lt; DataPoint &gt;</title>
<polygon fill="white" stroke="transparent" points="-4,4 -4,-1283 1106,-1283 1106,4 -4,4"/>
<!-- Node1 -->
<g id="node1" class="node">
<title>Node1</title>
<g id="a_node1"><a xlink:title=" ">
<polygon fill="#bfbfbf" stroke="black" points="480,-0.5 480,-112.5 652,-112.5 652,-0.5 480,-0.5"/>
<text text-anchor="start" x="488" y="-100.5" font-family="Helvetica,sans-Serif" font-size="10.00">Ponca::KdTreeRangeIndexQuery</text>
<text text-anchor="middle" x="566" y="-89.5" font-family="Helvetica,sans-Serif" font-size="10.00">&lt; DataPoint &gt;</text>
<polyline fill="none" stroke="black" points="480,-82.5 652,-82.5 "/>
<text text-anchor="start" x="488" y="-70.5" font-family="Helvetica,sans-Serif" font-size="10.00"># Iterator</text>
<polyline fill="none" stroke="black" points="480,-63.5 652,-63.5 "/>
<text text-anchor="start" x="488" y="-51.5" font-family="Helvetica,sans-Serif" font-size="10.00">+ KdTreeRangeIndexQuery()</text>
<text text-anchor="start" x="488" y="-40.5" font-family="Helvetica,sans-Serif" font-size="10.00">+ begin()</text>
<text text-anchor="start" x="488" y="-29.5" font-family="Helvetica,sans-Serif" font-size="10.00">+ end()</text>
<text text-anchor="start" x="488" y="-18.5" font-family="Helvetica,sans-Serif" font-size="10.00"># initialize()</text>
<text text-anchor="start" x="488" y="-7.5" font-family="Helvetica,sans-Serif" font-size="10.00"># advance()</text>
</a>
</g>
</g>
<!-- Node2 -->
<g id="node2" class="node">
<title>Node2</title>
<g id="a_node2"><a xlink:href="classPonca_1_1KdTreeQuery.html" target="_top" xlink:title=" ">
<polygon fill="white" stroke="black" points="437,-150.5 437,-229.5 551,-229.5 551,-150.5 437,-150.5"/>
<text text-anchor="start" x="445" y="-217.5" font-family="Helvetica,sans-Serif" font-size="10.00">Ponca::KdTreeQuery</text>
<text text-anchor="middle" x="494" y="-206.5" font-family="Helvetica,sans-Serif" font-size="10.00">&lt; DataPoint &gt;</text>
<polyline fill="none" stroke="black" points="437,-199.5 551,-199.5 "/>
<text text-anchor="start" x="445" y="-187.5" font-family="Helvetica,sans-Serif" font-size="10.00"># m_kdtree</text>
<polyline fill="none" stroke="black" points="437,-180.5 551,-180.5 "/>
<text text-anchor="start" x="445" y="-168.5" font-family="Helvetica,sans-Serif" font-size="10.00">+ KdTreeQuery()</text>
<text text-anchor="start" x="445" y="-157.5" font-family="Helvetica,sans-Serif" font-size="10.00"># reset()</text>
</a>
</g>
</g>
<!-- Node2&#45;&gt;Node1 -->
<g id="edge1" class="edge">
<title>Node2&#45;&gt;Node1</title>
<path fill="none" stroke="midnightblue" d="M520.04,-141.45C525.17,-132.06 530.61,-122.14 535.87,-112.53"/>
<polygon fill="none" stroke="midnightblue" points="516.95,-139.8 515.21,-150.26 523.09,-143.17 516.95,-139.8"/>
</g>
<!-- Node3 -->
<g id="node3" class="node">
<title>Node3</title>
<g id="a_node3"><a xlink:href="classPonca_1_1Stack.html" target="_top" xlink:title=" ">
<polygon fill="white" stroke="black" points="326,-277.5 326,-455.5 460,-455.5 460,-277.5 326,-277.5"/>
<text text-anchor="start" x="334" y="-443.5" font-family="Helvetica,sans-Serif" font-size="10.00">Ponca::Stack&lt; Ponca</text>
<text text-anchor="start" x="334" y="-432.5" font-family="Helvetica,sans-Serif" font-size="10.00">::IndexSquaredDistance</text>
<text text-anchor="start" x="334" y="-421.5" font-family="Helvetica,sans-Serif" font-size="10.00">&lt; typename DataPoint::</text>
<text text-anchor="middle" x="393" y="-410.5" font-family="Helvetica,sans-Serif" font-size="10.00">Scalar &gt;, 2 *32 &gt;</text>
<polyline fill="none" stroke="black" points="326,-403.5 460,-403.5 "/>
<text text-anchor="start" x="334" y="-391.5" font-family="Helvetica,sans-Serif" font-size="10.00"># m_size</text>
<polyline fill="none" stroke="black" points="326,-384.5 460,-384.5 "/>
<text text-anchor="start" x="334" y="-372.5" font-family="Helvetica,sans-Serif" font-size="10.00">+ Stack()</text>
<text text-anchor="start" x="334" y="-361.5" font-family="Helvetica,sans-Serif" font-size="10.00">+ top()</text>
<text text-anchor="start" x="334" y="-350.5" font-family="Helvetica,sans-Serif" font-size="10.00">+ top()</text>
<text text-anchor="start" x="334" y="-339.5" font-family="Helvetica,sans-Serif" font-size="10.00">+ empty()</text>
<text text-anchor="start" x="334" y="-328.5" font-family="Helvetica,sans-Serif" font-size="10.00">+ size()</text>
<text text-anchor="start" x="334" y="-317.5" font-family="Helvetica,sans-Serif" font-size="10.00">+ push()</text>
<text text-anchor="start" x="334" y="-306.5" font-family="Helvetica,sans-Serif" font-size="10.00">+ push()</text>
<text text-anchor="start" x="334" y="-295.5" font-family="Helvetica,sans-Serif" font-size="10.00">+ pop()</text>
<text text-anchor="start" x="334" y="-284.5" font-family="Helvetica,sans-Serif" font-size="10.00">+ clear()</text>
</a>
</g>
</g>
<!-- Node3&#45;&gt;Node2 -->
<g id="edge2" class="edge">
<title>Node3&#45;&gt;Node2</title>
<path fill="none" stroke="#404040" d="M443.94,-277.48C451.3,-264.77 458.64,-252.09 465.35,-240.5"/>
<polygon fill="none" stroke="#404040" points="465.55,-240.15 465.1,-232.95 471.56,-229.76 472.02,-236.96 465.55,-240.15"/>
<text text-anchor="middle" x="485.5" y="-251" font-family="Helvetica,sans-Serif" font-size="10.00"> #m_stack</text>
</g>
<!-- Node4 -->
<g id="node4" class="node">
<title>Node4</title>
<g id="a_node4"><a xlink:title=" ">
<polygon fill="white" stroke="#bfbfbf" points="105,-757 105,-847 233,-847 233,-757 105,-757"/>
<text text-anchor="start" x="113" y="-835" font-family="Helvetica,sans-Serif" font-size="10.00">std::array&lt; Ponca::</text>
<text text-anchor="start" x="113" y="-824" font-family="Helvetica,sans-Serif" font-size="10.00">IndexSquaredDistance</text>
<text text-anchor="start" x="113" y="-813" font-family="Helvetica,sans-Serif" font-size="10.00">&lt; typename DataPoint</text>
<text text-anchor="middle" x="169" y="-802" font-family="Helvetica,sans-Serif" font-size="10.00">::Scalar &gt;, N &gt;</text>
<polyline fill="none" stroke="#bfbfbf" points="105,-795 233,-795 "/>
<text text-anchor="middle" x="169" y="-783" font-family="Helvetica,sans-Serif" font-size="10.00"> </text>
<polyline fill="none" stroke="#bfbfbf" points="105,-776 233,-776 "/>
<text text-anchor="middle" x="169" y="-764" font-family="Helvetica,sans-Serif" font-size="10.00"> </text>
</a>
</g>
</g>
<!-- Node4&#45;&gt;Node3 -->
<g id="edge3" class="edge">
<title>Node4&#45;&gt;Node3</title>
<path fill="none" stroke="#404040" d="M181.56,-756.76C198.4,-700.8 231.19,-602.38 274,-525 286.8,-501.86 302.7,-478.35 318.67,-456.81"/>
<polygon fill="none" stroke="#404040" points="318.79,-456.65 319.19,-449.45 326,-447.05 325.59,-454.25 318.79,-456.65"/>
<text text-anchor="middle" x="298.5" y="-595.5" font-family="Helvetica,sans-Serif" font-size="10.00"> #m_data</text>
</g>
<!-- Node5 -->
<g id="node5" class="node">
<title>Node5</title>
<g id="a_node5"><a xlink:href="structPonca_1_1IndexSquaredDistance.html" target="_top" xlink:title=" ">
<polygon fill="white" stroke="black" points="0,-944.5 0,-1023.5 176,-1023.5 176,-944.5 0,-944.5"/>
<text text-anchor="start" x="8" y="-1011.5" font-family="Helvetica,sans-Serif" font-size="10.00">Ponca::IndexSquaredDistance</text>
<text text-anchor="middle" x="88" y="-1000.5" font-family="Helvetica,sans-Serif" font-size="10.00">&lt; typename DataPoint::Scalar &gt;</text>
<polyline fill="none" stroke="black" points="0,-993.5 176,-993.5 "/>
<text text-anchor="start" x="8" y="-981.5" font-family="Helvetica,sans-Serif" font-size="10.00">+ index</text>
<text text-anchor="start" x="8" y="-970.5" font-family="Helvetica,sans-Serif" font-size="10.00">+ squared_distance</text>
<polyline fill="none" stroke="black" points="0,-963.5 176,-963.5 "/>
<text text-anchor="start" x="8" y="-951.5" font-family="Helvetica,sans-Serif" font-size="10.00">+ operator&lt;()</text>
</a>
</g>
</g>
<!-- Node5&#45;&gt;Node4 -->
<g id="edge4" class="edge">
<title>Node5&#45;&gt;Node4</title>
<path fill="none" stroke="#404040" d="M81.6,-944.18C80.06,-924.78 80.79,-901.38 89,-882 92.84,-872.93 98.28,-864.36 104.54,-856.46"/>
<polygon fill="none" stroke="#404040" points="104.71,-856.26 105.58,-849.1 112.52,-847.15 111.65,-854.31 104.71,-856.26"/>
<text text-anchor="middle" x="118" y="-890.5" font-family="Helvetica,sans-Serif" font-size="10.00"> +elements</text>
</g>
<!-- Node6 -->
<g id="node6" class="node">
<title>Node6</title>
<g id="a_node6"><a xlink:href="structPonca_1_1IndexSquaredDistance.html" target="_top" xlink:title="Associates an index with a distance.">
<polygon fill="white" stroke="black" points="7.5,-1104.5 7.5,-1183.5 168.5,-1183.5 168.5,-1104.5 7.5,-1104.5"/>
<text text-anchor="start" x="15.5" y="-1171.5" font-family="Helvetica,sans-Serif" font-size="10.00">Ponca::IndexSquaredDistance</text>
<text text-anchor="middle" x="88" y="-1160.5" font-family="Helvetica,sans-Serif" font-size="10.00">&lt; Scalar &gt;</text>
<polyline fill="none" stroke="black" points="7.5,-1153.5 168.5,-1153.5 "/>
<text text-anchor="start" x="15.5" y="-1141.5" font-family="Helvetica,sans-Serif" font-size="10.00">+ index</text>
<text text-anchor="start" x="15.5" y="-1130.5" font-family="Helvetica,sans-Serif" font-size="10.00">+ squared_distance</text>
<polyline fill="none" stroke="black" points="7.5,-1123.5 168.5,-1123.5 "/>
<text text-anchor="start" x="15.5" y="-1111.5" font-family="Helvetica,sans-Serif" font-size="10.00">+ operator&lt;()</text>
</a>
</g>
</g>
<!-- Node6&#45;&gt;Node5 -->
<g id="edge5" class="edge">
<title>Node6&#45;&gt;Node5</title>
<path fill="none" stroke="orange" d="M88,-1094.21C88,-1071.48 88,-1044.82 88,-1023.53"/>
<polygon fill="orange" stroke="orange" points="84.5,-1094.35 88,-1104.35 91.5,-1094.35 84.5,-1094.35"/>
<text text-anchor="start" x="88" y="-1078" font-family="Helvetica,sans-Serif" font-size="10.00"> &lt; typename DataPoint</text>
<text text-anchor="middle" x="145.5" y="-1067" font-family="Helvetica,sans-Serif" font-size="10.00">::Scalar &gt;</text>
</g>
<!-- Node7 -->
<g id="node7" class="node">
<title>Node7</title>
<g id="a_node7"><a xlink:title="STL class.">
<polygon fill="white" stroke="#bfbfbf" points="309,-955.5 309,-1012.5 401,-1012.5 401,-955.5 309,-955.5"/>
<text text-anchor="middle" x="355" y="-1000.5" font-family="Helvetica,sans-Serif" font-size="10.00">std::array&lt; T &gt;</text>
<polyline fill="none" stroke="#bfbfbf" points="309,-993.5 401,-993.5 "/>
<text text-anchor="middle" x="355" y="-981.5" font-family="Helvetica,sans-Serif" font-size="10.00"> </text>
<polyline fill="none" stroke="#bfbfbf" points="309,-974.5 401,-974.5 "/>
<text text-anchor="middle" x="355" y="-962.5" font-family="Helvetica,sans-Serif" font-size="10.00"> </text>
</a>
</g>
</g>
<!-- Node7&#45;&gt;Node4 -->
<g id="edge6" class="edge">
<title>Node7&#45;&gt;Node4</title>
<path fill="none" stroke="orange" d="M298.76,-971.72C260.32,-960.97 211.53,-940.77 184,-904 171.94,-887.89 167.63,-866.22 166.56,-847.07"/>
<polygon fill="orange" stroke="orange" points="298.23,-975.2 308.79,-974.38 300.03,-968.43 298.23,-975.2"/>
<text text-anchor="start" x="184" y="-896" font-family="Helvetica,sans-Serif" font-size="10.00"> &lt; Ponca::IndexSquaredDistance</text>
<text text-anchor="middle" x="276" y="-885" font-family="Helvetica,sans-Serif" font-size="10.00">&lt; typename DataPoint::Scalar &gt;, N &gt;</text>
</g>
<!-- Node10 -->
<g id="node10" class="node">
<title>Node10</title>
<g id="a_node10"><a xlink:title=" ">
<polygon fill="white" stroke="#bfbfbf" points="340.5,-773.5 340.5,-830.5 445.5,-830.5 445.5,-773.5 340.5,-773.5"/>
<text text-anchor="middle" x="393" y="-818.5" font-family="Helvetica,sans-Serif" font-size="10.00">std::array&lt; T, N &gt;</text>
<polyline fill="none" stroke="#bfbfbf" points="340.5,-811.5 445.5,-811.5 "/>
<text text-anchor="middle" x="393" y="-799.5" font-family="Helvetica,sans-Serif" font-size="10.00"> </text>
<polyline fill="none" stroke="#bfbfbf" points="340.5,-792.5 445.5,-792.5 "/>
<text text-anchor="middle" x="393" y="-780.5" font-family="Helvetica,sans-Serif" font-size="10.00"> </text>
</a>
</g>
</g>
<!-- Node7&#45;&gt;Node10 -->
<g id="edge11" class="edge">
<title>Node7&#45;&gt;Node10</title>
<path fill="none" stroke="orange" d="M362.98,-945.19C370.2,-910.99 380.66,-861.43 387.14,-830.76"/>
<polygon fill="orange" stroke="orange" points="359.5,-944.76 360.85,-955.27 366.34,-946.21 359.5,-944.76"/>
<text text-anchor="middle" x="400" y="-890.5" font-family="Helvetica,sans-Serif" font-size="10.00"> &lt; T, N &gt;</text>
</g>
<!-- Node8 -->
<g id="node8" class="node">
<title>Node8</title>
<g id="a_node8"><a xlink:title=" ">
<polygon fill="white" stroke="#bfbfbf" points="377.5,-1115.5 377.5,-1172.5 406.5,-1172.5 406.5,-1115.5 377.5,-1115.5"/>
<text text-anchor="middle" x="392" y="-1160.5" font-family="Helvetica,sans-Serif" font-size="10.00">T</text>
<polyline fill="none" stroke="#bfbfbf" points="377.5,-1153.5 406.5,-1153.5 "/>
<text text-anchor="middle" x="392" y="-1141.5" font-family="Helvetica,sans-Serif" font-size="10.00"> </text>
<polyline fill="none" stroke="#bfbfbf" points="377.5,-1134.5 406.5,-1134.5 "/>
<text text-anchor="middle" x="392" y="-1122.5" font-family="Helvetica,sans-Serif" font-size="10.00"> </text>
</a>
</g>
</g>
<!-- Node8&#45;&gt;Node7 -->
<g id="edge7" class="edge">
<title>Node8&#45;&gt;Node7</title>
<path fill="none" stroke="#404040" d="M377.4,-1117.05C372.69,-1107.56 367.93,-1096.55 365,-1086 359.54,-1066.32 356.98,-1043.75 355.8,-1024.94"/>
<polygon fill="none" stroke="#404040" points="355.8,-1024.89 351.51,-1019.09 355.2,-1012.9 359.5,-1018.7 355.8,-1024.89"/>
<text text-anchor="middle" x="394" y="-1072.5" font-family="Helvetica,sans-Serif" font-size="10.00"> +elements</text>
</g>
<!-- Node8&#45;&gt;Node10 -->
<g id="edge10" class="edge">
<title>Node8&#45;&gt;Node10</title>
<path fill="none" stroke="#404040" d="M406.62,-1122.13C413,-1111.78 419.75,-1098.77 423,-1086 445.35,-998.13 439.36,-971.18 423,-882 420.55,-868.66 415.96,-854.65 411.09,-842.2"/>
<polygon fill="none" stroke="#404040" points="410.97,-841.9 404.99,-837.88 406.4,-830.81 412.38,-834.83 410.97,-841.9"/>
<text text-anchor="middle" x="467" y="-981.5" font-family="Helvetica,sans-Serif" font-size="10.00"> +elements</text>
</g>
<!-- Node9 -->
<g id="node9" class="node">
<title>Node9</title>
<g id="a_node9"><a xlink:href="classPonca_1_1Stack.html" target="_top" xlink:title="Stack with fixed&#45;size storage.">
<polygon fill="white" stroke="black" points="332.5,-525.5 332.5,-670.5 453.5,-670.5 453.5,-525.5 332.5,-525.5"/>
<text text-anchor="middle" x="393" y="-658.5" font-family="Helvetica,sans-Serif" font-size="10.00">Ponca::Stack&lt; T, N &gt;</text>
<polyline fill="none" stroke="black" points="332.5,-651.5 453.5,-651.5 "/>
<text text-anchor="start" x="340.5" y="-639.5" font-family="Helvetica,sans-Serif" font-size="10.00"># m_size</text>
<polyline fill="none" stroke="black" points="332.5,-632.5 453.5,-632.5 "/>
<text text-anchor="start" x="340.5" y="-620.5" font-family="Helvetica,sans-Serif" font-size="10.00">+ Stack()</text>
<text text-anchor="start" x="340.5" y="-609.5" font-family="Helvetica,sans-Serif" font-size="10.00">+ top()</text>
<text text-anchor="start" x="340.5" y="-598.5" font-family="Helvetica,sans-Serif" font-size="10.00">+ top()</text>
<text text-anchor="start" x="340.5" y="-587.5" font-family="Helvetica,sans-Serif" font-size="10.00">+ empty()</text>
<text text-anchor="start" x="340.5" y="-576.5" font-family="Helvetica,sans-Serif" font-size="10.00">+ size()</text>
<text text-anchor="start" x="340.5" y="-565.5" font-family="Helvetica,sans-Serif" font-size="10.00">+ push()</text>
<text text-anchor="start" x="340.5" y="-554.5" font-family="Helvetica,sans-Serif" font-size="10.00">+ push()</text>
<text text-anchor="start" x="340.5" y="-543.5" font-family="Helvetica,sans-Serif" font-size="10.00">+ pop()</text>
<text text-anchor="start" x="340.5" y="-532.5" font-family="Helvetica,sans-Serif" font-size="10.00">+ clear()</text>
</a>
</g>
</g>
<!-- Node9&#45;&gt;Node3 -->
<g id="edge8" class="edge">
<title>Node9&#45;&gt;Node3</title>
<path fill="none" stroke="orange" d="M393,-515.07C393,-495.78 393,-475.13 393,-455.58"/>
<polygon fill="orange" stroke="orange" points="389.5,-515.33 393,-525.33 396.5,-515.33 389.5,-515.33"/>
<text text-anchor="start" x="393" y="-499" font-family="Helvetica,sans-Serif" font-size="10.00"> &lt; Ponca::IndexSquaredDistance</text>
<text text-anchor="start" x="393" y="-488" font-family="Helvetica,sans-Serif" font-size="10.00">&lt; typename DataPoint::Scalar</text>
<text text-anchor="middle" x="473" y="-477" font-family="Helvetica,sans-Serif" font-size="10.00"> &gt;, 2 *32 &gt;</text>
</g>
<!-- Node10&#45;&gt;Node9 -->
<g id="edge9" class="edge">
<title>Node10&#45;&gt;Node9</title>
<path fill="none" stroke="#404040" d="M393,-773.34C393,-749.96 393,-715.21 393,-682.87"/>
<polygon fill="none" stroke="#404040" points="393,-682.62 389,-676.62 393,-670.62 397,-676.62 393,-682.62"/>
<text text-anchor="middle" x="417.5" y="-703" font-family="Helvetica,sans-Serif" font-size="10.00"> #m_data</text>
</g>
<!-- Node11 -->
<g id="node11" class="node">
<title>Node11</title>
<g id="a_node11"><a xlink:href="structPonca_1_1RangeIndexQuery.html" target="_top" xlink:title=" ">
<polygon fill="white" stroke="black" points="608.5,-156 608.5,-224 747.5,-224 747.5,-156 608.5,-156"/>
<text text-anchor="start" x="616.5" y="-212" font-family="Helvetica,sans-Serif" font-size="10.00">Ponca::RangeIndexQuery</text>
<text text-anchor="middle" x="678" y="-201" font-family="Helvetica,sans-Serif" font-size="10.00">&lt; DataPoint::Scalar &gt;</text>
<polyline fill="none" stroke="black" points="608.5,-194 747.5,-194 "/>
<text text-anchor="middle" x="678" y="-182" font-family="Helvetica,sans-Serif" font-size="10.00"> </text>
<polyline fill="none" stroke="black" points="608.5,-175 747.5,-175 "/>
<text text-anchor="middle" x="678" y="-163" font-family="Helvetica,sans-Serif" font-size="10.00"> </text>
</a>
</g>
</g>
<!-- Node11&#45;&gt;Node1 -->
<g id="edge12" class="edge">
<title>Node11&#45;&gt;Node1</title>
<path fill="none" stroke="midnightblue" d="M643,-147.91C633.49,-136.75 623.04,-124.48 612.99,-112.67"/>
<polygon fill="none" stroke="midnightblue" points="640.59,-150.47 649.74,-155.82 645.92,-145.93 640.59,-150.47"/>
</g>
<!-- Node12 -->
<g id="node12" class="node">
<title>Node12</title>
<g id="a_node12"><a xlink:href="structPonca_1_1Query.html" target="_top" xlink:title=" ">
<polygon fill="white" stroke="black" points="598.5,-553 598.5,-643 757.5,-643 757.5,-553 598.5,-553"/>
<text text-anchor="start" x="606.5" y="-631" font-family="Helvetica,sans-Serif" font-size="10.00">Ponca::Query&lt; QueryInput</text>
<text text-anchor="start" x="606.5" y="-620" font-family="Helvetica,sans-Serif" font-size="10.00">IsIndex, QueryOutputIsRange</text>
<text text-anchor="middle" x="678" y="-609" font-family="Helvetica,sans-Serif" font-size="10.00">&lt; DataPoint::Scalar &gt; &gt;</text>
<polyline fill="none" stroke="black" points="598.5,-602 757.5,-602 "/>
<text text-anchor="middle" x="678" y="-590" font-family="Helvetica,sans-Serif" font-size="10.00"> </text>
<polyline fill="none" stroke="black" points="598.5,-583 757.5,-583 "/>
<text text-anchor="start" x="606.5" y="-571" font-family="Helvetica,sans-Serif" font-size="10.00">+ Query()</text>
<text text-anchor="start" x="606.5" y="-560" font-family="Helvetica,sans-Serif" font-size="10.00">+ Query()</text>
</a>
</g>
</g>
<!-- Node12&#45;&gt;Node11 -->
<g id="edge13" class="edge">
<title>Node12&#45;&gt;Node11</title>
<path fill="none" stroke="midnightblue" d="M678,-542.76C678,-457.34 678,-294.03 678,-224.1"/>
<polygon fill="none" stroke="midnightblue" points="674.5,-542.78 678,-552.78 681.5,-542.78 674.5,-542.78"/>
</g>
<!-- Node13 -->
<g id="node13" class="node">
<title>Node13</title>
<g id="a_node13"><a xlink:href="structPonca_1_1QueryInputIsIndex.html" target="_top" xlink:title="Base class for queries storing points.">
<polygon fill="white" stroke="black" points="919.5,-773.5 919.5,-830.5 1060.5,-830.5 1060.5,-773.5 919.5,-773.5"/>
<text text-anchor="middle" x="990" y="-818.5" font-family="Helvetica,sans-Serif" font-size="10.00">Ponca::QueryInputIsIndex</text>
<polyline fill="none" stroke="black" points="919.5,-811.5 1060.5,-811.5 "/>
<text text-anchor="middle" x="990" y="-799.5" font-family="Helvetica,sans-Serif" font-size="10.00"> </text>
<polyline fill="none" stroke="black" points="919.5,-792.5 1060.5,-792.5 "/>
<text text-anchor="start" x="927.5" y="-780.5" font-family="Helvetica,sans-Serif" font-size="10.00">+ QueryInputIsIndex()</text>
</a>
</g>
</g>
<!-- Node13&#45;&gt;Node12 -->
<g id="edge14" class="edge">
<title>Node13&#45;&gt;Node12</title>
<path fill="none" stroke="midnightblue" d="M986.74,-763.19C982.46,-738.1 972.6,-706.64 950,-689 917.61,-663.72 803.97,-686.68 766,-671 750.13,-664.45 734.88,-654.03 721.66,-643.14"/>
<polygon fill="none" stroke="midnightblue" points="983.28,-763.77 988.21,-773.15 990.21,-762.75 983.28,-763.77"/>
</g>
<!-- Node24 -->
<g id="node24" class="node">
<title>Node24</title>
<g id="a_node24"><a xlink:href="structPonca_1_1Query.html" target="_top" xlink:title=" ">
<polygon fill="white" stroke="black" points="775.5,-553 775.5,-643 934.5,-643 934.5,-553 775.5,-553"/>
<text text-anchor="start" x="783.5" y="-631" font-family="Helvetica,sans-Serif" font-size="10.00">Ponca::Query&lt; QueryInput</text>
<text text-anchor="start" x="783.5" y="-620" font-family="Helvetica,sans-Serif" font-size="10.00">IsIndex, QueryOutputIsRange</text>
<text text-anchor="middle" x="855" y="-609" font-family="Helvetica,sans-Serif" font-size="10.00">&lt; Scalar &gt; &gt;</text>
<polyline fill="none" stroke="black" points="775.5,-602 934.5,-602 "/>
<text text-anchor="middle" x="855" y="-590" font-family="Helvetica,sans-Serif" font-size="10.00"> </text>
<polyline fill="none" stroke="black" points="775.5,-583 934.5,-583 "/>
<text text-anchor="start" x="783.5" y="-571" font-family="Helvetica,sans-Serif" font-size="10.00">+ Query()</text>
<text text-anchor="start" x="783.5" y="-560" font-family="Helvetica,sans-Serif" font-size="10.00">+ Query()</text>
</a>
</g>
</g>
<!-- Node13&#45;&gt;Node24 -->
<g id="edge28" class="edge">
<title>Node13&#45;&gt;Node24</title>
<path fill="none" stroke="midnightblue" d="M997.67,-763.41C1000.39,-740.56 1000.22,-711.53 988,-689 975.97,-666.82 955.83,-649.07 934.81,-635.4"/>
<polygon fill="none" stroke="midnightblue" points="994.19,-763.04 996.25,-773.43 1001.12,-764.02 994.19,-763.04"/>
</g>
<!-- Node14 -->
<g id="node14" class="node">
<title>Node14</title>
<g id="a_node14"><a xlink:href="structPonca_1_1QueryInput.html" target="_top" xlink:title=" ">
<polygon fill="white" stroke="black" points="933,-944.5 933,-1023.5 1047,-1023.5 1047,-944.5 933,-944.5"/>
<text text-anchor="start" x="941" y="-1011.5" font-family="Helvetica,sans-Serif" font-size="10.00">Ponca::QueryInput&lt;</text>
<text text-anchor="middle" x="990" y="-1000.5" font-family="Helvetica,sans-Serif" font-size="10.00"> int &gt;</text>
<polyline fill="none" stroke="black" points="933,-993.5 1047,-993.5 "/>
<text text-anchor="middle" x="990" y="-981.5" font-family="Helvetica,sans-Serif" font-size="10.00"> </text>
<polyline fill="none" stroke="black" points="933,-974.5 1047,-974.5 "/>
<text text-anchor="start" x="941" y="-962.5" font-family="Helvetica,sans-Serif" font-size="10.00">+ QueryInput()</text>
<text text-anchor="start" x="941" y="-951.5" font-family="Helvetica,sans-Serif" font-size="10.00">+ input()</text>
</a>
</g>
</g>
<!-- Node14&#45;&gt;Node13 -->
<g id="edge15" class="edge">
<title>Node14&#45;&gt;Node13</title>
<path fill="none" stroke="midnightblue" d="M990,-933.97C990,-900.79 990,-858.15 990,-830.7"/>
<polygon fill="none" stroke="midnightblue" points="986.5,-934.39 990,-944.39 993.5,-934.39 986.5,-934.39"/>
</g>
<!-- Node15 -->
<g id="node15" class="node">
<title>Node15</title>
<g id="a_node15"><a xlink:href="structPonca_1_1QueryInputBase.html" target="_top" xlink:title="Base class for queries input type.">
<polygon fill="white" stroke="black" points="907,-1221.5 907,-1278.5 1037,-1278.5 1037,-1221.5 907,-1221.5"/>
<text text-anchor="middle" x="972" y="-1266.5" font-family="Helvetica,sans-Serif" font-size="10.00">Ponca::QueryInputBase</text>
<polyline fill="none" stroke="black" points="907,-1259.5 1037,-1259.5 "/>
<text text-anchor="middle" x="972" y="-1247.5" font-family="Helvetica,sans-Serif" font-size="10.00"> </text>
<polyline fill="none" stroke="black" points="907,-1240.5 1037,-1240.5 "/>
<text text-anchor="middle" x="972" y="-1228.5" font-family="Helvetica,sans-Serif" font-size="10.00"> </text>
</a>
</g>
</g>
<!-- Node15&#45;&gt;Node14 -->
<g id="edge16" class="edge">
<title>Node15&#45;&gt;Node14</title>
<path fill="none" stroke="midnightblue" d="M973.37,-1211.25C974.54,-1181.97 976.44,-1140.39 979,-1104 980.89,-1077.09 983.7,-1046.83 986,-1023.55"/>
<polygon fill="none" stroke="midnightblue" points="969.86,-1211.32 972.97,-1221.45 976.86,-1211.6 969.86,-1211.32"/>
</g>
<!-- Node16 -->
<g id="node16" class="node">
<title>Node16</title>
<g id="a_node16"><a xlink:href="structPonca_1_1QueryInput.html" target="_top" xlink:title="Base class for typed queries input type.">
<polygon fill="white" stroke="black" points="988,-1104.5 988,-1183.5 1102,-1183.5 1102,-1104.5 988,-1104.5"/>
<text text-anchor="start" x="996" y="-1171.5" font-family="Helvetica,sans-Serif" font-size="10.00">Ponca::QueryInput&lt;</text>
<text text-anchor="middle" x="1045" y="-1160.5" font-family="Helvetica,sans-Serif" font-size="10.00"> InputType_ &gt;</text>
<polyline fill="none" stroke="black" points="988,-1153.5 1102,-1153.5 "/>
<text text-anchor="middle" x="1045" y="-1141.5" font-family="Helvetica,sans-Serif" font-size="10.00"> </text>
<polyline fill="none" stroke="black" points="988,-1134.5 1102,-1134.5 "/>
<text text-anchor="start" x="996" y="-1122.5" font-family="Helvetica,sans-Serif" font-size="10.00">+ QueryInput()</text>
<text text-anchor="start" x="996" y="-1111.5" font-family="Helvetica,sans-Serif" font-size="10.00">+ input()</text>
</a>
</g>
</g>
<!-- Node15&#45;&gt;Node16 -->
<g id="edge18" class="edge">
<title>Node15&#45;&gt;Node16</title>
<path fill="none" stroke="midnightblue" d="M997.29,-1212.98C1003.92,-1203.52 1011.11,-1193.28 1017.84,-1183.69"/>
<polygon fill="none" stroke="midnightblue" points="994.25,-1211.21 991.37,-1221.4 999.98,-1215.23 994.25,-1211.21"/>
</g>
<!-- Node16&#45;&gt;Node14 -->
<g id="edge17" class="edge">
<title>Node16&#45;&gt;Node14</title>
<path fill="none" stroke="orange" d="M1028.23,-1094.83C1020.27,-1071.96 1010.89,-1045.01 1003.41,-1023.53"/>
<polygon fill="orange" stroke="orange" points="1024.95,-1096.06 1031.55,-1104.35 1031.56,-1093.75 1024.95,-1096.06"/>
<text text-anchor="middle" x="1043.5" y="-1072.5" font-family="Helvetica,sans-Serif" font-size="10.00"> &lt; int &gt;</text>
</g>
<!-- Node17 -->
<g id="node17" class="node">
<title>Node17</title>
<g id="a_node17"><a xlink:href="structPonca_1_1QueryOutputIsRange.html" target="_top" xlink:title=" ">
<polygon fill="white" stroke="black" points="479.5,-740.5 479.5,-863.5 632.5,-863.5 632.5,-740.5 479.5,-740.5"/>
<text text-anchor="start" x="487.5" y="-851.5" font-family="Helvetica,sans-Serif" font-size="10.00">Ponca::QueryOutputIsRange</text>
<text text-anchor="middle" x="556" y="-840.5" font-family="Helvetica,sans-Serif" font-size="10.00">&lt; DataPoint::Scalar &gt;</text>
<polyline fill="none" stroke="black" points="479.5,-833.5 632.5,-833.5 "/>
<text text-anchor="start" x="487.5" y="-821.5" font-family="Helvetica,sans-Serif" font-size="10.00"># m_squared_radius</text>
<polyline fill="none" stroke="black" points="479.5,-814.5 632.5,-814.5 "/>
<text text-anchor="start" x="487.5" y="-802.5" font-family="Helvetica,sans-Serif" font-size="10.00">+ QueryOutputIsRange()</text>
<text text-anchor="start" x="487.5" y="-791.5" font-family="Helvetica,sans-Serif" font-size="10.00">+ radius()</text>
<text text-anchor="start" x="487.5" y="-780.5" font-family="Helvetica,sans-Serif" font-size="10.00">+ squared_radius()</text>
<text text-anchor="start" x="487.5" y="-769.5" font-family="Helvetica,sans-Serif" font-size="10.00">+ set_radius()</text>
<text text-anchor="start" x="487.5" y="-758.5" font-family="Helvetica,sans-Serif" font-size="10.00">+ set_squared_radius()</text>
<text text-anchor="start" x="487.5" y="-747.5" font-family="Helvetica,sans-Serif" font-size="10.00"># reset()</text>
</a>
</g>
</g>
<!-- Node17&#45;&gt;Node12 -->
<g id="edge19" class="edge">
<title>Node17&#45;&gt;Node12</title>
<path fill="none" stroke="midnightblue" d="M597.78,-731.83C615.5,-702.48 635.64,-669.13 651.31,-643.19"/>
<polygon fill="none" stroke="midnightblue" points="594.78,-730.02 592.6,-740.39 600.77,-733.64 594.78,-730.02"/>
</g>
<!-- Node18 -->
<g id="node18" class="node">
<title>Node18</title>
<g id="a_node18"><a xlink:href="structPonca_1_1QueryOutputBase.html" target="_top" xlink:title="Base class for queries output type.">
<polygon fill="white" stroke="black" points="486,-1115.5 486,-1172.5 624,-1172.5 624,-1115.5 486,-1115.5"/>
<text text-anchor="middle" x="555" y="-1160.5" font-family="Helvetica,sans-Serif" font-size="10.00">Ponca::QueryOutputBase</text>
<polyline fill="none" stroke="black" points="486,-1153.5 624,-1153.5 "/>
<text text-anchor="middle" x="555" y="-1141.5" font-family="Helvetica,sans-Serif" font-size="10.00"> </text>
<polyline fill="none" stroke="black" points="486,-1134.5 624,-1134.5 "/>
<text text-anchor="middle" x="555" y="-1122.5" font-family="Helvetica,sans-Serif" font-size="10.00"> </text>
</a>
</g>
</g>
<!-- Node18&#45;&gt;Node17 -->
<g id="edge20" class="edge">
<title>Node18&#45;&gt;Node17</title>
<path fill="none" stroke="midnightblue" d="M548.72,-1105.05C546.07,-1087.19 543.3,-1065.56 542,-1046 538.33,-991.01 538.77,-977.02 542,-922 543.11,-903 545.22,-882.38 547.47,-863.72"/>
<polygon fill="none" stroke="midnightblue" points="545.28,-1105.73 550.25,-1115.08 552.2,-1104.67 545.28,-1105.73"/>
</g>
<!-- Node19 -->
<g id="node19" class="node">
<title>Node19</title>
<g id="a_node19"><a xlink:href="structPonca_1_1QueryOutputIsRange.html" target="_top" xlink:title="Base class for range queries.">
<polygon fill="white" stroke="black" points="551.5,-922.5 551.5,-1045.5 704.5,-1045.5 704.5,-922.5 551.5,-922.5"/>
<text text-anchor="start" x="559.5" y="-1033.5" font-family="Helvetica,sans-Serif" font-size="10.00">Ponca::QueryOutputIsRange</text>
<text text-anchor="middle" x="628" y="-1022.5" font-family="Helvetica,sans-Serif" font-size="10.00">&lt; Scalar &gt;</text>
<polyline fill="none" stroke="black" points="551.5,-1015.5 704.5,-1015.5 "/>
<text text-anchor="start" x="559.5" y="-1003.5" font-family="Helvetica,sans-Serif" font-size="10.00"># m_squared_radius</text>
<polyline fill="none" stroke="black" points="551.5,-996.5 704.5,-996.5 "/>
<text text-anchor="start" x="559.5" y="-984.5" font-family="Helvetica,sans-Serif" font-size="10.00">+ QueryOutputIsRange()</text>
<text text-anchor="start" x="559.5" y="-973.5" font-family="Helvetica,sans-Serif" font-size="10.00">+ radius()</text>
<text text-anchor="start" x="559.5" y="-962.5" font-family="Helvetica,sans-Serif" font-size="10.00">+ squared_radius()</text>
<text text-anchor="start" x="559.5" y="-951.5" font-family="Helvetica,sans-Serif" font-size="10.00">+ set_radius()</text>
<text text-anchor="start" x="559.5" y="-940.5" font-family="Helvetica,sans-Serif" font-size="10.00">+ set_squared_radius()</text>
<text text-anchor="start" x="559.5" y="-929.5" font-family="Helvetica,sans-Serif" font-size="10.00"># reset()</text>
</a>
</g>
</g>
<!-- Node18&#45;&gt;Node19 -->
<g id="edge22" class="edge">
<title>Node18&#45;&gt;Node19</title>
<path fill="none" stroke="midnightblue" d="M572.12,-1105.95C580.42,-1087.98 590.61,-1065.92 600,-1045.59"/>
<polygon fill="none" stroke="midnightblue" points="568.73,-1104.93 567.72,-1115.48 575.09,-1107.87 568.73,-1104.93"/>
</g>
<!-- Node19&#45;&gt;Node17 -->
<g id="edge21" class="edge">
<title>Node19&#45;&gt;Node17</title>
<path fill="none" stroke="orange" d="M561.4,-913.68C559.76,-910.51 558.28,-907.28 557,-904 552.1,-891.42 550.06,-877.27 549.6,-863.63"/>
<polygon fill="orange" stroke="orange" points="558.42,-915.52 566.45,-922.43 564.49,-912.02 558.42,-915.52"/>
<text text-anchor="middle" x="612" y="-890.5" font-family="Helvetica,sans-Serif" font-size="10.00"> &lt; DataPoint::Scalar &gt;</text>
</g>
<!-- Node19&#45;&gt;Node24 -->
<g id="edge29" class="edge">
<title>Node19&#45;&gt;Node24</title>
<path fill="none" stroke="midnightblue" d="M664.09,-912.77C665.14,-909.84 666.12,-906.91 667,-904 694.93,-811.77 631.03,-761.06 695,-689 716.61,-664.66 736.89,-685.58 766,-671 780.75,-663.61 795.29,-653.45 808.21,-643.08"/>
<polygon fill="none" stroke="midnightblue" points="660.81,-911.54 660.47,-922.13 667.34,-914.06 660.81,-911.54"/>
</g>
<!-- Node20 -->
<g id="node20" class="node">
<title>Node20</title>
<g id="a_node20"><a xlink:href="structPonca_1_1Query.html" target="_top" xlink:title=" ">
<polygon fill="white" stroke="black" points="756.5,-762.5 756.5,-841.5 873.5,-841.5 873.5,-762.5 756.5,-762.5"/>
<text text-anchor="start" x="764.5" y="-829.5" font-family="Helvetica,sans-Serif" font-size="10.00">Ponca::Query&lt; Input</text>
<text text-anchor="middle" x="815" y="-818.5" font-family="Helvetica,sans-Serif" font-size="10.00">_, Output_ &gt;</text>
<polyline fill="none" stroke="black" points="756.5,-811.5 873.5,-811.5 "/>
<text text-anchor="middle" x="815" y="-799.5" font-family="Helvetica,sans-Serif" font-size="10.00"> </text>
<polyline fill="none" stroke="black" points="756.5,-792.5 873.5,-792.5 "/>
<text text-anchor="start" x="764.5" y="-780.5" font-family="Helvetica,sans-Serif" font-size="10.00">+ Query()</text>
<text text-anchor="start" x="764.5" y="-769.5" font-family="Helvetica,sans-Serif" font-size="10.00">+ Query()</text>
</a>
</g>
</g>
<!-- Node20&#45;&gt;Node12 -->
<g id="edge23" class="edge">
<title>Node20&#45;&gt;Node12</title>
<path fill="none" stroke="orange" d="M748.02,-760.54C734.14,-749.52 720.78,-736.55 711,-722 695.28,-698.6 687.03,-668 682.71,-643.17"/>
<polygon fill="orange" stroke="orange" points="746.16,-763.52 756.24,-766.79 750.4,-757.95 746.16,-763.52"/>
<text text-anchor="start" x="711" y="-714" font-family="Helvetica,sans-Serif" font-size="10.00"> &lt; QueryInputIsIndex,</text>
<text text-anchor="start" x="711" y="-703" font-family="Helvetica,sans-Serif" font-size="10.00"> QueryOutputIsRange</text>
<text text-anchor="middle" x="770" y="-692" font-family="Helvetica,sans-Serif" font-size="10.00">&lt; DataPoint::Scalar &gt; &gt;</text>
</g>
<!-- Node20&#45;&gt;Node24 -->
<g id="edge30" class="edge">
<title>Node20&#45;&gt;Node24</title>
<path fill="none" stroke="orange" d="M826.47,-752.3C828.72,-742.3 831,-731.82 833,-722 838.29,-695.96 843.56,-666.68 847.61,-643.22"/>
<polygon fill="orange" stroke="orange" points="823.05,-751.57 824.25,-762.1 829.88,-753.13 823.05,-751.57"/>
<text text-anchor="start" x="839" y="-714" font-family="Helvetica,sans-Serif" font-size="10.00"> &lt; QueryInputIsIndex,</text>
<text text-anchor="start" x="839" y="-703" font-family="Helvetica,sans-Serif" font-size="10.00"> QueryOutputIsRange</text>
<text text-anchor="middle" x="892.5" y="-692" font-family="Helvetica,sans-Serif" font-size="10.00">&lt; Scalar &gt; &gt;</text>
</g>
<!-- Node21 -->
<g id="node21" class="node">
<title>Node21</title>
<g id="a_node21"><a xlink:title=" ">
<polygon fill="white" stroke="#bfbfbf" points="763.5,-955.5 763.5,-1012.5 810.5,-1012.5 810.5,-955.5 763.5,-955.5"/>
<text text-anchor="middle" x="787" y="-1000.5" font-family="Helvetica,sans-Serif" font-size="10.00">Input_</text>
<polyline fill="none" stroke="#bfbfbf" points="763.5,-993.5 810.5,-993.5 "/>
<text text-anchor="middle" x="787" y="-981.5" font-family="Helvetica,sans-Serif" font-size="10.00"> </text>
<polyline fill="none" stroke="#bfbfbf" points="763.5,-974.5 810.5,-974.5 "/>
<text text-anchor="middle" x="787" y="-962.5" font-family="Helvetica,sans-Serif" font-size="10.00"> </text>
</a>
</g>
</g>
<!-- Node21&#45;&gt;Node20 -->
<g id="edge24" class="edge">
<title>Node21&#45;&gt;Node20</title>
<path fill="none" stroke="midnightblue" d="M792.9,-945.08C797.62,-914.74 804.21,-872.36 808.97,-841.79"/>
<polygon fill="none" stroke="midnightblue" points="789.39,-944.85 791.31,-955.27 796.31,-945.93 789.39,-944.85"/>
</g>
<!-- Node22 -->
<g id="node22" class="node">
<title>Node22</title>
<g id="a_node22"><a xlink:title=" ">
<polygon fill="white" stroke="#bfbfbf" points="828.5,-955.5 828.5,-1012.5 883.5,-1012.5 883.5,-955.5 828.5,-955.5"/>
<text text-anchor="middle" x="856" y="-1000.5" font-family="Helvetica,sans-Serif" font-size="10.00">Output_</text>
<polyline fill="none" stroke="#bfbfbf" points="828.5,-993.5 883.5,-993.5 "/>
<text text-anchor="middle" x="856" y="-981.5" font-family="Helvetica,sans-Serif" font-size="10.00"> </text>
<polyline fill="none" stroke="#bfbfbf" points="828.5,-974.5 883.5,-974.5 "/>
<text text-anchor="middle" x="856" y="-962.5" font-family="Helvetica,sans-Serif" font-size="10.00"> </text>
</a>
</g>
</g>
<!-- Node22&#45;&gt;Node20 -->
<g id="edge25" class="edge">
<title>Node22&#45;&gt;Node20</title>
<path fill="none" stroke="midnightblue" d="M847.45,-945.48C840.54,-915.11 830.83,-872.49 823.84,-841.79"/>
<polygon fill="none" stroke="midnightblue" points="844.05,-946.3 849.68,-955.27 850.88,-944.74 844.05,-946.3"/>
</g>
<!-- Node23 -->
<g id="node23" class="node">
<title>Node23</title>
<g id="a_node23"><a xlink:href="structPonca_1_1RangeIndexQuery.html" target="_top" xlink:title="Base Query class combining QueryInputIsIndex and QueryOutputIsRange.">
<polygon fill="white" stroke="black" points="726.5,-332.5 726.5,-400.5 865.5,-400.5 865.5,-332.5 726.5,-332.5"/>
<text text-anchor="start" x="734.5" y="-388.5" font-family="Helvetica,sans-Serif" font-size="10.00">Ponca::RangeIndexQuery</text>
<text text-anchor="middle" x="796" y="-377.5" font-family="Helvetica,sans-Serif" font-size="10.00">&lt; Scalar &gt;</text>
<polyline fill="none" stroke="black" points="726.5,-370.5 865.5,-370.5 "/>
<text text-anchor="middle" x="796" y="-358.5" font-family="Helvetica,sans-Serif" font-size="10.00"> </text>
<polyline fill="none" stroke="black" points="726.5,-351.5 865.5,-351.5 "/>
<text text-anchor="middle" x="796" y="-339.5" font-family="Helvetica,sans-Serif" font-size="10.00"> </text>
</a>
</g>
</g>
<!-- Node23&#45;&gt;Node11 -->
<g id="edge26" class="edge">
<title>Node23&#45;&gt;Node11</title>
<path fill="none" stroke="orange" d="M767.9,-323.95C747.25,-293.41 719.56,-252.45 700.39,-224.11"/>
<polygon fill="orange" stroke="orange" points="765.03,-325.94 773.53,-332.27 770.82,-322.02 765.03,-325.94"/>
<text text-anchor="middle" x="778" y="-251" font-family="Helvetica,sans-Serif" font-size="10.00"> &lt; DataPoint::Scalar &gt;</text>
</g>
<!-- Node24&#45;&gt;Node23 -->
<g id="edge27" class="edge">
<title>Node24&#45;&gt;Node23</title>
<path fill="none" stroke="midnightblue" d="M841.13,-543.06C829.8,-498.99 814.15,-438.09 804.57,-400.83"/>
<polygon fill="none" stroke="midnightblue" points="837.74,-543.94 843.62,-552.75 844.52,-542.19 837.74,-543.94"/>
</g>
</g>
</svg>
        <g id="navigator" transform="translate(0 0)" fill="#404254">
                <rect fill="#f2f5e9" fill-opacity="0.5" stroke="#606060" stroke-width=".5" x="0" y="0" width="60" height="60"/>
                <use id="zoomplus" xlink:href="#zoomPlus" x="17" y="9" onmousedown="handleZoom(evt,'in')"/>
                <use id="zoomminus" xlink:href="#zoomMin" x="42" y="9" onmousedown="handleZoom(evt,'out')"/>
                <use id="reset" xlink:href="#resetDef" x="30" y="36" onmousedown="handleReset()"/>
                <g id="arrowUp" xlink:href="#dirArrow" transform="translate(30 24)" onmousedown="handlePan(0,-1)">
                  <use xlink:href="#rim" fill="#404040">
                        <set attributeName="fill" to="#808080" begin="arrowUp.mouseover" end="arrowUp.mouseout"/>
                  </use>
                  <path fill="none" stroke="white" stroke-width="1.5" d="M0,-3.0v7 M-2.5,-0.5L0,-3.0L2.5,-0.5"/>
                </g>
                <g id="arrowRight" xlink:href="#dirArrow" transform="rotate(90) translate(36 -43)" onmousedown="handlePan(1,0)">
                  <use xlink:href="#rim" fill="#404040">
                        <set attributeName="fill" to="#808080" begin="arrowRight.mouseover" end="arrowRight.mouseout"/>
                  </use>
                  <path fill="none" stroke="white" stroke-width="1.5" d="M0,-3.0v7 M-2.5,-0.5L0,-3.0L2.5,-0.5"/>
                </g>
                <g id="arrowDown" xlink:href="#dirArrow" transform="rotate(180) translate(-30 -48)" onmousedown="handlePan(0,1)">
                  <use xlink:href="#rim" fill="#404040">
                        <set attributeName="fill" to="#808080" begin="arrowDown.mouseover" end="arrowDown.mouseout"/>
                  </use>
                  <path fill="none" stroke="white" stroke-width="1.5" d="M0,-3.0v7 M-2.5,-0.5L0,-3.0L2.5,-0.5"/>
                </g>
                <g id="arrowLeft" xlink:href="#dirArrow" transform="rotate(270) translate(-36 17)" onmousedown="handlePan(-1,0)">
                  <use xlink:href="#rim" fill="#404040">
                        <set attributeName="fill" to="#808080" begin="arrowLeft.mouseover" end="arrowLeft.mouseout"/>
                  </use>
                  <path fill="none" stroke="white" stroke-width="1.5" d="M0,-3.0v7 M-2.5,-0.5L0,-3.0L2.5,-0.5"/>
                </g>
        </g>
        <svg viewBox="0 0 15 15" width="100%" height="30px" preserveAspectRatio="xMaxYMin meet">
         <g id="arrow_out" transform="scale(0.3 0.3)">
          <a xlink:href="classPonca_1_1KdTreeRangeIndexQuery__coll__graph_org.svg" target="_base">
           <rect id="button" ry="5" rx="5" y="6" x="6" height="38" width="38"
                fill="#f2f5e9" fill-opacity="0.5" stroke="#606060" stroke-width="1.0"/>
           <path id="arrow"
             d="M 11.500037,31.436501 C 11.940474,20.09759 22.043105,11.32322 32.158766,21.979434 L 37.068811,17.246167 C 37.068811,17.246167 37.088388,32 37.088388,32 L 22.160133,31.978069 C 22.160133,31.978069 26.997745,27.140456 26.997745,27.140456 C 18.528582,18.264221 13.291696,25.230495 11.500037,31.436501 z"
             style="fill:#404040;"/>
          </a>
         </g>
        </svg>
</svg>
