<?xml version="1.0" encoding="UTF-8" standalone="no"?>
<!DOCTYPE svg PUBLIC "-//W3C//DTD SVG 1.1//EN"
 "http://www.w3.org/Graphics/SVG/1.1/DTD/svg11.dtd">
<!-- Generated by graphviz version 2.43.0 (0)
 -->
<!-- Title: Ponca::CovarianceFitBase&lt; DataPoint, _WFunctor, T &gt; Pages: 1 -->
<svg width="198pt" height="389pt"
 viewBox="0.00 0.00 198.00 389.00" xmlns="http://www.w3.org/2000/svg" xmlns:xlink="http://www.w3.org/1999/xlink">
<g id="graph0" class="graph" transform="scale(1 1) rotate(0) translate(4 385)">
<title>Ponca::CovarianceFitBase&lt; DataPoint, _WFunctor, T &gt;</title>
<!-- Node1 -->
<g id="Node000001" class="node">
<title>Node1</title>
<g id="a_Node000001"><a xlink:title="Procedure that compute and decompose the covariance matrix of the neighbors positions in .">
<polygon fill="#999999" stroke="transparent" points="190,-285 40,-285 40,0 190,0 190,-285"/>
<text text-anchor="start" x="45" y="-272.5" font-family="Helvetica,sans-Serif" font-size="10.00">Ponca::CovarianceFitBase</text>
<text text-anchor="start" x="45" y="-261.5" font-family="Helvetica,sans-Serif" font-size="10.00">&lt; DataPoint, _WFunctor, T &gt;</text>
<text text-anchor="start" x="52" y="-246.5" font-family="Helvetica,sans-Serif" font-size="10.00">#</text>
<text text-anchor="start" x="73" y="-246.5" font-family="Helvetica,sans-Serif" font-size="10.00">m_cov</text>
<text text-anchor="start" x="52" y="-231.5" font-family="Helvetica,sans-Serif" font-size="10.00">#</text>
<text text-anchor="start" x="73" y="-231.5" font-family="Helvetica,sans-Serif" font-size="10.00">m_solver</text>
<text text-anchor="start" x="52" y="-216.5" font-family="Helvetica,sans-Serif" font-size="10.00">+</text>
<text text-anchor="start" x="73" y="-216.5" font-family="Helvetica,sans-Serif" font-size="10.00">covarianceFit()</text>
<text text-anchor="start" x="52" y="-201.5" font-family="Helvetica,sans-Serif" font-size="10.00">+</text>
<text text-anchor="start" x="73" y="-201.5" font-family="Helvetica,sans-Serif" font-size="10.00">covarianceFit()</text>
<text text-anchor="start" x="52" y="-186.5" font-family="Helvetica,sans-Serif" font-size="10.00">+</text>
<text text-anchor="start" x="73" y="-186.5" font-family="Helvetica,sans-Serif" font-size="10.00">init()</text>
<text text-anchor="start" x="52" y="-171.5" font-family="Helvetica,sans-Serif" font-size="10.00">+</text>
<text text-anchor="start" x="73" y="-171.5" font-family="Helvetica,sans-Serif" font-size="10.00">addLocalNeighbor()</text>
<text text-anchor="start" x="52" y="-156.5" font-family="Helvetica,sans-Serif" font-size="10.00">+</text>
<text text-anchor="start" x="73" y="-156.5" font-family="Helvetica,sans-Serif" font-size="10.00">finalize()</text>
<text text-anchor="start" x="52" y="-141.5" font-family="Helvetica,sans-Serif" font-size="10.00">+</text>
<text text-anchor="start" x="73" y="-141.5" font-family="Helvetica,sans-Serif" font-size="10.00">surfaceVariation()</text>
<text text-anchor="start" x="52" y="-126.5" font-family="Helvetica,sans-Serif" font-size="10.00">+</text>
<text text-anchor="start" x="73" y="-126.5" font-family="Helvetica,sans-Serif" font-size="10.00">planarity()</text>
<text text-anchor="start" x="52" y="-111.5" font-family="Helvetica,sans-Serif" font-size="10.00">+</text>
<text text-anchor="start" x="73" y="-111.5" font-family="Helvetica,sans-Serif" font-size="10.00">linearity()</text>
<text text-anchor="start" x="52" y="-96.5" font-family="Helvetica,sans-Serif" font-size="10.00">+</text>
<text text-anchor="start" x="73" y="-96.5" font-family="Helvetica,sans-Serif" font-size="10.00">sphericity()</text>
<text text-anchor="start" x="52" y="-81.5" font-family="Helvetica,sans-Serif" font-size="10.00">+</text>
<text text-anchor="start" x="73" y="-81.5" font-family="Helvetica,sans-Serif" font-size="10.00">anisotropy()</text>
<text text-anchor="start" x="52" y="-66.5" font-family="Helvetica,sans-Serif" font-size="10.00">+</text>
<text text-anchor="start" x="73" y="-66.5" font-family="Helvetica,sans-Serif" font-size="10.00">eigenentropy()</text>
<text text-anchor="start" x="52" y="-51.5" font-family="Helvetica,sans-Serif" font-size="10.00">+</text>
<text text-anchor="start" x="73" y="-51.5" font-family="Helvetica,sans-Serif" font-size="10.00">lambda_0()</text>
<text text-anchor="start" x="52" y="-36.5" font-family="Helvetica,sans-Serif" font-size="10.00">+</text>
<text text-anchor="start" x="73" y="-36.5" font-family="Helvetica,sans-Serif" font-size="10.00">lambda_1()</text>
<text text-anchor="start" x="52" y="-21.5" font-family="Helvetica,sans-Serif" font-size="10.00">+</text>
<text text-anchor="start" x="73" y="-21.5" font-family="Helvetica,sans-Serif" font-size="10.00">lambda_2()</text>
<text text-anchor="start" x="52" y="-6.5" font-family="Helvetica,sans-Serif" font-size="10.00">+</text>
<text text-anchor="start" x="73" y="-6.5" font-family="Helvetica,sans-Serif" font-size="10.00">solver()</text>
<polygon fill="#666666" stroke="#666666" points="40,-256.5 40,-256.5 190,-256.5 190,-256.5 40,-256.5"/>
<polygon fill="#666666" stroke="#666666" points="40,-226.5 40,-226.5 71,-226.5 71,-226.5 40,-226.5"/>
<polygon fill="#666666" stroke="#666666" points="71,-226.5 71,-226.5 190,-226.5 190,-226.5 71,-226.5"/>
<polygon fill="none" stroke="#666666" points="40,0 40,-285 190,-285 190,0 40,0"/>
</a>
</g>
</g>
<!-- Node2 -->
<g id="Node000002" class="node">
<title>Node2</title>
<g id="a_Node000002"><a xlink:title=" ">
<polygon fill="white" stroke="transparent" points="136,-381 0,-381 0,-321 136,-321 136,-381"/>
<text text-anchor="start" x="5" y="-369" font-family="Helvetica,sans-Serif" font-size="10.00">Concept::FittingProcedure</text>
<text text-anchor="start" x="48" y="-358" font-family="Helvetica,sans-Serif" font-size="10.00">Concept</text>
<text text-anchor="start" x="66" y="-343" font-family="Helvetica,sans-Serif" font-size="10.00"> </text>
<text text-anchor="start" x="66" y="-328" font-family="Helvetica,sans-Serif" font-size="10.00"> </text>
<polygon fill="#bfbfbf" stroke="#bfbfbf" points="0,-353 0,-353 136,-353 136,-353 0,-353"/>
<polygon fill="#bfbfbf" stroke="#bfbfbf" points="0,-338 0,-338 136,-338 136,-338 0,-338"/>
<polygon fill="none" stroke="#bfbfbf" points="0,-321 0,-381 136,-381 136,-321 0,-321"/>
</a>
</g>
</g>
<!-- Node2&#45;&gt;Node1 -->
<g id="edge1_Node000001_Node000002" class="edge">
<title>Node2&#45;&gt;Node1</title>
<g id="a_edge1_Node000001_Node000002"><a xlink:title=" ">
<path fill="none" stroke="#63b8ff" d="M76.89,-310.96C78.69,-303.05 80.68,-294.3 82.78,-285.08"/>
<polygon fill="none" stroke="#63b8ff" points="73.44,-310.32 74.63,-320.85 80.27,-311.88 73.44,-310.32"/>
</a>
</g>
</g>
<!-- Node3 -->
<g id="Node000003" class="node">
<title>Node3</title>
<g id="a_Node000003"><a xlink:title=" ">
<polygon fill="white" stroke="transparent" points="171.5,-375.5 154.5,-375.5 154.5,-326.5 171.5,-326.5 171.5,-375.5"/>
<text text-anchor="start" x="160" y="-363" font-family="Helvetica,sans-Serif" font-size="10.00">T</text>
<text text-anchor="start" x="161.5" y="-348" font-family="Helvetica,sans-Serif" font-size="10.00"> </text>
<text text-anchor="start" x="161.5" y="-333" font-family="Helvetica,sans-Serif" font-size="10.00"> </text>
<polygon fill="#bfbfbf" stroke="#bfbfbf" points="155,-358 155,-358 172,-358 172,-358 155,-358"/>
<polygon fill="#bfbfbf" stroke="#bfbfbf" points="155,-343 155,-343 172,-343 172,-343 155,-343"/>
<polygon fill="none" stroke="#bfbfbf" points="154.5,-326.5 154.5,-375.5 171.5,-375.5 171.5,-326.5 154.5,-326.5"/>
</a>
</g>
</g>
<!-- Node3&#45;&gt;Node1 -->
<g id="edge2_Node000001_Node000003" class="edge">
<title>Node3&#45;&gt;Node1</title>
<g id="a_edge2_Node000001_Node000003"><a xlink:title=" ">
<path fill="none" stroke="#63b8ff" d="M155.22,-316.52C153.07,-307.29 150.6,-296.67 147.96,-285.31"/>
<polygon fill="none" stroke="#63b8ff" points="151.82,-317.36 157.49,-326.31 158.64,-315.78 151.82,-317.36"/>
</a>
</g>
</g>
</g>
</svg>
