<?xml version="1.0" encoding="UTF-8" standalone="no"?>
<!DOCTYPE svg PUBLIC "-//W3C//DTD SVG 1.1//EN"
 "http://www.w3.org/Graphics/SVG/1.1/DTD/svg11.dtd">
<!-- Generated by graphviz version 2.43.0 (0)
 -->
<!-- Title: Ponca::KdTreeCustomizableNode&lt; Index, NodeIndex, DataPoint, LeafSize, _InnerNodeType, _LeafNodeType &gt; Pages: 1 -->
<svg width="455pt" height="645pt"
 viewBox="0.00 0.00 455.00 645.00" xmlns="http://www.w3.org/2000/svg" xmlns:xlink="http://www.w3.org/1999/xlink">
<g id="graph0" class="graph" transform="scale(1 1) rotate(0) translate(4 641)">
<title>Ponca::KdTreeCustomizableNode&lt; Index, NodeIndex, DataPoint, LeafSize, _InnerNodeType, _LeafNodeType &gt;</title>
<!-- Node1 -->
<g id="Node000001" class="node">
<title>Node1</title>
<g id="a_Node000001"><a xlink:title="The node type used by default by the kd&#45;tree.">
<polygon fill="#999999" stroke="transparent" points="270,-637 100,-637 100,-375 270,-375 270,-637"/>
<text text-anchor="start" x="105" y="-625" font-family="Helvetica,sans-Serif" font-size="10.00">Ponca::KdTreeCustomizable</text>
<text text-anchor="start" x="105" y="-614" font-family="Helvetica,sans-Serif" font-size="10.00">Node&lt; Index, NodeIndex,</text>
<text text-anchor="start" x="105" y="-603" font-family="Helvetica,sans-Serif" font-size="10.00"> DataPoint, LeafSize, _InnerNode</text>
<text text-anchor="start" x="127.5" y="-592" font-family="Helvetica,sans-Serif" font-size="10.00">Type, _LeafNodeType &gt;</text>
<text text-anchor="start" x="183" y="-577" font-family="Helvetica,sans-Serif" font-size="10.00"> </text>
<text text-anchor="start" x="116" y="-562" font-family="Helvetica,sans-Serif" font-size="10.00">+</text>
<text text-anchor="start" x="141" y="-562" font-family="Helvetica,sans-Serif" font-size="10.00">is_leaf()</text>
<text text-anchor="start" x="116" y="-547" font-family="Helvetica,sans-Serif" font-size="10.00">+</text>
<text text-anchor="start" x="141" y="-547" font-family="Helvetica,sans-Serif" font-size="10.00">set_is_leaf()</text>
<text text-anchor="start" x="116" y="-532" font-family="Helvetica,sans-Serif" font-size="10.00">+</text>
<text text-anchor="start" x="141" y="-532" font-family="Helvetica,sans-Serif" font-size="10.00">configure_range()</text>
<text text-anchor="start" x="116" y="-517" font-family="Helvetica,sans-Serif" font-size="10.00">+</text>
<text text-anchor="start" x="141" y="-517" font-family="Helvetica,sans-Serif" font-size="10.00">configure_inner()</text>
<text text-anchor="start" x="116" y="-502" font-family="Helvetica,sans-Serif" font-size="10.00">+</text>
<text text-anchor="start" x="141" y="-502" font-family="Helvetica,sans-Serif" font-size="10.00">leaf_start()</text>
<text text-anchor="start" x="116" y="-487" font-family="Helvetica,sans-Serif" font-size="10.00">+</text>
<text text-anchor="start" x="141" y="-487" font-family="Helvetica,sans-Serif" font-size="10.00">leaf_size()</text>
<text text-anchor="start" x="116" y="-472" font-family="Helvetica,sans-Serif" font-size="10.00">+</text>
<text text-anchor="start" x="141" y="-472" font-family="Helvetica,sans-Serif" font-size="10.00">inner_split_value()</text>
<text text-anchor="start" x="116" y="-457" font-family="Helvetica,sans-Serif" font-size="10.00">+</text>
<text text-anchor="start" x="141" y="-457" font-family="Helvetica,sans-Serif" font-size="10.00">inner_split_dim()</text>
<text text-anchor="start" x="116" y="-442" font-family="Helvetica,sans-Serif" font-size="10.00">+</text>
<text text-anchor="start" x="141" y="-442" font-family="Helvetica,sans-Serif" font-size="10.00">inner_first_child_id()</text>
<text text-anchor="start" x="116" y="-427" font-family="Helvetica,sans-Serif" font-size="10.00">#</text>
<text text-anchor="start" x="141" y="-427" font-family="Helvetica,sans-Serif" font-size="10.00">getAsLeaf()</text>
<text text-anchor="start" x="116" y="-412" font-family="Helvetica,sans-Serif" font-size="10.00">#</text>
<text text-anchor="start" x="141" y="-412" font-family="Helvetica,sans-Serif" font-size="10.00">getAsInner()</text>
<text text-anchor="start" x="116" y="-397" font-family="Helvetica,sans-Serif" font-size="10.00">#</text>
<text text-anchor="start" x="141" y="-397" font-family="Helvetica,sans-Serif" font-size="10.00">getAsLeaf()</text>
<text text-anchor="start" x="116" y="-382" font-family="Helvetica,sans-Serif" font-size="10.00">#</text>
<text text-anchor="start" x="141" y="-382" font-family="Helvetica,sans-Serif" font-size="10.00">getAsInner()</text>
<polygon fill="#666666" stroke="#666666" points="100,-587 100,-587 270,-587 270,-587 100,-587"/>
<polygon fill="#666666" stroke="#666666" points="100,-572 100,-572 270,-572 270,-572 100,-572"/>
<polygon fill="none" stroke="#666666" points="100,-375 100,-637 270,-637 270,-375 100,-375"/>
</a>
</g>
</g>
<!-- Node2 -->
<g id="Node000002" class="node">
<title>Node2</title>
<g id="a_Node000002"><a xlink:href="structPonca_1_1KdTreeDefaultNode.html" target="_top" xlink:title=" ">
<polygon fill="white" stroke="transparent" points="164,-177.5 0,-177.5 0,-106.5 164,-106.5 164,-177.5"/>
<text text-anchor="start" x="5" y="-165" font-family="Helvetica,sans-Serif" font-size="10.00">Ponca::KdTreeDefaultNode</text>
<text text-anchor="start" x="5" y="-154" font-family="Helvetica,sans-Serif" font-size="10.00">&lt; Index, NodeIndex, DataPoint,</text>
<text text-anchor="start" x="54" y="-143" font-family="Helvetica,sans-Serif" font-size="10.00"> LeafSize &gt;</text>
<text text-anchor="start" x="80" y="-128" font-family="Helvetica,sans-Serif" font-size="10.00"> </text>
<text text-anchor="start" x="80" y="-113" font-family="Helvetica,sans-Serif" font-size="10.00"> </text>
<polygon fill="#bfbfbf" stroke="#bfbfbf" points="0,-138 0,-138 164,-138 164,-138 0,-138"/>
<polygon fill="#bfbfbf" stroke="#bfbfbf" points="0,-123 0,-123 164,-123 164,-123 0,-123"/>
<polygon fill="none" stroke="#bfbfbf" points="0,-106.5 0,-177.5 164,-177.5 164,-106.5 0,-106.5"/>
</a>
</g>
</g>
<!-- Node1&#45;&gt;Node2 -->
<g id="edge1_Node000001_Node000002" class="edge">
<title>Node1&#45;&gt;Node2</title>
<g id="a_edge1_Node000001_Node000002"><a xlink:title=" ">
<path fill="none" stroke="#63b8ff" d="M145.13,-364.86C125.8,-296.93 104.16,-220.89 91.9,-177.8"/>
<polygon fill="none" stroke="#63b8ff" points="141.86,-366.16 147.96,-374.82 148.59,-364.25 141.86,-366.16"/>
</a>
</g>
</g>
<!-- Node3 -->
<g id="Node000003" class="node">
<title>Node3</title>
<g id="a_Node000003"><a xlink:href="classPonca_1_1KdTreeCustomizableNode.html" target="_top" xlink:title=" ">
<polygon fill="white" stroke="transparent" points="395.5,-284 182.5,-284 182.5,0 395.5,0 395.5,-284"/>
<text text-anchor="start" x="188" y="-272" font-family="Helvetica,sans-Serif" font-size="10.00">Ponca::KdTreeCustomizable</text>
<text text-anchor="start" x="188" y="-261" font-family="Helvetica,sans-Serif" font-size="10.00">Node&lt; Index, NodeIndex,</text>
<text text-anchor="start" x="188" y="-250" font-family="Helvetica,sans-Serif" font-size="10.00"> DataPoint, Index, KdTreeDefault</text>
<text text-anchor="start" x="188" y="-239" font-family="Helvetica,sans-Serif" font-size="10.00">InnerNode&lt; NodeIndex, DataPoint</text>
<text text-anchor="start" x="188" y="-228" font-family="Helvetica,sans-Serif" font-size="10.00">::Scalar, DataPoint::Dim &gt;, KdTreeDefault</text>
<text text-anchor="start" x="219" y="-217" font-family="Helvetica,sans-Serif" font-size="10.00">LeafNode&lt; Index, Index &gt; &gt;</text>
<text text-anchor="start" x="287.5" y="-202" font-family="Helvetica,sans-Serif" font-size="10.00"> </text>
<text text-anchor="start" x="210" y="-187" font-family="Helvetica,sans-Serif" font-size="10.00">+</text>
<text text-anchor="start" x="246" y="-187" font-family="Helvetica,sans-Serif" font-size="10.00">is_leaf()</text>
<text text-anchor="start" x="210" y="-172" font-family="Helvetica,sans-Serif" font-size="10.00">+</text>
<text text-anchor="start" x="246" y="-172" font-family="Helvetica,sans-Serif" font-size="10.00">set_is_leaf()</text>
<text text-anchor="start" x="210" y="-157" font-family="Helvetica,sans-Serif" font-size="10.00">+</text>
<text text-anchor="start" x="246" y="-157" font-family="Helvetica,sans-Serif" font-size="10.00">configure_range()</text>
<text text-anchor="start" x="210" y="-142" font-family="Helvetica,sans-Serif" font-size="10.00">+</text>
<text text-anchor="start" x="246" y="-142" font-family="Helvetica,sans-Serif" font-size="10.00">configure_inner()</text>
<text text-anchor="start" x="210" y="-127" font-family="Helvetica,sans-Serif" font-size="10.00">+</text>
<text text-anchor="start" x="246" y="-127" font-family="Helvetica,sans-Serif" font-size="10.00">leaf_start()</text>
<text text-anchor="start" x="210" y="-112" font-family="Helvetica,sans-Serif" font-size="10.00">+</text>
<text text-anchor="start" x="246" y="-112" font-family="Helvetica,sans-Serif" font-size="10.00">leaf_size()</text>
<text text-anchor="start" x="210" y="-97" font-family="Helvetica,sans-Serif" font-size="10.00">+</text>
<text text-anchor="start" x="246" y="-97" font-family="Helvetica,sans-Serif" font-size="10.00">inner_split_value()</text>
<text text-anchor="start" x="210" y="-82" font-family="Helvetica,sans-Serif" font-size="10.00">+</text>
<text text-anchor="start" x="246" y="-82" font-family="Helvetica,sans-Serif" font-size="10.00">inner_split_dim()</text>
<text text-anchor="start" x="210" y="-67" font-family="Helvetica,sans-Serif" font-size="10.00">+</text>
<text text-anchor="start" x="246" y="-67" font-family="Helvetica,sans-Serif" font-size="10.00">inner_first_child_id()</text>
<text text-anchor="start" x="210" y="-52" font-family="Helvetica,sans-Serif" font-size="10.00">#</text>
<text text-anchor="start" x="246" y="-52" font-family="Helvetica,sans-Serif" font-size="10.00">getAsLeaf()</text>
<text text-anchor="start" x="210" y="-37" font-family="Helvetica,sans-Serif" font-size="10.00">#</text>
<text text-anchor="start" x="246" y="-37" font-family="Helvetica,sans-Serif" font-size="10.00">getAsLeaf()</text>
<text text-anchor="start" x="210" y="-22" font-family="Helvetica,sans-Serif" font-size="10.00">#</text>
<text text-anchor="start" x="246" y="-22" font-family="Helvetica,sans-Serif" font-size="10.00">getAsInner()</text>
<text text-anchor="start" x="210" y="-7" font-family="Helvetica,sans-Serif" font-size="10.00">#</text>
<text text-anchor="start" x="246" y="-7" font-family="Helvetica,sans-Serif" font-size="10.00">getAsInner()</text>
<polygon fill="#666666" stroke="#666666" points="183,-212 183,-212 396,-212 396,-212 183,-212"/>
<polygon fill="#666666" stroke="#666666" points="183,-197 183,-197 396,-197 396,-197 183,-197"/>
<polygon fill="none" stroke="#666666" points="182.5,0 182.5,-284 395.5,-284 395.5,0 182.5,0"/>
</a>
</g>
</g>
<!-- Node1&#45;&gt;Node3 -->
<g id="edge2_Node000001_Node000003" class="edge">
<title>Node1&#45;&gt;Node3</title>
<g id="a_edge2_Node000001_Node000003"><a xlink:title=" ">
<path fill="none" stroke="orange" d="M225.19,-365.11C232.81,-338.59 240.78,-310.83 248.41,-284.27"/>
<polygon fill="orange" stroke="orange" points="221.8,-364.24 222.4,-374.82 228.52,-366.18 221.8,-364.24"/>
</a>
</g>
<text text-anchor="start" x="244" y="-349" font-family="Helvetica,sans-Serif" font-size="10.00" fill="grey"> &lt; Index, NodeIndex,</text>
<text text-anchor="start" x="244" y="-338" font-family="Helvetica,sans-Serif" font-size="10.00" fill="grey"> DataPoint, Index, KdTreeDefault</text>
<text text-anchor="start" x="244" y="-327" font-family="Helvetica,sans-Serif" font-size="10.00" fill="grey">InnerNode&lt; NodeIndex, DataPoint</text>
<text text-anchor="start" x="244" y="-316" font-family="Helvetica,sans-Serif" font-size="10.00" fill="grey">::Scalar, DataPoint::Dim &gt;, KdTreeDefault</text>
<text text-anchor="middle" x="345.5" y="-305" font-family="Helvetica,sans-Serif" font-size="10.00" fill="grey">LeafNode&lt; Index, Index &gt; &gt;</text>
</g>
</g>
</svg>
