<?xml version="1.0" encoding="UTF-8" standalone="no"?>
<!DOCTYPE svg PUBLIC "-//W3C//DTD SVG 1.1//EN"
 "http://www.w3.org/Graphics/SVG/1.1/DTD/svg11.dtd">
<!-- Generated by graphviz version 2.43.0 (0)
 -->
<!-- Title: Ponca::internal::CovariancePlaneDer&lt; DataPoint, _WFunctor, T, Type &gt; Pages: 1 -->
<svg width="261pt" height="314pt"
 viewBox="0.00 0.00 261.00 314.00" xmlns="http://www.w3.org/2000/svg" xmlns:xlink="http://www.w3.org/1999/xlink">
<g id="graph0" class="graph" transform="scale(1 1) rotate(0) translate(4 310)">
<title>Ponca::internal::CovariancePlaneDer&lt; DataPoint, _WFunctor, T, Type &gt;</title>
<polygon fill="white" stroke="transparent" points="-4,4 -4,-310 257,-310 257,4 -4,4"/>
<!-- Node1 -->
<g id="node1" class="node">
<title>Node1</title>
<g id="a_node1"><a xlink:title="Internal generic class computing the derivatives of covariance plane fits.">
<polygon fill="#bfbfbf" stroke="black" points="73,-0.5 73,-167.5 253,-167.5 253,-0.5 73,-0.5"/>
<text text-anchor="start" x="81" y="-155.5" font-family="Helvetica,sans-Serif" font-size="10.00">Ponca::internal::Covariance</text>
<text text-anchor="start" x="81" y="-144.5" font-family="Helvetica,sans-Serif" font-size="10.00">PlaneDer&lt; DataPoint, _WFunctor,</text>
<text text-anchor="middle" x="163" y="-133.5" font-family="Helvetica,sans-Serif" font-size="10.00"> T, Type &gt;</text>
<polyline fill="none" stroke="black" points="73,-126.5 253,-126.5 "/>
<text text-anchor="start" x="81" y="-114.5" font-family="Helvetica,sans-Serif" font-size="10.00"># NbDerivatives</text>
<text text-anchor="start" x="81" y="-103.5" font-family="Helvetica,sans-Serif" font-size="10.00"># DerStorageOrder</text>
<polyline fill="none" stroke="black" points="73,-96.5 253,-96.5 "/>
<text text-anchor="start" x="81" y="-84.5" font-family="Helvetica,sans-Serif" font-size="10.00">+ init()</text>
<text text-anchor="start" x="81" y="-73.5" font-family="Helvetica,sans-Serif" font-size="10.00">+ addNeighbor()</text>
<text text-anchor="start" x="81" y="-62.5" font-family="Helvetica,sans-Serif" font-size="10.00">+ finalize()</text>
<text text-anchor="start" x="81" y="-51.5" font-family="Helvetica,sans-Serif" font-size="10.00">+ dPotential()</text>
<text text-anchor="start" x="81" y="-40.5" font-family="Helvetica,sans-Serif" font-size="10.00">+ dNormal()</text>
<text text-anchor="start" x="81" y="-29.5" font-family="Helvetica,sans-Serif" font-size="10.00">+ isScaleDer()</text>
<text text-anchor="start" x="81" y="-18.5" font-family="Helvetica,sans-Serif" font-size="10.00">+ isSpaceDer()</text>
<text text-anchor="start" x="81" y="-7.5" font-family="Helvetica,sans-Serif" font-size="10.00">+ derDimension()</text>
</a>
</g>
</g>
<!-- Node2 -->
<g id="node2" class="node">
<title>Node2</title>
<g id="a_node2"><a xlink:href="classPonca_1_1Concept_1_1FittingExtensionConcept.html" target="_top" xlink:title="Describes how to add features to an existing fitting procedure.">
<polygon fill="white" stroke="black" points="0,-204.5 0,-305.5 196,-305.5 196,-204.5 0,-204.5"/>
<text text-anchor="start" x="8" y="-293.5" font-family="Helvetica,sans-Serif" font-size="10.00">Ponca::Concept::FittingExtension</text>
<text text-anchor="middle" x="98" y="-282.5" font-family="Helvetica,sans-Serif" font-size="10.00">Concept&lt; DataPoint, _WFunctor, T &gt;</text>
<polyline fill="none" stroke="black" points="0,-275.5 196,-275.5 "/>
<text text-anchor="middle" x="98" y="-263.5" font-family="Helvetica,sans-Serif" font-size="10.00"> </text>
<polyline fill="none" stroke="black" points="0,-256.5 196,-256.5 "/>
<text text-anchor="start" x="8" y="-244.5" font-family="Helvetica,sans-Serif" font-size="10.00">+ setWeightFunc()</text>
<text text-anchor="start" x="8" y="-233.5" font-family="Helvetica,sans-Serif" font-size="10.00">+ init()</text>
<text text-anchor="start" x="8" y="-222.5" font-family="Helvetica,sans-Serif" font-size="10.00">+ addNeighbor()</text>
<text text-anchor="start" x="8" y="-211.5" font-family="Helvetica,sans-Serif" font-size="10.00">+ finalize()</text>
</a>
</g>
</g>
<!-- Node2&#45;&gt;Node1 -->
<g id="edge1" class="edge">
<title>Node2&#45;&gt;Node1</title>
<path fill="none" stroke="midnightblue" d="M120.75,-194.85C124.13,-186.07 127.66,-176.88 131.18,-167.72"/>
<polygon fill="none" stroke="midnightblue" points="117.47,-193.62 117.15,-204.21 124.01,-196.13 117.47,-193.62"/>
</g>
<!-- Node3 -->
<g id="node3" class="node">
<title>Node3</title>
<g id="a_node3"><a xlink:title=" ">
<polygon fill="white" stroke="#bfbfbf" points="213.5,-226.5 213.5,-283.5 242.5,-283.5 242.5,-226.5 213.5,-226.5"/>
<text text-anchor="middle" x="228" y="-271.5" font-family="Helvetica,sans-Serif" font-size="10.00">T</text>
<polyline fill="none" stroke="#bfbfbf" points="213.5,-264.5 242.5,-264.5 "/>
<text text-anchor="middle" x="228" y="-252.5" font-family="Helvetica,sans-Serif" font-size="10.00"> </text>
<polyline fill="none" stroke="#bfbfbf" points="213.5,-245.5 242.5,-245.5 "/>
<text text-anchor="middle" x="228" y="-233.5" font-family="Helvetica,sans-Serif" font-size="10.00"> </text>
</a>
</g>
</g>
<!-- Node3&#45;&gt;Node1 -->
<g id="edge2" class="edge">
<title>Node3&#45;&gt;Node1</title>
<path fill="none" stroke="midnightblue" d="M213.71,-216.85C208.1,-202.27 201.43,-184.91 194.79,-167.65"/>
<polygon fill="none" stroke="midnightblue" points="210.56,-218.39 217.41,-226.47 217.09,-215.88 210.56,-218.39"/>
</g>
</g>
</svg>
