<?xml version="1.0" encoding="UTF-8" standalone="no"?>
<!DOCTYPE svg PUBLIC "-//W3C//DTD SVG 1.1//EN"
 "http://www.w3.org/Graphics/SVG/1.1/DTD/svg11.dtd">
<!-- Generated by graphviz version 2.43.0 (0)
 -->
<!-- Title: Ponca::DryFit&lt; DataPoint, _WFunctor, T &gt; Pages: 1 -->
<svg width="198pt" height="270pt"
 viewBox="0.00 0.00 197.50 270.00" xmlns="http://www.w3.org/2000/svg" xmlns:xlink="http://www.w3.org/1999/xlink">
<g id="graph0" class="graph" transform="scale(1 1) rotate(0) translate(4 266)">
<title>Ponca::DryFit&lt; DataPoint, _WFunctor, T &gt;</title>
<!-- Node1 -->
<g id="node1" class="node">
<title>Node1</title>
<g id="a_node1"><a xlink:title="Empty fitting object doing no computation.">
<polygon fill="#bfbfbf" stroke="black" points="46.5,-0.5 46.5,-167.5 189.5,-167.5 189.5,-0.5 46.5,-0.5"/>
<text text-anchor="start" x="54.5" y="-155.5" font-family="Helvetica,sans-Serif" font-size="10.00">Ponca::DryFit&lt; DataPoint,</text>
<text text-anchor="middle" x="118" y="-144.5" font-family="Helvetica,sans-Serif" font-size="10.00"> _WFunctor, T &gt;</text>
<polyline fill="none" stroke="black" points="46.5,-137.5 189.5,-137.5 "/>
<text text-anchor="middle" x="118" y="-125.5" font-family="Helvetica,sans-Serif" font-size="10.00"> </text>
<polyline fill="none" stroke="black" points="46.5,-118.5 189.5,-118.5 "/>
<text text-anchor="start" x="54.5" y="-106.5" font-family="Helvetica,sans-Serif" font-size="10.00">+ dryfit()</text>
<text text-anchor="start" x="54.5" y="-95.5" font-family="Helvetica,sans-Serif" font-size="10.00">+ dryfit()</text>
<text text-anchor="start" x="54.5" y="-84.5" font-family="Helvetica,sans-Serif" font-size="10.00">+ addLocalNeighbor()</text>
<text text-anchor="start" x="54.5" y="-73.5" font-family="Helvetica,sans-Serif" font-size="10.00">+ finalize()</text>
<text text-anchor="start" x="54.5" y="-62.5" font-family="Helvetica,sans-Serif" font-size="10.00">+ setWeightFunc()</text>
<text text-anchor="start" x="54.5" y="-51.5" font-family="Helvetica,sans-Serif" font-size="10.00">+ potential()</text>
<text text-anchor="start" x="54.5" y="-40.5" font-family="Helvetica,sans-Serif" font-size="10.00">+ potential()</text>
<text text-anchor="start" x="54.5" y="-29.5" font-family="Helvetica,sans-Serif" font-size="10.00">+ project()</text>
<text text-anchor="start" x="54.5" y="-18.5" font-family="Helvetica,sans-Serif" font-size="10.00">+ primitiveGradient()</text>
<text text-anchor="start" x="54.5" y="-7.5" font-family="Helvetica,sans-Serif" font-size="10.00">+ primitiveGradient()</text>
</a>
</g>
</g>
<!-- Node2 -->
<g id="node2" class="node">
<title>Node2</title>
<g id="a_node2"><a xlink:title=" ">
<polygon fill="none" stroke="#bfbfbf" points="0,-204.5 0,-261.5 136,-261.5 136,-204.5 0,-204.5"/>
<text text-anchor="middle" x="68" y="-249.5" font-family="Helvetica,sans-Serif" font-size="10.00">FittingProcedureConcept</text>
<polyline fill="none" stroke="#bfbfbf" points="0,-242.5 136,-242.5 "/>
<text text-anchor="middle" x="68" y="-230.5" font-family="Helvetica,sans-Serif" font-size="10.00"> </text>
<polyline fill="none" stroke="#bfbfbf" points="0,-223.5 136,-223.5 "/>
<text text-anchor="middle" x="68" y="-211.5" font-family="Helvetica,sans-Serif" font-size="10.00"> </text>
</a>
</g>
</g>
<!-- Node2&#45;&gt;Node1 -->
<g id="edge1" class="edge">
<title>Node2&#45;&gt;Node1</title>
<path fill="none" stroke="midnightblue" d="M80.71,-194.62C83.55,-186.28 86.67,-177.11 89.86,-167.74"/>
<polygon fill="none" stroke="midnightblue" points="77.31,-193.76 77.4,-204.35 83.94,-196.01 77.31,-193.76"/>
</g>
<!-- Node3 -->
<g id="node3" class="node">
<title>Node3</title>
<g id="a_node3"><a xlink:title=" ">
<polygon fill="none" stroke="#bfbfbf" points="154.5,-204.5 154.5,-261.5 183.5,-261.5 183.5,-204.5 154.5,-204.5"/>
<text text-anchor="middle" x="169" y="-249.5" font-family="Helvetica,sans-Serif" font-size="10.00">T</text>
<polyline fill="none" stroke="#bfbfbf" points="154.5,-242.5 183.5,-242.5 "/>
<text text-anchor="middle" x="169" y="-230.5" font-family="Helvetica,sans-Serif" font-size="10.00"> </text>
<polyline fill="none" stroke="#bfbfbf" points="154.5,-223.5 183.5,-223.5 "/>
<text text-anchor="middle" x="169" y="-211.5" font-family="Helvetica,sans-Serif" font-size="10.00"> </text>
</a>
</g>
</g>
<!-- Node3&#45;&gt;Node1 -->
<g id="edge2" class="edge">
<title>Node3&#45;&gt;Node1</title>
<path fill="none" stroke="midnightblue" d="M156.13,-194.9C153.21,-186.48 149.99,-177.21 146.7,-167.74"/>
<polygon fill="none" stroke="midnightblue" points="152.82,-196.05 159.41,-204.35 159.44,-193.76 152.82,-196.05"/>
</g>
</g>
</svg>
