<?xml version="1.0" encoding="UTF-8" standalone="no"?>
<!DOCTYPE svg PUBLIC "-//W3C//DTD SVG 1.1//EN"
 "http://www.w3.org/Graphics/SVG/1.1/DTD/svg11.dtd">
<!-- Generated by graphviz version 2.43.0 (0)
 -->
<!-- Title: Ponca::KdTreeQuery&lt; Traits &gt; Pages: 1 -->
<!--zoomable 265 -->

<svg id="main" version="1.1" xmlns="http://www.w3.org/2000/svg" xmlns:xlink="http://www.w3.org/1999/xlink" xml:space="preserve" onload="init(evt)">
<style type="text/css"><![CDATA[
.node, .edge {opacity: 0.7;}
.node.selected, .edge.selected {opacity: 1;}
.edge:hover path { stroke: red; }
.edge:hover polygon { stroke: red; fill: red; }
]]></style>

<defs>
  <circle id="rim" cx="0" cy="0" r="7"/>
  <circle id="rim2" cx="0" cy="0" r="3.5"/>
  <g id="zoomPlus">
    <use xlink:href="#rim" fill="#404040"><set attributeName="fill" to="#808080" begin="zoomplus.mouseover" end="zoomplus.mouseout"/></use>
    <path d="M-4,0h8M0,-4v8" fill="none" stroke="white" stroke-width="1.5" pointer-events="none"/>
  </g>
  <g id="zoomMin">
    <use xlink:href="#rim" fill="#404040"><set attributeName="fill" to="#808080" begin="zoomminus.mouseover" end="zoomminus.mouseout"/></use>
    <path d="M-4,0h8" fill="none" stroke="white" stroke-width="1.5" pointer-events="none"/>
  </g>
  <g id="arrowUp" transform="translate(30 24)">
    <use xlink:href="#rim"/>
    <path pointer-events="none" fill="none" stroke="white" stroke-width="1.5" d="M0,-3.0v7 M-2.5,-0.5L0,-3.0L2.5,-0.5"/>
  </g>
  <g id="arrowRight" transform="rotate(90) translate(36 -43)">
    <use xlink:href="#rim"/>
    <path pointer-events="none" fill="none" stroke="white" stroke-width="1.5" d="M0,-3.0v7 M-2.5,-0.5L0,-3.0L2.5,-0.5"/>
  </g>
  <g id="arrowDown" transform="rotate(180) translate(-30 -48)">
    <use xlink:href="#rim"/>
    <path pointer-events="none" fill="none" stroke="white" stroke-width="1.5" d="M0,-3.0v7 M-2.5,-0.5L0,-3.0L2.5,-0.5"/>
  </g>
  <g id="arrowLeft" transform="rotate(270) translate(-36 17)">
    <use xlink:href="#rim"/>
    <path pointer-events="none" fill="none" stroke="white" stroke-width="1.5" d="M0,-3.0v7 M-2.5,-0.5L0,-3.0L2.5,-0.5"/>
  </g>
  <g id="resetDef">
    <use xlink:href="#rim2" fill="#404040"><set attributeName="fill" to="#808080" begin="reset.mouseover" end="reset.mouseout"/></use>
  </g>
</defs>
<script type="application/ecmascript">
var viewWidth = 522;
var viewHeight = 265;
var sectionId = 'dynsection-0';
</script>
<script type="application/ecmascript" xlink:href="svg.min.js"/>
<svg id="graph" class="graph">
<g id="viewport">
<title>Ponca::KdTreeQuery&lt; Traits &gt;</title>
<!-- Node1 -->
<g id="Node000001" class="node">
<title>Node1</title>
<g id="a_Node000001"><a xlink:title=" ">
<polygon fill="#999999" stroke="transparent" points="309,-257 201,-257 201,-152 309,-152 309,-257"/>
<text text-anchor="start" x="206" y="-244.5" font-family="Helvetica,sans-Serif" font-size="10.00">Ponca::KdTreeQuery</text>
<text text-anchor="start" x="230.5" y="-233.5" font-family="Helvetica,sans-Serif" font-size="10.00">&lt; Traits &gt;</text>
<text text-anchor="start" x="206" y="-218.5" font-family="Helvetica,sans-Serif" font-size="10.00">#</text>
<text text-anchor="start" x="220" y="-218.5" font-family="Helvetica,sans-Serif" font-size="10.00">m_kdtree</text>
<text text-anchor="start" x="206" y="-203.5" font-family="Helvetica,sans-Serif" font-size="10.00">#</text>
<text text-anchor="start" x="220" y="-203.5" font-family="Helvetica,sans-Serif" font-size="10.00">m_stack</text>
<text text-anchor="start" x="206" y="-188.5" font-family="Helvetica,sans-Serif" font-size="10.00">+</text>
<text text-anchor="start" x="220" y="-188.5" font-family="Helvetica,sans-Serif" font-size="10.00">KdTreeQuery()</text>
<text text-anchor="start" x="206" y="-173.5" font-family="Helvetica,sans-Serif" font-size="10.00">#</text>
<text text-anchor="start" x="220" y="-173.5" font-family="Helvetica,sans-Serif" font-size="10.00">reset()</text>
<text text-anchor="start" x="206" y="-158.5" font-family="Helvetica,sans-Serif" font-size="10.00">#</text>
<text text-anchor="start" x="220" y="-158.5" font-family="Helvetica,sans-Serif" font-size="10.00">search_internal()</text>
<polygon fill="#666666" stroke="#666666" points="201,-228.5 201,-228.5 309,-228.5 309,-228.5 201,-228.5"/>
<polygon fill="#666666" stroke="#666666" points="201,-198.5 201,-198.5 218,-198.5 218,-198.5 201,-198.5"/>
<polygon fill="#666666" stroke="#666666" points="218,-198.5 218,-198.5 309,-198.5 309,-198.5 218,-198.5"/>
<polygon fill="none" stroke="#666666" points="201,-152 201,-257 309,-257 309,-152 201,-152"/>
</a>
</g>
</g>
<!-- Node2 -->
<g id="Node000002" class="node">
<title>Node2</title>
<g id="a_Node000002"><a xlink:href="classPonca_1_1KdTreeKNearestQueryBase.html" target="_top" xlink:title=" ">
<polygon fill="white" stroke="transparent" points="160,-116 0,-116 0,0 160,0 160,-116"/>
<text text-anchor="start" x="8.5" y="-104" font-family="Helvetica,sans-Serif" font-size="10.00">Ponca::KdTreeKNearestQuery</text>
<text text-anchor="start" x="8.5" y="-93" font-family="Helvetica,sans-Serif" font-size="10.00">Base&lt; Traits, IteratorType,</text>
<text text-anchor="start" x="46.5" y="-82" font-family="Helvetica,sans-Serif" font-size="10.00"> QueryType &gt;</text>
<text text-anchor="start" x="78" y="-67" font-family="Helvetica,sans-Serif" font-size="10.00"> </text>
<text text-anchor="start" x="4" y="-52" font-family="Helvetica,sans-Serif" font-size="10.00">+</text>
<text text-anchor="start" x="17" y="-52" font-family="Helvetica,sans-Serif" font-size="10.00">KdTreeKNearestQueryBase()</text>
<text text-anchor="start" x="4" y="-37" font-family="Helvetica,sans-Serif" font-size="10.00">+</text>
<text text-anchor="start" x="17" y="-37" font-family="Helvetica,sans-Serif" font-size="10.00">begin()</text>
<text text-anchor="start" x="4" y="-22" font-family="Helvetica,sans-Serif" font-size="10.00">+</text>
<text text-anchor="start" x="17" y="-22" font-family="Helvetica,sans-Serif" font-size="10.00">end()</text>
<text text-anchor="start" x="4" y="-7" font-family="Helvetica,sans-Serif" font-size="10.00">#</text>
<text text-anchor="start" x="17" y="-7" font-family="Helvetica,sans-Serif" font-size="10.00">search()</text>
<polygon fill="#bfbfbf" stroke="#bfbfbf" points="0,-77 0,-77 160,-77 160,-77 0,-77"/>
<polygon fill="#bfbfbf" stroke="#bfbfbf" points="0,-62 0,-62 160,-62 160,-62 0,-62"/>
<polygon fill="none" stroke="#bfbfbf" points="0,0 0,-116 160,-116 160,0 0,0"/>
</a>
</g>
</g>
<!-- Node1&#45;&gt;Node2 -->
<g id="edge1_Node000001_Node000002" class="edge">
<title>Node1&#45;&gt;Node2</title>
<g id="a_edge1_Node000001_Node000002"><a xlink:title=" ">
<path fill="none" stroke="#63b8ff" d="M192.85,-152.18C178.72,-140.51 163.63,-128.05 149.22,-116.16"/>
<polygon fill="none" stroke="#63b8ff" points="190.65,-154.9 200.59,-158.57 195.11,-149.51 190.65,-154.9"/>
</a>
</g>
</g>
<!-- Node3 -->
<g id="Node000003" class="node">
<title>Node3</title>
<g id="a_Node000003"><a xlink:href="classPonca_1_1KdTreeNearestQueryBase.html" target="_top" xlink:title=" ">
<polygon fill="white" stroke="transparent" points="332,-116 178,-116 178,0 332,0 332,-116"/>
<text text-anchor="start" x="187" y="-104" font-family="Helvetica,sans-Serif" font-size="10.00">Ponca::KdTreeNearestQuery</text>
<text text-anchor="start" x="187" y="-93" font-family="Helvetica,sans-Serif" font-size="10.00">Base&lt; Traits, IteratorType,</text>
<text text-anchor="start" x="221.5" y="-82" font-family="Helvetica,sans-Serif" font-size="10.00"> QueryType &gt;</text>
<text text-anchor="start" x="253" y="-67" font-family="Helvetica,sans-Serif" font-size="10.00"> </text>
<text text-anchor="start" x="182" y="-52" font-family="Helvetica,sans-Serif" font-size="10.00">+</text>
<text text-anchor="start" x="195" y="-52" font-family="Helvetica,sans-Serif" font-size="10.00">KdTreeNearestQueryBase()</text>
<text text-anchor="start" x="182" y="-37" font-family="Helvetica,sans-Serif" font-size="10.00">+</text>
<text text-anchor="start" x="195" y="-37" font-family="Helvetica,sans-Serif" font-size="10.00">begin()</text>
<text text-anchor="start" x="182" y="-22" font-family="Helvetica,sans-Serif" font-size="10.00">+</text>
<text text-anchor="start" x="195" y="-22" font-family="Helvetica,sans-Serif" font-size="10.00">end()</text>
<text text-anchor="start" x="182" y="-7" font-family="Helvetica,sans-Serif" font-size="10.00">#</text>
<text text-anchor="start" x="195" y="-7" font-family="Helvetica,sans-Serif" font-size="10.00">search()</text>
<polygon fill="#bfbfbf" stroke="#bfbfbf" points="178,-77 178,-77 332,-77 332,-77 178,-77"/>
<polygon fill="#bfbfbf" stroke="#bfbfbf" points="178,-62 178,-62 332,-62 332,-62 178,-62"/>
<polygon fill="none" stroke="#bfbfbf" points="178,0 178,-116 332,-116 332,0 178,0"/>
</a>
</g>
</g>
<!-- Node1&#45;&gt;Node3 -->
<g id="edge2_Node000001_Node000003" class="edge">
<title>Node1&#45;&gt;Node3</title>
<g id="a_edge2_Node000001_Node000003"><a xlink:title=" ">
<path fill="none" stroke="#63b8ff" d="M255,-141.61C255,-133.2 255,-124.6 255,-116.28"/>
<polygon fill="none" stroke="#63b8ff" points="251.5,-141.74 255,-151.74 258.5,-141.74 251.5,-141.74"/>
</a>
</g>
</g>
<!-- Node4 -->
<g id="Node000004" class="node">
<title>Node4</title>
<g id="a_Node000004"><a xlink:href="classPonca_1_1KdTreeRangeQueryBase.html" target="_top" xlink:title=" ">
<polygon fill="white" stroke="transparent" points="513.5,-116 350.5,-116 350.5,0 513.5,0 513.5,-116"/>
<text text-anchor="start" x="356" y="-104" font-family="Helvetica,sans-Serif" font-size="10.00">Ponca::KdTreeRangeQueryBase</text>
<text text-anchor="start" x="356" y="-93" font-family="Helvetica,sans-Serif" font-size="10.00">&lt; Traits, IteratorType,</text>
<text text-anchor="start" x="399" y="-82" font-family="Helvetica,sans-Serif" font-size="10.00"> QueryType &gt;</text>
<text text-anchor="start" x="359" y="-67" font-family="Helvetica,sans-Serif" font-size="10.00">#</text>
<text text-anchor="start" x="376" y="-67" font-family="Helvetica,sans-Serif" font-size="10.00">Iterator</text>
<text text-anchor="start" x="359" y="-52" font-family="Helvetica,sans-Serif" font-size="10.00">+</text>
<text text-anchor="start" x="376" y="-52" font-family="Helvetica,sans-Serif" font-size="10.00">KdTreeRangeQueryBase()</text>
<text text-anchor="start" x="359" y="-37" font-family="Helvetica,sans-Serif" font-size="10.00">+</text>
<text text-anchor="start" x="376" y="-37" font-family="Helvetica,sans-Serif" font-size="10.00">begin()</text>
<text text-anchor="start" x="359" y="-22" font-family="Helvetica,sans-Serif" font-size="10.00">+</text>
<text text-anchor="start" x="376" y="-22" font-family="Helvetica,sans-Serif" font-size="10.00">end()</text>
<text text-anchor="start" x="359" y="-7" font-family="Helvetica,sans-Serif" font-size="10.00">#</text>
<text text-anchor="start" x="376" y="-7" font-family="Helvetica,sans-Serif" font-size="10.00">advance()</text>
<polygon fill="#bfbfbf" stroke="#bfbfbf" points="351,-77 351,-77 514,-77 514,-77 351,-77"/>
<polygon fill="#bfbfbf" stroke="#bfbfbf" points="351,-62 351,-62 374,-62 374,-62 351,-62"/>
<polygon fill="#bfbfbf" stroke="#bfbfbf" points="374,-62 374,-62 514,-62 514,-62 374,-62"/>
<polygon fill="none" stroke="#bfbfbf" points="350.5,0 350.5,-116 513.5,-116 513.5,0 350.5,0"/>
</a>
</g>
</g>
<!-- Node1&#45;&gt;Node4 -->
<g id="edge3_Node000001_Node000004" class="edge">
<title>Node1&#45;&gt;Node4</title>
<g id="a_edge3_Node000001_Node000004"><a xlink:title=" ">
<path fill="none" stroke="#63b8ff" d="M317.01,-152.87C331.53,-141.02 347.09,-128.32 361.93,-116.2"/>
<polygon fill="none" stroke="#63b8ff" points="314.6,-150.32 309.07,-159.36 319.03,-155.75 314.6,-150.32"/>
</a>
</g>
</g>
</g>
</svg>

<g id="navigator" transform="translate(0 0)" fill="#404254">
  <rect fill="#f2f5e9" fill-opacity="0.5" stroke="#606060" stroke-width=".5" x="0" y="0" width="60" height="60"/>
  <use id="zoomplus" xlink:href="#zoomPlus" x="17" y="9" onmousedown="handleZoom(evt,'in')"/>
  <use id="zoomminus" xlink:href="#zoomMin" x="42" y="9" onmousedown="handleZoom(evt,'out')"/>
  <use id="reset" xlink:href="#resetDef" x="30" y="36" onmousedown="handleReset()"/>
   <use id="arrowup" xlink:href="#arrowUp" x="0" y="0" onmousedown="handlePan(0,-1)"/>
  <use id="arrowright" xlink:href="#arrowRight" x="0" y="0" onmousedown="handlePan(1,0)"/>
  <use id="arrowdown" xlink:href="#arrowDown" x="0" y="0" onmousedown="handlePan(0,1)"/>
  <use id="arrowleft" xlink:href="#arrowLeft" x="0" y="0" onmousedown="handlePan(-1,0)"/>
</g>
<svg viewBox="0 0 15 15" width="100%" height="30px" preserveAspectRatio="xMaxYMin meet">
 <g id="arrow_out" transform="scale(0.3 0.3)">
  <a xlink:href="classPonca_1_1KdTreeQuery__inherit__graph_org.svg" target="_base">
   <rect id="button" ry="5" rx="5" y="6" x="6" height="38" width="38"
        fill="#f2f5e9" fill-opacity="0.5" stroke="#606060" stroke-width="1.0"/>
   <path id="arrow"
     d="M 11.500037,31.436501 C 11.940474,20.09759 22.043105,11.32322 32.158766,21.979434 L 37.068811,17.246167 C 37.068811,17.246167 37.088388,32 37.088388,32 L 22.160133,31.978069 C 22.160133,31.978069 26.997745,27.140456 26.997745,27.140456 C 18.528582,18.264221 13.291696,25.230495 11.500037,31.436501 z"
     style="fill:#404040;"/>
  </a>
 </g>
</svg>

<style type='text/css'>
<![CDATA[
[data-mouse-over-selected='false'] { opacity: 0.7; }
[data-mouse-over-selected='true']  { opacity: 1.0; }
]]>
</style>
<script type="application/ecmascript"><![CDATA[
document.addEventListener('DOMContentLoaded', (event) => {
  highlightEdges();
  highlightAdjacentNodes();
});
]]></script>
</svg>
