<?xml version="1.0" encoding="UTF-8" standalone="no"?>
<!DOCTYPE svg PUBLIC "-//W3C//DTD SVG 1.1//EN"
 "http://www.w3.org/Graphics/SVG/1.1/DTD/svg11.dtd">
<!-- Generated by graphviz version 2.43.0 (0)
 -->
<!-- Title: Ponca::KdTreeDenseBase&lt; Traits &gt; Pages: 1 -->
<!--zoomable 789 -->

<svg id="main" version="1.1" xmlns="http://www.w3.org/2000/svg" xmlns:xlink="http://www.w3.org/1999/xlink" xml:space="preserve" onload="init(evt)">
<style type="text/css"><![CDATA[
.node, .edge {opacity: 0.7;}
.node.selected, .edge.selected {opacity: 1;}
.edge:hover path { stroke: red; }
.edge:hover polygon { stroke: red; fill: red; }
]]></style>

<defs>
  <circle id="rim" cx="0" cy="0" r="7"/>
  <circle id="rim2" cx="0" cy="0" r="3.5"/>
  <g id="zoomPlus">
    <use xlink:href="#rim" fill="#404040"><set attributeName="fill" to="#808080" begin="zoomplus.mouseover" end="zoomplus.mouseout"/></use>
    <path d="M-4,0h8M0,-4v8" fill="none" stroke="white" stroke-width="1.5" pointer-events="none"/>
  </g>
  <g id="zoomMin">
    <use xlink:href="#rim" fill="#404040"><set attributeName="fill" to="#808080" begin="zoomminus.mouseover" end="zoomminus.mouseout"/></use>
    <path d="M-4,0h8" fill="none" stroke="white" stroke-width="1.5" pointer-events="none"/>
  </g>
  <g id="arrowUp" transform="translate(30 24)">
    <use xlink:href="#rim"/>
    <path pointer-events="none" fill="none" stroke="white" stroke-width="1.5" d="M0,-3.0v7 M-2.5,-0.5L0,-3.0L2.5,-0.5"/>
  </g>
  <g id="arrowRight" transform="rotate(90) translate(36 -43)">
    <use xlink:href="#rim"/>
    <path pointer-events="none" fill="none" stroke="white" stroke-width="1.5" d="M0,-3.0v7 M-2.5,-0.5L0,-3.0L2.5,-0.5"/>
  </g>
  <g id="arrowDown" transform="rotate(180) translate(-30 -48)">
    <use xlink:href="#rim"/>
    <path pointer-events="none" fill="none" stroke="white" stroke-width="1.5" d="M0,-3.0v7 M-2.5,-0.5L0,-3.0L2.5,-0.5"/>
  </g>
  <g id="arrowLeft" transform="rotate(270) translate(-36 17)">
    <use xlink:href="#rim"/>
    <path pointer-events="none" fill="none" stroke="white" stroke-width="1.5" d="M0,-3.0v7 M-2.5,-0.5L0,-3.0L2.5,-0.5"/>
  </g>
  <g id="resetDef">
    <use xlink:href="#rim2" fill="#404040"><set attributeName="fill" to="#808080" begin="reset.mouseover" end="reset.mouseout"/></use>
  </g>
</defs>
<script type="application/ecmascript">
var viewWidth = 158;
var viewHeight = 789;
var sectionId = 'dynsection-1';
</script>
<script type="application/ecmascript" xlink:href="svg.min.js"/>
<svg id="graph" class="graph">
<g id="viewport">
<title>Ponca::KdTreeDenseBase&lt; Traits &gt;</title>
<!-- Node1 -->
<g id="Node000001" class="node">
<title>Node1</title>
<g id="a_Node000001"><a xlink:title="Customizable base class for dense KdTree datastructure.">
<polygon fill="#999999" stroke="transparent" points="142,-75 8,-75 8,0 142,0 142,-75"/>
<text text-anchor="start" x="13" y="-62.5" font-family="Helvetica,sans-Serif" font-size="10.00">Ponca::KdTreeDenseBase</text>
<text text-anchor="start" x="50.5" y="-51.5" font-family="Helvetica,sans-Serif" font-size="10.00">&lt; Traits &gt;</text>
<text text-anchor="start" x="73" y="-36.5" font-family="Helvetica,sans-Serif" font-size="10.00"> </text>
<text text-anchor="start" x="16" y="-21.5" font-family="Helvetica,sans-Serif" font-size="10.00">+</text>
<text text-anchor="start" x="33" y="-21.5" font-family="Helvetica,sans-Serif" font-size="10.00">KdTreeDenseBase()</text>
<text text-anchor="start" x="16" y="-6.5" font-family="Helvetica,sans-Serif" font-size="10.00">+</text>
<text text-anchor="start" x="33" y="-6.5" font-family="Helvetica,sans-Serif" font-size="10.00">KdTreeDenseBase()</text>
<polygon fill="#666666" stroke="#666666" points="8,-46.5 8,-46.5 142,-46.5 142,-46.5 8,-46.5"/>
<polygon fill="#666666" stroke="#666666" points="8,-31.5 8,-31.5 142,-31.5 142,-31.5 8,-31.5"/>
<polygon fill="none" stroke="#666666" points="8,0 8,-75 142,-75 142,0 8,0"/>
</a>
</g>
</g>
<!-- Node2 -->
<g id="Node000002" class="node">
<title>Node2</title>
<g id="a_Node000002"><a xlink:href="classPonca_1_1KdTreeBase.html" target="_top" xlink:title=" ">
<polygon fill="white" stroke="transparent" points="135.5,-247 14.5,-247 14.5,-112 135.5,-112 135.5,-247"/>
<text text-anchor="start" x="25" y="-234.5" font-family="Helvetica,sans-Serif" font-size="10.00">Ponca::KdTreeBase&lt;</text>
<text text-anchor="start" x="55" y="-223.5" font-family="Helvetica,sans-Serif" font-size="10.00"> Traits &gt;</text>
<text text-anchor="start" x="73.5" y="-208.5" font-family="Helvetica,sans-Serif" font-size="10.00"> </text>
<text text-anchor="start" x="19" y="-193.5" font-family="Helvetica,sans-Serif" font-size="10.00">+</text>
<text text-anchor="start" x="32" y="-193.5" font-family="Helvetica,sans-Serif" font-size="10.00">build()</text>
<text text-anchor="start" x="19" y="-178.5" font-family="Helvetica,sans-Serif" font-size="10.00">+</text>
<text text-anchor="start" x="32" y="-178.5" font-family="Helvetica,sans-Serif" font-size="10.00">build()</text>
<text text-anchor="start" x="19" y="-163.5" font-family="Helvetica,sans-Serif" font-size="10.00">+</text>
<text text-anchor="start" x="32" y="-163.5" font-family="Helvetica,sans-Serif" font-size="10.00">build()</text>
<text text-anchor="start" x="19" y="-148.5" font-family="Helvetica,sans-Serif" font-size="10.00">+</text>
<text text-anchor="start" x="32" y="-148.5" font-family="Helvetica,sans-Serif" font-size="10.00">buildWithSampling()</text>
<text text-anchor="start" x="19" y="-133.5" font-family="Helvetica,sans-Serif" font-size="10.00">#</text>
<text text-anchor="start" x="32" y="-133.5" font-family="Helvetica,sans-Serif" font-size="10.00">buildWithSampling()</text>
<text text-anchor="start" x="19" y="-118.5" font-family="Helvetica,sans-Serif" font-size="10.00">#</text>
<text text-anchor="start" x="32" y="-118.5" font-family="Helvetica,sans-Serif" font-size="10.00">buildWithSampling()</text>
<polygon fill="#666666" stroke="#666666" points="15,-218.5 15,-218.5 136,-218.5 136,-218.5 15,-218.5"/>
<polygon fill="#666666" stroke="#666666" points="15,-203.5 15,-203.5 136,-203.5 136,-203.5 15,-203.5"/>
<polygon fill="none" stroke="#666666" points="14.5,-112 14.5,-247 135.5,-247 135.5,-112 14.5,-112"/>
</a>
</g>
</g>
<!-- Node2&#45;&gt;Node1 -->
<g id="edge1_Node000001_Node000002" class="edge">
<title>Node2&#45;&gt;Node1</title>
<g id="a_edge1_Node000001_Node000002"><a xlink:title=" ">
<path fill="none" stroke="#63b8ff" d="M75,-101.5C75,-92.42 75,-83.5 75,-75.36"/>
<polygon fill="none" stroke="#63b8ff" points="71.5,-101.78 75,-111.78 78.5,-101.78 71.5,-101.78"/>
</a>
</g>
</g>
<!-- Node3 -->
<g id="Node000003" class="node">
<title>Node3</title>
<g id="a_Node000003"><a xlink:href="classPonca_1_1StaticKdTreeBase.html" target="_top" xlink:title="Customizable static base class for KdTree datastructure implementations.">
<polygon fill="white" stroke="transparent" points="150,-584 0,-584 0,-284 150,-284 150,-584"/>
<text text-anchor="start" x="14.5" y="-572" font-family="Helvetica,sans-Serif" font-size="10.00">Ponca::StaticKdTreeBase</text>
<text text-anchor="start" x="50.5" y="-561" font-family="Helvetica,sans-Serif" font-size="10.00">&lt; Traits &gt;</text>
<text text-anchor="start" x="4" y="-546" font-family="Helvetica,sans-Serif" font-size="10.00">+</text>
<text text-anchor="start" x="17" y="-546" font-family="Helvetica,sans-Serif" font-size="10.00">MAX_NODE_COUNT</text>
<text text-anchor="start" x="4" y="-531" font-family="Helvetica,sans-Serif" font-size="10.00">+</text>
<text text-anchor="start" x="17" y="-531" font-family="Helvetica,sans-Serif" font-size="10.00">MAX_POINT_COUNT</text>
<text text-anchor="start" x="4" y="-516" font-family="Helvetica,sans-Serif" font-size="10.00">+</text>
<text text-anchor="start" x="17" y="-516" font-family="Helvetica,sans-Serif" font-size="10.00">MAX_DEPTH</text>
<text text-anchor="start" x="4" y="-501" font-family="Helvetica,sans-Serif" font-size="10.00">+</text>
<text text-anchor="start" x="17" y="-501" font-family="Helvetica,sans-Serif" font-size="10.00">SUPPORTS_SUBSAMPLING</text>
<text text-anchor="start" x="4" y="-486" font-family="Helvetica,sans-Serif" font-size="10.00">#</text>
<text text-anchor="start" x="17" y="-486" font-family="Helvetica,sans-Serif" font-size="10.00">m_min_cell_size</text>
<text text-anchor="start" x="4" y="-471" font-family="Helvetica,sans-Serif" font-size="10.00">#</text>
<text text-anchor="start" x="17" y="-471" font-family="Helvetica,sans-Serif" font-size="10.00">m_leaf_count</text>
<text text-anchor="start" x="4" y="-456" font-family="Helvetica,sans-Serif" font-size="10.00">+</text>
<text text-anchor="start" x="17" y="-456" font-family="Helvetica,sans-Serif" font-size="10.00">StaticKdTreeBase()</text>
<text text-anchor="start" x="4" y="-441" font-family="Helvetica,sans-Serif" font-size="10.00">+</text>
<text text-anchor="start" x="17" y="-441" font-family="Helvetica,sans-Serif" font-size="10.00">nodeCount()</text>
<text text-anchor="start" x="4" y="-426" font-family="Helvetica,sans-Serif" font-size="10.00">+</text>
<text text-anchor="start" x="17" y="-426" font-family="Helvetica,sans-Serif" font-size="10.00">sampleCount()</text>
<text text-anchor="start" x="4" y="-411" font-family="Helvetica,sans-Serif" font-size="10.00">+</text>
<text text-anchor="start" x="17" y="-411" font-family="Helvetica,sans-Serif" font-size="10.00">pointCount()</text>
<text text-anchor="start" x="4" y="-396" font-family="Helvetica,sans-Serif" font-size="10.00">+</text>
<text text-anchor="start" x="17" y="-396" font-family="Helvetica,sans-Serif" font-size="10.00">leafCount()</text>
<text text-anchor="start" x="4" y="-381" font-family="Helvetica,sans-Serif" font-size="10.00">+</text>
<text text-anchor="start" x="17" y="-381" font-family="Helvetica,sans-Serif" font-size="10.00">points()</text>
<text text-anchor="start" x="4" y="-366" font-family="Helvetica,sans-Serif" font-size="10.00">+</text>
<text text-anchor="start" x="17" y="-366" font-family="Helvetica,sans-Serif" font-size="10.00">points()</text>
<text text-anchor="start" x="4" y="-351" font-family="Helvetica,sans-Serif" font-size="10.00">+</text>
<text text-anchor="start" x="17" y="-351" font-family="Helvetica,sans-Serif" font-size="10.00">nodes()</text>
<text text-anchor="start" x="4" y="-336" font-family="Helvetica,sans-Serif" font-size="10.00">+</text>
<text text-anchor="start" x="17" y="-336" font-family="Helvetica,sans-Serif" font-size="10.00">samples()</text>
<text text-anchor="start" x="4" y="-321" font-family="Helvetica,sans-Serif" font-size="10.00">+</text>
<text text-anchor="start" x="17" y="-321" font-family="Helvetica,sans-Serif" font-size="10.00">buffers()</text>
<text text-anchor="start" x="17" y="-306" font-family="Helvetica,sans-Serif" font-size="10.00">and 19 more...</text>
<text text-anchor="start" x="4" y="-291" font-family="Helvetica,sans-Serif" font-size="10.00">#</text>
<text text-anchor="start" x="17" y="-291" font-family="Helvetica,sans-Serif" font-size="10.00">StaticKdTreeBase()</text>
<polygon fill="#666666" stroke="#666666" points="0,-556 0,-556 150,-556 150,-556 0,-556"/>
<polygon fill="#666666" stroke="#666666" points="0,-466 0,-466 15,-466 15,-466 0,-466"/>
<polygon fill="#666666" stroke="#666666" points="15,-466 15,-466 150,-466 150,-466 15,-466"/>
<polygon fill="none" stroke="#666666" points="0,-284 0,-584 150,-584 150,-284 0,-284"/>
</a>
</g>
</g>
<!-- Node3&#45;&gt;Node2 -->
<g id="edge2_Node000002_Node000003" class="edge">
<title>Node3&#45;&gt;Node2</title>
<g id="a_edge2_Node000002_Node000003"><a xlink:title=" ">
<path fill="none" stroke="#63b8ff" d="M75,-273.8C75,-264.54 75,-255.54 75,-247.02"/>
<polygon fill="none" stroke="#63b8ff" points="71.5,-273.93 75,-283.93 78.5,-273.93 71.5,-273.93"/>
</a>
</g>
</g>
<!-- Node4 -->
<g id="Node000004" class="node">
<title>Node4</title>
<g id="a_Node000004"><a xlink:href="structPonca_1_1StaticKdTreeBase_1_1Buffers.html" target="_top" xlink:title="Internal structure storing all the buffers used by the KdTree.">
<polygon fill="white" stroke="transparent" points="140.5,-781 9.5,-781 9.5,-631 140.5,-631 140.5,-781"/>
<text text-anchor="start" x="15" y="-769" font-family="Helvetica,sans-Serif" font-size="10.00">Ponca::StaticKdTreeBase</text>
<text text-anchor="start" x="30.5" y="-758" font-family="Helvetica,sans-Serif" font-size="10.00">&lt; Traits &gt;::Buffers</text>
<text text-anchor="start" x="26.5" y="-743" font-family="Helvetica,sans-Serif" font-size="10.00">+</text>
<text text-anchor="start" x="52" y="-743" font-family="Helvetica,sans-Serif" font-size="10.00">points</text>
<text text-anchor="start" x="26.5" y="-728" font-family="Helvetica,sans-Serif" font-size="10.00">+</text>
<text text-anchor="start" x="52" y="-728" font-family="Helvetica,sans-Serif" font-size="10.00">nodes</text>
<text text-anchor="start" x="26.5" y="-713" font-family="Helvetica,sans-Serif" font-size="10.00">+</text>
<text text-anchor="start" x="52" y="-713" font-family="Helvetica,sans-Serif" font-size="10.00">indices</text>
<text text-anchor="start" x="26.5" y="-698" font-family="Helvetica,sans-Serif" font-size="10.00">+</text>
<text text-anchor="start" x="52" y="-698" font-family="Helvetica,sans-Serif" font-size="10.00">points_size</text>
<text text-anchor="start" x="26.5" y="-683" font-family="Helvetica,sans-Serif" font-size="10.00">+</text>
<text text-anchor="start" x="52" y="-683" font-family="Helvetica,sans-Serif" font-size="10.00">nodes_size</text>
<text text-anchor="start" x="26.5" y="-668" font-family="Helvetica,sans-Serif" font-size="10.00">+</text>
<text text-anchor="start" x="52" y="-668" font-family="Helvetica,sans-Serif" font-size="10.00">indices_size</text>
<text text-anchor="start" x="26.5" y="-653" font-family="Helvetica,sans-Serif" font-size="10.00">+</text>
<text text-anchor="start" x="52" y="-653" font-family="Helvetica,sans-Serif" font-size="10.00">Buffers()</text>
<text text-anchor="start" x="26.5" y="-638" font-family="Helvetica,sans-Serif" font-size="10.00">+</text>
<text text-anchor="start" x="52" y="-638" font-family="Helvetica,sans-Serif" font-size="10.00">Buffers()</text>
<polygon fill="#666666" stroke="#666666" points="10,-753 10,-753 141,-753 141,-753 10,-753"/>
<polygon fill="#666666" stroke="#666666" points="10,-663 10,-663 50,-663 50,-663 10,-663"/>
<polygon fill="#666666" stroke="#666666" points="50,-663 50,-663 141,-663 141,-663 50,-663"/>
<polygon fill="none" stroke="#666666" points="9.5,-631 9.5,-781 140.5,-781 140.5,-631 9.5,-631"/>
</a>
</g>
</g>
<!-- Node4&#45;&gt;Node3 -->
<g id="edge3_Node000003_Node000004" class="edge">
<title>Node4&#45;&gt;Node3</title>
<g id="a_edge3_Node000003_Node000004"><a xlink:title=" ">
<path fill="none" stroke="#63b8ff" d="M75,-630.86C75,-619.86 75,-608.17 75,-596.19"/>
<polygon fill="none" stroke="#63b8ff" points="75,-596.14 71,-590.14 75,-584.14 79,-590.14 75,-596.14"/>
</a>
</g>
<text text-anchor="middle" x="99" y="-605" font-family="Helvetica,sans-Serif" font-size="10.00" fill="grey"> #m_bufs</text>
</g>
</g>
</svg>

<g id="navigator" transform="translate(0 0)" fill="#404254">
  <rect fill="#f2f5e9" fill-opacity="0.5" stroke="#606060" stroke-width=".5" x="0" y="0" width="60" height="60"/>
  <use id="zoomplus" xlink:href="#zoomPlus" x="17" y="9" onmousedown="handleZoom(evt,'in')"/>
  <use id="zoomminus" xlink:href="#zoomMin" x="42" y="9" onmousedown="handleZoom(evt,'out')"/>
  <use id="reset" xlink:href="#resetDef" x="30" y="36" onmousedown="handleReset()"/>
   <use id="arrowup" xlink:href="#arrowUp" x="0" y="0" onmousedown="handlePan(0,-1)"/>
  <use id="arrowright" xlink:href="#arrowRight" x="0" y="0" onmousedown="handlePan(1,0)"/>
  <use id="arrowdown" xlink:href="#arrowDown" x="0" y="0" onmousedown="handlePan(0,1)"/>
  <use id="arrowleft" xlink:href="#arrowLeft" x="0" y="0" onmousedown="handlePan(-1,0)"/>
</g>
<svg viewBox="0 0 15 15" width="100%" height="30px" preserveAspectRatio="xMaxYMin meet">
 <g id="arrow_out" transform="scale(0.3 0.3)">
  <a xlink:href="classPonca_1_1KdTreeDenseBase__coll__graph_org.svg" target="_base">
   <rect id="button" ry="5" rx="5" y="6" x="6" height="38" width="38"
        fill="#f2f5e9" fill-opacity="0.5" stroke="#606060" stroke-width="1.0"/>
   <path id="arrow"
     d="M 11.500037,31.436501 C 11.940474,20.09759 22.043105,11.32322 32.158766,21.979434 L 37.068811,17.246167 C 37.068811,17.246167 37.088388,32 37.088388,32 L 22.160133,31.978069 C 22.160133,31.978069 26.997745,27.140456 26.997745,27.140456 C 18.528582,18.264221 13.291696,25.230495 11.500037,31.436501 z"
     style="fill:#404040;"/>
  </a>
 </g>
</svg>

<style type='text/css'>
<![CDATA[
[data-mouse-over-selected='false'] { opacity: 0.7; }
[data-mouse-over-selected='true']  { opacity: 1.0; }
]]>
</style>
<script type="application/ecmascript"><![CDATA[
document.addEventListener('DOMContentLoaded', (event) => {
  highlightEdges();
  highlightAdjacentNodes();
});
]]></script>
</svg>
