<?xml version="1.0" encoding="UTF-8" standalone="no"?>
<!DOCTYPE svg PUBLIC "-//W3C//DTD SVG 1.1//EN"
 "http://www.w3.org/Graphics/SVG/1.1/DTD/svg11.dtd">
<!-- Generated by graphviz version 2.43.0 (0)
 -->
<!-- Title: Ponca::BasketDiff&lt; BasketType, Type, Ext0, Exts &gt; Pages: 1 -->
<svg width="494pt" height="714pt"
 viewBox="0.00 0.00 494.00 714.00" xmlns="http://www.w3.org/2000/svg" xmlns:xlink="http://www.w3.org/1999/xlink">
<g id="graph0" class="graph" transform="scale(1 1) rotate(0) translate(4 710)">
<title>Ponca::BasketDiff&lt; BasketType, Type, Ext0, Exts &gt;</title>
<!-- Node1 -->
<g id="Node000001" class="node">
<title>Node1</title>
<g id="a_Node000001"><a xlink:title="Aggregator class used to declare specialized structures with derivatives computations,...">
<polygon fill="#999999" stroke="transparent" points="282,-71 154,-71 154,0 282,0 282,-71"/>
<text text-anchor="start" x="159" y="-58.5" font-family="Helvetica,sans-Serif" font-size="10.00">Ponca::BasketDiff&lt;</text>
<text text-anchor="start" x="159" y="-47.5" font-family="Helvetica,sans-Serif" font-size="10.00"> BasketType, Type, Ext0,</text>
<text text-anchor="start" x="200" y="-36.5" font-family="Helvetica,sans-Serif" font-size="10.00"> Exts &gt;</text>
<text text-anchor="start" x="216" y="-21.5" font-family="Helvetica,sans-Serif" font-size="10.00"> </text>
<text text-anchor="start" x="167" y="-6.5" font-family="Helvetica,sans-Serif" font-size="10.00">+</text>
<text text-anchor="start" x="189" y="-6.5" font-family="Helvetica,sans-Serif" font-size="10.00">addNeighbor()</text>
<polygon fill="#666666" stroke="#666666" points="154,-31.5 154,-31.5 282,-31.5 282,-31.5 154,-31.5"/>
<polygon fill="#666666" stroke="#666666" points="154,-16.5 154,-16.5 282,-16.5 282,-16.5 154,-16.5"/>
<polygon fill="none" stroke="#666666" points="154,0 154,-71 282,-71 282,0 154,0"/>
</a>
</g>
</g>
<!-- Node2 -->
<g id="Node000002" class="node">
<title>Node2</title>
<g id="a_Node000002"><a xlink:href="structPonca_1_1BasketComputeObject.html" target="_top" xlink:title=" ">
<polygon fill="white" stroke="transparent" points="311.5,-216 124.5,-216 124.5,-108 311.5,-108 311.5,-216"/>
<text text-anchor="start" x="130" y="-204" font-family="Helvetica,sans-Serif" font-size="10.00">Ponca::BasketComputeObject</text>
<text text-anchor="start" x="130" y="-193" font-family="Helvetica,sans-Serif" font-size="10.00">&lt; BasketDiff&lt; BasketType,</text>
<text text-anchor="start" x="130" y="-182" font-family="Helvetica,sans-Serif" font-size="10.00"> Type, Ext0, Exts... &gt;, internal</text>
<text text-anchor="start" x="130" y="-171" font-family="Helvetica,sans-Serif" font-size="10.00">::BasketDiffAggregate&lt; BasketType,</text>
<text text-anchor="start" x="148.5" y="-160" font-family="Helvetica,sans-Serif" font-size="10.00"> Type, Ext0, Exts... &gt;::type &gt;</text>
<text text-anchor="start" x="216.5" y="-145" font-family="Helvetica,sans-Serif" font-size="10.00"> </text>
<text text-anchor="start" x="148.5" y="-130" font-family="Helvetica,sans-Serif" font-size="10.00">+</text>
<text text-anchor="start" x="181" y="-130" font-family="Helvetica,sans-Serif" font-size="10.00">compute()</text>
<text text-anchor="start" x="148.5" y="-115" font-family="Helvetica,sans-Serif" font-size="10.00">+</text>
<text text-anchor="start" x="181" y="-115" font-family="Helvetica,sans-Serif" font-size="10.00">computeWithIds()</text>
<polygon fill="#666666" stroke="#666666" points="125,-155 125,-155 312,-155 312,-155 125,-155"/>
<polygon fill="#666666" stroke="#666666" points="125,-140 125,-140 312,-140 312,-140 125,-140"/>
<polygon fill="none" stroke="#666666" points="124.5,-108 124.5,-216 311.5,-216 311.5,-108 124.5,-108"/>
</a>
</g>
</g>
<!-- Node2&#45;&gt;Node1 -->
<g id="edge1_Node000001_Node000002" class="edge">
<title>Node2&#45;&gt;Node1</title>
<g id="a_edge1_Node000001_Node000002"><a xlink:title=" ">
<path fill="none" stroke="#63b8ff" d="M218,-97.58C218,-88.46 218,-79.39 218,-71.12"/>
<polygon fill="none" stroke="#63b8ff" points="214.5,-97.84 218,-107.84 221.5,-97.84 214.5,-97.84"/>
</a>
</g>
</g>
<!-- Node3 -->
<g id="Node000003" class="node">
<title>Node3</title>
<g id="a_Node000003"><a xlink:href="structPonca_1_1ComputeObject.html" target="_top" xlink:title="ComputeObject is a virtual object that represents an algorithm which can be used with the compute fun...">
<polygon fill="white" stroke="transparent" points="122,-412 0,-412 0,-307 122,-307 122,-412"/>
<text text-anchor="start" x="5" y="-399.5" font-family="Helvetica,sans-Serif" font-size="10.00">Ponca::ComputeObject</text>
<text text-anchor="start" x="30.5" y="-388.5" font-family="Helvetica,sans-Serif" font-size="10.00">&lt; Derived &gt;</text>
<text text-anchor="start" x="59" y="-373.5" font-family="Helvetica,sans-Serif" font-size="10.00"> </text>
<text text-anchor="start" x="7" y="-358.5" font-family="Helvetica,sans-Serif" font-size="10.00">+</text>
<text text-anchor="start" x="23" y="-358.5" font-family="Helvetica,sans-Serif" font-size="10.00">compute()</text>
<text text-anchor="start" x="7" y="-343.5" font-family="Helvetica,sans-Serif" font-size="10.00">+</text>
<text text-anchor="start" x="23" y="-343.5" font-family="Helvetica,sans-Serif" font-size="10.00">compute()</text>
<text text-anchor="start" x="7" y="-328.5" font-family="Helvetica,sans-Serif" font-size="10.00">+</text>
<text text-anchor="start" x="23" y="-328.5" font-family="Helvetica,sans-Serif" font-size="10.00">computeWithIds()</text>
<text text-anchor="start" x="7" y="-313.5" font-family="Helvetica,sans-Serif" font-size="10.00">#</text>
<text text-anchor="start" x="23" y="-313.5" font-family="Helvetica,sans-Serif" font-size="10.00">derived()</text>
<polygon fill="#666666" stroke="#666666" points="0,-383.5 0,-383.5 122,-383.5 122,-383.5 0,-383.5"/>
<polygon fill="#666666" stroke="#666666" points="0,-368.5 0,-368.5 122,-368.5 122,-368.5 0,-368.5"/>
<polygon fill="none" stroke="#666666" points="0,-307 0,-412 122,-412 122,-307 0,-307"/>
</a>
</g>
</g>
<!-- Node3&#45;&gt;Node2 -->
<g id="edge2_Node000002_Node000003" class="edge">
<title>Node3&#45;&gt;Node2</title>
<g id="a_edge2_Node000002_Node000003"><a xlink:title=" ">
<path fill="none" stroke="#63b8ff" d="M108.9,-298.86C130.04,-272.53 154.7,-241.83 175.22,-216.28"/>
<polygon fill="none" stroke="#63b8ff" points="105.99,-296.89 102.46,-306.88 111.45,-301.27 105.99,-296.89"/>
</a>
</g>
</g>
<!-- Node4 -->
<g id="Node000004" class="node">
<title>Node4</title>
<g id="a_Node000004"><a xlink:title=" ">
<polygon fill="white" stroke="transparent" points="295.5,-395 140.5,-395 140.5,-324 295.5,-324 295.5,-395"/>
<text text-anchor="start" x="146" y="-382.5" font-family="Helvetica,sans-Serif" font-size="10.00">internal::BasketDiffAggregate</text>
<text text-anchor="start" x="146" y="-371.5" font-family="Helvetica,sans-Serif" font-size="10.00">&lt; BasketType, Type, Ext0,</text>
<text text-anchor="start" x="182" y="-360.5" font-family="Helvetica,sans-Serif" font-size="10.00"> Exts... &gt;::type</text>
<text text-anchor="start" x="216.5" y="-345.5" font-family="Helvetica,sans-Serif" font-size="10.00"> </text>
<text text-anchor="start" x="216.5" y="-330.5" font-family="Helvetica,sans-Serif" font-size="10.00"> </text>
<polygon fill="#bfbfbf" stroke="#bfbfbf" points="141,-355.5 141,-355.5 296,-355.5 296,-355.5 141,-355.5"/>
<polygon fill="#bfbfbf" stroke="#bfbfbf" points="141,-340.5 141,-340.5 296,-340.5 296,-340.5 141,-340.5"/>
<polygon fill="none" stroke="#bfbfbf" points="140.5,-324 140.5,-395 295.5,-395 295.5,-324 140.5,-324"/>
</a>
</g>
</g>
<!-- Node4&#45;&gt;Node2 -->
<g id="edge3_Node000002_Node000004" class="edge">
<title>Node4&#45;&gt;Node2</title>
<g id="a_edge3_Node000002_Node000004"><a xlink:title=" ">
<path fill="none" stroke="#63b8ff" d="M218,-313.75C218,-284.76 218,-246.86 218,-216.31"/>
<polygon fill="none" stroke="#63b8ff" points="214.5,-314 218,-324 221.5,-314 214.5,-314"/>
</a>
</g>
</g>
<!-- Node5 -->
<g id="Node000005" class="node">
<title>Node5</title>
<g id="a_Node000005"><a xlink:href="structPonca_1_1BasketComputeObject.html" target="_top" xlink:title="Base ComputeObject for the Basket classes.">
<polygon fill="white" stroke="transparent" points="468.5,-397 313.5,-397 313.5,-322 468.5,-322 468.5,-397"/>
<text text-anchor="start" x="319" y="-384.5" font-family="Helvetica,sans-Serif" font-size="10.00">Ponca::BasketComputeObject</text>
<text text-anchor="start" x="340.5" y="-373.5" font-family="Helvetica,sans-Serif" font-size="10.00">&lt; _Derived, _Base &gt;</text>
<text text-anchor="start" x="389.5" y="-358.5" font-family="Helvetica,sans-Serif" font-size="10.00"> </text>
<text text-anchor="start" x="329.5" y="-343.5" font-family="Helvetica,sans-Serif" font-size="10.00">+</text>
<text text-anchor="start" x="354" y="-343.5" font-family="Helvetica,sans-Serif" font-size="10.00">compute()</text>
<text text-anchor="start" x="329.5" y="-328.5" font-family="Helvetica,sans-Serif" font-size="10.00">+</text>
<text text-anchor="start" x="354" y="-328.5" font-family="Helvetica,sans-Serif" font-size="10.00">computeWithIds()</text>
<polygon fill="#666666" stroke="#666666" points="314,-368.5 314,-368.5 469,-368.5 469,-368.5 314,-368.5"/>
<polygon fill="#666666" stroke="#666666" points="314,-353.5 314,-353.5 469,-353.5 469,-353.5 314,-353.5"/>
<polygon fill="none" stroke="#666666" points="313.5,-322 313.5,-397 468.5,-397 468.5,-322 313.5,-322"/>
</a>
</g>
</g>
<!-- Node5&#45;&gt;Node2 -->
<g id="edge4_Node000002_Node000005" class="edge">
<title>Node5&#45;&gt;Node2</title>
<g id="a_edge4_Node000002_Node000005"><a xlink:title=" ">
<path fill="none" stroke="orange" d="M351.77,-314.16C326.04,-285.09 292.27,-246.93 265.09,-216.22"/>
<polygon fill="orange" stroke="orange" points="349.21,-316.56 358.46,-321.73 354.45,-311.92 349.21,-316.56"/>
</a>
</g>
<text text-anchor="start" x="326" y="-281" font-family="Helvetica,sans-Serif" font-size="10.00" fill="grey"> &lt; BasketDiff&lt; BasketType,</text>
<text text-anchor="start" x="326" y="-270" font-family="Helvetica,sans-Serif" font-size="10.00" fill="grey"> Type, Ext0, Exts... &gt;,</text>
<text text-anchor="start" x="326" y="-259" font-family="Helvetica,sans-Serif" font-size="10.00" fill="grey"> internal::BasketDiffAggregate</text>
<text text-anchor="start" x="326" y="-248" font-family="Helvetica,sans-Serif" font-size="10.00" fill="grey">&lt; BasketType, Type, Ext0, Exts...</text>
<text text-anchor="middle" x="406" y="-237" font-family="Helvetica,sans-Serif" font-size="10.00" fill="grey"> &gt;::type &gt;</text>
</g>
<!-- Node6 -->
<g id="Node000006" class="node">
<title>Node6</title>
<g id="a_Node000006"><a xlink:href="structPonca_1_1ComputeObject.html" target="_top" xlink:title=" ">
<polygon fill="white" stroke="transparent" points="384,-554 262,-554 262,-449 384,-449 384,-554"/>
<text text-anchor="start" x="267" y="-541.5" font-family="Helvetica,sans-Serif" font-size="10.00">Ponca::ComputeObject</text>
<text text-anchor="start" x="289.5" y="-530.5" font-family="Helvetica,sans-Serif" font-size="10.00">&lt; _Derived &gt;</text>
<text text-anchor="start" x="321" y="-515.5" font-family="Helvetica,sans-Serif" font-size="10.00"> </text>
<text text-anchor="start" x="269" y="-500.5" font-family="Helvetica,sans-Serif" font-size="10.00">+</text>
<text text-anchor="start" x="285" y="-500.5" font-family="Helvetica,sans-Serif" font-size="10.00">compute()</text>
<text text-anchor="start" x="269" y="-485.5" font-family="Helvetica,sans-Serif" font-size="10.00">+</text>
<text text-anchor="start" x="285" y="-485.5" font-family="Helvetica,sans-Serif" font-size="10.00">compute()</text>
<text text-anchor="start" x="269" y="-470.5" font-family="Helvetica,sans-Serif" font-size="10.00">+</text>
<text text-anchor="start" x="285" y="-470.5" font-family="Helvetica,sans-Serif" font-size="10.00">computeWithIds()</text>
<text text-anchor="start" x="269" y="-455.5" font-family="Helvetica,sans-Serif" font-size="10.00">#</text>
<text text-anchor="start" x="285" y="-455.5" font-family="Helvetica,sans-Serif" font-size="10.00">derived()</text>
<polygon fill="#666666" stroke="#666666" points="262,-525.5 262,-525.5 384,-525.5 384,-525.5 262,-525.5"/>
<polygon fill="#666666" stroke="#666666" points="262,-510.5 262,-510.5 384,-510.5 384,-510.5 262,-510.5"/>
<polygon fill="none" stroke="#666666" points="262,-449 262,-554 384,-554 384,-449 262,-449"/>
</a>
</g>
</g>
<!-- Node6&#45;&gt;Node5 -->
<g id="edge5_Node000005_Node000006" class="edge">
<title>Node6&#45;&gt;Node5</title>
<g id="a_edge5_Node000005_Node000006"><a xlink:title=" ">
<path fill="none" stroke="#63b8ff" d="M352.68,-439.4C359.67,-425 366.91,-410.09 373.19,-397.16"/>
<polygon fill="none" stroke="#63b8ff" points="349.35,-438.24 348.13,-448.77 355.64,-441.3 349.35,-438.24"/>
</a>
</g>
</g>
<!-- Node7 -->
<g id="Node000007" class="node">
<title>Node7</title>
<g id="a_Node000007"><a xlink:href="structPonca_1_1ComputeObject.html" target="_top" xlink:title="ComputeObject is a virtual object that represents an algorithm which can be used with the compute fun...">
<polygon fill="white" stroke="transparent" points="384,-706 262,-706 262,-601 384,-601 384,-706"/>
<text text-anchor="start" x="267" y="-693.5" font-family="Helvetica,sans-Serif" font-size="10.00">Ponca::ComputeObject</text>
<text text-anchor="start" x="292.5" y="-682.5" font-family="Helvetica,sans-Serif" font-size="10.00">&lt; Derived &gt;</text>
<text text-anchor="start" x="321" y="-667.5" font-family="Helvetica,sans-Serif" font-size="10.00"> </text>
<text text-anchor="start" x="269" y="-652.5" font-family="Helvetica,sans-Serif" font-size="10.00">+</text>
<text text-anchor="start" x="285" y="-652.5" font-family="Helvetica,sans-Serif" font-size="10.00">compute()</text>
<text text-anchor="start" x="269" y="-637.5" font-family="Helvetica,sans-Serif" font-size="10.00">+</text>
<text text-anchor="start" x="285" y="-637.5" font-family="Helvetica,sans-Serif" font-size="10.00">compute()</text>
<text text-anchor="start" x="269" y="-622.5" font-family="Helvetica,sans-Serif" font-size="10.00">+</text>
<text text-anchor="start" x="285" y="-622.5" font-family="Helvetica,sans-Serif" font-size="10.00">computeWithIds()</text>
<text text-anchor="start" x="269" y="-607.5" font-family="Helvetica,sans-Serif" font-size="10.00">#</text>
<text text-anchor="start" x="285" y="-607.5" font-family="Helvetica,sans-Serif" font-size="10.00">derived()</text>
<polygon fill="#666666" stroke="#666666" points="262,-677.5 262,-677.5 384,-677.5 384,-677.5 262,-677.5"/>
<polygon fill="#666666" stroke="#666666" points="262,-662.5 262,-662.5 384,-662.5 384,-662.5 262,-662.5"/>
<polygon fill="none" stroke="#666666" points="262,-601 262,-706 384,-706 384,-601 262,-601"/>
</a>
</g>
</g>
<!-- Node7&#45;&gt;Node6 -->
<g id="edge6_Node000006_Node000007" class="edge">
<title>Node7&#45;&gt;Node6</title>
<g id="a_edge6_Node000006_Node000007"><a xlink:title=" ">
<path fill="none" stroke="orange" d="M323,-590.81C323,-578.65 323,-566.01 323,-554.22"/>
<polygon fill="orange" stroke="orange" points="319.5,-590.88 323,-600.88 326.5,-590.88 319.5,-590.88"/>
</a>
</g>
<text text-anchor="middle" x="358" y="-575" font-family="Helvetica,sans-Serif" font-size="10.00" fill="grey"> &lt; _Derived &gt;</text>
</g>
<!-- Node8 -->
<g id="Node000008" class="node">
<title>Node8</title>
<g id="a_Node000008"><a xlink:title=" ">
<polygon fill="white" stroke="transparent" points="442,-526 402,-526 402,-477 442,-477 442,-526"/>
<text text-anchor="start" x="407" y="-513.5" font-family="Helvetica,sans-Serif" font-size="10.00">_Base</text>
<text text-anchor="start" x="420" y="-498.5" font-family="Helvetica,sans-Serif" font-size="10.00"> </text>
<text text-anchor="start" x="420" y="-483.5" font-family="Helvetica,sans-Serif" font-size="10.00"> </text>
<polygon fill="#bfbfbf" stroke="#bfbfbf" points="402,-508.5 402,-508.5 442,-508.5 442,-508.5 402,-508.5"/>
<polygon fill="#bfbfbf" stroke="#bfbfbf" points="402,-493.5 402,-493.5 442,-493.5 442,-493.5 402,-493.5"/>
<polygon fill="none" stroke="#bfbfbf" points="402,-477 402,-526 442,-526 442,-477 402,-477"/>
</a>
</g>
</g>
<!-- Node8&#45;&gt;Node5 -->
<g id="edge7_Node000005_Node000008" class="edge">
<title>Node8&#45;&gt;Node5</title>
<g id="a_edge7_Node000005_Node000008"><a xlink:title=" ">
<path fill="none" stroke="#63b8ff" d="M414.57,-466.94C409.9,-445.85 403.88,-418.65 399.09,-397.02"/>
<polygon fill="none" stroke="#63b8ff" points="411.16,-467.74 416.74,-476.75 418,-466.23 411.16,-467.74"/>
</a>
</g>
</g>
</g>
</svg>
