<?xml version="1.0" encoding="UTF-8" standalone="no"?>
<!DOCTYPE svg PUBLIC "-//W3C//DTD SVG 1.1//EN"
 "http://www.w3.org/Graphics/SVG/1.1/DTD/svg11.dtd">
<!-- Generated by graphviz version 2.43.0 (0)
 -->
<!-- Title: Ponca::KdTreeQuery&lt; Traits &gt; Pages: 1 -->
<svg width="488pt" height="958pt"
 viewBox="0.00 0.00 487.50 958.00" xmlns="http://www.w3.org/2000/svg" xmlns:xlink="http://www.w3.org/1999/xlink">
<g id="graph0" class="graph" transform="scale(1 1) rotate(0) translate(4 954)">
<title>Ponca::KdTreeQuery&lt; Traits &gt;</title>
<!-- Node1 -->
<g id="Node000001" class="node">
<title>Node1</title>
<g id="a_Node000001"><a xlink:title=" ">
<polygon fill="#999999" stroke="transparent" points="257.5,-90 149.5,-90 149.5,0 257.5,0 257.5,-90"/>
<text text-anchor="start" x="154.5" y="-78" font-family="Helvetica,sans-Serif" font-size="10.00">Ponca::KdTreeQuery</text>
<text text-anchor="start" x="179" y="-67" font-family="Helvetica,sans-Serif" font-size="10.00">&lt; Traits &gt;</text>
<text text-anchor="start" x="154.5" y="-52" font-family="Helvetica,sans-Serif" font-size="10.00">#</text>
<text text-anchor="start" x="168.5" y="-52" font-family="Helvetica,sans-Serif" font-size="10.00">m_kdtree</text>
<text text-anchor="start" x="154.5" y="-37" font-family="Helvetica,sans-Serif" font-size="10.00">+</text>
<text text-anchor="start" x="168.5" y="-37" font-family="Helvetica,sans-Serif" font-size="10.00">KdTreeQuery()</text>
<text text-anchor="start" x="154.5" y="-22" font-family="Helvetica,sans-Serif" font-size="10.00">#</text>
<text text-anchor="start" x="168.5" y="-22" font-family="Helvetica,sans-Serif" font-size="10.00">reset()</text>
<text text-anchor="start" x="154.5" y="-7" font-family="Helvetica,sans-Serif" font-size="10.00">#</text>
<text text-anchor="start" x="168.5" y="-7" font-family="Helvetica,sans-Serif" font-size="10.00">search_internal()</text>
<polygon fill="#666666" stroke="#666666" points="149.5,-62 149.5,-62 257.5,-62 257.5,-62 149.5,-62"/>
<polygon fill="#666666" stroke="#666666" points="149.5,-47 149.5,-47 166.5,-47 166.5,-47 149.5,-47"/>
<polygon fill="#666666" stroke="#666666" points="166.5,-47 166.5,-47 257.5,-47 257.5,-47 166.5,-47"/>
<polygon fill="none" stroke="#666666" points="149.5,0 149.5,-90 257.5,-90 257.5,0 149.5,0"/>
</a>
</g>
</g>
<!-- Node2 -->
<g id="Node000002" class="node">
<title>Node2</title>
<g id="a_Node000002"><a xlink:href="classPonca_1_1Stack.html" target="_top" xlink:title=" ">
<polygon fill="white" stroke="transparent" points="269.5,-339 137.5,-339 137.5,-137 269.5,-137 269.5,-339"/>
<text text-anchor="start" x="142.5" y="-327" font-family="Helvetica,sans-Serif" font-size="10.00">Ponca::Stack&lt; Ponca</text>
<text text-anchor="start" x="142.5" y="-316" font-family="Helvetica,sans-Serif" font-size="10.00">::IndexSquaredDistance</text>
<text text-anchor="start" x="142.5" y="-305" font-family="Helvetica,sans-Serif" font-size="10.00">&lt; IndexType, Scalar &gt;,</text>
<text text-anchor="start" x="142.5" y="-294" font-family="Helvetica,sans-Serif" font-size="10.00"> 2 *Traits::MAX_DEPTH &gt;</text>
<text text-anchor="start" x="159" y="-279" font-family="Helvetica,sans-Serif" font-size="10.00">#</text>
<text text-anchor="start" x="189.5" y="-279" font-family="Helvetica,sans-Serif" font-size="10.00">m_size</text>
<text text-anchor="start" x="159" y="-264" font-family="Helvetica,sans-Serif" font-size="10.00">+</text>
<text text-anchor="start" x="189.5" y="-264" font-family="Helvetica,sans-Serif" font-size="10.00">Stack()</text>
<text text-anchor="start" x="159" y="-249" font-family="Helvetica,sans-Serif" font-size="10.00">+</text>
<text text-anchor="start" x="189.5" y="-249" font-family="Helvetica,sans-Serif" font-size="10.00">top()</text>
<text text-anchor="start" x="159" y="-234" font-family="Helvetica,sans-Serif" font-size="10.00">+</text>
<text text-anchor="start" x="189.5" y="-234" font-family="Helvetica,sans-Serif" font-size="10.00">top()</text>
<text text-anchor="start" x="159" y="-219" font-family="Helvetica,sans-Serif" font-size="10.00">+</text>
<text text-anchor="start" x="189.5" y="-219" font-family="Helvetica,sans-Serif" font-size="10.00">empty()</text>
<text text-anchor="start" x="159" y="-204" font-family="Helvetica,sans-Serif" font-size="10.00">+</text>
<text text-anchor="start" x="189.5" y="-204" font-family="Helvetica,sans-Serif" font-size="10.00">size()</text>
<text text-anchor="start" x="159" y="-189" font-family="Helvetica,sans-Serif" font-size="10.00">+</text>
<text text-anchor="start" x="189.5" y="-189" font-family="Helvetica,sans-Serif" font-size="10.00">push()</text>
<text text-anchor="start" x="159" y="-174" font-family="Helvetica,sans-Serif" font-size="10.00">+</text>
<text text-anchor="start" x="189.5" y="-174" font-family="Helvetica,sans-Serif" font-size="10.00">push()</text>
<text text-anchor="start" x="159" y="-159" font-family="Helvetica,sans-Serif" font-size="10.00">+</text>
<text text-anchor="start" x="189.5" y="-159" font-family="Helvetica,sans-Serif" font-size="10.00">pop()</text>
<text text-anchor="start" x="159" y="-144" font-family="Helvetica,sans-Serif" font-size="10.00">+</text>
<text text-anchor="start" x="189.5" y="-144" font-family="Helvetica,sans-Serif" font-size="10.00">clear()</text>
<polygon fill="#666666" stroke="#666666" points="137.5,-289 137.5,-289 269.5,-289 269.5,-289 137.5,-289"/>
<polygon fill="#666666" stroke="#666666" points="137.5,-274 137.5,-274 187.5,-274 187.5,-274 137.5,-274"/>
<polygon fill="#666666" stroke="#666666" points="187.5,-274 187.5,-274 269.5,-274 269.5,-274 187.5,-274"/>
<polygon fill="none" stroke="#666666" points="137.5,-137 137.5,-339 269.5,-339 269.5,-137 137.5,-137"/>
</a>
</g>
</g>
<!-- Node2&#45;&gt;Node1 -->
<g id="edge1_Node000001_Node000002" class="edge">
<title>Node2&#45;&gt;Node1</title>
<g id="a_edge1_Node000001_Node000002"><a xlink:title=" ">
<path fill="none" stroke="#63b8ff" d="M203.5,-136.75C203.5,-124.96 203.5,-113.28 203.5,-102.41"/>
<polygon fill="none" stroke="#63b8ff" points="203.5,-102.07 199.5,-96.07 203.5,-90.07 207.5,-96.07 203.5,-102.07"/>
</a>
</g>
<text text-anchor="middle" x="230" y="-111" font-family="Helvetica,sans-Serif" font-size="10.00" fill="grey"> #m_stack</text>
</g>
<!-- Node3 -->
<g id="Node000003" class="node">
<title>Node3</title>
<g id="a_Node000003"><a xlink:title=" ">
<polygon fill="white" stroke="transparent" points="230,-695 87,-695 87,-624 230,-624 230,-695"/>
<text text-anchor="start" x="92.5" y="-682.5" font-family="Helvetica,sans-Serif" font-size="10.00">std::array&lt; Ponca::</text>
<text text-anchor="start" x="92.5" y="-671.5" font-family="Helvetica,sans-Serif" font-size="10.00">IndexSquaredDistance</text>
<text text-anchor="start" x="92.5" y="-660.5" font-family="Helvetica,sans-Serif" font-size="10.00">&lt; IndexType, Scalar &gt;, N &gt;</text>
<text text-anchor="start" x="157" y="-645.5" font-family="Helvetica,sans-Serif" font-size="10.00"> </text>
<text text-anchor="start" x="157" y="-630.5" font-family="Helvetica,sans-Serif" font-size="10.00"> </text>
<polygon fill="#666666" stroke="#666666" points="87.5,-655.5 87.5,-655.5 230.5,-655.5 230.5,-655.5 87.5,-655.5"/>
<polygon fill="#666666" stroke="#666666" points="87.5,-640.5 87.5,-640.5 230.5,-640.5 230.5,-640.5 87.5,-640.5"/>
<polygon fill="none" stroke="#666666" points="87,-624 87,-695 230,-695 230,-624 87,-624"/>
</a>
</g>
</g>
<!-- Node3&#45;&gt;Node2 -->
<g id="edge2_Node000002_Node000003" class="edge">
<title>Node3&#45;&gt;Node2</title>
<g id="a_edge2_Node000002_Node000003"><a xlink:title=" ">
<path fill="none" stroke="#63b8ff" d="M162.22,-623.81C168.56,-564.73 181.71,-442.13 191.47,-351.1"/>
<polygon fill="none" stroke="#63b8ff" points="191.49,-350.98 188.15,-344.58 192.77,-339.04 196.11,-345.44 191.49,-350.98"/>
</a>
</g>
<text text-anchor="middle" x="210" y="-490" font-family="Helvetica,sans-Serif" font-size="10.00" fill="grey"> #m_data</text>
</g>
<!-- Node4 -->
<g id="Node000004" class="node">
<title>Node4</title>
<g id="a_Node000004"><a xlink:href="structPonca_1_1IndexSquaredDistance.html" target="_top" xlink:title=" ">
<polygon fill="white" stroke="transparent" points="155,-828 0,-828 0,-753 155,-753 155,-828"/>
<text text-anchor="start" x="5.5" y="-815.5" font-family="Helvetica,sans-Serif" font-size="10.00">Ponca::IndexSquaredDistance</text>
<text text-anchor="start" x="23.5" y="-804.5" font-family="Helvetica,sans-Serif" font-size="10.00">&lt; IndexType, Scalar &gt;</text>
<text text-anchor="start" x="16.5" y="-789.5" font-family="Helvetica,sans-Serif" font-size="10.00">+</text>
<text text-anchor="start" x="41.5" y="-789.5" font-family="Helvetica,sans-Serif" font-size="10.00">index</text>
<text text-anchor="start" x="16.5" y="-774.5" font-family="Helvetica,sans-Serif" font-size="10.00">+</text>
<text text-anchor="start" x="41.5" y="-774.5" font-family="Helvetica,sans-Serif" font-size="10.00">squared_distance</text>
<text text-anchor="start" x="16.5" y="-759.5" font-family="Helvetica,sans-Serif" font-size="10.00">+</text>
<text text-anchor="start" x="41.5" y="-759.5" font-family="Helvetica,sans-Serif" font-size="10.00">operator&lt;()</text>
<polygon fill="#666666" stroke="#666666" points="0.5,-799.5 0.5,-799.5 155.5,-799.5 155.5,-799.5 0.5,-799.5"/>
<polygon fill="#666666" stroke="#666666" points="0.5,-769.5 0.5,-769.5 39.5,-769.5 39.5,-769.5 0.5,-769.5"/>
<polygon fill="#666666" stroke="#666666" points="39.5,-769.5 39.5,-769.5 155.5,-769.5 155.5,-769.5 39.5,-769.5"/>
<polygon fill="none" stroke="#666666" points="0,-753 0,-828 155,-828 155,-753 0,-753"/>
</a>
</g>
</g>
<!-- Node4&#45;&gt;Node3 -->
<g id="edge3_Node000003_Node000004" class="edge">
<title>Node4&#45;&gt;Node3</title>
<g id="a_edge3_Node000003_Node000004"><a xlink:title=" ">
<path fill="none" stroke="#63b8ff" d="M71.08,-752.65C70.5,-739.44 71.99,-724.88 78.5,-713 80.18,-709.93 82.14,-707 84.3,-704.23"/>
<polygon fill="none" stroke="#63b8ff" points="84.3,-704.22 85.38,-697.09 92.37,-695.34 91.3,-702.48 84.3,-704.22"/>
</a>
</g>
<text text-anchor="middle" x="107.5" y="-721.5" font-family="Helvetica,sans-Serif" font-size="10.00" fill="grey"> +elements</text>
</g>
<!-- Node5 -->
<g id="Node000005" class="node">
<title>Node5</title>
<g id="a_Node000005"><a xlink:href="structPonca_1_1IndexSquaredDistance.html" target="_top" xlink:title="Associates an index with a distance.">
<polygon fill="white" stroke="transparent" points="155,-950 0,-950 0,-875 155,-875 155,-950"/>
<text text-anchor="start" x="5.5" y="-937.5" font-family="Helvetica,sans-Serif" font-size="10.00">Ponca::IndexSquaredDistance</text>
<text text-anchor="start" x="35" y="-926.5" font-family="Helvetica,sans-Serif" font-size="10.00">&lt; Index, Scalar &gt;</text>
<text text-anchor="start" x="16.5" y="-911.5" font-family="Helvetica,sans-Serif" font-size="10.00">+</text>
<text text-anchor="start" x="41.5" y="-911.5" font-family="Helvetica,sans-Serif" font-size="10.00">index</text>
<text text-anchor="start" x="16.5" y="-896.5" font-family="Helvetica,sans-Serif" font-size="10.00">+</text>
<text text-anchor="start" x="41.5" y="-896.5" font-family="Helvetica,sans-Serif" font-size="10.00">squared_distance</text>
<text text-anchor="start" x="16.5" y="-881.5" font-family="Helvetica,sans-Serif" font-size="10.00">+</text>
<text text-anchor="start" x="41.5" y="-881.5" font-family="Helvetica,sans-Serif" font-size="10.00">operator&lt;()</text>
<polygon fill="#666666" stroke="#666666" points="0.5,-921.5 0.5,-921.5 155.5,-921.5 155.5,-921.5 0.5,-921.5"/>
<polygon fill="#666666" stroke="#666666" points="0.5,-891.5 0.5,-891.5 39.5,-891.5 39.5,-891.5 0.5,-891.5"/>
<polygon fill="#666666" stroke="#666666" points="39.5,-891.5 39.5,-891.5 155.5,-891.5 155.5,-891.5 39.5,-891.5"/>
<polygon fill="none" stroke="#666666" points="0,-875 0,-950 155,-950 155,-875 0,-875"/>
</a>
</g>
</g>
<!-- Node5&#45;&gt;Node4 -->
<g id="edge4_Node000004_Node000005" class="edge">
<title>Node5&#45;&gt;Node4</title>
<g id="a_edge4_Node000004_Node000005"><a xlink:title=" ">
<path fill="none" stroke="orange" d="M77.5,-864.53C77.5,-852.51 77.5,-839.77 77.5,-828.35"/>
<polygon fill="orange" stroke="orange" points="74,-864.84 77.5,-874.84 81,-864.84 74,-864.84"/>
</a>
</g>
<text text-anchor="middle" x="133.5" y="-849" font-family="Helvetica,sans-Serif" font-size="10.00" fill="grey"> &lt; IndexType, Scalar &gt;</text>
</g>
<!-- Node6 -->
<g id="Node000006" class="node">
<title>Node6</title>
<g id="a_Node000006"><a xlink:title=" ">
<polygon fill="white" stroke="transparent" points="366.5,-815 280.5,-815 280.5,-766 366.5,-766 366.5,-815"/>
<text text-anchor="start" x="285.5" y="-802.5" font-family="Helvetica,sans-Serif" font-size="10.00">std::array&lt; T &gt;</text>
<text text-anchor="start" x="321.5" y="-787.5" font-family="Helvetica,sans-Serif" font-size="10.00"> </text>
<text text-anchor="start" x="321.5" y="-772.5" font-family="Helvetica,sans-Serif" font-size="10.00"> </text>
<polygon fill="#666666" stroke="#666666" points="280.5,-797.5 280.5,-797.5 366.5,-797.5 366.5,-797.5 280.5,-797.5"/>
<polygon fill="#666666" stroke="#666666" points="280.5,-782.5 280.5,-782.5 366.5,-782.5 366.5,-782.5 280.5,-782.5"/>
<polygon fill="none" stroke="#666666" points="280.5,-766 280.5,-815 366.5,-815 366.5,-766 280.5,-766"/>
</a>
</g>
</g>
<!-- Node6&#45;&gt;Node3 -->
<g id="edge5_Node000003_Node000006" class="edge">
<title>Node6&#45;&gt;Node3</title>
<g id="a_edge5_Node000003_Node000006"><a xlink:title=" ">
<path fill="none" stroke="orange" d="M270.24,-785.34C235.19,-779.63 191.34,-766.24 166.5,-735 157.67,-723.9 154.91,-708.75 154.65,-695.01"/>
<polygon fill="orange" stroke="orange" points="269.93,-788.84 280.33,-786.82 270.95,-781.91 269.93,-788.84"/>
</a>
</g>
<text text-anchor="start" x="166.5" y="-727" font-family="Helvetica,sans-Serif" font-size="10.00" fill="grey"> &lt; Ponca::IndexSquaredDistance</text>
<text text-anchor="middle" x="246.5" y="-716" font-family="Helvetica,sans-Serif" font-size="10.00" fill="grey">&lt; IndexType, Scalar &gt;, N &gt;</text>
</g>
<!-- Node9 -->
<g id="Node000009" class="node">
<title>Node9</title>
<g id="a_Node000009"><a xlink:title=" ">
<polygon fill="white" stroke="transparent" points="391,-684 292,-684 292,-635 391,-635 391,-684"/>
<text text-anchor="start" x="297.5" y="-671.5" font-family="Helvetica,sans-Serif" font-size="10.00">std::array&lt; T, N &gt;</text>
<text text-anchor="start" x="340" y="-656.5" font-family="Helvetica,sans-Serif" font-size="10.00"> </text>
<text text-anchor="start" x="340" y="-641.5" font-family="Helvetica,sans-Serif" font-size="10.00"> </text>
<polygon fill="#666666" stroke="#666666" points="292.5,-666.5 292.5,-666.5 391.5,-666.5 391.5,-666.5 292.5,-666.5"/>
<polygon fill="#666666" stroke="#666666" points="292.5,-651.5 292.5,-651.5 391.5,-651.5 391.5,-651.5 292.5,-651.5"/>
<polygon fill="none" stroke="#666666" points="292,-635 292,-684 391,-684 391,-635 292,-635"/>
</a>
</g>
</g>
<!-- Node6&#45;&gt;Node9 -->
<g id="edge10_Node000009_Node000006" class="edge">
<title>Node6&#45;&gt;Node9</title>
<g id="a_edge10_Node000009_Node000006"><a xlink:title=" ">
<path fill="none" stroke="orange" d="M328.22,-755.68C331.37,-733.13 335.42,-704.06 338.22,-684.01"/>
<polygon fill="orange" stroke="orange" points="324.72,-755.45 326.8,-765.84 331.65,-756.42 324.72,-755.45"/>
</a>
</g>
<text text-anchor="middle" x="356.5" y="-721.5" font-family="Helvetica,sans-Serif" font-size="10.00" fill="grey"> &lt; T, N &gt;</text>
</g>
<!-- Node7 -->
<g id="Node000007" class="node">
<title>Node7</title>
<g id="a_Node000007"><a xlink:title=" ">
<polygon fill="white" stroke="transparent" points="373,-937 356,-937 356,-888 373,-888 373,-937"/>
<text text-anchor="start" x="361.5" y="-924.5" font-family="Helvetica,sans-Serif" font-size="10.00">T</text>
<text text-anchor="start" x="363" y="-909.5" font-family="Helvetica,sans-Serif" font-size="10.00"> </text>
<text text-anchor="start" x="363" y="-894.5" font-family="Helvetica,sans-Serif" font-size="10.00"> </text>
<polygon fill="#bfbfbf" stroke="#bfbfbf" points="356.5,-919.5 356.5,-919.5 373.5,-919.5 373.5,-919.5 356.5,-919.5"/>
<polygon fill="#bfbfbf" stroke="#bfbfbf" points="356.5,-904.5 356.5,-904.5 373.5,-904.5 373.5,-904.5 356.5,-904.5"/>
<polygon fill="none" stroke="#bfbfbf" points="356,-888 356,-937 373,-937 373,-888 356,-888"/>
</a>
</g>
</g>
<!-- Node7&#45;&gt;Node6 -->
<g id="edge6_Node000006_Node000007" class="edge">
<title>Node7&#45;&gt;Node6</title>
<g id="a_edge6_Node000006_Node000007"><a xlink:title=" ">
<path fill="none" stroke="#63b8ff" d="M355.89,-900.98C347.85,-890.51 336.25,-873.66 330.5,-857 327.25,-847.57 325.4,-836.97 324.38,-827.09"/>
<polygon fill="none" stroke="#63b8ff" points="324.37,-827.06 319.94,-821.37 323.48,-815.09 327.91,-820.78 324.37,-827.06"/>
</a>
</g>
<text text-anchor="middle" x="359.5" y="-849" font-family="Helvetica,sans-Serif" font-size="10.00" fill="grey"> +elements</text>
</g>
<!-- Node7&#45;&gt;Node9 -->
<g id="edge9_Node000009_Node000007" class="edge">
<title>Node7&#45;&gt;Node9</title>
<g id="a_edge9_Node000009_Node000007"><a xlink:title=" ">
<path fill="none" stroke="#63b8ff" d="M373.22,-896.34C378.82,-885.71 385.56,-870.96 388.5,-857 396.6,-818.5 474.68,-958.1 383.5,-713 381,-706.27 377.27,-699.75 373.06,-693.71"/>
<polygon fill="none" stroke="#63b8ff" points="372.96,-693.59 366.13,-691.28 365.63,-684.08 372.46,-686.39 372.96,-693.59"/>
</a>
</g>
<text text-anchor="middle" x="450.5" y="-788" font-family="Helvetica,sans-Serif" font-size="10.00" fill="grey"> +elements</text>
</g>
<!-- Node8 -->
<g id="Node000008" class="node">
<title>Node8</title>
<g id="a_Node000008"><a xlink:href="classPonca_1_1Stack.html" target="_top" xlink:title="Stack with fixed&#45;size storage.">
<polygon fill="white" stroke="transparent" points="384,-577 269,-577 269,-408 384,-408 384,-577"/>
<text text-anchor="start" x="274.5" y="-564.5" font-family="Helvetica,sans-Serif" font-size="10.00">Ponca::Stack&lt; T, N &gt;</text>
<text text-anchor="start" x="287" y="-549.5" font-family="Helvetica,sans-Serif" font-size="10.00">#</text>
<text text-anchor="start" x="313.5" y="-549.5" font-family="Helvetica,sans-Serif" font-size="10.00">m_size</text>
<text text-anchor="start" x="287" y="-534.5" font-family="Helvetica,sans-Serif" font-size="10.00">+</text>
<text text-anchor="start" x="313.5" y="-534.5" font-family="Helvetica,sans-Serif" font-size="10.00">Stack()</text>
<text text-anchor="start" x="287" y="-519.5" font-family="Helvetica,sans-Serif" font-size="10.00">+</text>
<text text-anchor="start" x="313.5" y="-519.5" font-family="Helvetica,sans-Serif" font-size="10.00">top()</text>
<text text-anchor="start" x="287" y="-504.5" font-family="Helvetica,sans-Serif" font-size="10.00">+</text>
<text text-anchor="start" x="313.5" y="-504.5" font-family="Helvetica,sans-Serif" font-size="10.00">top()</text>
<text text-anchor="start" x="287" y="-489.5" font-family="Helvetica,sans-Serif" font-size="10.00">+</text>
<text text-anchor="start" x="313.5" y="-489.5" font-family="Helvetica,sans-Serif" font-size="10.00">empty()</text>
<text text-anchor="start" x="287" y="-474.5" font-family="Helvetica,sans-Serif" font-size="10.00">+</text>
<text text-anchor="start" x="313.5" y="-474.5" font-family="Helvetica,sans-Serif" font-size="10.00">size()</text>
<text text-anchor="start" x="287" y="-459.5" font-family="Helvetica,sans-Serif" font-size="10.00">+</text>
<text text-anchor="start" x="313.5" y="-459.5" font-family="Helvetica,sans-Serif" font-size="10.00">push()</text>
<text text-anchor="start" x="287" y="-444.5" font-family="Helvetica,sans-Serif" font-size="10.00">+</text>
<text text-anchor="start" x="313.5" y="-444.5" font-family="Helvetica,sans-Serif" font-size="10.00">push()</text>
<text text-anchor="start" x="287" y="-429.5" font-family="Helvetica,sans-Serif" font-size="10.00">+</text>
<text text-anchor="start" x="313.5" y="-429.5" font-family="Helvetica,sans-Serif" font-size="10.00">pop()</text>
<text text-anchor="start" x="287" y="-414.5" font-family="Helvetica,sans-Serif" font-size="10.00">+</text>
<text text-anchor="start" x="313.5" y="-414.5" font-family="Helvetica,sans-Serif" font-size="10.00">clear()</text>
<polygon fill="#666666" stroke="#666666" points="269.5,-559.5 269.5,-559.5 384.5,-559.5 384.5,-559.5 269.5,-559.5"/>
<polygon fill="#666666" stroke="#666666" points="269.5,-544.5 269.5,-544.5 311.5,-544.5 311.5,-544.5 269.5,-544.5"/>
<polygon fill="#666666" stroke="#666666" points="311.5,-544.5 311.5,-544.5 384.5,-544.5 384.5,-544.5 311.5,-544.5"/>
<polygon fill="none" stroke="#666666" points="269,-408 269,-577 384,-577 384,-408 269,-408"/>
</a>
</g>
</g>
<!-- Node8&#45;&gt;Node2 -->
<g id="edge7_Node000002_Node000008" class="edge">
<title>Node8&#45;&gt;Node2</title>
<g id="a_edge7_Node000002_Node000008"><a xlink:title=" ">
<path fill="none" stroke="orange" d="M281.28,-398.66C271.84,-379.29 261.85,-358.79 252.3,-339.17"/>
<polygon fill="orange" stroke="orange" points="278.19,-400.31 285.71,-407.77 284.48,-397.25 278.19,-400.31"/>
</a>
</g>
<text text-anchor="start" x="276.5" y="-382" font-family="Helvetica,sans-Serif" font-size="10.00" fill="grey"> &lt; Ponca::IndexSquaredDistance</text>
<text text-anchor="start" x="276.5" y="-371" font-family="Helvetica,sans-Serif" font-size="10.00" fill="grey">&lt; IndexType, Scalar &gt;, 2</text>
<text text-anchor="middle" x="356.5" y="-360" font-family="Helvetica,sans-Serif" font-size="10.00" fill="grey"> *Traits::MAX_DEPTH &gt;</text>
</g>
<!-- Node9&#45;&gt;Node8 -->
<g id="edge8_Node000008_Node000009" class="edge">
<title>Node9&#45;&gt;Node8</title>
<g id="a_edge8_Node000008_Node000009"><a xlink:title=" ">
<path fill="none" stroke="#63b8ff" d="M339.35,-634.86C338.22,-622.45 336.76,-606.34 335.22,-589.46"/>
<polygon fill="none" stroke="#63b8ff" points="335.18,-589.03 330.66,-583.41 334.1,-577.07 338.62,-582.69 335.18,-589.03"/>
</a>
</g>
<text text-anchor="middle" x="361" y="-598" font-family="Helvetica,sans-Serif" font-size="10.00" fill="grey"> #m_data</text>
</g>
</g>
</svg>
