<?xml version="1.0" encoding="UTF-8" standalone="no"?>
<!DOCTYPE svg PUBLIC "-//W3C//DTD SVG 1.1//EN"
 "http://www.w3.org/Graphics/SVG/1.1/DTD/svg11.dtd">
<!-- Generated by graphviz version 2.43.0 (0)
 -->
<!-- Title: Ponca::MeanPlaneFit&lt; DataPoint, _WFunctor, T &gt; Pages: 1 -->
<svg width="555pt" height="972pt"
 viewBox="0.00 0.00 555.00 972.00" xmlns="http://www.w3.org/2000/svg" xmlns:xlink="http://www.w3.org/1999/xlink">
<g id="graph0" class="graph" transform="scale(1 1) rotate(0) translate(4 968)">
<title>Ponca::MeanPlaneFit&lt; DataPoint, _WFunctor, T &gt;</title>
<polygon fill="white" stroke="transparent" points="-4,4 -4,-968 551,-968 551,4 -4,4"/>
<!-- Node1 -->
<g id="node1" class="node">
<title>Node1</title>
<g id="a_node1"><a xlink:title="Plane fitting procedure computing the mean position and orientation from oriented points.">
<polygon fill="#bfbfbf" stroke="black" points="73,-0.5 73,-145.5 229,-145.5 229,-0.5 73,-0.5"/>
<text text-anchor="start" x="81" y="-133.5" font-family="Helvetica,sans-Serif" font-size="10.00">Ponca::MeanPlaneFit</text>
<text text-anchor="middle" x="151" y="-122.5" font-family="Helvetica,sans-Serif" font-size="10.00">&lt; DataPoint, _WFunctor, T &gt;</text>
<polyline fill="none" stroke="black" points="73,-115.5 229,-115.5 "/>
<text text-anchor="start" x="81" y="-103.5" font-family="Helvetica,sans-Serif" font-size="10.00"># m_sumW</text>
<text text-anchor="start" x="81" y="-92.5" font-family="Helvetica,sans-Serif" font-size="10.00"># m_sumN</text>
<text text-anchor="start" x="81" y="-81.5" font-family="Helvetica,sans-Serif" font-size="10.00"># m_sumP</text>
<text text-anchor="start" x="81" y="-70.5" font-family="Helvetica,sans-Serif" font-size="10.00"># m_w</text>
<polyline fill="none" stroke="black" points="73,-63.5 229,-63.5 "/>
<text text-anchor="start" x="81" y="-51.5" font-family="Helvetica,sans-Serif" font-size="10.00">+ MeanPlaneFit()</text>
<text text-anchor="start" x="81" y="-40.5" font-family="Helvetica,sans-Serif" font-size="10.00">+ setWeightFunc()</text>
<text text-anchor="start" x="81" y="-29.5" font-family="Helvetica,sans-Serif" font-size="10.00">+ init()</text>
<text text-anchor="start" x="81" y="-18.5" font-family="Helvetica,sans-Serif" font-size="10.00">+ addNeighbor()</text>
<text text-anchor="start" x="81" y="-7.5" font-family="Helvetica,sans-Serif" font-size="10.00">+ finalize()</text>
</a>
</g>
</g>
<!-- Node2 -->
<g id="node2" class="node">
<title>Node2</title>
<g id="a_node2"><a xlink:href="classPonca_1_1Concept_1_1FittingProcedureConcept.html" target="_top" xlink:title="Describes the procedure to fit a primitive to point samples.">
<polygon fill="white" stroke="black" points="0,-233 0,-334 196,-334 196,-233 0,-233"/>
<text text-anchor="start" x="8" y="-322" font-family="Helvetica,sans-Serif" font-size="10.00">Ponca::Concept::FittingProcedure</text>
<text text-anchor="middle" x="98" y="-311" font-family="Helvetica,sans-Serif" font-size="10.00">Concept&lt; DataPoint, _WFunctor, T &gt;</text>
<polyline fill="none" stroke="black" points="0,-304 196,-304 "/>
<text text-anchor="middle" x="98" y="-292" font-family="Helvetica,sans-Serif" font-size="10.00"> </text>
<polyline fill="none" stroke="black" points="0,-285 196,-285 "/>
<text text-anchor="start" x="8" y="-273" font-family="Helvetica,sans-Serif" font-size="10.00">+ setWeightFunc()</text>
<text text-anchor="start" x="8" y="-262" font-family="Helvetica,sans-Serif" font-size="10.00">+ init()</text>
<text text-anchor="start" x="8" y="-251" font-family="Helvetica,sans-Serif" font-size="10.00">+ addNeighbor()</text>
<text text-anchor="start" x="8" y="-240" font-family="Helvetica,sans-Serif" font-size="10.00">+ finalize()</text>
</a>
</g>
</g>
<!-- Node2&#45;&gt;Node1 -->
<g id="edge1" class="edge">
<title>Node2&#45;&gt;Node1</title>
<path fill="none" stroke="midnightblue" d="M113.1,-223.11C119.22,-199.03 126.34,-171 132.75,-145.79"/>
<polygon fill="none" stroke="midnightblue" points="109.7,-222.27 110.63,-232.82 116.48,-223.99 109.7,-222.27"/>
</g>
<!-- Node3 -->
<g id="node3" class="node">
<title>Node3</title>
<g id="a_node3"><a xlink:href="classPonca_1_1CompactPlane.html" target="_top" xlink:title=" ">
<polygon fill="white" stroke="black" points="214,-183.5 214,-383.5 358,-383.5 358,-183.5 214,-183.5"/>
<text text-anchor="start" x="222" y="-371.5" font-family="Helvetica,sans-Serif" font-size="10.00">Ponca::CompactPlane</text>
<text text-anchor="middle" x="286" y="-360.5" font-family="Helvetica,sans-Serif" font-size="10.00">&lt; DataPoint, _WFunctor &gt;</text>
<polyline fill="none" stroke="black" points="214,-353.5 358,-353.5 "/>
<text text-anchor="middle" x="286" y="-341.5" font-family="Helvetica,sans-Serif" font-size="10.00"> </text>
<polyline fill="none" stroke="black" points="214,-334.5 358,-334.5 "/>
<text text-anchor="start" x="222" y="-322.5" font-family="Helvetica,sans-Serif" font-size="10.00">+ CompactPlane()</text>
<text text-anchor="start" x="222" y="-311.5" font-family="Helvetica,sans-Serif" font-size="10.00">+ compactPlane()</text>
<text text-anchor="start" x="222" y="-300.5" font-family="Helvetica,sans-Serif" font-size="10.00">+ resetPrimitive()</text>
<text text-anchor="start" x="222" y="-289.5" font-family="Helvetica,sans-Serif" font-size="10.00">+ operator==()</text>
<text text-anchor="start" x="222" y="-278.5" font-family="Helvetica,sans-Serif" font-size="10.00">+ operator!=()</text>
<text text-anchor="start" x="222" y="-267.5" font-family="Helvetica,sans-Serif" font-size="10.00">+ basisCenter()</text>
<text text-anchor="start" x="222" y="-256.5" font-family="Helvetica,sans-Serif" font-size="10.00">+ basisCenter()</text>
<text text-anchor="start" x="222" y="-245.5" font-family="Helvetica,sans-Serif" font-size="10.00">+ setPlane()</text>
<text text-anchor="start" x="222" y="-234.5" font-family="Helvetica,sans-Serif" font-size="10.00">+ potential()</text>
<text text-anchor="start" x="222" y="-223.5" font-family="Helvetica,sans-Serif" font-size="10.00">+ potential()</text>
<text text-anchor="start" x="222" y="-212.5" font-family="Helvetica,sans-Serif" font-size="10.00">+ project()</text>
<text text-anchor="start" x="222" y="-201.5" font-family="Helvetica,sans-Serif" font-size="10.00">+ primitiveGradient()</text>
<text text-anchor="start" x="222" y="-190.5" font-family="Helvetica,sans-Serif" font-size="10.00">+ primitiveGradient()</text>
</a>
</g>
</g>
<!-- Node3&#45;&gt;Node1 -->
<g id="edge2" class="edge">
<title>Node3&#45;&gt;Node1</title>
<path fill="none" stroke="midnightblue" d="M216.26,-174.79C209.89,-164.95 203.55,-155.15 197.46,-145.75"/>
<polygon fill="none" stroke="midnightblue" points="213.49,-176.95 221.86,-183.44 219.36,-173.14 213.49,-176.95"/>
</g>
<!-- Node4 -->
<g id="node4" class="node">
<title>Node4</title>
<g id="a_node4"><a xlink:href="classPonca_1_1PrimitiveBase.html" target="_top" xlink:title=" ">
<polygon fill="white" stroke="black" points="344,-669.5 344,-792.5 488,-792.5 488,-669.5 344,-669.5"/>
<text text-anchor="start" x="352" y="-780.5" font-family="Helvetica,sans-Serif" font-size="10.00">Ponca::PrimitiveBase</text>
<text text-anchor="middle" x="416" y="-769.5" font-family="Helvetica,sans-Serif" font-size="10.00">&lt; DataPoint, _WFunctor &gt;</text>
<polyline fill="none" stroke="black" points="344,-762.5 488,-762.5 "/>
<text text-anchor="start" x="352" y="-750.5" font-family="Helvetica,sans-Serif" font-size="10.00"># m_eCurrentState</text>
<text text-anchor="start" x="352" y="-739.5" font-family="Helvetica,sans-Serif" font-size="10.00"># m_nbNeighbors</text>
<polyline fill="none" stroke="black" points="344,-732.5 488,-732.5 "/>
<text text-anchor="start" x="352" y="-720.5" font-family="Helvetica,sans-Serif" font-size="10.00">+ PrimitiveBase()</text>
<text text-anchor="start" x="352" y="-709.5" font-family="Helvetica,sans-Serif" font-size="10.00">+ resetPrimitive()</text>
<text text-anchor="start" x="352" y="-698.5" font-family="Helvetica,sans-Serif" font-size="10.00">+ isReady()</text>
<text text-anchor="start" x="352" y="-687.5" font-family="Helvetica,sans-Serif" font-size="10.00">+ isStable()</text>
<text text-anchor="start" x="352" y="-676.5" font-family="Helvetica,sans-Serif" font-size="10.00">+ getCurrentState()</text>
</a>
</g>
</g>
<!-- Node4&#45;&gt;Node3 -->
<g id="edge3" class="edge">
<title>Node4&#45;&gt;Node3</title>
<path fill="none" stroke="midnightblue" d="M432.68,-659.6C445.35,-590.72 454.99,-484.45 418,-402 405.25,-373.59 381.86,-349.23 358.27,-330.19"/>
<polygon fill="none" stroke="midnightblue" points="429.23,-659 430.79,-669.48 436.11,-660.31 429.23,-659"/>
</g>
<!-- Node7 -->
<g id="node7" class="node">
<title>Node7</title>
<g id="a_node7"><a xlink:href="classPonca_1_1CompactPlane.html" target="_top" xlink:title="Implicit hyperplane defined by an homogeneous vector .">
<polygon fill="white" stroke="black" points="248,-431.5 248,-631.5 404,-631.5 404,-431.5 248,-431.5"/>
<text text-anchor="start" x="256" y="-619.5" font-family="Helvetica,sans-Serif" font-size="10.00">Ponca::CompactPlane</text>
<text text-anchor="middle" x="326" y="-608.5" font-family="Helvetica,sans-Serif" font-size="10.00">&lt; DataPoint, _WFunctor, T &gt;</text>
<polyline fill="none" stroke="black" points="248,-601.5 404,-601.5 "/>
<text text-anchor="middle" x="326" y="-589.5" font-family="Helvetica,sans-Serif" font-size="10.00"> </text>
<polyline fill="none" stroke="black" points="248,-582.5 404,-582.5 "/>
<text text-anchor="start" x="256" y="-570.5" font-family="Helvetica,sans-Serif" font-size="10.00">+ CompactPlane()</text>
<text text-anchor="start" x="256" y="-559.5" font-family="Helvetica,sans-Serif" font-size="10.00">+ compactPlane()</text>
<text text-anchor="start" x="256" y="-548.5" font-family="Helvetica,sans-Serif" font-size="10.00">+ resetPrimitive()</text>
<text text-anchor="start" x="256" y="-537.5" font-family="Helvetica,sans-Serif" font-size="10.00">+ operator==()</text>
<text text-anchor="start" x="256" y="-526.5" font-family="Helvetica,sans-Serif" font-size="10.00">+ operator!=()</text>
<text text-anchor="start" x="256" y="-515.5" font-family="Helvetica,sans-Serif" font-size="10.00">+ basisCenter()</text>
<text text-anchor="start" x="256" y="-504.5" font-family="Helvetica,sans-Serif" font-size="10.00">+ basisCenter()</text>
<text text-anchor="start" x="256" y="-493.5" font-family="Helvetica,sans-Serif" font-size="10.00">+ setPlane()</text>
<text text-anchor="start" x="256" y="-482.5" font-family="Helvetica,sans-Serif" font-size="10.00">+ potential()</text>
<text text-anchor="start" x="256" y="-471.5" font-family="Helvetica,sans-Serif" font-size="10.00">+ potential()</text>
<text text-anchor="start" x="256" y="-460.5" font-family="Helvetica,sans-Serif" font-size="10.00">+ project()</text>
<text text-anchor="start" x="256" y="-449.5" font-family="Helvetica,sans-Serif" font-size="10.00">+ primitiveGradient()</text>
<text text-anchor="start" x="256" y="-438.5" font-family="Helvetica,sans-Serif" font-size="10.00">+ primitiveGradient()</text>
</a>
</g>
</g>
<!-- Node4&#45;&gt;Node7 -->
<g id="edge7" class="edge">
<title>Node4&#45;&gt;Node7</title>
<path fill="none" stroke="midnightblue" d="M384.21,-660.23C379.97,-650.93 375.55,-641.24 371.14,-631.55"/>
<polygon fill="none" stroke="midnightblue" points="381.05,-661.75 388.39,-669.4 387.42,-658.85 381.05,-661.75"/>
</g>
<!-- Node5 -->
<g id="node5" class="node">
<title>Node5</title>
<g id="a_node5"><a xlink:href="classPonca_1_1PrimitiveBase.html" target="_top" xlink:title="Primitive base class.">
<polygon fill="white" stroke="black" points="338,-840.5 338,-963.5 494,-963.5 494,-840.5 338,-840.5"/>
<text text-anchor="start" x="346" y="-951.5" font-family="Helvetica,sans-Serif" font-size="10.00">Ponca::PrimitiveBase</text>
<text text-anchor="middle" x="416" y="-940.5" font-family="Helvetica,sans-Serif" font-size="10.00">&lt; DataPoint, _WFunctor, T &gt;</text>
<polyline fill="none" stroke="black" points="338,-933.5 494,-933.5 "/>
<text text-anchor="start" x="346" y="-921.5" font-family="Helvetica,sans-Serif" font-size="10.00"># m_eCurrentState</text>
<text text-anchor="start" x="346" y="-910.5" font-family="Helvetica,sans-Serif" font-size="10.00"># m_nbNeighbors</text>
<polyline fill="none" stroke="black" points="338,-903.5 494,-903.5 "/>
<text text-anchor="start" x="346" y="-891.5" font-family="Helvetica,sans-Serif" font-size="10.00">+ PrimitiveBase()</text>
<text text-anchor="start" x="346" y="-880.5" font-family="Helvetica,sans-Serif" font-size="10.00">+ resetPrimitive()</text>
<text text-anchor="start" x="346" y="-869.5" font-family="Helvetica,sans-Serif" font-size="10.00">+ isReady()</text>
<text text-anchor="start" x="346" y="-858.5" font-family="Helvetica,sans-Serif" font-size="10.00">+ isStable()</text>
<text text-anchor="start" x="346" y="-847.5" font-family="Helvetica,sans-Serif" font-size="10.00">+ getCurrentState()</text>
</a>
</g>
</g>
<!-- Node5&#45;&gt;Node4 -->
<g id="edge4" class="edge">
<title>Node5&#45;&gt;Node4</title>
<path fill="none" stroke="orange" d="M416,-830.13C416,-817.68 416,-804.82 416,-792.68"/>
<polygon fill="orange" stroke="orange" points="412.5,-830.46 416,-840.46 419.5,-830.46 412.5,-830.46"/>
<text text-anchor="middle" x="481.5" y="-814" font-family="Helvetica,sans-Serif" font-size="10.00"> &lt; DataPoint, _WFunctor &gt;</text>
</g>
<!-- Node6 -->
<g id="node6" class="node">
<title>Node6</title>
<g id="a_node6"><a xlink:title=" ">
<polygon fill="white" stroke="#bfbfbf" points="180,-691.5 180,-770.5 294,-770.5 294,-691.5 180,-691.5"/>
<text text-anchor="start" x="188" y="-758.5" font-family="Helvetica,sans-Serif" font-size="10.00">Eigen::Hyperplane&lt;</text>
<text text-anchor="start" x="188" y="-747.5" font-family="Helvetica,sans-Serif" font-size="10.00"> DataPoint::Scalar,</text>
<text text-anchor="middle" x="237" y="-736.5" font-family="Helvetica,sans-Serif" font-size="10.00"> DataPoint::Dim &gt;</text>
<polyline fill="none" stroke="#bfbfbf" points="180,-729.5 294,-729.5 "/>
<text text-anchor="middle" x="237" y="-717.5" font-family="Helvetica,sans-Serif" font-size="10.00"> </text>
<polyline fill="none" stroke="#bfbfbf" points="180,-710.5 294,-710.5 "/>
<text text-anchor="middle" x="237" y="-698.5" font-family="Helvetica,sans-Serif" font-size="10.00"> </text>
</a>
</g>
</g>
<!-- Node6&#45;&gt;Node3 -->
<g id="edge5" class="edge">
<title>Node6&#45;&gt;Node3</title>
<path fill="none" stroke="midnightblue" d="M232.83,-681.23C228.77,-621.74 225.04,-518.28 239,-431 241.49,-415.44 245.33,-399.27 249.76,-383.6"/>
<polygon fill="none" stroke="midnightblue" points="229.35,-681.74 233.56,-691.46 236.34,-681.24 229.35,-681.74"/>
</g>
<!-- Node6&#45;&gt;Node7 -->
<g id="edge8" class="edge">
<title>Node6&#45;&gt;Node7</title>
<path fill="none" stroke="midnightblue" d="M258.54,-682.2C265.46,-666.85 273.39,-649.24 281.34,-631.6"/>
<polygon fill="none" stroke="midnightblue" points="255.29,-680.9 254.37,-691.45 261.67,-683.77 255.29,-680.9"/>
</g>
<!-- Node7&#45;&gt;Node3 -->
<g id="edge6" class="edge">
<title>Node7&#45;&gt;Node3</title>
<path fill="none" stroke="orange" d="M288.57,-421.56C288,-418.69 287.47,-415.83 287,-413 285.43,-403.54 284.36,-393.63 283.67,-383.69"/>
<polygon fill="orange" stroke="orange" points="285.16,-422.34 290.71,-431.36 292,-420.85 285.16,-422.34"/>
<text text-anchor="middle" x="352.5" y="-405" font-family="Helvetica,sans-Serif" font-size="10.00"> &lt; DataPoint, _WFunctor &gt;</text>
</g>
</g>
</svg>
