<?xml version="1.0" encoding="UTF-8" standalone="no"?>
<!DOCTYPE svg PUBLIC "-//W3C//DTD SVG 1.1//EN"
 "http://www.w3.org/Graphics/SVG/1.1/DTD/svg11.dtd">
<!-- Generated by graphviz version 2.43.0 (0)
 -->
<!-- Title: Ponca::KdTreeNearestIndexQuery&lt; DataPoint &gt; Pages: 1 -->
<svg width="732pt" height="878pt"
 viewBox="0.00 0.00 731.50 878.00" xmlns="http://www.w3.org/2000/svg" xmlns:xlink="http://www.w3.org/1999/xlink">
<g id="graph0" class="graph" transform="scale(1 1) rotate(0) translate(4 874)">
<title>Ponca::KdTreeNearestIndexQuery&lt; DataPoint &gt;</title>
<!-- Node1 -->
<g id="node1" class="node">
<title>Node1</title>
<g id="a_node1"><a xlink:title=" ">
<polygon fill="#999999" stroke="#666666" points="169,-85 0,-85 0,0 169,0 169,-85"/>
<text text-anchor="start" x="8" y="-73" font-family="Helvetica,sans-Serif" font-size="10.00">{Ponca::KdTreeNearestIndex</text>
<text text-anchor="middle" x="84.5" y="-62" font-family="Helvetica,sans-Serif" font-size="10.00">Query&lt; DataPoint &gt;</text>
<text text-anchor="start" x="8" y="-51" font-family="Helvetica,sans-Serif" font-size="10.00">||+ KdTreeNearestIndexQuery()</text>
<text text-anchor="start" x="8" y="-40" font-family="Helvetica,sans-Serif" font-size="10.00">+ begin()</text>
<text text-anchor="start" x="8" y="-29" font-family="Helvetica,sans-Serif" font-size="10.00">+ end()</text>
<text text-anchor="start" x="8" y="-18" font-family="Helvetica,sans-Serif" font-size="10.00"># search()</text>
<text text-anchor="middle" x="84.5" y="-7" font-family="Helvetica,sans-Serif" font-size="10.00">}</text>
</a>
</g>
</g>
<!-- Node2 -->
<g id="node2" class="node">
<title>Node2</title>
<g id="a_node2"><a xlink:href="group__spatialpartitioning.html#classPonca_1_1KdTreeQuery" target="_top" xlink:title=" ">
<polygon fill="white" stroke="#bfbfbf" points="132.5,-207 12.5,-207 12.5,-122 132.5,-122 132.5,-207"/>
<text text-anchor="start" x="20.5" y="-195" font-family="Helvetica,sans-Serif" font-size="10.00">{Ponca::KdTreeQuery</text>
<text text-anchor="middle" x="72.5" y="-184" font-family="Helvetica,sans-Serif" font-size="10.00">&lt; DataPoint &gt;</text>
<text text-anchor="start" x="20.5" y="-173" font-family="Helvetica,sans-Serif" font-size="10.00">|# m_kdtree</text>
<text text-anchor="start" x="20.5" y="-162" font-family="Helvetica,sans-Serif" font-size="10.00"># m_stack</text>
<text text-anchor="start" x="20.5" y="-151" font-family="Helvetica,sans-Serif" font-size="10.00">|+ KdTreeQuery()</text>
<text text-anchor="start" x="20.5" y="-140" font-family="Helvetica,sans-Serif" font-size="10.00"># reset()</text>
<text text-anchor="middle" x="72.5" y="-129" font-family="Helvetica,sans-Serif" font-size="10.00">}</text>
</a>
</g>
</g>
<!-- Node2&#45;&gt;Node1 -->
<g id="edge1" class="edge">
<title>Node2&#45;&gt;Node1</title>
<path fill="none" stroke="#63b8ff" d="M77.66,-111.9C78.56,-102.93 79.48,-93.71 80.34,-85.06"/>
<polygon fill="none" stroke="#63b8ff" points="74.18,-111.57 76.66,-121.87 81.14,-112.26 74.18,-111.57"/>
</g>
<!-- Node3 -->
<g id="node3" class="node">
<title>Node3</title>
<g id="a_node3"><a xlink:href="group__spatialpartitioning.html" target="_top" xlink:title=" ">
<polygon fill="white" stroke="#666666" points="302.5,-185 150.5,-185 150.5,-144 302.5,-144 302.5,-185"/>
<text text-anchor="start" x="158.5" y="-173" font-family="Helvetica,sans-Serif" font-size="10.00">{Ponca::NearestIndexQuery</text>
<text text-anchor="middle" x="226.5" y="-162" font-family="Helvetica,sans-Serif" font-size="10.00">&lt; DataPoint::Scalar &gt;</text>
<text text-anchor="middle" x="226.5" y="-151" font-family="Helvetica,sans-Serif" font-size="10.00">||}</text>
</a>
</g>
</g>
<!-- Node3&#45;&gt;Node1 -->
<g id="edge2" class="edge">
<title>Node3&#45;&gt;Node1</title>
<path fill="none" stroke="#63b8ff" d="M195.47,-137.28C177.44,-122.04 154.3,-102.49 133.83,-85.18"/>
<polygon fill="none" stroke="#63b8ff" points="193.47,-140.17 203.37,-143.95 197.99,-134.82 193.47,-140.17"/>
</g>
<!-- Node4 -->
<g id="node4" class="node">
<title>Node4</title>
<g id="a_node4"><a xlink:href="group__spatialpartitioning.html#structPonca_1_1Query" target="_top" xlink:title=" ">
<polygon fill="white" stroke="#bfbfbf" points="188,-554.5 65,-554.5 65,-491.5 188,-491.5 188,-554.5"/>
<text text-anchor="start" x="73" y="-542.5" font-family="Helvetica,sans-Serif" font-size="10.00">{Ponca::Query&lt; Input</text>
<text text-anchor="middle" x="126.5" y="-531.5" font-family="Helvetica,sans-Serif" font-size="10.00">_, Output_ &gt;</text>
<text text-anchor="start" x="73" y="-520.5" font-family="Helvetica,sans-Serif" font-size="10.00">||+ Query()</text>
<text text-anchor="start" x="73" y="-509.5" font-family="Helvetica,sans-Serif" font-size="10.00">+ Query()</text>
<text text-anchor="middle" x="126.5" y="-498.5" font-family="Helvetica,sans-Serif" font-size="10.00">}</text>
</a>
</g>
</g>
<!-- Node4&#45;&gt;Node3 -->
<g id="edge3" class="edge">
<title>Node4&#45;&gt;Node3</title>
<path fill="none" stroke="#63b8ff" d="M137.85,-481.53C159.33,-404.96 205.17,-241.55 220.99,-185.13"/>
<polygon fill="none" stroke="#63b8ff" points="134.44,-480.72 135.11,-491.3 141.18,-482.61 134.44,-480.72"/>
</g>
<!-- Node5 -->
<g id="node5" class="node">
<title>Node5</title>
<g id="a_node5"><a xlink:title=" ">
<polygon fill="white" stroke="#bfbfbf" points="256,-660 203,-660 203,-630 256,-630 256,-660"/>
<text text-anchor="middle" x="229.5" y="-648" font-family="Helvetica,sans-Serif" font-size="10.00">{Input_</text>
<text text-anchor="middle" x="229.5" y="-637" font-family="Helvetica,sans-Serif" font-size="10.00">||}</text>
</a>
</g>
</g>
<!-- Node5&#45;&gt;Node4 -->
<g id="edge4" class="edge">
<title>Node5&#45;&gt;Node4</title>
<path fill="none" stroke="#63b8ff" d="M210.62,-622C194.44,-603.15 170.96,-575.8 152.92,-554.78"/>
<polygon fill="none" stroke="#63b8ff" points="208.11,-624.45 217.28,-629.76 213.42,-619.9 208.11,-624.45"/>
</g>
<!-- Node15 -->
<g id="node15" class="node">
<title>Node15</title>
<g id="a_node15"><a xlink:href="group__spatialpartitioning.html#structPonca_1_1Query" target="_top" xlink:title=" ">
<polygon fill="white" stroke="#bfbfbf" points="329,-554.5 206,-554.5 206,-491.5 329,-491.5 329,-554.5"/>
<text text-anchor="start" x="214" y="-542.5" font-family="Helvetica,sans-Serif" font-size="10.00">{Ponca::Query&lt; Input</text>
<text text-anchor="middle" x="267.5" y="-531.5" font-family="Helvetica,sans-Serif" font-size="10.00">_, Output_ &gt;</text>
<text text-anchor="start" x="214" y="-520.5" font-family="Helvetica,sans-Serif" font-size="10.00">||+ Query()</text>
<text text-anchor="start" x="214" y="-509.5" font-family="Helvetica,sans-Serif" font-size="10.00">+ Query()</text>
<text text-anchor="middle" x="267.5" y="-498.5" font-family="Helvetica,sans-Serif" font-size="10.00">}</text>
</a>
</g>
</g>
<!-- Node5&#45;&gt;Node15 -->
<g id="edge16" class="edge">
<title>Node5&#45;&gt;Node15</title>
<path fill="none" stroke="#63b8ff" d="M237.04,-620.2C242.98,-601.44 251.31,-575.14 257.75,-554.78"/>
<polygon fill="none" stroke="#63b8ff" points="233.69,-619.17 234.01,-629.76 240.36,-621.29 233.69,-619.17"/>
</g>
<!-- Node6 -->
<g id="node6" class="node">
<title>Node6</title>
<g id="a_node6"><a xlink:title=" ">
<polygon fill="white" stroke="#bfbfbf" points="180,-660 119,-660 119,-630 180,-630 180,-660"/>
<text text-anchor="middle" x="149.5" y="-648" font-family="Helvetica,sans-Serif" font-size="10.00">{Output_</text>
<text text-anchor="middle" x="149.5" y="-637" font-family="Helvetica,sans-Serif" font-size="10.00">||}</text>
</a>
</g>
</g>
<!-- Node6&#45;&gt;Node4 -->
<g id="edge5" class="edge">
<title>Node6&#45;&gt;Node4</title>
<path fill="none" stroke="#63b8ff" d="M144.89,-619.94C141.3,-601.2 136.28,-575.04 132.4,-554.78"/>
<polygon fill="none" stroke="#63b8ff" points="141.45,-620.6 146.77,-629.76 148.33,-619.28 141.45,-620.6"/>
</g>
<!-- Node6&#45;&gt;Node15 -->
<g id="edge17" class="edge">
<title>Node6&#45;&gt;Node15</title>
<path fill="none" stroke="#63b8ff" d="M170.88,-622.25C189.43,-603.4 216.47,-575.89 237.24,-554.78"/>
<polygon fill="none" stroke="#63b8ff" points="168.02,-620.18 163.5,-629.76 173.01,-625.09 168.02,-620.18"/>
</g>
<!-- Node7 -->
<g id="node7" class="node">
<title>Node7</title>
<g id="a_node7"><a xlink:href="group__spatialpartitioning.html#structPonca_1_1NearestIndexQuery" target="_top" xlink:title="Base Query class combining QueryInputIsIndex and QueryOutputIsNearest.">
<polygon fill="white" stroke="#666666" points="375.5,-295 223.5,-295 223.5,-254 375.5,-254 375.5,-295"/>
<text text-anchor="start" x="231.5" y="-283" font-family="Helvetica,sans-Serif" font-size="10.00">{Ponca::NearestIndexQuery</text>
<text text-anchor="middle" x="299.5" y="-272" font-family="Helvetica,sans-Serif" font-size="10.00">&lt; Scalar &gt;</text>
<text text-anchor="middle" x="299.5" y="-261" font-family="Helvetica,sans-Serif" font-size="10.00">||}</text>
</a>
</g>
</g>
<!-- Node7&#45;&gt;Node3 -->
<g id="edge6" class="edge">
<title>Node7&#45;&gt;Node3</title>
<path fill="none" stroke="orange" d="M280.53,-245.44C267.77,-226.56 251.26,-202.14 239.87,-185.28"/>
<polygon fill="orange" stroke="orange" points="277.78,-247.62 286.28,-253.94 283.58,-243.7 277.78,-247.62"/>
<text text-anchor="middle" x="328.5" y="-228" font-family="Helvetica,sans-Serif" font-size="10.00"> &lt; DataPoint::Scalar &gt;</text>
</g>
<!-- Node8 -->
<g id="node8" class="node">
<title>Node8</title>
<g id="a_node8"><a xlink:href="group__spatialpartitioning.html" target="_top" xlink:title=" ">
<polygon fill="white" stroke="#bfbfbf" points="411,-406 244,-406 244,-332 411,-332 411,-406"/>
<text text-anchor="start" x="252" y="-394" font-family="Helvetica,sans-Serif" font-size="10.00">{Ponca::Query&lt; QueryInput</text>
<text text-anchor="start" x="252" y="-383" font-family="Helvetica,sans-Serif" font-size="10.00">IsIndex, QueryOutputIsNearest</text>
<text text-anchor="middle" x="327.5" y="-372" font-family="Helvetica,sans-Serif" font-size="10.00">&lt; Scalar &gt; &gt;</text>
<text text-anchor="start" x="252" y="-361" font-family="Helvetica,sans-Serif" font-size="10.00">||+ Query()</text>
<text text-anchor="start" x="252" y="-350" font-family="Helvetica,sans-Serif" font-size="10.00">+ Query()</text>
<text text-anchor="middle" x="327.5" y="-339" font-family="Helvetica,sans-Serif" font-size="10.00">}</text>
</a>
</g>
</g>
<!-- Node8&#45;&gt;Node7 -->
<g id="edge7" class="edge">
<title>Node8&#45;&gt;Node7</title>
<path fill="none" stroke="#63b8ff" d="M313.7,-322.4C310.78,-312.75 307.84,-303.07 305.41,-295.03"/>
<polygon fill="none" stroke="#63b8ff" points="310.35,-323.42 316.59,-331.97 317.05,-321.39 310.35,-323.42"/>
</g>
<!-- Node9 -->
<g id="node9" class="node">
<title>Node9</title>
<g id="a_node9"><a xlink:href="group__spatialpartitioning.html#structPonca_1_1QueryInputIsIndex" target="_top" xlink:title="Base class for queries storing points.">
<polygon fill="white" stroke="#666666" points="679,-543.5 532,-543.5 532,-502.5 679,-502.5 679,-543.5"/>
<text text-anchor="middle" x="605.5" y="-531.5" font-family="Helvetica,sans-Serif" font-size="10.00">{Ponca::QueryInputIsIndex</text>
<text text-anchor="start" x="540" y="-520.5" font-family="Helvetica,sans-Serif" font-size="10.00">||+ QueryInputIsIndex()</text>
<text text-anchor="middle" x="605.5" y="-509.5" font-family="Helvetica,sans-Serif" font-size="10.00">}</text>
</a>
</g>
</g>
<!-- Node9&#45;&gt;Node8 -->
<g id="edge8" class="edge">
<title>Node9&#45;&gt;Node8</title>
<path fill="none" stroke="#63b8ff" d="M562.78,-497.22C550.17,-489.98 536.32,-482.11 523.5,-475 481.48,-451.68 433.97,-426.21 396.25,-406.19"/>
<polygon fill="none" stroke="#63b8ff" points="561.29,-500.4 571.71,-502.35 564.78,-494.33 561.29,-500.4"/>
</g>
<!-- Node10 -->
<g id="node10" class="node">
<title>Node10</title>
<g id="a_node10"><a xlink:href="group__spatialpartitioning.html" target="_top" xlink:title=" ">
<polygon fill="white" stroke="#666666" points="665.5,-682 545.5,-682 545.5,-608 665.5,-608 665.5,-682"/>
<text text-anchor="start" x="553.5" y="-670" font-family="Helvetica,sans-Serif" font-size="10.00">{Ponca::QueryInput&lt;</text>
<text text-anchor="middle" x="605.5" y="-659" font-family="Helvetica,sans-Serif" font-size="10.00"> int &gt;</text>
<text text-anchor="start" x="553.5" y="-648" font-family="Helvetica,sans-Serif" font-size="10.00">||+ QueryInput()</text>
<text text-anchor="start" x="553.5" y="-637" font-family="Helvetica,sans-Serif" font-size="10.00">+ input()</text>
<text text-anchor="start" x="553.5" y="-626" font-family="Helvetica,sans-Serif" font-size="10.00"># editInput()</text>
<text text-anchor="middle" x="605.5" y="-615" font-family="Helvetica,sans-Serif" font-size="10.00">}</text>
</a>
</g>
</g>
<!-- Node10&#45;&gt;Node9 -->
<g id="edge9" class="edge">
<title>Node10&#45;&gt;Node9</title>
<path fill="none" stroke="#63b8ff" d="M605.5,-597.8C605.5,-578.99 605.5,-558.27 605.5,-543.59"/>
<polygon fill="none" stroke="#63b8ff" points="602,-598 605.5,-608 609,-598 602,-598"/>
</g>
<!-- Node11 -->
<g id="node11" class="node">
<title>Node11</title>
<g id="a_node11"><a xlink:href="group__spatialpartitioning.html#structPonca_1_1QueryInputBase" target="_top" xlink:title="Base class for queries input type.">
<polygon fill="white" stroke="#666666" points="655.5,-870 519.5,-870 519.5,-840 655.5,-840 655.5,-870"/>
<text text-anchor="middle" x="587.5" y="-858" font-family="Helvetica,sans-Serif" font-size="10.00">{Ponca::QueryInputBase</text>
<text text-anchor="middle" x="587.5" y="-847" font-family="Helvetica,sans-Serif" font-size="10.00">||}</text>
</a>
</g>
</g>
<!-- Node11&#45;&gt;Node10 -->
<g id="edge10" class="edge">
<title>Node11&#45;&gt;Node10</title>
<path fill="none" stroke="#63b8ff" d="M588.32,-829.6C589.29,-804.37 591.22,-763.87 594.5,-729 595.94,-713.66 598.08,-696.79 600.08,-682.29"/>
<polygon fill="none" stroke="#63b8ff" points="584.82,-829.6 587.95,-839.73 591.81,-829.86 584.82,-829.6"/>
</g>
<!-- Node12 -->
<g id="node12" class="node">
<title>Node12</title>
<g id="a_node12"><a xlink:href="group__spatialpartitioning.html#structPonca_1_1QueryInput" target="_top" xlink:title="Base class for typed queries input type.">
<polygon fill="white" stroke="#666666" points="723.5,-803 603.5,-803 603.5,-729 723.5,-729 723.5,-803"/>
<text text-anchor="start" x="611.5" y="-791" font-family="Helvetica,sans-Serif" font-size="10.00">{Ponca::QueryInput&lt;</text>
<text text-anchor="middle" x="663.5" y="-780" font-family="Helvetica,sans-Serif" font-size="10.00"> InputType_ &gt;</text>
<text text-anchor="start" x="611.5" y="-769" font-family="Helvetica,sans-Serif" font-size="10.00">||+ QueryInput()</text>
<text text-anchor="start" x="611.5" y="-758" font-family="Helvetica,sans-Serif" font-size="10.00">+ input()</text>
<text text-anchor="start" x="611.5" y="-747" font-family="Helvetica,sans-Serif" font-size="10.00"># editInput()</text>
<text text-anchor="middle" x="663.5" y="-736" font-family="Helvetica,sans-Serif" font-size="10.00">}</text>
</a>
</g>
</g>
<!-- Node11&#45;&gt;Node12 -->
<g id="edge12" class="edge">
<title>Node11&#45;&gt;Node12</title>
<path fill="none" stroke="#63b8ff" d="M606.65,-832.08C614.3,-823.32 623.33,-812.99 631.91,-803.17"/>
<polygon fill="none" stroke="#63b8ff" points="603.99,-829.8 600.05,-839.63 609.26,-834.41 603.99,-829.8"/>
</g>
<!-- Node12&#45;&gt;Node10 -->
<g id="edge11" class="edge">
<title>Node12&#45;&gt;Node10</title>
<path fill="none" stroke="orange" d="M641.43,-719.72C635.4,-707.35 628.95,-694.11 623.2,-682.32"/>
<polygon fill="orange" stroke="orange" points="638.41,-721.52 645.94,-728.97 644.71,-718.45 638.41,-721.52"/>
<text text-anchor="middle" x="655" y="-703" font-family="Helvetica,sans-Serif" font-size="10.00"> &lt; int &gt;</text>
</g>
<!-- Node13 -->
<g id="node13" class="node">
<title>Node13</title>
<g id="a_node13"><a xlink:href="group__spatialpartitioning.html#structPonca_1_1QueryOutputIsNearest" target="_top" xlink:title="Base class for nearest queries.">
<polygon fill="white" stroke="#666666" points="514,-571 347,-571 347,-475 514,-475 514,-571"/>
<text text-anchor="start" x="355" y="-559" font-family="Helvetica,sans-Serif" font-size="10.00">{Ponca::QueryOutputIsNearest</text>
<text text-anchor="middle" x="430.5" y="-548" font-family="Helvetica,sans-Serif" font-size="10.00">&lt; Scalar &gt;</text>
<text text-anchor="start" x="355" y="-537" font-family="Helvetica,sans-Serif" font-size="10.00">|# m_nearest</text>
<text text-anchor="start" x="355" y="-526" font-family="Helvetica,sans-Serif" font-size="10.00"># m_squared_distance</text>
<text text-anchor="start" x="355" y="-515" font-family="Helvetica,sans-Serif" font-size="10.00">|+ QueryOutputIsNearest()</text>
<text text-anchor="start" x="355" y="-504" font-family="Helvetica,sans-Serif" font-size="10.00">+ get()</text>
<text text-anchor="start" x="355" y="-493" font-family="Helvetica,sans-Serif" font-size="10.00"># reset()</text>
<text text-anchor="middle" x="430.5" y="-482" font-family="Helvetica,sans-Serif" font-size="10.00">}</text>
</a>
</g>
</g>
<!-- Node13&#45;&gt;Node8 -->
<g id="edge13" class="edge">
<title>Node13&#45;&gt;Node8</title>
<path fill="none" stroke="#63b8ff" d="M424.45,-464.52C421.03,-450.4 415.72,-435.92 407.5,-424 403.03,-417.52 397.5,-411.59 391.46,-406.24"/>
<polygon fill="none" stroke="#63b8ff" points="421.12,-465.66 426.63,-474.71 427.96,-464.2 421.12,-465.66"/>
</g>
<!-- Node14 -->
<g id="node14" class="node">
<title>Node14</title>
<g id="a_node14"><a xlink:href="group__spatialpartitioning.html#structPonca_1_1QueryOutputBase" target="_top" xlink:title="Base class for queries output type.">
<polygon fill="white" stroke="#666666" points="502.5,-660 358.5,-660 358.5,-630 502.5,-630 502.5,-660"/>
<text text-anchor="middle" x="430.5" y="-648" font-family="Helvetica,sans-Serif" font-size="10.00">{Ponca::QueryOutputBase</text>
<text text-anchor="middle" x="430.5" y="-637" font-family="Helvetica,sans-Serif" font-size="10.00">||}</text>
</a>
</g>
</g>
<!-- Node14&#45;&gt;Node13 -->
<g id="edge14" class="edge">
<title>Node14&#45;&gt;Node13</title>
<path fill="none" stroke="#63b8ff" d="M430.5,-619.55C430.5,-605.61 430.5,-587.67 430.5,-571.1"/>
<polygon fill="none" stroke="#63b8ff" points="427,-619.76 430.5,-629.76 434,-619.76 427,-619.76"/>
</g>
<!-- Node15&#45;&gt;Node8 -->
<g id="edge15" class="edge">
<title>Node15&#45;&gt;Node8</title>
<path fill="none" stroke="orange" d="M276.6,-481.4C281.26,-463.44 287.62,-442.29 295.5,-424 298.04,-418.09 301.11,-412.04 304.33,-406.23"/>
<polygon fill="orange" stroke="orange" points="273.16,-480.73 274.13,-491.28 279.95,-482.43 273.16,-480.73"/>
<text text-anchor="start" x="295.5" y="-449" font-family="Helvetica,sans-Serif" font-size="10.00"> &lt; QueryInputIsIndex,</text>
<text text-anchor="start" x="295.5" y="-438" font-family="Helvetica,sans-Serif" font-size="10.00"> QueryOutputIsNearest</text>
<text text-anchor="middle" x="351.5" y="-427" font-family="Helvetica,sans-Serif" font-size="10.00">&lt; Scalar &gt; &gt;</text>
</g>
</g>
</svg>
