<?xml version="1.0" encoding="UTF-8" standalone="no"?>
<!DOCTYPE svg PUBLIC "-//W3C//DTD SVG 1.1//EN"
 "http://www.w3.org/Graphics/SVG/1.1/DTD/svg11.dtd">
<!-- Generated by graphviz version 2.43.0 (0)
 -->
<!-- Title: Ponca::CovariancePlaneScaleSpaceDer&lt; DataPoint, _WFunctor, T &gt; Pages: 1 -->
<!--zoomable 702 -->
<svg id="main" version="1.1" xmlns="http://www.w3.org/2000/svg" xmlns:xlink="http://www.w3.org/1999/xlink" xml:space="preserve" onload="init(evt)">
<style type="text/css"><![CDATA[
.edge:hover path { stroke: red; }
.edge:hover polygon { stroke: red; fill: red; }
]]></style>
<script type="text/javascript"><![CDATA[
var edges = document.getElementsByTagName('g');
if (edges && edges.length) {
  for (var i=0;i<edges.length;i++) {
    if (edges[i].id.substr(0,4)=='edge') {
      edges[i].setAttribute('class','edge');
    }
  }
}
]]></script>
        <defs>
                <circle id="rim" cx="0" cy="0" r="7"/>
                <circle id="rim2" cx="0" cy="0" r="3.5"/>
                <g id="zoomPlus">
                        <use xlink:href="#rim" fill="#404040">
                                <set attributeName="fill" to="#808080" begin="zoomplus.mouseover" end="zoomplus.mouseout"/>
                        </use>
                        <path d="M-4,0h8M0,-4v8" fill="none" stroke="white" stroke-width="1.5" pointer-events="none"/>
                </g>
                <g id="zoomMin">
                        <use xlink:href="#rim" fill="#404040">
                                <set attributeName="fill" to="#808080" begin="zoomminus.mouseover" end="zoomminus.mouseout"/>
                        </use>
                        <path d="M-4,0h8" fill="none" stroke="white" stroke-width="1.5" pointer-events="none"/>
                </g>
                <g id="dirArrow">
                        <path fill="none" stroke="white" stroke-width="1.5" d="M0,-3.0v7 M-2.5,-0.5L0,-3.0L2.5,-0.5"/>
                </g>
               <g id="resetDef">
                       <use xlink:href="#rim2" fill="#404040">
                               <set attributeName="fill" to="#808080" begin="reset.mouseover" end="reset.mouseout"/>
                       </use>
               </g>
        </defs>

<script type="text/javascript">
var viewWidth = 380;
var viewHeight = 702;
var sectionId = 'dynsection-1';
</script>
<script xlink:href="svgpan.js"/>
<svg id="graph" class="graph">
<g id="viewport">
<title>Ponca::CovariancePlaneScaleSpaceDer&lt; DataPoint, _WFunctor, T &gt;</title>
<polygon fill="white" stroke="transparent" points="-4,4 -4,-698 375.6,-698 375.6,4 -4,4"/>
<!-- Node1 -->
<g id="node1" class="node">
<title>Node1</title>
<g id="a_node1"><a xlink:title="Differentiation both in scale and space of the CovariancePlaneFit.">
<polygon fill="#bfbfbf" stroke="black" points="0,-0.5 0,-101.5 203,-101.5 203,-0.5 0,-0.5"/>
<text text-anchor="start" x="8" y="-89.5" font-family="Helvetica,sans-Serif" font-size="10.00">Ponca::CovariancePlaneScale</text>
<text text-anchor="middle" x="101.5" y="-78.5" font-family="Helvetica,sans-Serif" font-size="10.00">SpaceDer&lt; DataPoint, _WFunctor, T &gt;</text>
<polyline fill="none" stroke="black" points="0,-71.5 203,-71.5 "/>
<text text-anchor="start" x="8" y="-59.5" font-family="Helvetica,sans-Serif" font-size="10.00">~ __pad0__</text>
<text text-anchor="start" x="8" y="-48.5" font-family="Helvetica,sans-Serif" font-size="10.00">~ _WFunctor</text>
<text text-anchor="start" x="8" y="-37.5" font-family="Helvetica,sans-Serif" font-size="10.00">~ T</text>
<text text-anchor="start" x="8" y="-26.5" font-family="Helvetica,sans-Serif" font-size="10.00">~ __pad1__</text>
<polyline fill="none" stroke="black" points="0,-19.5 203,-19.5 "/>
<text text-anchor="middle" x="101.5" y="-7.5" font-family="Helvetica,sans-Serif" font-size="10.00"> </text>
</a>
</g>
</g>
<!-- Node2 -->
<g id="node2" class="node">
<title>Node2</title>
<g id="a_node2"><a xlink:href="classPonca_1_1Concept_1_1FittingExtensionConcept.html" target="_top" xlink:title="Describes how to add features to an existing fitting procedure.">
<polygon fill="white" stroke="black" points="29.5,-592.5 29.5,-693.5 225.5,-693.5 225.5,-592.5 29.5,-592.5"/>
<text text-anchor="start" x="37.5" y="-681.5" font-family="Helvetica,sans-Serif" font-size="10.00">Ponca::Concept::FittingExtension</text>
<text text-anchor="middle" x="127.5" y="-670.5" font-family="Helvetica,sans-Serif" font-size="10.00">Concept&lt; DataPoint, _WFunctor, T &gt;</text>
<polyline fill="none" stroke="black" points="29.5,-663.5 225.5,-663.5 "/>
<text text-anchor="middle" x="127.5" y="-651.5" font-family="Helvetica,sans-Serif" font-size="10.00"> </text>
<polyline fill="none" stroke="black" points="29.5,-644.5 225.5,-644.5 "/>
<text text-anchor="start" x="37.5" y="-632.5" font-family="Helvetica,sans-Serif" font-size="10.00">+ setWeightFunc()</text>
<text text-anchor="start" x="37.5" y="-621.5" font-family="Helvetica,sans-Serif" font-size="10.00">+ init()</text>
<text text-anchor="start" x="37.5" y="-610.5" font-family="Helvetica,sans-Serif" font-size="10.00">+ addNeighbor()</text>
<text text-anchor="start" x="37.5" y="-599.5" font-family="Helvetica,sans-Serif" font-size="10.00">+ finalize()</text>
</a>
</g>
</g>
<!-- Node2&#45;&gt;Node1 -->
<g id="edge1" class="edge">
<title>Node2&#45;&gt;Node1</title>
<path fill="none" stroke="midnightblue" d="M123.93,-582.17C123.78,-579.41 123.64,-576.68 123.5,-574 114.74,-400.52 106.78,-194.48 103.32,-101.67"/>
<polygon fill="none" stroke="midnightblue" points="120.43,-582.45 124.48,-592.24 127.42,-582.06 120.43,-582.45"/>
</g>
<!-- Node3 -->
<g id="node3" class="node">
<title>Node3</title>
<g id="a_node3"><a xlink:href="classPonca_1_1internal_1_1CovariancePlaneDer.html" target="_top" xlink:title=" ">
<polygon fill="white" stroke="black" points="122.5,-139.5 122.5,-317.5 302.5,-317.5 302.5,-139.5 122.5,-139.5"/>
<text text-anchor="start" x="130.5" y="-305.5" font-family="Helvetica,sans-Serif" font-size="10.00">Ponca::internal::Covariance</text>
<text text-anchor="start" x="130.5" y="-294.5" font-family="Helvetica,sans-Serif" font-size="10.00">PlaneDer&lt; DataPoint, _WFunctor,</text>
<text text-anchor="start" x="130.5" y="-283.5" font-family="Helvetica,sans-Serif" font-size="10.00"> T, internal::FitSpaceDer|internal</text>
<text text-anchor="middle" x="212.5" y="-272.5" font-family="Helvetica,sans-Serif" font-size="10.00">::FitScaleDer &gt;</text>
<polyline fill="none" stroke="black" points="122.5,-265.5 302.5,-265.5 "/>
<text text-anchor="start" x="130.5" y="-253.5" font-family="Helvetica,sans-Serif" font-size="10.00"># NbDerivatives</text>
<text text-anchor="start" x="130.5" y="-242.5" font-family="Helvetica,sans-Serif" font-size="10.00"># DerStorageOrder</text>
<polyline fill="none" stroke="black" points="122.5,-235.5 302.5,-235.5 "/>
<text text-anchor="start" x="130.5" y="-223.5" font-family="Helvetica,sans-Serif" font-size="10.00">+ init()</text>
<text text-anchor="start" x="130.5" y="-212.5" font-family="Helvetica,sans-Serif" font-size="10.00">+ addNeighbor()</text>
<text text-anchor="start" x="130.5" y="-201.5" font-family="Helvetica,sans-Serif" font-size="10.00">+ finalize()</text>
<text text-anchor="start" x="130.5" y="-190.5" font-family="Helvetica,sans-Serif" font-size="10.00">+ dPotential()</text>
<text text-anchor="start" x="130.5" y="-179.5" font-family="Helvetica,sans-Serif" font-size="10.00">+ dNormal()</text>
<text text-anchor="start" x="130.5" y="-168.5" font-family="Helvetica,sans-Serif" font-size="10.00">+ isScaleDer()</text>
<text text-anchor="start" x="130.5" y="-157.5" font-family="Helvetica,sans-Serif" font-size="10.00">+ isSpaceDer()</text>
<text text-anchor="start" x="130.5" y="-146.5" font-family="Helvetica,sans-Serif" font-size="10.00">+ derDimension()</text>
</a>
</g>
</g>
<!-- Node2&#45;&gt;Node3 -->
<g id="edge3" class="edge">
<title>Node2&#45;&gt;Node3</title>
<path fill="none" stroke="midnightblue" d="M126.56,-582.3C127.01,-530.08 130.76,-452.56 146.5,-387 152.04,-363.94 160.56,-339.91 169.66,-317.77"/>
<polygon fill="none" stroke="midnightblue" points="123.06,-582.38 126.51,-592.39 130.06,-582.41 123.06,-582.38"/>
</g>
<!-- Node5 -->
<g id="node5" class="node">
<title>Node5</title>
<g id="a_node5"><a xlink:href="classPonca_1_1internal_1_1CovariancePlaneDer.html" target="_top" xlink:title="Internal generic class computing the derivatives of covariance plane fits.">
<polygon fill="white" stroke="black" points="155.5,-387.5 155.5,-554.5 335.5,-554.5 335.5,-387.5 155.5,-387.5"/>
<text text-anchor="start" x="163.5" y="-542.5" font-family="Helvetica,sans-Serif" font-size="10.00">Ponca::internal::Covariance</text>
<text text-anchor="start" x="163.5" y="-531.5" font-family="Helvetica,sans-Serif" font-size="10.00">PlaneDer&lt; DataPoint, _WFunctor,</text>
<text text-anchor="middle" x="245.5" y="-520.5" font-family="Helvetica,sans-Serif" font-size="10.00"> T, Type &gt;</text>
<polyline fill="none" stroke="black" points="155.5,-513.5 335.5,-513.5 "/>
<text text-anchor="start" x="163.5" y="-501.5" font-family="Helvetica,sans-Serif" font-size="10.00"># NbDerivatives</text>
<text text-anchor="start" x="163.5" y="-490.5" font-family="Helvetica,sans-Serif" font-size="10.00"># DerStorageOrder</text>
<polyline fill="none" stroke="black" points="155.5,-483.5 335.5,-483.5 "/>
<text text-anchor="start" x="163.5" y="-471.5" font-family="Helvetica,sans-Serif" font-size="10.00">+ init()</text>
<text text-anchor="start" x="163.5" y="-460.5" font-family="Helvetica,sans-Serif" font-size="10.00">+ addNeighbor()</text>
<text text-anchor="start" x="163.5" y="-449.5" font-family="Helvetica,sans-Serif" font-size="10.00">+ finalize()</text>
<text text-anchor="start" x="163.5" y="-438.5" font-family="Helvetica,sans-Serif" font-size="10.00">+ dPotential()</text>
<text text-anchor="start" x="163.5" y="-427.5" font-family="Helvetica,sans-Serif" font-size="10.00">+ dNormal()</text>
<text text-anchor="start" x="163.5" y="-416.5" font-family="Helvetica,sans-Serif" font-size="10.00">+ isScaleDer()</text>
<text text-anchor="start" x="163.5" y="-405.5" font-family="Helvetica,sans-Serif" font-size="10.00">+ isSpaceDer()</text>
<text text-anchor="start" x="163.5" y="-394.5" font-family="Helvetica,sans-Serif" font-size="10.00">+ derDimension()</text>
</a>
</g>
</g>
<!-- Node2&#45;&gt;Node5 -->
<g id="edge6" class="edge">
<title>Node2&#45;&gt;Node5</title>
<path fill="none" stroke="midnightblue" d="M167.65,-584.15C174.26,-574.64 181.22,-564.61 188.14,-554.63"/>
<polygon fill="none" stroke="midnightblue" points="164.77,-582.16 161.95,-592.37 170.53,-586.15 164.77,-582.16"/>
</g>
<!-- Node3&#45;&gt;Node1 -->
<g id="edge2" class="edge">
<title>Node3&#45;&gt;Node1</title>
<path fill="none" stroke="midnightblue" d="M151.45,-130.97C145.05,-120.86 138.76,-110.91 132.91,-101.66"/>
<polygon fill="none" stroke="midnightblue" points="148.53,-132.91 156.84,-139.49 154.45,-129.17 148.53,-132.91"/>
</g>
<!-- Node4 -->
<g id="node4" class="node">
<title>Node4</title>
<g id="a_node4"><a xlink:title=" ">
<polygon fill="white" stroke="#bfbfbf" points="314,-614.5 314,-671.5 343,-671.5 343,-614.5 314,-614.5"/>
<text text-anchor="middle" x="328.5" y="-659.5" font-family="Helvetica,sans-Serif" font-size="10.00">T</text>
<polyline fill="none" stroke="#bfbfbf" points="314,-652.5 343,-652.5 "/>
<text text-anchor="middle" x="328.5" y="-640.5" font-family="Helvetica,sans-Serif" font-size="10.00"> </text>
<polyline fill="none" stroke="#bfbfbf" points="314,-633.5 343,-633.5 "/>
<text text-anchor="middle" x="328.5" y="-621.5" font-family="Helvetica,sans-Serif" font-size="10.00"> </text>
</a>
</g>
</g>
<!-- Node4&#45;&gt;Node3 -->
<g id="edge4" class="edge">
<title>Node4&#45;&gt;Node3</title>
<path fill="none" stroke="midnightblue" d="M342.5,-604.68C362.61,-544.64 392.75,-424.4 349.5,-336 338.91,-314.35 321.56,-295.83 302.71,-280.6"/>
<polygon fill="none" stroke="midnightblue" points="339.08,-603.88 339.13,-614.47 345.69,-606.16 339.08,-603.88"/>
</g>
<!-- Node4&#45;&gt;Node5 -->
<g id="edge7" class="edge">
<title>Node4&#45;&gt;Node5</title>
<path fill="none" stroke="midnightblue" d="M310.44,-605C303.19,-590.15 294.52,-572.4 285.91,-554.77"/>
<polygon fill="none" stroke="midnightblue" points="307.45,-606.86 314.98,-614.31 313.74,-603.79 307.45,-606.86"/>
</g>
<!-- Node5&#45;&gt;Node3 -->
<g id="edge5" class="edge">
<title>Node5&#45;&gt;Node3</title>
<path fill="none" stroke="orange" d="M227.74,-377.26C227.31,-374.48 226.89,-371.72 226.5,-369 224.12,-352.5 222.02,-334.84 220.21,-317.82"/>
<polygon fill="orange" stroke="orange" points="224.33,-378.1 229.37,-387.42 231.24,-376.99 224.33,-378.1"/>
<text text-anchor="start" x="226.5" y="-361" font-family="Helvetica,sans-Serif" font-size="10.00"> &lt; DataPoint, _WFunctor,</text>
<text text-anchor="start" x="226.5" y="-350" font-family="Helvetica,sans-Serif" font-size="10.00"> T, internal::FitSpaceDer|</text>
<text text-anchor="middle" x="288" y="-339" font-family="Helvetica,sans-Serif" font-size="10.00">internal::FitScaleDer &gt;</text>
</g>
</g>
</svg>
        <g id="navigator" transform="translate(0 0)" fill="#404254">
                <rect fill="#f2f5e9" fill-opacity="0.5" stroke="#606060" stroke-width=".5" x="0" y="0" width="60" height="60"/>
                <use id="zoomplus" xlink:href="#zoomPlus" x="17" y="9" onmousedown="handleZoom(evt,'in')"/>
                <use id="zoomminus" xlink:href="#zoomMin" x="42" y="9" onmousedown="handleZoom(evt,'out')"/>
                <use id="reset" xlink:href="#resetDef" x="30" y="36" onmousedown="handleReset()"/>
                <g id="arrowUp" xlink:href="#dirArrow" transform="translate(30 24)" onmousedown="handlePan(0,-1)">
                  <use xlink:href="#rim" fill="#404040">
                        <set attributeName="fill" to="#808080" begin="arrowUp.mouseover" end="arrowUp.mouseout"/>
                  </use>
                  <path fill="none" stroke="white" stroke-width="1.5" d="M0,-3.0v7 M-2.5,-0.5L0,-3.0L2.5,-0.5"/>
                </g>
                <g id="arrowRight" xlink:href="#dirArrow" transform="rotate(90) translate(36 -43)" onmousedown="handlePan(1,0)">
                  <use xlink:href="#rim" fill="#404040">
                        <set attributeName="fill" to="#808080" begin="arrowRight.mouseover" end="arrowRight.mouseout"/>
                  </use>
                  <path fill="none" stroke="white" stroke-width="1.5" d="M0,-3.0v7 M-2.5,-0.5L0,-3.0L2.5,-0.5"/>
                </g>
                <g id="arrowDown" xlink:href="#dirArrow" transform="rotate(180) translate(-30 -48)" onmousedown="handlePan(0,1)">
                  <use xlink:href="#rim" fill="#404040">
                        <set attributeName="fill" to="#808080" begin="arrowDown.mouseover" end="arrowDown.mouseout"/>
                  </use>
                  <path fill="none" stroke="white" stroke-width="1.5" d="M0,-3.0v7 M-2.5,-0.5L0,-3.0L2.5,-0.5"/>
                </g>
                <g id="arrowLeft" xlink:href="#dirArrow" transform="rotate(270) translate(-36 17)" onmousedown="handlePan(-1,0)">
                  <use xlink:href="#rim" fill="#404040">
                        <set attributeName="fill" to="#808080" begin="arrowLeft.mouseover" end="arrowLeft.mouseout"/>
                  </use>
                  <path fill="none" stroke="white" stroke-width="1.5" d="M0,-3.0v7 M-2.5,-0.5L0,-3.0L2.5,-0.5"/>
                </g>
        </g>
        <svg viewBox="0 0 15 15" width="100%" height="30px" preserveAspectRatio="xMaxYMin meet">
         <g id="arrow_out" transform="scale(0.3 0.3)">
          <a xlink:href="classPonca_1_1CovariancePlaneScaleSpaceDer__coll__graph_org.svg" target="_base">
           <rect id="button" ry="5" rx="5" y="6" x="6" height="38" width="38"
                fill="#f2f5e9" fill-opacity="0.5" stroke="#606060" stroke-width="1.0"/>
           <path id="arrow"
             d="M 11.500037,31.436501 C 11.940474,20.09759 22.043105,11.32322 32.158766,21.979434 L 37.068811,17.246167 C 37.068811,17.246167 37.088388,32 37.088388,32 L 22.160133,31.978069 C 22.160133,31.978069 26.997745,27.140456 26.997745,27.140456 C 18.528582,18.264221 13.291696,25.230495 11.500037,31.436501 z"
             style="fill:#404040;"/>
          </a>
         </g>
        </svg>
</svg>
