<?xml version="1.0" encoding="UTF-8" standalone="no"?>
<!DOCTYPE svg PUBLIC "-//W3C//DTD SVG 1.1//EN"
 "http://www.w3.org/Graphics/SVG/1.1/DTD/svg11.dtd">
<!-- Generated by graphviz version 2.43.0 (0)
 -->
<!-- Title: Ponca::OrientedSphereFitImpl&lt; DataPoint, _WFunctor, T &gt; Pages: 1 -->
<svg width="215pt" height="248pt"
 viewBox="0.00 0.00 215.00 248.00" xmlns="http://www.w3.org/2000/svg" xmlns:xlink="http://www.w3.org/1999/xlink">
<g id="graph0" class="graph" transform="scale(1 1) rotate(0) translate(4 244)">
<title>Ponca::OrientedSphereFitImpl&lt; DataPoint, _WFunctor, T &gt;</title>
<!-- Node1 -->
<g id="node1" class="node">
<title>Node1</title>
<g id="a_node1"><a xlink:title="Algebraic Sphere fitting procedure on oriented point sets.">
<polygon fill="#bfbfbf" stroke="black" points="29,-0.5 29,-145.5 207,-145.5 207,-0.5 29,-0.5"/>
<text text-anchor="start" x="37" y="-133.5" font-family="Helvetica,sans-Serif" font-size="10.00">Ponca::OrientedSphereFit</text>
<text text-anchor="middle" x="118" y="-122.5" font-family="Helvetica,sans-Serif" font-size="10.00">Impl&lt; DataPoint, _WFunctor, T &gt;</text>
<polyline fill="none" stroke="black" points="29,-115.5 207,-115.5 "/>
<text text-anchor="start" x="37" y="-103.5" font-family="Helvetica,sans-Serif" font-size="10.00"># m_sumDotPN</text>
<text text-anchor="start" x="37" y="-92.5" font-family="Helvetica,sans-Serif" font-size="10.00"># m_sumDotPP</text>
<text text-anchor="start" x="37" y="-81.5" font-family="Helvetica,sans-Serif" font-size="10.00"># m_nume</text>
<text text-anchor="start" x="37" y="-70.5" font-family="Helvetica,sans-Serif" font-size="10.00"># m_deno</text>
<polyline fill="none" stroke="black" points="29,-63.5 207,-63.5 "/>
<text text-anchor="start" x="37" y="-51.5" font-family="Helvetica,sans-Serif" font-size="10.00">+ orientedSphereFit()</text>
<text text-anchor="start" x="37" y="-40.5" font-family="Helvetica,sans-Serif" font-size="10.00">+ orientedSphereFit()</text>
<text text-anchor="start" x="37" y="-29.5" font-family="Helvetica,sans-Serif" font-size="10.00">+ init()</text>
<text text-anchor="start" x="37" y="-18.5" font-family="Helvetica,sans-Serif" font-size="10.00">+ addLocalNeighbor()</text>
<text text-anchor="start" x="37" y="-7.5" font-family="Helvetica,sans-Serif" font-size="10.00">+ finalize()</text>
</a>
</g>
</g>
<!-- Node2 -->
<g id="node2" class="node">
<title>Node2</title>
<g id="a_node2"><a xlink:title=" ">
<polygon fill="none" stroke="#bfbfbf" points="0,-182.5 0,-239.5 136,-239.5 136,-182.5 0,-182.5"/>
<text text-anchor="middle" x="68" y="-227.5" font-family="Helvetica,sans-Serif" font-size="10.00">FittingProcedureConcept</text>
<polyline fill="none" stroke="#bfbfbf" points="0,-220.5 136,-220.5 "/>
<text text-anchor="middle" x="68" y="-208.5" font-family="Helvetica,sans-Serif" font-size="10.00"> </text>
<polyline fill="none" stroke="#bfbfbf" points="0,-201.5 136,-201.5 "/>
<text text-anchor="middle" x="68" y="-189.5" font-family="Helvetica,sans-Serif" font-size="10.00"> </text>
</a>
</g>
</g>
<!-- Node2&#45;&gt;Node1 -->
<g id="edge1" class="edge">
<title>Node2&#45;&gt;Node1</title>
<path fill="none" stroke="midnightblue" d="M81.64,-172.91C84.76,-164.4 88.19,-155.08 91.66,-145.66"/>
<polygon fill="none" stroke="midnightblue" points="78.28,-171.88 78.12,-182.48 84.85,-174.3 78.28,-171.88"/>
</g>
<!-- Node3 -->
<g id="node3" class="node">
<title>Node3</title>
<g id="a_node3"><a xlink:title=" ">
<polygon fill="none" stroke="#bfbfbf" points="154.5,-182.5 154.5,-239.5 183.5,-239.5 183.5,-182.5 154.5,-182.5"/>
<text text-anchor="middle" x="169" y="-227.5" font-family="Helvetica,sans-Serif" font-size="10.00">T</text>
<polyline fill="none" stroke="#bfbfbf" points="154.5,-220.5 183.5,-220.5 "/>
<text text-anchor="middle" x="169" y="-208.5" font-family="Helvetica,sans-Serif" font-size="10.00"> </text>
<polyline fill="none" stroke="#bfbfbf" points="154.5,-201.5 183.5,-201.5 "/>
<text text-anchor="middle" x="169" y="-189.5" font-family="Helvetica,sans-Serif" font-size="10.00"> </text>
</a>
</g>
</g>
<!-- Node3&#45;&gt;Node1 -->
<g id="edge2" class="edge">
<title>Node3&#45;&gt;Node1</title>
<path fill="none" stroke="midnightblue" d="M155.09,-172.91C151.9,-164.4 148.4,-155.08 144.87,-145.66"/>
<polygon fill="none" stroke="midnightblue" points="151.89,-174.34 158.68,-182.48 158.45,-171.89 151.89,-174.34"/>
</g>
</g>
</svg>
