<?xml version="1.0" encoding="UTF-8" standalone="no"?>
<!DOCTYPE svg PUBLIC "-//W3C//DTD SVG 1.1//EN"
 "http://www.w3.org/Graphics/SVG/1.1/DTD/svg11.dtd">
<!-- Generated by graphviz version 2.43.0 (0)
 -->
<!-- Title: Ponca::KdTreeDenseBase&lt; Traits &gt; Pages: 1 -->
<svg width="193pt" height="848pt"
 viewBox="0.00 0.00 193.00 848.00" xmlns="http://www.w3.org/2000/svg" xmlns:xlink="http://www.w3.org/1999/xlink">
<g id="graph0" class="graph" transform="scale(1 1) rotate(0) translate(4 844)">
<title>Ponca::KdTreeDenseBase&lt; Traits &gt;</title>
<!-- Node1 -->
<g id="Node000001" class="node">
<title>Node1</title>
<g id="a_Node000001"><a xlink:title="Customizable base class for dense KdTree datastructure.">
<polygon fill="#999999" stroke="transparent" points="142,-316 8,-316 8,-241 142,-241 142,-316"/>
<text text-anchor="start" x="13" y="-303.5" font-family="Helvetica,sans-Serif" font-size="10.00">Ponca::KdTreeDenseBase</text>
<text text-anchor="start" x="50.5" y="-292.5" font-family="Helvetica,sans-Serif" font-size="10.00">&lt; Traits &gt;</text>
<text text-anchor="start" x="73" y="-277.5" font-family="Helvetica,sans-Serif" font-size="10.00"> </text>
<text text-anchor="start" x="16" y="-262.5" font-family="Helvetica,sans-Serif" font-size="10.00">+</text>
<text text-anchor="start" x="33" y="-262.5" font-family="Helvetica,sans-Serif" font-size="10.00">KdTreeDenseBase()</text>
<text text-anchor="start" x="16" y="-247.5" font-family="Helvetica,sans-Serif" font-size="10.00">+</text>
<text text-anchor="start" x="33" y="-247.5" font-family="Helvetica,sans-Serif" font-size="10.00">KdTreeDenseBase()</text>
<polygon fill="#666666" stroke="#666666" points="8,-287.5 8,-287.5 142,-287.5 142,-287.5 8,-287.5"/>
<polygon fill="#666666" stroke="#666666" points="8,-272.5 8,-272.5 142,-272.5 142,-272.5 8,-272.5"/>
<polygon fill="none" stroke="#666666" points="8,-241 8,-316 142,-316 142,-241 8,-241"/>
</a>
</g>
</g>
<!-- Node4 -->
<g id="Node000004" class="node">
<title>Node4</title>
<g id="a_Node000004"><a xlink:href="classPonca_1_1KdTreeDenseBase.html" target="_top" xlink:title=" ">
<polygon fill="white" stroke="transparent" points="142,-183 8,-183 8,-97 142,-97 142,-183"/>
<text text-anchor="start" x="13" y="-171" font-family="Helvetica,sans-Serif" font-size="10.00">Ponca::KdTreeDenseBase</text>
<text text-anchor="start" x="13" y="-160" font-family="Helvetica,sans-Serif" font-size="10.00">&lt; KdTreeDefaultTraits</text>
<text text-anchor="start" x="34" y="-149" font-family="Helvetica,sans-Serif" font-size="10.00">&lt; DataPoint &gt; &gt;</text>
<text text-anchor="start" x="73" y="-134" font-family="Helvetica,sans-Serif" font-size="10.00"> </text>
<text text-anchor="start" x="16" y="-119" font-family="Helvetica,sans-Serif" font-size="10.00">+</text>
<text text-anchor="start" x="33" y="-119" font-family="Helvetica,sans-Serif" font-size="10.00">KdTreeDenseBase()</text>
<text text-anchor="start" x="16" y="-104" font-family="Helvetica,sans-Serif" font-size="10.00">+</text>
<text text-anchor="start" x="33" y="-104" font-family="Helvetica,sans-Serif" font-size="10.00">KdTreeDenseBase()</text>
<polygon fill="#666666" stroke="#666666" points="8,-144 8,-144 142,-144 142,-144 8,-144"/>
<polygon fill="#666666" stroke="#666666" points="8,-129 8,-129 142,-129 142,-129 8,-129"/>
<polygon fill="none" stroke="#666666" points="8,-97 8,-183 142,-183 142,-97 8,-97"/>
</a>
</g>
</g>
<!-- Node1&#45;&gt;Node4 -->
<g id="edge3_Node000001_Node000004" class="edge">
<title>Node1&#45;&gt;Node4</title>
<g id="a_edge3_Node000001_Node000004"><a xlink:title=" ">
<path fill="none" stroke="orange" d="M75,-230.63C75,-215.33 75,-198.44 75,-183.49"/>
<polygon fill="orange" stroke="orange" points="71.5,-230.92 75,-240.92 78.5,-230.92 71.5,-230.92"/>
</a>
</g>
<text text-anchor="start" x="75" y="-215" font-family="Helvetica,sans-Serif" font-size="10.00" fill="grey"> &lt; KdTreeDefaultTraits</text>
<text text-anchor="middle" x="130" y="-204" font-family="Helvetica,sans-Serif" font-size="10.00" fill="grey">&lt; DataPoint &gt; &gt;</text>
</g>
<!-- Node2 -->
<g id="Node000002" class="node">
<title>Node2</title>
<g id="a_Node000002"><a xlink:href="classPonca_1_1KdTreeBase.html" target="_top" xlink:title=" ">
<polygon fill="white" stroke="transparent" points="135.5,-488 14.5,-488 14.5,-353 135.5,-353 135.5,-488"/>
<text text-anchor="start" x="25" y="-475.5" font-family="Helvetica,sans-Serif" font-size="10.00">Ponca::KdTreeBase&lt;</text>
<text text-anchor="start" x="55" y="-464.5" font-family="Helvetica,sans-Serif" font-size="10.00"> Traits &gt;</text>
<text text-anchor="start" x="73.5" y="-449.5" font-family="Helvetica,sans-Serif" font-size="10.00"> </text>
<text text-anchor="start" x="19" y="-434.5" font-family="Helvetica,sans-Serif" font-size="10.00">+</text>
<text text-anchor="start" x="32" y="-434.5" font-family="Helvetica,sans-Serif" font-size="10.00">build()</text>
<text text-anchor="start" x="19" y="-419.5" font-family="Helvetica,sans-Serif" font-size="10.00">+</text>
<text text-anchor="start" x="32" y="-419.5" font-family="Helvetica,sans-Serif" font-size="10.00">build()</text>
<text text-anchor="start" x="19" y="-404.5" font-family="Helvetica,sans-Serif" font-size="10.00">+</text>
<text text-anchor="start" x="32" y="-404.5" font-family="Helvetica,sans-Serif" font-size="10.00">build()</text>
<text text-anchor="start" x="19" y="-389.5" font-family="Helvetica,sans-Serif" font-size="10.00">+</text>
<text text-anchor="start" x="32" y="-389.5" font-family="Helvetica,sans-Serif" font-size="10.00">buildWithSampling()</text>
<text text-anchor="start" x="19" y="-374.5" font-family="Helvetica,sans-Serif" font-size="10.00">#</text>
<text text-anchor="start" x="32" y="-374.5" font-family="Helvetica,sans-Serif" font-size="10.00">buildWithSampling()</text>
<text text-anchor="start" x="19" y="-359.5" font-family="Helvetica,sans-Serif" font-size="10.00">#</text>
<text text-anchor="start" x="32" y="-359.5" font-family="Helvetica,sans-Serif" font-size="10.00">buildWithSampling()</text>
<polygon fill="#666666" stroke="#666666" points="15,-459.5 15,-459.5 136,-459.5 136,-459.5 15,-459.5"/>
<polygon fill="#666666" stroke="#666666" points="15,-444.5 15,-444.5 136,-444.5 136,-444.5 15,-444.5"/>
<polygon fill="none" stroke="#666666" points="14.5,-353 14.5,-488 135.5,-488 135.5,-353 14.5,-353"/>
</a>
</g>
</g>
<!-- Node2&#45;&gt;Node1 -->
<g id="edge1_Node000001_Node000002" class="edge">
<title>Node2&#45;&gt;Node1</title>
<g id="a_edge1_Node000001_Node000002"><a xlink:title=" ">
<path fill="none" stroke="#63b8ff" d="M75,-342.5C75,-333.42 75,-324.5 75,-316.36"/>
<polygon fill="none" stroke="#63b8ff" points="71.5,-342.78 75,-352.78 78.5,-342.78 71.5,-342.78"/>
</a>
</g>
</g>
<!-- Node3 -->
<g id="Node000003" class="node">
<title>Node3</title>
<g id="a_Node000003"><a xlink:href="classPonca_1_1StaticKdTreeBase.html" target="_top" xlink:title="Customizable static base class for KdTree datastructure implementations.">
<polygon fill="white" stroke="transparent" points="150,-840 0,-840 0,-525 150,-525 150,-840"/>
<text text-anchor="start" x="14.5" y="-827.5" font-family="Helvetica,sans-Serif" font-size="10.00">Ponca::StaticKdTreeBase</text>
<text text-anchor="start" x="50.5" y="-816.5" font-family="Helvetica,sans-Serif" font-size="10.00">&lt; Traits &gt;</text>
<text text-anchor="start" x="4" y="-801.5" font-family="Helvetica,sans-Serif" font-size="10.00">+</text>
<text text-anchor="start" x="17" y="-801.5" font-family="Helvetica,sans-Serif" font-size="10.00">MAX_NODE_COUNT</text>
<text text-anchor="start" x="4" y="-786.5" font-family="Helvetica,sans-Serif" font-size="10.00">+</text>
<text text-anchor="start" x="17" y="-786.5" font-family="Helvetica,sans-Serif" font-size="10.00">MAX_POINT_COUNT</text>
<text text-anchor="start" x="4" y="-771.5" font-family="Helvetica,sans-Serif" font-size="10.00">+</text>
<text text-anchor="start" x="17" y="-771.5" font-family="Helvetica,sans-Serif" font-size="10.00">MAX_DEPTH</text>
<text text-anchor="start" x="4" y="-756.5" font-family="Helvetica,sans-Serif" font-size="10.00">+</text>
<text text-anchor="start" x="17" y="-756.5" font-family="Helvetica,sans-Serif" font-size="10.00">SUPPORTS_SUBSAMPLING</text>
<text text-anchor="start" x="4" y="-741.5" font-family="Helvetica,sans-Serif" font-size="10.00">#</text>
<text text-anchor="start" x="17" y="-741.5" font-family="Helvetica,sans-Serif" font-size="10.00">m_bufs</text>
<text text-anchor="start" x="4" y="-726.5" font-family="Helvetica,sans-Serif" font-size="10.00">#</text>
<text text-anchor="start" x="17" y="-726.5" font-family="Helvetica,sans-Serif" font-size="10.00">m_min_cell_size</text>
<text text-anchor="start" x="4" y="-711.5" font-family="Helvetica,sans-Serif" font-size="10.00">#</text>
<text text-anchor="start" x="17" y="-711.5" font-family="Helvetica,sans-Serif" font-size="10.00">m_leaf_count</text>
<text text-anchor="start" x="4" y="-696.5" font-family="Helvetica,sans-Serif" font-size="10.00">+</text>
<text text-anchor="start" x="17" y="-696.5" font-family="Helvetica,sans-Serif" font-size="10.00">StaticKdTreeBase()</text>
<text text-anchor="start" x="4" y="-681.5" font-family="Helvetica,sans-Serif" font-size="10.00">+</text>
<text text-anchor="start" x="17" y="-681.5" font-family="Helvetica,sans-Serif" font-size="10.00">nodeCount()</text>
<text text-anchor="start" x="4" y="-666.5" font-family="Helvetica,sans-Serif" font-size="10.00">+</text>
<text text-anchor="start" x="17" y="-666.5" font-family="Helvetica,sans-Serif" font-size="10.00">sampleCount()</text>
<text text-anchor="start" x="4" y="-651.5" font-family="Helvetica,sans-Serif" font-size="10.00">+</text>
<text text-anchor="start" x="17" y="-651.5" font-family="Helvetica,sans-Serif" font-size="10.00">pointCount()</text>
<text text-anchor="start" x="4" y="-636.5" font-family="Helvetica,sans-Serif" font-size="10.00">+</text>
<text text-anchor="start" x="17" y="-636.5" font-family="Helvetica,sans-Serif" font-size="10.00">leafCount()</text>
<text text-anchor="start" x="4" y="-621.5" font-family="Helvetica,sans-Serif" font-size="10.00">+</text>
<text text-anchor="start" x="17" y="-621.5" font-family="Helvetica,sans-Serif" font-size="10.00">points()</text>
<text text-anchor="start" x="4" y="-606.5" font-family="Helvetica,sans-Serif" font-size="10.00">+</text>
<text text-anchor="start" x="17" y="-606.5" font-family="Helvetica,sans-Serif" font-size="10.00">points()</text>
<text text-anchor="start" x="4" y="-591.5" font-family="Helvetica,sans-Serif" font-size="10.00">+</text>
<text text-anchor="start" x="17" y="-591.5" font-family="Helvetica,sans-Serif" font-size="10.00">nodes()</text>
<text text-anchor="start" x="4" y="-576.5" font-family="Helvetica,sans-Serif" font-size="10.00">+</text>
<text text-anchor="start" x="17" y="-576.5" font-family="Helvetica,sans-Serif" font-size="10.00">samples()</text>
<text text-anchor="start" x="4" y="-561.5" font-family="Helvetica,sans-Serif" font-size="10.00">+</text>
<text text-anchor="start" x="17" y="-561.5" font-family="Helvetica,sans-Serif" font-size="10.00">buffers()</text>
<text text-anchor="start" x="17" y="-546.5" font-family="Helvetica,sans-Serif" font-size="10.00">and 19 more...</text>
<text text-anchor="start" x="4" y="-531.5" font-family="Helvetica,sans-Serif" font-size="10.00">#</text>
<text text-anchor="start" x="17" y="-531.5" font-family="Helvetica,sans-Serif" font-size="10.00">StaticKdTreeBase()</text>
<polygon fill="#666666" stroke="#666666" points="0,-811.5 0,-811.5 150,-811.5 150,-811.5 0,-811.5"/>
<polygon fill="#666666" stroke="#666666" points="0,-706.5 0,-706.5 15,-706.5 15,-706.5 0,-706.5"/>
<polygon fill="#666666" stroke="#666666" points="15,-706.5 15,-706.5 150,-706.5 150,-706.5 15,-706.5"/>
<polygon fill="none" stroke="#666666" points="0,-525 0,-840 150,-840 150,-525 0,-525"/>
</a>
</g>
</g>
<!-- Node3&#45;&gt;Node2 -->
<g id="edge2_Node000002_Node000003" class="edge">
<title>Node3&#45;&gt;Node2</title>
<g id="a_edge2_Node000002_Node000003"><a xlink:title=" ">
<path fill="none" stroke="#63b8ff" d="M75,-514.34C75,-505.32 75,-496.55 75,-488.24"/>
<polygon fill="none" stroke="#63b8ff" points="71.5,-514.63 75,-524.63 78.5,-514.63 71.5,-514.63"/>
</a>
</g>
</g>
<!-- Node5 -->
<g id="Node000005" class="node">
<title>Node5</title>
<g id="a_Node000005"><a xlink:href="structPonca_1_1KdTreeDense.html" target="_top" xlink:title="Public interface for dense KdTree datastructure.">
<polygon fill="white" stroke="transparent" points="130,-60 20,-60 20,0 130,0 130,-60"/>
<text text-anchor="start" x="25" y="-48" font-family="Helvetica,sans-Serif" font-size="10.00">Ponca::KdTreeDense</text>
<text text-anchor="start" x="39.5" y="-37" font-family="Helvetica,sans-Serif" font-size="10.00">&lt; DataPoint &gt;</text>
<text text-anchor="start" x="73" y="-22" font-family="Helvetica,sans-Serif" font-size="10.00"> </text>
<text text-anchor="start" x="73" y="-7" font-family="Helvetica,sans-Serif" font-size="10.00"> </text>
<polygon fill="#666666" stroke="#666666" points="20,-32 20,-32 130,-32 130,-32 20,-32"/>
<polygon fill="#666666" stroke="#666666" points="20,-17 20,-17 130,-17 130,-17 20,-17"/>
<polygon fill="none" stroke="#666666" points="20,0 20,-60 130,-60 130,0 20,0"/>
</a>
</g>
</g>
<!-- Node4&#45;&gt;Node5 -->
<g id="edge4_Node000004_Node000005" class="edge">
<title>Node4&#45;&gt;Node5</title>
<g id="a_edge4_Node000004_Node000005"><a xlink:title=" ">
<path fill="none" stroke="#63b8ff" d="M75,-86.69C75,-77.54 75,-68.33 75,-60.1"/>
<polygon fill="none" stroke="#63b8ff" points="71.5,-86.94 75,-96.94 78.5,-86.94 71.5,-86.94"/>
</a>
</g>
</g>
</g>
</svg>
