<?xml version="1.0" encoding="UTF-8" standalone="no"?>
<!DOCTYPE svg PUBLIC "-//W3C//DTD SVG 1.1//EN"
 "http://www.w3.org/Graphics/SVG/1.1/DTD/svg11.dtd">
<!-- Generated by graphviz version 2.43.0 (0)
 -->
<!-- Title: Ponca::DistWeightFilter&lt; _DataPoint, WeightKernel &gt; Pages: 1 -->
<svg width="180pt" height="632pt"
 viewBox="0.00 0.00 180.00 632.00" xmlns="http://www.w3.org/2000/svg" xmlns:xlink="http://www.w3.org/1999/xlink">
<g id="graph0" class="graph" transform="scale(1 1) rotate(0) translate(4 628)">
<title>Ponca::DistWeightFilter&lt; _DataPoint, WeightKernel &gt;</title>
<!-- Node1 -->
<g id="Node000001" class="node">
<title>Node1</title>
<g id="a_Node000001"><a xlink:title="Weight neighbors according to the Euclidean distance between a query and a reference position.">
<polygon fill="#999999" stroke="transparent" points="164.5,-240 7.5,-240 7.5,0 164.5,0 164.5,-240"/>
<text text-anchor="start" x="13" y="-228" font-family="Helvetica,sans-Serif" font-size="10.00">Ponca::DistWeightFilter</text>
<text text-anchor="start" x="13" y="-217" font-family="Helvetica,sans-Serif" font-size="10.00">&lt; _DataPoint, WeightKernel &gt;</text>
<text text-anchor="start" x="24.5" y="-202" font-family="Helvetica,sans-Serif" font-size="10.00">+</text>
<text text-anchor="start" x="50" y="-202" font-family="Helvetica,sans-Serif" font-size="10.00">isCompact</text>
<text text-anchor="start" x="24.5" y="-187" font-family="Helvetica,sans-Serif" font-size="10.00">#</text>
<text text-anchor="start" x="50" y="-187" font-family="Helvetica,sans-Serif" font-size="10.00">m_t</text>
<text text-anchor="start" x="24.5" y="-172" font-family="Helvetica,sans-Serif" font-size="10.00">#</text>
<text text-anchor="start" x="50" y="-172" font-family="Helvetica,sans-Serif" font-size="10.00">m_wk</text>
<text text-anchor="start" x="24.5" y="-157" font-family="Helvetica,sans-Serif" font-size="10.00">+</text>
<text text-anchor="start" x="50" y="-157" font-family="Helvetica,sans-Serif" font-size="10.00">DistWeightFilter()</text>
<text text-anchor="start" x="24.5" y="-142" font-family="Helvetica,sans-Serif" font-size="10.00">+</text>
<text text-anchor="start" x="50" y="-142" font-family="Helvetica,sans-Serif" font-size="10.00">DistWeightFilter()</text>
<text text-anchor="start" x="24.5" y="-127" font-family="Helvetica,sans-Serif" font-size="10.00">+</text>
<text text-anchor="start" x="50" y="-127" font-family="Helvetica,sans-Serif" font-size="10.00">operator()()</text>
<text text-anchor="start" x="24.5" y="-112" font-family="Helvetica,sans-Serif" font-size="10.00">+</text>
<text text-anchor="start" x="50" y="-112" font-family="Helvetica,sans-Serif" font-size="10.00">spacedw()</text>
<text text-anchor="start" x="24.5" y="-97" font-family="Helvetica,sans-Serif" font-size="10.00">+</text>
<text text-anchor="start" x="50" y="-97" font-family="Helvetica,sans-Serif" font-size="10.00">spaced2w()</text>
<text text-anchor="start" x="24.5" y="-82" font-family="Helvetica,sans-Serif" font-size="10.00">+</text>
<text text-anchor="start" x="50" y="-82" font-family="Helvetica,sans-Serif" font-size="10.00">scaledw()</text>
<text text-anchor="start" x="24.5" y="-67" font-family="Helvetica,sans-Serif" font-size="10.00">+</text>
<text text-anchor="start" x="50" y="-67" font-family="Helvetica,sans-Serif" font-size="10.00">scaled2w()</text>
<text text-anchor="start" x="24.5" y="-52" font-family="Helvetica,sans-Serif" font-size="10.00">+</text>
<text text-anchor="start" x="50" y="-52" font-family="Helvetica,sans-Serif" font-size="10.00">scaleSpaced2w()</text>
<text text-anchor="start" x="24.5" y="-37" font-family="Helvetica,sans-Serif" font-size="10.00">+</text>
<text text-anchor="start" x="50" y="-37" font-family="Helvetica,sans-Serif" font-size="10.00">evalScale()</text>
<text text-anchor="start" x="24.5" y="-22" font-family="Helvetica,sans-Serif" font-size="10.00">+</text>
<text text-anchor="start" x="50" y="-22" font-family="Helvetica,sans-Serif" font-size="10.00">frame()</text>
<text text-anchor="start" x="24.5" y="-7" font-family="Helvetica,sans-Serif" font-size="10.00">+</text>
<text text-anchor="start" x="50" y="-7" font-family="Helvetica,sans-Serif" font-size="10.00">frame()</text>
<polygon fill="#666666" stroke="#666666" points="8,-212 8,-212 165,-212 165,-212 8,-212"/>
<polygon fill="#666666" stroke="#666666" points="8,-167 8,-167 48,-167 48,-167 8,-167"/>
<polygon fill="#666666" stroke="#666666" points="48,-167 48,-167 165,-167 165,-167 48,-167"/>
<polygon fill="none" stroke="#666666" points="7.5,0 7.5,-240 164.5,-240 164.5,0 7.5,0"/>
</a>
</g>
</g>
<!-- Node2 -->
<g id="Node000002" class="node">
<title>Node2</title>
<g id="a_Node000002"><a xlink:href="classPonca_1_1CenteredNeighborhoodFrame.html" target="_top" xlink:title=" ">
<polygon fill="white" stroke="transparent" points="172,-427 0,-427 0,-277 172,-277 172,-427"/>
<text text-anchor="start" x="12" y="-415" font-family="Helvetica,sans-Serif" font-size="10.00">Ponca::CenteredNeighborhood</text>
<text text-anchor="start" x="32.5" y="-404" font-family="Helvetica,sans-Serif" font-size="10.00">Frame&lt; _DataPoint &gt;</text>
<text text-anchor="start" x="4" y="-389" font-family="Helvetica,sans-Serif" font-size="10.00">+</text>
<text text-anchor="start" x="17" y="-389" font-family="Helvetica,sans-Serif" font-size="10.00">hasLocalFrame</text>
<text text-anchor="start" x="4" y="-374" font-family="Helvetica,sans-Serif" font-size="10.00">+</text>
<text text-anchor="start" x="17" y="-374" font-family="Helvetica,sans-Serif" font-size="10.00">CenteredNeighborhoodFrame()</text>
<text text-anchor="start" x="4" y="-359" font-family="Helvetica,sans-Serif" font-size="10.00">+</text>
<text text-anchor="start" x="17" y="-359" font-family="Helvetica,sans-Serif" font-size="10.00">CenteredNeighborhoodFrame()</text>
<text text-anchor="start" x="4" y="-344" font-family="Helvetica,sans-Serif" font-size="10.00">+</text>
<text text-anchor="start" x="17" y="-344" font-family="Helvetica,sans-Serif" font-size="10.00">center()</text>
<text text-anchor="start" x="4" y="-329" font-family="Helvetica,sans-Serif" font-size="10.00">+</text>
<text text-anchor="start" x="17" y="-329" font-family="Helvetica,sans-Serif" font-size="10.00">center()</text>
<text text-anchor="start" x="4" y="-314" font-family="Helvetica,sans-Serif" font-size="10.00">+</text>
<text text-anchor="start" x="17" y="-314" font-family="Helvetica,sans-Serif" font-size="10.00">changeNeighborhoodFrame()</text>
<text text-anchor="start" x="4" y="-299" font-family="Helvetica,sans-Serif" font-size="10.00">+</text>
<text text-anchor="start" x="17" y="-299" font-family="Helvetica,sans-Serif" font-size="10.00">convertToGlobalBasis()</text>
<text text-anchor="start" x="4" y="-284" font-family="Helvetica,sans-Serif" font-size="10.00">+</text>
<text text-anchor="start" x="17" y="-284" font-family="Helvetica,sans-Serif" font-size="10.00">convertToLocalBasis()</text>
<polygon fill="#666666" stroke="#666666" points="0,-399 0,-399 172,-399 172,-399 0,-399"/>
<polygon fill="#666666" stroke="#666666" points="0,-384 0,-384 15,-384 15,-384 0,-384"/>
<polygon fill="#666666" stroke="#666666" points="15,-384 15,-384 172,-384 172,-384 15,-384"/>
<polygon fill="none" stroke="#666666" points="0,-277 0,-427 172,-427 172,-277 0,-277"/>
</a>
</g>
</g>
<!-- Node2&#45;&gt;Node1 -->
<g id="edge1_Node000001_Node000002" class="edge">
<title>Node2&#45;&gt;Node1</title>
<g id="a_edge1_Node000001_Node000002"><a xlink:title=" ">
<path fill="none" stroke="#63b8ff" d="M86,-266.84C86,-258.11 86,-249.13 86,-240.11"/>
<polygon fill="none" stroke="#63b8ff" points="82.5,-266.96 86,-276.96 89.5,-266.96 82.5,-266.96"/>
</a>
</g>
</g>
<!-- Node3 -->
<g id="Node000003" class="node">
<title>Node3</title>
<g id="a_Node000003"><a xlink:href="classPonca_1_1CenteredNeighborhoodFrame.html" target="_top" xlink:title="NeighborhoodFrame that express 3d points relatively to a prescribed center.">
<polygon fill="white" stroke="transparent" points="172,-624 0,-624 0,-474 172,-474 172,-624"/>
<text text-anchor="start" x="12" y="-612" font-family="Helvetica,sans-Serif" font-size="10.00">Ponca::CenteredNeighborhood</text>
<text text-anchor="start" x="35" y="-601" font-family="Helvetica,sans-Serif" font-size="10.00">Frame&lt; DataPoint &gt;</text>
<text text-anchor="start" x="4" y="-586" font-family="Helvetica,sans-Serif" font-size="10.00">+</text>
<text text-anchor="start" x="17" y="-586" font-family="Helvetica,sans-Serif" font-size="10.00">hasLocalFrame</text>
<text text-anchor="start" x="4" y="-571" font-family="Helvetica,sans-Serif" font-size="10.00">+</text>
<text text-anchor="start" x="17" y="-571" font-family="Helvetica,sans-Serif" font-size="10.00">CenteredNeighborhoodFrame()</text>
<text text-anchor="start" x="4" y="-556" font-family="Helvetica,sans-Serif" font-size="10.00">+</text>
<text text-anchor="start" x="17" y="-556" font-family="Helvetica,sans-Serif" font-size="10.00">CenteredNeighborhoodFrame()</text>
<text text-anchor="start" x="4" y="-541" font-family="Helvetica,sans-Serif" font-size="10.00">+</text>
<text text-anchor="start" x="17" y="-541" font-family="Helvetica,sans-Serif" font-size="10.00">center()</text>
<text text-anchor="start" x="4" y="-526" font-family="Helvetica,sans-Serif" font-size="10.00">+</text>
<text text-anchor="start" x="17" y="-526" font-family="Helvetica,sans-Serif" font-size="10.00">center()</text>
<text text-anchor="start" x="4" y="-511" font-family="Helvetica,sans-Serif" font-size="10.00">+</text>
<text text-anchor="start" x="17" y="-511" font-family="Helvetica,sans-Serif" font-size="10.00">changeNeighborhoodFrame()</text>
<text text-anchor="start" x="4" y="-496" font-family="Helvetica,sans-Serif" font-size="10.00">+</text>
<text text-anchor="start" x="17" y="-496" font-family="Helvetica,sans-Serif" font-size="10.00">convertToGlobalBasis()</text>
<text text-anchor="start" x="4" y="-481" font-family="Helvetica,sans-Serif" font-size="10.00">+</text>
<text text-anchor="start" x="17" y="-481" font-family="Helvetica,sans-Serif" font-size="10.00">convertToLocalBasis()</text>
<polygon fill="#666666" stroke="#666666" points="0,-596 0,-596 172,-596 172,-596 0,-596"/>
<polygon fill="#666666" stroke="#666666" points="0,-581 0,-581 15,-581 15,-581 0,-581"/>
<polygon fill="#666666" stroke="#666666" points="15,-581 15,-581 172,-581 172,-581 15,-581"/>
<polygon fill="none" stroke="#666666" points="0,-474 0,-624 172,-624 172,-474 0,-474"/>
</a>
</g>
</g>
<!-- Node3&#45;&gt;Node2 -->
<g id="edge2_Node000002_Node000003" class="edge">
<title>Node3&#45;&gt;Node2</title>
<g id="a_edge2_Node000002_Node000003"><a xlink:title=" ">
<path fill="none" stroke="orange" d="M86,-463.59C86,-451.44 86,-439.01 86,-427.07"/>
<polygon fill="orange" stroke="orange" points="82.5,-463.72 86,-473.72 89.5,-463.72 82.5,-463.72"/>
</a>
</g>
<text text-anchor="middle" x="125.5" y="-448" font-family="Helvetica,sans-Serif" font-size="10.00" fill="grey"> &lt; _DataPoint &gt;</text>
</g>
</g>
</svg>
