<?xml version="1.0" encoding="UTF-8" standalone="no"?>
<!DOCTYPE svg PUBLIC "-//W3C//DTD SVG 1.1//EN"
 "http://www.w3.org/Graphics/SVG/1.1/DTD/svg11.dtd">
<!-- Generated by graphviz version 2.43.0 (0)
 -->
<!-- Title: Ponca::internal::CenteredNeighborhoodFrame&lt; DataPoint &gt; Pages: 1 -->
<!--zoomable 818 -->

<svg id="main" version="1.1" xmlns="http://www.w3.org/2000/svg" xmlns:xlink="http://www.w3.org/1999/xlink" xml:space="preserve" onload="init(evt)">
<style type="text/css"><![CDATA[
.node, .edge {opacity: 0.7;}
.node.selected, .edge.selected {opacity: 1;}
.edge:hover path { stroke: red; }
.edge:hover polygon { stroke: red; fill: red; }
]]></style>

<defs>
  <circle id="rim" cx="0" cy="0" r="7"/>
  <circle id="rim2" cx="0" cy="0" r="3.5"/>
  <g id="zoomPlus">
    <use xlink:href="#rim" fill="#404040"><set attributeName="fill" to="#808080" begin="zoomplus.mouseover" end="zoomplus.mouseout"/></use>
    <path d="M-4,0h8M0,-4v8" fill="none" stroke="white" stroke-width="1.5" pointer-events="none"/>
  </g>
  <g id="zoomMin">
    <use xlink:href="#rim" fill="#404040"><set attributeName="fill" to="#808080" begin="zoomminus.mouseover" end="zoomminus.mouseout"/></use>
    <path d="M-4,0h8" fill="none" stroke="white" stroke-width="1.5" pointer-events="none"/>
  </g>
  <g id="arrowUp" transform="translate(30 24)">
    <use xlink:href="#rim"/>
    <path pointer-events="none" fill="none" stroke="white" stroke-width="1.5" d="M0,-3.0v7 M-2.5,-0.5L0,-3.0L2.5,-0.5"/>
  </g>
  <g id="arrowRight" transform="rotate(90) translate(36 -43)">
    <use xlink:href="#rim"/>
    <path pointer-events="none" fill="none" stroke="white" stroke-width="1.5" d="M0,-3.0v7 M-2.5,-0.5L0,-3.0L2.5,-0.5"/>
  </g>
  <g id="arrowDown" transform="rotate(180) translate(-30 -48)">
    <use xlink:href="#rim"/>
    <path pointer-events="none" fill="none" stroke="white" stroke-width="1.5" d="M0,-3.0v7 M-2.5,-0.5L0,-3.0L2.5,-0.5"/>
  </g>
  <g id="arrowLeft" transform="rotate(270) translate(-36 17)">
    <use xlink:href="#rim"/>
    <path pointer-events="none" fill="none" stroke="white" stroke-width="1.5" d="M0,-3.0v7 M-2.5,-0.5L0,-3.0L2.5,-0.5"/>
  </g>
  <g id="resetDef">
    <use xlink:href="#rim2" fill="#404040"><set attributeName="fill" to="#808080" begin="reset.mouseover" end="reset.mouseout"/></use>
  </g>
</defs>
<script type="application/ecmascript">
var viewWidth = 294;
var viewHeight = 818;
var sectionId = 'dynsection-0';
</script>
<script type="application/ecmascript" xlink:href="svg.min.js"/>
<svg id="graph" class="graph">
<g id="viewport">
<title>Ponca::internal::CenteredNeighborhoodFrame&lt; DataPoint &gt;</title>
<!-- Node1 -->
<g id="Node000001" class="node">
<title>Node1</title>
<g id="a_Node000001"><a xlink:title="NeighborhoodFrame that express 3d points relatively to a prescribed center.">
<polygon fill="#999999" stroke="transparent" points="200,-810 20,-810 20,-675 200,-675 200,-810"/>
<text text-anchor="start" x="25" y="-797.5" font-family="Helvetica,sans-Serif" font-size="10.00">Ponca::internal::Centered</text>
<text text-anchor="start" x="25" y="-786.5" font-family="Helvetica,sans-Serif" font-size="10.00">NeighborhoodFrame&lt; DataPoint &gt;</text>
<text text-anchor="start" x="26" y="-771.5" font-family="Helvetica,sans-Serif" font-size="10.00">+</text>
<text text-anchor="start" x="41" y="-771.5" font-family="Helvetica,sans-Serif" font-size="10.00">hasLocalFrame</text>
<text text-anchor="start" x="26" y="-756.5" font-family="Helvetica,sans-Serif" font-size="10.00">+</text>
<text text-anchor="start" x="41" y="-756.5" font-family="Helvetica,sans-Serif" font-size="10.00">CenteredNeighborhoodFrame()</text>
<text text-anchor="start" x="26" y="-741.5" font-family="Helvetica,sans-Serif" font-size="10.00">+</text>
<text text-anchor="start" x="41" y="-741.5" font-family="Helvetica,sans-Serif" font-size="10.00">CenteredNeighborhoodFrame()</text>
<text text-anchor="start" x="26" y="-726.5" font-family="Helvetica,sans-Serif" font-size="10.00">+</text>
<text text-anchor="start" x="41" y="-726.5" font-family="Helvetica,sans-Serif" font-size="10.00">changeNeighborhoodFrame()</text>
<text text-anchor="start" x="26" y="-711.5" font-family="Helvetica,sans-Serif" font-size="10.00">+</text>
<text text-anchor="start" x="41" y="-711.5" font-family="Helvetica,sans-Serif" font-size="10.00">convertToGlobalBasis()</text>
<text text-anchor="start" x="26" y="-696.5" font-family="Helvetica,sans-Serif" font-size="10.00">+</text>
<text text-anchor="start" x="41" y="-696.5" font-family="Helvetica,sans-Serif" font-size="10.00">convertToLocalBasis()</text>
<text text-anchor="start" x="26" y="-681.5" font-family="Helvetica,sans-Serif" font-size="10.00">+</text>
<text text-anchor="start" x="41" y="-681.5" font-family="Helvetica,sans-Serif" font-size="10.00">evalPos()</text>
<polygon fill="#666666" stroke="#666666" points="20,-781.5 20,-781.5 200,-781.5 200,-781.5 20,-781.5"/>
<polygon fill="#666666" stroke="#666666" points="20,-766.5 20,-766.5 39,-766.5 39,-766.5 20,-766.5"/>
<polygon fill="#666666" stroke="#666666" points="39,-766.5 39,-766.5 200,-766.5 200,-766.5 39,-766.5"/>
<polygon fill="none" stroke="#666666" points="20,-675 20,-810 200,-810 200,-675 20,-675"/>
</a>
</g>
</g>
<!-- Node2 -->
<g id="Node000002" class="node">
<title>Node2</title>
<g id="a_Node000002"><a xlink:href="classPonca_1_1DistWeightFunc.html" target="_top" xlink:title=" ">
<polygon fill="white" stroke="transparent" points="170.5,-370 17.5,-370 17.5,-149 170.5,-149 170.5,-370"/>
<text text-anchor="start" x="23" y="-357.5" font-family="Helvetica,sans-Serif" font-size="10.00">Ponca::DistWeightFunc</text>
<text text-anchor="start" x="23" y="-346.5" font-family="Helvetica,sans-Serif" font-size="10.00">&lt; DataPoint, ConstantWeight</text>
<text text-anchor="start" x="47" y="-335.5" font-family="Helvetica,sans-Serif" font-size="10.00">Kernel&lt; Scalar &gt; &gt;</text>
<text text-anchor="start" x="34" y="-320.5" font-family="Helvetica,sans-Serif" font-size="10.00">+</text>
<text text-anchor="start" x="59" y="-320.5" font-family="Helvetica,sans-Serif" font-size="10.00">isCompact</text>
<text text-anchor="start" x="34" y="-305.5" font-family="Helvetica,sans-Serif" font-size="10.00">#</text>
<text text-anchor="start" x="59" y="-305.5" font-family="Helvetica,sans-Serif" font-size="10.00">m_t</text>
<text text-anchor="start" x="34" y="-290.5" font-family="Helvetica,sans-Serif" font-size="10.00">#</text>
<text text-anchor="start" x="59" y="-290.5" font-family="Helvetica,sans-Serif" font-size="10.00">m_wk</text>
<text text-anchor="start" x="34" y="-275.5" font-family="Helvetica,sans-Serif" font-size="10.00">+</text>
<text text-anchor="start" x="59" y="-275.5" font-family="Helvetica,sans-Serif" font-size="10.00">DistWeightFunc()</text>
<text text-anchor="start" x="34" y="-260.5" font-family="Helvetica,sans-Serif" font-size="10.00">+</text>
<text text-anchor="start" x="59" y="-260.5" font-family="Helvetica,sans-Serif" font-size="10.00">DistWeightFunc()</text>
<text text-anchor="start" x="34" y="-245.5" font-family="Helvetica,sans-Serif" font-size="10.00">+</text>
<text text-anchor="start" x="59" y="-245.5" font-family="Helvetica,sans-Serif" font-size="10.00">operator()()</text>
<text text-anchor="start" x="34" y="-230.5" font-family="Helvetica,sans-Serif" font-size="10.00">+</text>
<text text-anchor="start" x="59" y="-230.5" font-family="Helvetica,sans-Serif" font-size="10.00">spacedw()</text>
<text text-anchor="start" x="34" y="-215.5" font-family="Helvetica,sans-Serif" font-size="10.00">+</text>
<text text-anchor="start" x="59" y="-215.5" font-family="Helvetica,sans-Serif" font-size="10.00">spaced2w()</text>
<text text-anchor="start" x="34" y="-200.5" font-family="Helvetica,sans-Serif" font-size="10.00">+</text>
<text text-anchor="start" x="59" y="-200.5" font-family="Helvetica,sans-Serif" font-size="10.00">scaledw()</text>
<text text-anchor="start" x="34" y="-185.5" font-family="Helvetica,sans-Serif" font-size="10.00">+</text>
<text text-anchor="start" x="59" y="-185.5" font-family="Helvetica,sans-Serif" font-size="10.00">scaled2w()</text>
<text text-anchor="start" x="34" y="-170.5" font-family="Helvetica,sans-Serif" font-size="10.00">+</text>
<text text-anchor="start" x="59" y="-170.5" font-family="Helvetica,sans-Serif" font-size="10.00">scaleSpaced2w()</text>
<text text-anchor="start" x="34" y="-155.5" font-family="Helvetica,sans-Serif" font-size="10.00">+</text>
<text text-anchor="start" x="59" y="-155.5" font-family="Helvetica,sans-Serif" font-size="10.00">evalScale()</text>
<polygon fill="#666666" stroke="#666666" points="18,-330.5 18,-330.5 171,-330.5 171,-330.5 18,-330.5"/>
<polygon fill="#666666" stroke="#666666" points="18,-285.5 18,-285.5 57,-285.5 57,-285.5 18,-285.5"/>
<polygon fill="#666666" stroke="#666666" points="57,-285.5 57,-285.5 171,-285.5 171,-285.5 57,-285.5"/>
<polygon fill="none" stroke="#666666" points="17.5,-149 17.5,-370 170.5,-370 170.5,-149 17.5,-149"/>
</a>
</g>
</g>
<!-- Node1&#45;&gt;Node2 -->
<g id="edge1_Node000001_Node000002" class="edge">
<title>Node1&#45;&gt;Node2</title>
<g id="a_edge1_Node000001_Node000002"><a xlink:title=" ">
<path fill="none" stroke="#63b8ff" d="M99.34,-664.7C98.39,-655.72 97.58,-646.67 97,-638 91.01,-547.92 90.59,-445.48 91.49,-370.06"/>
<polygon fill="none" stroke="#63b8ff" points="95.88,-665.25 100.46,-674.8 102.84,-664.47 95.88,-665.25"/>
</a>
</g>
</g>
<!-- Node4 -->
<g id="Node000004" class="node">
<title>Node4</title>
<g id="a_Node000004"><a xlink:href="classPonca_1_1DistWeightFunc.html" target="_top" xlink:title="Weight neighbors according to the Euclidean distance between a query and a reference position.">
<polygon fill="white" stroke="transparent" points="258,-638 106,-638 106,-428 258,-428 258,-638"/>
<text text-anchor="start" x="111" y="-626" font-family="Helvetica,sans-Serif" font-size="10.00">Ponca::DistWeightFunc</text>
<text text-anchor="start" x="111" y="-615" font-family="Helvetica,sans-Serif" font-size="10.00">&lt; DataPoint, WeightKernel &gt;</text>
<text text-anchor="start" x="121.5" y="-600" font-family="Helvetica,sans-Serif" font-size="10.00">+</text>
<text text-anchor="start" x="146" y="-600" font-family="Helvetica,sans-Serif" font-size="10.00">isCompact</text>
<text text-anchor="start" x="121.5" y="-585" font-family="Helvetica,sans-Serif" font-size="10.00">#</text>
<text text-anchor="start" x="146" y="-585" font-family="Helvetica,sans-Serif" font-size="10.00">m_t</text>
<text text-anchor="start" x="121.5" y="-570" font-family="Helvetica,sans-Serif" font-size="10.00">#</text>
<text text-anchor="start" x="146" y="-570" font-family="Helvetica,sans-Serif" font-size="10.00">m_wk</text>
<text text-anchor="start" x="121.5" y="-555" font-family="Helvetica,sans-Serif" font-size="10.00">+</text>
<text text-anchor="start" x="146" y="-555" font-family="Helvetica,sans-Serif" font-size="10.00">DistWeightFunc()</text>
<text text-anchor="start" x="121.5" y="-540" font-family="Helvetica,sans-Serif" font-size="10.00">+</text>
<text text-anchor="start" x="146" y="-540" font-family="Helvetica,sans-Serif" font-size="10.00">DistWeightFunc()</text>
<text text-anchor="start" x="121.5" y="-525" font-family="Helvetica,sans-Serif" font-size="10.00">+</text>
<text text-anchor="start" x="146" y="-525" font-family="Helvetica,sans-Serif" font-size="10.00">operator()()</text>
<text text-anchor="start" x="121.5" y="-510" font-family="Helvetica,sans-Serif" font-size="10.00">+</text>
<text text-anchor="start" x="146" y="-510" font-family="Helvetica,sans-Serif" font-size="10.00">spacedw()</text>
<text text-anchor="start" x="121.5" y="-495" font-family="Helvetica,sans-Serif" font-size="10.00">+</text>
<text text-anchor="start" x="146" y="-495" font-family="Helvetica,sans-Serif" font-size="10.00">spaced2w()</text>
<text text-anchor="start" x="121.5" y="-480" font-family="Helvetica,sans-Serif" font-size="10.00">+</text>
<text text-anchor="start" x="146" y="-480" font-family="Helvetica,sans-Serif" font-size="10.00">scaledw()</text>
<text text-anchor="start" x="121.5" y="-465" font-family="Helvetica,sans-Serif" font-size="10.00">+</text>
<text text-anchor="start" x="146" y="-465" font-family="Helvetica,sans-Serif" font-size="10.00">scaled2w()</text>
<text text-anchor="start" x="121.5" y="-450" font-family="Helvetica,sans-Serif" font-size="10.00">+</text>
<text text-anchor="start" x="146" y="-450" font-family="Helvetica,sans-Serif" font-size="10.00">scaleSpaced2w()</text>
<text text-anchor="start" x="121.5" y="-435" font-family="Helvetica,sans-Serif" font-size="10.00">+</text>
<text text-anchor="start" x="146" y="-435" font-family="Helvetica,sans-Serif" font-size="10.00">evalScale()</text>
<polygon fill="#666666" stroke="#666666" points="106,-610 106,-610 258,-610 258,-610 106,-610"/>
<polygon fill="#666666" stroke="#666666" points="106,-565 106,-565 144,-565 144,-565 106,-565"/>
<polygon fill="#666666" stroke="#666666" points="144,-565 144,-565 258,-565 258,-565 144,-565"/>
<polygon fill="none" stroke="#666666" points="106,-428 106,-638 258,-638 258,-428 106,-428"/>
</a>
</g>
</g>
<!-- Node1&#45;&gt;Node4 -->
<g id="edge3_Node000001_Node000004" class="edge">
<title>Node1&#45;&gt;Node4</title>
<g id="a_edge3_Node000001_Node000004"><a xlink:title=" ">
<path fill="none" stroke="#63b8ff" d="M136.37,-665.5C139.45,-656.63 142.63,-647.47 145.81,-638.31"/>
<polygon fill="none" stroke="#63b8ff" points="133.05,-664.39 133.08,-674.99 139.66,-666.69 133.05,-664.39"/>
</a>
</g>
</g>
<!-- Node3 -->
<g id="Node000003" class="node">
<title>Node3</title>
<g id="a_Node000003"><a xlink:href="classPonca_1_1NeighborFilterStoreNormal.html" target="_top" xlink:title=" ">
<polygon fill="white" stroke="transparent" points="188,-112 0,-112 0,0 188,0 188,-112"/>
<text text-anchor="start" x="5" y="-100" font-family="Helvetica,sans-Serif" font-size="10.00">Ponca::NeighborFilterStore</text>
<text text-anchor="start" x="5" y="-89" font-family="Helvetica,sans-Serif" font-size="10.00">Normal&lt; DataPoint, DistWeightFunc</text>
<text text-anchor="start" x="5" y="-78" font-family="Helvetica,sans-Serif" font-size="10.00">&lt; DataPoint, ConstantWeightKernel</text>
<text text-anchor="start" x="56" y="-67" font-family="Helvetica,sans-Serif" font-size="10.00">&lt; Scalar &gt; &gt; &gt;</text>
<text text-anchor="start" x="11" y="-52" font-family="Helvetica,sans-Serif" font-size="10.00">#</text>
<text text-anchor="start" x="31" y="-52" font-family="Helvetica,sans-Serif" font-size="10.00">m_n</text>
<text text-anchor="start" x="11" y="-37" font-family="Helvetica,sans-Serif" font-size="10.00">+</text>
<text text-anchor="start" x="31" y="-37" font-family="Helvetica,sans-Serif" font-size="10.00">NeighborFilterStoreNormal()</text>
<text text-anchor="start" x="11" y="-22" font-family="Helvetica,sans-Serif" font-size="10.00">+</text>
<text text-anchor="start" x="31" y="-22" font-family="Helvetica,sans-Serif" font-size="10.00">NeighborFilterStoreNormal()</text>
<text text-anchor="start" x="11" y="-7" font-family="Helvetica,sans-Serif" font-size="10.00">+</text>
<text text-anchor="start" x="31" y="-7" font-family="Helvetica,sans-Serif" font-size="10.00">evalNormal()</text>
<polygon fill="#666666" stroke="#666666" points="0,-62 0,-62 188,-62 188,-62 0,-62"/>
<polygon fill="#666666" stroke="#666666" points="0,-47 0,-47 29,-47 29,-47 0,-47"/>
<polygon fill="#666666" stroke="#666666" points="29,-47 29,-47 188,-47 188,-47 29,-47"/>
<polygon fill="none" stroke="#666666" points="0,0 0,-112 188,-112 188,0 0,0"/>
</a>
</g>
</g>
<!-- Node2&#45;&gt;Node3 -->
<g id="edge2_Node000002_Node000003" class="edge">
<title>Node2&#45;&gt;Node3</title>
<g id="a_edge2_Node000002_Node000003"><a xlink:title=" ">
<path fill="none" stroke="#63b8ff" d="M94,-138.81C94,-129.57 94,-120.55 94,-112.08"/>
<polygon fill="none" stroke="#63b8ff" points="90.5,-138.91 94,-148.91 97.5,-138.91 90.5,-138.91"/>
</a>
</g>
</g>
<!-- Node4&#45;&gt;Node2 -->
<g id="edge4_Node000004_Node000002" class="edge">
<title>Node4&#45;&gt;Node2</title>
<g id="a_edge4_Node000004_Node000002"><a xlink:title=" ">
<path fill="none" stroke="orange" d="M145.06,-418.02C139.93,-402.21 134.68,-386 129.58,-370.27"/>
<polygon fill="orange" stroke="orange" points="141.82,-419.37 148.23,-427.81 148.47,-417.22 141.82,-419.37"/>
</a>
</g>
<text text-anchor="start" x="140" y="-402" font-family="Helvetica,sans-Serif" font-size="10.00" fill="grey"> &lt; DataPoint, ConstantWeight</text>
<text text-anchor="middle" x="213" y="-391" font-family="Helvetica,sans-Serif" font-size="10.00" fill="grey">Kernel&lt; Scalar &gt; &gt;</text>
</g>
</g>
</svg>

<g id="navigator" transform="translate(0 0)" fill="#404254">
  <rect fill="#f2f5e9" fill-opacity="0.5" stroke="#606060" stroke-width=".5" x="0" y="0" width="60" height="60"/>
  <use id="zoomplus" xlink:href="#zoomPlus" x="17" y="9" onmousedown="handleZoom(evt,'in')"/>
  <use id="zoomminus" xlink:href="#zoomMin" x="42" y="9" onmousedown="handleZoom(evt,'out')"/>
  <use id="reset" xlink:href="#resetDef" x="30" y="36" onmousedown="handleReset()"/>
   <use id="arrowup" xlink:href="#arrowUp" x="0" y="0" onmousedown="handlePan(0,-1)"/>
  <use id="arrowright" xlink:href="#arrowRight" x="0" y="0" onmousedown="handlePan(1,0)"/>
  <use id="arrowdown" xlink:href="#arrowDown" x="0" y="0" onmousedown="handlePan(0,1)"/>
  <use id="arrowleft" xlink:href="#arrowLeft" x="0" y="0" onmousedown="handlePan(-1,0)"/>
</g>
<svg viewBox="0 0 15 15" width="100%" height="30px" preserveAspectRatio="xMaxYMin meet">
 <g id="arrow_out" transform="scale(0.3 0.3)">
  <a xlink:href="classPonca_1_1internal_1_1CenteredNeighborhoodFrame__inherit__graph_org.svg" target="_base">
   <rect id="button" ry="5" rx="5" y="6" x="6" height="38" width="38"
        fill="#f2f5e9" fill-opacity="0.5" stroke="#606060" stroke-width="1.0"/>
   <path id="arrow"
     d="M 11.500037,31.436501 C 11.940474,20.09759 22.043105,11.32322 32.158766,21.979434 L 37.068811,17.246167 C 37.068811,17.246167 37.088388,32 37.088388,32 L 22.160133,31.978069 C 22.160133,31.978069 26.997745,27.140456 26.997745,27.140456 C 18.528582,18.264221 13.291696,25.230495 11.500037,31.436501 z"
     style="fill:#404040;"/>
  </a>
 </g>
</svg>

<style type='text/css'>
<![CDATA[
[data-mouse-over-selected='false'] { opacity: 0.7; }
[data-mouse-over-selected='true']  { opacity: 1.0; }
]]>
</style>
<script type="application/ecmascript"><![CDATA[
document.addEventListener('DOMContentLoaded', (event) => {
  highlightEdges();
  highlightAdjacentNodes();
});
]]></script>
</svg>
