<?xml version="1.0" encoding="UTF-8" standalone="no"?>
<!DOCTYPE svg PUBLIC "-//W3C//DTD SVG 1.1//EN"
 "http://www.w3.org/Graphics/SVG/1.1/DTD/svg11.dtd">
<!-- Generated by graphviz version 2.43.0 (0)
 -->
<!-- Title: Ponca::Concept::WeightKernelConcept&lt; _Scalar &gt; Pages: 1 -->
<svg width="340pt" height="248pt"
 viewBox="0.00 0.00 340.00 248.00" xmlns="http://www.w3.org/2000/svg" xmlns:xlink="http://www.w3.org/1999/xlink">
<g id="graph0" class="graph" transform="scale(1 1) rotate(0) translate(4 244)">
<title>Ponca::Concept::WeightKernelConcept&lt; _Scalar &gt;</title>
<polygon fill="white" stroke="transparent" points="-4,4 -4,-244 336,-244 336,4 -4,4"/>
<!-- Node1 -->
<g id="node1" class="node">
<title>Node1</title>
<g id="a_node1"><a xlink:title="A 1D weighting function and its derivatives.">
<polygon fill="#bfbfbf" stroke="black" points="86,-149.5 86,-239.5 248,-239.5 248,-149.5 86,-149.5"/>
<text text-anchor="start" x="94" y="-227.5" font-family="Helvetica,sans-Serif" font-size="10.00">Ponca::Concept::WeightKernel</text>
<text text-anchor="middle" x="167" y="-216.5" font-family="Helvetica,sans-Serif" font-size="10.00">Concept&lt; _Scalar &gt;</text>
<polyline fill="none" stroke="black" points="86,-209.5 248,-209.5 "/>
<text text-anchor="middle" x="167" y="-197.5" font-family="Helvetica,sans-Serif" font-size="10.00"> </text>
<polyline fill="none" stroke="black" points="86,-190.5 248,-190.5 "/>
<text text-anchor="start" x="94" y="-178.5" font-family="Helvetica,sans-Serif" font-size="10.00">+ f()</text>
<text text-anchor="start" x="94" y="-167.5" font-family="Helvetica,sans-Serif" font-size="10.00">+ df()</text>
<text text-anchor="start" x="94" y="-156.5" font-family="Helvetica,sans-Serif" font-size="10.00">+ ddf()</text>
</a>
</g>
</g>
<!-- Node2 -->
<g id="node2" class="node">
<title>Node2</title>
<g id="a_node2"><a xlink:href="classPonca_1_1ConstantWeightKernel.html" target="_top" xlink:title="Concept::WeightKernelConcept returning a constant value.">
<polygon fill="white" stroke="black" points="0,-0.5 0,-112.5 160,-112.5 160,-0.5 0,-0.5"/>
<text text-anchor="start" x="8" y="-100.5" font-family="Helvetica,sans-Serif" font-size="10.00">Ponca::ConstantWeightKernel</text>
<text text-anchor="middle" x="80" y="-89.5" font-family="Helvetica,sans-Serif" font-size="10.00">&lt; _Scalar &gt;</text>
<polyline fill="none" stroke="black" points="0,-82.5 160,-82.5 "/>
<text text-anchor="middle" x="80" y="-70.5" font-family="Helvetica,sans-Serif" font-size="10.00"> </text>
<polyline fill="none" stroke="black" points="0,-63.5 160,-63.5 "/>
<text text-anchor="start" x="8" y="-51.5" font-family="Helvetica,sans-Serif" font-size="10.00">+ ConstantWeightKernel()</text>
<text text-anchor="start" x="8" y="-40.5" font-family="Helvetica,sans-Serif" font-size="10.00">+ setValue()</text>
<text text-anchor="start" x="8" y="-29.5" font-family="Helvetica,sans-Serif" font-size="10.00">+ f()</text>
<text text-anchor="start" x="8" y="-18.5" font-family="Helvetica,sans-Serif" font-size="10.00">+ df()</text>
<text text-anchor="start" x="8" y="-7.5" font-family="Helvetica,sans-Serif" font-size="10.00">+ ddf()</text>
</a>
</g>
</g>
<!-- Node1&#45;&gt;Node2 -->
<g id="edge1" class="edge">
<title>Node1&#45;&gt;Node2</title>
<path fill="none" stroke="midnightblue" d="M133.24,-140.73C127.4,-131.59 121.31,-122.07 115.42,-112.87"/>
<polygon fill="none" stroke="midnightblue" points="130.42,-142.81 138.75,-149.34 136.31,-139.03 130.42,-142.81"/>
</g>
<!-- Node3 -->
<g id="node3" class="node">
<title>Node3</title>
<g id="a_node3"><a xlink:href="classPonca_1_1SmoothWeightKernel.html" target="_top" xlink:title="Smooth WeightKernel defined in .">
<polygon fill="white" stroke="black" points="178,-11.5 178,-101.5 332,-101.5 332,-11.5 178,-11.5"/>
<text text-anchor="start" x="186" y="-89.5" font-family="Helvetica,sans-Serif" font-size="10.00">Ponca::SmoothWeightKernel</text>
<text text-anchor="middle" x="255" y="-78.5" font-family="Helvetica,sans-Serif" font-size="10.00">&lt; _Scalar &gt;</text>
<polyline fill="none" stroke="black" points="178,-71.5 332,-71.5 "/>
<text text-anchor="middle" x="255" y="-59.5" font-family="Helvetica,sans-Serif" font-size="10.00"> </text>
<polyline fill="none" stroke="black" points="178,-52.5 332,-52.5 "/>
<text text-anchor="start" x="186" y="-40.5" font-family="Helvetica,sans-Serif" font-size="10.00">+ f()</text>
<text text-anchor="start" x="186" y="-29.5" font-family="Helvetica,sans-Serif" font-size="10.00">+ df()</text>
<text text-anchor="start" x="186" y="-18.5" font-family="Helvetica,sans-Serif" font-size="10.00">+ ddf()</text>
</a>
</g>
</g>
<!-- Node1&#45;&gt;Node3 -->
<g id="edge2" class="edge">
<title>Node1&#45;&gt;Node3</title>
<path fill="none" stroke="midnightblue" d="M201.21,-140.63C209.5,-127.82 218.27,-114.27 226.27,-101.9"/>
<polygon fill="none" stroke="midnightblue" points="198.07,-139.05 195.57,-149.34 203.94,-142.85 198.07,-139.05"/>
</g>
</g>
</svg>
