<?xml version="1.0" encoding="UTF-8" standalone="no"?>
<!DOCTYPE svg PUBLIC "-//W3C//DTD SVG 1.1//EN"
 "http://www.w3.org/Graphics/SVG/1.1/DTD/svg11.dtd">
<!-- Generated by graphviz version 2.43.0 (0)
 -->
<!-- Title: Ponca::SphereFit&lt; DataPoint, _WFunctor, T &gt; Pages: 1 -->
<svg width="460pt" height="983pt"
 viewBox="0.00 0.00 460.00 983.00" xmlns="http://www.w3.org/2000/svg" xmlns:xlink="http://www.w3.org/1999/xlink">
<g id="graph0" class="graph" transform="scale(1 1) rotate(0) translate(4 979)">
<title>Ponca::SphereFit&lt; DataPoint, _WFunctor, T &gt;</title>
<polygon fill="white" stroke="transparent" points="-4,4 -4,-979 456,-979 456,4 -4,4"/>
<!-- Node1 -->
<g id="node1" class="node">
<title>Node1</title>
<g id="a_node1"><a xlink:title="Algebraic Sphere fitting procedure on point sets without normals.">
<polygon fill="#bfbfbf" stroke="black" points="71,-0.5 71,-134.5 231,-134.5 231,-0.5 71,-0.5"/>
<text text-anchor="start" x="79" y="-122.5" font-family="Helvetica,sans-Serif" font-size="10.00">Ponca::SphereFit&lt; DataPoint,</text>
<text text-anchor="middle" x="151" y="-111.5" font-family="Helvetica,sans-Serif" font-size="10.00"> _WFunctor, T &gt;</text>
<polyline fill="none" stroke="black" points="71,-104.5 231,-104.5 "/>
<text text-anchor="start" x="79" y="-92.5" font-family="Helvetica,sans-Serif" font-size="10.00"># m_matA</text>
<text text-anchor="start" x="79" y="-81.5" font-family="Helvetica,sans-Serif" font-size="10.00"># m_sumW</text>
<text text-anchor="start" x="79" y="-70.5" font-family="Helvetica,sans-Serif" font-size="10.00"># m_w</text>
<polyline fill="none" stroke="black" points="71,-63.5 231,-63.5 "/>
<text text-anchor="start" x="79" y="-51.5" font-family="Helvetica,sans-Serif" font-size="10.00">+ SphereFit()</text>
<text text-anchor="start" x="79" y="-40.5" font-family="Helvetica,sans-Serif" font-size="10.00">+ setWeightFunc()</text>
<text text-anchor="start" x="79" y="-29.5" font-family="Helvetica,sans-Serif" font-size="10.00">+ init()</text>
<text text-anchor="start" x="79" y="-18.5" font-family="Helvetica,sans-Serif" font-size="10.00">+ addNeighbor()</text>
<text text-anchor="start" x="79" y="-7.5" font-family="Helvetica,sans-Serif" font-size="10.00">+ finalize()</text>
</a>
</g>
</g>
<!-- Node2 -->
<g id="node2" class="node">
<title>Node2</title>
<g id="a_node2"><a xlink:href="classPonca_1_1Concept_1_1FittingProcedureConcept.html" target="_top" xlink:title="Describes the procedure to fit a primitive to point samples.">
<polygon fill="white" stroke="black" points="0,-227.5 0,-328.5 196,-328.5 196,-227.5 0,-227.5"/>
<text text-anchor="start" x="8" y="-316.5" font-family="Helvetica,sans-Serif" font-size="10.00">Ponca::Concept::FittingProcedure</text>
<text text-anchor="middle" x="98" y="-305.5" font-family="Helvetica,sans-Serif" font-size="10.00">Concept&lt; DataPoint, _WFunctor, T &gt;</text>
<polyline fill="none" stroke="black" points="0,-298.5 196,-298.5 "/>
<text text-anchor="middle" x="98" y="-286.5" font-family="Helvetica,sans-Serif" font-size="10.00"> </text>
<polyline fill="none" stroke="black" points="0,-279.5 196,-279.5 "/>
<text text-anchor="start" x="8" y="-267.5" font-family="Helvetica,sans-Serif" font-size="10.00">+ setWeightFunc()</text>
<text text-anchor="start" x="8" y="-256.5" font-family="Helvetica,sans-Serif" font-size="10.00">+ init()</text>
<text text-anchor="start" x="8" y="-245.5" font-family="Helvetica,sans-Serif" font-size="10.00">+ addNeighbor()</text>
<text text-anchor="start" x="8" y="-234.5" font-family="Helvetica,sans-Serif" font-size="10.00">+ finalize()</text>
</a>
</g>
</g>
<!-- Node2&#45;&gt;Node1 -->
<g id="edge1" class="edge">
<title>Node2&#45;&gt;Node1</title>
<path fill="none" stroke="midnightblue" d="M113.17,-217.31C119.73,-191.52 127.43,-161.24 134.16,-134.76"/>
<polygon fill="none" stroke="midnightblue" points="109.7,-216.77 110.63,-227.32 116.48,-218.49 109.7,-216.77"/>
</g>
<!-- Node3 -->
<g id="node3" class="node">
<title>Node3</title>
<g id="a_node3"><a xlink:href="classPonca_1_1AlgebraicSphere.html" target="_top" xlink:title=" ">
<polygon fill="white" stroke="black" points="214,-172.5 214,-383.5 358,-383.5 358,-172.5 214,-172.5"/>
<text text-anchor="start" x="222" y="-371.5" font-family="Helvetica,sans-Serif" font-size="10.00">Ponca::AlgebraicSphere</text>
<text text-anchor="middle" x="286" y="-360.5" font-family="Helvetica,sans-Serif" font-size="10.00">&lt; DataPoint, _WFunctor &gt;</text>
<polyline fill="none" stroke="black" points="214,-353.5 358,-353.5 "/>
<text text-anchor="start" x="222" y="-341.5" font-family="Helvetica,sans-Serif" font-size="10.00">+ m_uc</text>
<text text-anchor="start" x="222" y="-330.5" font-family="Helvetica,sans-Serif" font-size="10.00">+ m_uq</text>
<text text-anchor="start" x="222" y="-319.5" font-family="Helvetica,sans-Serif" font-size="10.00">+ m_ul</text>
<text text-anchor="start" x="222" y="-308.5" font-family="Helvetica,sans-Serif" font-size="10.00"># m_isNormalized</text>
<polyline fill="none" stroke="black" points="214,-301.5 358,-301.5 "/>
<text text-anchor="start" x="222" y="-289.5" font-family="Helvetica,sans-Serif" font-size="10.00">+ AlgebraicSphere()</text>
<text text-anchor="start" x="222" y="-278.5" font-family="Helvetica,sans-Serif" font-size="10.00">+ algebraicSphere()</text>
<text text-anchor="start" x="222" y="-267.5" font-family="Helvetica,sans-Serif" font-size="10.00">+ resetPrimitive()</text>
<text text-anchor="start" x="222" y="-256.5" font-family="Helvetica,sans-Serif" font-size="10.00">+ operator==()</text>
<text text-anchor="start" x="222" y="-245.5" font-family="Helvetica,sans-Serif" font-size="10.00">+ operator!=()</text>
<text text-anchor="start" x="222" y="-234.5" font-family="Helvetica,sans-Serif" font-size="10.00">+ basisCenter()</text>
<text text-anchor="start" x="222" y="-223.5" font-family="Helvetica,sans-Serif" font-size="10.00">+ basisCenter()</text>
<text text-anchor="start" x="222" y="-212.5" font-family="Helvetica,sans-Serif" font-size="10.00">+ changeBasis()</text>
<text text-anchor="start" x="222" y="-201.5" font-family="Helvetica,sans-Serif" font-size="10.00">+ prattNorm()</text>
<text text-anchor="start" x="222" y="-190.5" font-family="Helvetica,sans-Serif" font-size="10.00">+ prattNorm2()</text>
<text text-anchor="start" x="222" y="-179.5" font-family="Helvetica,sans-Serif" font-size="10.00">and 11 more...</text>
</a>
</g>
</g>
<!-- Node3&#45;&gt;Node1 -->
<g id="edge2" class="edge">
<title>Node3&#45;&gt;Node1</title>
<path fill="none" stroke="midnightblue" d="M212.83,-163.99C206.32,-153.94 199.88,-144 193.76,-134.54"/>
<polygon fill="none" stroke="midnightblue" points="209.93,-165.95 218.3,-172.44 215.81,-162.15 209.93,-165.95"/>
</g>
<!-- Node4 -->
<g id="node4" class="node">
<title>Node4</title>
<g id="a_node4"><a xlink:href="classPonca_1_1PrimitiveBase.html" target="_top" xlink:title=" ">
<polygon fill="white" stroke="black" points="191,-680.5 191,-803.5 335,-803.5 335,-680.5 191,-680.5"/>
<text text-anchor="start" x="199" y="-791.5" font-family="Helvetica,sans-Serif" font-size="10.00">Ponca::PrimitiveBase</text>
<text text-anchor="middle" x="263" y="-780.5" font-family="Helvetica,sans-Serif" font-size="10.00">&lt; DataPoint, _WFunctor &gt;</text>
<polyline fill="none" stroke="black" points="191,-773.5 335,-773.5 "/>
<text text-anchor="start" x="199" y="-761.5" font-family="Helvetica,sans-Serif" font-size="10.00"># m_eCurrentState</text>
<text text-anchor="start" x="199" y="-750.5" font-family="Helvetica,sans-Serif" font-size="10.00"># m_nbNeighbors</text>
<polyline fill="none" stroke="black" points="191,-743.5 335,-743.5 "/>
<text text-anchor="start" x="199" y="-731.5" font-family="Helvetica,sans-Serif" font-size="10.00">+ PrimitiveBase()</text>
<text text-anchor="start" x="199" y="-720.5" font-family="Helvetica,sans-Serif" font-size="10.00">+ resetPrimitive()</text>
<text text-anchor="start" x="199" y="-709.5" font-family="Helvetica,sans-Serif" font-size="10.00">+ isReady()</text>
<text text-anchor="start" x="199" y="-698.5" font-family="Helvetica,sans-Serif" font-size="10.00">+ isStable()</text>
<text text-anchor="start" x="199" y="-687.5" font-family="Helvetica,sans-Serif" font-size="10.00">+ getCurrentState()</text>
</a>
</g>
</g>
<!-- Node4&#45;&gt;Node3 -->
<g id="edge3" class="edge">
<title>Node4&#45;&gt;Node3</title>
<path fill="none" stroke="midnightblue" d="M262.94,-670.15C263.29,-607.27 264.77,-512.93 270,-431 270.98,-415.64 272.34,-399.44 273.85,-383.57"/>
<polygon fill="none" stroke="midnightblue" points="259.44,-670.33 262.9,-680.35 266.44,-670.36 259.44,-670.33"/>
</g>
<!-- Node6 -->
<g id="node6" class="node">
<title>Node6</title>
<g id="a_node6"><a xlink:href="classPonca_1_1AlgebraicSphere.html" target="_top" xlink:title="Algebraic Sphere primitive.">
<polygon fill="white" stroke="black" points="279,-431.5 279,-642.5 435,-642.5 435,-431.5 279,-431.5"/>
<text text-anchor="start" x="287" y="-630.5" font-family="Helvetica,sans-Serif" font-size="10.00">Ponca::AlgebraicSphere</text>
<text text-anchor="middle" x="357" y="-619.5" font-family="Helvetica,sans-Serif" font-size="10.00">&lt; DataPoint, _WFunctor, T &gt;</text>
<polyline fill="none" stroke="black" points="279,-612.5 435,-612.5 "/>
<text text-anchor="start" x="287" y="-600.5" font-family="Helvetica,sans-Serif" font-size="10.00">+ m_uc</text>
<text text-anchor="start" x="287" y="-589.5" font-family="Helvetica,sans-Serif" font-size="10.00">+ m_uq</text>
<text text-anchor="start" x="287" y="-578.5" font-family="Helvetica,sans-Serif" font-size="10.00">+ m_ul</text>
<text text-anchor="start" x="287" y="-567.5" font-family="Helvetica,sans-Serif" font-size="10.00"># m_isNormalized</text>
<polyline fill="none" stroke="black" points="279,-560.5 435,-560.5 "/>
<text text-anchor="start" x="287" y="-548.5" font-family="Helvetica,sans-Serif" font-size="10.00">+ AlgebraicSphere()</text>
<text text-anchor="start" x="287" y="-537.5" font-family="Helvetica,sans-Serif" font-size="10.00">+ algebraicSphere()</text>
<text text-anchor="start" x="287" y="-526.5" font-family="Helvetica,sans-Serif" font-size="10.00">+ resetPrimitive()</text>
<text text-anchor="start" x="287" y="-515.5" font-family="Helvetica,sans-Serif" font-size="10.00">+ operator==()</text>
<text text-anchor="start" x="287" y="-504.5" font-family="Helvetica,sans-Serif" font-size="10.00">+ operator!=()</text>
<text text-anchor="start" x="287" y="-493.5" font-family="Helvetica,sans-Serif" font-size="10.00">+ basisCenter()</text>
<text text-anchor="start" x="287" y="-482.5" font-family="Helvetica,sans-Serif" font-size="10.00">+ basisCenter()</text>
<text text-anchor="start" x="287" y="-471.5" font-family="Helvetica,sans-Serif" font-size="10.00">+ changeBasis()</text>
<text text-anchor="start" x="287" y="-460.5" font-family="Helvetica,sans-Serif" font-size="10.00">+ prattNorm()</text>
<text text-anchor="start" x="287" y="-449.5" font-family="Helvetica,sans-Serif" font-size="10.00">+ prattNorm2()</text>
<text text-anchor="start" x="287" y="-438.5" font-family="Helvetica,sans-Serif" font-size="10.00">and 11 more...</text>
</a>
</g>
</g>
<!-- Node4&#45;&gt;Node6 -->
<g id="edge6" class="edge">
<title>Node4&#45;&gt;Node6</title>
<path fill="none" stroke="midnightblue" d="M295.29,-671.27C299.56,-662.04 304.02,-652.41 308.5,-642.74"/>
<polygon fill="none" stroke="midnightblue" points="292.1,-669.82 291.08,-680.37 298.45,-672.76 292.1,-669.82"/>
</g>
<!-- Node5 -->
<g id="node5" class="node">
<title>Node5</title>
<g id="a_node5"><a xlink:href="classPonca_1_1PrimitiveBase.html" target="_top" xlink:title="Primitive base class.">
<polygon fill="white" stroke="black" points="185,-851.5 185,-974.5 341,-974.5 341,-851.5 185,-851.5"/>
<text text-anchor="start" x="193" y="-962.5" font-family="Helvetica,sans-Serif" font-size="10.00">Ponca::PrimitiveBase</text>
<text text-anchor="middle" x="263" y="-951.5" font-family="Helvetica,sans-Serif" font-size="10.00">&lt; DataPoint, _WFunctor, T &gt;</text>
<polyline fill="none" stroke="black" points="185,-944.5 341,-944.5 "/>
<text text-anchor="start" x="193" y="-932.5" font-family="Helvetica,sans-Serif" font-size="10.00"># m_eCurrentState</text>
<text text-anchor="start" x="193" y="-921.5" font-family="Helvetica,sans-Serif" font-size="10.00"># m_nbNeighbors</text>
<polyline fill="none" stroke="black" points="185,-914.5 341,-914.5 "/>
<text text-anchor="start" x="193" y="-902.5" font-family="Helvetica,sans-Serif" font-size="10.00">+ PrimitiveBase()</text>
<text text-anchor="start" x="193" y="-891.5" font-family="Helvetica,sans-Serif" font-size="10.00">+ resetPrimitive()</text>
<text text-anchor="start" x="193" y="-880.5" font-family="Helvetica,sans-Serif" font-size="10.00">+ isReady()</text>
<text text-anchor="start" x="193" y="-869.5" font-family="Helvetica,sans-Serif" font-size="10.00">+ isStable()</text>
<text text-anchor="start" x="193" y="-858.5" font-family="Helvetica,sans-Serif" font-size="10.00">+ getCurrentState()</text>
</a>
</g>
</g>
<!-- Node5&#45;&gt;Node4 -->
<g id="edge4" class="edge">
<title>Node5&#45;&gt;Node4</title>
<path fill="none" stroke="orange" d="M263,-841.13C263,-828.68 263,-815.82 263,-803.68"/>
<polygon fill="orange" stroke="orange" points="259.5,-841.46 263,-851.46 266.5,-841.46 259.5,-841.46"/>
<text text-anchor="middle" x="328.5" y="-825" font-family="Helvetica,sans-Serif" font-size="10.00"> &lt; DataPoint, _WFunctor &gt;</text>
</g>
<!-- Node6&#45;&gt;Node3 -->
<g id="edge5" class="edge">
<title>Node6&#45;&gt;Node3</title>
<path fill="none" stroke="orange" d="M325.36,-421.47C321.9,-408.95 318.39,-396.25 314.97,-383.86"/>
<polygon fill="orange" stroke="orange" points="322.08,-422.76 328.12,-431.47 328.83,-420.9 322.08,-422.76"/>
<text text-anchor="middle" x="386.5" y="-405" font-family="Helvetica,sans-Serif" font-size="10.00"> &lt; DataPoint, _WFunctor &gt;</text>
</g>
</g>
</svg>
