<?xml version="1.0" encoding="UTF-8" standalone="no"?>
<!DOCTYPE svg PUBLIC "-//W3C//DTD SVG 1.1//EN"
 "http://www.w3.org/Graphics/SVG/1.1/DTD/svg11.dtd">
<!-- Generated by graphviz version 2.43.0 (0)
 -->
<!-- Title: Ponca::KnnGraphRangeQuery&lt; Traits, IndexSet &gt; Pages: 1 -->
<!--zoomable 654 -->

<svg id="main" version="1.1" xmlns="http://www.w3.org/2000/svg" xmlns:xlink="http://www.w3.org/1999/xlink" xml:space="preserve" onload="init(evt)">
<style type="text/css"><![CDATA[
.node, .edge {opacity: 0.7;}
.node.selected, .edge.selected {opacity: 1;}
.edge:hover path { stroke: red; }
.edge:hover polygon { stroke: red; fill: red; }
]]></style>

<defs>
  <circle id="rim" cx="0" cy="0" r="7"/>
  <circle id="rim2" cx="0" cy="0" r="3.5"/>
  <g id="zoomPlus">
    <use xlink:href="#rim" fill="#404040"><set attributeName="fill" to="#808080" begin="zoomplus.mouseover" end="zoomplus.mouseout"/></use>
    <path d="M-4,0h8M0,-4v8" fill="none" stroke="white" stroke-width="1.5" pointer-events="none"/>
  </g>
  <g id="zoomMin">
    <use xlink:href="#rim" fill="#404040"><set attributeName="fill" to="#808080" begin="zoomminus.mouseover" end="zoomminus.mouseout"/></use>
    <path d="M-4,0h8" fill="none" stroke="white" stroke-width="1.5" pointer-events="none"/>
  </g>
  <g id="arrowUp" transform="translate(30 24)">
    <use xlink:href="#rim"/>
    <path pointer-events="none" fill="none" stroke="white" stroke-width="1.5" d="M0,-3.0v7 M-2.5,-0.5L0,-3.0L2.5,-0.5"/>
  </g>
  <g id="arrowRight" transform="rotate(90) translate(36 -43)">
    <use xlink:href="#rim"/>
    <path pointer-events="none" fill="none" stroke="white" stroke-width="1.5" d="M0,-3.0v7 M-2.5,-0.5L0,-3.0L2.5,-0.5"/>
  </g>
  <g id="arrowDown" transform="rotate(180) translate(-30 -48)">
    <use xlink:href="#rim"/>
    <path pointer-events="none" fill="none" stroke="white" stroke-width="1.5" d="M0,-3.0v7 M-2.5,-0.5L0,-3.0L2.5,-0.5"/>
  </g>
  <g id="arrowLeft" transform="rotate(270) translate(-36 17)">
    <use xlink:href="#rim"/>
    <path pointer-events="none" fill="none" stroke="white" stroke-width="1.5" d="M0,-3.0v7 M-2.5,-0.5L0,-3.0L2.5,-0.5"/>
  </g>
  <g id="resetDef">
    <use xlink:href="#rim2" fill="#404040"><set attributeName="fill" to="#808080" begin="reset.mouseover" end="reset.mouseout"/></use>
  </g>
</defs>
<script type="application/ecmascript">
var viewWidth = 162;
var viewHeight = 654;
var sectionId = 'dynsection-0';
</script>
<script type="application/ecmascript" xlink:href="svg.min.js"/>
<svg id="graph" class="graph">
<g id="viewport">
<title>Ponca::KnnGraphRangeQuery&lt; Traits, IndexSet &gt;</title>
<!-- Node1 -->
<g id="Node000001" class="node">
<title>Node1</title>
<g id="a_Node000001"><a xlink:title="Extension of the Query class that allows to read the result of a range neighbor search on the KnnGrap...">
<polygon fill="#999999" stroke="transparent" points="154,-407 0,-407 0,-227 154,-227 154,-407"/>
<text text-anchor="start" x="5" y="-395" font-family="Helvetica,sans-Serif" font-size="10.00">Ponca::KnnGraphRangeQuery</text>
<text text-anchor="start" x="28" y="-384" font-family="Helvetica,sans-Serif" font-size="10.00">&lt; Traits, IndexSet &gt;</text>
<text text-anchor="start" x="8" y="-369" font-family="Helvetica,sans-Serif" font-size="10.00">#</text>
<text text-anchor="start" x="25" y="-369" font-family="Helvetica,sans-Serif" font-size="10.00">m_graph</text>
<text text-anchor="start" x="8" y="-354" font-family="Helvetica,sans-Serif" font-size="10.00">#</text>
<text text-anchor="start" x="25" y="-354" font-family="Helvetica,sans-Serif" font-size="10.00">m_flag</text>
<text text-anchor="start" x="8" y="-339" font-family="Helvetica,sans-Serif" font-size="10.00">#</text>
<text text-anchor="start" x="25" y="-339" font-family="Helvetica,sans-Serif" font-size="10.00">m_stack</text>
<text text-anchor="start" x="8" y="-324" font-family="Helvetica,sans-Serif" font-size="10.00">+</text>
<text text-anchor="start" x="25" y="-324" font-family="Helvetica,sans-Serif" font-size="10.00">KnnGraphRangeQuery()</text>
<text text-anchor="start" x="8" y="-309" font-family="Helvetica,sans-Serif" font-size="10.00">+</text>
<text text-anchor="start" x="25" y="-309" font-family="Helvetica,sans-Serif" font-size="10.00">operator()()</text>
<text text-anchor="start" x="8" y="-294" font-family="Helvetica,sans-Serif" font-size="10.00">+</text>
<text text-anchor="start" x="25" y="-294" font-family="Helvetica,sans-Serif" font-size="10.00">operator()()</text>
<text text-anchor="start" x="8" y="-279" font-family="Helvetica,sans-Serif" font-size="10.00">+</text>
<text text-anchor="start" x="25" y="-279" font-family="Helvetica,sans-Serif" font-size="10.00">begin()</text>
<text text-anchor="start" x="8" y="-264" font-family="Helvetica,sans-Serif" font-size="10.00">+</text>
<text text-anchor="start" x="25" y="-264" font-family="Helvetica,sans-Serif" font-size="10.00">end()</text>
<text text-anchor="start" x="8" y="-249" font-family="Helvetica,sans-Serif" font-size="10.00">#</text>
<text text-anchor="start" x="25" y="-249" font-family="Helvetica,sans-Serif" font-size="10.00">initialize()</text>
<text text-anchor="start" x="8" y="-234" font-family="Helvetica,sans-Serif" font-size="10.00">#</text>
<text text-anchor="start" x="25" y="-234" font-family="Helvetica,sans-Serif" font-size="10.00">advance()</text>
<polygon fill="#666666" stroke="#666666" points="0,-379 0,-379 154,-379 154,-379 0,-379"/>
<polygon fill="#666666" stroke="#666666" points="0,-334 0,-334 23,-334 23,-334 0,-334"/>
<polygon fill="#666666" stroke="#666666" points="23,-334 23,-334 154,-334 154,-334 23,-334"/>
<polygon fill="none" stroke="#666666" points="0,-227 0,-407 154,-407 154,-227 0,-227"/>
</a>
</g>
</g>
<!-- Node5 -->
<g id="Node000005" class="node">
<title>Node5</title>
<g id="a_Node000005"><a xlink:href="classPonca_1_1KnnGraphRangeQuery.html" target="_top" xlink:title=" ">
<polygon fill="white" stroke="transparent" points="154,-180 0,-180 0,0 154,0 154,-180"/>
<text text-anchor="start" x="5" y="-168" font-family="Helvetica,sans-Serif" font-size="10.00">Ponca::KnnGraphRangeQuery</text>
<text text-anchor="start" x="52.5" y="-157" font-family="Helvetica,sans-Serif" font-size="10.00">&lt; Traits &gt;</text>
<text text-anchor="start" x="8" y="-142" font-family="Helvetica,sans-Serif" font-size="10.00">#</text>
<text text-anchor="start" x="25" y="-142" font-family="Helvetica,sans-Serif" font-size="10.00">m_graph</text>
<text text-anchor="start" x="8" y="-127" font-family="Helvetica,sans-Serif" font-size="10.00">#</text>
<text text-anchor="start" x="25" y="-127" font-family="Helvetica,sans-Serif" font-size="10.00">m_flag</text>
<text text-anchor="start" x="8" y="-112" font-family="Helvetica,sans-Serif" font-size="10.00">#</text>
<text text-anchor="start" x="25" y="-112" font-family="Helvetica,sans-Serif" font-size="10.00">m_stack</text>
<text text-anchor="start" x="8" y="-97" font-family="Helvetica,sans-Serif" font-size="10.00">+</text>
<text text-anchor="start" x="25" y="-97" font-family="Helvetica,sans-Serif" font-size="10.00">KnnGraphRangeQuery()</text>
<text text-anchor="start" x="8" y="-82" font-family="Helvetica,sans-Serif" font-size="10.00">+</text>
<text text-anchor="start" x="25" y="-82" font-family="Helvetica,sans-Serif" font-size="10.00">operator()()</text>
<text text-anchor="start" x="8" y="-67" font-family="Helvetica,sans-Serif" font-size="10.00">+</text>
<text text-anchor="start" x="25" y="-67" font-family="Helvetica,sans-Serif" font-size="10.00">operator()()</text>
<text text-anchor="start" x="8" y="-52" font-family="Helvetica,sans-Serif" font-size="10.00">+</text>
<text text-anchor="start" x="25" y="-52" font-family="Helvetica,sans-Serif" font-size="10.00">begin()</text>
<text text-anchor="start" x="8" y="-37" font-family="Helvetica,sans-Serif" font-size="10.00">+</text>
<text text-anchor="start" x="25" y="-37" font-family="Helvetica,sans-Serif" font-size="10.00">end()</text>
<text text-anchor="start" x="8" y="-22" font-family="Helvetica,sans-Serif" font-size="10.00">#</text>
<text text-anchor="start" x="25" y="-22" font-family="Helvetica,sans-Serif" font-size="10.00">initialize()</text>
<text text-anchor="start" x="8" y="-7" font-family="Helvetica,sans-Serif" font-size="10.00">#</text>
<text text-anchor="start" x="25" y="-7" font-family="Helvetica,sans-Serif" font-size="10.00">advance()</text>
<polygon fill="#666666" stroke="#666666" points="0,-152 0,-152 154,-152 154,-152 0,-152"/>
<polygon fill="#666666" stroke="#666666" points="0,-107 0,-107 23,-107 23,-107 0,-107"/>
<polygon fill="#666666" stroke="#666666" points="23,-107 23,-107 154,-107 154,-107 23,-107"/>
<polygon fill="none" stroke="#666666" points="0,0 0,-180 154,-180 154,0 0,0"/>
</a>
</g>
</g>
<!-- Node1&#45;&gt;Node5 -->
<g id="edge4_Node000001_Node000005" class="edge">
<title>Node1&#45;&gt;Node5</title>
<g id="a_edge4_Node000001_Node000005"><a xlink:title=" ">
<path fill="none" stroke="orange" d="M77,-216.61C77,-204.47 77,-192.12 77,-180.14"/>
<polygon fill="orange" stroke="orange" points="73.5,-216.75 77,-226.75 80.5,-216.75 73.5,-216.75"/>
</a>
</g>
<text text-anchor="middle" x="103" y="-201" font-family="Helvetica,sans-Serif" font-size="10.00" fill="grey"> &lt; Traits &gt;</text>
</g>
<!-- Node2 -->
<g id="Node000002" class="node">
<title>Node2</title>
<g id="a_Node000002"><a xlink:href="group__spatialpartitioning.html#structPonca_1_1Query" target="_top" xlink:title="Composes the Query object depending on an input type and output type.">
<polygon fill="white" stroke="transparent" points="153,-560 1,-560 1,-444 153,-444 153,-560"/>
<text text-anchor="start" x="6" y="-548" font-family="Helvetica,sans-Serif" font-size="10.00">RangeIndexQuery&lt; Traits</text>
<text text-anchor="start" x="6" y="-537" font-family="Helvetica,sans-Serif" font-size="10.00">::IndexType, Traits::DataPoint</text>
<text text-anchor="start" x="53" y="-526" font-family="Helvetica,sans-Serif" font-size="10.00">::Scalar &gt;</text>
<text text-anchor="start" x="75" y="-511" font-family="Helvetica,sans-Serif" font-size="10.00"> </text>
<text text-anchor="start" x="23.5" y="-496" font-family="Helvetica,sans-Serif" font-size="10.00">+</text>
<text text-anchor="start" x="55" y="-496" font-family="Helvetica,sans-Serif" font-size="10.00">Query()</text>
<text text-anchor="start" x="23.5" y="-481" font-family="Helvetica,sans-Serif" font-size="10.00">+</text>
<text text-anchor="start" x="55" y="-481" font-family="Helvetica,sans-Serif" font-size="10.00">Query()</text>
<text text-anchor="start" x="23.5" y="-466" font-family="Helvetica,sans-Serif" font-size="10.00">+</text>
<text text-anchor="start" x="55" y="-466" font-family="Helvetica,sans-Serif" font-size="10.00">operator()()</text>
<text text-anchor="start" x="23.5" y="-451" font-family="Helvetica,sans-Serif" font-size="10.00">+</text>
<text text-anchor="start" x="55" y="-451" font-family="Helvetica,sans-Serif" font-size="10.00">operator()()</text>
<polygon fill="#666666" stroke="#666666" points="1,-521 1,-521 153,-521 153,-521 1,-521"/>
<polygon fill="#666666" stroke="#666666" points="1,-506 1,-506 153,-506 153,-506 1,-506"/>
<polygon fill="none" stroke="#666666" points="1,-444 1,-560 153,-560 153,-444 1,-444"/>
</a>
</g>
</g>
<!-- Node2&#45;&gt;Node1 -->
<g id="edge1_Node000001_Node000002" class="edge">
<title>Node2&#45;&gt;Node1</title>
<g id="a_edge1_Node000001_Node000002"><a xlink:title=" ">
<path fill="none" stroke="#63b8ff" d="M77,-433.84C77,-425.18 77,-416.2 77,-407.25"/>
<polygon fill="none" stroke="#63b8ff" points="73.5,-433.85 77,-443.85 80.5,-433.85 73.5,-433.85"/>
</a>
</g>
</g>
<!-- Node3 -->
<g id="Node000003" class="node">
<title>Node3</title>
<g id="a_Node000003"><a xlink:title=" ">
<polygon fill="white" stroke="transparent" points="66.5,-646 25.5,-646 25.5,-597 66.5,-597 66.5,-646"/>
<text text-anchor="start" x="31" y="-633.5" font-family="Helvetica,sans-Serif" font-size="10.00">Input_</text>
<text text-anchor="start" x="44.5" y="-618.5" font-family="Helvetica,sans-Serif" font-size="10.00"> </text>
<text text-anchor="start" x="44.5" y="-603.5" font-family="Helvetica,sans-Serif" font-size="10.00"> </text>
<polygon fill="#bfbfbf" stroke="#bfbfbf" points="26,-628.5 26,-628.5 67,-628.5 67,-628.5 26,-628.5"/>
<polygon fill="#bfbfbf" stroke="#bfbfbf" points="26,-613.5 26,-613.5 67,-613.5 67,-613.5 26,-613.5"/>
<polygon fill="none" stroke="#bfbfbf" points="25.5,-597 25.5,-646 66.5,-646 66.5,-597 25.5,-597"/>
</a>
</g>
</g>
<!-- Node3&#45;&gt;Node2 -->
<g id="edge2_Node000002_Node000003" class="edge">
<title>Node3&#45;&gt;Node2</title>
<g id="a_edge2_Node000002_Node000003"><a xlink:title=" ">
<path fill="none" stroke="#63b8ff" d="M54.84,-587C57.05,-578.63 59.48,-569.42 61.89,-560.26"/>
<polygon fill="none" stroke="#63b8ff" points="51.44,-586.16 52.27,-596.72 58.21,-587.95 51.44,-586.16"/>
</a>
</g>
</g>
<!-- Node4 -->
<g id="Node000004" class="node">
<title>Node4</title>
<g id="a_Node000004"><a xlink:title=" ">
<polygon fill="white" stroke="transparent" points="133.5,-646 84.5,-646 84.5,-597 133.5,-597 133.5,-646"/>
<text text-anchor="start" x="90" y="-633.5" font-family="Helvetica,sans-Serif" font-size="10.00">Output_</text>
<text text-anchor="start" x="107.5" y="-618.5" font-family="Helvetica,sans-Serif" font-size="10.00"> </text>
<text text-anchor="start" x="107.5" y="-603.5" font-family="Helvetica,sans-Serif" font-size="10.00"> </text>
<polygon fill="#bfbfbf" stroke="#bfbfbf" points="85,-628.5 85,-628.5 134,-628.5 134,-628.5 85,-628.5"/>
<polygon fill="#bfbfbf" stroke="#bfbfbf" points="85,-613.5 85,-613.5 134,-613.5 134,-613.5 85,-613.5"/>
<polygon fill="none" stroke="#bfbfbf" points="84.5,-597 84.5,-646 133.5,-646 133.5,-597 84.5,-597"/>
</a>
</g>
</g>
<!-- Node4&#45;&gt;Node2 -->
<g id="edge3_Node000002_Node000004" class="edge">
<title>Node4&#45;&gt;Node2</title>
<g id="a_edge3_Node000002_Node000004"><a xlink:title=" ">
<path fill="none" stroke="#63b8ff" d="M99.88,-587C97.6,-578.63 95.09,-569.42 92.59,-560.26"/>
<polygon fill="none" stroke="#63b8ff" points="96.52,-587.99 102.52,-596.72 103.27,-586.15 96.52,-587.99"/>
</a>
</g>
</g>
</g>
</svg>

<g id="navigator" transform="translate(0 0)" fill="#404254">
  <rect fill="#f2f5e9" fill-opacity="0.5" stroke="#606060" stroke-width=".5" x="0" y="0" width="60" height="60"/>
  <use id="zoomplus" xlink:href="#zoomPlus" x="17" y="9" onmousedown="handleZoom(evt,'in')"/>
  <use id="zoomminus" xlink:href="#zoomMin" x="42" y="9" onmousedown="handleZoom(evt,'out')"/>
  <use id="reset" xlink:href="#resetDef" x="30" y="36" onmousedown="handleReset()"/>
   <use id="arrowup" xlink:href="#arrowUp" x="0" y="0" onmousedown="handlePan(0,-1)"/>
  <use id="arrowright" xlink:href="#arrowRight" x="0" y="0" onmousedown="handlePan(1,0)"/>
  <use id="arrowdown" xlink:href="#arrowDown" x="0" y="0" onmousedown="handlePan(0,1)"/>
  <use id="arrowleft" xlink:href="#arrowLeft" x="0" y="0" onmousedown="handlePan(-1,0)"/>
</g>
<svg viewBox="0 0 15 15" width="100%" height="30px" preserveAspectRatio="xMaxYMin meet">
 <g id="arrow_out" transform="scale(0.3 0.3)">
  <a xlink:href="classPonca_1_1KnnGraphRangeQuery__inherit__graph_org.svg" target="_base">
   <rect id="button" ry="5" rx="5" y="6" x="6" height="38" width="38"
        fill="#f2f5e9" fill-opacity="0.5" stroke="#606060" stroke-width="1.0"/>
   <path id="arrow"
     d="M 11.500037,31.436501 C 11.940474,20.09759 22.043105,11.32322 32.158766,21.979434 L 37.068811,17.246167 C 37.068811,17.246167 37.088388,32 37.088388,32 L 22.160133,31.978069 C 22.160133,31.978069 26.997745,27.140456 26.997745,27.140456 C 18.528582,18.264221 13.291696,25.230495 11.500037,31.436501 z"
     style="fill:#404040;"/>
  </a>
 </g>
</svg>

<style type='text/css'>
<![CDATA[
[data-mouse-over-selected='false'] { opacity: 0.7; }
[data-mouse-over-selected='true']  { opacity: 1.0; }
]]>
</style>
<script type="application/ecmascript"><![CDATA[
document.addEventListener('DOMContentLoaded', (event) => {
  highlightEdges();
  highlightAdjacentNodes();
});
]]></script>
</svg>
