<?xml version="1.0" encoding="UTF-8" standalone="no"?>
<!DOCTYPE svg PUBLIC "-//W3C//DTD SVG 1.1//EN"
 "http://www.w3.org/Graphics/SVG/1.1/DTD/svg11.dtd">
<!-- Generated by graphviz version 2.43.0 (0)
 -->
<!-- Title: Ponca::Stack&lt; T, N &gt; Pages: 1 -->
<svg width="234pt" height="478pt"
 viewBox="0.00 0.00 234.00 478.00" xmlns="http://www.w3.org/2000/svg" xmlns:xlink="http://www.w3.org/1999/xlink">
<g id="graph0" class="graph" transform="scale(1 1) rotate(0) translate(4 474)">
<title>Ponca::Stack&lt; T, N &gt;</title>
<!-- Node1 -->
<g id="Node000001" class="node">
<title>Node1</title>
<g id="a_Node000001"><a xlink:title="Stack with fixed&#45;size storage.">
<polygon fill="#999999" stroke="transparent" points="123.5,-470 8.5,-470 8.5,-286 123.5,-286 123.5,-470"/>
<text text-anchor="start" x="14" y="-458" font-family="Helvetica,sans-Serif" font-size="10.00">Ponca::Stack&lt; T, N &gt;</text>
<text text-anchor="start" x="26.5" y="-443" font-family="Helvetica,sans-Serif" font-size="10.00">#</text>
<text text-anchor="start" x="53" y="-443" font-family="Helvetica,sans-Serif" font-size="10.00">m_size</text>
<text text-anchor="start" x="26.5" y="-428" font-family="Helvetica,sans-Serif" font-size="10.00">#</text>
<text text-anchor="start" x="53" y="-428" font-family="Helvetica,sans-Serif" font-size="10.00">m_data</text>
<text text-anchor="start" x="26.5" y="-413" font-family="Helvetica,sans-Serif" font-size="10.00">+</text>
<text text-anchor="start" x="53" y="-413" font-family="Helvetica,sans-Serif" font-size="10.00">Stack()</text>
<text text-anchor="start" x="26.5" y="-398" font-family="Helvetica,sans-Serif" font-size="10.00">+</text>
<text text-anchor="start" x="53" y="-398" font-family="Helvetica,sans-Serif" font-size="10.00">top()</text>
<text text-anchor="start" x="26.5" y="-383" font-family="Helvetica,sans-Serif" font-size="10.00">+</text>
<text text-anchor="start" x="53" y="-383" font-family="Helvetica,sans-Serif" font-size="10.00">top()</text>
<text text-anchor="start" x="26.5" y="-368" font-family="Helvetica,sans-Serif" font-size="10.00">+</text>
<text text-anchor="start" x="53" y="-368" font-family="Helvetica,sans-Serif" font-size="10.00">empty()</text>
<text text-anchor="start" x="26.5" y="-353" font-family="Helvetica,sans-Serif" font-size="10.00">+</text>
<text text-anchor="start" x="53" y="-353" font-family="Helvetica,sans-Serif" font-size="10.00">size()</text>
<text text-anchor="start" x="26.5" y="-338" font-family="Helvetica,sans-Serif" font-size="10.00">+</text>
<text text-anchor="start" x="53" y="-338" font-family="Helvetica,sans-Serif" font-size="10.00">push()</text>
<text text-anchor="start" x="26.5" y="-323" font-family="Helvetica,sans-Serif" font-size="10.00">+</text>
<text text-anchor="start" x="53" y="-323" font-family="Helvetica,sans-Serif" font-size="10.00">push()</text>
<text text-anchor="start" x="26.5" y="-308" font-family="Helvetica,sans-Serif" font-size="10.00">+</text>
<text text-anchor="start" x="53" y="-308" font-family="Helvetica,sans-Serif" font-size="10.00">pop()</text>
<text text-anchor="start" x="26.5" y="-293" font-family="Helvetica,sans-Serif" font-size="10.00">+</text>
<text text-anchor="start" x="53" y="-293" font-family="Helvetica,sans-Serif" font-size="10.00">clear()</text>
<polygon fill="#666666" stroke="#666666" points="9,-453 9,-453 124,-453 124,-453 9,-453"/>
<polygon fill="#666666" stroke="#666666" points="9,-423 9,-423 51,-423 51,-423 9,-423"/>
<polygon fill="#666666" stroke="#666666" points="51,-423 51,-423 124,-423 124,-423 51,-423"/>
<polygon fill="none" stroke="#666666" points="8.5,-286 8.5,-470 123.5,-470 123.5,-286 8.5,-286"/>
</a>
</g>
</g>
<!-- Node2 -->
<g id="Node000002" class="node">
<title>Node2</title>
<g id="a_Node000002"><a xlink:href="classPonca_1_1Stack.html" target="_top" xlink:title=" ">
<polygon fill="white" stroke="transparent" points="132,-217 0,-217 0,0 132,0 132,-217"/>
<text text-anchor="start" x="5" y="-204.5" font-family="Helvetica,sans-Serif" font-size="10.00">Ponca::Stack&lt; Ponca</text>
<text text-anchor="start" x="5" y="-193.5" font-family="Helvetica,sans-Serif" font-size="10.00">::IndexSquaredDistance</text>
<text text-anchor="start" x="5" y="-182.5" font-family="Helvetica,sans-Serif" font-size="10.00">&lt; IndexType, Scalar &gt;,</text>
<text text-anchor="start" x="5" y="-171.5" font-family="Helvetica,sans-Serif" font-size="10.00"> 2 *Traits::MAX_DEPTH &gt;</text>
<text text-anchor="start" x="21.5" y="-156.5" font-family="Helvetica,sans-Serif" font-size="10.00">#</text>
<text text-anchor="start" x="52" y="-156.5" font-family="Helvetica,sans-Serif" font-size="10.00">m_size</text>
<text text-anchor="start" x="21.5" y="-141.5" font-family="Helvetica,sans-Serif" font-size="10.00">#</text>
<text text-anchor="start" x="52" y="-141.5" font-family="Helvetica,sans-Serif" font-size="10.00">m_data</text>
<text text-anchor="start" x="21.5" y="-126.5" font-family="Helvetica,sans-Serif" font-size="10.00">+</text>
<text text-anchor="start" x="52" y="-126.5" font-family="Helvetica,sans-Serif" font-size="10.00">Stack()</text>
<text text-anchor="start" x="21.5" y="-111.5" font-family="Helvetica,sans-Serif" font-size="10.00">+</text>
<text text-anchor="start" x="52" y="-111.5" font-family="Helvetica,sans-Serif" font-size="10.00">top()</text>
<text text-anchor="start" x="21.5" y="-96.5" font-family="Helvetica,sans-Serif" font-size="10.00">+</text>
<text text-anchor="start" x="52" y="-96.5" font-family="Helvetica,sans-Serif" font-size="10.00">top()</text>
<text text-anchor="start" x="21.5" y="-81.5" font-family="Helvetica,sans-Serif" font-size="10.00">+</text>
<text text-anchor="start" x="52" y="-81.5" font-family="Helvetica,sans-Serif" font-size="10.00">empty()</text>
<text text-anchor="start" x="21.5" y="-66.5" font-family="Helvetica,sans-Serif" font-size="10.00">+</text>
<text text-anchor="start" x="52" y="-66.5" font-family="Helvetica,sans-Serif" font-size="10.00">size()</text>
<text text-anchor="start" x="21.5" y="-51.5" font-family="Helvetica,sans-Serif" font-size="10.00">+</text>
<text text-anchor="start" x="52" y="-51.5" font-family="Helvetica,sans-Serif" font-size="10.00">push()</text>
<text text-anchor="start" x="21.5" y="-36.5" font-family="Helvetica,sans-Serif" font-size="10.00">+</text>
<text text-anchor="start" x="52" y="-36.5" font-family="Helvetica,sans-Serif" font-size="10.00">push()</text>
<text text-anchor="start" x="21.5" y="-21.5" font-family="Helvetica,sans-Serif" font-size="10.00">+</text>
<text text-anchor="start" x="52" y="-21.5" font-family="Helvetica,sans-Serif" font-size="10.00">pop()</text>
<text text-anchor="start" x="21.5" y="-6.5" font-family="Helvetica,sans-Serif" font-size="10.00">+</text>
<text text-anchor="start" x="52" y="-6.5" font-family="Helvetica,sans-Serif" font-size="10.00">clear()</text>
<polygon fill="#666666" stroke="#666666" points="0,-166.5 0,-166.5 132,-166.5 132,-166.5 0,-166.5"/>
<polygon fill="#666666" stroke="#666666" points="0,-136.5 0,-136.5 50,-136.5 50,-136.5 0,-136.5"/>
<polygon fill="#666666" stroke="#666666" points="50,-136.5 50,-136.5 132,-136.5 132,-136.5 50,-136.5"/>
<polygon fill="none" stroke="#666666" points="0,0 0,-217 132,-217 132,0 0,0"/>
</a>
</g>
</g>
<!-- Node1&#45;&gt;Node2 -->
<g id="edge1_Node000001_Node000002" class="edge">
<title>Node1&#45;&gt;Node2</title>
<g id="a_edge1_Node000001_Node000002"><a xlink:title=" ">
<path fill="none" stroke="orange" d="M66,-275.48C66,-256.36 66,-236.3 66,-217"/>
<polygon fill="orange" stroke="orange" points="62.5,-275.69 66,-285.69 69.5,-275.69 62.5,-275.69"/>
</a>
</g>
<text text-anchor="start" x="66" y="-260" font-family="Helvetica,sans-Serif" font-size="10.00" fill="grey"> &lt; Ponca::IndexSquaredDistance</text>
<text text-anchor="start" x="66" y="-249" font-family="Helvetica,sans-Serif" font-size="10.00" fill="grey">&lt; IndexType, Scalar &gt;, 2</text>
<text text-anchor="middle" x="146" y="-238" font-family="Helvetica,sans-Serif" font-size="10.00" fill="grey"> *Traits::MAX_DEPTH &gt;</text>
</g>
</g>
</svg>
