<?xml version="1.0" encoding="UTF-8" standalone="no"?>
<!DOCTYPE svg PUBLIC "-//W3C//DTD SVG 1.1//EN"
 "http://www.w3.org/Graphics/SVG/1.1/DTD/svg11.dtd">
<!-- Generated by graphviz version 2.43.0 (0)
 -->
<!-- Title: Ponca::PointPosition&lt; _Scalar, _Dim &gt; Pages: 1 -->
<svg width="118pt" height="98pt"
 viewBox="0.00 0.00 118.00 98.00" xmlns="http://www.w3.org/2000/svg" xmlns:xlink="http://www.w3.org/1999/xlink">
<g id="graph0" class="graph" transform="scale(1 1) rotate(0) translate(4 94)">
<title>Ponca::PointPosition&lt; _Scalar, _Dim &gt;</title>
<!-- Node1 -->
<g id="Node000001" class="node">
<title>Node1</title>
<g id="a_Node000001"><a xlink:title="Point data type containing only containing the position vector.">
<polygon fill="#999999" stroke="transparent" points="110,-90 0,-90 0,0 110,0 110,-90"/>
<text text-anchor="start" x="5" y="-78" font-family="Helvetica,sans-Serif" font-size="10.00">Ponca::PointPosition</text>
<text text-anchor="start" x="10" y="-67" font-family="Helvetica,sans-Serif" font-size="10.00">&lt; _Scalar, _Dim &gt;</text>
<text text-anchor="start" x="53" y="-52" font-family="Helvetica,sans-Serif" font-size="10.00"> </text>
<text text-anchor="start" x="8" y="-37" font-family="Helvetica,sans-Serif" font-size="10.00">+</text>
<text text-anchor="start" x="25" y="-37" font-family="Helvetica,sans-Serif" font-size="10.00">PointPosition()</text>
<text text-anchor="start" x="8" y="-22" font-family="Helvetica,sans-Serif" font-size="10.00">+</text>
<text text-anchor="start" x="25" y="-22" font-family="Helvetica,sans-Serif" font-size="10.00">pos()</text>
<text text-anchor="start" x="8" y="-7" font-family="Helvetica,sans-Serif" font-size="10.00">+</text>
<text text-anchor="start" x="25" y="-7" font-family="Helvetica,sans-Serif" font-size="10.00">pos()</text>
<polygon fill="#666666" stroke="#666666" points="0,-62 0,-62 110,-62 110,-62 0,-62"/>
<polygon fill="#666666" stroke="#666666" points="0,-47 0,-47 110,-47 110,-47 0,-47"/>
<polygon fill="none" stroke="#666666" points="0,0 0,-90 110,-90 110,0 0,0"/>
</a>
</g>
</g>
</g>
</svg>
