<?xml version="1.0" encoding="UTF-8" standalone="no"?>
<!DOCTYPE svg PUBLIC "-//W3C//DTD SVG 1.1//EN"
 "http://www.w3.org/Graphics/SVG/1.1/DTD/svg11.dtd">
<!-- Generated by graphviz version 2.43.0 (0)
 -->
<!-- Title: Ponca::ConstantWeightKernel&lt; _Scalar &gt; Pages: 1 -->
<svg width="169pt" height="228pt"
 viewBox="0.00 0.00 169.00 228.00" xmlns="http://www.w3.org/2000/svg" xmlns:xlink="http://www.w3.org/1999/xlink">

<svg id="main" version="1.1" xmlns="http://www.w3.org/2000/svg" xmlns:xlink="http://www.w3.org/1999/xlink" xml:space="preserve" onload="init(evt)">
<style type="text/css"><![CDATA[
.node, .edge {opacity: 0.7;}
.node.selected, .edge.selected {opacity: 1;}
.edge:hover path { stroke: red; }
.edge:hover polygon { stroke: red; fill: red; }
]]></style>
<script type="application/ecmascript" xlink:href="svg.min.js"/>
<svg id="graph" class="graph">
<g id="graph0" class="graph" transform="scale(1 1) rotate(0) translate(4 224)">
<title>Ponca::ConstantWeightKernel&lt; _Scalar &gt;</title>
<!-- Node1 -->
<g id="Node000001" class="node">
<title>Node1</title>
<g id="a_Node000001"><a xlink:title="Concept::WeightKernelConcept returning a constant value.">
<polygon fill="#999999" stroke="transparent" points="157.5,-135 3.5,-135 3.5,0 157.5,0 157.5,-135"/>
<text text-anchor="start" x="8.5" y="-122.5" font-family="Helvetica,sans-Serif" font-size="10.00">Ponca::ConstantWeightKernel</text>
<text text-anchor="start" x="51.5" y="-111.5" font-family="Helvetica,sans-Serif" font-size="10.00">&lt; _Scalar &gt;</text>
<text text-anchor="start" x="11.5" y="-96.5" font-family="Helvetica,sans-Serif" font-size="10.00">+</text>
<text text-anchor="start" x="28.5" y="-96.5" font-family="Helvetica,sans-Serif" font-size="10.00">isDValid</text>
<text text-anchor="start" x="11.5" y="-81.5" font-family="Helvetica,sans-Serif" font-size="10.00">+</text>
<text text-anchor="start" x="28.5" y="-81.5" font-family="Helvetica,sans-Serif" font-size="10.00">isDDValid</text>
<text text-anchor="start" x="11.5" y="-66.5" font-family="Helvetica,sans-Serif" font-size="10.00">+</text>
<text text-anchor="start" x="28.5" y="-66.5" font-family="Helvetica,sans-Serif" font-size="10.00">ConstantWeightKernel()</text>
<text text-anchor="start" x="11.5" y="-51.5" font-family="Helvetica,sans-Serif" font-size="10.00">+</text>
<text text-anchor="start" x="28.5" y="-51.5" font-family="Helvetica,sans-Serif" font-size="10.00">setValue()</text>
<text text-anchor="start" x="11.5" y="-36.5" font-family="Helvetica,sans-Serif" font-size="10.00">+</text>
<text text-anchor="start" x="28.5" y="-36.5" font-family="Helvetica,sans-Serif" font-size="10.00">f()</text>
<text text-anchor="start" x="11.5" y="-21.5" font-family="Helvetica,sans-Serif" font-size="10.00">+</text>
<text text-anchor="start" x="28.5" y="-21.5" font-family="Helvetica,sans-Serif" font-size="10.00">df()</text>
<text text-anchor="start" x="11.5" y="-6.5" font-family="Helvetica,sans-Serif" font-size="10.00">+</text>
<text text-anchor="start" x="28.5" y="-6.5" font-family="Helvetica,sans-Serif" font-size="10.00">ddf()</text>
<polygon fill="#666666" stroke="#666666" points="3.5,-106.5 3.5,-106.5 157.5,-106.5 157.5,-106.5 3.5,-106.5"/>
<polygon fill="#666666" stroke="#666666" points="3.5,-76.5 3.5,-76.5 26.5,-76.5 26.5,-76.5 3.5,-76.5"/>
<polygon fill="#666666" stroke="#666666" points="26.5,-76.5 26.5,-76.5 157.5,-76.5 157.5,-76.5 26.5,-76.5"/>
<polygon fill="none" stroke="#666666" points="3.5,0 3.5,-135 157.5,-135 157.5,0 3.5,0"/>
</a>
</g>
</g>
<!-- Node2 -->
<g id="Node000002" class="node">
<title>Node2</title>
<g id="a_Node000002"><a xlink:title=" ">
<polygon fill="white" stroke="transparent" points="161,-220 0,-220 0,-171 161,-171 161,-220"/>
<text text-anchor="start" x="5.5" y="-207.5" font-family="Helvetica,sans-Serif" font-size="10.00">Concept::WeightKernelConcept</text>
<text text-anchor="start" x="79" y="-192.5" font-family="Helvetica,sans-Serif" font-size="10.00"> </text>
<text text-anchor="start" x="79" y="-177.5" font-family="Helvetica,sans-Serif" font-size="10.00"> </text>
<polygon fill="#bfbfbf" stroke="#bfbfbf" points="0.5,-202.5 0.5,-202.5 161.5,-202.5 161.5,-202.5 0.5,-202.5"/>
<polygon fill="#bfbfbf" stroke="#bfbfbf" points="0.5,-187.5 0.5,-187.5 161.5,-187.5 161.5,-187.5 0.5,-187.5"/>
<polygon fill="none" stroke="#bfbfbf" points="0,-171 0,-220 161,-220 161,-171 0,-171"/>
</a>
</g>
</g>
<!-- Node2&#45;&gt;Node1 -->
<g id="edge1_Node000001_Node000002" class="edge">
<title>Node2&#45;&gt;Node1</title>
<g id="a_edge1_Node000001_Node000002"><a xlink:title=" ">
<path fill="none" stroke="#63b8ff" d="M80.5,-160.56C80.5,-152.65 80.5,-143.96 80.5,-135.17"/>
<polygon fill="none" stroke="#63b8ff" points="77,-160.8 80.5,-170.8 84,-160.8 77,-160.8"/>
</a>
</g>
</g>
</g>
</svg>
</svg>

<style type='text/css'>
<![CDATA[
[data-mouse-over-selected='false'] { opacity: 0.7; }
[data-mouse-over-selected='true']  { opacity: 1.0; }
]]>
</style>
<script type="application/ecmascript"><![CDATA[
document.addEventListener('DOMContentLoaded', (event) => {
  highlightEdges();
  highlightAdjacentNodes();
});
]]></script>
</svg>
