<?xml version="1.0" encoding="UTF-8" standalone="no"?>
<!DOCTYPE svg PUBLIC "-//W3C//DTD SVG 1.1//EN"
 "http://www.w3.org/Graphics/SVG/1.1/DTD/svg11.dtd">
<!-- Generated by graphviz version 2.43.0 (0)
 -->
<!-- Title: Ponca::ProjectedNormalCovarianceCurvatureEstimator&lt; DataPoint, _NFilter, DiffType, T &gt; Pages: 1 -->
<svg width="190pt" height="306pt"
 viewBox="0.00 0.00 190.00 306.00" xmlns="http://www.w3.org/2000/svg" xmlns:xlink="http://www.w3.org/1999/xlink">
<g id="graph0" class="graph" transform="scale(1 1) rotate(0) translate(4 302)">
<title>Ponca::ProjectedNormalCovarianceCurvatureEstimator&lt; DataPoint, _NFilter, DiffType, T &gt;</title>
<!-- Node1 -->
<g id="Node000001" class="node">
<title>Node1</title>
<g id="a_Node000001"><a xlink:title="Extension to compute curvature values based on a covariance analysis of normal vectors of neighbors p...">
<polygon fill="#999999" stroke="transparent" points="182,-213 0,-213 0,0 182,0 182,-213"/>
<text text-anchor="start" x="5" y="-200.5" font-family="Helvetica,sans-Serif" font-size="10.00">Ponca::ProjectedNormalCovariance</text>
<text text-anchor="start" x="5" y="-189.5" font-family="Helvetica,sans-Serif" font-size="10.00">CurvatureEstimator&lt; DataPoint,</text>
<text text-anchor="start" x="36" y="-178.5" font-family="Helvetica,sans-Serif" font-size="10.00"> _NFilter, DiffType, T &gt;</text>
<text text-anchor="start" x="10" y="-163.5" font-family="Helvetica,sans-Serif" font-size="10.00">#</text>
<text text-anchor="start" x="29" y="-163.5" font-family="Helvetica,sans-Serif" font-size="10.00">m_cog</text>
<text text-anchor="start" x="10" y="-148.5" font-family="Helvetica,sans-Serif" font-size="10.00">#</text>
<text text-anchor="start" x="29" y="-148.5" font-family="Helvetica,sans-Serif" font-size="10.00">m_cov</text>
<text text-anchor="start" x="10" y="-133.5" font-family="Helvetica,sans-Serif" font-size="10.00">#</text>
<text text-anchor="start" x="29" y="-133.5" font-family="Helvetica,sans-Serif" font-size="10.00">m_pass</text>
<text text-anchor="start" x="10" y="-118.5" font-family="Helvetica,sans-Serif" font-size="10.00">#</text>
<text text-anchor="start" x="29" y="-118.5" font-family="Helvetica,sans-Serif" font-size="10.00">m_tframe</text>
<text text-anchor="start" x="10" y="-103.5" font-family="Helvetica,sans-Serif" font-size="10.00">#</text>
<text text-anchor="start" x="29" y="-103.5" font-family="Helvetica,sans-Serif" font-size="10.00">m_solver</text>
<text text-anchor="start" x="10" y="-88.5" font-family="Helvetica,sans-Serif" font-size="10.00">+</text>
<text text-anchor="start" x="29" y="-88.5" font-family="Helvetica,sans-Serif" font-size="10.00">projectedNormalCovariance</text>
<text text-anchor="start" x="29" y="-77.5" font-family="Helvetica,sans-Serif" font-size="10.00">Curvature()</text>
<text text-anchor="start" x="10" y="-62.5" font-family="Helvetica,sans-Serif" font-size="10.00">+</text>
<text text-anchor="start" x="29" y="-62.5" font-family="Helvetica,sans-Serif" font-size="10.00">projectedNormalCovariance</text>
<text text-anchor="start" x="29" y="-51.5" font-family="Helvetica,sans-Serif" font-size="10.00">Curvature()</text>
<text text-anchor="start" x="10" y="-36.5" font-family="Helvetica,sans-Serif" font-size="10.00">+</text>
<text text-anchor="start" x="29" y="-36.5" font-family="Helvetica,sans-Serif" font-size="10.00">init()</text>
<text text-anchor="start" x="10" y="-21.5" font-family="Helvetica,sans-Serif" font-size="10.00">+</text>
<text text-anchor="start" x="29" y="-21.5" font-family="Helvetica,sans-Serif" font-size="10.00">addLocalNeighbor()</text>
<text text-anchor="start" x="10" y="-6.5" font-family="Helvetica,sans-Serif" font-size="10.00">+</text>
<text text-anchor="start" x="29" y="-6.5" font-family="Helvetica,sans-Serif" font-size="10.00">finalize()</text>
<polygon fill="#666666" stroke="#666666" points="0,-173.5 0,-173.5 182,-173.5 182,-173.5 0,-173.5"/>
<polygon fill="#666666" stroke="#666666" points="0,-98.5 0,-98.5 27,-98.5 27,-98.5 0,-98.5"/>
<polygon fill="#666666" stroke="#666666" points="27,-98.5 27,-98.5 182,-98.5 182,-98.5 27,-98.5"/>
<polygon fill="none" stroke="#666666" points="0,0 0,-213 182,-213 182,0 0,0"/>
</a>
</g>
</g>
<!-- Node2 -->
<g id="Node000002" class="node">
<title>Node2</title>
<g id="a_Node000002"><a xlink:title=" ">
<polygon fill="white" stroke="transparent" points="99.5,-298 82.5,-298 82.5,-249 99.5,-249 99.5,-298"/>
<text text-anchor="start" x="88" y="-285.5" font-family="Helvetica,sans-Serif" font-size="10.00">T</text>
<text text-anchor="start" x="89.5" y="-270.5" font-family="Helvetica,sans-Serif" font-size="10.00"> </text>
<text text-anchor="start" x="89.5" y="-255.5" font-family="Helvetica,sans-Serif" font-size="10.00"> </text>
<polygon fill="#bfbfbf" stroke="#bfbfbf" points="83,-280.5 83,-280.5 100,-280.5 100,-280.5 83,-280.5"/>
<polygon fill="#bfbfbf" stroke="#bfbfbf" points="83,-265.5 83,-265.5 100,-265.5 100,-265.5 83,-265.5"/>
<polygon fill="none" stroke="#bfbfbf" points="82.5,-249 82.5,-298 99.5,-298 99.5,-249 82.5,-249"/>
</a>
</g>
</g>
<!-- Node2&#45;&gt;Node1 -->
<g id="edge1_Node000001_Node000002" class="edge">
<title>Node2&#45;&gt;Node1</title>
<g id="a_edge1_Node000001_Node000002"><a xlink:title=" ">
<path fill="none" stroke="#63b8ff" d="M91,-238.85C91,-231.06 91,-222.36 91,-213.25"/>
<polygon fill="none" stroke="#63b8ff" points="87.5,-238.86 91,-248.86 94.5,-238.86 87.5,-238.86"/>
</a>
</g>
</g>
</g>
</svg>
