<?xml version="1.0" encoding="UTF-8" standalone="no"?>
<!DOCTYPE svg PUBLIC "-//W3C//DTD SVG 1.1//EN"
 "http://www.w3.org/Graphics/SVG/1.1/DTD/svg11.dtd">
<!-- Generated by graphviz version 2.43.0 (0)
 -->
<!-- Title: Ponca::DistWeightFunc&lt; DataPoint, WeightKernel &gt; Pages: 1 -->
<svg width="180pt" height="389pt"
 viewBox="0.00 0.00 180.00 389.00" xmlns="http://www.w3.org/2000/svg" xmlns:xlink="http://www.w3.org/1999/xlink">
<g id="graph0" class="graph" transform="scale(1 1) rotate(0) translate(4 385)">
<title>Ponca::DistWeightFunc&lt; DataPoint, WeightKernel &gt;</title>
<!-- Node1 -->
<g id="Node000001" class="node">
<title>Node1</title>
<g id="a_Node000001"><a xlink:title="Weight neighbors according to the euclidean distance between a query and a reference position.">
<polygon fill="#999999" stroke="transparent" points="162,-210 10,-210 10,0 162,0 162,-210"/>
<text text-anchor="start" x="15" y="-198" font-family="Helvetica,sans-Serif" font-size="10.00">Ponca::DistWeightFunc</text>
<text text-anchor="start" x="15" y="-187" font-family="Helvetica,sans-Serif" font-size="10.00">&lt; DataPoint, WeightKernel &gt;</text>
<text text-anchor="start" x="25.5" y="-172" font-family="Helvetica,sans-Serif" font-size="10.00">+</text>
<text text-anchor="start" x="50" y="-172" font-family="Helvetica,sans-Serif" font-size="10.00">isCompact</text>
<text text-anchor="start" x="25.5" y="-157" font-family="Helvetica,sans-Serif" font-size="10.00">#</text>
<text text-anchor="start" x="50" y="-157" font-family="Helvetica,sans-Serif" font-size="10.00">m_t</text>
<text text-anchor="start" x="25.5" y="-142" font-family="Helvetica,sans-Serif" font-size="10.00">#</text>
<text text-anchor="start" x="50" y="-142" font-family="Helvetica,sans-Serif" font-size="10.00">m_wk</text>
<text text-anchor="start" x="25.5" y="-127" font-family="Helvetica,sans-Serif" font-size="10.00">+</text>
<text text-anchor="start" x="50" y="-127" font-family="Helvetica,sans-Serif" font-size="10.00">DistWeightFunc()</text>
<text text-anchor="start" x="25.5" y="-112" font-family="Helvetica,sans-Serif" font-size="10.00">+</text>
<text text-anchor="start" x="50" y="-112" font-family="Helvetica,sans-Serif" font-size="10.00">DistWeightFunc()</text>
<text text-anchor="start" x="25.5" y="-97" font-family="Helvetica,sans-Serif" font-size="10.00">+</text>
<text text-anchor="start" x="50" y="-97" font-family="Helvetica,sans-Serif" font-size="10.00">operator()()</text>
<text text-anchor="start" x="25.5" y="-82" font-family="Helvetica,sans-Serif" font-size="10.00">+</text>
<text text-anchor="start" x="50" y="-82" font-family="Helvetica,sans-Serif" font-size="10.00">spacedw()</text>
<text text-anchor="start" x="25.5" y="-67" font-family="Helvetica,sans-Serif" font-size="10.00">+</text>
<text text-anchor="start" x="50" y="-67" font-family="Helvetica,sans-Serif" font-size="10.00">spaced2w()</text>
<text text-anchor="start" x="25.5" y="-52" font-family="Helvetica,sans-Serif" font-size="10.00">+</text>
<text text-anchor="start" x="50" y="-52" font-family="Helvetica,sans-Serif" font-size="10.00">scaledw()</text>
<text text-anchor="start" x="25.5" y="-37" font-family="Helvetica,sans-Serif" font-size="10.00">+</text>
<text text-anchor="start" x="50" y="-37" font-family="Helvetica,sans-Serif" font-size="10.00">scaled2w()</text>
<text text-anchor="start" x="25.5" y="-22" font-family="Helvetica,sans-Serif" font-size="10.00">+</text>
<text text-anchor="start" x="50" y="-22" font-family="Helvetica,sans-Serif" font-size="10.00">scaleSpaced2w()</text>
<text text-anchor="start" x="25.5" y="-7" font-family="Helvetica,sans-Serif" font-size="10.00">+</text>
<text text-anchor="start" x="50" y="-7" font-family="Helvetica,sans-Serif" font-size="10.00">evalScale()</text>
<polygon fill="#666666" stroke="#666666" points="10,-182 10,-182 162,-182 162,-182 10,-182"/>
<polygon fill="#666666" stroke="#666666" points="10,-137 10,-137 48,-137 48,-137 10,-137"/>
<polygon fill="#666666" stroke="#666666" points="48,-137 48,-137 162,-137 162,-137 48,-137"/>
<polygon fill="none" stroke="#666666" points="10,0 10,-210 162,-210 162,0 10,0"/>
</a>
</g>
</g>
<!-- Node2 -->
<g id="Node000002" class="node">
<title>Node2</title>
<g id="a_Node000002"><a xlink:href="classPonca_1_1CenteredNeighborhoodFrame.html" target="_top" xlink:title="NeighborhoodFrame that express 3d points relatively to a prescribed center.">
<polygon fill="white" stroke="transparent" points="172,-381 0,-381 0,-246 172,-246 172,-381"/>
<text text-anchor="start" x="12" y="-368.5" font-family="Helvetica,sans-Serif" font-size="10.00">Ponca::CenteredNeighborhood</text>
<text text-anchor="start" x="35" y="-357.5" font-family="Helvetica,sans-Serif" font-size="10.00">Frame&lt; DataPoint &gt;</text>
<text text-anchor="start" x="4" y="-342.5" font-family="Helvetica,sans-Serif" font-size="10.00">+</text>
<text text-anchor="start" x="17" y="-342.5" font-family="Helvetica,sans-Serif" font-size="10.00">hasLocalFrame</text>
<text text-anchor="start" x="4" y="-327.5" font-family="Helvetica,sans-Serif" font-size="10.00">+</text>
<text text-anchor="start" x="17" y="-327.5" font-family="Helvetica,sans-Serif" font-size="10.00">CenteredNeighborhoodFrame()</text>
<text text-anchor="start" x="4" y="-312.5" font-family="Helvetica,sans-Serif" font-size="10.00">+</text>
<text text-anchor="start" x="17" y="-312.5" font-family="Helvetica,sans-Serif" font-size="10.00">CenteredNeighborhoodFrame()</text>
<text text-anchor="start" x="4" y="-297.5" font-family="Helvetica,sans-Serif" font-size="10.00">+</text>
<text text-anchor="start" x="17" y="-297.5" font-family="Helvetica,sans-Serif" font-size="10.00">changeNeighborhoodFrame()</text>
<text text-anchor="start" x="4" y="-282.5" font-family="Helvetica,sans-Serif" font-size="10.00">+</text>
<text text-anchor="start" x="17" y="-282.5" font-family="Helvetica,sans-Serif" font-size="10.00">convertToGlobalBasis()</text>
<text text-anchor="start" x="4" y="-267.5" font-family="Helvetica,sans-Serif" font-size="10.00">+</text>
<text text-anchor="start" x="17" y="-267.5" font-family="Helvetica,sans-Serif" font-size="10.00">convertToLocalBasis()</text>
<text text-anchor="start" x="4" y="-252.5" font-family="Helvetica,sans-Serif" font-size="10.00">+</text>
<text text-anchor="start" x="17" y="-252.5" font-family="Helvetica,sans-Serif" font-size="10.00">evalPos()</text>
<polygon fill="#666666" stroke="#666666" points="0,-352.5 0,-352.5 172,-352.5 172,-352.5 0,-352.5"/>
<polygon fill="#666666" stroke="#666666" points="0,-337.5 0,-337.5 15,-337.5 15,-337.5 0,-337.5"/>
<polygon fill="#666666" stroke="#666666" points="15,-337.5 15,-337.5 172,-337.5 172,-337.5 15,-337.5"/>
<polygon fill="none" stroke="#666666" points="0,-246 0,-381 172,-381 172,-246 0,-246"/>
</a>
</g>
</g>
<!-- Node2&#45;&gt;Node1 -->
<g id="edge1_Node000001_Node000002" class="edge">
<title>Node2&#45;&gt;Node1</title>
<g id="a_edge1_Node000001_Node000002"><a xlink:title=" ">
<path fill="none" stroke="#63b8ff" d="M86,-235.67C86,-227.31 86,-218.69 86,-210.07"/>
<polygon fill="none" stroke="#63b8ff" points="82.5,-235.74 86,-245.74 89.5,-235.74 82.5,-235.74"/>
</a>
</g>
</g>
</g>
</svg>
