<?xml version="1.0" encoding="UTF-8" standalone="no"?>
<!DOCTYPE svg PUBLIC "-//W3C//DTD SVG 1.1//EN"
 "http://www.w3.org/Graphics/SVG/1.1/DTD/svg11.dtd">
<!-- Generated by graphviz version 2.43.0 (0)
 -->
<!-- Title: Ponca::UnorientedSphereFitImpl&lt; DataPoint, _WFunctor, T &gt; Pages: 1 -->
<svg width="215pt" height="226pt"
 viewBox="0.00 0.00 215.00 226.00" xmlns="http://www.w3.org/2000/svg" xmlns:xlink="http://www.w3.org/1999/xlink">
<g id="graph0" class="graph" transform="scale(1 1) rotate(0) translate(4 222)">
<title>Ponca::UnorientedSphereFitImpl&lt; DataPoint, _WFunctor, T &gt;</title>
<!-- Node1 -->
<g id="node1" class="node">
<title>Node1</title>
<g id="a_node1"><a xlink:title="Algebraic Sphere fitting procedure on point sets with non&#45;oriented normals.">
<polygon fill="#bfbfbf" stroke="black" points="29,-0.5 29,-123.5 207,-123.5 207,-0.5 29,-0.5"/>
<text text-anchor="start" x="37" y="-111.5" font-family="Helvetica,sans-Serif" font-size="10.00">Ponca::UnorientedSphereFit</text>
<text text-anchor="middle" x="118" y="-100.5" font-family="Helvetica,sans-Serif" font-size="10.00">Impl&lt; DataPoint, _WFunctor, T &gt;</text>
<polyline fill="none" stroke="black" points="29,-93.5 207,-93.5 "/>
<text text-anchor="start" x="37" y="-81.5" font-family="Helvetica,sans-Serif" font-size="10.00"># m_matA</text>
<text text-anchor="start" x="37" y="-70.5" font-family="Helvetica,sans-Serif" font-size="10.00"># m_sumDotPP</text>
<polyline fill="none" stroke="black" points="29,-63.5 207,-63.5 "/>
<text text-anchor="start" x="37" y="-51.5" font-family="Helvetica,sans-Serif" font-size="10.00">+ unorientedSphereFit()</text>
<text text-anchor="start" x="37" y="-40.5" font-family="Helvetica,sans-Serif" font-size="10.00">+ unorientedSphereFit()</text>
<text text-anchor="start" x="37" y="-29.5" font-family="Helvetica,sans-Serif" font-size="10.00">+ init()</text>
<text text-anchor="start" x="37" y="-18.5" font-family="Helvetica,sans-Serif" font-size="10.00">+ addLocalNeighbor()</text>
<text text-anchor="start" x="37" y="-7.5" font-family="Helvetica,sans-Serif" font-size="10.00">+ finalize()</text>
</a>
</g>
</g>
<!-- Node2 -->
<g id="node2" class="node">
<title>Node2</title>
<g id="a_node2"><a xlink:title=" ">
<polygon fill="none" stroke="#bfbfbf" points="0,-160.5 0,-217.5 136,-217.5 136,-160.5 0,-160.5"/>
<text text-anchor="middle" x="68" y="-205.5" font-family="Helvetica,sans-Serif" font-size="10.00">FittingProcedureConcept</text>
<polyline fill="none" stroke="#bfbfbf" points="0,-198.5 136,-198.5 "/>
<text text-anchor="middle" x="68" y="-186.5" font-family="Helvetica,sans-Serif" font-size="10.00"> </text>
<polyline fill="none" stroke="#bfbfbf" points="0,-179.5 136,-179.5 "/>
<text text-anchor="middle" x="68" y="-167.5" font-family="Helvetica,sans-Serif" font-size="10.00"> </text>
</a>
</g>
</g>
<!-- Node2&#45;&gt;Node1 -->
<g id="edge1" class="edge">
<title>Node2&#45;&gt;Node1</title>
<path fill="none" stroke="midnightblue" d="M82.83,-150.93C86.26,-142.34 90.01,-132.98 93.73,-123.67"/>
<polygon fill="none" stroke="midnightblue" points="79.56,-149.67 79.1,-160.26 86.06,-152.27 79.56,-149.67"/>
</g>
<!-- Node3 -->
<g id="node3" class="node">
<title>Node3</title>
<g id="a_node3"><a xlink:title=" ">
<polygon fill="none" stroke="#bfbfbf" points="154.5,-160.5 154.5,-217.5 183.5,-217.5 183.5,-160.5 154.5,-160.5"/>
<text text-anchor="middle" x="169" y="-205.5" font-family="Helvetica,sans-Serif" font-size="10.00">T</text>
<polyline fill="none" stroke="#bfbfbf" points="154.5,-198.5 183.5,-198.5 "/>
<text text-anchor="middle" x="169" y="-186.5" font-family="Helvetica,sans-Serif" font-size="10.00"> </text>
<polyline fill="none" stroke="#bfbfbf" points="154.5,-179.5 183.5,-179.5 "/>
<text text-anchor="middle" x="169" y="-167.5" font-family="Helvetica,sans-Serif" font-size="10.00"> </text>
</a>
</g>
</g>
<!-- Node3&#45;&gt;Node1 -->
<g id="edge2" class="edge">
<title>Node3&#45;&gt;Node1</title>
<path fill="none" stroke="midnightblue" d="M153.88,-150.93C150.37,-142.34 146.55,-132.98 142.75,-123.67"/>
<polygon fill="none" stroke="midnightblue" points="150.66,-152.32 157.68,-160.26 157.14,-149.68 150.66,-152.32"/>
</g>
</g>
</svg>
