<?xml version="1.0" encoding="UTF-8" standalone="no"?>
<!DOCTYPE svg PUBLIC "-//W3C//DTD SVG 1.1//EN"
 "http://www.w3.org/Graphics/SVG/1.1/DTD/svg11.dtd">
<!-- Generated by graphviz version 2.43.0 (0)
 -->
<!-- Title: Ponca::KdTreeKNearestPointQuery&lt; DataPoint &gt; Pages: 1 -->
<svg width="610pt" height="897pt"
 viewBox="0.00 0.00 609.50 897.00" xmlns="http://www.w3.org/2000/svg" xmlns:xlink="http://www.w3.org/1999/xlink">
<g id="graph0" class="graph" transform="scale(1 1) rotate(0) translate(4 893)">
<title>Ponca::KdTreeKNearestPointQuery&lt; DataPoint &gt;</title>
<polygon fill="white" stroke="transparent" points="-4,4 -4,-893 605.5,-893 605.5,4 -4,4"/>
<!-- Node1 -->
<g id="node1" class="node">
<title>Node1</title>
<g id="a_node1"><a xlink:title=" ">
<polygon fill="#bfbfbf" stroke="black" points="330.5,-0.5 330.5,-101.5 497.5,-101.5 497.5,-0.5 330.5,-0.5"/>
<text text-anchor="start" x="338.5" y="-89.5" font-family="Helvetica,sans-Serif" font-size="10.00">Ponca::KdTreeKNearestPoint</text>
<text text-anchor="middle" x="414" y="-78.5" font-family="Helvetica,sans-Serif" font-size="10.00">Query&lt; DataPoint &gt;</text>
<polyline fill="none" stroke="black" points="330.5,-71.5 497.5,-71.5 "/>
<text text-anchor="middle" x="414" y="-59.5" font-family="Helvetica,sans-Serif" font-size="10.00"> </text>
<polyline fill="none" stroke="black" points="330.5,-52.5 497.5,-52.5 "/>
<text text-anchor="start" x="338.5" y="-40.5" font-family="Helvetica,sans-Serif" font-size="10.00">+ KdTreeKNearestPointQuery()</text>
<text text-anchor="start" x="338.5" y="-29.5" font-family="Helvetica,sans-Serif" font-size="10.00">+ begin()</text>
<text text-anchor="start" x="338.5" y="-18.5" font-family="Helvetica,sans-Serif" font-size="10.00">+ end()</text>
<text text-anchor="start" x="338.5" y="-7.5" font-family="Helvetica,sans-Serif" font-size="10.00"># search()</text>
</a>
</g>
</g>
<!-- Node2 -->
<g id="node2" class="node">
<title>Node2</title>
<g id="a_node2"><a xlink:href="structPonca_1_1KNearestPointQuery.html" target="_top" xlink:title="Base Query class combining QueryInputIsPosition and QueryOutputIsKNearest.">
<polygon fill="white" stroke="black" points="263.5,-150.5 263.5,-218.5 414.5,-218.5 414.5,-150.5 263.5,-150.5"/>
<text text-anchor="start" x="271.5" y="-206.5" font-family="Helvetica,sans-Serif" font-size="10.00">Ponca::KNearestPointQuery</text>
<text text-anchor="middle" x="339" y="-195.5" font-family="Helvetica,sans-Serif" font-size="10.00">&lt; DataPoint &gt;</text>
<polyline fill="none" stroke="black" points="263.5,-188.5 414.5,-188.5 "/>
<text text-anchor="middle" x="339" y="-176.5" font-family="Helvetica,sans-Serif" font-size="10.00"> </text>
<polyline fill="none" stroke="black" points="263.5,-169.5 414.5,-169.5 "/>
<text text-anchor="middle" x="339" y="-157.5" font-family="Helvetica,sans-Serif" font-size="10.00"> </text>
</a>
</g>
</g>
<!-- Node2&#45;&gt;Node1 -->
<g id="edge1" class="edge">
<title>Node2&#45;&gt;Node1</title>
<path fill="none" stroke="midnightblue" d="M363.03,-141.37C370.25,-128.7 378.25,-114.69 385.72,-101.59"/>
<polygon fill="none" stroke="midnightblue" points="359.84,-139.9 357.93,-150.32 365.92,-143.36 359.84,-139.9"/>
</g>
<!-- Node3 -->
<g id="node3" class="node">
<title>Node3</title>
<g id="a_node3"><a xlink:href="structPonca_1_1Query.html" target="_top" xlink:title=" ">
<polygon fill="white" stroke="black" points="264.5,-267.5 264.5,-368.5 413.5,-368.5 413.5,-267.5 264.5,-267.5"/>
<text text-anchor="start" x="272.5" y="-356.5" font-family="Helvetica,sans-Serif" font-size="10.00">Ponca::Query&lt; QueryInput</text>
<text text-anchor="start" x="272.5" y="-345.5" font-family="Helvetica,sans-Serif" font-size="10.00">IsPosition&lt; DataPoint</text>
<text text-anchor="start" x="272.5" y="-334.5" font-family="Helvetica,sans-Serif" font-size="10.00"> &gt;, QueryOutputIsKNearest</text>
<text text-anchor="middle" x="339" y="-323.5" font-family="Helvetica,sans-Serif" font-size="10.00">&lt; DataPoint::Scalar &gt; &gt;</text>
<polyline fill="none" stroke="black" points="264.5,-316.5 413.5,-316.5 "/>
<text text-anchor="middle" x="339" y="-304.5" font-family="Helvetica,sans-Serif" font-size="10.00"> </text>
<polyline fill="none" stroke="black" points="264.5,-297.5 413.5,-297.5 "/>
<text text-anchor="start" x="272.5" y="-285.5" font-family="Helvetica,sans-Serif" font-size="10.00">+ Query()</text>
<text text-anchor="start" x="272.5" y="-274.5" font-family="Helvetica,sans-Serif" font-size="10.00">+ Query()</text>
</a>
</g>
</g>
<!-- Node3&#45;&gt;Node2 -->
<g id="edge2" class="edge">
<title>Node3&#45;&gt;Node2</title>
<path fill="none" stroke="midnightblue" d="M339,-257.22C339,-243.93 339,-230.31 339,-218.56"/>
<polygon fill="none" stroke="midnightblue" points="335.5,-257.29 339,-267.29 342.5,-257.29 335.5,-257.29"/>
</g>
<!-- Node4 -->
<g id="node4" class="node">
<title>Node4</title>
<g id="a_node4"><a xlink:href="structPonca_1_1QueryInputIsPosition.html" target="_top" xlink:title="Base class for queries storing points.">
<polygon fill="white" stroke="black" points="73.5,-449.5 73.5,-517.5 226.5,-517.5 226.5,-449.5 73.5,-449.5"/>
<text text-anchor="start" x="81.5" y="-505.5" font-family="Helvetica,sans-Serif" font-size="10.00">Ponca::QueryInputIsPosition</text>
<text text-anchor="middle" x="150" y="-494.5" font-family="Helvetica,sans-Serif" font-size="10.00">&lt; DataPoint &gt;</text>
<polyline fill="none" stroke="black" points="73.5,-487.5 226.5,-487.5 "/>
<text text-anchor="middle" x="150" y="-475.5" font-family="Helvetica,sans-Serif" font-size="10.00"> </text>
<polyline fill="none" stroke="black" points="73.5,-468.5 226.5,-468.5 "/>
<text text-anchor="start" x="81.5" y="-456.5" font-family="Helvetica,sans-Serif" font-size="10.00">+ QueryInputIsPosition()</text>
</a>
</g>
</g>
<!-- Node4&#45;&gt;Node3 -->
<g id="edge3" class="edge">
<title>Node4&#45;&gt;Node3</title>
<path fill="none" stroke="midnightblue" d="M196.01,-442.7C221.73,-420.45 254.04,-392.5 281.43,-368.8"/>
<polygon fill="none" stroke="midnightblue" points="193.52,-440.22 188.25,-449.41 198.1,-445.52 193.52,-440.22"/>
</g>
<!-- Node5 -->
<g id="node5" class="node">
<title>Node5</title>
<g id="a_node5"><a xlink:href="structPonca_1_1QueryInput.html" target="_top" xlink:title=" ">
<polygon fill="white" stroke="black" points="52,-582 52,-661 190,-661 190,-582 52,-582"/>
<text text-anchor="start" x="60" y="-649" font-family="Helvetica,sans-Serif" font-size="10.00">Ponca::QueryInput&lt;</text>
<text text-anchor="middle" x="121" y="-638" font-family="Helvetica,sans-Serif" font-size="10.00"> DataPoint::VectorType &gt;</text>
<polyline fill="none" stroke="black" points="52,-631 190,-631 "/>
<text text-anchor="middle" x="121" y="-619" font-family="Helvetica,sans-Serif" font-size="10.00"> </text>
<polyline fill="none" stroke="black" points="52,-612 190,-612 "/>
<text text-anchor="start" x="60" y="-600" font-family="Helvetica,sans-Serif" font-size="10.00">+ QueryInput()</text>
<text text-anchor="start" x="60" y="-589" font-family="Helvetica,sans-Serif" font-size="10.00">+ input()</text>
</a>
</g>
</g>
<!-- Node5&#45;&gt;Node4 -->
<g id="edge4" class="edge">
<title>Node5&#45;&gt;Node4</title>
<path fill="none" stroke="midnightblue" d="M131.37,-571.86C135.2,-553.89 139.45,-533.95 142.93,-517.67"/>
<polygon fill="none" stroke="midnightblue" points="127.9,-571.38 129.23,-581.89 134.74,-572.84 127.9,-571.38"/>
</g>
<!-- Node6 -->
<g id="node6" class="node">
<title>Node6</title>
<g id="a_node6"><a xlink:href="structPonca_1_1QueryInputBase.html" target="_top" xlink:title="Base class for queries input type.">
<polygon fill="white" stroke="black" points="0,-831.5 0,-888.5 130,-888.5 130,-831.5 0,-831.5"/>
<text text-anchor="middle" x="65" y="-876.5" font-family="Helvetica,sans-Serif" font-size="10.00">Ponca::QueryInputBase</text>
<polyline fill="none" stroke="black" points="0,-869.5 130,-869.5 "/>
<text text-anchor="middle" x="65" y="-857.5" font-family="Helvetica,sans-Serif" font-size="10.00"> </text>
<polyline fill="none" stroke="black" points="0,-850.5 130,-850.5 "/>
<text text-anchor="middle" x="65" y="-838.5" font-family="Helvetica,sans-Serif" font-size="10.00"> </text>
</a>
</g>
</g>
<!-- Node6&#45;&gt;Node5 -->
<g id="edge5" class="edge">
<title>Node6&#45;&gt;Node5</title>
<path fill="none" stroke="midnightblue" d="M62.32,-821.1C61.3,-791.42 62.21,-749.37 72,-714 77.05,-695.76 86.2,-677.09 95.23,-661.41"/>
<polygon fill="none" stroke="midnightblue" points="58.84,-821.61 62.78,-831.44 65.84,-821.3 58.84,-821.61"/>
</g>
<!-- Node7 -->
<g id="node7" class="node">
<title>Node7</title>
<g id="a_node7"><a xlink:href="structPonca_1_1QueryInput.html" target="_top" xlink:title="Base class for typed queries input type.">
<polygon fill="white" stroke="black" points="81,-714.5 81,-793.5 195,-793.5 195,-714.5 81,-714.5"/>
<text text-anchor="start" x="89" y="-781.5" font-family="Helvetica,sans-Serif" font-size="10.00">Ponca::QueryInput&lt;</text>
<text text-anchor="middle" x="138" y="-770.5" font-family="Helvetica,sans-Serif" font-size="10.00"> InputType_ &gt;</text>
<polyline fill="none" stroke="black" points="81,-763.5 195,-763.5 "/>
<text text-anchor="middle" x="138" y="-751.5" font-family="Helvetica,sans-Serif" font-size="10.00"> </text>
<polyline fill="none" stroke="black" points="81,-744.5 195,-744.5 "/>
<text text-anchor="start" x="89" y="-732.5" font-family="Helvetica,sans-Serif" font-size="10.00">+ QueryInput()</text>
<text text-anchor="start" x="89" y="-721.5" font-family="Helvetica,sans-Serif" font-size="10.00">+ input()</text>
</a>
</g>
</g>
<!-- Node6&#45;&gt;Node7 -->
<g id="edge7" class="edge">
<title>Node6&#45;&gt;Node7</title>
<path fill="none" stroke="midnightblue" d="M90.29,-822.98C96.92,-813.52 104.11,-803.28 110.84,-793.69"/>
<polygon fill="none" stroke="midnightblue" points="87.25,-821.21 84.37,-831.4 92.98,-825.23 87.25,-821.21"/>
</g>
<!-- Node7&#45;&gt;Node5 -->
<g id="edge6" class="edge">
<title>Node7&#45;&gt;Node5</title>
<path fill="none" stroke="orange" d="M123.49,-704.57C122.91,-701.68 122.41,-698.81 122,-696 120.37,-684.76 119.76,-672.45 119.65,-661.18"/>
<polygon fill="orange" stroke="orange" points="120.08,-705.37 125.7,-714.35 126.91,-703.82 120.08,-705.37"/>
<text text-anchor="middle" x="188.5" y="-688" font-family="Helvetica,sans-Serif" font-size="10.00"> &lt; DataPoint::VectorType &gt;</text>
</g>
<!-- Node8 -->
<g id="node8" class="node">
<title>Node8</title>
<g id="a_node8"><a xlink:href="structPonca_1_1QueryOutputIsKNearest.html" target="_top" xlink:title=" ">
<polygon fill="white" stroke="black" points="255.5,-438.5 255.5,-528.5 422.5,-528.5 422.5,-438.5 255.5,-438.5"/>
<text text-anchor="start" x="263.5" y="-516.5" font-family="Helvetica,sans-Serif" font-size="10.00">Ponca::QueryOutputIsKNearest</text>
<text text-anchor="middle" x="339" y="-505.5" font-family="Helvetica,sans-Serif" font-size="10.00">&lt; DataPoint::Scalar &gt;</text>
<polyline fill="none" stroke="black" points="255.5,-498.5 422.5,-498.5 "/>
<text text-anchor="start" x="263.5" y="-486.5" font-family="Helvetica,sans-Serif" font-size="10.00"># m_queue</text>
<polyline fill="none" stroke="black" points="255.5,-479.5 422.5,-479.5 "/>
<text text-anchor="start" x="263.5" y="-467.5" font-family="Helvetica,sans-Serif" font-size="10.00">+ QueryOutputIsKNearest()</text>
<text text-anchor="start" x="263.5" y="-456.5" font-family="Helvetica,sans-Serif" font-size="10.00">+ queue()</text>
<text text-anchor="start" x="263.5" y="-445.5" font-family="Helvetica,sans-Serif" font-size="10.00"># reset()</text>
</a>
</g>
</g>
<!-- Node8&#45;&gt;Node3 -->
<g id="edge8" class="edge">
<title>Node8&#45;&gt;Node3</title>
<path fill="none" stroke="midnightblue" d="M339,-428.16C339,-408.99 339,-387.54 339,-368.76"/>
<polygon fill="none" stroke="midnightblue" points="335.5,-428.25 339,-438.25 342.5,-428.25 335.5,-428.25"/>
</g>
<!-- Node9 -->
<g id="node9" class="node">
<title>Node9</title>
<g id="a_node9"><a xlink:href="structPonca_1_1QueryOutputBase.html" target="_top" xlink:title="Base class for queries output type.">
<polygon fill="white" stroke="black" points="227,-725.5 227,-782.5 365,-782.5 365,-725.5 227,-725.5"/>
<text text-anchor="middle" x="296" y="-770.5" font-family="Helvetica,sans-Serif" font-size="10.00">Ponca::QueryOutputBase</text>
<polyline fill="none" stroke="black" points="227,-763.5 365,-763.5 "/>
<text text-anchor="middle" x="296" y="-751.5" font-family="Helvetica,sans-Serif" font-size="10.00"> </text>
<polyline fill="none" stroke="black" points="227,-744.5 365,-744.5 "/>
<text text-anchor="middle" x="296" y="-732.5" font-family="Helvetica,sans-Serif" font-size="10.00"> </text>
</a>
</g>
</g>
<!-- Node9&#45;&gt;Node8 -->
<g id="edge9" class="edge">
<title>Node9&#45;&gt;Node8</title>
<path fill="none" stroke="midnightblue" d="M287.52,-715.33C280.87,-679.02 274.62,-622.84 287,-576 291.34,-559.57 299.39,-543 307.88,-528.57"/>
<polygon fill="none" stroke="midnightblue" points="284.15,-716.32 289.49,-725.48 291.02,-714.99 284.15,-716.32"/>
</g>
<!-- Node10 -->
<g id="node10" class="node">
<title>Node10</title>
<g id="a_node10"><a xlink:href="structPonca_1_1QueryOutputIsKNearest.html" target="_top" xlink:title="Base class for knearest queries.">
<polygon fill="white" stroke="black" points="296.5,-576.5 296.5,-666.5 463.5,-666.5 463.5,-576.5 296.5,-576.5"/>
<text text-anchor="start" x="304.5" y="-654.5" font-family="Helvetica,sans-Serif" font-size="10.00">Ponca::QueryOutputIsKNearest</text>
<text text-anchor="middle" x="380" y="-643.5" font-family="Helvetica,sans-Serif" font-size="10.00">&lt; Scalar &gt;</text>
<polyline fill="none" stroke="black" points="296.5,-636.5 463.5,-636.5 "/>
<text text-anchor="start" x="304.5" y="-624.5" font-family="Helvetica,sans-Serif" font-size="10.00"># m_queue</text>
<polyline fill="none" stroke="black" points="296.5,-617.5 463.5,-617.5 "/>
<text text-anchor="start" x="304.5" y="-605.5" font-family="Helvetica,sans-Serif" font-size="10.00">+ QueryOutputIsKNearest()</text>
<text text-anchor="start" x="304.5" y="-594.5" font-family="Helvetica,sans-Serif" font-size="10.00">+ queue()</text>
<text text-anchor="start" x="304.5" y="-583.5" font-family="Helvetica,sans-Serif" font-size="10.00"># reset()</text>
</a>
</g>
</g>
<!-- Node9&#45;&gt;Node10 -->
<g id="edge11" class="edge">
<title>Node9&#45;&gt;Node10</title>
<path fill="none" stroke="midnightblue" d="M319.47,-716.54C329.45,-701.04 341.17,-682.82 351.63,-666.57"/>
<polygon fill="none" stroke="midnightblue" points="316.28,-715.02 313.81,-725.32 322.17,-718.81 316.28,-715.02"/>
</g>
<!-- Node10&#45;&gt;Node8 -->
<g id="edge10" class="edge">
<title>Node10&#45;&gt;Node8</title>
<path fill="none" stroke="orange" d="M363.73,-566.52C359.96,-554.04 356.01,-540.91 352.39,-528.9"/>
<polygon fill="orange" stroke="orange" points="360.45,-567.78 366.69,-576.34 367.15,-565.76 360.45,-567.78"/>
<text text-anchor="middle" x="416" y="-550" font-family="Helvetica,sans-Serif" font-size="10.00"> &lt; DataPoint::Scalar &gt;</text>
</g>
<!-- Node11 -->
<g id="node11" class="node">
<title>Node11</title>
<g id="a_node11"><a xlink:href="structPonca_1_1Query.html" target="_top" xlink:title=" ">
<polygon fill="white" stroke="black" points="446.5,-444 446.5,-523 563.5,-523 563.5,-444 446.5,-444"/>
<text text-anchor="start" x="454.5" y="-511" font-family="Helvetica,sans-Serif" font-size="10.00">Ponca::Query&lt; Input</text>
<text text-anchor="middle" x="505" y="-500" font-family="Helvetica,sans-Serif" font-size="10.00">_, Output_ &gt;</text>
<polyline fill="none" stroke="black" points="446.5,-493 563.5,-493 "/>
<text text-anchor="middle" x="505" y="-481" font-family="Helvetica,sans-Serif" font-size="10.00"> </text>
<polyline fill="none" stroke="black" points="446.5,-474 563.5,-474 "/>
<text text-anchor="start" x="454.5" y="-462" font-family="Helvetica,sans-Serif" font-size="10.00">+ Query()</text>
<text text-anchor="start" x="454.5" y="-451" font-family="Helvetica,sans-Serif" font-size="10.00">+ Query()</text>
</a>
</g>
</g>
<!-- Node11&#45;&gt;Node3 -->
<g id="edge12" class="edge">
<title>Node11&#45;&gt;Node3</title>
<path fill="none" stroke="orange" d="M458.53,-436.73C437,-415.53 411.38,-390.29 389.39,-368.63"/>
<polygon fill="orange" stroke="orange" points="456.08,-439.23 465.66,-443.75 460.99,-434.24 456.08,-439.23"/>
<text text-anchor="start" x="437" y="-412" font-family="Helvetica,sans-Serif" font-size="10.00"> &lt; QueryInputIsPosition</text>
<text text-anchor="start" x="437" y="-401" font-family="Helvetica,sans-Serif" font-size="10.00">&lt; DataPoint &gt;, QueryOutputIs</text>
<text text-anchor="middle" x="518.5" y="-390" font-family="Helvetica,sans-Serif" font-size="10.00">KNearest&lt; DataPoint::Scalar &gt; &gt;</text>
</g>
<!-- Node12 -->
<g id="node12" class="node">
<title>Node12</title>
<g id="a_node12"><a xlink:title=" ">
<polygon fill="white" stroke="#bfbfbf" points="481.5,-593 481.5,-650 528.5,-650 528.5,-593 481.5,-593"/>
<text text-anchor="middle" x="505" y="-638" font-family="Helvetica,sans-Serif" font-size="10.00">Input_</text>
<polyline fill="none" stroke="#bfbfbf" points="481.5,-631 528.5,-631 "/>
<text text-anchor="middle" x="505" y="-619" font-family="Helvetica,sans-Serif" font-size="10.00"> </text>
<polyline fill="none" stroke="#bfbfbf" points="481.5,-612 528.5,-612 "/>
<text text-anchor="middle" x="505" y="-600" font-family="Helvetica,sans-Serif" font-size="10.00"> </text>
</a>
</g>
</g>
<!-- Node12&#45;&gt;Node11 -->
<g id="edge13" class="edge">
<title>Node12&#45;&gt;Node11</title>
<path fill="none" stroke="midnightblue" d="M505,-582.8C505,-564.19 505,-541.78 505,-523.06"/>
<polygon fill="none" stroke="midnightblue" points="501.5,-582.98 505,-592.98 508.5,-582.98 501.5,-582.98"/>
</g>
<!-- Node13 -->
<g id="node13" class="node">
<title>Node13</title>
<g id="a_node13"><a xlink:title=" ">
<polygon fill="white" stroke="#bfbfbf" points="546.5,-593 546.5,-650 601.5,-650 601.5,-593 546.5,-593"/>
<text text-anchor="middle" x="574" y="-638" font-family="Helvetica,sans-Serif" font-size="10.00">Output_</text>
<polyline fill="none" stroke="#bfbfbf" points="546.5,-631 601.5,-631 "/>
<text text-anchor="middle" x="574" y="-619" font-family="Helvetica,sans-Serif" font-size="10.00"> </text>
<polyline fill="none" stroke="#bfbfbf" points="546.5,-612 601.5,-612 "/>
<text text-anchor="middle" x="574" y="-600" font-family="Helvetica,sans-Serif" font-size="10.00"> </text>
</a>
</g>
</g>
<!-- Node13&#45;&gt;Node11 -->
<g id="edge14" class="edge">
<title>Node13&#45;&gt;Node11</title>
<path fill="none" stroke="midnightblue" d="M555.4,-583.84C545.86,-565.03 534.24,-542.13 524.56,-523.06"/>
<polygon fill="none" stroke="midnightblue" points="552.39,-585.64 560.04,-592.98 558.63,-582.48 552.39,-585.64"/>
</g>
<!-- Node14 -->
<g id="node14" class="node">
<title>Node14</title>
<g id="a_node14"><a xlink:href="classPonca_1_1KdTreeQuery.html" target="_top" xlink:title=" ">
<polygon fill="white" stroke="black" points="433,-139.5 433,-229.5 547,-229.5 547,-139.5 433,-139.5"/>
<text text-anchor="start" x="441" y="-217.5" font-family="Helvetica,sans-Serif" font-size="10.00">Ponca::KdTreeQuery</text>
<text text-anchor="middle" x="490" y="-206.5" font-family="Helvetica,sans-Serif" font-size="10.00">&lt; DataPoint &gt;</text>
<polyline fill="none" stroke="black" points="433,-199.5 547,-199.5 "/>
<text text-anchor="start" x="441" y="-187.5" font-family="Helvetica,sans-Serif" font-size="10.00"># m_kdtree</text>
<text text-anchor="start" x="441" y="-176.5" font-family="Helvetica,sans-Serif" font-size="10.00"># m_stack</text>
<polyline fill="none" stroke="black" points="433,-169.5 547,-169.5 "/>
<text text-anchor="start" x="441" y="-157.5" font-family="Helvetica,sans-Serif" font-size="10.00">+ KdTreeQuery()</text>
<text text-anchor="start" x="441" y="-146.5" font-family="Helvetica,sans-Serif" font-size="10.00"># reset()</text>
</a>
</g>
</g>
<!-- Node14&#45;&gt;Node1 -->
<g id="edge15" class="edge">
<title>Node14&#45;&gt;Node1</title>
<path fill="none" stroke="midnightblue" d="M459.31,-130.4C453.83,-120.92 448.14,-111.08 442.72,-101.7"/>
<polygon fill="none" stroke="midnightblue" points="456.45,-132.44 464.48,-139.35 462.51,-128.94 456.45,-132.44"/>
</g>
</g>
</svg>
