<?xml version="1.0" encoding="UTF-8" standalone="no"?>
<!DOCTYPE svg PUBLIC "-//W3C//DTD SVG 1.1//EN"
 "http://www.w3.org/Graphics/SVG/1.1/DTD/svg11.dtd">
<!-- Generated by graphviz version 2.43.0 (0)
 -->
<!-- Title: Ponca::BasketDiff&lt; BasketType, Type, Ext0, Exts &gt; Pages: 1 -->
<!--zoomable 714 -->

<svg id="main" version="1.1" xmlns="http://www.w3.org/2000/svg" xmlns:xlink="http://www.w3.org/1999/xlink" xml:space="preserve" onload="init(evt)">
<style type="text/css"><![CDATA[
.node, .edge {opacity: 0.7;}
.node.selected, .edge.selected {opacity: 1;}
.edge:hover path { stroke: red; }
.edge:hover polygon { stroke: red; fill: red; }
]]></style>

<defs>
  <circle id="rim" cx="0" cy="0" r="7"/>
  <circle id="rim2" cx="0" cy="0" r="3.5"/>
  <g id="zoomPlus">
    <use xlink:href="#rim" fill="#404040"><set attributeName="fill" to="#808080" begin="zoomplus.mouseover" end="zoomplus.mouseout"/></use>
    <path d="M-4,0h8M0,-4v8" fill="none" stroke="white" stroke-width="1.5" pointer-events="none"/>
  </g>
  <g id="zoomMin">
    <use xlink:href="#rim" fill="#404040"><set attributeName="fill" to="#808080" begin="zoomminus.mouseover" end="zoomminus.mouseout"/></use>
    <path d="M-4,0h8" fill="none" stroke="white" stroke-width="1.5" pointer-events="none"/>
  </g>
  <g id="arrowUp" transform="translate(30 24)">
    <use xlink:href="#rim"/>
    <path pointer-events="none" fill="none" stroke="white" stroke-width="1.5" d="M0,-3.0v7 M-2.5,-0.5L0,-3.0L2.5,-0.5"/>
  </g>
  <g id="arrowRight" transform="rotate(90) translate(36 -43)">
    <use xlink:href="#rim"/>
    <path pointer-events="none" fill="none" stroke="white" stroke-width="1.5" d="M0,-3.0v7 M-2.5,-0.5L0,-3.0L2.5,-0.5"/>
  </g>
  <g id="arrowDown" transform="rotate(180) translate(-30 -48)">
    <use xlink:href="#rim"/>
    <path pointer-events="none" fill="none" stroke="white" stroke-width="1.5" d="M0,-3.0v7 M-2.5,-0.5L0,-3.0L2.5,-0.5"/>
  </g>
  <g id="arrowLeft" transform="rotate(270) translate(-36 17)">
    <use xlink:href="#rim"/>
    <path pointer-events="none" fill="none" stroke="white" stroke-width="1.5" d="M0,-3.0v7 M-2.5,-0.5L0,-3.0L2.5,-0.5"/>
  </g>
  <g id="resetDef">
    <use xlink:href="#rim2" fill="#404040"><set attributeName="fill" to="#808080" begin="reset.mouseover" end="reset.mouseout"/></use>
  </g>
</defs>
<script type="application/ecmascript">
var viewWidth = 494;
var viewHeight = 714;
var sectionId = 'dynsection-1';
</script>
<script type="application/ecmascript" xlink:href="svg.min.js"/>
<svg id="graph" class="graph">
<g id="viewport">
<title>Ponca::BasketDiff&lt; BasketType, Type, Ext0, Exts &gt;</title>
<!-- Node1 -->
<g id="Node000001" class="node">
<title>Node1</title>
<g id="a_Node000001"><a xlink:title="Aggregator class used to declare specialized structures with derivatives computations,...">
<polygon fill="#999999" stroke="transparent" points="282,-71 154,-71 154,0 282,0 282,-71"/>
<text text-anchor="start" x="159" y="-58.5" font-family="Helvetica,sans-Serif" font-size="10.00">Ponca::BasketDiff&lt;</text>
<text text-anchor="start" x="159" y="-47.5" font-family="Helvetica,sans-Serif" font-size="10.00"> BasketType, Type, Ext0,</text>
<text text-anchor="start" x="200" y="-36.5" font-family="Helvetica,sans-Serif" font-size="10.00"> Exts &gt;</text>
<text text-anchor="start" x="216" y="-21.5" font-family="Helvetica,sans-Serif" font-size="10.00"> </text>
<text text-anchor="start" x="167" y="-6.5" font-family="Helvetica,sans-Serif" font-size="10.00">+</text>
<text text-anchor="start" x="189" y="-6.5" font-family="Helvetica,sans-Serif" font-size="10.00">addNeighbor()</text>
<polygon fill="#666666" stroke="#666666" points="154,-31.5 154,-31.5 282,-31.5 282,-31.5 154,-31.5"/>
<polygon fill="#666666" stroke="#666666" points="154,-16.5 154,-16.5 282,-16.5 282,-16.5 154,-16.5"/>
<polygon fill="none" stroke="#666666" points="154,0 154,-71 282,-71 282,0 154,0"/>
</a>
</g>
</g>
<!-- Node2 -->
<g id="Node000002" class="node">
<title>Node2</title>
<g id="a_Node000002"><a xlink:href="structPonca_1_1BasketComputeObject.html" target="_top" xlink:title=" ">
<polygon fill="white" stroke="transparent" points="311.5,-216 124.5,-216 124.5,-108 311.5,-108 311.5,-216"/>
<text text-anchor="start" x="130" y="-204" font-family="Helvetica,sans-Serif" font-size="10.00">Ponca::BasketComputeObject</text>
<text text-anchor="start" x="130" y="-193" font-family="Helvetica,sans-Serif" font-size="10.00">&lt; BasketDiff&lt; BasketType,</text>
<text text-anchor="start" x="130" y="-182" font-family="Helvetica,sans-Serif" font-size="10.00"> Type, Ext0, Exts... &gt;, internal</text>
<text text-anchor="start" x="130" y="-171" font-family="Helvetica,sans-Serif" font-size="10.00">::BasketDiffAggregate&lt; BasketType,</text>
<text text-anchor="start" x="148.5" y="-160" font-family="Helvetica,sans-Serif" font-size="10.00"> Type, Ext0, Exts... &gt;::type &gt;</text>
<text text-anchor="start" x="216.5" y="-145" font-family="Helvetica,sans-Serif" font-size="10.00"> </text>
<text text-anchor="start" x="148.5" y="-130" font-family="Helvetica,sans-Serif" font-size="10.00">+</text>
<text text-anchor="start" x="181" y="-130" font-family="Helvetica,sans-Serif" font-size="10.00">compute()</text>
<text text-anchor="start" x="148.5" y="-115" font-family="Helvetica,sans-Serif" font-size="10.00">+</text>
<text text-anchor="start" x="181" y="-115" font-family="Helvetica,sans-Serif" font-size="10.00">computeWithIds()</text>
<polygon fill="#666666" stroke="#666666" points="125,-155 125,-155 312,-155 312,-155 125,-155"/>
<polygon fill="#666666" stroke="#666666" points="125,-140 125,-140 312,-140 312,-140 125,-140"/>
<polygon fill="none" stroke="#666666" points="124.5,-108 124.5,-216 311.5,-216 311.5,-108 124.5,-108"/>
</a>
</g>
</g>
<!-- Node2&#45;&gt;Node1 -->
<g id="edge1_Node000001_Node000002" class="edge">
<title>Node2&#45;&gt;Node1</title>
<g id="a_edge1_Node000001_Node000002"><a xlink:title=" ">
<path fill="none" stroke="#63b8ff" d="M218,-97.58C218,-88.46 218,-79.39 218,-71.12"/>
<polygon fill="none" stroke="#63b8ff" points="214.5,-97.84 218,-107.84 221.5,-97.84 214.5,-97.84"/>
</a>
</g>
</g>
<!-- Node3 -->
<g id="Node000003" class="node">
<title>Node3</title>
<g id="a_Node000003"><a xlink:href="structPonca_1_1ComputeObject.html" target="_top" xlink:title="ComputeObject is a virtual object that represents an algorithm which can be used with the compute fun...">
<polygon fill="white" stroke="transparent" points="122,-412 0,-412 0,-307 122,-307 122,-412"/>
<text text-anchor="start" x="5" y="-399.5" font-family="Helvetica,sans-Serif" font-size="10.00">Ponca::ComputeObject</text>
<text text-anchor="start" x="30.5" y="-388.5" font-family="Helvetica,sans-Serif" font-size="10.00">&lt; Derived &gt;</text>
<text text-anchor="start" x="59" y="-373.5" font-family="Helvetica,sans-Serif" font-size="10.00"> </text>
<text text-anchor="start" x="7" y="-358.5" font-family="Helvetica,sans-Serif" font-size="10.00">+</text>
<text text-anchor="start" x="23" y="-358.5" font-family="Helvetica,sans-Serif" font-size="10.00">compute()</text>
<text text-anchor="start" x="7" y="-343.5" font-family="Helvetica,sans-Serif" font-size="10.00">+</text>
<text text-anchor="start" x="23" y="-343.5" font-family="Helvetica,sans-Serif" font-size="10.00">compute()</text>
<text text-anchor="start" x="7" y="-328.5" font-family="Helvetica,sans-Serif" font-size="10.00">+</text>
<text text-anchor="start" x="23" y="-328.5" font-family="Helvetica,sans-Serif" font-size="10.00">computeWithIds()</text>
<text text-anchor="start" x="7" y="-313.5" font-family="Helvetica,sans-Serif" font-size="10.00">#</text>
<text text-anchor="start" x="23" y="-313.5" font-family="Helvetica,sans-Serif" font-size="10.00">derived()</text>
<polygon fill="#666666" stroke="#666666" points="0,-383.5 0,-383.5 122,-383.5 122,-383.5 0,-383.5"/>
<polygon fill="#666666" stroke="#666666" points="0,-368.5 0,-368.5 122,-368.5 122,-368.5 0,-368.5"/>
<polygon fill="none" stroke="#666666" points="0,-307 0,-412 122,-412 122,-307 0,-307"/>
</a>
</g>
</g>
<!-- Node3&#45;&gt;Node2 -->
<g id="edge2_Node000002_Node000003" class="edge">
<title>Node3&#45;&gt;Node2</title>
<g id="a_edge2_Node000002_Node000003"><a xlink:title=" ">
<path fill="none" stroke="#63b8ff" d="M108.9,-298.86C130.04,-272.53 154.7,-241.83 175.22,-216.28"/>
<polygon fill="none" stroke="#63b8ff" points="105.99,-296.89 102.46,-306.88 111.45,-301.27 105.99,-296.89"/>
</a>
</g>
</g>
<!-- Node4 -->
<g id="Node000004" class="node">
<title>Node4</title>
<g id="a_Node000004"><a xlink:title=" ">
<polygon fill="white" stroke="transparent" points="295.5,-395 140.5,-395 140.5,-324 295.5,-324 295.5,-395"/>
<text text-anchor="start" x="146" y="-382.5" font-family="Helvetica,sans-Serif" font-size="10.00">internal::BasketDiffAggregate</text>
<text text-anchor="start" x="146" y="-371.5" font-family="Helvetica,sans-Serif" font-size="10.00">&lt; BasketType, Type, Ext0,</text>
<text text-anchor="start" x="182" y="-360.5" font-family="Helvetica,sans-Serif" font-size="10.00"> Exts... &gt;::type</text>
<text text-anchor="start" x="216.5" y="-345.5" font-family="Helvetica,sans-Serif" font-size="10.00"> </text>
<text text-anchor="start" x="216.5" y="-330.5" font-family="Helvetica,sans-Serif" font-size="10.00"> </text>
<polygon fill="#bfbfbf" stroke="#bfbfbf" points="141,-355.5 141,-355.5 296,-355.5 296,-355.5 141,-355.5"/>
<polygon fill="#bfbfbf" stroke="#bfbfbf" points="141,-340.5 141,-340.5 296,-340.5 296,-340.5 141,-340.5"/>
<polygon fill="none" stroke="#bfbfbf" points="140.5,-324 140.5,-395 295.5,-395 295.5,-324 140.5,-324"/>
</a>
</g>
</g>
<!-- Node4&#45;&gt;Node2 -->
<g id="edge3_Node000002_Node000004" class="edge">
<title>Node4&#45;&gt;Node2</title>
<g id="a_edge3_Node000002_Node000004"><a xlink:title=" ">
<path fill="none" stroke="#63b8ff" d="M218,-313.75C218,-284.76 218,-246.86 218,-216.31"/>
<polygon fill="none" stroke="#63b8ff" points="214.5,-314 218,-324 221.5,-314 214.5,-314"/>
</a>
</g>
</g>
<!-- Node5 -->
<g id="Node000005" class="node">
<title>Node5</title>
<g id="a_Node000005"><a xlink:href="structPonca_1_1BasketComputeObject.html" target="_top" xlink:title="Base ComputeObject for the Basket classes.">
<polygon fill="white" stroke="transparent" points="468.5,-397 313.5,-397 313.5,-322 468.5,-322 468.5,-397"/>
<text text-anchor="start" x="319" y="-384.5" font-family="Helvetica,sans-Serif" font-size="10.00">Ponca::BasketComputeObject</text>
<text text-anchor="start" x="340.5" y="-373.5" font-family="Helvetica,sans-Serif" font-size="10.00">&lt; _Derived, _Base &gt;</text>
<text text-anchor="start" x="389.5" y="-358.5" font-family="Helvetica,sans-Serif" font-size="10.00"> </text>
<text text-anchor="start" x="329.5" y="-343.5" font-family="Helvetica,sans-Serif" font-size="10.00">+</text>
<text text-anchor="start" x="354" y="-343.5" font-family="Helvetica,sans-Serif" font-size="10.00">compute()</text>
<text text-anchor="start" x="329.5" y="-328.5" font-family="Helvetica,sans-Serif" font-size="10.00">+</text>
<text text-anchor="start" x="354" y="-328.5" font-family="Helvetica,sans-Serif" font-size="10.00">computeWithIds()</text>
<polygon fill="#666666" stroke="#666666" points="314,-368.5 314,-368.5 469,-368.5 469,-368.5 314,-368.5"/>
<polygon fill="#666666" stroke="#666666" points="314,-353.5 314,-353.5 469,-353.5 469,-353.5 314,-353.5"/>
<polygon fill="none" stroke="#666666" points="313.5,-322 313.5,-397 468.5,-397 468.5,-322 313.5,-322"/>
</a>
</g>
</g>
<!-- Node5&#45;&gt;Node2 -->
<g id="edge4_Node000002_Node000005" class="edge">
<title>Node5&#45;&gt;Node2</title>
<g id="a_edge4_Node000002_Node000005"><a xlink:title=" ">
<path fill="none" stroke="orange" d="M351.77,-314.16C326.04,-285.09 292.27,-246.93 265.09,-216.22"/>
<polygon fill="orange" stroke="orange" points="349.21,-316.56 358.46,-321.73 354.45,-311.92 349.21,-316.56"/>
</a>
</g>
<text text-anchor="start" x="326" y="-281" font-family="Helvetica,sans-Serif" font-size="10.00" fill="grey"> &lt; BasketDiff&lt; BasketType,</text>
<text text-anchor="start" x="326" y="-270" font-family="Helvetica,sans-Serif" font-size="10.00" fill="grey"> Type, Ext0, Exts... &gt;,</text>
<text text-anchor="start" x="326" y="-259" font-family="Helvetica,sans-Serif" font-size="10.00" fill="grey"> internal::BasketDiffAggregate</text>
<text text-anchor="start" x="326" y="-248" font-family="Helvetica,sans-Serif" font-size="10.00" fill="grey">&lt; BasketType, Type, Ext0, Exts...</text>
<text text-anchor="middle" x="406" y="-237" font-family="Helvetica,sans-Serif" font-size="10.00" fill="grey"> &gt;::type &gt;</text>
</g>
<!-- Node6 -->
<g id="Node000006" class="node">
<title>Node6</title>
<g id="a_Node000006"><a xlink:href="structPonca_1_1ComputeObject.html" target="_top" xlink:title=" ">
<polygon fill="white" stroke="transparent" points="384,-554 262,-554 262,-449 384,-449 384,-554"/>
<text text-anchor="start" x="267" y="-541.5" font-family="Helvetica,sans-Serif" font-size="10.00">Ponca::ComputeObject</text>
<text text-anchor="start" x="289.5" y="-530.5" font-family="Helvetica,sans-Serif" font-size="10.00">&lt; _Derived &gt;</text>
<text text-anchor="start" x="321" y="-515.5" font-family="Helvetica,sans-Serif" font-size="10.00"> </text>
<text text-anchor="start" x="269" y="-500.5" font-family="Helvetica,sans-Serif" font-size="10.00">+</text>
<text text-anchor="start" x="285" y="-500.5" font-family="Helvetica,sans-Serif" font-size="10.00">compute()</text>
<text text-anchor="start" x="269" y="-485.5" font-family="Helvetica,sans-Serif" font-size="10.00">+</text>
<text text-anchor="start" x="285" y="-485.5" font-family="Helvetica,sans-Serif" font-size="10.00">compute()</text>
<text text-anchor="start" x="269" y="-470.5" font-family="Helvetica,sans-Serif" font-size="10.00">+</text>
<text text-anchor="start" x="285" y="-470.5" font-family="Helvetica,sans-Serif" font-size="10.00">computeWithIds()</text>
<text text-anchor="start" x="269" y="-455.5" font-family="Helvetica,sans-Serif" font-size="10.00">#</text>
<text text-anchor="start" x="285" y="-455.5" font-family="Helvetica,sans-Serif" font-size="10.00">derived()</text>
<polygon fill="#666666" stroke="#666666" points="262,-525.5 262,-525.5 384,-525.5 384,-525.5 262,-525.5"/>
<polygon fill="#666666" stroke="#666666" points="262,-510.5 262,-510.5 384,-510.5 384,-510.5 262,-510.5"/>
<polygon fill="none" stroke="#666666" points="262,-449 262,-554 384,-554 384,-449 262,-449"/>
</a>
</g>
</g>
<!-- Node6&#45;&gt;Node5 -->
<g id="edge5_Node000005_Node000006" class="edge">
<title>Node6&#45;&gt;Node5</title>
<g id="a_edge5_Node000005_Node000006"><a xlink:title=" ">
<path fill="none" stroke="#63b8ff" d="M352.68,-439.4C359.67,-425 366.91,-410.09 373.19,-397.16"/>
<polygon fill="none" stroke="#63b8ff" points="349.35,-438.24 348.13,-448.77 355.64,-441.3 349.35,-438.24"/>
</a>
</g>
</g>
<!-- Node7 -->
<g id="Node000007" class="node">
<title>Node7</title>
<g id="a_Node000007"><a xlink:href="structPonca_1_1ComputeObject.html" target="_top" xlink:title="ComputeObject is a virtual object that represents an algorithm which can be used with the compute fun...">
<polygon fill="white" stroke="transparent" points="384,-706 262,-706 262,-601 384,-601 384,-706"/>
<text text-anchor="start" x="267" y="-693.5" font-family="Helvetica,sans-Serif" font-size="10.00">Ponca::ComputeObject</text>
<text text-anchor="start" x="292.5" y="-682.5" font-family="Helvetica,sans-Serif" font-size="10.00">&lt; Derived &gt;</text>
<text text-anchor="start" x="321" y="-667.5" font-family="Helvetica,sans-Serif" font-size="10.00"> </text>
<text text-anchor="start" x="269" y="-652.5" font-family="Helvetica,sans-Serif" font-size="10.00">+</text>
<text text-anchor="start" x="285" y="-652.5" font-family="Helvetica,sans-Serif" font-size="10.00">compute()</text>
<text text-anchor="start" x="269" y="-637.5" font-family="Helvetica,sans-Serif" font-size="10.00">+</text>
<text text-anchor="start" x="285" y="-637.5" font-family="Helvetica,sans-Serif" font-size="10.00">compute()</text>
<text text-anchor="start" x="269" y="-622.5" font-family="Helvetica,sans-Serif" font-size="10.00">+</text>
<text text-anchor="start" x="285" y="-622.5" font-family="Helvetica,sans-Serif" font-size="10.00">computeWithIds()</text>
<text text-anchor="start" x="269" y="-607.5" font-family="Helvetica,sans-Serif" font-size="10.00">#</text>
<text text-anchor="start" x="285" y="-607.5" font-family="Helvetica,sans-Serif" font-size="10.00">derived()</text>
<polygon fill="#666666" stroke="#666666" points="262,-677.5 262,-677.5 384,-677.5 384,-677.5 262,-677.5"/>
<polygon fill="#666666" stroke="#666666" points="262,-662.5 262,-662.5 384,-662.5 384,-662.5 262,-662.5"/>
<polygon fill="none" stroke="#666666" points="262,-601 262,-706 384,-706 384,-601 262,-601"/>
</a>
</g>
</g>
<!-- Node7&#45;&gt;Node6 -->
<g id="edge6_Node000006_Node000007" class="edge">
<title>Node7&#45;&gt;Node6</title>
<g id="a_edge6_Node000006_Node000007"><a xlink:title=" ">
<path fill="none" stroke="orange" d="M323,-590.81C323,-578.65 323,-566.01 323,-554.22"/>
<polygon fill="orange" stroke="orange" points="319.5,-590.88 323,-600.88 326.5,-590.88 319.5,-590.88"/>
</a>
</g>
<text text-anchor="middle" x="358" y="-575" font-family="Helvetica,sans-Serif" font-size="10.00" fill="grey"> &lt; _Derived &gt;</text>
</g>
<!-- Node8 -->
<g id="Node000008" class="node">
<title>Node8</title>
<g id="a_Node000008"><a xlink:title=" ">
<polygon fill="white" stroke="transparent" points="442,-526 402,-526 402,-477 442,-477 442,-526"/>
<text text-anchor="start" x="407" y="-513.5" font-family="Helvetica,sans-Serif" font-size="10.00">_Base</text>
<text text-anchor="start" x="420" y="-498.5" font-family="Helvetica,sans-Serif" font-size="10.00"> </text>
<text text-anchor="start" x="420" y="-483.5" font-family="Helvetica,sans-Serif" font-size="10.00"> </text>
<polygon fill="#bfbfbf" stroke="#bfbfbf" points="402,-508.5 402,-508.5 442,-508.5 442,-508.5 402,-508.5"/>
<polygon fill="#bfbfbf" stroke="#bfbfbf" points="402,-493.5 402,-493.5 442,-493.5 442,-493.5 402,-493.5"/>
<polygon fill="none" stroke="#bfbfbf" points="402,-477 402,-526 442,-526 442,-477 402,-477"/>
</a>
</g>
</g>
<!-- Node8&#45;&gt;Node5 -->
<g id="edge7_Node000005_Node000008" class="edge">
<title>Node8&#45;&gt;Node5</title>
<g id="a_edge7_Node000005_Node000008"><a xlink:title=" ">
<path fill="none" stroke="#63b8ff" d="M414.57,-466.94C409.9,-445.85 403.88,-418.65 399.09,-397.02"/>
<polygon fill="none" stroke="#63b8ff" points="411.16,-467.74 416.74,-476.75 418,-466.23 411.16,-467.74"/>
</a>
</g>
</g>
</g>
</svg>

<g id="navigator" transform="translate(0 0)" fill="#404254">
  <rect fill="#f2f5e9" fill-opacity="0.5" stroke="#606060" stroke-width=".5" x="0" y="0" width="60" height="60"/>
  <use id="zoomplus" xlink:href="#zoomPlus" x="17" y="9" onmousedown="handleZoom(evt,'in')"/>
  <use id="zoomminus" xlink:href="#zoomMin" x="42" y="9" onmousedown="handleZoom(evt,'out')"/>
  <use id="reset" xlink:href="#resetDef" x="30" y="36" onmousedown="handleReset()"/>
   <use id="arrowup" xlink:href="#arrowUp" x="0" y="0" onmousedown="handlePan(0,-1)"/>
  <use id="arrowright" xlink:href="#arrowRight" x="0" y="0" onmousedown="handlePan(1,0)"/>
  <use id="arrowdown" xlink:href="#arrowDown" x="0" y="0" onmousedown="handlePan(0,1)"/>
  <use id="arrowleft" xlink:href="#arrowLeft" x="0" y="0" onmousedown="handlePan(-1,0)"/>
</g>
<svg viewBox="0 0 15 15" width="100%" height="30px" preserveAspectRatio="xMaxYMin meet">
 <g id="arrow_out" transform="scale(0.3 0.3)">
  <a xlink:href="classPonca_1_1BasketDiff__coll__graph_org.svg" target="_base">
   <rect id="button" ry="5" rx="5" y="6" x="6" height="38" width="38"
        fill="#f2f5e9" fill-opacity="0.5" stroke="#606060" stroke-width="1.0"/>
   <path id="arrow"
     d="M 11.500037,31.436501 C 11.940474,20.09759 22.043105,11.32322 32.158766,21.979434 L 37.068811,17.246167 C 37.068811,17.246167 37.088388,32 37.088388,32 L 22.160133,31.978069 C 22.160133,31.978069 26.997745,27.140456 26.997745,27.140456 C 18.528582,18.264221 13.291696,25.230495 11.500037,31.436501 z"
     style="fill:#404040;"/>
  </a>
 </g>
</svg>

<style type='text/css'>
<![CDATA[
[data-mouse-over-selected='false'] { opacity: 0.7; }
[data-mouse-over-selected='true']  { opacity: 1.0; }
]]>
</style>
<script type="application/ecmascript"><![CDATA[
document.addEventListener('DOMContentLoaded', (event) => {
  highlightEdges();
  highlightAdjacentNodes();
});
]]></script>
</svg>
