<?xml version="1.0" encoding="UTF-8" standalone="no"?>
<!DOCTYPE svg PUBLIC "-//W3C//DTD SVG 1.1//EN"
 "http://www.w3.org/Graphics/SVG/1.1/DTD/svg11.dtd">
<!-- Generated by graphviz version 2.43.0 (0)
 -->
<!-- Title: Ponca::KdTreeRangeIndexQuery&lt; DataPoint &gt; Pages: 1 -->
<svg width="1411pt" height="1195pt"
 viewBox="0.00 0.00 1411.00 1195.00" xmlns="http://www.w3.org/2000/svg" xmlns:xlink="http://www.w3.org/1999/xlink">
<g id="graph0" class="graph" transform="scale(1 1) rotate(0) translate(4 1191)">
<title>Ponca::KdTreeRangeIndexQuery&lt; DataPoint &gt;</title>
<!-- Node1 -->
<g id="node1" class="node">
<title>Node1</title>
<g id="a_node1"><a xlink:title=" ">
<polygon fill="#999999" stroke="#666666" points="831.5,-107 653.5,-107 653.5,0 831.5,0 831.5,-107"/>
<text text-anchor="start" x="661.5" y="-95" font-family="Helvetica,sans-Serif" font-size="10.00">{Ponca::KdTreeRangeIndexQuery</text>
<text text-anchor="middle" x="742.5" y="-84" font-family="Helvetica,sans-Serif" font-size="10.00">&lt; DataPoint &gt;</text>
<text text-anchor="start" x="661.5" y="-73" font-family="Helvetica,sans-Serif" font-size="10.00">|# Iterator</text>
<text text-anchor="start" x="661.5" y="-62" font-family="Helvetica,sans-Serif" font-size="10.00">|+ KdTreeRangeIndexQuery()</text>
<text text-anchor="start" x="661.5" y="-51" font-family="Helvetica,sans-Serif" font-size="10.00">+ begin()</text>
<text text-anchor="start" x="661.5" y="-40" font-family="Helvetica,sans-Serif" font-size="10.00">+ end()</text>
<text text-anchor="start" x="661.5" y="-29" font-family="Helvetica,sans-Serif" font-size="10.00"># initialize()</text>
<text text-anchor="start" x="661.5" y="-18" font-family="Helvetica,sans-Serif" font-size="10.00"># advance()</text>
<text text-anchor="middle" x="742.5" y="-7" font-family="Helvetica,sans-Serif" font-size="10.00">}</text>
</a>
</g>
</g>
<!-- Node2 -->
<g id="node2" class="node">
<title>Node2</title>
<g id="a_node2"><a xlink:href="group__spatialpartitioning.html#classPonca_1_1KdTreeQuery" target="_top" xlink:title=" ">
<polygon fill="white" stroke="#bfbfbf" points="653.5,-207 533.5,-207 533.5,-144 653.5,-144 653.5,-207"/>
<text text-anchor="start" x="541.5" y="-195" font-family="Helvetica,sans-Serif" font-size="10.00">{Ponca::KdTreeQuery</text>
<text text-anchor="middle" x="593.5" y="-184" font-family="Helvetica,sans-Serif" font-size="10.00">&lt; DataPoint &gt;</text>
<text text-anchor="start" x="541.5" y="-173" font-family="Helvetica,sans-Serif" font-size="10.00">||+ KdTreeQuery()</text>
<text text-anchor="start" x="541.5" y="-162" font-family="Helvetica,sans-Serif" font-size="10.00"># reset()</text>
<text text-anchor="middle" x="593.5" y="-151" font-family="Helvetica,sans-Serif" font-size="10.00">}</text>
</a>
</g>
</g>
<!-- Node2&#45;&gt;Node1 -->
<g id="edge1" class="edge">
<title>Node2&#45;&gt;Node1</title>
<path fill="none" stroke="#63b8ff" d="M639.51,-137.44C651.4,-127.87 664.42,-117.38 677.08,-107.18"/>
<polygon fill="none" stroke="#63b8ff" points="637.08,-134.91 631.48,-143.91 641.47,-140.36 637.08,-134.91"/>
</g>
<!-- Node3 -->
<g id="node3" class="node">
<title>Node3</title>
<g id="a_node3"><a xlink:href="group__spatialpartitioning.html" target="_top" xlink:title=" ">
<polygon fill="white" stroke="#666666" points="415,-427 254,-427 254,-254 415,-254 415,-427"/>
<text text-anchor="middle" x="334.5" y="-415" font-family="Helvetica,sans-Serif" font-size="10.00">{Ponca::KdTree&lt; DataPoint &gt;</text>
<text text-anchor="start" x="262" y="-404" font-family="Helvetica,sans-Serif" font-size="10.00">|# m_min_cell_size</text>
<text text-anchor="start" x="262" y="-393" font-family="Helvetica,sans-Serif" font-size="10.00"># m_leaf_count</text>
<text text-anchor="start" x="262" y="-382" font-family="Helvetica,sans-Serif" font-size="10.00">|+ KdTree()</text>
<text text-anchor="start" x="262" y="-371" font-family="Helvetica,sans-Serif" font-size="10.00">+ KdTree()</text>
<text text-anchor="start" x="262" y="-360" font-family="Helvetica,sans-Serif" font-size="10.00">+ KdTree()</text>
<text text-anchor="start" x="262" y="-349" font-family="Helvetica,sans-Serif" font-size="10.00">+ clear()</text>
<text text-anchor="start" x="262" y="-338" font-family="Helvetica,sans-Serif" font-size="10.00">+ build()</text>
<text text-anchor="start" x="262" y="-327" font-family="Helvetica,sans-Serif" font-size="10.00">+ build()</text>
<text text-anchor="start" x="262" y="-316" font-family="Helvetica,sans-Serif" font-size="10.00">+ buildWithSampling()</text>
<text text-anchor="start" x="262" y="-305" font-family="Helvetica,sans-Serif" font-size="10.00">+ buildWithSampling()</text>
<text text-anchor="start" x="262" y="-294" font-family="Helvetica,sans-Serif" font-size="10.00">+ rebuild()</text>
<text text-anchor="start" x="262" y="-283" font-family="Helvetica,sans-Serif" font-size="10.00">+ valid()</text>
<text text-anchor="start" x="262" y="-272" font-family="Helvetica,sans-Serif" font-size="10.00">and 21 more...</text>
<text text-anchor="middle" x="334.5" y="-261" font-family="Helvetica,sans-Serif" font-size="10.00">}</text>
</a>
</g>
</g>
<!-- Node3&#45;&gt;Node2 -->
<g id="edge2" class="edge">
<title>Node3&#45;&gt;Node2</title>
<path fill="none" stroke="#404040" d="M415.03,-288.82C453.68,-264.49 499.16,-235.87 534.54,-213.61"/>
<polygon fill="none" stroke="#404040" points="534.55,-213.6 537.49,-207.02 544.7,-207.21 541.76,-213.79 534.55,-213.6"/>
<text text-anchor="middle" x="539.5" y="-228" font-family="Helvetica,sans-Serif" font-size="10.00"> #m_kdtree</text>
</g>
<!-- Node4 -->
<g id="node4" class="node">
<title>Node4</title>
<g id="a_node4"><a xlink:title=" ">
<polygon fill="white" stroke="#666666" points="145,-817.5 0,-817.5 0,-776.5 145,-776.5 145,-817.5"/>
<text text-anchor="middle" x="72.5" y="-805.5" font-family="Helvetica,sans-Serif" font-size="10.00">{std::vector&lt; DataPoint &gt;</text>
<text text-anchor="start" x="8" y="-794.5" font-family="Helvetica,sans-Serif" font-size="10.00">|+ elements</text>
<text text-anchor="middle" x="72.5" y="-783.5" font-family="Helvetica,sans-Serif" font-size="10.00">|}</text>
</a>
</g>
</g>
<!-- Node4&#45;&gt;Node3 -->
<g id="edge3" class="edge">
<title>Node4&#45;&gt;Node3</title>
<path fill="none" stroke="#404040" d="M65.53,-776.4C48.85,-725.87 11.87,-588.66 65.5,-496 103.35,-430.62 180.48,-390.5 242.48,-367.59"/>
<polygon fill="none" stroke="#404040" points="242.57,-367.56 246.87,-361.77 253.87,-363.51 249.57,-369.3 242.57,-367.56"/>
<text text-anchor="middle" x="94" y="-580" font-family="Helvetica,sans-Serif" font-size="10.00"> #m_points</text>
</g>
<!-- Node9 -->
<g id="node9" class="node">
<title>Node9</title>
<g id="a_node9"><a xlink:href="group__spatialpartitioning.html#classPonca_1_1KdTree" target="_top" xlink:title=" ">
<polygon fill="white" stroke="#666666" points="299,-669 132,-669 132,-496 299,-496 299,-669"/>
<text text-anchor="middle" x="215.5" y="-657" font-family="Helvetica,sans-Serif" font-size="10.00">{Ponca::KdTree&lt; _DataPoint &gt;</text>
<text text-anchor="start" x="140" y="-646" font-family="Helvetica,sans-Serif" font-size="10.00">|# m_min_cell_size</text>
<text text-anchor="start" x="140" y="-635" font-family="Helvetica,sans-Serif" font-size="10.00"># m_leaf_count</text>
<text text-anchor="start" x="140" y="-624" font-family="Helvetica,sans-Serif" font-size="10.00">|+ KdTree()</text>
<text text-anchor="start" x="140" y="-613" font-family="Helvetica,sans-Serif" font-size="10.00">+ KdTree()</text>
<text text-anchor="start" x="140" y="-602" font-family="Helvetica,sans-Serif" font-size="10.00">+ KdTree()</text>
<text text-anchor="start" x="140" y="-591" font-family="Helvetica,sans-Serif" font-size="10.00">+ clear()</text>
<text text-anchor="start" x="140" y="-580" font-family="Helvetica,sans-Serif" font-size="10.00">+ build()</text>
<text text-anchor="start" x="140" y="-569" font-family="Helvetica,sans-Serif" font-size="10.00">+ build()</text>
<text text-anchor="start" x="140" y="-558" font-family="Helvetica,sans-Serif" font-size="10.00">+ buildWithSampling()</text>
<text text-anchor="start" x="140" y="-547" font-family="Helvetica,sans-Serif" font-size="10.00">+ buildWithSampling()</text>
<text text-anchor="start" x="140" y="-536" font-family="Helvetica,sans-Serif" font-size="10.00">+ rebuild()</text>
<text text-anchor="start" x="140" y="-525" font-family="Helvetica,sans-Serif" font-size="10.00">+ valid()</text>
<text text-anchor="start" x="140" y="-514" font-family="Helvetica,sans-Serif" font-size="10.00">and 21 more...</text>
<text text-anchor="middle" x="215.5" y="-503" font-family="Helvetica,sans-Serif" font-size="10.00">}</text>
</a>
</g>
</g>
<!-- Node4&#45;&gt;Node9 -->
<g id="edge11" class="edge">
<title>Node4&#45;&gt;Node9</title>
<path fill="none" stroke="#404040" d="M85.7,-776.39C100.74,-754.04 126.43,-715.86 151.01,-679.33"/>
<polygon fill="none" stroke="#404040" points="151.2,-679.05 151.23,-671.83 157.9,-669.09 157.87,-676.3 151.2,-679.05"/>
<text text-anchor="middle" x="173" y="-701" font-family="Helvetica,sans-Serif" font-size="10.00"> #m_points</text>
</g>
<!-- Node5 -->
<g id="node5" class="node">
<title>Node5</title>
<g id="a_node5"><a xlink:title=" ">
<polygon fill="white" stroke="#666666" points="299,-966 196,-966 196,-936 299,-936 299,-966"/>
<text text-anchor="middle" x="247.5" y="-954" font-family="Helvetica,sans-Serif" font-size="10.00">{std::vector&lt; T &gt;</text>
<text text-anchor="middle" x="247.5" y="-943" font-family="Helvetica,sans-Serif" font-size="10.00">||}</text>
</a>
</g>
</g>
<!-- Node5&#45;&gt;Node4 -->
<g id="edge4" class="edge">
<title>Node5&#45;&gt;Node4</title>
<path fill="none" stroke="orange" d="M196.46,-932.05C176.29,-923.29 153.85,-911.29 136.5,-896 111.2,-873.69 91.8,-839.11 81.29,-817.55"/>
<polygon fill="orange" stroke="orange" points="195.26,-935.34 205.83,-935.97 197.96,-928.88 195.26,-935.34"/>
<text text-anchor="middle" x="173.5" y="-882.5" font-family="Helvetica,sans-Serif" font-size="10.00"> &lt; DataPoint &gt;</text>
</g>
<!-- Node7 -->
<g id="node7" class="node">
<title>Node7</title>
<g id="a_node7"><a xlink:title=" ">
<polygon fill="white" stroke="#666666" points="435.5,-823 291.5,-823 291.5,-771 435.5,-771 435.5,-823"/>
<text text-anchor="start" x="299.5" y="-811" font-family="Helvetica,sans-Serif" font-size="10.00">{std::vector&lt; KdTreeNode</text>
<text text-anchor="middle" x="363.5" y="-800" font-family="Helvetica,sans-Serif" font-size="10.00">&lt; Scalar &gt; &gt;</text>
<text text-anchor="start" x="299.5" y="-789" font-family="Helvetica,sans-Serif" font-size="10.00">|+ elements</text>
<text text-anchor="middle" x="363.5" y="-778" font-family="Helvetica,sans-Serif" font-size="10.00">|}</text>
</a>
</g>
</g>
<!-- Node5&#45;&gt;Node7 -->
<g id="edge7" class="edge">
<title>Node5&#45;&gt;Node7</title>
<path fill="none" stroke="orange" d="M259.92,-926.83C268.59,-911.36 280.84,-890.85 293.5,-874 306.97,-856.07 323.97,-837.53 337.85,-823.25"/>
<polygon fill="orange" stroke="orange" points="256.78,-925.28 255.01,-935.73 262.91,-928.66 256.78,-925.28"/>
<text text-anchor="middle" x="362" y="-882.5" font-family="Helvetica,sans-Serif" font-size="10.00"> &lt; KdTreeNode&lt; Scalar &gt; &gt;</text>
</g>
<!-- Node8 -->
<g id="node8" class="node">
<title>Node8</title>
<g id="a_node8"><a xlink:title=" ">
<polygon fill="white" stroke="#666666" points="273.5,-817.5 163.5,-817.5 163.5,-776.5 273.5,-776.5 273.5,-817.5"/>
<text text-anchor="middle" x="218.5" y="-805.5" font-family="Helvetica,sans-Serif" font-size="10.00">{std::vector&lt; int &gt;</text>
<text text-anchor="start" x="171.5" y="-794.5" font-family="Helvetica,sans-Serif" font-size="10.00">|+ elements</text>
<text text-anchor="middle" x="218.5" y="-783.5" font-family="Helvetica,sans-Serif" font-size="10.00">|}</text>
</a>
</g>
</g>
<!-- Node5&#45;&gt;Node8 -->
<g id="edge9" class="edge">
<title>Node5&#45;&gt;Node8</title>
<path fill="none" stroke="orange" d="M231.45,-927.18C225.88,-917.94 220.32,-906.9 217.5,-896 210.63,-869.48 212.8,-837.56 215.35,-817.52"/>
<polygon fill="orange" stroke="orange" points="228.59,-929.2 236.92,-935.74 234.48,-925.43 228.59,-929.2"/>
<text text-anchor="middle" x="237" y="-882.5" font-family="Helvetica,sans-Serif" font-size="10.00"> &lt; int &gt;</text>
</g>
<!-- Node6 -->
<g id="node6" class="node">
<title>Node6</title>
<g id="a_node6"><a xlink:title=" ">
<polygon fill="white" stroke="#bfbfbf" points="695,-1098 666,-1098 666,-1068 695,-1068 695,-1098"/>
<text text-anchor="middle" x="680.5" y="-1086" font-family="Helvetica,sans-Serif" font-size="10.00">{T</text>
<text text-anchor="middle" x="680.5" y="-1075" font-family="Helvetica,sans-Serif" font-size="10.00">||}</text>
</a>
</g>
</g>
<!-- Node6&#45;&gt;Node5 -->
<g id="edge5" class="edge">
<title>Node6&#45;&gt;Node5</title>
<path fill="none" stroke="#404040" d="M665.76,-1069.62C643.79,-1051.97 600.41,-1020.14 557.5,-1006 466.01,-975.85 435.42,-1009.44 341.5,-988 323.81,-983.96 305.02,-977.28 288.92,-970.76"/>
<polygon fill="none" stroke="#404040" points="288.79,-970.71 281.72,-972.09 277.72,-966.08 284.8,-964.71 288.79,-970.71"/>
<text text-anchor="middle" x="633.5" y="-1014.5" font-family="Helvetica,sans-Serif" font-size="10.00"> +elements</text>
</g>
<!-- Node14 -->
<g id="node14" class="node">
<title>Node14</title>
<g id="a_node14"><a xlink:title=" ">
<polygon fill="white" stroke="#666666" points="729.5,-966 631.5,-966 631.5,-936 729.5,-936 729.5,-966"/>
<text text-anchor="middle" x="680.5" y="-954" font-family="Helvetica,sans-Serif" font-size="10.00">{std::array&lt; T &gt;</text>
<text text-anchor="middle" x="680.5" y="-943" font-family="Helvetica,sans-Serif" font-size="10.00">||}</text>
</a>
</g>
</g>
<!-- Node6&#45;&gt;Node14 -->
<g id="edge19" class="edge">
<title>Node6&#45;&gt;Node14</title>
<path fill="none" stroke="#404040" d="M680.5,-1067.84C680.5,-1046.45 680.5,-1005.52 680.5,-978.49"/>
<polygon fill="none" stroke="#404040" points="680.5,-978.14 676.5,-972.14 680.5,-966.14 684.5,-972.14 680.5,-978.14"/>
<text text-anchor="middle" x="709.5" y="-1014.5" font-family="Helvetica,sans-Serif" font-size="10.00"> +elements</text>
</g>
<!-- Node16 -->
<g id="node16" class="node">
<title>Node16</title>
<g id="a_node16"><a xlink:title=" ">
<polygon fill="white" stroke="#666666" points="779,-812 668,-812 668,-782 779,-782 779,-812"/>
<text text-anchor="middle" x="723.5" y="-800" font-family="Helvetica,sans-Serif" font-size="10.00">{std::array&lt; T, N &gt;</text>
<text text-anchor="middle" x="723.5" y="-789" font-family="Helvetica,sans-Serif" font-size="10.00">||}</text>
</a>
</g>
</g>
<!-- Node6&#45;&gt;Node16 -->
<g id="edge22" class="edge">
<title>Node6&#45;&gt;Node16</title>
<path fill="none" stroke="#404040" d="M695.03,-1073.75C709.66,-1064.6 731.59,-1048.39 742.5,-1028 774.98,-967.28 774.61,-941.18 759.5,-874 755.43,-855.9 746.53,-837.05 738.6,-822.65"/>
<polygon fill="none" stroke="#404040" points="738.55,-822.56 732.09,-819.35 732.56,-812.16 739.02,-815.36 738.55,-822.56"/>
<text text-anchor="middle" x="797.5" y="-948.5" font-family="Helvetica,sans-Serif" font-size="10.00"> +elements</text>
</g>
<!-- Node7&#45;&gt;Node3 -->
<g id="edge6" class="edge">
<title>Node7&#45;&gt;Node3</title>
<path fill="none" stroke="#404040" d="M372.93,-770.66C381.81,-745.34 394.48,-705.09 399.5,-669 410.09,-592.84 414.71,-571.37 399.5,-496 395.64,-476.89 389.36,-457.21 382.17,-438.56"/>
<polygon fill="none" stroke="#404040" points="382.17,-438.55 376.23,-434.46 377.73,-427.4 383.66,-431.49 382.17,-438.55"/>
<text text-anchor="middle" x="437.5" y="-580" font-family="Helvetica,sans-Serif" font-size="10.00"> #m_nodes</text>
</g>
<!-- Node7&#45;&gt;Node9 -->
<g id="edge12" class="edge">
<title>Node7&#45;&gt;Node9</title>
<path fill="none" stroke="#404040" d="M345.94,-770.79C330.05,-747.97 305.61,-712.89 282.17,-679.22"/>
<polygon fill="none" stroke="#404040" points="282.12,-679.16 275.41,-676.52 275.26,-669.31 281.98,-671.95 282.12,-679.16"/>
<text text-anchor="middle" x="335.5" y="-701" font-family="Helvetica,sans-Serif" font-size="10.00"> #m_nodes</text>
</g>
<!-- Node8&#45;&gt;Node3 -->
<g id="edge8" class="edge">
<title>Node8&#45;&gt;Node3</title>
<path fill="none" stroke="#404040" d="M238.96,-776.34C261.32,-753.18 295.55,-712.35 307.5,-669 328.27,-593.67 334.54,-505.19 335.89,-439.2"/>
<polygon fill="none" stroke="#404040" points="335.89,-439.15 331.99,-433.08 336.08,-427.15 339.98,-433.21 335.89,-439.15"/>
<text text-anchor="middle" x="364" y="-580" font-family="Helvetica,sans-Serif" font-size="10.00"> #m_indices</text>
</g>
<!-- Node8&#45;&gt;Node9 -->
<g id="edge13" class="edge">
<title>Node8&#45;&gt;Node9</title>
<path fill="none" stroke="#404040" d="M218.22,-776.39C217.91,-754.42 217.39,-717.16 216.88,-681.21"/>
<polygon fill="none" stroke="#404040" points="216.88,-681.09 212.79,-675.15 216.71,-669.09 220.79,-675.03 216.88,-681.09"/>
<text text-anchor="middle" x="248" y="-701" font-family="Helvetica,sans-Serif" font-size="10.00"> #m_indices</text>
</g>
<!-- Node9&#45;&gt;Node3 -->
<g id="edge10" class="edge">
<title>Node9&#45;&gt;Node3</title>
<path fill="none" stroke="orange" d="M230.94,-486.12C234.99,-471.94 240.09,-457.8 246.5,-445 249.51,-438.99 252.94,-433.03 256.66,-427.2"/>
<polygon fill="orange" stroke="orange" points="227.52,-485.36 228.3,-495.93 234.28,-487.18 227.52,-485.36"/>
<text text-anchor="middle" x="283.5" y="-459" font-family="Helvetica,sans-Serif" font-size="10.00"> &lt; DataPoint &gt;</text>
</g>
<!-- Node10 -->
<g id="node10" class="node">
<title>Node10</title>
<g id="a_node10"><a xlink:href="group__common.html" target="_top" xlink:title=" ">
<polygon fill="white" stroke="#666666" points="660.5,-427 526.5,-427 526.5,-254 660.5,-254 660.5,-427"/>
<text text-anchor="start" x="534.5" y="-415" font-family="Helvetica,sans-Serif" font-size="10.00">{Ponca::Stack&lt; Ponca</text>
<text text-anchor="start" x="534.5" y="-404" font-family="Helvetica,sans-Serif" font-size="10.00">::IndexSquaredDistance</text>
<text text-anchor="start" x="534.5" y="-393" font-family="Helvetica,sans-Serif" font-size="10.00">&lt; typename DataPoint::</text>
<text text-anchor="middle" x="593.5" y="-382" font-family="Helvetica,sans-Serif" font-size="10.00">Scalar &gt;, 2 *32 &gt;</text>
<text text-anchor="start" x="534.5" y="-371" font-family="Helvetica,sans-Serif" font-size="10.00">|# m_size</text>
<text text-anchor="start" x="534.5" y="-360" font-family="Helvetica,sans-Serif" font-size="10.00">|+ Stack()</text>
<text text-anchor="start" x="534.5" y="-349" font-family="Helvetica,sans-Serif" font-size="10.00">+ top()</text>
<text text-anchor="start" x="534.5" y="-338" font-family="Helvetica,sans-Serif" font-size="10.00">+ top()</text>
<text text-anchor="start" x="534.5" y="-327" font-family="Helvetica,sans-Serif" font-size="10.00">+ empty()</text>
<text text-anchor="start" x="534.5" y="-316" font-family="Helvetica,sans-Serif" font-size="10.00">+ size()</text>
<text text-anchor="start" x="534.5" y="-305" font-family="Helvetica,sans-Serif" font-size="10.00">+ push()</text>
<text text-anchor="start" x="534.5" y="-294" font-family="Helvetica,sans-Serif" font-size="10.00">+ push()</text>
<text text-anchor="start" x="534.5" y="-283" font-family="Helvetica,sans-Serif" font-size="10.00">+ pop()</text>
<text text-anchor="start" x="534.5" y="-272" font-family="Helvetica,sans-Serif" font-size="10.00">+ clear()</text>
<text text-anchor="middle" x="593.5" y="-261" font-family="Helvetica,sans-Serif" font-size="10.00">}</text>
</a>
</g>
</g>
<!-- Node10&#45;&gt;Node2 -->
<g id="edge14" class="edge">
<title>Node10&#45;&gt;Node2</title>
<path fill="none" stroke="#404040" d="M593.5,-253.7C593.5,-241.82 593.5,-230.05 593.5,-219.43"/>
<polygon fill="none" stroke="#404040" points="593.5,-219.09 589.5,-213.09 593.5,-207.09 597.5,-213.09 593.5,-219.09"/>
<text text-anchor="middle" x="620" y="-228" font-family="Helvetica,sans-Serif" font-size="10.00"> #m_stack</text>
</g>
<!-- Node11 -->
<g id="node11" class="node">
<title>Node11</title>
<g id="a_node11"><a xlink:title=" ">
<polygon fill="white" stroke="#666666" points="583.5,-828.5 455.5,-828.5 455.5,-765.5 583.5,-765.5 583.5,-828.5"/>
<text text-anchor="start" x="463.5" y="-816.5" font-family="Helvetica,sans-Serif" font-size="10.00">{std::array&lt; Ponca::</text>
<text text-anchor="start" x="463.5" y="-805.5" font-family="Helvetica,sans-Serif" font-size="10.00">IndexSquaredDistance</text>
<text text-anchor="start" x="463.5" y="-794.5" font-family="Helvetica,sans-Serif" font-size="10.00">&lt; typename DataPoint</text>
<text text-anchor="middle" x="519.5" y="-783.5" font-family="Helvetica,sans-Serif" font-size="10.00">::Scalar &gt;, N &gt;</text>
<text text-anchor="middle" x="519.5" y="-772.5" font-family="Helvetica,sans-Serif" font-size="10.00">||}</text>
</a>
</g>
</g>
<!-- Node11&#45;&gt;Node10 -->
<g id="edge15" class="edge">
<title>Node11&#45;&gt;Node10</title>
<path fill="none" stroke="#404040" d="M524.47,-765.47C535.16,-699.81 560.74,-542.71 577.58,-439.29"/>
<polygon fill="none" stroke="#404040" points="577.61,-439.11 574.62,-432.55 579.54,-427.27 582.52,-433.83 577.61,-439.11"/>
<text text-anchor="middle" x="592" y="-580" font-family="Helvetica,sans-Serif" font-size="10.00"> #m_data</text>
</g>
<!-- Node12 -->
<g id="node12" class="node">
<title>Node12</title>
<g id="a_node12"><a xlink:href="group__spatialpartitioning.html" target="_top" xlink:title=" ">
<polygon fill="white" stroke="#666666" points="526.5,-988 350.5,-988 350.5,-914 526.5,-914 526.5,-988"/>
<text text-anchor="start" x="358.5" y="-976" font-family="Helvetica,sans-Serif" font-size="10.00">{Ponca::IndexSquaredDistance</text>
<text text-anchor="middle" x="438.5" y="-965" font-family="Helvetica,sans-Serif" font-size="10.00">&lt; typename DataPoint::Scalar &gt;</text>
<text text-anchor="start" x="358.5" y="-954" font-family="Helvetica,sans-Serif" font-size="10.00">|+ index</text>
<text text-anchor="start" x="358.5" y="-943" font-family="Helvetica,sans-Serif" font-size="10.00">+ squared_distance</text>
<text text-anchor="start" x="358.5" y="-932" font-family="Helvetica,sans-Serif" font-size="10.00">|+ operator&lt;()</text>
<text text-anchor="middle" x="438.5" y="-921" font-family="Helvetica,sans-Serif" font-size="10.00">}</text>
</a>
</g>
</g>
<!-- Node12&#45;&gt;Node11 -->
<g id="edge16" class="edge">
<title>Node12&#45;&gt;Node11</title>
<path fill="none" stroke="#404040" d="M433.3,-913.97C432.86,-900.9 434.11,-886.33 439.5,-874 445.55,-860.15 455.48,-847.62 466.31,-836.91"/>
<polygon fill="none" stroke="#404040" points="466.34,-836.88 468.01,-829.87 475.13,-828.72 473.46,-835.73 466.34,-836.88"/>
<text text-anchor="middle" x="468.5" y="-882.5" font-family="Helvetica,sans-Serif" font-size="10.00"> +elements</text>
</g>
<!-- Node13 -->
<g id="node13" class="node">
<title>Node13</title>
<g id="a_node13"><a xlink:href="group__spatialpartitioning.html#structPonca_1_1IndexSquaredDistance" target="_top" xlink:title="Associates an index with a distance.">
<polygon fill="white" stroke="#666666" points="522,-1120 355,-1120 355,-1046 522,-1046 522,-1120"/>
<text text-anchor="start" x="363" y="-1108" font-family="Helvetica,sans-Serif" font-size="10.00">{Ponca::IndexSquaredDistance</text>
<text text-anchor="middle" x="438.5" y="-1097" font-family="Helvetica,sans-Serif" font-size="10.00">&lt; Scalar &gt;</text>
<text text-anchor="start" x="363" y="-1086" font-family="Helvetica,sans-Serif" font-size="10.00">|+ index</text>
<text text-anchor="start" x="363" y="-1075" font-family="Helvetica,sans-Serif" font-size="10.00">+ squared_distance</text>
<text text-anchor="start" x="363" y="-1064" font-family="Helvetica,sans-Serif" font-size="10.00">|+ operator&lt;()</text>
<text text-anchor="middle" x="438.5" y="-1053" font-family="Helvetica,sans-Serif" font-size="10.00">}</text>
</a>
</g>
</g>
<!-- Node13&#45;&gt;Node12 -->
<g id="edge17" class="edge">
<title>Node13&#45;&gt;Node12</title>
<path fill="none" stroke="orange" d="M438.5,-1035.75C438.5,-1020.07 438.5,-1002.79 438.5,-988.02"/>
<polygon fill="orange" stroke="orange" points="435,-1035.79 438.5,-1045.79 442,-1035.79 435,-1035.79"/>
<text text-anchor="start" x="438.5" y="-1020" font-family="Helvetica,sans-Serif" font-size="10.00"> &lt; typename DataPoint</text>
<text text-anchor="middle" x="496" y="-1009" font-family="Helvetica,sans-Serif" font-size="10.00">::Scalar &gt;</text>
</g>
<!-- Node14&#45;&gt;Node11 -->
<g id="edge18" class="edge">
<title>Node14&#45;&gt;Node11</title>
<path fill="none" stroke="orange" d="M621.43,-938.16C579.76,-928.47 529.19,-913.54 516.5,-896 502.63,-876.83 504.71,-849.59 509.5,-828.69"/>
<polygon fill="orange" stroke="orange" points="620.72,-941.59 631.25,-940.39 622.27,-934.76 620.72,-941.59"/>
<text text-anchor="start" x="516.5" y="-888" font-family="Helvetica,sans-Serif" font-size="10.00"> &lt; Ponca::IndexSquaredDistance</text>
<text text-anchor="middle" x="608.5" y="-877" font-family="Helvetica,sans-Serif" font-size="10.00">&lt; typename DataPoint::Scalar &gt;, N &gt;</text>
</g>
<!-- Node14&#45;&gt;Node16 -->
<g id="edge23" class="edge">
<title>Node14&#45;&gt;Node16</title>
<path fill="none" stroke="orange" d="M692.28,-926.63C696.61,-917.29 701.25,-906.31 704.5,-896 713.66,-866.9 719.2,-831.49 721.78,-812.21"/>
<polygon fill="orange" stroke="orange" points="689.11,-925.15 687.94,-935.68 695.42,-928.18 689.11,-925.15"/>
<text text-anchor="middle" x="732.5" y="-882.5" font-family="Helvetica,sans-Serif" font-size="10.00"> &lt; T, N &gt;</text>
</g>
<!-- Node15 -->
<g id="node15" class="node">
<title>Node15</title>
<g id="a_node15"><a xlink:href="group__common.html#classPonca_1_1Stack" target="_top" xlink:title="Stack with fixed&#45;size storage.">
<polygon fill="white" stroke="#666666" points="763,-652.5 636,-652.5 636,-512.5 763,-512.5 763,-652.5"/>
<text text-anchor="middle" x="699.5" y="-640.5" font-family="Helvetica,sans-Serif" font-size="10.00">{Ponca::Stack&lt; T, N &gt;</text>
<text text-anchor="start" x="644" y="-629.5" font-family="Helvetica,sans-Serif" font-size="10.00">|# m_size</text>
<text text-anchor="start" x="644" y="-618.5" font-family="Helvetica,sans-Serif" font-size="10.00">|+ Stack()</text>
<text text-anchor="start" x="644" y="-607.5" font-family="Helvetica,sans-Serif" font-size="10.00">+ top()</text>
<text text-anchor="start" x="644" y="-596.5" font-family="Helvetica,sans-Serif" font-size="10.00">+ top()</text>
<text text-anchor="start" x="644" y="-585.5" font-family="Helvetica,sans-Serif" font-size="10.00">+ empty()</text>
<text text-anchor="start" x="644" y="-574.5" font-family="Helvetica,sans-Serif" font-size="10.00">+ size()</text>
<text text-anchor="start" x="644" y="-563.5" font-family="Helvetica,sans-Serif" font-size="10.00">+ push()</text>
<text text-anchor="start" x="644" y="-552.5" font-family="Helvetica,sans-Serif" font-size="10.00">+ push()</text>
<text text-anchor="start" x="644" y="-541.5" font-family="Helvetica,sans-Serif" font-size="10.00">+ pop()</text>
<text text-anchor="start" x="644" y="-530.5" font-family="Helvetica,sans-Serif" font-size="10.00">+ clear()</text>
<text text-anchor="middle" x="699.5" y="-519.5" font-family="Helvetica,sans-Serif" font-size="10.00">}</text>
</a>
</g>
</g>
<!-- Node15&#45;&gt;Node10 -->
<g id="edge20" class="edge">
<title>Node15&#45;&gt;Node10</title>
<path fill="none" stroke="orange" d="M664.93,-503.22C654.19,-478.9 642.29,-451.97 631.34,-427.17"/>
<polygon fill="orange" stroke="orange" points="661.74,-504.67 668.98,-512.4 668.14,-501.84 661.74,-504.67"/>
<text text-anchor="start" x="653.5" y="-470" font-family="Helvetica,sans-Serif" font-size="10.00"> &lt; Ponca::IndexSquaredDistance</text>
<text text-anchor="start" x="653.5" y="-459" font-family="Helvetica,sans-Serif" font-size="10.00">&lt; typename DataPoint::Scalar</text>
<text text-anchor="middle" x="733.5" y="-448" font-family="Helvetica,sans-Serif" font-size="10.00"> &gt;, 2 *32 &gt;</text>
</g>
<!-- Node16&#45;&gt;Node15 -->
<g id="edge21" class="edge">
<title>Node16&#45;&gt;Node15</title>
<path fill="none" stroke="#404040" d="M721.89,-781.73C719.2,-757.91 713.6,-708.37 708.68,-664.78"/>
<polygon fill="none" stroke="#404040" points="708.66,-664.59 704.01,-659.08 707.31,-652.67 711.96,-658.18 708.66,-664.59"/>
<text text-anchor="middle" x="738" y="-701" font-family="Helvetica,sans-Serif" font-size="10.00"> #m_data</text>
</g>
<!-- Node17 -->
<g id="node17" class="node">
<title>Node17</title>
<g id="a_node17"><a xlink:href="group__spatialpartitioning.html" target="_top" xlink:title=" ">
<polygon fill="white" stroke="#666666" points="931,-196 786,-196 786,-155 931,-155 931,-196"/>
<text text-anchor="start" x="794" y="-184" font-family="Helvetica,sans-Serif" font-size="10.00">{Ponca::RangeIndexQuery</text>
<text text-anchor="middle" x="858.5" y="-173" font-family="Helvetica,sans-Serif" font-size="10.00">&lt; DataPoint::Scalar &gt;</text>
<text text-anchor="middle" x="858.5" y="-162" font-family="Helvetica,sans-Serif" font-size="10.00">||}</text>
</a>
</g>
</g>
<!-- Node17&#45;&gt;Node1 -->
<g id="edge24" class="edge">
<title>Node17&#45;&gt;Node1</title>
<path fill="none" stroke="#63b8ff" d="M832.41,-147.51C820.87,-135.57 806.89,-121.11 793.43,-107.19"/>
<polygon fill="none" stroke="#63b8ff" points="830.14,-150.2 839.6,-154.95 835.17,-145.33 830.14,-150.2"/>
</g>
<!-- Node18 -->
<g id="node18" class="node">
<title>Node18</title>
<g id="a_node18"><a xlink:href="group__spatialpartitioning.html#structPonca_1_1Query" target="_top" xlink:title=" ">
<polygon fill="white" stroke="#bfbfbf" points="920,-828.5 797,-828.5 797,-765.5 920,-765.5 920,-828.5"/>
<text text-anchor="start" x="805" y="-816.5" font-family="Helvetica,sans-Serif" font-size="10.00">{Ponca::Query&lt; Input</text>
<text text-anchor="middle" x="858.5" y="-805.5" font-family="Helvetica,sans-Serif" font-size="10.00">_, Output_ &gt;</text>
<text text-anchor="start" x="805" y="-794.5" font-family="Helvetica,sans-Serif" font-size="10.00">||+ Query()</text>
<text text-anchor="start" x="805" y="-783.5" font-family="Helvetica,sans-Serif" font-size="10.00">+ Query()</text>
<text text-anchor="middle" x="858.5" y="-772.5" font-family="Helvetica,sans-Serif" font-size="10.00">}</text>
</a>
</g>
</g>
<!-- Node18&#45;&gt;Node17 -->
<g id="edge25" class="edge">
<title>Node18&#45;&gt;Node17</title>
<path fill="none" stroke="#63b8ff" d="M858.5,-754.99C858.5,-634.21 858.5,-282.88 858.5,-196.07"/>
<polygon fill="none" stroke="#63b8ff" points="855,-755.28 858.5,-765.28 862,-755.28 855,-755.28"/>
</g>
<!-- Node19 -->
<g id="node19" class="node">
<title>Node19</title>
<g id="a_node19"><a xlink:title=" ">
<polygon fill="white" stroke="#bfbfbf" points="1011,-966 958,-966 958,-936 1011,-936 1011,-966"/>
<text text-anchor="middle" x="984.5" y="-954" font-family="Helvetica,sans-Serif" font-size="10.00">{Input_</text>
<text text-anchor="middle" x="984.5" y="-943" font-family="Helvetica,sans-Serif" font-size="10.00">||}</text>
</a>
</g>
</g>
<!-- Node19&#45;&gt;Node18 -->
<g id="edge26" class="edge">
<title>Node19&#45;&gt;Node18</title>
<path fill="none" stroke="#63b8ff" d="M966.4,-928.16C944.76,-902.06 908.42,-858.22 883.96,-828.71"/>
<polygon fill="none" stroke="#63b8ff" points="963.8,-930.51 972.87,-935.97 969.18,-926.04 963.8,-930.51"/>
</g>
<!-- Node29 -->
<g id="node29" class="node">
<title>Node29</title>
<g id="a_node29"><a xlink:href="group__spatialpartitioning.html#structPonca_1_1Query" target="_top" xlink:title=" ">
<polygon fill="white" stroke="#bfbfbf" points="1061,-828.5 938,-828.5 938,-765.5 1061,-765.5 1061,-828.5"/>
<text text-anchor="start" x="946" y="-816.5" font-family="Helvetica,sans-Serif" font-size="10.00">{Ponca::Query&lt; Input</text>
<text text-anchor="middle" x="999.5" y="-805.5" font-family="Helvetica,sans-Serif" font-size="10.00">_, Output_ &gt;</text>
<text text-anchor="start" x="946" y="-794.5" font-family="Helvetica,sans-Serif" font-size="10.00">||+ Query()</text>
<text text-anchor="start" x="946" y="-783.5" font-family="Helvetica,sans-Serif" font-size="10.00">+ Query()</text>
<text text-anchor="middle" x="999.5" y="-772.5" font-family="Helvetica,sans-Serif" font-size="10.00">}</text>
</a>
</g>
</g>
<!-- Node19&#45;&gt;Node29 -->
<g id="edge38" class="edge">
<title>Node19&#45;&gt;Node29</title>
<path fill="none" stroke="#63b8ff" d="M986.89,-925.74C989.49,-899.42 993.65,-857.33 996.47,-828.71"/>
<polygon fill="none" stroke="#63b8ff" points="983.38,-925.68 985.88,-935.97 990.35,-926.36 983.38,-925.68"/>
</g>
<!-- Node20 -->
<g id="node20" class="node">
<title>Node20</title>
<g id="a_node20"><a xlink:title=" ">
<polygon fill="white" stroke="#bfbfbf" points="935,-966 874,-966 874,-936 935,-936 935,-966"/>
<text text-anchor="middle" x="904.5" y="-954" font-family="Helvetica,sans-Serif" font-size="10.00">{Output_</text>
<text text-anchor="middle" x="904.5" y="-943" font-family="Helvetica,sans-Serif" font-size="10.00">||}</text>
</a>
</g>
</g>
<!-- Node20&#45;&gt;Node18 -->
<g id="edge27" class="edge">
<title>Node20&#45;&gt;Node18</title>
<path fill="none" stroke="#63b8ff" d="M897.27,-926.09C889.31,-899.79 876.49,-857.45 867.79,-828.71"/>
<polygon fill="none" stroke="#63b8ff" points="894.01,-927.42 900.25,-935.97 900.71,-925.39 894.01,-927.42"/>
</g>
<!-- Node20&#45;&gt;Node29 -->
<g id="edge39" class="edge">
<title>Node20&#45;&gt;Node29</title>
<path fill="none" stroke="#63b8ff" d="M918.57,-927.48C934.93,-901.3 962.02,-857.96 980.3,-828.71"/>
<polygon fill="none" stroke="#63b8ff" points="915.6,-925.64 913.27,-935.97 921.54,-929.35 915.6,-925.64"/>
</g>
<!-- Node21 -->
<g id="node21" class="node">
<title>Node21</title>
<g id="a_node21"><a xlink:href="group__spatialpartitioning.html#structPonca_1_1RangeIndexQuery" target="_top" xlink:title="Base Query class combining QueryInputIsIndex and QueryOutputIsRange.">
<polygon fill="white" stroke="#666666" points="1076,-361 931,-361 931,-320 1076,-320 1076,-361"/>
<text text-anchor="start" x="939" y="-349" font-family="Helvetica,sans-Serif" font-size="10.00">{Ponca::RangeIndexQuery</text>
<text text-anchor="middle" x="1003.5" y="-338" font-family="Helvetica,sans-Serif" font-size="10.00">&lt; Scalar &gt;</text>
<text text-anchor="middle" x="1003.5" y="-327" font-family="Helvetica,sans-Serif" font-size="10.00">||}</text>
</a>
</g>
</g>
<!-- Node21&#45;&gt;Node17 -->
<g id="edge28" class="edge">
<title>Node21&#45;&gt;Node17</title>
<path fill="none" stroke="orange" d="M979.02,-311.98C949.83,-279.17 901.78,-225.15 876.05,-196.23"/>
<polygon fill="orange" stroke="orange" points="976.75,-314.69 986.01,-319.84 981.98,-310.04 976.75,-314.69"/>
<text text-anchor="middle" x="964.5" y="-228" font-family="Helvetica,sans-Serif" font-size="10.00"> &lt; DataPoint::Scalar &gt;</text>
</g>
<!-- Node22 -->
<g id="node22" class="node">
<title>Node22</title>
<g id="a_node22"><a xlink:href="group__spatialpartitioning.html" target="_top" xlink:title=" ">
<polygon fill="white" stroke="#bfbfbf" points="1198,-619.5 1039,-619.5 1039,-545.5 1198,-545.5 1198,-619.5"/>
<text text-anchor="start" x="1047" y="-607.5" font-family="Helvetica,sans-Serif" font-size="10.00">{Ponca::Query&lt; QueryInput</text>
<text text-anchor="start" x="1047" y="-596.5" font-family="Helvetica,sans-Serif" font-size="10.00">IsIndex, QueryOutputIsRange</text>
<text text-anchor="middle" x="1118.5" y="-585.5" font-family="Helvetica,sans-Serif" font-size="10.00">&lt; Scalar &gt; &gt;</text>
<text text-anchor="start" x="1047" y="-574.5" font-family="Helvetica,sans-Serif" font-size="10.00">||+ Query()</text>
<text text-anchor="start" x="1047" y="-563.5" font-family="Helvetica,sans-Serif" font-size="10.00">+ Query()</text>
<text text-anchor="middle" x="1118.5" y="-552.5" font-family="Helvetica,sans-Serif" font-size="10.00">}</text>
</a>
</g>
</g>
<!-- Node22&#45;&gt;Node21 -->
<g id="edge29" class="edge">
<title>Node22&#45;&gt;Node21</title>
<path fill="none" stroke="#63b8ff" d="M1096.79,-536.19C1071.56,-483.53 1031.07,-399.03 1012.88,-361.07"/>
<polygon fill="none" stroke="#63b8ff" points="1093.68,-537.8 1101.16,-545.31 1099.99,-534.78 1093.68,-537.8"/>
</g>
<!-- Node23 -->
<g id="node23" class="node">
<title>Node23</title>
<g id="a_node23"><a xlink:href="group__spatialpartitioning.html#structPonca_1_1QueryInputIsIndex" target="_top" xlink:title="Base class for queries storing points.">
<polygon fill="white" stroke="#666666" points="1226,-817.5 1079,-817.5 1079,-776.5 1226,-776.5 1226,-817.5"/>
<text text-anchor="middle" x="1152.5" y="-805.5" font-family="Helvetica,sans-Serif" font-size="10.00">{Ponca::QueryInputIsIndex</text>
<text text-anchor="start" x="1087" y="-794.5" font-family="Helvetica,sans-Serif" font-size="10.00">||+ QueryInputIsIndex()</text>
<text text-anchor="middle" x="1152.5" y="-783.5" font-family="Helvetica,sans-Serif" font-size="10.00">}</text>
</a>
</g>
</g>
<!-- Node23&#45;&gt;Node22 -->
<g id="edge30" class="edge">
<title>Node23&#45;&gt;Node22</title>
<path fill="none" stroke="#63b8ff" d="M1147.76,-766.35C1141.61,-727.91 1130.89,-660.92 1124.27,-619.58"/>
<polygon fill="none" stroke="#63b8ff" points="1144.33,-767.07 1149.36,-776.39 1151.24,-765.96 1144.33,-767.07"/>
</g>
<!-- Node24 -->
<g id="node24" class="node">
<title>Node24</title>
<g id="a_node24"><a xlink:href="group__spatialpartitioning.html" target="_top" xlink:title=" ">
<polygon fill="white" stroke="#666666" points="1212.5,-988 1092.5,-988 1092.5,-914 1212.5,-914 1212.5,-988"/>
<text text-anchor="start" x="1100.5" y="-976" font-family="Helvetica,sans-Serif" font-size="10.00">{Ponca::QueryInput&lt;</text>
<text text-anchor="middle" x="1152.5" y="-965" font-family="Helvetica,sans-Serif" font-size="10.00"> int &gt;</text>
<text text-anchor="start" x="1100.5" y="-954" font-family="Helvetica,sans-Serif" font-size="10.00">||+ QueryInput()</text>
<text text-anchor="start" x="1100.5" y="-943" font-family="Helvetica,sans-Serif" font-size="10.00">+ input()</text>
<text text-anchor="start" x="1100.5" y="-932" font-family="Helvetica,sans-Serif" font-size="10.00"># editInput()</text>
<text text-anchor="middle" x="1152.5" y="-921" font-family="Helvetica,sans-Serif" font-size="10.00">}</text>
</a>
</g>
</g>
<!-- Node24&#45;&gt;Node23 -->
<g id="edge31" class="edge">
<title>Node24&#45;&gt;Node23</title>
<path fill="none" stroke="#63b8ff" d="M1152.5,-903.68C1152.5,-874.81 1152.5,-839.15 1152.5,-817.51"/>
<polygon fill="none" stroke="#63b8ff" points="1149,-903.98 1152.5,-913.98 1156,-903.98 1149,-903.98"/>
</g>
<!-- Node25 -->
<g id="node25" class="node">
<title>Node25</title>
<g id="a_node25"><a xlink:href="group__spatialpartitioning.html#structPonca_1_1QueryInputBase" target="_top" xlink:title="Base class for queries input type.">
<polygon fill="white" stroke="#666666" points="1201.5,-1187 1065.5,-1187 1065.5,-1157 1201.5,-1157 1201.5,-1187"/>
<text text-anchor="middle" x="1133.5" y="-1175" font-family="Helvetica,sans-Serif" font-size="10.00">{Ponca::QueryInputBase</text>
<text text-anchor="middle" x="1133.5" y="-1164" font-family="Helvetica,sans-Serif" font-size="10.00">||}</text>
</a>
</g>
</g>
<!-- Node25&#45;&gt;Node24 -->
<g id="edge32" class="edge">
<title>Node25&#45;&gt;Node24</title>
<path fill="none" stroke="#63b8ff" d="M1134.35,-1146.6C1135.36,-1121.38 1137.3,-1080.88 1140.5,-1046 1142.26,-1026.83 1144.92,-1005.55 1147.28,-988.09"/>
<polygon fill="none" stroke="#63b8ff" points="1130.85,-1146.6 1133.97,-1156.73 1137.85,-1146.87 1130.85,-1146.6"/>
</g>
<!-- Node26 -->
<g id="node26" class="node">
<title>Node26</title>
<g id="a_node26"><a xlink:href="group__spatialpartitioning.html#structPonca_1_1QueryInput" target="_top" xlink:title="Base class for typed queries input type.">
<polygon fill="white" stroke="#666666" points="1269.5,-1120 1149.5,-1120 1149.5,-1046 1269.5,-1046 1269.5,-1120"/>
<text text-anchor="start" x="1157.5" y="-1108" font-family="Helvetica,sans-Serif" font-size="10.00">{Ponca::QueryInput&lt;</text>
<text text-anchor="middle" x="1209.5" y="-1097" font-family="Helvetica,sans-Serif" font-size="10.00"> InputType_ &gt;</text>
<text text-anchor="start" x="1157.5" y="-1086" font-family="Helvetica,sans-Serif" font-size="10.00">||+ QueryInput()</text>
<text text-anchor="start" x="1157.5" y="-1075" font-family="Helvetica,sans-Serif" font-size="10.00">+ input()</text>
<text text-anchor="start" x="1157.5" y="-1064" font-family="Helvetica,sans-Serif" font-size="10.00"># editInput()</text>
<text text-anchor="middle" x="1209.5" y="-1053" font-family="Helvetica,sans-Serif" font-size="10.00">}</text>
</a>
</g>
</g>
<!-- Node25&#45;&gt;Node26 -->
<g id="edge34" class="edge">
<title>Node25&#45;&gt;Node26</title>
<path fill="none" stroke="#63b8ff" d="M1152.65,-1149.08C1160.3,-1140.32 1169.33,-1129.99 1177.91,-1120.17"/>
<polygon fill="none" stroke="#63b8ff" points="1149.99,-1146.8 1146.05,-1156.63 1155.26,-1151.41 1149.99,-1146.8"/>
</g>
<!-- Node26&#45;&gt;Node24 -->
<g id="edge33" class="edge">
<title>Node26&#45;&gt;Node24</title>
<path fill="none" stroke="orange" d="M1189.42,-1036.2C1182.49,-1020.4 1174.83,-1002.93 1168.29,-988.02"/>
<polygon fill="orange" stroke="orange" points="1186.4,-1038.03 1193.62,-1045.79 1192.81,-1035.22 1186.4,-1038.03"/>
<text text-anchor="middle" x="1203" y="-1014.5" font-family="Helvetica,sans-Serif" font-size="10.00"> &lt; int &gt;</text>
</g>
<!-- Node27 -->
<g id="node27" class="node">
<title>Node27</title>
<g id="a_node27"><a xlink:href="group__spatialpartitioning.html#structPonca_1_1QueryOutputIsRange" target="_top" xlink:title="Base class for range queries.">
<polygon fill="white" stroke="#666666" points="1403,-856 1244,-856 1244,-738 1403,-738 1403,-856"/>
<text text-anchor="start" x="1252" y="-844" font-family="Helvetica,sans-Serif" font-size="10.00">{Ponca::QueryOutputIsRange</text>
<text text-anchor="middle" x="1323.5" y="-833" font-family="Helvetica,sans-Serif" font-size="10.00">&lt; Scalar &gt;</text>
<text text-anchor="start" x="1252" y="-822" font-family="Helvetica,sans-Serif" font-size="10.00">|# m_squared_radius</text>
<text text-anchor="start" x="1252" y="-811" font-family="Helvetica,sans-Serif" font-size="10.00">|+ QueryOutputIsRange()</text>
<text text-anchor="start" x="1252" y="-800" font-family="Helvetica,sans-Serif" font-size="10.00">+ radius()</text>
<text text-anchor="start" x="1252" y="-789" font-family="Helvetica,sans-Serif" font-size="10.00">+ squared_radius()</text>
<text text-anchor="start" x="1252" y="-778" font-family="Helvetica,sans-Serif" font-size="10.00">+ set_radius()</text>
<text text-anchor="start" x="1252" y="-767" font-family="Helvetica,sans-Serif" font-size="10.00">+ set_squared_radius()</text>
<text text-anchor="start" x="1252" y="-756" font-family="Helvetica,sans-Serif" font-size="10.00"># reset()</text>
<text text-anchor="middle" x="1323.5" y="-745" font-family="Helvetica,sans-Serif" font-size="10.00">}</text>
</a>
</g>
</g>
<!-- Node27&#45;&gt;Node22 -->
<g id="edge35" class="edge">
<title>Node27&#45;&gt;Node22</title>
<path fill="none" stroke="#63b8ff" d="M1260.11,-730.29C1225,-693.9 1182.7,-650.05 1153.52,-619.8"/>
<polygon fill="none" stroke="#63b8ff" points="1258.02,-733.17 1267.48,-737.93 1263.06,-728.31 1258.02,-733.17"/>
</g>
<!-- Node28 -->
<g id="node28" class="node">
<title>Node28</title>
<g id="a_node28"><a xlink:href="group__spatialpartitioning.html#structPonca_1_1QueryOutputBase" target="_top" xlink:title="Base class for queries output type.">
<polygon fill="white" stroke="#666666" points="1395.5,-966 1251.5,-966 1251.5,-936 1395.5,-936 1395.5,-966"/>
<text text-anchor="middle" x="1323.5" y="-954" font-family="Helvetica,sans-Serif" font-size="10.00">{Ponca::QueryOutputBase</text>
<text text-anchor="middle" x="1323.5" y="-943" font-family="Helvetica,sans-Serif" font-size="10.00">||}</text>
</a>
</g>
</g>
<!-- Node28&#45;&gt;Node27 -->
<g id="edge36" class="edge">
<title>Node28&#45;&gt;Node27</title>
<path fill="none" stroke="#63b8ff" d="M1323.5,-925.94C1323.5,-907.17 1323.5,-880.31 1323.5,-856.03"/>
<polygon fill="none" stroke="#63b8ff" points="1320,-925.97 1323.5,-935.97 1327,-925.97 1320,-925.97"/>
</g>
<!-- Node29&#45;&gt;Node22 -->
<g id="edge37" class="edge">
<title>Node29&#45;&gt;Node22</title>
<path fill="none" stroke="orange" d="M1003.79,-755.39C1007.25,-734.11 1013.45,-708.15 1024.5,-687 1037.65,-661.83 1058.41,-638.05 1077.09,-619.64"/>
<polygon fill="orange" stroke="orange" points="1000.31,-755.01 1002.3,-765.42 1007.23,-756.04 1000.31,-755.01"/>
<text text-anchor="start" x="1024.5" y="-712" font-family="Helvetica,sans-Serif" font-size="10.00"> &lt; QueryInputIsIndex,</text>
<text text-anchor="start" x="1024.5" y="-701" font-family="Helvetica,sans-Serif" font-size="10.00"> QueryOutputIsRange</text>
<text text-anchor="middle" x="1078" y="-690" font-family="Helvetica,sans-Serif" font-size="10.00">&lt; Scalar &gt; &gt;</text>
</g>
</g>
</svg>
