<?xml version="1.0" encoding="UTF-8" standalone="no"?>
<!DOCTYPE svg PUBLIC "-//W3C//DTD SVG 1.1//EN"
 "http://www.w3.org/Graphics/SVG/1.1/DTD/svg11.dtd">
<!-- Generated by graphviz version 2.43.0 (0)
 -->
<!-- Title: Ponca::ConstantWeightKernel&lt; _Scalar &gt; Pages: 1 -->
<svg width="170pt" height="248pt"
 viewBox="0.00 0.00 170.00 248.00" xmlns="http://www.w3.org/2000/svg" xmlns:xlink="http://www.w3.org/1999/xlink">
<g id="graph0" class="graph" transform="scale(1 1) rotate(0) translate(4 244)">
<title>Ponca::ConstantWeightKernel&lt; _Scalar &gt;</title>
<polygon fill="white" stroke="transparent" points="-4,4 -4,-244 166,-244 166,4 -4,4"/>
<!-- Node1 -->
<g id="node1" class="node">
<title>Node1</title>
<g id="a_node1"><a xlink:title="Concept::WeightKernelConcept returning a constant value.">
<polygon fill="#bfbfbf" stroke="black" points="1,-0.5 1,-112.5 161,-112.5 161,-0.5 1,-0.5"/>
<text text-anchor="start" x="9" y="-100.5" font-family="Helvetica,sans-Serif" font-size="10.00">Ponca::ConstantWeightKernel</text>
<text text-anchor="middle" x="81" y="-89.5" font-family="Helvetica,sans-Serif" font-size="10.00">&lt; _Scalar &gt;</text>
<polyline fill="none" stroke="black" points="1,-82.5 161,-82.5 "/>
<text text-anchor="middle" x="81" y="-70.5" font-family="Helvetica,sans-Serif" font-size="10.00"> </text>
<polyline fill="none" stroke="black" points="1,-63.5 161,-63.5 "/>
<text text-anchor="start" x="9" y="-51.5" font-family="Helvetica,sans-Serif" font-size="10.00">+ ConstantWeightKernel()</text>
<text text-anchor="start" x="9" y="-40.5" font-family="Helvetica,sans-Serif" font-size="10.00">+ setValue()</text>
<text text-anchor="start" x="9" y="-29.5" font-family="Helvetica,sans-Serif" font-size="10.00">+ f()</text>
<text text-anchor="start" x="9" y="-18.5" font-family="Helvetica,sans-Serif" font-size="10.00">+ df()</text>
<text text-anchor="start" x="9" y="-7.5" font-family="Helvetica,sans-Serif" font-size="10.00">+ ddf()</text>
</a>
</g>
</g>
<!-- Node2 -->
<g id="node2" class="node">
<title>Node2</title>
<g id="a_node2"><a xlink:href="classPonca_1_1Concept_1_1WeightKernelConcept.html" target="_top" xlink:title="A 1D weighting function and its derivatives.">
<polygon fill="white" stroke="black" points="0,-149.5 0,-239.5 162,-239.5 162,-149.5 0,-149.5"/>
<text text-anchor="start" x="8" y="-227.5" font-family="Helvetica,sans-Serif" font-size="10.00">Ponca::Concept::WeightKernel</text>
<text text-anchor="middle" x="81" y="-216.5" font-family="Helvetica,sans-Serif" font-size="10.00">Concept&lt; _Scalar &gt;</text>
<polyline fill="none" stroke="black" points="0,-209.5 162,-209.5 "/>
<text text-anchor="middle" x="81" y="-197.5" font-family="Helvetica,sans-Serif" font-size="10.00"> </text>
<polyline fill="none" stroke="black" points="0,-190.5 162,-190.5 "/>
<text text-anchor="start" x="8" y="-178.5" font-family="Helvetica,sans-Serif" font-size="10.00">+ f()</text>
<text text-anchor="start" x="8" y="-167.5" font-family="Helvetica,sans-Serif" font-size="10.00">+ df()</text>
<text text-anchor="start" x="8" y="-156.5" font-family="Helvetica,sans-Serif" font-size="10.00">+ ddf()</text>
</a>
</g>
</g>
<!-- Node2&#45;&gt;Node1 -->
<g id="edge1" class="edge">
<title>Node2&#45;&gt;Node1</title>
<path fill="none" stroke="midnightblue" d="M81,-139.31C81,-130.61 81,-121.59 81,-112.87"/>
<polygon fill="none" stroke="midnightblue" points="77.5,-139.34 81,-149.34 84.5,-139.34 77.5,-139.34"/>
</g>
</g>
</svg>
