<?xml version="1.0" encoding="UTF-8" standalone="no"?>
<!DOCTYPE svg PUBLIC "-//W3C//DTD SVG 1.1//EN"
 "http://www.w3.org/Graphics/SVG/1.1/DTD/svg11.dtd">
<!-- Generated by graphviz version 2.43.0 (0)
 -->
<!-- Title: Ponca::LimitedPriorityQueue&lt; T, N, CompareT &gt; Pages: 1 -->
<!--zoomable 628 -->

<svg id="main" version="1.1" xmlns="http://www.w3.org/2000/svg" xmlns:xlink="http://www.w3.org/1999/xlink" xml:space="preserve" onload="init(evt)">
<style type="text/css"><![CDATA[
.node, .edge {opacity: 0.7;}
.node.selected, .edge.selected {opacity: 1;}
.edge:hover path { stroke: red; }
.edge:hover polygon { stroke: red; fill: red; }
]]></style>

<defs>
  <circle id="rim" cx="0" cy="0" r="7"/>
  <circle id="rim2" cx="0" cy="0" r="3.5"/>
  <g id="zoomPlus">
    <use xlink:href="#rim" fill="#404040"><set attributeName="fill" to="#808080" begin="zoomplus.mouseover" end="zoomplus.mouseout"/></use>
    <path d="M-4,0h8M0,-4v8" fill="none" stroke="white" stroke-width="1.5" pointer-events="none"/>
  </g>
  <g id="zoomMin">
    <use xlink:href="#rim" fill="#404040"><set attributeName="fill" to="#808080" begin="zoomminus.mouseover" end="zoomminus.mouseout"/></use>
    <path d="M-4,0h8" fill="none" stroke="white" stroke-width="1.5" pointer-events="none"/>
  </g>
  <g id="arrowUp" transform="translate(30 24)">
    <use xlink:href="#rim"/>
    <path pointer-events="none" fill="none" stroke="white" stroke-width="1.5" d="M0,-3.0v7 M-2.5,-0.5L0,-3.0L2.5,-0.5"/>
  </g>
  <g id="arrowRight" transform="rotate(90) translate(36 -43)">
    <use xlink:href="#rim"/>
    <path pointer-events="none" fill="none" stroke="white" stroke-width="1.5" d="M0,-3.0v7 M-2.5,-0.5L0,-3.0L2.5,-0.5"/>
  </g>
  <g id="arrowDown" transform="rotate(180) translate(-30 -48)">
    <use xlink:href="#rim"/>
    <path pointer-events="none" fill="none" stroke="white" stroke-width="1.5" d="M0,-3.0v7 M-2.5,-0.5L0,-3.0L2.5,-0.5"/>
  </g>
  <g id="arrowLeft" transform="rotate(270) translate(-36 17)">
    <use xlink:href="#rim"/>
    <path pointer-events="none" fill="none" stroke="white" stroke-width="1.5" d="M0,-3.0v7 M-2.5,-0.5L0,-3.0L2.5,-0.5"/>
  </g>
  <g id="resetDef">
    <use xlink:href="#rim2" fill="#404040"><set attributeName="fill" to="#808080" begin="reset.mouseover" end="reset.mouseout"/></use>
  </g>
</defs>
<script type="application/ecmascript">
var viewWidth = 223;
var viewHeight = 628;
var sectionId = 'dynsection-0';
</script>
<script type="application/ecmascript" xlink:href="svg.min.js"/>
<svg id="graph" class="graph">
<g id="viewport">
<title>Ponca::LimitedPriorityQueue&lt; T, N, CompareT &gt;</title>
<!-- Node1 -->
<g id="Node000001" class="node">
<title>Node1</title>
<g id="a_Node000001"><a xlink:title="The LimitedPriorityQueue class is similar to std::priority_queue but has a limited capacity and handl...">
<polygon fill="#999999" stroke="transparent" points="165.5,-620 16.5,-620 16.5,-350 165.5,-350 165.5,-620"/>
<text text-anchor="start" x="22" y="-608" font-family="Helvetica,sans-Serif" font-size="10.00">Ponca::LimitedPriorityQueue</text>
<text text-anchor="start" x="42" y="-597" font-family="Helvetica,sans-Serif" font-size="10.00">&lt; T, N, CompareT &gt;</text>
<text text-anchor="start" x="23" y="-582" font-family="Helvetica,sans-Serif" font-size="10.00">#</text>
<text text-anchor="start" x="38" y="-582" font-family="Helvetica,sans-Serif" font-size="10.00">m_data</text>
<text text-anchor="start" x="23" y="-567" font-family="Helvetica,sans-Serif" font-size="10.00">#</text>
<text text-anchor="start" x="38" y="-567" font-family="Helvetica,sans-Serif" font-size="10.00">m_comp</text>
<text text-anchor="start" x="23" y="-552" font-family="Helvetica,sans-Serif" font-size="10.00">#</text>
<text text-anchor="start" x="38" y="-552" font-family="Helvetica,sans-Serif" font-size="10.00">m_size</text>
<text text-anchor="start" x="23" y="-537" font-family="Helvetica,sans-Serif" font-size="10.00">#</text>
<text text-anchor="start" x="38" y="-537" font-family="Helvetica,sans-Serif" font-size="10.00">m_capacity</text>
<text text-anchor="start" x="23" y="-522" font-family="Helvetica,sans-Serif" font-size="10.00">+</text>
<text text-anchor="start" x="38" y="-522" font-family="Helvetica,sans-Serif" font-size="10.00">LimitedPriorityQueue()</text>
<text text-anchor="start" x="23" y="-507" font-family="Helvetica,sans-Serif" font-size="10.00">+</text>
<text text-anchor="start" x="38" y="-507" font-family="Helvetica,sans-Serif" font-size="10.00">LimitedPriorityQueue()</text>
<text text-anchor="start" x="23" y="-492" font-family="Helvetica,sans-Serif" font-size="10.00">+</text>
<text text-anchor="start" x="38" y="-492" font-family="Helvetica,sans-Serif" font-size="10.00">LimitedPriorityQueue()</text>
<text text-anchor="start" x="23" y="-477" font-family="Helvetica,sans-Serif" font-size="10.00">+</text>
<text text-anchor="start" x="38" y="-477" font-family="Helvetica,sans-Serif" font-size="10.00">LimitedPriorityQueue()</text>
<text text-anchor="start" x="23" y="-462" font-family="Helvetica,sans-Serif" font-size="10.00">+</text>
<text text-anchor="start" x="38" y="-462" font-family="Helvetica,sans-Serif" font-size="10.00">~LimitedPriorityQueue()</text>
<text text-anchor="start" x="23" y="-447" font-family="Helvetica,sans-Serif" font-size="10.00">+</text>
<text text-anchor="start" x="38" y="-447" font-family="Helvetica,sans-Serif" font-size="10.00">operator=()</text>
<text text-anchor="start" x="23" y="-432" font-family="Helvetica,sans-Serif" font-size="10.00">+</text>
<text text-anchor="start" x="38" y="-432" font-family="Helvetica,sans-Serif" font-size="10.00">begin()</text>
<text text-anchor="start" x="23" y="-417" font-family="Helvetica,sans-Serif" font-size="10.00">+</text>
<text text-anchor="start" x="38" y="-417" font-family="Helvetica,sans-Serif" font-size="10.00">begin()</text>
<text text-anchor="start" x="23" y="-402" font-family="Helvetica,sans-Serif" font-size="10.00">+</text>
<text text-anchor="start" x="38" y="-402" font-family="Helvetica,sans-Serif" font-size="10.00">cbegin()</text>
<text text-anchor="start" x="23" y="-387" font-family="Helvetica,sans-Serif" font-size="10.00">+</text>
<text text-anchor="start" x="38" y="-387" font-family="Helvetica,sans-Serif" font-size="10.00">end()</text>
<text text-anchor="start" x="38" y="-372" font-family="Helvetica,sans-Serif" font-size="10.00">and 16 more...</text>
<text text-anchor="start" x="23" y="-357" font-family="Helvetica,sans-Serif" font-size="10.00">#</text>
<text text-anchor="start" x="38" y="-357" font-family="Helvetica,sans-Serif" font-size="10.00">pushImpl()</text>
<polygon fill="#666666" stroke="#666666" points="17,-592 17,-592 166,-592 166,-592 17,-592"/>
<polygon fill="#666666" stroke="#666666" points="17,-532 17,-532 36,-532 36,-532 17,-532"/>
<polygon fill="#666666" stroke="#666666" points="36,-532 36,-532 166,-532 166,-532 36,-532"/>
<polygon fill="none" stroke="#666666" points="16.5,-350 16.5,-620 165.5,-620 165.5,-350 16.5,-350"/>
</a>
</g>
</g>
<!-- Node2 -->
<g id="Node000002" class="node">
<title>Node2</title>
<g id="a_Node000002"><a xlink:href="classPonca_1_1LimitedPriorityQueue.html" target="_top" xlink:title=" ">
<polygon fill="white" stroke="transparent" points="182,-281 0,-281 0,0 182,0 182,-281"/>
<text text-anchor="start" x="5" y="-268.5" font-family="Helvetica,sans-Serif" font-size="10.00">Ponca::LimitedPriorityQueue</text>
<text text-anchor="start" x="5" y="-257.5" font-family="Helvetica,sans-Serif" font-size="10.00">&lt; IndexSquaredDistance&lt;</text>
<text text-anchor="start" x="5" y="-246.5" font-family="Helvetica,sans-Serif" font-size="10.00"> Index, Scalar &gt;, MAX_KNN_SIZE &gt;</text>
<text text-anchor="start" x="14" y="-231.5" font-family="Helvetica,sans-Serif" font-size="10.00">#</text>
<text text-anchor="start" x="37" y="-231.5" font-family="Helvetica,sans-Serif" font-size="10.00">m_data</text>
<text text-anchor="start" x="14" y="-216.5" font-family="Helvetica,sans-Serif" font-size="10.00">#</text>
<text text-anchor="start" x="37" y="-216.5" font-family="Helvetica,sans-Serif" font-size="10.00">m_comp</text>
<text text-anchor="start" x="14" y="-201.5" font-family="Helvetica,sans-Serif" font-size="10.00">#</text>
<text text-anchor="start" x="37" y="-201.5" font-family="Helvetica,sans-Serif" font-size="10.00">m_size</text>
<text text-anchor="start" x="14" y="-186.5" font-family="Helvetica,sans-Serif" font-size="10.00">#</text>
<text text-anchor="start" x="37" y="-186.5" font-family="Helvetica,sans-Serif" font-size="10.00">m_capacity</text>
<text text-anchor="start" x="14" y="-171.5" font-family="Helvetica,sans-Serif" font-size="10.00">+</text>
<text text-anchor="start" x="37" y="-171.5" font-family="Helvetica,sans-Serif" font-size="10.00">LimitedPriorityQueue()</text>
<text text-anchor="start" x="14" y="-156.5" font-family="Helvetica,sans-Serif" font-size="10.00">+</text>
<text text-anchor="start" x="37" y="-156.5" font-family="Helvetica,sans-Serif" font-size="10.00">LimitedPriorityQueue()</text>
<text text-anchor="start" x="14" y="-141.5" font-family="Helvetica,sans-Serif" font-size="10.00">+</text>
<text text-anchor="start" x="37" y="-141.5" font-family="Helvetica,sans-Serif" font-size="10.00">LimitedPriorityQueue()</text>
<text text-anchor="start" x="14" y="-126.5" font-family="Helvetica,sans-Serif" font-size="10.00">+</text>
<text text-anchor="start" x="37" y="-126.5" font-family="Helvetica,sans-Serif" font-size="10.00">LimitedPriorityQueue()</text>
<text text-anchor="start" x="14" y="-111.5" font-family="Helvetica,sans-Serif" font-size="10.00">+</text>
<text text-anchor="start" x="37" y="-111.5" font-family="Helvetica,sans-Serif" font-size="10.00">~LimitedPriorityQueue()</text>
<text text-anchor="start" x="14" y="-96.5" font-family="Helvetica,sans-Serif" font-size="10.00">+</text>
<text text-anchor="start" x="37" y="-96.5" font-family="Helvetica,sans-Serif" font-size="10.00">operator=()</text>
<text text-anchor="start" x="14" y="-81.5" font-family="Helvetica,sans-Serif" font-size="10.00">+</text>
<text text-anchor="start" x="37" y="-81.5" font-family="Helvetica,sans-Serif" font-size="10.00">begin()</text>
<text text-anchor="start" x="14" y="-66.5" font-family="Helvetica,sans-Serif" font-size="10.00">+</text>
<text text-anchor="start" x="37" y="-66.5" font-family="Helvetica,sans-Serif" font-size="10.00">begin()</text>
<text text-anchor="start" x="14" y="-51.5" font-family="Helvetica,sans-Serif" font-size="10.00">+</text>
<text text-anchor="start" x="37" y="-51.5" font-family="Helvetica,sans-Serif" font-size="10.00">cbegin()</text>
<text text-anchor="start" x="14" y="-36.5" font-family="Helvetica,sans-Serif" font-size="10.00">+</text>
<text text-anchor="start" x="37" y="-36.5" font-family="Helvetica,sans-Serif" font-size="10.00">end()</text>
<text text-anchor="start" x="37" y="-21.5" font-family="Helvetica,sans-Serif" font-size="10.00">and 16 more...</text>
<text text-anchor="start" x="14" y="-6.5" font-family="Helvetica,sans-Serif" font-size="10.00">#</text>
<text text-anchor="start" x="37" y="-6.5" font-family="Helvetica,sans-Serif" font-size="10.00">pushImpl()</text>
<polygon fill="#666666" stroke="#666666" points="0,-241.5 0,-241.5 182,-241.5 182,-241.5 0,-241.5"/>
<polygon fill="#666666" stroke="#666666" points="0,-181.5 0,-181.5 35,-181.5 35,-181.5 0,-181.5"/>
<polygon fill="#666666" stroke="#666666" points="35,-181.5 35,-181.5 182,-181.5 182,-181.5 35,-181.5"/>
<polygon fill="none" stroke="#666666" points="0,0 0,-281 182,-281 182,0 0,0"/>
</a>
</g>
</g>
<!-- Node1&#45;&gt;Node2 -->
<g id="edge1_Node000001_Node000002" class="edge">
<title>Node1&#45;&gt;Node2</title>
<g id="a_edge1_Node000001_Node000002"><a xlink:title=" ">
<path fill="none" stroke="orange" d="M91,-339.55C91,-320.2 91,-300.39 91,-281.13"/>
<polygon fill="orange" stroke="orange" points="87.5,-339.62 91,-349.62 94.5,-339.62 87.5,-339.62"/>
</a>
</g>
<text text-anchor="start" x="91" y="-324" font-family="Helvetica,sans-Serif" font-size="10.00" fill="grey"> &lt; IndexSquaredDistance</text>
<text text-anchor="start" x="91" y="-313" font-family="Helvetica,sans-Serif" font-size="10.00" fill="grey">&lt; Index, Scalar &gt;, MAX</text>
<text text-anchor="middle" x="153" y="-302" font-family="Helvetica,sans-Serif" font-size="10.00" fill="grey">_KNN_SIZE &gt;</text>
</g>
</g>
</svg>

<g id="navigator" transform="translate(0 0)" fill="#404254">
  <rect fill="#f2f5e9" fill-opacity="0.5" stroke="#606060" stroke-width=".5" x="0" y="0" width="60" height="60"/>
  <use id="zoomplus" xlink:href="#zoomPlus" x="17" y="9" onmousedown="handleZoom(evt,'in')"/>
  <use id="zoomminus" xlink:href="#zoomMin" x="42" y="9" onmousedown="handleZoom(evt,'out')"/>
  <use id="reset" xlink:href="#resetDef" x="30" y="36" onmousedown="handleReset()"/>
   <use id="arrowup" xlink:href="#arrowUp" x="0" y="0" onmousedown="handlePan(0,-1)"/>
  <use id="arrowright" xlink:href="#arrowRight" x="0" y="0" onmousedown="handlePan(1,0)"/>
  <use id="arrowdown" xlink:href="#arrowDown" x="0" y="0" onmousedown="handlePan(0,1)"/>
  <use id="arrowleft" xlink:href="#arrowLeft" x="0" y="0" onmousedown="handlePan(-1,0)"/>
</g>
<svg viewBox="0 0 15 15" width="100%" height="30px" preserveAspectRatio="xMaxYMin meet">
 <g id="arrow_out" transform="scale(0.3 0.3)">
  <a xlink:href="classPonca_1_1LimitedPriorityQueue__inherit__graph_org.svg" target="_base">
   <rect id="button" ry="5" rx="5" y="6" x="6" height="38" width="38"
        fill="#f2f5e9" fill-opacity="0.5" stroke="#606060" stroke-width="1.0"/>
   <path id="arrow"
     d="M 11.500037,31.436501 C 11.940474,20.09759 22.043105,11.32322 32.158766,21.979434 L 37.068811,17.246167 C 37.068811,17.246167 37.088388,32 37.088388,32 L 22.160133,31.978069 C 22.160133,31.978069 26.997745,27.140456 26.997745,27.140456 C 18.528582,18.264221 13.291696,25.230495 11.500037,31.436501 z"
     style="fill:#404040;"/>
  </a>
 </g>
</svg>

<style type='text/css'>
<![CDATA[
[data-mouse-over-selected='false'] { opacity: 0.7; }
[data-mouse-over-selected='true']  { opacity: 1.0; }
]]>
</style>
<script type="application/ecmascript"><![CDATA[
document.addEventListener('DOMContentLoaded', (event) => {
  highlightEdges();
  highlightAdjacentNodes();
});
]]></script>
</svg>
