<?xml version="1.0" encoding="UTF-8" standalone="no"?>
<!DOCTYPE svg PUBLIC "-//W3C//DTD SVG 1.1//EN"
 "http://www.w3.org/Graphics/SVG/1.1/DTD/svg11.dtd">
<!-- Generated by graphviz version 2.43.0 (0)
 -->
<!-- Title: Ponca::MlsSphereFitDer&lt; DataPoint, _NFilter, DiffType, T &gt; Pages: 1 -->
<svg width="186pt" height="385pt"
 viewBox="0.00 0.00 185.50 385.00" xmlns="http://www.w3.org/2000/svg" xmlns:xlink="http://www.w3.org/1999/xlink">
<g id="graph0" class="graph" transform="scale(1 1) rotate(0) translate(4 381)">
<title>Ponca::MlsSphereFitDer&lt; DataPoint, _NFilter, DiffType, T &gt;</title>
<!-- Node1 -->
<g id="Node000001" class="node">
<title>Node1</title>
<g id="a_Node000001"><a xlink:title="Extension performing derivation of the mls surface.">
<polygon fill="#999999" stroke="transparent" points="177.5,-281 51.5,-281 51.5,0 177.5,0 177.5,-281"/>
<text text-anchor="start" x="56.5" y="-268.5" font-family="Helvetica,sans-Serif" font-size="10.00">Ponca::MlsSphereFitDer</text>
<text text-anchor="start" x="56.5" y="-257.5" font-family="Helvetica,sans-Serif" font-size="10.00">&lt; DataPoint, _NFilter,</text>
<text text-anchor="start" x="81" y="-246.5" font-family="Helvetica,sans-Serif" font-size="10.00"> DiffType, T &gt;</text>
<text text-anchor="start" x="57.5" y="-231.5" font-family="Helvetica,sans-Serif" font-size="10.00">+</text>
<text text-anchor="start" x="72.5" y="-231.5" font-family="Helvetica,sans-Serif" font-size="10.00">m_d2Uc</text>
<text text-anchor="start" x="57.5" y="-216.5" font-family="Helvetica,sans-Serif" font-size="10.00">+</text>
<text text-anchor="start" x="72.5" y="-216.5" font-family="Helvetica,sans-Serif" font-size="10.00">m_d2Uq</text>
<text text-anchor="start" x="57.5" y="-201.5" font-family="Helvetica,sans-Serif" font-size="10.00">+</text>
<text text-anchor="start" x="72.5" y="-201.5" font-family="Helvetica,sans-Serif" font-size="10.00">m_d2Ul</text>
<text text-anchor="start" x="57.5" y="-186.5" font-family="Helvetica,sans-Serif" font-size="10.00">#</text>
<text text-anchor="start" x="72.5" y="-186.5" font-family="Helvetica,sans-Serif" font-size="10.00">m_d2SumDotPN</text>
<text text-anchor="start" x="57.5" y="-171.5" font-family="Helvetica,sans-Serif" font-size="10.00">#</text>
<text text-anchor="start" x="72.5" y="-171.5" font-family="Helvetica,sans-Serif" font-size="10.00">m_d2SumDotPP</text>
<text text-anchor="start" x="57.5" y="-156.5" font-family="Helvetica,sans-Serif" font-size="10.00">#</text>
<text text-anchor="start" x="72.5" y="-156.5" font-family="Helvetica,sans-Serif" font-size="10.00">m_d2SumW</text>
<text text-anchor="start" x="57.5" y="-141.5" font-family="Helvetica,sans-Serif" font-size="10.00">#</text>
<text text-anchor="start" x="72.5" y="-141.5" font-family="Helvetica,sans-Serif" font-size="10.00">m_d2SumP</text>
<text text-anchor="start" x="57.5" y="-126.5" font-family="Helvetica,sans-Serif" font-size="10.00">#</text>
<text text-anchor="start" x="72.5" y="-126.5" font-family="Helvetica,sans-Serif" font-size="10.00">m_d2SumN</text>
<text text-anchor="start" x="57.5" y="-111.5" font-family="Helvetica,sans-Serif" font-size="10.00">+</text>
<text text-anchor="start" x="72.5" y="-111.5" font-family="Helvetica,sans-Serif" font-size="10.00">mlsSphereFitDer()</text>
<text text-anchor="start" x="57.5" y="-96.5" font-family="Helvetica,sans-Serif" font-size="10.00">+</text>
<text text-anchor="start" x="72.5" y="-96.5" font-family="Helvetica,sans-Serif" font-size="10.00">mlsSphereFitDer()</text>
<text text-anchor="start" x="57.5" y="-81.5" font-family="Helvetica,sans-Serif" font-size="10.00">+</text>
<text text-anchor="start" x="72.5" y="-81.5" font-family="Helvetica,sans-Serif" font-size="10.00">init()</text>
<text text-anchor="start" x="57.5" y="-66.5" font-family="Helvetica,sans-Serif" font-size="10.00">+</text>
<text text-anchor="start" x="72.5" y="-66.5" font-family="Helvetica,sans-Serif" font-size="10.00">addLocalNeighbor()</text>
<text text-anchor="start" x="57.5" y="-51.5" font-family="Helvetica,sans-Serif" font-size="10.00">+</text>
<text text-anchor="start" x="72.5" y="-51.5" font-family="Helvetica,sans-Serif" font-size="10.00">finalize()</text>
<text text-anchor="start" x="57.5" y="-36.5" font-family="Helvetica,sans-Serif" font-size="10.00">+</text>
<text text-anchor="start" x="72.5" y="-36.5" font-family="Helvetica,sans-Serif" font-size="10.00">dPotential()</text>
<text text-anchor="start" x="57.5" y="-21.5" font-family="Helvetica,sans-Serif" font-size="10.00">+</text>
<text text-anchor="start" x="72.5" y="-21.5" font-family="Helvetica,sans-Serif" font-size="10.00">primitiveGradient()</text>
<text text-anchor="start" x="57.5" y="-6.5" font-family="Helvetica,sans-Serif" font-size="10.00">+</text>
<text text-anchor="start" x="72.5" y="-6.5" font-family="Helvetica,sans-Serif" font-size="10.00">dNormal()</text>
<polygon fill="#666666" stroke="#666666" points="51.5,-241.5 51.5,-241.5 177.5,-241.5 177.5,-241.5 51.5,-241.5"/>
<polygon fill="#666666" stroke="#666666" points="51.5,-121.5 51.5,-121.5 70.5,-121.5 70.5,-121.5 51.5,-121.5"/>
<polygon fill="#666666" stroke="#666666" points="70.5,-121.5 70.5,-121.5 177.5,-121.5 177.5,-121.5 70.5,-121.5"/>
<polygon fill="none" stroke="#666666" points="51.5,0 51.5,-281 177.5,-281 177.5,0 51.5,0"/>
</a>
</g>
</g>
<!-- Node2 -->
<g id="Node000002" class="node">
<title>Node2</title>
<g id="a_Node000002"><a xlink:title=" ">
<polygon fill="white" stroke="transparent" points="135,-377 0,-377 0,-317 135,-317 135,-377"/>
<text text-anchor="start" x="5.5" y="-365" font-family="Helvetica,sans-Serif" font-size="10.00">Concept::FittingExtension</text>
<text text-anchor="start" x="48" y="-354" font-family="Helvetica,sans-Serif" font-size="10.00">Concept</text>
<text text-anchor="start" x="66" y="-339" font-family="Helvetica,sans-Serif" font-size="10.00"> </text>
<text text-anchor="start" x="66" y="-324" font-family="Helvetica,sans-Serif" font-size="10.00"> </text>
<polygon fill="#bfbfbf" stroke="#bfbfbf" points="0.5,-349 0.5,-349 135.5,-349 135.5,-349 0.5,-349"/>
<polygon fill="#bfbfbf" stroke="#bfbfbf" points="0.5,-334 0.5,-334 135.5,-334 135.5,-334 0.5,-334"/>
<polygon fill="none" stroke="#bfbfbf" points="0,-317 0,-377 135,-377 135,-317 0,-317"/>
</a>
</g>
</g>
<!-- Node2&#45;&gt;Node1 -->
<g id="edge1_Node000001_Node000002" class="edge">
<title>Node2&#45;&gt;Node1</title>
<g id="a_edge1_Node000001_Node000002"><a xlink:title=" ">
<path fill="none" stroke="#63b8ff" d="M76.49,-306.88C78.29,-299.04 80.28,-290.38 82.38,-281.25"/>
<polygon fill="none" stroke="#63b8ff" points="73.06,-306.17 74.23,-316.7 79.88,-307.74 73.06,-306.17"/>
</a>
</g>
</g>
<!-- Node3 -->
<g id="Node000003" class="node">
<title>Node3</title>
<g id="a_Node000003"><a xlink:title=" ">
<polygon fill="white" stroke="transparent" points="170,-371.5 153,-371.5 153,-322.5 170,-322.5 170,-371.5"/>
<text text-anchor="start" x="158.5" y="-359" font-family="Helvetica,sans-Serif" font-size="10.00">T</text>
<text text-anchor="start" x="160" y="-344" font-family="Helvetica,sans-Serif" font-size="10.00"> </text>
<text text-anchor="start" x="160" y="-329" font-family="Helvetica,sans-Serif" font-size="10.00"> </text>
<polygon fill="#bfbfbf" stroke="#bfbfbf" points="153.5,-354 153.5,-354 170.5,-354 170.5,-354 153.5,-354"/>
<polygon fill="#bfbfbf" stroke="#bfbfbf" points="153.5,-339 153.5,-339 170.5,-339 170.5,-339 153.5,-339"/>
<polygon fill="none" stroke="#bfbfbf" points="153,-322.5 153,-371.5 170,-371.5 170,-322.5 153,-322.5"/>
</a>
</g>
</g>
<!-- Node3&#45;&gt;Node1 -->
<g id="edge2_Node000001_Node000003" class="edge">
<title>Node3&#45;&gt;Node1</title>
<g id="a_edge2_Node000001_Node000003"><a xlink:title=" ">
<path fill="none" stroke="#63b8ff" d="M153.76,-312.32C151.63,-303.06 149.18,-292.41 146.57,-281.05"/>
<polygon fill="none" stroke="#63b8ff" points="150.37,-313.18 156.02,-322.14 157.19,-311.61 150.37,-313.18"/>
</a>
</g>
</g>
</g>
</svg>
