<?xml version="1.0" encoding="UTF-8" standalone="no"?>
<!DOCTYPE svg PUBLIC "-//W3C//DTD SVG 1.1//EN"
 "http://www.w3.org/Graphics/SVG/1.1/DTD/svg11.dtd">
<!-- Generated by graphviz version 2.43.0 (0)
 -->
<!-- Title: Ponca::CurvatureEstimatorDer&lt; DataPoint, _NFilter, DiffType, T &gt; Pages: 1 -->
<svg width="152pt" height="406pt"
 viewBox="0.00 0.00 152.00 406.00" xmlns="http://www.w3.org/2000/svg" xmlns:xlink="http://www.w3.org/1999/xlink">

<svg id="main" version="1.1" xmlns="http://www.w3.org/2000/svg" xmlns:xlink="http://www.w3.org/1999/xlink" xml:space="preserve" onload="init(evt)">
<style type="text/css"><![CDATA[
.node, .edge {opacity: 0.7;}
.node.selected, .edge.selected {opacity: 1;}
.edge:hover path { stroke: red; }
.edge:hover polygon { stroke: red; fill: red; }
]]></style>
<script type="application/ecmascript" xlink:href="svg.min.js"/>
<svg id="graph" class="graph">
<g id="graph0" class="graph" transform="scale(1 1) rotate(0) translate(4 402)">
<title>Ponca::CurvatureEstimatorDer&lt; DataPoint, _NFilter, DiffType, T &gt;</title>
<!-- Node1 -->
<g id="Node000001" class="node">
<title>Node1</title>
<g id="a_Node000001"><a xlink:title="Make CurvatureEstimatorBase available to BasketDiff object.">
<polygon fill="#999999" stroke="transparent" points="142.5,-86 1.5,-86 1.5,0 142.5,0 142.5,-86"/>
<text text-anchor="start" x="7" y="-74" font-family="Helvetica,sans-Serif" font-size="10.00">Ponca::CurvatureEstimator</text>
<text text-anchor="start" x="7" y="-63" font-family="Helvetica,sans-Serif" font-size="10.00">Der&lt; DataPoint, _NFilter,</text>
<text text-anchor="start" x="39" y="-52" font-family="Helvetica,sans-Serif" font-size="10.00"> DiffType, T &gt;</text>
<text text-anchor="start" x="70.5" y="-37" font-family="Helvetica,sans-Serif" font-size="10.00"> </text>
<text text-anchor="start" x="10.5" y="-22" font-family="Helvetica,sans-Serif" font-size="10.00">+</text>
<text text-anchor="start" x="28" y="-22" font-family="Helvetica,sans-Serif" font-size="10.00">curvatureEstimator()</text>
<text text-anchor="start" x="10.5" y="-7" font-family="Helvetica,sans-Serif" font-size="10.00">+</text>
<text text-anchor="start" x="28" y="-7" font-family="Helvetica,sans-Serif" font-size="10.00">curvatureEstimator()</text>
<polygon fill="#666666" stroke="#666666" points="2,-47 2,-47 143,-47 143,-47 2,-47"/>
<polygon fill="#666666" stroke="#666666" points="2,-32 2,-32 143,-32 143,-32 2,-32"/>
<polygon fill="none" stroke="#666666" points="1.5,0 1.5,-86 142.5,-86 142.5,0 1.5,0"/>
</a>
</g>
</g>
<!-- Node2 -->
<g id="Node000002" class="node">
<title>Node2</title>
<g id="a_Node000002"><a xlink:href="classPonca_1_1internal_1_1CurvatureEstimatorBase.html" target="_top" xlink:title="Base class for any 3d curvature estimator: holds , &#160;and associated vectors, such that .">
<polygon fill="white" stroke="transparent" points="144,-313 0,-313 0,-122 144,-122 144,-313"/>
<text text-anchor="start" x="5" y="-300.5" font-family="Helvetica,sans-Serif" font-size="10.00">Ponca::internal::Curvature</text>
<text text-anchor="start" x="5" y="-289.5" font-family="Helvetica,sans-Serif" font-size="10.00">EstimatorBase&lt; DataPoint,</text>
<text text-anchor="start" x="40" y="-278.5" font-family="Helvetica,sans-Serif" font-size="10.00"> _NFilter, T &gt;</text>
<text text-anchor="start" x="70" y="-263.5" font-family="Helvetica,sans-Serif" font-size="10.00"> </text>
<text text-anchor="start" x="9" y="-248.5" font-family="Helvetica,sans-Serif" font-size="10.00">+</text>
<text text-anchor="start" x="27" y="-248.5" font-family="Helvetica,sans-Serif" font-size="10.00">init()</text>
<text text-anchor="start" x="9" y="-233.5" font-family="Helvetica,sans-Serif" font-size="10.00">+</text>
<text text-anchor="start" x="27" y="-233.5" font-family="Helvetica,sans-Serif" font-size="10.00">isValid()</text>
<text text-anchor="start" x="9" y="-218.5" font-family="Helvetica,sans-Serif" font-size="10.00">+</text>
<text text-anchor="start" x="27" y="-218.5" font-family="Helvetica,sans-Serif" font-size="10.00">kmin()</text>
<text text-anchor="start" x="9" y="-203.5" font-family="Helvetica,sans-Serif" font-size="10.00">+</text>
<text text-anchor="start" x="27" y="-203.5" font-family="Helvetica,sans-Serif" font-size="10.00">kmax()</text>
<text text-anchor="start" x="9" y="-188.5" font-family="Helvetica,sans-Serif" font-size="10.00">+</text>
<text text-anchor="start" x="27" y="-188.5" font-family="Helvetica,sans-Serif" font-size="10.00">kminDirection()</text>
<text text-anchor="start" x="9" y="-173.5" font-family="Helvetica,sans-Serif" font-size="10.00">+</text>
<text text-anchor="start" x="27" y="-173.5" font-family="Helvetica,sans-Serif" font-size="10.00">kmaxDirection()</text>
<text text-anchor="start" x="9" y="-158.5" font-family="Helvetica,sans-Serif" font-size="10.00">+</text>
<text text-anchor="start" x="27" y="-158.5" font-family="Helvetica,sans-Serif" font-size="10.00">kMean()</text>
<text text-anchor="start" x="9" y="-143.5" font-family="Helvetica,sans-Serif" font-size="10.00">+</text>
<text text-anchor="start" x="27" y="-143.5" font-family="Helvetica,sans-Serif" font-size="10.00">GaussianCurvature()</text>
<text text-anchor="start" x="9" y="-128.5" font-family="Helvetica,sans-Serif" font-size="10.00">#</text>
<text text-anchor="start" x="27" y="-128.5" font-family="Helvetica,sans-Serif" font-size="10.00">setCurvatureValues()</text>
<polygon fill="#666666" stroke="#666666" points="0,-273.5 0,-273.5 144,-273.5 144,-273.5 0,-273.5"/>
<polygon fill="#666666" stroke="#666666" points="0,-258.5 0,-258.5 144,-258.5 144,-258.5 0,-258.5"/>
<polygon fill="none" stroke="#666666" points="0,-122 0,-313 144,-313 144,-122 0,-122"/>
</a>
</g>
</g>
<!-- Node2&#45;&gt;Node1 -->
<g id="edge1_Node000001_Node000002" class="edge">
<title>Node2&#45;&gt;Node1</title>
<g id="a_edge1_Node000001_Node000002"><a xlink:title=" ">
<path fill="none" stroke="#63b8ff" d="M72,-111.7C72,-102.73 72,-94.04 72,-86.05"/>
<polygon fill="none" stroke="#63b8ff" points="68.5,-111.92 72,-121.92 75.5,-111.92 68.5,-111.92"/>
</a>
</g>
</g>
<!-- Node3 -->
<g id="Node000003" class="node">
<title>Node3</title>
<g id="a_Node000003"><a xlink:title=" ">
<polygon fill="white" stroke="transparent" points="80.5,-398 63.5,-398 63.5,-349 80.5,-349 80.5,-398"/>
<text text-anchor="start" x="69" y="-385.5" font-family="Helvetica,sans-Serif" font-size="10.00">T</text>
<text text-anchor="start" x="70.5" y="-370.5" font-family="Helvetica,sans-Serif" font-size="10.00"> </text>
<text text-anchor="start" x="70.5" y="-355.5" font-family="Helvetica,sans-Serif" font-size="10.00"> </text>
<polygon fill="#bfbfbf" stroke="#bfbfbf" points="64,-380.5 64,-380.5 81,-380.5 81,-380.5 64,-380.5"/>
<polygon fill="#bfbfbf" stroke="#bfbfbf" points="64,-365.5 64,-365.5 81,-365.5 81,-365.5 64,-365.5"/>
<polygon fill="none" stroke="#bfbfbf" points="63.5,-349 63.5,-398 80.5,-398 80.5,-349 63.5,-349"/>
</a>
</g>
</g>
<!-- Node3&#45;&gt;Node2 -->
<g id="edge2_Node000002_Node000003" class="edge">
<title>Node3&#45;&gt;Node2</title>
<g id="a_edge2_Node000002_Node000003"><a xlink:title=" ">
<path fill="none" stroke="#63b8ff" d="M72,-338.72C72,-330.91 72,-322.22 72,-313.19"/>
<polygon fill="none" stroke="#63b8ff" points="68.5,-338.77 72,-348.77 75.5,-338.78 68.5,-338.77"/>
</a>
</g>
</g>
</g>
</svg>
</svg>

<style type='text/css'>
<![CDATA[
[data-mouse-over-selected='false'] { opacity: 0.7; }
[data-mouse-over-selected='true']  { opacity: 1.0; }
]]>
</style>
<script type="application/ecmascript"><![CDATA[
document.addEventListener('DOMContentLoaded', (event) => {
  highlightEdges();
  highlightAdjacentNodes();
});
]]></script>
</svg>
