<?xml version="1.0" encoding="UTF-8" standalone="no"?>
<!DOCTYPE svg PUBLIC "-//W3C//DTD SVG 1.1//EN"
 "http://www.w3.org/Graphics/SVG/1.1/DTD/svg11.dtd">
<!-- Generated by graphviz version 2.43.0 (0)
 -->
<!-- Title: Ponca::KdTreeRangeIndexQuery&lt; DataPoint &gt; Pages: 1 -->
<svg width="560pt" height="1203pt"
 viewBox="0.00 0.00 559.50 1203.00" xmlns="http://www.w3.org/2000/svg" xmlns:xlink="http://www.w3.org/1999/xlink">
<g id="graph0" class="graph" transform="scale(1 1) rotate(0) translate(4 1199)">
<title>Ponca::KdTreeRangeIndexQuery&lt; DataPoint &gt;</title>
<!-- Node1 -->
<g id="node1" class="node">
<title>Node1</title>
<g id="a_node1"><a xlink:title=" ">
<polygon fill="#bfbfbf" stroke="black" points="18.5,-0.5 18.5,-112.5 190.5,-112.5 190.5,-0.5 18.5,-0.5"/>
<text text-anchor="start" x="26.5" y="-100.5" font-family="Helvetica,sans-Serif" font-size="10.00">Ponca::KdTreeRangeIndexQuery</text>
<text text-anchor="middle" x="104.5" y="-89.5" font-family="Helvetica,sans-Serif" font-size="10.00">&lt; DataPoint &gt;</text>
<polyline fill="none" stroke="black" points="18.5,-82.5 190.5,-82.5 "/>
<text text-anchor="start" x="26.5" y="-70.5" font-family="Helvetica,sans-Serif" font-size="10.00"># Iterator</text>
<polyline fill="none" stroke="black" points="18.5,-63.5 190.5,-63.5 "/>
<text text-anchor="start" x="26.5" y="-51.5" font-family="Helvetica,sans-Serif" font-size="10.00">+ KdTreeRangeIndexQuery()</text>
<text text-anchor="start" x="26.5" y="-40.5" font-family="Helvetica,sans-Serif" font-size="10.00">+ begin()</text>
<text text-anchor="start" x="26.5" y="-29.5" font-family="Helvetica,sans-Serif" font-size="10.00">+ end()</text>
<text text-anchor="start" x="26.5" y="-18.5" font-family="Helvetica,sans-Serif" font-size="10.00"># initialize()</text>
<text text-anchor="start" x="26.5" y="-7.5" font-family="Helvetica,sans-Serif" font-size="10.00"># advance()</text>
</a>
</g>
</g>
<!-- Node2 -->
<g id="node2" class="node">
<title>Node2</title>
<g id="a_node2"><a xlink:href="group__spatialpartitioning.html#classPonca_1_1KdTreeQuery" target="_top" xlink:title=" ">
<polygon fill="none" stroke="#bfbfbf" points="35.5,-150.5 35.5,-240.5 149.5,-240.5 149.5,-150.5 35.5,-150.5"/>
<text text-anchor="start" x="43.5" y="-228.5" font-family="Helvetica,sans-Serif" font-size="10.00">Ponca::KdTreeQuery</text>
<text text-anchor="middle" x="92.5" y="-217.5" font-family="Helvetica,sans-Serif" font-size="10.00">&lt; DataPoint &gt;</text>
<polyline fill="none" stroke="#bfbfbf" points="35.5,-210.5 149.5,-210.5 "/>
<text text-anchor="start" x="43.5" y="-198.5" font-family="Helvetica,sans-Serif" font-size="10.00"># m_kdtree</text>
<text text-anchor="start" x="43.5" y="-187.5" font-family="Helvetica,sans-Serif" font-size="10.00"># m_stack</text>
<polyline fill="none" stroke="#bfbfbf" points="35.5,-180.5 149.5,-180.5 "/>
<text text-anchor="start" x="43.5" y="-168.5" font-family="Helvetica,sans-Serif" font-size="10.00">+ KdTreeQuery()</text>
<text text-anchor="start" x="43.5" y="-157.5" font-family="Helvetica,sans-Serif" font-size="10.00"># reset()</text>
</a>
</g>
</g>
<!-- Node2&#45;&gt;Node1 -->
<g id="edge1" class="edge">
<title>Node2&#45;&gt;Node1</title>
<path fill="none" stroke="midnightblue" d="M97.25,-140.29C98.05,-131.18 98.88,-121.71 99.68,-112.57"/>
<polygon fill="none" stroke="midnightblue" points="93.75,-140.13 96.36,-150.4 100.72,-140.74 93.75,-140.13"/>
</g>
<!-- Node3 -->
<g id="node3" class="node">
<title>Node3</title>
<g id="a_node3"><a xlink:href="group__spatialpartitioning.html" target="_top" xlink:title=" ">
<polygon fill="none" stroke="black" points="168,-161.5 168,-229.5 307,-229.5 307,-161.5 168,-161.5"/>
<text text-anchor="start" x="176" y="-217.5" font-family="Helvetica,sans-Serif" font-size="10.00">Ponca::RangeIndexQuery</text>
<text text-anchor="middle" x="237.5" y="-206.5" font-family="Helvetica,sans-Serif" font-size="10.00">&lt; DataPoint::Scalar &gt;</text>
<polyline fill="none" stroke="black" points="168,-199.5 307,-199.5 "/>
<text text-anchor="middle" x="237.5" y="-187.5" font-family="Helvetica,sans-Serif" font-size="10.00"> </text>
<polyline fill="none" stroke="black" points="168,-180.5 307,-180.5 "/>
<text text-anchor="middle" x="237.5" y="-168.5" font-family="Helvetica,sans-Serif" font-size="10.00"> </text>
</a>
</g>
</g>
<!-- Node3&#45;&gt;Node1 -->
<g id="edge2" class="edge">
<title>Node3&#45;&gt;Node1</title>
<path fill="none" stroke="midnightblue" d="M198.09,-153.9C185.5,-140.93 171.34,-126.35 157.93,-112.54"/>
<polygon fill="none" stroke="midnightblue" points="195.83,-156.6 205.3,-161.34 200.85,-151.72 195.83,-156.6"/>
</g>
<!-- Node4 -->
<g id="node4" class="node">
<title>Node4</title>
<g id="a_node4"><a xlink:href="group__spatialpartitioning.html" target="_top" xlink:title=" ">
<polygon fill="none" stroke="#bfbfbf" points="87,-394.5 87,-484.5 246,-484.5 246,-394.5 87,-394.5"/>
<text text-anchor="start" x="95" y="-472.5" font-family="Helvetica,sans-Serif" font-size="10.00">Ponca::Query&lt; QueryInput</text>
<text text-anchor="start" x="95" y="-461.5" font-family="Helvetica,sans-Serif" font-size="10.00">IsIndex, QueryOutputIsRange</text>
<text text-anchor="middle" x="166.5" y="-450.5" font-family="Helvetica,sans-Serif" font-size="10.00">&lt; DataPoint::Scalar &gt; &gt;</text>
<polyline fill="none" stroke="#bfbfbf" points="87,-443.5 246,-443.5 "/>
<text text-anchor="middle" x="166.5" y="-431.5" font-family="Helvetica,sans-Serif" font-size="10.00"> </text>
<polyline fill="none" stroke="#bfbfbf" points="87,-424.5 246,-424.5 "/>
<text text-anchor="start" x="95" y="-412.5" font-family="Helvetica,sans-Serif" font-size="10.00">+ Query()</text>
<text text-anchor="start" x="95" y="-401.5" font-family="Helvetica,sans-Serif" font-size="10.00">+ Query()</text>
</a>
</g>
</g>
<!-- Node4&#45;&gt;Node3 -->
<g id="edge3" class="edge">
<title>Node4&#45;&gt;Node3</title>
<path fill="none" stroke="midnightblue" d="M182.31,-384.6C196.22,-337.21 216.01,-269.74 227.73,-229.8"/>
<polygon fill="none" stroke="midnightblue" points="178.9,-383.81 179.44,-394.39 185.61,-385.78 178.9,-383.81"/>
</g>
<!-- Node5 -->
<g id="node5" class="node">
<title>Node5</title>
<g id="a_node5"><a xlink:href="group__spatialpartitioning.html#structPonca_1_1QueryInputIsIndex" target="_top" xlink:title="Base class for queries storing points.">
<polygon fill="none" stroke="black" points="306,-587.5 306,-644.5 447,-644.5 447,-587.5 306,-587.5"/>
<text text-anchor="middle" x="376.5" y="-632.5" font-family="Helvetica,sans-Serif" font-size="10.00">Ponca::QueryInputIsIndex</text>
<polyline fill="none" stroke="black" points="306,-625.5 447,-625.5 "/>
<text text-anchor="middle" x="376.5" y="-613.5" font-family="Helvetica,sans-Serif" font-size="10.00"> </text>
<polyline fill="none" stroke="black" points="306,-606.5 447,-606.5 "/>
<text text-anchor="start" x="314" y="-594.5" font-family="Helvetica,sans-Serif" font-size="10.00">+ QueryInputIsIndex()</text>
</a>
</g>
</g>
<!-- Node5&#45;&gt;Node4 -->
<g id="edge4" class="edge">
<title>Node5&#45;&gt;Node4</title>
<path fill="none" stroke="midnightblue" d="M381.16,-577.15C381.95,-553 378.56,-522.66 360.5,-503 336.43,-476.8 316.52,-495.4 282.5,-485 270.64,-481.38 258.25,-477.13 246.18,-472.74"/>
<polygon fill="none" stroke="midnightblue" points="377.65,-577.23 380.57,-587.41 384.64,-577.63 377.65,-577.23"/>
</g>
<!-- Node16 -->
<g id="node16" class="node">
<title>Node16</title>
<g id="a_node16"><a xlink:href="group__spatialpartitioning.html" target="_top" xlink:title=" ">
<polygon fill="none" stroke="#bfbfbf" points="292,-394.5 292,-484.5 451,-484.5 451,-394.5 292,-394.5"/>
<text text-anchor="start" x="300" y="-472.5" font-family="Helvetica,sans-Serif" font-size="10.00">Ponca::Query&lt; QueryInput</text>
<text text-anchor="start" x="300" y="-461.5" font-family="Helvetica,sans-Serif" font-size="10.00">IsIndex, QueryOutputIsRange</text>
<text text-anchor="middle" x="371.5" y="-450.5" font-family="Helvetica,sans-Serif" font-size="10.00">&lt; Scalar &gt; &gt;</text>
<polyline fill="none" stroke="#bfbfbf" points="292,-443.5 451,-443.5 "/>
<text text-anchor="middle" x="371.5" y="-431.5" font-family="Helvetica,sans-Serif" font-size="10.00"> </text>
<polyline fill="none" stroke="#bfbfbf" points="292,-424.5 451,-424.5 "/>
<text text-anchor="start" x="300" y="-412.5" font-family="Helvetica,sans-Serif" font-size="10.00">+ Query()</text>
<text text-anchor="start" x="300" y="-401.5" font-family="Helvetica,sans-Serif" font-size="10.00">+ Query()</text>
</a>
</g>
</g>
<!-- Node5&#45;&gt;Node16 -->
<g id="edge18" class="edge">
<title>Node5&#45;&gt;Node16</title>
<path fill="none" stroke="midnightblue" d="M383.12,-577.2C386.02,-555.46 388.23,-527.66 385.5,-503 384.84,-497.03 383.84,-490.8 382.66,-484.68"/>
<polygon fill="none" stroke="midnightblue" points="379.62,-576.94 381.65,-587.34 386.54,-577.94 379.62,-576.94"/>
</g>
<!-- Node6 -->
<g id="node6" class="node">
<title>Node6</title>
<g id="a_node6"><a xlink:href="group__spatialpartitioning.html" target="_top" xlink:title=" ">
<polygon fill="none" stroke="black" points="375.5,-855 375.5,-945 489.5,-945 489.5,-855 375.5,-855"/>
<text text-anchor="start" x="383.5" y="-933" font-family="Helvetica,sans-Serif" font-size="10.00">Ponca::QueryInput&lt;</text>
<text text-anchor="middle" x="432.5" y="-922" font-family="Helvetica,sans-Serif" font-size="10.00"> int &gt;</text>
<polyline fill="none" stroke="black" points="375.5,-915 489.5,-915 "/>
<text text-anchor="middle" x="432.5" y="-903" font-family="Helvetica,sans-Serif" font-size="10.00"> </text>
<polyline fill="none" stroke="black" points="375.5,-896 489.5,-896 "/>
<text text-anchor="start" x="383.5" y="-884" font-family="Helvetica,sans-Serif" font-size="10.00">+ QueryInput()</text>
<text text-anchor="start" x="383.5" y="-873" font-family="Helvetica,sans-Serif" font-size="10.00">+ input()</text>
<text text-anchor="start" x="383.5" y="-862" font-family="Helvetica,sans-Serif" font-size="10.00"># editInput()</text>
</a>
</g>
</g>
<!-- Node6&#45;&gt;Node5 -->
<g id="edge5" class="edge">
<title>Node6&#45;&gt;Node5</title>
<path fill="none" stroke="midnightblue" d="M401.94,-845.47C398.21,-837.15 394.88,-828.5 392.5,-820 375.4,-759.07 374.39,-684.1 375.33,-644.51"/>
<polygon fill="none" stroke="midnightblue" points="398.85,-847.14 406.28,-854.7 405.19,-844.16 398.85,-847.14"/>
</g>
<!-- Node7 -->
<g id="node7" class="node">
<title>Node7</title>
<g id="a_node7"><a xlink:href="group__spatialpartitioning.html#structPonca_1_1QueryInputBase" target="_top" xlink:title="Base class for queries input type.">
<polygon fill="none" stroke="black" points="356.5,-1137.5 356.5,-1194.5 486.5,-1194.5 486.5,-1137.5 356.5,-1137.5"/>
<text text-anchor="middle" x="421.5" y="-1182.5" font-family="Helvetica,sans-Serif" font-size="10.00">Ponca::QueryInputBase</text>
<polyline fill="none" stroke="black" points="356.5,-1175.5 486.5,-1175.5 "/>
<text text-anchor="middle" x="421.5" y="-1163.5" font-family="Helvetica,sans-Serif" font-size="10.00"> </text>
<polyline fill="none" stroke="black" points="356.5,-1156.5 486.5,-1156.5 "/>
<text text-anchor="middle" x="421.5" y="-1144.5" font-family="Helvetica,sans-Serif" font-size="10.00"> </text>
</a>
</g>
</g>
<!-- Node7&#45;&gt;Node6 -->
<g id="edge6" class="edge">
<title>Node7&#45;&gt;Node6</title>
<path fill="none" stroke="midnightblue" d="M423.08,-1126.96C425.09,-1078.9 428.53,-996.34 430.65,-945.43"/>
<polygon fill="none" stroke="midnightblue" points="419.58,-1127.11 422.66,-1137.25 426.57,-1127.4 419.58,-1127.11"/>
</g>
<!-- Node8 -->
<g id="node8" class="node">
<title>Node8</title>
<g id="a_node8"><a xlink:href="group__spatialpartitioning.html#structPonca_1_1QueryInput" target="_top" xlink:title="Base class for typed queries input type.">
<polygon fill="none" stroke="black" points="437.5,-1009.5 437.5,-1099.5 551.5,-1099.5 551.5,-1009.5 437.5,-1009.5"/>
<text text-anchor="start" x="445.5" y="-1087.5" font-family="Helvetica,sans-Serif" font-size="10.00">Ponca::QueryInput&lt;</text>
<text text-anchor="middle" x="494.5" y="-1076.5" font-family="Helvetica,sans-Serif" font-size="10.00"> InputType_ &gt;</text>
<polyline fill="none" stroke="black" points="437.5,-1069.5 551.5,-1069.5 "/>
<text text-anchor="middle" x="494.5" y="-1057.5" font-family="Helvetica,sans-Serif" font-size="10.00"> </text>
<polyline fill="none" stroke="black" points="437.5,-1050.5 551.5,-1050.5 "/>
<text text-anchor="start" x="445.5" y="-1038.5" font-family="Helvetica,sans-Serif" font-size="10.00">+ QueryInput()</text>
<text text-anchor="start" x="445.5" y="-1027.5" font-family="Helvetica,sans-Serif" font-size="10.00">+ input()</text>
<text text-anchor="start" x="445.5" y="-1016.5" font-family="Helvetica,sans-Serif" font-size="10.00"># editInput()</text>
</a>
</g>
</g>
<!-- Node7&#45;&gt;Node8 -->
<g id="edge8" class="edge">
<title>Node7&#45;&gt;Node8</title>
<path fill="none" stroke="midnightblue" d="M445.47,-1129.04C451.72,-1119.68 458.51,-1109.48 465.01,-1099.74"/>
<polygon fill="none" stroke="midnightblue" points="442.56,-1127.11 439.92,-1137.37 448.38,-1130.99 442.56,-1127.11"/>
</g>
<!-- Node8&#45;&gt;Node6 -->
<g id="edge7" class="edge">
<title>Node8&#45;&gt;Node6</title>
<path fill="none" stroke="orange" d="M472.61,-999.66C465.34,-981.77 457.33,-962.07 450.39,-945.01"/>
<polygon fill="orange" stroke="orange" points="469.56,-1001.45 476.57,-1009.39 476.04,-998.81 469.56,-1001.45"/>
<text text-anchor="middle" x="488" y="-983" font-family="Helvetica,sans-Serif" font-size="10.00"> &lt; int &gt;</text>
</g>
<!-- Node9 -->
<g id="node9" class="node">
<title>Node9</title>
<g id="a_node9"><a xlink:href="group__spatialpartitioning.html" target="_top" xlink:title=" ">
<polygon fill="none" stroke="black" points="0,-554.5 0,-677.5 153,-677.5 153,-554.5 0,-554.5"/>
<text text-anchor="start" x="8" y="-665.5" font-family="Helvetica,sans-Serif" font-size="10.00">Ponca::QueryOutputIsRange</text>
<text text-anchor="middle" x="76.5" y="-654.5" font-family="Helvetica,sans-Serif" font-size="10.00">&lt; DataPoint::Scalar &gt;</text>
<polyline fill="none" stroke="black" points="0,-647.5 153,-647.5 "/>
<text text-anchor="start" x="8" y="-635.5" font-family="Helvetica,sans-Serif" font-size="10.00"># m_squared_radius</text>
<polyline fill="none" stroke="black" points="0,-628.5 153,-628.5 "/>
<text text-anchor="start" x="8" y="-616.5" font-family="Helvetica,sans-Serif" font-size="10.00">+ QueryOutputIsRange()</text>
<text text-anchor="start" x="8" y="-605.5" font-family="Helvetica,sans-Serif" font-size="10.00">+ radius()</text>
<text text-anchor="start" x="8" y="-594.5" font-family="Helvetica,sans-Serif" font-size="10.00">+ squared_radius()</text>
<text text-anchor="start" x="8" y="-583.5" font-family="Helvetica,sans-Serif" font-size="10.00">+ set_radius()</text>
<text text-anchor="start" x="8" y="-572.5" font-family="Helvetica,sans-Serif" font-size="10.00">+ set_squared_radius()</text>
<text text-anchor="start" x="8" y="-561.5" font-family="Helvetica,sans-Serif" font-size="10.00"># reset()</text>
</a>
</g>
</g>
<!-- Node9&#45;&gt;Node4 -->
<g id="edge9" class="edge">
<title>Node9&#45;&gt;Node4</title>
<path fill="none" stroke="midnightblue" d="M87.23,-544.46C91.1,-530.18 96.36,-515.67 103.5,-503 107.05,-496.69 111.43,-490.59 116.2,-484.84"/>
<polygon fill="none" stroke="midnightblue" points="83.8,-543.74 84.76,-554.29 90.59,-545.44 83.8,-543.74"/>
</g>
<!-- Node10 -->
<g id="node10" class="node">
<title>Node10</title>
<g id="a_node10"><a xlink:href="group__spatialpartitioning.html#structPonca_1_1QueryOutputBase" target="_top" xlink:title="Base class for queries output type.">
<polygon fill="none" stroke="black" points="35.5,-1026 35.5,-1083 173.5,-1083 173.5,-1026 35.5,-1026"/>
<text text-anchor="middle" x="104.5" y="-1071" font-family="Helvetica,sans-Serif" font-size="10.00">Ponca::QueryOutputBase</text>
<polyline fill="none" stroke="black" points="35.5,-1064 173.5,-1064 "/>
<text text-anchor="middle" x="104.5" y="-1052" font-family="Helvetica,sans-Serif" font-size="10.00"> </text>
<polyline fill="none" stroke="black" points="35.5,-1045 173.5,-1045 "/>
<text text-anchor="middle" x="104.5" y="-1033" font-family="Helvetica,sans-Serif" font-size="10.00"> </text>
</a>
</g>
</g>
<!-- Node10&#45;&gt;Node9 -->
<g id="edge10" class="edge">
<title>Node10&#45;&gt;Node9</title>
<path fill="none" stroke="midnightblue" d="M59.99,-1018.86C43.69,-1003.42 27.13,-983.79 18.5,-962 -19.08,-867.14 17.64,-748.2 47.33,-677.64"/>
<polygon fill="none" stroke="midnightblue" points="57.68,-1021.5 67.43,-1025.65 62.4,-1016.33 57.68,-1021.5"/>
</g>
<!-- Node11 -->
<g id="node11" class="node">
<title>Node11</title>
<g id="a_node11"><a xlink:href="group__spatialpartitioning.html#structPonca_1_1QueryOutputIsRange" target="_top" xlink:title="Base class for range queries.">
<polygon fill="none" stroke="black" points="28,-838.5 28,-961.5 181,-961.5 181,-838.5 28,-838.5"/>
<text text-anchor="start" x="36" y="-949.5" font-family="Helvetica,sans-Serif" font-size="10.00">Ponca::QueryOutputIsRange</text>
<text text-anchor="middle" x="104.5" y="-938.5" font-family="Helvetica,sans-Serif" font-size="10.00">&lt; Scalar &gt;</text>
<polyline fill="none" stroke="black" points="28,-931.5 181,-931.5 "/>
<text text-anchor="start" x="36" y="-919.5" font-family="Helvetica,sans-Serif" font-size="10.00"># m_squared_radius</text>
<polyline fill="none" stroke="black" points="28,-912.5 181,-912.5 "/>
<text text-anchor="start" x="36" y="-900.5" font-family="Helvetica,sans-Serif" font-size="10.00">+ QueryOutputIsRange()</text>
<text text-anchor="start" x="36" y="-889.5" font-family="Helvetica,sans-Serif" font-size="10.00">+ radius()</text>
<text text-anchor="start" x="36" y="-878.5" font-family="Helvetica,sans-Serif" font-size="10.00">+ squared_radius()</text>
<text text-anchor="start" x="36" y="-867.5" font-family="Helvetica,sans-Serif" font-size="10.00">+ set_radius()</text>
<text text-anchor="start" x="36" y="-856.5" font-family="Helvetica,sans-Serif" font-size="10.00">+ set_squared_radius()</text>
<text text-anchor="start" x="36" y="-845.5" font-family="Helvetica,sans-Serif" font-size="10.00"># reset()</text>
</a>
</g>
</g>
<!-- Node10&#45;&gt;Node11 -->
<g id="edge12" class="edge">
<title>Node10&#45;&gt;Node11</title>
<path fill="none" stroke="midnightblue" d="M104.5,-1015.66C104.5,-999.34 104.5,-979.84 104.5,-961.6"/>
<polygon fill="none" stroke="midnightblue" points="101,-1015.88 104.5,-1025.88 108,-1015.88 101,-1015.88"/>
</g>
<!-- Node17 -->
<g id="node17" class="node">
<title>Node17</title>
<g id="a_node17"><a xlink:href="group__spatialpartitioning.html#structPonca_1_1QueryOutputIsRange" target="_top" xlink:title="Base class for range queries.">
<polygon fill="none" stroke="black" points="397,-696.5 397,-819.5 550,-819.5 550,-696.5 397,-696.5"/>
<text text-anchor="start" x="405" y="-807.5" font-family="Helvetica,sans-Serif" font-size="10.00">Ponca::QueryOutputIsRange</text>
<text text-anchor="middle" x="473.5" y="-796.5" font-family="Helvetica,sans-Serif" font-size="10.00">&lt; Scalar &gt;</text>
<polyline fill="none" stroke="black" points="397,-789.5 550,-789.5 "/>
<text text-anchor="start" x="405" y="-777.5" font-family="Helvetica,sans-Serif" font-size="10.00"># m_squared_radius</text>
<polyline fill="none" stroke="black" points="397,-770.5 550,-770.5 "/>
<text text-anchor="start" x="405" y="-758.5" font-family="Helvetica,sans-Serif" font-size="10.00">+ QueryOutputIsRange()</text>
<text text-anchor="start" x="405" y="-747.5" font-family="Helvetica,sans-Serif" font-size="10.00">+ radius()</text>
<text text-anchor="start" x="405" y="-736.5" font-family="Helvetica,sans-Serif" font-size="10.00">+ squared_radius()</text>
<text text-anchor="start" x="405" y="-725.5" font-family="Helvetica,sans-Serif" font-size="10.00">+ set_radius()</text>
<text text-anchor="start" x="405" y="-714.5" font-family="Helvetica,sans-Serif" font-size="10.00">+ set_squared_radius()</text>
<text text-anchor="start" x="405" y="-703.5" font-family="Helvetica,sans-Serif" font-size="10.00"># reset()</text>
</a>
</g>
</g>
<!-- Node10&#45;&gt;Node17 -->
<g id="edge20" class="edge">
<title>Node10&#45;&gt;Node17</title>
<path fill="none" stroke="midnightblue" d="M183.3,-1038.84C231.05,-1026.11 289.82,-1003.01 327.5,-962 366.59,-919.46 332.94,-885.03 366.5,-838 374.88,-826.25 385.55,-815.53 396.89,-806.04"/>
<polygon fill="none" stroke="midnightblue" points="182.42,-1035.45 173.6,-1041.32 184.16,-1042.23 182.42,-1035.45"/>
</g>
<!-- Node11&#45;&gt;Node9 -->
<g id="edge11" class="edge">
<title>Node11&#45;&gt;Node9</title>
<path fill="none" stroke="orange" d="M97.47,-828.19C92.87,-781.84 86.92,-721.91 82.53,-677.73"/>
<polygon fill="orange" stroke="orange" points="93.99,-828.55 98.46,-838.16 100.95,-827.86 93.99,-828.55"/>
<text text-anchor="middle" x="151.5" y="-755.5" font-family="Helvetica,sans-Serif" font-size="10.00"> &lt; DataPoint::Scalar &gt;</text>
</g>
<!-- Node12 -->
<g id="node12" class="node">
<title>Node12</title>
<g id="a_node12"><a xlink:href="group__spatialpartitioning.html#structPonca_1_1Query" target="_top" xlink:title=" ">
<polygon fill="none" stroke="#bfbfbf" points="171,-576.5 171,-655.5 288,-655.5 288,-576.5 171,-576.5"/>
<text text-anchor="start" x="179" y="-643.5" font-family="Helvetica,sans-Serif" font-size="10.00">Ponca::Query&lt; Input</text>
<text text-anchor="middle" x="229.5" y="-632.5" font-family="Helvetica,sans-Serif" font-size="10.00">_, Output_ &gt;</text>
<polyline fill="none" stroke="#bfbfbf" points="171,-625.5 288,-625.5 "/>
<text text-anchor="middle" x="229.5" y="-613.5" font-family="Helvetica,sans-Serif" font-size="10.00"> </text>
<polyline fill="none" stroke="#bfbfbf" points="171,-606.5 288,-606.5 "/>
<text text-anchor="start" x="179" y="-594.5" font-family="Helvetica,sans-Serif" font-size="10.00">+ Query()</text>
<text text-anchor="start" x="179" y="-583.5" font-family="Helvetica,sans-Serif" font-size="10.00">+ Query()</text>
</a>
</g>
</g>
<!-- Node12&#45;&gt;Node4 -->
<g id="edge13" class="edge">
<title>Node12&#45;&gt;Node4</title>
<path fill="none" stroke="orange" d="M183.52,-569.66C176.47,-563.94 169.02,-558.52 161.5,-554 141.62,-542.04 125.78,-555.02 112.5,-536 101.27,-519.91 107.82,-501.31 119.66,-484.82"/>
<polygon fill="orange" stroke="orange" points="181.7,-572.7 191.6,-576.47 186.21,-567.35 181.7,-572.7"/>
<text text-anchor="start" x="112.5" y="-528" font-family="Helvetica,sans-Serif" font-size="10.00"> &lt; QueryInputIsIndex,</text>
<text text-anchor="start" x="112.5" y="-517" font-family="Helvetica,sans-Serif" font-size="10.00"> QueryOutputIsRange</text>
<text text-anchor="middle" x="171.5" y="-506" font-family="Helvetica,sans-Serif" font-size="10.00">&lt; DataPoint::Scalar &gt; &gt;</text>
</g>
<!-- Node12&#45;&gt;Node16 -->
<g id="edge21" class="edge">
<title>Node12&#45;&gt;Node16</title>
<path fill="none" stroke="orange" d="M241.73,-566.58C248.79,-545.44 259.35,-521.34 274.5,-503 279.98,-496.36 286.36,-490.18 293.18,-484.51"/>
<polygon fill="orange" stroke="orange" points="238.31,-565.78 238.63,-576.37 244.98,-567.9 238.31,-565.78"/>
<text text-anchor="start" x="274.5" y="-528" font-family="Helvetica,sans-Serif" font-size="10.00"> &lt; QueryInputIsIndex,</text>
<text text-anchor="start" x="274.5" y="-517" font-family="Helvetica,sans-Serif" font-size="10.00"> QueryOutputIsRange</text>
<text text-anchor="middle" x="328" y="-506" font-family="Helvetica,sans-Serif" font-size="10.00">&lt; Scalar &gt; &gt;</text>
</g>
<!-- Node13 -->
<g id="node13" class="node">
<title>Node13</title>
<g id="a_node13"><a xlink:title=" ">
<polygon fill="none" stroke="#bfbfbf" points="199,-871.5 199,-928.5 246,-928.5 246,-871.5 199,-871.5"/>
<text text-anchor="middle" x="222.5" y="-916.5" font-family="Helvetica,sans-Serif" font-size="10.00">Input_</text>
<polyline fill="none" stroke="#bfbfbf" points="199,-909.5 246,-909.5 "/>
<text text-anchor="middle" x="222.5" y="-897.5" font-family="Helvetica,sans-Serif" font-size="10.00"> </text>
<polyline fill="none" stroke="#bfbfbf" points="199,-890.5 246,-890.5 "/>
<text text-anchor="middle" x="222.5" y="-878.5" font-family="Helvetica,sans-Serif" font-size="10.00"> </text>
</a>
</g>
</g>
<!-- Node13&#45;&gt;Node12 -->
<g id="edge14" class="edge">
<title>Node13&#45;&gt;Node12</title>
<path fill="none" stroke="midnightblue" d="M223.43,-861.35C224.76,-807.78 227.19,-710.06 228.54,-655.85"/>
<polygon fill="none" stroke="midnightblue" points="219.93,-861.36 223.18,-871.45 226.93,-861.54 219.93,-861.36"/>
</g>
<!-- Node14 -->
<g id="node14" class="node">
<title>Node14</title>
<g id="a_node14"><a xlink:title=" ">
<polygon fill="none" stroke="#bfbfbf" points="264,-871.5 264,-928.5 319,-928.5 319,-871.5 264,-871.5"/>
<text text-anchor="middle" x="291.5" y="-916.5" font-family="Helvetica,sans-Serif" font-size="10.00">Output_</text>
<polyline fill="none" stroke="#bfbfbf" points="264,-909.5 319,-909.5 "/>
<text text-anchor="middle" x="291.5" y="-897.5" font-family="Helvetica,sans-Serif" font-size="10.00"> </text>
<polyline fill="none" stroke="#bfbfbf" points="264,-890.5 319,-890.5 "/>
<text text-anchor="middle" x="291.5" y="-878.5" font-family="Helvetica,sans-Serif" font-size="10.00"> </text>
</a>
</g>
</g>
<!-- Node14&#45;&gt;Node12 -->
<g id="edge15" class="edge">
<title>Node14&#45;&gt;Node12</title>
<path fill="none" stroke="midnightblue" d="M283.22,-861.35C271.44,-807.78 249.96,-710.06 238.04,-655.85"/>
<polygon fill="none" stroke="midnightblue" points="279.88,-862.43 285.44,-871.45 286.71,-860.93 279.88,-862.43"/>
</g>
<!-- Node15 -->
<g id="node15" class="node">
<title>Node15</title>
<g id="a_node15"><a xlink:href="group__spatialpartitioning.html#structPonca_1_1RangeIndexQuery" target="_top" xlink:title="Base Query class combining QueryInputIsIndex and QueryOutputIsRange.">
<polygon fill="none" stroke="black" points="254,-288.5 254,-356.5 393,-356.5 393,-288.5 254,-288.5"/>
<text text-anchor="start" x="262" y="-344.5" font-family="Helvetica,sans-Serif" font-size="10.00">Ponca::RangeIndexQuery</text>
<text text-anchor="middle" x="323.5" y="-333.5" font-family="Helvetica,sans-Serif" font-size="10.00">&lt; Scalar &gt;</text>
<polyline fill="none" stroke="black" points="254,-326.5 393,-326.5 "/>
<text text-anchor="middle" x="323.5" y="-314.5" font-family="Helvetica,sans-Serif" font-size="10.00"> </text>
<polyline fill="none" stroke="black" points="254,-307.5 393,-307.5 "/>
<text text-anchor="middle" x="323.5" y="-295.5" font-family="Helvetica,sans-Serif" font-size="10.00"> </text>
</a>
</g>
</g>
<!-- Node15&#45;&gt;Node3 -->
<g id="edge16" class="edge">
<title>Node15&#45;&gt;Node3</title>
<path fill="none" stroke="orange" d="M294.97,-280.03C283.74,-263.72 271.04,-245.24 260.43,-229.82"/>
<polygon fill="orange" stroke="orange" points="292.13,-282.08 300.68,-288.33 297.89,-278.11 292.13,-282.08"/>
<text text-anchor="middle" x="341.5" y="-262" font-family="Helvetica,sans-Serif" font-size="10.00"> &lt; DataPoint::Scalar &gt;</text>
</g>
<!-- Node16&#45;&gt;Node15 -->
<g id="edge17" class="edge">
<title>Node16&#45;&gt;Node15</title>
<path fill="none" stroke="midnightblue" d="M349.23,-385.13C345.17,-375.41 341.05,-365.54 337.32,-356.62"/>
<polygon fill="none" stroke="midnightblue" points="346,-386.49 353.08,-394.37 352.46,-383.79 346,-386.49"/>
</g>
<!-- Node17&#45;&gt;Node16 -->
<g id="edge19" class="edge">
<title>Node17&#45;&gt;Node16</title>
<path fill="none" stroke="midnightblue" d="M477.05,-686.25C476.76,-646.23 472.45,-595.97 456.5,-554 446.92,-528.8 429.99,-504.39 413.74,-484.71"/>
<polygon fill="none" stroke="midnightblue" points="473.55,-686.45 477.05,-696.45 480.55,-686.45 473.55,-686.45"/>
</g>
</g>
</svg>
