<?xml version="1.0" encoding="UTF-8" standalone="no"?>
<!DOCTYPE svg PUBLIC "-//W3C//DTD SVG 1.1//EN"
 "http://www.w3.org/Graphics/SVG/1.1/DTD/svg11.dtd">
<!-- Generated by graphviz version 2.43.0 (0)
 -->
<!-- Title: Ponca::KnnGraphRangeQuery&lt; Traits, IndexSet &gt; Pages: 1 -->
<svg width="162pt" height="654pt"
 viewBox="0.00 0.00 162.00 654.00" xmlns="http://www.w3.org/2000/svg" xmlns:xlink="http://www.w3.org/1999/xlink">
<g id="graph0" class="graph" transform="scale(1 1) rotate(0) translate(4 650)">
<title>Ponca::KnnGraphRangeQuery&lt; Traits, IndexSet &gt;</title>
<!-- Node1 -->
<g id="Node000001" class="node">
<title>Node1</title>
<g id="a_Node000001"><a xlink:title="Extension of the Query class that allows to read the result of a range neighbor search on the KnnGrap...">
<polygon fill="#999999" stroke="transparent" points="154,-407 0,-407 0,-227 154,-227 154,-407"/>
<text text-anchor="start" x="5" y="-395" font-family="Helvetica,sans-Serif" font-size="10.00">Ponca::KnnGraphRangeQuery</text>
<text text-anchor="start" x="28" y="-384" font-family="Helvetica,sans-Serif" font-size="10.00">&lt; Traits, IndexSet &gt;</text>
<text text-anchor="start" x="8" y="-369" font-family="Helvetica,sans-Serif" font-size="10.00">#</text>
<text text-anchor="start" x="25" y="-369" font-family="Helvetica,sans-Serif" font-size="10.00">m_graph</text>
<text text-anchor="start" x="8" y="-354" font-family="Helvetica,sans-Serif" font-size="10.00">#</text>
<text text-anchor="start" x="25" y="-354" font-family="Helvetica,sans-Serif" font-size="10.00">m_flag</text>
<text text-anchor="start" x="8" y="-339" font-family="Helvetica,sans-Serif" font-size="10.00">#</text>
<text text-anchor="start" x="25" y="-339" font-family="Helvetica,sans-Serif" font-size="10.00">m_stack</text>
<text text-anchor="start" x="8" y="-324" font-family="Helvetica,sans-Serif" font-size="10.00">+</text>
<text text-anchor="start" x="25" y="-324" font-family="Helvetica,sans-Serif" font-size="10.00">KnnGraphRangeQuery()</text>
<text text-anchor="start" x="8" y="-309" font-family="Helvetica,sans-Serif" font-size="10.00">+</text>
<text text-anchor="start" x="25" y="-309" font-family="Helvetica,sans-Serif" font-size="10.00">operator()()</text>
<text text-anchor="start" x="8" y="-294" font-family="Helvetica,sans-Serif" font-size="10.00">+</text>
<text text-anchor="start" x="25" y="-294" font-family="Helvetica,sans-Serif" font-size="10.00">operator()()</text>
<text text-anchor="start" x="8" y="-279" font-family="Helvetica,sans-Serif" font-size="10.00">+</text>
<text text-anchor="start" x="25" y="-279" font-family="Helvetica,sans-Serif" font-size="10.00">begin()</text>
<text text-anchor="start" x="8" y="-264" font-family="Helvetica,sans-Serif" font-size="10.00">+</text>
<text text-anchor="start" x="25" y="-264" font-family="Helvetica,sans-Serif" font-size="10.00">end()</text>
<text text-anchor="start" x="8" y="-249" font-family="Helvetica,sans-Serif" font-size="10.00">#</text>
<text text-anchor="start" x="25" y="-249" font-family="Helvetica,sans-Serif" font-size="10.00">initialize()</text>
<text text-anchor="start" x="8" y="-234" font-family="Helvetica,sans-Serif" font-size="10.00">#</text>
<text text-anchor="start" x="25" y="-234" font-family="Helvetica,sans-Serif" font-size="10.00">advance()</text>
<polygon fill="#666666" stroke="#666666" points="0,-379 0,-379 154,-379 154,-379 0,-379"/>
<polygon fill="#666666" stroke="#666666" points="0,-334 0,-334 23,-334 23,-334 0,-334"/>
<polygon fill="#666666" stroke="#666666" points="23,-334 23,-334 154,-334 154,-334 23,-334"/>
<polygon fill="none" stroke="#666666" points="0,-227 0,-407 154,-407 154,-227 0,-227"/>
</a>
</g>
</g>
<!-- Node5 -->
<g id="Node000005" class="node">
<title>Node5</title>
<g id="a_Node000005"><a xlink:href="classPonca_1_1KnnGraphRangeQuery.html" target="_top" xlink:title=" ">
<polygon fill="white" stroke="transparent" points="154,-180 0,-180 0,0 154,0 154,-180"/>
<text text-anchor="start" x="5" y="-168" font-family="Helvetica,sans-Serif" font-size="10.00">Ponca::KnnGraphRangeQuery</text>
<text text-anchor="start" x="52.5" y="-157" font-family="Helvetica,sans-Serif" font-size="10.00">&lt; Traits &gt;</text>
<text text-anchor="start" x="8" y="-142" font-family="Helvetica,sans-Serif" font-size="10.00">#</text>
<text text-anchor="start" x="25" y="-142" font-family="Helvetica,sans-Serif" font-size="10.00">m_graph</text>
<text text-anchor="start" x="8" y="-127" font-family="Helvetica,sans-Serif" font-size="10.00">#</text>
<text text-anchor="start" x="25" y="-127" font-family="Helvetica,sans-Serif" font-size="10.00">m_flag</text>
<text text-anchor="start" x="8" y="-112" font-family="Helvetica,sans-Serif" font-size="10.00">#</text>
<text text-anchor="start" x="25" y="-112" font-family="Helvetica,sans-Serif" font-size="10.00">m_stack</text>
<text text-anchor="start" x="8" y="-97" font-family="Helvetica,sans-Serif" font-size="10.00">+</text>
<text text-anchor="start" x="25" y="-97" font-family="Helvetica,sans-Serif" font-size="10.00">KnnGraphRangeQuery()</text>
<text text-anchor="start" x="8" y="-82" font-family="Helvetica,sans-Serif" font-size="10.00">+</text>
<text text-anchor="start" x="25" y="-82" font-family="Helvetica,sans-Serif" font-size="10.00">operator()()</text>
<text text-anchor="start" x="8" y="-67" font-family="Helvetica,sans-Serif" font-size="10.00">+</text>
<text text-anchor="start" x="25" y="-67" font-family="Helvetica,sans-Serif" font-size="10.00">operator()()</text>
<text text-anchor="start" x="8" y="-52" font-family="Helvetica,sans-Serif" font-size="10.00">+</text>
<text text-anchor="start" x="25" y="-52" font-family="Helvetica,sans-Serif" font-size="10.00">begin()</text>
<text text-anchor="start" x="8" y="-37" font-family="Helvetica,sans-Serif" font-size="10.00">+</text>
<text text-anchor="start" x="25" y="-37" font-family="Helvetica,sans-Serif" font-size="10.00">end()</text>
<text text-anchor="start" x="8" y="-22" font-family="Helvetica,sans-Serif" font-size="10.00">#</text>
<text text-anchor="start" x="25" y="-22" font-family="Helvetica,sans-Serif" font-size="10.00">initialize()</text>
<text text-anchor="start" x="8" y="-7" font-family="Helvetica,sans-Serif" font-size="10.00">#</text>
<text text-anchor="start" x="25" y="-7" font-family="Helvetica,sans-Serif" font-size="10.00">advance()</text>
<polygon fill="#666666" stroke="#666666" points="0,-152 0,-152 154,-152 154,-152 0,-152"/>
<polygon fill="#666666" stroke="#666666" points="0,-107 0,-107 23,-107 23,-107 0,-107"/>
<polygon fill="#666666" stroke="#666666" points="23,-107 23,-107 154,-107 154,-107 23,-107"/>
<polygon fill="none" stroke="#666666" points="0,0 0,-180 154,-180 154,0 0,0"/>
</a>
</g>
</g>
<!-- Node1&#45;&gt;Node5 -->
<g id="edge4_Node000001_Node000005" class="edge">
<title>Node1&#45;&gt;Node5</title>
<g id="a_edge4_Node000001_Node000005"><a xlink:title=" ">
<path fill="none" stroke="orange" d="M77,-216.61C77,-204.47 77,-192.12 77,-180.14"/>
<polygon fill="orange" stroke="orange" points="73.5,-216.75 77,-226.75 80.5,-216.75 73.5,-216.75"/>
</a>
</g>
<text text-anchor="middle" x="103" y="-201" font-family="Helvetica,sans-Serif" font-size="10.00" fill="grey"> &lt; Traits &gt;</text>
</g>
<!-- Node2 -->
<g id="Node000002" class="node">
<title>Node2</title>
<g id="a_Node000002"><a xlink:href="group__spatialpartitioning.html#structPonca_1_1Query" target="_top" xlink:title="Composes the Query object depending on an input type and output type.">
<polygon fill="white" stroke="transparent" points="153,-560 1,-560 1,-444 153,-444 153,-560"/>
<text text-anchor="start" x="6" y="-548" font-family="Helvetica,sans-Serif" font-size="10.00">RangeIndexQuery&lt; Traits</text>
<text text-anchor="start" x="6" y="-537" font-family="Helvetica,sans-Serif" font-size="10.00">::IndexType, Traits::DataPoint</text>
<text text-anchor="start" x="53" y="-526" font-family="Helvetica,sans-Serif" font-size="10.00">::Scalar &gt;</text>
<text text-anchor="start" x="75" y="-511" font-family="Helvetica,sans-Serif" font-size="10.00"> </text>
<text text-anchor="start" x="23.5" y="-496" font-family="Helvetica,sans-Serif" font-size="10.00">+</text>
<text text-anchor="start" x="55" y="-496" font-family="Helvetica,sans-Serif" font-size="10.00">Query()</text>
<text text-anchor="start" x="23.5" y="-481" font-family="Helvetica,sans-Serif" font-size="10.00">+</text>
<text text-anchor="start" x="55" y="-481" font-family="Helvetica,sans-Serif" font-size="10.00">Query()</text>
<text text-anchor="start" x="23.5" y="-466" font-family="Helvetica,sans-Serif" font-size="10.00">+</text>
<text text-anchor="start" x="55" y="-466" font-family="Helvetica,sans-Serif" font-size="10.00">operator()()</text>
<text text-anchor="start" x="23.5" y="-451" font-family="Helvetica,sans-Serif" font-size="10.00">+</text>
<text text-anchor="start" x="55" y="-451" font-family="Helvetica,sans-Serif" font-size="10.00">operator()()</text>
<polygon fill="#666666" stroke="#666666" points="1,-521 1,-521 153,-521 153,-521 1,-521"/>
<polygon fill="#666666" stroke="#666666" points="1,-506 1,-506 153,-506 153,-506 1,-506"/>
<polygon fill="none" stroke="#666666" points="1,-444 1,-560 153,-560 153,-444 1,-444"/>
</a>
</g>
</g>
<!-- Node2&#45;&gt;Node1 -->
<g id="edge1_Node000001_Node000002" class="edge">
<title>Node2&#45;&gt;Node1</title>
<g id="a_edge1_Node000001_Node000002"><a xlink:title=" ">
<path fill="none" stroke="#63b8ff" d="M77,-433.84C77,-425.18 77,-416.2 77,-407.25"/>
<polygon fill="none" stroke="#63b8ff" points="73.5,-433.85 77,-443.85 80.5,-433.85 73.5,-433.85"/>
</a>
</g>
</g>
<!-- Node3 -->
<g id="Node000003" class="node">
<title>Node3</title>
<g id="a_Node000003"><a xlink:title=" ">
<polygon fill="white" stroke="transparent" points="66.5,-646 25.5,-646 25.5,-597 66.5,-597 66.5,-646"/>
<text text-anchor="start" x="31" y="-633.5" font-family="Helvetica,sans-Serif" font-size="10.00">Input_</text>
<text text-anchor="start" x="44.5" y="-618.5" font-family="Helvetica,sans-Serif" font-size="10.00"> </text>
<text text-anchor="start" x="44.5" y="-603.5" font-family="Helvetica,sans-Serif" font-size="10.00"> </text>
<polygon fill="#bfbfbf" stroke="#bfbfbf" points="26,-628.5 26,-628.5 67,-628.5 67,-628.5 26,-628.5"/>
<polygon fill="#bfbfbf" stroke="#bfbfbf" points="26,-613.5 26,-613.5 67,-613.5 67,-613.5 26,-613.5"/>
<polygon fill="none" stroke="#bfbfbf" points="25.5,-597 25.5,-646 66.5,-646 66.5,-597 25.5,-597"/>
</a>
</g>
</g>
<!-- Node3&#45;&gt;Node2 -->
<g id="edge2_Node000002_Node000003" class="edge">
<title>Node3&#45;&gt;Node2</title>
<g id="a_edge2_Node000002_Node000003"><a xlink:title=" ">
<path fill="none" stroke="#63b8ff" d="M54.84,-587C57.05,-578.63 59.48,-569.42 61.89,-560.26"/>
<polygon fill="none" stroke="#63b8ff" points="51.44,-586.16 52.27,-596.72 58.21,-587.95 51.44,-586.16"/>
</a>
</g>
</g>
<!-- Node4 -->
<g id="Node000004" class="node">
<title>Node4</title>
<g id="a_Node000004"><a xlink:title=" ">
<polygon fill="white" stroke="transparent" points="133.5,-646 84.5,-646 84.5,-597 133.5,-597 133.5,-646"/>
<text text-anchor="start" x="90" y="-633.5" font-family="Helvetica,sans-Serif" font-size="10.00">Output_</text>
<text text-anchor="start" x="107.5" y="-618.5" font-family="Helvetica,sans-Serif" font-size="10.00"> </text>
<text text-anchor="start" x="107.5" y="-603.5" font-family="Helvetica,sans-Serif" font-size="10.00"> </text>
<polygon fill="#bfbfbf" stroke="#bfbfbf" points="85,-628.5 85,-628.5 134,-628.5 134,-628.5 85,-628.5"/>
<polygon fill="#bfbfbf" stroke="#bfbfbf" points="85,-613.5 85,-613.5 134,-613.5 134,-613.5 85,-613.5"/>
<polygon fill="none" stroke="#bfbfbf" points="84.5,-597 84.5,-646 133.5,-646 133.5,-597 84.5,-597"/>
</a>
</g>
</g>
<!-- Node4&#45;&gt;Node2 -->
<g id="edge3_Node000002_Node000004" class="edge">
<title>Node4&#45;&gt;Node2</title>
<g id="a_edge3_Node000002_Node000004"><a xlink:title=" ">
<path fill="none" stroke="#63b8ff" d="M99.88,-587C97.6,-578.63 95.09,-569.42 92.59,-560.26"/>
<polygon fill="none" stroke="#63b8ff" points="96.52,-587.99 102.52,-596.72 103.27,-586.15 96.52,-587.99"/>
</a>
</g>
</g>
</g>
</svg>
