<?xml version="1.0" encoding="UTF-8" standalone="no"?>
<!DOCTYPE svg PUBLIC "-//W3C//DTD SVG 1.1//EN"
 "http://www.w3.org/Graphics/SVG/1.1/DTD/svg11.dtd">
<!-- Generated by graphviz version 2.43.0 (0)
 -->
<!-- Title: Ponca::WendlandWeightKernel&lt; _Scalar &gt; Pages: 1 -->
<svg width="175pt" height="204pt"
 viewBox="0.00 0.00 175.00 204.00" xmlns="http://www.w3.org/2000/svg" xmlns:xlink="http://www.w3.org/1999/xlink">
<g id="graph0" class="graph" transform="scale(1 1) rotate(0) translate(4 200)">
<title>Ponca::WendlandWeightKernel&lt; _Scalar &gt;</title>
<!-- Node1 -->
<g id="node1" class="node">
<title>Node1</title>
<g id="a_node1"><a xlink:title="Wendland WeightKernel defined in .">
<polygon fill="#999999" stroke="#666666" points="1.5,-0.5 1.5,-101.5 165.5,-101.5 165.5,-0.5 1.5,-0.5"/>
<text text-anchor="start" x="9.5" y="-89.5" font-family="Helvetica,sans-Serif" font-size="10.00">Ponca::WendlandWeightKernel</text>
<text text-anchor="middle" x="83.5" y="-78.5" font-family="Helvetica,sans-Serif" font-size="10.00">&lt; _Scalar &gt;</text>
<polyline fill="none" stroke="#666666" points="1.5,-71.5 165.5,-71.5 "/>
<text text-anchor="start" x="9.5" y="-59.5" font-family="Helvetica,sans-Serif" font-size="10.00">+ isDValid</text>
<text text-anchor="start" x="9.5" y="-48.5" font-family="Helvetica,sans-Serif" font-size="10.00">+ isDDValid</text>
<polyline fill="none" stroke="#666666" points="1.5,-41.5 165.5,-41.5 "/>
<text text-anchor="start" x="9.5" y="-29.5" font-family="Helvetica,sans-Serif" font-size="10.00">+ f()</text>
<text text-anchor="start" x="9.5" y="-18.5" font-family="Helvetica,sans-Serif" font-size="10.00">+ df()</text>
<text text-anchor="start" x="9.5" y="-7.5" font-family="Helvetica,sans-Serif" font-size="10.00">+ ddf()</text>
</a>
</g>
</g>
<!-- Node2 -->
<g id="node2" class="node">
<title>Node2</title>
<g id="a_node2"><a xlink:title=" ">
<polygon fill="white" stroke="#bfbfbf" points="0,-138.5 0,-195.5 167,-195.5 167,-138.5 0,-138.5"/>
<text text-anchor="middle" x="83.5" y="-183.5" font-family="Helvetica,sans-Serif" font-size="10.00">Concept::WeightKernelConcept</text>
<polyline fill="none" stroke="#bfbfbf" points="0,-176.5 167,-176.5 "/>
<text text-anchor="middle" x="83.5" y="-164.5" font-family="Helvetica,sans-Serif" font-size="10.00"> </text>
<polyline fill="none" stroke="#bfbfbf" points="0,-157.5 167,-157.5 "/>
<text text-anchor="middle" x="83.5" y="-145.5" font-family="Helvetica,sans-Serif" font-size="10.00"> </text>
</a>
</g>
</g>
<!-- Node2&#45;&gt;Node1 -->
<g id="edge1" class="edge">
<title>Node2&#45;&gt;Node1</title>
<path fill="none" stroke="#63b8ff" d="M83.5,-128.35C83.5,-119.8 83.5,-110.58 83.5,-101.61"/>
<polygon fill="none" stroke="#63b8ff" points="80,-128.4 83.5,-138.4 87,-128.4 80,-128.4"/>
</g>
</g>
</svg>
