<?xml version="1.0" encoding="UTF-8" standalone="no"?>
<!DOCTYPE svg PUBLIC "-//W3C//DTD SVG 1.1//EN"
 "http://www.w3.org/Graphics/SVG/1.1/DTD/svg11.dtd">
<!-- Generated by graphviz version 2.43.0 (0)
 -->
<!-- Title: Ponca::Basket&lt; P, W, Ext0, Exts &gt; Pages: 1 -->
<svg width="294pt" height="414pt"
 viewBox="0.00 0.00 294.00 414.00" xmlns="http://www.w3.org/2000/svg" xmlns:xlink="http://www.w3.org/1999/xlink">

<svg id="main" version="1.1" xmlns="http://www.w3.org/2000/svg" xmlns:xlink="http://www.w3.org/1999/xlink" xml:space="preserve" onload="init(evt)">
<style type="text/css"><![CDATA[
.node, .edge {opacity: 0.7;}
.node.selected, .edge.selected {opacity: 1;}
.edge:hover path { stroke: red; }
.edge:hover polygon { stroke: red; fill: red; }
]]></style>
<script type="application/ecmascript" xlink:href="svg.min.js"/>
<svg id="graph" class="graph">
<g id="graph0" class="graph" transform="scale(1 1) rotate(0) translate(4 410)">
<title>Ponca::Basket&lt; P, W, Ext0, Exts &gt;</title>
<!-- Node1 -->
<g id="Node000001" class="node">
<title>Node1</title>
<g id="a_Node000001"><a xlink:title="Aggregator class used to declare specialized structures using CRTP.">
<polygon fill="#999999" stroke="transparent" points="232.5,-90 117.5,-90 117.5,0 232.5,0 232.5,-90"/>
<text text-anchor="start" x="123" y="-78" font-family="Helvetica,sans-Serif" font-size="10.00">Ponca::Basket&lt; P, W,</text>
<text text-anchor="start" x="143.5" y="-67" font-family="Helvetica,sans-Serif" font-size="10.00"> Ext0, Exts &gt;</text>
<text text-anchor="start" x="173.5" y="-52" font-family="Helvetica,sans-Serif" font-size="10.00"> </text>
<text text-anchor="start" x="123.5" y="-37" font-family="Helvetica,sans-Serif" font-size="10.00">+</text>
<text text-anchor="start" x="138" y="-37" font-family="Helvetica,sans-Serif" font-size="10.00">compute()</text>
<text text-anchor="start" x="123.5" y="-22" font-family="Helvetica,sans-Serif" font-size="10.00">+</text>
<text text-anchor="start" x="138" y="-22" font-family="Helvetica,sans-Serif" font-size="10.00">computeWithIds()</text>
<text text-anchor="start" x="123.5" y="-7" font-family="Helvetica,sans-Serif" font-size="10.00">+</text>
<text text-anchor="start" x="138" y="-7" font-family="Helvetica,sans-Serif" font-size="10.00">addNeighbor()</text>
<polygon fill="#666666" stroke="#666666" points="118,-62 118,-62 233,-62 233,-62 118,-62"/>
<polygon fill="#666666" stroke="#666666" points="118,-47 118,-47 233,-47 233,-47 118,-47"/>
<polygon fill="none" stroke="#666666" points="117.5,0 117.5,-90 232.5,-90 232.5,0 117.5,0"/>
</a>
</g>
</g>
<!-- Node2 -->
<g id="Node000002" class="node">
<title>Node2</title>
<g id="a_Node000002"><a xlink:href="structPonca_1_1ComputeObject.html" target="_top" xlink:title=" ">
<polygon fill="white" stroke="transparent" points="122,-243 0,-243 0,-127 122,-127 122,-243"/>
<text text-anchor="start" x="5" y="-231" font-family="Helvetica,sans-Serif" font-size="10.00">Ponca::ComputeObject</text>
<text text-anchor="start" x="5" y="-220" font-family="Helvetica,sans-Serif" font-size="10.00">&lt; Basket&lt; P, W, Ext0,</text>
<text text-anchor="start" x="33" y="-209" font-family="Helvetica,sans-Serif" font-size="10.00"> Exts... &gt; &gt;</text>
<text text-anchor="start" x="59" y="-194" font-family="Helvetica,sans-Serif" font-size="10.00"> </text>
<text text-anchor="start" x="7" y="-179" font-family="Helvetica,sans-Serif" font-size="10.00">+</text>
<text text-anchor="start" x="23" y="-179" font-family="Helvetica,sans-Serif" font-size="10.00">compute()</text>
<text text-anchor="start" x="7" y="-164" font-family="Helvetica,sans-Serif" font-size="10.00">+</text>
<text text-anchor="start" x="23" y="-164" font-family="Helvetica,sans-Serif" font-size="10.00">compute()</text>
<text text-anchor="start" x="7" y="-149" font-family="Helvetica,sans-Serif" font-size="10.00">+</text>
<text text-anchor="start" x="23" y="-149" font-family="Helvetica,sans-Serif" font-size="10.00">computeWithIds()</text>
<text text-anchor="start" x="7" y="-134" font-family="Helvetica,sans-Serif" font-size="10.00">#</text>
<text text-anchor="start" x="23" y="-134" font-family="Helvetica,sans-Serif" font-size="10.00">derived()</text>
<polygon fill="#666666" stroke="#666666" points="0,-204 0,-204 122,-204 122,-204 0,-204"/>
<polygon fill="#666666" stroke="#666666" points="0,-189 0,-189 122,-189 122,-189 0,-189"/>
<polygon fill="none" stroke="#666666" points="0,-127 0,-243 122,-243 122,-127 0,-127"/>
</a>
</g>
</g>
<!-- Node2&#45;&gt;Node1 -->
<g id="edge1_Node000001_Node000002" class="edge">
<title>Node2&#45;&gt;Node1</title>
<g id="a_edge1_Node000001_Node000002"><a xlink:title=" ">
<path fill="none" stroke="#63b8ff" d="M114.75,-118.94C122.75,-109.24 130.85,-99.45 138.39,-90.31"/>
<polygon fill="none" stroke="#63b8ff" points="112.03,-116.74 108.36,-126.67 117.42,-121.19 112.03,-116.74"/>
</a>
</g>
</g>
<!-- Node3 -->
<g id="Node000003" class="node">
<title>Node3</title>
<g id="a_Node000003"><a xlink:href="structPonca_1_1ComputeObject.html" target="_top" xlink:title="ComputeObject is a virtual object that represents an algorithm which can be used with the compute fun...">
<polygon fill="white" stroke="transparent" points="122,-406 0,-406 0,-301 122,-301 122,-406"/>
<text text-anchor="start" x="5" y="-393.5" font-family="Helvetica,sans-Serif" font-size="10.00">Ponca::ComputeObject</text>
<text text-anchor="start" x="30.5" y="-382.5" font-family="Helvetica,sans-Serif" font-size="10.00">&lt; Derived &gt;</text>
<text text-anchor="start" x="59" y="-367.5" font-family="Helvetica,sans-Serif" font-size="10.00"> </text>
<text text-anchor="start" x="7" y="-352.5" font-family="Helvetica,sans-Serif" font-size="10.00">+</text>
<text text-anchor="start" x="23" y="-352.5" font-family="Helvetica,sans-Serif" font-size="10.00">compute()</text>
<text text-anchor="start" x="7" y="-337.5" font-family="Helvetica,sans-Serif" font-size="10.00">+</text>
<text text-anchor="start" x="23" y="-337.5" font-family="Helvetica,sans-Serif" font-size="10.00">compute()</text>
<text text-anchor="start" x="7" y="-322.5" font-family="Helvetica,sans-Serif" font-size="10.00">+</text>
<text text-anchor="start" x="23" y="-322.5" font-family="Helvetica,sans-Serif" font-size="10.00">computeWithIds()</text>
<text text-anchor="start" x="7" y="-307.5" font-family="Helvetica,sans-Serif" font-size="10.00">#</text>
<text text-anchor="start" x="23" y="-307.5" font-family="Helvetica,sans-Serif" font-size="10.00">derived()</text>
<polygon fill="#666666" stroke="#666666" points="0,-377.5 0,-377.5 122,-377.5 122,-377.5 0,-377.5"/>
<polygon fill="#666666" stroke="#666666" points="0,-362.5 0,-362.5 122,-362.5 122,-362.5 0,-362.5"/>
<polygon fill="none" stroke="#666666" points="0,-301 0,-406 122,-406 122,-301 0,-301"/>
</a>
</g>
</g>
<!-- Node3&#45;&gt;Node2 -->
<g id="edge2_Node000002_Node000003" class="edge">
<title>Node3&#45;&gt;Node2</title>
<g id="a_edge2_Node000002_Node000003"><a xlink:title=" ">
<path fill="none" stroke="orange" d="M61,-290.7C61,-275.16 61,-258.55 61,-243.24"/>
<polygon fill="orange" stroke="orange" points="57.5,-290.73 61,-300.73 64.5,-290.73 57.5,-290.73"/>
</a>
</g>
<text text-anchor="start" x="61" y="-275" font-family="Helvetica,sans-Serif" font-size="10.00" fill="grey"> &lt; Basket&lt; P, W, Ext0,</text>
<text text-anchor="middle" x="117" y="-264" font-family="Helvetica,sans-Serif" font-size="10.00" fill="grey"> Exts... &gt; &gt;</text>
</g>
<!-- Node4 -->
<g id="Node000004" class="node">
<title>Node4</title>
<g id="a_Node000004"><a xlink:title=" ">
<polygon fill="white" stroke="transparent" points="286,-215 140,-215 140,-155 286,-155 286,-215"/>
<text text-anchor="start" x="145" y="-203" font-family="Helvetica,sans-Serif" font-size="10.00">internal::BasketAggregate</text>
<text text-anchor="start" x="145" y="-192" font-family="Helvetica,sans-Serif" font-size="10.00">&lt; P, W, Ext0, Exts... &gt;::type</text>
<text text-anchor="start" x="211" y="-177" font-family="Helvetica,sans-Serif" font-size="10.00"> </text>
<text text-anchor="start" x="211" y="-162" font-family="Helvetica,sans-Serif" font-size="10.00"> </text>
<polygon fill="#bfbfbf" stroke="#bfbfbf" points="140,-187 140,-187 286,-187 286,-187 140,-187"/>
<polygon fill="#bfbfbf" stroke="#bfbfbf" points="140,-172 140,-172 286,-172 286,-172 140,-172"/>
<polygon fill="none" stroke="#bfbfbf" points="140,-155 140,-215 286,-215 286,-155 140,-155"/>
</a>
</g>
</g>
<!-- Node4&#45;&gt;Node1 -->
<g id="edge3_Node000001_Node000004" class="edge">
<title>Node4&#45;&gt;Node1</title>
<g id="a_edge3_Node000001_Node000004"><a xlink:title=" ">
<path fill="none" stroke="#63b8ff" d="M202.28,-145.07C197.57,-127.98 192.03,-107.83 187.17,-90.18"/>
<polygon fill="none" stroke="#63b8ff" points="198.91,-146.02 204.94,-154.73 205.66,-144.16 198.91,-146.02"/>
</a>
</g>
</g>
</g>
</svg>
</svg>

<style type='text/css'>
<![CDATA[
[data-mouse-over-selected='false'] { opacity: 0.7; }
[data-mouse-over-selected='true']  { opacity: 1.0; }
]]>
</style>
<script type="application/ecmascript"><![CDATA[
document.addEventListener('DOMContentLoaded', (event) => {
  highlightEdges();
  highlightAdjacentNodes();
});
]]></script>
</svg>
