<?xml version="1.0" encoding="UTF-8" standalone="no"?>
<!DOCTYPE svg PUBLIC "-//W3C//DTD SVG 1.1//EN"
 "http://www.w3.org/Graphics/SVG/1.1/DTD/svg11.dtd">
<!-- Generated by graphviz version 2.43.0 (0)
 -->
<!-- Title: Ponca::GaussianWeightKernel&lt; _Scalar &gt; Pages: 1 -->
<svg width="169pt" height="213pt"
 viewBox="0.00 0.00 169.00 213.00" xmlns="http://www.w3.org/2000/svg" xmlns:xlink="http://www.w3.org/1999/xlink">

<svg id="main" version="1.1" xmlns="http://www.w3.org/2000/svg" xmlns:xlink="http://www.w3.org/1999/xlink" xml:space="preserve" onload="init(evt)">
<style type="text/css"><![CDATA[
.node, .edge {opacity: 0.7;}
.node.selected, .edge.selected {opacity: 1;}
.edge:hover path { stroke: red; }
.edge:hover polygon { stroke: red; fill: red; }
]]></style>
<script type="application/ecmascript" xlink:href="svg.min.js"/>
<svg id="graph" class="graph">
<g id="graph0" class="graph" transform="scale(1 1) rotate(0) translate(4 209)">
<title>Ponca::GaussianWeightKernel&lt; _Scalar &gt;</title>
<!-- Node1 -->
<g id="Node000001" class="node">
<title>Node1</title>
<g id="a_Node000001"><a xlink:title="Non&#45;compact Gaussian WeightKernel.">
<polygon fill="#999999" stroke="transparent" points="158,-120 3,-120 3,0 158,0 158,-120"/>
<text text-anchor="start" x="8.5" y="-108" font-family="Helvetica,sans-Serif" font-size="10.00">Ponca::GaussianWeightKernel</text>
<text text-anchor="start" x="52" y="-97" font-family="Helvetica,sans-Serif" font-size="10.00">&lt; _Scalar &gt;</text>
<text text-anchor="start" x="28" y="-82" font-family="Helvetica,sans-Serif" font-size="10.00">+</text>
<text text-anchor="start" x="61.5" y="-82" font-family="Helvetica,sans-Serif" font-size="10.00">isCompact</text>
<text text-anchor="start" x="28" y="-67" font-family="Helvetica,sans-Serif" font-size="10.00">+</text>
<text text-anchor="start" x="61.5" y="-67" font-family="Helvetica,sans-Serif" font-size="10.00">isDValid</text>
<text text-anchor="start" x="28" y="-52" font-family="Helvetica,sans-Serif" font-size="10.00">+</text>
<text text-anchor="start" x="61.5" y="-52" font-family="Helvetica,sans-Serif" font-size="10.00">isDDValid</text>
<text text-anchor="start" x="28" y="-37" font-family="Helvetica,sans-Serif" font-size="10.00">+</text>
<text text-anchor="start" x="61.5" y="-37" font-family="Helvetica,sans-Serif" font-size="10.00">f()</text>
<text text-anchor="start" x="28" y="-22" font-family="Helvetica,sans-Serif" font-size="10.00">+</text>
<text text-anchor="start" x="61.5" y="-22" font-family="Helvetica,sans-Serif" font-size="10.00">df()</text>
<text text-anchor="start" x="28" y="-7" font-family="Helvetica,sans-Serif" font-size="10.00">+</text>
<text text-anchor="start" x="61.5" y="-7" font-family="Helvetica,sans-Serif" font-size="10.00">ddf()</text>
<polygon fill="#666666" stroke="#666666" points="3.5,-92 3.5,-92 158.5,-92 158.5,-92 3.5,-92"/>
<polygon fill="#666666" stroke="#666666" points="3.5,-47 3.5,-47 59.5,-47 59.5,-47 3.5,-47"/>
<polygon fill="#666666" stroke="#666666" points="59.5,-47 59.5,-47 158.5,-47 158.5,-47 59.5,-47"/>
<polygon fill="none" stroke="#666666" points="3,0 3,-120 158,-120 158,0 3,0"/>
</a>
</g>
</g>
<!-- Node2 -->
<g id="Node000002" class="node">
<title>Node2</title>
<g id="a_Node000002"><a xlink:title=" ">
<polygon fill="white" stroke="transparent" points="161,-205 0,-205 0,-156 161,-156 161,-205"/>
<text text-anchor="start" x="5.5" y="-192.5" font-family="Helvetica,sans-Serif" font-size="10.00">Concept::WeightKernelConcept</text>
<text text-anchor="start" x="79" y="-177.5" font-family="Helvetica,sans-Serif" font-size="10.00"> </text>
<text text-anchor="start" x="79" y="-162.5" font-family="Helvetica,sans-Serif" font-size="10.00"> </text>
<polygon fill="#bfbfbf" stroke="#bfbfbf" points="0.5,-187.5 0.5,-187.5 161.5,-187.5 161.5,-187.5 0.5,-187.5"/>
<polygon fill="#bfbfbf" stroke="#bfbfbf" points="0.5,-172.5 0.5,-172.5 161.5,-172.5 161.5,-172.5 0.5,-172.5"/>
<polygon fill="none" stroke="#bfbfbf" points="0,-156 0,-205 161,-205 161,-156 0,-156"/>
</a>
</g>
</g>
<!-- Node2&#45;&gt;Node1 -->
<g id="edge1_Node000001_Node000002" class="edge">
<title>Node2&#45;&gt;Node1</title>
<g id="a_edge1_Node000001_Node000002"><a xlink:title=" ">
<path fill="none" stroke="#63b8ff" d="M80.5,-145.59C80.5,-137.71 80.5,-129.09 80.5,-120.47"/>
<polygon fill="none" stroke="#63b8ff" points="77,-145.8 80.5,-155.8 84,-145.8 77,-145.8"/>
</a>
</g>
</g>
</g>
</svg>
</svg>

<style type='text/css'>
<![CDATA[
[data-mouse-over-selected='false'] { opacity: 0.7; }
[data-mouse-over-selected='true']  { opacity: 1.0; }
]]>
</style>
<script type="application/ecmascript"><![CDATA[
document.addEventListener('DOMContentLoaded', (event) => {
  highlightEdges();
  highlightAdjacentNodes();
});
]]></script>
</svg>
