<?xml version="1.0" encoding="UTF-8" standalone="no"?>
<!DOCTYPE svg PUBLIC "-//W3C//DTD SVG 1.1//EN"
 "http://www.w3.org/Graphics/SVG/1.1/DTD/svg11.dtd">
<!-- Generated by graphviz version 2.43.0 (0)
 -->
<!-- Title: Ponca::NormalCovarianceCurvature&lt; DataPoint, _WFunctor, T &gt; Pages: 1 -->
<svg width="199pt" height="441pt"
 viewBox="0.00 0.00 199.00 441.00" xmlns="http://www.w3.org/2000/svg" xmlns:xlink="http://www.w3.org/1999/xlink">
<g id="graph0" class="graph" transform="scale(1 1) rotate(0) translate(4 437)">
<title>Ponca::NormalCovarianceCurvature&lt; DataPoint, _WFunctor, T &gt;</title>
<polygon fill="white" stroke="transparent" points="-4,4 -4,-437 195,-437 195,4 -4,4"/>
<!-- Node1 -->
<g id="node1" class="node">
<title>Node1</title>
<g id="a_node1"><a xlink:title="Extension to compute curvature values based on a covariance analysis of normal vectors of neighbors.">
<polygon fill="#bfbfbf" stroke="black" points="0,-0.5 0,-123.5 191,-123.5 191,-0.5 0,-0.5"/>
<text text-anchor="start" x="8" y="-111.5" font-family="Helvetica,sans-Serif" font-size="10.00">Ponca::NormalCovarianceCurvature</text>
<text text-anchor="middle" x="95.5" y="-100.5" font-family="Helvetica,sans-Serif" font-size="10.00">&lt; DataPoint, _WFunctor, T &gt;</text>
<polyline fill="none" stroke="black" points="0,-93.5 191,-93.5 "/>
<text text-anchor="start" x="8" y="-81.5" font-family="Helvetica,sans-Serif" font-size="10.00"># m_cov</text>
<text text-anchor="start" x="8" y="-70.5" font-family="Helvetica,sans-Serif" font-size="10.00"># m_cog</text>
<text text-anchor="start" x="8" y="-59.5" font-family="Helvetica,sans-Serif" font-size="10.00"># m_solver</text>
<polyline fill="none" stroke="black" points="0,-52.5 191,-52.5 "/>
<text text-anchor="start" x="8" y="-40.5" font-family="Helvetica,sans-Serif" font-size="10.00">+ NormalCovarianceCurvature()</text>
<text text-anchor="start" x="8" y="-29.5" font-family="Helvetica,sans-Serif" font-size="10.00">+ init()</text>
<text text-anchor="start" x="8" y="-18.5" font-family="Helvetica,sans-Serif" font-size="10.00">+ addNeighbor()</text>
<text text-anchor="start" x="8" y="-7.5" font-family="Helvetica,sans-Serif" font-size="10.00">+ finalize()</text>
</a>
</g>
</g>
<!-- Node2 -->
<g id="node2" class="node">
<title>Node2</title>
<g id="a_node2"><a xlink:href="classPonca_1_1BaseCurvatureEstimator.html" target="_top" xlink:title="Base class for any 3d curvature estimator: holds k1, k2 and associated vectors.">
<polygon fill="white" stroke="black" points="10,-160.5 10,-338.5 181,-338.5 181,-160.5 10,-160.5"/>
<text text-anchor="start" x="18" y="-326.5" font-family="Helvetica,sans-Serif" font-size="10.00">Ponca::BaseCurvatureEstimator</text>
<text text-anchor="middle" x="95.5" y="-315.5" font-family="Helvetica,sans-Serif" font-size="10.00">&lt; DataPoint, _WFunctor, T &gt;</text>
<polyline fill="none" stroke="black" points="10,-308.5 181,-308.5 "/>
<text text-anchor="start" x="18" y="-296.5" font-family="Helvetica,sans-Serif" font-size="10.00"># m_k1</text>
<text text-anchor="start" x="18" y="-285.5" font-family="Helvetica,sans-Serif" font-size="10.00"># m_k2</text>
<text text-anchor="start" x="18" y="-274.5" font-family="Helvetica,sans-Serif" font-size="10.00"># m_v1</text>
<text text-anchor="start" x="18" y="-263.5" font-family="Helvetica,sans-Serif" font-size="10.00"># m_v2</text>
<polyline fill="none" stroke="black" points="10,-256.5 181,-256.5 "/>
<text text-anchor="start" x="18" y="-244.5" font-family="Helvetica,sans-Serif" font-size="10.00">+ BaseCurvatureEstimator()</text>
<text text-anchor="start" x="18" y="-233.5" font-family="Helvetica,sans-Serif" font-size="10.00">+ init()</text>
<text text-anchor="start" x="18" y="-222.5" font-family="Helvetica,sans-Serif" font-size="10.00">+ k1()</text>
<text text-anchor="start" x="18" y="-211.5" font-family="Helvetica,sans-Serif" font-size="10.00">+ k2()</text>
<text text-anchor="start" x="18" y="-200.5" font-family="Helvetica,sans-Serif" font-size="10.00">+ k1Direction()</text>
<text text-anchor="start" x="18" y="-189.5" font-family="Helvetica,sans-Serif" font-size="10.00">+ k2Direction()</text>
<text text-anchor="start" x="18" y="-178.5" font-family="Helvetica,sans-Serif" font-size="10.00">+ kMean()</text>
<text text-anchor="start" x="18" y="-167.5" font-family="Helvetica,sans-Serif" font-size="10.00">+ GaussianCurvature()</text>
</a>
</g>
</g>
<!-- Node2&#45;&gt;Node1 -->
<g id="edge1" class="edge">
<title>Node2&#45;&gt;Node1</title>
<path fill="none" stroke="midnightblue" d="M95.5,-150.16C95.5,-141.13 95.5,-132.18 95.5,-123.63"/>
<polygon fill="none" stroke="midnightblue" points="92,-150.37 95.5,-160.37 99,-150.37 92,-150.37"/>
</g>
<!-- Node3 -->
<g id="node3" class="node">
<title>Node3</title>
<g id="a_node3"><a xlink:title=" ">
<polygon fill="white" stroke="#bfbfbf" points="81,-375.5 81,-432.5 110,-432.5 110,-375.5 81,-375.5"/>
<text text-anchor="middle" x="95.5" y="-420.5" font-family="Helvetica,sans-Serif" font-size="10.00">T</text>
<polyline fill="none" stroke="#bfbfbf" points="81,-413.5 110,-413.5 "/>
<text text-anchor="middle" x="95.5" y="-401.5" font-family="Helvetica,sans-Serif" font-size="10.00"> </text>
<polyline fill="none" stroke="#bfbfbf" points="81,-394.5 110,-394.5 "/>
<text text-anchor="middle" x="95.5" y="-382.5" font-family="Helvetica,sans-Serif" font-size="10.00"> </text>
</a>
</g>
</g>
<!-- Node3&#45;&gt;Node2 -->
<g id="edge2" class="edge">
<title>Node3&#45;&gt;Node2</title>
<path fill="none" stroke="midnightblue" d="M95.5,-365.37C95.5,-357.09 95.5,-347.98 95.5,-338.62"/>
<polygon fill="none" stroke="midnightblue" points="92,-365.38 95.5,-375.38 99,-365.38 92,-365.38"/>
</g>
</g>
</svg>
