<?xml version="1.0" encoding="UTF-8" standalone="no"?>
<!DOCTYPE svg PUBLIC "-//W3C//DTD SVG 1.1//EN"
 "http://www.w3.org/Graphics/SVG/1.1/DTD/svg11.dtd">
<!-- Generated by graphviz version 2.43.0 (0)
 -->
<!-- Title: Ponca::MlsSphereFitDer&lt; DataPoint, _WFunctor, DiffType, T &gt; Pages: 1 -->
<svg width="198pt" height="347pt"
 viewBox="0.00 0.00 197.50 347.00" xmlns="http://www.w3.org/2000/svg" xmlns:xlink="http://www.w3.org/1999/xlink">
<g id="graph0" class="graph" transform="scale(1 1) rotate(0) translate(4 343)">
<title>Ponca::MlsSphereFitDer&lt; DataPoint, _WFunctor, DiffType, T &gt;</title>
<!-- Node1 -->
<g id="node1" class="node">
<title>Node1</title>
<g id="a_node1"><a xlink:title="Extension performing derivation of the mls surface.">
<polygon fill="#999999" stroke="#666666" points="53.5,-0.5 53.5,-233.5 189.5,-233.5 189.5,-0.5 53.5,-0.5"/>
<text text-anchor="start" x="61.5" y="-221.5" font-family="Helvetica,sans-Serif" font-size="10.00">Ponca::MlsSphereFitDer</text>
<text text-anchor="start" x="61.5" y="-210.5" font-family="Helvetica,sans-Serif" font-size="10.00">&lt; DataPoint, _WFunctor,</text>
<text text-anchor="middle" x="121.5" y="-199.5" font-family="Helvetica,sans-Serif" font-size="10.00"> DiffType, T &gt;</text>
<polyline fill="none" stroke="#666666" points="53.5,-192.5 189.5,-192.5 "/>
<text text-anchor="start" x="61.5" y="-180.5" font-family="Helvetica,sans-Serif" font-size="10.00">+ m_d2Uc</text>
<text text-anchor="start" x="61.5" y="-169.5" font-family="Helvetica,sans-Serif" font-size="10.00">+ m_d2Uq</text>
<text text-anchor="start" x="61.5" y="-158.5" font-family="Helvetica,sans-Serif" font-size="10.00">+ m_d2Ul</text>
<text text-anchor="start" x="61.5" y="-147.5" font-family="Helvetica,sans-Serif" font-size="10.00"># m_d2SumDotPN</text>
<text text-anchor="start" x="61.5" y="-136.5" font-family="Helvetica,sans-Serif" font-size="10.00"># m_d2SumDotPP</text>
<text text-anchor="start" x="61.5" y="-125.5" font-family="Helvetica,sans-Serif" font-size="10.00"># m_d2SumW</text>
<text text-anchor="start" x="61.5" y="-114.5" font-family="Helvetica,sans-Serif" font-size="10.00"># m_d2SumP</text>
<text text-anchor="start" x="61.5" y="-103.5" font-family="Helvetica,sans-Serif" font-size="10.00"># m_d2SumN</text>
<polyline fill="none" stroke="#666666" points="53.5,-96.5 189.5,-96.5 "/>
<text text-anchor="start" x="61.5" y="-84.5" font-family="Helvetica,sans-Serif" font-size="10.00">+ mlsSphereFitDer()</text>
<text text-anchor="start" x="61.5" y="-73.5" font-family="Helvetica,sans-Serif" font-size="10.00">+ mlsSphereFitDer()</text>
<text text-anchor="start" x="61.5" y="-62.5" font-family="Helvetica,sans-Serif" font-size="10.00">+ init()</text>
<text text-anchor="start" x="61.5" y="-51.5" font-family="Helvetica,sans-Serif" font-size="10.00">+ addLocalNeighbor()</text>
<text text-anchor="start" x="61.5" y="-40.5" font-family="Helvetica,sans-Serif" font-size="10.00">+ finalize()</text>
<text text-anchor="start" x="61.5" y="-29.5" font-family="Helvetica,sans-Serif" font-size="10.00">+ dPotential()</text>
<text text-anchor="start" x="61.5" y="-18.5" font-family="Helvetica,sans-Serif" font-size="10.00">+ primitiveGradient()</text>
<text text-anchor="start" x="61.5" y="-7.5" font-family="Helvetica,sans-Serif" font-size="10.00">+ dNormal()</text>
</a>
</g>
</g>
<!-- Node2 -->
<g id="node2" class="node">
<title>Node2</title>
<g id="a_node2"><a xlink:title=" ">
<polygon fill="white" stroke="#bfbfbf" points="0,-270.5 0,-338.5 141,-338.5 141,-270.5 0,-270.5"/>
<text text-anchor="start" x="8" y="-326.5" font-family="Helvetica,sans-Serif" font-size="10.00">Concept::FittingExtension</text>
<text text-anchor="middle" x="70.5" y="-315.5" font-family="Helvetica,sans-Serif" font-size="10.00">Concept</text>
<polyline fill="none" stroke="#bfbfbf" points="0,-308.5 141,-308.5 "/>
<text text-anchor="middle" x="70.5" y="-296.5" font-family="Helvetica,sans-Serif" font-size="10.00"> </text>
<polyline fill="none" stroke="#bfbfbf" points="0,-289.5 141,-289.5 "/>
<text text-anchor="middle" x="70.5" y="-277.5" font-family="Helvetica,sans-Serif" font-size="10.00"> </text>
</a>
</g>
</g>
<!-- Node2&#45;&gt;Node1 -->
<g id="edge1" class="edge">
<title>Node2&#45;&gt;Node1</title>
<path fill="none" stroke="#63b8ff" d="M82.3,-260.59C84.58,-252.27 87.08,-243.19 89.67,-233.77"/>
<polygon fill="none" stroke="#63b8ff" points="78.89,-259.77 79.62,-270.34 85.64,-261.62 78.89,-259.77"/>
</g>
<!-- Node3 -->
<g id="node3" class="node">
<title>Node3</title>
<g id="a_node3"><a xlink:title=" ">
<polygon fill="white" stroke="#bfbfbf" points="159,-276 159,-333 188,-333 188,-276 159,-276"/>
<text text-anchor="middle" x="173.5" y="-321" font-family="Helvetica,sans-Serif" font-size="10.00">T</text>
<polyline fill="none" stroke="#bfbfbf" points="159,-314 188,-314 "/>
<text text-anchor="middle" x="173.5" y="-302" font-family="Helvetica,sans-Serif" font-size="10.00"> </text>
<polyline fill="none" stroke="#bfbfbf" points="159,-295 188,-295 "/>
<text text-anchor="middle" x="173.5" y="-283" font-family="Helvetica,sans-Serif" font-size="10.00"> </text>
</a>
</g>
</g>
<!-- Node3&#45;&gt;Node1 -->
<g id="edge2" class="edge">
<title>Node3&#45;&gt;Node1</title>
<path fill="none" stroke="#63b8ff" d="M163,-266.05C160.26,-256.28 157.17,-245.23 153.92,-233.67"/>
<polygon fill="none" stroke="#63b8ff" points="159.65,-267.04 165.72,-275.73 166.39,-265.16 159.65,-267.04"/>
</g>
</g>
</svg>
