<?xml version="1.0" encoding="UTF-8" standalone="no"?>
<!DOCTYPE svg PUBLIC "-//W3C//DTD SVG 1.1//EN"
 "http://www.w3.org/Graphics/SVG/1.1/DTD/svg11.dtd">
<!-- Generated by graphviz version 2.43.0 (0)
 -->
<!-- Title: Ponca::KdTreeKNearestIterator&lt; Index, DataPoint, MAX_KNN_SIZE &gt; Pages: 1 -->
<svg width="370pt" height="1184pt"
 viewBox="0.00 0.00 369.50 1184.00" xmlns="http://www.w3.org/2000/svg" xmlns:xlink="http://www.w3.org/1999/xlink">
<g id="graph0" class="graph" transform="scale(1 1) rotate(0) translate(4 1180)">
<title>Ponca::KdTreeKNearestIterator&lt; Index, DataPoint, MAX_KNN_SIZE &gt;</title>
<!-- Node1 -->
<g id="Node000001" class="node">
<title>Node1</title>
<g id="a_Node000001"><a xlink:title="Input iterator to read the KdTreeKNearestQueryBase object.">
<polygon fill="#999999" stroke="transparent" points="197,-180 0,-180 0,0 197,0 197,-180"/>
<text text-anchor="start" x="5.5" y="-168" font-family="Helvetica,sans-Serif" font-size="10.00">Ponca::KdTreeKNearestIterator</text>
<text text-anchor="start" x="5.5" y="-157" font-family="Helvetica,sans-Serif" font-size="10.00">&lt; Index, DataPoint, MAX_KNN_SIZE &gt;</text>
<text text-anchor="start" x="97" y="-142" font-family="Helvetica,sans-Serif" font-size="10.00"> </text>
<text text-anchor="start" x="16" y="-127" font-family="Helvetica,sans-Serif" font-size="10.00">+</text>
<text text-anchor="start" x="40.5" y="-127" font-family="Helvetica,sans-Serif" font-size="10.00">KdTreeKNearestIterator()</text>
<text text-anchor="start" x="16" y="-112" font-family="Helvetica,sans-Serif" font-size="10.00">+</text>
<text text-anchor="start" x="40.5" y="-112" font-family="Helvetica,sans-Serif" font-size="10.00">KdTreeKNearestIterator()</text>
<text text-anchor="start" x="16" y="-97" font-family="Helvetica,sans-Serif" font-size="10.00">+</text>
<text text-anchor="start" x="40.5" y="-97" font-family="Helvetica,sans-Serif" font-size="10.00">~KdTreeKNearestIterator()</text>
<text text-anchor="start" x="16" y="-82" font-family="Helvetica,sans-Serif" font-size="10.00">+</text>
<text text-anchor="start" x="40.5" y="-82" font-family="Helvetica,sans-Serif" font-size="10.00">operator!=()</text>
<text text-anchor="start" x="16" y="-67" font-family="Helvetica,sans-Serif" font-size="10.00">+</text>
<text text-anchor="start" x="40.5" y="-67" font-family="Helvetica,sans-Serif" font-size="10.00">operator==()</text>
<text text-anchor="start" x="16" y="-52" font-family="Helvetica,sans-Serif" font-size="10.00">+</text>
<text text-anchor="start" x="40.5" y="-52" font-family="Helvetica,sans-Serif" font-size="10.00">operator++()</text>
<text text-anchor="start" x="16" y="-37" font-family="Helvetica,sans-Serif" font-size="10.00">+</text>
<text text-anchor="start" x="40.5" y="-37" font-family="Helvetica,sans-Serif" font-size="10.00">operator++()</text>
<text text-anchor="start" x="16" y="-22" font-family="Helvetica,sans-Serif" font-size="10.00">+</text>
<text text-anchor="start" x="40.5" y="-22" font-family="Helvetica,sans-Serif" font-size="10.00">operator+=()</text>
<text text-anchor="start" x="16" y="-7" font-family="Helvetica,sans-Serif" font-size="10.00">+</text>
<text text-anchor="start" x="40.5" y="-7" font-family="Helvetica,sans-Serif" font-size="10.00">operator*()</text>
<polygon fill="#666666" stroke="#666666" points="0.5,-152 0.5,-152 197.5,-152 197.5,-152 0.5,-152"/>
<polygon fill="#666666" stroke="#666666" points="0.5,-137 0.5,-137 197.5,-137 197.5,-137 0.5,-137"/>
<polygon fill="none" stroke="#666666" points="0,0 0,-180 197,-180 197,0 0,0"/>
</a>
</g>
</g>
<!-- Node2 -->
<g id="Node000002" class="node">
<title>Node2</title>
<g id="a_Node000002"><a xlink:href="classPonca_1_1LimitedPriorityQueue.html" target="_top" xlink:title=" ">
<polygon fill="white" stroke="transparent" points="189.5,-493 7.5,-493 7.5,-227 189.5,-227 189.5,-493"/>
<text text-anchor="start" x="12.5" y="-481" font-family="Helvetica,sans-Serif" font-size="10.00">Ponca::LimitedPriorityQueue</text>
<text text-anchor="start" x="12.5" y="-470" font-family="Helvetica,sans-Serif" font-size="10.00">&lt; IndexSquaredDistance&lt;</text>
<text text-anchor="start" x="12.5" y="-459" font-family="Helvetica,sans-Serif" font-size="10.00"> Index, Scalar &gt;, MAX_KNN_SIZE &gt;</text>
<text text-anchor="start" x="21.5" y="-444" font-family="Helvetica,sans-Serif" font-size="10.00">#</text>
<text text-anchor="start" x="44.5" y="-444" font-family="Helvetica,sans-Serif" font-size="10.00">m_comp</text>
<text text-anchor="start" x="21.5" y="-429" font-family="Helvetica,sans-Serif" font-size="10.00">#</text>
<text text-anchor="start" x="44.5" y="-429" font-family="Helvetica,sans-Serif" font-size="10.00">m_size</text>
<text text-anchor="start" x="21.5" y="-414" font-family="Helvetica,sans-Serif" font-size="10.00">#</text>
<text text-anchor="start" x="44.5" y="-414" font-family="Helvetica,sans-Serif" font-size="10.00">m_capacity</text>
<text text-anchor="start" x="21.5" y="-399" font-family="Helvetica,sans-Serif" font-size="10.00">+</text>
<text text-anchor="start" x="44.5" y="-399" font-family="Helvetica,sans-Serif" font-size="10.00">LimitedPriorityQueue()</text>
<text text-anchor="start" x="21.5" y="-384" font-family="Helvetica,sans-Serif" font-size="10.00">+</text>
<text text-anchor="start" x="44.5" y="-384" font-family="Helvetica,sans-Serif" font-size="10.00">LimitedPriorityQueue()</text>
<text text-anchor="start" x="21.5" y="-369" font-family="Helvetica,sans-Serif" font-size="10.00">+</text>
<text text-anchor="start" x="44.5" y="-369" font-family="Helvetica,sans-Serif" font-size="10.00">LimitedPriorityQueue()</text>
<text text-anchor="start" x="21.5" y="-354" font-family="Helvetica,sans-Serif" font-size="10.00">+</text>
<text text-anchor="start" x="44.5" y="-354" font-family="Helvetica,sans-Serif" font-size="10.00">LimitedPriorityQueue()</text>
<text text-anchor="start" x="21.5" y="-339" font-family="Helvetica,sans-Serif" font-size="10.00">+</text>
<text text-anchor="start" x="44.5" y="-339" font-family="Helvetica,sans-Serif" font-size="10.00">~LimitedPriorityQueue()</text>
<text text-anchor="start" x="21.5" y="-324" font-family="Helvetica,sans-Serif" font-size="10.00">+</text>
<text text-anchor="start" x="44.5" y="-324" font-family="Helvetica,sans-Serif" font-size="10.00">operator=()</text>
<text text-anchor="start" x="21.5" y="-309" font-family="Helvetica,sans-Serif" font-size="10.00">+</text>
<text text-anchor="start" x="44.5" y="-309" font-family="Helvetica,sans-Serif" font-size="10.00">begin()</text>
<text text-anchor="start" x="21.5" y="-294" font-family="Helvetica,sans-Serif" font-size="10.00">+</text>
<text text-anchor="start" x="44.5" y="-294" font-family="Helvetica,sans-Serif" font-size="10.00">begin()</text>
<text text-anchor="start" x="21.5" y="-279" font-family="Helvetica,sans-Serif" font-size="10.00">+</text>
<text text-anchor="start" x="44.5" y="-279" font-family="Helvetica,sans-Serif" font-size="10.00">cbegin()</text>
<text text-anchor="start" x="21.5" y="-264" font-family="Helvetica,sans-Serif" font-size="10.00">+</text>
<text text-anchor="start" x="44.5" y="-264" font-family="Helvetica,sans-Serif" font-size="10.00">end()</text>
<text text-anchor="start" x="44.5" y="-249" font-family="Helvetica,sans-Serif" font-size="10.00">and 16 more...</text>
<text text-anchor="start" x="21.5" y="-234" font-family="Helvetica,sans-Serif" font-size="10.00">#</text>
<text text-anchor="start" x="44.5" y="-234" font-family="Helvetica,sans-Serif" font-size="10.00">pushImpl()</text>
<polygon fill="#666666" stroke="#666666" points="7.5,-454 7.5,-454 189.5,-454 189.5,-454 7.5,-454"/>
<polygon fill="#666666" stroke="#666666" points="7.5,-409 7.5,-409 42.5,-409 42.5,-409 7.5,-409"/>
<polygon fill="#666666" stroke="#666666" points="42.5,-409 42.5,-409 189.5,-409 189.5,-409 42.5,-409"/>
<polygon fill="none" stroke="#666666" points="7.5,-227 7.5,-493 189.5,-493 189.5,-227 7.5,-227"/>
</a>
</g>
</g>
<!-- Node2&#45;&gt;Node1 -->
<g id="edge1_Node000001_Node000002" class="edge">
<title>Node2&#45;&gt;Node1</title>
<g id="a_edge1_Node000001_Node000002"><a xlink:title=" ">
<path fill="none" stroke="#63b8ff" d="M98.5,-226.96C98.5,-215.32 98.5,-203.66 98.5,-192.32"/>
<polygon fill="none" stroke="#63b8ff" points="98.5,-192.18 94.5,-186.18 98.5,-180.18 102.5,-186.18 98.5,-192.18"/>
</a>
</g>
<text text-anchor="middle" x="130" y="-201" font-family="Helvetica,sans-Serif" font-size="10.00" fill="grey"> #m_iterator</text>
</g>
<!-- Node3 -->
<g id="Node000003" class="node">
<title>Node3</title>
<g id="a_Node000003"><a xlink:title=" ">
<polygon fill="white" stroke="transparent" points="148,-906 13,-906 13,-835 148,-835 148,-906"/>
<text text-anchor="start" x="18.5" y="-893.5" font-family="Helvetica,sans-Serif" font-size="10.00">std::array&lt; IndexSquared</text>
<text text-anchor="start" x="18.5" y="-882.5" font-family="Helvetica,sans-Serif" font-size="10.00">Distance&lt; Index, Scalar</text>
<text text-anchor="start" x="62.5" y="-871.5" font-family="Helvetica,sans-Serif" font-size="10.00"> &gt;, N &gt;</text>
<text text-anchor="start" x="34.5" y="-856.5" font-family="Helvetica,sans-Serif" font-size="10.00">+</text>
<text text-anchor="start" x="64.5" y="-856.5" font-family="Helvetica,sans-Serif" font-size="10.00">elements</text>
<text text-anchor="start" x="79" y="-841.5" font-family="Helvetica,sans-Serif" font-size="10.00"> </text>
<polygon fill="#666666" stroke="#666666" points="13.5,-866.5 13.5,-866.5 148.5,-866.5 148.5,-866.5 13.5,-866.5"/>
<polygon fill="#666666" stroke="#666666" points="13.5,-851.5 13.5,-851.5 62.5,-851.5 62.5,-851.5 13.5,-851.5"/>
<polygon fill="#666666" stroke="#666666" points="62.5,-851.5 62.5,-851.5 148.5,-851.5 148.5,-851.5 62.5,-851.5"/>
<polygon fill="none" stroke="#666666" points="13,-835 13,-906 148,-906 148,-835 13,-835"/>
</a>
</g>
</g>
<!-- Node3&#45;&gt;Node2 -->
<g id="edge2_Node000002_Node000003" class="edge">
<title>Node3&#45;&gt;Node2</title>
<g id="a_edge2_Node000002_Node000003"><a xlink:title=" ">
<path fill="none" stroke="#63b8ff" d="M81.72,-834.95C84.08,-768.36 89.37,-618.81 93.39,-505.39"/>
<polygon fill="none" stroke="#63b8ff" points="93.4,-505.13 89.61,-498.99 93.82,-493.14 97.61,-499.28 93.4,-505.13"/>
</a>
</g>
<text text-anchor="middle" x="116" y="-687" font-family="Helvetica,sans-Serif" font-size="10.00" fill="grey"> #m_data</text>
</g>
<!-- Node4 -->
<g id="Node000004" class="node">
<title>Node4</title>
<g id="a_Node000004"><a xlink:title=" ">
<polygon fill="white" stroke="transparent" points="251.5,-1080 165.5,-1080 165.5,-1031 251.5,-1031 251.5,-1080"/>
<text text-anchor="start" x="170.5" y="-1067.5" font-family="Helvetica,sans-Serif" font-size="10.00">std::array&lt; T &gt;</text>
<text text-anchor="start" x="206.5" y="-1052.5" font-family="Helvetica,sans-Serif" font-size="10.00"> </text>
<text text-anchor="start" x="206.5" y="-1037.5" font-family="Helvetica,sans-Serif" font-size="10.00"> </text>
<polygon fill="#666666" stroke="#666666" points="165.5,-1062.5 165.5,-1062.5 251.5,-1062.5 251.5,-1062.5 165.5,-1062.5"/>
<polygon fill="#666666" stroke="#666666" points="165.5,-1047.5 165.5,-1047.5 251.5,-1047.5 251.5,-1047.5 165.5,-1047.5"/>
<polygon fill="none" stroke="#666666" points="165.5,-1031 165.5,-1080 251.5,-1080 251.5,-1031 165.5,-1031"/>
</a>
</g>
</g>
<!-- Node4&#45;&gt;Node3 -->
<g id="edge3_Node000003_Node000004" class="edge">
<title>Node4&#45;&gt;Node3</title>
<g id="a_edge3_Node000003_Node000004"><a xlink:title=" ">
<path fill="none" stroke="orange" d="M155.56,-1049.5C131.2,-1044.31 104.27,-1033.87 88.5,-1013 65.58,-982.67 67.41,-937.41 72.47,-906.29"/>
<polygon fill="orange" stroke="orange" points="154.97,-1052.95 165.44,-1051.36 156.26,-1046.07 154.97,-1052.95"/>
</a>
</g>
<text text-anchor="start" x="88.5" y="-1005" font-family="Helvetica,sans-Serif" font-size="10.00" fill="grey"> &lt; IndexSquaredDistance</text>
<text text-anchor="middle" x="150.5" y="-994" font-family="Helvetica,sans-Serif" font-size="10.00" fill="grey">&lt; Index, Scalar &gt;, N &gt;</text>
</g>
<!-- Node7 -->
<g id="Node000007" class="node">
<title>Node7</title>
<g id="a_Node000007"><a xlink:title=" ">
<polygon fill="white" stroke="transparent" points="276,-973 177,-973 177,-924 276,-924 276,-973"/>
<text text-anchor="start" x="182.5" y="-960.5" font-family="Helvetica,sans-Serif" font-size="10.00">std::array&lt; T, N &gt;</text>
<text text-anchor="start" x="225" y="-945.5" font-family="Helvetica,sans-Serif" font-size="10.00"> </text>
<text text-anchor="start" x="225" y="-930.5" font-family="Helvetica,sans-Serif" font-size="10.00"> </text>
<polygon fill="#666666" stroke="#666666" points="177.5,-955.5 177.5,-955.5 276.5,-955.5 276.5,-955.5 177.5,-955.5"/>
<polygon fill="#666666" stroke="#666666" points="177.5,-940.5 177.5,-940.5 276.5,-940.5 276.5,-940.5 177.5,-940.5"/>
<polygon fill="none" stroke="#666666" points="177,-924 177,-973 276,-973 276,-924 177,-924"/>
</a>
</g>
</g>
<!-- Node4&#45;&gt;Node7 -->
<g id="edge8_Node000007_Node000004" class="edge">
<title>Node4&#45;&gt;Node7</title>
<g id="a_edge8_Node000007_Node000004"><a xlink:title=" ">
<path fill="none" stroke="orange" d="M214.29,-1020.72C216.94,-1005.28 220.01,-987.35 222.41,-973.35"/>
<polygon fill="orange" stroke="orange" points="210.78,-1020.49 212.54,-1030.94 217.68,-1021.67 210.78,-1020.49"/>
</a>
</g>
<text text-anchor="middle" x="242.5" y="-999.5" font-family="Helvetica,sans-Serif" font-size="10.00" fill="grey"> &lt; T, N &gt;</text>
</g>
<!-- Node5 -->
<g id="Node000005" class="node">
<title>Node5</title>
<g id="a_Node000005"><a xlink:title=" ">
<polygon fill="white" stroke="transparent" points="256,-1176 239,-1176 239,-1127 256,-1127 256,-1176"/>
<text text-anchor="start" x="244.5" y="-1163.5" font-family="Helvetica,sans-Serif" font-size="10.00">T</text>
<text text-anchor="start" x="246" y="-1148.5" font-family="Helvetica,sans-Serif" font-size="10.00"> </text>
<text text-anchor="start" x="246" y="-1133.5" font-family="Helvetica,sans-Serif" font-size="10.00"> </text>
<polygon fill="#bfbfbf" stroke="#bfbfbf" points="239.5,-1158.5 239.5,-1158.5 256.5,-1158.5 256.5,-1158.5 239.5,-1158.5"/>
<polygon fill="#bfbfbf" stroke="#bfbfbf" points="239.5,-1143.5 239.5,-1143.5 256.5,-1143.5 256.5,-1143.5 239.5,-1143.5"/>
<polygon fill="none" stroke="#bfbfbf" points="239,-1127 239,-1176 256,-1176 256,-1127 239,-1127"/>
</a>
</g>
</g>
<!-- Node5&#45;&gt;Node4 -->
<g id="edge4_Node000004_Node000005" class="edge">
<title>Node5&#45;&gt;Node4</title>
<g id="a_edge4_Node000004_Node000005"><a xlink:title=" ">
<path fill="none" stroke="#63b8ff" d="M238.87,-1142.15C231.37,-1134.32 220.89,-1121.93 215.5,-1109 213.33,-1103.8 211.8,-1098.08 210.73,-1092.39"/>
<polygon fill="none" stroke="#63b8ff" points="210.68,-1092.07 205.9,-1086.68 209.03,-1080.18 213.82,-1085.58 210.68,-1092.07"/>
</a>
</g>
<text text-anchor="middle" x="244.5" y="-1101" font-family="Helvetica,sans-Serif" font-size="10.00" fill="grey"> +elements</text>
</g>
<!-- Node5&#45;&gt;Node7 -->
<g id="edge7_Node000007_Node000005" class="edge">
<title>Node5&#45;&gt;Node7</title>
<g id="a_edge7_Node000007_Node000005"><a xlink:title=" ">
<path fill="none" stroke="#63b8ff" d="M256.13,-1140.38C262.31,-1132.43 270.12,-1120.77 273.5,-1109 281.96,-1079.56 346.33,-1162.92 269.5,-991 268.24,-988.18 266.69,-985.46 264.94,-982.85"/>
<polygon fill="none" stroke="#63b8ff" points="264.84,-982.72 257.97,-980.53 257.35,-973.35 264.22,-975.54 264.84,-982.72"/>
</a>
</g>
<text text-anchor="middle" x="332.5" y="-1053" font-family="Helvetica,sans-Serif" font-size="10.00" fill="grey"> +elements</text>
</g>
<!-- Node6 -->
<g id="Node000006" class="node">
<title>Node6</title>
<g id="a_Node000006"><a xlink:href="classPonca_1_1LimitedPriorityQueue.html" target="_top" xlink:title="The LimitedPriorityQueue class is similar to std::priority_queue but has a limited capacity and handl...">
<polygon fill="white" stroke="transparent" points="300,-817 151,-817 151,-562 300,-562 300,-817"/>
<text text-anchor="start" x="156.5" y="-804.5" font-family="Helvetica,sans-Serif" font-size="10.00">Ponca::LimitedPriorityQueue</text>
<text text-anchor="start" x="176.5" y="-793.5" font-family="Helvetica,sans-Serif" font-size="10.00">&lt; T, N, CompareT &gt;</text>
<text text-anchor="start" x="157.5" y="-778.5" font-family="Helvetica,sans-Serif" font-size="10.00">#</text>
<text text-anchor="start" x="172.5" y="-778.5" font-family="Helvetica,sans-Serif" font-size="10.00">m_comp</text>
<text text-anchor="start" x="157.5" y="-763.5" font-family="Helvetica,sans-Serif" font-size="10.00">#</text>
<text text-anchor="start" x="172.5" y="-763.5" font-family="Helvetica,sans-Serif" font-size="10.00">m_size</text>
<text text-anchor="start" x="157.5" y="-748.5" font-family="Helvetica,sans-Serif" font-size="10.00">#</text>
<text text-anchor="start" x="172.5" y="-748.5" font-family="Helvetica,sans-Serif" font-size="10.00">m_capacity</text>
<text text-anchor="start" x="157.5" y="-733.5" font-family="Helvetica,sans-Serif" font-size="10.00">+</text>
<text text-anchor="start" x="172.5" y="-733.5" font-family="Helvetica,sans-Serif" font-size="10.00">LimitedPriorityQueue()</text>
<text text-anchor="start" x="157.5" y="-718.5" font-family="Helvetica,sans-Serif" font-size="10.00">+</text>
<text text-anchor="start" x="172.5" y="-718.5" font-family="Helvetica,sans-Serif" font-size="10.00">LimitedPriorityQueue()</text>
<text text-anchor="start" x="157.5" y="-703.5" font-family="Helvetica,sans-Serif" font-size="10.00">+</text>
<text text-anchor="start" x="172.5" y="-703.5" font-family="Helvetica,sans-Serif" font-size="10.00">LimitedPriorityQueue()</text>
<text text-anchor="start" x="157.5" y="-688.5" font-family="Helvetica,sans-Serif" font-size="10.00">+</text>
<text text-anchor="start" x="172.5" y="-688.5" font-family="Helvetica,sans-Serif" font-size="10.00">LimitedPriorityQueue()</text>
<text text-anchor="start" x="157.5" y="-673.5" font-family="Helvetica,sans-Serif" font-size="10.00">+</text>
<text text-anchor="start" x="172.5" y="-673.5" font-family="Helvetica,sans-Serif" font-size="10.00">~LimitedPriorityQueue()</text>
<text text-anchor="start" x="157.5" y="-658.5" font-family="Helvetica,sans-Serif" font-size="10.00">+</text>
<text text-anchor="start" x="172.5" y="-658.5" font-family="Helvetica,sans-Serif" font-size="10.00">operator=()</text>
<text text-anchor="start" x="157.5" y="-643.5" font-family="Helvetica,sans-Serif" font-size="10.00">+</text>
<text text-anchor="start" x="172.5" y="-643.5" font-family="Helvetica,sans-Serif" font-size="10.00">begin()</text>
<text text-anchor="start" x="157.5" y="-628.5" font-family="Helvetica,sans-Serif" font-size="10.00">+</text>
<text text-anchor="start" x="172.5" y="-628.5" font-family="Helvetica,sans-Serif" font-size="10.00">begin()</text>
<text text-anchor="start" x="157.5" y="-613.5" font-family="Helvetica,sans-Serif" font-size="10.00">+</text>
<text text-anchor="start" x="172.5" y="-613.5" font-family="Helvetica,sans-Serif" font-size="10.00">cbegin()</text>
<text text-anchor="start" x="157.5" y="-598.5" font-family="Helvetica,sans-Serif" font-size="10.00">+</text>
<text text-anchor="start" x="172.5" y="-598.5" font-family="Helvetica,sans-Serif" font-size="10.00">end()</text>
<text text-anchor="start" x="172.5" y="-583.5" font-family="Helvetica,sans-Serif" font-size="10.00">and 16 more...</text>
<text text-anchor="start" x="157.5" y="-568.5" font-family="Helvetica,sans-Serif" font-size="10.00">#</text>
<text text-anchor="start" x="172.5" y="-568.5" font-family="Helvetica,sans-Serif" font-size="10.00">pushImpl()</text>
<polygon fill="#666666" stroke="#666666" points="151.5,-788.5 151.5,-788.5 300.5,-788.5 300.5,-788.5 151.5,-788.5"/>
<polygon fill="#666666" stroke="#666666" points="151.5,-743.5 151.5,-743.5 170.5,-743.5 170.5,-743.5 151.5,-743.5"/>
<polygon fill="#666666" stroke="#666666" points="170.5,-743.5 170.5,-743.5 300.5,-743.5 300.5,-743.5 170.5,-743.5"/>
<polygon fill="none" stroke="#666666" points="151,-562 151,-817 300,-817 300,-562 151,-562"/>
</a>
</g>
</g>
<!-- Node6&#45;&gt;Node2 -->
<g id="edge5_Node000002_Node000006" class="edge">
<title>Node6&#45;&gt;Node2</title>
<g id="a_edge5_Node000002_Node000006"><a xlink:title=" ">
<path fill="none" stroke="orange" d="M172.7,-552.33C165.12,-532.79 157.33,-512.71 149.78,-493.24"/>
<polygon fill="orange" stroke="orange" points="169.52,-553.82 176.4,-561.88 176.05,-551.29 169.52,-553.82"/>
</a>
</g>
<text text-anchor="start" x="166.5" y="-536" font-family="Helvetica,sans-Serif" font-size="10.00" fill="grey"> &lt; IndexSquaredDistance</text>
<text text-anchor="start" x="166.5" y="-525" font-family="Helvetica,sans-Serif" font-size="10.00" fill="grey">&lt; Index, Scalar &gt;, MAX</text>
<text text-anchor="middle" x="228.5" y="-514" font-family="Helvetica,sans-Serif" font-size="10.00" fill="grey">_KNN_SIZE &gt;</text>
</g>
<!-- Node7&#45;&gt;Node6 -->
<g id="edge6_Node000006_Node000007" class="edge">
<title>Node7&#45;&gt;Node6</title>
<g id="a_edge6_Node000006_Node000007"><a xlink:title=" ">
<path fill="none" stroke="#63b8ff" d="M226.41,-923.78C226.32,-901.45 226.18,-866.07 226.04,-829.53"/>
<polygon fill="none" stroke="#63b8ff" points="226.04,-829.12 222.02,-823.13 225.99,-817.12 230.02,-823.1 226.04,-829.12"/>
</a>
</g>
<text text-anchor="middle" x="251" y="-868" font-family="Helvetica,sans-Serif" font-size="10.00" fill="grey"> #m_data</text>
</g>
</g>
</svg>
