<?xml version="1.0" encoding="UTF-8" standalone="no"?>
<!DOCTYPE svg PUBLIC "-//W3C//DTD SVG 1.1//EN"
 "http://www.w3.org/Graphics/SVG/1.1/DTD/svg11.dtd">
<!-- Generated by graphviz version 2.43.0 (0)
 -->
<!-- Title: Ponca::PrimitiveBase&lt; DataPoint, _NFilter, T &gt; Pages: 1 -->
<svg width="145pt" height="248pt"
 viewBox="0.00 0.00 145.00 248.00" xmlns="http://www.w3.org/2000/svg" xmlns:xlink="http://www.w3.org/1999/xlink">
<g id="graph0" class="graph" transform="scale(1 1) rotate(0) translate(4 244)">
<title>Ponca::PrimitiveBase&lt; DataPoint, _NFilter, T &gt;</title>
<!-- Node1 -->
<g id="Node000001" class="node">
<title>Node1</title>
<g id="a_Node000001"><a xlink:title="Primitive base class.">
<polygon fill="#999999" stroke="transparent" points="137,-240 0,-240 0,0 137,0 137,-240"/>
<text text-anchor="start" x="5.5" y="-228" font-family="Helvetica,sans-Serif" font-size="10.00">Ponca::PrimitiveBase</text>
<text text-anchor="start" x="5.5" y="-217" font-family="Helvetica,sans-Serif" font-size="10.00">&lt; DataPoint, _NFilter, T &gt;</text>
<text text-anchor="start" x="9" y="-202" font-family="Helvetica,sans-Serif" font-size="10.00">#</text>
<text text-anchor="start" x="26.5" y="-202" font-family="Helvetica,sans-Serif" font-size="10.00">m_eCurrentState</text>
<text text-anchor="start" x="9" y="-187" font-family="Helvetica,sans-Serif" font-size="10.00">+</text>
<text text-anchor="start" x="26.5" y="-187" font-family="Helvetica,sans-Serif" font-size="10.00">setNeighborFilter()</text>
<text text-anchor="start" x="9" y="-172" font-family="Helvetica,sans-Serif" font-size="10.00">+</text>
<text text-anchor="start" x="26.5" y="-172" font-family="Helvetica,sans-Serif" font-size="10.00">init()</text>
<text text-anchor="start" x="9" y="-157" font-family="Helvetica,sans-Serif" font-size="10.00">+</text>
<text text-anchor="start" x="26.5" y="-157" font-family="Helvetica,sans-Serif" font-size="10.00">isReady()</text>
<text text-anchor="start" x="9" y="-142" font-family="Helvetica,sans-Serif" font-size="10.00">+</text>
<text text-anchor="start" x="26.5" y="-142" font-family="Helvetica,sans-Serif" font-size="10.00">isStable()</text>
<text text-anchor="start" x="9" y="-127" font-family="Helvetica,sans-Serif" font-size="10.00">+</text>
<text text-anchor="start" x="26.5" y="-127" font-family="Helvetica,sans-Serif" font-size="10.00">needAnotherPass()</text>
<text text-anchor="start" x="9" y="-112" font-family="Helvetica,sans-Serif" font-size="10.00">+</text>
<text text-anchor="start" x="26.5" y="-112" font-family="Helvetica,sans-Serif" font-size="10.00">getNumNeighbors()</text>
<text text-anchor="start" x="9" y="-97" font-family="Helvetica,sans-Serif" font-size="10.00">+</text>
<text text-anchor="start" x="26.5" y="-97" font-family="Helvetica,sans-Serif" font-size="10.00">getWeightSum()</text>
<text text-anchor="start" x="9" y="-82" font-family="Helvetica,sans-Serif" font-size="10.00">+</text>
<text text-anchor="start" x="26.5" y="-82" font-family="Helvetica,sans-Serif" font-size="10.00">startNewPass()</text>
<text text-anchor="start" x="9" y="-67" font-family="Helvetica,sans-Serif" font-size="10.00">+</text>
<text text-anchor="start" x="26.5" y="-67" font-family="Helvetica,sans-Serif" font-size="10.00">getNeighborFilter()</text>
<text text-anchor="start" x="9" y="-52" font-family="Helvetica,sans-Serif" font-size="10.00">+</text>
<text text-anchor="start" x="26.5" y="-52" font-family="Helvetica,sans-Serif" font-size="10.00">getCurrentState()</text>
<text text-anchor="start" x="9" y="-37" font-family="Helvetica,sans-Serif" font-size="10.00">+</text>
<text text-anchor="start" x="26.5" y="-37" font-family="Helvetica,sans-Serif" font-size="10.00">addLocalNeighbor()</text>
<text text-anchor="start" x="9" y="-22" font-family="Helvetica,sans-Serif" font-size="10.00">+</text>
<text text-anchor="start" x="26.5" y="-22" font-family="Helvetica,sans-Serif" font-size="10.00">finalize()</text>
<text text-anchor="start" x="9" y="-7" font-family="Helvetica,sans-Serif" font-size="10.00">#</text>
<text text-anchor="start" x="26.5" y="-7" font-family="Helvetica,sans-Serif" font-size="10.00">getNeighborFilter()</text>
<polygon fill="#666666" stroke="#666666" points="0.5,-212 0.5,-212 137.5,-212 137.5,-212 0.5,-212"/>
<polygon fill="#666666" stroke="#666666" points="0.5,-197 0.5,-197 24.5,-197 24.5,-197 0.5,-197"/>
<polygon fill="#666666" stroke="#666666" points="24.5,-197 24.5,-197 137.5,-197 137.5,-197 24.5,-197"/>
<polygon fill="none" stroke="#666666" points="0,0 0,-240 137,-240 137,0 0,0"/>
</a>
</g>
</g>
</g>
</svg>
