<?xml version="1.0" encoding="UTF-8" standalone="no"?>
<!DOCTYPE svg PUBLIC "-//W3C//DTD SVG 1.1//EN"
 "http://www.w3.org/Graphics/SVG/1.1/DTD/svg11.dtd">
<!-- Generated by graphviz version 2.43.0 (0)
 -->
<!-- Title: Ponca::MeanPositionDer&lt; DataPoint, _NFilter, DiffType, T &gt; Pages: 1 -->
<svg width="192pt" height="235pt"
 viewBox="0.00 0.00 192.00 235.00" xmlns="http://www.w3.org/2000/svg" xmlns:xlink="http://www.w3.org/1999/xlink">

<svg id="main" version="1.1" xmlns="http://www.w3.org/2000/svg" xmlns:xlink="http://www.w3.org/1999/xlink" xml:space="preserve" onload="init(evt)">
<style type="text/css"><![CDATA[
.node, .edge {opacity: 0.7;}
.node.selected, .edge.selected {opacity: 1;}
.edge:hover path { stroke: red; }
.edge:hover polygon { stroke: red; fill: red; }
]]></style>
<script type="application/ecmascript" xlink:href="svg.min.js"/>
<svg id="graph" class="graph">
<g id="graph0" class="graph" transform="scale(1 1) rotate(0) translate(4 231)">
<title>Ponca::MeanPositionDer&lt; DataPoint, _NFilter, DiffType, T &gt;</title>
<!-- Node1 -->
<g id="Node000001" class="node">
<title>Node1</title>
<g id="a_Node000001"><a xlink:title="Compute the derivatives of the input points barycenter.">
<polygon fill="#999999" stroke="transparent" points="184,-131 46,-131 46,0 184,0 184,-131"/>
<text text-anchor="start" x="55.5" y="-118.5" font-family="Helvetica,sans-Serif" font-size="10.00">Ponca::MeanPositionDer</text>
<text text-anchor="start" x="55.5" y="-107.5" font-family="Helvetica,sans-Serif" font-size="10.00">&lt; DataPoint, _NFilter,</text>
<text text-anchor="start" x="81.5" y="-96.5" font-family="Helvetica,sans-Serif" font-size="10.00"> DiffType, T &gt;</text>
<text text-anchor="start" x="50" y="-81.5" font-family="Helvetica,sans-Serif" font-size="10.00">#</text>
<text text-anchor="start" x="63" y="-81.5" font-family="Helvetica,sans-Serif" font-size="10.00">m_dSumP</text>
<text text-anchor="start" x="50" y="-66.5" font-family="Helvetica,sans-Serif" font-size="10.00">+</text>
<text text-anchor="start" x="63" y="-66.5" font-family="Helvetica,sans-Serif" font-size="10.00">meanPositionDer()</text>
<text text-anchor="start" x="50" y="-51.5" font-family="Helvetica,sans-Serif" font-size="10.00">+</text>
<text text-anchor="start" x="63" y="-51.5" font-family="Helvetica,sans-Serif" font-size="10.00">meanPositionDer()</text>
<text text-anchor="start" x="50" y="-36.5" font-family="Helvetica,sans-Serif" font-size="10.00">+</text>
<text text-anchor="start" x="63" y="-36.5" font-family="Helvetica,sans-Serif" font-size="10.00">init()</text>
<text text-anchor="start" x="50" y="-21.5" font-family="Helvetica,sans-Serif" font-size="10.00">+</text>
<text text-anchor="start" x="63" y="-21.5" font-family="Helvetica,sans-Serif" font-size="10.00">addLocalNeighbor()</text>
<text text-anchor="start" x="50" y="-6.5" font-family="Helvetica,sans-Serif" font-size="10.00">+</text>
<text text-anchor="start" x="63" y="-6.5" font-family="Helvetica,sans-Serif" font-size="10.00">barycenterDerivatives()</text>
<polygon fill="#666666" stroke="#666666" points="46,-91.5 46,-91.5 184,-91.5 184,-91.5 46,-91.5"/>
<polygon fill="#666666" stroke="#666666" points="46,-76.5 46,-76.5 61,-76.5 61,-76.5 46,-76.5"/>
<polygon fill="#666666" stroke="#666666" points="61,-76.5 61,-76.5 184,-76.5 184,-76.5 61,-76.5"/>
<polygon fill="none" stroke="#666666" points="46,0 46,-131 184,-131 184,0 46,0"/>
</a>
</g>
</g>
<!-- Node2 -->
<g id="Node000002" class="node">
<title>Node2</title>
<g id="a_Node000002"><a xlink:title=" ">
<polygon fill="white" stroke="transparent" points="136,-227 0,-227 0,-167 136,-167 136,-227"/>
<text text-anchor="start" x="5" y="-215" font-family="Helvetica,sans-Serif" font-size="10.00">Concept::FittingProcedure</text>
<text text-anchor="start" x="48" y="-204" font-family="Helvetica,sans-Serif" font-size="10.00">Concept</text>
<text text-anchor="start" x="66" y="-189" font-family="Helvetica,sans-Serif" font-size="10.00"> </text>
<text text-anchor="start" x="66" y="-174" font-family="Helvetica,sans-Serif" font-size="10.00"> </text>
<polygon fill="#bfbfbf" stroke="#bfbfbf" points="0,-199 0,-199 136,-199 136,-199 0,-199"/>
<polygon fill="#bfbfbf" stroke="#bfbfbf" points="0,-184 0,-184 136,-184 136,-184 0,-184"/>
<polygon fill="none" stroke="#bfbfbf" points="0,-167 0,-227 136,-227 136,-167 0,-167"/>
</a>
</g>
</g>
<!-- Node2&#45;&gt;Node1 -->
<g id="edge1_Node000001_Node000002" class="edge">
<title>Node2&#45;&gt;Node1</title>
<g id="a_edge1_Node000001_Node000002"><a xlink:title=" ">
<path fill="none" stroke="#63b8ff" d="M81.96,-157.54C84.98,-149.22 88.25,-140.21 91.52,-131.19"/>
<polygon fill="none" stroke="#63b8ff" points="78.67,-156.34 78.55,-166.94 85.25,-158.73 78.67,-156.34"/>
</a>
</g>
</g>
<!-- Node3 -->
<g id="Node000003" class="node">
<title>Node3</title>
<g id="a_Node000003"><a xlink:title=" ">
<polygon fill="white" stroke="transparent" points="171.5,-221.5 154.5,-221.5 154.5,-172.5 171.5,-172.5 171.5,-221.5"/>
<text text-anchor="start" x="160" y="-209" font-family="Helvetica,sans-Serif" font-size="10.00">T</text>
<text text-anchor="start" x="161.5" y="-194" font-family="Helvetica,sans-Serif" font-size="10.00"> </text>
<text text-anchor="start" x="161.5" y="-179" font-family="Helvetica,sans-Serif" font-size="10.00"> </text>
<polygon fill="#bfbfbf" stroke="#bfbfbf" points="155,-204 155,-204 172,-204 172,-204 155,-204"/>
<polygon fill="#bfbfbf" stroke="#bfbfbf" points="155,-189 155,-189 172,-189 172,-189 155,-189"/>
<polygon fill="none" stroke="#bfbfbf" points="154.5,-172.5 154.5,-221.5 171.5,-221.5 171.5,-172.5 154.5,-172.5"/>
</a>
</g>
</g>
<!-- Node3&#45;&gt;Node1 -->
<g id="edge2_Node000001_Node000003" class="edge">
<title>Node3&#45;&gt;Node1</title>
<g id="a_edge2_Node000001_Node000003"><a xlink:title=" ">
<path fill="none" stroke="#63b8ff" d="M150.94,-163.46C147.28,-153.58 143.11,-142.35 138.95,-131.12"/>
<polygon fill="none" stroke="#63b8ff" points="147.66,-164.69 154.42,-172.85 154.22,-162.25 147.66,-164.69"/>
</a>
</g>
</g>
</g>
</svg>
</svg>

<style type='text/css'>
<![CDATA[
[data-mouse-over-selected='false'] { opacity: 0.7; }
[data-mouse-over-selected='true']  { opacity: 1.0; }
]]>
</style>
<script type="application/ecmascript"><![CDATA[
document.addEventListener('DOMContentLoaded', (event) => {
  highlightEdges();
  highlightAdjacentNodes();
});
]]></script>
</svg>
