<?xml version="1.0" encoding="UTF-8" standalone="no"?>
<!DOCTYPE svg PUBLIC "-//W3C//DTD SVG 1.1//EN"
 "http://www.w3.org/Graphics/SVG/1.1/DTD/svg11.dtd">
<!-- Generated by graphviz version 2.43.0 (0)
 -->
<!-- Title: Ponca::CNC&lt; P, _method &gt; Pages: 1 -->
<svg width="701pt" height="1402pt"
 viewBox="0.00 0.00 701.00 1402.00" xmlns="http://www.w3.org/2000/svg" xmlns:xlink="http://www.w3.org/1999/xlink">
<g id="graph0" class="graph" transform="scale(1 1) rotate(0) translate(4 1398)">
<title>Ponca::CNC&lt; P, _method &gt;</title>
<!-- Node1 -->
<g id="Node000001" class="node">
<title>Node1</title>
<g id="a_Node000001"><a xlink:title="Corrected Normal Current Fit type.">
<polygon fill="#999999" stroke="transparent" points="455,-409 311,-409 311,0 455,0 455,-409"/>
<text text-anchor="start" x="316" y="-396.5" font-family="Helvetica,sans-Serif" font-size="10.00">Ponca::CNC&lt; P, _method &gt;</text>
<text text-anchor="start" x="322.5" y="-381.5" font-family="Helvetica,sans-Serif" font-size="10.00">#</text>
<text text-anchor="start" x="343" y="-381.5" font-family="Helvetica,sans-Serif" font-size="10.00">m_nb_vt</text>
<text text-anchor="start" x="322.5" y="-366.5" font-family="Helvetica,sans-Serif" font-size="10.00">#</text>
<text text-anchor="start" x="343" y="-366.5" font-family="Helvetica,sans-Serif" font-size="10.00">m_A</text>
<text text-anchor="start" x="322.5" y="-351.5" font-family="Helvetica,sans-Serif" font-size="10.00">#</text>
<text text-anchor="start" x="343" y="-351.5" font-family="Helvetica,sans-Serif" font-size="10.00">m_H</text>
<text text-anchor="start" x="322.5" y="-336.5" font-family="Helvetica,sans-Serif" font-size="10.00">#</text>
<text text-anchor="start" x="343" y="-336.5" font-family="Helvetica,sans-Serif" font-size="10.00">m_G</text>
<text text-anchor="start" x="322.5" y="-321.5" font-family="Helvetica,sans-Serif" font-size="10.00">#</text>
<text text-anchor="start" x="343" y="-321.5" font-family="Helvetica,sans-Serif" font-size="10.00">m_T11</text>
<text text-anchor="start" x="322.5" y="-306.5" font-family="Helvetica,sans-Serif" font-size="10.00">#</text>
<text text-anchor="start" x="343" y="-306.5" font-family="Helvetica,sans-Serif" font-size="10.00">m_T12</text>
<text text-anchor="start" x="322.5" y="-291.5" font-family="Helvetica,sans-Serif" font-size="10.00">#</text>
<text text-anchor="start" x="343" y="-291.5" font-family="Helvetica,sans-Serif" font-size="10.00">m_T13</text>
<text text-anchor="start" x="322.5" y="-276.5" font-family="Helvetica,sans-Serif" font-size="10.00">#</text>
<text text-anchor="start" x="343" y="-276.5" font-family="Helvetica,sans-Serif" font-size="10.00">m_T22</text>
<text text-anchor="start" x="322.5" y="-261.5" font-family="Helvetica,sans-Serif" font-size="10.00">#</text>
<text text-anchor="start" x="343" y="-261.5" font-family="Helvetica,sans-Serif" font-size="10.00">m_T23</text>
<text text-anchor="start" x="322.5" y="-246.5" font-family="Helvetica,sans-Serif" font-size="10.00">#</text>
<text text-anchor="start" x="343" y="-246.5" font-family="Helvetica,sans-Serif" font-size="10.00">m_T33</text>
<text text-anchor="start" x="322.5" y="-231.5" font-family="Helvetica,sans-Serif" font-size="10.00">#</text>
<text text-anchor="start" x="343" y="-231.5" font-family="Helvetica,sans-Serif" font-size="10.00">m_k1</text>
<text text-anchor="start" x="322.5" y="-216.5" font-family="Helvetica,sans-Serif" font-size="10.00">#</text>
<text text-anchor="start" x="343" y="-216.5" font-family="Helvetica,sans-Serif" font-size="10.00">m_k2</text>
<text text-anchor="start" x="322.5" y="-201.5" font-family="Helvetica,sans-Serif" font-size="10.00">#</text>
<text text-anchor="start" x="343" y="-201.5" font-family="Helvetica,sans-Serif" font-size="10.00">m_v1</text>
<text text-anchor="start" x="322.5" y="-186.5" font-family="Helvetica,sans-Serif" font-size="10.00">#</text>
<text text-anchor="start" x="343" y="-186.5" font-family="Helvetica,sans-Serif" font-size="10.00">m_v2</text>
<text text-anchor="start" x="322.5" y="-171.5" font-family="Helvetica,sans-Serif" font-size="10.00">#</text>
<text text-anchor="start" x="343" y="-171.5" font-family="Helvetica,sans-Serif" font-size="10.00">m_eCurrentState</text>
<text text-anchor="start" x="322.5" y="-156.5" font-family="Helvetica,sans-Serif" font-size="10.00">+</text>
<text text-anchor="start" x="343" y="-156.5" font-family="Helvetica,sans-Serif" font-size="10.00">finalize()</text>
<text text-anchor="start" x="322.5" y="-141.5" font-family="Helvetica,sans-Serif" font-size="10.00">+</text>
<text text-anchor="start" x="343" y="-141.5" font-family="Helvetica,sans-Serif" font-size="10.00">init()</text>
<text text-anchor="start" x="322.5" y="-126.5" font-family="Helvetica,sans-Serif" font-size="10.00">+</text>
<text text-anchor="start" x="343" y="-126.5" font-family="Helvetica,sans-Serif" font-size="10.00">compute()</text>
<text text-anchor="start" x="322.5" y="-111.5" font-family="Helvetica,sans-Serif" font-size="10.00">+</text>
<text text-anchor="start" x="343" y="-111.5" font-family="Helvetica,sans-Serif" font-size="10.00">computeWithIds()</text>
<text text-anchor="start" x="322.5" y="-96.5" font-family="Helvetica,sans-Serif" font-size="10.00">+</text>
<text text-anchor="start" x="343" y="-96.5" font-family="Helvetica,sans-Serif" font-size="10.00">getNumTriangles()</text>
<text text-anchor="start" x="322.5" y="-81.5" font-family="Helvetica,sans-Serif" font-size="10.00">+</text>
<text text-anchor="start" x="343" y="-81.5" font-family="Helvetica,sans-Serif" font-size="10.00">setNeighborFilter()</text>
<text text-anchor="start" x="322.5" y="-66.5" font-family="Helvetica,sans-Serif" font-size="10.00">+</text>
<text text-anchor="start" x="343" y="-66.5" font-family="Helvetica,sans-Serif" font-size="10.00">getTriangles()</text>
<text text-anchor="start" x="322.5" y="-51.5" font-family="Helvetica,sans-Serif" font-size="10.00">+</text>
<text text-anchor="start" x="343" y="-51.5" font-family="Helvetica,sans-Serif" font-size="10.00">operator==()</text>
<text text-anchor="start" x="322.5" y="-36.5" font-family="Helvetica,sans-Serif" font-size="10.00">+</text>
<text text-anchor="start" x="343" y="-36.5" font-family="Helvetica,sans-Serif" font-size="10.00">operator!=()</text>
<text text-anchor="start" x="322.5" y="-21.5" font-family="Helvetica,sans-Serif" font-size="10.00">+</text>
<text text-anchor="start" x="343" y="-21.5" font-family="Helvetica,sans-Serif" font-size="10.00">isApprox()</text>
<text text-anchor="start" x="343" y="-6.5" font-family="Helvetica,sans-Serif" font-size="10.00">and 7 more...</text>
<polygon fill="#666666" stroke="#666666" points="311,-391.5 311,-391.5 455,-391.5 455,-391.5 311,-391.5"/>
<polygon fill="#666666" stroke="#666666" points="311,-166.5 311,-166.5 341,-166.5 341,-166.5 311,-166.5"/>
<polygon fill="#666666" stroke="#666666" points="341,-166.5 341,-166.5 455,-166.5 455,-166.5 341,-166.5"/>
<polygon fill="none" stroke="#666666" points="311,0 311,-409 455,-409 455,0 311,0"/>
</a>
</g>
</g>
<!-- Node2 -->
<g id="Node000002" class="node">
<title>Node2</title>
<g id="a_Node000002"><a xlink:href="structPonca_1_1ComputeObject.html" target="_top" xlink:title="ComputeObject is a virtual object that represents an algorithm which can be used with the compute fun...">
<polygon fill="white" stroke="transparent" points="271,-564.5 149,-564.5 149,-459.5 271,-459.5 271,-564.5"/>
<text text-anchor="start" x="154" y="-552" font-family="Helvetica,sans-Serif" font-size="10.00">Ponca::ComputeObject</text>
<text text-anchor="start" x="179.5" y="-541" font-family="Helvetica,sans-Serif" font-size="10.00">&lt; Derived &gt;</text>
<text text-anchor="start" x="208" y="-526" font-family="Helvetica,sans-Serif" font-size="10.00"> </text>
<text text-anchor="start" x="156" y="-511" font-family="Helvetica,sans-Serif" font-size="10.00">+</text>
<text text-anchor="start" x="172" y="-511" font-family="Helvetica,sans-Serif" font-size="10.00">compute()</text>
<text text-anchor="start" x="156" y="-496" font-family="Helvetica,sans-Serif" font-size="10.00">+</text>
<text text-anchor="start" x="172" y="-496" font-family="Helvetica,sans-Serif" font-size="10.00">compute()</text>
<text text-anchor="start" x="156" y="-481" font-family="Helvetica,sans-Serif" font-size="10.00">+</text>
<text text-anchor="start" x="172" y="-481" font-family="Helvetica,sans-Serif" font-size="10.00">computeWithIds()</text>
<text text-anchor="start" x="156" y="-466" font-family="Helvetica,sans-Serif" font-size="10.00">#</text>
<text text-anchor="start" x="172" y="-466" font-family="Helvetica,sans-Serif" font-size="10.00">derived()</text>
<polygon fill="#666666" stroke="#666666" points="149,-536 149,-536 271,-536 271,-536 149,-536"/>
<polygon fill="#666666" stroke="#666666" points="149,-521 149,-521 271,-521 271,-521 149,-521"/>
<polygon fill="none" stroke="#666666" points="149,-459.5 149,-564.5 271,-564.5 271,-459.5 149,-459.5"/>
</a>
</g>
</g>
<!-- Node2&#45;&gt;Node1 -->
<g id="edge1_Node000001_Node000002" class="edge">
<title>Node2&#45;&gt;Node1</title>
<g id="a_edge1_Node000001_Node000002"><a xlink:title=" ">
<path fill="none" stroke="#8b1a1a" d="M244.33,-450.38C263.4,-416.7 287.87,-373.48 310.94,-332.75"/>
<polygon fill="none" stroke="#8b1a1a" points="241.23,-448.75 239.35,-459.18 247.32,-452.2 241.23,-448.75"/>
</a>
</g>
</g>
<!-- Node3 -->
<g id="Node000003" class="node">
<title>Node3</title>
<g id="a_Node000003"><a xlink:href="classPonca_1_1NeighborFilterStoreNormal.html" target="_top" xlink:title=" ">
<polygon fill="white" stroke="transparent" points="477,-568 289,-568 289,-456 477,-456 477,-568"/>
<text text-anchor="start" x="294" y="-556" font-family="Helvetica,sans-Serif" font-size="10.00">Ponca::NeighborFilterStore</text>
<text text-anchor="start" x="294" y="-545" font-family="Helvetica,sans-Serif" font-size="10.00">Normal&lt; DataPoint, DistWeightFunc</text>
<text text-anchor="start" x="294" y="-534" font-family="Helvetica,sans-Serif" font-size="10.00">&lt; DataPoint, ConstantWeightKernel</text>
<text text-anchor="start" x="345" y="-523" font-family="Helvetica,sans-Serif" font-size="10.00">&lt; Scalar &gt; &gt; &gt;</text>
<text text-anchor="start" x="300" y="-508" font-family="Helvetica,sans-Serif" font-size="10.00">#</text>
<text text-anchor="start" x="320" y="-508" font-family="Helvetica,sans-Serif" font-size="10.00">m_n</text>
<text text-anchor="start" x="300" y="-493" font-family="Helvetica,sans-Serif" font-size="10.00">+</text>
<text text-anchor="start" x="320" y="-493" font-family="Helvetica,sans-Serif" font-size="10.00">NeighborFilterStoreNormal()</text>
<text text-anchor="start" x="300" y="-478" font-family="Helvetica,sans-Serif" font-size="10.00">+</text>
<text text-anchor="start" x="320" y="-478" font-family="Helvetica,sans-Serif" font-size="10.00">NeighborFilterStoreNormal()</text>
<text text-anchor="start" x="300" y="-463" font-family="Helvetica,sans-Serif" font-size="10.00">+</text>
<text text-anchor="start" x="320" y="-463" font-family="Helvetica,sans-Serif" font-size="10.00">evalNormal()</text>
<polygon fill="#666666" stroke="#666666" points="289,-518 289,-518 477,-518 477,-518 289,-518"/>
<polygon fill="#666666" stroke="#666666" points="289,-503 289,-503 318,-503 318,-503 289,-503"/>
<polygon fill="#666666" stroke="#666666" points="318,-503 318,-503 477,-503 477,-503 318,-503"/>
<polygon fill="none" stroke="#666666" points="289,-456 289,-568 477,-568 477,-456 289,-456"/>
</a>
</g>
</g>
<!-- Node3&#45;&gt;Node1 -->
<g id="edge2_Node000001_Node000003" class="edge">
<title>Node3&#45;&gt;Node1</title>
<g id="a_edge2_Node000001_Node000003"><a xlink:title=" ">
<path fill="none" stroke="#63b8ff" d="M383,-455.68C383,-445.23 383,-433.74 383,-421.6"/>
<polygon fill="none" stroke="#63b8ff" points="383,-421.26 379,-415.26 383,-409.26 387,-415.26 383,-421.26"/>
</a>
</g>
<text text-anchor="middle" x="412" y="-430" font-family="Helvetica,sans-Serif" font-size="10.00" fill="grey"> #m_nFilter</text>
</g>
<!-- Node4 -->
<g id="Node000004" class="node">
<title>Node4</title>
<g id="a_Node000004"><a xlink:href="classPonca_1_1DistWeightFunc.html" target="_top" xlink:title=" ">
<polygon fill="white" stroke="transparent" points="254.5,-843 101.5,-843 101.5,-637 254.5,-637 254.5,-843"/>
<text text-anchor="start" x="107" y="-831" font-family="Helvetica,sans-Serif" font-size="10.00">Ponca::DistWeightFunc</text>
<text text-anchor="start" x="107" y="-820" font-family="Helvetica,sans-Serif" font-size="10.00">&lt; DataPoint, ConstantWeight</text>
<text text-anchor="start" x="131" y="-809" font-family="Helvetica,sans-Serif" font-size="10.00">Kernel&lt; Scalar &gt; &gt;</text>
<text text-anchor="start" x="118" y="-794" font-family="Helvetica,sans-Serif" font-size="10.00">+</text>
<text text-anchor="start" x="143" y="-794" font-family="Helvetica,sans-Serif" font-size="10.00">isCompact</text>
<text text-anchor="start" x="118" y="-779" font-family="Helvetica,sans-Serif" font-size="10.00">#</text>
<text text-anchor="start" x="143" y="-779" font-family="Helvetica,sans-Serif" font-size="10.00">m_t</text>
<text text-anchor="start" x="118" y="-764" font-family="Helvetica,sans-Serif" font-size="10.00">+</text>
<text text-anchor="start" x="143" y="-764" font-family="Helvetica,sans-Serif" font-size="10.00">DistWeightFunc()</text>
<text text-anchor="start" x="118" y="-749" font-family="Helvetica,sans-Serif" font-size="10.00">+</text>
<text text-anchor="start" x="143" y="-749" font-family="Helvetica,sans-Serif" font-size="10.00">DistWeightFunc()</text>
<text text-anchor="start" x="118" y="-734" font-family="Helvetica,sans-Serif" font-size="10.00">+</text>
<text text-anchor="start" x="143" y="-734" font-family="Helvetica,sans-Serif" font-size="10.00">operator()()</text>
<text text-anchor="start" x="118" y="-719" font-family="Helvetica,sans-Serif" font-size="10.00">+</text>
<text text-anchor="start" x="143" y="-719" font-family="Helvetica,sans-Serif" font-size="10.00">spacedw()</text>
<text text-anchor="start" x="118" y="-704" font-family="Helvetica,sans-Serif" font-size="10.00">+</text>
<text text-anchor="start" x="143" y="-704" font-family="Helvetica,sans-Serif" font-size="10.00">spaced2w()</text>
<text text-anchor="start" x="118" y="-689" font-family="Helvetica,sans-Serif" font-size="10.00">+</text>
<text text-anchor="start" x="143" y="-689" font-family="Helvetica,sans-Serif" font-size="10.00">scaledw()</text>
<text text-anchor="start" x="118" y="-674" font-family="Helvetica,sans-Serif" font-size="10.00">+</text>
<text text-anchor="start" x="143" y="-674" font-family="Helvetica,sans-Serif" font-size="10.00">scaled2w()</text>
<text text-anchor="start" x="118" y="-659" font-family="Helvetica,sans-Serif" font-size="10.00">+</text>
<text text-anchor="start" x="143" y="-659" font-family="Helvetica,sans-Serif" font-size="10.00">scaleSpaced2w()</text>
<text text-anchor="start" x="118" y="-644" font-family="Helvetica,sans-Serif" font-size="10.00">+</text>
<text text-anchor="start" x="143" y="-644" font-family="Helvetica,sans-Serif" font-size="10.00">evalScale()</text>
<polygon fill="#666666" stroke="#666666" points="102,-804 102,-804 255,-804 255,-804 102,-804"/>
<polygon fill="#666666" stroke="#666666" points="102,-774 102,-774 141,-774 141,-774 102,-774"/>
<polygon fill="#666666" stroke="#666666" points="141,-774 141,-774 255,-774 255,-774 141,-774"/>
<polygon fill="none" stroke="#666666" points="101.5,-637 101.5,-843 254.5,-843 254.5,-637 101.5,-637"/>
</a>
</g>
</g>
<!-- Node4&#45;&gt;Node3 -->
<g id="edge3_Node000003_Node000004" class="edge">
<title>Node4&#45;&gt;Node3</title>
<g id="a_edge3_Node000003_Node000004"><a xlink:title=" ">
<path fill="none" stroke="#63b8ff" d="M261.42,-647.04C285.65,-620.32 311.37,-591.97 332.87,-568.26"/>
<polygon fill="none" stroke="#63b8ff" points="258.75,-644.77 254.63,-654.52 263.94,-649.47 258.75,-644.77"/>
</a>
</g>
</g>
<!-- Node5 -->
<g id="Node000005" class="node">
<title>Node5</title>
<g id="a_Node000005"><a xlink:href="classPonca_1_1internal_1_1CenteredNeighborhoodFrame.html" target="_top" xlink:title="NeighborhoodFrame that express 3d points relatively to a prescribed center.">
<polygon fill="white" stroke="transparent" points="180,-1300.5 0,-1300.5 0,-1165.5 180,-1165.5 180,-1300.5"/>
<text text-anchor="start" x="5" y="-1288" font-family="Helvetica,sans-Serif" font-size="10.00">Ponca::internal::Centered</text>
<text text-anchor="start" x="5" y="-1277" font-family="Helvetica,sans-Serif" font-size="10.00">NeighborhoodFrame&lt; DataPoint &gt;</text>
<text text-anchor="start" x="6" y="-1262" font-family="Helvetica,sans-Serif" font-size="10.00">+</text>
<text text-anchor="start" x="21" y="-1262" font-family="Helvetica,sans-Serif" font-size="10.00">hasLocalFrame</text>
<text text-anchor="start" x="6" y="-1247" font-family="Helvetica,sans-Serif" font-size="10.00">+</text>
<text text-anchor="start" x="21" y="-1247" font-family="Helvetica,sans-Serif" font-size="10.00">CenteredNeighborhoodFrame()</text>
<text text-anchor="start" x="6" y="-1232" font-family="Helvetica,sans-Serif" font-size="10.00">+</text>
<text text-anchor="start" x="21" y="-1232" font-family="Helvetica,sans-Serif" font-size="10.00">CenteredNeighborhoodFrame()</text>
<text text-anchor="start" x="6" y="-1217" font-family="Helvetica,sans-Serif" font-size="10.00">+</text>
<text text-anchor="start" x="21" y="-1217" font-family="Helvetica,sans-Serif" font-size="10.00">changeNeighborhoodFrame()</text>
<text text-anchor="start" x="6" y="-1202" font-family="Helvetica,sans-Serif" font-size="10.00">+</text>
<text text-anchor="start" x="21" y="-1202" font-family="Helvetica,sans-Serif" font-size="10.00">convertToGlobalBasis()</text>
<text text-anchor="start" x="6" y="-1187" font-family="Helvetica,sans-Serif" font-size="10.00">+</text>
<text text-anchor="start" x="21" y="-1187" font-family="Helvetica,sans-Serif" font-size="10.00">convertToLocalBasis()</text>
<text text-anchor="start" x="6" y="-1172" font-family="Helvetica,sans-Serif" font-size="10.00">+</text>
<text text-anchor="start" x="21" y="-1172" font-family="Helvetica,sans-Serif" font-size="10.00">evalPos()</text>
<polygon fill="#666666" stroke="#666666" points="0,-1272 0,-1272 180,-1272 180,-1272 0,-1272"/>
<polygon fill="#666666" stroke="#666666" points="0,-1257 0,-1257 19,-1257 19,-1257 0,-1257"/>
<polygon fill="#666666" stroke="#666666" points="19,-1257 19,-1257 180,-1257 180,-1257 19,-1257"/>
<polygon fill="none" stroke="#666666" points="0,-1165.5 0,-1300.5 180,-1300.5 180,-1165.5 0,-1165.5"/>
</a>
</g>
</g>
<!-- Node5&#45;&gt;Node4 -->
<g id="edge4_Node000004_Node000005" class="edge">
<title>Node5&#45;&gt;Node4</title>
<g id="a_edge4_Node000004_Node000005"><a xlink:title=" ">
<path fill="none" stroke="#63b8ff" d="M73.04,-1155.26C61.16,-1087.08 51.38,-985.43 76,-901 81.81,-881.08 90.94,-861.27 101.4,-842.73"/>
<polygon fill="none" stroke="#63b8ff" points="69.66,-1156.27 74.88,-1165.49 76.55,-1155.03 69.66,-1156.27"/>
</a>
</g>
</g>
<!-- Node9 -->
<g id="Node000009" class="node">
<title>Node9</title>
<g id="a_Node000009"><a xlink:href="classPonca_1_1DistWeightFunc.html" target="_top" xlink:title="Weight neighbors according to the Euclidean distance between a query and a reference position.">
<polygon fill="white" stroke="transparent" points="237,-1111 85,-1111 85,-901 237,-901 237,-1111"/>
<text text-anchor="start" x="90" y="-1099" font-family="Helvetica,sans-Serif" font-size="10.00">Ponca::DistWeightFunc</text>
<text text-anchor="start" x="90" y="-1088" font-family="Helvetica,sans-Serif" font-size="10.00">&lt; DataPoint, WeightKernel &gt;</text>
<text text-anchor="start" x="100.5" y="-1073" font-family="Helvetica,sans-Serif" font-size="10.00">+</text>
<text text-anchor="start" x="125" y="-1073" font-family="Helvetica,sans-Serif" font-size="10.00">isCompact</text>
<text text-anchor="start" x="100.5" y="-1058" font-family="Helvetica,sans-Serif" font-size="10.00">#</text>
<text text-anchor="start" x="125" y="-1058" font-family="Helvetica,sans-Serif" font-size="10.00">m_t</text>
<text text-anchor="start" x="100.5" y="-1043" font-family="Helvetica,sans-Serif" font-size="10.00">#</text>
<text text-anchor="start" x="125" y="-1043" font-family="Helvetica,sans-Serif" font-size="10.00">m_wk</text>
<text text-anchor="start" x="100.5" y="-1028" font-family="Helvetica,sans-Serif" font-size="10.00">+</text>
<text text-anchor="start" x="125" y="-1028" font-family="Helvetica,sans-Serif" font-size="10.00">DistWeightFunc()</text>
<text text-anchor="start" x="100.5" y="-1013" font-family="Helvetica,sans-Serif" font-size="10.00">+</text>
<text text-anchor="start" x="125" y="-1013" font-family="Helvetica,sans-Serif" font-size="10.00">DistWeightFunc()</text>
<text text-anchor="start" x="100.5" y="-998" font-family="Helvetica,sans-Serif" font-size="10.00">+</text>
<text text-anchor="start" x="125" y="-998" font-family="Helvetica,sans-Serif" font-size="10.00">operator()()</text>
<text text-anchor="start" x="100.5" y="-983" font-family="Helvetica,sans-Serif" font-size="10.00">+</text>
<text text-anchor="start" x="125" y="-983" font-family="Helvetica,sans-Serif" font-size="10.00">spacedw()</text>
<text text-anchor="start" x="100.5" y="-968" font-family="Helvetica,sans-Serif" font-size="10.00">+</text>
<text text-anchor="start" x="125" y="-968" font-family="Helvetica,sans-Serif" font-size="10.00">spaced2w()</text>
<text text-anchor="start" x="100.5" y="-953" font-family="Helvetica,sans-Serif" font-size="10.00">+</text>
<text text-anchor="start" x="125" y="-953" font-family="Helvetica,sans-Serif" font-size="10.00">scaledw()</text>
<text text-anchor="start" x="100.5" y="-938" font-family="Helvetica,sans-Serif" font-size="10.00">+</text>
<text text-anchor="start" x="125" y="-938" font-family="Helvetica,sans-Serif" font-size="10.00">scaled2w()</text>
<text text-anchor="start" x="100.5" y="-923" font-family="Helvetica,sans-Serif" font-size="10.00">+</text>
<text text-anchor="start" x="125" y="-923" font-family="Helvetica,sans-Serif" font-size="10.00">scaleSpaced2w()</text>
<text text-anchor="start" x="100.5" y="-908" font-family="Helvetica,sans-Serif" font-size="10.00">+</text>
<text text-anchor="start" x="125" y="-908" font-family="Helvetica,sans-Serif" font-size="10.00">evalScale()</text>
<polygon fill="#666666" stroke="#666666" points="85,-1083 85,-1083 237,-1083 237,-1083 85,-1083"/>
<polygon fill="#666666" stroke="#666666" points="85,-1038 85,-1038 123,-1038 123,-1038 85,-1038"/>
<polygon fill="#666666" stroke="#666666" points="123,-1038 123,-1038 237,-1038 237,-1038 123,-1038"/>
<polygon fill="none" stroke="#666666" points="85,-901 85,-1111 237,-1111 237,-901 85,-901"/>
</a>
</g>
</g>
<!-- Node5&#45;&gt;Node9 -->
<g id="edge10_Node000009_Node000005" class="edge">
<title>Node5&#45;&gt;Node9</title>
<g id="a_edge10_Node000009_Node000005"><a xlink:title=" ">
<path fill="none" stroke="#63b8ff" d="M114.08,-1155.69C118.58,-1141.44 123.35,-1126.33 128.06,-1111.4"/>
<polygon fill="none" stroke="#63b8ff" points="110.69,-1154.82 111.01,-1165.41 117.36,-1156.92 110.69,-1154.82"/>
</a>
</g>
</g>
<!-- Node6 -->
<g id="Node000006" class="node">
<title>Node6</title>
<g id="a_Node000006"><a xlink:href="classPonca_1_1ConstantWeightKernel.html" target="_top" xlink:title=" ">
<polygon fill="white" stroke="transparent" points="409,-1081 255,-1081 255,-931 409,-931 409,-1081"/>
<text text-anchor="start" x="260" y="-1069" font-family="Helvetica,sans-Serif" font-size="10.00">Ponca::ConstantWeightKernel</text>
<text text-anchor="start" x="305.5" y="-1058" font-family="Helvetica,sans-Serif" font-size="10.00">&lt; Scalar &gt;</text>
<text text-anchor="start" x="263" y="-1043" font-family="Helvetica,sans-Serif" font-size="10.00">+</text>
<text text-anchor="start" x="280" y="-1043" font-family="Helvetica,sans-Serif" font-size="10.00">isCompact</text>
<text text-anchor="start" x="263" y="-1028" font-family="Helvetica,sans-Serif" font-size="10.00">+</text>
<text text-anchor="start" x="280" y="-1028" font-family="Helvetica,sans-Serif" font-size="10.00">isDValid</text>
<text text-anchor="start" x="263" y="-1013" font-family="Helvetica,sans-Serif" font-size="10.00">+</text>
<text text-anchor="start" x="280" y="-1013" font-family="Helvetica,sans-Serif" font-size="10.00">isDDValid</text>
<text text-anchor="start" x="263" y="-998" font-family="Helvetica,sans-Serif" font-size="10.00">+</text>
<text text-anchor="start" x="280" y="-998" font-family="Helvetica,sans-Serif" font-size="10.00">ConstantWeightKernel()</text>
<text text-anchor="start" x="263" y="-983" font-family="Helvetica,sans-Serif" font-size="10.00">+</text>
<text text-anchor="start" x="280" y="-983" font-family="Helvetica,sans-Serif" font-size="10.00">setValue()</text>
<text text-anchor="start" x="263" y="-968" font-family="Helvetica,sans-Serif" font-size="10.00">+</text>
<text text-anchor="start" x="280" y="-968" font-family="Helvetica,sans-Serif" font-size="10.00">f()</text>
<text text-anchor="start" x="263" y="-953" font-family="Helvetica,sans-Serif" font-size="10.00">+</text>
<text text-anchor="start" x="280" y="-953" font-family="Helvetica,sans-Serif" font-size="10.00">df()</text>
<text text-anchor="start" x="263" y="-938" font-family="Helvetica,sans-Serif" font-size="10.00">+</text>
<text text-anchor="start" x="280" y="-938" font-family="Helvetica,sans-Serif" font-size="10.00">ddf()</text>
<polygon fill="#666666" stroke="#666666" points="255,-1053 255,-1053 409,-1053 409,-1053 255,-1053"/>
<polygon fill="#666666" stroke="#666666" points="255,-1008 255,-1008 278,-1008 278,-1008 255,-1008"/>
<polygon fill="#666666" stroke="#666666" points="278,-1008 278,-1008 409,-1008 409,-1008 278,-1008"/>
<polygon fill="none" stroke="#666666" points="255,-931 255,-1081 409,-1081 409,-931 255,-931"/>
</a>
</g>
</g>
<!-- Node6&#45;&gt;Node4 -->
<g id="edge5_Node000004_Node000006" class="edge">
<title>Node6&#45;&gt;Node4</title>
<g id="a_edge5_Node000004_Node000006"><a xlink:title=" ">
<path fill="none" stroke="#63b8ff" d="M329.68,-930.9C326.51,-907.47 320.4,-882.18 309,-861 297.67,-839.95 281.2,-820.65 263.73,-803.97"/>
<polygon fill="none" stroke="#63b8ff" points="263.35,-803.62 256.23,-802.5 254.53,-795.49 261.65,-796.62 263.35,-803.62"/>
</a>
</g>
<text text-anchor="middle" x="339.5" y="-869.5" font-family="Helvetica,sans-Serif" font-size="10.00" fill="grey"> #m_wk</text>
</g>
<!-- Node7 -->
<g id="Node000007" class="node">
<title>Node7</title>
<g id="a_Node000007"><a xlink:title=" ">
<polygon fill="white" stroke="transparent" points="389.5,-1394 228.5,-1394 228.5,-1345 389.5,-1345 389.5,-1394"/>
<text text-anchor="start" x="234" y="-1381.5" font-family="Helvetica,sans-Serif" font-size="10.00">Concept::WeightKernelConcept</text>
<text text-anchor="start" x="307.5" y="-1366.5" font-family="Helvetica,sans-Serif" font-size="10.00"> </text>
<text text-anchor="start" x="307.5" y="-1351.5" font-family="Helvetica,sans-Serif" font-size="10.00"> </text>
<polygon fill="#bfbfbf" stroke="#bfbfbf" points="229,-1376.5 229,-1376.5 390,-1376.5 390,-1376.5 229,-1376.5"/>
<polygon fill="#bfbfbf" stroke="#bfbfbf" points="229,-1361.5 229,-1361.5 390,-1361.5 390,-1361.5 229,-1361.5"/>
<polygon fill="none" stroke="#bfbfbf" points="228.5,-1345 228.5,-1394 389.5,-1394 389.5,-1345 228.5,-1345"/>
</a>
</g>
</g>
<!-- Node7&#45;&gt;Node6 -->
<g id="edge6_Node000006_Node000007" class="edge">
<title>Node7&#45;&gt;Node6</title>
<g id="a_edge6_Node000006_Node000007"><a xlink:title=" ">
<path fill="none" stroke="#63b8ff" d="M309.37,-1334.66C310,-1293.04 311.67,-1220.25 316,-1158 317.75,-1132.88 320.42,-1105.49 323.08,-1081.02"/>
<polygon fill="none" stroke="#63b8ff" points="305.87,-1334.75 309.23,-1344.8 312.87,-1334.85 305.87,-1334.75"/>
</a>
</g>
</g>
<!-- Node8 -->
<g id="Node000008" class="node">
<title>Node8</title>
<g id="a_Node000008"><a xlink:href="classPonca_1_1ConstantWeightKernel.html" target="_top" xlink:title="Concept::WeightKernelConcept returning a constant value.">
<polygon fill="white" stroke="transparent" points="479,-1308 325,-1308 325,-1158 479,-1158 479,-1308"/>
<text text-anchor="start" x="330" y="-1296" font-family="Helvetica,sans-Serif" font-size="10.00">Ponca::ConstantWeightKernel</text>
<text text-anchor="start" x="373" y="-1285" font-family="Helvetica,sans-Serif" font-size="10.00">&lt; _Scalar &gt;</text>
<text text-anchor="start" x="333" y="-1270" font-family="Helvetica,sans-Serif" font-size="10.00">+</text>
<text text-anchor="start" x="350" y="-1270" font-family="Helvetica,sans-Serif" font-size="10.00">isCompact</text>
<text text-anchor="start" x="333" y="-1255" font-family="Helvetica,sans-Serif" font-size="10.00">+</text>
<text text-anchor="start" x="350" y="-1255" font-family="Helvetica,sans-Serif" font-size="10.00">isDValid</text>
<text text-anchor="start" x="333" y="-1240" font-family="Helvetica,sans-Serif" font-size="10.00">+</text>
<text text-anchor="start" x="350" y="-1240" font-family="Helvetica,sans-Serif" font-size="10.00">isDDValid</text>
<text text-anchor="start" x="333" y="-1225" font-family="Helvetica,sans-Serif" font-size="10.00">+</text>
<text text-anchor="start" x="350" y="-1225" font-family="Helvetica,sans-Serif" font-size="10.00">ConstantWeightKernel()</text>
<text text-anchor="start" x="333" y="-1210" font-family="Helvetica,sans-Serif" font-size="10.00">+</text>
<text text-anchor="start" x="350" y="-1210" font-family="Helvetica,sans-Serif" font-size="10.00">setValue()</text>
<text text-anchor="start" x="333" y="-1195" font-family="Helvetica,sans-Serif" font-size="10.00">+</text>
<text text-anchor="start" x="350" y="-1195" font-family="Helvetica,sans-Serif" font-size="10.00">f()</text>
<text text-anchor="start" x="333" y="-1180" font-family="Helvetica,sans-Serif" font-size="10.00">+</text>
<text text-anchor="start" x="350" y="-1180" font-family="Helvetica,sans-Serif" font-size="10.00">df()</text>
<text text-anchor="start" x="333" y="-1165" font-family="Helvetica,sans-Serif" font-size="10.00">+</text>
<text text-anchor="start" x="350" y="-1165" font-family="Helvetica,sans-Serif" font-size="10.00">ddf()</text>
<polygon fill="#666666" stroke="#666666" points="325,-1280 325,-1280 479,-1280 479,-1280 325,-1280"/>
<polygon fill="#666666" stroke="#666666" points="325,-1235 325,-1235 348,-1235 348,-1235 325,-1235"/>
<polygon fill="#666666" stroke="#666666" points="348,-1235 348,-1235 479,-1235 479,-1235 348,-1235"/>
<polygon fill="none" stroke="#666666" points="325,-1158 325,-1308 479,-1308 479,-1158 325,-1158"/>
</a>
</g>
</g>
<!-- Node7&#45;&gt;Node8 -->
<g id="edge8_Node000008_Node000007" class="edge">
<title>Node7&#45;&gt;Node8</title>
<g id="a_edge8_Node000008_Node000007"><a xlink:title=" ">
<path fill="none" stroke="#63b8ff" d="M331.15,-1336.47C337.15,-1327.78 343.92,-1318 350.82,-1308.01"/>
<polygon fill="none" stroke="#63b8ff" points="328.22,-1334.55 325.41,-1344.76 333.98,-1338.53 328.22,-1334.55"/>
</a>
</g>
</g>
<!-- Node8&#45;&gt;Node6 -->
<g id="edge7_Node000006_Node000008" class="edge">
<title>Node8&#45;&gt;Node6</title>
<g id="a_edge7_Node000006_Node000008"><a xlink:title=" ">
<path fill="none" stroke="orange" d="M375.89,-1148.07C369.06,-1126.12 361.75,-1102.62 355.09,-1081.22"/>
<polygon fill="orange" stroke="orange" points="372.57,-1149.19 378.89,-1157.7 379.26,-1147.11 372.57,-1149.19"/>
</a>
</g>
<text text-anchor="middle" x="402" y="-1132" font-family="Helvetica,sans-Serif" font-size="10.00" fill="grey"> &lt; Scalar &gt;</text>
</g>
<!-- Node9&#45;&gt;Node4 -->
<g id="edge9_Node000004_Node000009" class="edge">
<title>Node9&#45;&gt;Node4</title>
<g id="a_edge9_Node000004_Node000009"><a xlink:title=" ">
<path fill="none" stroke="orange" d="M161.43,-890.68C161.82,-880.64 162.33,-870.63 163,-861 163.41,-855.14 163.9,-849.12 164.47,-843.05"/>
<polygon fill="orange" stroke="orange" points="157.93,-890.61 161.09,-900.73 164.93,-890.86 157.93,-890.61"/>
</a>
</g>
<text text-anchor="start" x="163" y="-875" font-family="Helvetica,sans-Serif" font-size="10.00" fill="grey"> &lt; DataPoint, ConstantWeight</text>
<text text-anchor="middle" x="236" y="-864" font-family="Helvetica,sans-Serif" font-size="10.00" fill="grey">Kernel&lt; Scalar &gt; &gt;</text>
</g>
<!-- Node10 -->
<g id="Node000010" class="node">
<title>Node10</title>
<g id="a_Node000010"><a xlink:href="classPonca_1_1NeighborFilterStoreNormal.html" target="_top" xlink:title="This class extends a NeighborFilter class to also store the normal of the evaluation point,...">
<polygon fill="white" stroke="transparent" points="499,-785 307,-785 307,-695 499,-695 499,-785"/>
<text text-anchor="start" x="312" y="-773" font-family="Helvetica,sans-Serif" font-size="10.00">Ponca::NeighborFilterStore</text>
<text text-anchor="start" x="312" y="-762" font-family="Helvetica,sans-Serif" font-size="10.00">Normal&lt; DataPoint, NeighborFilter &gt;</text>
<text text-anchor="start" x="319" y="-747" font-family="Helvetica,sans-Serif" font-size="10.00">#</text>
<text text-anchor="start" x="340" y="-747" font-family="Helvetica,sans-Serif" font-size="10.00">m_n</text>
<text text-anchor="start" x="319" y="-732" font-family="Helvetica,sans-Serif" font-size="10.00">+</text>
<text text-anchor="start" x="340" y="-732" font-family="Helvetica,sans-Serif" font-size="10.00">NeighborFilterStoreNormal()</text>
<text text-anchor="start" x="319" y="-717" font-family="Helvetica,sans-Serif" font-size="10.00">+</text>
<text text-anchor="start" x="340" y="-717" font-family="Helvetica,sans-Serif" font-size="10.00">NeighborFilterStoreNormal()</text>
<text text-anchor="start" x="319" y="-702" font-family="Helvetica,sans-Serif" font-size="10.00">+</text>
<text text-anchor="start" x="340" y="-702" font-family="Helvetica,sans-Serif" font-size="10.00">evalNormal()</text>
<polygon fill="#666666" stroke="#666666" points="307,-757 307,-757 499,-757 499,-757 307,-757"/>
<polygon fill="#666666" stroke="#666666" points="307,-742 307,-742 338,-742 338,-742 307,-742"/>
<polygon fill="#666666" stroke="#666666" points="338,-742 338,-742 499,-742 499,-742 338,-742"/>
<polygon fill="none" stroke="#666666" points="307,-695 307,-785 499,-785 499,-695 307,-695"/>
</a>
</g>
</g>
<!-- Node10&#45;&gt;Node3 -->
<g id="edge11_Node000003_Node000010" class="edge">
<title>Node10&#45;&gt;Node3</title>
<g id="a_edge11_Node000003_Node000010"><a xlink:title=" ">
<path fill="none" stroke="orange" d="M397.94,-684.7C396.05,-664.12 393.9,-640.48 392,-619 390.54,-602.44 388.99,-584.43 387.6,-568.02"/>
<polygon fill="orange" stroke="orange" points="394.48,-685.2 398.88,-694.84 401.45,-684.56 394.48,-685.2"/>
</a>
</g>
<text text-anchor="start" x="392" y="-611" font-family="Helvetica,sans-Serif" font-size="10.00" fill="grey"> &lt; DataPoint, DistWeightFunc</text>
<text text-anchor="start" x="392" y="-600" font-family="Helvetica,sans-Serif" font-size="10.00" fill="grey">&lt; DataPoint, ConstantWeightKernel</text>
<text text-anchor="middle" x="479" y="-589" font-family="Helvetica,sans-Serif" font-size="10.00" fill="grey">&lt; Scalar &gt; &gt; &gt;</text>
</g>
<!-- Node11 -->
<g id="Node000011" class="node">
<title>Node11</title>
<g id="a_Node000011"><a xlink:title=" ">
<polygon fill="white" stroke="transparent" points="507,-1030.5 427,-1030.5 427,-981.5 507,-981.5 507,-1030.5"/>
<text text-anchor="start" x="432" y="-1018" font-family="Helvetica,sans-Serif" font-size="10.00">NeighborFilter</text>
<text text-anchor="start" x="465" y="-1003" font-family="Helvetica,sans-Serif" font-size="10.00"> </text>
<text text-anchor="start" x="465" y="-988" font-family="Helvetica,sans-Serif" font-size="10.00"> </text>
<polygon fill="#bfbfbf" stroke="#bfbfbf" points="427,-1013 427,-1013 507,-1013 507,-1013 427,-1013"/>
<polygon fill="#bfbfbf" stroke="#bfbfbf" points="427,-998 427,-998 507,-998 507,-998 427,-998"/>
<polygon fill="none" stroke="#bfbfbf" points="427,-981.5 427,-1030.5 507,-1030.5 507,-981.5 427,-981.5"/>
</a>
</g>
</g>
<!-- Node11&#45;&gt;Node10 -->
<g id="edge12_Node000010_Node000011" class="edge">
<title>Node11&#45;&gt;Node10</title>
<g id="a_edge12_Node000010_Node000011"><a xlink:title=" ">
<path fill="none" stroke="#63b8ff" d="M458.84,-971.33C447.35,-923.94 426.39,-837.49 413.68,-785.04"/>
<polygon fill="none" stroke="#63b8ff" points="455.45,-972.21 461.21,-981.11 462.25,-970.56 455.45,-972.21"/>
</a>
</g>
</g>
<!-- Node12 -->
<g id="Node000012" class="node">
<title>Node12</title>
<g id="a_Node000012"><a xlink:title=" ">
<polygon fill="white" stroke="transparent" points="615.5,-547.5 512.5,-547.5 512.5,-476.5 615.5,-476.5 615.5,-547.5"/>
<text text-anchor="start" x="518" y="-535" font-family="Helvetica,sans-Serif" font-size="10.00">std::vector&lt; Ponca</text>
<text text-anchor="start" x="518" y="-524" font-family="Helvetica,sans-Serif" font-size="10.00">::internal::Triangle</text>
<text text-anchor="start" x="523.5" y="-513" font-family="Helvetica,sans-Serif" font-size="10.00">&lt; DataPoint &gt; &gt;</text>
<text text-anchor="start" x="526" y="-498" font-family="Helvetica,sans-Serif" font-size="10.00">+</text>
<text text-anchor="start" x="548" y="-498" font-family="Helvetica,sans-Serif" font-size="10.00">elements</text>
<text text-anchor="start" x="562.5" y="-483" font-family="Helvetica,sans-Serif" font-size="10.00"> </text>
<polygon fill="#666666" stroke="#666666" points="513,-508 513,-508 616,-508 616,-508 513,-508"/>
<polygon fill="#666666" stroke="#666666" points="513,-493 513,-493 546,-493 546,-493 513,-493"/>
<polygon fill="#666666" stroke="#666666" points="546,-493 546,-493 616,-493 616,-493 546,-493"/>
<polygon fill="none" stroke="#666666" points="512.5,-476.5 512.5,-547.5 615.5,-547.5 615.5,-476.5 512.5,-476.5"/>
</a>
</g>
</g>
<!-- Node12&#45;&gt;Node1 -->
<g id="edge13_Node000001_Node000012" class="edge">
<title>Node12&#45;&gt;Node1</title>
<g id="a_edge13_Node000001_Node000012"><a xlink:title=" ">
<path fill="none" stroke="#63b8ff" d="M543.41,-476.25C523.3,-442.31 491.41,-388.49 461.35,-337.74"/>
<polygon fill="none" stroke="#63b8ff" points="461.28,-337.63 454.78,-334.51 455.17,-327.3 461.67,-330.43 461.28,-337.63"/>
</a>
</g>
<text text-anchor="middle" x="556" y="-430" font-family="Helvetica,sans-Serif" font-size="10.00" fill="grey"> #m_triangles</text>
</g>
<!-- Node13 -->
<g id="Node000013" class="node">
<title>Node13</title>
<g id="a_Node000013"><a xlink:title=" ">
<polygon fill="white" stroke="transparent" points="625.5,-764.5 534.5,-764.5 534.5,-715.5 625.5,-715.5 625.5,-764.5"/>
<text text-anchor="start" x="540" y="-752" font-family="Helvetica,sans-Serif" font-size="10.00">std::vector&lt; T &gt;</text>
<text text-anchor="start" x="578.5" y="-737" font-family="Helvetica,sans-Serif" font-size="10.00"> </text>
<text text-anchor="start" x="578.5" y="-722" font-family="Helvetica,sans-Serif" font-size="10.00"> </text>
<polygon fill="#666666" stroke="#666666" points="535,-747 535,-747 626,-747 626,-747 535,-747"/>
<polygon fill="#666666" stroke="#666666" points="535,-732 535,-732 626,-732 626,-732 535,-732"/>
<polygon fill="none" stroke="#666666" points="534.5,-715.5 534.5,-764.5 625.5,-764.5 625.5,-715.5 534.5,-715.5"/>
</a>
</g>
</g>
<!-- Node13&#45;&gt;Node12 -->
<g id="edge14_Node000012_Node000013" class="edge">
<title>Node13&#45;&gt;Node12</title>
<g id="a_edge14_Node000012_Node000013"><a xlink:title=" ">
<path fill="none" stroke="orange" d="M577.6,-705.15C574.6,-662.79 569.5,-590.63 566.47,-547.82"/>
<polygon fill="orange" stroke="orange" points="574.12,-705.51 578.32,-715.24 581.1,-705.02 574.12,-705.51"/>
</a>
</g>
<text text-anchor="start" x="572" y="-605.5" font-family="Helvetica,sans-Serif" font-size="10.00" fill="grey"> &lt; Ponca::internal::</text>
<text text-anchor="middle" x="632.5" y="-594.5" font-family="Helvetica,sans-Serif" font-size="10.00" fill="grey">Triangle&lt; DataPoint &gt; &gt;</text>
</g>
<!-- Node14 -->
<g id="Node000014" class="node">
<title>Node14</title>
<g id="a_Node000014"><a xlink:title=" ">
<polygon fill="white" stroke="transparent" points="588.5,-1030.5 571.5,-1030.5 571.5,-981.5 588.5,-981.5 588.5,-1030.5"/>
<text text-anchor="start" x="577" y="-1018" font-family="Helvetica,sans-Serif" font-size="10.00">T</text>
<text text-anchor="start" x="578.5" y="-1003" font-family="Helvetica,sans-Serif" font-size="10.00"> </text>
<text text-anchor="start" x="578.5" y="-988" font-family="Helvetica,sans-Serif" font-size="10.00"> </text>
<polygon fill="#bfbfbf" stroke="#bfbfbf" points="572,-1013 572,-1013 589,-1013 589,-1013 572,-1013"/>
<polygon fill="#bfbfbf" stroke="#bfbfbf" points="572,-998 572,-998 589,-998 589,-998 572,-998"/>
<polygon fill="none" stroke="#bfbfbf" points="571.5,-981.5 571.5,-1030.5 588.5,-1030.5 588.5,-981.5 571.5,-981.5"/>
</a>
</g>
</g>
<!-- Node14&#45;&gt;Node13 -->
<g id="edge15_Node000013_Node000014" class="edge">
<title>Node14&#45;&gt;Node13</title>
<g id="a_edge15_Node000013_Node000014"><a xlink:title=" ">
<path fill="none" stroke="#63b8ff" d="M580,-981.11C580,-934.57 580,-831.58 580,-776.83"/>
<polygon fill="none" stroke="#63b8ff" points="580,-776.65 576,-770.65 580,-764.65 584,-770.65 580,-776.65"/>
</a>
</g>
<text text-anchor="middle" x="609" y="-869.5" font-family="Helvetica,sans-Serif" font-size="10.00" fill="grey"> +elements</text>
</g>
</g>
</svg>
