<?xml version="1.0" encoding="UTF-8" standalone="no"?>
<!DOCTYPE svg PUBLIC "-//W3C//DTD SVG 1.1//EN"
 "http://www.w3.org/Graphics/SVG/1.1/DTD/svg11.dtd">
<!-- Generated by graphviz version 2.43.0 (0)
 -->
<!-- Title: Ponca::KdTreeKNearestIndexQuery&lt; DataPoint &gt; Pages: 1 -->
<svg width="584pt" height="1093pt"
 viewBox="0.00 0.00 584.31 1093.00" xmlns="http://www.w3.org/2000/svg" xmlns:xlink="http://www.w3.org/1999/xlink">
<g id="graph0" class="graph" transform="scale(1 1) rotate(0) translate(4 1089)">
<title>Ponca::KdTreeKNearestIndexQuery&lt; DataPoint &gt;</title>
<!-- Node1 -->
<g id="node1" class="node">
<title>Node1</title>
<g id="a_node1"><a xlink:title=" ">
<polygon fill="#bfbfbf" stroke="black" points="25.81,-0.5 25.81,-101.5 195.81,-101.5 195.81,-0.5 25.81,-0.5"/>
<text text-anchor="start" x="33.81" y="-89.5" font-family="Helvetica,sans-Serif" font-size="10.00">Ponca::KdTreeKNearestIndex</text>
<text text-anchor="middle" x="110.81" y="-78.5" font-family="Helvetica,sans-Serif" font-size="10.00">Query&lt; DataPoint &gt;</text>
<polyline fill="none" stroke="black" points="25.81,-71.5 195.81,-71.5 "/>
<text text-anchor="middle" x="110.81" y="-59.5" font-family="Helvetica,sans-Serif" font-size="10.00"> </text>
<polyline fill="none" stroke="black" points="25.81,-52.5 195.81,-52.5 "/>
<text text-anchor="start" x="33.81" y="-40.5" font-family="Helvetica,sans-Serif" font-size="10.00">+ KdTreeKNearestIndexQuery()</text>
<text text-anchor="start" x="33.81" y="-29.5" font-family="Helvetica,sans-Serif" font-size="10.00">+ begin()</text>
<text text-anchor="start" x="33.81" y="-18.5" font-family="Helvetica,sans-Serif" font-size="10.00">+ end()</text>
<text text-anchor="start" x="33.81" y="-7.5" font-family="Helvetica,sans-Serif" font-size="10.00"># search()</text>
</a>
</g>
</g>
<!-- Node2 -->
<g id="node2" class="node">
<title>Node2</title>
<g id="a_node2"><a xlink:href="classPonca_1_1KdTreeQuery.html" target="_top" xlink:title=" ">
<polygon fill="none" stroke="#bfbfbf" points="41.81,-139.5 41.81,-229.5 155.81,-229.5 155.81,-139.5 41.81,-139.5"/>
<text text-anchor="start" x="49.81" y="-217.5" font-family="Helvetica,sans-Serif" font-size="10.00">Ponca::KdTreeQuery</text>
<text text-anchor="middle" x="98.81" y="-206.5" font-family="Helvetica,sans-Serif" font-size="10.00">&lt; DataPoint &gt;</text>
<polyline fill="none" stroke="#bfbfbf" points="41.81,-199.5 155.81,-199.5 "/>
<text text-anchor="start" x="49.81" y="-187.5" font-family="Helvetica,sans-Serif" font-size="10.00"># m_kdtree</text>
<text text-anchor="start" x="49.81" y="-176.5" font-family="Helvetica,sans-Serif" font-size="10.00"># m_stack</text>
<polyline fill="none" stroke="#bfbfbf" points="41.81,-169.5 155.81,-169.5 "/>
<text text-anchor="start" x="49.81" y="-157.5" font-family="Helvetica,sans-Serif" font-size="10.00">+ KdTreeQuery()</text>
<text text-anchor="start" x="49.81" y="-146.5" font-family="Helvetica,sans-Serif" font-size="10.00"># reset()</text>
</a>
</g>
</g>
<!-- Node2&#45;&gt;Node1 -->
<g id="edge1" class="edge">
<title>Node2&#45;&gt;Node1</title>
<path fill="none" stroke="midnightblue" d="M103.77,-129.22C104.6,-120.11 105.46,-110.69 106.28,-101.7"/>
<polygon fill="none" stroke="midnightblue" points="100.27,-129.07 102.84,-139.35 107.24,-129.71 100.27,-129.07"/>
</g>
<!-- Node3 -->
<g id="node3" class="node">
<title>Node3</title>
<g id="a_node3"><a xlink:href="group__spatialpartitioning.html" target="_top" xlink:title=" ">
<polygon fill="none" stroke="black" points="174.31,-150.5 174.31,-218.5 327.31,-218.5 327.31,-150.5 174.31,-150.5"/>
<text text-anchor="start" x="182.31" y="-206.5" font-family="Helvetica,sans-Serif" font-size="10.00">Ponca::KNearestIndexQuery</text>
<text text-anchor="middle" x="250.81" y="-195.5" font-family="Helvetica,sans-Serif" font-size="10.00">&lt; DataPoint::Scalar &gt;</text>
<polyline fill="none" stroke="black" points="174.31,-188.5 327.31,-188.5 "/>
<text text-anchor="middle" x="250.81" y="-176.5" font-family="Helvetica,sans-Serif" font-size="10.00"> </text>
<polyline fill="none" stroke="black" points="174.31,-169.5 327.31,-169.5 "/>
<text text-anchor="middle" x="250.81" y="-157.5" font-family="Helvetica,sans-Serif" font-size="10.00"> </text>
</a>
</g>
</g>
<!-- Node3&#45;&gt;Node1 -->
<g id="edge2" class="edge">
<title>Node3&#45;&gt;Node1</title>
<path fill="none" stroke="midnightblue" d="M207.91,-143.2C193.92,-130.06 178.23,-115.32 163.6,-101.59"/>
<polygon fill="none" stroke="midnightblue" points="205.8,-146.02 215.49,-150.32 210.59,-140.92 205.8,-146.02"/>
</g>
<!-- Node4 -->
<g id="node4" class="node">
<title>Node4</title>
<g id="a_node4"><a xlink:href="group__spatialpartitioning.html" target="_top" xlink:title=" ">
<polygon fill="none" stroke="#bfbfbf" points="87.31,-383.5 87.31,-473.5 260.31,-473.5 260.31,-383.5 87.31,-383.5"/>
<text text-anchor="start" x="95.31" y="-461.5" font-family="Helvetica,sans-Serif" font-size="10.00">Ponca::Query&lt; QueryInput</text>
<text text-anchor="start" x="95.31" y="-450.5" font-family="Helvetica,sans-Serif" font-size="10.00">IsIndex, QueryOutputIsKNearest</text>
<text text-anchor="middle" x="173.81" y="-439.5" font-family="Helvetica,sans-Serif" font-size="10.00">&lt; DataPoint::Scalar &gt; &gt;</text>
<polyline fill="none" stroke="#bfbfbf" points="87.31,-432.5 260.31,-432.5 "/>
<text text-anchor="middle" x="173.81" y="-420.5" font-family="Helvetica,sans-Serif" font-size="10.00"> </text>
<polyline fill="none" stroke="#bfbfbf" points="87.31,-413.5 260.31,-413.5 "/>
<text text-anchor="start" x="95.31" y="-401.5" font-family="Helvetica,sans-Serif" font-size="10.00">+ Query()</text>
<text text-anchor="start" x="95.31" y="-390.5" font-family="Helvetica,sans-Serif" font-size="10.00">+ Query()</text>
</a>
</g>
</g>
<!-- Node4&#45;&gt;Node3 -->
<g id="edge3" class="edge">
<title>Node4&#45;&gt;Node3</title>
<path fill="none" stroke="midnightblue" d="M190.96,-373.6C206.04,-326.21 227.51,-258.74 240.22,-218.8"/>
<polygon fill="none" stroke="midnightblue" points="187.54,-372.8 187.85,-383.39 194.21,-374.93 187.54,-372.8"/>
</g>
<!-- Node5 -->
<g id="node5" class="node">
<title>Node5</title>
<g id="a_node5"><a xlink:href="group__spatialpartitioning.html#structPonca_1_1QueryInputIsIndex" target="_top" xlink:title="Base class for queries storing points.">
<polygon fill="none" stroke="black" points="324.31,-560 324.31,-617 465.31,-617 465.31,-560 324.31,-560"/>
<text text-anchor="middle" x="394.81" y="-605" font-family="Helvetica,sans-Serif" font-size="10.00">Ponca::QueryInputIsIndex</text>
<polyline fill="none" stroke="black" points="324.31,-598 465.31,-598 "/>
<text text-anchor="middle" x="394.81" y="-586" font-family="Helvetica,sans-Serif" font-size="10.00"> </text>
<polyline fill="none" stroke="black" points="324.31,-579 465.31,-579 "/>
<text text-anchor="start" x="332.31" y="-567" font-family="Helvetica,sans-Serif" font-size="10.00">+ QueryInputIsIndex()</text>
</a>
</g>
</g>
<!-- Node5&#45;&gt;Node4 -->
<g id="edge4" class="edge">
<title>Node5&#45;&gt;Node4</title>
<path fill="none" stroke="midnightblue" d="M398.83,-549.48C398.75,-529.94 395.01,-507.12 380.81,-492 354.38,-463.85 332.93,-484.64 295.81,-474 284.33,-470.71 272.37,-466.87 260.62,-462.86"/>
<polygon fill="none" stroke="midnightblue" points="395.33,-549.55 398.56,-559.64 402.32,-549.73 395.33,-549.55"/>
</g>
<!-- Node16 -->
<g id="node16" class="node">
<title>Node16</title>
<g id="a_node16"><a xlink:href="group__spatialpartitioning.html" target="_top" xlink:title=" ">
<polygon fill="none" stroke="#bfbfbf" points="305.31,-383.5 305.31,-473.5 478.31,-473.5 478.31,-383.5 305.31,-383.5"/>
<text text-anchor="start" x="313.31" y="-461.5" font-family="Helvetica,sans-Serif" font-size="10.00">Ponca::Query&lt; QueryInput</text>
<text text-anchor="start" x="313.31" y="-450.5" font-family="Helvetica,sans-Serif" font-size="10.00">IsIndex, QueryOutputIsKNearest</text>
<text text-anchor="middle" x="391.81" y="-439.5" font-family="Helvetica,sans-Serif" font-size="10.00">&lt; Scalar &gt; &gt;</text>
<polyline fill="none" stroke="#bfbfbf" points="305.31,-432.5 478.31,-432.5 "/>
<text text-anchor="middle" x="391.81" y="-420.5" font-family="Helvetica,sans-Serif" font-size="10.00"> </text>
<polyline fill="none" stroke="#bfbfbf" points="305.31,-413.5 478.31,-413.5 "/>
<text text-anchor="start" x="313.31" y="-401.5" font-family="Helvetica,sans-Serif" font-size="10.00">+ Query()</text>
<text text-anchor="start" x="313.31" y="-390.5" font-family="Helvetica,sans-Serif" font-size="10.00">+ Query()</text>
</a>
</g>
</g>
<!-- Node5&#45;&gt;Node16 -->
<g id="edge18" class="edge">
<title>Node5&#45;&gt;Node16</title>
<path fill="none" stroke="midnightblue" d="M403.04,-550.03C405.91,-532.42 407.93,-511.14 405.81,-492 405.15,-486.03 404.15,-479.8 402.97,-473.68"/>
<polygon fill="none" stroke="midnightblue" points="399.59,-549.47 401.28,-559.93 406.48,-550.69 399.59,-549.47"/>
</g>
<!-- Node6 -->
<g id="node6" class="node">
<title>Node6</title>
<g id="a_node6"><a xlink:href="group__spatialpartitioning.html" target="_top" xlink:title=" ">
<polygon fill="none" stroke="black" points="381.81,-761.5 381.81,-851.5 495.81,-851.5 495.81,-761.5 381.81,-761.5"/>
<text text-anchor="start" x="389.81" y="-839.5" font-family="Helvetica,sans-Serif" font-size="10.00">Ponca::QueryInput&lt;</text>
<text text-anchor="middle" x="438.81" y="-828.5" font-family="Helvetica,sans-Serif" font-size="10.00"> int &gt;</text>
<polyline fill="none" stroke="black" points="381.81,-821.5 495.81,-821.5 "/>
<text text-anchor="middle" x="438.81" y="-809.5" font-family="Helvetica,sans-Serif" font-size="10.00"> </text>
<polyline fill="none" stroke="black" points="381.81,-802.5 495.81,-802.5 "/>
<text text-anchor="start" x="389.81" y="-790.5" font-family="Helvetica,sans-Serif" font-size="10.00">+ QueryInput()</text>
<text text-anchor="start" x="389.81" y="-779.5" font-family="Helvetica,sans-Serif" font-size="10.00">+ input()</text>
<text text-anchor="start" x="389.81" y="-768.5" font-family="Helvetica,sans-Serif" font-size="10.00"># editInput()</text>
</a>
</g>
</g>
<!-- Node6&#45;&gt;Node5 -->
<g id="edge5" class="edge">
<title>Node6&#45;&gt;Node5</title>
<path fill="none" stroke="midnightblue" d="M411.59,-751.82C410.56,-748.87 409.62,-745.92 408.81,-743 397,-700.18 394.62,-648.35 394.41,-617.2"/>
<polygon fill="none" stroke="midnightblue" points="408.34,-753.11 415.2,-761.18 414.87,-750.59 408.34,-753.11"/>
</g>
<!-- Node7 -->
<g id="node7" class="node">
<title>Node7</title>
<g id="a_node7"><a xlink:href="group__spatialpartitioning.html#structPonca_1_1QueryInputBase" target="_top" xlink:title="Base class for queries input type.">
<polygon fill="none" stroke="black" points="362.81,-1027.5 362.81,-1084.5 492.81,-1084.5 492.81,-1027.5 362.81,-1027.5"/>
<text text-anchor="middle" x="427.81" y="-1072.5" font-family="Helvetica,sans-Serif" font-size="10.00">Ponca::QueryInputBase</text>
<polyline fill="none" stroke="black" points="362.81,-1065.5 492.81,-1065.5 "/>
<text text-anchor="middle" x="427.81" y="-1053.5" font-family="Helvetica,sans-Serif" font-size="10.00"> </text>
<polyline fill="none" stroke="black" points="362.81,-1046.5 492.81,-1046.5 "/>
<text text-anchor="middle" x="427.81" y="-1034.5" font-family="Helvetica,sans-Serif" font-size="10.00"> </text>
</a>
</g>
</g>
<!-- Node7&#45;&gt;Node6 -->
<g id="edge6" class="edge">
<title>Node7&#45;&gt;Node6</title>
<path fill="none" stroke="midnightblue" d="M429.5,-1016.96C431.49,-972.36 434.77,-898.58 436.86,-851.54"/>
<polygon fill="none" stroke="midnightblue" points="426,-1016.94 429.05,-1027.09 432.99,-1017.26 426,-1016.94"/>
</g>
<!-- Node8 -->
<g id="node8" class="node">
<title>Node8</title>
<g id="a_node8"><a xlink:href="group__spatialpartitioning.html#structPonca_1_1QueryInput" target="_top" xlink:title="Base class for typed queries input type.">
<polygon fill="none" stroke="black" points="443.81,-899.5 443.81,-989.5 557.81,-989.5 557.81,-899.5 443.81,-899.5"/>
<text text-anchor="start" x="451.81" y="-977.5" font-family="Helvetica,sans-Serif" font-size="10.00">Ponca::QueryInput&lt;</text>
<text text-anchor="middle" x="500.81" y="-966.5" font-family="Helvetica,sans-Serif" font-size="10.00"> InputType_ &gt;</text>
<polyline fill="none" stroke="black" points="443.81,-959.5 557.81,-959.5 "/>
<text text-anchor="middle" x="500.81" y="-947.5" font-family="Helvetica,sans-Serif" font-size="10.00"> </text>
<polyline fill="none" stroke="black" points="443.81,-940.5 557.81,-940.5 "/>
<text text-anchor="start" x="451.81" y="-928.5" font-family="Helvetica,sans-Serif" font-size="10.00">+ QueryInput()</text>
<text text-anchor="start" x="451.81" y="-917.5" font-family="Helvetica,sans-Serif" font-size="10.00">+ input()</text>
<text text-anchor="start" x="451.81" y="-906.5" font-family="Helvetica,sans-Serif" font-size="10.00"># editInput()</text>
</a>
</g>
</g>
<!-- Node7&#45;&gt;Node8 -->
<g id="edge8" class="edge">
<title>Node7&#45;&gt;Node8</title>
<path fill="none" stroke="midnightblue" d="M451.79,-1019.04C458.03,-1009.68 464.83,-999.48 471.32,-989.74"/>
<polygon fill="none" stroke="midnightblue" points="448.87,-1017.11 446.23,-1027.37 454.69,-1020.99 448.87,-1017.11"/>
</g>
<!-- Node8&#45;&gt;Node6 -->
<g id="edge7" class="edge">
<title>Node8&#45;&gt;Node6</title>
<path fill="none" stroke="orange" d="M476.37,-889.89C470.64,-877.3 464.58,-864.03 459.05,-851.9"/>
<polygon fill="orange" stroke="orange" points="473.35,-891.7 480.68,-899.34 479.72,-888.79 473.35,-891.7"/>
<text text-anchor="middle" x="490.31" y="-873" font-family="Helvetica,sans-Serif" font-size="10.00"> &lt; int &gt;</text>
</g>
<!-- Node9 -->
<g id="node9" class="node">
<title>Node9</title>
<g id="a_node9"><a xlink:href="group__spatialpartitioning.html" target="_top" xlink:title=" ">
<polygon fill="none" stroke="black" points="2.31,-543.5 2.31,-633.5 169.31,-633.5 169.31,-543.5 2.31,-543.5"/>
<text text-anchor="start" x="10.31" y="-621.5" font-family="Helvetica,sans-Serif" font-size="10.00">Ponca::QueryOutputIsKNearest</text>
<text text-anchor="middle" x="85.81" y="-610.5" font-family="Helvetica,sans-Serif" font-size="10.00">&lt; DataPoint::Scalar &gt;</text>
<polyline fill="none" stroke="black" points="2.31,-603.5 169.31,-603.5 "/>
<text text-anchor="start" x="10.31" y="-591.5" font-family="Helvetica,sans-Serif" font-size="10.00"># m_queue</text>
<polyline fill="none" stroke="black" points="2.31,-584.5 169.31,-584.5 "/>
<text text-anchor="start" x="10.31" y="-572.5" font-family="Helvetica,sans-Serif" font-size="10.00">+ QueryOutputIsKNearest()</text>
<text text-anchor="start" x="10.31" y="-561.5" font-family="Helvetica,sans-Serif" font-size="10.00">+ queue()</text>
<text text-anchor="start" x="10.31" y="-550.5" font-family="Helvetica,sans-Serif" font-size="10.00"># reset()</text>
</a>
</g>
</g>
<!-- Node9&#45;&gt;Node4 -->
<g id="edge9" class="edge">
<title>Node9&#45;&gt;Node4</title>
<path fill="none" stroke="midnightblue" d="M94,-533.2C97.55,-519.18 102.61,-504.52 109.81,-492 113.45,-485.67 117.91,-479.56 122.77,-473.8"/>
<polygon fill="none" stroke="midnightblue" points="90.52,-532.73 91.68,-543.26 97.34,-534.31 90.52,-532.73"/>
</g>
<!-- Node10 -->
<g id="node10" class="node">
<title>Node10</title>
<g id="a_node10"><a xlink:href="group__spatialpartitioning.html#structPonca_1_1QueryOutputBase" target="_top" xlink:title="Base class for queries output type.">
<polygon fill="none" stroke="black" points="34.81,-916 34.81,-973 172.81,-973 172.81,-916 34.81,-916"/>
<text text-anchor="middle" x="103.81" y="-961" font-family="Helvetica,sans-Serif" font-size="10.00">Ponca::QueryOutputBase</text>
<polyline fill="none" stroke="black" points="34.81,-954 172.81,-954 "/>
<text text-anchor="middle" x="103.81" y="-942" font-family="Helvetica,sans-Serif" font-size="10.00"> </text>
<polyline fill="none" stroke="black" points="34.81,-935 172.81,-935 "/>
<text text-anchor="middle" x="103.81" y="-923" font-family="Helvetica,sans-Serif" font-size="10.00"> </text>
</a>
</g>
</g>
<!-- Node10&#45;&gt;Node9 -->
<g id="edge10" class="edge">
<title>Node10&#45;&gt;Node9</title>
<path fill="none" stroke="midnightblue" d="M55.33,-909.16C37.85,-893.88 20.15,-874.28 10.81,-852 -20.23,-777.9 22.71,-686.85 55.28,-633.78"/>
<polygon fill="none" stroke="midnightblue" points="53.4,-912.12 63.31,-915.88 57.91,-906.76 53.4,-912.12"/>
</g>
<!-- Node11 -->
<g id="node11" class="node">
<title>Node11</title>
<g id="a_node11"><a xlink:href="group__spatialpartitioning.html#structPonca_1_1QueryOutputIsKNearest" target="_top" xlink:title="Base class for knearest queries.">
<polygon fill="none" stroke="black" points="20.31,-761.5 20.31,-851.5 187.31,-851.5 187.31,-761.5 20.31,-761.5"/>
<text text-anchor="start" x="28.31" y="-839.5" font-family="Helvetica,sans-Serif" font-size="10.00">Ponca::QueryOutputIsKNearest</text>
<text text-anchor="middle" x="103.81" y="-828.5" font-family="Helvetica,sans-Serif" font-size="10.00">&lt; Scalar &gt;</text>
<polyline fill="none" stroke="black" points="20.31,-821.5 187.31,-821.5 "/>
<text text-anchor="start" x="28.31" y="-809.5" font-family="Helvetica,sans-Serif" font-size="10.00"># m_queue</text>
<polyline fill="none" stroke="black" points="20.31,-802.5 187.31,-802.5 "/>
<text text-anchor="start" x="28.31" y="-790.5" font-family="Helvetica,sans-Serif" font-size="10.00">+ QueryOutputIsKNearest()</text>
<text text-anchor="start" x="28.31" y="-779.5" font-family="Helvetica,sans-Serif" font-size="10.00">+ queue()</text>
<text text-anchor="start" x="28.31" y="-768.5" font-family="Helvetica,sans-Serif" font-size="10.00"># reset()</text>
</a>
</g>
</g>
<!-- Node10&#45;&gt;Node11 -->
<g id="edge12" class="edge">
<title>Node10&#45;&gt;Node11</title>
<path fill="none" stroke="midnightblue" d="M103.81,-905.95C103.81,-889.11 103.81,-869.13 103.81,-851.58"/>
<polygon fill="none" stroke="midnightblue" points="100.31,-905.98 103.81,-915.98 107.31,-905.98 100.31,-905.98"/>
</g>
<!-- Node17 -->
<g id="node17" class="node">
<title>Node17</title>
<g id="a_node17"><a xlink:href="group__spatialpartitioning.html#structPonca_1_1QueryOutputIsKNearest" target="_top" xlink:title="Base class for knearest queries.">
<polygon fill="none" stroke="black" points="409.31,-652.5 409.31,-742.5 576.31,-742.5 576.31,-652.5 409.31,-652.5"/>
<text text-anchor="start" x="417.31" y="-730.5" font-family="Helvetica,sans-Serif" font-size="10.00">Ponca::QueryOutputIsKNearest</text>
<text text-anchor="middle" x="492.81" y="-719.5" font-family="Helvetica,sans-Serif" font-size="10.00">&lt; Scalar &gt;</text>
<polyline fill="none" stroke="black" points="409.31,-712.5 576.31,-712.5 "/>
<text text-anchor="start" x="417.31" y="-700.5" font-family="Helvetica,sans-Serif" font-size="10.00"># m_queue</text>
<polyline fill="none" stroke="black" points="409.31,-693.5 576.31,-693.5 "/>
<text text-anchor="start" x="417.31" y="-681.5" font-family="Helvetica,sans-Serif" font-size="10.00">+ QueryOutputIsKNearest()</text>
<text text-anchor="start" x="417.31" y="-670.5" font-family="Helvetica,sans-Serif" font-size="10.00">+ queue()</text>
<text text-anchor="start" x="417.31" y="-659.5" font-family="Helvetica,sans-Serif" font-size="10.00"># reset()</text>
</a>
</g>
</g>
<!-- Node10&#45;&gt;Node17 -->
<g id="edge20" class="edge">
<title>Node10&#45;&gt;Node17</title>
<path fill="none" stroke="midnightblue" d="M182.87,-928.28C231.68,-915.29 292.63,-892.12 333.81,-852 365.33,-821.3 342.89,-793.26 372.81,-761 383.12,-749.89 395.84,-740.41 409.12,-732.45"/>
<polygon fill="none" stroke="midnightblue" points="181.78,-924.94 172.96,-930.82 183.52,-931.72 181.78,-924.94"/>
</g>
<!-- Node11&#45;&gt;Node9 -->
<g id="edge11" class="edge">
<title>Node11&#45;&gt;Node9</title>
<path fill="none" stroke="orange" d="M99.26,-750.86C96.24,-714.59 92.32,-667.58 89.49,-633.67"/>
<polygon fill="orange" stroke="orange" points="95.81,-751.59 100.13,-761.27 102.78,-751.01 95.81,-751.59"/>
<text text-anchor="middle" x="153.81" y="-695" font-family="Helvetica,sans-Serif" font-size="10.00"> &lt; DataPoint::Scalar &gt;</text>
</g>
<!-- Node12 -->
<g id="node12" class="node">
<title>Node12</title>
<g id="a_node12"><a xlink:href="group__spatialpartitioning.html#structPonca_1_1Query" target="_top" xlink:title=" ">
<polygon fill="none" stroke="#bfbfbf" points="188.31,-549 188.31,-628 305.31,-628 305.31,-549 188.31,-549"/>
<text text-anchor="start" x="196.31" y="-616" font-family="Helvetica,sans-Serif" font-size="10.00">Ponca::Query&lt; Input</text>
<text text-anchor="middle" x="246.81" y="-605" font-family="Helvetica,sans-Serif" font-size="10.00">_, Output_ &gt;</text>
<polyline fill="none" stroke="#bfbfbf" points="188.31,-598 305.31,-598 "/>
<text text-anchor="middle" x="246.81" y="-586" font-family="Helvetica,sans-Serif" font-size="10.00"> </text>
<polyline fill="none" stroke="#bfbfbf" points="188.31,-579 305.31,-579 "/>
<text text-anchor="start" x="196.31" y="-567" font-family="Helvetica,sans-Serif" font-size="10.00">+ Query()</text>
<text text-anchor="start" x="196.31" y="-556" font-family="Helvetica,sans-Serif" font-size="10.00">+ Query()</text>
</a>
</g>
</g>
<!-- Node12&#45;&gt;Node4 -->
<g id="edge13" class="edge">
<title>Node12&#45;&gt;Node4</title>
<path fill="none" stroke="orange" d="M180.36,-544.21C179.51,-543.8 178.66,-543.4 177.81,-543 153.36,-531.58 135.82,-546.73 119.81,-525 108.06,-509.05 114.77,-490.3 126.88,-473.66"/>
<polygon fill="orange" stroke="orange" points="179,-547.45 189.49,-548.92 182.21,-541.23 179,-547.45"/>
<text text-anchor="start" x="119.81" y="-517" font-family="Helvetica,sans-Serif" font-size="10.00"> &lt; QueryInputIsIndex,</text>
<text text-anchor="start" x="119.81" y="-506" font-family="Helvetica,sans-Serif" font-size="10.00"> QueryOutputIsKNearest</text>
<text text-anchor="middle" x="179.31" y="-495" font-family="Helvetica,sans-Serif" font-size="10.00">&lt; DataPoint::Scalar &gt; &gt;</text>
</g>
<!-- Node12&#45;&gt;Node16 -->
<g id="edge21" class="edge">
<title>Node12&#45;&gt;Node16</title>
<path fill="none" stroke="orange" d="M257.93,-539.05C263.42,-522.8 271.4,-505.41 282.81,-492 289.32,-484.36 297.01,-477.45 305.24,-471.25"/>
<polygon fill="orange" stroke="orange" points="254.47,-538.4 254.83,-548.99 261.15,-540.49 254.47,-538.4"/>
<text text-anchor="start" x="282.81" y="-517" font-family="Helvetica,sans-Serif" font-size="10.00"> &lt; QueryInputIsIndex,</text>
<text text-anchor="start" x="282.81" y="-506" font-family="Helvetica,sans-Serif" font-size="10.00"> QueryOutputIsKNearest</text>
<text text-anchor="middle" x="342.31" y="-495" font-family="Helvetica,sans-Serif" font-size="10.00">&lt; Scalar &gt; &gt;</text>
</g>
<!-- Node13 -->
<g id="node13" class="node">
<title>Node13</title>
<g id="a_node13"><a xlink:title=" ">
<polygon fill="none" stroke="#bfbfbf" points="205.31,-778 205.31,-835 252.31,-835 252.31,-778 205.31,-778"/>
<text text-anchor="middle" x="228.81" y="-823" font-family="Helvetica,sans-Serif" font-size="10.00">Input_</text>
<polyline fill="none" stroke="#bfbfbf" points="205.31,-816 252.31,-816 "/>
<text text-anchor="middle" x="228.81" y="-804" font-family="Helvetica,sans-Serif" font-size="10.00"> </text>
<polyline fill="none" stroke="#bfbfbf" points="205.31,-797 252.31,-797 "/>
<text text-anchor="middle" x="228.81" y="-785" font-family="Helvetica,sans-Serif" font-size="10.00"> </text>
</a>
</g>
</g>
<!-- Node13&#45;&gt;Node12 -->
<g id="edge14" class="edge">
<title>Node13&#45;&gt;Node12</title>
<path fill="none" stroke="midnightblue" d="M231.98,-767.5C235.25,-728.32 240.31,-667.54 243.59,-628.13"/>
<polygon fill="none" stroke="midnightblue" points="228.47,-767.45 231.13,-777.7 235.45,-768.03 228.47,-767.45"/>
</g>
<!-- Node14 -->
<g id="node14" class="node">
<title>Node14</title>
<g id="a_node14"><a xlink:title=" ">
<polygon fill="none" stroke="#bfbfbf" points="270.31,-778 270.31,-835 325.31,-835 325.31,-778 270.31,-778"/>
<text text-anchor="middle" x="297.81" y="-823" font-family="Helvetica,sans-Serif" font-size="10.00">Output_</text>
<polyline fill="none" stroke="#bfbfbf" points="270.31,-816 325.31,-816 "/>
<text text-anchor="middle" x="297.81" y="-804" font-family="Helvetica,sans-Serif" font-size="10.00"> </text>
<polyline fill="none" stroke="#bfbfbf" points="270.31,-797 325.31,-797 "/>
<text text-anchor="middle" x="297.81" y="-785" font-family="Helvetica,sans-Serif" font-size="10.00"> </text>
</a>
</g>
</g>
<!-- Node14&#45;&gt;Node12 -->
<g id="edge15" class="edge">
<title>Node14&#45;&gt;Node12</title>
<path fill="none" stroke="midnightblue" d="M288.9,-767.75C279.65,-728.58 265.26,-667.62 255.93,-628.13"/>
<polygon fill="none" stroke="midnightblue" points="285.55,-768.78 291.25,-777.7 292.36,-767.17 285.55,-768.78"/>
</g>
<!-- Node15 -->
<g id="node15" class="node">
<title>Node15</title>
<g id="a_node15"><a xlink:href="group__spatialpartitioning.html#structPonca_1_1KNearestIndexQuery" target="_top" xlink:title="Base Query class combining QueryInputIsIndex and QueryOutputIsKNearest.">
<polygon fill="none" stroke="black" points="266.31,-277.5 266.31,-345.5 419.31,-345.5 419.31,-277.5 266.31,-277.5"/>
<text text-anchor="start" x="274.31" y="-333.5" font-family="Helvetica,sans-Serif" font-size="10.00">Ponca::KNearestIndexQuery</text>
<text text-anchor="middle" x="342.81" y="-322.5" font-family="Helvetica,sans-Serif" font-size="10.00">&lt; Scalar &gt;</text>
<polyline fill="none" stroke="black" points="266.31,-315.5 419.31,-315.5 "/>
<text text-anchor="middle" x="342.81" y="-303.5" font-family="Helvetica,sans-Serif" font-size="10.00"> </text>
<polyline fill="none" stroke="black" points="266.31,-296.5 419.31,-296.5 "/>
<text text-anchor="middle" x="342.81" y="-284.5" font-family="Helvetica,sans-Serif" font-size="10.00"> </text>
</a>
</g>
</g>
<!-- Node15&#45;&gt;Node3 -->
<g id="edge16" class="edge">
<title>Node15&#45;&gt;Node3</title>
<path fill="none" stroke="orange" d="M312.29,-269.03C300.28,-252.72 286.69,-234.24 275.34,-218.82"/>
<polygon fill="orange" stroke="orange" points="309.65,-271.35 318.4,-277.33 315.29,-267.2 309.65,-271.35"/>
<text text-anchor="middle" x="357.81" y="-251" font-family="Helvetica,sans-Serif" font-size="10.00"> &lt; DataPoint::Scalar &gt;</text>
</g>
<!-- Node16&#45;&gt;Node15 -->
<g id="edge17" class="edge">
<title>Node16&#45;&gt;Node15</title>
<path fill="none" stroke="midnightblue" d="M369.07,-374.13C364.93,-364.41 360.72,-354.54 356.92,-345.62"/>
<polygon fill="none" stroke="midnightblue" points="365.87,-375.54 373.01,-383.37 372.31,-372.8 365.87,-375.54"/>
</g>
<!-- Node17&#45;&gt;Node16 -->
<g id="edge19" class="edge">
<title>Node17&#45;&gt;Node16</title>
<path fill="none" stroke="midnightblue" d="M493.15,-642.07C491.7,-611.96 487.14,-574.39 474.81,-543 465,-518 448.3,-493.53 432.44,-473.75"/>
<polygon fill="none" stroke="midnightblue" points="489.66,-642.53 493.54,-652.39 496.66,-642.26 489.66,-642.53"/>
</g>
</g>
</svg>
