<?xml version="1.0" encoding="UTF-8" standalone="no"?>
<!DOCTYPE svg PUBLIC "-//W3C//DTD SVG 1.1//EN"
 "http://www.w3.org/Graphics/SVG/1.1/DTD/svg11.dtd">
<!-- Generated by graphviz version 2.43.0 (0)
 -->
<!-- Title: Ponca::limited_priority_queue&lt; T, CompareT &gt; Pages: 1 -->
<!--zoomable 579 -->

<svg id="main" version="1.1" xmlns="http://www.w3.org/2000/svg" xmlns:xlink="http://www.w3.org/1999/xlink" xml:space="preserve" onload="init(evt)">
<style type="text/css"><![CDATA[
.node, .edge {opacity: 0.7;}
.node.selected, .edge.selected {opacity: 1;}
.edge:hover path { stroke: red; }
.edge:hover polygon { stroke: red; fill: red; }
]]></style>

<defs>
  <circle id="rim" cx="0" cy="0" r="7"/>
  <circle id="rim2" cx="0" cy="0" r="3.5"/>
  <g id="zoomPlus">
    <use xlink:href="#rim" fill="#404040"><set attributeName="fill" to="#808080" begin="zoomplus.mouseover" end="zoomplus.mouseout"/></use>
    <path d="M-4,0h8M0,-4v8" fill="none" stroke="white" stroke-width="1.5" pointer-events="none"/>
  </g>
  <g id="zoomMin">
    <use xlink:href="#rim" fill="#404040"><set attributeName="fill" to="#808080" begin="zoomminus.mouseover" end="zoomminus.mouseout"/></use>
    <path d="M-4,0h8" fill="none" stroke="white" stroke-width="1.5" pointer-events="none"/>
  </g>
  <g id="arrowUp" transform="translate(30 24)">
    <use xlink:href="#rim"/>
    <path pointer-events="none" fill="none" stroke="white" stroke-width="1.5" d="M0,-3.0v7 M-2.5,-0.5L0,-3.0L2.5,-0.5"/>
  </g>
  <g id="arrowRight" transform="rotate(90) translate(36 -43)">
    <use xlink:href="#rim"/>
    <path pointer-events="none" fill="none" stroke="white" stroke-width="1.5" d="M0,-3.0v7 M-2.5,-0.5L0,-3.0L2.5,-0.5"/>
  </g>
  <g id="arrowDown" transform="rotate(180) translate(-30 -48)">
    <use xlink:href="#rim"/>
    <path pointer-events="none" fill="none" stroke="white" stroke-width="1.5" d="M0,-3.0v7 M-2.5,-0.5L0,-3.0L2.5,-0.5"/>
  </g>
  <g id="arrowLeft" transform="rotate(270) translate(-36 17)">
    <use xlink:href="#rim"/>
    <path pointer-events="none" fill="none" stroke="white" stroke-width="1.5" d="M0,-3.0v7 M-2.5,-0.5L0,-3.0L2.5,-0.5"/>
  </g>
  <g id="resetDef">
    <use xlink:href="#rim2" fill="#404040"><set attributeName="fill" to="#808080" begin="reset.mouseover" end="reset.mouseout"/></use>
  </g>
</defs>
<script type="application/ecmascript">
var viewWidth = 836;
var viewHeight = 579;
var sectionId = 'dynsection-0';
</script>
<script type="application/ecmascript" xlink:href="svg.min.js"/>
<svg id="graph" class="graph">
<g id="viewport">
<title>Ponca::limited_priority_queue&lt; T, CompareT &gt;</title>
<!-- Node1 -->
<g id="Node000001" class="node">
<title>Node1</title>
<g id="a_Node000001"><a xlink:title="The limited_priority_queue class is similar to std::priority_queue but has a limited capacity and han...">
<polygon fill="#999999" stroke="transparent" points="496,-571 348,-571 348,-331 496,-331 496,-571"/>
<text text-anchor="start" x="361.5" y="-559" font-family="Helvetica,sans-Serif" font-size="10.00">Ponca::limited_priority</text>
<text text-anchor="start" x="361.5" y="-548" font-family="Helvetica,sans-Serif" font-size="10.00">_queue&lt; T, CompareT &gt;</text>
<text text-anchor="start" x="352" y="-533" font-family="Helvetica,sans-Serif" font-size="10.00">#</text>
<text text-anchor="start" x="365" y="-533" font-family="Helvetica,sans-Serif" font-size="10.00">m_c</text>
<text text-anchor="start" x="352" y="-518" font-family="Helvetica,sans-Serif" font-size="10.00">#</text>
<text text-anchor="start" x="365" y="-518" font-family="Helvetica,sans-Serif" font-size="10.00">m_comp</text>
<text text-anchor="start" x="352" y="-503" font-family="Helvetica,sans-Serif" font-size="10.00">#</text>
<text text-anchor="start" x="365" y="-503" font-family="Helvetica,sans-Serif" font-size="10.00">m_size</text>
<text text-anchor="start" x="352" y="-488" font-family="Helvetica,sans-Serif" font-size="10.00">+</text>
<text text-anchor="start" x="365" y="-488" font-family="Helvetica,sans-Serif" font-size="10.00">limited_priority_queue()</text>
<text text-anchor="start" x="352" y="-473" font-family="Helvetica,sans-Serif" font-size="10.00">+</text>
<text text-anchor="start" x="365" y="-473" font-family="Helvetica,sans-Serif" font-size="10.00">limited_priority_queue()</text>
<text text-anchor="start" x="352" y="-458" font-family="Helvetica,sans-Serif" font-size="10.00">+</text>
<text text-anchor="start" x="365" y="-458" font-family="Helvetica,sans-Serif" font-size="10.00">limited_priority_queue()</text>
<text text-anchor="start" x="352" y="-443" font-family="Helvetica,sans-Serif" font-size="10.00">+</text>
<text text-anchor="start" x="365" y="-443" font-family="Helvetica,sans-Serif" font-size="10.00">limited_priority_queue()</text>
<text text-anchor="start" x="352" y="-428" font-family="Helvetica,sans-Serif" font-size="10.00">+</text>
<text text-anchor="start" x="365" y="-428" font-family="Helvetica,sans-Serif" font-size="10.00">~limited_priority_queue()</text>
<text text-anchor="start" x="352" y="-413" font-family="Helvetica,sans-Serif" font-size="10.00">+</text>
<text text-anchor="start" x="365" y="-413" font-family="Helvetica,sans-Serif" font-size="10.00">operator=()</text>
<text text-anchor="start" x="352" y="-398" font-family="Helvetica,sans-Serif" font-size="10.00">+</text>
<text text-anchor="start" x="365" y="-398" font-family="Helvetica,sans-Serif" font-size="10.00">begin()</text>
<text text-anchor="start" x="352" y="-383" font-family="Helvetica,sans-Serif" font-size="10.00">+</text>
<text text-anchor="start" x="365" y="-383" font-family="Helvetica,sans-Serif" font-size="10.00">begin()</text>
<text text-anchor="start" x="352" y="-368" font-family="Helvetica,sans-Serif" font-size="10.00">+</text>
<text text-anchor="start" x="365" y="-368" font-family="Helvetica,sans-Serif" font-size="10.00">cbegin()</text>
<text text-anchor="start" x="352" y="-353" font-family="Helvetica,sans-Serif" font-size="10.00">+</text>
<text text-anchor="start" x="365" y="-353" font-family="Helvetica,sans-Serif" font-size="10.00">end()</text>
<text text-anchor="start" x="365" y="-338" font-family="Helvetica,sans-Serif" font-size="10.00">and 16 more...</text>
<polygon fill="#666666" stroke="#666666" points="348,-543 348,-543 496,-543 496,-543 348,-543"/>
<polygon fill="#666666" stroke="#666666" points="348,-498 348,-498 363,-498 363,-498 348,-498"/>
<polygon fill="#666666" stroke="#666666" points="363,-498 363,-498 496,-498 496,-498 363,-498"/>
<polygon fill="none" stroke="#666666" points="348,-331 348,-571 496,-571 496,-331 348,-331"/>
</a>
</g>
</g>
<!-- Node2 -->
<g id="Node000002" class="node">
<title>Node2</title>
<g id="a_Node000002"><a xlink:href="classPonca_1_1limited__priority__queue.html" target="_top" xlink:title=" ">
<polygon fill="white" stroke="transparent" points="202,-256.5 0,-256.5 0,-5.5 202,-5.5 202,-256.5"/>
<text text-anchor="start" x="5" y="-244" font-family="Helvetica,sans-Serif" font-size="10.00">Ponca::limited_priority</text>
<text text-anchor="start" x="5" y="-233" font-family="Helvetica,sans-Serif" font-size="10.00">_queue&lt; Ponca::IndexSquaredDistance</text>
<text text-anchor="start" x="25.5" y="-222" font-family="Helvetica,sans-Serif" font-size="10.00">&lt; Index, DataPoint::Scalar &gt; &gt;</text>
<text text-anchor="start" x="17.5" y="-207" font-family="Helvetica,sans-Serif" font-size="10.00">#</text>
<text text-anchor="start" x="44" y="-207" font-family="Helvetica,sans-Serif" font-size="10.00">m_c</text>
<text text-anchor="start" x="17.5" y="-192" font-family="Helvetica,sans-Serif" font-size="10.00">#</text>
<text text-anchor="start" x="44" y="-192" font-family="Helvetica,sans-Serif" font-size="10.00">m_comp</text>
<text text-anchor="start" x="17.5" y="-177" font-family="Helvetica,sans-Serif" font-size="10.00">#</text>
<text text-anchor="start" x="44" y="-177" font-family="Helvetica,sans-Serif" font-size="10.00">m_size</text>
<text text-anchor="start" x="17.5" y="-162" font-family="Helvetica,sans-Serif" font-size="10.00">+</text>
<text text-anchor="start" x="44" y="-162" font-family="Helvetica,sans-Serif" font-size="10.00">limited_priority_queue()</text>
<text text-anchor="start" x="17.5" y="-147" font-family="Helvetica,sans-Serif" font-size="10.00">+</text>
<text text-anchor="start" x="44" y="-147" font-family="Helvetica,sans-Serif" font-size="10.00">limited_priority_queue()</text>
<text text-anchor="start" x="17.5" y="-132" font-family="Helvetica,sans-Serif" font-size="10.00">+</text>
<text text-anchor="start" x="44" y="-132" font-family="Helvetica,sans-Serif" font-size="10.00">limited_priority_queue()</text>
<text text-anchor="start" x="17.5" y="-117" font-family="Helvetica,sans-Serif" font-size="10.00">+</text>
<text text-anchor="start" x="44" y="-117" font-family="Helvetica,sans-Serif" font-size="10.00">limited_priority_queue()</text>
<text text-anchor="start" x="17.5" y="-102" font-family="Helvetica,sans-Serif" font-size="10.00">+</text>
<text text-anchor="start" x="44" y="-102" font-family="Helvetica,sans-Serif" font-size="10.00">~limited_priority_queue()</text>
<text text-anchor="start" x="17.5" y="-87" font-family="Helvetica,sans-Serif" font-size="10.00">+</text>
<text text-anchor="start" x="44" y="-87" font-family="Helvetica,sans-Serif" font-size="10.00">operator=()</text>
<text text-anchor="start" x="17.5" y="-72" font-family="Helvetica,sans-Serif" font-size="10.00">+</text>
<text text-anchor="start" x="44" y="-72" font-family="Helvetica,sans-Serif" font-size="10.00">begin()</text>
<text text-anchor="start" x="17.5" y="-57" font-family="Helvetica,sans-Serif" font-size="10.00">+</text>
<text text-anchor="start" x="44" y="-57" font-family="Helvetica,sans-Serif" font-size="10.00">begin()</text>
<text text-anchor="start" x="17.5" y="-42" font-family="Helvetica,sans-Serif" font-size="10.00">+</text>
<text text-anchor="start" x="44" y="-42" font-family="Helvetica,sans-Serif" font-size="10.00">cbegin()</text>
<text text-anchor="start" x="17.5" y="-27" font-family="Helvetica,sans-Serif" font-size="10.00">+</text>
<text text-anchor="start" x="44" y="-27" font-family="Helvetica,sans-Serif" font-size="10.00">end()</text>
<text text-anchor="start" x="44" y="-12" font-family="Helvetica,sans-Serif" font-size="10.00">and 16 more...</text>
<polygon fill="#666666" stroke="#666666" points="0,-217 0,-217 202,-217 202,-217 0,-217"/>
<polygon fill="#666666" stroke="#666666" points="0,-172 0,-172 42,-172 42,-172 0,-172"/>
<polygon fill="#666666" stroke="#666666" points="42,-172 42,-172 202,-172 202,-172 42,-172"/>
<polygon fill="none" stroke="#666666" points="0,-5.5 0,-256.5 202,-256.5 202,-5.5 0,-5.5"/>
</a>
</g>
</g>
<!-- Node1&#45;&gt;Node2 -->
<g id="edge1_Node000001_Node000002" class="edge">
<title>Node1&#45;&gt;Node2</title>
<g id="a_edge1_Node000001_Node000002"><a xlink:title=" ">
<path fill="none" stroke="orange" d="M338.26,-421.64C284.13,-399.54 215.71,-363.96 171,-313 156.67,-296.66 145.12,-277.07 135.85,-256.9"/>
<polygon fill="orange" stroke="orange" points="337.26,-425.01 347.84,-425.47 339.86,-418.51 337.26,-425.01"/>
</a>
</g>
<text text-anchor="start" x="171" y="-299.5" font-family="Helvetica,sans-Serif" font-size="10.00" fill="grey"> &lt; Ponca::IndexSquaredDistance</text>
<text text-anchor="middle" x="251" y="-288.5" font-family="Helvetica,sans-Serif" font-size="10.00" fill="grey">&lt; Index, DataPoint::Scalar &gt; &gt;</text>
</g>
<!-- Node3 -->
<g id="Node000003" class="node">
<title>Node3</title>
<g id="a_Node000003"><a xlink:href="classPonca_1_1limited__priority__queue.html" target="_top" xlink:title=" ">
<polygon fill="white" stroke="transparent" points="422,-262 220,-262 220,0 422,0 422,-262"/>
<text text-anchor="start" x="225" y="-250" font-family="Helvetica,sans-Serif" font-size="10.00">Ponca::limited_priority</text>
<text text-anchor="start" x="225" y="-239" font-family="Helvetica,sans-Serif" font-size="10.00">_queue&lt; Ponca::IndexSquaredDistance</text>
<text text-anchor="start" x="225" y="-228" font-family="Helvetica,sans-Serif" font-size="10.00">&lt; Traits::IndexType, Traits::DataPoint</text>
<text text-anchor="start" x="291.5" y="-217" font-family="Helvetica,sans-Serif" font-size="10.00">::Scalar &gt; &gt;</text>
<text text-anchor="start" x="237.5" y="-202" font-family="Helvetica,sans-Serif" font-size="10.00">#</text>
<text text-anchor="start" x="264" y="-202" font-family="Helvetica,sans-Serif" font-size="10.00">m_c</text>
<text text-anchor="start" x="237.5" y="-187" font-family="Helvetica,sans-Serif" font-size="10.00">#</text>
<text text-anchor="start" x="264" y="-187" font-family="Helvetica,sans-Serif" font-size="10.00">m_comp</text>
<text text-anchor="start" x="237.5" y="-172" font-family="Helvetica,sans-Serif" font-size="10.00">#</text>
<text text-anchor="start" x="264" y="-172" font-family="Helvetica,sans-Serif" font-size="10.00">m_size</text>
<text text-anchor="start" x="237.5" y="-157" font-family="Helvetica,sans-Serif" font-size="10.00">+</text>
<text text-anchor="start" x="264" y="-157" font-family="Helvetica,sans-Serif" font-size="10.00">limited_priority_queue()</text>
<text text-anchor="start" x="237.5" y="-142" font-family="Helvetica,sans-Serif" font-size="10.00">+</text>
<text text-anchor="start" x="264" y="-142" font-family="Helvetica,sans-Serif" font-size="10.00">limited_priority_queue()</text>
<text text-anchor="start" x="237.5" y="-127" font-family="Helvetica,sans-Serif" font-size="10.00">+</text>
<text text-anchor="start" x="264" y="-127" font-family="Helvetica,sans-Serif" font-size="10.00">limited_priority_queue()</text>
<text text-anchor="start" x="237.5" y="-112" font-family="Helvetica,sans-Serif" font-size="10.00">+</text>
<text text-anchor="start" x="264" y="-112" font-family="Helvetica,sans-Serif" font-size="10.00">limited_priority_queue()</text>
<text text-anchor="start" x="237.5" y="-97" font-family="Helvetica,sans-Serif" font-size="10.00">+</text>
<text text-anchor="start" x="264" y="-97" font-family="Helvetica,sans-Serif" font-size="10.00">~limited_priority_queue()</text>
<text text-anchor="start" x="237.5" y="-82" font-family="Helvetica,sans-Serif" font-size="10.00">+</text>
<text text-anchor="start" x="264" y="-82" font-family="Helvetica,sans-Serif" font-size="10.00">operator=()</text>
<text text-anchor="start" x="237.5" y="-67" font-family="Helvetica,sans-Serif" font-size="10.00">+</text>
<text text-anchor="start" x="264" y="-67" font-family="Helvetica,sans-Serif" font-size="10.00">begin()</text>
<text text-anchor="start" x="237.5" y="-52" font-family="Helvetica,sans-Serif" font-size="10.00">+</text>
<text text-anchor="start" x="264" y="-52" font-family="Helvetica,sans-Serif" font-size="10.00">begin()</text>
<text text-anchor="start" x="237.5" y="-37" font-family="Helvetica,sans-Serif" font-size="10.00">+</text>
<text text-anchor="start" x="264" y="-37" font-family="Helvetica,sans-Serif" font-size="10.00">cbegin()</text>
<text text-anchor="start" x="237.5" y="-22" font-family="Helvetica,sans-Serif" font-size="10.00">+</text>
<text text-anchor="start" x="264" y="-22" font-family="Helvetica,sans-Serif" font-size="10.00">end()</text>
<text text-anchor="start" x="264" y="-7" font-family="Helvetica,sans-Serif" font-size="10.00">and 16 more...</text>
<polygon fill="#666666" stroke="#666666" points="220,-212 220,-212 422,-212 422,-212 220,-212"/>
<polygon fill="#666666" stroke="#666666" points="220,-167 220,-167 262,-167 262,-167 220,-167"/>
<polygon fill="#666666" stroke="#666666" points="262,-167 262,-167 422,-167 422,-167 262,-167"/>
<polygon fill="none" stroke="#666666" points="220,0 220,-262 422,-262 422,0 220,0"/>
</a>
</g>
</g>
<!-- Node1&#45;&gt;Node3 -->
<g id="edge2_Node000001_Node000003" class="edge">
<title>Node1&#45;&gt;Node3</title>
<g id="a_edge2_Node000001_Node000003"><a xlink:title=" ">
<path fill="none" stroke="orange" d="M344.93,-321.28C343.9,-318.52 342.92,-315.76 342,-313 336.64,-296.95 332.61,-279.7 329.58,-262.45"/>
<polygon fill="orange" stroke="orange" points="341.71,-322.65 348.64,-330.66 348.22,-320.07 341.71,-322.65"/>
</a>
</g>
<text text-anchor="start" x="342" y="-305" font-family="Helvetica,sans-Serif" font-size="10.00" fill="grey"> &lt; Ponca::IndexSquaredDistance</text>
<text text-anchor="start" x="342" y="-294" font-family="Helvetica,sans-Serif" font-size="10.00" fill="grey">&lt; Traits::IndexType, Traits</text>
<text text-anchor="middle" x="422" y="-283" font-family="Helvetica,sans-Serif" font-size="10.00" fill="grey">::DataPoint::Scalar &gt; &gt;</text>
</g>
<!-- Node4 -->
<g id="Node000004" class="node">
<title>Node4</title>
<g id="a_Node000004"><a xlink:href="classPonca_1_1limited__priority__queue.html" target="_top" xlink:title=" ">
<polygon fill="white" stroke="transparent" points="607.5,-256.5 440.5,-256.5 440.5,-5.5 607.5,-5.5 607.5,-256.5"/>
<text text-anchor="start" x="446" y="-244" font-family="Helvetica,sans-Serif" font-size="10.00">Ponca::limited_priority</text>
<text text-anchor="start" x="446" y="-233" font-family="Helvetica,sans-Serif" font-size="10.00">_queue&lt; IndexSquaredDistance</text>
<text text-anchor="start" x="476" y="-222" font-family="Helvetica,sans-Serif" font-size="10.00">&lt; Index, Scalar &gt; &gt;</text>
<text text-anchor="start" x="449.5" y="-207" font-family="Helvetica,sans-Serif" font-size="10.00">#</text>
<text text-anchor="start" x="467" y="-207" font-family="Helvetica,sans-Serif" font-size="10.00">m_c</text>
<text text-anchor="start" x="449.5" y="-192" font-family="Helvetica,sans-Serif" font-size="10.00">#</text>
<text text-anchor="start" x="467" y="-192" font-family="Helvetica,sans-Serif" font-size="10.00">m_comp</text>
<text text-anchor="start" x="449.5" y="-177" font-family="Helvetica,sans-Serif" font-size="10.00">#</text>
<text text-anchor="start" x="467" y="-177" font-family="Helvetica,sans-Serif" font-size="10.00">m_size</text>
<text text-anchor="start" x="449.5" y="-162" font-family="Helvetica,sans-Serif" font-size="10.00">+</text>
<text text-anchor="start" x="467" y="-162" font-family="Helvetica,sans-Serif" font-size="10.00">limited_priority_queue()</text>
<text text-anchor="start" x="449.5" y="-147" font-family="Helvetica,sans-Serif" font-size="10.00">+</text>
<text text-anchor="start" x="467" y="-147" font-family="Helvetica,sans-Serif" font-size="10.00">limited_priority_queue()</text>
<text text-anchor="start" x="449.5" y="-132" font-family="Helvetica,sans-Serif" font-size="10.00">+</text>
<text text-anchor="start" x="467" y="-132" font-family="Helvetica,sans-Serif" font-size="10.00">limited_priority_queue()</text>
<text text-anchor="start" x="449.5" y="-117" font-family="Helvetica,sans-Serif" font-size="10.00">+</text>
<text text-anchor="start" x="467" y="-117" font-family="Helvetica,sans-Serif" font-size="10.00">limited_priority_queue()</text>
<text text-anchor="start" x="449.5" y="-102" font-family="Helvetica,sans-Serif" font-size="10.00">+</text>
<text text-anchor="start" x="467" y="-102" font-family="Helvetica,sans-Serif" font-size="10.00">~limited_priority_queue()</text>
<text text-anchor="start" x="449.5" y="-87" font-family="Helvetica,sans-Serif" font-size="10.00">+</text>
<text text-anchor="start" x="467" y="-87" font-family="Helvetica,sans-Serif" font-size="10.00">operator=()</text>
<text text-anchor="start" x="449.5" y="-72" font-family="Helvetica,sans-Serif" font-size="10.00">+</text>
<text text-anchor="start" x="467" y="-72" font-family="Helvetica,sans-Serif" font-size="10.00">begin()</text>
<text text-anchor="start" x="449.5" y="-57" font-family="Helvetica,sans-Serif" font-size="10.00">+</text>
<text text-anchor="start" x="467" y="-57" font-family="Helvetica,sans-Serif" font-size="10.00">begin()</text>
<text text-anchor="start" x="449.5" y="-42" font-family="Helvetica,sans-Serif" font-size="10.00">+</text>
<text text-anchor="start" x="467" y="-42" font-family="Helvetica,sans-Serif" font-size="10.00">cbegin()</text>
<text text-anchor="start" x="449.5" y="-27" font-family="Helvetica,sans-Serif" font-size="10.00">+</text>
<text text-anchor="start" x="467" y="-27" font-family="Helvetica,sans-Serif" font-size="10.00">end()</text>
<text text-anchor="start" x="467" y="-12" font-family="Helvetica,sans-Serif" font-size="10.00">and 16 more...</text>
<polygon fill="#666666" stroke="#666666" points="441,-217 441,-217 608,-217 608,-217 441,-217"/>
<polygon fill="#666666" stroke="#666666" points="441,-172 441,-172 465,-172 465,-172 441,-172"/>
<polygon fill="#666666" stroke="#666666" points="465,-172 465,-172 608,-172 608,-172 465,-172"/>
<polygon fill="none" stroke="#666666" points="440.5,-5.5 440.5,-256.5 607.5,-256.5 607.5,-5.5 440.5,-5.5"/>
</a>
</g>
</g>
<!-- Node1&#45;&gt;Node4 -->
<g id="edge3_Node000001_Node000004" class="edge">
<title>Node1&#45;&gt;Node4</title>
<g id="a_edge3_Node000001_Node000004"><a xlink:title=" ">
<path fill="none" stroke="orange" d="M499.05,-321.27C500.09,-318.51 501.07,-315.75 502,-313 508.01,-295.15 512.41,-275.82 515.63,-256.66"/>
<polygon fill="orange" stroke="orange" points="495.76,-320.06 495.32,-330.65 502.27,-322.65 495.76,-320.06"/>
</a>
</g>
<text text-anchor="start" x="511" y="-299.5" font-family="Helvetica,sans-Serif" font-size="10.00" fill="grey"> &lt; IndexSquaredDistance</text>
<text text-anchor="middle" x="573" y="-288.5" font-family="Helvetica,sans-Serif" font-size="10.00" fill="grey">&lt; Index, Scalar &gt; &gt;</text>
</g>
<!-- Node5 -->
<g id="Node000005" class="node">
<title>Node5</title>
<g id="a_Node000005"><a xlink:href="classPonca_1_1limited__priority__queue.html" target="_top" xlink:title=" ">
<polygon fill="white" stroke="transparent" points="828,-256.5 626,-256.5 626,-5.5 828,-5.5 828,-256.5"/>
<text text-anchor="start" x="631" y="-244" font-family="Helvetica,sans-Serif" font-size="10.00">Ponca::limited_priority</text>
<text text-anchor="start" x="631" y="-233" font-family="Helvetica,sans-Serif" font-size="10.00">_queue&lt; Ponca::IndexSquaredDistance</text>
<text text-anchor="start" x="678.5" y="-222" font-family="Helvetica,sans-Serif" font-size="10.00">&lt; Index, Scalar &gt; &gt;</text>
<text text-anchor="start" x="643.5" y="-207" font-family="Helvetica,sans-Serif" font-size="10.00">#</text>
<text text-anchor="start" x="670" y="-207" font-family="Helvetica,sans-Serif" font-size="10.00">m_c</text>
<text text-anchor="start" x="643.5" y="-192" font-family="Helvetica,sans-Serif" font-size="10.00">#</text>
<text text-anchor="start" x="670" y="-192" font-family="Helvetica,sans-Serif" font-size="10.00">m_comp</text>
<text text-anchor="start" x="643.5" y="-177" font-family="Helvetica,sans-Serif" font-size="10.00">#</text>
<text text-anchor="start" x="670" y="-177" font-family="Helvetica,sans-Serif" font-size="10.00">m_size</text>
<text text-anchor="start" x="643.5" y="-162" font-family="Helvetica,sans-Serif" font-size="10.00">+</text>
<text text-anchor="start" x="670" y="-162" font-family="Helvetica,sans-Serif" font-size="10.00">limited_priority_queue()</text>
<text text-anchor="start" x="643.5" y="-147" font-family="Helvetica,sans-Serif" font-size="10.00">+</text>
<text text-anchor="start" x="670" y="-147" font-family="Helvetica,sans-Serif" font-size="10.00">limited_priority_queue()</text>
<text text-anchor="start" x="643.5" y="-132" font-family="Helvetica,sans-Serif" font-size="10.00">+</text>
<text text-anchor="start" x="670" y="-132" font-family="Helvetica,sans-Serif" font-size="10.00">limited_priority_queue()</text>
<text text-anchor="start" x="643.5" y="-117" font-family="Helvetica,sans-Serif" font-size="10.00">+</text>
<text text-anchor="start" x="670" y="-117" font-family="Helvetica,sans-Serif" font-size="10.00">limited_priority_queue()</text>
<text text-anchor="start" x="643.5" y="-102" font-family="Helvetica,sans-Serif" font-size="10.00">+</text>
<text text-anchor="start" x="670" y="-102" font-family="Helvetica,sans-Serif" font-size="10.00">~limited_priority_queue()</text>
<text text-anchor="start" x="643.5" y="-87" font-family="Helvetica,sans-Serif" font-size="10.00">+</text>
<text text-anchor="start" x="670" y="-87" font-family="Helvetica,sans-Serif" font-size="10.00">operator=()</text>
<text text-anchor="start" x="643.5" y="-72" font-family="Helvetica,sans-Serif" font-size="10.00">+</text>
<text text-anchor="start" x="670" y="-72" font-family="Helvetica,sans-Serif" font-size="10.00">begin()</text>
<text text-anchor="start" x="643.5" y="-57" font-family="Helvetica,sans-Serif" font-size="10.00">+</text>
<text text-anchor="start" x="670" y="-57" font-family="Helvetica,sans-Serif" font-size="10.00">begin()</text>
<text text-anchor="start" x="643.5" y="-42" font-family="Helvetica,sans-Serif" font-size="10.00">+</text>
<text text-anchor="start" x="670" y="-42" font-family="Helvetica,sans-Serif" font-size="10.00">cbegin()</text>
<text text-anchor="start" x="643.5" y="-27" font-family="Helvetica,sans-Serif" font-size="10.00">+</text>
<text text-anchor="start" x="670" y="-27" font-family="Helvetica,sans-Serif" font-size="10.00">end()</text>
<text text-anchor="start" x="670" y="-12" font-family="Helvetica,sans-Serif" font-size="10.00">and 16 more...</text>
<polygon fill="#666666" stroke="#666666" points="626,-217 626,-217 828,-217 828,-217 626,-217"/>
<polygon fill="#666666" stroke="#666666" points="626,-172 626,-172 668,-172 668,-172 626,-172"/>
<polygon fill="#666666" stroke="#666666" points="668,-172 668,-172 828,-172 828,-172 668,-172"/>
<polygon fill="none" stroke="#666666" points="626,-5.5 626,-256.5 828,-256.5 828,-5.5 626,-5.5"/>
</a>
</g>
</g>
<!-- Node1&#45;&gt;Node5 -->
<g id="edge4_Node000001_Node000005" class="edge">
<title>Node1&#45;&gt;Node5</title>
<g id="a_edge4_Node000001_Node000005"><a xlink:title=" ">
<path fill="none" stroke="orange" d="M505,-411.76C549.14,-388.2 601.82,-354.54 639,-313 653.91,-296.34 666.87,-276.69 677.92,-256.6"/>
<polygon fill="orange" stroke="orange" points="503.23,-408.74 496,-416.49 506.48,-414.94 503.23,-408.74"/>
</a>
</g>
<text text-anchor="start" x="662" y="-299.5" font-family="Helvetica,sans-Serif" font-size="10.00" fill="grey"> &lt; Ponca::IndexSquaredDistance</text>
<text text-anchor="middle" x="742" y="-288.5" font-family="Helvetica,sans-Serif" font-size="10.00" fill="grey">&lt; Index, Scalar &gt; &gt;</text>
</g>
</g>
</svg>

<g id="navigator" transform="translate(0 0)" fill="#404254">
  <rect fill="#f2f5e9" fill-opacity="0.5" stroke="#606060" stroke-width=".5" x="0" y="0" width="60" height="60"/>
  <use id="zoomplus" xlink:href="#zoomPlus" x="17" y="9" onmousedown="handleZoom(evt,'in')"/>
  <use id="zoomminus" xlink:href="#zoomMin" x="42" y="9" onmousedown="handleZoom(evt,'out')"/>
  <use id="reset" xlink:href="#resetDef" x="30" y="36" onmousedown="handleReset()"/>
   <use id="arrowup" xlink:href="#arrowUp" x="0" y="0" onmousedown="handlePan(0,-1)"/>
  <use id="arrowright" xlink:href="#arrowRight" x="0" y="0" onmousedown="handlePan(1,0)"/>
  <use id="arrowdown" xlink:href="#arrowDown" x="0" y="0" onmousedown="handlePan(0,1)"/>
  <use id="arrowleft" xlink:href="#arrowLeft" x="0" y="0" onmousedown="handlePan(-1,0)"/>
</g>
<svg viewBox="0 0 15 15" width="100%" height="30px" preserveAspectRatio="xMaxYMin meet">
 <g id="arrow_out" transform="scale(0.3 0.3)">
  <a xlink:href="classPonca_1_1limited__priority__queue__inherit__graph_org.svg" target="_base">
   <rect id="button" ry="5" rx="5" y="6" x="6" height="38" width="38"
        fill="#f2f5e9" fill-opacity="0.5" stroke="#606060" stroke-width="1.0"/>
   <path id="arrow"
     d="M 11.500037,31.436501 C 11.940474,20.09759 22.043105,11.32322 32.158766,21.979434 L 37.068811,17.246167 C 37.068811,17.246167 37.088388,32 37.088388,32 L 22.160133,31.978069 C 22.160133,31.978069 26.997745,27.140456 26.997745,27.140456 C 18.528582,18.264221 13.291696,25.230495 11.500037,31.436501 z"
     style="fill:#404040;"/>
  </a>
 </g>
</svg>

<style type='text/css'>
<![CDATA[
[data-mouse-over-selected='false'] { opacity: 0.7; }
[data-mouse-over-selected='true']  { opacity: 1.0; }
]]>
</style>
<script type="application/ecmascript"><![CDATA[
document.addEventListener('DOMContentLoaded', (event) => {
  highlightEdges();
  highlightAdjacentNodes();
});
]]></script>
</svg>
