<?xml version="1.0" encoding="UTF-8" standalone="no"?>
<!DOCTYPE svg PUBLIC "-//W3C//DTD SVG 1.1//EN"
 "http://www.w3.org/Graphics/SVG/1.1/DTD/svg11.dtd">
<!-- Generated by graphviz version 2.43.0 (0)
 -->
<!-- Title: Ponca::KdTreeKNearestQueryBase&lt; Traits, IteratorType, QueryType &gt; Pages: 1 -->
<svg width="488pt" height="1111pt"
 viewBox="0.00 0.00 487.50 1111.00" xmlns="http://www.w3.org/2000/svg" xmlns:xlink="http://www.w3.org/1999/xlink">
<g id="graph0" class="graph" transform="scale(1 1) rotate(0) translate(4 1107)">
<title>Ponca::KdTreeKNearestQueryBase&lt; Traits, IteratorType, QueryType &gt;</title>
<!-- Node1 -->
<g id="Node000001" class="node">
<title>Node1</title>
<g id="a_Node000001"><a xlink:title=" ">
<polygon fill="#999999" stroke="transparent" points="334.5,-116 174.5,-116 174.5,0 334.5,0 334.5,-116"/>
<text text-anchor="start" x="183" y="-104" font-family="Helvetica,sans-Serif" font-size="10.00">Ponca::KdTreeKNearestQuery</text>
<text text-anchor="start" x="183" y="-93" font-family="Helvetica,sans-Serif" font-size="10.00">Base&lt; Traits, IteratorType,</text>
<text text-anchor="start" x="221" y="-82" font-family="Helvetica,sans-Serif" font-size="10.00"> QueryType &gt;</text>
<text text-anchor="start" x="252.5" y="-67" font-family="Helvetica,sans-Serif" font-size="10.00"> </text>
<text text-anchor="start" x="178.5" y="-52" font-family="Helvetica,sans-Serif" font-size="10.00">+</text>
<text text-anchor="start" x="191.5" y="-52" font-family="Helvetica,sans-Serif" font-size="10.00">KdTreeKNearestQueryBase()</text>
<text text-anchor="start" x="178.5" y="-37" font-family="Helvetica,sans-Serif" font-size="10.00">+</text>
<text text-anchor="start" x="191.5" y="-37" font-family="Helvetica,sans-Serif" font-size="10.00">begin()</text>
<text text-anchor="start" x="178.5" y="-22" font-family="Helvetica,sans-Serif" font-size="10.00">+</text>
<text text-anchor="start" x="191.5" y="-22" font-family="Helvetica,sans-Serif" font-size="10.00">end()</text>
<text text-anchor="start" x="178.5" y="-7" font-family="Helvetica,sans-Serif" font-size="10.00">#</text>
<text text-anchor="start" x="191.5" y="-7" font-family="Helvetica,sans-Serif" font-size="10.00">search()</text>
<polygon fill="#666666" stroke="#666666" points="174.5,-77 174.5,-77 334.5,-77 334.5,-77 174.5,-77"/>
<polygon fill="#666666" stroke="#666666" points="174.5,-62 174.5,-62 334.5,-62 334.5,-62 174.5,-62"/>
<polygon fill="none" stroke="#666666" points="174.5,0 174.5,-116 334.5,-116 334.5,0 174.5,0"/>
</a>
</g>
</g>
<!-- Node2 -->
<g id="Node000002" class="node">
<title>Node2</title>
<g id="a_Node000002"><a xlink:href="classPonca_1_1KdTreeQuery.html" target="_top" xlink:title=" ">
<polygon fill="white" stroke="transparent" points="257.5,-243 149.5,-243 149.5,-153 257.5,-153 257.5,-243"/>
<text text-anchor="start" x="154.5" y="-231" font-family="Helvetica,sans-Serif" font-size="10.00">Ponca::KdTreeQuery</text>
<text text-anchor="start" x="179" y="-220" font-family="Helvetica,sans-Serif" font-size="10.00">&lt; Traits &gt;</text>
<text text-anchor="start" x="154.5" y="-205" font-family="Helvetica,sans-Serif" font-size="10.00">#</text>
<text text-anchor="start" x="168.5" y="-205" font-family="Helvetica,sans-Serif" font-size="10.00">m_kdtree</text>
<text text-anchor="start" x="154.5" y="-190" font-family="Helvetica,sans-Serif" font-size="10.00">+</text>
<text text-anchor="start" x="168.5" y="-190" font-family="Helvetica,sans-Serif" font-size="10.00">KdTreeQuery()</text>
<text text-anchor="start" x="154.5" y="-175" font-family="Helvetica,sans-Serif" font-size="10.00">#</text>
<text text-anchor="start" x="168.5" y="-175" font-family="Helvetica,sans-Serif" font-size="10.00">reset()</text>
<text text-anchor="start" x="154.5" y="-160" font-family="Helvetica,sans-Serif" font-size="10.00">#</text>
<text text-anchor="start" x="168.5" y="-160" font-family="Helvetica,sans-Serif" font-size="10.00">search_internal()</text>
<polygon fill="#bfbfbf" stroke="#bfbfbf" points="149.5,-215 149.5,-215 257.5,-215 257.5,-215 149.5,-215"/>
<polygon fill="#bfbfbf" stroke="#bfbfbf" points="149.5,-200 149.5,-200 166.5,-200 166.5,-200 149.5,-200"/>
<polygon fill="#bfbfbf" stroke="#bfbfbf" points="166.5,-200 166.5,-200 257.5,-200 257.5,-200 166.5,-200"/>
<polygon fill="none" stroke="#bfbfbf" points="149.5,-153 149.5,-243 257.5,-243 257.5,-153 149.5,-153"/>
</a>
</g>
</g>
<!-- Node2&#45;&gt;Node1 -->
<g id="edge1_Node000001_Node000002" class="edge">
<title>Node2&#45;&gt;Node1</title>
<g id="a_edge1_Node000001_Node000002"><a xlink:title=" ">
<path fill="none" stroke="#63b8ff" d="M223.29,-143.45C226.59,-134.53 230.02,-125.25 233.35,-116.24"/>
<polygon fill="none" stroke="#63b8ff" points="219.96,-142.36 219.78,-152.96 226.53,-144.79 219.96,-142.36"/>
</a>
</g>
</g>
<!-- Node3 -->
<g id="Node000003" class="node">
<title>Node3</title>
<g id="a_Node000003"><a xlink:href="classPonca_1_1Stack.html" target="_top" xlink:title=" ">
<polygon fill="white" stroke="transparent" points="269.5,-492 137.5,-492 137.5,-290 269.5,-290 269.5,-492"/>
<text text-anchor="start" x="142.5" y="-480" font-family="Helvetica,sans-Serif" font-size="10.00">Ponca::Stack&lt; Ponca</text>
<text text-anchor="start" x="142.5" y="-469" font-family="Helvetica,sans-Serif" font-size="10.00">::IndexSquaredDistance</text>
<text text-anchor="start" x="142.5" y="-458" font-family="Helvetica,sans-Serif" font-size="10.00">&lt; IndexType, Scalar &gt;,</text>
<text text-anchor="start" x="142.5" y="-447" font-family="Helvetica,sans-Serif" font-size="10.00"> 2 *Traits::MAX_DEPTH &gt;</text>
<text text-anchor="start" x="159" y="-432" font-family="Helvetica,sans-Serif" font-size="10.00">#</text>
<text text-anchor="start" x="189.5" y="-432" font-family="Helvetica,sans-Serif" font-size="10.00">m_size</text>
<text text-anchor="start" x="159" y="-417" font-family="Helvetica,sans-Serif" font-size="10.00">+</text>
<text text-anchor="start" x="189.5" y="-417" font-family="Helvetica,sans-Serif" font-size="10.00">Stack()</text>
<text text-anchor="start" x="159" y="-402" font-family="Helvetica,sans-Serif" font-size="10.00">+</text>
<text text-anchor="start" x="189.5" y="-402" font-family="Helvetica,sans-Serif" font-size="10.00">top()</text>
<text text-anchor="start" x="159" y="-387" font-family="Helvetica,sans-Serif" font-size="10.00">+</text>
<text text-anchor="start" x="189.5" y="-387" font-family="Helvetica,sans-Serif" font-size="10.00">top()</text>
<text text-anchor="start" x="159" y="-372" font-family="Helvetica,sans-Serif" font-size="10.00">+</text>
<text text-anchor="start" x="189.5" y="-372" font-family="Helvetica,sans-Serif" font-size="10.00">empty()</text>
<text text-anchor="start" x="159" y="-357" font-family="Helvetica,sans-Serif" font-size="10.00">+</text>
<text text-anchor="start" x="189.5" y="-357" font-family="Helvetica,sans-Serif" font-size="10.00">size()</text>
<text text-anchor="start" x="159" y="-342" font-family="Helvetica,sans-Serif" font-size="10.00">+</text>
<text text-anchor="start" x="189.5" y="-342" font-family="Helvetica,sans-Serif" font-size="10.00">push()</text>
<text text-anchor="start" x="159" y="-327" font-family="Helvetica,sans-Serif" font-size="10.00">+</text>
<text text-anchor="start" x="189.5" y="-327" font-family="Helvetica,sans-Serif" font-size="10.00">push()</text>
<text text-anchor="start" x="159" y="-312" font-family="Helvetica,sans-Serif" font-size="10.00">+</text>
<text text-anchor="start" x="189.5" y="-312" font-family="Helvetica,sans-Serif" font-size="10.00">pop()</text>
<text text-anchor="start" x="159" y="-297" font-family="Helvetica,sans-Serif" font-size="10.00">+</text>
<text text-anchor="start" x="189.5" y="-297" font-family="Helvetica,sans-Serif" font-size="10.00">clear()</text>
<polygon fill="#666666" stroke="#666666" points="137.5,-442 137.5,-442 269.5,-442 269.5,-442 137.5,-442"/>
<polygon fill="#666666" stroke="#666666" points="137.5,-427 137.5,-427 187.5,-427 187.5,-427 137.5,-427"/>
<polygon fill="#666666" stroke="#666666" points="187.5,-427 187.5,-427 269.5,-427 269.5,-427 187.5,-427"/>
<polygon fill="none" stroke="#666666" points="137.5,-290 137.5,-492 269.5,-492 269.5,-290 137.5,-290"/>
</a>
</g>
</g>
<!-- Node3&#45;&gt;Node2 -->
<g id="edge2_Node000002_Node000003" class="edge">
<title>Node3&#45;&gt;Node2</title>
<g id="a_edge2_Node000002_Node000003"><a xlink:title=" ">
<path fill="none" stroke="#63b8ff" d="M203.5,-289.75C203.5,-277.96 203.5,-266.28 203.5,-255.41"/>
<polygon fill="none" stroke="#63b8ff" points="203.5,-255.07 199.5,-249.07 203.5,-243.07 207.5,-249.07 203.5,-255.07"/>
</a>
</g>
<text text-anchor="middle" x="230" y="-264" font-family="Helvetica,sans-Serif" font-size="10.00" fill="grey"> #m_stack</text>
</g>
<!-- Node4 -->
<g id="Node000004" class="node">
<title>Node4</title>
<g id="a_Node000004"><a xlink:title=" ">
<polygon fill="white" stroke="transparent" points="230,-848 87,-848 87,-777 230,-777 230,-848"/>
<text text-anchor="start" x="92.5" y="-835.5" font-family="Helvetica,sans-Serif" font-size="10.00">std::array&lt; Ponca::</text>
<text text-anchor="start" x="92.5" y="-824.5" font-family="Helvetica,sans-Serif" font-size="10.00">IndexSquaredDistance</text>
<text text-anchor="start" x="92.5" y="-813.5" font-family="Helvetica,sans-Serif" font-size="10.00">&lt; IndexType, Scalar &gt;, N &gt;</text>
<text text-anchor="start" x="157" y="-798.5" font-family="Helvetica,sans-Serif" font-size="10.00"> </text>
<text text-anchor="start" x="157" y="-783.5" font-family="Helvetica,sans-Serif" font-size="10.00"> </text>
<polygon fill="#666666" stroke="#666666" points="87.5,-808.5 87.5,-808.5 230.5,-808.5 230.5,-808.5 87.5,-808.5"/>
<polygon fill="#666666" stroke="#666666" points="87.5,-793.5 87.5,-793.5 230.5,-793.5 230.5,-793.5 87.5,-793.5"/>
<polygon fill="none" stroke="#666666" points="87,-777 87,-848 230,-848 230,-777 87,-777"/>
</a>
</g>
</g>
<!-- Node4&#45;&gt;Node3 -->
<g id="edge3_Node000003_Node000004" class="edge">
<title>Node4&#45;&gt;Node3</title>
<g id="a_edge3_Node000003_Node000004"><a xlink:title=" ">
<path fill="none" stroke="#63b8ff" d="M162.22,-776.81C168.56,-717.73 181.71,-595.13 191.47,-504.1"/>
<polygon fill="none" stroke="#63b8ff" points="191.49,-503.98 188.15,-497.58 192.77,-492.04 196.11,-498.44 191.49,-503.98"/>
</a>
</g>
<text text-anchor="middle" x="210" y="-643" font-family="Helvetica,sans-Serif" font-size="10.00" fill="grey"> #m_data</text>
</g>
<!-- Node5 -->
<g id="Node000005" class="node">
<title>Node5</title>
<g id="a_Node000005"><a xlink:href="structPonca_1_1IndexSquaredDistance.html" target="_top" xlink:title=" ">
<polygon fill="white" stroke="transparent" points="155,-981 0,-981 0,-906 155,-906 155,-981"/>
<text text-anchor="start" x="5.5" y="-968.5" font-family="Helvetica,sans-Serif" font-size="10.00">Ponca::IndexSquaredDistance</text>
<text text-anchor="start" x="23.5" y="-957.5" font-family="Helvetica,sans-Serif" font-size="10.00">&lt; IndexType, Scalar &gt;</text>
<text text-anchor="start" x="16.5" y="-942.5" font-family="Helvetica,sans-Serif" font-size="10.00">+</text>
<text text-anchor="start" x="41.5" y="-942.5" font-family="Helvetica,sans-Serif" font-size="10.00">index</text>
<text text-anchor="start" x="16.5" y="-927.5" font-family="Helvetica,sans-Serif" font-size="10.00">+</text>
<text text-anchor="start" x="41.5" y="-927.5" font-family="Helvetica,sans-Serif" font-size="10.00">squared_distance</text>
<text text-anchor="start" x="16.5" y="-912.5" font-family="Helvetica,sans-Serif" font-size="10.00">+</text>
<text text-anchor="start" x="41.5" y="-912.5" font-family="Helvetica,sans-Serif" font-size="10.00">operator&lt;()</text>
<polygon fill="#666666" stroke="#666666" points="0.5,-952.5 0.5,-952.5 155.5,-952.5 155.5,-952.5 0.5,-952.5"/>
<polygon fill="#666666" stroke="#666666" points="0.5,-922.5 0.5,-922.5 39.5,-922.5 39.5,-922.5 0.5,-922.5"/>
<polygon fill="#666666" stroke="#666666" points="39.5,-922.5 39.5,-922.5 155.5,-922.5 155.5,-922.5 39.5,-922.5"/>
<polygon fill="none" stroke="#666666" points="0,-906 0,-981 155,-981 155,-906 0,-906"/>
</a>
</g>
</g>
<!-- Node5&#45;&gt;Node4 -->
<g id="edge4_Node000004_Node000005" class="edge">
<title>Node5&#45;&gt;Node4</title>
<g id="a_edge4_Node000004_Node000005"><a xlink:title=" ">
<path fill="none" stroke="#63b8ff" d="M71.08,-905.65C70.5,-892.44 71.99,-877.88 78.5,-866 80.18,-862.93 82.14,-860 84.3,-857.23"/>
<polygon fill="none" stroke="#63b8ff" points="84.3,-857.22 85.38,-850.09 92.37,-848.34 91.3,-855.48 84.3,-857.22"/>
</a>
</g>
<text text-anchor="middle" x="107.5" y="-874.5" font-family="Helvetica,sans-Serif" font-size="10.00" fill="grey"> +elements</text>
</g>
<!-- Node6 -->
<g id="Node000006" class="node">
<title>Node6</title>
<g id="a_Node000006"><a xlink:href="structPonca_1_1IndexSquaredDistance.html" target="_top" xlink:title="Associates an index with a distance.">
<polygon fill="white" stroke="transparent" points="155,-1103 0,-1103 0,-1028 155,-1028 155,-1103"/>
<text text-anchor="start" x="5.5" y="-1090.5" font-family="Helvetica,sans-Serif" font-size="10.00">Ponca::IndexSquaredDistance</text>
<text text-anchor="start" x="35" y="-1079.5" font-family="Helvetica,sans-Serif" font-size="10.00">&lt; Index, Scalar &gt;</text>
<text text-anchor="start" x="16.5" y="-1064.5" font-family="Helvetica,sans-Serif" font-size="10.00">+</text>
<text text-anchor="start" x="41.5" y="-1064.5" font-family="Helvetica,sans-Serif" font-size="10.00">index</text>
<text text-anchor="start" x="16.5" y="-1049.5" font-family="Helvetica,sans-Serif" font-size="10.00">+</text>
<text text-anchor="start" x="41.5" y="-1049.5" font-family="Helvetica,sans-Serif" font-size="10.00">squared_distance</text>
<text text-anchor="start" x="16.5" y="-1034.5" font-family="Helvetica,sans-Serif" font-size="10.00">+</text>
<text text-anchor="start" x="41.5" y="-1034.5" font-family="Helvetica,sans-Serif" font-size="10.00">operator&lt;()</text>
<polygon fill="#666666" stroke="#666666" points="0.5,-1074.5 0.5,-1074.5 155.5,-1074.5 155.5,-1074.5 0.5,-1074.5"/>
<polygon fill="#666666" stroke="#666666" points="0.5,-1044.5 0.5,-1044.5 39.5,-1044.5 39.5,-1044.5 0.5,-1044.5"/>
<polygon fill="#666666" stroke="#666666" points="39.5,-1044.5 39.5,-1044.5 155.5,-1044.5 155.5,-1044.5 39.5,-1044.5"/>
<polygon fill="none" stroke="#666666" points="0,-1028 0,-1103 155,-1103 155,-1028 0,-1028"/>
</a>
</g>
</g>
<!-- Node6&#45;&gt;Node5 -->
<g id="edge5_Node000005_Node000006" class="edge">
<title>Node6&#45;&gt;Node5</title>
<g id="a_edge5_Node000005_Node000006"><a xlink:title=" ">
<path fill="none" stroke="orange" d="M77.5,-1017.53C77.5,-1005.51 77.5,-992.77 77.5,-981.35"/>
<polygon fill="orange" stroke="orange" points="74,-1017.84 77.5,-1027.84 81,-1017.84 74,-1017.84"/>
</a>
</g>
<text text-anchor="middle" x="133.5" y="-1002" font-family="Helvetica,sans-Serif" font-size="10.00" fill="grey"> &lt; IndexType, Scalar &gt;</text>
</g>
<!-- Node7 -->
<g id="Node000007" class="node">
<title>Node7</title>
<g id="a_Node000007"><a xlink:title=" ">
<polygon fill="white" stroke="transparent" points="366.5,-968 280.5,-968 280.5,-919 366.5,-919 366.5,-968"/>
<text text-anchor="start" x="285.5" y="-955.5" font-family="Helvetica,sans-Serif" font-size="10.00">std::array&lt; T &gt;</text>
<text text-anchor="start" x="321.5" y="-940.5" font-family="Helvetica,sans-Serif" font-size="10.00"> </text>
<text text-anchor="start" x="321.5" y="-925.5" font-family="Helvetica,sans-Serif" font-size="10.00"> </text>
<polygon fill="#666666" stroke="#666666" points="280.5,-950.5 280.5,-950.5 366.5,-950.5 366.5,-950.5 280.5,-950.5"/>
<polygon fill="#666666" stroke="#666666" points="280.5,-935.5 280.5,-935.5 366.5,-935.5 366.5,-935.5 280.5,-935.5"/>
<polygon fill="none" stroke="#666666" points="280.5,-919 280.5,-968 366.5,-968 366.5,-919 280.5,-919"/>
</a>
</g>
</g>
<!-- Node7&#45;&gt;Node4 -->
<g id="edge6_Node000004_Node000007" class="edge">
<title>Node7&#45;&gt;Node4</title>
<g id="a_edge6_Node000004_Node000007"><a xlink:title=" ">
<path fill="none" stroke="orange" d="M270.24,-938.34C235.19,-932.63 191.34,-919.24 166.5,-888 157.67,-876.9 154.91,-861.75 154.65,-848.01"/>
<polygon fill="orange" stroke="orange" points="269.93,-941.84 280.33,-939.82 270.95,-934.91 269.93,-941.84"/>
</a>
</g>
<text text-anchor="start" x="166.5" y="-880" font-family="Helvetica,sans-Serif" font-size="10.00" fill="grey"> &lt; Ponca::IndexSquaredDistance</text>
<text text-anchor="middle" x="246.5" y="-869" font-family="Helvetica,sans-Serif" font-size="10.00" fill="grey">&lt; IndexType, Scalar &gt;, N &gt;</text>
</g>
<!-- Node10 -->
<g id="Node000010" class="node">
<title>Node10</title>
<g id="a_Node000010"><a xlink:title=" ">
<polygon fill="white" stroke="transparent" points="391,-837 292,-837 292,-788 391,-788 391,-837"/>
<text text-anchor="start" x="297.5" y="-824.5" font-family="Helvetica,sans-Serif" font-size="10.00">std::array&lt; T, N &gt;</text>
<text text-anchor="start" x="340" y="-809.5" font-family="Helvetica,sans-Serif" font-size="10.00"> </text>
<text text-anchor="start" x="340" y="-794.5" font-family="Helvetica,sans-Serif" font-size="10.00"> </text>
<polygon fill="#666666" stroke="#666666" points="292.5,-819.5 292.5,-819.5 391.5,-819.5 391.5,-819.5 292.5,-819.5"/>
<polygon fill="#666666" stroke="#666666" points="292.5,-804.5 292.5,-804.5 391.5,-804.5 391.5,-804.5 292.5,-804.5"/>
<polygon fill="none" stroke="#666666" points="292,-788 292,-837 391,-837 391,-788 292,-788"/>
</a>
</g>
</g>
<!-- Node7&#45;&gt;Node10 -->
<g id="edge11_Node000010_Node000007" class="edge">
<title>Node7&#45;&gt;Node10</title>
<g id="a_edge11_Node000010_Node000007"><a xlink:title=" ">
<path fill="none" stroke="orange" d="M328.22,-908.68C331.37,-886.13 335.42,-857.06 338.22,-837.01"/>
<polygon fill="orange" stroke="orange" points="324.72,-908.45 326.8,-918.84 331.65,-909.42 324.72,-908.45"/>
</a>
</g>
<text text-anchor="middle" x="356.5" y="-874.5" font-family="Helvetica,sans-Serif" font-size="10.00" fill="grey"> &lt; T, N &gt;</text>
</g>
<!-- Node8 -->
<g id="Node000008" class="node">
<title>Node8</title>
<g id="a_Node000008"><a xlink:title=" ">
<polygon fill="white" stroke="transparent" points="374,-1090 357,-1090 357,-1041 374,-1041 374,-1090"/>
<text text-anchor="start" x="362.5" y="-1077.5" font-family="Helvetica,sans-Serif" font-size="10.00">T</text>
<text text-anchor="start" x="364" y="-1062.5" font-family="Helvetica,sans-Serif" font-size="10.00"> </text>
<text text-anchor="start" x="364" y="-1047.5" font-family="Helvetica,sans-Serif" font-size="10.00"> </text>
<polygon fill="#bfbfbf" stroke="#bfbfbf" points="357.5,-1072.5 357.5,-1072.5 374.5,-1072.5 374.5,-1072.5 357.5,-1072.5"/>
<polygon fill="#bfbfbf" stroke="#bfbfbf" points="357.5,-1057.5 357.5,-1057.5 374.5,-1057.5 374.5,-1057.5 357.5,-1057.5"/>
<polygon fill="none" stroke="#bfbfbf" points="357,-1041 357,-1090 374,-1090 374,-1041 357,-1041"/>
</a>
</g>
</g>
<!-- Node8&#45;&gt;Node7 -->
<g id="edge7_Node000007_Node000008" class="edge">
<title>Node8&#45;&gt;Node7</title>
<g id="a_edge7_Node000007_Node000008"><a xlink:title=" ">
<path fill="none" stroke="#63b8ff" d="M356.95,-1054.42C348.65,-1044.02 336.48,-1026.97 330.5,-1010 327.19,-1000.6 325.32,-990 324.3,-980.11"/>
<polygon fill="none" stroke="#63b8ff" points="324.29,-980.08 319.86,-974.4 323.41,-968.12 327.84,-973.8 324.29,-980.08"/>
</a>
</g>
<text text-anchor="middle" x="359.5" y="-1002" font-family="Helvetica,sans-Serif" font-size="10.00" fill="grey"> +elements</text>
</g>
<!-- Node8&#45;&gt;Node10 -->
<g id="edge10_Node000010_Node000008" class="edge">
<title>Node8&#45;&gt;Node10</title>
<g id="a_edge10_Node000010_Node000008"><a xlink:title=" ">
<path fill="none" stroke="#63b8ff" d="M374.1,-1048.83C379.41,-1038.22 385.73,-1023.69 388.5,-1010 396.4,-970.96 472.25,-1104.56 383.5,-866 381,-859.27 377.27,-852.75 373.06,-846.71"/>
<polygon fill="none" stroke="#63b8ff" points="372.96,-846.59 366.13,-844.28 365.63,-837.08 372.46,-839.39 372.96,-846.59"/>
</a>
</g>
<text text-anchor="middle" x="450.5" y="-941" font-family="Helvetica,sans-Serif" font-size="10.00" fill="grey"> +elements</text>
</g>
<!-- Node9 -->
<g id="Node000009" class="node">
<title>Node9</title>
<g id="a_Node000009"><a xlink:href="classPonca_1_1Stack.html" target="_top" xlink:title="Stack with fixed&#45;size storage.">
<polygon fill="white" stroke="transparent" points="384,-730 269,-730 269,-561 384,-561 384,-730"/>
<text text-anchor="start" x="274.5" y="-717.5" font-family="Helvetica,sans-Serif" font-size="10.00">Ponca::Stack&lt; T, N &gt;</text>
<text text-anchor="start" x="287" y="-702.5" font-family="Helvetica,sans-Serif" font-size="10.00">#</text>
<text text-anchor="start" x="313.5" y="-702.5" font-family="Helvetica,sans-Serif" font-size="10.00">m_size</text>
<text text-anchor="start" x="287" y="-687.5" font-family="Helvetica,sans-Serif" font-size="10.00">+</text>
<text text-anchor="start" x="313.5" y="-687.5" font-family="Helvetica,sans-Serif" font-size="10.00">Stack()</text>
<text text-anchor="start" x="287" y="-672.5" font-family="Helvetica,sans-Serif" font-size="10.00">+</text>
<text text-anchor="start" x="313.5" y="-672.5" font-family="Helvetica,sans-Serif" font-size="10.00">top()</text>
<text text-anchor="start" x="287" y="-657.5" font-family="Helvetica,sans-Serif" font-size="10.00">+</text>
<text text-anchor="start" x="313.5" y="-657.5" font-family="Helvetica,sans-Serif" font-size="10.00">top()</text>
<text text-anchor="start" x="287" y="-642.5" font-family="Helvetica,sans-Serif" font-size="10.00">+</text>
<text text-anchor="start" x="313.5" y="-642.5" font-family="Helvetica,sans-Serif" font-size="10.00">empty()</text>
<text text-anchor="start" x="287" y="-627.5" font-family="Helvetica,sans-Serif" font-size="10.00">+</text>
<text text-anchor="start" x="313.5" y="-627.5" font-family="Helvetica,sans-Serif" font-size="10.00">size()</text>
<text text-anchor="start" x="287" y="-612.5" font-family="Helvetica,sans-Serif" font-size="10.00">+</text>
<text text-anchor="start" x="313.5" y="-612.5" font-family="Helvetica,sans-Serif" font-size="10.00">push()</text>
<text text-anchor="start" x="287" y="-597.5" font-family="Helvetica,sans-Serif" font-size="10.00">+</text>
<text text-anchor="start" x="313.5" y="-597.5" font-family="Helvetica,sans-Serif" font-size="10.00">push()</text>
<text text-anchor="start" x="287" y="-582.5" font-family="Helvetica,sans-Serif" font-size="10.00">+</text>
<text text-anchor="start" x="313.5" y="-582.5" font-family="Helvetica,sans-Serif" font-size="10.00">pop()</text>
<text text-anchor="start" x="287" y="-567.5" font-family="Helvetica,sans-Serif" font-size="10.00">+</text>
<text text-anchor="start" x="313.5" y="-567.5" font-family="Helvetica,sans-Serif" font-size="10.00">clear()</text>
<polygon fill="#666666" stroke="#666666" points="269.5,-712.5 269.5,-712.5 384.5,-712.5 384.5,-712.5 269.5,-712.5"/>
<polygon fill="#666666" stroke="#666666" points="269.5,-697.5 269.5,-697.5 311.5,-697.5 311.5,-697.5 269.5,-697.5"/>
<polygon fill="#666666" stroke="#666666" points="311.5,-697.5 311.5,-697.5 384.5,-697.5 384.5,-697.5 311.5,-697.5"/>
<polygon fill="none" stroke="#666666" points="269,-561 269,-730 384,-730 384,-561 269,-561"/>
</a>
</g>
</g>
<!-- Node9&#45;&gt;Node3 -->
<g id="edge8_Node000003_Node000009" class="edge">
<title>Node9&#45;&gt;Node3</title>
<g id="a_edge8_Node000003_Node000009"><a xlink:title=" ">
<path fill="none" stroke="orange" d="M281.28,-551.66C271.84,-532.29 261.85,-511.79 252.3,-492.17"/>
<polygon fill="orange" stroke="orange" points="278.19,-553.31 285.71,-560.77 284.48,-550.25 278.19,-553.31"/>
</a>
</g>
<text text-anchor="start" x="276.5" y="-535" font-family="Helvetica,sans-Serif" font-size="10.00" fill="grey"> &lt; Ponca::IndexSquaredDistance</text>
<text text-anchor="start" x="276.5" y="-524" font-family="Helvetica,sans-Serif" font-size="10.00" fill="grey">&lt; IndexType, Scalar &gt;, 2</text>
<text text-anchor="middle" x="356.5" y="-513" font-family="Helvetica,sans-Serif" font-size="10.00" fill="grey"> *Traits::MAX_DEPTH &gt;</text>
</g>
<!-- Node10&#45;&gt;Node9 -->
<g id="edge9_Node000009_Node000010" class="edge">
<title>Node10&#45;&gt;Node9</title>
<g id="a_edge9_Node000009_Node000010"><a xlink:title=" ">
<path fill="none" stroke="#63b8ff" d="M339.35,-787.86C338.22,-775.45 336.76,-759.34 335.22,-742.46"/>
<polygon fill="none" stroke="#63b8ff" points="335.18,-742.03 330.66,-736.41 334.1,-730.07 338.62,-735.69 335.18,-742.03"/>
</a>
</g>
<text text-anchor="middle" x="361" y="-751" font-family="Helvetica,sans-Serif" font-size="10.00" fill="grey"> #m_data</text>
</g>
<!-- Node11 -->
<g id="Node000011" class="node">
<title>Node11</title>
<g id="a_Node000011"><a xlink:title=" ">
<polygon fill="white" stroke="transparent" points="337.5,-222.5 275.5,-222.5 275.5,-173.5 337.5,-173.5 337.5,-222.5"/>
<text text-anchor="start" x="280.5" y="-210" font-family="Helvetica,sans-Serif" font-size="10.00">QueryType</text>
<text text-anchor="start" x="304.5" y="-195" font-family="Helvetica,sans-Serif" font-size="10.00"> </text>
<text text-anchor="start" x="304.5" y="-180" font-family="Helvetica,sans-Serif" font-size="10.00"> </text>
<polygon fill="#bfbfbf" stroke="#bfbfbf" points="275.5,-205 275.5,-205 337.5,-205 337.5,-205 275.5,-205"/>
<polygon fill="#bfbfbf" stroke="#bfbfbf" points="275.5,-190 275.5,-190 337.5,-190 337.5,-190 275.5,-190"/>
<polygon fill="none" stroke="#bfbfbf" points="275.5,-173.5 275.5,-222.5 337.5,-222.5 337.5,-173.5 275.5,-173.5"/>
</a>
</g>
</g>
<!-- Node11&#45;&gt;Node1 -->
<g id="edge12_Node000001_Node000011" class="edge">
<title>Node11&#45;&gt;Node1</title>
<g id="a_edge12_Node000001_Node000011"><a xlink:title=" ">
<path fill="none" stroke="#63b8ff" d="M294.02,-163.89C288.64,-149.6 282.19,-132.47 276.07,-116.24"/>
<polygon fill="none" stroke="#63b8ff" points="290.76,-165.15 297.56,-173.28 297.31,-162.69 290.76,-165.15"/>
</a>
</g>
</g>
</g>
</svg>
