<?xml version="1.0" encoding="UTF-8" standalone="no"?>
<!DOCTYPE svg PUBLIC "-//W3C//DTD SVG 1.1//EN"
 "http://www.w3.org/Graphics/SVG/1.1/DTD/svg11.dtd">
<!-- Generated by graphviz version 2.43.0 (0)
 -->
<!-- Title: Ponca::KdTreeDefaultNode&lt; Index, NodeIndex, DataPoint, LeafSize &gt; Pages: 1 -->
<svg width="363pt" height="485pt"
 viewBox="0.00 0.00 363.00 485.00" xmlns="http://www.w3.org/2000/svg" xmlns:xlink="http://www.w3.org/1999/xlink">
<g id="graph0" class="graph" transform="scale(1 1) rotate(0) translate(4 481)">
<title>Ponca::KdTreeDefaultNode&lt; Index, NodeIndex, DataPoint, LeafSize &gt;</title>
<!-- Node1 -->
<g id="node1" class="node">
<title>Node1</title>
<g id="a_node1"><a xlink:title="The node type used by default by the kd&#45;tree.">
<polygon fill="#999999" stroke="#666666" points="71,-0.5 71,-178.5 241,-178.5 241,-0.5 71,-0.5"/>
<text text-anchor="start" x="79" y="-166.5" font-family="Helvetica,sans-Serif" font-size="10.00">Ponca::KdTreeDefaultNode</text>
<text text-anchor="start" x="79" y="-155.5" font-family="Helvetica,sans-Serif" font-size="10.00">&lt; Index, NodeIndex, DataPoint,</text>
<text text-anchor="middle" x="156" y="-144.5" font-family="Helvetica,sans-Serif" font-size="10.00"> LeafSize &gt;</text>
<polyline fill="none" stroke="#666666" points="71,-137.5 241,-137.5 "/>
<text text-anchor="middle" x="156" y="-125.5" font-family="Helvetica,sans-Serif" font-size="10.00"> </text>
<polyline fill="none" stroke="#666666" points="71,-118.5 241,-118.5 "/>
<text text-anchor="start" x="79" y="-106.5" font-family="Helvetica,sans-Serif" font-size="10.00">+ KdTreeDefaultNode()</text>
<text text-anchor="start" x="79" y="-95.5" font-family="Helvetica,sans-Serif" font-size="10.00">+ is_leaf()</text>
<text text-anchor="start" x="79" y="-84.5" font-family="Helvetica,sans-Serif" font-size="10.00">+ set_is_leaf()</text>
<text text-anchor="start" x="79" y="-73.5" font-family="Helvetica,sans-Serif" font-size="10.00">+ configure_range()</text>
<text text-anchor="start" x="79" y="-62.5" font-family="Helvetica,sans-Serif" font-size="10.00">+ configure_inner()</text>
<text text-anchor="start" x="79" y="-51.5" font-family="Helvetica,sans-Serif" font-size="10.00">+ leaf_start()</text>
<text text-anchor="start" x="79" y="-40.5" font-family="Helvetica,sans-Serif" font-size="10.00">+ leaf_size()</text>
<text text-anchor="start" x="79" y="-29.5" font-family="Helvetica,sans-Serif" font-size="10.00">+ inner_split_value()</text>
<text text-anchor="start" x="79" y="-18.5" font-family="Helvetica,sans-Serif" font-size="10.00">+ inner_split_dim()</text>
<text text-anchor="start" x="79" y="-7.5" font-family="Helvetica,sans-Serif" font-size="10.00">+ inner_first_child_id()</text>
</a>
</g>
</g>
<!-- Node2 -->
<g id="node2" class="node">
<title>Node2</title>
<g id="a_node2"><a xlink:href="structPonca_1_1KdTreeDefaultLeafNode.html" target="_top" xlink:title=" ">
<polygon fill="white" stroke="#bfbfbf" points="5,-237.5 5,-316.5 147,-316.5 147,-237.5 5,-237.5"/>
<text text-anchor="start" x="13" y="-304.5" font-family="Helvetica,sans-Serif" font-size="10.00">Ponca::KdTreeDefaultLeaf</text>
<text text-anchor="middle" x="76" y="-293.5" font-family="Helvetica,sans-Serif" font-size="10.00">Node&lt; Index, Index &gt;</text>
<polyline fill="none" stroke="#bfbfbf" points="5,-286.5 147,-286.5 "/>
<text text-anchor="start" x="13" y="-274.5" font-family="Helvetica,sans-Serif" font-size="10.00">+ start</text>
<text text-anchor="start" x="13" y="-263.5" font-family="Helvetica,sans-Serif" font-size="10.00">+ size</text>
<polyline fill="none" stroke="#bfbfbf" points="5,-256.5 147,-256.5 "/>
<text text-anchor="middle" x="76" y="-244.5" font-family="Helvetica,sans-Serif" font-size="10.00"> </text>
</a>
</g>
</g>
<!-- Node2&#45;&gt;Node1 -->
<g id="edge1" class="edge">
<title>Node2&#45;&gt;Node1</title>
<path fill="none" stroke="#404040" d="M92.77,-237.11C98.82,-223.08 105.96,-206.53 113.22,-189.7"/>
<polygon fill="none" stroke="#404040" points="113.24,-189.64 111.95,-182.55 118,-178.62 119.29,-185.72 113.24,-189.64"/>
<text text-anchor="middle" x="132" y="-200" font-family="Helvetica,sans-Serif" font-size="10.00"> +m_leaf</text>
</g>
<!-- Node3 -->
<g id="node3" class="node">
<title>Node3</title>
<g id="a_node3"><a xlink:href="structPonca_1_1KdTreeDefaultLeafNode.html" target="_top" xlink:title=" ">
<polygon fill="white" stroke="#bfbfbf" points="0,-392 0,-471 142,-471 142,-392 0,-392"/>
<text text-anchor="start" x="8" y="-459" font-family="Helvetica,sans-Serif" font-size="10.00">Ponca::KdTreeDefaultLeaf</text>
<text text-anchor="middle" x="71" y="-448" font-family="Helvetica,sans-Serif" font-size="10.00">Node&lt; Index, Size &gt;</text>
<polyline fill="none" stroke="#bfbfbf" points="0,-441 142,-441 "/>
<text text-anchor="start" x="8" y="-429" font-family="Helvetica,sans-Serif" font-size="10.00">+ start</text>
<text text-anchor="start" x="8" y="-418" font-family="Helvetica,sans-Serif" font-size="10.00">+ size</text>
<polyline fill="none" stroke="#bfbfbf" points="0,-411 142,-411 "/>
<text text-anchor="middle" x="71" y="-399" font-family="Helvetica,sans-Serif" font-size="10.00"> </text>
</a>
</g>
</g>
<!-- Node3&#45;&gt;Node2 -->
<g id="edge2" class="edge">
<title>Node3&#45;&gt;Node2</title>
<path fill="none" stroke="orange" d="M72.6,-381.58C73.29,-360.53 74.09,-336.28 74.74,-316.54"/>
<polygon fill="orange" stroke="orange" points="69.1,-381.51 72.27,-391.62 76.1,-381.74 69.1,-381.51"/>
<text text-anchor="middle" x="117" y="-354.5" font-family="Helvetica,sans-Serif" font-size="10.00"> &lt; Index, Index &gt;</text>
</g>
<!-- Node4 -->
<g id="node4" class="node">
<title>Node4</title>
<g id="a_node4"><a xlink:href="structPonca_1_1KdTreeDefaultInnerNode.html" target="_top" xlink:title=" ">
<polygon fill="white" stroke="#bfbfbf" points="173,-226.5 173,-327.5 319,-327.5 319,-226.5 173,-226.5"/>
<text text-anchor="start" x="181" y="-315.5" font-family="Helvetica,sans-Serif" font-size="10.00">Ponca::KdTreeDefaultInner</text>
<text text-anchor="start" x="181" y="-304.5" font-family="Helvetica,sans-Serif" font-size="10.00">Node&lt; NodeIndex, Scalar,</text>
<text text-anchor="middle" x="246" y="-293.5" font-family="Helvetica,sans-Serif" font-size="10.00"> DataPoint::Dim &gt;</text>
<polyline fill="none" stroke="#bfbfbf" points="173,-286.5 319,-286.5 "/>
<text text-anchor="start" x="181" y="-274.5" font-family="Helvetica,sans-Serif" font-size="10.00">+ split_value</text>
<text text-anchor="start" x="181" y="-263.5" font-family="Helvetica,sans-Serif" font-size="10.00">+ first_child_id</text>
<text text-anchor="start" x="181" y="-252.5" font-family="Helvetica,sans-Serif" font-size="10.00">+ split_dim</text>
<polyline fill="none" stroke="#bfbfbf" points="173,-245.5 319,-245.5 "/>
<text text-anchor="middle" x="246" y="-233.5" font-family="Helvetica,sans-Serif" font-size="10.00"> </text>
</a>
</g>
</g>
<!-- Node4&#45;&gt;Node1 -->
<g id="edge3" class="edge">
<title>Node4&#45;&gt;Node1</title>
<path fill="none" stroke="#404040" d="M221.88,-226.29C216.36,-214.92 210.31,-202.44 204.17,-189.79"/>
<polygon fill="none" stroke="#404040" points="204.01,-189.46 197.8,-185.81 198.78,-178.66 204.99,-182.32 204.01,-189.46"/>
<text text-anchor="middle" x="238" y="-200" font-family="Helvetica,sans-Serif" font-size="10.00"> +m_inner</text>
</g>
<!-- Node5 -->
<g id="node5" class="node">
<title>Node5</title>
<g id="a_node5"><a xlink:href="structPonca_1_1KdTreeDefaultInnerNode.html" target="_top" xlink:title=" ">
<polygon fill="white" stroke="#bfbfbf" points="160.5,-386.5 160.5,-476.5 339.5,-476.5 339.5,-386.5 160.5,-386.5"/>
<text text-anchor="start" x="168.5" y="-464.5" font-family="Helvetica,sans-Serif" font-size="10.00">Ponca::KdTreeDefaultInner</text>
<text text-anchor="middle" x="250" y="-453.5" font-family="Helvetica,sans-Serif" font-size="10.00">Node&lt; NodeIndex, Scalar, DIM &gt;</text>
<polyline fill="none" stroke="#bfbfbf" points="160.5,-446.5 339.5,-446.5 "/>
<text text-anchor="start" x="168.5" y="-434.5" font-family="Helvetica,sans-Serif" font-size="10.00">+ split_value</text>
<text text-anchor="start" x="168.5" y="-423.5" font-family="Helvetica,sans-Serif" font-size="10.00">+ first_child_id</text>
<text text-anchor="start" x="168.5" y="-412.5" font-family="Helvetica,sans-Serif" font-size="10.00">+ split_dim</text>
<polyline fill="none" stroke="#bfbfbf" points="160.5,-405.5 339.5,-405.5 "/>
<text text-anchor="middle" x="250" y="-393.5" font-family="Helvetica,sans-Serif" font-size="10.00"> </text>
</a>
</g>
</g>
<!-- Node5&#45;&gt;Node4 -->
<g id="edge4" class="edge">
<title>Node5&#45;&gt;Node4</title>
<path fill="none" stroke="orange" d="M248.58,-376.22C248.16,-360.38 247.71,-343.17 247.3,-327.64"/>
<polygon fill="orange" stroke="orange" points="245.08,-376.49 248.84,-386.39 252.08,-376.3 245.08,-376.49"/>
<text text-anchor="start" x="249" y="-360" font-family="Helvetica,sans-Serif" font-size="10.00"> &lt; NodeIndex, Scalar,</text>
<text text-anchor="middle" x="302" y="-349" font-family="Helvetica,sans-Serif" font-size="10.00"> DataPoint::Dim &gt;</text>
</g>
</g>
</svg>
