<?xml version="1.0" encoding="UTF-8" standalone="no"?>
<!DOCTYPE svg PUBLIC "-//W3C//DTD SVG 1.1//EN"
 "http://www.w3.org/Graphics/SVG/1.1/DTD/svg11.dtd">
<!-- Generated by graphviz version 2.43.0 (0)
 -->
<!-- Title: Ponca::KdTreeKNearestIndexQuery&lt; DataPoint &gt; Pages: 1 -->
<svg width="748pt" height="867pt"
 viewBox="0.00 0.00 748.00 867.00" xmlns="http://www.w3.org/2000/svg" xmlns:xlink="http://www.w3.org/1999/xlink">
<g id="graph0" class="graph" transform="scale(1 1) rotate(0) translate(4 863)">
<title>Ponca::KdTreeKNearestIndexQuery&lt; DataPoint &gt;</title>
<!-- Node1 -->
<g id="node1" class="node">
<title>Node1</title>
<g id="a_node1"><a xlink:title=" ">
<polygon fill="#999999" stroke="#666666" points="176,-85 0,-85 0,0 176,0 176,-85"/>
<text text-anchor="start" x="8" y="-73" font-family="Helvetica,sans-Serif" font-size="10.00">{Ponca::KdTreeKNearestIndex</text>
<text text-anchor="middle" x="88" y="-62" font-family="Helvetica,sans-Serif" font-size="10.00">Query&lt; DataPoint &gt;</text>
<text text-anchor="start" x="8" y="-51" font-family="Helvetica,sans-Serif" font-size="10.00">||+ KdTreeKNearestIndexQuery()</text>
<text text-anchor="start" x="8" y="-40" font-family="Helvetica,sans-Serif" font-size="10.00">+ begin()</text>
<text text-anchor="start" x="8" y="-29" font-family="Helvetica,sans-Serif" font-size="10.00">+ end()</text>
<text text-anchor="start" x="8" y="-18" font-family="Helvetica,sans-Serif" font-size="10.00"># search()</text>
<text text-anchor="middle" x="88" y="-7" font-family="Helvetica,sans-Serif" font-size="10.00">}</text>
</a>
</g>
</g>
<!-- Node2 -->
<g id="node2" class="node">
<title>Node2</title>
<g id="a_node2"><a xlink:href="group__spatialpartitioning.html#classPonca_1_1KdTreeQuery" target="_top" xlink:title=" ">
<polygon fill="white" stroke="#bfbfbf" points="136,-207 16,-207 16,-122 136,-122 136,-207"/>
<text text-anchor="start" x="24" y="-195" font-family="Helvetica,sans-Serif" font-size="10.00">{Ponca::KdTreeQuery</text>
<text text-anchor="middle" x="76" y="-184" font-family="Helvetica,sans-Serif" font-size="10.00">&lt; DataPoint &gt;</text>
<text text-anchor="start" x="24" y="-173" font-family="Helvetica,sans-Serif" font-size="10.00">|# m_kdtree</text>
<text text-anchor="start" x="24" y="-162" font-family="Helvetica,sans-Serif" font-size="10.00"># m_stack</text>
<text text-anchor="start" x="24" y="-151" font-family="Helvetica,sans-Serif" font-size="10.00">|+ KdTreeQuery()</text>
<text text-anchor="start" x="24" y="-140" font-family="Helvetica,sans-Serif" font-size="10.00"># reset()</text>
<text text-anchor="middle" x="76" y="-129" font-family="Helvetica,sans-Serif" font-size="10.00">}</text>
</a>
</g>
</g>
<!-- Node2&#45;&gt;Node1 -->
<g id="edge1" class="edge">
<title>Node2&#45;&gt;Node1</title>
<path fill="none" stroke="#63b8ff" d="M81.16,-111.9C82.06,-102.93 82.98,-93.71 83.84,-85.06"/>
<polygon fill="none" stroke="#63b8ff" points="77.68,-111.57 80.16,-121.87 84.64,-112.26 77.68,-111.57"/>
</g>
<!-- Node3 -->
<g id="node3" class="node">
<title>Node3</title>
<g id="a_node3"><a xlink:href="group__spatialpartitioning.html" target="_top" xlink:title=" ">
<polygon fill="white" stroke="#666666" points="313.5,-185 154.5,-185 154.5,-144 313.5,-144 313.5,-185"/>
<text text-anchor="start" x="162.5" y="-173" font-family="Helvetica,sans-Serif" font-size="10.00">{Ponca::KNearestIndexQuery</text>
<text text-anchor="middle" x="234" y="-162" font-family="Helvetica,sans-Serif" font-size="10.00">&lt; DataPoint::Scalar &gt;</text>
<text text-anchor="middle" x="234" y="-151" font-family="Helvetica,sans-Serif" font-size="10.00">||}</text>
</a>
</g>
</g>
<!-- Node3&#45;&gt;Node1 -->
<g id="edge2" class="edge">
<title>Node3&#45;&gt;Node1</title>
<path fill="none" stroke="#63b8ff" d="M202.35,-137.48C183.77,-122.21 159.86,-102.57 138.72,-85.18"/>
<polygon fill="none" stroke="#63b8ff" points="200.27,-140.31 210.22,-143.95 204.71,-134.9 200.27,-140.31"/>
</g>
<!-- Node4 -->
<g id="node4" class="node">
<title>Node4</title>
<g id="a_node4"><a xlink:href="group__spatialpartitioning.html#structPonca_1_1Query" target="_top" xlink:title=" ">
<polygon fill="white" stroke="#bfbfbf" points="198.5,-549 75.5,-549 75.5,-486 198.5,-486 198.5,-549"/>
<text text-anchor="start" x="83.5" y="-537" font-family="Helvetica,sans-Serif" font-size="10.00">{Ponca::Query&lt; Input</text>
<text text-anchor="middle" x="137" y="-526" font-family="Helvetica,sans-Serif" font-size="10.00">_, Output_ &gt;</text>
<text text-anchor="start" x="83.5" y="-515" font-family="Helvetica,sans-Serif" font-size="10.00">||+ Query()</text>
<text text-anchor="start" x="83.5" y="-504" font-family="Helvetica,sans-Serif" font-size="10.00">+ Query()</text>
<text text-anchor="middle" x="137" y="-493" font-family="Helvetica,sans-Serif" font-size="10.00">}</text>
</a>
</g>
</g>
<!-- Node4&#45;&gt;Node3 -->
<g id="edge3" class="edge">
<title>Node4&#45;&gt;Node3</title>
<path fill="none" stroke="#63b8ff" d="M148.22,-475.88C169.1,-400.35 213.16,-240.9 228.56,-185.2"/>
<polygon fill="none" stroke="#63b8ff" points="144.73,-475.39 145.44,-485.97 151.48,-477.26 144.73,-475.39"/>
</g>
<!-- Node5 -->
<g id="node5" class="node">
<title>Node5</title>
<g id="a_node5"><a xlink:title=" ">
<polygon fill="white" stroke="#bfbfbf" points="266.5,-649 213.5,-649 213.5,-619 266.5,-619 266.5,-649"/>
<text text-anchor="middle" x="240" y="-637" font-family="Helvetica,sans-Serif" font-size="10.00">{Input_</text>
<text text-anchor="middle" x="240" y="-626" font-family="Helvetica,sans-Serif" font-size="10.00">||}</text>
</a>
</g>
</g>
<!-- Node5&#45;&gt;Node4 -->
<g id="edge4" class="edge">
<title>Node5&#45;&gt;Node4</title>
<path fill="none" stroke="#63b8ff" d="M220.6,-611.44C204.76,-593.82 182.16,-568.7 164.45,-549.01"/>
<polygon fill="none" stroke="#63b8ff" points="218.08,-613.87 227.37,-618.96 223.28,-609.18 218.08,-613.87"/>
</g>
<!-- Node15 -->
<g id="node15" class="node">
<title>Node15</title>
<g id="a_node15"><a xlink:href="group__spatialpartitioning.html#structPonca_1_1Query" target="_top" xlink:title=" ">
<polygon fill="white" stroke="#bfbfbf" points="339.5,-549 216.5,-549 216.5,-486 339.5,-486 339.5,-549"/>
<text text-anchor="start" x="224.5" y="-537" font-family="Helvetica,sans-Serif" font-size="10.00">{Ponca::Query&lt; Input</text>
<text text-anchor="middle" x="278" y="-526" font-family="Helvetica,sans-Serif" font-size="10.00">_, Output_ &gt;</text>
<text text-anchor="start" x="224.5" y="-515" font-family="Helvetica,sans-Serif" font-size="10.00">||+ Query()</text>
<text text-anchor="start" x="224.5" y="-504" font-family="Helvetica,sans-Serif" font-size="10.00">+ Query()</text>
<text text-anchor="middle" x="278" y="-493" font-family="Helvetica,sans-Serif" font-size="10.00">}</text>
</a>
</g>
</g>
<!-- Node5&#45;&gt;Node15 -->
<g id="edge16" class="edge">
<title>Node5&#45;&gt;Node15</title>
<path fill="none" stroke="#63b8ff" d="M247.96,-609.01C253.75,-591.57 261.63,-567.81 267.87,-549.01"/>
<polygon fill="none" stroke="#63b8ff" points="244.49,-608.37 244.66,-618.96 251.13,-610.57 244.49,-608.37"/>
</g>
<!-- Node6 -->
<g id="node6" class="node">
<title>Node6</title>
<g id="a_node6"><a xlink:title=" ">
<polygon fill="white" stroke="#bfbfbf" points="190.5,-649 129.5,-649 129.5,-619 190.5,-619 190.5,-649"/>
<text text-anchor="middle" x="160" y="-637" font-family="Helvetica,sans-Serif" font-size="10.00">{Output_</text>
<text text-anchor="middle" x="160" y="-626" font-family="Helvetica,sans-Serif" font-size="10.00">||}</text>
</a>
</g>
</g>
<!-- Node6&#45;&gt;Node4 -->
<g id="edge5" class="edge">
<title>Node6&#45;&gt;Node4</title>
<path fill="none" stroke="#63b8ff" d="M155.18,-609.01C151.68,-591.57 146.91,-567.81 143.13,-549.01"/>
<polygon fill="none" stroke="#63b8ff" points="151.78,-609.85 157.18,-618.96 158.64,-608.47 151.78,-609.85"/>
</g>
<!-- Node6&#45;&gt;Node15 -->
<g id="edge17" class="edge">
<title>Node6&#45;&gt;Node15</title>
<path fill="none" stroke="#63b8ff" d="M181.73,-611.91C199.91,-594.27 226.08,-568.88 246.55,-549.01"/>
<polygon fill="none" stroke="#63b8ff" points="179.21,-609.48 174.47,-618.96 184.08,-614.51 179.21,-609.48"/>
</g>
<!-- Node7 -->
<g id="node7" class="node">
<title>Node7</title>
<g id="a_node7"><a xlink:href="group__spatialpartitioning.html#structPonca_1_1KNearestIndexQuery" target="_top" xlink:title="Base Query class combining QueryInputIsIndex and QueryOutputIsKNearest.">
<polygon fill="white" stroke="#666666" points="389.5,-295 230.5,-295 230.5,-254 389.5,-254 389.5,-295"/>
<text text-anchor="start" x="238.5" y="-283" font-family="Helvetica,sans-Serif" font-size="10.00">{Ponca::KNearestIndexQuery</text>
<text text-anchor="middle" x="310" y="-272" font-family="Helvetica,sans-Serif" font-size="10.00">&lt; Scalar &gt;</text>
<text text-anchor="middle" x="310" y="-261" font-family="Helvetica,sans-Serif" font-size="10.00">||}</text>
</a>
</g>
</g>
<!-- Node7&#45;&gt;Node3 -->
<g id="edge6" class="edge">
<title>Node7&#45;&gt;Node3</title>
<path fill="none" stroke="orange" d="M290.44,-245.7C277.13,-226.78 259.83,-202.21 247.92,-185.28"/>
<polygon fill="orange" stroke="orange" points="287.62,-247.78 296.24,-253.94 293.34,-243.75 287.62,-247.78"/>
<text text-anchor="middle" x="338" y="-228" font-family="Helvetica,sans-Serif" font-size="10.00"> &lt; DataPoint::Scalar &gt;</text>
</g>
<!-- Node8 -->
<g id="node8" class="node">
<title>Node8</title>
<g id="a_node8"><a xlink:href="group__spatialpartitioning.html" target="_top" xlink:title=" ">
<polygon fill="white" stroke="#bfbfbf" points="426.5,-406 253.5,-406 253.5,-332 426.5,-332 426.5,-406"/>
<text text-anchor="start" x="261.5" y="-394" font-family="Helvetica,sans-Serif" font-size="10.00">{Ponca::Query&lt; QueryInput</text>
<text text-anchor="start" x="261.5" y="-383" font-family="Helvetica,sans-Serif" font-size="10.00">IsIndex, QueryOutputIsKNearest</text>
<text text-anchor="middle" x="340" y="-372" font-family="Helvetica,sans-Serif" font-size="10.00">&lt; Scalar &gt; &gt;</text>
<text text-anchor="start" x="261.5" y="-361" font-family="Helvetica,sans-Serif" font-size="10.00">||+ Query()</text>
<text text-anchor="start" x="261.5" y="-350" font-family="Helvetica,sans-Serif" font-size="10.00">+ Query()</text>
<text text-anchor="middle" x="340" y="-339" font-family="Helvetica,sans-Serif" font-size="10.00">}</text>
</a>
</g>
</g>
<!-- Node8&#45;&gt;Node7 -->
<g id="edge7" class="edge">
<title>Node8&#45;&gt;Node7</title>
<path fill="none" stroke="#63b8ff" d="M325.21,-322.4C322.08,-312.75 318.94,-303.07 316.33,-295.03"/>
<polygon fill="none" stroke="#63b8ff" points="321.9,-323.54 328.32,-331.97 328.56,-321.38 321.9,-323.54"/>
</g>
<!-- Node9 -->
<g id="node9" class="node">
<title>Node9</title>
<g id="a_node9"><a xlink:href="group__spatialpartitioning.html#structPonca_1_1QueryInputIsIndex" target="_top" xlink:title="Base class for queries storing points.">
<polygon fill="white" stroke="#666666" points="695.5,-538 548.5,-538 548.5,-497 695.5,-497 695.5,-538"/>
<text text-anchor="middle" x="622" y="-526" font-family="Helvetica,sans-Serif" font-size="10.00">{Ponca::QueryInputIsIndex</text>
<text text-anchor="start" x="556.5" y="-515" font-family="Helvetica,sans-Serif" font-size="10.00">||+ QueryInputIsIndex()</text>
<text text-anchor="middle" x="622" y="-504" font-family="Helvetica,sans-Serif" font-size="10.00">}</text>
</a>
</g>
</g>
<!-- Node9&#45;&gt;Node8 -->
<g id="edge8" class="edge">
<title>Node9&#45;&gt;Node8</title>
<path fill="none" stroke="#63b8ff" d="M575.28,-492.23C530.09,-468.75 461.08,-432.9 409.46,-406.09"/>
<polygon fill="none" stroke="#63b8ff" points="573.77,-495.39 584.26,-496.89 577,-489.18 573.77,-495.39"/>
</g>
<!-- Node10 -->
<g id="node10" class="node">
<title>Node10</title>
<g id="a_node10"><a xlink:href="group__spatialpartitioning.html" target="_top" xlink:title=" ">
<polygon fill="white" stroke="#666666" points="682,-671 562,-671 562,-597 682,-597 682,-671"/>
<text text-anchor="start" x="570" y="-659" font-family="Helvetica,sans-Serif" font-size="10.00">{Ponca::QueryInput&lt;</text>
<text text-anchor="middle" x="622" y="-648" font-family="Helvetica,sans-Serif" font-size="10.00"> int &gt;</text>
<text text-anchor="start" x="570" y="-637" font-family="Helvetica,sans-Serif" font-size="10.00">||+ QueryInput()</text>
<text text-anchor="start" x="570" y="-626" font-family="Helvetica,sans-Serif" font-size="10.00">+ input()</text>
<text text-anchor="start" x="570" y="-615" font-family="Helvetica,sans-Serif" font-size="10.00"># editInput()</text>
<text text-anchor="middle" x="622" y="-604" font-family="Helvetica,sans-Serif" font-size="10.00">}</text>
</a>
</g>
</g>
<!-- Node10&#45;&gt;Node9 -->
<g id="edge9" class="edge">
<title>Node10&#45;&gt;Node9</title>
<path fill="none" stroke="#63b8ff" d="M622,-586.5C622,-569.64 622,-551.49 622,-538.18"/>
<polygon fill="none" stroke="#63b8ff" points="618.5,-586.77 622,-596.77 625.5,-586.77 618.5,-586.77"/>
</g>
<!-- Node11 -->
<g id="node11" class="node">
<title>Node11</title>
<g id="a_node11"><a xlink:href="group__spatialpartitioning.html#structPonca_1_1QueryInputBase" target="_top" xlink:title="Base class for queries input type.">
<polygon fill="white" stroke="#666666" points="672,-859 536,-859 536,-829 672,-829 672,-859"/>
<text text-anchor="middle" x="604" y="-847" font-family="Helvetica,sans-Serif" font-size="10.00">{Ponca::QueryInputBase</text>
<text text-anchor="middle" x="604" y="-836" font-family="Helvetica,sans-Serif" font-size="10.00">||}</text>
</a>
</g>
</g>
<!-- Node11&#45;&gt;Node10 -->
<g id="edge10" class="edge">
<title>Node11&#45;&gt;Node10</title>
<path fill="none" stroke="#63b8ff" d="M604.82,-818.6C605.79,-793.37 607.72,-752.87 611,-718 612.44,-702.66 614.58,-685.79 616.58,-671.29"/>
<polygon fill="none" stroke="#63b8ff" points="601.32,-818.6 604.45,-828.73 608.31,-818.86 601.32,-818.6"/>
</g>
<!-- Node12 -->
<g id="node12" class="node">
<title>Node12</title>
<g id="a_node12"><a xlink:href="group__spatialpartitioning.html#structPonca_1_1QueryInput" target="_top" xlink:title="Base class for typed queries input type.">
<polygon fill="white" stroke="#666666" points="740,-792 620,-792 620,-718 740,-718 740,-792"/>
<text text-anchor="start" x="628" y="-780" font-family="Helvetica,sans-Serif" font-size="10.00">{Ponca::QueryInput&lt;</text>
<text text-anchor="middle" x="680" y="-769" font-family="Helvetica,sans-Serif" font-size="10.00"> InputType_ &gt;</text>
<text text-anchor="start" x="628" y="-758" font-family="Helvetica,sans-Serif" font-size="10.00">||+ QueryInput()</text>
<text text-anchor="start" x="628" y="-747" font-family="Helvetica,sans-Serif" font-size="10.00">+ input()</text>
<text text-anchor="start" x="628" y="-736" font-family="Helvetica,sans-Serif" font-size="10.00"># editInput()</text>
<text text-anchor="middle" x="680" y="-725" font-family="Helvetica,sans-Serif" font-size="10.00">}</text>
</a>
</g>
</g>
<!-- Node11&#45;&gt;Node12 -->
<g id="edge12" class="edge">
<title>Node11&#45;&gt;Node12</title>
<path fill="none" stroke="#63b8ff" d="M623.15,-821.08C630.8,-812.32 639.83,-801.99 648.41,-792.17"/>
<polygon fill="none" stroke="#63b8ff" points="620.49,-818.8 616.55,-828.63 625.76,-823.41 620.49,-818.8"/>
</g>
<!-- Node12&#45;&gt;Node10 -->
<g id="edge11" class="edge">
<title>Node12&#45;&gt;Node10</title>
<path fill="none" stroke="orange" d="M657.93,-708.72C651.9,-696.35 645.45,-683.11 639.7,-671.32"/>
<polygon fill="orange" stroke="orange" points="654.91,-710.52 662.44,-717.97 661.21,-707.45 654.91,-710.52"/>
<text text-anchor="middle" x="671.5" y="-692" font-family="Helvetica,sans-Serif" font-size="10.00"> &lt; int &gt;</text>
</g>
<!-- Node13 -->
<g id="node13" class="node">
<title>Node13</title>
<g id="a_node13"><a xlink:href="group__spatialpartitioning.html#structPonca_1_1QueryOutputIsKNearest" target="_top" xlink:title="Base class for knearest queries.">
<polygon fill="white" stroke="#666666" points="530.5,-560 357.5,-560 357.5,-475 530.5,-475 530.5,-560"/>
<text text-anchor="start" x="365.5" y="-548" font-family="Helvetica,sans-Serif" font-size="10.00">{Ponca::QueryOutputIsKNearest</text>
<text text-anchor="middle" x="444" y="-537" font-family="Helvetica,sans-Serif" font-size="10.00">&lt; Scalar &gt;</text>
<text text-anchor="start" x="365.5" y="-526" font-family="Helvetica,sans-Serif" font-size="10.00">|# m_queue</text>
<text text-anchor="start" x="365.5" y="-515" font-family="Helvetica,sans-Serif" font-size="10.00">|+ QueryOutputIsKNearest()</text>
<text text-anchor="start" x="365.5" y="-504" font-family="Helvetica,sans-Serif" font-size="10.00">+ queue()</text>
<text text-anchor="start" x="365.5" y="-493" font-family="Helvetica,sans-Serif" font-size="10.00"># reset()</text>
<text text-anchor="middle" x="444" y="-482" font-family="Helvetica,sans-Serif" font-size="10.00">}</text>
</a>
</g>
</g>
<!-- Node13&#45;&gt;Node8 -->
<g id="edge13" class="edge">
<title>Node13&#45;&gt;Node8</title>
<path fill="none" stroke="#63b8ff" d="M438.75,-464.51C435.5,-450.45 430.31,-435.86 422,-424 417.4,-417.44 411.73,-411.47 405.53,-406.09"/>
<polygon fill="none" stroke="#63b8ff" points="435.37,-465.49 440.78,-474.61 442.24,-464.11 435.37,-465.49"/>
</g>
<!-- Node14 -->
<g id="node14" class="node">
<title>Node14</title>
<g id="a_node14"><a xlink:href="group__spatialpartitioning.html#structPonca_1_1QueryOutputBase" target="_top" xlink:title="Base class for queries output type.">
<polygon fill="white" stroke="#666666" points="516,-649 372,-649 372,-619 516,-619 516,-649"/>
<text text-anchor="middle" x="444" y="-637" font-family="Helvetica,sans-Serif" font-size="10.00">{Ponca::QueryOutputBase</text>
<text text-anchor="middle" x="444" y="-626" font-family="Helvetica,sans-Serif" font-size="10.00">||}</text>
</a>
</g>
</g>
<!-- Node14&#45;&gt;Node13 -->
<g id="edge14" class="edge">
<title>Node14&#45;&gt;Node13</title>
<path fill="none" stroke="#63b8ff" d="M444,-608.61C444,-594.49 444,-576.34 444,-560.03"/>
<polygon fill="none" stroke="#63b8ff" points="440.5,-608.96 444,-618.96 447.5,-608.96 440.5,-608.96"/>
</g>
<!-- Node15&#45;&gt;Node8 -->
<g id="edge15" class="edge">
<title>Node15&#45;&gt;Node8</title>
<path fill="none" stroke="orange" d="M285.9,-475.7C289.88,-459.2 295.5,-440.26 303,-424 305.76,-418.02 309.17,-411.97 312.79,-406.2"/>
<polygon fill="orange" stroke="orange" points="282.45,-475.07 283.62,-485.6 289.27,-476.64 282.45,-475.07"/>
<text text-anchor="start" x="303" y="-449" font-family="Helvetica,sans-Serif" font-size="10.00"> &lt; QueryInputIsIndex,</text>
<text text-anchor="start" x="303" y="-438" font-family="Helvetica,sans-Serif" font-size="10.00"> QueryOutputIsKNearest</text>
<text text-anchor="middle" x="362.5" y="-427" font-family="Helvetica,sans-Serif" font-size="10.00">&lt; Scalar &gt; &gt;</text>
</g>
</g>
</svg>
