<?xml version="1.0" encoding="UTF-8" standalone="no"?>
<!DOCTYPE svg PUBLIC "-//W3C//DTD SVG 1.1//EN"
 "http://www.w3.org/Graphics/SVG/1.1/DTD/svg11.dtd">
<!-- Generated by graphviz version 2.43.0 (0)
 -->
<!-- Title: Ponca::OrientedSphereDerImpl&lt; DataPoint, _WFunctor, DiffType, T &gt; Pages: 1 -->
<svg width="209pt" height="391pt"
 viewBox="0.00 0.00 208.50 391.00" xmlns="http://www.w3.org/2000/svg" xmlns:xlink="http://www.w3.org/1999/xlink">
<g id="graph0" class="graph" transform="scale(1 1) rotate(0) translate(4 387)">
<title>Ponca::OrientedSphereDerImpl&lt; DataPoint, _WFunctor, DiffType, T &gt;</title>
<!-- Node1 -->
<g id="node1" class="node">
<title>Node1</title>
<g id="a_node1"><a xlink:title="[OrientedSphereFit Definition]">
<polygon fill="#bfbfbf" stroke="black" points="42.5,-0.5 42.5,-277.5 200.5,-277.5 200.5,-0.5 42.5,-0.5"/>
<text text-anchor="start" x="50.5" y="-265.5" font-family="Helvetica,sans-Serif" font-size="10.00">Ponca::OrientedSphereDer</text>
<text text-anchor="start" x="50.5" y="-254.5" font-family="Helvetica,sans-Serif" font-size="10.00">Impl&lt; DataPoint, _WFunctor,</text>
<text text-anchor="middle" x="121.5" y="-243.5" font-family="Helvetica,sans-Serif" font-size="10.00"> DiffType, T &gt;</text>
<polyline fill="none" stroke="black" points="42.5,-236.5 200.5,-236.5 "/>
<text text-anchor="start" x="50.5" y="-224.5" font-family="Helvetica,sans-Serif" font-size="10.00">+ m_dUc</text>
<text text-anchor="start" x="50.5" y="-213.5" font-family="Helvetica,sans-Serif" font-size="10.00">+ m_dUq</text>
<text text-anchor="start" x="50.5" y="-202.5" font-family="Helvetica,sans-Serif" font-size="10.00">+ m_dUl</text>
<text text-anchor="start" x="50.5" y="-191.5" font-family="Helvetica,sans-Serif" font-size="10.00"># m_dSumN</text>
<text text-anchor="start" x="50.5" y="-180.5" font-family="Helvetica,sans-Serif" font-size="10.00"># m_dSumDotPN</text>
<text text-anchor="start" x="50.5" y="-169.5" font-family="Helvetica,sans-Serif" font-size="10.00"># m_dSumDotPP</text>
<text text-anchor="start" x="50.5" y="-158.5" font-family="Helvetica,sans-Serif" font-size="10.00"># m_dNume</text>
<text text-anchor="start" x="50.5" y="-147.5" font-family="Helvetica,sans-Serif" font-size="10.00"># m_dDeno</text>
<polyline fill="none" stroke="black" points="42.5,-140.5 200.5,-140.5 "/>
<text text-anchor="start" x="50.5" y="-128.5" font-family="Helvetica,sans-Serif" font-size="10.00">+ orientedSphereDer()</text>
<text text-anchor="start" x="50.5" y="-117.5" font-family="Helvetica,sans-Serif" font-size="10.00">+ orientedSphereDer()</text>
<text text-anchor="start" x="50.5" y="-106.5" font-family="Helvetica,sans-Serif" font-size="10.00">+ init()</text>
<text text-anchor="start" x="50.5" y="-95.5" font-family="Helvetica,sans-Serif" font-size="10.00">+ addLocalNeighbor()</text>
<text text-anchor="start" x="50.5" y="-84.5" font-family="Helvetica,sans-Serif" font-size="10.00">+ finalize()</text>
<text text-anchor="start" x="50.5" y="-73.5" font-family="Helvetica,sans-Serif" font-size="10.00">+ dPotential()</text>
<text text-anchor="start" x="50.5" y="-62.5" font-family="Helvetica,sans-Serif" font-size="10.00">+ dNormal()</text>
<text text-anchor="start" x="50.5" y="-51.5" font-family="Helvetica,sans-Serif" font-size="10.00">+ dprattNorm2()</text>
<text text-anchor="start" x="50.5" y="-40.5" font-family="Helvetica,sans-Serif" font-size="10.00">+ dprattNorm2()</text>
<text text-anchor="start" x="50.5" y="-29.5" font-family="Helvetica,sans-Serif" font-size="10.00">+ dprattNorm()</text>
<text text-anchor="start" x="50.5" y="-18.5" font-family="Helvetica,sans-Serif" font-size="10.00">+ dprattNorm()</text>
<text text-anchor="start" x="50.5" y="-7.5" font-family="Helvetica,sans-Serif" font-size="10.00">+ applyPrattNorm()</text>
</a>
</g>
</g>
<!-- Node2 -->
<g id="node2" class="node">
<title>Node2</title>
<g id="a_node2"><a xlink:title=" ">
<polygon fill="none" stroke="#bfbfbf" points="0,-314.5 0,-382.5 141,-382.5 141,-314.5 0,-314.5"/>
<text text-anchor="start" x="8" y="-370.5" font-family="Helvetica,sans-Serif" font-size="10.00">Concept::FittingExtension</text>
<text text-anchor="middle" x="70.5" y="-359.5" font-family="Helvetica,sans-Serif" font-size="10.00">Concept</text>
<polyline fill="none" stroke="#bfbfbf" points="0,-352.5 141,-352.5 "/>
<text text-anchor="middle" x="70.5" y="-340.5" font-family="Helvetica,sans-Serif" font-size="10.00"> </text>
<polyline fill="none" stroke="#bfbfbf" points="0,-333.5 141,-333.5 "/>
<text text-anchor="middle" x="70.5" y="-321.5" font-family="Helvetica,sans-Serif" font-size="10.00"> </text>
</a>
</g>
</g>
<!-- Node2&#45;&gt;Node1 -->
<g id="edge1" class="edge">
<title>Node2&#45;&gt;Node1</title>
<path fill="none" stroke="midnightblue" d="M81.14,-304.2C83.16,-295.99 85.37,-287.01 87.68,-277.6"/>
<polygon fill="none" stroke="midnightblue" points="77.68,-303.62 78.69,-314.16 84.48,-305.29 77.68,-303.62"/>
</g>
<!-- Node3 -->
<g id="node3" class="node">
<title>Node3</title>
<g id="a_node3"><a xlink:title=" ">
<polygon fill="none" stroke="#bfbfbf" points="159,-320 159,-377 188,-377 188,-320 159,-320"/>
<text text-anchor="middle" x="173.5" y="-365" font-family="Helvetica,sans-Serif" font-size="10.00">T</text>
<polyline fill="none" stroke="#bfbfbf" points="159,-358 188,-358 "/>
<text text-anchor="middle" x="173.5" y="-346" font-family="Helvetica,sans-Serif" font-size="10.00"> </text>
<polyline fill="none" stroke="#bfbfbf" points="159,-339 188,-339 "/>
<text text-anchor="middle" x="173.5" y="-327" font-family="Helvetica,sans-Serif" font-size="10.00"> </text>
</a>
</g>
</g>
<!-- Node3&#45;&gt;Node1 -->
<g id="edge2" class="edge">
<title>Node3&#45;&gt;Node1</title>
<path fill="none" stroke="midnightblue" d="M164.09,-309.96C161.66,-300.24 158.89,-289.2 155.96,-277.51"/>
<polygon fill="none" stroke="midnightblue" points="160.77,-311.1 166.59,-319.95 167.56,-309.39 160.77,-311.1"/>
</g>
</g>
</svg>
