<?xml version="1.0" encoding="UTF-8" standalone="no"?>
<!DOCTYPE svg PUBLIC "-//W3C//DTD SVG 1.1//EN"
 "http://www.w3.org/Graphics/SVG/1.1/DTD/svg11.dtd">
<!-- Generated by graphviz version 2.43.0 (0)
 -->
<!-- Title: Ponca::KdTree&lt; _DataPoint &gt; Pages: 1 -->
<svg width="426pt" height="513pt"
 viewBox="0.00 0.00 425.50 513.00" xmlns="http://www.w3.org/2000/svg" xmlns:xlink="http://www.w3.org/1999/xlink">
<g id="graph0" class="graph" transform="scale(1 1) rotate(0) translate(4 509)">
<title>Ponca::KdTree&lt; _DataPoint &gt;</title>
<polygon fill="white" stroke="transparent" points="-4,4 -4,-509 421.5,-509 421.5,4 -4,4"/>
<!-- Node1 -->
<g id="node1" class="node">
<title>Node1</title>
<g id="a_node1"><a xlink:title=" ">
<polygon fill="#bfbfbf" stroke="black" points="129,-0.5 129,-178.5 290,-178.5 290,-0.5 129,-0.5"/>
<text text-anchor="middle" x="209.5" y="-166.5" font-family="Helvetica,sans-Serif" font-size="10.00">Ponca::KdTree&lt; _DataPoint &gt;</text>
<polyline fill="none" stroke="black" points="129,-159.5 290,-159.5 "/>
<text text-anchor="start" x="137" y="-147.5" font-family="Helvetica,sans-Serif" font-size="10.00"># m_min_cell_size</text>
<text text-anchor="start" x="137" y="-136.5" font-family="Helvetica,sans-Serif" font-size="10.00"># m_leaf_count</text>
<polyline fill="none" stroke="black" points="129,-129.5 290,-129.5 "/>
<text text-anchor="start" x="137" y="-117.5" font-family="Helvetica,sans-Serif" font-size="10.00">+ KdTree()</text>
<text text-anchor="start" x="137" y="-106.5" font-family="Helvetica,sans-Serif" font-size="10.00">+ KdTree()</text>
<text text-anchor="start" x="137" y="-95.5" font-family="Helvetica,sans-Serif" font-size="10.00">+ KdTree()</text>
<text text-anchor="start" x="137" y="-84.5" font-family="Helvetica,sans-Serif" font-size="10.00">+ clear()</text>
<text text-anchor="start" x="137" y="-73.5" font-family="Helvetica,sans-Serif" font-size="10.00">+ build()</text>
<text text-anchor="start" x="137" y="-62.5" font-family="Helvetica,sans-Serif" font-size="10.00">+ build()</text>
<text text-anchor="start" x="137" y="-51.5" font-family="Helvetica,sans-Serif" font-size="10.00">+ buildWithSampling()</text>
<text text-anchor="start" x="137" y="-40.5" font-family="Helvetica,sans-Serif" font-size="10.00">+ buildWithSampling()</text>
<text text-anchor="start" x="137" y="-29.5" font-family="Helvetica,sans-Serif" font-size="10.00">+ rebuild()</text>
<text text-anchor="start" x="137" y="-18.5" font-family="Helvetica,sans-Serif" font-size="10.00">+ valid()</text>
<text text-anchor="start" x="137" y="-7.5" font-family="Helvetica,sans-Serif" font-size="10.00">and 21 more...</text>
</a>
</g>
</g>
<!-- Node2 -->
<g id="node2" class="node">
<title>Node2</title>
<g id="a_node2"><a xlink:title=" ">
<polygon fill="white" stroke="#bfbfbf" points="0,-232 0,-289 139,-289 139,-232 0,-232"/>
<text text-anchor="middle" x="69.5" y="-277" font-family="Helvetica,sans-Serif" font-size="10.00">std::vector&lt; DataPoint &gt;</text>
<polyline fill="none" stroke="#bfbfbf" points="0,-270 139,-270 "/>
<text text-anchor="start" x="8" y="-258" font-family="Helvetica,sans-Serif" font-size="10.00">+ elements</text>
<polyline fill="none" stroke="#bfbfbf" points="0,-251 139,-251 "/>
<text text-anchor="middle" x="69.5" y="-239" font-family="Helvetica,sans-Serif" font-size="10.00"> </text>
</a>
</g>
</g>
<!-- Node2&#45;&gt;Node1 -->
<g id="edge1" class="edge">
<title>Node2&#45;&gt;Node1</title>
<path fill="none" stroke="#404040" d="M92.31,-231.97C102.54,-219.62 115.29,-204.22 128.58,-188.18"/>
<polygon fill="none" stroke="#404040" points="128.8,-187.92 129.55,-180.74 136.46,-178.68 135.71,-185.85 128.8,-187.92"/>
<text text-anchor="middle" x="148" y="-200" font-family="Helvetica,sans-Serif" font-size="10.00"> #m_points</text>
</g>
<!-- Node3 -->
<g id="node3" class="node">
<title>Node3</title>
<g id="a_node3"><a xlink:title="STL class.">
<polygon fill="white" stroke="#bfbfbf" points="161,-342.5 161,-399.5 258,-399.5 258,-342.5 161,-342.5"/>
<text text-anchor="middle" x="209.5" y="-387.5" font-family="Helvetica,sans-Serif" font-size="10.00">std::vector&lt; T &gt;</text>
<polyline fill="none" stroke="#bfbfbf" points="161,-380.5 258,-380.5 "/>
<text text-anchor="middle" x="209.5" y="-368.5" font-family="Helvetica,sans-Serif" font-size="10.00"> </text>
<polyline fill="none" stroke="#bfbfbf" points="161,-361.5 258,-361.5 "/>
<text text-anchor="middle" x="209.5" y="-349.5" font-family="Helvetica,sans-Serif" font-size="10.00"> </text>
</a>
</g>
</g>
<!-- Node3&#45;&gt;Node2 -->
<g id="edge2" class="edge">
<title>Node3&#45;&gt;Node2</title>
<path fill="none" stroke="orange" d="M151.86,-338.31C144.82,-333.77 137.87,-328.95 131.5,-324 118.23,-313.68 104.92,-300.69 94.05,-289.23"/>
<polygon fill="orange" stroke="orange" points="150.46,-341.56 160.8,-343.89 154.17,-335.62 150.46,-341.56"/>
<text text-anchor="middle" x="168.5" y="-316" font-family="Helvetica,sans-Serif" font-size="10.00"> &lt; DataPoint &gt;</text>
</g>
<!-- Node5 -->
<g id="node5" class="node">
<title>Node5</title>
<g id="a_node5"><a xlink:title=" ">
<polygon fill="white" stroke="#bfbfbf" points="157.5,-232 157.5,-289 261.5,-289 261.5,-232 157.5,-232"/>
<text text-anchor="middle" x="209.5" y="-277" font-family="Helvetica,sans-Serif" font-size="10.00">std::vector&lt; int &gt;</text>
<polyline fill="none" stroke="#bfbfbf" points="157.5,-270 261.5,-270 "/>
<text text-anchor="start" x="165.5" y="-258" font-family="Helvetica,sans-Serif" font-size="10.00">+ elements</text>
<polyline fill="none" stroke="#bfbfbf" points="157.5,-251 261.5,-251 "/>
<text text-anchor="middle" x="209.5" y="-239" font-family="Helvetica,sans-Serif" font-size="10.00"> </text>
</a>
</g>
</g>
<!-- Node3&#45;&gt;Node5 -->
<g id="edge5" class="edge">
<title>Node3&#45;&gt;Node5</title>
<path fill="none" stroke="orange" d="M209.5,-331.94C209.5,-317.83 209.5,-302.11 209.5,-289.11"/>
<polygon fill="orange" stroke="orange" points="206,-332.34 209.5,-342.34 213,-332.34 206,-332.34"/>
<text text-anchor="middle" x="229" y="-316" font-family="Helvetica,sans-Serif" font-size="10.00"> &lt; int &gt;</text>
</g>
<!-- Node6 -->
<g id="node6" class="node">
<title>Node6</title>
<g id="a_node6"><a xlink:title=" ">
<polygon fill="white" stroke="#bfbfbf" points="279.5,-226.5 279.5,-294.5 417.5,-294.5 417.5,-226.5 279.5,-226.5"/>
<text text-anchor="start" x="287.5" y="-282.5" font-family="Helvetica,sans-Serif" font-size="10.00">std::vector&lt; KdTreeNode</text>
<text text-anchor="middle" x="348.5" y="-271.5" font-family="Helvetica,sans-Serif" font-size="10.00">&lt; Scalar &gt; &gt;</text>
<polyline fill="none" stroke="#bfbfbf" points="279.5,-264.5 417.5,-264.5 "/>
<text text-anchor="start" x="287.5" y="-252.5" font-family="Helvetica,sans-Serif" font-size="10.00">+ elements</text>
<polyline fill="none" stroke="#bfbfbf" points="279.5,-245.5 417.5,-245.5 "/>
<text text-anchor="middle" x="348.5" y="-233.5" font-family="Helvetica,sans-Serif" font-size="10.00"> </text>
</a>
</g>
</g>
<!-- Node3&#45;&gt;Node6 -->
<g id="edge7" class="edge">
<title>Node3&#45;&gt;Node6</title>
<path fill="none" stroke="orange" d="M253.04,-336.01C270,-322.77 289.36,-307.66 306.2,-294.52"/>
<polygon fill="orange" stroke="orange" points="250.66,-333.43 244.94,-342.34 254.97,-338.95 250.66,-333.43"/>
<text text-anchor="middle" x="348" y="-316" font-family="Helvetica,sans-Serif" font-size="10.00"> &lt; KdTreeNode&lt; Scalar &gt; &gt;</text>
</g>
<!-- Node4 -->
<g id="node4" class="node">
<title>Node4</title>
<g id="a_node4"><a xlink:title=" ">
<polygon fill="white" stroke="#bfbfbf" points="195,-447.5 195,-504.5 224,-504.5 224,-447.5 195,-447.5"/>
<text text-anchor="middle" x="209.5" y="-492.5" font-family="Helvetica,sans-Serif" font-size="10.00">T</text>
<polyline fill="none" stroke="#bfbfbf" points="195,-485.5 224,-485.5 "/>
<text text-anchor="middle" x="209.5" y="-473.5" font-family="Helvetica,sans-Serif" font-size="10.00"> </text>
<polyline fill="none" stroke="#bfbfbf" points="195,-466.5 224,-466.5 "/>
<text text-anchor="middle" x="209.5" y="-454.5" font-family="Helvetica,sans-Serif" font-size="10.00"> </text>
</a>
</g>
</g>
<!-- Node4&#45;&gt;Node3 -->
<g id="edge3" class="edge">
<title>Node4&#45;&gt;Node3</title>
<path fill="none" stroke="#404040" d="M209.5,-447.4C209.5,-436.55 209.5,-423.87 209.5,-412.05"/>
<polygon fill="none" stroke="#404040" points="209.5,-411.68 205.5,-405.68 209.5,-399.68 213.5,-405.68 209.5,-411.68"/>
<text text-anchor="middle" x="238.5" y="-421" font-family="Helvetica,sans-Serif" font-size="10.00"> +elements</text>
</g>
<!-- Node5&#45;&gt;Node1 -->
<g id="edge4" class="edge">
<title>Node5&#45;&gt;Node1</title>
<path fill="none" stroke="#404040" d="M209.5,-231.97C209.5,-220.31 209.5,-205.94 209.5,-190.87"/>
<polygon fill="none" stroke="#404040" points="209.5,-190.68 205.5,-184.68 209.5,-178.68 213.5,-184.68 209.5,-190.68"/>
<text text-anchor="middle" x="240" y="-200" font-family="Helvetica,sans-Serif" font-size="10.00"> #m_indices</text>
</g>
<!-- Node6&#45;&gt;Node1 -->
<g id="edge6" class="edge">
<title>Node6&#45;&gt;Node1</title>
<path fill="none" stroke="#404040" d="M321.04,-226.11C311.85,-214.93 301.08,-201.85 289.93,-188.29"/>
<polygon fill="none" stroke="#404040" points="289.79,-188.12 282.89,-186.02 282.17,-178.85 289.07,-180.94 289.79,-188.12"/>
<text text-anchor="middle" x="332.5" y="-200" font-family="Helvetica,sans-Serif" font-size="10.00"> #m_nodes</text>
</g>
</g>
</svg>
