<?xml version="1.0" encoding="UTF-8" standalone="no"?>
<!DOCTYPE svg PUBLIC "-//W3C//DTD SVG 1.1//EN"
 "http://www.w3.org/Graphics/SVG/1.1/DTD/svg11.dtd">
<!-- Generated by graphviz version 2.43.0 (0)
 -->
<!-- Title: Ponca::MeanPosition&lt; DataPoint, _WFunctor, T &gt; Pages: 1 -->
<svg width="198pt" height="239pt"
 viewBox="0.00 0.00 198.00 239.00" xmlns="http://www.w3.org/2000/svg" xmlns:xlink="http://www.w3.org/1999/xlink">

<svg id="main" version="1.1" xmlns="http://www.w3.org/2000/svg" xmlns:xlink="http://www.w3.org/1999/xlink" xml:space="preserve" onload="init(evt)">
<style type="text/css"><![CDATA[
.node, .edge {opacity: 0.7;}
.node.selected, .edge.selected {opacity: 1;}
.edge:hover path { stroke: red; }
.edge:hover polygon { stroke: red; fill: red; }
]]></style>
<script type="application/ecmascript" xlink:href="svg.min.js"/>
<svg id="graph" class="graph">
<g id="graph0" class="graph" transform="scale(1 1) rotate(0) translate(4 235)">
<title>Ponca::MeanPosition&lt; DataPoint, _WFunctor, T &gt;</title>
<!-- Node1 -->
<g id="Node000001" class="node">
<title>Node1</title>
<g id="a_Node000001"><a xlink:title="Compute the barycenter of the input points.">
<polygon fill="#999999" stroke="transparent" points="190,-135 40,-135 40,0 190,0 190,-135"/>
<text text-anchor="start" x="45" y="-122.5" font-family="Helvetica,sans-Serif" font-size="10.00">Ponca::MeanPosition</text>
<text text-anchor="start" x="45" y="-111.5" font-family="Helvetica,sans-Serif" font-size="10.00">&lt; DataPoint, _WFunctor, T &gt;</text>
<text text-anchor="start" x="52" y="-96.5" font-family="Helvetica,sans-Serif" font-size="10.00">#</text>
<text text-anchor="start" x="73" y="-96.5" font-family="Helvetica,sans-Serif" font-size="10.00">m_sumP</text>
<text text-anchor="start" x="52" y="-81.5" font-family="Helvetica,sans-Serif" font-size="10.00">+</text>
<text text-anchor="start" x="73" y="-81.5" font-family="Helvetica,sans-Serif" font-size="10.00">meanPosition()</text>
<text text-anchor="start" x="52" y="-66.5" font-family="Helvetica,sans-Serif" font-size="10.00">+</text>
<text text-anchor="start" x="73" y="-66.5" font-family="Helvetica,sans-Serif" font-size="10.00">meanPosition()</text>
<text text-anchor="start" x="52" y="-51.5" font-family="Helvetica,sans-Serif" font-size="10.00">+</text>
<text text-anchor="start" x="73" y="-51.5" font-family="Helvetica,sans-Serif" font-size="10.00">init()</text>
<text text-anchor="start" x="52" y="-36.5" font-family="Helvetica,sans-Serif" font-size="10.00">+</text>
<text text-anchor="start" x="73" y="-36.5" font-family="Helvetica,sans-Serif" font-size="10.00">addLocalNeighbor()</text>
<text text-anchor="start" x="52" y="-21.5" font-family="Helvetica,sans-Serif" font-size="10.00">+</text>
<text text-anchor="start" x="73" y="-21.5" font-family="Helvetica,sans-Serif" font-size="10.00">barycenter()</text>
<text text-anchor="start" x="52" y="-6.5" font-family="Helvetica,sans-Serif" font-size="10.00">#</text>
<text text-anchor="start" x="73" y="-6.5" font-family="Helvetica,sans-Serif" font-size="10.00">barycenterLocal()</text>
<polygon fill="#666666" stroke="#666666" points="40,-106.5 40,-106.5 190,-106.5 190,-106.5 40,-106.5"/>
<polygon fill="#666666" stroke="#666666" points="40,-91.5 40,-91.5 71,-91.5 71,-91.5 40,-91.5"/>
<polygon fill="#666666" stroke="#666666" points="71,-91.5 71,-91.5 190,-91.5 190,-91.5 71,-91.5"/>
<polygon fill="none" stroke="#666666" points="40,0 40,-135 190,-135 190,0 40,0"/>
</a>
</g>
</g>
<!-- Node2 -->
<g id="Node000002" class="node">
<title>Node2</title>
<g id="a_Node000002"><a xlink:title=" ">
<polygon fill="white" stroke="transparent" points="136,-231 0,-231 0,-171 136,-171 136,-231"/>
<text text-anchor="start" x="5" y="-219" font-family="Helvetica,sans-Serif" font-size="10.00">Concept::FittingProcedure</text>
<text text-anchor="start" x="48" y="-208" font-family="Helvetica,sans-Serif" font-size="10.00">Concept</text>
<text text-anchor="start" x="66" y="-193" font-family="Helvetica,sans-Serif" font-size="10.00"> </text>
<text text-anchor="start" x="66" y="-178" font-family="Helvetica,sans-Serif" font-size="10.00"> </text>
<polygon fill="#bfbfbf" stroke="#bfbfbf" points="0,-203 0,-203 136,-203 136,-203 0,-203"/>
<polygon fill="#bfbfbf" stroke="#bfbfbf" points="0,-188 0,-188 136,-188 136,-188 0,-188"/>
<polygon fill="none" stroke="#bfbfbf" points="0,-171 0,-231 136,-231 136,-171 0,-171"/>
</a>
</g>
</g>
<!-- Node2&#45;&gt;Node1 -->
<g id="edge1_Node000001_Node000002" class="edge">
<title>Node2&#45;&gt;Node1</title>
<g id="a_edge1_Node000001_Node000002"><a xlink:title=" ">
<path fill="none" stroke="#63b8ff" d="M81.89,-161.14C84.84,-152.89 88.03,-143.96 91.23,-135.01"/>
<polygon fill="none" stroke="#63b8ff" points="78.5,-160.22 78.43,-170.82 85.09,-162.58 78.5,-160.22"/>
</a>
</g>
</g>
<!-- Node3 -->
<g id="Node000003" class="node">
<title>Node3</title>
<g id="a_Node000003"><a xlink:title=" ">
<polygon fill="white" stroke="transparent" points="171.5,-225.5 154.5,-225.5 154.5,-176.5 171.5,-176.5 171.5,-225.5"/>
<text text-anchor="start" x="160" y="-213" font-family="Helvetica,sans-Serif" font-size="10.00">T</text>
<text text-anchor="start" x="161.5" y="-198" font-family="Helvetica,sans-Serif" font-size="10.00"> </text>
<text text-anchor="start" x="161.5" y="-183" font-family="Helvetica,sans-Serif" font-size="10.00"> </text>
<polygon fill="#bfbfbf" stroke="#bfbfbf" points="155,-208 155,-208 172,-208 172,-208 155,-208"/>
<polygon fill="#bfbfbf" stroke="#bfbfbf" points="155,-193 155,-193 172,-193 172,-193 155,-193"/>
<polygon fill="none" stroke="#bfbfbf" points="154.5,-176.5 154.5,-225.5 171.5,-225.5 171.5,-176.5 154.5,-176.5"/>
</a>
</g>
</g>
<!-- Node3&#45;&gt;Node1 -->
<g id="edge2_Node000001_Node000003" class="edge">
<title>Node3&#45;&gt;Node1</title>
<g id="a_edge2_Node000001_Node000003"><a xlink:title=" ">
<path fill="none" stroke="#63b8ff" d="M150.92,-166.9C147.38,-157.21 143.38,-146.25 139.36,-135.25"/>
<polygon fill="none" stroke="#63b8ff" points="147.7,-168.3 154.42,-176.49 154.28,-165.9 147.7,-168.3"/>
</a>
</g>
</g>
</g>
</svg>
</svg>

<style type='text/css'>
<![CDATA[
[data-mouse-over-selected='false'] { opacity: 0.7; }
[data-mouse-over-selected='true']  { opacity: 1.0; }
]]>
</style>
<script type="application/ecmascript"><![CDATA[
document.addEventListener('DOMContentLoaded', (event) => {
  highlightEdges();
  highlightAdjacentNodes();
});
]]></script>
</svg>
