<?xml version="1.0" encoding="UTF-8" standalone="no"?>
<!DOCTYPE svg PUBLIC "-//W3C//DTD SVG 1.1//EN"
 "http://www.w3.org/Graphics/SVG/1.1/DTD/svg11.dtd">
<!-- Generated by graphviz version 2.43.0 (0)
 -->
<!-- Title: Ponca::PrimitiveDer&lt; DataPoint, _WFunctor, Type, T &gt; Pages: 1 -->
<svg width="194pt" height="248pt"
 viewBox="0.00 0.00 193.50 248.00" xmlns="http://www.w3.org/2000/svg" xmlns:xlink="http://www.w3.org/1999/xlink">
<g id="graph0" class="graph" transform="scale(1 1) rotate(0) translate(4 244)">
<title>Ponca::PrimitiveDer&lt; DataPoint, _WFunctor, Type, T &gt;</title>
<!-- Node1 -->
<g id="node1" class="node">
<title>Node1</title>
<g id="a_node1"><a xlink:title="Generic class performing the Fit derivation.">
<polygon fill="#bfbfbf" stroke="black" points="49.5,-0.5 49.5,-145.5 185.5,-145.5 185.5,-0.5 49.5,-0.5"/>
<text text-anchor="start" x="57.5" y="-133.5" font-family="Helvetica,sans-Serif" font-size="10.00">Ponca::PrimitiveDer</text>
<text text-anchor="start" x="57.5" y="-122.5" font-family="Helvetica,sans-Serif" font-size="10.00">&lt; DataPoint, _WFunctor,</text>
<text text-anchor="middle" x="117.5" y="-111.5" font-family="Helvetica,sans-Serif" font-size="10.00"> Type, T &gt;</text>
<polyline fill="none" stroke="black" points="49.5,-104.5 185.5,-104.5 "/>
<text text-anchor="start" x="57.5" y="-92.5" font-family="Helvetica,sans-Serif" font-size="10.00"># m_dSumW</text>
<text text-anchor="start" x="57.5" y="-81.5" font-family="Helvetica,sans-Serif" font-size="10.00"># NbDerivatives</text>
<text text-anchor="start" x="57.5" y="-70.5" font-family="Helvetica,sans-Serif" font-size="10.00"># DerStorageOrder</text>
<polyline fill="none" stroke="black" points="49.5,-63.5 185.5,-63.5 "/>
<text text-anchor="start" x="57.5" y="-51.5" font-family="Helvetica,sans-Serif" font-size="10.00">+ init()</text>
<text text-anchor="start" x="57.5" y="-40.5" font-family="Helvetica,sans-Serif" font-size="10.00">+ addLocalNeighbor()</text>
<text text-anchor="start" x="57.5" y="-29.5" font-family="Helvetica,sans-Serif" font-size="10.00">+ isScaleDer()</text>
<text text-anchor="start" x="57.5" y="-18.5" font-family="Helvetica,sans-Serif" font-size="10.00">+ isSpaceDer()</text>
<text text-anchor="start" x="57.5" y="-7.5" font-family="Helvetica,sans-Serif" font-size="10.00">+ derDimension()</text>
</a>
</g>
</g>
<!-- Node2 -->
<g id="node2" class="node">
<title>Node2</title>
<g id="a_node2"><a xlink:title=" ">
<polygon fill="none" stroke="#bfbfbf" points="0,-182.5 0,-239.5 135,-239.5 135,-182.5 0,-182.5"/>
<text text-anchor="middle" x="67.5" y="-227.5" font-family="Helvetica,sans-Serif" font-size="10.00">FittingExtensionConcept</text>
<polyline fill="none" stroke="#bfbfbf" points="0,-220.5 135,-220.5 "/>
<text text-anchor="middle" x="67.5" y="-208.5" font-family="Helvetica,sans-Serif" font-size="10.00"> </text>
<polyline fill="none" stroke="#bfbfbf" points="0,-201.5 135,-201.5 "/>
<text text-anchor="middle" x="67.5" y="-189.5" font-family="Helvetica,sans-Serif" font-size="10.00"> </text>
</a>
</g>
</g>
<!-- Node2&#45;&gt;Node1 -->
<g id="edge1" class="edge">
<title>Node2&#45;&gt;Node1</title>
<path fill="none" stroke="midnightblue" d="M81.14,-172.91C84.26,-164.4 87.69,-155.08 91.16,-145.66"/>
<polygon fill="none" stroke="midnightblue" points="77.78,-171.88 77.62,-182.48 84.35,-174.3 77.78,-171.88"/>
</g>
<!-- Node3 -->
<g id="node3" class="node">
<title>Node3</title>
<g id="a_node3"><a xlink:title=" ">
<polygon fill="none" stroke="#bfbfbf" points="153,-182.5 153,-239.5 182,-239.5 182,-182.5 153,-182.5"/>
<text text-anchor="middle" x="167.5" y="-227.5" font-family="Helvetica,sans-Serif" font-size="10.00">T</text>
<polyline fill="none" stroke="#bfbfbf" points="153,-220.5 182,-220.5 "/>
<text text-anchor="middle" x="167.5" y="-208.5" font-family="Helvetica,sans-Serif" font-size="10.00"> </text>
<polyline fill="none" stroke="#bfbfbf" points="153,-201.5 182,-201.5 "/>
<text text-anchor="middle" x="167.5" y="-189.5" font-family="Helvetica,sans-Serif" font-size="10.00"> </text>
</a>
</g>
</g>
<!-- Node3&#45;&gt;Node1 -->
<g id="edge2" class="edge">
<title>Node3&#45;&gt;Node1</title>
<path fill="none" stroke="midnightblue" d="M153.86,-172.91C150.74,-164.4 147.31,-155.08 143.84,-145.66"/>
<polygon fill="none" stroke="midnightblue" points="150.65,-174.3 157.38,-182.48 157.22,-171.88 150.65,-174.3"/>
</g>
</g>
</svg>
