<?xml version="1.0" encoding="UTF-8" standalone="no"?>
<!DOCTYPE svg PUBLIC "-//W3C//DTD SVG 1.1//EN"
 "http://www.w3.org/Graphics/SVG/1.1/DTD/svg11.dtd">
<!-- Generated by graphviz version 2.43.0 (0)
 -->
<!-- Title: Ponca::UnorientedSphereDerImpl&lt; DataPoint, _NFilter, DiffType, T &gt; Pages: 1 -->
<svg width="159pt" height="314pt"
 viewBox="0.00 0.00 159.00 314.00" xmlns="http://www.w3.org/2000/svg" xmlns:xlink="http://www.w3.org/1999/xlink">
<g id="graph0" class="graph" transform="scale(1 1) rotate(0) translate(4 310)">
<title>Ponca::UnorientedSphereDerImpl&lt; DataPoint, _NFilter, DiffType, T &gt;</title>
<!-- Node1 -->
<g id="Node000001" class="node">
<title>Node1</title>
<g id="a_Node000001"><a xlink:title=" ">
<polygon fill="#999999" stroke="transparent" points="151,-221 0,-221 0,0 151,0 151,-221"/>
<text text-anchor="start" x="5.5" y="-208.5" font-family="Helvetica,sans-Serif" font-size="10.00">Ponca::UnorientedSphereDer</text>
<text text-anchor="start" x="5.5" y="-197.5" font-family="Helvetica,sans-Serif" font-size="10.00">Impl&lt; DataPoint, _NFilter,</text>
<text text-anchor="start" x="42.5" y="-186.5" font-family="Helvetica,sans-Serif" font-size="10.00"> DiffType, T &gt;</text>
<text text-anchor="start" x="9" y="-171.5" font-family="Helvetica,sans-Serif" font-size="10.00">+</text>
<text text-anchor="start" x="26.5" y="-171.5" font-family="Helvetica,sans-Serif" font-size="10.00">m_dUc</text>
<text text-anchor="start" x="9" y="-156.5" font-family="Helvetica,sans-Serif" font-size="10.00">+</text>
<text text-anchor="start" x="26.5" y="-156.5" font-family="Helvetica,sans-Serif" font-size="10.00">m_dUl</text>
<text text-anchor="start" x="9" y="-141.5" font-family="Helvetica,sans-Serif" font-size="10.00">+</text>
<text text-anchor="start" x="26.5" y="-141.5" font-family="Helvetica,sans-Serif" font-size="10.00">m_dUq</text>
<text text-anchor="start" x="9" y="-126.5" font-family="Helvetica,sans-Serif" font-size="10.00">#</text>
<text text-anchor="start" x="26.5" y="-126.5" font-family="Helvetica,sans-Serif" font-size="10.00">m_dmatA</text>
<text text-anchor="start" x="9" y="-111.5" font-family="Helvetica,sans-Serif" font-size="10.00">#</text>
<text text-anchor="start" x="26.5" y="-111.5" font-family="Helvetica,sans-Serif" font-size="10.00">m_dSumDotPP</text>
<text text-anchor="start" x="9" y="-96.5" font-family="Helvetica,sans-Serif" font-size="10.00">+</text>
<text text-anchor="start" x="26.5" y="-96.5" font-family="Helvetica,sans-Serif" font-size="10.00">unorientedSphereDer()</text>
<text text-anchor="start" x="9" y="-81.5" font-family="Helvetica,sans-Serif" font-size="10.00">+</text>
<text text-anchor="start" x="26.5" y="-81.5" font-family="Helvetica,sans-Serif" font-size="10.00">unorientedSphereDer()</text>
<text text-anchor="start" x="9" y="-66.5" font-family="Helvetica,sans-Serif" font-size="10.00">+</text>
<text text-anchor="start" x="26.5" y="-66.5" font-family="Helvetica,sans-Serif" font-size="10.00">init()</text>
<text text-anchor="start" x="9" y="-51.5" font-family="Helvetica,sans-Serif" font-size="10.00">+</text>
<text text-anchor="start" x="26.5" y="-51.5" font-family="Helvetica,sans-Serif" font-size="10.00">addLocalNeighbor()</text>
<text text-anchor="start" x="9" y="-36.5" font-family="Helvetica,sans-Serif" font-size="10.00">+</text>
<text text-anchor="start" x="26.5" y="-36.5" font-family="Helvetica,sans-Serif" font-size="10.00">finalize()</text>
<text text-anchor="start" x="9" y="-21.5" font-family="Helvetica,sans-Serif" font-size="10.00">+</text>
<text text-anchor="start" x="26.5" y="-21.5" font-family="Helvetica,sans-Serif" font-size="10.00">dPotential()</text>
<text text-anchor="start" x="9" y="-6.5" font-family="Helvetica,sans-Serif" font-size="10.00">+</text>
<text text-anchor="start" x="26.5" y="-6.5" font-family="Helvetica,sans-Serif" font-size="10.00">dNormal()</text>
<polygon fill="#666666" stroke="#666666" points="0.5,-181.5 0.5,-181.5 151.5,-181.5 151.5,-181.5 0.5,-181.5"/>
<polygon fill="#666666" stroke="#666666" points="0.5,-106.5 0.5,-106.5 24.5,-106.5 24.5,-106.5 0.5,-106.5"/>
<polygon fill="#666666" stroke="#666666" points="24.5,-106.5 24.5,-106.5 151.5,-106.5 151.5,-106.5 24.5,-106.5"/>
<polygon fill="none" stroke="#666666" points="0,0 0,-221 151,-221 151,0 0,0"/>
</a>
</g>
</g>
<!-- Node2 -->
<g id="Node000002" class="node">
<title>Node2</title>
<g id="a_Node000002"><a xlink:title=" ">
<polygon fill="white" stroke="transparent" points="84,-306 67,-306 67,-257 84,-257 84,-306"/>
<text text-anchor="start" x="72.5" y="-293.5" font-family="Helvetica,sans-Serif" font-size="10.00">T</text>
<text text-anchor="start" x="74" y="-278.5" font-family="Helvetica,sans-Serif" font-size="10.00"> </text>
<text text-anchor="start" x="74" y="-263.5" font-family="Helvetica,sans-Serif" font-size="10.00"> </text>
<polygon fill="#bfbfbf" stroke="#bfbfbf" points="67.5,-288.5 67.5,-288.5 84.5,-288.5 84.5,-288.5 67.5,-288.5"/>
<polygon fill="#bfbfbf" stroke="#bfbfbf" points="67.5,-273.5 67.5,-273.5 84.5,-273.5 84.5,-273.5 67.5,-273.5"/>
<polygon fill="none" stroke="#bfbfbf" points="67,-257 67,-306 84,-306 84,-257 67,-257"/>
</a>
</g>
</g>
<!-- Node2&#45;&gt;Node1 -->
<g id="edge1_Node000001_Node000002" class="edge">
<title>Node2&#45;&gt;Node1</title>
<g id="a_edge1_Node000001_Node000002"><a xlink:title=" ">
<path fill="none" stroke="#63b8ff" d="M75.5,-246.44C75.5,-238.77 75.5,-230.23 75.5,-221.28"/>
<polygon fill="none" stroke="#63b8ff" points="72,-246.64 75.5,-256.64 79,-246.64 72,-246.64"/>
</a>
</g>
</g>
</g>
</svg>
