<?xml version="1.0" encoding="UTF-8" standalone="no"?>
<!DOCTYPE svg PUBLIC "-//W3C//DTD SVG 1.1//EN"
 "http://www.w3.org/Graphics/SVG/1.1/DTD/svg11.dtd">
<!-- Generated by graphviz version 2.43.0 (0)
 -->
<!-- Title: Ponca::OrientedSphereScaleDer&lt; DataPoint, _WFunctor, T &gt; Pages: 1 -->
<svg width="327pt" height="977pt"
 viewBox="0.00 0.00 326.75 977.00" xmlns="http://www.w3.org/2000/svg" xmlns:xlink="http://www.w3.org/1999/xlink">
<g id="graph0" class="graph" transform="scale(1 1) rotate(0) translate(4 973)">
<title>Ponca::OrientedSphereScaleDer&lt; DataPoint, _WFunctor, T &gt;</title>
<polygon fill="white" stroke="transparent" points="-4,4 -4,-973 322.75,-973 322.75,4 -4,4"/>
<!-- Node1 -->
<g id="node1" class="node">
<title>Node1</title>
<g id="a_node1"><a xlink:title="Differentiation in scale of the OrientedSphereFit.">
<polygon fill="#bfbfbf" stroke="black" points="0,-0.5 0,-101.5 173,-101.5 173,-0.5 0,-0.5"/>
<text text-anchor="start" x="8" y="-89.5" font-family="Helvetica,sans-Serif" font-size="10.00">Ponca::OrientedSphereScale</text>
<text text-anchor="middle" x="86.5" y="-78.5" font-family="Helvetica,sans-Serif" font-size="10.00">Der&lt; DataPoint, _WFunctor, T &gt;</text>
<polyline fill="none" stroke="black" points="0,-71.5 173,-71.5 "/>
<text text-anchor="start" x="8" y="-59.5" font-family="Helvetica,sans-Serif" font-size="10.00">~ __pad0__</text>
<text text-anchor="start" x="8" y="-48.5" font-family="Helvetica,sans-Serif" font-size="10.00">~ _WFunctor</text>
<text text-anchor="start" x="8" y="-37.5" font-family="Helvetica,sans-Serif" font-size="10.00">~ T</text>
<text text-anchor="start" x="8" y="-26.5" font-family="Helvetica,sans-Serif" font-size="10.00">~ __pad1__</text>
<polyline fill="none" stroke="black" points="0,-19.5 173,-19.5 "/>
<text text-anchor="middle" x="86.5" y="-7.5" font-family="Helvetica,sans-Serif" font-size="10.00"> </text>
</a>
</g>
</g>
<!-- Node2 -->
<g id="node2" class="node">
<title>Node2</title>
<g id="a_node2"><a xlink:href="classPonca_1_1Concept_1_1FittingExtensionConcept.html" target="_top" xlink:title="Describes how to add features to an existing fitting procedure.">
<polygon fill="white" stroke="black" points="17.5,-867.5 17.5,-968.5 213.5,-968.5 213.5,-867.5 17.5,-867.5"/>
<text text-anchor="start" x="25.5" y="-956.5" font-family="Helvetica,sans-Serif" font-size="10.00">Ponca::Concept::FittingExtension</text>
<text text-anchor="middle" x="115.5" y="-945.5" font-family="Helvetica,sans-Serif" font-size="10.00">Concept&lt; DataPoint, _WFunctor, T &gt;</text>
<polyline fill="none" stroke="black" points="17.5,-938.5 213.5,-938.5 "/>
<text text-anchor="middle" x="115.5" y="-926.5" font-family="Helvetica,sans-Serif" font-size="10.00"> </text>
<polyline fill="none" stroke="black" points="17.5,-919.5 213.5,-919.5 "/>
<text text-anchor="start" x="25.5" y="-907.5" font-family="Helvetica,sans-Serif" font-size="10.00">+ setWeightFunc()</text>
<text text-anchor="start" x="25.5" y="-896.5" font-family="Helvetica,sans-Serif" font-size="10.00">+ init()</text>
<text text-anchor="start" x="25.5" y="-885.5" font-family="Helvetica,sans-Serif" font-size="10.00">+ addNeighbor()</text>
<text text-anchor="start" x="25.5" y="-874.5" font-family="Helvetica,sans-Serif" font-size="10.00">+ finalize()</text>
</a>
</g>
</g>
<!-- Node2&#45;&gt;Node1 -->
<g id="edge1" class="edge">
<title>Node2&#45;&gt;Node1</title>
<path fill="none" stroke="midnightblue" d="M112.02,-857.2C107.09,-770.09 98.14,-603.16 93.5,-461 89.27,-331.46 87.51,-178.76 86.85,-101.75"/>
<polygon fill="none" stroke="midnightblue" points="108.54,-857.64 112.6,-867.43 115.53,-857.24 108.54,-857.64"/>
</g>
<!-- Node3 -->
<g id="node3" class="node">
<title>Node3</title>
<g id="a_node3"><a xlink:href="classPonca_1_1internal_1_1OrientedSphereDer.html" target="_top" xlink:title=" ">
<polygon fill="white" stroke="black" points="103,-139.5 103,-460.5 240,-460.5 240,-139.5 103,-139.5"/>
<text text-anchor="start" x="111" y="-448.5" font-family="Helvetica,sans-Serif" font-size="10.00">Ponca::internal::Oriented</text>
<text text-anchor="start" x="111" y="-437.5" font-family="Helvetica,sans-Serif" font-size="10.00">SphereDer&lt; DataPoint, </text>
<text text-anchor="start" x="111" y="-426.5" font-family="Helvetica,sans-Serif" font-size="10.00">_WFunctor, T, internal::</text>
<text text-anchor="middle" x="171.5" y="-415.5" font-family="Helvetica,sans-Serif" font-size="10.00">FitScaleDer &gt;</text>
<polyline fill="none" stroke="black" points="103,-408.5 240,-408.5 "/>
<text text-anchor="start" x="111" y="-396.5" font-family="Helvetica,sans-Serif" font-size="10.00">+ m_dUc</text>
<text text-anchor="start" x="111" y="-385.5" font-family="Helvetica,sans-Serif" font-size="10.00">+ m_dUq</text>
<text text-anchor="start" x="111" y="-374.5" font-family="Helvetica,sans-Serif" font-size="10.00">+ m_dUl</text>
<text text-anchor="start" x="111" y="-363.5" font-family="Helvetica,sans-Serif" font-size="10.00"># m_dSumN</text>
<text text-anchor="start" x="111" y="-352.5" font-family="Helvetica,sans-Serif" font-size="10.00"># m_dSumP</text>
<text text-anchor="start" x="111" y="-341.5" font-family="Helvetica,sans-Serif" font-size="10.00"># m_dSumDotPN</text>
<text text-anchor="start" x="111" y="-330.5" font-family="Helvetica,sans-Serif" font-size="10.00"># m_dSumDotPP</text>
<text text-anchor="start" x="111" y="-319.5" font-family="Helvetica,sans-Serif" font-size="10.00"># m_dSumW</text>
<text text-anchor="start" x="111" y="-308.5" font-family="Helvetica,sans-Serif" font-size="10.00"># m_dNume</text>
<text text-anchor="start" x="111" y="-297.5" font-family="Helvetica,sans-Serif" font-size="10.00"># m_dDeno</text>
<polyline fill="none" stroke="black" points="103,-290.5 240,-290.5 "/>
<text text-anchor="start" x="111" y="-278.5" font-family="Helvetica,sans-Serif" font-size="10.00">+ init()</text>
<text text-anchor="start" x="111" y="-267.5" font-family="Helvetica,sans-Serif" font-size="10.00">+ addNeighbor()</text>
<text text-anchor="start" x="111" y="-256.5" font-family="Helvetica,sans-Serif" font-size="10.00">+ finalize()</text>
<text text-anchor="start" x="111" y="-245.5" font-family="Helvetica,sans-Serif" font-size="10.00">+ dPotential()</text>
<text text-anchor="start" x="111" y="-234.5" font-family="Helvetica,sans-Serif" font-size="10.00">+ dNormal()</text>
<text text-anchor="start" x="111" y="-223.5" font-family="Helvetica,sans-Serif" font-size="10.00">+ dprattNorm2()</text>
<text text-anchor="start" x="111" y="-212.5" font-family="Helvetica,sans-Serif" font-size="10.00">+ dprattNorm2()</text>
<text text-anchor="start" x="111" y="-201.5" font-family="Helvetica,sans-Serif" font-size="10.00">+ dprattNorm()</text>
<text text-anchor="start" x="111" y="-190.5" font-family="Helvetica,sans-Serif" font-size="10.00">+ dprattNorm()</text>
<text text-anchor="start" x="111" y="-179.5" font-family="Helvetica,sans-Serif" font-size="10.00">+ applyPrattNorm()</text>
<text text-anchor="start" x="111" y="-168.5" font-family="Helvetica,sans-Serif" font-size="10.00">+ isScaleDer()</text>
<text text-anchor="start" x="111" y="-157.5" font-family="Helvetica,sans-Serif" font-size="10.00">+ isSpaceDer()</text>
<text text-anchor="start" x="111" y="-146.5" font-family="Helvetica,sans-Serif" font-size="10.00">+ derDimension()</text>
</a>
</g>
</g>
<!-- Node2&#45;&gt;Node3 -->
<g id="edge3" class="edge">
<title>Node2&#45;&gt;Node3</title>
<path fill="none" stroke="midnightblue" d="M116.12,-857.09C117.43,-779.04 121.56,-638.46 134.5,-519 136.56,-500.01 139.21,-480.17 142.15,-460.53"/>
<polygon fill="none" stroke="midnightblue" points="112.61,-857.16 115.96,-867.21 119.61,-857.27 112.61,-857.16"/>
</g>
<!-- Node5 -->
<g id="node5" class="node">
<title>Node5</title>
<g id="a_node5"><a xlink:href="classPonca_1_1internal_1_1OrientedSphereDer.html" target="_top" xlink:title="Internal generic class performing the Fit derivation.">
<polygon fill="white" stroke="black" points="144,-519.5 144,-829.5 281,-829.5 281,-519.5 144,-519.5"/>
<text text-anchor="start" x="152" y="-817.5" font-family="Helvetica,sans-Serif" font-size="10.00">Ponca::internal::Oriented</text>
<text text-anchor="start" x="152" y="-806.5" font-family="Helvetica,sans-Serif" font-size="10.00">SphereDer&lt; DataPoint, </text>
<text text-anchor="middle" x="212.5" y="-795.5" font-family="Helvetica,sans-Serif" font-size="10.00">_WFunctor, T, _Type &gt;</text>
<polyline fill="none" stroke="black" points="144,-788.5 281,-788.5 "/>
<text text-anchor="start" x="152" y="-776.5" font-family="Helvetica,sans-Serif" font-size="10.00">+ m_dUc</text>
<text text-anchor="start" x="152" y="-765.5" font-family="Helvetica,sans-Serif" font-size="10.00">+ m_dUq</text>
<text text-anchor="start" x="152" y="-754.5" font-family="Helvetica,sans-Serif" font-size="10.00">+ m_dUl</text>
<text text-anchor="start" x="152" y="-743.5" font-family="Helvetica,sans-Serif" font-size="10.00"># m_dSumN</text>
<text text-anchor="start" x="152" y="-732.5" font-family="Helvetica,sans-Serif" font-size="10.00"># m_dSumP</text>
<text text-anchor="start" x="152" y="-721.5" font-family="Helvetica,sans-Serif" font-size="10.00"># m_dSumDotPN</text>
<text text-anchor="start" x="152" y="-710.5" font-family="Helvetica,sans-Serif" font-size="10.00"># m_dSumDotPP</text>
<text text-anchor="start" x="152" y="-699.5" font-family="Helvetica,sans-Serif" font-size="10.00"># m_dSumW</text>
<text text-anchor="start" x="152" y="-688.5" font-family="Helvetica,sans-Serif" font-size="10.00"># m_dNume</text>
<text text-anchor="start" x="152" y="-677.5" font-family="Helvetica,sans-Serif" font-size="10.00"># m_dDeno</text>
<polyline fill="none" stroke="black" points="144,-670.5 281,-670.5 "/>
<text text-anchor="start" x="152" y="-658.5" font-family="Helvetica,sans-Serif" font-size="10.00">+ init()</text>
<text text-anchor="start" x="152" y="-647.5" font-family="Helvetica,sans-Serif" font-size="10.00">+ addNeighbor()</text>
<text text-anchor="start" x="152" y="-636.5" font-family="Helvetica,sans-Serif" font-size="10.00">+ finalize()</text>
<text text-anchor="start" x="152" y="-625.5" font-family="Helvetica,sans-Serif" font-size="10.00">+ dPotential()</text>
<text text-anchor="start" x="152" y="-614.5" font-family="Helvetica,sans-Serif" font-size="10.00">+ dNormal()</text>
<text text-anchor="start" x="152" y="-603.5" font-family="Helvetica,sans-Serif" font-size="10.00">+ dprattNorm2()</text>
<text text-anchor="start" x="152" y="-592.5" font-family="Helvetica,sans-Serif" font-size="10.00">+ dprattNorm2()</text>
<text text-anchor="start" x="152" y="-581.5" font-family="Helvetica,sans-Serif" font-size="10.00">+ dprattNorm()</text>
<text text-anchor="start" x="152" y="-570.5" font-family="Helvetica,sans-Serif" font-size="10.00">+ dprattNorm()</text>
<text text-anchor="start" x="152" y="-559.5" font-family="Helvetica,sans-Serif" font-size="10.00">+ applyPrattNorm()</text>
<text text-anchor="start" x="152" y="-548.5" font-family="Helvetica,sans-Serif" font-size="10.00">+ isScaleDer()</text>
<text text-anchor="start" x="152" y="-537.5" font-family="Helvetica,sans-Serif" font-size="10.00">+ isSpaceDer()</text>
<text text-anchor="start" x="152" y="-526.5" font-family="Helvetica,sans-Serif" font-size="10.00">+ derDimension()</text>
</a>
</g>
</g>
<!-- Node2&#45;&gt;Node5 -->
<g id="edge6" class="edge">
<title>Node2&#45;&gt;Node5</title>
<path fill="none" stroke="midnightblue" d="M139.26,-857.85C142.83,-848.96 146.65,-839.46 150.59,-829.63"/>
<polygon fill="none" stroke="midnightblue" points="135.96,-856.67 135.48,-867.25 142.46,-859.28 135.96,-856.67"/>
</g>
<!-- Node3&#45;&gt;Node1 -->
<g id="edge2" class="edge">
<title>Node3&#45;&gt;Node1</title>
<path fill="none" stroke="midnightblue" d="M113.28,-129.81C109.87,-119.92 106.63,-110.48 103.64,-101.81"/>
<polygon fill="none" stroke="midnightblue" points="110.02,-131.11 116.59,-139.43 116.64,-128.84 110.02,-131.11"/>
</g>
<!-- Node4 -->
<g id="node4" class="node">
<title>Node4</title>
<g id="a_node4"><a xlink:title=" ">
<polygon fill="white" stroke="#bfbfbf" points="264,-889.5 264,-946.5 293,-946.5 293,-889.5 264,-889.5"/>
<text text-anchor="middle" x="278.5" y="-934.5" font-family="Helvetica,sans-Serif" font-size="10.00">T</text>
<polyline fill="none" stroke="#bfbfbf" points="264,-927.5 293,-927.5 "/>
<text text-anchor="middle" x="278.5" y="-915.5" font-family="Helvetica,sans-Serif" font-size="10.00"> </text>
<polyline fill="none" stroke="#bfbfbf" points="264,-908.5 293,-908.5 "/>
<text text-anchor="middle" x="278.5" y="-896.5" font-family="Helvetica,sans-Serif" font-size="10.00"> </text>
</a>
</g>
</g>
<!-- Node4&#45;&gt;Node3 -->
<g id="edge4" class="edge">
<title>Node4&#45;&gt;Node3</title>
<path fill="none" stroke="midnightblue" d="M288.36,-879.76C306.95,-802.77 341.5,-621.37 296.5,-479 284.89,-442.27 262.69,-406.56 240.18,-376.87"/>
<polygon fill="none" stroke="midnightblue" points="284.95,-878.94 285.96,-889.49 291.75,-880.62 284.95,-878.94"/>
</g>
<!-- Node4&#45;&gt;Node5 -->
<g id="edge7" class="edge">
<title>Node4&#45;&gt;Node5</title>
<path fill="none" stroke="midnightblue" d="M268.25,-879.49C264.36,-865.26 259.65,-848.02 254.63,-829.67"/>
<polygon fill="none" stroke="midnightblue" points="264.92,-880.57 270.93,-889.3 271.67,-878.73 264.92,-880.57"/>
</g>
<!-- Node5&#45;&gt;Node3 -->
<g id="edge5" class="edge">
<title>Node5&#45;&gt;Node3</title>
<path fill="none" stroke="orange" d="M171.55,-509.16C171.18,-506.43 170.82,-503.7 170.5,-501 168.93,-487.9 167.84,-474.28 167.14,-460.59"/>
<polygon fill="orange" stroke="orange" points="168.1,-509.75 173.03,-519.13 175.03,-508.73 168.1,-509.75"/>
<text text-anchor="start" x="170.5" y="-493" font-family="Helvetica,sans-Serif" font-size="10.00"> &lt; DataPoint, _WFunctor,</text>
<text text-anchor="middle" x="233.5" y="-482" font-family="Helvetica,sans-Serif" font-size="10.00"> T, internal::FitScaleDer &gt;</text>
</g>
</g>
</svg>
