<?xml version="1.0" encoding="UTF-8" standalone="no"?>
<!DOCTYPE svg PUBLIC "-//W3C//DTD SVG 1.1//EN"
 "http://www.w3.org/Graphics/SVG/1.1/DTD/svg11.dtd">
<!-- Generated by graphviz version 2.43.0 (0)
 -->
<!-- Title: Ponca::OrientedSphereScaleSpaceDer&lt; DataPoint, _WFunctor, T &gt; Pages: 1 -->
<!--zoomable 988 -->
<svg id="main" version="1.1" xmlns="http://www.w3.org/2000/svg" xmlns:xlink="http://www.w3.org/1999/xlink" xml:space="preserve" onload="init(evt)">
<style type="text/css"><![CDATA[
.edge:hover path { stroke: red; }
.edge:hover polygon { stroke: red; fill: red; }
]]></style>
<script type="text/javascript"><![CDATA[
var edges = document.getElementsByTagName('g');
if (edges && edges.length) {
  for (var i=0;i<edges.length;i++) {
    if (edges[i].id.substr(0,4)=='edge') {
      edges[i].setAttribute('class','edge');
    }
  }
}
]]></script>
        <defs>
                <circle id="rim" cx="0" cy="0" r="7"/>
                <circle id="rim2" cx="0" cy="0" r="3.5"/>
                <g id="zoomPlus">
                        <use xlink:href="#rim" fill="#404040">
                                <set attributeName="fill" to="#808080" begin="zoomplus.mouseover" end="zoomplus.mouseout"/>
                        </use>
                        <path d="M-4,0h8M0,-4v8" fill="none" stroke="white" stroke-width="1.5" pointer-events="none"/>
                </g>
                <g id="zoomMin">
                        <use xlink:href="#rim" fill="#404040">
                                <set attributeName="fill" to="#808080" begin="zoomminus.mouseover" end="zoomminus.mouseout"/>
                        </use>
                        <path d="M-4,0h8" fill="none" stroke="white" stroke-width="1.5" pointer-events="none"/>
                </g>
                <g id="dirArrow">
                        <path fill="none" stroke="white" stroke-width="1.5" d="M0,-3.0v7 M-2.5,-0.5L0,-3.0L2.5,-0.5"/>
                </g>
               <g id="resetDef">
                       <use xlink:href="#rim2" fill="#404040">
                               <set attributeName="fill" to="#808080" begin="reset.mouseover" end="reset.mouseout"/>
                       </use>
               </g>
        </defs>

<script type="text/javascript">
var viewWidth = 358;
var viewHeight = 988;
var sectionId = 'dynsection-1';
</script>
<script xlink:href="svgpan.js"/>
<svg id="graph" class="graph">
<g id="viewport">
<title>Ponca::OrientedSphereScaleSpaceDer&lt; DataPoint, _WFunctor, T &gt;</title>
<polygon fill="white" stroke="transparent" points="-4,4 -4,-984 353.66,-984 353.66,4 -4,4"/>
<!-- Node1 -->
<g id="node1" class="node">
<title>Node1</title>
<g id="a_node1"><a xlink:title="Differentiation both in scale and space of the OrientedSphereFit.">
<polygon fill="#bfbfbf" stroke="black" points="0,-0.5 0,-101.5 203,-101.5 203,-0.5 0,-0.5"/>
<text text-anchor="start" x="8" y="-89.5" font-family="Helvetica,sans-Serif" font-size="10.00">Ponca::OrientedSphereScale</text>
<text text-anchor="middle" x="101.5" y="-78.5" font-family="Helvetica,sans-Serif" font-size="10.00">SpaceDer&lt; DataPoint, _WFunctor, T &gt;</text>
<polyline fill="none" stroke="black" points="0,-71.5 203,-71.5 "/>
<text text-anchor="start" x="8" y="-59.5" font-family="Helvetica,sans-Serif" font-size="10.00">~ __pad0__</text>
<text text-anchor="start" x="8" y="-48.5" font-family="Helvetica,sans-Serif" font-size="10.00">~ _WFunctor</text>
<text text-anchor="start" x="8" y="-37.5" font-family="Helvetica,sans-Serif" font-size="10.00">~ T</text>
<text text-anchor="start" x="8" y="-26.5" font-family="Helvetica,sans-Serif" font-size="10.00">~ __pad1__</text>
<polyline fill="none" stroke="black" points="0,-19.5 203,-19.5 "/>
<text text-anchor="middle" x="101.5" y="-7.5" font-family="Helvetica,sans-Serif" font-size="10.00"> </text>
</a>
</g>
</g>
<!-- Node2 -->
<g id="node2" class="node">
<title>Node2</title>
<g id="a_node2"><a xlink:href="classPonca_1_1Concept_1_1FittingExtensionConcept.html" target="_top" xlink:title="Describes how to add features to an existing fitting procedure.">
<polygon fill="white" stroke="black" points="43.5,-878.5 43.5,-979.5 239.5,-979.5 239.5,-878.5 43.5,-878.5"/>
<text text-anchor="start" x="51.5" y="-967.5" font-family="Helvetica,sans-Serif" font-size="10.00">Ponca::Concept::FittingExtension</text>
<text text-anchor="middle" x="141.5" y="-956.5" font-family="Helvetica,sans-Serif" font-size="10.00">Concept&lt; DataPoint, _WFunctor, T &gt;</text>
<polyline fill="none" stroke="black" points="43.5,-949.5 239.5,-949.5 "/>
<text text-anchor="middle" x="141.5" y="-937.5" font-family="Helvetica,sans-Serif" font-size="10.00"> </text>
<polyline fill="none" stroke="black" points="43.5,-930.5 239.5,-930.5 "/>
<text text-anchor="start" x="51.5" y="-918.5" font-family="Helvetica,sans-Serif" font-size="10.00">+ setWeightFunc()</text>
<text text-anchor="start" x="51.5" y="-907.5" font-family="Helvetica,sans-Serif" font-size="10.00">+ init()</text>
<text text-anchor="start" x="51.5" y="-896.5" font-family="Helvetica,sans-Serif" font-size="10.00">+ addNeighbor()</text>
<text text-anchor="start" x="51.5" y="-885.5" font-family="Helvetica,sans-Serif" font-size="10.00">+ finalize()</text>
</a>
</g>
</g>
<!-- Node2&#45;&gt;Node1 -->
<g id="edge1" class="edge">
<title>Node2&#45;&gt;Node1</title>
<path fill="none" stroke="midnightblue" d="M136.24,-868.14C128.68,-779.34 114.92,-607.45 108.5,-461 102.82,-331.52 101.68,-178.79 101.5,-101.76"/>
<polygon fill="none" stroke="midnightblue" points="132.77,-868.62 137.11,-878.29 139.74,-868.03 132.77,-868.62"/>
</g>
<!-- Node3 -->
<g id="node3" class="node">
<title>Node3</title>
<g id="a_node3"><a xlink:href="classPonca_1_1internal_1_1OrientedSphereDer.html" target="_top" xlink:title=" ">
<polygon fill="white" stroke="black" points="117.5,-139.5 117.5,-460.5 305.5,-460.5 305.5,-139.5 117.5,-139.5"/>
<text text-anchor="start" x="125.5" y="-448.5" font-family="Helvetica,sans-Serif" font-size="10.00">Ponca::internal::Oriented</text>
<text text-anchor="start" x="125.5" y="-437.5" font-family="Helvetica,sans-Serif" font-size="10.00">SphereDer&lt; DataPoint, </text>
<text text-anchor="start" x="125.5" y="-426.5" font-family="Helvetica,sans-Serif" font-size="10.00">_WFunctor, T, internal::</text>
<text text-anchor="middle" x="211.5" y="-415.5" font-family="Helvetica,sans-Serif" font-size="10.00">FitSpaceDer|internal::FitScaleDer &gt;</text>
<polyline fill="none" stroke="black" points="117.5,-408.5 305.5,-408.5 "/>
<text text-anchor="start" x="125.5" y="-396.5" font-family="Helvetica,sans-Serif" font-size="10.00">+ m_dUc</text>
<text text-anchor="start" x="125.5" y="-385.5" font-family="Helvetica,sans-Serif" font-size="10.00">+ m_dUq</text>
<text text-anchor="start" x="125.5" y="-374.5" font-family="Helvetica,sans-Serif" font-size="10.00">+ m_dUl</text>
<text text-anchor="start" x="125.5" y="-363.5" font-family="Helvetica,sans-Serif" font-size="10.00"># m_dSumN</text>
<text text-anchor="start" x="125.5" y="-352.5" font-family="Helvetica,sans-Serif" font-size="10.00"># m_dSumP</text>
<text text-anchor="start" x="125.5" y="-341.5" font-family="Helvetica,sans-Serif" font-size="10.00"># m_dSumDotPN</text>
<text text-anchor="start" x="125.5" y="-330.5" font-family="Helvetica,sans-Serif" font-size="10.00"># m_dSumDotPP</text>
<text text-anchor="start" x="125.5" y="-319.5" font-family="Helvetica,sans-Serif" font-size="10.00"># m_dSumW</text>
<text text-anchor="start" x="125.5" y="-308.5" font-family="Helvetica,sans-Serif" font-size="10.00"># m_dNume</text>
<text text-anchor="start" x="125.5" y="-297.5" font-family="Helvetica,sans-Serif" font-size="10.00"># m_dDeno</text>
<polyline fill="none" stroke="black" points="117.5,-290.5 305.5,-290.5 "/>
<text text-anchor="start" x="125.5" y="-278.5" font-family="Helvetica,sans-Serif" font-size="10.00">+ init()</text>
<text text-anchor="start" x="125.5" y="-267.5" font-family="Helvetica,sans-Serif" font-size="10.00">+ addNeighbor()</text>
<text text-anchor="start" x="125.5" y="-256.5" font-family="Helvetica,sans-Serif" font-size="10.00">+ finalize()</text>
<text text-anchor="start" x="125.5" y="-245.5" font-family="Helvetica,sans-Serif" font-size="10.00">+ dPotential()</text>
<text text-anchor="start" x="125.5" y="-234.5" font-family="Helvetica,sans-Serif" font-size="10.00">+ dNormal()</text>
<text text-anchor="start" x="125.5" y="-223.5" font-family="Helvetica,sans-Serif" font-size="10.00">+ dprattNorm2()</text>
<text text-anchor="start" x="125.5" y="-212.5" font-family="Helvetica,sans-Serif" font-size="10.00">+ dprattNorm2()</text>
<text text-anchor="start" x="125.5" y="-201.5" font-family="Helvetica,sans-Serif" font-size="10.00">+ dprattNorm()</text>
<text text-anchor="start" x="125.5" y="-190.5" font-family="Helvetica,sans-Serif" font-size="10.00">+ dprattNorm()</text>
<text text-anchor="start" x="125.5" y="-179.5" font-family="Helvetica,sans-Serif" font-size="10.00">+ applyPrattNorm()</text>
<text text-anchor="start" x="125.5" y="-168.5" font-family="Helvetica,sans-Serif" font-size="10.00">+ isScaleDer()</text>
<text text-anchor="start" x="125.5" y="-157.5" font-family="Helvetica,sans-Serif" font-size="10.00">+ isSpaceDer()</text>
<text text-anchor="start" x="125.5" y="-146.5" font-family="Helvetica,sans-Serif" font-size="10.00">+ derDimension()</text>
</a>
</g>
</g>
<!-- Node2&#45;&gt;Node3 -->
<g id="edge3" class="edge">
<title>Node2&#45;&gt;Node3</title>
<path fill="none" stroke="midnightblue" d="M141.17,-868.29C141.47,-790.19 144.49,-649.26 160.5,-530 163.53,-507.39 167.68,-483.72 172.31,-460.53"/>
<polygon fill="none" stroke="midnightblue" points="137.67,-868.42 141.15,-878.43 144.67,-868.44 137.67,-868.42"/>
</g>
<!-- Node5 -->
<g id="node5" class="node">
<title>Node5</title>
<g id="a_node5"><a xlink:href="classPonca_1_1internal_1_1OrientedSphereDer.html" target="_top" xlink:title="Internal generic class performing the Fit derivation.">
<polygon fill="white" stroke="black" points="170,-530.5 170,-840.5 307,-840.5 307,-530.5 170,-530.5"/>
<text text-anchor="start" x="178" y="-828.5" font-family="Helvetica,sans-Serif" font-size="10.00">Ponca::internal::Oriented</text>
<text text-anchor="start" x="178" y="-817.5" font-family="Helvetica,sans-Serif" font-size="10.00">SphereDer&lt; DataPoint, </text>
<text text-anchor="middle" x="238.5" y="-806.5" font-family="Helvetica,sans-Serif" font-size="10.00">_WFunctor, T, _Type &gt;</text>
<polyline fill="none" stroke="black" points="170,-799.5 307,-799.5 "/>
<text text-anchor="start" x="178" y="-787.5" font-family="Helvetica,sans-Serif" font-size="10.00">+ m_dUc</text>
<text text-anchor="start" x="178" y="-776.5" font-family="Helvetica,sans-Serif" font-size="10.00">+ m_dUq</text>
<text text-anchor="start" x="178" y="-765.5" font-family="Helvetica,sans-Serif" font-size="10.00">+ m_dUl</text>
<text text-anchor="start" x="178" y="-754.5" font-family="Helvetica,sans-Serif" font-size="10.00"># m_dSumN</text>
<text text-anchor="start" x="178" y="-743.5" font-family="Helvetica,sans-Serif" font-size="10.00"># m_dSumP</text>
<text text-anchor="start" x="178" y="-732.5" font-family="Helvetica,sans-Serif" font-size="10.00"># m_dSumDotPN</text>
<text text-anchor="start" x="178" y="-721.5" font-family="Helvetica,sans-Serif" font-size="10.00"># m_dSumDotPP</text>
<text text-anchor="start" x="178" y="-710.5" font-family="Helvetica,sans-Serif" font-size="10.00"># m_dSumW</text>
<text text-anchor="start" x="178" y="-699.5" font-family="Helvetica,sans-Serif" font-size="10.00"># m_dNume</text>
<text text-anchor="start" x="178" y="-688.5" font-family="Helvetica,sans-Serif" font-size="10.00"># m_dDeno</text>
<polyline fill="none" stroke="black" points="170,-681.5 307,-681.5 "/>
<text text-anchor="start" x="178" y="-669.5" font-family="Helvetica,sans-Serif" font-size="10.00">+ init()</text>
<text text-anchor="start" x="178" y="-658.5" font-family="Helvetica,sans-Serif" font-size="10.00">+ addNeighbor()</text>
<text text-anchor="start" x="178" y="-647.5" font-family="Helvetica,sans-Serif" font-size="10.00">+ finalize()</text>
<text text-anchor="start" x="178" y="-636.5" font-family="Helvetica,sans-Serif" font-size="10.00">+ dPotential()</text>
<text text-anchor="start" x="178" y="-625.5" font-family="Helvetica,sans-Serif" font-size="10.00">+ dNormal()</text>
<text text-anchor="start" x="178" y="-614.5" font-family="Helvetica,sans-Serif" font-size="10.00">+ dprattNorm2()</text>
<text text-anchor="start" x="178" y="-603.5" font-family="Helvetica,sans-Serif" font-size="10.00">+ dprattNorm2()</text>
<text text-anchor="start" x="178" y="-592.5" font-family="Helvetica,sans-Serif" font-size="10.00">+ dprattNorm()</text>
<text text-anchor="start" x="178" y="-581.5" font-family="Helvetica,sans-Serif" font-size="10.00">+ dprattNorm()</text>
<text text-anchor="start" x="178" y="-570.5" font-family="Helvetica,sans-Serif" font-size="10.00">+ applyPrattNorm()</text>
<text text-anchor="start" x="178" y="-559.5" font-family="Helvetica,sans-Serif" font-size="10.00">+ isScaleDer()</text>
<text text-anchor="start" x="178" y="-548.5" font-family="Helvetica,sans-Serif" font-size="10.00">+ isSpaceDer()</text>
<text text-anchor="start" x="178" y="-537.5" font-family="Helvetica,sans-Serif" font-size="10.00">+ derDimension()</text>
</a>
</g>
</g>
<!-- Node2&#45;&gt;Node5 -->
<g id="edge6" class="edge">
<title>Node2&#45;&gt;Node5</title>
<path fill="none" stroke="midnightblue" d="M165.26,-868.85C168.83,-859.96 172.65,-850.46 176.59,-840.63"/>
<polygon fill="none" stroke="midnightblue" points="161.96,-867.67 161.48,-878.25 168.46,-870.28 161.96,-867.67"/>
</g>
<!-- Node3&#45;&gt;Node1 -->
<g id="edge2" class="edge">
<title>Node3&#45;&gt;Node1</title>
<path fill="none" stroke="midnightblue" d="M136.29,-130.12C131.83,-120.12 127.58,-110.57 123.68,-101.81"/>
<polygon fill="none" stroke="midnightblue" points="133.17,-131.72 140.44,-139.43 139.57,-128.87 133.17,-131.72"/>
</g>
<!-- Node4 -->
<g id="node4" class="node">
<title>Node4</title>
<g id="a_node4"><a xlink:title=" ">
<polygon fill="white" stroke="#bfbfbf" points="293,-900.5 293,-957.5 322,-957.5 322,-900.5 293,-900.5"/>
<text text-anchor="middle" x="307.5" y="-945.5" font-family="Helvetica,sans-Serif" font-size="10.00">T</text>
<polyline fill="none" stroke="#bfbfbf" points="293,-938.5 322,-938.5 "/>
<text text-anchor="middle" x="307.5" y="-926.5" font-family="Helvetica,sans-Serif" font-size="10.00"> </text>
<polyline fill="none" stroke="#bfbfbf" points="293,-919.5 322,-919.5 "/>
<text text-anchor="middle" x="307.5" y="-907.5" font-family="Helvetica,sans-Serif" font-size="10.00"> </text>
</a>
</g>
</g>
<!-- Node4&#45;&gt;Node3 -->
<g id="edge4" class="edge">
<title>Node4&#45;&gt;Node3</title>
<path fill="none" stroke="midnightblue" d="M317.45,-890.52C336.5,-812.15 372.5,-626.03 328.5,-479 323.01,-460.67 314.96,-442.47 305.61,-425.11"/>
<polygon fill="none" stroke="midnightblue" points="314.01,-889.86 315,-900.41 320.8,-891.55 314.01,-889.86"/>
</g>
<!-- Node4&#45;&gt;Node5 -->
<g id="edge7" class="edge">
<title>Node4&#45;&gt;Node5</title>
<path fill="none" stroke="midnightblue" d="M296.78,-890.49C292.72,-876.26 287.79,-859.02 282.55,-840.67"/>
<polygon fill="none" stroke="midnightblue" points="293.47,-891.64 299.58,-900.3 300.2,-889.72 293.47,-891.64"/>
</g>
<!-- Node5&#45;&gt;Node3 -->
<g id="edge5" class="edge">
<title>Node5&#45;&gt;Node3</title>
<path fill="none" stroke="orange" d="M206.35,-520.31C206.04,-517.52 205.76,-514.75 205.5,-512 203.93,-495.4 203.1,-478.04 202.81,-460.7"/>
<polygon fill="orange" stroke="orange" points="202.9,-520.95 207.54,-530.47 209.85,-520.13 202.9,-520.95"/>
<text text-anchor="start" x="205.5" y="-504" font-family="Helvetica,sans-Serif" font-size="10.00"> &lt; DataPoint, _WFunctor,</text>
<text text-anchor="start" x="205.5" y="-493" font-family="Helvetica,sans-Serif" font-size="10.00"> T, internal::FitSpaceDer|</text>
<text text-anchor="middle" x="267" y="-482" font-family="Helvetica,sans-Serif" font-size="10.00">internal::FitScaleDer &gt;</text>
</g>
</g>
</svg>
        <g id="navigator" transform="translate(0 0)" fill="#404254">
                <rect fill="#f2f5e9" fill-opacity="0.5" stroke="#606060" stroke-width=".5" x="0" y="0" width="60" height="60"/>
                <use id="zoomplus" xlink:href="#zoomPlus" x="17" y="9" onmousedown="handleZoom(evt,'in')"/>
                <use id="zoomminus" xlink:href="#zoomMin" x="42" y="9" onmousedown="handleZoom(evt,'out')"/>
                <use id="reset" xlink:href="#resetDef" x="30" y="36" onmousedown="handleReset()"/>
                <g id="arrowUp" xlink:href="#dirArrow" transform="translate(30 24)" onmousedown="handlePan(0,-1)">
                  <use xlink:href="#rim" fill="#404040">
                        <set attributeName="fill" to="#808080" begin="arrowUp.mouseover" end="arrowUp.mouseout"/>
                  </use>
                  <path fill="none" stroke="white" stroke-width="1.5" d="M0,-3.0v7 M-2.5,-0.5L0,-3.0L2.5,-0.5"/>
                </g>
                <g id="arrowRight" xlink:href="#dirArrow" transform="rotate(90) translate(36 -43)" onmousedown="handlePan(1,0)">
                  <use xlink:href="#rim" fill="#404040">
                        <set attributeName="fill" to="#808080" begin="arrowRight.mouseover" end="arrowRight.mouseout"/>
                  </use>
                  <path fill="none" stroke="white" stroke-width="1.5" d="M0,-3.0v7 M-2.5,-0.5L0,-3.0L2.5,-0.5"/>
                </g>
                <g id="arrowDown" xlink:href="#dirArrow" transform="rotate(180) translate(-30 -48)" onmousedown="handlePan(0,1)">
                  <use xlink:href="#rim" fill="#404040">
                        <set attributeName="fill" to="#808080" begin="arrowDown.mouseover" end="arrowDown.mouseout"/>
                  </use>
                  <path fill="none" stroke="white" stroke-width="1.5" d="M0,-3.0v7 M-2.5,-0.5L0,-3.0L2.5,-0.5"/>
                </g>
                <g id="arrowLeft" xlink:href="#dirArrow" transform="rotate(270) translate(-36 17)" onmousedown="handlePan(-1,0)">
                  <use xlink:href="#rim" fill="#404040">
                        <set attributeName="fill" to="#808080" begin="arrowLeft.mouseover" end="arrowLeft.mouseout"/>
                  </use>
                  <path fill="none" stroke="white" stroke-width="1.5" d="M0,-3.0v7 M-2.5,-0.5L0,-3.0L2.5,-0.5"/>
                </g>
        </g>
        <svg viewBox="0 0 15 15" width="100%" height="30px" preserveAspectRatio="xMaxYMin meet">
         <g id="arrow_out" transform="scale(0.3 0.3)">
          <a xlink:href="classPonca_1_1OrientedSphereScaleSpaceDer__coll__graph_org.svg" target="_base">
           <rect id="button" ry="5" rx="5" y="6" x="6" height="38" width="38"
                fill="#f2f5e9" fill-opacity="0.5" stroke="#606060" stroke-width="1.0"/>
           <path id="arrow"
             d="M 11.500037,31.436501 C 11.940474,20.09759 22.043105,11.32322 32.158766,21.979434 L 37.068811,17.246167 C 37.068811,17.246167 37.088388,32 37.088388,32 L 22.160133,31.978069 C 22.160133,31.978069 26.997745,27.140456 26.997745,27.140456 C 18.528582,18.264221 13.291696,25.230495 11.500037,31.436501 z"
             style="fill:#404040;"/>
          </a>
         </g>
        </svg>
</svg>
