<?xml version="1.0" encoding="UTF-8" standalone="no"?>
<!DOCTYPE svg PUBLIC "-//W3C//DTD SVG 1.1//EN"
 "http://www.w3.org/Graphics/SVG/1.1/DTD/svg11.dtd">
<!-- Generated by graphviz version 2.43.0 (0)
 -->
<!-- Title: Ponca::internal::GlobalNeighborhoodFrame&lt; DataPoint &gt; Pages: 1 -->
<svg width="197pt" height="113pt"
 viewBox="0.00 0.00 197.00 113.00" xmlns="http://www.w3.org/2000/svg" xmlns:xlink="http://www.w3.org/1999/xlink">
<g id="graph0" class="graph" transform="scale(1 1) rotate(0) translate(4 109)">
<title>Ponca::internal::GlobalNeighborhoodFrame&lt; DataPoint &gt;</title>
<!-- Node1 -->
<g id="Node000001" class="node">
<title>Node1</title>
<g id="a_Node000001"><a xlink:title="NeighborhoodFrame that keep points in the global frame without applying any transformation This class...">
<polygon fill="#999999" stroke="transparent" points="189,-105 0,-105 0,0 189,0 189,-105"/>
<text text-anchor="start" x="5.5" y="-92.5" font-family="Helvetica,sans-Serif" font-size="10.00">Ponca::internal::GlobalNeighborhood</text>
<text text-anchor="start" x="44" y="-81.5" font-family="Helvetica,sans-Serif" font-size="10.00">Frame&lt; DataPoint &gt;</text>
<text text-anchor="start" x="11" y="-66.5" font-family="Helvetica,sans-Serif" font-size="10.00">+</text>
<text text-anchor="start" x="30.5" y="-66.5" font-family="Helvetica,sans-Serif" font-size="10.00">hasLocalFrame</text>
<text text-anchor="start" x="11" y="-51.5" font-family="Helvetica,sans-Serif" font-size="10.00">+</text>
<text text-anchor="start" x="30.5" y="-51.5" font-family="Helvetica,sans-Serif" font-size="10.00">GlobalNeighborhoodFrame()</text>
<text text-anchor="start" x="11" y="-36.5" font-family="Helvetica,sans-Serif" font-size="10.00">+</text>
<text text-anchor="start" x="30.5" y="-36.5" font-family="Helvetica,sans-Serif" font-size="10.00">changeNeighborhoodFrame()</text>
<text text-anchor="start" x="11" y="-21.5" font-family="Helvetica,sans-Serif" font-size="10.00">+</text>
<text text-anchor="start" x="30.5" y="-21.5" font-family="Helvetica,sans-Serif" font-size="10.00">convertToGlobalBasis()</text>
<text text-anchor="start" x="11" y="-6.5" font-family="Helvetica,sans-Serif" font-size="10.00">+</text>
<text text-anchor="start" x="30.5" y="-6.5" font-family="Helvetica,sans-Serif" font-size="10.00">convertToLocalBasis()</text>
<polygon fill="#666666" stroke="#666666" points="0.5,-76.5 0.5,-76.5 189.5,-76.5 189.5,-76.5 0.5,-76.5"/>
<polygon fill="#666666" stroke="#666666" points="0.5,-61.5 0.5,-61.5 28.5,-61.5 28.5,-61.5 0.5,-61.5"/>
<polygon fill="#666666" stroke="#666666" points="28.5,-61.5 28.5,-61.5 189.5,-61.5 189.5,-61.5 28.5,-61.5"/>
<polygon fill="none" stroke="#666666" points="0,0 0,-105 189,-105 189,0 0,0"/>
</a>
</g>
</g>
</g>
</svg>
