<?xml version="1.0" encoding="UTF-8" standalone="no"?>
<!DOCTYPE svg PUBLIC "-//W3C//DTD SVG 1.1//EN"
 "http://www.w3.org/Graphics/SVG/1.1/DTD/svg11.dtd">
<!-- Generated by graphviz version 2.43.0 (0)
 -->
<!-- Title: Ponca::OrientedSphereFit&lt; DataPoint, _WFunctor, T &gt; Pages: 1 -->
<!--zoomable 1038 -->
<svg id="main" version="1.1" xmlns="http://www.w3.org/2000/svg" xmlns:xlink="http://www.w3.org/1999/xlink" xml:space="preserve" onload="init(evt)">
<style type="text/css"><![CDATA[
.edge:hover path { stroke: red; }
.edge:hover polygon { stroke: red; fill: red; }
]]></style>
<script type="text/javascript"><![CDATA[
var edges = document.getElementsByTagName('g');
if (edges && edges.length) {
  for (var i=0;i<edges.length;i++) {
    if (edges[i].id.substr(0,4)=='edge') {
      edges[i].setAttribute('class','edge');
    }
  }
}
]]></script>
        <defs>
                <circle id="rim" cx="0" cy="0" r="7"/>
                <circle id="rim2" cx="0" cy="0" r="3.5"/>
                <g id="zoomPlus">
                        <use xlink:href="#rim" fill="#404040">
                                <set attributeName="fill" to="#808080" begin="zoomplus.mouseover" end="zoomplus.mouseout"/>
                        </use>
                        <path d="M-4,0h8M0,-4v8" fill="none" stroke="white" stroke-width="1.5" pointer-events="none"/>
                </g>
                <g id="zoomMin">
                        <use xlink:href="#rim" fill="#404040">
                                <set attributeName="fill" to="#808080" begin="zoomminus.mouseover" end="zoomminus.mouseout"/>
                        </use>
                        <path d="M-4,0h8" fill="none" stroke="white" stroke-width="1.5" pointer-events="none"/>
                </g>
                <g id="dirArrow">
                        <path fill="none" stroke="white" stroke-width="1.5" d="M0,-3.0v7 M-2.5,-0.5L0,-3.0L2.5,-0.5"/>
                </g>
               <g id="resetDef">
                       <use xlink:href="#rim2" fill="#404040">
                               <set attributeName="fill" to="#808080" begin="reset.mouseover" end="reset.mouseout"/>
                       </use>
               </g>
        </defs>

<script type="text/javascript">
var viewWidth = 460;
var viewHeight = 1038;
var sectionId = 'dynsection-0';
</script>
<script xlink:href="svgpan.js"/>
<svg id="graph" class="graph">
<g id="viewport">
<title>Ponca::OrientedSphereFit&lt; DataPoint, _WFunctor, T &gt;</title>
<polygon fill="white" stroke="transparent" points="-4,4 -4,-1034 456,-1034 456,4 -4,4"/>
<!-- Node1 -->
<g id="node1" class="node">
<title>Node1</title>
<g id="a_node1"><a xlink:title="Algebraic Sphere fitting procedure on oriented point sets.">
<polygon fill="#bfbfbf" stroke="black" points="73,-0.5 73,-189.5 229,-189.5 229,-0.5 73,-0.5"/>
<text text-anchor="start" x="81" y="-177.5" font-family="Helvetica,sans-Serif" font-size="10.00">Ponca::OrientedSphereFit</text>
<text text-anchor="middle" x="151" y="-166.5" font-family="Helvetica,sans-Serif" font-size="10.00">&lt; DataPoint, _WFunctor, T &gt;</text>
<polyline fill="none" stroke="black" points="73,-159.5 229,-159.5 "/>
<text text-anchor="start" x="81" y="-147.5" font-family="Helvetica,sans-Serif" font-size="10.00"># m_sumN</text>
<text text-anchor="start" x="81" y="-136.5" font-family="Helvetica,sans-Serif" font-size="10.00"># m_sumP</text>
<text text-anchor="start" x="81" y="-125.5" font-family="Helvetica,sans-Serif" font-size="10.00"># m_sumDotPN</text>
<text text-anchor="start" x="81" y="-114.5" font-family="Helvetica,sans-Serif" font-size="10.00"># m_sumDotPP</text>
<text text-anchor="start" x="81" y="-103.5" font-family="Helvetica,sans-Serif" font-size="10.00"># m_sumW</text>
<text text-anchor="start" x="81" y="-92.5" font-family="Helvetica,sans-Serif" font-size="10.00"># m_nume</text>
<text text-anchor="start" x="81" y="-81.5" font-family="Helvetica,sans-Serif" font-size="10.00"># m_deno</text>
<text text-anchor="start" x="81" y="-70.5" font-family="Helvetica,sans-Serif" font-size="10.00"># m_w</text>
<polyline fill="none" stroke="black" points="73,-63.5 229,-63.5 "/>
<text text-anchor="start" x="81" y="-51.5" font-family="Helvetica,sans-Serif" font-size="10.00">+ OrientedSphereFit()</text>
<text text-anchor="start" x="81" y="-40.5" font-family="Helvetica,sans-Serif" font-size="10.00">+ setWeightFunc()</text>
<text text-anchor="start" x="81" y="-29.5" font-family="Helvetica,sans-Serif" font-size="10.00">+ init()</text>
<text text-anchor="start" x="81" y="-18.5" font-family="Helvetica,sans-Serif" font-size="10.00">+ addNeighbor()</text>
<text text-anchor="start" x="81" y="-7.5" font-family="Helvetica,sans-Serif" font-size="10.00">+ finalize()</text>
</a>
</g>
</g>
<!-- Node2 -->
<g id="node2" class="node">
<title>Node2</title>
<g id="a_node2"><a xlink:href="classPonca_1_1Concept_1_1FittingProcedureConcept.html" target="_top" xlink:title="Describes the procedure to fit a primitive to point samples.">
<polygon fill="white" stroke="black" points="0,-282.5 0,-383.5 196,-383.5 196,-282.5 0,-282.5"/>
<text text-anchor="start" x="8" y="-371.5" font-family="Helvetica,sans-Serif" font-size="10.00">Ponca::Concept::FittingProcedure</text>
<text text-anchor="middle" x="98" y="-360.5" font-family="Helvetica,sans-Serif" font-size="10.00">Concept&lt; DataPoint, _WFunctor, T &gt;</text>
<polyline fill="none" stroke="black" points="0,-353.5 196,-353.5 "/>
<text text-anchor="middle" x="98" y="-341.5" font-family="Helvetica,sans-Serif" font-size="10.00"> </text>
<polyline fill="none" stroke="black" points="0,-334.5 196,-334.5 "/>
<text text-anchor="start" x="8" y="-322.5" font-family="Helvetica,sans-Serif" font-size="10.00">+ setWeightFunc()</text>
<text text-anchor="start" x="8" y="-311.5" font-family="Helvetica,sans-Serif" font-size="10.00">+ init()</text>
<text text-anchor="start" x="8" y="-300.5" font-family="Helvetica,sans-Serif" font-size="10.00">+ addNeighbor()</text>
<text text-anchor="start" x="8" y="-289.5" font-family="Helvetica,sans-Serif" font-size="10.00">+ finalize()</text>
</a>
</g>
</g>
<!-- Node2&#45;&gt;Node1 -->
<g id="edge1" class="edge">
<title>Node2&#45;&gt;Node1</title>
<path fill="none" stroke="midnightblue" d="M111.44,-272.16C117.07,-247.1 123.74,-217.37 129.99,-189.53"/>
<polygon fill="none" stroke="midnightblue" points="107.95,-271.71 109.18,-282.24 114.78,-273.25 107.95,-271.71"/>
</g>
<!-- Node3 -->
<g id="node3" class="node">
<title>Node3</title>
<g id="a_node3"><a xlink:href="classPonca_1_1AlgebraicSphere.html" target="_top" xlink:title=" ">
<polygon fill="white" stroke="black" points="214,-227.5 214,-438.5 358,-438.5 358,-227.5 214,-227.5"/>
<text text-anchor="start" x="222" y="-426.5" font-family="Helvetica,sans-Serif" font-size="10.00">Ponca::AlgebraicSphere</text>
<text text-anchor="middle" x="286" y="-415.5" font-family="Helvetica,sans-Serif" font-size="10.00">&lt; DataPoint, _WFunctor &gt;</text>
<polyline fill="none" stroke="black" points="214,-408.5 358,-408.5 "/>
<text text-anchor="start" x="222" y="-396.5" font-family="Helvetica,sans-Serif" font-size="10.00">+ m_uc</text>
<text text-anchor="start" x="222" y="-385.5" font-family="Helvetica,sans-Serif" font-size="10.00">+ m_uq</text>
<text text-anchor="start" x="222" y="-374.5" font-family="Helvetica,sans-Serif" font-size="10.00">+ m_ul</text>
<text text-anchor="start" x="222" y="-363.5" font-family="Helvetica,sans-Serif" font-size="10.00"># m_isNormalized</text>
<polyline fill="none" stroke="black" points="214,-356.5 358,-356.5 "/>
<text text-anchor="start" x="222" y="-344.5" font-family="Helvetica,sans-Serif" font-size="10.00">+ AlgebraicSphere()</text>
<text text-anchor="start" x="222" y="-333.5" font-family="Helvetica,sans-Serif" font-size="10.00">+ algebraicSphere()</text>
<text text-anchor="start" x="222" y="-322.5" font-family="Helvetica,sans-Serif" font-size="10.00">+ resetPrimitive()</text>
<text text-anchor="start" x="222" y="-311.5" font-family="Helvetica,sans-Serif" font-size="10.00">+ operator==()</text>
<text text-anchor="start" x="222" y="-300.5" font-family="Helvetica,sans-Serif" font-size="10.00">+ operator!=()</text>
<text text-anchor="start" x="222" y="-289.5" font-family="Helvetica,sans-Serif" font-size="10.00">+ basisCenter()</text>
<text text-anchor="start" x="222" y="-278.5" font-family="Helvetica,sans-Serif" font-size="10.00">+ basisCenter()</text>
<text text-anchor="start" x="222" y="-267.5" font-family="Helvetica,sans-Serif" font-size="10.00">+ changeBasis()</text>
<text text-anchor="start" x="222" y="-256.5" font-family="Helvetica,sans-Serif" font-size="10.00">+ prattNorm()</text>
<text text-anchor="start" x="222" y="-245.5" font-family="Helvetica,sans-Serif" font-size="10.00">+ prattNorm2()</text>
<text text-anchor="start" x="222" y="-234.5" font-family="Helvetica,sans-Serif" font-size="10.00">and 11 more...</text>
</a>
</g>
</g>
<!-- Node3&#45;&gt;Node1 -->
<g id="edge2" class="edge">
<title>Node3&#45;&gt;Node1</title>
<path fill="none" stroke="midnightblue" d="M221.12,-218.59C215.59,-208.91 210.03,-199.19 204.59,-189.69"/>
<polygon fill="none" stroke="midnightblue" points="218.19,-220.51 226.2,-227.46 224.27,-217.04 218.19,-220.51"/>
</g>
<!-- Node4 -->
<g id="node4" class="node">
<title>Node4</title>
<g id="a_node4"><a xlink:href="classPonca_1_1PrimitiveBase.html" target="_top" xlink:title=" ">
<polygon fill="white" stroke="black" points="191,-735.5 191,-858.5 335,-858.5 335,-735.5 191,-735.5"/>
<text text-anchor="start" x="199" y="-846.5" font-family="Helvetica,sans-Serif" font-size="10.00">Ponca::PrimitiveBase</text>
<text text-anchor="middle" x="263" y="-835.5" font-family="Helvetica,sans-Serif" font-size="10.00">&lt; DataPoint, _WFunctor &gt;</text>
<polyline fill="none" stroke="black" points="191,-828.5 335,-828.5 "/>
<text text-anchor="start" x="199" y="-816.5" font-family="Helvetica,sans-Serif" font-size="10.00"># m_eCurrentState</text>
<text text-anchor="start" x="199" y="-805.5" font-family="Helvetica,sans-Serif" font-size="10.00"># m_nbNeighbors</text>
<polyline fill="none" stroke="black" points="191,-798.5 335,-798.5 "/>
<text text-anchor="start" x="199" y="-786.5" font-family="Helvetica,sans-Serif" font-size="10.00">+ PrimitiveBase()</text>
<text text-anchor="start" x="199" y="-775.5" font-family="Helvetica,sans-Serif" font-size="10.00">+ resetPrimitive()</text>
<text text-anchor="start" x="199" y="-764.5" font-family="Helvetica,sans-Serif" font-size="10.00">+ isReady()</text>
<text text-anchor="start" x="199" y="-753.5" font-family="Helvetica,sans-Serif" font-size="10.00">+ isStable()</text>
<text text-anchor="start" x="199" y="-742.5" font-family="Helvetica,sans-Serif" font-size="10.00">+ getCurrentState()</text>
</a>
</g>
</g>
<!-- Node4&#45;&gt;Node3 -->
<g id="edge3" class="edge">
<title>Node4&#45;&gt;Node3</title>
<path fill="none" stroke="midnightblue" d="M262.94,-725.15C263.29,-662.27 264.77,-567.93 270,-486 270.98,-470.64 272.34,-454.44 273.85,-438.57"/>
<polygon fill="none" stroke="midnightblue" points="259.44,-725.33 262.9,-735.35 266.44,-725.36 259.44,-725.33"/>
</g>
<!-- Node6 -->
<g id="node6" class="node">
<title>Node6</title>
<g id="a_node6"><a xlink:href="classPonca_1_1AlgebraicSphere.html" target="_top" xlink:title="Algebraic Sphere primitive.">
<polygon fill="white" stroke="black" points="279,-486.5 279,-697.5 435,-697.5 435,-486.5 279,-486.5"/>
<text text-anchor="start" x="287" y="-685.5" font-family="Helvetica,sans-Serif" font-size="10.00">Ponca::AlgebraicSphere</text>
<text text-anchor="middle" x="357" y="-674.5" font-family="Helvetica,sans-Serif" font-size="10.00">&lt; DataPoint, _WFunctor, T &gt;</text>
<polyline fill="none" stroke="black" points="279,-667.5 435,-667.5 "/>
<text text-anchor="start" x="287" y="-655.5" font-family="Helvetica,sans-Serif" font-size="10.00">+ m_uc</text>
<text text-anchor="start" x="287" y="-644.5" font-family="Helvetica,sans-Serif" font-size="10.00">+ m_uq</text>
<text text-anchor="start" x="287" y="-633.5" font-family="Helvetica,sans-Serif" font-size="10.00">+ m_ul</text>
<text text-anchor="start" x="287" y="-622.5" font-family="Helvetica,sans-Serif" font-size="10.00"># m_isNormalized</text>
<polyline fill="none" stroke="black" points="279,-615.5 435,-615.5 "/>
<text text-anchor="start" x="287" y="-603.5" font-family="Helvetica,sans-Serif" font-size="10.00">+ AlgebraicSphere()</text>
<text text-anchor="start" x="287" y="-592.5" font-family="Helvetica,sans-Serif" font-size="10.00">+ algebraicSphere()</text>
<text text-anchor="start" x="287" y="-581.5" font-family="Helvetica,sans-Serif" font-size="10.00">+ resetPrimitive()</text>
<text text-anchor="start" x="287" y="-570.5" font-family="Helvetica,sans-Serif" font-size="10.00">+ operator==()</text>
<text text-anchor="start" x="287" y="-559.5" font-family="Helvetica,sans-Serif" font-size="10.00">+ operator!=()</text>
<text text-anchor="start" x="287" y="-548.5" font-family="Helvetica,sans-Serif" font-size="10.00">+ basisCenter()</text>
<text text-anchor="start" x="287" y="-537.5" font-family="Helvetica,sans-Serif" font-size="10.00">+ basisCenter()</text>
<text text-anchor="start" x="287" y="-526.5" font-family="Helvetica,sans-Serif" font-size="10.00">+ changeBasis()</text>
<text text-anchor="start" x="287" y="-515.5" font-family="Helvetica,sans-Serif" font-size="10.00">+ prattNorm()</text>
<text text-anchor="start" x="287" y="-504.5" font-family="Helvetica,sans-Serif" font-size="10.00">+ prattNorm2()</text>
<text text-anchor="start" x="287" y="-493.5" font-family="Helvetica,sans-Serif" font-size="10.00">and 11 more...</text>
</a>
</g>
</g>
<!-- Node4&#45;&gt;Node6 -->
<g id="edge6" class="edge">
<title>Node4&#45;&gt;Node6</title>
<path fill="none" stroke="midnightblue" d="M295.29,-726.27C299.56,-717.04 304.02,-707.41 308.5,-697.74"/>
<polygon fill="none" stroke="midnightblue" points="292.1,-724.82 291.08,-735.37 298.45,-727.76 292.1,-724.82"/>
</g>
<!-- Node5 -->
<g id="node5" class="node">
<title>Node5</title>
<g id="a_node5"><a xlink:href="classPonca_1_1PrimitiveBase.html" target="_top" xlink:title="Primitive base class.">
<polygon fill="white" stroke="black" points="185,-906.5 185,-1029.5 341,-1029.5 341,-906.5 185,-906.5"/>
<text text-anchor="start" x="193" y="-1017.5" font-family="Helvetica,sans-Serif" font-size="10.00">Ponca::PrimitiveBase</text>
<text text-anchor="middle" x="263" y="-1006.5" font-family="Helvetica,sans-Serif" font-size="10.00">&lt; DataPoint, _WFunctor, T &gt;</text>
<polyline fill="none" stroke="black" points="185,-999.5 341,-999.5 "/>
<text text-anchor="start" x="193" y="-987.5" font-family="Helvetica,sans-Serif" font-size="10.00"># m_eCurrentState</text>
<text text-anchor="start" x="193" y="-976.5" font-family="Helvetica,sans-Serif" font-size="10.00"># m_nbNeighbors</text>
<polyline fill="none" stroke="black" points="185,-969.5 341,-969.5 "/>
<text text-anchor="start" x="193" y="-957.5" font-family="Helvetica,sans-Serif" font-size="10.00">+ PrimitiveBase()</text>
<text text-anchor="start" x="193" y="-946.5" font-family="Helvetica,sans-Serif" font-size="10.00">+ resetPrimitive()</text>
<text text-anchor="start" x="193" y="-935.5" font-family="Helvetica,sans-Serif" font-size="10.00">+ isReady()</text>
<text text-anchor="start" x="193" y="-924.5" font-family="Helvetica,sans-Serif" font-size="10.00">+ isStable()</text>
<text text-anchor="start" x="193" y="-913.5" font-family="Helvetica,sans-Serif" font-size="10.00">+ getCurrentState()</text>
</a>
</g>
</g>
<!-- Node5&#45;&gt;Node4 -->
<g id="edge4" class="edge">
<title>Node5&#45;&gt;Node4</title>
<path fill="none" stroke="orange" d="M263,-896.13C263,-883.68 263,-870.82 263,-858.68"/>
<polygon fill="orange" stroke="orange" points="259.5,-896.46 263,-906.46 266.5,-896.46 259.5,-896.46"/>
<text text-anchor="middle" x="328.5" y="-880" font-family="Helvetica,sans-Serif" font-size="10.00"> &lt; DataPoint, _WFunctor &gt;</text>
</g>
<!-- Node6&#45;&gt;Node3 -->
<g id="edge5" class="edge">
<title>Node6&#45;&gt;Node3</title>
<path fill="none" stroke="orange" d="M325.36,-476.47C321.9,-463.95 318.39,-451.25 314.97,-438.86"/>
<polygon fill="orange" stroke="orange" points="322.08,-477.76 328.12,-486.47 328.83,-475.9 322.08,-477.76"/>
<text text-anchor="middle" x="386.5" y="-460" font-family="Helvetica,sans-Serif" font-size="10.00"> &lt; DataPoint, _WFunctor &gt;</text>
</g>
</g>
</svg>
        <g id="navigator" transform="translate(0 0)" fill="#404254">
                <rect fill="#f2f5e9" fill-opacity="0.5" stroke="#606060" stroke-width=".5" x="0" y="0" width="60" height="60"/>
                <use id="zoomplus" xlink:href="#zoomPlus" x="17" y="9" onmousedown="handleZoom(evt,'in')"/>
                <use id="zoomminus" xlink:href="#zoomMin" x="42" y="9" onmousedown="handleZoom(evt,'out')"/>
                <use id="reset" xlink:href="#resetDef" x="30" y="36" onmousedown="handleReset()"/>
                <g id="arrowUp" xlink:href="#dirArrow" transform="translate(30 24)" onmousedown="handlePan(0,-1)">
                  <use xlink:href="#rim" fill="#404040">
                        <set attributeName="fill" to="#808080" begin="arrowUp.mouseover" end="arrowUp.mouseout"/>
                  </use>
                  <path fill="none" stroke="white" stroke-width="1.5" d="M0,-3.0v7 M-2.5,-0.5L0,-3.0L2.5,-0.5"/>
                </g>
                <g id="arrowRight" xlink:href="#dirArrow" transform="rotate(90) translate(36 -43)" onmousedown="handlePan(1,0)">
                  <use xlink:href="#rim" fill="#404040">
                        <set attributeName="fill" to="#808080" begin="arrowRight.mouseover" end="arrowRight.mouseout"/>
                  </use>
                  <path fill="none" stroke="white" stroke-width="1.5" d="M0,-3.0v7 M-2.5,-0.5L0,-3.0L2.5,-0.5"/>
                </g>
                <g id="arrowDown" xlink:href="#dirArrow" transform="rotate(180) translate(-30 -48)" onmousedown="handlePan(0,1)">
                  <use xlink:href="#rim" fill="#404040">
                        <set attributeName="fill" to="#808080" begin="arrowDown.mouseover" end="arrowDown.mouseout"/>
                  </use>
                  <path fill="none" stroke="white" stroke-width="1.5" d="M0,-3.0v7 M-2.5,-0.5L0,-3.0L2.5,-0.5"/>
                </g>
                <g id="arrowLeft" xlink:href="#dirArrow" transform="rotate(270) translate(-36 17)" onmousedown="handlePan(-1,0)">
                  <use xlink:href="#rim" fill="#404040">
                        <set attributeName="fill" to="#808080" begin="arrowLeft.mouseover" end="arrowLeft.mouseout"/>
                  </use>
                  <path fill="none" stroke="white" stroke-width="1.5" d="M0,-3.0v7 M-2.5,-0.5L0,-3.0L2.5,-0.5"/>
                </g>
        </g>
        <svg viewBox="0 0 15 15" width="100%" height="30px" preserveAspectRatio="xMaxYMin meet">
         <g id="arrow_out" transform="scale(0.3 0.3)">
          <a xlink:href="classPonca_1_1OrientedSphereFit__inherit__graph_org.svg" target="_base">
           <rect id="button" ry="5" rx="5" y="6" x="6" height="38" width="38"
                fill="#f2f5e9" fill-opacity="0.5" stroke="#606060" stroke-width="1.0"/>
           <path id="arrow"
             d="M 11.500037,31.436501 C 11.940474,20.09759 22.043105,11.32322 32.158766,21.979434 L 37.068811,17.246167 C 37.068811,17.246167 37.088388,32 37.088388,32 L 22.160133,31.978069 C 22.160133,31.978069 26.997745,27.140456 26.997745,27.140456 C 18.528582,18.264221 13.291696,25.230495 11.500037,31.436501 z"
             style="fill:#404040;"/>
          </a>
         </g>
        </svg>
</svg>
