<?xml version="1.0" encoding="UTF-8" standalone="no"?>
<!DOCTYPE svg PUBLIC "-//W3C//DTD SVG 1.1//EN"
 "http://www.w3.org/Graphics/SVG/1.1/DTD/svg11.dtd">
<!-- Generated by graphviz version 2.43.0 (0)
 -->
<!-- Title: Ponca::CovarianceFitDer&lt; DataPoint, _NFilter, DiffType, T &gt; Pages: 1 -->
<svg width="188pt" height="235pt"
 viewBox="0.00 0.00 187.50 235.00" xmlns="http://www.w3.org/2000/svg" xmlns:xlink="http://www.w3.org/1999/xlink">

<svg id="main" version="1.1" xmlns="http://www.w3.org/2000/svg" xmlns:xlink="http://www.w3.org/1999/xlink" xml:space="preserve" onload="init(evt)">
<style type="text/css"><![CDATA[
.node, .edge {opacity: 0.7;}
.node.selected, .edge.selected {opacity: 1;}
.edge:hover path { stroke: red; }
.edge:hover polygon { stroke: red; fill: red; }
]]></style>
<script type="application/ecmascript" xlink:href="svg.min.js"/>
<svg id="graph" class="graph">
<g id="graph0" class="graph" transform="scale(1 1) rotate(0) translate(4 231)">
<title>Ponca::CovarianceFitDer&lt; DataPoint, _NFilter, DiffType, T &gt;</title>
<!-- Node1 -->
<g id="Node000001" class="node">
<title>Node1</title>
<g id="a_Node000001"><a xlink:title="Internal generic class computing the derivatives of covariance matrix computed by CovarianceFitBase.">
<polygon fill="#999999" stroke="transparent" points="179.5,-131 49.5,-131 49.5,0 179.5,0 179.5,-131"/>
<text text-anchor="start" x="54.5" y="-118.5" font-family="Helvetica,sans-Serif" font-size="10.00">Ponca::CovarianceFitDer</text>
<text text-anchor="start" x="54.5" y="-107.5" font-family="Helvetica,sans-Serif" font-size="10.00">&lt; DataPoint, _NFilter,</text>
<text text-anchor="start" x="81" y="-96.5" font-family="Helvetica,sans-Serif" font-size="10.00"> DiffType, T &gt;</text>
<text text-anchor="start" x="56.5" y="-81.5" font-family="Helvetica,sans-Serif" font-size="10.00">#</text>
<text text-anchor="start" x="72.5" y="-81.5" font-family="Helvetica,sans-Serif" font-size="10.00">m_dCov</text>
<text text-anchor="start" x="56.5" y="-66.5" font-family="Helvetica,sans-Serif" font-size="10.00">+</text>
<text text-anchor="start" x="72.5" y="-66.5" font-family="Helvetica,sans-Serif" font-size="10.00">covarianceFitDer()</text>
<text text-anchor="start" x="56.5" y="-51.5" font-family="Helvetica,sans-Serif" font-size="10.00">+</text>
<text text-anchor="start" x="72.5" y="-51.5" font-family="Helvetica,sans-Serif" font-size="10.00">covarianceFitDer()</text>
<text text-anchor="start" x="56.5" y="-36.5" font-family="Helvetica,sans-Serif" font-size="10.00">+</text>
<text text-anchor="start" x="72.5" y="-36.5" font-family="Helvetica,sans-Serif" font-size="10.00">init()</text>
<text text-anchor="start" x="56.5" y="-21.5" font-family="Helvetica,sans-Serif" font-size="10.00">+</text>
<text text-anchor="start" x="72.5" y="-21.5" font-family="Helvetica,sans-Serif" font-size="10.00">addLocalNeighbor()</text>
<text text-anchor="start" x="56.5" y="-6.5" font-family="Helvetica,sans-Serif" font-size="10.00">+</text>
<text text-anchor="start" x="72.5" y="-6.5" font-family="Helvetica,sans-Serif" font-size="10.00">finalize()</text>
<polygon fill="#666666" stroke="#666666" points="49.5,-91.5 49.5,-91.5 179.5,-91.5 179.5,-91.5 49.5,-91.5"/>
<polygon fill="#666666" stroke="#666666" points="49.5,-76.5 49.5,-76.5 70.5,-76.5 70.5,-76.5 49.5,-76.5"/>
<polygon fill="#666666" stroke="#666666" points="70.5,-76.5 70.5,-76.5 179.5,-76.5 179.5,-76.5 70.5,-76.5"/>
<polygon fill="none" stroke="#666666" points="49.5,0 49.5,-131 179.5,-131 179.5,0 49.5,0"/>
</a>
</g>
</g>
<!-- Node2 -->
<g id="Node000002" class="node">
<title>Node2</title>
<g id="a_Node000002"><a xlink:title=" ">
<polygon fill="white" stroke="transparent" points="135,-227 0,-227 0,-167 135,-167 135,-227"/>
<text text-anchor="start" x="5.5" y="-215" font-family="Helvetica,sans-Serif" font-size="10.00">Concept::FittingExtension</text>
<text text-anchor="start" x="48" y="-204" font-family="Helvetica,sans-Serif" font-size="10.00">Concept</text>
<text text-anchor="start" x="66" y="-189" font-family="Helvetica,sans-Serif" font-size="10.00"> </text>
<text text-anchor="start" x="66" y="-174" font-family="Helvetica,sans-Serif" font-size="10.00"> </text>
<polygon fill="#bfbfbf" stroke="#bfbfbf" points="0.5,-199 0.5,-199 135.5,-199 135.5,-199 0.5,-199"/>
<polygon fill="#bfbfbf" stroke="#bfbfbf" points="0.5,-184 0.5,-184 135.5,-184 135.5,-184 0.5,-184"/>
<polygon fill="none" stroke="#bfbfbf" points="0,-167 0,-227 135,-227 135,-167 0,-167"/>
</a>
</g>
</g>
<!-- Node2&#45;&gt;Node1 -->
<g id="edge1_Node000001_Node000002" class="edge">
<title>Node2&#45;&gt;Node1</title>
<g id="a_edge1_Node000001_Node000002"><a xlink:title=" ">
<path fill="none" stroke="#63b8ff" d="M81.46,-157.54C84.48,-149.22 87.75,-140.21 91.02,-131.19"/>
<polygon fill="none" stroke="#63b8ff" points="78.17,-156.34 78.05,-166.94 84.75,-158.73 78.17,-156.34"/>
</a>
</g>
</g>
<!-- Node3 -->
<g id="Node000003" class="node">
<title>Node3</title>
<g id="a_Node000003"><a xlink:title=" ">
<polygon fill="white" stroke="transparent" points="170,-221.5 153,-221.5 153,-172.5 170,-172.5 170,-221.5"/>
<text text-anchor="start" x="158.5" y="-209" font-family="Helvetica,sans-Serif" font-size="10.00">T</text>
<text text-anchor="start" x="160" y="-194" font-family="Helvetica,sans-Serif" font-size="10.00"> </text>
<text text-anchor="start" x="160" y="-179" font-family="Helvetica,sans-Serif" font-size="10.00"> </text>
<polygon fill="#bfbfbf" stroke="#bfbfbf" points="153.5,-204 153.5,-204 170.5,-204 170.5,-204 153.5,-204"/>
<polygon fill="#bfbfbf" stroke="#bfbfbf" points="153.5,-189 153.5,-189 170.5,-189 170.5,-189 153.5,-189"/>
<polygon fill="none" stroke="#bfbfbf" points="153,-172.5 153,-221.5 170,-221.5 170,-172.5 153,-172.5"/>
</a>
</g>
</g>
<!-- Node3&#45;&gt;Node1 -->
<g id="edge2_Node000001_Node000003" class="edge">
<title>Node3&#45;&gt;Node1</title>
<g id="a_edge2_Node000001_Node000003"><a xlink:title=" ">
<path fill="none" stroke="#63b8ff" d="M149.49,-162.91C145.95,-153.16 141.96,-142.15 137.96,-131.14"/>
<polygon fill="none" stroke="#63b8ff" points="146.29,-164.34 152.99,-172.55 152.87,-161.95 146.29,-164.34"/>
</a>
</g>
</g>
</g>
</svg>
</svg>

<style type='text/css'>
<![CDATA[
[data-mouse-over-selected='false'] { opacity: 0.7; }
[data-mouse-over-selected='true']  { opacity: 1.0; }
]]>
</style>
<script type="application/ecmascript"><![CDATA[
document.addEventListener('DOMContentLoaded', (event) => {
  highlightEdges();
  highlightAdjacentNodes();
});
]]></script>
</svg>
