<?xml version="1.0" encoding="UTF-8" standalone="no"?>
<!DOCTYPE svg PUBLIC "-//W3C//DTD SVG 1.1//EN"
 "http://www.w3.org/Graphics/SVG/1.1/DTD/svg11.dtd">
<!-- Generated by graphviz version 2.43.0 (0)
 -->
<!-- Title: Ponca::BaseCurvatureEstimator&lt; DataPoint, _WFunctor, T &gt; Pages: 1 -->
<svg width="179pt" height="281pt"
 viewBox="0.00 0.00 179.00 281.00" xmlns="http://www.w3.org/2000/svg" xmlns:xlink="http://www.w3.org/1999/xlink">
<g id="graph0" class="graph" transform="scale(1 1) rotate(0) translate(4 277)">
<title>Ponca::BaseCurvatureEstimator&lt; DataPoint, _WFunctor, T &gt;</title>
<polygon fill="white" stroke="transparent" points="-4,4 -4,-277 175,-277 175,4 -4,4"/>
<!-- Node1 -->
<g id="node1" class="node">
<title>Node1</title>
<g id="a_node1"><a xlink:title="Base class for any 3d curvature estimator: holds k1, k2 and associated vectors.">
<polygon fill="#bfbfbf" stroke="black" points="0,-0.5 0,-178.5 171,-178.5 171,-0.5 0,-0.5"/>
<text text-anchor="start" x="8" y="-166.5" font-family="Helvetica,sans-Serif" font-size="10.00">Ponca::BaseCurvatureEstimator</text>
<text text-anchor="middle" x="85.5" y="-155.5" font-family="Helvetica,sans-Serif" font-size="10.00">&lt; DataPoint, _WFunctor, T &gt;</text>
<polyline fill="none" stroke="black" points="0,-148.5 171,-148.5 "/>
<text text-anchor="start" x="8" y="-136.5" font-family="Helvetica,sans-Serif" font-size="10.00"># m_k1</text>
<text text-anchor="start" x="8" y="-125.5" font-family="Helvetica,sans-Serif" font-size="10.00"># m_k2</text>
<text text-anchor="start" x="8" y="-114.5" font-family="Helvetica,sans-Serif" font-size="10.00"># m_v1</text>
<text text-anchor="start" x="8" y="-103.5" font-family="Helvetica,sans-Serif" font-size="10.00"># m_v2</text>
<polyline fill="none" stroke="black" points="0,-96.5 171,-96.5 "/>
<text text-anchor="start" x="8" y="-84.5" font-family="Helvetica,sans-Serif" font-size="10.00">+ BaseCurvatureEstimator()</text>
<text text-anchor="start" x="8" y="-73.5" font-family="Helvetica,sans-Serif" font-size="10.00">+ init()</text>
<text text-anchor="start" x="8" y="-62.5" font-family="Helvetica,sans-Serif" font-size="10.00">+ k1()</text>
<text text-anchor="start" x="8" y="-51.5" font-family="Helvetica,sans-Serif" font-size="10.00">+ k2()</text>
<text text-anchor="start" x="8" y="-40.5" font-family="Helvetica,sans-Serif" font-size="10.00">+ k1Direction()</text>
<text text-anchor="start" x="8" y="-29.5" font-family="Helvetica,sans-Serif" font-size="10.00">+ k2Direction()</text>
<text text-anchor="start" x="8" y="-18.5" font-family="Helvetica,sans-Serif" font-size="10.00">+ kMean()</text>
<text text-anchor="start" x="8" y="-7.5" font-family="Helvetica,sans-Serif" font-size="10.00">+ GaussianCurvature()</text>
</a>
</g>
</g>
<!-- Node2 -->
<g id="node2" class="node">
<title>Node2</title>
<g id="a_node2"><a xlink:title=" ">
<polygon fill="white" stroke="#bfbfbf" points="71,-215.5 71,-272.5 100,-272.5 100,-215.5 71,-215.5"/>
<text text-anchor="middle" x="85.5" y="-260.5" font-family="Helvetica,sans-Serif" font-size="10.00">T</text>
<polyline fill="none" stroke="#bfbfbf" points="71,-253.5 100,-253.5 "/>
<text text-anchor="middle" x="85.5" y="-241.5" font-family="Helvetica,sans-Serif" font-size="10.00"> </text>
<polyline fill="none" stroke="#bfbfbf" points="71,-234.5 100,-234.5 "/>
<text text-anchor="middle" x="85.5" y="-222.5" font-family="Helvetica,sans-Serif" font-size="10.00"> </text>
</a>
</g>
</g>
<!-- Node2&#45;&gt;Node1 -->
<g id="edge1" class="edge">
<title>Node2&#45;&gt;Node1</title>
<path fill="none" stroke="midnightblue" d="M85.5,-205.37C85.5,-197.09 85.5,-187.98 85.5,-178.62"/>
<polygon fill="none" stroke="midnightblue" points="82,-205.38 85.5,-215.38 89,-205.38 82,-205.38"/>
</g>
</g>
</svg>
