<?xml version="1.0" encoding="UTF-8" standalone="no"?>
<!DOCTYPE svg PUBLIC "-//W3C//DTD SVG 1.1//EN"
 "http://www.w3.org/Graphics/SVG/1.1/DTD/svg11.dtd">
<!-- Generated by graphviz version 2.43.0 (0)
 -->
<!-- Title: Ponca::KdTreeQuery&lt; DataPoint &gt; Pages: 1 -->
<!--zoomable 976 -->
<svg id="main" version="1.1" xmlns="http://www.w3.org/2000/svg" xmlns:xlink="http://www.w3.org/1999/xlink" xml:space="preserve" onload="init(evt)">
<style type="text/css"><![CDATA[
.edge:hover path { stroke: red; }
.edge:hover polygon { stroke: red; fill: red; }
]]></style>
<script type="text/javascript"><![CDATA[
var edges = document.getElementsByTagName('g');
if (edges && edges.length) {
  for (var i=0;i<edges.length;i++) {
    if (edges[i].id.substr(0,4)=='edge') {
      edges[i].setAttribute('class','edge');
    }
  }
}
]]></script>
        <defs>
                <circle id="rim" cx="0" cy="0" r="7"/>
                <circle id="rim2" cx="0" cy="0" r="3.5"/>
                <g id="zoomPlus">
                        <use xlink:href="#rim" fill="#404040">
                                <set attributeName="fill" to="#808080" begin="zoomplus.mouseover" end="zoomplus.mouseout"/>
                        </use>
                        <path d="M-4,0h8M0,-4v8" fill="none" stroke="white" stroke-width="1.5" pointer-events="none"/>
                </g>
                <g id="zoomMin">
                        <use xlink:href="#rim" fill="#404040">
                                <set attributeName="fill" to="#808080" begin="zoomminus.mouseover" end="zoomminus.mouseout"/>
                        </use>
                        <path d="M-4,0h8" fill="none" stroke="white" stroke-width="1.5" pointer-events="none"/>
                </g>
                <g id="dirArrow">
                        <path fill="none" stroke="white" stroke-width="1.5" d="M0,-3.0v7 M-2.5,-0.5L0,-3.0L2.5,-0.5"/>
                </g>
               <g id="resetDef">
                       <use xlink:href="#rim2" fill="#404040">
                               <set attributeName="fill" to="#808080" begin="reset.mouseover" end="reset.mouseout"/>
                       </use>
               </g>
        </defs>

<script type="text/javascript">
var viewWidth = 941;
var viewHeight = 976;
var sectionId = 'dynsection-10';
</script>
<script xlink:href="svgpan.js"/>
<svg id="graph" class="graph">
<g id="viewport">
<title>Ponca::KdTreeQuery&lt; DataPoint &gt;</title>
<!-- Node1 -->
<g id="node1" class="node">
<title>Node1</title>
<g id="a_node1"><a xlink:title=" ">
<polygon fill="#bfbfbf" stroke="black" points="395,-0.5 395,-79.5 509,-79.5 509,-0.5 395,-0.5"/>
<text text-anchor="start" x="403" y="-67.5" font-family="Helvetica,sans-Serif" font-size="10.00">Ponca::KdTreeQuery</text>
<text text-anchor="middle" x="452" y="-56.5" font-family="Helvetica,sans-Serif" font-size="10.00">&lt; DataPoint &gt;</text>
<polyline fill="none" stroke="black" points="395,-49.5 509,-49.5 "/>
<text text-anchor="middle" x="452" y="-37.5" font-family="Helvetica,sans-Serif" font-size="10.00"> </text>
<polyline fill="none" stroke="black" points="395,-30.5 509,-30.5 "/>
<text text-anchor="start" x="403" y="-18.5" font-family="Helvetica,sans-Serif" font-size="10.00">+ KdTreeQuery()</text>
<text text-anchor="start" x="403" y="-7.5" font-family="Helvetica,sans-Serif" font-size="10.00"># reset()</text>
</a>
</g>
</g>
<!-- Node2 -->
<g id="node2" class="node">
<title>Node2</title>
<g id="a_node2"><a xlink:href="group__spatialpartitioning.html" target="_top" xlink:title=" ">
<polygon fill="none" stroke="black" points="514.5,-127.5 514.5,-305.5 669.5,-305.5 669.5,-127.5 514.5,-127.5"/>
<text text-anchor="middle" x="592" y="-293.5" font-family="Helvetica,sans-Serif" font-size="10.00">Ponca::KdTree&lt; DataPoint &gt;</text>
<polyline fill="none" stroke="black" points="514.5,-286.5 669.5,-286.5 "/>
<text text-anchor="start" x="522.5" y="-274.5" font-family="Helvetica,sans-Serif" font-size="10.00"># m_min_cell_size</text>
<text text-anchor="start" x="522.5" y="-263.5" font-family="Helvetica,sans-Serif" font-size="10.00"># m_leaf_count</text>
<polyline fill="none" stroke="black" points="514.5,-256.5 669.5,-256.5 "/>
<text text-anchor="start" x="522.5" y="-244.5" font-family="Helvetica,sans-Serif" font-size="10.00">+ KdTree()</text>
<text text-anchor="start" x="522.5" y="-233.5" font-family="Helvetica,sans-Serif" font-size="10.00">+ KdTree()</text>
<text text-anchor="start" x="522.5" y="-222.5" font-family="Helvetica,sans-Serif" font-size="10.00">+ KdTree()</text>
<text text-anchor="start" x="522.5" y="-211.5" font-family="Helvetica,sans-Serif" font-size="10.00">+ clear()</text>
<text text-anchor="start" x="522.5" y="-200.5" font-family="Helvetica,sans-Serif" font-size="10.00">+ build()</text>
<text text-anchor="start" x="522.5" y="-189.5" font-family="Helvetica,sans-Serif" font-size="10.00">+ build()</text>
<text text-anchor="start" x="522.5" y="-178.5" font-family="Helvetica,sans-Serif" font-size="10.00">+ buildWithSampling()</text>
<text text-anchor="start" x="522.5" y="-167.5" font-family="Helvetica,sans-Serif" font-size="10.00">+ buildWithSampling()</text>
<text text-anchor="start" x="522.5" y="-156.5" font-family="Helvetica,sans-Serif" font-size="10.00">+ rebuild()</text>
<text text-anchor="start" x="522.5" y="-145.5" font-family="Helvetica,sans-Serif" font-size="10.00">+ valid()</text>
<text text-anchor="start" x="522.5" y="-134.5" font-family="Helvetica,sans-Serif" font-size="10.00">and 21 more...</text>
</a>
</g>
</g>
<!-- Node2&#45;&gt;Node1 -->
<g id="edge1" class="edge">
<title>Node2&#45;&gt;Node1</title>
<path fill="none" stroke="#404040" d="M521.38,-127.48C510.87,-114.38 500.38,-101.3 490.85,-89.43"/>
<polygon fill="none" stroke="#404040" points="490.61,-89.12 483.73,-86.95 483.1,-79.76 489.97,-81.94 490.61,-89.12"/>
<text text-anchor="middle" x="534" y="-101" font-family="Helvetica,sans-Serif" font-size="10.00"> #m_kdtree</text>
</g>
<!-- Node3 -->
<g id="node3" class="node">
<title>Node3</title>
<g id="a_node3"><a xlink:title=" ">
<polygon fill="none" stroke="black" points="599.5,-618 599.5,-675 738.5,-675 738.5,-618 599.5,-618"/>
<text text-anchor="middle" x="669" y="-663" font-family="Helvetica,sans-Serif" font-size="10.00">std::vector&lt; DataPoint &gt;</text>
<polyline fill="none" stroke="black" points="599.5,-656 738.5,-656 "/>
<text text-anchor="start" x="607.5" y="-644" font-family="Helvetica,sans-Serif" font-size="10.00">+ elements</text>
<polyline fill="none" stroke="black" points="599.5,-637 738.5,-637 "/>
<text text-anchor="middle" x="669" y="-625" font-family="Helvetica,sans-Serif" font-size="10.00"> </text>
</a>
</g>
</g>
<!-- Node3&#45;&gt;Node2 -->
<g id="edge2" class="edge">
<title>Node3&#45;&gt;Node2</title>
<path fill="none" stroke="#404040" d="M641.64,-617.63C626.94,-600.71 610.19,-577.83 602,-554 575.85,-477.87 574.94,-386.25 579.69,-317.85"/>
<polygon fill="none" stroke="#404040" points="579.69,-317.76 576.16,-311.47 580.6,-305.79 584.13,-312.08 579.69,-317.76"/>
<text text-anchor="middle" x="630.5" y="-462" font-family="Helvetica,sans-Serif" font-size="10.00"> #m_points</text>
</g>
<!-- Node8 -->
<g id="node8" class="node">
<title>Node8</title>
<g id="a_node8"><a xlink:href="group__spatialpartitioning.html#classPonca_1_1KdTree" target="_top" xlink:title=" ">
<polygon fill="none" stroke="black" points="667.5,-375.5 667.5,-553.5 828.5,-553.5 828.5,-375.5 667.5,-375.5"/>
<text text-anchor="middle" x="748" y="-541.5" font-family="Helvetica,sans-Serif" font-size="10.00">Ponca::KdTree&lt; _DataPoint &gt;</text>
<polyline fill="none" stroke="black" points="667.5,-534.5 828.5,-534.5 "/>
<text text-anchor="start" x="675.5" y="-522.5" font-family="Helvetica,sans-Serif" font-size="10.00"># m_min_cell_size</text>
<text text-anchor="start" x="675.5" y="-511.5" font-family="Helvetica,sans-Serif" font-size="10.00"># m_leaf_count</text>
<polyline fill="none" stroke="black" points="667.5,-504.5 828.5,-504.5 "/>
<text text-anchor="start" x="675.5" y="-492.5" font-family="Helvetica,sans-Serif" font-size="10.00">+ KdTree()</text>
<text text-anchor="start" x="675.5" y="-481.5" font-family="Helvetica,sans-Serif" font-size="10.00">+ KdTree()</text>
<text text-anchor="start" x="675.5" y="-470.5" font-family="Helvetica,sans-Serif" font-size="10.00">+ KdTree()</text>
<text text-anchor="start" x="675.5" y="-459.5" font-family="Helvetica,sans-Serif" font-size="10.00">+ clear()</text>
<text text-anchor="start" x="675.5" y="-448.5" font-family="Helvetica,sans-Serif" font-size="10.00">+ build()</text>
<text text-anchor="start" x="675.5" y="-437.5" font-family="Helvetica,sans-Serif" font-size="10.00">+ build()</text>
<text text-anchor="start" x="675.5" y="-426.5" font-family="Helvetica,sans-Serif" font-size="10.00">+ buildWithSampling()</text>
<text text-anchor="start" x="675.5" y="-415.5" font-family="Helvetica,sans-Serif" font-size="10.00">+ buildWithSampling()</text>
<text text-anchor="start" x="675.5" y="-404.5" font-family="Helvetica,sans-Serif" font-size="10.00">+ rebuild()</text>
<text text-anchor="start" x="675.5" y="-393.5" font-family="Helvetica,sans-Serif" font-size="10.00">+ valid()</text>
<text text-anchor="start" x="675.5" y="-382.5" font-family="Helvetica,sans-Serif" font-size="10.00">and 21 more...</text>
</a>
</g>
</g>
<!-- Node3&#45;&gt;Node8 -->
<g id="edge10" class="edge">
<title>Node3&#45;&gt;Node8</title>
<path fill="none" stroke="#404040" d="M681.17,-617.77C687.57,-603.19 695.84,-584.34 704.37,-564.9"/>
<polygon fill="none" stroke="#404040" points="704.45,-564.73 703.2,-557.62 709.27,-553.74 710.53,-560.84 704.45,-564.73"/>
<text text-anchor="middle" x="727.5" y="-575" font-family="Helvetica,sans-Serif" font-size="10.00"> #m_points</text>
</g>
<!-- Node4 -->
<g id="node4" class="node">
<title>Node4</title>
<g id="a_node4"><a xlink:title=" ">
<polygon fill="none" stroke="black" points="575.5,-761.5 575.5,-818.5 672.5,-818.5 672.5,-761.5 575.5,-761.5"/>
<text text-anchor="middle" x="624" y="-806.5" font-family="Helvetica,sans-Serif" font-size="10.00">std::vector&lt; T &gt;</text>
<polyline fill="none" stroke="black" points="575.5,-799.5 672.5,-799.5 "/>
<text text-anchor="middle" x="624" y="-787.5" font-family="Helvetica,sans-Serif" font-size="10.00"> </text>
<polyline fill="none" stroke="black" points="575.5,-780.5 672.5,-780.5 "/>
<text text-anchor="middle" x="624" y="-768.5" font-family="Helvetica,sans-Serif" font-size="10.00"> </text>
</a>
</g>
</g>
<!-- Node4&#45;&gt;Node3 -->
<g id="edge3" class="edge">
<title>Node4&#45;&gt;Node3</title>
<path fill="none" stroke="orange" d="M640.53,-752.06C643.21,-745.45 645.81,-738.57 648,-732 654.2,-713.35 659.52,-691.85 663.25,-675.21"/>
<polygon fill="orange" stroke="orange" points="637.21,-750.92 636.59,-761.5 643.67,-753.61 637.21,-750.92"/>
<text text-anchor="middle" x="691" y="-718.5" font-family="Helvetica,sans-Serif" font-size="10.00"> &lt; DataPoint &gt;</text>
</g>
<!-- Node6 -->
<g id="node6" class="node">
<title>Node6</title>
<g id="a_node6"><a xlink:title=" ">
<polygon fill="none" stroke="black" points="442,-612.5 442,-680.5 580,-680.5 580,-612.5 442,-612.5"/>
<text text-anchor="start" x="450" y="-668.5" font-family="Helvetica,sans-Serif" font-size="10.00">std::vector&lt; KdTreeNode</text>
<text text-anchor="middle" x="511" y="-657.5" font-family="Helvetica,sans-Serif" font-size="10.00">&lt; Scalar &gt; &gt;</text>
<polyline fill="none" stroke="black" points="442,-650.5 580,-650.5 "/>
<text text-anchor="start" x="450" y="-638.5" font-family="Helvetica,sans-Serif" font-size="10.00">+ elements</text>
<polyline fill="none" stroke="black" points="442,-631.5 580,-631.5 "/>
<text text-anchor="middle" x="511" y="-619.5" font-family="Helvetica,sans-Serif" font-size="10.00"> </text>
</a>
</g>
</g>
<!-- Node4&#45;&gt;Node6 -->
<g id="edge6" class="edge">
<title>Node4&#45;&gt;Node6</title>
<path fill="none" stroke="orange" d="M565.71,-774.95C543.36,-766.41 520.1,-752.95 507,-732 497.58,-716.93 497.96,-697.23 500.98,-680.64"/>
<polygon fill="orange" stroke="orange" points="564.61,-778.27 575.21,-778.31 566.95,-771.67 564.61,-778.27"/>
<text text-anchor="middle" x="575.5" y="-718.5" font-family="Helvetica,sans-Serif" font-size="10.00"> &lt; KdTreeNode&lt; Scalar &gt; &gt;</text>
</g>
<!-- Node7 -->
<g id="node7" class="node">
<title>Node7</title>
<g id="a_node7"><a xlink:title=" ">
<polygon fill="none" stroke="black" points="757,-618 757,-675 861,-675 861,-618 757,-618"/>
<text text-anchor="middle" x="809" y="-663" font-family="Helvetica,sans-Serif" font-size="10.00">std::vector&lt; int &gt;</text>
<polyline fill="none" stroke="black" points="757,-656 861,-656 "/>
<text text-anchor="start" x="765" y="-644" font-family="Helvetica,sans-Serif" font-size="10.00">+ elements</text>
<polyline fill="none" stroke="black" points="757,-637 861,-637 "/>
<text text-anchor="middle" x="809" y="-625" font-family="Helvetica,sans-Serif" font-size="10.00"> </text>
</a>
</g>
</g>
<!-- Node4&#45;&gt;Node7 -->
<g id="edge8" class="edge">
<title>Node4&#45;&gt;Node7</title>
<path fill="none" stroke="orange" d="M681.91,-763.12C698.8,-754.36 716.79,-743.77 732,-732 753.19,-715.6 773.44,-693 787.86,-675.3"/>
<polygon fill="orange" stroke="orange" points="680.01,-760.16 672.67,-767.79 683.17,-766.4 680.01,-760.16"/>
<text text-anchor="middle" x="774.5" y="-718.5" font-family="Helvetica,sans-Serif" font-size="10.00"> &lt; int &gt;</text>
</g>
<!-- Node5 -->
<g id="node5" class="node">
<title>Node5</title>
<g id="a_node5"><a xlink:title=" ">
<polygon fill="none" stroke="#bfbfbf" points="432.5,-899.5 432.5,-956.5 461.5,-956.5 461.5,-899.5 432.5,-899.5"/>
<text text-anchor="middle" x="447" y="-944.5" font-family="Helvetica,sans-Serif" font-size="10.00">T</text>
<polyline fill="none" stroke="#bfbfbf" points="432.5,-937.5 461.5,-937.5 "/>
<text text-anchor="middle" x="447" y="-925.5" font-family="Helvetica,sans-Serif" font-size="10.00"> </text>
<polyline fill="none" stroke="#bfbfbf" points="432.5,-918.5 461.5,-918.5 "/>
<text text-anchor="middle" x="447" y="-906.5" font-family="Helvetica,sans-Serif" font-size="10.00"> </text>
</a>
</g>
</g>
<!-- Node5&#45;&gt;Node4 -->
<g id="edge4" class="edge">
<title>Node5&#45;&gt;Node4</title>
<path fill="none" stroke="#404040" d="M461.79,-915.64C487.11,-896.18 539.76,-855.73 578.23,-826.17"/>
<polygon fill="none" stroke="#404040" points="578.66,-825.84 580.98,-819.01 588.18,-818.52 585.86,-825.35 578.66,-825.84"/>
<text text-anchor="middle" x="575" y="-856.5" font-family="Helvetica,sans-Serif" font-size="10.00"> +elements</text>
</g>
<!-- Node13 -->
<g id="node13" class="node">
<title>Node13</title>
<g id="a_node13"><a xlink:title=" ">
<polygon fill="none" stroke="black" points="319,-761.5 319,-818.5 411,-818.5 411,-761.5 319,-761.5"/>
<text text-anchor="middle" x="365" y="-806.5" font-family="Helvetica,sans-Serif" font-size="10.00">std::array&lt; T &gt;</text>
<polyline fill="none" stroke="black" points="319,-799.5 411,-799.5 "/>
<text text-anchor="middle" x="365" y="-787.5" font-family="Helvetica,sans-Serif" font-size="10.00"> </text>
<polyline fill="none" stroke="black" points="319,-780.5 411,-780.5 "/>
<text text-anchor="middle" x="365" y="-768.5" font-family="Helvetica,sans-Serif" font-size="10.00"> </text>
</a>
</g>
</g>
<!-- Node5&#45;&gt;Node13 -->
<g id="edge18" class="edge">
<title>Node5&#45;&gt;Node13</title>
<path fill="none" stroke="#404040" d="M432.29,-919.86C415.37,-910.79 388.24,-893.47 375,-870 368.36,-858.23 365.33,-843.93 364.13,-830.75"/>
<polygon fill="none" stroke="#404040" points="364.12,-830.55 359.8,-824.77 363.47,-818.57 367.79,-824.34 364.12,-830.55"/>
<text text-anchor="middle" x="404" y="-856.5" font-family="Helvetica,sans-Serif" font-size="10.00"> +elements</text>
</g>
<!-- Node15 -->
<g id="node15" class="node">
<title>Node15</title>
<g id="a_node15"><a xlink:title=" ">
<polygon fill="none" stroke="black" points="318.5,-618 318.5,-675 423.5,-675 423.5,-618 318.5,-618"/>
<text text-anchor="middle" x="371" y="-663" font-family="Helvetica,sans-Serif" font-size="10.00">std::array&lt; T, N &gt;</text>
<polyline fill="none" stroke="black" points="318.5,-656 423.5,-656 "/>
<text text-anchor="middle" x="371" y="-644" font-family="Helvetica,sans-Serif" font-size="10.00"> </text>
<polyline fill="none" stroke="black" points="318.5,-637 423.5,-637 "/>
<text text-anchor="middle" x="371" y="-625" font-family="Helvetica,sans-Serif" font-size="10.00"> </text>
</a>
</g>
</g>
<!-- Node5&#45;&gt;Node15 -->
<g id="edge21" class="edge">
<title>Node5&#45;&gt;Node15</title>
<path fill="none" stroke="#404040" d="M447.7,-899.48C447.84,-857.14 444.3,-774.19 418,-710 414.46,-701.35 409.42,-692.84 403.95,-685.01"/>
<polygon fill="none" stroke="#404040" points="403.78,-684.77 396.98,-682.36 396.6,-675.15 403.39,-677.57 403.78,-684.77"/>
<text text-anchor="middle" x="473" y="-787.5" font-family="Helvetica,sans-Serif" font-size="10.00"> +elements</text>
</g>
<!-- Node6&#45;&gt;Node2 -->
<g id="edge5" class="edge">
<title>Node6&#45;&gt;Node2</title>
<path fill="none" stroke="#404040" d="M507.34,-612.46C502.6,-560.92 497.13,-458.63 517,-375 521.6,-355.63 528.79,-335.83 536.92,-317.09"/>
<polygon fill="none" stroke="#404040" points="537.04,-316.83 535.85,-309.71 541.95,-305.88 543.14,-312.99 537.04,-316.83"/>
<text text-anchor="middle" x="545" y="-462" font-family="Helvetica,sans-Serif" font-size="10.00"> #m_nodes</text>
</g>
<!-- Node6&#45;&gt;Node8 -->
<g id="edge11" class="edge">
<title>Node6&#45;&gt;Node8</title>
<path fill="none" stroke="#404040" d="M567.52,-612.29C594.2,-595.81 626.03,-574.98 653,-554 654.65,-552.72 656.31,-551.41 657.97,-550.08"/>
<polygon fill="none" stroke="#404040" points="658.2,-549.89 660.3,-542.99 667.48,-542.28 665.37,-549.18 658.2,-549.89"/>
<text text-anchor="middle" x="655" y="-575" font-family="Helvetica,sans-Serif" font-size="10.00"> #m_nodes</text>
</g>
<!-- Node7&#45;&gt;Node2 -->
<g id="edge7" class="edge">
<title>Node7&#45;&gt;Node2</title>
<path fill="none" stroke="#404040" d="M832.76,-617.78C840.09,-607.53 847.23,-595.38 851,-583 878,-494.4 885.11,-454.75 838,-375 803.01,-315.77 736.03,-275.09 680.78,-249.93"/>
<polygon fill="none" stroke="#404040" points="680.52,-249.81 673.41,-251.03 669.55,-244.95 676.65,-243.72 680.52,-249.81"/>
<text text-anchor="middle" x="902.5" y="-462" font-family="Helvetica,sans-Serif" font-size="10.00"> #m_indices</text>
</g>
<!-- Node7&#45;&gt;Node8 -->
<g id="edge12" class="edge">
<title>Node7&#45;&gt;Node8</title>
<path fill="none" stroke="#404040" d="M799.6,-617.77C794.69,-603.26 788.33,-584.52 781.78,-565.17"/>
<polygon fill="none" stroke="#404040" points="781.75,-565.1 776.04,-560.7 777.9,-553.74 783.62,-558.14 781.75,-565.1"/>
<text text-anchor="middle" x="817.5" y="-575" font-family="Helvetica,sans-Serif" font-size="10.00"> #m_indices</text>
</g>
<!-- Node8&#45;&gt;Node2 -->
<g id="edge9" class="edge">
<title>Node8&#45;&gt;Node2</title>
<path fill="none" stroke="orange" d="M686.7,-366.83C673.94,-346.72 660.56,-325.62 648.01,-305.83"/>
<polygon fill="orange" stroke="orange" points="683.81,-368.81 692.12,-375.38 689.72,-365.06 683.81,-368.81"/>
<text text-anchor="middle" x="716" y="-338" font-family="Helvetica,sans-Serif" font-size="10.00"> &lt; DataPoint &gt;</text>
</g>
<!-- Node9 -->
<g id="node9" class="node">
<title>Node9</title>
<g id="a_node9"><a xlink:href="group__common.html" target="_top" xlink:title=" ">
<polygon fill="none" stroke="black" points="252,-127.5 252,-305.5 386,-305.5 386,-127.5 252,-127.5"/>
<text text-anchor="start" x="260" y="-293.5" font-family="Helvetica,sans-Serif" font-size="10.00">Ponca::Stack&lt; Ponca</text>
<text text-anchor="start" x="260" y="-282.5" font-family="Helvetica,sans-Serif" font-size="10.00">::IndexSquaredDistance</text>
<text text-anchor="start" x="260" y="-271.5" font-family="Helvetica,sans-Serif" font-size="10.00">&lt; typename DataPoint::</text>
<text text-anchor="middle" x="319" y="-260.5" font-family="Helvetica,sans-Serif" font-size="10.00">Scalar &gt;, 2 *32 &gt;</text>
<polyline fill="none" stroke="black" points="252,-253.5 386,-253.5 "/>
<text text-anchor="start" x="260" y="-241.5" font-family="Helvetica,sans-Serif" font-size="10.00"># m_size</text>
<polyline fill="none" stroke="black" points="252,-234.5 386,-234.5 "/>
<text text-anchor="start" x="260" y="-222.5" font-family="Helvetica,sans-Serif" font-size="10.00">+ Stack()</text>
<text text-anchor="start" x="260" y="-211.5" font-family="Helvetica,sans-Serif" font-size="10.00">+ top()</text>
<text text-anchor="start" x="260" y="-200.5" font-family="Helvetica,sans-Serif" font-size="10.00">+ top()</text>
<text text-anchor="start" x="260" y="-189.5" font-family="Helvetica,sans-Serif" font-size="10.00">+ empty()</text>
<text text-anchor="start" x="260" y="-178.5" font-family="Helvetica,sans-Serif" font-size="10.00">+ size()</text>
<text text-anchor="start" x="260" y="-167.5" font-family="Helvetica,sans-Serif" font-size="10.00">+ push()</text>
<text text-anchor="start" x="260" y="-156.5" font-family="Helvetica,sans-Serif" font-size="10.00">+ push()</text>
<text text-anchor="start" x="260" y="-145.5" font-family="Helvetica,sans-Serif" font-size="10.00">+ pop()</text>
<text text-anchor="start" x="260" y="-134.5" font-family="Helvetica,sans-Serif" font-size="10.00">+ clear()</text>
</a>
</g>
</g>
<!-- Node9&#45;&gt;Node1 -->
<g id="edge13" class="edge">
<title>Node9&#45;&gt;Node1</title>
<path fill="none" stroke="#404040" d="M386.08,-127.48C396.07,-114.38 406.04,-101.3 415.09,-89.43"/>
<polygon fill="none" stroke="#404040" points="415.18,-89.31 415.64,-82.11 422.46,-79.76 422,-86.96 415.18,-89.31"/>
<text text-anchor="middle" x="431.5" y="-101" font-family="Helvetica,sans-Serif" font-size="10.00"> #m_stack</text>
</g>
<!-- Node10 -->
<g id="node10" class="node">
<title>Node10</title>
<g id="a_node10"><a xlink:title=" ">
<polygon fill="none" stroke="black" points="105,-601.5 105,-691.5 233,-691.5 233,-601.5 105,-601.5"/>
<text text-anchor="start" x="113" y="-679.5" font-family="Helvetica,sans-Serif" font-size="10.00">std::array&lt; Ponca::</text>
<text text-anchor="start" x="113" y="-668.5" font-family="Helvetica,sans-Serif" font-size="10.00">IndexSquaredDistance</text>
<text text-anchor="start" x="113" y="-657.5" font-family="Helvetica,sans-Serif" font-size="10.00">&lt; typename DataPoint</text>
<text text-anchor="middle" x="169" y="-646.5" font-family="Helvetica,sans-Serif" font-size="10.00">::Scalar &gt;, N &gt;</text>
<polyline fill="none" stroke="black" points="105,-639.5 233,-639.5 "/>
<text text-anchor="middle" x="169" y="-627.5" font-family="Helvetica,sans-Serif" font-size="10.00"> </text>
<polyline fill="none" stroke="black" points="105,-620.5 233,-620.5 "/>
<text text-anchor="middle" x="169" y="-608.5" font-family="Helvetica,sans-Serif" font-size="10.00"> </text>
</a>
</g>
</g>
<!-- Node10&#45;&gt;Node9 -->
<g id="edge14" class="edge">
<title>Node10&#45;&gt;Node9</title>
<path fill="none" stroke="#404040" d="M173.06,-601.07C179.13,-546.35 193.22,-451.28 223,-375 230.71,-355.24 240.86,-335.17 251.67,-316.26"/>
<polygon fill="none" stroke="#404040" points="251.68,-316.24 251.25,-309.04 257.73,-305.88 258.16,-313.08 251.68,-316.24"/>
<text text-anchor="middle" x="247.5" y="-462" font-family="Helvetica,sans-Serif" font-size="10.00"> #m_data</text>
</g>
<!-- Node11 -->
<g id="node11" class="node">
<title>Node11</title>
<g id="a_node11"><a xlink:href="group__spatialpartitioning.html" target="_top" xlink:title=" ">
<polygon fill="none" stroke="black" points="0,-750.5 0,-829.5 176,-829.5 176,-750.5 0,-750.5"/>
<text text-anchor="start" x="8" y="-817.5" font-family="Helvetica,sans-Serif" font-size="10.00">Ponca::IndexSquaredDistance</text>
<text text-anchor="middle" x="88" y="-806.5" font-family="Helvetica,sans-Serif" font-size="10.00">&lt; typename DataPoint::Scalar &gt;</text>
<polyline fill="none" stroke="black" points="0,-799.5 176,-799.5 "/>
<text text-anchor="start" x="8" y="-787.5" font-family="Helvetica,sans-Serif" font-size="10.00">+ index</text>
<text text-anchor="start" x="8" y="-776.5" font-family="Helvetica,sans-Serif" font-size="10.00">+ squared_distance</text>
<polyline fill="none" stroke="black" points="0,-769.5 176,-769.5 "/>
<text text-anchor="start" x="8" y="-757.5" font-family="Helvetica,sans-Serif" font-size="10.00">+ operator&lt;()</text>
</a>
</g>
</g>
<!-- Node11&#45;&gt;Node10 -->
<g id="edge15" class="edge">
<title>Node11&#45;&gt;Node10</title>
<path fill="none" stroke="#404040" d="M81.88,-750.44C81.42,-737.03 82.91,-722.29 89,-710 91.18,-705.6 93.84,-701.41 96.84,-697.45"/>
<polygon fill="none" stroke="#404040" points="97.1,-697.14 97.99,-689.99 104.94,-688.05 104.05,-695.21 97.1,-697.14"/>
<text text-anchor="middle" x="118" y="-718.5" font-family="Helvetica,sans-Serif" font-size="10.00"> +elements</text>
</g>
<!-- Node12 -->
<g id="node12" class="node">
<title>Node12</title>
<g id="a_node12"><a xlink:href="group__spatialpartitioning.html#structPonca_1_1IndexSquaredDistance" target="_top" xlink:title="Associates an index with a distance.">
<polygon fill="none" stroke="black" points="7.5,-888.5 7.5,-967.5 168.5,-967.5 168.5,-888.5 7.5,-888.5"/>
<text text-anchor="start" x="15.5" y="-955.5" font-family="Helvetica,sans-Serif" font-size="10.00">Ponca::IndexSquaredDistance</text>
<text text-anchor="middle" x="88" y="-944.5" font-family="Helvetica,sans-Serif" font-size="10.00">&lt; Scalar &gt;</text>
<polyline fill="none" stroke="black" points="7.5,-937.5 168.5,-937.5 "/>
<text text-anchor="start" x="15.5" y="-925.5" font-family="Helvetica,sans-Serif" font-size="10.00">+ index</text>
<text text-anchor="start" x="15.5" y="-914.5" font-family="Helvetica,sans-Serif" font-size="10.00">+ squared_distance</text>
<polyline fill="none" stroke="black" points="7.5,-907.5 168.5,-907.5 "/>
<text text-anchor="start" x="15.5" y="-895.5" font-family="Helvetica,sans-Serif" font-size="10.00">+ operator&lt;()</text>
</a>
</g>
</g>
<!-- Node12&#45;&gt;Node11 -->
<g id="edge16" class="edge">
<title>Node12&#45;&gt;Node11</title>
<path fill="none" stroke="orange" d="M88,-878.18C88,-862.25 88,-844.79 88,-829.7"/>
<polygon fill="orange" stroke="orange" points="84.5,-878.39 88,-888.39 91.5,-878.39 84.5,-878.39"/>
<text text-anchor="start" x="88" y="-862" font-family="Helvetica,sans-Serif" font-size="10.00"> &lt; typename DataPoint</text>
<text text-anchor="middle" x="145.5" y="-851" font-family="Helvetica,sans-Serif" font-size="10.00">::Scalar &gt;</text>
</g>
<!-- Node13&#45;&gt;Node10 -->
<g id="edge17" class="edge">
<title>Node13&#45;&gt;Node10</title>
<path fill="none" stroke="orange" d="M308.56,-787.39C266.27,-782.98 210.49,-769.72 179,-732 169.72,-720.89 166.08,-705.9 165.12,-691.63"/>
<polygon fill="orange" stroke="orange" points="308.45,-790.9 318.72,-788.31 309.08,-783.93 308.45,-790.9"/>
<text text-anchor="start" x="179" y="-724" font-family="Helvetica,sans-Serif" font-size="10.00"> &lt; Ponca::IndexSquaredDistance</text>
<text text-anchor="middle" x="271" y="-713" font-family="Helvetica,sans-Serif" font-size="10.00">&lt; typename DataPoint::Scalar &gt;, N &gt;</text>
</g>
<!-- Node13&#45;&gt;Node15 -->
<g id="edge22" class="edge">
<title>Node13&#45;&gt;Node15</title>
<path fill="none" stroke="orange" d="M366.6,-751.21C367.62,-727.23 368.91,-696.75 369.83,-675.05"/>
<polygon fill="orange" stroke="orange" points="363.1,-751.24 366.17,-761.38 370.09,-751.54 363.1,-751.24"/>
<text text-anchor="middle" x="391" y="-718.5" font-family="Helvetica,sans-Serif" font-size="10.00"> &lt; T, N &gt;</text>
</g>
<!-- Node14 -->
<g id="node14" class="node">
<title>Node14</title>
<g id="a_node14"><a xlink:href="group__common.html#classPonca_1_1Stack" target="_top" xlink:title="Stack with fixed&#45;size storage.">
<polygon fill="none" stroke="black" points="280.5,-392 280.5,-537 401.5,-537 401.5,-392 280.5,-392"/>
<text text-anchor="middle" x="341" y="-525" font-family="Helvetica,sans-Serif" font-size="10.00">Ponca::Stack&lt; T, N &gt;</text>
<polyline fill="none" stroke="black" points="280.5,-518 401.5,-518 "/>
<text text-anchor="start" x="288.5" y="-506" font-family="Helvetica,sans-Serif" font-size="10.00"># m_size</text>
<polyline fill="none" stroke="black" points="280.5,-499 401.5,-499 "/>
<text text-anchor="start" x="288.5" y="-487" font-family="Helvetica,sans-Serif" font-size="10.00">+ Stack()</text>
<text text-anchor="start" x="288.5" y="-476" font-family="Helvetica,sans-Serif" font-size="10.00">+ top()</text>
<text text-anchor="start" x="288.5" y="-465" font-family="Helvetica,sans-Serif" font-size="10.00">+ top()</text>
<text text-anchor="start" x="288.5" y="-454" font-family="Helvetica,sans-Serif" font-size="10.00">+ empty()</text>
<text text-anchor="start" x="288.5" y="-443" font-family="Helvetica,sans-Serif" font-size="10.00">+ size()</text>
<text text-anchor="start" x="288.5" y="-432" font-family="Helvetica,sans-Serif" font-size="10.00">+ push()</text>
<text text-anchor="start" x="288.5" y="-421" font-family="Helvetica,sans-Serif" font-size="10.00">+ push()</text>
<text text-anchor="start" x="288.5" y="-410" font-family="Helvetica,sans-Serif" font-size="10.00">+ pop()</text>
<text text-anchor="start" x="288.5" y="-399" font-family="Helvetica,sans-Serif" font-size="10.00">+ clear()</text>
</a>
</g>
</g>
<!-- Node14&#45;&gt;Node9 -->
<g id="edge19" class="edge">
<title>Node14&#45;&gt;Node9</title>
<path fill="none" stroke="orange" d="M323.28,-381.76C321.95,-373.43 320.82,-365.06 320,-357 318.33,-340.49 317.48,-322.83 317.13,-305.82"/>
<polygon fill="orange" stroke="orange" points="319.87,-382.6 324.97,-391.88 326.77,-381.44 319.87,-382.6"/>
<text text-anchor="start" x="320" y="-349" font-family="Helvetica,sans-Serif" font-size="10.00"> &lt; Ponca::IndexSquaredDistance</text>
<text text-anchor="start" x="320" y="-338" font-family="Helvetica,sans-Serif" font-size="10.00">&lt; typename DataPoint::Scalar</text>
<text text-anchor="middle" x="400" y="-327" font-family="Helvetica,sans-Serif" font-size="10.00"> &gt;, 2 *32 &gt;</text>
</g>
<!-- Node15&#45;&gt;Node14 -->
<g id="edge20" class="edge">
<title>Node15&#45;&gt;Node14</title>
<path fill="none" stroke="#404040" d="M366.38,-617.77C363.3,-599.29 359.08,-573.95 354.96,-549.24"/>
<polygon fill="none" stroke="#404040" points="354.92,-549.03 349.99,-543.77 352.95,-537.2 357.88,-542.46 354.92,-549.03"/>
<text text-anchor="middle" x="384.5" y="-575" font-family="Helvetica,sans-Serif" font-size="10.00"> #m_data</text>
</g>
</g>
</svg>
        <g id="navigator" transform="translate(0 0)" fill="#404254">
                <rect fill="#f2f5e9" fill-opacity="0.5" stroke="#606060" stroke-width=".5" x="0" y="0" width="60" height="60"/>
                <use id="zoomplus" xlink:href="#zoomPlus" x="17" y="9" onmousedown="handleZoom(evt,'in')"/>
                <use id="zoomminus" xlink:href="#zoomMin" x="42" y="9" onmousedown="handleZoom(evt,'out')"/>
                <use id="reset" xlink:href="#resetDef" x="30" y="36" onmousedown="handleReset()"/>
                <g id="arrowUp" xlink:href="#dirArrow" transform="translate(30 24)" onmousedown="handlePan(0,-1)">
                  <use xlink:href="#rim" fill="#404040">
                        <set attributeName="fill" to="#808080" begin="arrowUp.mouseover" end="arrowUp.mouseout"/>
                  </use>
                  <path fill="none" stroke="white" stroke-width="1.5" d="M0,-3.0v7 M-2.5,-0.5L0,-3.0L2.5,-0.5"/>
                </g>
                <g id="arrowRight" xlink:href="#dirArrow" transform="rotate(90) translate(36 -43)" onmousedown="handlePan(1,0)">
                  <use xlink:href="#rim" fill="#404040">
                        <set attributeName="fill" to="#808080" begin="arrowRight.mouseover" end="arrowRight.mouseout"/>
                  </use>
                  <path fill="none" stroke="white" stroke-width="1.5" d="M0,-3.0v7 M-2.5,-0.5L0,-3.0L2.5,-0.5"/>
                </g>
                <g id="arrowDown" xlink:href="#dirArrow" transform="rotate(180) translate(-30 -48)" onmousedown="handlePan(0,1)">
                  <use xlink:href="#rim" fill="#404040">
                        <set attributeName="fill" to="#808080" begin="arrowDown.mouseover" end="arrowDown.mouseout"/>
                  </use>
                  <path fill="none" stroke="white" stroke-width="1.5" d="M0,-3.0v7 M-2.5,-0.5L0,-3.0L2.5,-0.5"/>
                </g>
                <g id="arrowLeft" xlink:href="#dirArrow" transform="rotate(270) translate(-36 17)" onmousedown="handlePan(-1,0)">
                  <use xlink:href="#rim" fill="#404040">
                        <set attributeName="fill" to="#808080" begin="arrowLeft.mouseover" end="arrowLeft.mouseout"/>
                  </use>
                  <path fill="none" stroke="white" stroke-width="1.5" d="M0,-3.0v7 M-2.5,-0.5L0,-3.0L2.5,-0.5"/>
                </g>
        </g>
        <svg viewBox="0 0 15 15" width="100%" height="30px" preserveAspectRatio="xMaxYMin meet">
         <g id="arrow_out" transform="scale(0.3 0.3)">
          <a xlink:href="classPonca_1_1KdTreeQuery__coll__graph_org.svg" target="_base">
           <rect id="button" ry="5" rx="5" y="6" x="6" height="38" width="38"
                fill="#f2f5e9" fill-opacity="0.5" stroke="#606060" stroke-width="1.0"/>
           <path id="arrow"
             d="M 11.500037,31.436501 C 11.940474,20.09759 22.043105,11.32322 32.158766,21.979434 L 37.068811,17.246167 C 37.068811,17.246167 37.088388,32 37.088388,32 L 22.160133,31.978069 C 22.160133,31.978069 26.997745,27.140456 26.997745,27.140456 C 18.528582,18.264221 13.291696,25.230495 11.500037,31.436501 z"
             style="fill:#404040;"/>
          </a>
         </g>
        </svg>
</svg>
