<?xml version="1.0" encoding="UTF-8" standalone="no"?>
<!DOCTYPE svg PUBLIC "-//W3C//DTD SVG 1.1//EN"
 "http://www.w3.org/Graphics/SVG/1.1/DTD/svg11.dtd">
<!-- Generated by graphviz version 2.43.0 (0)
 -->
<!-- Title: Ponca::BaseCurvatureEstimator&lt; DataPoint, _WFunctor, T &gt; Pages: 1 -->
<svg width="422pt" height="452pt"
 viewBox="0.00 0.00 421.50 452.00" xmlns="http://www.w3.org/2000/svg" xmlns:xlink="http://www.w3.org/1999/xlink">
<g id="graph0" class="graph" transform="scale(1 1) rotate(0) translate(4 448)">
<title>Ponca::BaseCurvatureEstimator&lt; DataPoint, _WFunctor, T &gt;</title>
<polygon fill="white" stroke="transparent" points="-4,4 -4,-448 417.5,-448 417.5,4 -4,4"/>
<!-- Node1 -->
<g id="node1" class="node">
<title>Node1</title>
<g id="a_node1"><a xlink:title="Base class for any 3d curvature estimator: holds k1, k2 and associated vectors.">
<polygon fill="#bfbfbf" stroke="black" points="118,-171.5 118,-349.5 289,-349.5 289,-171.5 118,-171.5"/>
<text text-anchor="start" x="126" y="-337.5" font-family="Helvetica,sans-Serif" font-size="10.00">Ponca::BaseCurvatureEstimator</text>
<text text-anchor="middle" x="203.5" y="-326.5" font-family="Helvetica,sans-Serif" font-size="10.00">&lt; DataPoint, _WFunctor, T &gt;</text>
<polyline fill="none" stroke="black" points="118,-319.5 289,-319.5 "/>
<text text-anchor="start" x="126" y="-307.5" font-family="Helvetica,sans-Serif" font-size="10.00"># m_k1</text>
<text text-anchor="start" x="126" y="-296.5" font-family="Helvetica,sans-Serif" font-size="10.00"># m_k2</text>
<text text-anchor="start" x="126" y="-285.5" font-family="Helvetica,sans-Serif" font-size="10.00"># m_v1</text>
<text text-anchor="start" x="126" y="-274.5" font-family="Helvetica,sans-Serif" font-size="10.00"># m_v2</text>
<polyline fill="none" stroke="black" points="118,-267.5 289,-267.5 "/>
<text text-anchor="start" x="126" y="-255.5" font-family="Helvetica,sans-Serif" font-size="10.00">+ BaseCurvatureEstimator()</text>
<text text-anchor="start" x="126" y="-244.5" font-family="Helvetica,sans-Serif" font-size="10.00">+ init()</text>
<text text-anchor="start" x="126" y="-233.5" font-family="Helvetica,sans-Serif" font-size="10.00">+ k1()</text>
<text text-anchor="start" x="126" y="-222.5" font-family="Helvetica,sans-Serif" font-size="10.00">+ k2()</text>
<text text-anchor="start" x="126" y="-211.5" font-family="Helvetica,sans-Serif" font-size="10.00">+ k1Direction()</text>
<text text-anchor="start" x="126" y="-200.5" font-family="Helvetica,sans-Serif" font-size="10.00">+ k2Direction()</text>
<text text-anchor="start" x="126" y="-189.5" font-family="Helvetica,sans-Serif" font-size="10.00">+ kMean()</text>
<text text-anchor="start" x="126" y="-178.5" font-family="Helvetica,sans-Serif" font-size="10.00">+ GaussianCurvature()</text>
</a>
</g>
</g>
<!-- Node3 -->
<g id="node3" class="node">
<title>Node3</title>
<g id="a_node3"><a xlink:href="classPonca_1_1NormalCovarianceCurvature.html" target="_top" xlink:title="Extension to compute curvature values based on a covariance analysis of normal vectors of neighbors.">
<polygon fill="white" stroke="black" points="0,-6 0,-129 191,-129 191,-6 0,-6"/>
<text text-anchor="start" x="8" y="-117" font-family="Helvetica,sans-Serif" font-size="10.00">Ponca::NormalCovarianceCurvature</text>
<text text-anchor="middle" x="95.5" y="-106" font-family="Helvetica,sans-Serif" font-size="10.00">&lt; DataPoint, _WFunctor, T &gt;</text>
<polyline fill="none" stroke="black" points="0,-99 191,-99 "/>
<text text-anchor="start" x="8" y="-87" font-family="Helvetica,sans-Serif" font-size="10.00"># m_cov</text>
<text text-anchor="start" x="8" y="-76" font-family="Helvetica,sans-Serif" font-size="10.00"># m_cog</text>
<text text-anchor="start" x="8" y="-65" font-family="Helvetica,sans-Serif" font-size="10.00"># m_solver</text>
<polyline fill="none" stroke="black" points="0,-58 191,-58 "/>
<text text-anchor="start" x="8" y="-46" font-family="Helvetica,sans-Serif" font-size="10.00">+ NormalCovarianceCurvature()</text>
<text text-anchor="start" x="8" y="-35" font-family="Helvetica,sans-Serif" font-size="10.00">+ init()</text>
<text text-anchor="start" x="8" y="-24" font-family="Helvetica,sans-Serif" font-size="10.00">+ addNeighbor()</text>
<text text-anchor="start" x="8" y="-13" font-family="Helvetica,sans-Serif" font-size="10.00">+ finalize()</text>
</a>
</g>
</g>
<!-- Node1&#45;&gt;Node3 -->
<g id="edge2" class="edge">
<title>Node1&#45;&gt;Node3</title>
<path fill="none" stroke="midnightblue" d="M148.68,-162.56C142.24,-151.16 135.81,-139.78 129.76,-129.09"/>
<polygon fill="none" stroke="midnightblue" points="145.64,-164.29 153.61,-171.27 151.73,-160.84 145.64,-164.29"/>
</g>
<!-- Node4 -->
<g id="node4" class="node">
<title>Node4</title>
<g id="a_node4"><a xlink:href="classPonca_1_1ProjectedNormalCovarianceCurvature.html" target="_top" xlink:title="Extension to compute curvature values based on a covariance analysis of normal vectors of neighbors p...">
<polygon fill="white" stroke="black" points="209.5,-0.5 209.5,-134.5 413.5,-134.5 413.5,-0.5 209.5,-0.5"/>
<text text-anchor="start" x="217.5" y="-122.5" font-family="Helvetica,sans-Serif" font-size="10.00">Ponca::ProjectedNormalCovariance</text>
<text text-anchor="middle" x="311.5" y="-111.5" font-family="Helvetica,sans-Serif" font-size="10.00">Curvature&lt; DataPoint, _WFunctor, T &gt;</text>
<polyline fill="none" stroke="black" points="209.5,-104.5 413.5,-104.5 "/>
<text text-anchor="start" x="217.5" y="-92.5" font-family="Helvetica,sans-Serif" font-size="10.00"># m_cog</text>
<text text-anchor="start" x="217.5" y="-81.5" font-family="Helvetica,sans-Serif" font-size="10.00"># m_cov</text>
<text text-anchor="start" x="217.5" y="-70.5" font-family="Helvetica,sans-Serif" font-size="10.00"># m_solver</text>
<text text-anchor="start" x="217.5" y="-59.5" font-family="Helvetica,sans-Serif" font-size="10.00"># m_pass</text>
<text text-anchor="start" x="217.5" y="-48.5" font-family="Helvetica,sans-Serif" font-size="10.00"># m_tframe</text>
<polyline fill="none" stroke="black" points="209.5,-41.5 413.5,-41.5 "/>
<text text-anchor="start" x="217.5" y="-29.5" font-family="Helvetica,sans-Serif" font-size="10.00">+ init()</text>
<text text-anchor="start" x="217.5" y="-18.5" font-family="Helvetica,sans-Serif" font-size="10.00">+ addNeighbor()</text>
<text text-anchor="start" x="217.5" y="-7.5" font-family="Helvetica,sans-Serif" font-size="10.00">+ finalize()</text>
</a>
</g>
</g>
<!-- Node1&#45;&gt;Node4 -->
<g id="edge3" class="edge">
<title>Node1&#45;&gt;Node4</title>
<path fill="none" stroke="midnightblue" d="M258.46,-162.3C263.75,-152.95 269.03,-143.61 274.09,-134.66"/>
<polygon fill="none" stroke="midnightblue" points="255.27,-160.84 253.39,-171.27 261.36,-164.29 255.27,-160.84"/>
</g>
<!-- Node2 -->
<g id="node2" class="node">
<title>Node2</title>
<g id="a_node2"><a xlink:title=" ">
<polygon fill="white" stroke="#bfbfbf" points="189,-386.5 189,-443.5 218,-443.5 218,-386.5 189,-386.5"/>
<text text-anchor="middle" x="203.5" y="-431.5" font-family="Helvetica,sans-Serif" font-size="10.00">T</text>
<polyline fill="none" stroke="#bfbfbf" points="189,-424.5 218,-424.5 "/>
<text text-anchor="middle" x="203.5" y="-412.5" font-family="Helvetica,sans-Serif" font-size="10.00"> </text>
<polyline fill="none" stroke="#bfbfbf" points="189,-405.5 218,-405.5 "/>
<text text-anchor="middle" x="203.5" y="-393.5" font-family="Helvetica,sans-Serif" font-size="10.00"> </text>
</a>
</g>
</g>
<!-- Node2&#45;&gt;Node1 -->
<g id="edge1" class="edge">
<title>Node2&#45;&gt;Node1</title>
<path fill="none" stroke="midnightblue" d="M203.5,-376.37C203.5,-368.09 203.5,-358.98 203.5,-349.62"/>
<polygon fill="none" stroke="midnightblue" points="200,-376.38 203.5,-386.38 207,-376.38 200,-376.38"/>
</g>
</g>
</svg>
