<?xml version="1.0" encoding="UTF-8" standalone="no"?>
<!DOCTYPE svg PUBLIC "-//W3C//DTD SVG 1.1//EN"
 "http://www.w3.org/Graphics/SVG/1.1/DTD/svg11.dtd">
<!-- Generated by graphviz version 2.43.0 (0)
 -->
<!-- Title: Ponca::KdTreeKNearestIndexQuery&lt; Traits &gt; Pages: 1 -->
<svg width="732pt" height="1025pt"
 viewBox="0.00 0.00 732.00 1025.00" xmlns="http://www.w3.org/2000/svg" xmlns:xlink="http://www.w3.org/1999/xlink">
<g id="graph0" class="graph" transform="scale(1 1) rotate(0) translate(4 1021)">
<title>Ponca::KdTreeKNearestIndexQuery&lt; Traits &gt;</title>
<!-- Node1 -->
<g id="node1" class="node">
<title>Node1</title>
<g id="a_node1"><a xlink:title=" ">
<polygon fill="#999999" stroke="#666666" points="0,-0.5 0,-101.5 170,-101.5 170,-0.5 0,-0.5"/>
<text text-anchor="start" x="8" y="-89.5" font-family="Helvetica,sans-Serif" font-size="10.00">Ponca::KdTreeKNearestIndex</text>
<text text-anchor="middle" x="85" y="-78.5" font-family="Helvetica,sans-Serif" font-size="10.00">Query&lt; Traits &gt;</text>
<polyline fill="none" stroke="#666666" points="0,-71.5 170,-71.5 "/>
<text text-anchor="middle" x="85" y="-59.5" font-family="Helvetica,sans-Serif" font-size="10.00"> </text>
<polyline fill="none" stroke="#666666" points="0,-52.5 170,-52.5 "/>
<text text-anchor="start" x="8" y="-40.5" font-family="Helvetica,sans-Serif" font-size="10.00">+ KdTreeKNearestIndexQuery()</text>
<text text-anchor="start" x="8" y="-29.5" font-family="Helvetica,sans-Serif" font-size="10.00">+ begin()</text>
<text text-anchor="start" x="8" y="-18.5" font-family="Helvetica,sans-Serif" font-size="10.00">+ end()</text>
<text text-anchor="start" x="8" y="-7.5" font-family="Helvetica,sans-Serif" font-size="10.00"># search()</text>
</a>
</g>
</g>
<!-- Node2 -->
<g id="node2" class="node">
<title>Node2</title>
<g id="a_node2"><a xlink:href="classPonca_1_1KdTreeQuery.html" target="_top" xlink:title=" ">
<polygon fill="white" stroke="#bfbfbf" points="16,-139.5 16,-229.5 130,-229.5 130,-139.5 16,-139.5"/>
<text text-anchor="start" x="24" y="-217.5" font-family="Helvetica,sans-Serif" font-size="10.00">Ponca::KdTreeQuery</text>
<text text-anchor="middle" x="73" y="-206.5" font-family="Helvetica,sans-Serif" font-size="10.00">&lt; Traits &gt;</text>
<polyline fill="none" stroke="#bfbfbf" points="16,-199.5 130,-199.5 "/>
<text text-anchor="start" x="24" y="-187.5" font-family="Helvetica,sans-Serif" font-size="10.00"># m_kdtree</text>
<text text-anchor="start" x="24" y="-176.5" font-family="Helvetica,sans-Serif" font-size="10.00"># m_stack</text>
<polyline fill="none" stroke="#bfbfbf" points="16,-169.5 130,-169.5 "/>
<text text-anchor="start" x="24" y="-157.5" font-family="Helvetica,sans-Serif" font-size="10.00">+ KdTreeQuery()</text>
<text text-anchor="start" x="24" y="-146.5" font-family="Helvetica,sans-Serif" font-size="10.00"># reset()</text>
</a>
</g>
</g>
<!-- Node2&#45;&gt;Node1 -->
<g id="edge1" class="edge">
<title>Node2&#45;&gt;Node1</title>
<path fill="none" stroke="#63b8ff" d="M77.95,-129.22C78.78,-120.11 79.64,-110.69 80.46,-101.7"/>
<polygon fill="none" stroke="#63b8ff" points="74.45,-129.07 77.03,-139.35 81.42,-129.71 74.45,-129.07"/>
</g>
<!-- Node3 -->
<g id="node3" class="node">
<title>Node3</title>
<g id="a_node3"><a xlink:href="group__spatialpartitioning.html" target="_top" xlink:title=" ">
<polygon fill="white" stroke="#666666" points="148.5,-145 148.5,-224 301.5,-224 301.5,-145 148.5,-145"/>
<text text-anchor="start" x="156.5" y="-212" font-family="Helvetica,sans-Serif" font-size="10.00">Ponca::KNearestIndexQuery</text>
<text text-anchor="start" x="156.5" y="-201" font-family="Helvetica,sans-Serif" font-size="10.00">&lt; Traits::IndexType, Traits</text>
<text text-anchor="middle" x="225" y="-190" font-family="Helvetica,sans-Serif" font-size="10.00">::DataPoint::Scalar &gt;</text>
<polyline fill="none" stroke="#666666" points="148.5,-183 301.5,-183 "/>
<text text-anchor="middle" x="225" y="-171" font-family="Helvetica,sans-Serif" font-size="10.00"> </text>
<polyline fill="none" stroke="#666666" points="148.5,-164 301.5,-164 "/>
<text text-anchor="middle" x="225" y="-152" font-family="Helvetica,sans-Serif" font-size="10.00"> </text>
</a>
</g>
</g>
<!-- Node3&#45;&gt;Node1 -->
<g id="edge2" class="edge">
<title>Node3&#45;&gt;Node1</title>
<path fill="none" stroke="#63b8ff" d="M176.19,-137.66C163.82,-126.04 150.48,-113.5 137.92,-101.7"/>
<polygon fill="none" stroke="#63b8ff" points="174.07,-140.46 183.75,-144.76 178.86,-135.36 174.07,-140.46"/>
</g>
<!-- Node4 -->
<g id="node4" class="node">
<title>Node4</title>
<g id="a_node4"><a xlink:href="group__spatialpartitioning.html#structPonca_1_1Query" target="_top" xlink:title=" ">
<polygon fill="white" stroke="#bfbfbf" points="73.5,-571 73.5,-650 190.5,-650 190.5,-571 73.5,-571"/>
<text text-anchor="start" x="81.5" y="-638" font-family="Helvetica,sans-Serif" font-size="10.00">Ponca::Query&lt; Input</text>
<text text-anchor="middle" x="132" y="-627" font-family="Helvetica,sans-Serif" font-size="10.00">_, Output_ &gt;</text>
<polyline fill="none" stroke="#bfbfbf" points="73.5,-620 190.5,-620 "/>
<text text-anchor="middle" x="132" y="-608" font-family="Helvetica,sans-Serif" font-size="10.00"> </text>
<polyline fill="none" stroke="#bfbfbf" points="73.5,-601 190.5,-601 "/>
<text text-anchor="start" x="81.5" y="-589" font-family="Helvetica,sans-Serif" font-size="10.00">+ Query()</text>
<text text-anchor="start" x="81.5" y="-578" font-family="Helvetica,sans-Serif" font-size="10.00">+ Query()</text>
</a>
</g>
</g>
<!-- Node4&#45;&gt;Node3 -->
<g id="edge3" class="edge">
<title>Node4&#45;&gt;Node3</title>
<path fill="none" stroke="#63b8ff" d="M142.68,-560.82C161.35,-475.67 199.58,-301.4 216.55,-224.01"/>
<polygon fill="none" stroke="#63b8ff" points="139.22,-560.23 140.5,-570.75 146.06,-561.73 139.22,-560.23"/>
</g>
<!-- Node5 -->
<g id="node5" class="node">
<title>Node5</title>
<g id="a_node5"><a xlink:title=" ">
<polygon fill="white" stroke="#bfbfbf" points="204.5,-710 204.5,-767 251.5,-767 251.5,-710 204.5,-710"/>
<text text-anchor="middle" x="228" y="-755" font-family="Helvetica,sans-Serif" font-size="10.00">Input_</text>
<polyline fill="none" stroke="#bfbfbf" points="204.5,-748 251.5,-748 "/>
<text text-anchor="middle" x="228" y="-736" font-family="Helvetica,sans-Serif" font-size="10.00"> </text>
<polyline fill="none" stroke="#bfbfbf" points="204.5,-729 251.5,-729 "/>
<text text-anchor="middle" x="228" y="-717" font-family="Helvetica,sans-Serif" font-size="10.00"> </text>
</a>
</g>
</g>
<!-- Node5&#45;&gt;Node4 -->
<g id="edge4" class="edge">
<title>Node5&#45;&gt;Node4</title>
<path fill="none" stroke="#63b8ff" d="M200.73,-701.71C188.45,-685.59 173.92,-666.52 161.39,-650.08"/>
<polygon fill="none" stroke="#63b8ff" points="198.09,-704.02 206.93,-709.85 203.66,-699.77 198.09,-704.02"/>
</g>
<!-- Node15 -->
<g id="node15" class="node">
<title>Node15</title>
<g id="a_node15"><a xlink:href="group__spatialpartitioning.html#structPonca_1_1Query" target="_top" xlink:title=" ">
<polygon fill="white" stroke="#bfbfbf" points="208.5,-571 208.5,-650 325.5,-650 325.5,-571 208.5,-571"/>
<text text-anchor="start" x="216.5" y="-638" font-family="Helvetica,sans-Serif" font-size="10.00">Ponca::Query&lt; Input</text>
<text text-anchor="middle" x="267" y="-627" font-family="Helvetica,sans-Serif" font-size="10.00">_, Output_ &gt;</text>
<polyline fill="none" stroke="#bfbfbf" points="208.5,-620 325.5,-620 "/>
<text text-anchor="middle" x="267" y="-608" font-family="Helvetica,sans-Serif" font-size="10.00"> </text>
<polyline fill="none" stroke="#bfbfbf" points="208.5,-601 325.5,-601 "/>
<text text-anchor="start" x="216.5" y="-589" font-family="Helvetica,sans-Serif" font-size="10.00">+ Query()</text>
<text text-anchor="start" x="216.5" y="-578" font-family="Helvetica,sans-Serif" font-size="10.00">+ Query()</text>
</a>
</g>
</g>
<!-- Node5&#45;&gt;Node15 -->
<g id="edge16" class="edge">
<title>Node5&#45;&gt;Node15</title>
<path fill="none" stroke="#63b8ff" d="M239.63,-699.93C244.5,-684.19 250.16,-665.92 255.06,-650.08"/>
<polygon fill="none" stroke="#63b8ff" points="236.17,-699.26 236.56,-709.85 242.86,-701.33 236.17,-699.26"/>
</g>
<!-- Node6 -->
<g id="node6" class="node">
<title>Node6</title>
<g id="a_node6"><a xlink:title=" ">
<polygon fill="white" stroke="#bfbfbf" points="126.5,-710 126.5,-767 181.5,-767 181.5,-710 126.5,-710"/>
<text text-anchor="middle" x="154" y="-755" font-family="Helvetica,sans-Serif" font-size="10.00">Output_</text>
<polyline fill="none" stroke="#bfbfbf" points="126.5,-748 181.5,-748 "/>
<text text-anchor="middle" x="154" y="-736" font-family="Helvetica,sans-Serif" font-size="10.00"> </text>
<polyline fill="none" stroke="#bfbfbf" points="126.5,-729 181.5,-729 "/>
<text text-anchor="middle" x="154" y="-717" font-family="Helvetica,sans-Serif" font-size="10.00"> </text>
</a>
</g>
</g>
<!-- Node6&#45;&gt;Node4 -->
<g id="edge5" class="edge">
<title>Node6&#45;&gt;Node4</title>
<path fill="none" stroke="#63b8ff" d="M147.44,-699.93C144.69,-684.19 141.5,-665.92 138.74,-650.08"/>
<polygon fill="none" stroke="#63b8ff" points="144,-700.6 149.17,-709.85 150.9,-699.4 144,-700.6"/>
</g>
<!-- Node6&#45;&gt;Node15 -->
<g id="edge17" class="edge">
<title>Node6&#45;&gt;Node15</title>
<path fill="none" stroke="#63b8ff" d="M185.7,-702.16C200.24,-685.94 217.52,-666.67 232.4,-650.08"/>
<polygon fill="none" stroke="#63b8ff" points="182.87,-700.07 178.8,-709.85 188.08,-704.74 182.87,-700.07"/>
</g>
<!-- Node7 -->
<g id="node7" class="node">
<title>Node7</title>
<g id="a_node7"><a xlink:href="group__spatialpartitioning.html#structPonca_1_1KNearestIndexQuery" target="_top" xlink:title="Base Query class combining QueryInputIsIndex and QueryOutputIsKNearest.">
<polygon fill="white" stroke="#666666" points="222.5,-299.5 222.5,-367.5 375.5,-367.5 375.5,-299.5 222.5,-299.5"/>
<text text-anchor="start" x="230.5" y="-355.5" font-family="Helvetica,sans-Serif" font-size="10.00">Ponca::KNearestIndexQuery</text>
<text text-anchor="middle" x="299" y="-344.5" font-family="Helvetica,sans-Serif" font-size="10.00">&lt; Index, Scalar &gt;</text>
<polyline fill="none" stroke="#666666" points="222.5,-337.5 375.5,-337.5 "/>
<text text-anchor="middle" x="299" y="-325.5" font-family="Helvetica,sans-Serif" font-size="10.00"> </text>
<polyline fill="none" stroke="#666666" points="222.5,-318.5 375.5,-318.5 "/>
<text text-anchor="middle" x="299" y="-306.5" font-family="Helvetica,sans-Serif" font-size="10.00"> </text>
</a>
</g>
</g>
<!-- Node7&#45;&gt;Node3 -->
<g id="edge6" class="edge">
<title>Node7&#45;&gt;Node3</title>
<path fill="none" stroke="orange" d="M277.71,-290.2C267.23,-269.39 254.69,-244.48 244.47,-224.18"/>
<polygon fill="orange" stroke="orange" points="274.59,-291.79 282.21,-299.14 280.84,-288.64 274.59,-291.79"/>
<text text-anchor="start" x="272" y="-273" font-family="Helvetica,sans-Serif" font-size="10.00"> &lt; Traits::IndexType,</text>
<text text-anchor="start" x="272" y="-262" font-family="Helvetica,sans-Serif" font-size="10.00"> Traits::DataPoint::</text>
<text text-anchor="middle" x="322" y="-251" font-family="Helvetica,sans-Serif" font-size="10.00">Scalar &gt;</text>
</g>
<!-- Node8 -->
<g id="node8" class="node">
<title>Node8</title>
<g id="a_node8"><a xlink:href="group__spatialpartitioning.html" target="_top" xlink:title=" ">
<polygon fill="white" stroke="#bfbfbf" points="271,-405.5 271,-495.5 441,-495.5 441,-405.5 271,-405.5"/>
<text text-anchor="start" x="279" y="-483.5" font-family="Helvetica,sans-Serif" font-size="10.00">Ponca::Query&lt; QueryInput</text>
<text text-anchor="start" x="279" y="-472.5" font-family="Helvetica,sans-Serif" font-size="10.00">IsIndex&lt; Index &gt;, QueryOutput</text>
<text text-anchor="middle" x="356" y="-461.5" font-family="Helvetica,sans-Serif" font-size="10.00">IsKNearest&lt; Index, Scalar &gt; &gt;</text>
<polyline fill="none" stroke="#bfbfbf" points="271,-454.5 441,-454.5 "/>
<text text-anchor="middle" x="356" y="-442.5" font-family="Helvetica,sans-Serif" font-size="10.00"> </text>
<polyline fill="none" stroke="#bfbfbf" points="271,-435.5 441,-435.5 "/>
<text text-anchor="start" x="279" y="-423.5" font-family="Helvetica,sans-Serif" font-size="10.00">+ Query()</text>
<text text-anchor="start" x="279" y="-412.5" font-family="Helvetica,sans-Serif" font-size="10.00">+ Query()</text>
</a>
</g>
</g>
<!-- Node8&#45;&gt;Node7 -->
<g id="edge7" class="edge">
<title>Node8&#45;&gt;Node7</title>
<path fill="none" stroke="#63b8ff" d="M329.55,-396.13C324.73,-386.41 319.84,-376.54 315.42,-367.62"/>
<polygon fill="none" stroke="#63b8ff" points="326.55,-397.96 334.13,-405.37 332.82,-394.85 326.55,-397.96"/>
</g>
<!-- Node9 -->
<g id="node9" class="node">
<title>Node9</title>
<g id="a_node9"><a xlink:href="group__spatialpartitioning.html#structPonca_1_1QueryInputIsIndex" target="_top" xlink:title="Base class for queries storing points.">
<polygon fill="white" stroke="#666666" points="541.5,-576.5 541.5,-644.5 682.5,-644.5 682.5,-576.5 541.5,-576.5"/>
<text text-anchor="start" x="549.5" y="-632.5" font-family="Helvetica,sans-Serif" font-size="10.00">Ponca::QueryInputIsIndex</text>
<text text-anchor="middle" x="612" y="-621.5" font-family="Helvetica,sans-Serif" font-size="10.00">&lt; Index &gt;</text>
<polyline fill="none" stroke="#666666" points="541.5,-614.5 682.5,-614.5 "/>
<text text-anchor="middle" x="612" y="-602.5" font-family="Helvetica,sans-Serif" font-size="10.00"> </text>
<polyline fill="none" stroke="#666666" points="541.5,-595.5 682.5,-595.5 "/>
<text text-anchor="start" x="549.5" y="-583.5" font-family="Helvetica,sans-Serif" font-size="10.00">+ QueryInputIsIndex()</text>
</a>
</g>
</g>
<!-- Node9&#45;&gt;Node8 -->
<g id="edge8" class="edge">
<title>Node9&#45;&gt;Node8</title>
<path fill="none" stroke="#63b8ff" d="M549.67,-571.03C512.8,-548.27 465.95,-519.36 427.57,-495.67"/>
<polygon fill="none" stroke="#63b8ff" points="547.99,-574.1 558.33,-576.38 551.66,-568.15 547.99,-574.1"/>
</g>
<!-- Node10 -->
<g id="node10" class="node">
<title>Node10</title>
<g id="a_node10"><a xlink:href="group__spatialpartitioning.html" target="_top" xlink:title=" ">
<polygon fill="white" stroke="#666666" points="555,-693.5 555,-783.5 669,-783.5 669,-693.5 555,-693.5"/>
<text text-anchor="start" x="563" y="-771.5" font-family="Helvetica,sans-Serif" font-size="10.00">Ponca::QueryInput&lt;</text>
<text text-anchor="middle" x="612" y="-760.5" font-family="Helvetica,sans-Serif" font-size="10.00"> Index &gt;</text>
<polyline fill="none" stroke="#666666" points="555,-753.5 669,-753.5 "/>
<text text-anchor="middle" x="612" y="-741.5" font-family="Helvetica,sans-Serif" font-size="10.00"> </text>
<polyline fill="none" stroke="#666666" points="555,-734.5 669,-734.5 "/>
<text text-anchor="start" x="563" y="-722.5" font-family="Helvetica,sans-Serif" font-size="10.00">+ QueryInput()</text>
<text text-anchor="start" x="563" y="-711.5" font-family="Helvetica,sans-Serif" font-size="10.00">+ input()</text>
<text text-anchor="start" x="563" y="-700.5" font-family="Helvetica,sans-Serif" font-size="10.00"># editInput()</text>
</a>
</g>
</g>
<!-- Node10&#45;&gt;Node9 -->
<g id="edge9" class="edge">
<title>Node10&#45;&gt;Node9</title>
<path fill="none" stroke="#63b8ff" d="M612,-683.09C612,-670 612,-656.4 612,-644.62"/>
<polygon fill="none" stroke="#63b8ff" points="608.5,-683.43 612,-693.43 615.5,-683.43 608.5,-683.43"/>
</g>
<!-- Node11 -->
<g id="node11" class="node">
<title>Node11</title>
<g id="a_node11"><a xlink:href="group__spatialpartitioning.html#structPonca_1_1QueryInputBase" target="_top" xlink:title="Base class for queries input type.">
<polygon fill="white" stroke="#666666" points="529,-959.5 529,-1016.5 659,-1016.5 659,-959.5 529,-959.5"/>
<text text-anchor="middle" x="594" y="-1004.5" font-family="Helvetica,sans-Serif" font-size="10.00">Ponca::QueryInputBase</text>
<polyline fill="none" stroke="#666666" points="529,-997.5 659,-997.5 "/>
<text text-anchor="middle" x="594" y="-985.5" font-family="Helvetica,sans-Serif" font-size="10.00"> </text>
<polyline fill="none" stroke="#666666" points="529,-978.5 659,-978.5 "/>
<text text-anchor="middle" x="594" y="-966.5" font-family="Helvetica,sans-Serif" font-size="10.00"> </text>
</a>
</g>
</g>
<!-- Node11&#45;&gt;Node10 -->
<g id="edge10" class="edge">
<title>Node11&#45;&gt;Node10</title>
<path fill="none" stroke="#63b8ff" d="M594.9,-949.21C595.85,-917.59 597.68,-871.3 601,-831 602.27,-815.53 604.16,-798.65 606.02,-783.65"/>
<polygon fill="none" stroke="#63b8ff" points="591.4,-949.25 594.62,-959.34 598.4,-949.45 591.4,-949.25"/>
</g>
<!-- Node12 -->
<g id="node12" class="node">
<title>Node12</title>
<g id="a_node12"><a xlink:href="group__spatialpartitioning.html#structPonca_1_1QueryInput" target="_top" xlink:title="Base class for typed queries input type.">
<polygon fill="white" stroke="#666666" points="610,-831.5 610,-921.5 724,-921.5 724,-831.5 610,-831.5"/>
<text text-anchor="start" x="618" y="-909.5" font-family="Helvetica,sans-Serif" font-size="10.00">Ponca::QueryInput&lt;</text>
<text text-anchor="middle" x="667" y="-898.5" font-family="Helvetica,sans-Serif" font-size="10.00"> InputType_ &gt;</text>
<polyline fill="none" stroke="#666666" points="610,-891.5 724,-891.5 "/>
<text text-anchor="middle" x="667" y="-879.5" font-family="Helvetica,sans-Serif" font-size="10.00"> </text>
<polyline fill="none" stroke="#666666" points="610,-872.5 724,-872.5 "/>
<text text-anchor="start" x="618" y="-860.5" font-family="Helvetica,sans-Serif" font-size="10.00">+ QueryInput()</text>
<text text-anchor="start" x="618" y="-849.5" font-family="Helvetica,sans-Serif" font-size="10.00">+ input()</text>
<text text-anchor="start" x="618" y="-838.5" font-family="Helvetica,sans-Serif" font-size="10.00"># editInput()</text>
</a>
</g>
</g>
<!-- Node11&#45;&gt;Node12 -->
<g id="edge12" class="edge">
<title>Node11&#45;&gt;Node12</title>
<path fill="none" stroke="#63b8ff" d="M617.97,-951.04C624.22,-941.68 631.01,-931.48 637.51,-921.74"/>
<polygon fill="none" stroke="#63b8ff" points="615.06,-949.11 612.42,-959.37 620.88,-952.99 615.06,-949.11"/>
</g>
<!-- Node12&#45;&gt;Node10 -->
<g id="edge11" class="edge">
<title>Node12&#45;&gt;Node10</title>
<path fill="none" stroke="orange" d="M645.32,-821.89C640.23,-809.3 634.86,-796.03 629.96,-783.9"/>
<polygon fill="orange" stroke="orange" points="642.15,-823.39 649.14,-831.34 648.64,-820.76 642.15,-823.39"/>
<text text-anchor="middle" x="667.5" y="-805" font-family="Helvetica,sans-Serif" font-size="10.00"> &lt; Index &gt;</text>
</g>
<!-- Node13 -->
<g id="node13" class="node">
<title>Node13</title>
<g id="a_node13"><a xlink:href="group__spatialpartitioning.html#structPonca_1_1QueryOutputIsKNearest" target="_top" xlink:title="Base class for knearest queries.">
<polygon fill="white" stroke="#666666" points="356.5,-565.5 356.5,-655.5 523.5,-655.5 523.5,-565.5 356.5,-565.5"/>
<text text-anchor="start" x="364.5" y="-643.5" font-family="Helvetica,sans-Serif" font-size="10.00">Ponca::QueryOutputIsKNearest</text>
<text text-anchor="middle" x="440" y="-632.5" font-family="Helvetica,sans-Serif" font-size="10.00">&lt; Index, Scalar &gt;</text>
<polyline fill="none" stroke="#666666" points="356.5,-625.5 523.5,-625.5 "/>
<text text-anchor="start" x="364.5" y="-613.5" font-family="Helvetica,sans-Serif" font-size="10.00"># m_queue</text>
<polyline fill="none" stroke="#666666" points="356.5,-606.5 523.5,-606.5 "/>
<text text-anchor="start" x="364.5" y="-594.5" font-family="Helvetica,sans-Serif" font-size="10.00">+ QueryOutputIsKNearest()</text>
<text text-anchor="start" x="364.5" y="-583.5" font-family="Helvetica,sans-Serif" font-size="10.00">+ queue()</text>
<text text-anchor="start" x="364.5" y="-572.5" font-family="Helvetica,sans-Serif" font-size="10.00"># reset()</text>
</a>
</g>
</g>
<!-- Node13&#45;&gt;Node8 -->
<g id="edge13" class="edge">
<title>Node13&#45;&gt;Node8</title>
<path fill="none" stroke="#63b8ff" d="M443.54,-555.11C442.47,-541.09 439.5,-526.45 433,-514 429.57,-507.44 425.13,-501.32 420.1,-495.67"/>
<polygon fill="none" stroke="#63b8ff" points="440.04,-555.34 444,-565.17 447.04,-555.02 440.04,-555.34"/>
</g>
<!-- Node14 -->
<g id="node14" class="node">
<title>Node14</title>
<g id="a_node14"><a xlink:href="group__spatialpartitioning.html#structPonca_1_1QueryOutputBase" target="_top" xlink:title="Base class for queries output type.">
<polygon fill="white" stroke="#666666" points="371,-710 371,-767 509,-767 509,-710 371,-710"/>
<text text-anchor="middle" x="440" y="-755" font-family="Helvetica,sans-Serif" font-size="10.00">Ponca::QueryOutputBase</text>
<polyline fill="none" stroke="#666666" points="371,-748 509,-748 "/>
<text text-anchor="middle" x="440" y="-736" font-family="Helvetica,sans-Serif" font-size="10.00"> </text>
<polyline fill="none" stroke="#666666" points="371,-729 509,-729 "/>
<text text-anchor="middle" x="440" y="-717" font-family="Helvetica,sans-Serif" font-size="10.00"> </text>
</a>
</g>
</g>
<!-- Node14&#45;&gt;Node13 -->
<g id="edge14" class="edge">
<title>Node14&#45;&gt;Node13</title>
<path fill="none" stroke="#63b8ff" d="M440,-699.74C440,-685.95 440,-670.23 440,-655.92"/>
<polygon fill="none" stroke="#63b8ff" points="436.5,-699.85 440,-709.85 443.5,-699.85 436.5,-699.85"/>
</g>
<!-- Node15&#45;&gt;Node8 -->
<g id="edge15" class="edge">
<title>Node15&#45;&gt;Node8</title>
<path fill="none" stroke="orange" d="M251.11,-560.63C248.75,-544.94 249.28,-528.01 257,-514 260.73,-507.24 265.53,-501.1 271.01,-495.56"/>
<polygon fill="orange" stroke="orange" points="247.72,-561.55 253.03,-570.72 254.6,-560.24 247.72,-561.55"/>
<text text-anchor="start" x="257" y="-539" font-family="Helvetica,sans-Serif" font-size="10.00"> &lt; QueryInputIsIndex</text>
<text text-anchor="start" x="257" y="-528" font-family="Helvetica,sans-Serif" font-size="10.00">&lt; Index &gt;, QueryOutputIsKNearest</text>
<text text-anchor="middle" x="343" y="-517" font-family="Helvetica,sans-Serif" font-size="10.00">&lt; Index, Scalar &gt; &gt;</text>
</g>
</g>
</svg>
