<?xml version="1.0" encoding="UTF-8" standalone="no"?>
<!DOCTYPE svg PUBLIC "-//W3C//DTD SVG 1.1//EN"
 "http://www.w3.org/Graphics/SVG/1.1/DTD/svg11.dtd">
<!-- Generated by graphviz version 2.43.0 (0)
 -->
<!-- Title: Graphical Class Hierarchy Pages: 1 -->
<svg width="389pt" height="278pt"
 viewBox="0.00 0.00 389.00 278.00" xmlns="http://www.w3.org/2000/svg" xmlns:xlink="http://www.w3.org/1999/xlink">
<g id="graph0" class="graph" transform="scale(1 1) rotate(0) translate(4 274)">
<title>Graphical Class Hierarchy</title>
<!-- Node0 -->
<g id="Node000000" class="node">
<title>Node0</title>
<g id="a_Node000000"><a xlink:title=" ">
<polygon fill="#e0e0e0" stroke="#999999" points="167,-144.5 0,-144.5 0,-125.5 167,-125.5 167,-144.5"/>
<text text-anchor="middle" x="83.5" y="-132.5" font-family="Helvetica,sans-Serif" font-size="10.00">Concept::WeightKernelConcept</text>
</a>
</g>
</g>
<!-- Node1 -->
<g id="Node000001" class="node">
<title>Node1</title>
<g id="a_Node000001"><a xlink:href="classPonca_1_1CompactExpWeightKernel.html" target="_top" xlink:title="Compact Exponential WeightKernel defined in .">
<polygon fill="white" stroke="#666666" points="381,-270 203,-270 203,-240 381,-240 381,-270"/>
<text text-anchor="start" x="211" y="-258" font-family="Helvetica,sans-Serif" font-size="10.00">Ponca::CompactExpWeightKernel</text>
<text text-anchor="middle" x="292" y="-247" font-family="Helvetica,sans-Serif" font-size="10.00">&lt; _Scalar &gt;</text>
</a>
</g>
</g>
<!-- Node0&#45;&gt;Node1 -->
<g id="edge47_Node000000_Node000001" class="edge">
<title>Node0&#45;&gt;Node1</title>
<g id="a_edge47_Node000000_Node000001"><a xlink:title=" ">
<path fill="none" stroke="#63b8ff" d="M100.69,-151.89C122.14,-173.33 162.08,-210.03 203,-231 209.62,-234.39 216.78,-237.35 224.05,-239.92"/>
<polygon fill="#63b8ff" stroke="#63b8ff" points="103.16,-149.42 93.65,-144.74 98.17,-154.33 103.16,-149.42"/>
</a>
</g>
</g>
<!-- Node2 -->
<g id="Node000002" class="node">
<title>Node2</title>
<g id="a_Node000002"><a xlink:href="classPonca_1_1ConstantWeightKernel.html" target="_top" xlink:title="Concept::WeightKernelConcept returning a constant value.">
<polygon fill="white" stroke="#666666" points="372,-222 212,-222 212,-192 372,-192 372,-222"/>
<text text-anchor="start" x="220" y="-210" font-family="Helvetica,sans-Serif" font-size="10.00">Ponca::ConstantWeightKernel</text>
<text text-anchor="middle" x="292" y="-199" font-family="Helvetica,sans-Serif" font-size="10.00">&lt; _Scalar &gt;</text>
</a>
</g>
</g>
<!-- Node0&#45;&gt;Node2 -->
<g id="edge48_Node000000_Node000002" class="edge">
<title>Node0&#45;&gt;Node2</title>
<g id="a_edge48_Node000000_Node000002"><a xlink:title=" ">
<path fill="none" stroke="#63b8ff" d="M115.24,-148.62C138.94,-158.84 172.69,-172.77 203,-183 212.3,-186.14 222.26,-189.17 232.01,-191.95"/>
<polygon fill="#63b8ff" stroke="#63b8ff" points="116.62,-145.41 106.05,-144.63 113.83,-151.83 116.62,-145.41"/>
</a>
</g>
</g>
<!-- Node3 -->
<g id="Node000003" class="node">
<title>Node3</title>
<g id="a_Node000003"><a xlink:href="classPonca_1_1PolynomialSmoothWeightKernel.html" target="_top" xlink:title="Generalised version of SmoothWeightKernel with arbitrary degrees : .">
<polygon fill="white" stroke="#666666" points="381,-174 203,-174 203,-144 381,-144 381,-174"/>
<text text-anchor="start" x="211" y="-162" font-family="Helvetica,sans-Serif" font-size="10.00">Ponca::PolynomialSmoothWeight</text>
<text text-anchor="middle" x="292" y="-151" font-family="Helvetica,sans-Serif" font-size="10.00">Kernel&lt; _Scalar, m, n &gt;</text>
</a>
</g>
</g>
<!-- Node0&#45;&gt;Node3 -->
<g id="edge49_Node000000_Node000003" class="edge">
<title>Node0&#45;&gt;Node3</title>
<g id="a_edge49_Node000000_Node000003"><a xlink:title=" ">
<path fill="none" stroke="#63b8ff" d="M176.56,-145.7C185.26,-146.71 194.07,-147.73 202.74,-148.74"/>
<polygon fill="#63b8ff" stroke="#63b8ff" points="176.75,-142.2 166.41,-144.52 175.94,-149.15 176.75,-142.2"/>
</a>
</g>
</g>
<!-- Node4 -->
<g id="Node000004" class="node">
<title>Node4</title>
<g id="a_Node000004"><a xlink:href="classPonca_1_1SingularWeightKernel.html" target="_top" xlink:title="Singular WeightKernel defined in .">
<polygon fill="white" stroke="#666666" points="370,-126 214,-126 214,-96 370,-96 370,-126"/>
<text text-anchor="start" x="222" y="-114" font-family="Helvetica,sans-Serif" font-size="10.00">Ponca::SingularWeightKernel</text>
<text text-anchor="middle" x="292" y="-103" font-family="Helvetica,sans-Serif" font-size="10.00">&lt; _Scalar &gt;</text>
</a>
</g>
</g>
<!-- Node0&#45;&gt;Node4 -->
<g id="edge50_Node000000_Node000004" class="edge">
<title>Node0&#45;&gt;Node4</title>
<g id="a_edge50_Node000000_Node000004"><a xlink:title=" ">
<path fill="none" stroke="#63b8ff" d="M176.39,-124.32C188.92,-122.86 201.67,-121.38 213.89,-119.96"/>
<polygon fill="#63b8ff" stroke="#63b8ff" points="175.94,-120.85 166.41,-125.48 176.75,-127.8 175.94,-120.85"/>
</a>
</g>
</g>
<!-- Node5 -->
<g id="Node000005" class="node">
<title>Node5</title>
<g id="a_Node000005"><a xlink:href="classPonca_1_1SmoothWeightKernel.html" target="_top" xlink:title="Smooth WeightKernel of 2nd degree, defined in &#160;Special case of PolynomialSmoothWeightKernel&lt;Scalar,...">
<polygon fill="white" stroke="#666666" points="369,-78 215,-78 215,-48 369,-48 369,-78"/>
<text text-anchor="start" x="223" y="-66" font-family="Helvetica,sans-Serif" font-size="10.00">Ponca::SmoothWeightKernel</text>
<text text-anchor="middle" x="292" y="-55" font-family="Helvetica,sans-Serif" font-size="10.00">&lt; _Scalar &gt;</text>
</a>
</g>
</g>
<!-- Node0&#45;&gt;Node5 -->
<g id="edge51_Node000000_Node000005" class="edge">
<title>Node0&#45;&gt;Node5</title>
<g id="a_edge51_Node000000_Node000005"><a xlink:title=" ">
<path fill="none" stroke="#63b8ff" d="M115.24,-121.38C138.94,-111.16 172.69,-97.23 203,-87 212.3,-83.86 222.26,-80.83 232.01,-78.05"/>
<polygon fill="#63b8ff" stroke="#63b8ff" points="113.83,-118.17 106.05,-125.37 116.62,-124.59 113.83,-118.17"/>
</a>
</g>
</g>
<!-- Node6 -->
<g id="Node000006" class="node">
<title>Node6</title>
<g id="a_Node000006"><a xlink:href="classPonca_1_1WendlandWeightKernel.html" target="_top" xlink:title="Wendland WeightKernel defined in .">
<polygon fill="white" stroke="#666666" points="374,-30 210,-30 210,0 374,0 374,-30"/>
<text text-anchor="start" x="218" y="-18" font-family="Helvetica,sans-Serif" font-size="10.00">Ponca::WendlandWeightKernel</text>
<text text-anchor="middle" x="292" y="-7" font-family="Helvetica,sans-Serif" font-size="10.00">&lt; _Scalar &gt;</text>
</a>
</g>
</g>
<!-- Node0&#45;&gt;Node6 -->
<g id="edge52_Node000000_Node000006" class="edge">
<title>Node0&#45;&gt;Node6</title>
<g id="a_edge52_Node000000_Node000006"><a xlink:title=" ">
<path fill="none" stroke="#63b8ff" d="M100.69,-118.11C122.14,-96.67 162.08,-59.97 203,-39 209.62,-35.61 216.78,-32.65 224.05,-30.08"/>
<polygon fill="#63b8ff" stroke="#63b8ff" points="98.17,-115.67 93.65,-125.26 103.16,-120.58 98.17,-115.67"/>
</a>
</g>
</g>
</g>
</svg>
