<?xml version="1.0" encoding="UTF-8" standalone="no"?>
<!DOCTYPE svg PUBLIC "-//W3C//DTD SVG 1.1//EN"
 "http://www.w3.org/Graphics/SVG/1.1/DTD/svg11.dtd">
<!-- Generated by graphviz version 2.43.0 (0)
 -->
<!-- Title: Graphical Class Hierarchy Pages: 1 -->
<svg width="580pt" height="333pt"
 viewBox="0.00 0.00 580.00 333.00" xmlns="http://www.w3.org/2000/svg" xmlns:xlink="http://www.w3.org/1999/xlink">
<g id="graph0" class="graph" transform="scale(1 1) rotate(0) translate(4 329)">
<title>Graphical Class Hierarchy</title>
<polygon fill="white" stroke="transparent" points="-4,4 -4,-329 576,-329 576,4 -4,4"/>
<!-- Node107 -->
<g id="node1" class="node">
<title>Node107</title>
<g id="a_node1"><a xlink:href="classPonca_1_1Concept_1_1FittingProcedureConcept.html" target="_top" xlink:title="Describes the procedure to fit a primitive to point samples.">
<polygon fill="white" stroke="black" points="180,-196.5 180,-226.5 376,-226.5 376,-196.5 180,-196.5"/>
<text text-anchor="start" x="188" y="-214.5" font-family="Helvetica,sans-Serif" font-size="10.00">Ponca::Concept::FittingProcedure</text>
<text text-anchor="middle" x="278" y="-203.5" font-family="Helvetica,sans-Serif" font-size="10.00">Concept&lt; DataPoint, _WFunctor, T &gt;</text>
</a>
</g>
</g>
<!-- Node6 -->
<g id="node2" class="node">
<title>Node6</title>
<g id="a_node2"><a xlink:href="classPonca_1_1CovariancePlaneFit.html" target="_top" xlink:title="Plane fitting procedure using only points position.">
<polygon fill="white" stroke="black" points="414,-269.5 414,-299.5 570,-299.5 570,-269.5 414,-269.5"/>
<text text-anchor="start" x="422" y="-287.5" font-family="Helvetica,sans-Serif" font-size="10.00">Ponca::CovariancePlaneFit</text>
<text text-anchor="middle" x="492" y="-276.5" font-family="Helvetica,sans-Serif" font-size="10.00">&lt; DataPoint, _WFunctor, T &gt;</text>
</a>
</g>
</g>
<!-- Node107&#45;&gt;Node6 -->
<g id="edge1" class="edge">
<title>Node107&#45;&gt;Node6</title>
<path fill="none" stroke="midnightblue" d="M359,-229.8C364.83,-231.84 370.56,-234.07 376,-236.5 393.56,-244.34 394.61,-252.28 412,-260.5 419,-263.81 426.56,-266.79 434.13,-269.43"/>
<polygon fill="midnightblue" stroke="midnightblue" points="359.71,-226.35 349.12,-226.56 357.52,-233 359.71,-226.35"/>
</g>
<!-- Node9 -->
<g id="node3" class="node">
<title>Node9</title>
<g id="a_node3"><a xlink:href="classPonca_1_1LeastSquareLine.html" target="_top" xlink:title="Line fitting procedure that minimize the orthogonal distance between the samples and the fitted primi...">
<polygon fill="white" stroke="black" points="414,-24.5 414,-54.5 570,-54.5 570,-24.5 414,-24.5"/>
<text text-anchor="start" x="422" y="-42.5" font-family="Helvetica,sans-Serif" font-size="10.00">Ponca::LeastSquareLine</text>
<text text-anchor="middle" x="492" y="-31.5" font-family="Helvetica,sans-Serif" font-size="10.00">&lt; DataPoint, _WFunctor, T &gt;</text>
</a>
</g>
</g>
<!-- Node107&#45;&gt;Node9 -->
<g id="edge2" class="edge">
<title>Node107&#45;&gt;Node9</title>
<path fill="none" stroke="midnightblue" d="M372.6,-190.53C373.77,-189.56 374.91,-188.55 376,-187.5 417.38,-147.74 371.67,-104.33 412,-63.5 415.42,-60.03 419.33,-57.06 423.54,-54.52"/>
<polygon fill="midnightblue" stroke="midnightblue" points="370.58,-187.67 364.44,-196.31 374.62,-193.39 370.58,-187.67"/>
</g>
<!-- Node7 -->
<g id="node4" class="node">
<title>Node7</title>
<g id="a_node4"><a xlink:href="classPonca_1_1MeanPlaneFit.html" target="_top" xlink:title="Plane fitting procedure computing the mean position and orientation from oriented points.">
<polygon fill="white" stroke="black" points="414,-220.5 414,-250.5 570,-250.5 570,-220.5 414,-220.5"/>
<text text-anchor="start" x="422" y="-238.5" font-family="Helvetica,sans-Serif" font-size="10.00">Ponca::MeanPlaneFit</text>
<text text-anchor="middle" x="492" y="-227.5" font-family="Helvetica,sans-Serif" font-size="10.00">&lt; DataPoint, _WFunctor, T &gt;</text>
</a>
</g>
</g>
<!-- Node107&#45;&gt;Node7 -->
<g id="edge3" class="edge">
<title>Node107&#45;&gt;Node7</title>
<path fill="none" stroke="midnightblue" d="M386.1,-223.63C395.42,-224.68 404.73,-225.73 413.73,-226.75"/>
<polygon fill="midnightblue" stroke="midnightblue" points="386.33,-220.13 376,-222.48 385.55,-227.08 386.33,-220.13"/>
</g>
<!-- Node2 -->
<g id="node5" class="node">
<title>Node2</title>
<g id="a_node5"><a xlink:href="classPonca_1_1OrientedSphereFit.html" target="_top" xlink:title="Algebraic Sphere fitting procedure on oriented point sets.">
<polygon fill="white" stroke="black" points="414,-171.5 414,-201.5 570,-201.5 570,-171.5 414,-171.5"/>
<text text-anchor="start" x="422" y="-189.5" font-family="Helvetica,sans-Serif" font-size="10.00">Ponca::OrientedSphereFit</text>
<text text-anchor="middle" x="492" y="-178.5" font-family="Helvetica,sans-Serif" font-size="10.00">&lt; DataPoint, _WFunctor, T &gt;</text>
</a>
</g>
</g>
<!-- Node107&#45;&gt;Node2 -->
<g id="edge4" class="edge">
<title>Node107&#45;&gt;Node2</title>
<path fill="none" stroke="midnightblue" d="M386.1,-198.87C395.42,-197.77 404.73,-196.67 413.73,-195.61"/>
<polygon fill="midnightblue" stroke="midnightblue" points="385.53,-195.41 376,-200.06 386.34,-202.37 385.53,-195.41"/>
</g>
<!-- Node3 -->
<g id="node6" class="node">
<title>Node3</title>
<g id="a_node6"><a xlink:href="classPonca_1_1SphereFit.html" target="_top" xlink:title="Algebraic Sphere fitting procedure on point sets without normals.">
<polygon fill="white" stroke="black" points="412,-122.5 412,-152.5 572,-152.5 572,-122.5 412,-122.5"/>
<text text-anchor="start" x="420" y="-140.5" font-family="Helvetica,sans-Serif" font-size="10.00">Ponca::SphereFit&lt; DataPoint,</text>
<text text-anchor="middle" x="492" y="-129.5" font-family="Helvetica,sans-Serif" font-size="10.00"> _WFunctor, T &gt;</text>
</a>
</g>
</g>
<!-- Node107&#45;&gt;Node3 -->
<g id="edge5" class="edge">
<title>Node107&#45;&gt;Node3</title>
<path fill="none" stroke="midnightblue" d="M361.76,-193.23C366.64,-191.48 371.42,-189.57 376,-187.5 393.75,-179.47 394.52,-171.09 412,-162.5 419.49,-158.82 427.64,-155.52 435.77,-152.63"/>
<polygon fill="midnightblue" stroke="midnightblue" points="360.64,-189.92 352.28,-196.43 362.87,-196.55 360.64,-189.92"/>
</g>
<!-- Node4 -->
<g id="node7" class="node">
<title>Node4</title>
<g id="a_node7"><a xlink:href="classPonca_1_1UnorientedSphereFit.html" target="_top" xlink:title="Algebraic Sphere fitting procedure on point sets with non&#45;oriented normals.">
<polygon fill="white" stroke="black" points="414,-73.5 414,-103.5 570,-103.5 570,-73.5 414,-73.5"/>
<text text-anchor="start" x="422" y="-91.5" font-family="Helvetica,sans-Serif" font-size="10.00">Ponca::UnorientedSphereFit</text>
<text text-anchor="middle" x="492" y="-80.5" font-family="Helvetica,sans-Serif" font-size="10.00">&lt; DataPoint, _WFunctor, T &gt;</text>
</a>
</g>
</g>
<!-- Node107&#45;&gt;Node4 -->
<g id="edge6" class="edge">
<title>Node107&#45;&gt;Node4</title>
<path fill="none" stroke="midnightblue" d="M371.14,-191.12C372.81,-189.98 374.44,-188.77 376,-187.5 404.68,-164.17 383.94,-136.58 412,-112.5 416.03,-109.05 420.54,-106.09 425.31,-103.56"/>
<polygon fill="midnightblue" stroke="midnightblue" points="369.2,-188.2 362.41,-196.34 372.79,-194.22 369.2,-188.2"/>
</g>
<!-- Node104 -->
<g id="node8" class="node">
<title>Node104</title>
<g id="a_node8"><a xlink:title=" ">
<polygon fill="white" stroke="#bfbfbf" points="35.5,-275 35.5,-294 108.5,-294 108.5,-275 35.5,-275"/>
<text text-anchor="middle" x="72" y="-282" font-family="Helvetica,sans-Serif" font-size="10.00">Hyperplane</text>
</a>
</g>
</g>
<!-- Node5 -->
<g id="node9" class="node">
<title>Node5</title>
<g id="a_node9"><a xlink:href="classPonca_1_1CompactPlane.html" target="_top" xlink:title=" ">
<polygon fill="white" stroke="black" points="206,-245.5 206,-275.5 350,-275.5 350,-245.5 206,-245.5"/>
<text text-anchor="start" x="214" y="-263.5" font-family="Helvetica,sans-Serif" font-size="10.00">Ponca::CompactPlane</text>
<text text-anchor="middle" x="278" y="-252.5" font-family="Helvetica,sans-Serif" font-size="10.00">&lt; DataPoint, _WFunctor &gt;</text>
</a>
</g>
</g>
<!-- Node104&#45;&gt;Node5 -->
<g id="edge7" class="edge">
<title>Node104&#45;&gt;Node5</title>
<path fill="none" stroke="midnightblue" d="M118.73,-279.12C144.42,-276.1 177.04,-272.26 205.98,-268.86"/>
<polygon fill="midnightblue" stroke="midnightblue" points="118.06,-275.67 108.53,-280.32 118.87,-282.63 118.06,-275.67"/>
</g>
<!-- Node11 -->
<g id="node10" class="node">
<title>Node11</title>
<g id="a_node10"><a xlink:href="classPonca_1_1CompactPlane.html" target="_top" xlink:title="Implicit hyperplane defined by an homogeneous vector .">
<polygon fill="white" stroke="black" points="200,-294.5 200,-324.5 356,-324.5 356,-294.5 200,-294.5"/>
<text text-anchor="start" x="208" y="-312.5" font-family="Helvetica,sans-Serif" font-size="10.00">Ponca::CompactPlane</text>
<text text-anchor="middle" x="278" y="-301.5" font-family="Helvetica,sans-Serif" font-size="10.00">&lt; DataPoint, _WFunctor, T &gt;</text>
</a>
</g>
</g>
<!-- Node104&#45;&gt;Node11 -->
<g id="edge10" class="edge">
<title>Node104&#45;&gt;Node11</title>
<path fill="none" stroke="midnightblue" d="M118.69,-290.1C142.52,-293.02 172.32,-296.67 199.62,-300.02"/>
<polygon fill="midnightblue" stroke="midnightblue" points="118.89,-286.6 108.53,-288.85 118.03,-293.55 118.89,-286.6"/>
</g>
<!-- Node5&#45;&gt;Node6 -->
<g id="edge8" class="edge">
<title>Node5&#45;&gt;Node6</title>
<path fill="none" stroke="midnightblue" d="M360.39,-269.71C377.94,-271.7 396.44,-273.79 413.82,-275.76"/>
<polygon fill="midnightblue" stroke="midnightblue" points="360.51,-266.21 350.18,-268.56 359.73,-273.16 360.51,-266.21"/>
</g>
<!-- Node5&#45;&gt;Node7 -->
<g id="edge9" class="edge">
<title>Node5&#45;&gt;Node7</title>
<path fill="none" stroke="midnightblue" d="M360.39,-250.9C377.94,-248.83 396.44,-246.65 413.82,-244.6"/>
<polygon fill="midnightblue" stroke="midnightblue" points="359.7,-247.46 350.18,-252.11 360.52,-254.41 359.7,-247.46"/>
</g>
<!-- Node87 -->
<g id="node11" class="node">
<title>Node87</title>
<g id="a_node11"><a xlink:title=" ">
<polygon fill="white" stroke="#bfbfbf" points="21.5,-31 21.5,-50 122.5,-50 122.5,-31 21.5,-31"/>
<text text-anchor="middle" x="72" y="-38" font-family="Helvetica,sans-Serif" font-size="10.00">ParametrizedLine</text>
</a>
</g>
</g>
<!-- Node8 -->
<g id="node12" class="node">
<title>Node8</title>
<g id="a_node12"><a xlink:href="classPonca_1_1Line.html" target="_top" xlink:title=" ">
<polygon fill="white" stroke="black" points="211,-0.5 211,-30.5 345,-30.5 345,-0.5 211,-0.5"/>
<text text-anchor="start" x="219" y="-18.5" font-family="Helvetica,sans-Serif" font-size="10.00">Ponca::Line&lt; DataPoint,</text>
<text text-anchor="middle" x="278" y="-7.5" font-family="Helvetica,sans-Serif" font-size="10.00"> _WFunctor &gt;</text>
</a>
</g>
</g>
<!-- Node87&#45;&gt;Node8 -->
<g id="edge11" class="edge">
<title>Node87&#45;&gt;Node8</title>
<path fill="none" stroke="midnightblue" d="M132.88,-33.16C157.37,-30.16 185.79,-26.68 210.89,-23.6"/>
<polygon fill="midnightblue" stroke="midnightblue" points="132.14,-29.73 122.64,-34.42 132.99,-36.67 132.14,-29.73"/>
</g>
<!-- Node12 -->
<g id="node13" class="node">
<title>Node12</title>
<g id="a_node13"><a xlink:href="classPonca_1_1Line.html" target="_top" xlink:title="A parametrized line is defined by an origin point &#160;and a unit direction vector &#160;such that the line co...">
<polygon fill="white" stroke="black" points="211,-49.5 211,-79.5 345,-79.5 345,-49.5 211,-49.5"/>
<text text-anchor="start" x="219" y="-67.5" font-family="Helvetica,sans-Serif" font-size="10.00">Ponca::Line&lt; DataPoint,</text>
<text text-anchor="middle" x="278" y="-56.5" font-family="Helvetica,sans-Serif" font-size="10.00"> _WFunctor, T &gt;</text>
</a>
</g>
</g>
<!-- Node87&#45;&gt;Node12 -->
<g id="edge13" class="edge">
<title>Node87&#45;&gt;Node12</title>
<path fill="none" stroke="midnightblue" d="M132.88,-47.54C157.37,-50.43 185.79,-53.77 210.89,-56.72"/>
<polygon fill="midnightblue" stroke="midnightblue" points="132.98,-44.03 122.64,-46.34 132.17,-50.98 132.98,-44.03"/>
</g>
<!-- Node8&#45;&gt;Node9 -->
<g id="edge12" class="edge">
<title>Node8&#45;&gt;Node9</title>
<path fill="none" stroke="midnightblue" d="M355.31,-24.14C374.33,-26.29 394.74,-28.6 413.8,-30.76"/>
<polygon fill="midnightblue" stroke="midnightblue" points="355.54,-20.64 345.21,-23 354.75,-27.6 355.54,-20.64"/>
</g>
<!-- Node0 -->
<g id="node14" class="node">
<title>Node0</title>
<g id="a_node14"><a xlink:href="classPonca_1_1PrimitiveBase.html" target="_top" xlink:title=" ">
<polygon fill="white" stroke="black" points="0,-122.5 0,-152.5 144,-152.5 144,-122.5 0,-122.5"/>
<text text-anchor="start" x="8" y="-140.5" font-family="Helvetica,sans-Serif" font-size="10.00">Ponca::PrimitiveBase</text>
<text text-anchor="middle" x="72" y="-129.5" font-family="Helvetica,sans-Serif" font-size="10.00">&lt; DataPoint, _WFunctor &gt;</text>
</a>
</g>
</g>
<!-- Node0&#45;&gt;Node5 -->
<g id="edge18" class="edge">
<title>Node0&#45;&gt;Node5</title>
<path fill="none" stroke="midnightblue" d="M91.7,-160.58C111.34,-183.28 144.29,-217.24 180,-236.5 188.02,-240.82 196.82,-244.38 205.76,-247.31"/>
<polygon fill="midnightblue" stroke="midnightblue" points="94.23,-158.14 85.09,-152.78 88.89,-162.67 94.23,-158.14"/>
</g>
<!-- Node0&#45;&gt;Node11 -->
<g id="edge21" class="edge">
<title>Node0&#45;&gt;Node11</title>
<path fill="none" stroke="midnightblue" d="M84.07,-162.27C100.25,-195.56 133.56,-254.16 180,-285.5 186.04,-289.58 192.71,-292.96 199.64,-295.77"/>
<polygon fill="midnightblue" stroke="midnightblue" points="87.04,-160.36 79.6,-152.81 80.71,-163.35 87.04,-160.36"/>
</g>
<!-- Node0&#45;&gt;Node8 -->
<g id="edge19" class="edge">
<title>Node0&#45;&gt;Node8</title>
<path fill="none" stroke="midnightblue" d="M91.75,-114.66C111.43,-92.19 144.41,-58.58 180,-39.5 189.56,-34.38 200.23,-30.33 210.9,-27.13"/>
<polygon fill="midnightblue" stroke="midnightblue" points="88.98,-112.51 85.13,-122.38 94.29,-117.07 88.98,-112.51"/>
</g>
<!-- Node0&#45;&gt;Node12 -->
<g id="edge22" class="edge">
<title>Node0&#45;&gt;Node12</title>
<path fill="none" stroke="midnightblue" d="M111.05,-117.97C131.18,-108.18 156.52,-96.7 180,-88.5 189.83,-85.07 200.38,-81.93 210.77,-79.13"/>
<polygon fill="midnightblue" stroke="midnightblue" points="109.34,-114.91 101.91,-122.47 112.43,-121.19 109.34,-114.91"/>
</g>
<!-- Node1 -->
<g id="node15" class="node">
<title>Node1</title>
<g id="a_node15"><a xlink:href="classPonca_1_1AlgebraicSphere.html" target="_top" xlink:title=" ">
<polygon fill="white" stroke="black" points="206,-98.5 206,-128.5 350,-128.5 350,-98.5 206,-98.5"/>
<text text-anchor="start" x="214" y="-116.5" font-family="Helvetica,sans-Serif" font-size="10.00">Ponca::AlgebraicSphere</text>
<text text-anchor="middle" x="278" y="-105.5" font-family="Helvetica,sans-Serif" font-size="10.00">&lt; DataPoint, _WFunctor &gt;</text>
</a>
</g>
</g>
<!-- Node0&#45;&gt;Node1 -->
<g id="edge14" class="edge">
<title>Node0&#45;&gt;Node1</title>
<path fill="none" stroke="midnightblue" d="M154.04,-127.97C171.16,-125.95 189.12,-123.84 205.85,-121.87"/>
<polygon fill="midnightblue" stroke="midnightblue" points="153.59,-124.5 144.06,-129.14 154.4,-131.45 153.59,-124.5"/>
</g>
<!-- Node10 -->
<g id="node16" class="node">
<title>Node10</title>
<g id="a_node16"><a xlink:href="classPonca_1_1AlgebraicSphere.html" target="_top" xlink:title="Algebraic Sphere primitive.">
<polygon fill="white" stroke="black" points="200,-147.5 200,-177.5 356,-177.5 356,-147.5 200,-147.5"/>
<text text-anchor="start" x="208" y="-165.5" font-family="Helvetica,sans-Serif" font-size="10.00">Ponca::AlgebraicSphere</text>
<text text-anchor="middle" x="278" y="-154.5" font-family="Helvetica,sans-Serif" font-size="10.00">&lt; DataPoint, _WFunctor, T &gt;</text>
</a>
</g>
</g>
<!-- Node0&#45;&gt;Node10 -->
<g id="edge20" class="edge">
<title>Node0&#45;&gt;Node10</title>
<path fill="none" stroke="midnightblue" d="M154.35,-147.47C169.38,-149.31 185.04,-151.23 199.93,-153.06"/>
<polygon fill="midnightblue" stroke="midnightblue" points="154.41,-143.95 144.06,-146.21 153.56,-150.9 154.41,-143.95"/>
</g>
<!-- Node1&#45;&gt;Node2 -->
<g id="edge15" class="edge">
<title>Node1&#45;&gt;Node2</title>
<path fill="none" stroke="midnightblue" d="M359,-131.8C364.83,-133.84 370.56,-136.07 376,-138.5 393.56,-146.34 394.61,-154.28 412,-162.5 419,-165.81 426.56,-168.79 434.13,-171.43"/>
<polygon fill="midnightblue" stroke="midnightblue" points="359.71,-128.35 349.12,-128.56 357.52,-135 359.71,-128.35"/>
</g>
<!-- Node1&#45;&gt;Node3 -->
<g id="edge16" class="edge">
<title>Node1&#45;&gt;Node3</title>
<path fill="none" stroke="midnightblue" d="M360.56,-122.73C377.44,-124.64 395.19,-126.65 411.98,-128.55"/>
<polygon fill="midnightblue" stroke="midnightblue" points="360.51,-119.21 350.18,-121.56 359.73,-126.16 360.51,-119.21"/>
</g>
<!-- Node1&#45;&gt;Node4 -->
<g id="edge17" class="edge">
<title>Node1&#45;&gt;Node4</title>
<path fill="none" stroke="midnightblue" d="M360.39,-103.9C377.94,-101.83 396.44,-99.65 413.82,-97.6"/>
<polygon fill="midnightblue" stroke="midnightblue" points="359.7,-100.46 350.18,-105.11 360.52,-107.41 359.7,-100.46"/>
</g>
</g>
</svg>
