<?xml version="1.0" encoding="UTF-8" standalone="no"?>
<!DOCTYPE svg PUBLIC "-//W3C//DTD SVG 1.1//EN"
 "http://www.w3.org/Graphics/SVG/1.1/DTD/svg11.dtd">
<!-- Generated by graphviz version 2.43.0 (0)
 -->
<!-- Title: Graphical Class Hierarchy Pages: 1 -->
<svg width="339pt" height="98pt"
 viewBox="0.00 0.00 339.00 97.50" xmlns="http://www.w3.org/2000/svg" xmlns:xlink="http://www.w3.org/1999/xlink">
<g id="graph0" class="graph" transform="scale(1 1) rotate(0) translate(4 93.5)">
<title>Graphical Class Hierarchy</title>
<!-- Node0 -->
<g id="Node000000" class="node">
<title>Node0</title>
<g id="a_Node000000"><a xlink:href="structPonca_1_1ComputeObject.html" target="_top" xlink:title=" ">
<polygon fill="white" stroke="#666666" points="154.5,-89.5 6.5,-89.5 6.5,-48.5 154.5,-48.5 154.5,-89.5"/>
<text text-anchor="start" x="14.5" y="-77.5" font-family="Helvetica,sans-Serif" font-size="10.00">Ponca::ComputeObject</text>
<text text-anchor="start" x="14.5" y="-66.5" font-family="Helvetica,sans-Serif" font-size="10.00">&lt; BasketDiff&lt; BasketType,</text>
<text text-anchor="middle" x="80.5" y="-55.5" font-family="Helvetica,sans-Serif" font-size="10.00"> Type, Ext0, Exts... &gt; &gt;</text>
</a>
</g>
</g>
<!-- Node1 -->
<g id="Node000001" class="node">
<title>Node1</title>
<g id="a_Node000001"><a xlink:href="classPonca_1_1BasketDiff.html" target="_top" xlink:title="Aggregator class used to declare specialized structures with derivatives computations,...">
<polygon fill="white" stroke="#666666" points="331,-62.5 197,-62.5 197,-21.5 331,-21.5 331,-62.5"/>
<text text-anchor="start" x="205" y="-50.5" font-family="Helvetica,sans-Serif" font-size="10.00">Ponca::BasketDiff&lt;</text>
<text text-anchor="start" x="205" y="-39.5" font-family="Helvetica,sans-Serif" font-size="10.00"> BasketType, Type, Ext0,</text>
<text text-anchor="middle" x="264" y="-28.5" font-family="Helvetica,sans-Serif" font-size="10.00"> Exts &gt;</text>
</a>
</g>
</g>
<!-- Node0&#45;&gt;Node1 -->
<g id="edge61_Node000000_Node000001" class="edge">
<title>Node0&#45;&gt;Node1</title>
<g id="a_edge61_Node000000_Node000001"><a xlink:title=" ">
<path fill="none" stroke="#63b8ff" d="M164.45,-56.66C175.31,-55.04 186.32,-53.41 196.85,-51.84"/>
<polygon fill="#63b8ff" stroke="#63b8ff" points="163.91,-53.2 154.54,-58.13 164.94,-60.13 163.91,-53.2"/>
</a>
</g>
</g>
<!-- Node2 -->
<g id="Node000002" class="node">
<title>Node2</title>
<g id="a_Node000002"><a xlink:title=" ">
<polygon fill="#e0e0e0" stroke="#999999" points="161,-30 0,-30 0,0 161,0 161,-30"/>
<text text-anchor="start" x="8" y="-18" font-family="Helvetica,sans-Serif" font-size="10.00">internal::BasketDiffAggregate</text>
<text text-anchor="middle" x="80.5" y="-7" font-family="Helvetica,sans-Serif" font-size="10.00">::type</text>
</a>
</g>
</g>
<!-- Node2&#45;&gt;Node1 -->
<g id="edge62_Node000002_Node000001" class="edge">
<title>Node2&#45;&gt;Node1</title>
<g id="a_edge62_Node000002_Node000001"><a xlink:title=" ">
<path fill="none" stroke="#63b8ff" d="M171.2,-28.34C179.81,-29.62 188.44,-30.91 196.77,-32.15"/>
<polygon fill="#63b8ff" stroke="#63b8ff" points="171.51,-24.85 161.11,-26.84 170.48,-31.78 171.51,-24.85"/>
</a>
</g>
</g>
</g>
</svg>
