<?xml version="1.0" encoding="UTF-8" standalone="no"?>
<!DOCTYPE svg PUBLIC "-//W3C//DTD SVG 1.1//EN"
 "http://www.w3.org/Graphics/SVG/1.1/DTD/svg11.dtd">
<!-- Generated by graphviz version 2.43.0 (0)
 -->
<!-- Title: Graphical Class Hierarchy Pages: 1 -->
<svg width="910pt" height="388pt"
 viewBox="0.00 0.00 910.00 387.50" xmlns="http://www.w3.org/2000/svg" xmlns:xlink="http://www.w3.org/1999/xlink">
<g id="graph0" class="graph" transform="scale(1 1) rotate(0) translate(4 383.5)">
<title>Graphical Class Hierarchy</title>
<!-- Node0 -->
<g id="node1" class="node">
<title>Node0</title>
<g id="a_node1"><a xlink:href="group__spatialpartitioning.html#structPonca_1_1QueryInputBase" target="_top" xlink:title="Base class for queries input type.">
<polygon fill="white" stroke="#666666" points="130,-102 0,-102 0,-83 130,-83 130,-102"/>
<text text-anchor="middle" x="65" y="-90" font-family="Helvetica,sans-Serif" font-size="10.00">Ponca::QueryInputBase</text>
</a>
</g>
</g>
<!-- Node1 -->
<g id="node2" class="node">
<title>Node1</title>
<g id="a_node2"><a xlink:href="group__spatialpartitioning.html" target="_top" xlink:title=" ">
<polygon fill="white" stroke="#666666" points="292,-107.5 178,-107.5 178,-77.5 292,-77.5 292,-107.5"/>
<text text-anchor="start" x="186" y="-95.5" font-family="Helvetica,sans-Serif" font-size="10.00">Ponca::QueryInput&lt;</text>
<text text-anchor="middle" x="235" y="-84.5" font-family="Helvetica,sans-Serif" font-size="10.00"> Index &gt;</text>
</a>
</g>
</g>
<!-- Node0&#45;&gt;Node1 -->
<g id="edge1" class="edge">
<title>Node0&#45;&gt;Node1</title>
<path fill="none" stroke="#63b8ff" d="M140.47,-92.5C153.05,-92.5 165.91,-92.5 177.92,-92.5"/>
<polygon fill="#63b8ff" stroke="#63b8ff" points="140.47,-89 130.47,-92.5 140.47,-96 140.47,-89"/>
</g>
<!-- Node17 -->
<g id="node10" class="node">
<title>Node17</title>
<g id="a_node10"><a xlink:href="group__spatialpartitioning.html" target="_top" xlink:title=" ">
<polygon fill="white" stroke="#666666" points="304,-294.5 166,-294.5 166,-264.5 304,-264.5 304,-294.5"/>
<text text-anchor="start" x="174" y="-282.5" font-family="Helvetica,sans-Serif" font-size="10.00">Ponca::QueryInput&lt;</text>
<text text-anchor="middle" x="235" y="-271.5" font-family="Helvetica,sans-Serif" font-size="10.00"> DataPoint::VectorType &gt;</text>
</a>
</g>
</g>
<!-- Node0&#45;&gt;Node17 -->
<g id="edge9" class="edge">
<title>Node0&#45;&gt;Node17</title>
<path fill="none" stroke="#63b8ff" d="M81.18,-109.85C100.69,-132.11 135.66,-171.86 166,-205.5 184.46,-225.97 206.04,-249.36 219.85,-264.27"/>
<polygon fill="#63b8ff" stroke="#63b8ff" points="83.72,-107.45 74.5,-102.23 78.46,-112.06 83.72,-107.45"/>
</g>
<!-- Node24 -->
<g id="node18" class="node">
<title>Node24</title>
<g id="a_node18"><a xlink:href="group__spatialpartitioning.html#structPonca_1_1QueryInput" target="_top" xlink:title="Base class for typed queries input type.">
<polygon fill="white" stroke="#666666" points="292,-59.5 178,-59.5 178,-29.5 292,-29.5 292,-59.5"/>
<text text-anchor="start" x="186" y="-47.5" font-family="Helvetica,sans-Serif" font-size="10.00">Ponca::QueryInput&lt;</text>
<text text-anchor="middle" x="235" y="-36.5" font-family="Helvetica,sans-Serif" font-size="10.00"> InputType_ &gt;</text>
</a>
</g>
</g>
<!-- Node0&#45;&gt;Node24 -->
<g id="edge17" class="edge">
<title>Node0&#45;&gt;Node24</title>
<path fill="none" stroke="#63b8ff" d="M109.31,-80.13C131.27,-73.85 158.12,-66.18 181.28,-59.56"/>
<polygon fill="#63b8ff" stroke="#63b8ff" points="108.25,-76.79 99.59,-82.9 110.17,-83.52 108.25,-76.79"/>
</g>
<!-- Node2 -->
<g id="node3" class="node">
<title>Node2</title>
<g id="a_node3"><a xlink:href="group__spatialpartitioning.html#structPonca_1_1QueryInputIsIndex" target="_top" xlink:title="Base class for queries storing points.">
<polygon fill="white" stroke="#666666" points="494,-81.5 353,-81.5 353,-51.5 494,-51.5 494,-81.5"/>
<text text-anchor="start" x="361" y="-69.5" font-family="Helvetica,sans-Serif" font-size="10.00">Ponca::QueryInputIsIndex</text>
<text text-anchor="middle" x="423.5" y="-58.5" font-family="Helvetica,sans-Serif" font-size="10.00">&lt; Index &gt;</text>
</a>
</g>
</g>
<!-- Node1&#45;&gt;Node2 -->
<g id="edge2" class="edge">
<title>Node1&#45;&gt;Node2</title>
<path fill="none" stroke="#63b8ff" d="M302.25,-83.26C318.67,-80.98 336.3,-78.52 352.88,-76.21"/>
<polygon fill="#63b8ff" stroke="#63b8ff" points="301.63,-79.82 292.21,-84.66 302.6,-86.75 301.63,-79.82"/>
</g>
<!-- Node3 -->
<g id="node4" class="node">
<title>Node3</title>
<g id="a_node4"><a xlink:href="group__spatialpartitioning.html" target="_top" xlink:title=" ">
<polygon fill="white" stroke="#666666" points="713,-41 543,-41 543,0 713,0 713,-41"/>
<text text-anchor="start" x="551" y="-29" font-family="Helvetica,sans-Serif" font-size="10.00">Ponca::Query&lt; QueryInput</text>
<text text-anchor="start" x="551" y="-18" font-family="Helvetica,sans-Serif" font-size="10.00">IsIndex&lt; Index &gt;, QueryOutput</text>
<text text-anchor="middle" x="628" y="-7" font-family="Helvetica,sans-Serif" font-size="10.00">IsKNearest&lt; Index, Scalar &gt; &gt;</text>
</a>
</g>
</g>
<!-- Node2&#45;&gt;Node3 -->
<g id="edge3" class="edge">
<title>Node2&#45;&gt;Node3</title>
<path fill="none" stroke="#63b8ff" d="M500.69,-49.19C514.44,-46.07 528.85,-42.8 542.81,-39.63"/>
<polygon fill="#63b8ff" stroke="#63b8ff" points="499.78,-45.81 490.81,-51.44 501.33,-52.64 499.78,-45.81"/>
</g>
<!-- Node19 -->
<g id="node6" class="node">
<title>Node19</title>
<g id="a_node6"><a xlink:href="group__spatialpartitioning.html" target="_top" xlink:title=" ">
<polygon fill="white" stroke="#666666" points="713,-104 543,-104 543,-63 713,-63 713,-104"/>
<text text-anchor="start" x="551" y="-92" font-family="Helvetica,sans-Serif" font-size="10.00">Ponca::Query&lt; QueryInput</text>
<text text-anchor="start" x="551" y="-81" font-family="Helvetica,sans-Serif" font-size="10.00">IsIndex&lt; Index &gt;, QueryOutput</text>
<text text-anchor="middle" x="628" y="-70" font-family="Helvetica,sans-Serif" font-size="10.00">IsNearest&lt; Index, Scalar &gt; &gt;</text>
</a>
</g>
</g>
<!-- Node2&#45;&gt;Node19 -->
<g id="edge5" class="edge">
<title>Node2&#45;&gt;Node19</title>
<path fill="none" stroke="#63b8ff" d="M504.24,-73.19C516.92,-74.26 530.07,-75.36 542.85,-76.44"/>
<polygon fill="#63b8ff" stroke="#63b8ff" points="504.45,-69.7 494.19,-72.35 503.86,-76.67 504.45,-69.7"/>
</g>
<!-- Node22 -->
<g id="node8" class="node">
<title>Node22</title>
<g id="a_node8"><a xlink:href="group__spatialpartitioning.html" target="_top" xlink:title=" ">
<polygon fill="white" stroke="#666666" points="713,-165 543,-165 543,-124 713,-124 713,-165"/>
<text text-anchor="start" x="551" y="-153" font-family="Helvetica,sans-Serif" font-size="10.00">Ponca::Query&lt; QueryInput</text>
<text text-anchor="start" x="551" y="-142" font-family="Helvetica,sans-Serif" font-size="10.00">IsIndex&lt; Index &gt;, QueryOutput</text>
<text text-anchor="middle" x="628" y="-131" font-family="Helvetica,sans-Serif" font-size="10.00">IsRange&lt; Index, Scalar &gt; &gt;</text>
</a>
</g>
</g>
<!-- Node2&#45;&gt;Node22 -->
<g id="edge7" class="edge">
<title>Node2&#45;&gt;Node22</title>
<path fill="none" stroke="#63b8ff" d="M493.14,-84.93C497.88,-86.68 502.54,-88.53 507,-90.5 524.15,-98.07 526.17,-104.24 543,-112.5 551.13,-116.49 559.88,-120.31 568.56,-123.84"/>
<polygon fill="#63b8ff" stroke="#63b8ff" points="493.93,-81.5 483.33,-81.52 491.63,-88.11 493.93,-81.5"/>
</g>
<!-- Node4 -->
<g id="node5" class="node">
<title>Node4</title>
<g id="a_node5"><a xlink:href="group__spatialpartitioning.html#structPonca_1_1KNearestIndexQuery" target="_top" xlink:title="Base Query class combining QueryInputIsIndex and QueryOutputIsKNearest.">
<polygon fill="white" stroke="#666666" points="902,-35.5 749,-35.5 749,-5.5 902,-5.5 902,-35.5"/>
<text text-anchor="start" x="757" y="-23.5" font-family="Helvetica,sans-Serif" font-size="10.00">Ponca::KNearestIndexQuery</text>
<text text-anchor="middle" x="825.5" y="-12.5" font-family="Helvetica,sans-Serif" font-size="10.00">&lt; Index, Scalar &gt;</text>
</a>
</g>
</g>
<!-- Node3&#45;&gt;Node4 -->
<g id="edge4" class="edge">
<title>Node3&#45;&gt;Node4</title>
<path fill="none" stroke="#63b8ff" d="M723.14,-20.5C731.76,-20.5 740.42,-20.5 748.85,-20.5"/>
<polygon fill="#63b8ff" stroke="#63b8ff" points="723.04,-17 713.04,-20.5 723.04,-24 723.04,-17"/>
</g>
<!-- Node20 -->
<g id="node7" class="node">
<title>Node20</title>
<g id="a_node7"><a xlink:href="group__spatialpartitioning.html#structPonca_1_1NearestIndexQuery" target="_top" xlink:title="Base Query class combining QueryInputIsIndex and QueryOutputIsNearest.">
<polygon fill="white" stroke="#666666" points="898.5,-98.5 752.5,-98.5 752.5,-68.5 898.5,-68.5 898.5,-98.5"/>
<text text-anchor="start" x="760.5" y="-86.5" font-family="Helvetica,sans-Serif" font-size="10.00">Ponca::NearestIndexQuery</text>
<text text-anchor="middle" x="825.5" y="-75.5" font-family="Helvetica,sans-Serif" font-size="10.00">&lt; Index, Scalar &gt;</text>
</a>
</g>
</g>
<!-- Node19&#45;&gt;Node20 -->
<g id="edge6" class="edge">
<title>Node19&#45;&gt;Node20</title>
<path fill="none" stroke="#63b8ff" d="M723.18,-83.5C732.94,-83.5 742.74,-83.5 752.21,-83.5"/>
<polygon fill="#63b8ff" stroke="#63b8ff" points="723.04,-80 713.04,-83.5 723.04,-87 723.04,-80"/>
</g>
<!-- Node23 -->
<g id="node9" class="node">
<title>Node23</title>
<g id="a_node9"><a xlink:href="group__spatialpartitioning.html#structPonca_1_1RangeIndexQuery" target="_top" xlink:title="Base Query class combining QueryInputIsIndex and QueryOutputIsRange.">
<polygon fill="white" stroke="#666666" points="895,-159.5 756,-159.5 756,-129.5 895,-129.5 895,-159.5"/>
<text text-anchor="start" x="764" y="-147.5" font-family="Helvetica,sans-Serif" font-size="10.00">Ponca::RangeIndexQuery</text>
<text text-anchor="middle" x="825.5" y="-136.5" font-family="Helvetica,sans-Serif" font-size="10.00">&lt; Index, Scalar &gt;</text>
</a>
</g>
</g>
<!-- Node22&#45;&gt;Node23 -->
<g id="edge8" class="edge">
<title>Node22&#45;&gt;Node23</title>
<path fill="none" stroke="#63b8ff" d="M723.14,-144.5C734.16,-144.5 745.25,-144.5 755.83,-144.5"/>
<polygon fill="#63b8ff" stroke="#63b8ff" points="723.04,-141 713.04,-144.5 723.04,-148 723.04,-141"/>
</g>
<!-- Node10 -->
<g id="node11" class="node">
<title>Node10</title>
<g id="a_node11"><a xlink:href="group__spatialpartitioning.html#structPonca_1_1QueryInputIsPosition" target="_top" xlink:title="Base class for queries storing points.">
<polygon fill="white" stroke="#666666" points="500,-321.5 347,-321.5 347,-291.5 500,-291.5 500,-321.5"/>
<text text-anchor="start" x="355" y="-309.5" font-family="Helvetica,sans-Serif" font-size="10.00">Ponca::QueryInputIsPosition</text>
<text text-anchor="middle" x="423.5" y="-298.5" font-family="Helvetica,sans-Serif" font-size="10.00">&lt; DataPoint &gt;</text>
</a>
</g>
</g>
<!-- Node17&#45;&gt;Node10 -->
<g id="edge10" class="edge">
<title>Node17&#45;&gt;Node10</title>
<path fill="none" stroke="#63b8ff" d="M314.3,-290.84C325.02,-292.39 336.01,-293.98 346.69,-295.52"/>
<polygon fill="#63b8ff" stroke="#63b8ff" points="314.52,-287.33 304.12,-289.36 313.52,-294.26 314.52,-287.33"/>
</g>
<!-- Node8 -->
<g id="node12" class="node">
<title>Node8</title>
<g id="a_node12"><a xlink:href="group__spatialpartitioning.html" target="_top" xlink:title=" ">
<polygon fill="white" stroke="#666666" points="711.5,-308.5 544.5,-308.5 544.5,-256.5 711.5,-256.5 711.5,-308.5"/>
<text text-anchor="start" x="552.5" y="-296.5" font-family="Helvetica,sans-Serif" font-size="10.00">Ponca::Query&lt; QueryInput</text>
<text text-anchor="start" x="552.5" y="-285.5" font-family="Helvetica,sans-Serif" font-size="10.00">IsPosition&lt; DataPoint</text>
<text text-anchor="start" x="552.5" y="-274.5" font-family="Helvetica,sans-Serif" font-size="10.00"> &gt;, QueryOutputIsKNearest</text>
<text text-anchor="middle" x="628" y="-263.5" font-family="Helvetica,sans-Serif" font-size="10.00">&lt; Index, DataPoint::Scalar &gt; &gt;</text>
</a>
</g>
</g>
<!-- Node10&#45;&gt;Node8 -->
<g id="edge11" class="edge">
<title>Node10&#45;&gt;Node8</title>
<path fill="none" stroke="#63b8ff" d="M510.41,-296.32C521.63,-294.99 533.1,-293.63 544.27,-292.3"/>
<polygon fill="#63b8ff" stroke="#63b8ff" points="509.71,-292.88 500.19,-297.53 510.53,-299.83 509.71,-292.88"/>
</g>
<!-- Node11 -->
<g id="node14" class="node">
<title>Node11</title>
<g id="a_node14"><a xlink:href="group__spatialpartitioning.html" target="_top" xlink:title=" ">
<polygon fill="white" stroke="#666666" points="711.5,-236.5 544.5,-236.5 544.5,-184.5 711.5,-184.5 711.5,-236.5"/>
<text text-anchor="start" x="552.5" y="-224.5" font-family="Helvetica,sans-Serif" font-size="10.00">Ponca::Query&lt; QueryInput</text>
<text text-anchor="start" x="552.5" y="-213.5" font-family="Helvetica,sans-Serif" font-size="10.00">IsPosition&lt; DataPoint</text>
<text text-anchor="start" x="552.5" y="-202.5" font-family="Helvetica,sans-Serif" font-size="10.00"> &gt;, QueryOutputIsNearest</text>
<text text-anchor="middle" x="628" y="-191.5" font-family="Helvetica,sans-Serif" font-size="10.00">&lt; Index, DataPoint::Scalar &gt; &gt;</text>
</a>
</g>
</g>
<!-- Node10&#45;&gt;Node11 -->
<g id="edge13" class="edge">
<title>Node10&#45;&gt;Node11</title>
<path fill="none" stroke="#63b8ff" d="M497.67,-287.38C500.88,-285.86 504.01,-284.24 507,-282.5 526.29,-271.27 524.5,-259.97 543,-247.5 548.81,-243.58 555.11,-239.92 561.55,-236.53"/>
<polygon fill="#63b8ff" stroke="#63b8ff" points="496.23,-284.18 488.43,-291.35 499,-290.62 496.23,-284.18"/>
</g>
<!-- Node14 -->
<g id="node16" class="node">
<title>Node14</title>
<g id="a_node16"><a xlink:href="group__spatialpartitioning.html" target="_top" xlink:title=" ">
<polygon fill="white" stroke="#666666" points="711.5,-379.5 544.5,-379.5 544.5,-327.5 711.5,-327.5 711.5,-379.5"/>
<text text-anchor="start" x="552.5" y="-367.5" font-family="Helvetica,sans-Serif" font-size="10.00">Ponca::Query&lt; QueryInput</text>
<text text-anchor="start" x="552.5" y="-356.5" font-family="Helvetica,sans-Serif" font-size="10.00">IsPosition&lt; DataPoint</text>
<text text-anchor="start" x="552.5" y="-345.5" font-family="Helvetica,sans-Serif" font-size="10.00"> &gt;, QueryOutputIsRange</text>
<text text-anchor="middle" x="628" y="-334.5" font-family="Helvetica,sans-Serif" font-size="10.00">&lt; Index, DataPoint::Scalar &gt; &gt;</text>
</a>
</g>
</g>
<!-- Node10&#45;&gt;Node14 -->
<g id="edge15" class="edge">
<title>Node10&#45;&gt;Node14</title>
<path fill="none" stroke="#63b8ff" d="M499.19,-323.84C513.93,-327.26 529.48,-330.87 544.46,-334.34"/>
<polygon fill="#63b8ff" stroke="#63b8ff" points="499.66,-320.35 489.13,-321.5 498.08,-327.17 499.66,-320.35"/>
</g>
<!-- Node9 -->
<g id="node13" class="node">
<title>Node9</title>
<g id="a_node13"><a xlink:href="group__spatialpartitioning.html#structPonca_1_1KNearestPointQuery" target="_top" xlink:title="Base Query class combining QueryInputIsPosition and QueryOutputIsKNearest.">
<polygon fill="white" stroke="#666666" points="901,-297.5 750,-297.5 750,-267.5 901,-267.5 901,-297.5"/>
<text text-anchor="start" x="758" y="-285.5" font-family="Helvetica,sans-Serif" font-size="10.00">Ponca::KNearestPointQuery</text>
<text text-anchor="middle" x="825.5" y="-274.5" font-family="Helvetica,sans-Serif" font-size="10.00">&lt; Index, DataPoint &gt;</text>
</a>
</g>
</g>
<!-- Node8&#45;&gt;Node9 -->
<g id="edge12" class="edge">
<title>Node8&#45;&gt;Node9</title>
<path fill="none" stroke="#63b8ff" d="M721.81,-282.5C731.24,-282.5 740.73,-282.5 749.93,-282.5"/>
<polygon fill="#63b8ff" stroke="#63b8ff" points="721.63,-279 711.63,-282.5 721.63,-286 721.63,-279"/>
</g>
<!-- Node12 -->
<g id="node15" class="node">
<title>Node12</title>
<g id="a_node15"><a xlink:href="group__spatialpartitioning.html#structPonca_1_1NearestPointQuery" target="_top" xlink:title="Base Query class combining QueryInputIsPosition and QueryOutputIsNearest.">
<polygon fill="white" stroke="#666666" points="897.5,-225.5 753.5,-225.5 753.5,-195.5 897.5,-195.5 897.5,-225.5"/>
<text text-anchor="start" x="761.5" y="-213.5" font-family="Helvetica,sans-Serif" font-size="10.00">Ponca::NearestPointQuery</text>
<text text-anchor="middle" x="825.5" y="-202.5" font-family="Helvetica,sans-Serif" font-size="10.00">&lt; Index, DataPoint &gt;</text>
</a>
</g>
</g>
<!-- Node11&#45;&gt;Node12 -->
<g id="edge14" class="edge">
<title>Node11&#45;&gt;Node12</title>
<path fill="none" stroke="#63b8ff" d="M721.75,-210.5C732.36,-210.5 743.04,-210.5 753.3,-210.5"/>
<polygon fill="#63b8ff" stroke="#63b8ff" points="721.63,-207 711.63,-210.5 721.63,-214 721.63,-207"/>
</g>
<!-- Node15 -->
<g id="node17" class="node">
<title>Node15</title>
<g id="a_node17"><a xlink:href="group__spatialpartitioning.html#structPonca_1_1RangePointQuery" target="_top" xlink:title="Base Query class combining QueryInputIsPosition and QueryOutputIsRange.">
<polygon fill="white" stroke="#666666" points="894,-368.5 757,-368.5 757,-338.5 894,-338.5 894,-368.5"/>
<text text-anchor="start" x="765" y="-356.5" font-family="Helvetica,sans-Serif" font-size="10.00">Ponca::RangePointQuery</text>
<text text-anchor="middle" x="825.5" y="-345.5" font-family="Helvetica,sans-Serif" font-size="10.00">&lt; Index, DataPoint &gt;</text>
</a>
</g>
</g>
<!-- Node14&#45;&gt;Node15 -->
<g id="edge16" class="edge">
<title>Node14&#45;&gt;Node15</title>
<path fill="none" stroke="#63b8ff" d="M721.96,-353.5C733.76,-353.5 745.65,-353.5 756.95,-353.5"/>
<polygon fill="#63b8ff" stroke="#63b8ff" points="721.63,-350 711.63,-353.5 721.63,-357 721.63,-350"/>
</g>
<!-- Node6 -->
<g id="node19" class="node">
<title>Node6</title>
<g id="a_node19"><a xlink:href="group__spatialpartitioning.html#structPonca_1_1QueryOutputBase" target="_top" xlink:title="Base class for queries output type.">
<polygon fill="white" stroke="#666666" points="304,-196 166,-196 166,-177 304,-177 304,-196"/>
<text text-anchor="middle" x="235" y="-184" font-family="Helvetica,sans-Serif" font-size="10.00">Ponca::QueryOutputBase</text>
</a>
</g>
</g>
<!-- Node7 -->
<g id="node20" class="node">
<title>Node7</title>
<g id="a_node20"><a xlink:href="group__spatialpartitioning.html" target="_top" xlink:title=" ">
<polygon fill="white" stroke="#666666" points="507,-273.5 340,-273.5 340,-243.5 507,-243.5 507,-273.5"/>
<text text-anchor="start" x="348" y="-261.5" font-family="Helvetica,sans-Serif" font-size="10.00">Ponca::QueryOutputIsKNearest</text>
<text text-anchor="middle" x="423.5" y="-250.5" font-family="Helvetica,sans-Serif" font-size="10.00">&lt; Index, DataPoint::Scalar &gt;</text>
</a>
</g>
</g>
<!-- Node6&#45;&gt;Node7 -->
<g id="edge18" class="edge">
<title>Node6&#45;&gt;Node7</title>
<path fill="none" stroke="#63b8ff" d="M263.57,-200.6C284.26,-210.84 313.47,-224.58 340,-234.5 348.52,-237.69 357.67,-240.72 366.66,-243.48"/>
<polygon fill="#63b8ff" stroke="#63b8ff" points="264.94,-197.37 254.43,-196.03 261.81,-203.63 264.94,-197.37"/>
</g>
<!-- Node13 -->
<g id="node21" class="node">
<title>Node13</title>
<g id="a_node21"><a xlink:href="group__spatialpartitioning.html" target="_top" xlink:title=" ">
<polygon fill="white" stroke="#666666" points="504,-225.5 343,-225.5 343,-195.5 504,-195.5 504,-225.5"/>
<text text-anchor="start" x="351" y="-213.5" font-family="Helvetica,sans-Serif" font-size="10.00">Ponca::QueryOutputIsNearest</text>
<text text-anchor="middle" x="423.5" y="-202.5" font-family="Helvetica,sans-Serif" font-size="10.00">&lt; Index, DataPoint::Scalar &gt;</text>
</a>
</g>
</g>
<!-- Node6&#45;&gt;Node13 -->
<g id="edge20" class="edge">
<title>Node6&#45;&gt;Node13</title>
<path fill="none" stroke="#63b8ff" d="M314.28,-196.57C323.73,-197.79 333.39,-199.03 342.86,-200.25"/>
<polygon fill="#63b8ff" stroke="#63b8ff" points="314.49,-193.07 304.12,-195.27 313.59,-200.01 314.49,-193.07"/>
</g>
<!-- Node16 -->
<g id="node22" class="node">
<title>Node16</title>
<g id="a_node22"><a xlink:href="group__spatialpartitioning.html" target="_top" xlink:title=" ">
<polygon fill="white" stroke="#666666" points="501.5,-369.5 345.5,-369.5 345.5,-339.5 501.5,-339.5 501.5,-369.5"/>
<text text-anchor="start" x="353.5" y="-357.5" font-family="Helvetica,sans-Serif" font-size="10.00">Ponca::QueryOutputIsRange</text>
<text text-anchor="middle" x="423.5" y="-346.5" font-family="Helvetica,sans-Serif" font-size="10.00">&lt; Index, DataPoint::Scalar &gt;</text>
</a>
</g>
</g>
<!-- Node6&#45;&gt;Node16 -->
<g id="edge22" class="edge">
<title>Node6&#45;&gt;Node16</title>
<path fill="none" stroke="#63b8ff" d="M255.06,-202.65C269.75,-215.8 289.88,-235.42 304,-255.5 325.27,-285.75 311.8,-306.59 340,-330.5 344.1,-333.97 348.67,-336.94 353.51,-339.48"/>
<polygon fill="#63b8ff" stroke="#63b8ff" points="257.36,-200.01 247.53,-196.05 252.74,-205.27 257.36,-200.01"/>
</g>
<!-- Node5 -->
<g id="node23" class="node">
<title>Node5</title>
<g id="a_node23"><a xlink:href="group__spatialpartitioning.html#structPonca_1_1QueryOutputIsKNearest" target="_top" xlink:title="Base class for knearest queries.">
<polygon fill="white" stroke="#666666" points="507,-33.5 340,-33.5 340,-3.5 507,-3.5 507,-33.5"/>
<text text-anchor="start" x="348" y="-21.5" font-family="Helvetica,sans-Serif" font-size="10.00">Ponca::QueryOutputIsKNearest</text>
<text text-anchor="middle" x="423.5" y="-10.5" font-family="Helvetica,sans-Serif" font-size="10.00">&lt; Index, Scalar &gt;</text>
</a>
</g>
</g>
<!-- Node6&#45;&gt;Node5 -->
<g id="edge24" class="edge">
<title>Node6&#45;&gt;Node5</title>
<path fill="none" stroke="#63b8ff" d="M254.76,-170.27C269.45,-156.89 289.71,-136.86 304,-116.5 325.01,-86.56 312.04,-66.08 340,-42.5 344.11,-39.04 348.69,-36.08 353.53,-33.54"/>
<polygon fill="#63b8ff" stroke="#63b8ff" points="252.38,-167.71 247.25,-176.98 257.04,-172.93 252.38,-167.71"/>
</g>
<!-- Node18 -->
<g id="node24" class="node">
<title>Node18</title>
<g id="a_node24"><a xlink:href="group__spatialpartitioning.html#structPonca_1_1QueryOutputIsNearest" target="_top" xlink:title="Base class for nearest queries.">
<polygon fill="white" stroke="#666666" points="504,-129.5 343,-129.5 343,-99.5 504,-99.5 504,-129.5"/>
<text text-anchor="start" x="351" y="-117.5" font-family="Helvetica,sans-Serif" font-size="10.00">Ponca::QueryOutputIsNearest</text>
<text text-anchor="middle" x="423.5" y="-106.5" font-family="Helvetica,sans-Serif" font-size="10.00">&lt; Index, Scalar &gt;</text>
</a>
</g>
</g>
<!-- Node6&#45;&gt;Node18 -->
<g id="edge26" class="edge">
<title>Node6&#45;&gt;Node18</title>
<path fill="none" stroke="#63b8ff" d="M263.57,-172.4C284.26,-162.16 313.47,-148.42 340,-138.5 348.52,-135.31 357.67,-132.28 366.66,-129.52"/>
<polygon fill="#63b8ff" stroke="#63b8ff" points="261.81,-169.37 254.43,-176.97 264.94,-175.63 261.81,-169.37"/>
</g>
<!-- Node21 -->
<g id="node25" class="node">
<title>Node21</title>
<g id="a_node25"><a xlink:href="group__spatialpartitioning.html#structPonca_1_1QueryOutputIsRange" target="_top" xlink:title="Base class for range queries.">
<polygon fill="white" stroke="#666666" points="500,-177.5 347,-177.5 347,-147.5 500,-147.5 500,-177.5"/>
<text text-anchor="start" x="355" y="-165.5" font-family="Helvetica,sans-Serif" font-size="10.00">Ponca::QueryOutputIsRange</text>
<text text-anchor="middle" x="423.5" y="-154.5" font-family="Helvetica,sans-Serif" font-size="10.00">&lt; Index, Scalar &gt;</text>
</a>
</g>
</g>
<!-- Node6&#45;&gt;Node21 -->
<g id="edge28" class="edge">
<title>Node6&#45;&gt;Node21</title>
<path fill="none" stroke="#63b8ff" d="M314.3,-176.42C325.02,-175.04 336.01,-173.63 346.69,-172.26"/>
<polygon fill="#63b8ff" stroke="#63b8ff" points="313.59,-172.99 304.12,-177.73 314.49,-179.93 313.59,-172.99"/>
</g>
<!-- Node7&#45;&gt;Node8 -->
<g id="edge19" class="edge">
<title>Node7&#45;&gt;Node8</title>
<path fill="none" stroke="#63b8ff" d="M517.27,-269.5C526.28,-270.56 535.38,-271.64 544.28,-272.7"/>
<polygon fill="#63b8ff" stroke="#63b8ff" points="517.5,-266 507.16,-268.3 516.68,-272.95 517.5,-266"/>
</g>
<!-- Node13&#45;&gt;Node11 -->
<g id="edge21" class="edge">
<title>Node13&#45;&gt;Node11</title>
<path fill="none" stroke="#63b8ff" d="M514.51,-210.5C524.44,-210.5 534.51,-210.5 544.33,-210.5"/>
<polygon fill="#63b8ff" stroke="#63b8ff" points="514.24,-207 504.24,-210.5 514.24,-214 514.24,-207"/>
</g>
<!-- Node16&#45;&gt;Node14 -->
<g id="edge23" class="edge">
<title>Node16&#45;&gt;Node14</title>
<path fill="none" stroke="#63b8ff" d="M511.88,-354.07C522.66,-354.02 533.65,-353.96 544.35,-353.91"/>
<polygon fill="#63b8ff" stroke="#63b8ff" points="511.62,-350.57 501.63,-354.12 511.65,-357.57 511.62,-350.57"/>
</g>
<!-- Node5&#45;&gt;Node3 -->
<g id="edge25" class="edge">
<title>Node5&#45;&gt;Node3</title>
<path fill="none" stroke="#63b8ff" d="M517.19,-19.42C525.78,-19.5 534.46,-19.59 542.97,-19.67"/>
<polygon fill="#63b8ff" stroke="#63b8ff" points="517.19,-15.92 507.16,-19.32 517.12,-22.92 517.19,-15.92"/>
</g>
<!-- Node18&#45;&gt;Node19 -->
<g id="edge27" class="edge">
<title>Node18&#45;&gt;Node19</title>
<path fill="none" stroke="#63b8ff" d="M514.17,-100.77C523.75,-99.31 533.48,-97.82 543,-96.36"/>
<polygon fill="#63b8ff" stroke="#63b8ff" points="513.6,-97.32 504.24,-102.29 514.66,-104.24 513.6,-97.32"/>
</g>
<!-- Node21&#45;&gt;Node22 -->
<g id="edge29" class="edge">
<title>Node21&#45;&gt;Node22</title>
<path fill="none" stroke="#63b8ff" d="M510.42,-154.86C521.18,-153.91 532.17,-152.93 542.9,-151.98"/>
<polygon fill="#63b8ff" stroke="#63b8ff" points="509.84,-151.4 500.19,-155.77 510.46,-158.37 509.84,-151.4"/>
</g>
</g>
</svg>
