<?xml version="1.0" encoding="UTF-8" standalone="no"?>
<!DOCTYPE svg PUBLIC "-//W3C//DTD SVG 1.1//EN"
 "http://www.w3.org/Graphics/SVG/1.1/DTD/svg11.dtd">
<!-- Generated by graphviz version 2.43.0 (0)
 -->
<!-- Title: Graphical Class Hierarchy Pages: 1 -->
<svg width="559pt" height="49pt"
 viewBox="0.00 0.00 559.00 49.00" xmlns="http://www.w3.org/2000/svg" xmlns:xlink="http://www.w3.org/1999/xlink">
<g id="graph0" class="graph" transform="scale(1 1) rotate(0) translate(4 45)">
<title>Graphical Class Hierarchy</title>
<!-- Node0 -->
<g id="Node000000" class="node">
<title>Node0</title>
<g id="a_Node000000"><a xlink:title=" ">
<polygon fill="#e0e0e0" stroke="#999999" points="160,-35.5 0,-35.5 0,-5.5 160,-5.5 160,-35.5"/>
<text text-anchor="start" x="8" y="-23.5" font-family="Helvetica,sans-Serif" font-size="10.00">internal::GlobalNeighborhood</text>
<text text-anchor="middle" x="80" y="-12.5" font-family="Helvetica,sans-Serif" font-size="10.00">Frame</text>
</a>
</g>
</g>
<!-- Node1 -->
<g id="Node000001" class="node">
<title>Node1</title>
<g id="a_Node000001"><a xlink:href="classPonca_1_1internal_1_1NoWeightFuncBase.html" target="_top" xlink:title=" ">
<polygon fill="white" stroke="#666666" points="362,-41 196,-41 196,0 362,0 362,-41"/>
<text text-anchor="start" x="204" y="-29" font-family="Helvetica,sans-Serif" font-size="10.00">Ponca::internal::NoWeight</text>
<text text-anchor="start" x="204" y="-18" font-family="Helvetica,sans-Serif" font-size="10.00">FuncBase&lt; DataPoint, internal</text>
<text text-anchor="middle" x="279" y="-7" font-family="Helvetica,sans-Serif" font-size="10.00">::GlobalNeighborhoodFrame &gt;</text>
</a>
</g>
</g>
<!-- Node0&#45;&gt;Node1 -->
<g id="edge75_Node000000_Node000001" class="edge">
<title>Node0&#45;&gt;Node1</title>
<g id="a_edge75_Node000000_Node000001"><a xlink:title=" ">
<path fill="none" stroke="#63b8ff" d="M170.55,-20.5C179.03,-20.5 187.59,-20.5 195.99,-20.5"/>
<polygon fill="#63b8ff" stroke="#63b8ff" points="170.28,-17 160.28,-20.5 170.28,-24 170.28,-17"/>
</a>
</g>
</g>
<!-- Node2 -->
<g id="Node000002" class="node">
<title>Node2</title>
<g id="a_Node000002"><a xlink:href="structPonca_1_1NoWeightFuncGlobal.html" target="_top" xlink:title="Weighting function that set uniform weight to all samples and keep neighbors coordinates in global fr...">
<polygon fill="white" stroke="#666666" points="551,-35.5 398,-35.5 398,-5.5 551,-5.5 551,-35.5"/>
<text text-anchor="start" x="406" y="-23.5" font-family="Helvetica,sans-Serif" font-size="10.00">Ponca::NoWeightFuncGlobal</text>
<text text-anchor="middle" x="474.5" y="-12.5" font-family="Helvetica,sans-Serif" font-size="10.00">&lt; DataPoint &gt;</text>
</a>
</g>
</g>
<!-- Node1&#45;&gt;Node2 -->
<g id="edge76_Node000001_Node000002" class="edge">
<title>Node1&#45;&gt;Node2</title>
<g id="a_edge76_Node000001_Node000002"><a xlink:title=" ">
<path fill="none" stroke="#63b8ff" d="M372.11,-20.5C380.71,-20.5 389.35,-20.5 397.77,-20.5"/>
<polygon fill="#63b8ff" stroke="#63b8ff" points="372.06,-17 362.06,-20.5 372.06,-24 372.06,-17"/>
</a>
</g>
</g>
</g>
</svg>
