<?xml version="1.0" encoding="UTF-8" standalone="no"?>
<!DOCTYPE svg PUBLIC "-//W3C//DTD SVG 1.1//EN"
 "http://www.w3.org/Graphics/SVG/1.1/DTD/svg11.dtd">
<!-- Generated by graphviz version 2.43.0 (0)
 -->
<!-- Title: Graphical Class Hierarchy Pages: 1 -->
<svg width="580pt" height="259pt"
 viewBox="0.00 0.00 580.00 259.00" xmlns="http://www.w3.org/2000/svg" xmlns:xlink="http://www.w3.org/1999/xlink">
<g id="graph0" class="graph" transform="scale(1 1) rotate(0) translate(4 255)">
<title>Graphical Class Hierarchy</title>
<polygon fill="white" stroke="transparent" points="-4,4 -4,-255 576,-255 576,4 -4,4"/>
<!-- Node103 -->
<g id="node1" class="node">
<title>Node103</title>
<g id="a_node1"><a xlink:href="classPonca_1_1Concept_1_1FittingProcedureConcept.html" target="_top" xlink:title="Describes the procedure to fit a primitive to point samples.">
<polygon fill="white" stroke="black" points="180,-122.5 180,-152.5 376,-152.5 376,-122.5 180,-122.5"/>
<text text-anchor="start" x="188" y="-140.5" font-family="Helvetica,sans-Serif" font-size="10.00">Ponca::Concept::FittingProcedure</text>
<text text-anchor="middle" x="278" y="-129.5" font-family="Helvetica,sans-Serif" font-size="10.00">Concept&lt; DataPoint, _WFunctor, T &gt;</text>
</a>
</g>
</g>
<!-- Node6 -->
<g id="node2" class="node">
<title>Node6</title>
<g id="a_node2"><a xlink:href="classPonca_1_1CovariancePlaneFit.html" target="_top" xlink:title="Plane fitting procedure using only points position.">
<polygon fill="white" stroke="black" points="414,-147.5 414,-177.5 570,-177.5 570,-147.5 414,-147.5"/>
<text text-anchor="start" x="422" y="-165.5" font-family="Helvetica,sans-Serif" font-size="10.00">Ponca::CovariancePlaneFit</text>
<text text-anchor="middle" x="492" y="-154.5" font-family="Helvetica,sans-Serif" font-size="10.00">&lt; DataPoint, _WFunctor, T &gt;</text>
</a>
</g>
</g>
<!-- Node103&#45;&gt;Node6 -->
<g id="edge1" class="edge">
<title>Node103&#45;&gt;Node6</title>
<path fill="none" stroke="midnightblue" d="M386.1,-150.13C395.42,-151.23 404.73,-152.33 413.73,-153.39"/>
<polygon fill="midnightblue" stroke="midnightblue" points="386.34,-146.63 376,-148.94 385.53,-153.59 386.34,-146.63"/>
</g>
<!-- Node7 -->
<g id="node3" class="node">
<title>Node7</title>
<g id="a_node3"><a xlink:href="classPonca_1_1MeanPlaneFit.html" target="_top" xlink:title="Plane fitting procedure computing the mean position and orientation from oriented points.">
<polygon fill="white" stroke="black" points="414,-196.5 414,-226.5 570,-226.5 570,-196.5 414,-196.5"/>
<text text-anchor="start" x="422" y="-214.5" font-family="Helvetica,sans-Serif" font-size="10.00">Ponca::MeanPlaneFit</text>
<text text-anchor="middle" x="492" y="-203.5" font-family="Helvetica,sans-Serif" font-size="10.00">&lt; DataPoint, _WFunctor, T &gt;</text>
</a>
</g>
</g>
<!-- Node103&#45;&gt;Node7 -->
<g id="edge2" class="edge">
<title>Node103&#45;&gt;Node7</title>
<path fill="none" stroke="midnightblue" d="M359.38,-155.8C365.09,-157.84 370.68,-160.06 376,-162.5 393.71,-170.61 394.47,-179.01 412,-187.5 418.84,-190.81 426.23,-193.78 433.65,-196.41"/>
<polygon fill="midnightblue" stroke="midnightblue" points="360.29,-152.42 349.7,-152.57 358.07,-159.06 360.29,-152.42"/>
</g>
<!-- Node2 -->
<g id="node4" class="node">
<title>Node2</title>
<g id="a_node4"><a xlink:href="classPonca_1_1OrientedSphereFit.html" target="_top" xlink:title="Algebraic Sphere fitting procedure on oriented point sets.">
<polygon fill="white" stroke="black" points="414,-98.5 414,-128.5 570,-128.5 570,-98.5 414,-98.5"/>
<text text-anchor="start" x="422" y="-116.5" font-family="Helvetica,sans-Serif" font-size="10.00">Ponca::OrientedSphereFit</text>
<text text-anchor="middle" x="492" y="-105.5" font-family="Helvetica,sans-Serif" font-size="10.00">&lt; DataPoint, _WFunctor, T &gt;</text>
</a>
</g>
</g>
<!-- Node103&#45;&gt;Node2 -->
<g id="edge3" class="edge">
<title>Node103&#45;&gt;Node2</title>
<path fill="none" stroke="midnightblue" d="M386.1,-125.37C395.42,-124.32 404.73,-123.27 413.73,-122.25"/>
<polygon fill="midnightblue" stroke="midnightblue" points="385.55,-121.92 376,-126.52 386.33,-128.87 385.55,-121.92"/>
</g>
<!-- Node3 -->
<g id="node5" class="node">
<title>Node3</title>
<g id="a_node5"><a xlink:href="classPonca_1_1SphereFit.html" target="_top" xlink:title="Algebraic Sphere fitting procedure on point sets without normals.">
<polygon fill="white" stroke="black" points="412,-49.5 412,-79.5 572,-79.5 572,-49.5 412,-49.5"/>
<text text-anchor="start" x="420" y="-67.5" font-family="Helvetica,sans-Serif" font-size="10.00">Ponca::SphereFit&lt; DataPoint,</text>
<text text-anchor="middle" x="492" y="-56.5" font-family="Helvetica,sans-Serif" font-size="10.00"> _WFunctor, T &gt;</text>
</a>
</g>
</g>
<!-- Node103&#45;&gt;Node3 -->
<g id="edge4" class="edge">
<title>Node103&#45;&gt;Node3</title>
<path fill="none" stroke="midnightblue" d="M361.41,-119.24C366.41,-117.48 371.31,-115.57 376,-113.5 393.6,-105.74 394.66,-97.82 412,-89.5 419.65,-85.83 427.97,-82.52 436.25,-79.61"/>
<polygon fill="midnightblue" stroke="midnightblue" points="360.1,-115.99 351.7,-122.45 362.29,-122.63 360.1,-115.99"/>
</g>
<!-- Node4 -->
<g id="node6" class="node">
<title>Node4</title>
<g id="a_node6"><a xlink:href="classPonca_1_1UnorientedSphereFit.html" target="_top" xlink:title="Algebraic Sphere fitting procedure on point sets with non&#45;oriented normals.">
<polygon fill="white" stroke="black" points="414,-0.5 414,-30.5 570,-30.5 570,-0.5 414,-0.5"/>
<text text-anchor="start" x="422" y="-18.5" font-family="Helvetica,sans-Serif" font-size="10.00">Ponca::UnorientedSphereFit</text>
<text text-anchor="middle" x="492" y="-7.5" font-family="Helvetica,sans-Serif" font-size="10.00">&lt; DataPoint, _WFunctor, T &gt;</text>
</a>
</g>
</g>
<!-- Node103&#45;&gt;Node4 -->
<g id="edge5" class="edge">
<title>Node103&#45;&gt;Node4</title>
<path fill="none" stroke="midnightblue" d="M371.13,-117.11C372.81,-115.97 374.43,-114.77 376,-113.5 404.43,-90.49 384.18,-63.24 412,-39.5 416.03,-36.06 420.55,-33.11 425.33,-30.58"/>
<polygon fill="midnightblue" stroke="midnightblue" points="369.2,-114.19 362.39,-122.31 372.77,-120.21 369.2,-114.19"/>
</g>
<!-- Node100 -->
<g id="node7" class="node">
<title>Node100</title>
<g id="a_node7"><a xlink:title=" ">
<polygon fill="white" stroke="#bfbfbf" points="35.5,-201 35.5,-220 108.5,-220 108.5,-201 35.5,-201"/>
<text text-anchor="middle" x="72" y="-208" font-family="Helvetica,sans-Serif" font-size="10.00">Hyperplane</text>
</a>
</g>
</g>
<!-- Node5 -->
<g id="node8" class="node">
<title>Node5</title>
<g id="a_node8"><a xlink:href="classPonca_1_1CompactPlane.html" target="_top" xlink:title=" ">
<polygon fill="white" stroke="black" points="206,-171.5 206,-201.5 350,-201.5 350,-171.5 206,-171.5"/>
<text text-anchor="start" x="214" y="-189.5" font-family="Helvetica,sans-Serif" font-size="10.00">Ponca::CompactPlane</text>
<text text-anchor="middle" x="278" y="-178.5" font-family="Helvetica,sans-Serif" font-size="10.00">&lt; DataPoint, _WFunctor &gt;</text>
</a>
</g>
</g>
<!-- Node100&#45;&gt;Node5 -->
<g id="edge6" class="edge">
<title>Node100&#45;&gt;Node5</title>
<path fill="none" stroke="midnightblue" d="M118.73,-205.12C144.42,-202.1 177.04,-198.26 205.98,-194.86"/>
<polygon fill="midnightblue" stroke="midnightblue" points="118.06,-201.67 108.53,-206.32 118.87,-208.63 118.06,-201.67"/>
</g>
<!-- Node9 -->
<g id="node9" class="node">
<title>Node9</title>
<g id="a_node9"><a xlink:href="classPonca_1_1CompactPlane.html" target="_top" xlink:title="Implicit hyperplane defined by an homogeneous vector .">
<polygon fill="white" stroke="black" points="200,-220.5 200,-250.5 356,-250.5 356,-220.5 200,-220.5"/>
<text text-anchor="start" x="208" y="-238.5" font-family="Helvetica,sans-Serif" font-size="10.00">Ponca::CompactPlane</text>
<text text-anchor="middle" x="278" y="-227.5" font-family="Helvetica,sans-Serif" font-size="10.00">&lt; DataPoint, _WFunctor, T &gt;</text>
</a>
</g>
</g>
<!-- Node100&#45;&gt;Node9 -->
<g id="edge9" class="edge">
<title>Node100&#45;&gt;Node9</title>
<path fill="none" stroke="midnightblue" d="M118.69,-216.1C142.52,-219.02 172.32,-222.67 199.62,-226.02"/>
<polygon fill="midnightblue" stroke="midnightblue" points="118.89,-212.6 108.53,-214.85 118.03,-219.55 118.89,-212.6"/>
</g>
<!-- Node5&#45;&gt;Node6 -->
<g id="edge7" class="edge">
<title>Node5&#45;&gt;Node6</title>
<path fill="none" stroke="midnightblue" d="M360.39,-177.29C377.94,-175.3 396.44,-173.21 413.82,-171.24"/>
<polygon fill="midnightblue" stroke="midnightblue" points="359.73,-173.84 350.18,-178.44 360.51,-180.79 359.73,-173.84"/>
</g>
<!-- Node5&#45;&gt;Node7 -->
<g id="edge8" class="edge">
<title>Node5&#45;&gt;Node7</title>
<path fill="none" stroke="midnightblue" d="M360.39,-196.1C377.94,-198.17 396.44,-200.35 413.82,-202.4"/>
<polygon fill="midnightblue" stroke="midnightblue" points="360.52,-192.59 350.18,-194.89 359.7,-199.54 360.52,-192.59"/>
</g>
<!-- Node0 -->
<g id="node10" class="node">
<title>Node0</title>
<g id="a_node10"><a xlink:href="classPonca_1_1PrimitiveBase.html" target="_top" xlink:title=" ">
<polygon fill="white" stroke="black" points="0,-124.5 0,-154.5 144,-154.5 144,-124.5 0,-124.5"/>
<text text-anchor="start" x="8" y="-142.5" font-family="Helvetica,sans-Serif" font-size="10.00">Ponca::PrimitiveBase</text>
<text text-anchor="middle" x="72" y="-131.5" font-family="Helvetica,sans-Serif" font-size="10.00">&lt; DataPoint, _WFunctor &gt;</text>
</a>
</g>
</g>
<!-- Node0&#45;&gt;Node5 -->
<g id="edge14" class="edge">
<title>Node0&#45;&gt;Node5</title>
<path fill="none" stroke="midnightblue" d="M147.92,-156.76C168.88,-161.59 191.47,-166.79 211.81,-171.48"/>
<polygon fill="midnightblue" stroke="midnightblue" points="148.64,-153.33 138.11,-154.5 147.07,-160.16 148.64,-153.33"/>
</g>
<!-- Node0&#45;&gt;Node9 -->
<g id="edge16" class="edge">
<title>Node0&#45;&gt;Node9</title>
<path fill="none" stroke="midnightblue" d="M102.2,-160.84C128.06,-179.42 164.09,-204.45 180,-211.5 187.69,-214.91 195.95,-217.89 204.28,-220.48"/>
<polygon fill="midnightblue" stroke="midnightblue" points="104.02,-157.84 93.87,-154.82 99.93,-163.51 104.02,-157.84"/>
</g>
<!-- Node1 -->
<g id="node11" class="node">
<title>Node1</title>
<g id="a_node11"><a xlink:href="classPonca_1_1AlgebraicSphere.html" target="_top" xlink:title=" ">
<polygon fill="white" stroke="black" points="206,-24.5 206,-54.5 350,-54.5 350,-24.5 206,-24.5"/>
<text text-anchor="start" x="214" y="-42.5" font-family="Helvetica,sans-Serif" font-size="10.00">Ponca::AlgebraicSphere</text>
<text text-anchor="middle" x="278" y="-31.5" font-family="Helvetica,sans-Serif" font-size="10.00">&lt; DataPoint, _WFunctor &gt;</text>
</a>
</g>
</g>
<!-- Node0&#45;&gt;Node1 -->
<g id="edge10" class="edge">
<title>Node0&#45;&gt;Node1</title>
<path fill="none" stroke="midnightblue" d="M98.3,-117.8C119.02,-101.05 149.76,-78.43 180,-64.5 188.29,-60.68 197.26,-57.37 206.28,-54.53"/>
<polygon fill="midnightblue" stroke="midnightblue" points="95.83,-115.3 90.33,-124.36 100.28,-120.71 95.83,-115.3"/>
</g>
<!-- Node8 -->
<g id="node12" class="node">
<title>Node8</title>
<g id="a_node12"><a xlink:href="classPonca_1_1AlgebraicSphere.html" target="_top" xlink:title="Algebraic Sphere primitive.">
<polygon fill="white" stroke="black" points="200,-73.5 200,-103.5 356,-103.5 356,-73.5 200,-73.5"/>
<text text-anchor="start" x="208" y="-91.5" font-family="Helvetica,sans-Serif" font-size="10.00">Ponca::AlgebraicSphere</text>
<text text-anchor="middle" x="278" y="-80.5" font-family="Helvetica,sans-Serif" font-size="10.00">&lt; DataPoint, _WFunctor, T &gt;</text>
</a>
</g>
</g>
<!-- Node0&#45;&gt;Node8 -->
<g id="edge15" class="edge">
<title>Node0&#45;&gt;Node8</title>
<path fill="none" stroke="midnightblue" d="M142.89,-122.03C166.99,-116 193.74,-109.32 216.97,-103.51"/>
<polygon fill="midnightblue" stroke="midnightblue" points="141.96,-118.65 133.1,-124.47 143.65,-125.44 141.96,-118.65"/>
</g>
<!-- Node1&#45;&gt;Node2 -->
<g id="edge11" class="edge">
<title>Node1&#45;&gt;Node2</title>
<path fill="none" stroke="midnightblue" d="M359.38,-57.8C365.09,-59.84 370.68,-62.06 376,-64.5 393.71,-72.61 394.47,-81.01 412,-89.5 418.84,-92.81 426.23,-95.78 433.65,-98.41"/>
<polygon fill="midnightblue" stroke="midnightblue" points="360.29,-54.42 349.7,-54.57 358.07,-61.06 360.29,-54.42"/>
</g>
<!-- Node1&#45;&gt;Node3 -->
<g id="edge12" class="edge">
<title>Node1&#45;&gt;Node3</title>
<path fill="none" stroke="midnightblue" d="M360.56,-49.12C377.44,-51.11 395.19,-53.2 411.98,-55.18"/>
<polygon fill="midnightblue" stroke="midnightblue" points="360.52,-45.59 350.18,-47.89 359.7,-52.54 360.52,-45.59"/>
</g>
<!-- Node1&#45;&gt;Node4 -->
<g id="edge13" class="edge">
<title>Node1&#45;&gt;Node4</title>
<path fill="none" stroke="midnightblue" d="M360.39,-30.29C377.94,-28.3 396.44,-26.21 413.82,-24.24"/>
<polygon fill="midnightblue" stroke="midnightblue" points="359.73,-26.84 350.18,-31.44 360.51,-33.79 359.73,-26.84"/>
</g>
</g>
</svg>
