<?xml version="1.0" encoding="UTF-8" standalone="no"?>
<!DOCTYPE svg PUBLIC "-//W3C//DTD SVG 1.1//EN"
 "http://www.w3.org/Graphics/SVG/1.1/DTD/svg11.dtd">
<!-- Generated by graphviz version 2.43.0 (0)
 -->
<!-- Title: Graphical Class Hierarchy Pages: 1 -->
<svg width="613pt" height="393pt"
 viewBox="0.00 0.00 613.00 393.00" xmlns="http://www.w3.org/2000/svg" xmlns:xlink="http://www.w3.org/1999/xlink">
<g id="graph0" class="graph" transform="scale(1 1) rotate(0) translate(4 389)">
<title>Graphical Class Hierarchy</title>
<!-- Node0 -->
<g id="node1" class="node">
<title>Node0</title>
<g id="a_node1"><a xlink:title=" ">
<polygon fill="#e0e0e0" stroke="#999999" points="51,-221 4,-221 4,-202 51,-202 51,-221"/>
<text text-anchor="middle" x="27.5" y="-209" font-family="Helvetica,sans-Serif" font-size="10.00">Input_</text>
</a>
</g>
</g>
<!-- Node1 -->
<g id="node2" class="node">
<title>Node1</title>
<g id="a_node2"><a xlink:href="group__spatialpartitioning.html#structPonca_1_1Query" target="_top" xlink:title=" ">
<polygon fill="white" stroke="#666666" points="208,-207.5 91,-207.5 91,-177.5 208,-177.5 208,-207.5"/>
<text text-anchor="start" x="99" y="-195.5" font-family="Helvetica,sans-Serif" font-size="10.00">Ponca::Query&lt; Input</text>
<text text-anchor="middle" x="149.5" y="-184.5" font-family="Helvetica,sans-Serif" font-size="10.00">_, Output_ &gt;</text>
</a>
</g>
</g>
<!-- Node0&#45;&gt;Node1 -->
<g id="edge1" class="edge">
<title>Node0&#45;&gt;Node1</title>
<path fill="none" stroke="#63b8ff" d="M60.97,-206.36C70.22,-204.89 80.58,-203.25 90.85,-201.63"/>
<polygon fill="#63b8ff" stroke="#63b8ff" points="60.4,-202.91 51.07,-207.93 61.5,-209.82 60.4,-202.91"/>
</g>
<!-- Node2 -->
<g id="node3" class="node">
<title>Node2</title>
<g id="a_node3"><a xlink:href="group__spatialpartitioning.html" target="_top" xlink:title=" ">
<polygon fill="white" stroke="#666666" points="397,-159 244,-159 244,-118 397,-118 397,-159"/>
<text text-anchor="start" x="252" y="-147" font-family="Helvetica,sans-Serif" font-size="10.00">Ponca::KNearestIndexQuery</text>
<text text-anchor="start" x="252" y="-136" font-family="Helvetica,sans-Serif" font-size="10.00">&lt; Traits::IndexType, Traits</text>
<text text-anchor="middle" x="320.5" y="-125" font-family="Helvetica,sans-Serif" font-size="10.00">::DataPoint::Scalar &gt;</text>
</a>
</g>
</g>
<!-- Node1&#45;&gt;Node2 -->
<g id="edge2" class="edge">
<title>Node1&#45;&gt;Node2</title>
<path fill="none" stroke="#63b8ff" d="M207.46,-174.3C222.83,-169.39 239.57,-164.04 255.31,-159.01"/>
<polygon fill="#63b8ff" stroke="#63b8ff" points="206.04,-171.08 197.58,-177.46 208.17,-177.75 206.04,-171.08"/>
</g>
<!-- Node6 -->
<g id="node5" class="node">
<title>Node6</title>
<g id="a_node5"><a xlink:href="group__spatialpartitioning.html" target="_top" xlink:title=" ">
<polygon fill="white" stroke="#666666" points="396,-100 245,-100 245,-59 396,-59 396,-100"/>
<text text-anchor="start" x="253" y="-88" font-family="Helvetica,sans-Serif" font-size="10.00">Ponca::KNearestPointQuery</text>
<text text-anchor="start" x="253" y="-77" font-family="Helvetica,sans-Serif" font-size="10.00">&lt; Traits::IndexType, Traits</text>
<text text-anchor="middle" x="320.5" y="-66" font-family="Helvetica,sans-Serif" font-size="10.00">::DataPoint &gt;</text>
</a>
</g>
</g>
<!-- Node1&#45;&gt;Node6 -->
<g id="edge4" class="edge">
<title>Node1&#45;&gt;Node6</title>
<path fill="none" stroke="#63b8ff" d="M171.09,-169.87C188.92,-151.36 216.15,-125.55 244,-108.5 248.91,-105.49 254.18,-102.71 259.58,-100.15"/>
<polygon fill="#63b8ff" stroke="#63b8ff" points="168.38,-167.64 164.05,-177.31 173.47,-172.45 168.38,-167.64"/>
</g>
<!-- Node8 -->
<g id="node7" class="node">
<title>Node8</title>
<g id="a_node7"><a xlink:href="group__spatialpartitioning.html" target="_top" xlink:title=" ">
<polygon fill="white" stroke="#666666" points="393.5,-41 247.5,-41 247.5,0 393.5,0 393.5,-41"/>
<text text-anchor="start" x="255.5" y="-29" font-family="Helvetica,sans-Serif" font-size="10.00">Ponca::NearestIndexQuery</text>
<text text-anchor="start" x="255.5" y="-18" font-family="Helvetica,sans-Serif" font-size="10.00">&lt; Traits::IndexType, Traits</text>
<text text-anchor="middle" x="320.5" y="-7" font-family="Helvetica,sans-Serif" font-size="10.00">::DataPoint::Scalar &gt;</text>
</a>
</g>
</g>
<!-- Node1&#45;&gt;Node8 -->
<g id="edge6" class="edge">
<title>Node1&#45;&gt;Node8</title>
<path fill="none" stroke="#63b8ff" d="M160.74,-167.95C175.03,-136.43 203.81,-81.95 244,-49.5 247.82,-46.41 252.01,-43.63 256.4,-41.12"/>
<polygon fill="#63b8ff" stroke="#63b8ff" points="157.44,-166.75 156.61,-177.32 163.84,-169.58 157.44,-166.75"/>
</g>
<!-- Node10 -->
<g id="node9" class="node">
<title>Node10</title>
<g id="a_node9"><a xlink:href="group__spatialpartitioning.html" target="_top" xlink:title=" ">
<polygon fill="white" stroke="#666666" points="392.5,-385 248.5,-385 248.5,-344 392.5,-344 392.5,-385"/>
<text text-anchor="start" x="256.5" y="-373" font-family="Helvetica,sans-Serif" font-size="10.00">Ponca::NearestPointQuery</text>
<text text-anchor="start" x="256.5" y="-362" font-family="Helvetica,sans-Serif" font-size="10.00">&lt; Traits::IndexType, Traits</text>
<text text-anchor="middle" x="320.5" y="-351" font-family="Helvetica,sans-Serif" font-size="10.00">::DataPoint &gt;</text>
</a>
</g>
</g>
<!-- Node1&#45;&gt;Node10 -->
<g id="edge8" class="edge">
<title>Node1&#45;&gt;Node10</title>
<path fill="none" stroke="#63b8ff" d="M160.74,-217.05C175.03,-248.57 203.81,-303.05 244,-335.5 247.82,-338.59 252.01,-341.37 256.4,-343.88"/>
<polygon fill="#63b8ff" stroke="#63b8ff" points="163.84,-215.42 156.61,-207.68 157.44,-218.25 163.84,-215.42"/>
</g>
<!-- Node12 -->
<g id="node11" class="node">
<title>Node12</title>
<g id="a_node11"><a xlink:href="group__spatialpartitioning.html" target="_top" xlink:title=" ">
<polygon fill="white" stroke="#666666" points="391.5,-326 249.5,-326 249.5,-285 391.5,-285 391.5,-326"/>
<text text-anchor="start" x="257.5" y="-314" font-family="Helvetica,sans-Serif" font-size="10.00">Ponca::RangeIndexQuery</text>
<text text-anchor="start" x="257.5" y="-303" font-family="Helvetica,sans-Serif" font-size="10.00">&lt; Traits::IndexType, Traits</text>
<text text-anchor="middle" x="320.5" y="-292" font-family="Helvetica,sans-Serif" font-size="10.00">::DataPoint::Scalar &gt;</text>
</a>
</g>
</g>
<!-- Node1&#45;&gt;Node12 -->
<g id="edge10" class="edge">
<title>Node1&#45;&gt;Node12</title>
<path fill="none" stroke="#63b8ff" d="M171.51,-215.08C189.4,-233.29 216.51,-258.57 244,-275.5 249.52,-278.9 255.5,-282.05 261.59,-284.93"/>
<polygon fill="#63b8ff" stroke="#63b8ff" points="173.89,-212.51 164.43,-207.76 168.86,-217.38 173.89,-212.51"/>
</g>
<!-- Node14 -->
<g id="node13" class="node">
<title>Node14</title>
<g id="a_node13"><a xlink:href="group__spatialpartitioning.html" target="_top" xlink:title=" ">
<polygon fill="white" stroke="#666666" points="391.5,-267 249.5,-267 249.5,-226 391.5,-226 391.5,-267"/>
<text text-anchor="start" x="257.5" y="-255" font-family="Helvetica,sans-Serif" font-size="10.00">Ponca::RangePointQuery</text>
<text text-anchor="start" x="257.5" y="-244" font-family="Helvetica,sans-Serif" font-size="10.00">&lt; Traits::IndexType, Traits</text>
<text text-anchor="middle" x="320.5" y="-233" font-family="Helvetica,sans-Serif" font-size="10.00">::DataPoint &gt;</text>
</a>
</g>
</g>
<!-- Node1&#45;&gt;Node14 -->
<g id="edge12" class="edge">
<title>Node1&#45;&gt;Node14</title>
<path fill="none" stroke="#63b8ff" d="M207.46,-210.7C222.83,-215.61 239.57,-220.96 255.31,-225.99"/>
<polygon fill="#63b8ff" stroke="#63b8ff" points="208.17,-207.25 197.58,-207.54 206.04,-213.92 208.17,-207.25"/>
</g>
<!-- Node3 -->
<g id="node4" class="node">
<title>Node3</title>
<g id="a_node4"><a xlink:href="classPonca_1_1KdTreeKNearestIndexQuery.html" target="_top" xlink:title=" ">
<polygon fill="white" stroke="#666666" points="597.5,-156.5 440.5,-156.5 440.5,-126.5 597.5,-126.5 597.5,-156.5"/>
<text text-anchor="start" x="448.5" y="-144.5" font-family="Helvetica,sans-Serif" font-size="10.00">Ponca::KdTreeKNearestIndex</text>
<text text-anchor="middle" x="519" y="-133.5" font-family="Helvetica,sans-Serif" font-size="10.00">Query&lt; Traits &gt;</text>
</a>
</g>
</g>
<!-- Node2&#45;&gt;Node3 -->
<g id="edge3" class="edge">
<title>Node2&#45;&gt;Node3</title>
<path fill="none" stroke="#63b8ff" d="M407.24,-139.81C418.27,-139.98 429.51,-140.15 440.4,-140.32"/>
<polygon fill="#63b8ff" stroke="#63b8ff" points="407.24,-136.31 397.19,-139.66 407.14,-143.31 407.24,-136.31"/>
</g>
<!-- Node5 -->
<g id="node6" class="node">
<title>Node5</title>
<g id="a_node6"><a xlink:href="classPonca_1_1KdTreeKNearestPointQuery.html" target="_top" xlink:title=" ">
<polygon fill="white" stroke="#666666" points="596.5,-101.5 441.5,-101.5 441.5,-71.5 596.5,-71.5 596.5,-101.5"/>
<text text-anchor="start" x="449.5" y="-89.5" font-family="Helvetica,sans-Serif" font-size="10.00">Ponca::KdTreeKNearestPoint</text>
<text text-anchor="middle" x="519" y="-78.5" font-family="Helvetica,sans-Serif" font-size="10.00">Query&lt; Traits &gt;</text>
</a>
</g>
</g>
<!-- Node6&#45;&gt;Node5 -->
<g id="edge5" class="edge">
<title>Node6&#45;&gt;Node5</title>
<path fill="none" stroke="#63b8ff" d="M406.2,-82.52C417.83,-82.93 429.72,-83.36 441.2,-83.76"/>
<polygon fill="#63b8ff" stroke="#63b8ff" points="406.19,-79.01 396.07,-82.16 405.94,-86.01 406.19,-79.01"/>
</g>
<!-- Node7 -->
<g id="node8" class="node">
<title>Node7</title>
<g id="a_node8"><a xlink:href="classPonca_1_1KdTreeNearestIndexQuery.html" target="_top" xlink:title=" ">
<polygon fill="white" stroke="#666666" points="594,-48.5 444,-48.5 444,-18.5 594,-18.5 594,-48.5"/>
<text text-anchor="start" x="452" y="-36.5" font-family="Helvetica,sans-Serif" font-size="10.00">Ponca::KdTreeNearestIndex</text>
<text text-anchor="middle" x="519" y="-25.5" font-family="Helvetica,sans-Serif" font-size="10.00">Query&lt; Traits &gt;</text>
</a>
</g>
</g>
<!-- Node8&#45;&gt;Node7 -->
<g id="edge7" class="edge">
<title>Node8&#45;&gt;Node7</title>
<path fill="none" stroke="#63b8ff" d="M403.68,-25.94C417.05,-26.82 430.82,-27.73 443.98,-28.6"/>
<polygon fill="#63b8ff" stroke="#63b8ff" points="403.76,-22.43 393.55,-25.27 403.3,-29.42 403.76,-22.43"/>
</g>
<!-- Node9 -->
<g id="node10" class="node">
<title>Node9</title>
<g id="a_node10"><a xlink:href="classPonca_1_1KdTreeNearestPointQuery.html" target="_top" xlink:title=" ">
<polygon fill="white" stroke="#666666" points="593,-368.5 445,-368.5 445,-338.5 593,-338.5 593,-368.5"/>
<text text-anchor="start" x="453" y="-356.5" font-family="Helvetica,sans-Serif" font-size="10.00">Ponca::KdTreeNearestPoint</text>
<text text-anchor="middle" x="519" y="-345.5" font-family="Helvetica,sans-Serif" font-size="10.00">Query&lt; Traits &gt;</text>
</a>
</g>
</g>
<!-- Node10&#45;&gt;Node9 -->
<g id="edge9" class="edge">
<title>Node10&#45;&gt;Node9</title>
<path fill="none" stroke="#63b8ff" d="M402.75,-359.95C416.65,-359.17 431.03,-358.37 444.71,-357.6"/>
<polygon fill="#63b8ff" stroke="#63b8ff" points="402.51,-356.46 392.72,-360.51 402.9,-363.45 402.51,-356.46"/>
</g>
<!-- Node11 -->
<g id="node12" class="node">
<title>Node11</title>
<g id="a_node12"><a xlink:href="classPonca_1_1KdTreeRangeIndexQuery.html" target="_top" xlink:title=" ">
<polygon fill="white" stroke="#666666" points="605,-298.5 433,-298.5 433,-268.5 605,-268.5 605,-298.5"/>
<text text-anchor="start" x="441" y="-286.5" font-family="Helvetica,sans-Serif" font-size="10.00">Ponca::KdTreeRangeIndexQuery</text>
<text text-anchor="middle" x="519" y="-275.5" font-family="Helvetica,sans-Serif" font-size="10.00">&lt; Traits &gt;</text>
</a>
</g>
</g>
<!-- Node12&#45;&gt;Node11 -->
<g id="edge11" class="edge">
<title>Node12&#45;&gt;Node11</title>
<path fill="none" stroke="#63b8ff" d="M401.74,-296.52C411.97,-295.37 422.47,-294.2 432.78,-293.04"/>
<polygon fill="#63b8ff" stroke="#63b8ff" points="401.16,-293.06 391.61,-297.65 401.94,-300.02 401.16,-293.06"/>
</g>
<!-- Node13 -->
<g id="node14" class="node">
<title>Node13</title>
<g id="a_node14"><a xlink:href="classPonca_1_1KdTreeRangePointQuery.html" target="_top" xlink:title=" ">
<polygon fill="white" stroke="#666666" points="604,-218.5 434,-218.5 434,-188.5 604,-188.5 604,-218.5"/>
<text text-anchor="start" x="442" y="-206.5" font-family="Helvetica,sans-Serif" font-size="10.00">Ponca::KdTreeRangePointQuery</text>
<text text-anchor="middle" x="519" y="-195.5" font-family="Helvetica,sans-Serif" font-size="10.00">&lt; Traits &gt;</text>
</a>
</g>
</g>
<!-- Node14&#45;&gt;Node13 -->
<g id="edge13" class="edge">
<title>Node14&#45;&gt;Node13</title>
<path fill="none" stroke="#63b8ff" d="M401.39,-229.02C417.25,-225.55 433.78,-221.93 449.24,-218.55"/>
<polygon fill="#63b8ff" stroke="#63b8ff" points="400.63,-225.6 391.61,-231.16 402.13,-232.44 400.63,-225.6"/>
</g>
<!-- Node4 -->
<g id="node15" class="node">
<title>Node4</title>
<g id="a_node15"><a xlink:href="classPonca_1_1KdTreeQuery.html" target="_top" xlink:title=" ">
<polygon fill="white" stroke="#666666" points="377.5,-207.5 263.5,-207.5 263.5,-177.5 377.5,-177.5 377.5,-207.5"/>
<text text-anchor="start" x="271.5" y="-195.5" font-family="Helvetica,sans-Serif" font-size="10.00">Ponca::KdTreeQuery</text>
<text text-anchor="middle" x="320.5" y="-184.5" font-family="Helvetica,sans-Serif" font-size="10.00">&lt; Traits &gt;</text>
</a>
</g>
</g>
<!-- Node4&#45;&gt;Node3 -->
<g id="edge14" class="edge">
<title>Node4&#45;&gt;Node3</title>
<path fill="none" stroke="#63b8ff" d="M387.45,-175.38C411.01,-169.27 437.35,-162.43 460.17,-156.51"/>
<polygon fill="#63b8ff" stroke="#63b8ff" points="386.35,-172.05 377.55,-177.95 388.1,-178.83 386.35,-172.05"/>
</g>
<!-- Node4&#45;&gt;Node5 -->
<g id="edge15" class="edge">
<title>Node4&#45;&gt;Node5</title>
<path fill="none" stroke="#63b8ff" d="M386.71,-173.98C390.31,-172.02 393.77,-169.87 397,-167.5 419.07,-151.3 411.17,-134.03 433,-117.5 441.51,-111.05 451.5,-105.84 461.58,-101.67"/>
<polygon fill="#63b8ff" stroke="#63b8ff" points="384.97,-170.93 377.5,-178.44 388.03,-177.22 384.97,-170.93"/>
</g>
<!-- Node4&#45;&gt;Node7 -->
<g id="edge16" class="edge">
<title>Node4&#45;&gt;Node7</title>
<path fill="none" stroke="#63b8ff" d="M386.72,-175.6C390.43,-173.24 393.91,-170.56 397,-167.5 432.07,-132.8 398.09,-97.36 433,-62.5 438.63,-56.88 445.39,-52.35 452.6,-48.7"/>
<polygon fill="#63b8ff" stroke="#63b8ff" points="384.79,-172.67 377.68,-180.52 388.13,-178.82 384.79,-172.67"/>
</g>
<!-- Node4&#45;&gt;Node9 -->
<g id="edge17" class="edge">
<title>Node4&#45;&gt;Node9</title>
<path fill="none" stroke="#63b8ff" d="M386.75,-208.8C390.43,-211.04 393.89,-213.6 397,-216.5 428.8,-246.18 404.13,-274.97 433,-307.5 444.8,-320.8 461.41,-330.98 476.81,-338.33"/>
<polygon fill="#63b8ff" stroke="#63b8ff" points="388.3,-205.66 377.82,-204.11 385.04,-211.86 388.3,-205.66"/>
</g>
<!-- Node4&#45;&gt;Node11 -->
<g id="edge18" class="edge">
<title>Node4&#45;&gt;Node11</title>
<path fill="none" stroke="#63b8ff" d="M383.25,-211.01C387.95,-212.76 392.57,-214.59 397,-216.5 432.06,-231.6 470.25,-253.79 494.15,-268.44"/>
<polygon fill="#63b8ff" stroke="#63b8ff" points="384.17,-207.63 373.58,-207.56 381.82,-214.22 384.17,-207.63"/>
</g>
<!-- Node4&#45;&gt;Node13 -->
<g id="edge19" class="edge">
<title>Node4&#45;&gt;Node13</title>
<path fill="none" stroke="#63b8ff" d="M387.59,-196.2C402.37,-197.03 418.24,-197.92 433.65,-198.78"/>
<polygon fill="#63b8ff" stroke="#63b8ff" points="387.73,-192.7 377.55,-195.64 387.33,-199.69 387.73,-192.7"/>
</g>
<!-- Node15 -->
<g id="node16" class="node">
<title>Node15</title>
<g id="a_node16"><a xlink:title=" ">
<polygon fill="#e0e0e0" stroke="#999999" points="55,-184 0,-184 0,-165 55,-165 55,-184"/>
<text text-anchor="middle" x="27.5" y="-172" font-family="Helvetica,sans-Serif" font-size="10.00">Output_</text>
</a>
</g>
</g>
<!-- Node15&#45;&gt;Node1 -->
<g id="edge20" class="edge">
<title>Node15&#45;&gt;Node1</title>
<path fill="none" stroke="#63b8ff" d="M65.09,-179.99C73.28,-181.22 82.17,-182.55 90.99,-183.87"/>
<polygon fill="#63b8ff" stroke="#63b8ff" points="65.54,-176.52 55.13,-178.49 64.5,-183.44 65.54,-176.52"/>
</g>
</g>
</svg>
