<?xml version="1.0" encoding="UTF-8" standalone="no"?>
<!DOCTYPE svg PUBLIC "-//W3C//DTD SVG 1.1//EN"
 "http://www.w3.org/Graphics/SVG/1.1/DTD/svg11.dtd">
<!-- Generated by graphviz version 2.43.0 (0)
 -->
<!-- Title: Graphical Class Hierarchy Pages: 1 -->
<svg width="389pt" height="374pt"
 viewBox="0.00 0.00 389.00 374.00" xmlns="http://www.w3.org/2000/svg" xmlns:xlink="http://www.w3.org/1999/xlink">
<g id="graph0" class="graph" transform="scale(1 1) rotate(0) translate(4 370)">
<title>Graphical Class Hierarchy</title>
<!-- Node0 -->
<g id="Node000000" class="node">
<title>Node0</title>
<g id="a_Node000000"><a xlink:title=" ">
<polygon fill="#e0e0e0" stroke="#999999" points="167,-192.5 0,-192.5 0,-173.5 167,-173.5 167,-192.5"/>
<text text-anchor="middle" x="83.5" y="-180.5" font-family="Helvetica,sans-Serif" font-size="10.00">Concept::WeightKernelConcept</text>
</a>
</g>
</g>
<!-- Node1 -->
<g id="Node000001" class="node">
<title>Node1</title>
<g id="a_Node000001"><a xlink:href="classPonca_1_1ConstantWeightKernel.html" target="_top" xlink:title=" ">
<polygon fill="white" stroke="#666666" points="372,-366 212,-366 212,-336 372,-336 372,-366"/>
<text text-anchor="start" x="220" y="-354" font-family="Helvetica,sans-Serif" font-size="10.00">Ponca::ConstantWeightKernel</text>
<text text-anchor="middle" x="292" y="-343" font-family="Helvetica,sans-Serif" font-size="10.00">&lt; Scalar &gt;</text>
</a>
</g>
</g>
<!-- Node0&#45;&gt;Node1 -->
<g id="edge60_Node000000_Node000001" class="edge">
<title>Node0&#45;&gt;Node1</title>
<g id="a_edge60_Node000000_Node000001"><a xlink:title=" ">
<path fill="none" stroke="#63b8ff" d="M94.67,-201.68C112.46,-232.58 152.23,-294.15 203,-327 208.32,-330.44 214.12,-333.39 220.13,-335.92"/>
<polygon fill="#63b8ff" stroke="#63b8ff" points="97.63,-199.81 89.68,-192.81 91.53,-203.24 97.63,-199.81"/>
</a>
</g>
</g>
<!-- Node2 -->
<g id="Node000002" class="node">
<title>Node2</title>
<g id="a_Node000002"><a xlink:href="classPonca_1_1CompactExpWeightKernel.html" target="_top" xlink:title="Compact Exponential WeightKernel defined in .">
<polygon fill="white" stroke="#666666" points="381,-318 203,-318 203,-288 381,-288 381,-318"/>
<text text-anchor="start" x="211" y="-306" font-family="Helvetica,sans-Serif" font-size="10.00">Ponca::CompactExpWeightKernel</text>
<text text-anchor="middle" x="292" y="-295" font-family="Helvetica,sans-Serif" font-size="10.00">&lt; _Scalar &gt;</text>
</a>
</g>
</g>
<!-- Node0&#45;&gt;Node2 -->
<g id="edge61_Node000000_Node000002" class="edge">
<title>Node0&#45;&gt;Node2</title>
<g id="a_edge61_Node000000_Node000002"><a xlink:title=" ">
<path fill="none" stroke="#63b8ff" d="M100.69,-199.89C122.14,-221.33 162.08,-258.03 203,-279 209.62,-282.39 216.78,-285.35 224.05,-287.92"/>
<polygon fill="#63b8ff" stroke="#63b8ff" points="103.16,-197.42 93.65,-192.74 98.17,-202.33 103.16,-197.42"/>
</a>
</g>
</g>
<!-- Node3 -->
<g id="Node000003" class="node">
<title>Node3</title>
<g id="a_Node000003"><a xlink:href="classPonca_1_1ConstantWeightKernel.html" target="_top" xlink:title="Concept::WeightKernelConcept returning a constant value.">
<polygon fill="white" stroke="#666666" points="372,-270 212,-270 212,-240 372,-240 372,-270"/>
<text text-anchor="start" x="220" y="-258" font-family="Helvetica,sans-Serif" font-size="10.00">Ponca::ConstantWeightKernel</text>
<text text-anchor="middle" x="292" y="-247" font-family="Helvetica,sans-Serif" font-size="10.00">&lt; _Scalar &gt;</text>
</a>
</g>
</g>
<!-- Node0&#45;&gt;Node3 -->
<g id="edge62_Node000000_Node000003" class="edge">
<title>Node0&#45;&gt;Node3</title>
<g id="a_edge62_Node000000_Node000003"><a xlink:title=" ">
<path fill="none" stroke="#63b8ff" d="M115.24,-196.62C138.94,-206.84 172.69,-220.77 203,-231 212.3,-234.14 222.26,-237.17 232.01,-239.95"/>
<polygon fill="#63b8ff" stroke="#63b8ff" points="116.62,-193.41 106.05,-192.63 113.83,-199.83 116.62,-193.41"/>
</a>
</g>
</g>
<!-- Node4 -->
<g id="Node000004" class="node">
<title>Node4</title>
<g id="a_Node000004"><a xlink:href="classPonca_1_1GaussianWeightKernel.html" target="_top" xlink:title="Non&#45;compact Gaussian WeightKernel.">
<polygon fill="white" stroke="#666666" points="372.5,-222 211.5,-222 211.5,-192 372.5,-192 372.5,-222"/>
<text text-anchor="start" x="219.5" y="-210" font-family="Helvetica,sans-Serif" font-size="10.00">Ponca::GaussianWeightKernel</text>
<text text-anchor="middle" x="292" y="-199" font-family="Helvetica,sans-Serif" font-size="10.00">&lt; _Scalar &gt;</text>
</a>
</g>
</g>
<!-- Node0&#45;&gt;Node4 -->
<g id="edge63_Node000000_Node000004" class="edge">
<title>Node0&#45;&gt;Node4</title>
<g id="a_edge63_Node000000_Node000004"><a xlink:title=" ">
<path fill="none" stroke="#63b8ff" d="M176.52,-193.69C188.09,-195.04 199.85,-196.41 211.21,-197.73"/>
<polygon fill="#63b8ff" stroke="#63b8ff" points="176.75,-190.2 166.41,-192.52 175.94,-197.15 176.75,-190.2"/>
</a>
</g>
</g>
<!-- Node5 -->
<g id="Node000005" class="node">
<title>Node5</title>
<g id="a_Node000005"><a xlink:href="classPonca_1_1PolynomialSmoothWeightKernel.html" target="_top" xlink:title="Compact generalised version of SmoothWeightKernel with arbitrary degrees : .">
<polygon fill="white" stroke="#666666" points="381,-174 203,-174 203,-144 381,-144 381,-174"/>
<text text-anchor="start" x="211" y="-162" font-family="Helvetica,sans-Serif" font-size="10.00">Ponca::PolynomialSmoothWeight</text>
<text text-anchor="middle" x="292" y="-151" font-family="Helvetica,sans-Serif" font-size="10.00">Kernel&lt; _Scalar, m, n &gt;</text>
</a>
</g>
</g>
<!-- Node0&#45;&gt;Node5 -->
<g id="edge64_Node000000_Node000005" class="edge">
<title>Node0&#45;&gt;Node5</title>
<g id="a_edge64_Node000000_Node000005"><a xlink:title=" ">
<path fill="none" stroke="#63b8ff" d="M176.56,-172.3C185.26,-171.29 194.07,-170.27 202.74,-169.26"/>
<polygon fill="#63b8ff" stroke="#63b8ff" points="175.94,-168.85 166.41,-173.48 176.75,-175.8 175.94,-168.85"/>
</a>
</g>
</g>
<!-- Node6 -->
<g id="Node000006" class="node">
<title>Node6</title>
<g id="a_Node000006"><a xlink:href="classPonca_1_1SingularWeightKernel.html" target="_top" xlink:title="Compact singular WeightKernel defined in .">
<polygon fill="white" stroke="#666666" points="370,-126 214,-126 214,-96 370,-96 370,-126"/>
<text text-anchor="start" x="222" y="-114" font-family="Helvetica,sans-Serif" font-size="10.00">Ponca::SingularWeightKernel</text>
<text text-anchor="middle" x="292" y="-103" font-family="Helvetica,sans-Serif" font-size="10.00">&lt; _Scalar &gt;</text>
</a>
</g>
</g>
<!-- Node0&#45;&gt;Node6 -->
<g id="edge65_Node000000_Node000006" class="edge">
<title>Node0&#45;&gt;Node6</title>
<g id="a_edge65_Node000000_Node000006"><a xlink:title=" ">
<path fill="none" stroke="#63b8ff" d="M115.24,-169.38C138.94,-159.16 172.69,-145.23 203,-135 212.3,-131.86 222.26,-128.83 232.01,-126.05"/>
<polygon fill="#63b8ff" stroke="#63b8ff" points="113.83,-166.17 106.05,-173.37 116.62,-172.59 113.83,-166.17"/>
</a>
</g>
</g>
<!-- Node7 -->
<g id="Node000007" class="node">
<title>Node7</title>
<g id="a_Node000007"><a xlink:href="classPonca_1_1SmoothWeightKernel.html" target="_top" xlink:title="Compact smooth WeightKernel of 2nd degree, defined in &#160;Special case of PolynomialSmoothWeightKernel&lt;S...">
<polygon fill="white" stroke="#666666" points="369,-78 215,-78 215,-48 369,-48 369,-78"/>
<text text-anchor="start" x="223" y="-66" font-family="Helvetica,sans-Serif" font-size="10.00">Ponca::SmoothWeightKernel</text>
<text text-anchor="middle" x="292" y="-55" font-family="Helvetica,sans-Serif" font-size="10.00">&lt; _Scalar &gt;</text>
</a>
</g>
</g>
<!-- Node0&#45;&gt;Node7 -->
<g id="edge66_Node000000_Node000007" class="edge">
<title>Node0&#45;&gt;Node7</title>
<g id="a_edge66_Node000000_Node000007"><a xlink:title=" ">
<path fill="none" stroke="#63b8ff" d="M100.69,-166.11C122.14,-144.67 162.08,-107.97 203,-87 209.62,-83.61 216.78,-80.65 224.05,-78.08"/>
<polygon fill="#63b8ff" stroke="#63b8ff" points="98.17,-163.67 93.65,-173.26 103.16,-168.58 98.17,-163.67"/>
</a>
</g>
</g>
<!-- Node8 -->
<g id="Node000008" class="node">
<title>Node8</title>
<g id="a_Node000008"><a xlink:href="classPonca_1_1WendlandWeightKernel.html" target="_top" xlink:title="Compact Wendland WeightKernel defined in .">
<polygon fill="white" stroke="#666666" points="374,-30 210,-30 210,0 374,0 374,-30"/>
<text text-anchor="start" x="218" y="-18" font-family="Helvetica,sans-Serif" font-size="10.00">Ponca::WendlandWeightKernel</text>
<text text-anchor="middle" x="292" y="-7" font-family="Helvetica,sans-Serif" font-size="10.00">&lt; _Scalar &gt;</text>
</a>
</g>
</g>
<!-- Node0&#45;&gt;Node8 -->
<g id="edge67_Node000000_Node000008" class="edge">
<title>Node0&#45;&gt;Node8</title>
<g id="a_edge67_Node000000_Node000008"><a xlink:title=" ">
<path fill="none" stroke="#63b8ff" d="M94.67,-164.32C112.46,-133.42 152.23,-71.85 203,-39 208.32,-35.56 214.12,-32.61 220.13,-30.08"/>
<polygon fill="#63b8ff" stroke="#63b8ff" points="91.53,-162.76 89.68,-173.19 97.63,-166.19 91.53,-162.76"/>
</a>
</g>
</g>
</g>
</svg>
