<?xml version="1.0" encoding="UTF-8" standalone="no"?>
<!DOCTYPE svg PUBLIC "-//W3C//DTD SVG 1.1//EN"
 "http://www.w3.org/Graphics/SVG/1.1/DTD/svg11.dtd">
<!-- Generated by graphviz version 2.43.0 (0)
 -->
<!-- Title: Graphical Class Hierarchy Pages: 1 -->
<svg width="615pt" height="108pt"
 viewBox="0.00 0.00 615.00 108.00" xmlns="http://www.w3.org/2000/svg" xmlns:xlink="http://www.w3.org/1999/xlink">
<g id="graph0" class="graph" transform="scale(1 1) rotate(0) translate(4 104)">
<title>Graphical Class Hierarchy</title>
<!-- Node0 -->
<g id="Node000000" class="node">
<title>Node0</title>
<g id="a_Node000000"><a xlink:title=" ">
<polygon fill="#e0e0e0" stroke="#999999" points="51,-78 4,-78 4,-59 51,-59 51,-78"/>
<text text-anchor="middle" x="27.5" y="-66" font-family="Helvetica,sans-Serif" font-size="10.00">Input_</text>
</a>
</g>
</g>
<!-- Node1 -->
<g id="Node000001" class="node">
<title>Node1</title>
<g id="a_Node000001"><a xlink:href="group__spatialpartitioning.html#structPonca_1_1Query" target="_top" xlink:title="Composes the Query object depending on an input type and output type.">
<polygon fill="white" stroke="#666666" points="208,-64.5 91,-64.5 91,-34.5 208,-34.5 208,-64.5"/>
<text text-anchor="start" x="99" y="-52.5" font-family="Helvetica,sans-Serif" font-size="10.00">Ponca::Query&lt; Input</text>
<text text-anchor="middle" x="149.5" y="-41.5" font-family="Helvetica,sans-Serif" font-size="10.00">_, Output_ &gt;</text>
</a>
</g>
</g>
<!-- Node0&#45;&gt;Node1 -->
<g id="edge59_Node000000_Node000001" class="edge">
<title>Node0&#45;&gt;Node1</title>
<g id="a_edge59_Node000000_Node000001"><a xlink:title=" ">
<path fill="none" stroke="#63b8ff" d="M60.97,-63.36C70.22,-61.89 80.58,-60.25 90.85,-58.63"/>
<polygon fill="#63b8ff" stroke="#63b8ff" points="60.4,-59.91 51.07,-64.93 61.5,-66.82 60.4,-59.91"/>
</a>
</g>
</g>
<!-- Node2 -->
<g id="Node000002" class="node">
<title>Node2</title>
<g id="a_Node000002"><a xlink:href="group__spatialpartitioning.html" target="_top" xlink:title=" ">
<polygon fill="white" stroke="#666666" points="397,-100 244,-100 244,-59 397,-59 397,-100"/>
<text text-anchor="start" x="252" y="-88" font-family="Helvetica,sans-Serif" font-size="10.00">Ponca::KNearestIndexQuery</text>
<text text-anchor="start" x="252" y="-77" font-family="Helvetica,sans-Serif" font-size="10.00">&lt; Traits::IndexType, Traits</text>
<text text-anchor="middle" x="320.5" y="-66" font-family="Helvetica,sans-Serif" font-size="10.00">::DataPoint::Scalar &gt;</text>
</a>
</g>
</g>
<!-- Node1&#45;&gt;Node2 -->
<g id="edge60_Node000001_Node000002" class="edge">
<title>Node1&#45;&gt;Node2</title>
<g id="a_edge60_Node000001_Node000002"><a xlink:title=" ">
<path fill="none" stroke="#63b8ff" d="M218.3,-61.54C226.7,-63.03 235.33,-64.56 243.84,-66.07"/>
<polygon fill="#63b8ff" stroke="#63b8ff" points="218.65,-58.04 208.19,-59.74 217.42,-64.93 218.65,-58.04"/>
</a>
</g>
</g>
<!-- Node4 -->
<g id="Node000004" class="node">
<title>Node4</title>
<g id="a_Node000004"><a xlink:href="group__spatialpartitioning.html" target="_top" xlink:title=" ">
<polygon fill="white" stroke="#666666" points="391.5,-41 249.5,-41 249.5,0 391.5,0 391.5,-41"/>
<text text-anchor="start" x="257.5" y="-29" font-family="Helvetica,sans-Serif" font-size="10.00">Ponca::RangeIndexQuery</text>
<text text-anchor="start" x="257.5" y="-18" font-family="Helvetica,sans-Serif" font-size="10.00">&lt; Traits::IndexType, Traits</text>
<text text-anchor="middle" x="320.5" y="-7" font-family="Helvetica,sans-Serif" font-size="10.00">::DataPoint::Scalar &gt;</text>
</a>
</g>
</g>
<!-- Node1&#45;&gt;Node4 -->
<g id="edge62_Node000001_Node000004" class="edge">
<title>Node1&#45;&gt;Node4</title>
<g id="a_edge62_Node000001_Node000004"><a xlink:title=" ">
<path fill="none" stroke="#63b8ff" d="M218.24,-37.88C228.44,-36.13 238.97,-34.32 249.21,-32.56"/>
<polygon fill="#63b8ff" stroke="#63b8ff" points="217.45,-34.46 208.19,-39.6 218.64,-41.36 217.45,-34.46"/>
</a>
</g>
</g>
<!-- Node3 -->
<g id="Node000003" class="node">
<title>Node3</title>
<g id="a_Node000003"><a xlink:href="classPonca_1_1KnnGraphKNearestQuery.html" target="_top" xlink:title="Extension of the Query class that allows to read the result of a k&#45;nearest neighbors search on the Kn...">
<polygon fill="white" stroke="#666666" points="607,-94.5 433,-94.5 433,-64.5 607,-64.5 607,-94.5"/>
<text text-anchor="start" x="441" y="-82.5" font-family="Helvetica,sans-Serif" font-size="10.00">Ponca::KnnGraphKNearestQuery</text>
<text text-anchor="middle" x="520" y="-71.5" font-family="Helvetica,sans-Serif" font-size="10.00">&lt; Traits &gt;</text>
</a>
</g>
</g>
<!-- Node2&#45;&gt;Node3 -->
<g id="edge61_Node000002_Node000003" class="edge">
<title>Node2&#45;&gt;Node3</title>
<g id="a_edge61_Node000002_Node000003"><a xlink:title=" ">
<path fill="none" stroke="#63b8ff" d="M407.03,-79.5C415.63,-79.5 424.37,-79.5 432.97,-79.5"/>
<polygon fill="#63b8ff" stroke="#63b8ff" points="407.01,-76 397.01,-79.5 407.01,-83 407.01,-76"/>
</a>
</g>
</g>
<!-- Node5 -->
<g id="Node000005" class="node">
<title>Node5</title>
<g id="a_Node000005"><a xlink:href="classPonca_1_1KnnGraphRangeQuery.html" target="_top" xlink:title="Extension of the Query class that allows to read the result of a range neighbor search on the KnnGrap...">
<polygon fill="white" stroke="#666666" points="600,-35.5 440,-35.5 440,-5.5 600,-5.5 600,-35.5"/>
<text text-anchor="start" x="448" y="-23.5" font-family="Helvetica,sans-Serif" font-size="10.00">Ponca::KnnGraphRangeQuery</text>
<text text-anchor="middle" x="520" y="-12.5" font-family="Helvetica,sans-Serif" font-size="10.00">&lt; Traits &gt;</text>
</a>
</g>
</g>
<!-- Node4&#45;&gt;Node5 -->
<g id="edge63_Node000004_Node000005" class="edge">
<title>Node4&#45;&gt;Node5</title>
<g id="a_edge63_Node000004_Node000005"><a xlink:title=" ">
<path fill="none" stroke="#63b8ff" d="M401.7,-20.5C414.32,-20.5 427.37,-20.5 439.96,-20.5"/>
<polygon fill="#63b8ff" stroke="#63b8ff" points="401.69,-17 391.69,-20.5 401.69,-24 401.69,-17"/>
</a>
</g>
</g>
<!-- Node6 -->
<g id="Node000006" class="node">
<title>Node6</title>
<g id="a_Node000006"><a xlink:title=" ">
<polygon fill="#e0e0e0" stroke="#999999" points="55,-41 0,-41 0,-22 55,-22 55,-41"/>
<text text-anchor="middle" x="27.5" y="-29" font-family="Helvetica,sans-Serif" font-size="10.00">Output_</text>
</a>
</g>
</g>
<!-- Node6&#45;&gt;Node1 -->
<g id="edge64_Node000006_Node000001" class="edge">
<title>Node6&#45;&gt;Node1</title>
<g id="a_edge64_Node000006_Node000001"><a xlink:title=" ">
<path fill="none" stroke="#63b8ff" d="M65.09,-36.99C73.28,-38.22 82.17,-39.55 90.99,-40.87"/>
<polygon fill="#63b8ff" stroke="#63b8ff" points="65.54,-33.52 55.13,-35.49 64.5,-40.44 65.54,-33.52"/>
</a>
</g>
</g>
</g>
</svg>
