<?xml version="1.0" encoding="UTF-8" standalone="no"?>
<!DOCTYPE svg PUBLIC "-//W3C//DTD SVG 1.1//EN"
 "http://www.w3.org/Graphics/SVG/1.1/DTD/svg11.dtd">
<!-- Generated by graphviz version 2.43.0 (0)
 -->
<!-- Title: Graphical Class Hierarchy Pages: 1 -->
<svg width="366pt" height="88pt"
 viewBox="0.00 0.00 366.00 88.00" xmlns="http://www.w3.org/2000/svg" xmlns:xlink="http://www.w3.org/1999/xlink">
<g id="graph0" class="graph" transform="scale(1 1) rotate(0) translate(4 84)">
<title>Graphical Class Hierarchy</title>
<polygon fill="white" stroke="transparent" points="-4,4 -4,-84 362,-84 362,4 -4,4"/>
<!-- Node0 -->
<g id="node1" class="node">
<title>Node0</title>
<g id="a_node1"><a xlink:href="classPonca_1_1Concept_1_1WeightKernelConcept.html" target="_top" xlink:title="A 1D weighting function and its derivatives.">
<polygon fill="white" stroke="black" points="0,-24.5 0,-54.5 162,-54.5 162,-24.5 0,-24.5"/>
<text text-anchor="start" x="8" y="-42.5" font-family="Helvetica,sans-Serif" font-size="10.00">Ponca::Concept::WeightKernel</text>
<text text-anchor="middle" x="81" y="-31.5" font-family="Helvetica,sans-Serif" font-size="10.00">Concept&lt; _Scalar &gt;</text>
</a>
</g>
</g>
<!-- Node1 -->
<g id="node2" class="node">
<title>Node1</title>
<g id="a_node2"><a xlink:href="classPonca_1_1ConstantWeightKernel.html" target="_top" xlink:title="Concept::WeightKernelConcept returning a constant value.">
<polygon fill="white" stroke="black" points="198,-49.5 198,-79.5 358,-79.5 358,-49.5 198,-49.5"/>
<text text-anchor="start" x="206" y="-67.5" font-family="Helvetica,sans-Serif" font-size="10.00">Ponca::ConstantWeightKernel</text>
<text text-anchor="middle" x="278" y="-56.5" font-family="Helvetica,sans-Serif" font-size="10.00">&lt; _Scalar &gt;</text>
</a>
</g>
</g>
<!-- Node0&#45;&gt;Node1 -->
<g id="edge1" class="edge">
<title>Node0&#45;&gt;Node1</title>
<path fill="none" stroke="midnightblue" d="M172.15,-51.06C180.71,-52.15 189.34,-53.26 197.78,-54.34"/>
<polygon fill="midnightblue" stroke="midnightblue" points="172.52,-47.58 162.16,-49.78 171.63,-54.52 172.52,-47.58"/>
</g>
<!-- Node2 -->
<g id="node3" class="node">
<title>Node2</title>
<g id="a_node3"><a xlink:href="classPonca_1_1SmoothWeightKernel.html" target="_top" xlink:title="Smooth WeightKernel defined in .">
<polygon fill="white" stroke="black" points="201,-0.5 201,-30.5 355,-30.5 355,-0.5 201,-0.5"/>
<text text-anchor="start" x="209" y="-18.5" font-family="Helvetica,sans-Serif" font-size="10.00">Ponca::SmoothWeightKernel</text>
<text text-anchor="middle" x="278" y="-7.5" font-family="Helvetica,sans-Serif" font-size="10.00">&lt; _Scalar &gt;</text>
</a>
</g>
</g>
<!-- Node0&#45;&gt;Node2 -->
<g id="edge2" class="edge">
<title>Node0&#45;&gt;Node2</title>
<path fill="none" stroke="midnightblue" d="M172.14,-28.41C181.76,-27.22 191.48,-26.03 200.92,-24.86"/>
<polygon fill="midnightblue" stroke="midnightblue" points="171.66,-24.94 162.16,-29.63 172.51,-31.89 171.66,-24.94"/>
</g>
</g>
</svg>
