<?xml version="1.0" encoding="UTF-8" standalone="no"?>
<!DOCTYPE svg PUBLIC "-//W3C//DTD SVG 1.1//EN"
 "http://www.w3.org/Graphics/SVG/1.1/DTD/svg11.dtd">
<!-- Generated by graphviz version 2.43.0 (0)
 -->
<!-- Title: Graphical Class Hierarchy Pages: 1 -->
<svg width="371pt" height="86pt"
 viewBox="0.00 0.00 371.00 86.00" xmlns="http://www.w3.org/2000/svg" xmlns:xlink="http://www.w3.org/1999/xlink">
<g id="graph0" class="graph" transform="scale(1 1) rotate(0) translate(4 82)">
<title>Graphical Class Hierarchy</title>
<!-- Node0 -->
<g id="node1" class="node">
<title>Node0</title>
<g id="a_node1"><a xlink:title=" ">
<polygon fill="#e0e0e0" stroke="#999999" points="167,-48.5 0,-48.5 0,-29.5 167,-29.5 167,-48.5"/>
<text text-anchor="middle" x="83.5" y="-36.5" font-family="Helvetica,sans-Serif" font-size="10.00">Concept::WeightKernelConcept</text>
</a>
</g>
</g>
<!-- Node1 -->
<g id="node2" class="node">
<title>Node1</title>
<g id="a_node2"><a xlink:href="classPonca_1_1ConstantWeightKernel.html" target="_top" xlink:title="Concept::WeightKernelConcept returning a constant value.">
<polygon fill="white" stroke="#666666" points="363,-78 203,-78 203,-48 363,-48 363,-78"/>
<text text-anchor="start" x="211" y="-66" font-family="Helvetica,sans-Serif" font-size="10.00">Ponca::ConstantWeightKernel</text>
<text text-anchor="middle" x="283" y="-55" font-family="Helvetica,sans-Serif" font-size="10.00">&lt; _Scalar &gt;</text>
</a>
</g>
</g>
<!-- Node0&#45;&gt;Node1 -->
<g id="edge1" class="edge">
<title>Node0&#45;&gt;Node1</title>
<path fill="none" stroke="#63b8ff" d="M172.77,-49.73C182.77,-50.94 192.91,-52.17 202.78,-53.37"/>
<polygon fill="#63b8ff" stroke="#63b8ff" points="173.19,-46.25 162.84,-48.52 172.35,-53.2 173.19,-46.25"/>
</g>
<!-- Node2 -->
<g id="node3" class="node">
<title>Node2</title>
<g id="a_node3"><a xlink:href="classPonca_1_1SmoothWeightKernel.html" target="_top" xlink:title="Smooth WeightKernel defined in .">
<polygon fill="white" stroke="#666666" points="360,-30 206,-30 206,0 360,0 360,-30"/>
<text text-anchor="start" x="214" y="-18" font-family="Helvetica,sans-Serif" font-size="10.00">Ponca::SmoothWeightKernel</text>
<text text-anchor="middle" x="283" y="-7" font-family="Helvetica,sans-Serif" font-size="10.00">&lt; _Scalar &gt;</text>
</a>
</g>
</g>
<!-- Node0&#45;&gt;Node2 -->
<g id="edge2" class="edge">
<title>Node0&#45;&gt;Node2</title>
<path fill="none" stroke="#63b8ff" d="M172.84,-28.26C183.8,-26.93 194.93,-25.58 205.69,-24.27"/>
<polygon fill="#63b8ff" stroke="#63b8ff" points="172.35,-24.8 162.84,-29.48 173.19,-31.75 172.35,-24.8"/>
</g>
</g>
</svg>
