<?xml version="1.0" encoding="UTF-8" standalone="no"?>
<!DOCTYPE svg PUBLIC "-//W3C//DTD SVG 1.1//EN"
 "http://www.w3.org/Graphics/SVG/1.1/DTD/svg11.dtd">
<!-- Generated by graphviz version 2.43.0 (0)
 -->
<!-- Title: Graphical Class Hierarchy Pages: 1 -->
<svg width="668pt" height="1147pt"
 viewBox="0.00 0.00 668.00 1146.69" xmlns="http://www.w3.org/2000/svg" xmlns:xlink="http://www.w3.org/1999/xlink">
<g id="graph0" class="graph" transform="scale(1 1) rotate(0) translate(4 1142.69)">
<title>Graphical Class Hierarchy</title>
<polygon fill="white" stroke="transparent" points="-4,4 -4,-1142.69 664,-1142.69 664,4 -4,4"/>
<!-- Node108 -->
<g id="node1" class="node">
<title>Node108</title>
<g id="a_node1"><a xlink:href="classPonca_1_1Concept_1_1FittingExtensionConcept.html" target="_top" xlink:title="Describes how to add features to an existing fitting procedure.">
<polygon fill="white" stroke="black" points="0,-634.5 0,-664.5 196,-664.5 196,-634.5 0,-634.5"/>
<text text-anchor="start" x="8" y="-652.5" font-family="Helvetica,sans-Serif" font-size="10.00">Ponca::Concept::FittingExtension</text>
<text text-anchor="middle" x="98" y="-641.5" font-family="Helvetica,sans-Serif" font-size="10.00">Concept&lt; DataPoint, _WFunctor, T &gt;</text>
</a>
</g>
</g>
<!-- Node0 -->
<g id="node2" class="node">
<title>Node0</title>
<g id="a_node2"><a xlink:href="classPonca_1_1internal_1_1CovariancePlaneDer.html" target="_top" xlink:title=" ">
<polygon fill="white" stroke="black" points="236,-1051 236,-1092 416,-1092 416,-1051 236,-1051"/>
<text text-anchor="start" x="244" y="-1080" font-family="Helvetica,sans-Serif" font-size="10.00">Ponca::internal::Covariance</text>
<text text-anchor="start" x="244" y="-1069" font-family="Helvetica,sans-Serif" font-size="10.00">PlaneDer&lt; DataPoint, _WFunctor,</text>
<text text-anchor="middle" x="326" y="-1058" font-family="Helvetica,sans-Serif" font-size="10.00"> T, internal::FitScaleDer &gt;</text>
</a>
</g>
</g>
<!-- Node108&#45;&gt;Node0 -->
<g id="edge1" class="edge">
<title>Node108&#45;&gt;Node0</title>
<path fill="none" stroke="midnightblue" d="M100.49,-675.04C105.82,-743.13 129.54,-931.03 232,-1036.5 237.53,-1042.19 244.07,-1046.97 251.09,-1050.97"/>
<polygon fill="midnightblue" stroke="midnightblue" points="103.96,-674.54 99.76,-664.81 96.98,-675.04 103.96,-674.54"/>
</g>
<!-- Node1 -->
<g id="node3" class="node">
<title>Node1</title>
<g id="a_node3"><a xlink:href="classPonca_1_1CovariancePlaneScaleDer.html" target="_top" xlink:title="Differentiation in scale of the CovariancePlaneFit.">
<polygon fill="white" stroke="black" points="471.5,-1080.5 471.5,-1110.5 644.5,-1110.5 644.5,-1080.5 471.5,-1080.5"/>
<text text-anchor="start" x="479.5" y="-1098.5" font-family="Helvetica,sans-Serif" font-size="10.00">Ponca::CovariancePlaneScale</text>
<text text-anchor="middle" x="558" y="-1087.5" font-family="Helvetica,sans-Serif" font-size="10.00">Der&lt; DataPoint, _WFunctor, T &gt;</text>
</a>
</g>
</g>
<!-- Node108&#45;&gt;Node1 -->
<g id="edge13" class="edge">
<title>Node108&#45;&gt;Node1</title>
<path fill="none" stroke="midnightblue" d="M102.5,-674.98C115.1,-762.51 161.18,-1048.52 232,-1101.5 316.27,-1164.55 450.25,-1132.55 516.78,-1110.53"/>
<polygon fill="midnightblue" stroke="midnightblue" points="105.94,-674.28 101.07,-664.87 99.01,-675.26 105.94,-674.28"/>
</g>
<!-- Node10 -->
<g id="node4" class="node">
<title>Node10</title>
<g id="a_node4"><a xlink:href="classPonca_1_1internal_1_1CovariancePlaneDer.html" target="_top" xlink:title=" ">
<polygon fill="white" stroke="black" points="236,-953 236,-994 416,-994 416,-953 236,-953"/>
<text text-anchor="start" x="244" y="-982" font-family="Helvetica,sans-Serif" font-size="10.00">Ponca::internal::Covariance</text>
<text text-anchor="start" x="244" y="-971" font-family="Helvetica,sans-Serif" font-size="10.00">PlaneDer&lt; DataPoint, _WFunctor,</text>
<text text-anchor="middle" x="326" y="-960" font-family="Helvetica,sans-Serif" font-size="10.00"> T, internal::FitSpaceDer &gt;</text>
</a>
</g>
</g>
<!-- Node108&#45;&gt;Node10 -->
<g id="edge3" class="edge">
<title>Node108&#45;&gt;Node10</title>
<path fill="none" stroke="midnightblue" d="M103.84,-674.78C115.73,-730.22 151.47,-863.52 232,-938.5 238.06,-944.14 245.12,-948.9 252.59,-952.91"/>
<polygon fill="midnightblue" stroke="midnightblue" points="107.22,-673.86 101.77,-664.77 100.37,-675.27 107.22,-673.86"/>
</g>
<!-- Node11 -->
<g id="node5" class="node">
<title>Node11</title>
<g id="a_node5"><a xlink:href="classPonca_1_1CovariancePlaneSpaceDer.html" target="_top" xlink:title="Spatial differentiation of the CovariancePlaneFit.">
<polygon fill="white" stroke="black" points="471.5,-982.5 471.5,-1012.5 644.5,-1012.5 644.5,-982.5 471.5,-982.5"/>
<text text-anchor="start" x="479.5" y="-1000.5" font-family="Helvetica,sans-Serif" font-size="10.00">Ponca::CovariancePlaneSpace</text>
<text text-anchor="middle" x="558" y="-989.5" font-family="Helvetica,sans-Serif" font-size="10.00">Der&lt; DataPoint, _WFunctor, T &gt;</text>
</a>
</g>
</g>
<!-- Node108&#45;&gt;Node11 -->
<g id="edge15" class="edge">
<title>Node108&#45;&gt;Node11</title>
<path fill="none" stroke="midnightblue" d="M99.47,-674.96C102.28,-742.47 120.29,-926.13 232,-1003.5 317.6,-1062.78 448.62,-1033.5 515.14,-1012.52"/>
<polygon fill="midnightblue" stroke="midnightblue" points="102.97,-674.68 99.13,-664.81 95.97,-674.92 102.97,-674.68"/>
</g>
<!-- Node12 -->
<g id="node6" class="node">
<title>Node12</title>
<g id="a_node6"><a xlink:href="classPonca_1_1internal_1_1CovariancePlaneDer.html" target="_top" xlink:title=" ">
<polygon fill="white" stroke="black" points="236,-843.5 236,-895.5 416,-895.5 416,-843.5 236,-843.5"/>
<text text-anchor="start" x="244" y="-883.5" font-family="Helvetica,sans-Serif" font-size="10.00">Ponca::internal::Covariance</text>
<text text-anchor="start" x="244" y="-872.5" font-family="Helvetica,sans-Serif" font-size="10.00">PlaneDer&lt; DataPoint, _WFunctor,</text>
<text text-anchor="start" x="244" y="-861.5" font-family="Helvetica,sans-Serif" font-size="10.00"> T, internal::FitSpaceDer|internal</text>
<text text-anchor="middle" x="326" y="-850.5" font-family="Helvetica,sans-Serif" font-size="10.00">::FitScaleDer &gt;</text>
</a>
</g>
</g>
<!-- Node108&#45;&gt;Node12 -->
<g id="edge5" class="edge">
<title>Node108&#45;&gt;Node12</title>
<path fill="none" stroke="midnightblue" d="M111.57,-673.72C132.17,-711.36 176.44,-784.17 232,-828.5 238.9,-834 246.65,-838.92 254.65,-843.27"/>
<polygon fill="midnightblue" stroke="midnightblue" points="114.44,-671.67 106.62,-664.52 108.27,-674.98 114.44,-671.67"/>
</g>
<!-- Node13 -->
<g id="node7" class="node">
<title>Node13</title>
<g id="a_node7"><a xlink:href="classPonca_1_1CovariancePlaneScaleSpaceDer.html" target="_top" xlink:title="Differentiation both in scale and space of the CovariancePlaneFit.">
<polygon fill="white" stroke="black" points="456.5,-881.5 456.5,-911.5 659.5,-911.5 659.5,-881.5 456.5,-881.5"/>
<text text-anchor="start" x="464.5" y="-899.5" font-family="Helvetica,sans-Serif" font-size="10.00">Ponca::CovariancePlaneScale</text>
<text text-anchor="middle" x="558" y="-888.5" font-family="Helvetica,sans-Serif" font-size="10.00">SpaceDer&lt; DataPoint, _WFunctor, T &gt;</text>
</a>
</g>
</g>
<!-- Node108&#45;&gt;Node13 -->
<g id="edge14" class="edge">
<title>Node108&#45;&gt;Node13</title>
<path fill="none" stroke="midnightblue" d="M103.28,-674.77C113.92,-728.61 147.1,-853.93 232,-905.5 320.04,-958.98 447.73,-931.63 513.79,-911.52"/>
<polygon fill="midnightblue" stroke="midnightblue" points="106.68,-673.89 101.39,-664.7 99.8,-675.18 106.68,-673.89"/>
</g>
<!-- Node14 -->
<g id="node8" class="node">
<title>Node14</title>
<g id="a_node8"><a xlink:href="classPonca_1_1internal_1_1OrientedSphereDer.html" target="_top" xlink:title=" ">
<polygon fill="white" stroke="black" points="257.5,-733.5 257.5,-785.5 394.5,-785.5 394.5,-733.5 257.5,-733.5"/>
<text text-anchor="start" x="265.5" y="-773.5" font-family="Helvetica,sans-Serif" font-size="10.00">Ponca::internal::Oriented</text>
<text text-anchor="start" x="265.5" y="-762.5" font-family="Helvetica,sans-Serif" font-size="10.00">SphereDer&lt; DataPoint, </text>
<text text-anchor="start" x="265.5" y="-751.5" font-family="Helvetica,sans-Serif" font-size="10.00">_WFunctor, T, internal::</text>
<text text-anchor="middle" x="326" y="-740.5" font-family="Helvetica,sans-Serif" font-size="10.00">FitScaleDer &gt;</text>
</a>
</g>
</g>
<!-- Node108&#45;&gt;Node14 -->
<g id="edge7" class="edge">
<title>Node108&#45;&gt;Node14</title>
<path fill="none" stroke="midnightblue" d="M135.7,-669.33C162.23,-683.48 199.06,-702.71 232,-718.5 242.34,-723.46 253.43,-728.54 264.21,-733.36"/>
<polygon fill="midnightblue" stroke="midnightblue" points="137.23,-666.19 126.76,-664.56 133.93,-672.36 137.23,-666.19"/>
</g>
<!-- Node15 -->
<g id="node9" class="node">
<title>Node15</title>
<g id="a_node9"><a xlink:href="classPonca_1_1OrientedSphereScaleDer.html" target="_top" xlink:title="Differentiation in scale of the OrientedSphereFit.">
<polygon fill="white" stroke="black" points="471.5,-771.5 471.5,-801.5 644.5,-801.5 644.5,-771.5 471.5,-771.5"/>
<text text-anchor="start" x="479.5" y="-789.5" font-family="Helvetica,sans-Serif" font-size="10.00">Ponca::OrientedSphereScale</text>
<text text-anchor="middle" x="558" y="-778.5" font-family="Helvetica,sans-Serif" font-size="10.00">Der&lt; DataPoint, _WFunctor, T &gt;</text>
</a>
</g>
</g>
<!-- Node108&#45;&gt;Node15 -->
<g id="edge24" class="edge">
<title>Node108&#45;&gt;Node15</title>
<path fill="none" stroke="midnightblue" d="M112.26,-673.83C132.69,-708.46 175.52,-770.55 232,-795.5 320.68,-834.67 436.65,-817.23 503.38,-801.51"/>
<polygon fill="midnightblue" stroke="midnightblue" points="115.11,-671.77 107.09,-664.84 109.04,-675.26 115.11,-671.77"/>
</g>
<!-- Node16 -->
<g id="node10" class="node">
<title>Node16</title>
<g id="a_node10"><a xlink:href="classPonca_1_1internal_1_1OrientedSphereDer.html" target="_top" xlink:title=" ">
<polygon fill="white" stroke="black" points="257.5,-623.5 257.5,-675.5 394.5,-675.5 394.5,-623.5 257.5,-623.5"/>
<text text-anchor="start" x="265.5" y="-663.5" font-family="Helvetica,sans-Serif" font-size="10.00">Ponca::internal::Oriented</text>
<text text-anchor="start" x="265.5" y="-652.5" font-family="Helvetica,sans-Serif" font-size="10.00">SphereDer&lt; DataPoint, </text>
<text text-anchor="start" x="265.5" y="-641.5" font-family="Helvetica,sans-Serif" font-size="10.00">_WFunctor, T, internal::</text>
<text text-anchor="middle" x="326" y="-630.5" font-family="Helvetica,sans-Serif" font-size="10.00">FitSpaceDer &gt;</text>
</a>
</g>
</g>
<!-- Node108&#45;&gt;Node16 -->
<g id="edge9" class="edge">
<title>Node108&#45;&gt;Node16</title>
<path fill="none" stroke="midnightblue" d="M206.33,-649.5C223.66,-649.5 241.18,-649.5 257.23,-649.5"/>
<polygon fill="midnightblue" stroke="midnightblue" points="206.16,-646 196.16,-649.5 206.16,-653 206.16,-646"/>
</g>
<!-- Node17 -->
<g id="node11" class="node">
<title>Node17</title>
<g id="a_node11"><a xlink:href="classPonca_1_1OrientedSphereSpaceDer.html" target="_top" xlink:title="Spatial differentiation of the OrientedSphereFit.">
<polygon fill="white" stroke="black" points="471.5,-661.5 471.5,-691.5 644.5,-691.5 644.5,-661.5 471.5,-661.5"/>
<text text-anchor="start" x="479.5" y="-679.5" font-family="Helvetica,sans-Serif" font-size="10.00">Ponca::OrientedSphereSpace</text>
<text text-anchor="middle" x="558" y="-668.5" font-family="Helvetica,sans-Serif" font-size="10.00">Der&lt; DataPoint, _WFunctor, T &gt;</text>
</a>
</g>
</g>
<!-- Node108&#45;&gt;Node17 -->
<g id="edge26" class="edge">
<title>Node108&#45;&gt;Node17</title>
<path fill="none" stroke="midnightblue" d="M152.66,-667.49C176.63,-674.63 205.43,-681.97 232,-685.5 312.71,-696.23 405.65,-692.01 471.42,-686.28"/>
<polygon fill="midnightblue" stroke="midnightblue" points="153.62,-664.13 143.04,-664.57 151.58,-670.83 153.62,-664.13"/>
</g>
<!-- Node18 -->
<g id="node12" class="node">
<title>Node18</title>
<g id="a_node12"><a xlink:href="classPonca_1_1internal_1_1OrientedSphereDer.html" target="_top" xlink:title=" ">
<polygon fill="white" stroke="black" points="232,-513.5 232,-565.5 420,-565.5 420,-513.5 232,-513.5"/>
<text text-anchor="start" x="240" y="-553.5" font-family="Helvetica,sans-Serif" font-size="10.00">Ponca::internal::Oriented</text>
<text text-anchor="start" x="240" y="-542.5" font-family="Helvetica,sans-Serif" font-size="10.00">SphereDer&lt; DataPoint, </text>
<text text-anchor="start" x="240" y="-531.5" font-family="Helvetica,sans-Serif" font-size="10.00">_WFunctor, T, internal::</text>
<text text-anchor="middle" x="326" y="-520.5" font-family="Helvetica,sans-Serif" font-size="10.00">FitSpaceDer|internal::FitScaleDer &gt;</text>
</a>
</g>
</g>
<!-- Node108&#45;&gt;Node18 -->
<g id="edge11" class="edge">
<title>Node108&#45;&gt;Node18</title>
<path fill="none" stroke="midnightblue" d="M135.7,-629.67C162.23,-615.52 199.06,-596.29 232,-580.5 242.34,-575.54 253.43,-570.46 264.21,-565.64"/>
<polygon fill="midnightblue" stroke="midnightblue" points="133.93,-626.64 126.76,-634.44 137.23,-632.81 133.93,-626.64"/>
</g>
<!-- Node19 -->
<g id="node13" class="node">
<title>Node19</title>
<g id="a_node13"><a xlink:href="classPonca_1_1OrientedSphereScaleSpaceDer.html" target="_top" xlink:title="Differentiation both in scale and space of the OrientedSphereFit.">
<polygon fill="white" stroke="black" points="456.5,-551.5 456.5,-581.5 659.5,-581.5 659.5,-551.5 456.5,-551.5"/>
<text text-anchor="start" x="464.5" y="-569.5" font-family="Helvetica,sans-Serif" font-size="10.00">Ponca::OrientedSphereScale</text>
<text text-anchor="middle" x="558" y="-558.5" font-family="Helvetica,sans-Serif" font-size="10.00">SpaceDer&lt; DataPoint, _WFunctor, T &gt;</text>
</a>
</g>
</g>
<!-- Node108&#45;&gt;Node19 -->
<g id="edge25" class="edge">
<title>Node108&#45;&gt;Node19</title>
<path fill="none" stroke="midnightblue" d="M160.51,-631.8C182.89,-625.76 208.47,-619.32 232,-614.5 306.59,-599.23 391.77,-586.83 456.21,-578.46"/>
<polygon fill="midnightblue" stroke="midnightblue" points="159.52,-628.44 150.8,-634.44 161.37,-635.19 159.52,-628.44"/>
</g>
<!-- Node23 -->
<g id="node14" class="node">
<title>Node23</title>
<g id="a_node14"><a xlink:href="classPonca_1_1CurvatureEstimator.html" target="_top" xlink:title="Extension to compute curvature values from the Weingarten map .">
<polygon fill="white" stroke="black" points="248,-464.5 248,-494.5 404,-494.5 404,-464.5 248,-464.5"/>
<text text-anchor="start" x="256" y="-482.5" font-family="Helvetica,sans-Serif" font-size="10.00">Ponca::CurvatureEstimator</text>
<text text-anchor="middle" x="326" y="-471.5" font-family="Helvetica,sans-Serif" font-size="10.00">&lt; DataPoint, _WFunctor, T &gt;</text>
</a>
</g>
</g>
<!-- Node108&#45;&gt;Node23 -->
<g id="edge16" class="edge">
<title>Node108&#45;&gt;Node23</title>
<path fill="none" stroke="midnightblue" d="M114.29,-625.74C136.36,-593.39 180.22,-535.93 232,-504.5 238.29,-500.68 245.16,-497.44 252.24,-494.68"/>
<polygon fill="midnightblue" stroke="midnightblue" points="111.31,-623.9 108.66,-634.16 117.13,-627.79 111.31,-623.9"/>
</g>
<!-- Node25 -->
<g id="node16" class="node">
<title>Node25</title>
<g id="a_node16"><a xlink:href="classPonca_1_1GLSDer.html" target="_top" xlink:title="Differentiation of GLSParam.">
<polygon fill="white" stroke="black" points="251,-415.5 251,-445.5 401,-445.5 401,-415.5 251,-415.5"/>
<text text-anchor="start" x="259" y="-433.5" font-family="Helvetica,sans-Serif" font-size="10.00">Ponca::GLSDer&lt; DataPoint,</text>
<text text-anchor="middle" x="326" y="-422.5" font-family="Helvetica,sans-Serif" font-size="10.00"> _WFunctor, T &gt;</text>
</a>
</g>
</g>
<!-- Node108&#45;&gt;Node25 -->
<g id="edge18" class="edge">
<title>Node108&#45;&gt;Node25</title>
<path fill="none" stroke="midnightblue" d="M108.91,-625.1C126.99,-583.7 169.35,-499.87 232,-455.5 237.73,-451.44 244.08,-448.04 250.7,-445.19"/>
<polygon fill="midnightblue" stroke="midnightblue" points="105.63,-623.86 104.93,-634.43 112.07,-626.6 105.63,-623.86"/>
</g>
<!-- Node26 -->
<g id="node17" class="node">
<title>Node26</title>
<g id="a_node17"><a xlink:href="classPonca_1_1GLSGeomVar.html" target="_top" xlink:title="Extension to compute the Geometric Variation of GLSParam.">
<polygon fill="white" stroke="black" points="252,-366.5 252,-396.5 400,-396.5 400,-366.5 252,-366.5"/>
<text text-anchor="start" x="260" y="-384.5" font-family="Helvetica,sans-Serif" font-size="10.00">Ponca::GLSGeomVar&lt;</text>
<text text-anchor="middle" x="326" y="-373.5" font-family="Helvetica,sans-Serif" font-size="10.00"> DataPoint, _WFunctor, T &gt;</text>
</a>
</g>
</g>
<!-- Node108&#45;&gt;Node26 -->
<g id="edge19" class="edge">
<title>Node108&#45;&gt;Node26</title>
<path fill="none" stroke="midnightblue" d="M105.56,-624.34C119.81,-574.79 158.39,-464.38 232,-406.5 237.91,-401.85 244.62,-398.06 251.66,-394.98"/>
<polygon fill="midnightblue" stroke="midnightblue" points="102.12,-623.65 102.81,-634.22 108.87,-625.52 102.12,-623.65"/>
</g>
<!-- Node27 -->
<g id="node18" class="node">
<title>Node27</title>
<g id="a_node18"><a xlink:href="classPonca_1_1GLSParam.html" target="_top" xlink:title="Growing Least Squares reparemetrization of the OrientedSphereFit.">
<polygon fill="white" stroke="black" points="244,-317.5 244,-347.5 408,-347.5 408,-317.5 244,-317.5"/>
<text text-anchor="start" x="252" y="-335.5" font-family="Helvetica,sans-Serif" font-size="10.00">Ponca::GLSParam&lt; DataPoint,</text>
<text text-anchor="middle" x="326" y="-324.5" font-family="Helvetica,sans-Serif" font-size="10.00"> _WFunctor, T &gt;</text>
</a>
</g>
</g>
<!-- Node108&#45;&gt;Node27 -->
<g id="edge20" class="edge">
<title>Node108&#45;&gt;Node27</title>
<path fill="none" stroke="midnightblue" d="M109.57,-624.79C139.07,-556.04 220.88,-366.92 232,-357.5 236.59,-353.61 241.73,-350.32 247.17,-347.53"/>
<polygon fill="midnightblue" stroke="midnightblue" points="106.18,-623.82 105.46,-634.39 112.61,-626.58 106.18,-623.82"/>
</g>
<!-- Node28 -->
<g id="node19" class="node">
<title>Node28</title>
<g id="a_node19"><a xlink:href="classPonca_1_1internal_1_1CovariancePlaneDer.html" target="_top" xlink:title="Internal generic class computing the derivatives of covariance plane fits.">
<polygon fill="white" stroke="black" points="236,-257 236,-298 416,-298 416,-257 236,-257"/>
<text text-anchor="start" x="244" y="-286" font-family="Helvetica,sans-Serif" font-size="10.00">Ponca::internal::Covariance</text>
<text text-anchor="start" x="244" y="-275" font-family="Helvetica,sans-Serif" font-size="10.00">PlaneDer&lt; DataPoint, _WFunctor,</text>
<text text-anchor="middle" x="326" y="-264" font-family="Helvetica,sans-Serif" font-size="10.00"> T, Type &gt;</text>
</a>
</g>
</g>
<!-- Node108&#45;&gt;Node28 -->
<g id="edge21" class="edge">
<title>Node108&#45;&gt;Node28</title>
<path fill="none" stroke="midnightblue" d="M110.62,-625.1C129.81,-584.33 168.68,-499.51 196,-425.5 214.84,-374.46 193.98,-347.42 232,-308.5 235.81,-304.6 240.11,-301.2 244.74,-298.22"/>
<polygon fill="midnightblue" stroke="midnightblue" points="107.4,-623.72 106.3,-634.26 113.73,-626.71 107.4,-623.72"/>
</g>
<!-- Node30 -->
<g id="node20" class="node">
<title>Node30</title>
<g id="a_node20"><a xlink:href="classPonca_1_1internal_1_1OrientedSphereDer.html" target="_top" xlink:title="Internal generic class performing the Fit derivation.">
<polygon fill="white" stroke="black" points="257.5,-197 257.5,-238 394.5,-238 394.5,-197 257.5,-197"/>
<text text-anchor="start" x="265.5" y="-226" font-family="Helvetica,sans-Serif" font-size="10.00">Ponca::internal::Oriented</text>
<text text-anchor="start" x="265.5" y="-215" font-family="Helvetica,sans-Serif" font-size="10.00">SphereDer&lt; DataPoint, </text>
<text text-anchor="middle" x="326" y="-204" font-family="Helvetica,sans-Serif" font-size="10.00">_WFunctor, T, _Type &gt;</text>
</a>
</g>
</g>
<!-- Node108&#45;&gt;Node30 -->
<g id="edge22" class="edge">
<title>Node108&#45;&gt;Node30</title>
<path fill="none" stroke="midnightblue" d="M111.45,-625.38C131.82,-585.01 172.38,-500.77 196,-425.5 220.17,-348.49 178.23,-307.69 232,-247.5 238.89,-239.78 247.78,-234.04 257.33,-229.77"/>
<polygon fill="midnightblue" stroke="midnightblue" points="108.25,-623.94 106.84,-634.44 114.49,-627.12 108.25,-623.94"/>
</g>
<!-- Node31 -->
<g id="node21" class="node">
<title>Node31</title>
<g id="a_node21"><a xlink:href="classPonca_1_1MlsSphereFitDer.html" target="_top" xlink:title="Extension performing derivation of the mls surface.">
<polygon fill="white" stroke="black" points="248,-147.5 248,-177.5 404,-177.5 404,-147.5 248,-147.5"/>
<text text-anchor="start" x="256" y="-165.5" font-family="Helvetica,sans-Serif" font-size="10.00">Ponca::MlsSphereFitDer</text>
<text text-anchor="middle" x="326" y="-154.5" font-family="Helvetica,sans-Serif" font-size="10.00">&lt; DataPoint, _WFunctor, T &gt;</text>
</a>
</g>
</g>
<!-- Node108&#45;&gt;Node31 -->
<g id="edge23" class="edge">
<title>Node108&#45;&gt;Node31</title>
<path fill="none" stroke="midnightblue" d="M112.02,-625.21C133.04,-584.9 174.3,-501.14 196,-425.5 225.5,-322.67 160.73,-267.28 232,-187.5 236.46,-182.51 241.79,-178.47 247.62,-175.21"/>
<polygon fill="midnightblue" stroke="midnightblue" points="108.82,-623.78 107.26,-634.26 115.01,-627.04 108.82,-623.78"/>
</g>
<!-- Node0&#45;&gt;Node1 -->
<g id="edge2" class="edge">
<title>Node0&#45;&gt;Node1</title>
<path fill="none" stroke="midnightblue" d="M426.49,-1081.88C441.38,-1083.44 456.62,-1085.03 471.19,-1086.55"/>
<polygon fill="midnightblue" stroke="midnightblue" points="426.56,-1078.37 416.25,-1080.81 425.84,-1085.33 426.56,-1078.37"/>
</g>
<!-- Node10&#45;&gt;Node11 -->
<g id="edge4" class="edge">
<title>Node10&#45;&gt;Node11</title>
<path fill="none" stroke="midnightblue" d="M426.49,-983.88C441.38,-985.44 456.62,-987.03 471.19,-988.55"/>
<polygon fill="midnightblue" stroke="midnightblue" points="426.56,-980.37 416.25,-982.81 425.84,-987.33 426.56,-980.37"/>
</g>
<!-- Node12&#45;&gt;Node13 -->
<g id="edge6" class="edge">
<title>Node12&#45;&gt;Node13</title>
<path fill="none" stroke="midnightblue" d="M426.49,-881.18C436.38,-882.34 446.43,-883.52 456.33,-884.68"/>
<polygon fill="midnightblue" stroke="midnightblue" points="426.59,-877.67 416.25,-879.98 425.78,-884.62 426.59,-877.67"/>
</g>
<!-- Node14&#45;&gt;Node15 -->
<g id="edge8" class="edge">
<title>Node14&#45;&gt;Node15</title>
<path fill="none" stroke="midnightblue" d="M404.77,-768.63C426.18,-771.14 449.51,-773.88 471.33,-776.44"/>
<polygon fill="midnightblue" stroke="midnightblue" points="405.1,-765.14 394.76,-767.45 404.29,-772.1 405.1,-765.14"/>
</g>
<!-- Node16&#45;&gt;Node17 -->
<g id="edge10" class="edge">
<title>Node16&#45;&gt;Node17</title>
<path fill="none" stroke="midnightblue" d="M404.77,-658.63C426.18,-661.14 449.51,-663.88 471.33,-666.44"/>
<polygon fill="midnightblue" stroke="midnightblue" points="405.1,-655.14 394.76,-657.45 404.29,-662.1 405.1,-655.14"/>
</g>
<!-- Node18&#45;&gt;Node19 -->
<g id="edge12" class="edge">
<title>Node18&#45;&gt;Node19</title>
<path fill="none" stroke="midnightblue" d="M430.26,-551.62C438.87,-552.63 447.56,-553.65 456.14,-554.66"/>
<polygon fill="midnightblue" stroke="midnightblue" points="430.56,-548.13 420.22,-550.44 429.74,-555.09 430.56,-548.13"/>
</g>
<!-- Node24 -->
<g id="node15" class="node">
<title>Node24</title>
<g id="a_node15"><a xlink:href="classPonca_1_1GLSCurvatureHelper.html" target="_top" xlink:title=" ">
<polygon fill="white" stroke="black" points="480,-464.5 480,-494.5 636,-494.5 636,-464.5 480,-464.5"/>
<text text-anchor="start" x="488" y="-482.5" font-family="Helvetica,sans-Serif" font-size="10.00">Ponca::GLSCurvatureHelper</text>
<text text-anchor="middle" x="558" y="-471.5" font-family="Helvetica,sans-Serif" font-size="10.00">&lt; DataPoint, _WFunctor, T &gt;</text>
</a>
</g>
</g>
<!-- Node23&#45;&gt;Node24 -->
<g id="edge17" class="edge">
<title>Node23&#45;&gt;Node24</title>
<path fill="none" stroke="midnightblue" d="M414.37,-479.5C435.95,-479.5 458.92,-479.5 479.98,-479.5"/>
<polygon fill="midnightblue" stroke="midnightblue" points="414.23,-476 404.23,-479.5 414.23,-483 414.23,-476"/>
</g>
<!-- Node7 -->
<g id="node22" class="node">
<title>Node7</title>
<g id="a_node22"><a xlink:title=" ">
<polygon fill="white" stroke="#bfbfbf" points="83.5,-397 83.5,-416 112.5,-416 112.5,-397 83.5,-397"/>
<text text-anchor="middle" x="98" y="-404" font-family="Helvetica,sans-Serif" font-size="10.00">T</text>
</a>
</g>
</g>
<!-- Node7&#45;&gt;Node0 -->
<g id="edge27" class="edge">
<title>Node7&#45;&gt;Node0</title>
<path fill="none" stroke="midnightblue" d="M109.79,-425.21C130.5,-462.12 175.6,-547.54 196,-625.5 217.36,-707.13 190.28,-930.16 232,-1003.5 243.47,-1023.67 263.64,-1039.52 282.27,-1050.83"/>
<polygon fill="midnightblue" stroke="midnightblue" points="112.61,-423.09 104.63,-416.13 106.53,-426.55 112.61,-423.09"/>
</g>
<!-- Node7&#45;&gt;Node10 -->
<g id="edge28" class="edge">
<title>Node7&#45;&gt;Node10</title>
<path fill="none" stroke="midnightblue" d="M109.56,-425.27C129.88,-462.29 174.32,-547.89 196,-625.5 229.76,-746.34 168.18,-797.48 232,-905.5 243.9,-925.65 264.35,-941.58 283.05,-952.95"/>
<polygon fill="midnightblue" stroke="midnightblue" points="112.42,-423.21 104.51,-416.16 106.3,-426.6 112.42,-423.21"/>
</g>
<!-- Node7&#45;&gt;Node12 -->
<g id="edge29" class="edge">
<title>Node7&#45;&gt;Node12</title>
<path fill="none" stroke="midnightblue" d="M109.01,-425.43C128.37,-462.75 171.2,-548.83 196,-625.5 219.77,-698.98 191.39,-729.81 232,-795.5 243.83,-814.63 262.44,-830.89 279.92,-843.25"/>
<polygon fill="midnightblue" stroke="midnightblue" points="111.94,-423.49 104.21,-416.25 105.74,-426.73 111.94,-423.49"/>
</g>
<!-- Node7&#45;&gt;Node14 -->
<g id="edge30" class="edge">
<title>Node7&#45;&gt;Node14</title>
<path fill="none" stroke="midnightblue" d="M106.8,-425.67C129.62,-481.24 196.86,-641.31 232,-685.5 246.64,-703.91 266.68,-720.6 284.41,-733.45"/>
<polygon fill="midnightblue" stroke="midnightblue" points="109.99,-424.21 102.96,-416.28 103.51,-426.86 109.99,-424.21"/>
</g>
<!-- Node7&#45;&gt;Node16 -->
<g id="edge31" class="edge">
<title>Node7&#45;&gt;Node16</title>
<path fill="none" stroke="midnightblue" d="M111.23,-424.73C133.3,-456.97 182.15,-525.39 232,-575.5 249.17,-592.76 270.27,-609.83 288.03,-623.22"/>
<polygon fill="midnightblue" stroke="midnightblue" points="114.01,-422.6 105.5,-416.29 108.22,-426.53 114.01,-422.6"/>
</g>
<!-- Node7&#45;&gt;Node18 -->
<g id="edge32" class="edge">
<title>Node7&#45;&gt;Node18</title>
<path fill="none" stroke="midnightblue" d="M117.89,-423.06C142.7,-444.16 188.26,-480.75 232,-504.5 237.76,-507.63 243.86,-510.6 250.07,-513.39"/>
<polygon fill="midnightblue" stroke="midnightblue" points="119.88,-420.16 110.02,-416.29 115.32,-425.46 119.88,-420.16"/>
</g>
<!-- Node7&#45;&gt;Node23 -->
<g id="edge36" class="edge">
<title>Node7&#45;&gt;Node23</title>
<path fill="none" stroke="midnightblue" d="M122.31,-415.9C148.68,-426.34 193.02,-443.32 232,-455.5 242.03,-458.63 252.75,-461.68 263.22,-464.49"/>
<polygon fill="midnightblue" stroke="midnightblue" points="123.41,-412.57 112.82,-412.12 120.81,-419.07 123.41,-412.57"/>
</g>
<!-- Node7&#45;&gt;Node25 -->
<g id="edge37" class="edge">
<title>Node7&#45;&gt;Node25</title>
<path fill="none" stroke="midnightblue" d="M122.81,-409.03C153,-412.23 206.46,-417.91 250.84,-422.62"/>
<polygon fill="midnightblue" stroke="midnightblue" points="123.11,-405.54 112.8,-407.97 122.37,-412.5 123.11,-405.54"/>
</g>
<!-- Node7&#45;&gt;Node26 -->
<g id="edge38" class="edge">
<title>Node7&#45;&gt;Node26</title>
<path fill="none" stroke="midnightblue" d="M122.89,-403.86C153.33,-400.49 207.36,-394.51 251.9,-389.59"/>
<polygon fill="midnightblue" stroke="midnightblue" points="122.35,-400.4 112.8,-404.97 123.12,-407.35 122.35,-400.4"/>
</g>
<!-- Node7&#45;&gt;Node27 -->
<g id="edge39" class="edge">
<title>Node7&#45;&gt;Node27</title>
<path fill="none" stroke="midnightblue" d="M122.34,-397.17C148.72,-386.8 193.08,-369.87 232,-357.5 242.83,-354.06 254.48,-350.68 265.73,-347.57"/>
<polygon fill="midnightblue" stroke="midnightblue" points="120.85,-394 112.83,-400.93 123.42,-400.51 120.85,-394"/>
</g>
<!-- Node7&#45;&gt;Node28 -->
<g id="edge40" class="edge">
<title>Node7&#45;&gt;Node28</title>
<path fill="none" stroke="midnightblue" d="M117.38,-390.01C141.95,-368.68 187.59,-331.53 232,-308.5 239.25,-304.74 247.05,-301.3 254.95,-298.19"/>
<polygon fill="midnightblue" stroke="midnightblue" points="114.8,-387.61 109.6,-396.84 119.42,-392.87 114.8,-387.61"/>
</g>
<!-- Node7&#45;&gt;Node30 -->
<g id="edge42" class="edge">
<title>Node7&#45;&gt;Node30</title>
<path fill="none" stroke="midnightblue" d="M109.59,-387.98C129.4,-354.95 175.23,-285.76 232,-247.5 239.74,-242.28 248.44,-237.93 257.34,-234.3"/>
<polygon fill="midnightblue" stroke="midnightblue" points="106.55,-386.25 104.5,-396.64 112.58,-389.79 106.55,-386.25"/>
</g>
<!-- Node7&#45;&gt;Node31 -->
<g id="edge43" class="edge">
<title>Node7&#45;&gt;Node31</title>
<path fill="none" stroke="midnightblue" d="M105.18,-387.07C119.85,-344.14 160.98,-240.8 232,-187.5 237.08,-183.69 242.7,-180.45 248.59,-177.71"/>
<polygon fill="midnightblue" stroke="midnightblue" points="101.76,-386.24 101.94,-396.83 108.41,-388.44 101.76,-386.24"/>
</g>
<!-- Node20 -->
<g id="node23" class="node">
<title>Node20</title>
<g id="a_node23"><a xlink:href="classPonca_1_1BaseCurvatureEstimator.html" target="_top" xlink:title="Base class for any 3d curvature estimator: holds k1, k2 and associated vectors.">
<polygon fill="white" stroke="black" points="240.5,-98.5 240.5,-128.5 411.5,-128.5 411.5,-98.5 240.5,-98.5"/>
<text text-anchor="start" x="248.5" y="-116.5" font-family="Helvetica,sans-Serif" font-size="10.00">Ponca::BaseCurvatureEstimator</text>
<text text-anchor="middle" x="326" y="-105.5" font-family="Helvetica,sans-Serif" font-size="10.00">&lt; DataPoint, _WFunctor, T &gt;</text>
</a>
</g>
</g>
<!-- Node7&#45;&gt;Node20 -->
<g id="edge33" class="edge">
<title>Node7&#45;&gt;Node20</title>
<path fill="none" stroke="midnightblue" d="M102.92,-386.88C113.88,-337.28 149.62,-205.99 232,-138.5 236.66,-134.69 241.84,-131.45 247.32,-128.7"/>
<polygon fill="midnightblue" stroke="midnightblue" points="99.44,-386.41 100.8,-396.92 106.29,-387.86 99.44,-386.41"/>
</g>
<!-- Node29 -->
<g id="node26" class="node">
<title>Node29</title>
<g id="a_node26"><a xlink:href="classPonca_1_1internal_1_1Forward.html" target="_top" xlink:title="Internal class used to build the Basket structure.">
<polygon fill="white" stroke="black" points="259,-49.5 259,-79.5 393,-79.5 393,-49.5 259,-49.5"/>
<text text-anchor="start" x="267" y="-67.5" font-family="Helvetica,sans-Serif" font-size="10.00">Ponca::internal::Forward</text>
<text text-anchor="middle" x="326" y="-56.5" font-family="Helvetica,sans-Serif" font-size="10.00">&lt; class, class, T &gt;</text>
</a>
</g>
</g>
<!-- Node7&#45;&gt;Node29 -->
<g id="edge41" class="edge">
<title>Node7&#45;&gt;Node29</title>
<path fill="none" stroke="midnightblue" d="M101.18,-387.01C108.48,-331.38 137.19,-170.59 232,-88.5 239.69,-81.84 249,-76.99 258.71,-73.47"/>
<polygon fill="midnightblue" stroke="midnightblue" points="97.71,-386.6 99.96,-396.95 104.65,-387.45 97.71,-386.6"/>
</g>
<!-- Node32 -->
<g id="node27" class="node">
<title>Node32</title>
<g id="a_node27"><a xlink:href="classPonca_1_1MongePatch.html" target="_top" xlink:title="Extension to compute the best fit quadric on 3d points expressed as f(u,v)=h.">
<polygon fill="white" stroke="black" points="252,-0.5 252,-30.5 400,-30.5 400,-0.5 252,-0.5"/>
<text text-anchor="start" x="260" y="-18.5" font-family="Helvetica,sans-Serif" font-size="10.00">Ponca::MongePatch&lt;</text>
<text text-anchor="middle" x="326" y="-7.5" font-family="Helvetica,sans-Serif" font-size="10.00"> DataPoint, _WFunctor, T &gt;</text>
</a>
</g>
</g>
<!-- Node7&#45;&gt;Node32 -->
<g id="edge44" class="edge">
<title>Node7&#45;&gt;Node32</title>
<path fill="none" stroke="midnightblue" d="M100,-386.54C104.18,-324.97 125.53,-136.29 232,-39.5 237.8,-34.23 244.6,-30.08 251.85,-26.83"/>
<polygon fill="midnightblue" stroke="midnightblue" points="96.49,-386.61 99.38,-396.81 103.47,-387.03 96.49,-386.61"/>
</g>
<!-- Node21 -->
<g id="node24" class="node">
<title>Node21</title>
<g id="a_node24"><a xlink:href="classPonca_1_1NormalCovarianceCurvature.html" target="_top" xlink:title="Extension to compute curvature values based on a covariance analysis of normal vectors of neighbors.">
<polygon fill="white" stroke="black" points="462.5,-122.5 462.5,-152.5 653.5,-152.5 653.5,-122.5 462.5,-122.5"/>
<text text-anchor="start" x="470.5" y="-140.5" font-family="Helvetica,sans-Serif" font-size="10.00">Ponca::NormalCovarianceCurvature</text>
<text text-anchor="middle" x="558" y="-129.5" font-family="Helvetica,sans-Serif" font-size="10.00">&lt; DataPoint, _WFunctor, T &gt;</text>
</a>
</g>
</g>
<!-- Node20&#45;&gt;Node21 -->
<g id="edge34" class="edge">
<title>Node20&#45;&gt;Node21</title>
<path fill="none" stroke="midnightblue" d="M421.83,-123.4C435.24,-124.79 449.03,-126.23 462.43,-127.63"/>
<polygon fill="midnightblue" stroke="midnightblue" points="421.97,-119.89 411.66,-122.33 421.25,-126.85 421.97,-119.89"/>
</g>
<!-- Node22 -->
<g id="node25" class="node">
<title>Node22</title>
<g id="a_node25"><a xlink:href="classPonca_1_1ProjectedNormalCovarianceCurvature.html" target="_top" xlink:title="Extension to compute curvature values based on a covariance analysis of normal vectors of neighbors p...">
<polygon fill="white" stroke="black" points="456,-73.5 456,-103.5 660,-103.5 660,-73.5 456,-73.5"/>
<text text-anchor="start" x="464" y="-91.5" font-family="Helvetica,sans-Serif" font-size="10.00">Ponca::ProjectedNormalCovariance</text>
<text text-anchor="middle" x="558" y="-80.5" font-family="Helvetica,sans-Serif" font-size="10.00">Curvature&lt; DataPoint, _WFunctor, T &gt;</text>
</a>
</g>
</g>
<!-- Node20&#45;&gt;Node22 -->
<g id="edge35" class="edge">
<title>Node20&#45;&gt;Node22</title>
<path fill="none" stroke="midnightblue" d="M421.85,-103.19C433.04,-101.97 444.48,-100.73 455.75,-99.51"/>
<polygon fill="midnightblue" stroke="midnightblue" points="421.23,-99.74 411.66,-104.3 421.98,-106.7 421.23,-99.74"/>
</g>
</g>
</svg>
