<?xml version="1.0" encoding="UTF-8" standalone="no"?>
<!DOCTYPE svg PUBLIC "-//W3C//DTD SVG 1.1//EN"
 "http://www.w3.org/Graphics/SVG/1.1/DTD/svg11.dtd">
<!-- Generated by graphviz version 2.43.0 (0)
 -->
<!-- Title: Graphical Class Hierarchy Pages: 1 -->
<svg width="327pt" height="167pt"
 viewBox="0.00 0.00 327.00 167.00" xmlns="http://www.w3.org/2000/svg" xmlns:xlink="http://www.w3.org/1999/xlink">
<g id="graph0" class="graph" transform="scale(1 1) rotate(0) translate(4 163)">
<title>Graphical Class Hierarchy</title>
<!-- Node0 -->
<g id="Node000000" class="node">
<title>Node0</title>
<g id="a_Node000000"><a xlink:href="classPonca_1_1KdTreeQuery.html" target="_top" xlink:title="Query object that provides a method to search neighbors on the KdTree depending on a distance thresho...">
<polygon fill="white" stroke="#666666" points="114,-115.5 0,-115.5 0,-85.5 114,-85.5 114,-115.5"/>
<text text-anchor="start" x="8" y="-103.5" font-family="Helvetica,sans-Serif" font-size="10.00">Ponca::KdTreeQuery</text>
<text text-anchor="middle" x="57" y="-92.5" font-family="Helvetica,sans-Serif" font-size="10.00">&lt; Traits &gt;</text>
</a>
</g>
</g>
<!-- Node1 -->
<g id="Node000001" class="node">
<title>Node1</title>
<g id="a_Node000001"><a xlink:href="classPonca_1_1KdTreeKNearestQueryBase.html" target="_top" xlink:title="Extension of the Query class that allows to read the result of a k&#45;nearest neighbors search on the Kd...">
<polygon fill="white" stroke="#666666" points="314,-159 155,-159 155,-118 314,-118 314,-159"/>
<text text-anchor="start" x="163" y="-147" font-family="Helvetica,sans-Serif" font-size="10.00">Ponca::KdTreeKNearestQuery</text>
<text text-anchor="start" x="163" y="-136" font-family="Helvetica,sans-Serif" font-size="10.00">Base&lt; Traits, IteratorType,</text>
<text text-anchor="middle" x="234.5" y="-125" font-family="Helvetica,sans-Serif" font-size="10.00"> QueryType &gt;</text>
</a>
</g>
</g>
<!-- Node0&#45;&gt;Node1 -->
<g id="edge80_Node000000_Node000001" class="edge">
<title>Node0&#45;&gt;Node1</title>
<g id="a_edge80_Node000000_Node000001"><a xlink:title=" ">
<path fill="none" stroke="#63b8ff" d="M123.97,-114.78C134.09,-116.98 144.63,-119.26 154.99,-121.5"/>
<polygon fill="#63b8ff" stroke="#63b8ff" points="124.53,-111.32 114.01,-112.63 123.04,-118.16 124.53,-111.32"/>
</a>
</g>
</g>
<!-- Node3 -->
<g id="Node000003" class="node">
<title>Node3</title>
<g id="a_Node000003"><a xlink:href="classPonca_1_1KdTreeNearestQueryBase.html" target="_top" xlink:title="Extension of the Query class that allows to read the result of a nearest neighbor search on the KdTre...">
<polygon fill="white" stroke="#666666" points="310.5,-100 158.5,-100 158.5,-59 310.5,-59 310.5,-100"/>
<text text-anchor="start" x="166.5" y="-88" font-family="Helvetica,sans-Serif" font-size="10.00">Ponca::KdTreeNearestQuery</text>
<text text-anchor="start" x="166.5" y="-77" font-family="Helvetica,sans-Serif" font-size="10.00">Base&lt; Traits, IteratorType,</text>
<text text-anchor="middle" x="234.5" y="-66" font-family="Helvetica,sans-Serif" font-size="10.00"> QueryType &gt;</text>
</a>
</g>
</g>
<!-- Node0&#45;&gt;Node3 -->
<g id="edge81_Node000000_Node000003" class="edge">
<title>Node0&#45;&gt;Node3</title>
<g id="a_edge81_Node000000_Node000003"><a xlink:title=" ">
<path fill="none" stroke="#63b8ff" d="M124.14,-92.59C135.35,-91.24 147.07,-89.84 158.49,-88.48"/>
<polygon fill="#63b8ff" stroke="#63b8ff" points="123.53,-89.13 114.01,-93.8 124.36,-96.08 123.53,-89.13"/>
</a>
</g>
</g>
<!-- Node4 -->
<g id="Node000004" class="node">
<title>Node4</title>
<g id="a_Node000004"><a xlink:href="classPonca_1_1KdTreeRangeQueryBase.html" target="_top" xlink:title="Extension of the Query class that allows to read the result of a range neighbors search on the KdTree...">
<polygon fill="white" stroke="#666666" points="319,-41 150,-41 150,0 319,0 319,-41"/>
<text text-anchor="start" x="158" y="-29" font-family="Helvetica,sans-Serif" font-size="10.00">Ponca::KdTreeRangeQueryBase</text>
<text text-anchor="start" x="158" y="-18" font-family="Helvetica,sans-Serif" font-size="10.00">&lt; Traits, IteratorType,</text>
<text text-anchor="middle" x="234.5" y="-7" font-family="Helvetica,sans-Serif" font-size="10.00"> QueryType &gt;</text>
</a>
</g>
</g>
<!-- Node0&#45;&gt;Node4 -->
<g id="edge82_Node000000_Node000004" class="edge">
<title>Node0&#45;&gt;Node4</title>
<g id="a_edge82_Node000000_Node000004"><a xlink:title=" ">
<path fill="none" stroke="#63b8ff" d="M105.72,-80.99C108.56,-79.54 111.34,-78.04 114,-76.5 131.31,-66.49 132.34,-58.89 150,-49.5 155.69,-46.47 161.76,-43.66 167.93,-41.07"/>
<polygon fill="#63b8ff" stroke="#63b8ff" points="104.03,-77.92 96.55,-85.42 107.08,-84.22 104.03,-77.92"/>
</a>
</g>
</g>
<!-- Node2 -->
<g id="Node000002" class="node">
<title>Node2</title>
<g id="a_Node000002"><a xlink:title=" ">
<polygon fill="#e0e0e0" stroke="#999999" points="91,-67 23,-67 23,-48 91,-48 91,-67"/>
<text text-anchor="middle" x="57" y="-55" font-family="Helvetica,sans-Serif" font-size="10.00">QueryType</text>
</a>
</g>
</g>
<!-- Node2&#45;&gt;Node1 -->
<g id="edge83_Node000002_Node000001" class="edge">
<title>Node2&#45;&gt;Node1</title>
<g id="a_edge83_Node000002_Node000001"><a xlink:title=" ">
<path fill="none" stroke="#63b8ff" d="M100.76,-69.91C105.35,-71.85 109.86,-74.05 114,-76.5 132.68,-87.56 131.36,-98.38 150,-109.5 155.14,-112.57 160.65,-115.37 166.3,-117.93"/>
<polygon fill="#63b8ff" stroke="#63b8ff" points="101.87,-66.59 91.28,-66.26 99.36,-73.12 101.87,-66.59"/>
</a>
</g>
</g>
<!-- Node2&#45;&gt;Node3 -->
<g id="edge84_Node000002_Node000003" class="edge">
<title>Node2&#45;&gt;Node3</title>
<g id="a_edge84_Node000002_Node000003"><a xlink:title=" ">
<path fill="none" stroke="#63b8ff" d="M101.31,-62.93C118.56,-65.09 138.93,-67.64 158.44,-70.09"/>
<polygon fill="#63b8ff" stroke="#63b8ff" points="101.37,-59.41 91.01,-61.64 100.5,-66.35 101.37,-59.41"/>
</a>
</g>
</g>
<!-- Node2&#45;&gt;Node4 -->
<g id="edge85_Node000002_Node000004" class="edge">
<title>Node2&#45;&gt;Node4</title>
<g id="a_edge85_Node000002_Node000004"><a xlink:title=" ">
<path fill="none" stroke="#63b8ff" d="M100.89,-48.46C115.74,-45.33 132.94,-41.7 149.93,-38.12"/>
<polygon fill="#63b8ff" stroke="#63b8ff" points="100.07,-45.05 91.01,-50.54 101.52,-51.9 100.07,-45.05"/>
</a>
</g>
</g>
</g>
</svg>
