<?xml version="1.0" encoding="UTF-8" standalone="no"?>
<!DOCTYPE svg PUBLIC "-//W3C//DTD SVG 1.1//EN"
 "http://www.w3.org/Graphics/SVG/1.1/DTD/svg11.dtd">
<!-- Generated by graphviz version 2.43.0 (0)
 -->
<!-- Title: Graphical Class Hierarchy Pages: 1 -->
<svg width="337pt" height="108pt"
 viewBox="0.00 0.00 337.00 108.00" xmlns="http://www.w3.org/2000/svg" xmlns:xlink="http://www.w3.org/1999/xlink">
<g id="graph0" class="graph" transform="scale(1 1) rotate(0) translate(4 104)">
<title>Graphical Class Hierarchy</title>
<!-- Node0 -->
<g id="Node000000" class="node">
<title>Node0</title>
<g id="a_Node000000"><a xlink:href="structPonca_1_1internal_1_1FactoryBase.html" target="_top" xlink:title=" ">
<polygon fill="white" stroke="#666666" points="162,-100 24,-100 24,-59 162,-59 162,-100"/>
<text text-anchor="start" x="32" y="-88" font-family="Helvetica,sans-Serif" font-size="10.00">Ponca::internal::Factory</text>
<text text-anchor="start" x="32" y="-77" font-family="Helvetica,sans-Serif" font-size="10.00">Base&lt; Factory3DList&lt; P,</text>
<text text-anchor="middle" x="93" y="-66" font-family="Helvetica,sans-Serif" font-size="10.00"> NF, DerType &gt; &gt;</text>
</a>
</g>
</g>
<!-- Node1 -->
<g id="Node000001" class="node">
<title>Node1</title>
<g id="a_Node000001"><a xlink:href="structPonca_1_1Factory_3_01P_00_01NF_00_01DerType_01_4.html" target="_top" xlink:title="Default factory templated on Point, Filter and Derivative.">
<polygon fill="white" stroke="#666666" points="329,-64.5 222,-64.5 222,-34.5 329,-34.5 329,-64.5"/>
<text text-anchor="start" x="230" y="-52.5" font-family="Helvetica,sans-Serif" font-size="10.00">Ponca::Factory&lt; P,</text>
<text text-anchor="middle" x="275.5" y="-41.5" font-family="Helvetica,sans-Serif" font-size="10.00"> NF, DerType &gt;</text>
</a>
</g>
</g>
<!-- Node0&#45;&gt;Node1 -->
<g id="edge88_Node000000_Node000001" class="edge">
<title>Node0&#45;&gt;Node1</title>
<g id="a_edge88_Node000000_Node000001"><a xlink:title=" ">
<path fill="none" stroke="#63b8ff" d="M172.54,-66.45C189.24,-63.67 206.48,-60.81 221.92,-58.24"/>
<polygon fill="#63b8ff" stroke="#63b8ff" points="171.53,-63.07 162.24,-68.16 172.68,-69.97 171.53,-63.07"/>
</a>
</g>
</g>
<!-- Node2 -->
<g id="Node000002" class="node">
<title>Node2</title>
<g id="a_Node000002"><a xlink:href="structPonca_1_1internal_1_1FactoryBase.html" target="_top" xlink:title=" ">
<polygon fill="white" stroke="#666666" points="186,-41 0,-41 0,0 186,0 186,-41"/>
<text text-anchor="start" x="8" y="-29" font-family="Helvetica,sans-Serif" font-size="10.00">Ponca::internal::Factory</text>
<text text-anchor="start" x="8" y="-18" font-family="Helvetica,sans-Serif" font-size="10.00">Base&lt; Factory3DSpaceDerivatives</text>
<text text-anchor="middle" x="93" y="-7" font-family="Helvetica,sans-Serif" font-size="10.00">&lt; P, NF, DerType &gt; &gt;</text>
</a>
</g>
</g>
<!-- Node2&#45;&gt;Node1 -->
<g id="edge89_Node000002_Node000001" class="edge">
<title>Node2&#45;&gt;Node1</title>
<g id="a_edge89_Node000002_Node000001"><a xlink:title=" ">
<path fill="none" stroke="#63b8ff" d="M196.05,-36.9C204.83,-38.31 213.45,-39.69 221.58,-41"/>
<polygon fill="#63b8ff" stroke="#63b8ff" points="196.53,-33.43 186.1,-35.3 195.42,-40.34 196.53,-33.43"/>
</a>
</g>
</g>
</g>
</svg>
