<?xml version="1.0" encoding="UTF-8" standalone="no"?>
<!DOCTYPE svg PUBLIC "-//W3C//DTD SVG 1.1//EN"
 "http://www.w3.org/Graphics/SVG/1.1/DTD/svg11.dtd">
<!-- Generated by graphviz version 2.43.0 (0)
 -->
<!-- Title: Graphical Class Hierarchy Pages: 1 -->
<svg width="377pt" height="1411pt"
 viewBox="0.00 0.00 377.00 1410.50" xmlns="http://www.w3.org/2000/svg" xmlns:xlink="http://www.w3.org/1999/xlink">
<g id="graph0" class="graph" transform="scale(1 1) rotate(0) translate(4 1406.5)">
<title>Graphical Class Hierarchy</title>
<!-- Node0 -->
<g id="node1" class="node">
<title>Node0</title>
<g id="a_node1"><a xlink:title=" ">
<polygon fill="#e0e0e0" stroke="#999999" points="141.5,-1220 0.5,-1220 0.5,-1190 141.5,-1190 141.5,-1220"/>
<text text-anchor="start" x="8.5" y="-1208" font-family="Helvetica,sans-Serif" font-size="10.00">Concept::FittingExtension</text>
<text text-anchor="middle" x="71" y="-1197" font-family="Helvetica,sans-Serif" font-size="10.00">Concept</text>
</a>
</g>
</g>
<!-- Node1 -->
<g id="node2" class="node">
<title>Node1</title>
<g id="a_node2"><a xlink:href="classPonca_1_1CovarianceFitDer.html" target="_top" xlink:title="Internal generic class computing the derivatives of covariance matrix computed by CovarianceFitBase.">
<polygon fill="white" stroke="#666666" points="341.5,-1225.5 205.5,-1225.5 205.5,-1184.5 341.5,-1184.5 341.5,-1225.5"/>
<text text-anchor="start" x="213.5" y="-1213.5" font-family="Helvetica,sans-Serif" font-size="10.00">Ponca::CovarianceFitDer</text>
<text text-anchor="start" x="213.5" y="-1202.5" font-family="Helvetica,sans-Serif" font-size="10.00">&lt; DataPoint, _WFunctor,</text>
<text text-anchor="middle" x="273.5" y="-1191.5" font-family="Helvetica,sans-Serif" font-size="10.00"> DiffType, T &gt;</text>
</a>
</g>
</g>
<!-- Node0&#45;&gt;Node1 -->
<g id="edge1" class="edge">
<title>Node0&#45;&gt;Node1</title>
<path fill="none" stroke="#63b8ff" d="M151.89,-1205C169.63,-1205 188.26,-1205 205.43,-1205"/>
<polygon fill="#63b8ff" stroke="#63b8ff" points="151.56,-1201.5 141.56,-1205 151.56,-1208.5 151.56,-1201.5"/>
</g>
<!-- Node14 -->
<g id="node3" class="node">
<title>Node14</title>
<g id="a_node3"><a xlink:href="classPonca_1_1CovariancePlaneDerImpl.html" target="_top" xlink:title="[CovariancePlaneFit Definition]">
<polygon fill="white" stroke="#666666" points="352.5,-1166.5 194.5,-1166.5 194.5,-1125.5 352.5,-1125.5 352.5,-1166.5"/>
<text text-anchor="start" x="202.5" y="-1154.5" font-family="Helvetica,sans-Serif" font-size="10.00">Ponca::CovariancePlaneDer</text>
<text text-anchor="start" x="202.5" y="-1143.5" font-family="Helvetica,sans-Serif" font-size="10.00">Impl&lt; DataPoint, _WFunctor,</text>
<text text-anchor="middle" x="273.5" y="-1132.5" font-family="Helvetica,sans-Serif" font-size="10.00"> DiffType, T &gt;</text>
</a>
</g>
</g>
<!-- Node0&#45;&gt;Node14 -->
<g id="edge2" class="edge">
<title>Node0&#45;&gt;Node14</title>
<path fill="none" stroke="#63b8ff" d="M132.98,-1187.06C154.94,-1180.59 179.9,-1173.25 202.57,-1166.58"/>
<polygon fill="#63b8ff" stroke="#63b8ff" points="131.72,-1183.78 123.11,-1189.96 133.69,-1190.49 131.72,-1183.78"/>
</g>
<!-- Node17 -->
<g id="node4" class="node">
<title>Node17</title>
<g id="a_node4"><a xlink:href="classPonca_1_1GLSDer.html" target="_top" xlink:title="Differentiation of GLSParam.">
<polygon fill="white" stroke="#666666" points="348.5,-1107 198.5,-1107 198.5,-1077 348.5,-1077 348.5,-1107"/>
<text text-anchor="start" x="206.5" y="-1095" font-family="Helvetica,sans-Serif" font-size="10.00">Ponca::GLSDer&lt; DataPoint,</text>
<text text-anchor="middle" x="273.5" y="-1084" font-family="Helvetica,sans-Serif" font-size="10.00"> _WFunctor, DiffType, T &gt;</text>
</a>
</g>
</g>
<!-- Node0&#45;&gt;Node17 -->
<g id="edge3" class="edge">
<title>Node0&#45;&gt;Node17</title>
<path fill="none" stroke="#63b8ff" d="M93.02,-1182.71C113.06,-1162.72 145.01,-1134 178,-1117 185.39,-1113.19 193.42,-1109.92 201.56,-1107.13"/>
<polygon fill="#63b8ff" stroke="#63b8ff" points="90.47,-1180.32 85.95,-1189.9 95.45,-1185.23 90.47,-1180.32"/>
</g>
<!-- Node18 -->
<g id="node5" class="node">
<title>Node18</title>
<g id="a_node5"><a xlink:href="classPonca_1_1GLSParam.html" target="_top" xlink:title="Growing Least Squares reparemetrization of the OrientedSphereFit.">
<polygon fill="white" stroke="#666666" points="355.5,-1059 191.5,-1059 191.5,-1029 355.5,-1029 355.5,-1059"/>
<text text-anchor="start" x="199.5" y="-1047" font-family="Helvetica,sans-Serif" font-size="10.00">Ponca::GLSParam&lt; DataPoint,</text>
<text text-anchor="middle" x="273.5" y="-1036" font-family="Helvetica,sans-Serif" font-size="10.00"> _WFunctor, T &gt;</text>
</a>
</g>
</g>
<!-- Node0&#45;&gt;Node18 -->
<g id="edge4" class="edge">
<title>Node0&#45;&gt;Node18</title>
<path fill="none" stroke="#63b8ff" d="M84.15,-1180.75C100.94,-1149.77 134.21,-1096.72 178,-1068 183.24,-1064.57 188.93,-1061.62 194.85,-1059.1"/>
<polygon fill="#63b8ff" stroke="#63b8ff" points="80.85,-1179.5 79.28,-1189.98 87.04,-1182.76 80.85,-1179.5"/>
</g>
<!-- Node23 -->
<g id="node6" class="node">
<title>Node23</title>
<g id="a_node6"><a xlink:href="classPonca_1_1MlsSphereFitDer.html" target="_top" xlink:title="Extension performing derivation of the mls surface.">
<polygon fill="white" stroke="#666666" points="341.5,-1402.5 205.5,-1402.5 205.5,-1361.5 341.5,-1361.5 341.5,-1402.5"/>
<text text-anchor="start" x="213.5" y="-1390.5" font-family="Helvetica,sans-Serif" font-size="10.00">Ponca::MlsSphereFitDer</text>
<text text-anchor="start" x="213.5" y="-1379.5" font-family="Helvetica,sans-Serif" font-size="10.00">&lt; DataPoint, _WFunctor,</text>
<text text-anchor="middle" x="273.5" y="-1368.5" font-family="Helvetica,sans-Serif" font-size="10.00"> DiffType, T &gt;</text>
</a>
</g>
</g>
<!-- Node0&#45;&gt;Node23 -->
<g id="edge5" class="edge">
<title>Node0&#45;&gt;Node23</title>
<path fill="none" stroke="#63b8ff" d="M83.16,-1229.41C99.4,-1262.28 132.66,-1320.39 178,-1353 186.22,-1358.91 195.67,-1363.64 205.35,-1367.41"/>
<polygon fill="#63b8ff" stroke="#63b8ff" points="86.15,-1227.57 78.66,-1220.08 79.85,-1230.6 86.15,-1227.57"/>
</g>
<!-- Node26 -->
<g id="node7" class="node">
<title>Node26</title>
<g id="a_node7"><a xlink:href="classPonca_1_1NormalDerivativesCurvatureEstimator.html" target="_top" xlink:title="Extension to compute curvature values from the Weingarten map .">
<polygon fill="white" stroke="#666666" points="360.5,-1343.5 186.5,-1343.5 186.5,-1302.5 360.5,-1302.5 360.5,-1343.5"/>
<text text-anchor="start" x="194.5" y="-1331.5" font-family="Helvetica,sans-Serif" font-size="10.00">Ponca::NormalDerivatives</text>
<text text-anchor="start" x="194.5" y="-1320.5" font-family="Helvetica,sans-Serif" font-size="10.00">CurvatureEstimator&lt; DataPoint,</text>
<text text-anchor="middle" x="273.5" y="-1309.5" font-family="Helvetica,sans-Serif" font-size="10.00"> _WFunctor, DiffType, T &gt;</text>
</a>
</g>
</g>
<!-- Node0&#45;&gt;Node26 -->
<g id="edge6" class="edge">
<title>Node0&#45;&gt;Node26</title>
<path fill="none" stroke="#63b8ff" d="M93.13,-1227.25C113.25,-1247.27 145.24,-1276.19 178,-1294 183.58,-1297.03 189.52,-1299.8 195.6,-1302.3"/>
<polygon fill="#63b8ff" stroke="#63b8ff" points="95.54,-1224.71 86.03,-1220.06 90.56,-1229.63 95.54,-1224.71"/>
</g>
<!-- Node30 -->
<g id="node8" class="node">
<title>Node30</title>
<g id="a_node8"><a xlink:href="classPonca_1_1PrimitiveDer.html" target="_top" xlink:title="Generic class performing the Fit derivation.">
<polygon fill="white" stroke="#666666" points="341.5,-1284.5 205.5,-1284.5 205.5,-1243.5 341.5,-1243.5 341.5,-1284.5"/>
<text text-anchor="start" x="213.5" y="-1272.5" font-family="Helvetica,sans-Serif" font-size="10.00">Ponca::PrimitiveDer</text>
<text text-anchor="start" x="213.5" y="-1261.5" font-family="Helvetica,sans-Serif" font-size="10.00">&lt; DataPoint, _WFunctor,</text>
<text text-anchor="middle" x="273.5" y="-1250.5" font-family="Helvetica,sans-Serif" font-size="10.00"> Type, T &gt;</text>
</a>
</g>
</g>
<!-- Node0&#45;&gt;Node30 -->
<g id="edge7" class="edge">
<title>Node0&#45;&gt;Node30</title>
<path fill="none" stroke="#63b8ff" d="M133.01,-1222.95C155.82,-1229.67 181.85,-1237.32 205.2,-1244.2"/>
<polygon fill="#63b8ff" stroke="#63b8ff" points="133.69,-1219.51 123.11,-1220.04 131.72,-1226.22 133.69,-1219.51"/>
</g>
<!-- Node5 -->
<g id="node9" class="node">
<title>Node5</title>
<g id="a_node9"><a xlink:title=" ">
<polygon fill="#e0e0e0" stroke="#999999" points="142,-819 0,-819 0,-789 142,-789 142,-819"/>
<text text-anchor="start" x="8" y="-807" font-family="Helvetica,sans-Serif" font-size="10.00">Concept::FittingProcedure</text>
<text text-anchor="middle" x="71" y="-796" font-family="Helvetica,sans-Serif" font-size="10.00">Concept</text>
</a>
</g>
</g>
<!-- Node4 -->
<g id="node10" class="node">
<title>Node4</title>
<g id="a_node10"><a xlink:href="classPonca_1_1CovarianceFitBase.html" target="_top" xlink:title="Line fitting procedure that minimize the orthogonal distance between the samples and the fitted primi...">
<polygon fill="white" stroke="#666666" points="351.5,-723 195.5,-723 195.5,-693 351.5,-693 351.5,-723"/>
<text text-anchor="start" x="203.5" y="-711" font-family="Helvetica,sans-Serif" font-size="10.00">Ponca::CovarianceFitBase</text>
<text text-anchor="middle" x="273.5" y="-700" font-family="Helvetica,sans-Serif" font-size="10.00">&lt; DataPoint, _WFunctor, T &gt;</text>
</a>
</g>
</g>
<!-- Node5&#45;&gt;Node4 -->
<g id="edge8" class="edge">
<title>Node5&#45;&gt;Node4</title>
<path fill="none" stroke="#63b8ff" d="M97.9,-782.6C118.47,-766.58 148.58,-745.23 178,-732 185.56,-728.6 193.7,-725.62 201.9,-723.03"/>
<polygon fill="#63b8ff" stroke="#63b8ff" points="95.64,-779.93 89.97,-788.88 99.98,-785.42 95.64,-779.93"/>
</g>
<!-- Node6 -->
<g id="node11" class="node">
<title>Node6</title>
<g id="a_node11"><a xlink:href="classPonca_1_1CovarianceLineFitImpl.html" target="_top" xlink:title="Line fitting procedure that minimize the orthogonal distance between the samples and the fitted primi...">
<polygon fill="white" stroke="#666666" points="362.5,-675 184.5,-675 184.5,-645 362.5,-645 362.5,-675"/>
<text text-anchor="start" x="192.5" y="-663" font-family="Helvetica,sans-Serif" font-size="10.00">Ponca::CovarianceLineFit</text>
<text text-anchor="middle" x="273.5" y="-652" font-family="Helvetica,sans-Serif" font-size="10.00">Impl&lt; DataPoint, _WFunctor, T &gt;</text>
</a>
</g>
</g>
<!-- Node5&#45;&gt;Node6 -->
<g id="edge9" class="edge">
<title>Node5&#45;&gt;Node6</title>
<path fill="none" stroke="#63b8ff" d="M93,-781.39C107.03,-766.16 125.82,-745.55 142,-727 158.39,-708.22 156.9,-697.27 178,-684 183.45,-680.58 189.36,-677.64 195.48,-675.12"/>
<polygon fill="#63b8ff" stroke="#63b8ff" points="90.35,-779.11 86.13,-788.83 95.49,-783.86 90.35,-779.11"/>
</g>
<!-- Node7 -->
<g id="node12" class="node">
<title>Node7</title>
<g id="a_node12"><a xlink:href="classPonca_1_1CovariancePlaneFitImpl.html" target="_top" xlink:title="Plane fitting procedure using only points position.">
<polygon fill="white" stroke="#666666" points="362.5,-627 184.5,-627 184.5,-597 362.5,-597 362.5,-627"/>
<text text-anchor="start" x="192.5" y="-615" font-family="Helvetica,sans-Serif" font-size="10.00">Ponca::CovariancePlaneFit</text>
<text text-anchor="middle" x="273.5" y="-604" font-family="Helvetica,sans-Serif" font-size="10.00">Impl&lt; DataPoint, _WFunctor, T &gt;</text>
</a>
</g>
</g>
<!-- Node5&#45;&gt;Node7 -->
<g id="edge10" class="edge">
<title>Node5&#45;&gt;Node7</title>
<path fill="none" stroke="#63b8ff" d="M96.2,-781.83C110.94,-767.33 129.31,-747.37 142,-727 165,-690.09 145.34,-664.73 178,-636 181.81,-632.65 186.03,-629.75 190.5,-627.25"/>
<polygon fill="#63b8ff" stroke="#63b8ff" points="93.65,-779.42 88.88,-788.88 98.51,-784.47 93.65,-779.42"/>
</g>
<!-- Node8 -->
<g id="node13" class="node">
<title>Node8</title>
<g id="a_node13"><a xlink:href="classPonca_1_1MeanNormal.html" target="_top" xlink:title="Compute the barycenter of the input points + their normals.">
<polygon fill="white" stroke="#666666" points="347.5,-1011 199.5,-1011 199.5,-981 347.5,-981 347.5,-1011"/>
<text text-anchor="start" x="207.5" y="-999" font-family="Helvetica,sans-Serif" font-size="10.00">Ponca::MeanNormal&lt;</text>
<text text-anchor="middle" x="273.5" y="-988" font-family="Helvetica,sans-Serif" font-size="10.00"> DataPoint, _WFunctor, T &gt;</text>
</a>
</g>
</g>
<!-- Node5&#45;&gt;Node8 -->
<g id="edge11" class="edge">
<title>Node5&#45;&gt;Node8</title>
<path fill="none" stroke="#63b8ff" d="M80.64,-828.53C94.94,-865.49 127.12,-935.03 178,-972 184.44,-976.68 191.69,-980.44 199.26,-983.48"/>
<polygon fill="#63b8ff" stroke="#63b8ff" points="83.86,-827.16 77.08,-819.03 77.31,-829.62 83.86,-827.16"/>
</g>
<!-- Node9 -->
<g id="node14" class="node">
<title>Node9</title>
<g id="a_node14"><a xlink:href="classPonca_1_1MeanPlaneFitImpl.html" target="_top" xlink:title="Plane fitting procedure computing the mean position and orientation from oriented points.">
<polygon fill="white" stroke="#666666" points="351.5,-963 195.5,-963 195.5,-933 351.5,-933 351.5,-963"/>
<text text-anchor="start" x="203.5" y="-951" font-family="Helvetica,sans-Serif" font-size="10.00">Ponca::MeanPlaneFitImpl</text>
<text text-anchor="middle" x="273.5" y="-940" font-family="Helvetica,sans-Serif" font-size="10.00">&lt; DataPoint, _WFunctor, T &gt;</text>
</a>
</g>
</g>
<!-- Node5&#45;&gt;Node9 -->
<g id="edge12" class="edge">
<title>Node5&#45;&gt;Node9</title>
<path fill="none" stroke="#63b8ff" d="M86.54,-827.72C104.59,-855.12 137.92,-899.54 178,-924 183.63,-927.44 189.75,-930.39 196.06,-932.91"/>
<polygon fill="#63b8ff" stroke="#63b8ff" points="89.37,-825.66 81.02,-819.14 83.49,-829.44 89.37,-825.66"/>
</g>
<!-- Node10 -->
<g id="node15" class="node">
<title>Node10</title>
<g id="a_node15"><a xlink:href="classPonca_1_1MeanPosition.html" target="_top" xlink:title="Compute the barycenter of the input points.">
<polygon fill="white" stroke="#666666" points="351.5,-915 195.5,-915 195.5,-885 351.5,-885 351.5,-915"/>
<text text-anchor="start" x="203.5" y="-903" font-family="Helvetica,sans-Serif" font-size="10.00">Ponca::MeanPosition</text>
<text text-anchor="middle" x="273.5" y="-892" font-family="Helvetica,sans-Serif" font-size="10.00">&lt; DataPoint, _WFunctor, T &gt;</text>
</a>
</g>
</g>
<!-- Node5&#45;&gt;Node10 -->
<g id="edge13" class="edge">
<title>Node5&#45;&gt;Node10</title>
<path fill="none" stroke="#63b8ff" d="M97.9,-825.4C118.47,-841.42 148.58,-862.77 178,-876 185.56,-879.4 193.7,-882.38 201.9,-884.97"/>
<polygon fill="#63b8ff" stroke="#63b8ff" points="99.98,-822.58 89.97,-819.12 95.64,-828.07 99.98,-822.58"/>
</g>
<!-- Node11 -->
<g id="node16" class="node">
<title>Node11</title>
<g id="a_node16"><a xlink:href="classPonca_1_1OrientedSphereFitImpl.html" target="_top" xlink:title="Algebraic Sphere fitting procedure on oriented point sets.">
<polygon fill="white" stroke="#666666" points="362.5,-867 184.5,-867 184.5,-837 362.5,-837 362.5,-867"/>
<text text-anchor="start" x="192.5" y="-855" font-family="Helvetica,sans-Serif" font-size="10.00">Ponca::OrientedSphereFit</text>
<text text-anchor="middle" x="273.5" y="-844" font-family="Helvetica,sans-Serif" font-size="10.00">Impl&lt; DataPoint, _WFunctor, T &gt;</text>
</a>
</g>
</g>
<!-- Node5&#45;&gt;Node11 -->
<g id="edge14" class="edge">
<title>Node5&#45;&gt;Node11</title>
<path fill="none" stroke="#63b8ff" d="M144.86,-821.44C166.15,-826.54 189.23,-832.07 209.83,-837"/>
<polygon fill="#63b8ff" stroke="#63b8ff" points="145.43,-817.98 134.89,-819.06 143.8,-824.79 145.43,-817.98"/>
</g>
<!-- Node12 -->
<g id="node17" class="node">
<title>Node12</title>
<g id="a_node17"><a xlink:href="classPonca_1_1SphereFitImpl.html" target="_top" xlink:title="Algebraic Sphere fitting procedure on point sets without normals.">
<polygon fill="white" stroke="#666666" points="351.5,-819 195.5,-819 195.5,-789 351.5,-789 351.5,-819"/>
<text text-anchor="start" x="203.5" y="-807" font-family="Helvetica,sans-Serif" font-size="10.00">Ponca::SphereFitImpl</text>
<text text-anchor="middle" x="273.5" y="-796" font-family="Helvetica,sans-Serif" font-size="10.00">&lt; DataPoint, _WFunctor, T &gt;</text>
</a>
</g>
</g>
<!-- Node5&#45;&gt;Node12 -->
<g id="edge15" class="edge">
<title>Node5&#45;&gt;Node12</title>
<path fill="none" stroke="#63b8ff" d="M152.31,-804C166.46,-804 181.17,-804 195.23,-804"/>
<polygon fill="#63b8ff" stroke="#63b8ff" points="152.13,-800.5 142.13,-804 152.13,-807.5 152.13,-800.5"/>
</g>
<!-- Node13 -->
<g id="node18" class="node">
<title>Node13</title>
<g id="a_node18"><a xlink:href="classPonca_1_1UnorientedSphereFitImpl.html" target="_top" xlink:title="Algebraic Sphere fitting procedure on point sets with non&#45;oriented normals.">
<polygon fill="white" stroke="#666666" points="362.5,-771 184.5,-771 184.5,-741 362.5,-741 362.5,-771"/>
<text text-anchor="start" x="192.5" y="-759" font-family="Helvetica,sans-Serif" font-size="10.00">Ponca::UnorientedSphereFit</text>
<text text-anchor="middle" x="273.5" y="-748" font-family="Helvetica,sans-Serif" font-size="10.00">Impl&lt; DataPoint, _WFunctor, T &gt;</text>
</a>
</g>
</g>
<!-- Node5&#45;&gt;Node13 -->
<g id="edge16" class="edge">
<title>Node5&#45;&gt;Node13</title>
<path fill="none" stroke="#63b8ff" d="M144.86,-786.56C166.15,-781.46 189.23,-775.93 209.83,-771"/>
<polygon fill="#63b8ff" stroke="#63b8ff" points="143.8,-783.21 134.89,-788.94 145.43,-790.02 143.8,-783.21"/>
</g>
<!-- Node29 -->
<g id="node19" class="node">
<title>Node29</title>
<g id="a_node19"><a xlink:title=" ">
<polygon fill="#e0e0e0" stroke="#999999" points="124,-72.5 18,-72.5 18,-53.5 124,-53.5 124,-72.5"/>
<text text-anchor="middle" x="71" y="-60.5" font-family="Helvetica,sans-Serif" font-size="10.00">Eigen::Hyperplane</text>
</a>
</g>
</g>
<!-- Node28 -->
<g id="node20" class="node">
<title>Node28</title>
<g id="a_node20"><a xlink:href="classPonca_1_1Plane.html" target="_top" xlink:title="Implicit hyperplane defined by an homogeneous vector .">
<polygon fill="white" stroke="#666666" points="344,-78 203,-78 203,-48 344,-48 344,-78"/>
<text text-anchor="start" x="211" y="-66" font-family="Helvetica,sans-Serif" font-size="10.00">Ponca::Plane&lt; DataPoint,</text>
<text text-anchor="middle" x="273.5" y="-55" font-family="Helvetica,sans-Serif" font-size="10.00"> _WFunctor, T &gt;</text>
</a>
</g>
</g>
<!-- Node29&#45;&gt;Node28 -->
<g id="edge17" class="edge">
<title>Node29&#45;&gt;Node28</title>
<path fill="none" stroke="#63b8ff" d="M134.26,-63C156,-63 180.55,-63 202.86,-63"/>
<polygon fill="#63b8ff" stroke="#63b8ff" points="134.16,-59.5 124.16,-63 134.16,-66.5 134.16,-59.5"/>
</g>
<!-- Node20 -->
<g id="node21" class="node">
<title>Node20</title>
<g id="a_node21"><a xlink:title=" ">
<polygon fill="#e0e0e0" stroke="#999999" points="138,-24.5 4,-24.5 4,-5.5 138,-5.5 138,-24.5"/>
<text text-anchor="middle" x="71" y="-12.5" font-family="Helvetica,sans-Serif" font-size="10.00">Eigen::ParametrizedLine</text>
</a>
</g>
</g>
<!-- Node19 -->
<g id="node22" class="node">
<title>Node19</title>
<g id="a_node22"><a xlink:href="classPonca_1_1Line.html" target="_top" xlink:title="A parametrized line is defined by an origin point &#160;and a unit direction vector &#160;such that the line co...">
<polygon fill="white" stroke="#666666" points="340.5,-30 206.5,-30 206.5,0 340.5,0 340.5,-30"/>
<text text-anchor="start" x="214.5" y="-18" font-family="Helvetica,sans-Serif" font-size="10.00">Ponca::Line&lt; DataPoint,</text>
<text text-anchor="middle" x="273.5" y="-7" font-family="Helvetica,sans-Serif" font-size="10.00"> _WFunctor, T &gt;</text>
</a>
</g>
</g>
<!-- Node20&#45;&gt;Node19 -->
<g id="edge18" class="edge">
<title>Node20&#45;&gt;Node19</title>
<path fill="none" stroke="#63b8ff" d="M148.37,-15C167.47,-15 187.8,-15 206.36,-15"/>
<polygon fill="#63b8ff" stroke="#63b8ff" points="148.21,-11.5 138.21,-15 148.21,-18.5 148.21,-11.5"/>
</g>
<!-- Node2 -->
<g id="node23" class="node">
<title>Node2</title>
<g id="a_node23"><a xlink:title=" ">
<polygon fill="#e0e0e0" stroke="#999999" points="85.5,-717.5 56.5,-717.5 56.5,-698.5 85.5,-698.5 85.5,-717.5"/>
<text text-anchor="middle" x="71" y="-705.5" font-family="Helvetica,sans-Serif" font-size="10.00">T</text>
</a>
</g>
</g>
<!-- Node2&#45;&gt;Node1 -->
<g id="edge21" class="edge">
<title>Node2&#45;&gt;Node1</title>
<path fill="none" stroke="#63b8ff" d="M93.62,-723.52C109.96,-736.58 131.33,-756.8 142,-780 178.92,-860.28 122.31,-1107.39 178,-1176 185.14,-1184.79 194.88,-1190.98 205.4,-1195.32"/>
<polygon fill="#63b8ff" stroke="#63b8ff" points="95.68,-720.69 85.62,-717.37 91.41,-726.24 95.68,-720.69"/>
</g>
<!-- Node2&#45;&gt;Node14 -->
<g id="edge23" class="edge">
<title>Node2&#45;&gt;Node14</title>
<path fill="none" stroke="#63b8ff" d="M93.52,-723.57C109.8,-736.65 131.15,-756.89 142,-780 173.92,-847.97 130.49,-1057.85 178,-1116 182.57,-1121.6 188.19,-1126.17 194.39,-1129.89"/>
<polygon fill="#63b8ff" stroke="#63b8ff" points="95.6,-720.75 85.55,-717.4 91.31,-726.29 95.6,-720.75"/>
</g>
<!-- Node2&#45;&gt;Node17 -->
<g id="edge27" class="edge">
<title>Node2&#45;&gt;Node17</title>
<path fill="none" stroke="#63b8ff" d="M93.69,-723.85C109.87,-736.97 131.01,-757.12 142,-780 197.86,-896.28 92.63,-971.29 178,-1068 183.6,-1074.34 190.62,-1079.13 198.29,-1082.71"/>
<polygon fill="#63b8ff" stroke="#63b8ff" points="95.79,-721.05 85.76,-717.65 91.48,-726.57 95.79,-721.05"/>
</g>
<!-- Node2&#45;&gt;Node18 -->
<g id="edge28" class="edge">
<title>Node2&#45;&gt;Node18</title>
<path fill="none" stroke="#63b8ff" d="M93.53,-723.93C109.63,-737.09 130.73,-757.25 142,-780 189.89,-876.64 105.63,-940.02 178,-1020 181.86,-1024.27 186.36,-1027.82 191.27,-1030.79"/>
<polygon fill="#63b8ff" stroke="#63b8ff" points="95.67,-721.15 85.65,-717.71 91.33,-726.65 95.67,-721.15"/>
</g>
<!-- Node2&#45;&gt;Node23 -->
<g id="edge35" class="edge">
<title>Node2&#45;&gt;Node23</title>
<path fill="none" stroke="#63b8ff" d="M93.8,-723.44C110.24,-736.45 131.66,-756.65 142,-780 193.68,-896.65 98.98,-1252.83 178,-1353 185.01,-1361.89 194.69,-1368.13 205.2,-1372.48"/>
<polygon fill="#63b8ff" stroke="#63b8ff" points="95.82,-720.58 85.74,-717.31 91.58,-726.15 95.82,-720.58"/>
</g>
<!-- Node2&#45;&gt;Node26 -->
<g id="edge38" class="edge">
<title>Node2&#45;&gt;Node26</title>
<path fill="none" stroke="#63b8ff" d="M93.75,-723.46C110.16,-736.48 131.57,-756.69 142,-780 188.75,-884.52 106.76,-1204.36 178,-1294 180.46,-1297.09 183.23,-1299.86 186.25,-1302.34"/>
<polygon fill="#63b8ff" stroke="#63b8ff" points="95.78,-720.61 85.71,-717.33 91.54,-726.17 95.78,-720.61"/>
</g>
<!-- Node2&#45;&gt;Node30 -->
<g id="edge42" class="edge">
<title>Node2&#45;&gt;Node30</title>
<path fill="none" stroke="#63b8ff" d="M93.69,-723.49C110.07,-736.53 131.47,-756.74 142,-780 183.83,-872.4 114.54,-1155.88 178,-1235 185.09,-1243.84 194.8,-1250.04 205.32,-1254.39"/>
<polygon fill="#63b8ff" stroke="#63b8ff" points="95.74,-720.64 85.67,-717.35 91.48,-726.2 95.74,-720.64"/>
</g>
<!-- Node2&#45;&gt;Node4 -->
<g id="edge20" class="edge">
<title>Node2&#45;&gt;Node4</title>
<path fill="none" stroke="#63b8ff" d="M95.92,-708C120.41,-708 159.8,-708 195.17,-708"/>
<polygon fill="#63b8ff" stroke="#63b8ff" points="95.78,-704.5 85.78,-708 95.78,-711.5 95.78,-704.5"/>
</g>
<!-- Node2&#45;&gt;Node6 -->
<g id="edge22" class="edge">
<title>Node2&#45;&gt;Node6</title>
<path fill="none" stroke="#63b8ff" d="M95.81,-702.3C123.73,-695.62 171.13,-684.27 209.81,-675.01"/>
<polygon fill="#63b8ff" stroke="#63b8ff" points="94.69,-698.97 85.78,-704.7 96.32,-705.78 94.69,-698.97"/>
</g>
<!-- Node2&#45;&gt;Node7 -->
<g id="edge24" class="edge">
<title>Node2&#45;&gt;Node7</title>
<path fill="none" stroke="#63b8ff" d="M91.13,-691.95C111.47,-675.65 145.16,-650.77 178,-636 185.56,-632.6 193.7,-629.62 201.9,-627.03"/>
<polygon fill="#63b8ff" stroke="#63b8ff" points="88.82,-689.32 83.28,-698.35 93.24,-694.75 88.82,-689.32"/>
</g>
<!-- Node2&#45;&gt;Node8 -->
<g id="edge30" class="edge">
<title>Node2&#45;&gt;Node8</title>
<path fill="none" stroke="#63b8ff" d="M93.02,-723.81C109.03,-737.03 130.25,-757.33 142,-780 181.96,-857.08 118.58,-908.69 178,-972 183.91,-978.29 191.21,-983.03 199.12,-986.59"/>
<polygon fill="#63b8ff" stroke="#63b8ff" points="95.2,-721.08 85.21,-717.57 90.84,-726.55 95.2,-721.08"/>
</g>
<!-- Node2&#45;&gt;Node9 -->
<g id="edge32" class="edge">
<title>Node2&#45;&gt;Node9</title>
<path fill="none" stroke="#63b8ff" d="M93.09,-724.38C108.84,-737.71 129.69,-757.9 142,-780 174.1,-837.63 131.44,-877.27 178,-924 183.02,-929.04 188.93,-933.07 195.32,-936.28"/>
<polygon fill="#63b8ff" stroke="#63b8ff" points="94.9,-721.34 84.95,-717.71 90.47,-726.75 94.9,-721.34"/>
</g>
<!-- Node2&#45;&gt;Node10 -->
<g id="edge33" class="edge">
<title>Node2&#45;&gt;Node10</title>
<path fill="none" stroke="#63b8ff" d="M91.86,-724.32C107.29,-737.88 128.3,-758.38 142,-780 166.4,-818.49 144.06,-845.6 178,-876 183.17,-880.63 189.11,-884.39 195.43,-887.45"/>
<polygon fill="#63b8ff" stroke="#63b8ff" points="93.82,-721.39 83.95,-717.54 89.26,-726.71 93.82,-721.39"/>
</g>
<!-- Node2&#45;&gt;Node11 -->
<g id="edge40" class="edge">
<title>Node2&#45;&gt;Node11</title>
<path fill="none" stroke="#63b8ff" d="M89.76,-725.02C104.32,-739.25 125.18,-760.32 142,-780 159.33,-800.27 155.81,-813.21 178,-828 183.21,-831.47 188.89,-834.45 194.79,-836.99"/>
<polygon fill="#63b8ff" stroke="#63b8ff" points="92.01,-722.32 82.39,-717.87 87.13,-727.34 92.01,-722.32"/>
</g>
<!-- Node2&#45;&gt;Node12 -->
<g id="edge44" class="edge">
<title>Node2&#45;&gt;Node12</title>
<path fill="none" stroke="#63b8ff" d="M91.13,-724.05C111.47,-740.35 145.16,-765.23 178,-780 185.56,-783.4 193.7,-786.38 201.9,-788.97"/>
<polygon fill="#63b8ff" stroke="#63b8ff" points="93.24,-721.25 83.28,-717.65 88.82,-726.68 93.24,-721.25"/>
</g>
<!-- Node2&#45;&gt;Node13 -->
<g id="edge45" class="edge">
<title>Node2&#45;&gt;Node13</title>
<path fill="none" stroke="#63b8ff" d="M95.81,-713.7C123.73,-720.38 171.13,-731.73 209.81,-740.99"/>
<polygon fill="#63b8ff" stroke="#63b8ff" points="96.32,-710.22 85.78,-711.3 94.69,-717.03 96.32,-710.22"/>
</g>
<!-- Node2&#45;&gt;Node28 -->
<g id="edge41" class="edge">
<title>Node2&#45;&gt;Node28</title>
<path fill="none" stroke="#63b8ff" d="M72.6,-687.98C75.9,-591.89 94.79,-178.99 178,-88 184.76,-80.61 193.42,-75.3 202.75,-71.5"/>
<polygon fill="#63b8ff" stroke="#63b8ff" points="69.1,-687.97 72.27,-698.08 76.1,-688.2 69.1,-687.97"/>
</g>
<!-- Node2&#45;&gt;Node19 -->
<g id="edge29" class="edge">
<title>Node2&#45;&gt;Node19</title>
<path fill="none" stroke="#63b8ff" d="M72.31,-688C74.27,-587.4 88.04,-137.6 178,-39 185.53,-30.75 195.46,-25.15 206.05,-21.4"/>
<polygon fill="#63b8ff" stroke="#63b8ff" points="68.81,-688.2 72.13,-698.27 75.8,-688.33 68.81,-688.2"/>
</g>
<!-- Node3 -->
<g id="node24" class="node">
<title>Node3</title>
<g id="a_node24"><a xlink:href="classPonca_1_1AlgebraicSphere.html" target="_top" xlink:title="Algebraic Sphere primitive.">
<polygon fill="white" stroke="#666666" points="351.5,-579 195.5,-579 195.5,-549 351.5,-549 351.5,-579"/>
<text text-anchor="start" x="203.5" y="-567" font-family="Helvetica,sans-Serif" font-size="10.00">Ponca::AlgebraicSphere</text>
<text text-anchor="middle" x="273.5" y="-556" font-family="Helvetica,sans-Serif" font-size="10.00">&lt; DataPoint, _WFunctor, T &gt;</text>
</a>
</g>
</g>
<!-- Node2&#45;&gt;Node3 -->
<g id="edge19" class="edge">
<title>Node2&#45;&gt;Node3</title>
<path fill="none" stroke="#63b8ff" d="M82.96,-689.8C99.93,-663.24 135.1,-614.18 178,-588 183.63,-584.56 189.75,-581.61 196.06,-579.09"/>
<polygon fill="#63b8ff" stroke="#63b8ff" points="79.87,-688.14 77.56,-698.48 85.81,-691.84 79.87,-688.14"/>
</g>
<!-- Node15 -->
<g id="node25" class="node">
<title>Node15</title>
<g id="a_node25"><a xlink:href="classPonca_1_1CurvatureEstimatorBase.html" target="_top" xlink:title="Base class for any 3d curvature estimator: holds , &#160;and associated vectors, such that .">
<polygon fill="white" stroke="#666666" points="353.5,-530.5 193.5,-530.5 193.5,-489.5 353.5,-489.5 353.5,-530.5"/>
<text text-anchor="start" x="201.5" y="-518.5" font-family="Helvetica,sans-Serif" font-size="10.00">Ponca::CurvatureEstimator</text>
<text text-anchor="start" x="201.5" y="-507.5" font-family="Helvetica,sans-Serif" font-size="10.00">Base&lt; DataPoint, _WFunctor,</text>
<text text-anchor="middle" x="273.5" y="-496.5" font-family="Helvetica,sans-Serif" font-size="10.00"> DiffType, T &gt;</text>
</a>
</g>
</g>
<!-- Node2&#45;&gt;Node15 -->
<g id="edge25" class="edge">
<title>Node2&#45;&gt;Node15</title>
<path fill="none" stroke="#63b8ff" d="M78.9,-688.91C92.45,-654.13 125.81,-580.31 178,-540 182.77,-536.32 188,-533.08 193.48,-530.24"/>
<polygon fill="#63b8ff" stroke="#63b8ff" points="75.59,-687.78 75.34,-698.38 82.14,-690.25 75.59,-687.78"/>
</g>
<!-- Node16 -->
<g id="node26" class="node">
<title>Node16</title>
<g id="a_node26"><a xlink:href="classPonca_1_1DryFit.html" target="_top" xlink:title="Empty fitting object doing no computation.">
<polygon fill="white" stroke="#666666" points="345,-471 202,-471 202,-441 345,-441 345,-471"/>
<text text-anchor="start" x="210" y="-459" font-family="Helvetica,sans-Serif" font-size="10.00">Ponca::DryFit&lt; DataPoint,</text>
<text text-anchor="middle" x="273.5" y="-448" font-family="Helvetica,sans-Serif" font-size="10.00"> _WFunctor, T &gt;</text>
</a>
</g>
</g>
<!-- Node2&#45;&gt;Node16 -->
<g id="edge26" class="edge">
<title>Node2&#45;&gt;Node16</title>
<path fill="none" stroke="#63b8ff" d="M75.35,-688.53C83.96,-644.54 111.08,-536.94 178,-481 185.03,-475.12 193.3,-470.61 201.97,-467.15"/>
<polygon fill="#63b8ff" stroke="#63b8ff" points="71.88,-688.03 73.5,-698.5 78.76,-689.3 71.88,-688.03"/>
</g>
<!-- Node21 -->
<g id="node27" class="node">
<title>Node21</title>
<g id="a_node27"><a xlink:href="classPonca_1_1MeanNormalDer.html" target="_top" xlink:title=" ">
<polygon fill="white" stroke="#666666" points="341.5,-422.5 205.5,-422.5 205.5,-381.5 341.5,-381.5 341.5,-422.5"/>
<text text-anchor="start" x="213.5" y="-410.5" font-family="Helvetica,sans-Serif" font-size="10.00">Ponca::MeanNormalDer</text>
<text text-anchor="start" x="213.5" y="-399.5" font-family="Helvetica,sans-Serif" font-size="10.00">&lt; DataPoint, _WFunctor,</text>
<text text-anchor="middle" x="273.5" y="-388.5" font-family="Helvetica,sans-Serif" font-size="10.00"> DiffType, T &gt;</text>
</a>
</g>
</g>
<!-- Node2&#45;&gt;Node21 -->
<g id="edge31" class="edge">
<title>Node2&#45;&gt;Node21</title>
<path fill="none" stroke="#63b8ff" d="M73.82,-688.12C79.51,-637.78 101.41,-504.18 178,-432 185.77,-424.68 195.31,-419.15 205.32,-414.96"/>
<polygon fill="#63b8ff" stroke="#63b8ff" points="70.32,-687.99 72.77,-698.3 77.28,-688.71 70.32,-687.99"/>
</g>
<!-- Node22 -->
<g id="node28" class="node">
<title>Node22</title>
<g id="a_node28"><a xlink:href="classPonca_1_1MeanPositionDer.html" target="_top" xlink:title=" ">
<polygon fill="white" stroke="#666666" points="341.5,-363.5 205.5,-363.5 205.5,-322.5 341.5,-322.5 341.5,-363.5"/>
<text text-anchor="start" x="213.5" y="-351.5" font-family="Helvetica,sans-Serif" font-size="10.00">Ponca::MeanPositionDer</text>
<text text-anchor="start" x="213.5" y="-340.5" font-family="Helvetica,sans-Serif" font-size="10.00">&lt; DataPoint, _WFunctor,</text>
<text text-anchor="middle" x="273.5" y="-329.5" font-family="Helvetica,sans-Serif" font-size="10.00"> DiffType, T &gt;</text>
</a>
</g>
</g>
<!-- Node2&#45;&gt;Node22 -->
<g id="edge34" class="edge">
<title>Node2&#45;&gt;Node22</title>
<path fill="none" stroke="#63b8ff" d="M72.27,-688.24C74.13,-631.04 87.45,-463.64 178,-373 185.66,-365.33 195.28,-359.62 205.42,-355.36"/>
<polygon fill="#63b8ff" stroke="#63b8ff" points="68.76,-688.35 72.02,-698.43 75.76,-688.52 68.76,-688.35"/>
</g>
<!-- Node24 -->
<g id="node29" class="node">
<title>Node24</title>
<g id="a_node29"><a xlink:href="classPonca_1_1MongePatch.html" target="_top" xlink:title="Extension to compute the best fit quadric on 3d points expressed as .">
<polygon fill="white" stroke="#666666" points="347.5,-304 199.5,-304 199.5,-274 347.5,-274 347.5,-304"/>
<text text-anchor="start" x="207.5" y="-292" font-family="Helvetica,sans-Serif" font-size="10.00">Ponca::MongePatch&lt;</text>
<text text-anchor="middle" x="273.5" y="-281" font-family="Helvetica,sans-Serif" font-size="10.00"> DataPoint, _WFunctor, T &gt;</text>
</a>
</g>
</g>
<!-- Node2&#45;&gt;Node24 -->
<g id="edge36" class="edge">
<title>Node2&#45;&gt;Node24</title>
<path fill="none" stroke="#63b8ff" d="M74.65,-688.45C84.78,-616.61 123.21,-368.56 178,-314 184.01,-308.01 191.28,-303.41 199.09,-299.88"/>
<polygon fill="#63b8ff" stroke="#63b8ff" points="71.18,-688.03 73.27,-698.41 78.11,-688.99 71.18,-688.03"/>
</g>
<!-- Node25 -->
<g id="node30" class="node">
<title>Node25</title>
<g id="a_node30"><a xlink:href="classPonca_1_1NormalCovarianceCurvatureEstimator.html" target="_top" xlink:title="Extension to compute curvature values based on a covariance analysis of normal vectors of neighbors.">
<polygon fill="white" stroke="#666666" points="369,-255.5 178,-255.5 178,-214.5 369,-214.5 369,-255.5"/>
<text text-anchor="start" x="186" y="-243.5" font-family="Helvetica,sans-Serif" font-size="10.00">Ponca::NormalCovarianceCurvature</text>
<text text-anchor="start" x="186" y="-232.5" font-family="Helvetica,sans-Serif" font-size="10.00">Estimator&lt; DataPoint, _WFunctor,</text>
<text text-anchor="middle" x="273.5" y="-221.5" font-family="Helvetica,sans-Serif" font-size="10.00"> DiffType, T &gt;</text>
</a>
</g>
</g>
<!-- Node2&#45;&gt;Node25 -->
<g id="edge37" class="edge">
<title>Node2&#45;&gt;Node25</title>
<path fill="none" stroke="#63b8ff" d="M74.16,-688.17C82.99,-610.58 118.71,-328.76 178,-265 181.28,-261.47 184.98,-258.35 188.95,-255.6"/>
<polygon fill="#63b8ff" stroke="#63b8ff" points="70.64,-688.12 73.01,-698.45 77.6,-688.9 70.64,-688.12"/>
</g>
<!-- Node27 -->
<g id="node31" class="node">
<title>Node27</title>
<g id="a_node31"><a xlink:href="classPonca_1_1OrientedSphereDerImpl.html" target="_top" xlink:title="[OrientedSphereFit Definition]">
<polygon fill="white" stroke="#666666" points="352.5,-196.5 194.5,-196.5 194.5,-155.5 352.5,-155.5 352.5,-196.5"/>
<text text-anchor="start" x="202.5" y="-184.5" font-family="Helvetica,sans-Serif" font-size="10.00">Ponca::OrientedSphereDer</text>
<text text-anchor="start" x="202.5" y="-173.5" font-family="Helvetica,sans-Serif" font-size="10.00">Impl&lt; DataPoint, _WFunctor,</text>
<text text-anchor="middle" x="273.5" y="-162.5" font-family="Helvetica,sans-Serif" font-size="10.00"> DiffType, T &gt;</text>
</a>
</g>
</g>
<!-- Node2&#45;&gt;Node27 -->
<g id="edge39" class="edge">
<title>Node2&#45;&gt;Node27</title>
<path fill="none" stroke="#63b8ff" d="M73.55,-688.27C80.51,-604.54 111.48,-279.47 178,-206 182.62,-200.9 188.11,-196.65 194.07,-193.13"/>
<polygon fill="#63b8ff" stroke="#63b8ff" points="70.05,-688.18 72.73,-698.43 77.02,-688.75 70.05,-688.18"/>
</g>
<!-- Node31 -->
<g id="node32" class="node">
<title>Node31</title>
<g id="a_node32"><a xlink:href="classPonca_1_1ProjectedNormalCovarianceCurvatureEstimator.html" target="_top" xlink:title="Extension to compute curvature values based on a covariance analysis of normal vectors of neighbors p...">
<polygon fill="white" stroke="#666666" points="367.5,-137.5 179.5,-137.5 179.5,-96.5 367.5,-96.5 367.5,-137.5"/>
<text text-anchor="start" x="187.5" y="-125.5" font-family="Helvetica,sans-Serif" font-size="10.00">Ponca::ProjectedNormalCovariance</text>
<text text-anchor="start" x="187.5" y="-114.5" font-family="Helvetica,sans-Serif" font-size="10.00">CurvatureEstimator&lt; DataPoint,</text>
<text text-anchor="middle" x="273.5" y="-103.5" font-family="Helvetica,sans-Serif" font-size="10.00"> _WFunctor, DiffType, T &gt;</text>
</a>
</g>
</g>
<!-- Node2&#45;&gt;Node31 -->
<g id="edge43" class="edge">
<title>Node2&#45;&gt;Node31</title>
<path fill="none" stroke="#63b8ff" d="M73.09,-688C78.4,-597.86 104.32,-230.15 178,-147 181.08,-143.52 184.57,-140.44 188.33,-137.72"/>
<polygon fill="#63b8ff" stroke="#63b8ff" points="69.58,-688.02 72.51,-698.21 76.57,-688.42 69.58,-688.02"/>
</g>
</g>
</svg>
