<?xml version="1.0" encoding="UTF-8" standalone="no"?>
<!DOCTYPE svg PUBLIC "-//W3C//DTD SVG 1.1//EN"
 "http://www.w3.org/Graphics/SVG/1.1/DTD/svg11.dtd">
<!-- Generated by graphviz version 2.43.0 (0)
 -->
<!-- Title: Graphical Class Hierarchy Pages: 1 -->
<svg width="377pt" height="1351pt"
 viewBox="0.00 0.00 377.00 1350.50" xmlns="http://www.w3.org/2000/svg" xmlns:xlink="http://www.w3.org/1999/xlink">
<g id="graph0" class="graph" transform="scale(1 1) rotate(0) translate(4 1346.5)">
<title>Graphical Class Hierarchy</title>
<!-- Node0 -->
<g id="node1" class="node">
<title>Node0</title>
<g id="a_node1"><a xlink:title=" ">
<polygon fill="#e0e0e0" stroke="#999999" points="141.5,-1130 0.5,-1130 0.5,-1100 141.5,-1100 141.5,-1130"/>
<text text-anchor="start" x="8.5" y="-1118" font-family="Helvetica,sans-Serif" font-size="10.00">Concept::FittingExtension</text>
<text text-anchor="middle" x="71" y="-1107" font-family="Helvetica,sans-Serif" font-size="10.00">Concept</text>
</a>
</g>
</g>
<!-- Node1 -->
<g id="node2" class="node">
<title>Node1</title>
<g id="a_node2"><a xlink:href="group__fitting.html#classPonca_1_1CovarianceFitDer" target="_top" xlink:title="Internal generic class computing the derivatives of covariance matrix computed by CovarianceFitBase.">
<polygon fill="white" stroke="#666666" points="341.5,-1106.5 205.5,-1106.5 205.5,-1065.5 341.5,-1065.5 341.5,-1106.5"/>
<text text-anchor="start" x="213.5" y="-1094.5" font-family="Helvetica,sans-Serif" font-size="10.00">Ponca::CovarianceFitDer</text>
<text text-anchor="start" x="213.5" y="-1083.5" font-family="Helvetica,sans-Serif" font-size="10.00">&lt; DataPoint, _WFunctor,</text>
<text text-anchor="middle" x="273.5" y="-1072.5" font-family="Helvetica,sans-Serif" font-size="10.00"> DiffType, T &gt;</text>
</a>
</g>
</g>
<!-- Node0&#45;&gt;Node1 -->
<g id="edge1" class="edge">
<title>Node0&#45;&gt;Node1</title>
<path fill="none" stroke="#63b8ff" d="M151.89,-1103.45C169.63,-1100.88 188.26,-1098.18 205.43,-1095.7"/>
<polygon fill="#63b8ff" stroke="#63b8ff" points="150.96,-1100.04 141.56,-1104.94 151.96,-1106.97 150.96,-1100.04"/>
</g>
<!-- Node15 -->
<g id="node3" class="node">
<title>Node15</title>
<g id="a_node3"><a xlink:href="group__fitting.html#classPonca_1_1CovariancePlaneDerImpl" target="_top" xlink:title="[CovariancePlaneFit Definition]">
<polygon fill="white" stroke="#666666" points="352.5,-1047.5 194.5,-1047.5 194.5,-1006.5 352.5,-1006.5 352.5,-1047.5"/>
<text text-anchor="start" x="202.5" y="-1035.5" font-family="Helvetica,sans-Serif" font-size="10.00">Ponca::CovariancePlaneDer</text>
<text text-anchor="start" x="202.5" y="-1024.5" font-family="Helvetica,sans-Serif" font-size="10.00">Impl&lt; DataPoint, _WFunctor,</text>
<text text-anchor="middle" x="273.5" y="-1013.5" font-family="Helvetica,sans-Serif" font-size="10.00"> DiffType, T &gt;</text>
</a>
</g>
</g>
<!-- Node0&#45;&gt;Node15 -->
<g id="edge2" class="edge">
<title>Node0&#45;&gt;Node15</title>
<path fill="none" stroke="#63b8ff" d="M105.22,-1094.65C125.71,-1082.66 152.8,-1067.78 178,-1057 185.83,-1053.65 194.17,-1050.47 202.53,-1047.53"/>
<polygon fill="#63b8ff" stroke="#63b8ff" points="103.41,-1091.66 96.59,-1099.77 106.98,-1097.68 103.41,-1091.66"/>
</g>
<!-- Node17 -->
<g id="node4" class="node">
<title>Node17</title>
<g id="a_node4"><a xlink:href="group__fitting.html#classPonca_1_1GLSDer" target="_top" xlink:title="Differentiation of GLSParam.">
<polygon fill="white" stroke="#666666" points="348.5,-988 198.5,-988 198.5,-958 348.5,-958 348.5,-988"/>
<text text-anchor="start" x="206.5" y="-976" font-family="Helvetica,sans-Serif" font-size="10.00">Ponca::GLSDer&lt; DataPoint,</text>
<text text-anchor="middle" x="273.5" y="-965" font-family="Helvetica,sans-Serif" font-size="10.00"> _WFunctor, DiffType, T &gt;</text>
</a>
</g>
</g>
<!-- Node0&#45;&gt;Node17 -->
<g id="edge3" class="edge">
<title>Node0&#45;&gt;Node17</title>
<path fill="none" stroke="#63b8ff" d="M87.02,-1091.52C105.3,-1064.85 138.66,-1021.94 178,-998 184.38,-994.12 191.36,-990.83 198.54,-988.05"/>
<polygon fill="#63b8ff" stroke="#63b8ff" points="84.07,-1089.63 81.41,-1099.89 89.88,-1093.53 84.07,-1089.63"/>
</g>
<!-- Node18 -->
<g id="node5" class="node">
<title>Node18</title>
<g id="a_node5"><a xlink:href="group__fitting.html#classPonca_1_1GLSParam" target="_top" xlink:title="Growing Least Squares reparemetrization of the OrientedSphereFit.">
<polygon fill="white" stroke="#666666" points="355.5,-940 191.5,-940 191.5,-910 355.5,-910 355.5,-940"/>
<text text-anchor="start" x="199.5" y="-928" font-family="Helvetica,sans-Serif" font-size="10.00">Ponca::GLSParam&lt; DataPoint,</text>
<text text-anchor="middle" x="273.5" y="-917" font-family="Helvetica,sans-Serif" font-size="10.00"> _WFunctor, T &gt;</text>
</a>
</g>
</g>
<!-- Node0&#45;&gt;Node18 -->
<g id="edge4" class="edge">
<title>Node0&#45;&gt;Node18</title>
<path fill="none" stroke="#63b8ff" d="M80.83,-1090.48C95.3,-1053.89 127.58,-985.42 178,-949 182.8,-945.53 188.06,-942.56 193.55,-940.02"/>
<polygon fill="#63b8ff" stroke="#63b8ff" points="77.53,-1089.31 77.22,-1099.9 84.07,-1091.82 77.53,-1089.31"/>
</g>
<!-- Node22 -->
<g id="node6" class="node">
<title>Node22</title>
<g id="a_node6"><a xlink:href="group__fitting.html#classPonca_1_1MlsSphereFitDer" target="_top" xlink:title="Extension performing derivation of the mls surface.">
<polygon fill="white" stroke="#666666" points="341.5,-1342.5 205.5,-1342.5 205.5,-1301.5 341.5,-1301.5 341.5,-1342.5"/>
<text text-anchor="start" x="213.5" y="-1330.5" font-family="Helvetica,sans-Serif" font-size="10.00">Ponca::MlsSphereFitDer</text>
<text text-anchor="start" x="213.5" y="-1319.5" font-family="Helvetica,sans-Serif" font-size="10.00">&lt; DataPoint, _WFunctor,</text>
<text text-anchor="middle" x="273.5" y="-1308.5" font-family="Helvetica,sans-Serif" font-size="10.00"> DiffType, T &gt;</text>
</a>
</g>
</g>
<!-- Node0&#45;&gt;Node22 -->
<g id="edge5" class="edge">
<title>Node0&#45;&gt;Node22</title>
<path fill="none" stroke="#63b8ff" d="M80.25,-1140.08C94.22,-1178.64 126.16,-1252.29 178,-1293 186.1,-1299.36 195.59,-1304.33 205.38,-1308.22"/>
<polygon fill="#63b8ff" stroke="#63b8ff" points="83.4,-1138.47 76.79,-1130.19 76.79,-1140.79 83.4,-1138.47"/>
</g>
<!-- Node25 -->
<g id="node7" class="node">
<title>Node25</title>
<g id="a_node7"><a xlink:href="group__fitting.html#classPonca_1_1NormalDerivativesCurvatureEstimator" target="_top" xlink:title="Extension to compute curvature values from the Weingarten map .">
<polygon fill="white" stroke="#666666" points="360.5,-1283.5 186.5,-1283.5 186.5,-1242.5 360.5,-1242.5 360.5,-1283.5"/>
<text text-anchor="start" x="194.5" y="-1271.5" font-family="Helvetica,sans-Serif" font-size="10.00">Ponca::NormalDerivatives</text>
<text text-anchor="start" x="194.5" y="-1260.5" font-family="Helvetica,sans-Serif" font-size="10.00">CurvatureEstimator&lt; DataPoint,</text>
<text text-anchor="middle" x="273.5" y="-1249.5" font-family="Helvetica,sans-Serif" font-size="10.00"> _WFunctor, DiffType, T &gt;</text>
</a>
</g>
</g>
<!-- Node0&#45;&gt;Node25 -->
<g id="edge6" class="edge">
<title>Node0&#45;&gt;Node25</title>
<path fill="none" stroke="#63b8ff" d="M87.09,-1138.62C105.45,-1165.49 138.88,-1208.9 178,-1234 182.77,-1237.06 187.87,-1239.81 193.16,-1242.28"/>
<polygon fill="#63b8ff" stroke="#63b8ff" points="89.93,-1136.56 81.46,-1130.19 84.11,-1140.44 89.93,-1136.56"/>
</g>
<!-- Node26 -->
<g id="node8" class="node">
<title>Node26</title>
<g id="a_node8"><a xlink:href="classPonca_1_1OrientedSphereDerImpl.html" target="_top" xlink:title="[OrientedSphereFit Definition]">
<polygon fill="white" stroke="#666666" points="352.5,-1224.5 194.5,-1224.5 194.5,-1183.5 352.5,-1183.5 352.5,-1224.5"/>
<text text-anchor="start" x="202.5" y="-1212.5" font-family="Helvetica,sans-Serif" font-size="10.00">Ponca::OrientedSphereDer</text>
<text text-anchor="start" x="202.5" y="-1201.5" font-family="Helvetica,sans-Serif" font-size="10.00">Impl&lt; DataPoint, _WFunctor,</text>
<text text-anchor="middle" x="273.5" y="-1190.5" font-family="Helvetica,sans-Serif" font-size="10.00"> DiffType, T &gt;</text>
</a>
</g>
</g>
<!-- Node0&#45;&gt;Node26 -->
<g id="edge7" class="edge">
<title>Node0&#45;&gt;Node26</title>
<path fill="none" stroke="#63b8ff" d="M103.88,-1135.46C124.45,-1148.06 152.11,-1163.86 178,-1175 184.94,-1177.99 192.28,-1180.8 199.69,-1183.42"/>
<polygon fill="#63b8ff" stroke="#63b8ff" points="105.58,-1132.4 95.24,-1130.11 101.89,-1138.35 105.58,-1132.4"/>
</g>
<!-- Node29 -->
<g id="node9" class="node">
<title>Node29</title>
<g id="a_node9"><a xlink:href="classPonca_1_1PrimitiveDer.html" target="_top" xlink:title="Generic class performing the Fit derivation.">
<polygon fill="white" stroke="#666666" points="341.5,-1165.5 205.5,-1165.5 205.5,-1124.5 341.5,-1124.5 341.5,-1165.5"/>
<text text-anchor="start" x="213.5" y="-1153.5" font-family="Helvetica,sans-Serif" font-size="10.00">Ponca::PrimitiveDer</text>
<text text-anchor="start" x="213.5" y="-1142.5" font-family="Helvetica,sans-Serif" font-size="10.00">&lt; DataPoint, _WFunctor,</text>
<text text-anchor="middle" x="273.5" y="-1131.5" font-family="Helvetica,sans-Serif" font-size="10.00"> Type, T &gt;</text>
</a>
</g>
</g>
<!-- Node0&#45;&gt;Node29 -->
<g id="edge8" class="edge">
<title>Node0&#45;&gt;Node29</title>
<path fill="none" stroke="#63b8ff" d="M151.89,-1126.95C169.63,-1129.61 188.26,-1132.4 205.43,-1134.96"/>
<polygon fill="#63b8ff" stroke="#63b8ff" points="151.97,-1123.43 141.56,-1125.41 150.93,-1130.35 151.97,-1123.43"/>
</g>
<!-- Node5 -->
<g id="node10" class="node">
<title>Node5</title>
<g id="a_node10"><a xlink:title=" ">
<polygon fill="#e0e0e0" stroke="#999999" points="142,-342 0,-342 0,-312 142,-312 142,-342"/>
<text text-anchor="start" x="8" y="-330" font-family="Helvetica,sans-Serif" font-size="10.00">Concept::FittingProcedure</text>
<text text-anchor="middle" x="71" y="-319" font-family="Helvetica,sans-Serif" font-size="10.00">Concept</text>
</a>
</g>
</g>
<!-- Node4 -->
<g id="node11" class="node">
<title>Node4</title>
<g id="a_node11"><a xlink:href="group__fitting.html#classPonca_1_1CovarianceFitBase" target="_top" xlink:title="Line fitting procedure that minimize the orthogonal distance between the samples and the fitted primi...">
<polygon fill="white" stroke="#666666" points="351.5,-366 195.5,-366 195.5,-336 351.5,-336 351.5,-366"/>
<text text-anchor="start" x="203.5" y="-354" font-family="Helvetica,sans-Serif" font-size="10.00">Ponca::CovarianceFitBase</text>
<text text-anchor="middle" x="273.5" y="-343" font-family="Helvetica,sans-Serif" font-size="10.00">&lt; DataPoint, _WFunctor, T &gt;</text>
</a>
</g>
</g>
<!-- Node5&#45;&gt;Node4 -->
<g id="edge9" class="edge">
<title>Node5&#45;&gt;Node4</title>
<path fill="none" stroke="#63b8ff" d="M152.31,-336.61C166.46,-338.31 181.17,-340.07 195.23,-341.75"/>
<polygon fill="#63b8ff" stroke="#63b8ff" points="152.47,-333.11 142.13,-335.39 151.64,-340.06 152.47,-333.11"/>
</g>
<!-- Node6 -->
<g id="node12" class="node">
<title>Node6</title>
<g id="a_node12"><a xlink:href="group__fitting.html#classPonca_1_1CovarianceLineFitImpl" target="_top" xlink:title="Line fitting procedure that minimize the orthogonal distance between the samples and the fitted primi...">
<polygon fill="white" stroke="#666666" points="362.5,-318 184.5,-318 184.5,-288 362.5,-288 362.5,-318"/>
<text text-anchor="start" x="192.5" y="-306" font-family="Helvetica,sans-Serif" font-size="10.00">Ponca::CovarianceLineFit</text>
<text text-anchor="middle" x="273.5" y="-295" font-family="Helvetica,sans-Serif" font-size="10.00">Impl&lt; DataPoint, _WFunctor, T &gt;</text>
</a>
</g>
</g>
<!-- Node5&#45;&gt;Node6 -->
<g id="edge10" class="edge">
<title>Node5&#45;&gt;Node6</title>
<path fill="none" stroke="#63b8ff" d="M152.18,-317.4C162.79,-316.13 173.71,-314.83 184.43,-313.54"/>
<polygon fill="#63b8ff" stroke="#63b8ff" points="151.64,-313.94 142.13,-318.61 152.47,-320.89 151.64,-313.94"/>
</g>
<!-- Node7 -->
<g id="node13" class="node">
<title>Node7</title>
<g id="a_node13"><a xlink:href="group__fitting.html#classPonca_1_1CovariancePlaneFitImpl" target="_top" xlink:title="Plane fitting procedure using only points position.">
<polygon fill="white" stroke="#666666" points="362.5,-270 184.5,-270 184.5,-240 362.5,-240 362.5,-270"/>
<text text-anchor="start" x="192.5" y="-258" font-family="Helvetica,sans-Serif" font-size="10.00">Ponca::CovariancePlaneFit</text>
<text text-anchor="middle" x="273.5" y="-247" font-family="Helvetica,sans-Serif" font-size="10.00">Impl&lt; DataPoint, _WFunctor, T &gt;</text>
</a>
</g>
</g>
<!-- Node5&#45;&gt;Node7 -->
<g id="edge11" class="edge">
<title>Node5&#45;&gt;Node7</title>
<path fill="none" stroke="#63b8ff" d="M110.59,-307.54C130.4,-298.06 155.12,-287.01 178,-279 187.27,-275.75 197.18,-272.75 206.98,-270.04"/>
<polygon fill="#63b8ff" stroke="#63b8ff" points="109.05,-304.4 101.58,-311.9 112.1,-310.7 109.05,-304.4"/>
</g>
<!-- Node8 -->
<g id="node14" class="node">
<title>Node8</title>
<g id="a_node14"><a xlink:href="group__fitting.html#classPonca_1_1DryFit" target="_top" xlink:title="Empty fitting object doing no computation.">
<polygon fill="white" stroke="#666666" points="345,-222 202,-222 202,-192 345,-192 345,-222"/>
<text text-anchor="start" x="210" y="-210" font-family="Helvetica,sans-Serif" font-size="10.00">Ponca::DryFit&lt; DataPoint,</text>
<text text-anchor="middle" x="273.5" y="-199" font-family="Helvetica,sans-Serif" font-size="10.00"> _WFunctor, T &gt;</text>
</a>
</g>
</g>
<!-- Node5&#45;&gt;Node8 -->
<g id="edge12" class="edge">
<title>Node5&#45;&gt;Node8</title>
<path fill="none" stroke="#63b8ff" d="M90.98,-304.31C110.57,-282.35 143.12,-249.71 178,-231 185.46,-227 193.61,-223.65 201.89,-220.84"/>
<polygon fill="#63b8ff" stroke="#63b8ff" points="88.32,-302.04 84.37,-311.87 93.59,-306.65 88.32,-302.04"/>
</g>
<!-- Node9 -->
<g id="node15" class="node">
<title>Node9</title>
<g id="a_node15"><a xlink:href="group__fitting.html#classPonca_1_1MeanNormal" target="_top" xlink:title="Compute the barycenter of the input points + their normals.">
<polygon fill="white" stroke="#666666" points="347.5,-174 199.5,-174 199.5,-144 347.5,-144 347.5,-174"/>
<text text-anchor="start" x="207.5" y="-162" font-family="Helvetica,sans-Serif" font-size="10.00">Ponca::MeanNormal&lt;</text>
<text text-anchor="middle" x="273.5" y="-151" font-family="Helvetica,sans-Serif" font-size="10.00"> DataPoint, _WFunctor, T &gt;</text>
</a>
</g>
</g>
<!-- Node5&#45;&gt;Node9 -->
<g id="edge13" class="edge">
<title>Node5&#45;&gt;Node9</title>
<path fill="none" stroke="#63b8ff" d="M83.36,-302.44C99.64,-270.01 132.72,-213.48 178,-183 184.46,-178.65 191.65,-175.09 199.1,-172.18"/>
<polygon fill="#63b8ff" stroke="#63b8ff" points="80.09,-301.15 78.85,-311.67 86.38,-304.22 80.09,-301.15"/>
</g>
<!-- Node10 -->
<g id="node16" class="node">
<title>Node10</title>
<g id="a_node16"><a xlink:href="group__fitting.html#classPonca_1_1MeanPlaneFitImpl" target="_top" xlink:title="Plane fitting procedure computing the mean position and orientation from oriented points.">
<polygon fill="white" stroke="#666666" points="351.5,-126 195.5,-126 195.5,-96 351.5,-96 351.5,-126"/>
<text text-anchor="start" x="203.5" y="-114" font-family="Helvetica,sans-Serif" font-size="10.00">Ponca::MeanPlaneFitImpl</text>
<text text-anchor="middle" x="273.5" y="-103" font-family="Helvetica,sans-Serif" font-size="10.00">&lt; DataPoint, _WFunctor, T &gt;</text>
</a>
</g>
</g>
<!-- Node5&#45;&gt;Node10 -->
<g id="edge14" class="edge">
<title>Node5&#45;&gt;Node10</title>
<path fill="none" stroke="#63b8ff" d="M78.72,-301.99C91.14,-260.68 121.72,-178.46 178,-135 183.23,-130.97 189.05,-127.6 195.17,-124.8"/>
<polygon fill="#63b8ff" stroke="#63b8ff" points="75.3,-301.21 75.88,-311.79 82.02,-303.16 75.3,-301.21"/>
</g>
<!-- Node11 -->
<g id="node17" class="node">
<title>Node11</title>
<g id="a_node17"><a xlink:href="group__fitting.html#classPonca_1_1MeanPosition" target="_top" xlink:title="Compute the barycenter of the input points.">
<polygon fill="white" stroke="#666666" points="351.5,-558 195.5,-558 195.5,-528 351.5,-528 351.5,-558"/>
<text text-anchor="start" x="203.5" y="-546" font-family="Helvetica,sans-Serif" font-size="10.00">Ponca::MeanPosition</text>
<text text-anchor="middle" x="273.5" y="-535" font-family="Helvetica,sans-Serif" font-size="10.00">&lt; DataPoint, _WFunctor, T &gt;</text>
</a>
</g>
</g>
<!-- Node5&#45;&gt;Node11 -->
<g id="edge15" class="edge">
<title>Node5&#45;&gt;Node11</title>
<path fill="none" stroke="#63b8ff" d="M78.72,-352.01C91.14,-393.32 121.72,-475.54 178,-519 183.23,-523.03 189.05,-526.4 195.17,-529.2"/>
<polygon fill="#63b8ff" stroke="#63b8ff" points="82.02,-350.84 75.88,-342.21 75.3,-352.79 82.02,-350.84"/>
</g>
<!-- Node12 -->
<g id="node18" class="node">
<title>Node12</title>
<g id="a_node18"><a xlink:href="group__fitting.html#classPonca_1_1OrientedSphereFitImpl" target="_top" xlink:title="Algebraic Sphere fitting procedure on oriented point sets.">
<polygon fill="white" stroke="#666666" points="362.5,-510 184.5,-510 184.5,-480 362.5,-480 362.5,-510"/>
<text text-anchor="start" x="192.5" y="-498" font-family="Helvetica,sans-Serif" font-size="10.00">Ponca::OrientedSphereFit</text>
<text text-anchor="middle" x="273.5" y="-487" font-family="Helvetica,sans-Serif" font-size="10.00">Impl&lt; DataPoint, _WFunctor, T &gt;</text>
</a>
</g>
</g>
<!-- Node5&#45;&gt;Node12 -->
<g id="edge16" class="edge">
<title>Node5&#45;&gt;Node12</title>
<path fill="none" stroke="#63b8ff" d="M83.36,-351.56C99.64,-383.99 132.72,-440.52 178,-471 183.06,-474.4 188.56,-477.32 194.28,-479.83"/>
<polygon fill="#63b8ff" stroke="#63b8ff" points="86.38,-349.78 78.85,-342.33 80.09,-352.85 86.38,-349.78"/>
</g>
<!-- Node13 -->
<g id="node19" class="node">
<title>Node13</title>
<g id="a_node19"><a xlink:href="group__fitting.html#classPonca_1_1SphereFitImpl" target="_top" xlink:title="Algebraic Sphere fitting procedure on point sets without normals.">
<polygon fill="white" stroke="#666666" points="351.5,-462 195.5,-462 195.5,-432 351.5,-432 351.5,-462"/>
<text text-anchor="start" x="203.5" y="-450" font-family="Helvetica,sans-Serif" font-size="10.00">Ponca::SphereFitImpl</text>
<text text-anchor="middle" x="273.5" y="-439" font-family="Helvetica,sans-Serif" font-size="10.00">&lt; DataPoint, _WFunctor, T &gt;</text>
</a>
</g>
</g>
<!-- Node5&#45;&gt;Node13 -->
<g id="edge17" class="edge">
<title>Node5&#45;&gt;Node13</title>
<path fill="none" stroke="#63b8ff" d="M90.98,-349.69C110.57,-371.65 143.12,-404.29 178,-423 184.41,-426.44 191.34,-429.4 198.42,-431.95"/>
<polygon fill="#63b8ff" stroke="#63b8ff" points="93.59,-347.35 84.37,-342.13 88.32,-351.96 93.59,-347.35"/>
</g>
<!-- Node14 -->
<g id="node20" class="node">
<title>Node14</title>
<g id="a_node20"><a xlink:href="group__fitting.html#classPonca_1_1UnorientedSphereFitImpl" target="_top" xlink:title="Algebraic Sphere fitting procedure on point sets with non&#45;oriented normals.">
<polygon fill="white" stroke="#666666" points="362.5,-414 184.5,-414 184.5,-384 362.5,-384 362.5,-414"/>
<text text-anchor="start" x="192.5" y="-402" font-family="Helvetica,sans-Serif" font-size="10.00">Ponca::UnorientedSphereFit</text>
<text text-anchor="middle" x="273.5" y="-391" font-family="Helvetica,sans-Serif" font-size="10.00">Impl&lt; DataPoint, _WFunctor, T &gt;</text>
</a>
</g>
</g>
<!-- Node5&#45;&gt;Node14 -->
<g id="edge18" class="edge">
<title>Node5&#45;&gt;Node14</title>
<path fill="none" stroke="#63b8ff" d="M110.59,-346.46C130.4,-355.94 155.12,-366.99 178,-375 187.27,-378.25 197.18,-381.25 206.98,-383.96"/>
<polygon fill="#63b8ff" stroke="#63b8ff" points="112.1,-343.3 101.58,-342.1 109.05,-349.6 112.1,-343.3"/>
</g>
<!-- Node28 -->
<g id="node21" class="node">
<title>Node28</title>
<g id="a_node21"><a xlink:title=" ">
<polygon fill="#e0e0e0" stroke="#999999" points="124,-72.5 18,-72.5 18,-53.5 124,-53.5 124,-72.5"/>
<text text-anchor="middle" x="71" y="-60.5" font-family="Helvetica,sans-Serif" font-size="10.00">Eigen::Hyperplane</text>
</a>
</g>
</g>
<!-- Node27 -->
<g id="node22" class="node">
<title>Node27</title>
<g id="a_node22"><a xlink:href="group__fitting.html#classPonca_1_1Plane" target="_top" xlink:title="Implicit hyperplane defined by an homogeneous vector .">
<polygon fill="white" stroke="#666666" points="344,-78 203,-78 203,-48 344,-48 344,-78"/>
<text text-anchor="start" x="211" y="-66" font-family="Helvetica,sans-Serif" font-size="10.00">Ponca::Plane&lt; DataPoint,</text>
<text text-anchor="middle" x="273.5" y="-55" font-family="Helvetica,sans-Serif" font-size="10.00"> _WFunctor, T &gt;</text>
</a>
</g>
</g>
<!-- Node28&#45;&gt;Node27 -->
<g id="edge19" class="edge">
<title>Node28&#45;&gt;Node27</title>
<path fill="none" stroke="#63b8ff" d="M134.26,-63C156,-63 180.55,-63 202.86,-63"/>
<polygon fill="#63b8ff" stroke="#63b8ff" points="134.16,-59.5 124.16,-63 134.16,-66.5 134.16,-59.5"/>
</g>
<!-- Node20 -->
<g id="node23" class="node">
<title>Node20</title>
<g id="a_node23"><a xlink:title=" ">
<polygon fill="#e0e0e0" stroke="#999999" points="138,-24.5 4,-24.5 4,-5.5 138,-5.5 138,-24.5"/>
<text text-anchor="middle" x="71" y="-12.5" font-family="Helvetica,sans-Serif" font-size="10.00">Eigen::ParametrizedLine</text>
</a>
</g>
</g>
<!-- Node19 -->
<g id="node24" class="node">
<title>Node19</title>
<g id="a_node24"><a xlink:href="group__fitting.html#classPonca_1_1Line" target="_top" xlink:title="A parametrized line is defined by an origin point &#160;and a unit direction vector &#160;such that the line co...">
<polygon fill="white" stroke="#666666" points="340.5,-30 206.5,-30 206.5,0 340.5,0 340.5,-30"/>
<text text-anchor="start" x="214.5" y="-18" font-family="Helvetica,sans-Serif" font-size="10.00">Ponca::Line&lt; DataPoint,</text>
<text text-anchor="middle" x="273.5" y="-7" font-family="Helvetica,sans-Serif" font-size="10.00"> _WFunctor, T &gt;</text>
</a>
</g>
</g>
<!-- Node20&#45;&gt;Node19 -->
<g id="edge20" class="edge">
<title>Node20&#45;&gt;Node19</title>
<path fill="none" stroke="#63b8ff" d="M148.37,-15C167.47,-15 187.8,-15 206.36,-15"/>
<polygon fill="#63b8ff" stroke="#63b8ff" points="148.21,-11.5 138.21,-15 148.21,-18.5 148.21,-11.5"/>
</g>
<!-- Node2 -->
<g id="node25" class="node">
<title>Node2</title>
<g id="a_node25"><a xlink:title=" ">
<polygon fill="#e0e0e0" stroke="#999999" points="85.5,-635.5 56.5,-635.5 56.5,-616.5 85.5,-616.5 85.5,-635.5"/>
<text text-anchor="middle" x="71" y="-623.5" font-family="Helvetica,sans-Serif" font-size="10.00">T</text>
</a>
</g>
</g>
<!-- Node2&#45;&gt;Node1 -->
<g id="edge23" class="edge">
<title>Node2&#45;&gt;Node1</title>
<path fill="none" stroke="#63b8ff" d="M74.28,-645.81C83.44,-722.06 119.86,-995.47 178,-1057 185.54,-1064.98 195.22,-1070.79 205.5,-1075"/>
<polygon fill="#63b8ff" stroke="#63b8ff" points="77.73,-645.2 73.09,-635.68 70.78,-646.02 77.73,-645.2"/>
</g>
<!-- Node2&#45;&gt;Node15 -->
<g id="edge25" class="edge">
<title>Node2&#45;&gt;Node15</title>
<path fill="none" stroke="#63b8ff" d="M71.55,-645.81C71.27,-706.99 78.91,-894.98 178,-997 182.8,-1001.94 188.4,-1006.07 194.45,-1009.52"/>
<polygon fill="#63b8ff" stroke="#63b8ff" points="75.05,-645.66 71.68,-635.62 68.05,-645.57 75.05,-645.66"/>
</g>
<!-- Node2&#45;&gt;Node17 -->
<g id="edge29" class="edge">
<title>Node2&#45;&gt;Node17</title>
<path fill="none" stroke="#63b8ff" d="M72.28,-645.7C74.17,-701.93 87.61,-864.59 178,-949 183.94,-954.55 190.97,-958.86 198.48,-962.2"/>
<polygon fill="#63b8ff" stroke="#63b8ff" points="75.77,-645.56 72.03,-635.65 68.78,-645.73 75.77,-645.56"/>
</g>
<!-- Node2&#45;&gt;Node18 -->
<g id="edge30" class="edge">
<title>Node2&#45;&gt;Node18</title>
<path fill="none" stroke="#63b8ff" d="M73.57,-645.74C78.67,-696.27 99.36,-831.21 178,-901 182.05,-904.6 186.57,-907.67 191.37,-910.29"/>
<polygon fill="#63b8ff" stroke="#63b8ff" points="77.03,-645.18 72.64,-635.54 70.06,-645.81 77.03,-645.18"/>
</g>
<!-- Node2&#45;&gt;Node22 -->
<g id="edge36" class="edge">
<title>Node2&#45;&gt;Node22</title>
<path fill="none" stroke="#63b8ff" d="M74.97,-645.58C91.58,-755.06 172.48,-1286.65 178,-1293 185.32,-1301.42 195.01,-1307.43 205.4,-1311.72"/>
<polygon fill="#63b8ff" stroke="#63b8ff" points="78.41,-644.95 73.45,-635.59 71.49,-646 78.41,-644.95"/>
</g>
<!-- Node2&#45;&gt;Node25 -->
<g id="edge39" class="edge">
<title>Node2&#45;&gt;Node25</title>
<path fill="none" stroke="#63b8ff" d="M74.86,-645.78C89.67,-747.84 157.82,-1211.13 178,-1234 180.72,-1237.09 183.77,-1239.85 187.05,-1242.33"/>
<polygon fill="#63b8ff" stroke="#63b8ff" points="78.28,-645.03 73.39,-635.63 71.36,-646.03 78.28,-645.03"/>
</g>
<!-- Node2&#45;&gt;Node26 -->
<g id="edge40" class="edge">
<title>Node2&#45;&gt;Node26</title>
<path fill="none" stroke="#63b8ff" d="M74.58,-645.67C87,-739 141.41,-1134.27 178,-1175 182.7,-1180.23 188.32,-1184.54 194.45,-1188.07"/>
<polygon fill="#63b8ff" stroke="#63b8ff" points="78.03,-645.08 73.25,-635.62 71.09,-645.99 78.03,-645.08"/>
</g>
<!-- Node2&#45;&gt;Node29 -->
<g id="edge43" class="edge">
<title>Node2&#45;&gt;Node29</title>
<path fill="none" stroke="#63b8ff" d="M73.65,-645.81C80.91,-728.46 112.62,-1044.84 178,-1116 185.43,-1124.09 195.05,-1129.94 205.3,-1134.18"/>
<polygon fill="#63b8ff" stroke="#63b8ff" points="77.13,-645.41 72.79,-635.75 70.15,-646.01 77.13,-645.41"/>
</g>
<!-- Node2&#45;&gt;Node4 -->
<g id="edge22" class="edge">
<title>Node2&#45;&gt;Node4</title>
<path fill="none" stroke="#63b8ff" d="M74.41,-606.07C81.25,-558.48 105.25,-437.52 178,-375 183.13,-370.59 188.97,-366.97 195.17,-364"/>
<polygon fill="#63b8ff" stroke="#63b8ff" points="70.9,-605.9 73.05,-616.27 77.84,-606.82 70.9,-605.9"/>
</g>
<!-- Node2&#45;&gt;Node6 -->
<g id="edge24" class="edge">
<title>Node2&#45;&gt;Node6</title>
<path fill="none" stroke="#63b8ff" d="M72.89,-606C76.4,-552.32 93.65,-403.93 178,-327 181.75,-323.58 185.92,-320.63 190.36,-318.09"/>
<polygon fill="#63b8ff" stroke="#63b8ff" points="69.38,-606.04 72.32,-616.22 76.37,-606.43 69.38,-606.04"/>
</g>
<!-- Node2&#45;&gt;Node7 -->
<g id="edge26" class="edge">
<title>Node2&#45;&gt;Node7</title>
<path fill="none" stroke="#63b8ff" d="M76.81,-606.32C94.08,-536.37 153.22,-302.62 178,-279 181.55,-275.61 185.51,-272.69 189.74,-270.16"/>
<polygon fill="#63b8ff" stroke="#63b8ff" points="73.32,-605.87 74.33,-616.42 80.12,-607.54 73.32,-605.87"/>
</g>
<!-- Node2&#45;&gt;Node8 -->
<g id="edge28" class="edge">
<title>Node2&#45;&gt;Node8</title>
<path fill="none" stroke="#63b8ff" d="M76.98,-606.39C97.01,-527.59 171.01,-237.89 178,-231 184.75,-224.34 193.07,-219.45 201.94,-215.87"/>
<polygon fill="#63b8ff" stroke="#63b8ff" points="73.5,-605.87 74.43,-616.43 80.28,-607.6 73.5,-605.87"/>
</g>
<!-- Node2&#45;&gt;Node9 -->
<g id="edge32" class="edge">
<title>Node2&#45;&gt;Node9</title>
<path fill="none" stroke="#63b8ff" d="M77.27,-606.37C89.3,-561.35 119.47,-447.16 142,-351 159.42,-276.65 125.03,-238 178,-183 183.99,-176.78 191.34,-172.09 199.28,-168.56"/>
<polygon fill="#63b8ff" stroke="#63b8ff" points="73.89,-605.48 74.68,-616.04 80.65,-607.29 73.89,-605.48"/>
</g>
<!-- Node2&#45;&gt;Node10 -->
<g id="edge33" class="edge">
<title>Node2&#45;&gt;Node10</title>
<path fill="none" stroke="#63b8ff" d="M77.58,-606.44C90.26,-561.57 121.68,-447.65 142,-351 162.02,-255.76 112.12,-206.63 178,-135 182.93,-129.64 188.87,-125.41 195.34,-122.07"/>
<polygon fill="#63b8ff" stroke="#63b8ff" points="74.21,-605.51 74.85,-616.08 80.94,-607.42 74.21,-605.51"/>
</g>
<!-- Node2&#45;&gt;Node11 -->
<g id="edge34" class="edge">
<title>Node2&#45;&gt;Node11</title>
<path fill="none" stroke="#63b8ff" d="M94.29,-611.72C115.22,-598.83 147.76,-580.07 178,-568 187.3,-564.29 197.33,-560.96 207.27,-558.04"/>
<polygon fill="#63b8ff" stroke="#63b8ff" points="92.16,-608.92 85.53,-617.19 95.87,-614.86 92.16,-608.92"/>
</g>
<!-- Node2&#45;&gt;Node12 -->
<g id="edge41" class="edge">
<title>Node2&#45;&gt;Node12</title>
<path fill="none" stroke="#63b8ff" d="M84.74,-608.06C102.75,-584.07 137.94,-541.9 178,-519 184.02,-515.56 190.54,-512.6 197.24,-510.06"/>
<polygon fill="#63b8ff" stroke="#63b8ff" points="81.8,-606.16 78.71,-616.29 87.44,-610.3 81.8,-606.16"/>
</g>
<!-- Node2&#45;&gt;Node13 -->
<g id="edge45" class="edge">
<title>Node2&#45;&gt;Node13</title>
<path fill="none" stroke="#63b8ff" d="M79.7,-606.74C93.93,-573.66 127.6,-506.21 178,-471 183.27,-467.32 189.06,-464.2 195.1,-461.56"/>
<polygon fill="#63b8ff" stroke="#63b8ff" points="76.37,-605.61 75.76,-616.19 82.84,-608.31 76.37,-605.61"/>
</g>
<!-- Node2&#45;&gt;Node14 -->
<g id="edge46" class="edge">
<title>Node2&#45;&gt;Node14</title>
<path fill="none" stroke="#63b8ff" d="M76.52,-606.33C86.93,-565.55 116.58,-471.57 178,-423 182.38,-419.53 187.2,-416.56 192.28,-414.02"/>
<polygon fill="#63b8ff" stroke="#63b8ff" points="73.09,-605.58 74.13,-616.13 79.9,-607.24 73.09,-605.58"/>
</g>
<!-- Node2&#45;&gt;Node27 -->
<g id="edge42" class="edge">
<title>Node2&#45;&gt;Node27</title>
<path fill="none" stroke="#63b8ff" d="M77.79,-606.48C90.88,-561.69 123.12,-447.94 142,-351 153.32,-292.88 138.57,-131.17 178,-87 184.65,-79.55 193.26,-74.26 202.56,-70.53"/>
<polygon fill="#63b8ff" stroke="#63b8ff" points="74.42,-605.52 74.96,-616.1 81.14,-607.5 74.42,-605.52"/>
</g>
<!-- Node2&#45;&gt;Node19 -->
<g id="edge31" class="edge">
<title>Node2&#45;&gt;Node19</title>
<path fill="none" stroke="#63b8ff" d="M77.93,-606.51C91.32,-561.78 124.12,-448.13 142,-351 154.64,-282.36 132.06,-91.54 178,-39 185.47,-30.46 195.5,-24.75 206.24,-20.97"/>
<polygon fill="#63b8ff" stroke="#63b8ff" points="74.57,-605.53 75.03,-616.12 81.27,-607.55 74.57,-605.53"/>
</g>
<!-- Node3 -->
<g id="node26" class="node">
<title>Node3</title>
<g id="a_node26"><a xlink:href="group__fitting.html#classPonca_1_1AlgebraicSphere" target="_top" xlink:title="Algebraic Sphere primitive.">
<polygon fill="white" stroke="#666666" points="351.5,-892 195.5,-892 195.5,-862 351.5,-862 351.5,-892"/>
<text text-anchor="start" x="203.5" y="-880" font-family="Helvetica,sans-Serif" font-size="10.00">Ponca::AlgebraicSphere</text>
<text text-anchor="middle" x="273.5" y="-869" font-family="Helvetica,sans-Serif" font-size="10.00">&lt; DataPoint, _WFunctor, T &gt;</text>
</a>
</g>
</g>
<!-- Node2&#45;&gt;Node3 -->
<g id="edge21" class="edge">
<title>Node2&#45;&gt;Node3</title>
<path fill="none" stroke="#63b8ff" d="M75.31,-645.51C83.84,-689.6 110.8,-797.39 178,-853 183.22,-857.32 189.11,-860.87 195.34,-863.79"/>
<polygon fill="#63b8ff" stroke="#63b8ff" points="78.72,-644.73 73.48,-635.52 71.84,-645.99 78.72,-644.73"/>
</g>
<!-- Node16 -->
<g id="node27" class="node">
<title>Node16</title>
<g id="a_node27"><a xlink:href="group__fitting.html#classPonca_1_1CurvatureEstimatorBase" target="_top" xlink:title="Base class for any 3d curvature estimator: holds , &#160;and associated vectors.">
<polygon fill="white" stroke="#666666" points="353.5,-843.5 193.5,-843.5 193.5,-802.5 353.5,-802.5 353.5,-843.5"/>
<text text-anchor="start" x="201.5" y="-831.5" font-family="Helvetica,sans-Serif" font-size="10.00">Ponca::CurvatureEstimator</text>
<text text-anchor="start" x="201.5" y="-820.5" font-family="Helvetica,sans-Serif" font-size="10.00">Base&lt; DataPoint, _WFunctor,</text>
<text text-anchor="middle" x="273.5" y="-809.5" font-family="Helvetica,sans-Serif" font-size="10.00"> DiffType, T &gt;</text>
</a>
</g>
</g>
<!-- Node2&#45;&gt;Node16 -->
<g id="edge27" class="edge">
<title>Node2&#45;&gt;Node16</title>
<path fill="none" stroke="#63b8ff" d="M78.86,-645.13C92.35,-679.99 125.62,-753.94 178,-794 182.77,-797.65 188,-800.84 193.48,-803.64"/>
<polygon fill="#63b8ff" stroke="#63b8ff" points="82.1,-643.79 75.32,-635.65 75.54,-646.24 82.1,-643.79"/>
</g>
<!-- Node21 -->
<g id="node28" class="node">
<title>Node21</title>
<g id="a_node28"><a xlink:href="classPonca_1_1MeanPositionDer.html" target="_top" xlink:title=" ">
<polygon fill="white" stroke="#666666" points="341.5,-784.5 205.5,-784.5 205.5,-743.5 341.5,-743.5 341.5,-784.5"/>
<text text-anchor="start" x="213.5" y="-772.5" font-family="Helvetica,sans-Serif" font-size="10.00">Ponca::MeanPositionDer</text>
<text text-anchor="start" x="213.5" y="-761.5" font-family="Helvetica,sans-Serif" font-size="10.00">&lt; DataPoint, _WFunctor,</text>
<text text-anchor="middle" x="273.5" y="-750.5" font-family="Helvetica,sans-Serif" font-size="10.00"> DiffType, T &gt;</text>
</a>
</g>
</g>
<!-- Node2&#45;&gt;Node21 -->
<g id="edge35" class="edge">
<title>Node2&#45;&gt;Node21</title>
<path fill="none" stroke="#63b8ff" d="M84.9,-643.77C103.09,-667.6 138.5,-709.73 178,-734 186.36,-739.14 195.68,-743.47 205.12,-747.11"/>
<polygon fill="#63b8ff" stroke="#63b8ff" points="87.59,-641.52 78.8,-635.61 81.98,-645.71 87.59,-641.52"/>
</g>
<!-- Node23 -->
<g id="node29" class="node">
<title>Node23</title>
<g id="a_node29"><a xlink:href="group__fitting.html#classPonca_1_1MongePatch" target="_top" xlink:title="Extension to compute the best fit quadric on 3d points expressed as .">
<polygon fill="white" stroke="#666666" points="347.5,-725 199.5,-725 199.5,-695 347.5,-695 347.5,-725"/>
<text text-anchor="start" x="207.5" y="-713" font-family="Helvetica,sans-Serif" font-size="10.00">Ponca::MongePatch&lt;</text>
<text text-anchor="middle" x="273.5" y="-702" font-family="Helvetica,sans-Serif" font-size="10.00"> DataPoint, _WFunctor, T &gt;</text>
</a>
</g>
</g>
<!-- Node2&#45;&gt;Node23 -->
<g id="edge37" class="edge">
<title>Node2&#45;&gt;Node23</title>
<path fill="none" stroke="#63b8ff" d="M94.25,-640.93C115.12,-654.35 147.57,-673.78 178,-686 186.33,-689.34 195.25,-692.33 204.18,-694.97"/>
<polygon fill="#63b8ff" stroke="#63b8ff" points="96.08,-637.95 85.8,-635.41 92.26,-643.81 96.08,-637.95"/>
</g>
<!-- Node24 -->
<g id="node30" class="node">
<title>Node24</title>
<g id="a_node30"><a xlink:href="group__fitting.html#classPonca_1_1NormalCovarianceCurvatureEstimator" target="_top" xlink:title="Extension to compute curvature values based on a covariance analysis of normal vectors of neighbors.">
<polygon fill="white" stroke="#666666" points="369,-676.5 178,-676.5 178,-635.5 369,-635.5 369,-676.5"/>
<text text-anchor="start" x="186" y="-664.5" font-family="Helvetica,sans-Serif" font-size="10.00">Ponca::NormalCovarianceCurvature</text>
<text text-anchor="start" x="186" y="-653.5" font-family="Helvetica,sans-Serif" font-size="10.00">Estimator&lt; DataPoint, _WFunctor,</text>
<text text-anchor="middle" x="273.5" y="-642.5" font-family="Helvetica,sans-Serif" font-size="10.00"> DiffType, T &gt;</text>
</a>
</g>
</g>
<!-- Node2&#45;&gt;Node24 -->
<g id="edge38" class="edge">
<title>Node2&#45;&gt;Node24</title>
<path fill="none" stroke="#63b8ff" d="M95.74,-629.55C116.23,-632.62 147.24,-637.26 177.58,-641.8"/>
<polygon fill="#63b8ff" stroke="#63b8ff" points="96.19,-626.08 85.78,-628.06 95.15,-633 96.19,-626.08"/>
</g>
<!-- Node30 -->
<g id="node31" class="node">
<title>Node30</title>
<g id="a_node31"><a xlink:href="group__fitting.html#classPonca_1_1ProjectedNormalCovarianceCurvatureEstimator" target="_top" xlink:title="Extension to compute curvature values based on a covariance analysis of normal vectors of neighbors p...">
<polygon fill="white" stroke="#666666" points="367.5,-617.5 179.5,-617.5 179.5,-576.5 367.5,-576.5 367.5,-617.5"/>
<text text-anchor="start" x="187.5" y="-605.5" font-family="Helvetica,sans-Serif" font-size="10.00">Ponca::ProjectedNormalCovariance</text>
<text text-anchor="start" x="187.5" y="-594.5" font-family="Helvetica,sans-Serif" font-size="10.00">CurvatureEstimator&lt; DataPoint,</text>
<text text-anchor="middle" x="273.5" y="-583.5" font-family="Helvetica,sans-Serif" font-size="10.00"> _WFunctor, DiffType, T &gt;</text>
</a>
</g>
</g>
<!-- Node2&#45;&gt;Node30 -->
<g id="edge44" class="edge">
<title>Node2&#45;&gt;Node30</title>
<path fill="none" stroke="#63b8ff" d="M95.9,-622.54C116.72,-619.53 148.32,-614.96 179.06,-610.51"/>
<polygon fill="#63b8ff" stroke="#63b8ff" points="95.18,-619.11 85.78,-624.01 96.18,-626.04 95.18,-619.11"/>
</g>
</g>
</svg>
