<?xml version="1.0" encoding="UTF-8" standalone="no"?>
<!DOCTYPE svg PUBLIC "-//W3C//DTD SVG 1.1//EN"
 "http://www.w3.org/Graphics/SVG/1.1/DTD/svg11.dtd">
<!-- Generated by graphviz version 2.43.0 (0)
 -->
<!-- Title: Graphical Class Hierarchy Pages: 1 -->
<svg width="354pt" height="182pt"
 viewBox="0.00 0.00 354.00 182.00" xmlns="http://www.w3.org/2000/svg" xmlns:xlink="http://www.w3.org/1999/xlink">
<g id="graph0" class="graph" transform="scale(1 1) rotate(0) translate(4 178)">
<title>Graphical Class Hierarchy</title>
<!-- Node0 -->
<g id="Node000000" class="node">
<title>Node0</title>
<g id="a_Node000000"><a xlink:href="structPonca_1_1NeighborGraphBufferBase.html" target="_top" xlink:title="Internal structure storing the buffers used by a neighbor graph.">
<polygon fill="white" stroke="#666666" points="155,-102 0,-102 0,-72 155,-72 155,-102"/>
<text text-anchor="start" x="8" y="-90" font-family="Helvetica,sans-Serif" font-size="10.00">Ponca::NeighborGraphBuffer</text>
<text text-anchor="middle" x="77.5" y="-79" font-family="Helvetica,sans-Serif" font-size="10.00">Base&lt; _Traits &gt;</text>
</a>
</g>
</g>
<!-- Node1 -->
<g id="Node000001" class="node">
<title>Node1</title>
<g id="a_Node000001"><a xlink:href="structPonca_1_1KnnGraphBuffers.html" target="_top" xlink:title=" ">
<polygon fill="white" stroke="#666666" points="335.5,-174 201.5,-174 201.5,-144 335.5,-144 335.5,-174"/>
<text text-anchor="start" x="209.5" y="-162" font-family="Helvetica,sans-Serif" font-size="10.00">Ponca::KnnGraphBuffers</text>
<text text-anchor="middle" x="268.5" y="-151" font-family="Helvetica,sans-Serif" font-size="10.00">&lt; Traits &gt;</text>
</a>
</g>
</g>
<!-- Node0&#45;&gt;Node1 -->
<g id="edge96_Node000000_Node000001" class="edge">
<title>Node0&#45;&gt;Node1</title>
<g id="a_edge96_Node000000_Node000001"><a xlink:title=" ">
<path fill="none" stroke="#63b8ff" d="M120.87,-106.26C141.78,-115.46 167.51,-126.33 191,-135 199.36,-138.09 208.32,-141.13 217.06,-143.96"/>
<polygon fill="#63b8ff" stroke="#63b8ff" points="122.19,-103.01 111.62,-102.16 119.35,-109.41 122.19,-103.01"/>
</a>
</g>
</g>
<!-- Node2 -->
<g id="Node000002" class="node">
<title>Node2</title>
<g id="a_Node000002"><a xlink:href="structPonca_1_1NeighborGraphBuffer.html" target="_top" xlink:title=" ">
<polygon fill="white" stroke="#666666" points="346,-126 191,-126 191,-96 346,-96 346,-126"/>
<text text-anchor="start" x="199" y="-114" font-family="Helvetica,sans-Serif" font-size="10.00">Ponca::NeighborGraphBuffer</text>
<text text-anchor="middle" x="268.5" y="-103" font-family="Helvetica,sans-Serif" font-size="10.00">&lt; Traits &gt;</text>
</a>
</g>
</g>
<!-- Node0&#45;&gt;Node2 -->
<g id="edge97_Node000000_Node000002" class="edge">
<title>Node0&#45;&gt;Node2</title>
<g id="a_edge97_Node000000_Node000002"><a xlink:title=" ">
<path fill="none" stroke="#63b8ff" d="M165.1,-98C173.67,-99.09 182.33,-100.18 190.79,-101.26"/>
<polygon fill="#63b8ff" stroke="#63b8ff" points="165.46,-94.51 155.1,-96.73 164.58,-101.46 165.46,-94.51"/>
</a>
</g>
</g>
<!-- Node3 -->
<g id="Node000003" class="node">
<title>Node3</title>
<g id="a_Node000003"><a xlink:href="structPonca_1_1KnnGraphBuffers.html" target="_top" xlink:title="Buffer class for StaticKnnGraphBase.">
<polygon fill="white" stroke="#666666" points="335.5,-78 201.5,-78 201.5,-48 335.5,-48 335.5,-78"/>
<text text-anchor="start" x="209.5" y="-66" font-family="Helvetica,sans-Serif" font-size="10.00">Ponca::KnnGraphBuffers</text>
<text text-anchor="middle" x="268.5" y="-55" font-family="Helvetica,sans-Serif" font-size="10.00">&lt; _Traits &gt;</text>
</a>
</g>
</g>
<!-- Node0&#45;&gt;Node3 -->
<g id="edge98_Node000000_Node000003" class="edge">
<title>Node0&#45;&gt;Node3</title>
<g id="a_edge98_Node000000_Node000003"><a xlink:title=" ">
<path fill="none" stroke="#63b8ff" d="M165.25,-75.98C177.4,-74.44 189.72,-72.88 201.41,-71.39"/>
<polygon fill="#63b8ff" stroke="#63b8ff" points="164.58,-72.54 155.1,-77.27 165.46,-79.49 164.58,-72.54"/>
</a>
</g>
</g>
<!-- Node4 -->
<g id="Node000004" class="node">
<title>Node4</title>
<g id="a_Node000004"><a xlink:href="structPonca_1_1NeighborGraphBuffer.html" target="_top" xlink:title="Buffer class for StaticNeighborGraphBase.">
<polygon fill="white" stroke="#666666" points="346,-30 191,-30 191,0 346,0 346,-30"/>
<text text-anchor="start" x="199" y="-18" font-family="Helvetica,sans-Serif" font-size="10.00">Ponca::NeighborGraphBuffer</text>
<text text-anchor="middle" x="268.5" y="-7" font-family="Helvetica,sans-Serif" font-size="10.00">&lt; _Traits &gt;</text>
</a>
</g>
</g>
<!-- Node0&#45;&gt;Node4 -->
<g id="edge99_Node000000_Node000004" class="edge">
<title>Node0&#45;&gt;Node4</title>
<g id="a_edge99_Node000000_Node000004"><a xlink:title=" ">
<path fill="none" stroke="#63b8ff" d="M120.87,-67.74C141.78,-58.54 167.51,-47.67 191,-39 199.36,-35.91 208.32,-32.87 217.06,-30.04"/>
<polygon fill="#63b8ff" stroke="#63b8ff" points="119.35,-64.59 111.62,-71.84 122.19,-70.99 119.35,-64.59"/>
</a>
</g>
</g>
</g>
</svg>
