<?xml version="1.0" encoding="UTF-8" standalone="no"?>
<!DOCTYPE svg PUBLIC "-//W3C//DTD SVG 1.1//EN"
 "http://www.w3.org/Graphics/SVG/1.1/DTD/svg11.dtd">
<!-- Generated by graphviz version 2.43.0 (0)
 -->
<!-- Title: Graphical Class Hierarchy Pages: 1 -->
<svg width="619pt" height="103pt"
 viewBox="0.00 0.00 619.00 103.00" xmlns="http://www.w3.org/2000/svg" xmlns:xlink="http://www.w3.org/1999/xlink">
<g id="graph0" class="graph" transform="scale(1 1) rotate(0) translate(4 99)">
<title>Graphical Class Hierarchy</title>
<!-- Node0 -->
<g id="Node000000" class="node">
<title>Node0</title>
<g id="a_Node000000"><a xlink:href="classPonca_1_1internal_1_1CenteredNeighborhoodFrame.html" target="_top" xlink:title="NeighborhoodFrame that express 3d points relatively to a prescribed center.">
<polygon fill="white" stroke="#666666" points="186,-57 0,-57 0,-27 186,-27 186,-57"/>
<text text-anchor="start" x="8" y="-45" font-family="Helvetica,sans-Serif" font-size="10.00">Ponca::internal::Centered</text>
<text text-anchor="middle" x="93" y="-34" font-family="Helvetica,sans-Serif" font-size="10.00">NeighborhoodFrame&lt; DataPoint &gt;</text>
</a>
</g>
</g>
<!-- Node1 -->
<g id="Node000001" class="node">
<title>Node1</title>
<g id="a_Node000001"><a xlink:href="classPonca_1_1DistWeightFunc.html" target="_top" xlink:title=" ">
<polygon fill="white" stroke="#666666" points="381,-89.5 222,-89.5 222,-48.5 381,-48.5 381,-89.5"/>
<text text-anchor="start" x="230" y="-77.5" font-family="Helvetica,sans-Serif" font-size="10.00">Ponca::DistWeightFunc</text>
<text text-anchor="start" x="230" y="-66.5" font-family="Helvetica,sans-Serif" font-size="10.00">&lt; DataPoint, ConstantWeight</text>
<text text-anchor="middle" x="301.5" y="-55.5" font-family="Helvetica,sans-Serif" font-size="10.00">Kernel&lt; Scalar &gt; &gt;</text>
</a>
</g>
</g>
<!-- Node0&#45;&gt;Node1 -->
<g id="edge86_Node000000_Node000001" class="edge">
<title>Node0&#45;&gt;Node1</title>
<g id="a_edge86_Node000000_Node000001"><a xlink:title=" ">
<path fill="none" stroke="#63b8ff" d="M196.18,-55.36C204.81,-56.49 213.44,-57.62 221.85,-58.72"/>
<polygon fill="#63b8ff" stroke="#63b8ff" points="196.45,-51.87 186.08,-54.04 195.54,-58.81 196.45,-51.87"/>
</a>
</g>
</g>
<!-- Node3 -->
<g id="Node000003" class="node">
<title>Node3</title>
<g id="a_Node000003"><a xlink:href="classPonca_1_1DistWeightFunc.html" target="_top" xlink:title="Weight neighbors according to the Euclidean distance between a query and a reference position.">
<polygon fill="white" stroke="#666666" points="380.5,-30 222.5,-30 222.5,0 380.5,0 380.5,-30"/>
<text text-anchor="start" x="230.5" y="-18" font-family="Helvetica,sans-Serif" font-size="10.00">Ponca::DistWeightFunc</text>
<text text-anchor="middle" x="301.5" y="-7" font-family="Helvetica,sans-Serif" font-size="10.00">&lt; DataPoint, WeightKernel &gt;</text>
</a>
</g>
</g>
<!-- Node0&#45;&gt;Node3 -->
<g id="edge88_Node000000_Node000003" class="edge">
<title>Node0&#45;&gt;Node3</title>
<g id="a_edge88_Node000000_Node000003"><a xlink:title=" ">
<path fill="none" stroke="#63b8ff" d="M196.08,-28.65C204.96,-27.49 213.84,-26.33 222.48,-25.2"/>
<polygon fill="#63b8ff" stroke="#63b8ff" points="195.54,-25.19 186.08,-29.96 196.45,-32.13 195.54,-25.19"/>
</a>
</g>
</g>
<!-- Node2 -->
<g id="Node000002" class="node">
<title>Node2</title>
<g id="a_Node000002"><a xlink:href="classPonca_1_1NeighborFilterStoreNormal.html" target="_top" xlink:title=" ">
<polygon fill="white" stroke="#666666" points="611,-95 417,-95 417,-43 611,-43 611,-95"/>
<text text-anchor="start" x="425" y="-83" font-family="Helvetica,sans-Serif" font-size="10.00">Ponca::NeighborFilterStore</text>
<text text-anchor="start" x="425" y="-72" font-family="Helvetica,sans-Serif" font-size="10.00">Normal&lt; DataPoint, DistWeightFunc</text>
<text text-anchor="start" x="425" y="-61" font-family="Helvetica,sans-Serif" font-size="10.00">&lt; DataPoint, ConstantWeightKernel</text>
<text text-anchor="middle" x="514" y="-50" font-family="Helvetica,sans-Serif" font-size="10.00">&lt; Scalar &gt; &gt; &gt;</text>
</a>
</g>
</g>
<!-- Node1&#45;&gt;Node2 -->
<g id="edge87_Node000001_Node000002" class="edge">
<title>Node1&#45;&gt;Node2</title>
<g id="a_edge87_Node000001_Node000002"><a xlink:title=" ">
<path fill="none" stroke="#63b8ff" d="M391.41,-69C399.87,-69 408.47,-69 416.99,-69"/>
<polygon fill="#63b8ff" stroke="#63b8ff" points="391.18,-65.5 381.18,-69 391.18,-72.5 391.18,-65.5"/>
</a>
</g>
</g>
</g>
</svg>
