<?xml version="1.0" encoding="UTF-8" standalone="no"?>
<!DOCTYPE svg PUBLIC "-//W3C//DTD SVG 1.1//EN"
 "http://www.w3.org/Graphics/SVG/1.1/DTD/svg11.dtd">
<!-- Generated by graphviz version 2.43.0 (0)
 -->
<!-- Title: Graphical Class Hierarchy Pages: 1 -->
<svg width="568pt" height="147pt"
 viewBox="0.00 0.00 568.00 146.50" xmlns="http://www.w3.org/2000/svg" xmlns:xlink="http://www.w3.org/1999/xlink">
<g id="graph0" class="graph" transform="scale(1 1) rotate(0) translate(4 142.5)">
<title>Graphical Class Hierarchy</title>
<!-- Node0 -->
<g id="Node000000" class="node">
<title>Node0</title>
<g id="a_Node000000"><a xlink:href="structPonca_1_1ComputeObject.html" target="_top" xlink:title="ComputeObject is a virtual object that represents an algorithm which can be used with the compute fun...">
<polygon fill="white" stroke="#666666" points="144.5,-84.5 16.5,-84.5 16.5,-54.5 144.5,-54.5 144.5,-84.5"/>
<text text-anchor="start" x="24.5" y="-72.5" font-family="Helvetica,sans-Serif" font-size="10.00">Ponca::ComputeObject</text>
<text text-anchor="middle" x="80.5" y="-61.5" font-family="Helvetica,sans-Serif" font-size="10.00">&lt; Derived &gt;</text>
</a>
</g>
</g>
<!-- Node1 -->
<g id="Node000001" class="node">
<title>Node1</title>
<g id="a_Node000001"><a xlink:href="structPonca_1_1BasketComputeObject.html" target="_top" xlink:title=" ">
<polygon fill="white" stroke="#666666" points="377,-138.5 210,-138.5 210,-86.5 377,-86.5 377,-138.5"/>
<text text-anchor="start" x="218" y="-126.5" font-family="Helvetica,sans-Serif" font-size="10.00">Ponca::BasketComputeObject</text>
<text text-anchor="start" x="218" y="-115.5" font-family="Helvetica,sans-Serif" font-size="10.00">&lt; Basket&lt; P, NF, Ext0, Exts...</text>
<text text-anchor="start" x="218" y="-104.5" font-family="Helvetica,sans-Serif" font-size="10.00"> &gt;, internal::BasketAggregate</text>
<text text-anchor="middle" x="293.5" y="-93.5" font-family="Helvetica,sans-Serif" font-size="10.00">&lt; P, NF, Ext0, Exts... &gt;::type &gt;</text>
</a>
</g>
</g>
<!-- Node0&#45;&gt;Node1 -->
<g id="edge64_Node000000_Node000001" class="edge">
<title>Node0&#45;&gt;Node1</title>
<g id="a_edge64_Node000000_Node000001"><a xlink:title=" ">
<path fill="none" stroke="#63b8ff" d="M154.81,-84.44C172.59,-88.06 191.71,-91.96 209.88,-95.66"/>
<polygon fill="#63b8ff" stroke="#63b8ff" points="155.02,-80.91 144.52,-82.34 153.62,-87.77 155.02,-80.91"/>
</a>
</g>
</g>
<!-- Node4 -->
<g id="Node000004" class="node">
<title>Node4</title>
<g id="a_Node000004"><a xlink:href="structPonca_1_1BasketComputeObject.html" target="_top" xlink:title=" ">
<polygon fill="white" stroke="#666666" points="390,-63 197,-63 197,0 390,0 390,-63"/>
<text text-anchor="start" x="205" y="-51" font-family="Helvetica,sans-Serif" font-size="10.00">Ponca::BasketComputeObject</text>
<text text-anchor="start" x="205" y="-40" font-family="Helvetica,sans-Serif" font-size="10.00">&lt; BasketDiff&lt; BasketType,</text>
<text text-anchor="start" x="205" y="-29" font-family="Helvetica,sans-Serif" font-size="10.00"> Type, Ext0, Exts... &gt;, internal</text>
<text text-anchor="start" x="205" y="-18" font-family="Helvetica,sans-Serif" font-size="10.00">::BasketDiffAggregate&lt; BasketType,</text>
<text text-anchor="middle" x="293.5" y="-7" font-family="Helvetica,sans-Serif" font-size="10.00"> Type, Ext0, Exts... &gt;::type &gt;</text>
</a>
</g>
</g>
<!-- Node0&#45;&gt;Node4 -->
<g id="edge66_Node000000_Node000004" class="edge">
<title>Node0&#45;&gt;Node4</title>
<g id="a_edge66_Node000000_Node000004"><a xlink:title=" ">
<path fill="none" stroke="#63b8ff" d="M154.7,-56.32C168.23,-53.88 182.54,-51.3 196.62,-48.77"/>
<polygon fill="#63b8ff" stroke="#63b8ff" points="153.74,-52.93 144.52,-58.15 154.98,-59.82 153.74,-52.93"/>
</a>
</g>
</g>
<!-- Node2 -->
<g id="Node000002" class="node">
<title>Node2</title>
<g id="a_Node000002"><a xlink:href="classPonca_1_1Basket.html" target="_top" xlink:title="Aggregator class used to declare specialized structures using CRTP.">
<polygon fill="white" stroke="#666666" points="555.5,-127.5 430.5,-127.5 430.5,-97.5 555.5,-97.5 555.5,-127.5"/>
<text text-anchor="start" x="438.5" y="-115.5" font-family="Helvetica,sans-Serif" font-size="10.00">Ponca::Basket&lt; P, NF,</text>
<text text-anchor="middle" x="493" y="-104.5" font-family="Helvetica,sans-Serif" font-size="10.00"> Ext0, Exts &gt;</text>
</a>
</g>
</g>
<!-- Node1&#45;&gt;Node2 -->
<g id="edge65_Node000001_Node000002" class="edge">
<title>Node1&#45;&gt;Node2</title>
<g id="a_edge65_Node000001_Node000002"><a xlink:title=" ">
<path fill="none" stroke="#63b8ff" d="M387.22,-112.5C401.89,-112.5 416.73,-112.5 430.45,-112.5"/>
<polygon fill="#63b8ff" stroke="#63b8ff" points="387.11,-109 377.11,-112.5 387.11,-116 387.11,-109"/>
</a>
</g>
</g>
<!-- Node5 -->
<g id="Node000005" class="node">
<title>Node5</title>
<g id="a_Node000005"><a xlink:href="classPonca_1_1BasketDiff.html" target="_top" xlink:title="Aggregator class used to declare specialized structures with derivatives computations,...">
<polygon fill="white" stroke="#666666" points="560,-52 426,-52 426,-11 560,-11 560,-52"/>
<text text-anchor="start" x="434" y="-40" font-family="Helvetica,sans-Serif" font-size="10.00">Ponca::BasketDiff&lt;</text>
<text text-anchor="start" x="434" y="-29" font-family="Helvetica,sans-Serif" font-size="10.00"> BasketType, Type, Ext0,</text>
<text text-anchor="middle" x="493" y="-18" font-family="Helvetica,sans-Serif" font-size="10.00"> Exts &gt;</text>
</a>
</g>
</g>
<!-- Node4&#45;&gt;Node5 -->
<g id="edge67_Node000004_Node000005" class="edge">
<title>Node4&#45;&gt;Node5</title>
<g id="a_edge67_Node000004_Node000005"><a xlink:title=" ">
<path fill="none" stroke="#63b8ff" d="M400.29,-31.5C408.97,-31.5 417.59,-31.5 425.86,-31.5"/>
<polygon fill="#63b8ff" stroke="#63b8ff" points="400.07,-28 390.07,-31.5 400.07,-35 400.07,-28"/>
</a>
</g>
</g>
<!-- Node3 -->
<g id="Node000003" class="node">
<title>Node3</title>
<g id="a_Node000003"><a xlink:title=" ">
<polygon fill="#e0e0e0" stroke="#999999" points="152,-132.5 9,-132.5 9,-102.5 152,-102.5 152,-132.5"/>
<text text-anchor="start" x="17" y="-120.5" font-family="Helvetica,sans-Serif" font-size="10.00">internal::BasketAggregate</text>
<text text-anchor="middle" x="80.5" y="-109.5" font-family="Helvetica,sans-Serif" font-size="10.00">::type</text>
</a>
</g>
</g>
<!-- Node3&#45;&gt;Node1 -->
<g id="edge68_Node000003_Node000001" class="edge">
<title>Node3&#45;&gt;Node1</title>
<g id="a_edge68_Node000003_Node000001"><a xlink:title=" ">
<path fill="none" stroke="#63b8ff" d="M162.21,-115.59C177.85,-115.22 194.26,-114.83 209.96,-114.46"/>
<polygon fill="#63b8ff" stroke="#63b8ff" points="161.97,-112.09 152.05,-115.83 162.13,-119.09 161.97,-112.09"/>
</a>
</g>
</g>
<!-- Node6 -->
<g id="Node000006" class="node">
<title>Node6</title>
<g id="a_Node000006"><a xlink:title=" ">
<polygon fill="#e0e0e0" stroke="#999999" points="161,-36.5 0,-36.5 0,-6.5 161,-6.5 161,-36.5"/>
<text text-anchor="start" x="8" y="-24.5" font-family="Helvetica,sans-Serif" font-size="10.00">internal::BasketDiffAggregate</text>
<text text-anchor="middle" x="80.5" y="-13.5" font-family="Helvetica,sans-Serif" font-size="10.00">::type</text>
</a>
</g>
</g>
<!-- Node6&#45;&gt;Node4 -->
<g id="edge69_Node000006_Node000004" class="edge">
<title>Node6&#45;&gt;Node4</title>
<g id="a_edge69_Node000006_Node000004"><a xlink:title=" ">
<path fill="none" stroke="#63b8ff" d="M171.38,-25.76C179.74,-26.16 188.23,-26.56 196.64,-26.96"/>
<polygon fill="#63b8ff" stroke="#63b8ff" points="171.42,-22.26 161.27,-25.28 171.09,-29.25 171.42,-22.26"/>
</a>
</g>
</g>
</g>
</svg>
