<?xml version="1.0" encoding="UTF-8" standalone="no"?>
<!DOCTYPE svg PUBLIC "-//W3C//DTD SVG 1.1//EN"
 "http://www.w3.org/Graphics/SVG/1.1/DTD/svg11.dtd">
<!-- Generated by graphviz version 2.43.0 (0)
 -->
<!-- Title: Ponca::KNearestPointQuery&lt; DataPoint &gt; Pages: 1 -->
<svg width="610pt" height="875pt"
 viewBox="0.00 0.00 609.50 875.00" xmlns="http://www.w3.org/2000/svg" xmlns:xlink="http://www.w3.org/1999/xlink">
<g id="graph0" class="graph" transform="scale(1 1) rotate(0) translate(4 871)">
<title>Ponca::KNearestPointQuery&lt; DataPoint &gt;</title>
<polygon fill="white" stroke="transparent" points="-4,4 -4,-871 605.5,-871 605.5,4 -4,4"/>
<!-- Node1 -->
<g id="node1" class="node">
<title>Node1</title>
<g id="a_node1"><a xlink:title="Base Query class combining QueryInputIsPosition and QueryOutputIsKNearest.">
<polygon fill="#bfbfbf" stroke="black" points="258.5,-139.5 258.5,-207.5 409.5,-207.5 409.5,-139.5 258.5,-139.5"/>
<text text-anchor="start" x="266.5" y="-195.5" font-family="Helvetica,sans-Serif" font-size="10.00">Ponca::KNearestPointQuery</text>
<text text-anchor="middle" x="334" y="-184.5" font-family="Helvetica,sans-Serif" font-size="10.00">&lt; DataPoint &gt;</text>
<polyline fill="none" stroke="black" points="258.5,-177.5 409.5,-177.5 "/>
<text text-anchor="middle" x="334" y="-165.5" font-family="Helvetica,sans-Serif" font-size="10.00"> </text>
<polyline fill="none" stroke="black" points="258.5,-158.5 409.5,-158.5 "/>
<text text-anchor="middle" x="334" y="-146.5" font-family="Helvetica,sans-Serif" font-size="10.00"> </text>
</a>
</g>
</g>
<!-- Node13 -->
<g id="node13" class="node">
<title>Node13</title>
<g id="a_node13"><a xlink:href="classPonca_1_1KdTreeKNearestPointQuery.html" target="_top" xlink:title=" ">
<polygon fill="white" stroke="black" points="250.5,-0.5 250.5,-101.5 417.5,-101.5 417.5,-0.5 250.5,-0.5"/>
<text text-anchor="start" x="258.5" y="-89.5" font-family="Helvetica,sans-Serif" font-size="10.00">Ponca::KdTreeKNearestPoint</text>
<text text-anchor="middle" x="334" y="-78.5" font-family="Helvetica,sans-Serif" font-size="10.00">Query&lt; DataPoint &gt;</text>
<polyline fill="none" stroke="black" points="250.5,-71.5 417.5,-71.5 "/>
<text text-anchor="middle" x="334" y="-59.5" font-family="Helvetica,sans-Serif" font-size="10.00"> </text>
<polyline fill="none" stroke="black" points="250.5,-52.5 417.5,-52.5 "/>
<text text-anchor="start" x="258.5" y="-40.5" font-family="Helvetica,sans-Serif" font-size="10.00">+ KdTreeKNearestPointQuery()</text>
<text text-anchor="start" x="258.5" y="-29.5" font-family="Helvetica,sans-Serif" font-size="10.00">+ begin()</text>
<text text-anchor="start" x="258.5" y="-18.5" font-family="Helvetica,sans-Serif" font-size="10.00">+ end()</text>
<text text-anchor="start" x="258.5" y="-7.5" font-family="Helvetica,sans-Serif" font-size="10.00"># search()</text>
</a>
</g>
</g>
<!-- Node1&#45;&gt;Node13 -->
<g id="edge14" class="edge">
<title>Node1&#45;&gt;Node13</title>
<path fill="none" stroke="midnightblue" d="M334,-129.15C334,-120.29 334,-110.91 334,-101.84"/>
<polygon fill="none" stroke="midnightblue" points="330.5,-129.25 334,-139.25 337.5,-129.25 330.5,-129.25"/>
</g>
<!-- Node2 -->
<g id="node2" class="node">
<title>Node2</title>
<g id="a_node2"><a xlink:href="structPonca_1_1Query.html" target="_top" xlink:title=" ">
<polygon fill="white" stroke="black" points="259.5,-245.5 259.5,-346.5 408.5,-346.5 408.5,-245.5 259.5,-245.5"/>
<text text-anchor="start" x="267.5" y="-334.5" font-family="Helvetica,sans-Serif" font-size="10.00">Ponca::Query&lt; QueryInput</text>
<text text-anchor="start" x="267.5" y="-323.5" font-family="Helvetica,sans-Serif" font-size="10.00">IsPosition&lt; DataPoint</text>
<text text-anchor="start" x="267.5" y="-312.5" font-family="Helvetica,sans-Serif" font-size="10.00"> &gt;, QueryOutputIsKNearest</text>
<text text-anchor="middle" x="334" y="-301.5" font-family="Helvetica,sans-Serif" font-size="10.00">&lt; DataPoint::Scalar &gt; &gt;</text>
<polyline fill="none" stroke="black" points="259.5,-294.5 408.5,-294.5 "/>
<text text-anchor="middle" x="334" y="-282.5" font-family="Helvetica,sans-Serif" font-size="10.00"> </text>
<polyline fill="none" stroke="black" points="259.5,-275.5 408.5,-275.5 "/>
<text text-anchor="start" x="267.5" y="-263.5" font-family="Helvetica,sans-Serif" font-size="10.00">+ Query()</text>
<text text-anchor="start" x="267.5" y="-252.5" font-family="Helvetica,sans-Serif" font-size="10.00">+ Query()</text>
</a>
</g>
</g>
<!-- Node2&#45;&gt;Node1 -->
<g id="edge1" class="edge">
<title>Node2&#45;&gt;Node1</title>
<path fill="none" stroke="midnightblue" d="M334,-235.07C334,-225.61 334,-216.14 334,-207.59"/>
<polygon fill="none" stroke="midnightblue" points="330.5,-235.29 334,-245.29 337.5,-235.29 330.5,-235.29"/>
</g>
<!-- Node3 -->
<g id="node3" class="node">
<title>Node3</title>
<g id="a_node3"><a xlink:href="structPonca_1_1QueryInputIsPosition.html" target="_top" xlink:title="Base class for queries storing points.">
<polygon fill="white" stroke="black" points="56.5,-427.5 56.5,-495.5 209.5,-495.5 209.5,-427.5 56.5,-427.5"/>
<text text-anchor="start" x="64.5" y="-483.5" font-family="Helvetica,sans-Serif" font-size="10.00">Ponca::QueryInputIsPosition</text>
<text text-anchor="middle" x="133" y="-472.5" font-family="Helvetica,sans-Serif" font-size="10.00">&lt; DataPoint &gt;</text>
<polyline fill="none" stroke="black" points="56.5,-465.5 209.5,-465.5 "/>
<text text-anchor="middle" x="133" y="-453.5" font-family="Helvetica,sans-Serif" font-size="10.00"> </text>
<polyline fill="none" stroke="black" points="56.5,-446.5 209.5,-446.5 "/>
<text text-anchor="start" x="64.5" y="-434.5" font-family="Helvetica,sans-Serif" font-size="10.00">+ QueryInputIsPosition()</text>
</a>
</g>
</g>
<!-- Node3&#45;&gt;Node2 -->
<g id="edge2" class="edge">
<title>Node3&#45;&gt;Node2</title>
<path fill="none" stroke="midnightblue" d="M181.57,-420.99C208.99,-398.69 243.52,-370.6 272.77,-346.8"/>
<polygon fill="none" stroke="midnightblue" points="179.22,-418.39 173.68,-427.41 183.64,-423.82 179.22,-418.39"/>
</g>
<!-- Node4 -->
<g id="node4" class="node">
<title>Node4</title>
<g id="a_node4"><a xlink:href="structPonca_1_1QueryInput.html" target="_top" xlink:title=" ">
<polygon fill="white" stroke="black" points="52,-560 52,-639 190,-639 190,-560 52,-560"/>
<text text-anchor="start" x="60" y="-627" font-family="Helvetica,sans-Serif" font-size="10.00">Ponca::QueryInput&lt;</text>
<text text-anchor="middle" x="121" y="-616" font-family="Helvetica,sans-Serif" font-size="10.00"> DataPoint::VectorType &gt;</text>
<polyline fill="none" stroke="black" points="52,-609 190,-609 "/>
<text text-anchor="middle" x="121" y="-597" font-family="Helvetica,sans-Serif" font-size="10.00"> </text>
<polyline fill="none" stroke="black" points="52,-590 190,-590 "/>
<text text-anchor="start" x="60" y="-578" font-family="Helvetica,sans-Serif" font-size="10.00">+ QueryInput()</text>
<text text-anchor="start" x="60" y="-567" font-family="Helvetica,sans-Serif" font-size="10.00">+ input()</text>
</a>
</g>
</g>
<!-- Node4&#45;&gt;Node3 -->
<g id="edge3" class="edge">
<title>Node4&#45;&gt;Node3</title>
<path fill="none" stroke="midnightblue" d="M125.29,-549.86C126.88,-531.89 128.64,-511.95 130.07,-495.67"/>
<polygon fill="none" stroke="midnightblue" points="121.8,-549.62 124.41,-559.89 128.77,-550.24 121.8,-549.62"/>
</g>
<!-- Node5 -->
<g id="node5" class="node">
<title>Node5</title>
<g id="a_node5"><a xlink:href="structPonca_1_1QueryInputBase.html" target="_top" xlink:title="Base class for queries input type.">
<polygon fill="white" stroke="black" points="0,-809.5 0,-866.5 130,-866.5 130,-809.5 0,-809.5"/>
<text text-anchor="middle" x="65" y="-854.5" font-family="Helvetica,sans-Serif" font-size="10.00">Ponca::QueryInputBase</text>
<polyline fill="none" stroke="black" points="0,-847.5 130,-847.5 "/>
<text text-anchor="middle" x="65" y="-835.5" font-family="Helvetica,sans-Serif" font-size="10.00"> </text>
<polyline fill="none" stroke="black" points="0,-828.5 130,-828.5 "/>
<text text-anchor="middle" x="65" y="-816.5" font-family="Helvetica,sans-Serif" font-size="10.00"> </text>
</a>
</g>
</g>
<!-- Node5&#45;&gt;Node4 -->
<g id="edge4" class="edge">
<title>Node5&#45;&gt;Node4</title>
<path fill="none" stroke="midnightblue" d="M62.32,-799.1C61.3,-769.42 62.21,-727.37 72,-692 77.05,-673.76 86.2,-655.09 95.23,-639.41"/>
<polygon fill="none" stroke="midnightblue" points="58.84,-799.61 62.78,-809.44 65.84,-799.3 58.84,-799.61"/>
</g>
<!-- Node6 -->
<g id="node6" class="node">
<title>Node6</title>
<g id="a_node6"><a xlink:href="structPonca_1_1QueryInput.html" target="_top" xlink:title="Base class for typed queries input type.">
<polygon fill="white" stroke="black" points="81,-692.5 81,-771.5 195,-771.5 195,-692.5 81,-692.5"/>
<text text-anchor="start" x="89" y="-759.5" font-family="Helvetica,sans-Serif" font-size="10.00">Ponca::QueryInput&lt;</text>
<text text-anchor="middle" x="138" y="-748.5" font-family="Helvetica,sans-Serif" font-size="10.00"> InputType_ &gt;</text>
<polyline fill="none" stroke="black" points="81,-741.5 195,-741.5 "/>
<text text-anchor="middle" x="138" y="-729.5" font-family="Helvetica,sans-Serif" font-size="10.00"> </text>
<polyline fill="none" stroke="black" points="81,-722.5 195,-722.5 "/>
<text text-anchor="start" x="89" y="-710.5" font-family="Helvetica,sans-Serif" font-size="10.00">+ QueryInput()</text>
<text text-anchor="start" x="89" y="-699.5" font-family="Helvetica,sans-Serif" font-size="10.00">+ input()</text>
</a>
</g>
</g>
<!-- Node5&#45;&gt;Node6 -->
<g id="edge6" class="edge">
<title>Node5&#45;&gt;Node6</title>
<path fill="none" stroke="midnightblue" d="M90.29,-800.98C96.92,-791.52 104.11,-781.28 110.84,-771.69"/>
<polygon fill="none" stroke="midnightblue" points="87.25,-799.21 84.37,-809.4 92.98,-803.23 87.25,-799.21"/>
</g>
<!-- Node6&#45;&gt;Node4 -->
<g id="edge5" class="edge">
<title>Node6&#45;&gt;Node4</title>
<path fill="none" stroke="orange" d="M123.49,-682.57C122.91,-679.68 122.41,-676.81 122,-674 120.37,-662.76 119.76,-650.45 119.65,-639.18"/>
<polygon fill="orange" stroke="orange" points="120.08,-683.37 125.7,-692.35 126.91,-681.82 120.08,-683.37"/>
<text text-anchor="middle" x="188.5" y="-666" font-family="Helvetica,sans-Serif" font-size="10.00"> &lt; DataPoint::VectorType &gt;</text>
</g>
<!-- Node7 -->
<g id="node7" class="node">
<title>Node7</title>
<g id="a_node7"><a xlink:href="structPonca_1_1QueryOutputIsKNearest.html" target="_top" xlink:title=" ">
<polygon fill="white" stroke="black" points="250.5,-416.5 250.5,-506.5 417.5,-506.5 417.5,-416.5 250.5,-416.5"/>
<text text-anchor="start" x="258.5" y="-494.5" font-family="Helvetica,sans-Serif" font-size="10.00">Ponca::QueryOutputIsKNearest</text>
<text text-anchor="middle" x="334" y="-483.5" font-family="Helvetica,sans-Serif" font-size="10.00">&lt; DataPoint::Scalar &gt;</text>
<polyline fill="none" stroke="black" points="250.5,-476.5 417.5,-476.5 "/>
<text text-anchor="start" x="258.5" y="-464.5" font-family="Helvetica,sans-Serif" font-size="10.00"># m_queue</text>
<polyline fill="none" stroke="black" points="250.5,-457.5 417.5,-457.5 "/>
<text text-anchor="start" x="258.5" y="-445.5" font-family="Helvetica,sans-Serif" font-size="10.00">+ QueryOutputIsKNearest()</text>
<text text-anchor="start" x="258.5" y="-434.5" font-family="Helvetica,sans-Serif" font-size="10.00">+ queue()</text>
<text text-anchor="start" x="258.5" y="-423.5" font-family="Helvetica,sans-Serif" font-size="10.00"># reset()</text>
</a>
</g>
</g>
<!-- Node7&#45;&gt;Node2 -->
<g id="edge7" class="edge">
<title>Node7&#45;&gt;Node2</title>
<path fill="none" stroke="midnightblue" d="M334,-406.16C334,-386.99 334,-365.54 334,-346.76"/>
<polygon fill="none" stroke="midnightblue" points="330.5,-406.25 334,-416.25 337.5,-406.25 330.5,-406.25"/>
</g>
<!-- Node8 -->
<g id="node8" class="node">
<title>Node8</title>
<g id="a_node8"><a xlink:href="structPonca_1_1QueryOutputBase.html" target="_top" xlink:title="Base class for queries output type.">
<polygon fill="white" stroke="black" points="227,-703.5 227,-760.5 365,-760.5 365,-703.5 227,-703.5"/>
<text text-anchor="middle" x="296" y="-748.5" font-family="Helvetica,sans-Serif" font-size="10.00">Ponca::QueryOutputBase</text>
<polyline fill="none" stroke="black" points="227,-741.5 365,-741.5 "/>
<text text-anchor="middle" x="296" y="-729.5" font-family="Helvetica,sans-Serif" font-size="10.00"> </text>
<polyline fill="none" stroke="black" points="227,-722.5 365,-722.5 "/>
<text text-anchor="middle" x="296" y="-710.5" font-family="Helvetica,sans-Serif" font-size="10.00"> </text>
</a>
</g>
</g>
<!-- Node8&#45;&gt;Node7 -->
<g id="edge8" class="edge">
<title>Node8&#45;&gt;Node7</title>
<path fill="none" stroke="midnightblue" d="M288.34,-693.15C282.39,-656.92 276.85,-600.99 288,-554 291.86,-537.74 299.08,-521.08 306.69,-506.51"/>
<polygon fill="none" stroke="midnightblue" points="284.93,-694.02 290.09,-703.27 291.83,-692.82 284.93,-694.02"/>
</g>
<!-- Node9 -->
<g id="node9" class="node">
<title>Node9</title>
<g id="a_node9"><a xlink:href="structPonca_1_1QueryOutputIsKNearest.html" target="_top" xlink:title="Base class for knearest queries.">
<polygon fill="white" stroke="black" points="296.5,-554.5 296.5,-644.5 463.5,-644.5 463.5,-554.5 296.5,-554.5"/>
<text text-anchor="start" x="304.5" y="-632.5" font-family="Helvetica,sans-Serif" font-size="10.00">Ponca::QueryOutputIsKNearest</text>
<text text-anchor="middle" x="380" y="-621.5" font-family="Helvetica,sans-Serif" font-size="10.00">&lt; Scalar &gt;</text>
<polyline fill="none" stroke="black" points="296.5,-614.5 463.5,-614.5 "/>
<text text-anchor="start" x="304.5" y="-602.5" font-family="Helvetica,sans-Serif" font-size="10.00"># m_queue</text>
<polyline fill="none" stroke="black" points="296.5,-595.5 463.5,-595.5 "/>
<text text-anchor="start" x="304.5" y="-583.5" font-family="Helvetica,sans-Serif" font-size="10.00">+ QueryOutputIsKNearest()</text>
<text text-anchor="start" x="304.5" y="-572.5" font-family="Helvetica,sans-Serif" font-size="10.00">+ queue()</text>
<text text-anchor="start" x="304.5" y="-561.5" font-family="Helvetica,sans-Serif" font-size="10.00"># reset()</text>
</a>
</g>
</g>
<!-- Node8&#45;&gt;Node9 -->
<g id="edge10" class="edge">
<title>Node8&#45;&gt;Node9</title>
<path fill="none" stroke="midnightblue" d="M319.47,-694.54C329.45,-679.04 341.17,-660.82 351.63,-644.57"/>
<polygon fill="none" stroke="midnightblue" points="316.28,-693.02 313.81,-703.32 322.17,-696.81 316.28,-693.02"/>
</g>
<!-- Node9&#45;&gt;Node7 -->
<g id="edge9" class="edge">
<title>Node9&#45;&gt;Node7</title>
<path fill="none" stroke="orange" d="M361.74,-544.52C357.52,-532.04 353.08,-518.91 349.02,-506.9"/>
<polygon fill="orange" stroke="orange" points="358.55,-545.99 365.07,-554.34 365.18,-543.75 358.55,-545.99"/>
<text text-anchor="middle" x="414" y="-528" font-family="Helvetica,sans-Serif" font-size="10.00"> &lt; DataPoint::Scalar &gt;</text>
</g>
<!-- Node10 -->
<g id="node10" class="node">
<title>Node10</title>
<g id="a_node10"><a xlink:href="structPonca_1_1Query.html" target="_top" xlink:title=" ">
<polygon fill="white" stroke="black" points="446.5,-422 446.5,-501 563.5,-501 563.5,-422 446.5,-422"/>
<text text-anchor="start" x="454.5" y="-489" font-family="Helvetica,sans-Serif" font-size="10.00">Ponca::Query&lt; Input</text>
<text text-anchor="middle" x="505" y="-478" font-family="Helvetica,sans-Serif" font-size="10.00">_, Output_ &gt;</text>
<polyline fill="none" stroke="black" points="446.5,-471 563.5,-471 "/>
<text text-anchor="middle" x="505" y="-459" font-family="Helvetica,sans-Serif" font-size="10.00"> </text>
<polyline fill="none" stroke="black" points="446.5,-452 563.5,-452 "/>
<text text-anchor="start" x="454.5" y="-440" font-family="Helvetica,sans-Serif" font-size="10.00">+ Query()</text>
<text text-anchor="start" x="454.5" y="-429" font-family="Helvetica,sans-Serif" font-size="10.00">+ Query()</text>
</a>
</g>
</g>
<!-- Node10&#45;&gt;Node2 -->
<g id="edge11" class="edge">
<title>Node10&#45;&gt;Node2</title>
<path fill="none" stroke="orange" d="M457.13,-414.73C434.95,-393.53 408.56,-368.29 385.91,-346.63"/>
<polygon fill="orange" stroke="orange" points="454.83,-417.37 464.48,-421.75 459.67,-412.31 454.83,-417.37"/>
<text text-anchor="start" x="434" y="-390" font-family="Helvetica,sans-Serif" font-size="10.00"> &lt; QueryInputIsPosition</text>
<text text-anchor="start" x="434" y="-379" font-family="Helvetica,sans-Serif" font-size="10.00">&lt; DataPoint &gt;, QueryOutputIs</text>
<text text-anchor="middle" x="515.5" y="-368" font-family="Helvetica,sans-Serif" font-size="10.00">KNearest&lt; DataPoint::Scalar &gt; &gt;</text>
</g>
<!-- Node11 -->
<g id="node11" class="node">
<title>Node11</title>
<g id="a_node11"><a xlink:title=" ">
<polygon fill="white" stroke="#bfbfbf" points="481.5,-571 481.5,-628 528.5,-628 528.5,-571 481.5,-571"/>
<text text-anchor="middle" x="505" y="-616" font-family="Helvetica,sans-Serif" font-size="10.00">Input_</text>
<polyline fill="none" stroke="#bfbfbf" points="481.5,-609 528.5,-609 "/>
<text text-anchor="middle" x="505" y="-597" font-family="Helvetica,sans-Serif" font-size="10.00"> </text>
<polyline fill="none" stroke="#bfbfbf" points="481.5,-590 528.5,-590 "/>
<text text-anchor="middle" x="505" y="-578" font-family="Helvetica,sans-Serif" font-size="10.00"> </text>
</a>
</g>
</g>
<!-- Node11&#45;&gt;Node10 -->
<g id="edge12" class="edge">
<title>Node11&#45;&gt;Node10</title>
<path fill="none" stroke="midnightblue" d="M505,-560.8C505,-542.19 505,-519.78 505,-501.06"/>
<polygon fill="none" stroke="midnightblue" points="501.5,-560.98 505,-570.98 508.5,-560.98 501.5,-560.98"/>
</g>
<!-- Node12 -->
<g id="node12" class="node">
<title>Node12</title>
<g id="a_node12"><a xlink:title=" ">
<polygon fill="white" stroke="#bfbfbf" points="546.5,-571 546.5,-628 601.5,-628 601.5,-571 546.5,-571"/>
<text text-anchor="middle" x="574" y="-616" font-family="Helvetica,sans-Serif" font-size="10.00">Output_</text>
<polyline fill="none" stroke="#bfbfbf" points="546.5,-609 601.5,-609 "/>
<text text-anchor="middle" x="574" y="-597" font-family="Helvetica,sans-Serif" font-size="10.00"> </text>
<polyline fill="none" stroke="#bfbfbf" points="546.5,-590 601.5,-590 "/>
<text text-anchor="middle" x="574" y="-578" font-family="Helvetica,sans-Serif" font-size="10.00"> </text>
</a>
</g>
</g>
<!-- Node12&#45;&gt;Node10 -->
<g id="edge13" class="edge">
<title>Node12&#45;&gt;Node10</title>
<path fill="none" stroke="midnightblue" d="M555.4,-561.84C545.86,-543.03 534.24,-520.13 524.56,-501.06"/>
<polygon fill="none" stroke="midnightblue" points="552.39,-563.64 560.04,-570.98 558.63,-560.48 552.39,-563.64"/>
</g>
</g>
</svg>
