<?xml version="1.0" encoding="UTF-8" standalone="no"?>
<!DOCTYPE svg PUBLIC "-//W3C//DTD SVG 1.1//EN"
 "http://www.w3.org/Graphics/SVG/1.1/DTD/svg11.dtd">
<!-- Generated by graphviz version 2.43.0 (0)
 -->
<!-- Title: Ponca::IndexSquaredDistance&lt; Index, Scalar &gt; Pages: 1 -->
<svg width="198pt" height="205pt"
 viewBox="0.00 0.00 197.50 205.00" xmlns="http://www.w3.org/2000/svg" xmlns:xlink="http://www.w3.org/1999/xlink">
<g id="graph0" class="graph" transform="scale(1 1) rotate(0) translate(4 201)">
<title>Ponca::IndexSquaredDistance&lt; Index, Scalar &gt;</title>
<!-- Node1 -->
<g id="Node000001" class="node">
<title>Node1</title>
<g id="a_Node000001"><a xlink:title="Associates an index with a distance.">
<polygon fill="#999999" stroke="transparent" points="155,-197 0,-197 0,-122 155,-122 155,-197"/>
<text text-anchor="start" x="5.5" y="-184.5" font-family="Helvetica,sans-Serif" font-size="10.00">Ponca::IndexSquaredDistance</text>
<text text-anchor="start" x="35" y="-173.5" font-family="Helvetica,sans-Serif" font-size="10.00">&lt; Index, Scalar &gt;</text>
<text text-anchor="start" x="16.5" y="-158.5" font-family="Helvetica,sans-Serif" font-size="10.00">+</text>
<text text-anchor="start" x="41.5" y="-158.5" font-family="Helvetica,sans-Serif" font-size="10.00">index</text>
<text text-anchor="start" x="16.5" y="-143.5" font-family="Helvetica,sans-Serif" font-size="10.00">+</text>
<text text-anchor="start" x="41.5" y="-143.5" font-family="Helvetica,sans-Serif" font-size="10.00">squared_distance</text>
<text text-anchor="start" x="16.5" y="-128.5" font-family="Helvetica,sans-Serif" font-size="10.00">+</text>
<text text-anchor="start" x="41.5" y="-128.5" font-family="Helvetica,sans-Serif" font-size="10.00">operator&lt;()</text>
<polygon fill="#666666" stroke="#666666" points="0.5,-168.5 0.5,-168.5 155.5,-168.5 155.5,-168.5 0.5,-168.5"/>
<polygon fill="#666666" stroke="#666666" points="0.5,-138.5 0.5,-138.5 39.5,-138.5 39.5,-138.5 0.5,-138.5"/>
<polygon fill="#666666" stroke="#666666" points="39.5,-138.5 39.5,-138.5 155.5,-138.5 155.5,-138.5 39.5,-138.5"/>
<polygon fill="none" stroke="#666666" points="0,-122 0,-197 155,-197 155,-122 0,-122"/>
</a>
</g>
</g>
<!-- Node2 -->
<g id="Node000002" class="node">
<title>Node2</title>
<g id="a_Node000002"><a xlink:href="structPonca_1_1IndexSquaredDistance.html" target="_top" xlink:title=" ">
<polygon fill="white" stroke="transparent" points="155,-75 0,-75 0,0 155,0 155,-75"/>
<text text-anchor="start" x="5.5" y="-62.5" font-family="Helvetica,sans-Serif" font-size="10.00">Ponca::IndexSquaredDistance</text>
<text text-anchor="start" x="23.5" y="-51.5" font-family="Helvetica,sans-Serif" font-size="10.00">&lt; IndexType, Scalar &gt;</text>
<text text-anchor="start" x="16.5" y="-36.5" font-family="Helvetica,sans-Serif" font-size="10.00">+</text>
<text text-anchor="start" x="41.5" y="-36.5" font-family="Helvetica,sans-Serif" font-size="10.00">index</text>
<text text-anchor="start" x="16.5" y="-21.5" font-family="Helvetica,sans-Serif" font-size="10.00">+</text>
<text text-anchor="start" x="41.5" y="-21.5" font-family="Helvetica,sans-Serif" font-size="10.00">squared_distance</text>
<text text-anchor="start" x="16.5" y="-6.5" font-family="Helvetica,sans-Serif" font-size="10.00">+</text>
<text text-anchor="start" x="41.5" y="-6.5" font-family="Helvetica,sans-Serif" font-size="10.00">operator&lt;()</text>
<polygon fill="#666666" stroke="#666666" points="0.5,-46.5 0.5,-46.5 155.5,-46.5 155.5,-46.5 0.5,-46.5"/>
<polygon fill="#666666" stroke="#666666" points="0.5,-16.5 0.5,-16.5 39.5,-16.5 39.5,-16.5 0.5,-16.5"/>
<polygon fill="#666666" stroke="#666666" points="39.5,-16.5 39.5,-16.5 155.5,-16.5 155.5,-16.5 39.5,-16.5"/>
<polygon fill="none" stroke="#666666" points="0,0 0,-75 155,-75 155,0 0,0"/>
</a>
</g>
</g>
<!-- Node1&#45;&gt;Node2 -->
<g id="edge1_Node000001_Node000002" class="edge">
<title>Node1&#45;&gt;Node2</title>
<g id="a_edge1_Node000001_Node000002"><a xlink:title=" ">
<path fill="none" stroke="orange" d="M77.5,-111.53C77.5,-99.51 77.5,-86.77 77.5,-75.35"/>
<polygon fill="orange" stroke="orange" points="74,-111.84 77.5,-121.84 81,-111.84 74,-111.84"/>
</a>
</g>
<text text-anchor="middle" x="133.5" y="-96" font-family="Helvetica,sans-Serif" font-size="10.00" fill="grey"> &lt; IndexType, Scalar &gt;</text>
</g>
</g>
</svg>
