<?xml version="1.0" encoding="UTF-8" standalone="no"?>
<!DOCTYPE svg PUBLIC "-//W3C//DTD SVG 1.1//EN"
 "http://www.w3.org/Graphics/SVG/1.1/DTD/svg11.dtd">
<!-- Generated by graphviz version 2.43.0 (0)
 -->
<!-- Title: Ponca::Query&lt; Input_, Output_ &gt; Pages: 1 -->
<!--zoomable 792 -->

<svg id="main" version="1.1" xmlns="http://www.w3.org/2000/svg" xmlns:xlink="http://www.w3.org/1999/xlink" xml:space="preserve" onload="init(evt)">
<style type="text/css"><![CDATA[
.node, .edge {opacity: 0.7;}
.node.selected, .edge.selected {opacity: 1;}
.edge:hover path { stroke: red; }
.edge:hover polygon { stroke: red; fill: red; }
]]></style>

<defs>
  <circle id="rim" cx="0" cy="0" r="7"/>
  <circle id="rim2" cx="0" cy="0" r="3.5"/>
  <g id="zoomPlus">
    <use xlink:href="#rim" fill="#404040"><set attributeName="fill" to="#808080" begin="zoomplus.mouseover" end="zoomplus.mouseout"/></use>
    <path d="M-4,0h8M0,-4v8" fill="none" stroke="white" stroke-width="1.5" pointer-events="none"/>
  </g>
  <g id="zoomMin">
    <use xlink:href="#rim" fill="#404040"><set attributeName="fill" to="#808080" begin="zoomminus.mouseover" end="zoomminus.mouseout"/></use>
    <path d="M-4,0h8" fill="none" stroke="white" stroke-width="1.5" pointer-events="none"/>
  </g>
  <g id="arrowUp" transform="translate(30 24)">
    <use xlink:href="#rim"/>
    <path pointer-events="none" fill="none" stroke="white" stroke-width="1.5" d="M0,-3.0v7 M-2.5,-0.5L0,-3.0L2.5,-0.5"/>
  </g>
  <g id="arrowRight" transform="rotate(90) translate(36 -43)">
    <use xlink:href="#rim"/>
    <path pointer-events="none" fill="none" stroke="white" stroke-width="1.5" d="M0,-3.0v7 M-2.5,-0.5L0,-3.0L2.5,-0.5"/>
  </g>
  <g id="arrowDown" transform="rotate(180) translate(-30 -48)">
    <use xlink:href="#rim"/>
    <path pointer-events="none" fill="none" stroke="white" stroke-width="1.5" d="M0,-3.0v7 M-2.5,-0.5L0,-3.0L2.5,-0.5"/>
  </g>
  <g id="arrowLeft" transform="rotate(270) translate(-36 17)">
    <use xlink:href="#rim"/>
    <path pointer-events="none" fill="none" stroke="white" stroke-width="1.5" d="M0,-3.0v7 M-2.5,-0.5L0,-3.0L2.5,-0.5"/>
  </g>
  <g id="resetDef">
    <use xlink:href="#rim2" fill="#404040"><set attributeName="fill" to="#808080" begin="reset.mouseover" end="reset.mouseout"/></use>
  </g>
</defs>
<script type="application/ecmascript">
var viewWidth = 1671;
var viewHeight = 792;
var sectionId = 'dynsection-17';
</script>
<script type="application/ecmascript" xlink:href="svg.min.js"/>
<svg id="graph" class="graph">
<g id="viewport">
<title>Ponca::Query&lt; Input_, Output_ &gt;</title>
<!-- Node1 -->
<g id="Node000001" class="node">
<title>Node1</title>
<g id="a_Node000001"><a xlink:title=" ">
<polygon fill="#999999" stroke="transparent" points="723.5,-698 612.5,-698 612.5,-623 723.5,-623 723.5,-698"/>
<text text-anchor="start" x="618" y="-685.5" font-family="Helvetica,sans-Serif" font-size="10.00">Ponca::Query&lt; Input</text>
<text text-anchor="start" x="638" y="-674.5" font-family="Helvetica,sans-Serif" font-size="10.00">_, Output_ &gt;</text>
<text text-anchor="start" x="666.5" y="-659.5" font-family="Helvetica,sans-Serif" font-size="10.00"> </text>
<text text-anchor="start" x="630" y="-644.5" font-family="Helvetica,sans-Serif" font-size="10.00">+</text>
<text text-anchor="start" x="656" y="-644.5" font-family="Helvetica,sans-Serif" font-size="10.00">Query()</text>
<text text-anchor="start" x="630" y="-629.5" font-family="Helvetica,sans-Serif" font-size="10.00">+</text>
<text text-anchor="start" x="656" y="-629.5" font-family="Helvetica,sans-Serif" font-size="10.00">Query()</text>
<polygon fill="#666666" stroke="#666666" points="613,-669.5 613,-669.5 724,-669.5 724,-669.5 613,-669.5"/>
<polygon fill="#666666" stroke="#666666" points="613,-654.5 613,-654.5 724,-654.5 724,-654.5 613,-654.5"/>
<polygon fill="none" stroke="#666666" points="612.5,-623 612.5,-698 723.5,-698 723.5,-623 612.5,-623"/>
</a>
</g>
</g>
<!-- Node4 -->
<g id="Node000004" class="node">
<title>Node4</title>
<g id="a_Node000004"><a xlink:href="group__spatialpartitioning.html" target="_top" xlink:title=" ">
<polygon fill="white" stroke="transparent" points="221.5,-258 74.5,-258 74.5,-187 221.5,-187 221.5,-258"/>
<text text-anchor="start" x="80" y="-245.5" font-family="Helvetica,sans-Serif" font-size="10.00">Ponca::KNearestIndexQuery</text>
<text text-anchor="start" x="80" y="-234.5" font-family="Helvetica,sans-Serif" font-size="10.00">&lt; Traits::IndexType, Traits</text>
<text text-anchor="start" x="97.5" y="-223.5" font-family="Helvetica,sans-Serif" font-size="10.00">::DataPoint::Scalar &gt;</text>
<text text-anchor="start" x="146.5" y="-208.5" font-family="Helvetica,sans-Serif" font-size="10.00"> </text>
<text text-anchor="start" x="146.5" y="-193.5" font-family="Helvetica,sans-Serif" font-size="10.00"> </text>
<polygon fill="#666666" stroke="#666666" points="75,-218.5 75,-218.5 222,-218.5 222,-218.5 75,-218.5"/>
<polygon fill="#666666" stroke="#666666" points="75,-203.5 75,-203.5 222,-203.5 222,-203.5 75,-203.5"/>
<polygon fill="none" stroke="#666666" points="74.5,-187 74.5,-258 221.5,-258 221.5,-187 74.5,-187"/>
</a>
</g>
</g>
<!-- Node1&#45;&gt;Node4 -->
<g id="edge3_Node000001_Node000004" class="edge">
<title>Node1&#45;&gt;Node4</title>
<g id="a_edge3_Node000001_Node000004"><a xlink:title=" ">
<path fill="none" stroke="#63b8ff" d="M602.3,-656.57C515.23,-651.43 367.72,-638.02 326,-605 208.16,-511.75 337.3,-396.86 248,-276 240.95,-266.46 231.65,-258.5 221.55,-251.9"/>
<polygon fill="none" stroke="#63b8ff" points="602.17,-660.06 612.35,-657.14 602.57,-653.08 602.17,-660.06"/>
</a>
</g>
</g>
<!-- Node6 -->
<g id="Node000006" class="node">
<title>Node6</title>
<g id="a_Node000006"><a xlink:href="group__spatialpartitioning.html" target="_top" xlink:title=" ">
<polygon fill="white" stroke="transparent" points="397,-258 261,-258 261,-187 397,-187 397,-258"/>
<text text-anchor="start" x="266" y="-245.5" font-family="Helvetica,sans-Serif" font-size="10.00">Ponca::RangeIndexQuery</text>
<text text-anchor="start" x="266" y="-234.5" font-family="Helvetica,sans-Serif" font-size="10.00">&lt; Traits::IndexType, Traits</text>
<text text-anchor="start" x="278" y="-223.5" font-family="Helvetica,sans-Serif" font-size="10.00">::DataPoint::Scalar &gt;</text>
<text text-anchor="start" x="327" y="-208.5" font-family="Helvetica,sans-Serif" font-size="10.00"> </text>
<text text-anchor="start" x="327" y="-193.5" font-family="Helvetica,sans-Serif" font-size="10.00"> </text>
<polygon fill="#666666" stroke="#666666" points="261,-218.5 261,-218.5 397,-218.5 397,-218.5 261,-218.5"/>
<polygon fill="#666666" stroke="#666666" points="261,-203.5 261,-203.5 397,-203.5 397,-203.5 261,-203.5"/>
<polygon fill="none" stroke="#666666" points="261,-187 261,-258 397,-258 397,-187 261,-187"/>
</a>
</g>
</g>
<!-- Node1&#45;&gt;Node6 -->
<g id="edge5_Node000001_Node000006" class="edge">
<title>Node1&#45;&gt;Node6</title>
<g id="a_edge5_Node000001_Node000006"><a xlink:title=" ">
<path fill="none" stroke="#63b8ff" d="M602.27,-656.75C544.9,-651.99 460.92,-639.2 396,-605 354.84,-583.32 339.09,-574.85 321,-532 281.93,-439.45 304.38,-316.98 319.2,-258.06"/>
<polygon fill="none" stroke="#63b8ff" points="602.06,-660.24 612.3,-657.52 602.6,-653.26 602.06,-660.24"/>
</a>
</g>
</g>
<!-- Node8 -->
<g id="Node000008" class="node">
<title>Node8</title>
<g id="a_Node000008"><a xlink:href="group__spatialpartitioning.html" target="_top" xlink:title=" ">
<polygon fill="white" stroke="transparent" points="164,-521 0,-521 0,-435 164,-435 164,-521"/>
<text text-anchor="start" x="5" y="-509" font-family="Helvetica,sans-Serif" font-size="10.00">Ponca::Query&lt; QueryInput</text>
<text text-anchor="start" x="5" y="-498" font-family="Helvetica,sans-Serif" font-size="10.00">IsIndex&lt; Index &gt;, QueryOutput</text>
<text text-anchor="start" x="6.5" y="-487" font-family="Helvetica,sans-Serif" font-size="10.00">IsKNearest&lt; Index, Scalar &gt; &gt;</text>
<text text-anchor="start" x="80" y="-472" font-family="Helvetica,sans-Serif" font-size="10.00"> </text>
<text text-anchor="start" x="30.5" y="-457" font-family="Helvetica,sans-Serif" font-size="10.00">+</text>
<text text-anchor="start" x="70" y="-457" font-family="Helvetica,sans-Serif" font-size="10.00">Query()</text>
<text text-anchor="start" x="30.5" y="-442" font-family="Helvetica,sans-Serif" font-size="10.00">+</text>
<text text-anchor="start" x="70" y="-442" font-family="Helvetica,sans-Serif" font-size="10.00">Query()</text>
<polygon fill="#bfbfbf" stroke="#bfbfbf" points="0,-482 0,-482 164,-482 164,-482 0,-482"/>
<polygon fill="#bfbfbf" stroke="#bfbfbf" points="0,-467 0,-467 164,-467 164,-467 0,-467"/>
<polygon fill="none" stroke="#bfbfbf" points="0,-435 0,-521 164,-521 164,-435 0,-435"/>
</a>
</g>
</g>
<!-- Node1&#45;&gt;Node8 -->
<g id="edge7_Node000001_Node000008" class="edge">
<title>Node1&#45;&gt;Node8</title>
<g id="a_edge7_Node000001_Node000008"><a xlink:title=" ">
<path fill="none" stroke="orange" d="M602.13,-658.31C455.6,-654.97 112.77,-643.13 78,-605 57.8,-582.84 60.36,-548.32 67.11,-521"/>
<polygon fill="orange" stroke="orange" points="602.26,-661.81 612.34,-658.53 602.42,-654.81 602.26,-661.81"/>
</a>
</g>
<text text-anchor="start" x="78" y="-586" font-family="Helvetica,sans-Serif" font-size="10.00" fill="grey"> &lt; QueryInputIsIndex</text>
<text text-anchor="start" x="78" y="-575" font-family="Helvetica,sans-Serif" font-size="10.00" fill="grey">&lt; Index &gt;, QueryOutputIsKNearest</text>
<text text-anchor="middle" x="164" y="-564" font-family="Helvetica,sans-Serif" font-size="10.00" fill="grey">&lt; Index, Scalar &gt; &gt;</text>
</g>
<!-- Node10 -->
<g id="Node000010" class="node">
<title>Node10</title>
<g id="a_Node000010"><a xlink:href="group__spatialpartitioning.html" target="_top" xlink:title=" ">
<polygon fill="white" stroke="transparent" points="491.5,-526.5 330.5,-526.5 330.5,-429.5 491.5,-429.5 491.5,-526.5"/>
<text text-anchor="start" x="336" y="-514" font-family="Helvetica,sans-Serif" font-size="10.00">Ponca::Query&lt; QueryInput</text>
<text text-anchor="start" x="336" y="-503" font-family="Helvetica,sans-Serif" font-size="10.00">IsPosition&lt; DataPoint</text>
<text text-anchor="start" x="336" y="-492" font-family="Helvetica,sans-Serif" font-size="10.00"> &gt;, QueryOutputIsKNearest</text>
<text text-anchor="start" x="336" y="-481" font-family="Helvetica,sans-Serif" font-size="10.00">&lt; Index, DataPoint::Scalar &gt; &gt;</text>
<text text-anchor="start" x="409.5" y="-466" font-family="Helvetica,sans-Serif" font-size="10.00"> </text>
<text text-anchor="start" x="360.5" y="-451" font-family="Helvetica,sans-Serif" font-size="10.00">+</text>
<text text-anchor="start" x="399" y="-451" font-family="Helvetica,sans-Serif" font-size="10.00">Query()</text>
<text text-anchor="start" x="360.5" y="-436" font-family="Helvetica,sans-Serif" font-size="10.00">+</text>
<text text-anchor="start" x="399" y="-436" font-family="Helvetica,sans-Serif" font-size="10.00">Query()</text>
<polygon fill="#bfbfbf" stroke="#bfbfbf" points="331,-476 331,-476 492,-476 492,-476 331,-476"/>
<polygon fill="#bfbfbf" stroke="#bfbfbf" points="331,-461 331,-461 492,-461 492,-461 331,-461"/>
<polygon fill="none" stroke="#bfbfbf" points="330.5,-429.5 330.5,-526.5 491.5,-526.5 491.5,-429.5 330.5,-429.5"/>
</a>
</g>
</g>
<!-- Node1&#45;&gt;Node10 -->
<g id="edge10_Node000001_Node000010" class="edge">
<title>Node1&#45;&gt;Node10</title>
<g id="a_edge10_Node000001_Node000010"><a xlink:title=" ">
<path fill="none" stroke="orange" d="M602.04,-654.03C536.17,-647.08 441.45,-632.52 418,-605 399.95,-583.82 398.09,-552.65 400.79,-526.61"/>
<polygon fill="orange" stroke="orange" points="602.04,-657.55 612.34,-655.08 602.75,-650.59 602.04,-657.55"/>
</a>
</g>
<text text-anchor="start" x="418" y="-591.5" font-family="Helvetica,sans-Serif" font-size="10.00" fill="grey"> &lt; QueryInputIsPosition</text>
<text text-anchor="start" x="418" y="-580.5" font-family="Helvetica,sans-Serif" font-size="10.00" fill="grey">&lt; DataPoint &gt;, QueryOutputIs</text>
<text text-anchor="start" x="418" y="-569.5" font-family="Helvetica,sans-Serif" font-size="10.00" fill="grey">KNearest&lt; Index, DataPoint</text>
<text text-anchor="middle" x="492" y="-558.5" font-family="Helvetica,sans-Serif" font-size="10.00" fill="grey">::Scalar &gt; &gt;</text>
</g>
<!-- Node12 -->
<g id="Node000012" class="node">
<title>Node12</title>
<g id="a_Node000012"><a xlink:href="group__spatialpartitioning.html" target="_top" xlink:title=" ">
<polygon fill="white" stroke="transparent" points="652.5,-532 509.5,-532 509.5,-424 652.5,-424 652.5,-532"/>
<text text-anchor="start" x="515" y="-520" font-family="Helvetica,sans-Serif" font-size="10.00">Ponca::Query&lt; QueryInput</text>
<text text-anchor="start" x="515" y="-509" font-family="Helvetica,sans-Serif" font-size="10.00">IsIndex&lt; Traits::IndexType</text>
<text text-anchor="start" x="515" y="-498" font-family="Helvetica,sans-Serif" font-size="10.00"> &gt;, QueryOutputIsKNearest</text>
<text text-anchor="start" x="515" y="-487" font-family="Helvetica,sans-Serif" font-size="10.00">&lt; Traits::IndexType, Traits</text>
<text text-anchor="start" x="525" y="-476" font-family="Helvetica,sans-Serif" font-size="10.00">::DataPoint::Scalar &gt; &gt;</text>
<text text-anchor="start" x="579.5" y="-461" font-family="Helvetica,sans-Serif" font-size="10.00"> </text>
<text text-anchor="start" x="535" y="-446" font-family="Helvetica,sans-Serif" font-size="10.00">+</text>
<text text-anchor="start" x="569" y="-446" font-family="Helvetica,sans-Serif" font-size="10.00">Query()</text>
<text text-anchor="start" x="535" y="-431" font-family="Helvetica,sans-Serif" font-size="10.00">+</text>
<text text-anchor="start" x="569" y="-431" font-family="Helvetica,sans-Serif" font-size="10.00">Query()</text>
<polygon fill="#bfbfbf" stroke="#bfbfbf" points="510,-471 510,-471 653,-471 653,-471 510,-471"/>
<polygon fill="#bfbfbf" stroke="#bfbfbf" points="510,-456 510,-456 653,-456 653,-456 510,-456"/>
<polygon fill="none" stroke="#bfbfbf" points="509.5,-424 509.5,-532 652.5,-532 652.5,-424 509.5,-424"/>
</a>
</g>
</g>
<!-- Node1&#45;&gt;Node12 -->
<g id="edge12_Node000001_Node000012" class="edge">
<title>Node1&#45;&gt;Node12</title>
<g id="a_edge12_Node000001_Node000012"><a xlink:title=" ">
<path fill="none" stroke="orange" d="M603.86,-629.55C595.11,-622.72 587.32,-614.58 582,-605 569.89,-583.2 568.37,-555.83 570.41,-532.17"/>
<polygon fill="orange" stroke="orange" points="601.96,-632.49 612.13,-635.46 606.03,-626.8 601.96,-632.49"/>
</a>
</g>
<text text-anchor="start" x="582" y="-597" font-family="Helvetica,sans-Serif" font-size="10.00" fill="grey"> &lt; QueryInputIsIndex</text>
<text text-anchor="start" x="582" y="-586" font-family="Helvetica,sans-Serif" font-size="10.00" fill="grey">&lt; Traits::IndexType</text>
<text text-anchor="start" x="582" y="-575" font-family="Helvetica,sans-Serif" font-size="10.00" fill="grey"> &gt;, QueryOutputIsKNearest</text>
<text text-anchor="start" x="582" y="-564" font-family="Helvetica,sans-Serif" font-size="10.00" fill="grey">&lt; Traits::IndexType, Traits</text>
<text text-anchor="middle" x="648.5" y="-553" font-family="Helvetica,sans-Serif" font-size="10.00" fill="grey">::DataPoint::Scalar &gt; &gt;</text>
</g>
<!-- Node13 -->
<g id="Node000013" class="node">
<title>Node13</title>
<g id="a_Node000013"><a xlink:href="group__spatialpartitioning.html" target="_top" xlink:title=" ">
<polygon fill="white" stroke="transparent" points="837.5,-532 670.5,-532 670.5,-424 837.5,-424 837.5,-532"/>
<text text-anchor="start" x="676" y="-520" font-family="Helvetica,sans-Serif" font-size="10.00">Ponca::Query&lt; QueryInput</text>
<text text-anchor="start" x="676" y="-509" font-family="Helvetica,sans-Serif" font-size="10.00">IsIndex&lt; Traits::IndexType</text>
<text text-anchor="start" x="676" y="-498" font-family="Helvetica,sans-Serif" font-size="10.00"> &gt;, QueryOutputIsRange&lt; Traits</text>
<text text-anchor="start" x="676" y="-487" font-family="Helvetica,sans-Serif" font-size="10.00">::IndexType, Traits::DataPoint</text>
<text text-anchor="start" x="725" y="-476" font-family="Helvetica,sans-Serif" font-size="10.00">::Scalar &gt; &gt;</text>
<text text-anchor="start" x="752.5" y="-461" font-family="Helvetica,sans-Serif" font-size="10.00"> </text>
<text text-anchor="start" x="702" y="-446" font-family="Helvetica,sans-Serif" font-size="10.00">+</text>
<text text-anchor="start" x="742" y="-446" font-family="Helvetica,sans-Serif" font-size="10.00">Query()</text>
<text text-anchor="start" x="702" y="-431" font-family="Helvetica,sans-Serif" font-size="10.00">+</text>
<text text-anchor="start" x="742" y="-431" font-family="Helvetica,sans-Serif" font-size="10.00">Query()</text>
<polygon fill="#bfbfbf" stroke="#bfbfbf" points="671,-471 671,-471 838,-471 838,-471 671,-471"/>
<polygon fill="#bfbfbf" stroke="#bfbfbf" points="671,-456 671,-456 838,-456 838,-456 671,-456"/>
<polygon fill="none" stroke="#bfbfbf" points="670.5,-424 670.5,-532 837.5,-532 837.5,-424 670.5,-424"/>
</a>
</g>
</g>
<!-- Node1&#45;&gt;Node13 -->
<g id="edge13_Node000001_Node000013" class="edge">
<title>Node1&#45;&gt;Node13</title>
<g id="a_edge13_Node000001_Node000013"><a xlink:title=" ">
<path fill="none" stroke="orange" d="M712.6,-615.02C714.93,-611.75 717.09,-608.4 719,-605 731.56,-582.63 739.85,-555.46 745.19,-532.08"/>
<polygon fill="orange" stroke="orange" points="709.81,-612.9 706.5,-622.96 715.36,-617.16 709.81,-612.9"/>
</a>
</g>
<text text-anchor="start" x="740" y="-597" font-family="Helvetica,sans-Serif" font-size="10.00" fill="grey"> &lt; QueryInputIsIndex</text>
<text text-anchor="start" x="740" y="-586" font-family="Helvetica,sans-Serif" font-size="10.00" fill="grey">&lt; Traits::IndexType</text>
<text text-anchor="start" x="740" y="-575" font-family="Helvetica,sans-Serif" font-size="10.00" fill="grey"> &gt;, QueryOutputIsRange</text>
<text text-anchor="start" x="740" y="-564" font-family="Helvetica,sans-Serif" font-size="10.00" fill="grey">&lt; Traits::IndexType, Traits</text>
<text text-anchor="middle" x="803" y="-553" font-family="Helvetica,sans-Serif" font-size="10.00" fill="grey">::DataPoint::Scalar &gt; &gt;</text>
</g>
<!-- Node14 -->
<g id="Node000014" class="node">
<title>Node14</title>
<g id="a_Node000014"><a xlink:href="group__spatialpartitioning.html" target="_top" xlink:title=" ">
<polygon fill="white" stroke="transparent" points="1020,-521 856,-521 856,-435 1020,-435 1020,-521"/>
<text text-anchor="start" x="861" y="-509" font-family="Helvetica,sans-Serif" font-size="10.00">Ponca::Query&lt; QueryInput</text>
<text text-anchor="start" x="861" y="-498" font-family="Helvetica,sans-Serif" font-size="10.00">IsIndex&lt; Index &gt;, QueryOutput</text>
<text text-anchor="start" x="866" y="-487" font-family="Helvetica,sans-Serif" font-size="10.00">IsNearest&lt; Index, Scalar &gt; &gt;</text>
<text text-anchor="start" x="936" y="-472" font-family="Helvetica,sans-Serif" font-size="10.00"> </text>
<text text-anchor="start" x="886.5" y="-457" font-family="Helvetica,sans-Serif" font-size="10.00">+</text>
<text text-anchor="start" x="926" y="-457" font-family="Helvetica,sans-Serif" font-size="10.00">Query()</text>
<text text-anchor="start" x="886.5" y="-442" font-family="Helvetica,sans-Serif" font-size="10.00">+</text>
<text text-anchor="start" x="926" y="-442" font-family="Helvetica,sans-Serif" font-size="10.00">Query()</text>
<polygon fill="#bfbfbf" stroke="#bfbfbf" points="856,-482 856,-482 1020,-482 1020,-482 856,-482"/>
<polygon fill="#bfbfbf" stroke="#bfbfbf" points="856,-467 856,-467 1020,-467 1020,-467 856,-467"/>
<polygon fill="none" stroke="#bfbfbf" points="856,-435 856,-521 1020,-521 1020,-435 856,-435"/>
</a>
</g>
</g>
<!-- Node1&#45;&gt;Node14 -->
<g id="edge14_Node000001_Node000014" class="edge">
<title>Node1&#45;&gt;Node14</title>
<g id="a_edge14_Node000001_Node000014"><a xlink:title=" ">
<path fill="none" stroke="orange" d="M733.93,-655.03C776.61,-649.15 831.25,-635.69 870,-605 896.89,-583.71 914.55,-548.76 925.12,-521.06"/>
<polygon fill="orange" stroke="orange" points="733.39,-651.57 723.91,-656.3 734.27,-658.51 733.39,-651.57"/>
</a>
</g>
<text text-anchor="start" x="912" y="-586" font-family="Helvetica,sans-Serif" font-size="10.00" fill="grey"> &lt; QueryInputIsIndex</text>
<text text-anchor="start" x="912" y="-575" font-family="Helvetica,sans-Serif" font-size="10.00" fill="grey">&lt; Index &gt;, QueryOutputIsNearest</text>
<text text-anchor="middle" x="994.5" y="-564" font-family="Helvetica,sans-Serif" font-size="10.00" fill="grey">&lt; Index, Scalar &gt; &gt;</text>
</g>
<!-- Node16 -->
<g id="Node000016" class="node">
<title>Node16</title>
<g id="a_Node000016"><a xlink:href="group__spatialpartitioning.html" target="_top" xlink:title=" ">
<polygon fill="white" stroke="transparent" points="1199.5,-526.5 1038.5,-526.5 1038.5,-429.5 1199.5,-429.5 1199.5,-526.5"/>
<text text-anchor="start" x="1044" y="-514" font-family="Helvetica,sans-Serif" font-size="10.00">Ponca::Query&lt; QueryInput</text>
<text text-anchor="start" x="1044" y="-503" font-family="Helvetica,sans-Serif" font-size="10.00">IsPosition&lt; DataPoint</text>
<text text-anchor="start" x="1044" y="-492" font-family="Helvetica,sans-Serif" font-size="10.00"> &gt;, QueryOutputIsNearest</text>
<text text-anchor="start" x="1044" y="-481" font-family="Helvetica,sans-Serif" font-size="10.00">&lt; Index, DataPoint::Scalar &gt; &gt;</text>
<text text-anchor="start" x="1117.5" y="-466" font-family="Helvetica,sans-Serif" font-size="10.00"> </text>
<text text-anchor="start" x="1068.5" y="-451" font-family="Helvetica,sans-Serif" font-size="10.00">+</text>
<text text-anchor="start" x="1107" y="-451" font-family="Helvetica,sans-Serif" font-size="10.00">Query()</text>
<text text-anchor="start" x="1068.5" y="-436" font-family="Helvetica,sans-Serif" font-size="10.00">+</text>
<text text-anchor="start" x="1107" y="-436" font-family="Helvetica,sans-Serif" font-size="10.00">Query()</text>
<polygon fill="#bfbfbf" stroke="#bfbfbf" points="1039,-476 1039,-476 1200,-476 1200,-476 1039,-476"/>
<polygon fill="#bfbfbf" stroke="#bfbfbf" points="1039,-461 1039,-461 1200,-461 1200,-461 1039,-461"/>
<polygon fill="none" stroke="#bfbfbf" points="1038.5,-429.5 1038.5,-526.5 1199.5,-526.5 1199.5,-429.5 1038.5,-429.5"/>
</a>
</g>
</g>
<!-- Node1&#45;&gt;Node16 -->
<g id="edge16_Node000001_Node000016" class="edge">
<title>Node1&#45;&gt;Node16</title>
<g id="a_edge16_Node000001_Node000016"><a xlink:title=" ">
<path fill="none" stroke="orange" d="M734.09,-659.24C837.25,-657.49 1030.06,-648.31 1081,-605 1103.63,-585.76 1113.08,-553.57 1116.89,-526.54"/>
<polygon fill="orange" stroke="orange" points="733.73,-655.75 723.78,-659.4 733.84,-662.75 733.73,-655.75"/>
</a>
</g>
<text text-anchor="start" x="1111" y="-591.5" font-family="Helvetica,sans-Serif" font-size="10.00" fill="grey"> &lt; QueryInputIsPosition</text>
<text text-anchor="start" x="1111" y="-580.5" font-family="Helvetica,sans-Serif" font-size="10.00" fill="grey">&lt; DataPoint &gt;, QueryOutputIs</text>
<text text-anchor="start" x="1111" y="-569.5" font-family="Helvetica,sans-Serif" font-size="10.00" fill="grey">Nearest&lt; Index, DataPoint</text>
<text text-anchor="middle" x="1185" y="-558.5" font-family="Helvetica,sans-Serif" font-size="10.00" fill="grey">::Scalar &gt; &gt;</text>
</g>
<!-- Node18 -->
<g id="Node000018" class="node">
<title>Node18</title>
<g id="a_Node000018"><a xlink:href="group__spatialpartitioning.html" target="_top" xlink:title=" ">
<polygon fill="white" stroke="transparent" points="1382,-521 1218,-521 1218,-435 1382,-435 1382,-521"/>
<text text-anchor="start" x="1223" y="-509" font-family="Helvetica,sans-Serif" font-size="10.00">Ponca::Query&lt; QueryInput</text>
<text text-anchor="start" x="1223" y="-498" font-family="Helvetica,sans-Serif" font-size="10.00">IsIndex&lt; Index &gt;, QueryOutput</text>
<text text-anchor="start" x="1232" y="-487" font-family="Helvetica,sans-Serif" font-size="10.00">IsRange&lt; Index, Scalar &gt; &gt;</text>
<text text-anchor="start" x="1298" y="-472" font-family="Helvetica,sans-Serif" font-size="10.00"> </text>
<text text-anchor="start" x="1248.5" y="-457" font-family="Helvetica,sans-Serif" font-size="10.00">+</text>
<text text-anchor="start" x="1288" y="-457" font-family="Helvetica,sans-Serif" font-size="10.00">Query()</text>
<text text-anchor="start" x="1248.5" y="-442" font-family="Helvetica,sans-Serif" font-size="10.00">+</text>
<text text-anchor="start" x="1288" y="-442" font-family="Helvetica,sans-Serif" font-size="10.00">Query()</text>
<polygon fill="#bfbfbf" stroke="#bfbfbf" points="1218,-482 1218,-482 1382,-482 1382,-482 1218,-482"/>
<polygon fill="#bfbfbf" stroke="#bfbfbf" points="1218,-467 1218,-467 1382,-467 1382,-467 1218,-467"/>
<polygon fill="none" stroke="#bfbfbf" points="1218,-435 1218,-521 1382,-521 1382,-435 1218,-435"/>
</a>
</g>
</g>
<!-- Node1&#45;&gt;Node18 -->
<g id="edge18_Node000001_Node000018" class="edge">
<title>Node1&#45;&gt;Node18</title>
<g id="a_edge18_Node000001_Node000018"><a xlink:title=" ">
<path fill="none" stroke="orange" d="M733.71,-657.6C879.98,-652.78 1222.8,-638.06 1263,-605 1287.48,-584.87 1296.28,-549.45 1299.22,-521.29"/>
<polygon fill="orange" stroke="orange" points="733.4,-654.1 723.52,-657.93 733.63,-661.1 733.4,-654.1"/>
</a>
</g>
<text text-anchor="start" x="1293" y="-586" font-family="Helvetica,sans-Serif" font-size="10.00" fill="grey"> &lt; QueryInputIsIndex</text>
<text text-anchor="start" x="1293" y="-575" font-family="Helvetica,sans-Serif" font-size="10.00" fill="grey">&lt; Index &gt;, QueryOutputIsRange</text>
<text text-anchor="middle" x="1371.5" y="-564" font-family="Helvetica,sans-Serif" font-size="10.00" fill="grey">&lt; Index, Scalar &gt; &gt;</text>
</g>
<!-- Node20 -->
<g id="Node000020" class="node">
<title>Node20</title>
<g id="a_Node000020"><a xlink:href="group__spatialpartitioning.html" target="_top" xlink:title=" ">
<polygon fill="white" stroke="transparent" points="1561.5,-526.5 1400.5,-526.5 1400.5,-429.5 1561.5,-429.5 1561.5,-526.5"/>
<text text-anchor="start" x="1406" y="-514" font-family="Helvetica,sans-Serif" font-size="10.00">Ponca::Query&lt; QueryInput</text>
<text text-anchor="start" x="1406" y="-503" font-family="Helvetica,sans-Serif" font-size="10.00">IsPosition&lt; DataPoint</text>
<text text-anchor="start" x="1406" y="-492" font-family="Helvetica,sans-Serif" font-size="10.00"> &gt;, QueryOutputIsRange</text>
<text text-anchor="start" x="1406" y="-481" font-family="Helvetica,sans-Serif" font-size="10.00">&lt; Index, DataPoint::Scalar &gt; &gt;</text>
<text text-anchor="start" x="1479.5" y="-466" font-family="Helvetica,sans-Serif" font-size="10.00"> </text>
<text text-anchor="start" x="1430.5" y="-451" font-family="Helvetica,sans-Serif" font-size="10.00">+</text>
<text text-anchor="start" x="1469" y="-451" font-family="Helvetica,sans-Serif" font-size="10.00">Query()</text>
<text text-anchor="start" x="1430.5" y="-436" font-family="Helvetica,sans-Serif" font-size="10.00">+</text>
<text text-anchor="start" x="1469" y="-436" font-family="Helvetica,sans-Serif" font-size="10.00">Query()</text>
<polygon fill="#bfbfbf" stroke="#bfbfbf" points="1401,-476 1401,-476 1562,-476 1562,-476 1401,-476"/>
<polygon fill="#bfbfbf" stroke="#bfbfbf" points="1401,-461 1401,-461 1562,-461 1562,-461 1401,-461"/>
<polygon fill="none" stroke="#bfbfbf" points="1400.5,-429.5 1400.5,-526.5 1561.5,-526.5 1561.5,-429.5 1400.5,-429.5"/>
</a>
</g>
</g>
<!-- Node1&#45;&gt;Node20 -->
<g id="edge21_Node000001_Node000020" class="edge">
<title>Node1&#45;&gt;Node20</title>
<g id="a_edge21_Node000001_Node000020"><a xlink:title=" ">
<path fill="none" stroke="orange" d="M733.7,-659.39C912.85,-658.48 1400.15,-651.71 1454,-605 1475.97,-585.94 1482.59,-553.75 1483.78,-526.67"/>
<polygon fill="orange" stroke="orange" points="733.6,-655.89 723.62,-659.44 733.63,-662.89 733.6,-655.89"/>
</a>
</g>
<text text-anchor="start" x="1481" y="-586" font-family="Helvetica,sans-Serif" font-size="10.00" fill="grey"> &lt; QueryInputIsPosition</text>
<text text-anchor="start" x="1481" y="-575" font-family="Helvetica,sans-Serif" font-size="10.00" fill="grey">&lt; DataPoint &gt;, QueryOutputIs</text>
<text text-anchor="middle" x="1572" y="-564" font-family="Helvetica,sans-Serif" font-size="10.00" fill="grey">Range&lt; Index, DataPoint::Scalar &gt; &gt;</text>
</g>
<!-- Node2 -->
<g id="Node000002" class="node">
<title>Node2</title>
<g id="a_Node000002"><a xlink:title=" ">
<polygon fill="white" stroke="transparent" points="657.5,-784 616.5,-784 616.5,-735 657.5,-735 657.5,-784"/>
<text text-anchor="start" x="622" y="-771.5" font-family="Helvetica,sans-Serif" font-size="10.00">Input_</text>
<text text-anchor="start" x="635.5" y="-756.5" font-family="Helvetica,sans-Serif" font-size="10.00"> </text>
<text text-anchor="start" x="635.5" y="-741.5" font-family="Helvetica,sans-Serif" font-size="10.00"> </text>
<polygon fill="#bfbfbf" stroke="#bfbfbf" points="617,-766.5 617,-766.5 658,-766.5 658,-766.5 617,-766.5"/>
<polygon fill="#bfbfbf" stroke="#bfbfbf" points="617,-751.5 617,-751.5 658,-751.5 658,-751.5 617,-751.5"/>
<polygon fill="none" stroke="#bfbfbf" points="616.5,-735 616.5,-784 657.5,-784 657.5,-735 616.5,-735"/>
</a>
</g>
</g>
<!-- Node2&#45;&gt;Node1 -->
<g id="edge1_Node000001_Node000002" class="edge">
<title>Node2&#45;&gt;Node1</title>
<g id="a_edge1_Node000001_Node000002"><a xlink:title=" ">
<path fill="none" stroke="#63b8ff" d="M647.78,-724.78C650.54,-716.14 653.52,-706.82 656.32,-698.05"/>
<polygon fill="none" stroke="#63b8ff" points="644.37,-723.93 644.66,-734.52 651.04,-726.06 644.37,-723.93"/>
</a>
</g>
</g>
<!-- Node3 -->
<g id="Node000003" class="node">
<title>Node3</title>
<g id="a_Node000003"><a xlink:title=" ">
<polygon fill="white" stroke="transparent" points="724.5,-784 675.5,-784 675.5,-735 724.5,-735 724.5,-784"/>
<text text-anchor="start" x="681" y="-771.5" font-family="Helvetica,sans-Serif" font-size="10.00">Output_</text>
<text text-anchor="start" x="698.5" y="-756.5" font-family="Helvetica,sans-Serif" font-size="10.00"> </text>
<text text-anchor="start" x="698.5" y="-741.5" font-family="Helvetica,sans-Serif" font-size="10.00"> </text>
<polygon fill="#bfbfbf" stroke="#bfbfbf" points="676,-766.5 676,-766.5 725,-766.5 725,-766.5 676,-766.5"/>
<polygon fill="#bfbfbf" stroke="#bfbfbf" points="676,-751.5 676,-751.5 725,-751.5 725,-751.5 676,-751.5"/>
<polygon fill="none" stroke="#bfbfbf" points="675.5,-735 675.5,-784 724.5,-784 724.5,-735 675.5,-735"/>
</a>
</g>
</g>
<!-- Node3&#45;&gt;Node1 -->
<g id="edge2_Node000001_Node000003" class="edge">
<title>Node3&#45;&gt;Node1</title>
<g id="a_edge2_Node000001_Node000003"><a xlink:title=" ">
<path fill="none" stroke="#63b8ff" d="M688.88,-724.78C686.03,-716.14 682.95,-706.82 680.06,-698.05"/>
<polygon fill="none" stroke="#63b8ff" points="685.63,-726.12 692.09,-734.52 692.28,-723.93 685.63,-726.12"/>
</a>
</g>
</g>
<!-- Node5 -->
<g id="Node000005" class="node">
<title>Node5</title>
<g id="a_Node000005"><a xlink:href="classPonca_1_1KnnGraphKNearestQuery.html" target="_top" xlink:title=" ">
<polygon fill="white" stroke="transparent" points="232,-120 64,-120 64,-30 232,-30 232,-120"/>
<text text-anchor="start" x="69" y="-108" font-family="Helvetica,sans-Serif" font-size="10.00">Ponca::KnnGraphKNearestQuery</text>
<text text-anchor="start" x="123.5" y="-97" font-family="Helvetica,sans-Serif" font-size="10.00">&lt; Traits &gt;</text>
<text text-anchor="start" x="72" y="-82" font-family="Helvetica,sans-Serif" font-size="10.00">#</text>
<text text-anchor="start" x="89" y="-82" font-family="Helvetica,sans-Serif" font-size="10.00">m_graph</text>
<text text-anchor="start" x="72" y="-67" font-family="Helvetica,sans-Serif" font-size="10.00">+</text>
<text text-anchor="start" x="89" y="-67" font-family="Helvetica,sans-Serif" font-size="10.00">KnnGraphKNearestQuery()</text>
<text text-anchor="start" x="72" y="-52" font-family="Helvetica,sans-Serif" font-size="10.00">+</text>
<text text-anchor="start" x="89" y="-52" font-family="Helvetica,sans-Serif" font-size="10.00">begin()</text>
<text text-anchor="start" x="72" y="-37" font-family="Helvetica,sans-Serif" font-size="10.00">+</text>
<text text-anchor="start" x="89" y="-37" font-family="Helvetica,sans-Serif" font-size="10.00">end()</text>
<polygon fill="#bfbfbf" stroke="#bfbfbf" points="64,-92 64,-92 232,-92 232,-92 64,-92"/>
<polygon fill="#bfbfbf" stroke="#bfbfbf" points="64,-77 64,-77 87,-77 87,-77 64,-77"/>
<polygon fill="#bfbfbf" stroke="#bfbfbf" points="87,-77 87,-77 232,-77 232,-77 87,-77"/>
<polygon fill="none" stroke="#bfbfbf" points="64,-30 64,-120 232,-120 232,-30 64,-30"/>
</a>
</g>
</g>
<!-- Node4&#45;&gt;Node5 -->
<g id="edge4_Node000004_Node000005" class="edge">
<title>Node4&#45;&gt;Node5</title>
<g id="a_edge4_Node000004_Node000005"><a xlink:title=" ">
<path fill="none" stroke="#63b8ff" d="M148,-176.46C148,-158.56 148,-138.04 148,-120.23"/>
<polygon fill="none" stroke="#63b8ff" points="144.5,-176.65 148,-186.65 151.5,-176.65 144.5,-176.65"/>
</a>
</g>
</g>
<!-- Node7 -->
<g id="Node000007" class="node">
<title>Node7</title>
<g id="a_Node000007"><a xlink:href="classPonca_1_1KnnGraphRangeQuery.html" target="_top" xlink:title=" ">
<polygon fill="white" stroke="transparent" points="406,-150 252,-150 252,0 406,0 406,-150"/>
<text text-anchor="start" x="257" y="-138" font-family="Helvetica,sans-Serif" font-size="10.00">Ponca::KnnGraphRangeQuery</text>
<text text-anchor="start" x="304.5" y="-127" font-family="Helvetica,sans-Serif" font-size="10.00">&lt; Traits &gt;</text>
<text text-anchor="start" x="260" y="-112" font-family="Helvetica,sans-Serif" font-size="10.00">#</text>
<text text-anchor="start" x="277" y="-112" font-family="Helvetica,sans-Serif" font-size="10.00">m_graph</text>
<text text-anchor="start" x="260" y="-97" font-family="Helvetica,sans-Serif" font-size="10.00">#</text>
<text text-anchor="start" x="277" y="-97" font-family="Helvetica,sans-Serif" font-size="10.00">m_flag</text>
<text text-anchor="start" x="260" y="-82" font-family="Helvetica,sans-Serif" font-size="10.00">#</text>
<text text-anchor="start" x="277" y="-82" font-family="Helvetica,sans-Serif" font-size="10.00">m_stack</text>
<text text-anchor="start" x="260" y="-67" font-family="Helvetica,sans-Serif" font-size="10.00">+</text>
<text text-anchor="start" x="277" y="-67" font-family="Helvetica,sans-Serif" font-size="10.00">KnnGraphRangeQuery()</text>
<text text-anchor="start" x="260" y="-52" font-family="Helvetica,sans-Serif" font-size="10.00">+</text>
<text text-anchor="start" x="277" y="-52" font-family="Helvetica,sans-Serif" font-size="10.00">begin()</text>
<text text-anchor="start" x="260" y="-37" font-family="Helvetica,sans-Serif" font-size="10.00">+</text>
<text text-anchor="start" x="277" y="-37" font-family="Helvetica,sans-Serif" font-size="10.00">end()</text>
<text text-anchor="start" x="260" y="-22" font-family="Helvetica,sans-Serif" font-size="10.00">#</text>
<text text-anchor="start" x="277" y="-22" font-family="Helvetica,sans-Serif" font-size="10.00">initialize()</text>
<text text-anchor="start" x="260" y="-7" font-family="Helvetica,sans-Serif" font-size="10.00">#</text>
<text text-anchor="start" x="277" y="-7" font-family="Helvetica,sans-Serif" font-size="10.00">advance()</text>
<polygon fill="#bfbfbf" stroke="#bfbfbf" points="252,-122 252,-122 406,-122 406,-122 252,-122"/>
<polygon fill="#bfbfbf" stroke="#bfbfbf" points="252,-77 252,-77 275,-77 275,-77 252,-77"/>
<polygon fill="#bfbfbf" stroke="#bfbfbf" points="275,-77 275,-77 406,-77 406,-77 275,-77"/>
<polygon fill="none" stroke="#bfbfbf" points="252,0 252,-150 406,-150 406,0 252,0"/>
</a>
</g>
</g>
<!-- Node6&#45;&gt;Node7 -->
<g id="edge6_Node000006_Node000007" class="edge">
<title>Node6&#45;&gt;Node7</title>
<g id="a_edge6_Node000006_Node000007"><a xlink:title=" ">
<path fill="none" stroke="#63b8ff" d="M329,-176.38C329,-167.99 329,-159.03 329,-150.04"/>
<polygon fill="none" stroke="#63b8ff" points="325.5,-176.65 329,-186.65 332.5,-176.65 325.5,-176.65"/>
</a>
</g>
</g>
<!-- Node9 -->
<g id="Node000009" class="node">
<title>Node9</title>
<g id="a_Node000009"><a xlink:href="group__spatialpartitioning.html#structPonca_1_1KNearestIndexQuery" target="_top" xlink:title="Base Query class combining QueryInputIsIndex and QueryOutputIsKNearest.">
<polygon fill="white" stroke="transparent" points="209.5,-387 62.5,-387 62.5,-327 209.5,-327 209.5,-387"/>
<text text-anchor="start" x="68" y="-375" font-family="Helvetica,sans-Serif" font-size="10.00">Ponca::KNearestIndexQuery</text>
<text text-anchor="start" x="93.5" y="-364" font-family="Helvetica,sans-Serif" font-size="10.00">&lt; Index, Scalar &gt;</text>
<text text-anchor="start" x="134.5" y="-349" font-family="Helvetica,sans-Serif" font-size="10.00"> </text>
<text text-anchor="start" x="134.5" y="-334" font-family="Helvetica,sans-Serif" font-size="10.00"> </text>
<polygon fill="#666666" stroke="#666666" points="63,-359 63,-359 210,-359 210,-359 63,-359"/>
<polygon fill="#666666" stroke="#666666" points="63,-344 63,-344 210,-344 210,-344 63,-344"/>
<polygon fill="none" stroke="#666666" points="62.5,-327 62.5,-387 209.5,-387 209.5,-327 62.5,-327"/>
</a>
</g>
</g>
<!-- Node8&#45;&gt;Node9 -->
<g id="edge8_Node000008_Node000009" class="edge">
<title>Node8&#45;&gt;Node9</title>
<g id="a_edge8_Node000008_Node000009"><a xlink:title=" ">
<path fill="none" stroke="#63b8ff" d="M105.46,-425.31C111.4,-412.22 117.57,-398.62 122.8,-387.1"/>
<polygon fill="none" stroke="#63b8ff" points="102.14,-424.16 101.19,-434.71 108.51,-427.05 102.14,-424.16"/>
</a>
</g>
</g>
<!-- Node9&#45;&gt;Node4 -->
<g id="edge9_Node000009_Node000004" class="edge">
<title>Node9&#45;&gt;Node4</title>
<g id="a_edge9_Node000009_Node000004"><a xlink:title=" ">
<path fill="none" stroke="orange" d="M139.56,-316.71C141.24,-298.12 143.24,-276.11 144.86,-258.15"/>
<polygon fill="orange" stroke="orange" points="136.05,-316.65 138.63,-326.92 143.02,-317.28 136.05,-316.65"/>
</a>
</g>
<text text-anchor="start" x="144" y="-301" font-family="Helvetica,sans-Serif" font-size="10.00" fill="grey"> &lt; Traits::IndexType,</text>
<text text-anchor="start" x="144" y="-290" font-family="Helvetica,sans-Serif" font-size="10.00" fill="grey"> Traits::DataPoint::</text>
<text text-anchor="middle" x="194" y="-279" font-family="Helvetica,sans-Serif" font-size="10.00" fill="grey">Scalar &gt;</text>
</g>
<!-- Node11 -->
<g id="Node000011" class="node">
<title>Node11</title>
<g id="a_Node000011"><a xlink:href="group__spatialpartitioning.html#structPonca_1_1KNearestPointQuery" target="_top" xlink:title="Base Query class combining QueryInputIsPosition and QueryOutputIsKNearest.">
<polygon fill="white" stroke="transparent" points="483.5,-387 338.5,-387 338.5,-327 483.5,-327 483.5,-387"/>
<text text-anchor="start" x="344" y="-375" font-family="Helvetica,sans-Serif" font-size="10.00">Ponca::KNearestPointQuery</text>
<text text-anchor="start" x="359.5" y="-364" font-family="Helvetica,sans-Serif" font-size="10.00">&lt; Index, DataPoint &gt;</text>
<text text-anchor="start" x="409.5" y="-349" font-family="Helvetica,sans-Serif" font-size="10.00"> </text>
<text text-anchor="start" x="409.5" y="-334" font-family="Helvetica,sans-Serif" font-size="10.00"> </text>
<polygon fill="#666666" stroke="#666666" points="339,-359 339,-359 484,-359 484,-359 339,-359"/>
<polygon fill="#666666" stroke="#666666" points="339,-344 339,-344 484,-344 484,-344 339,-344"/>
<polygon fill="none" stroke="#666666" points="338.5,-327 338.5,-387 483.5,-387 483.5,-327 338.5,-327"/>
</a>
</g>
</g>
<!-- Node10&#45;&gt;Node11 -->
<g id="edge11_Node000010_Node000011" class="edge">
<title>Node10&#45;&gt;Node11</title>
<g id="a_edge11_Node000010_Node000011"><a xlink:title=" ">
<path fill="none" stroke="#63b8ff" d="M411,-419.17C411,-408.09 411,-396.93 411,-387.23"/>
<polygon fill="none" stroke="#63b8ff" points="407.5,-419.28 411,-429.28 414.5,-419.28 407.5,-419.28"/>
</a>
</g>
</g>
<!-- Node15 -->
<g id="Node000015" class="node">
<title>Node15</title>
<g id="a_Node000015"><a xlink:href="group__spatialpartitioning.html#structPonca_1_1NearestIndexQuery" target="_top" xlink:title="Base Query class combining QueryInputIsIndex and QueryOutputIsNearest.">
<polygon fill="white" stroke="transparent" points="1008,-387 868,-387 868,-327 1008,-327 1008,-387"/>
<text text-anchor="start" x="873" y="-375" font-family="Helvetica,sans-Serif" font-size="10.00">Ponca::NearestIndexQuery</text>
<text text-anchor="start" x="895" y="-364" font-family="Helvetica,sans-Serif" font-size="10.00">&lt; Index, Scalar &gt;</text>
<text text-anchor="start" x="936" y="-349" font-family="Helvetica,sans-Serif" font-size="10.00"> </text>
<text text-anchor="start" x="936" y="-334" font-family="Helvetica,sans-Serif" font-size="10.00"> </text>
<polygon fill="#666666" stroke="#666666" points="868,-359 868,-359 1008,-359 1008,-359 868,-359"/>
<polygon fill="#666666" stroke="#666666" points="868,-344 868,-344 1008,-344 1008,-344 868,-344"/>
<polygon fill="none" stroke="#666666" points="868,-327 868,-387 1008,-387 1008,-327 868,-327"/>
</a>
</g>
</g>
<!-- Node14&#45;&gt;Node15 -->
<g id="edge15_Node000014_Node000015" class="edge">
<title>Node14&#45;&gt;Node15</title>
<g id="a_edge15_Node000014_Node000015"><a xlink:title=" ">
<path fill="none" stroke="#63b8ff" d="M938,-424.54C938,-411.69 938,-398.39 938,-387.1"/>
<polygon fill="none" stroke="#63b8ff" points="934.5,-424.71 938,-434.71 941.5,-424.71 934.5,-424.71"/>
</a>
</g>
</g>
<!-- Node17 -->
<g id="Node000017" class="node">
<title>Node17</title>
<g id="a_Node000017"><a xlink:href="group__spatialpartitioning.html#structPonca_1_1NearestPointQuery" target="_top" xlink:title="Base Query class combining QueryInputIsPosition and QueryOutputIsNearest.">
<polygon fill="white" stroke="transparent" points="1188,-387 1050,-387 1050,-327 1188,-327 1188,-387"/>
<text text-anchor="start" x="1055" y="-375" font-family="Helvetica,sans-Serif" font-size="10.00">Ponca::NearestPointQuery</text>
<text text-anchor="start" x="1067" y="-364" font-family="Helvetica,sans-Serif" font-size="10.00">&lt; Index, DataPoint &gt;</text>
<text text-anchor="start" x="1117" y="-349" font-family="Helvetica,sans-Serif" font-size="10.00"> </text>
<text text-anchor="start" x="1117" y="-334" font-family="Helvetica,sans-Serif" font-size="10.00"> </text>
<polygon fill="#666666" stroke="#666666" points="1050,-359 1050,-359 1188,-359 1188,-359 1050,-359"/>
<polygon fill="#666666" stroke="#666666" points="1050,-344 1050,-344 1188,-344 1188,-344 1050,-344"/>
<polygon fill="none" stroke="#666666" points="1050,-327 1050,-387 1188,-387 1188,-327 1050,-327"/>
</a>
</g>
</g>
<!-- Node16&#45;&gt;Node17 -->
<g id="edge17_Node000016_Node000017" class="edge">
<title>Node16&#45;&gt;Node17</title>
<g id="a_edge17_Node000016_Node000017"><a xlink:title=" ">
<path fill="none" stroke="#63b8ff" d="M1119,-419.17C1119,-408.09 1119,-396.93 1119,-387.23"/>
<polygon fill="none" stroke="#63b8ff" points="1115.5,-419.28 1119,-429.28 1122.5,-419.28 1115.5,-419.28"/>
</a>
</g>
</g>
<!-- Node19 -->
<g id="Node000019" class="node">
<title>Node19</title>
<g id="a_Node000019"><a xlink:href="group__spatialpartitioning.html#structPonca_1_1RangeIndexQuery" target="_top" xlink:title="Base Query class combining QueryInputIsIndex and QueryOutputIsRange.">
<polygon fill="white" stroke="transparent" points="1346.5,-387 1213.5,-387 1213.5,-327 1346.5,-327 1346.5,-387"/>
<text text-anchor="start" x="1219" y="-375" font-family="Helvetica,sans-Serif" font-size="10.00">Ponca::RangeIndexQuery</text>
<text text-anchor="start" x="1237.5" y="-364" font-family="Helvetica,sans-Serif" font-size="10.00">&lt; Index, Scalar &gt;</text>
<text text-anchor="start" x="1278.5" y="-349" font-family="Helvetica,sans-Serif" font-size="10.00"> </text>
<text text-anchor="start" x="1278.5" y="-334" font-family="Helvetica,sans-Serif" font-size="10.00"> </text>
<polygon fill="#666666" stroke="#666666" points="1214,-359 1214,-359 1347,-359 1347,-359 1214,-359"/>
<polygon fill="#666666" stroke="#666666" points="1214,-344 1214,-344 1347,-344 1347,-344 1214,-344"/>
<polygon fill="none" stroke="#666666" points="1213.5,-327 1213.5,-387 1346.5,-387 1346.5,-327 1213.5,-327"/>
</a>
</g>
</g>
<!-- Node18&#45;&gt;Node19 -->
<g id="edge19_Node000018_Node000019" class="edge">
<title>Node18&#45;&gt;Node19</title>
<g id="a_edge19_Node000018_Node000019"><a xlink:title=" ">
<path fill="none" stroke="#63b8ff" d="M1291.18,-424.54C1289.02,-411.69 1286.79,-398.39 1284.89,-387.1"/>
<polygon fill="none" stroke="#63b8ff" points="1287.78,-425.43 1292.89,-434.71 1294.69,-424.27 1287.78,-425.43"/>
</a>
</g>
</g>
<!-- Node19&#45;&gt;Node6 -->
<g id="edge20_Node000019_Node000006" class="edge">
<title>Node19&#45;&gt;Node6</title>
<g id="a_edge20_Node000019_Node000006"><a xlink:title=" ">
<path fill="none" stroke="orange" d="M1203.58,-328.62C1201.37,-328.04 1199.17,-327.5 1197,-327 904.06,-259.21 544.65,-234.36 397.11,-226.58"/>
<polygon fill="orange" stroke="orange" points="1202.75,-332.02 1213.32,-331.3 1204.62,-325.27 1202.75,-332.02"/>
</a>
</g>
<text text-anchor="start" x="1104" y="-301" font-family="Helvetica,sans-Serif" font-size="10.00" fill="grey"> &lt; Traits::IndexType,</text>
<text text-anchor="start" x="1104" y="-290" font-family="Helvetica,sans-Serif" font-size="10.00" fill="grey"> Traits::DataPoint::</text>
<text text-anchor="middle" x="1154" y="-279" font-family="Helvetica,sans-Serif" font-size="10.00" fill="grey">Scalar &gt;</text>
</g>
<!-- Node21 -->
<g id="Node000021" class="node">
<title>Node21</title>
<g id="a_Node000021"><a xlink:href="group__spatialpartitioning.html#structPonca_1_1RangePointQuery" target="_top" xlink:title="Base Query class combining QueryInputIsPosition and QueryOutputIsRange.">
<polygon fill="white" stroke="transparent" points="1546.5,-387 1415.5,-387 1415.5,-327 1546.5,-327 1546.5,-387"/>
<text text-anchor="start" x="1421" y="-375" font-family="Helvetica,sans-Serif" font-size="10.00">Ponca::RangePointQuery</text>
<text text-anchor="start" x="1429.5" y="-364" font-family="Helvetica,sans-Serif" font-size="10.00">&lt; Index, DataPoint &gt;</text>
<text text-anchor="start" x="1479.5" y="-349" font-family="Helvetica,sans-Serif" font-size="10.00"> </text>
<text text-anchor="start" x="1479.5" y="-334" font-family="Helvetica,sans-Serif" font-size="10.00"> </text>
<polygon fill="#666666" stroke="#666666" points="1416,-359 1416,-359 1547,-359 1547,-359 1416,-359"/>
<polygon fill="#666666" stroke="#666666" points="1416,-344 1416,-344 1547,-344 1547,-344 1416,-344"/>
<polygon fill="none" stroke="#666666" points="1415.5,-327 1415.5,-387 1546.5,-387 1546.5,-327 1415.5,-327"/>
</a>
</g>
</g>
<!-- Node20&#45;&gt;Node21 -->
<g id="edge22_Node000020_Node000021" class="edge">
<title>Node20&#45;&gt;Node21</title>
<g id="a_edge22_Node000020_Node000021"><a xlink:title=" ">
<path fill="none" stroke="#63b8ff" d="M1481,-419.17C1481,-408.09 1481,-396.93 1481,-387.23"/>
<polygon fill="none" stroke="#63b8ff" points="1477.5,-419.28 1481,-429.28 1484.5,-419.28 1477.5,-419.28"/>
</a>
</g>
</g>
</g>
</svg>

<g id="navigator" transform="translate(0 0)" fill="#404254">
  <rect fill="#f2f5e9" fill-opacity="0.5" stroke="#606060" stroke-width=".5" x="0" y="0" width="60" height="60"/>
  <use id="zoomplus" xlink:href="#zoomPlus" x="17" y="9" onmousedown="handleZoom(evt,'in')"/>
  <use id="zoomminus" xlink:href="#zoomMin" x="42" y="9" onmousedown="handleZoom(evt,'out')"/>
  <use id="reset" xlink:href="#resetDef" x="30" y="36" onmousedown="handleReset()"/>
   <use id="arrowup" xlink:href="#arrowUp" x="0" y="0" onmousedown="handlePan(0,-1)"/>
  <use id="arrowright" xlink:href="#arrowRight" x="0" y="0" onmousedown="handlePan(1,0)"/>
  <use id="arrowdown" xlink:href="#arrowDown" x="0" y="0" onmousedown="handlePan(0,1)"/>
  <use id="arrowleft" xlink:href="#arrowLeft" x="0" y="0" onmousedown="handlePan(-1,0)"/>
</g>
<svg viewBox="0 0 15 15" width="100%" height="30px" preserveAspectRatio="xMaxYMin meet">
 <g id="arrow_out" transform="scale(0.3 0.3)">
  <a xlink:href="structPonca_1_1Query__inherit__graph_org.svg" target="_base">
   <rect id="button" ry="5" rx="5" y="6" x="6" height="38" width="38"
        fill="#f2f5e9" fill-opacity="0.5" stroke="#606060" stroke-width="1.0"/>
   <path id="arrow"
     d="M 11.500037,31.436501 C 11.940474,20.09759 22.043105,11.32322 32.158766,21.979434 L 37.068811,17.246167 C 37.068811,17.246167 37.088388,32 37.088388,32 L 22.160133,31.978069 C 22.160133,31.978069 26.997745,27.140456 26.997745,27.140456 C 18.528582,18.264221 13.291696,25.230495 11.500037,31.436501 z"
     style="fill:#404040;"/>
  </a>
 </g>
</svg>

<style type='text/css'>
<![CDATA[
[data-mouse-over-selected='false'] { opacity: 0.7; }
[data-mouse-over-selected='true']  { opacity: 1.0; }
]]>
</style>
<script type="application/ecmascript"><![CDATA[
document.addEventListener('DOMContentLoaded', (event) => {
  highlightEdges();
  highlightAdjacentNodes();
});
]]></script>
</svg>
