<?xml version="1.0" encoding="UTF-8" standalone="no"?>
<!DOCTYPE svg PUBLIC "-//W3C//DTD SVG 1.1//EN"
 "http://www.w3.org/Graphics/SVG/1.1/DTD/svg11.dtd">
<!-- Generated by graphviz version 2.43.0 (0)
 -->
<!-- Title: Ponca::ComputeObject&lt; Derived &gt; Pages: 1 -->
<svg width="900pt" height="939pt"
 viewBox="0.00 0.00 899.85 939.00" xmlns="http://www.w3.org/2000/svg" xmlns:xlink="http://www.w3.org/1999/xlink">
<g id="graph0" class="graph" transform="scale(1 1) rotate(0) translate(4 935)">
<title>Ponca::ComputeObject&lt; Derived &gt;</title>
<!-- Node1 -->
<g id="Node000001" class="node">
<title>Node1</title>
<g id="a_Node000001"><a xlink:title="ComputeObject is a virtual object that represents an algorithm which can be used with the compute fun...">
<polygon fill="#999999" stroke="transparent" points="452.85,-931 330.85,-931 330.85,-826 452.85,-826 452.85,-931"/>
<text text-anchor="start" x="335.85" y="-918.5" font-family="Helvetica,sans-Serif" font-size="10.00">Ponca::ComputeObject</text>
<text text-anchor="start" x="361.35" y="-907.5" font-family="Helvetica,sans-Serif" font-size="10.00">&lt; Derived &gt;</text>
<text text-anchor="start" x="389.85" y="-892.5" font-family="Helvetica,sans-Serif" font-size="10.00"> </text>
<text text-anchor="start" x="337.85" y="-877.5" font-family="Helvetica,sans-Serif" font-size="10.00">+</text>
<text text-anchor="start" x="353.85" y="-877.5" font-family="Helvetica,sans-Serif" font-size="10.00">compute()</text>
<text text-anchor="start" x="337.85" y="-862.5" font-family="Helvetica,sans-Serif" font-size="10.00">+</text>
<text text-anchor="start" x="353.85" y="-862.5" font-family="Helvetica,sans-Serif" font-size="10.00">compute()</text>
<text text-anchor="start" x="337.85" y="-847.5" font-family="Helvetica,sans-Serif" font-size="10.00">+</text>
<text text-anchor="start" x="353.85" y="-847.5" font-family="Helvetica,sans-Serif" font-size="10.00">computeWithIds()</text>
<text text-anchor="start" x="337.85" y="-832.5" font-family="Helvetica,sans-Serif" font-size="10.00">#</text>
<text text-anchor="start" x="353.85" y="-832.5" font-family="Helvetica,sans-Serif" font-size="10.00">derived()</text>
<polygon fill="#666666" stroke="#666666" points="330.85,-902.5 330.85,-902.5 452.85,-902.5 452.85,-902.5 330.85,-902.5"/>
<polygon fill="#666666" stroke="#666666" points="330.85,-887.5 330.85,-887.5 452.85,-887.5 452.85,-887.5 330.85,-887.5"/>
<polygon fill="none" stroke="#666666" points="330.85,-826 330.85,-931 452.85,-931 452.85,-826 330.85,-826"/>
</a>
</g>
</g>
<!-- Node2 -->
<g id="Node000002" class="node">
<title>Node2</title>
<g id="a_Node000002"><a xlink:href="structPonca_1_1BasketComputeObject.html" target="_top" xlink:title=" ">
<polygon fill="white" stroke="transparent" points="183.35,-210.5 22.35,-210.5 22.35,-113.5 183.35,-113.5 183.35,-210.5"/>
<text text-anchor="start" x="27.85" y="-198" font-family="Helvetica,sans-Serif" font-size="10.00">Ponca::BasketComputeObject</text>
<text text-anchor="start" x="27.85" y="-187" font-family="Helvetica,sans-Serif" font-size="10.00">&lt; Basket&lt; P, NF, Ext0, Exts...</text>
<text text-anchor="start" x="27.85" y="-176" font-family="Helvetica,sans-Serif" font-size="10.00"> &gt;, internal::BasketAggregate</text>
<text text-anchor="start" x="27.85" y="-165" font-family="Helvetica,sans-Serif" font-size="10.00">&lt; P, NF, Ext0, Exts... &gt;::type &gt;</text>
<text text-anchor="start" x="101.35" y="-150" font-family="Helvetica,sans-Serif" font-size="10.00"> </text>
<text text-anchor="start" x="39.85" y="-135" font-family="Helvetica,sans-Serif" font-size="10.00">+</text>
<text text-anchor="start" x="65.85" y="-135" font-family="Helvetica,sans-Serif" font-size="10.00">compute()</text>
<text text-anchor="start" x="39.85" y="-120" font-family="Helvetica,sans-Serif" font-size="10.00">+</text>
<text text-anchor="start" x="65.85" y="-120" font-family="Helvetica,sans-Serif" font-size="10.00">computeWithIds()</text>
<polygon fill="#666666" stroke="#666666" points="22.85,-160 22.85,-160 183.85,-160 183.85,-160 22.85,-160"/>
<polygon fill="#666666" stroke="#666666" points="22.85,-145 22.85,-145 183.85,-145 183.85,-145 22.85,-145"/>
<polygon fill="none" stroke="#666666" points="22.35,-113.5 22.35,-210.5 183.35,-210.5 183.35,-113.5 22.35,-113.5"/>
</a>
</g>
</g>
<!-- Node1&#45;&gt;Node2 -->
<g id="edge1_Node000001_Node000002" class="edge">
<title>Node1&#45;&gt;Node2</title>
<g id="a_edge1_Node000001_Node000002"><a xlink:title=" ">
<path fill="none" stroke="#63b8ff" d="M320.44,-876.66C242.17,-871.44 119.88,-849.7 60.85,-768 -63.24,-596.25 33.73,-320.64 80.88,-210.61"/>
<polygon fill="none" stroke="#63b8ff" points="320.52,-880.17 330.71,-877.27 320.93,-873.19 320.52,-880.17"/>
</a>
</g>
</g>
<!-- Node4 -->
<g id="Node000004" class="node">
<title>Node4</title>
<g id="a_Node000004"><a xlink:href="structPonca_1_1BasketComputeObject.html" target="_top" xlink:title=" ">
<polygon fill="white" stroke="transparent" points="423.35,-216 236.35,-216 236.35,-108 423.35,-108 423.35,-216"/>
<text text-anchor="start" x="241.85" y="-204" font-family="Helvetica,sans-Serif" font-size="10.00">Ponca::BasketComputeObject</text>
<text text-anchor="start" x="241.85" y="-193" font-family="Helvetica,sans-Serif" font-size="10.00">&lt; BasketDiff&lt; BasketType,</text>
<text text-anchor="start" x="241.85" y="-182" font-family="Helvetica,sans-Serif" font-size="10.00"> Type, Ext0, Exts... &gt;, internal</text>
<text text-anchor="start" x="241.85" y="-171" font-family="Helvetica,sans-Serif" font-size="10.00">::BasketDiffAggregate&lt; BasketType,</text>
<text text-anchor="start" x="260.35" y="-160" font-family="Helvetica,sans-Serif" font-size="10.00"> Type, Ext0, Exts... &gt;::type &gt;</text>
<text text-anchor="start" x="328.35" y="-145" font-family="Helvetica,sans-Serif" font-size="10.00"> </text>
<text text-anchor="start" x="260.35" y="-130" font-family="Helvetica,sans-Serif" font-size="10.00">+</text>
<text text-anchor="start" x="292.85" y="-130" font-family="Helvetica,sans-Serif" font-size="10.00">compute()</text>
<text text-anchor="start" x="260.35" y="-115" font-family="Helvetica,sans-Serif" font-size="10.00">+</text>
<text text-anchor="start" x="292.85" y="-115" font-family="Helvetica,sans-Serif" font-size="10.00">computeWithIds()</text>
<polygon fill="#666666" stroke="#666666" points="236.85,-155 236.85,-155 423.85,-155 423.85,-155 236.85,-155"/>
<polygon fill="#666666" stroke="#666666" points="236.85,-140 236.85,-140 423.85,-140 423.85,-140 236.85,-140"/>
<polygon fill="none" stroke="#666666" points="236.35,-108 236.35,-216 423.35,-216 423.35,-108 236.35,-108"/>
</a>
</g>
</g>
<!-- Node1&#45;&gt;Node4 -->
<g id="edge3_Node000001_Node000004" class="edge">
<title>Node1&#45;&gt;Node4</title>
<g id="a_edge3_Node000001_Node000004"><a xlink:title=" ">
<path fill="none" stroke="#63b8ff" d="M461.9,-850.85C480.08,-840.37 497.46,-826.34 507.85,-808 550.47,-732.78 511.06,-505.06 502.85,-419 494.92,-335.86 519.66,-301.04 469.85,-234 457.91,-217.92 441.28,-205.22 423.64,-195.29"/>
<polygon fill="none" stroke="#63b8ff" points="460.06,-847.87 452.94,-855.71 463.4,-854.02 460.06,-847.87"/>
</a>
</g>
</g>
<!-- Node6 -->
<g id="Node000006" class="node">
<title>Node6</title>
<g id="a_Node000006"><a xlink:href="classPonca_1_1CNC.html" target="_top" xlink:title="Corrected Normal Current Fit type.">
<polygon fill="white" stroke="transparent" points="353.85,-768 209.85,-768 209.85,-419 353.85,-419 353.85,-768"/>
<text text-anchor="start" x="214.85" y="-755.5" font-family="Helvetica,sans-Serif" font-size="10.00">Ponca::CNC&lt; P, _method &gt;</text>
<text text-anchor="start" x="221.35" y="-740.5" font-family="Helvetica,sans-Serif" font-size="10.00">#</text>
<text text-anchor="start" x="241.85" y="-740.5" font-family="Helvetica,sans-Serif" font-size="10.00">m_nFilter</text>
<text text-anchor="start" x="221.35" y="-725.5" font-family="Helvetica,sans-Serif" font-size="10.00">#</text>
<text text-anchor="start" x="241.85" y="-725.5" font-family="Helvetica,sans-Serif" font-size="10.00">m_nb_vt</text>
<text text-anchor="start" x="221.35" y="-710.5" font-family="Helvetica,sans-Serif" font-size="10.00">#</text>
<text text-anchor="start" x="241.85" y="-710.5" font-family="Helvetica,sans-Serif" font-size="10.00">m_triangles</text>
<text text-anchor="start" x="221.35" y="-695.5" font-family="Helvetica,sans-Serif" font-size="10.00">#</text>
<text text-anchor="start" x="241.85" y="-695.5" font-family="Helvetica,sans-Serif" font-size="10.00">m_A</text>
<text text-anchor="start" x="221.35" y="-680.5" font-family="Helvetica,sans-Serif" font-size="10.00">#</text>
<text text-anchor="start" x="241.85" y="-680.5" font-family="Helvetica,sans-Serif" font-size="10.00">m_H</text>
<text text-anchor="start" x="221.35" y="-665.5" font-family="Helvetica,sans-Serif" font-size="10.00">#</text>
<text text-anchor="start" x="241.85" y="-665.5" font-family="Helvetica,sans-Serif" font-size="10.00">m_G</text>
<text text-anchor="start" x="221.35" y="-650.5" font-family="Helvetica,sans-Serif" font-size="10.00">#</text>
<text text-anchor="start" x="241.85" y="-650.5" font-family="Helvetica,sans-Serif" font-size="10.00">m_T11</text>
<text text-anchor="start" x="221.35" y="-635.5" font-family="Helvetica,sans-Serif" font-size="10.00">#</text>
<text text-anchor="start" x="241.85" y="-635.5" font-family="Helvetica,sans-Serif" font-size="10.00">m_T12</text>
<text text-anchor="start" x="221.35" y="-620.5" font-family="Helvetica,sans-Serif" font-size="10.00">#</text>
<text text-anchor="start" x="241.85" y="-620.5" font-family="Helvetica,sans-Serif" font-size="10.00">m_T13</text>
<text text-anchor="start" x="221.35" y="-605.5" font-family="Helvetica,sans-Serif" font-size="10.00">#</text>
<text text-anchor="start" x="241.85" y="-605.5" font-family="Helvetica,sans-Serif" font-size="10.00">m_T22</text>
<text text-anchor="start" x="241.85" y="-590.5" font-family="Helvetica,sans-Serif" font-size="10.00">and 7 more...</text>
<text text-anchor="start" x="221.35" y="-575.5" font-family="Helvetica,sans-Serif" font-size="10.00">+</text>
<text text-anchor="start" x="241.85" y="-575.5" font-family="Helvetica,sans-Serif" font-size="10.00">finalize()</text>
<text text-anchor="start" x="221.35" y="-560.5" font-family="Helvetica,sans-Serif" font-size="10.00">+</text>
<text text-anchor="start" x="241.85" y="-560.5" font-family="Helvetica,sans-Serif" font-size="10.00">init()</text>
<text text-anchor="start" x="221.35" y="-545.5" font-family="Helvetica,sans-Serif" font-size="10.00">+</text>
<text text-anchor="start" x="241.85" y="-545.5" font-family="Helvetica,sans-Serif" font-size="10.00">compute()</text>
<text text-anchor="start" x="221.35" y="-530.5" font-family="Helvetica,sans-Serif" font-size="10.00">+</text>
<text text-anchor="start" x="241.85" y="-530.5" font-family="Helvetica,sans-Serif" font-size="10.00">computeWithIds()</text>
<text text-anchor="start" x="221.35" y="-515.5" font-family="Helvetica,sans-Serif" font-size="10.00">+</text>
<text text-anchor="start" x="241.85" y="-515.5" font-family="Helvetica,sans-Serif" font-size="10.00">getNumTriangles()</text>
<text text-anchor="start" x="221.35" y="-500.5" font-family="Helvetica,sans-Serif" font-size="10.00">+</text>
<text text-anchor="start" x="241.85" y="-500.5" font-family="Helvetica,sans-Serif" font-size="10.00">setNeighborFilter()</text>
<text text-anchor="start" x="221.35" y="-485.5" font-family="Helvetica,sans-Serif" font-size="10.00">+</text>
<text text-anchor="start" x="241.85" y="-485.5" font-family="Helvetica,sans-Serif" font-size="10.00">getTriangles()</text>
<text text-anchor="start" x="221.35" y="-470.5" font-family="Helvetica,sans-Serif" font-size="10.00">+</text>
<text text-anchor="start" x="241.85" y="-470.5" font-family="Helvetica,sans-Serif" font-size="10.00">operator==()</text>
<text text-anchor="start" x="221.35" y="-455.5" font-family="Helvetica,sans-Serif" font-size="10.00">+</text>
<text text-anchor="start" x="241.85" y="-455.5" font-family="Helvetica,sans-Serif" font-size="10.00">operator!=()</text>
<text text-anchor="start" x="221.35" y="-440.5" font-family="Helvetica,sans-Serif" font-size="10.00">+</text>
<text text-anchor="start" x="241.85" y="-440.5" font-family="Helvetica,sans-Serif" font-size="10.00">isApprox()</text>
<text text-anchor="start" x="241.85" y="-425.5" font-family="Helvetica,sans-Serif" font-size="10.00">and 7 more...</text>
<polygon fill="#666666" stroke="#666666" points="209.85,-750.5 209.85,-750.5 353.85,-750.5 353.85,-750.5 209.85,-750.5"/>
<polygon fill="#666666" stroke="#666666" points="209.85,-585.5 209.85,-585.5 239.85,-585.5 239.85,-585.5 209.85,-585.5"/>
<polygon fill="#666666" stroke="#666666" points="239.85,-585.5 239.85,-585.5 353.85,-585.5 353.85,-585.5 239.85,-585.5"/>
<polygon fill="none" stroke="#666666" points="209.85,-419 209.85,-768 353.85,-768 353.85,-419 209.85,-419"/>
</a>
</g>
</g>
<!-- Node1&#45;&gt;Node6 -->
<g id="edge5_Node000001_Node000006" class="edge">
<title>Node1&#45;&gt;Node6</title>
<g id="a_edge5_Node000001_Node000006"><a xlink:title=" ">
<path fill="none" stroke="#8b1a1a" d="M368.14,-816.5C362.41,-801.75 356,-785.26 349.33,-768.1"/>
<polygon fill="none" stroke="#8b1a1a" points="364.92,-817.87 371.8,-825.92 371.44,-815.33 364.92,-817.87"/>
</a>
</g>
</g>
<!-- Node7 -->
<g id="Node000007" class="node">
<title>Node7</title>
<g id="a_Node000007"><a xlink:href="structPonca_1_1ComputeObject.html" target="_top" xlink:title=" ">
<polygon fill="white" stroke="transparent" points="493.85,-651.5 371.85,-651.5 371.85,-535.5 493.85,-535.5 493.85,-651.5"/>
<text text-anchor="start" x="376.85" y="-639.5" font-family="Helvetica,sans-Serif" font-size="10.00">Ponca::ComputeObject</text>
<text text-anchor="start" x="376.85" y="-628.5" font-family="Helvetica,sans-Serif" font-size="10.00">&lt; Basket&lt; P, NF, Ext0,</text>
<text text-anchor="start" x="404.85" y="-617.5" font-family="Helvetica,sans-Serif" font-size="10.00"> Exts... &gt; &gt;</text>
<text text-anchor="start" x="430.85" y="-602.5" font-family="Helvetica,sans-Serif" font-size="10.00"> </text>
<text text-anchor="start" x="378.85" y="-587.5" font-family="Helvetica,sans-Serif" font-size="10.00">+</text>
<text text-anchor="start" x="394.85" y="-587.5" font-family="Helvetica,sans-Serif" font-size="10.00">compute()</text>
<text text-anchor="start" x="378.85" y="-572.5" font-family="Helvetica,sans-Serif" font-size="10.00">+</text>
<text text-anchor="start" x="394.85" y="-572.5" font-family="Helvetica,sans-Serif" font-size="10.00">compute()</text>
<text text-anchor="start" x="378.85" y="-557.5" font-family="Helvetica,sans-Serif" font-size="10.00">+</text>
<text text-anchor="start" x="394.85" y="-557.5" font-family="Helvetica,sans-Serif" font-size="10.00">computeWithIds()</text>
<text text-anchor="start" x="378.85" y="-542.5" font-family="Helvetica,sans-Serif" font-size="10.00">#</text>
<text text-anchor="start" x="394.85" y="-542.5" font-family="Helvetica,sans-Serif" font-size="10.00">derived()</text>
<polygon fill="#666666" stroke="#666666" points="371.85,-612.5 371.85,-612.5 493.85,-612.5 493.85,-612.5 371.85,-612.5"/>
<polygon fill="#666666" stroke="#666666" points="371.85,-597.5 371.85,-597.5 493.85,-597.5 493.85,-597.5 371.85,-597.5"/>
<polygon fill="none" stroke="#666666" points="371.85,-535.5 371.85,-651.5 493.85,-651.5 493.85,-535.5 371.85,-535.5"/>
</a>
</g>
</g>
<!-- Node1&#45;&gt;Node7 -->
<g id="edge6_Node000001_Node000007" class="edge">
<title>Node1&#45;&gt;Node7</title>
<g id="a_edge6_Node000001_Node000007"><a xlink:title=" ">
<path fill="none" stroke="orange" d="M390.9,-815.44C391.22,-805.58 391.82,-795.49 392.85,-786 397.81,-740.42 408.67,-689.66 417.82,-651.85"/>
<polygon fill="orange" stroke="orange" points="387.39,-815.54 390.66,-825.62 394.39,-815.7 387.39,-815.54"/>
</a>
</g>
<text text-anchor="start" x="392.85" y="-800" font-family="Helvetica,sans-Serif" font-size="10.00" fill="grey"> &lt; Basket&lt; P, NF, Ext0,</text>
<text text-anchor="middle" x="450.35" y="-789" font-family="Helvetica,sans-Serif" font-size="10.00" fill="grey"> Exts... &gt; &gt;</text>
</g>
<!-- Node8 -->
<g id="Node000008" class="node">
<title>Node8</title>
<g id="a_Node000008"><a xlink:href="structPonca_1_1ComputeObject.html" target="_top" xlink:title=" ">
<polygon fill="white" stroke="transparent" points="191.85,-646 69.85,-646 69.85,-541 191.85,-541 191.85,-646"/>
<text text-anchor="start" x="74.85" y="-633.5" font-family="Helvetica,sans-Serif" font-size="10.00">Ponca::ComputeObject</text>
<text text-anchor="start" x="97.35" y="-622.5" font-family="Helvetica,sans-Serif" font-size="10.00">&lt; _Derived &gt;</text>
<text text-anchor="start" x="128.85" y="-607.5" font-family="Helvetica,sans-Serif" font-size="10.00"> </text>
<text text-anchor="start" x="76.85" y="-592.5" font-family="Helvetica,sans-Serif" font-size="10.00">+</text>
<text text-anchor="start" x="92.85" y="-592.5" font-family="Helvetica,sans-Serif" font-size="10.00">compute()</text>
<text text-anchor="start" x="76.85" y="-577.5" font-family="Helvetica,sans-Serif" font-size="10.00">+</text>
<text text-anchor="start" x="92.85" y="-577.5" font-family="Helvetica,sans-Serif" font-size="10.00">compute()</text>
<text text-anchor="start" x="76.85" y="-562.5" font-family="Helvetica,sans-Serif" font-size="10.00">+</text>
<text text-anchor="start" x="92.85" y="-562.5" font-family="Helvetica,sans-Serif" font-size="10.00">computeWithIds()</text>
<text text-anchor="start" x="76.85" y="-547.5" font-family="Helvetica,sans-Serif" font-size="10.00">#</text>
<text text-anchor="start" x="92.85" y="-547.5" font-family="Helvetica,sans-Serif" font-size="10.00">derived()</text>
<polygon fill="#666666" stroke="#666666" points="69.85,-617.5 69.85,-617.5 191.85,-617.5 191.85,-617.5 69.85,-617.5"/>
<polygon fill="#666666" stroke="#666666" points="69.85,-602.5 69.85,-602.5 191.85,-602.5 191.85,-602.5 69.85,-602.5"/>
<polygon fill="none" stroke="#666666" points="69.85,-541 69.85,-646 191.85,-646 191.85,-541 69.85,-541"/>
</a>
</g>
</g>
<!-- Node1&#45;&gt;Node8 -->
<g id="edge7_Node000001_Node000008" class="edge">
<title>Node1&#45;&gt;Node8</title>
<g id="a_edge7_Node000001_Node000008"><a xlink:title=" ">
<path fill="none" stroke="orange" d="M321.35,-850.82C281.46,-832.67 233.24,-805.16 200.85,-768 170.55,-733.23 152.33,-683.65 142.1,-646.39"/>
<polygon fill="orange" stroke="orange" points="319.95,-854.02 330.51,-854.89 322.79,-847.63 319.95,-854.02"/>
</a>
</g>
<text text-anchor="middle" x="280.85" y="-794.5" font-family="Helvetica,sans-Serif" font-size="10.00" fill="grey"> &lt; _Derived &gt;</text>
</g>
<!-- Node10 -->
<g id="Node000010" class="node">
<title>Node10</title>
<g id="a_Node000010"><a xlink:href="structPonca_1_1ComputeObject.html" target="_top" xlink:title=" ">
<polygon fill="white" stroke="transparent" points="691.85,-651.5 549.85,-651.5 549.85,-535.5 691.85,-535.5 691.85,-651.5"/>
<text text-anchor="start" x="554.85" y="-639.5" font-family="Helvetica,sans-Serif" font-size="10.00">Ponca::ComputeObject</text>
<text text-anchor="start" x="554.85" y="-628.5" font-family="Helvetica,sans-Serif" font-size="10.00">&lt; BasketDiff&lt; BasketType,</text>
<text text-anchor="start" x="564.85" y="-617.5" font-family="Helvetica,sans-Serif" font-size="10.00"> Type, Ext0, Exts... &gt; &gt;</text>
<text text-anchor="start" x="618.85" y="-602.5" font-family="Helvetica,sans-Serif" font-size="10.00"> </text>
<text text-anchor="start" x="561.85" y="-587.5" font-family="Helvetica,sans-Serif" font-size="10.00">+</text>
<text text-anchor="start" x="582.85" y="-587.5" font-family="Helvetica,sans-Serif" font-size="10.00">compute()</text>
<text text-anchor="start" x="561.85" y="-572.5" font-family="Helvetica,sans-Serif" font-size="10.00">+</text>
<text text-anchor="start" x="582.85" y="-572.5" font-family="Helvetica,sans-Serif" font-size="10.00">compute()</text>
<text text-anchor="start" x="561.85" y="-557.5" font-family="Helvetica,sans-Serif" font-size="10.00">+</text>
<text text-anchor="start" x="582.85" y="-557.5" font-family="Helvetica,sans-Serif" font-size="10.00">computeWithIds()</text>
<text text-anchor="start" x="561.85" y="-542.5" font-family="Helvetica,sans-Serif" font-size="10.00">#</text>
<text text-anchor="start" x="582.85" y="-542.5" font-family="Helvetica,sans-Serif" font-size="10.00">derived()</text>
<polygon fill="#666666" stroke="#666666" points="549.85,-612.5 549.85,-612.5 691.85,-612.5 691.85,-612.5 549.85,-612.5"/>
<polygon fill="#666666" stroke="#666666" points="549.85,-597.5 549.85,-597.5 691.85,-597.5 691.85,-597.5 549.85,-597.5"/>
<polygon fill="none" stroke="#666666" points="549.85,-535.5 549.85,-651.5 691.85,-651.5 691.85,-535.5 549.85,-535.5"/>
</a>
</g>
</g>
<!-- Node1&#45;&gt;Node10 -->
<g id="edge11_Node000001_Node000010" class="edge">
<title>Node1&#45;&gt;Node10</title>
<g id="a_edge11_Node000001_Node000010"><a xlink:title=" ">
<path fill="none" stroke="orange" d="M462.57,-855.63C488.37,-844.75 516.05,-829.26 535.85,-808 576.51,-764.36 598.67,-698.88 610.07,-651.95"/>
<polygon fill="orange" stroke="orange" points="461.13,-852.44 453.17,-859.44 463.75,-858.93 461.13,-852.44"/>
</a>
</g>
<text text-anchor="start" x="551.85" y="-800" font-family="Helvetica,sans-Serif" font-size="10.00" fill="grey"> &lt; BasketDiff&lt; BasketType,</text>
<text text-anchor="middle" x="619.35" y="-789" font-family="Helvetica,sans-Serif" font-size="10.00" fill="grey"> Type, Ext0, Exts... &gt; &gt;</text>
</g>
<!-- Node11 -->
<g id="Node000011" class="node">
<title>Node11</title>
<g id="a_Node000011"><a xlink:href="structPonca_1_1ComputeObject.html" target="_top" xlink:title=" ">
<polygon fill="white" stroke="transparent" points="891.85,-646 709.85,-646 709.85,-541 891.85,-541 891.85,-646"/>
<text text-anchor="start" x="714.85" y="-633.5" font-family="Helvetica,sans-Serif" font-size="10.00">Ponca::ComputeObject</text>
<text text-anchor="start" x="714.85" y="-622.5" font-family="Helvetica,sans-Serif" font-size="10.00">&lt; CNC&lt; P, UniformGeneration &gt; &gt;</text>
<text text-anchor="start" x="798.85" y="-607.5" font-family="Helvetica,sans-Serif" font-size="10.00"> </text>
<text text-anchor="start" x="731.85" y="-592.5" font-family="Helvetica,sans-Serif" font-size="10.00">+</text>
<text text-anchor="start" x="762.85" y="-592.5" font-family="Helvetica,sans-Serif" font-size="10.00">compute()</text>
<text text-anchor="start" x="731.85" y="-577.5" font-family="Helvetica,sans-Serif" font-size="10.00">+</text>
<text text-anchor="start" x="762.85" y="-577.5" font-family="Helvetica,sans-Serif" font-size="10.00">compute()</text>
<text text-anchor="start" x="731.85" y="-562.5" font-family="Helvetica,sans-Serif" font-size="10.00">+</text>
<text text-anchor="start" x="762.85" y="-562.5" font-family="Helvetica,sans-Serif" font-size="10.00">computeWithIds()</text>
<text text-anchor="start" x="731.85" y="-547.5" font-family="Helvetica,sans-Serif" font-size="10.00">#</text>
<text text-anchor="start" x="762.85" y="-547.5" font-family="Helvetica,sans-Serif" font-size="10.00">derived()</text>
<polygon fill="#666666" stroke="#666666" points="709.85,-617.5 709.85,-617.5 891.85,-617.5 891.85,-617.5 709.85,-617.5"/>
<polygon fill="#666666" stroke="#666666" points="709.85,-602.5 709.85,-602.5 891.85,-602.5 891.85,-602.5 709.85,-602.5"/>
<polygon fill="none" stroke="#666666" points="709.85,-541 709.85,-646 891.85,-646 891.85,-541 709.85,-541"/>
</a>
</g>
</g>
<!-- Node1&#45;&gt;Node11 -->
<g id="edge12_Node000001_Node000011" class="edge">
<title>Node1&#45;&gt;Node11</title>
<g id="a_edge12_Node000001_Node000011"><a xlink:title=" ">
<path fill="none" stroke="orange" d="M463.17,-877.35C528.69,-873.7 625.3,-859.06 690.85,-808 742.99,-767.39 772.74,-695.22 787.83,-646.15"/>
<polygon fill="orange" stroke="orange" points="462.75,-873.87 452.93,-877.84 463.09,-880.86 462.75,-873.87"/>
</a>
</g>
<text text-anchor="middle" x="801.35" y="-794.5" font-family="Helvetica,sans-Serif" font-size="10.00" fill="grey"> &lt; CNC&lt; P, UniformGeneration &gt; &gt;</text>
</g>
<!-- Node3 -->
<g id="Node000003" class="node">
<title>Node3</title>
<g id="a_Node000003"><a xlink:href="classPonca_1_1Basket.html" target="_top" xlink:title="Aggregator class used to declare specialized structures using CRTP.">
<polygon fill="white" stroke="transparent" points="162.35,-65.5 43.35,-65.5 43.35,-5.5 162.35,-5.5 162.35,-65.5"/>
<text text-anchor="start" x="48.85" y="-53.5" font-family="Helvetica,sans-Serif" font-size="10.00">Ponca::Basket&lt; P, NF,</text>
<text text-anchor="start" x="71.35" y="-42.5" font-family="Helvetica,sans-Serif" font-size="10.00"> Ext0, Exts &gt;</text>
<text text-anchor="start" x="101.35" y="-27.5" font-family="Helvetica,sans-Serif" font-size="10.00"> </text>
<text text-anchor="start" x="54.85" y="-12.5" font-family="Helvetica,sans-Serif" font-size="10.00">+</text>
<text text-anchor="start" x="74.85" y="-12.5" font-family="Helvetica,sans-Serif" font-size="10.00">addNeighbor()</text>
<polygon fill="#666666" stroke="#666666" points="43.85,-37.5 43.85,-37.5 162.85,-37.5 162.85,-37.5 43.85,-37.5"/>
<polygon fill="#666666" stroke="#666666" points="43.85,-22.5 43.85,-22.5 162.85,-22.5 162.85,-22.5 43.85,-22.5"/>
<polygon fill="none" stroke="#666666" points="43.35,-5.5 43.35,-65.5 162.35,-65.5 162.35,-5.5 43.35,-5.5"/>
</a>
</g>
</g>
<!-- Node2&#45;&gt;Node3 -->
<g id="edge2_Node000002_Node000003" class="edge">
<title>Node2&#45;&gt;Node3</title>
<g id="a_edge2_Node000002_Node000003"><a xlink:title=" ">
<path fill="none" stroke="#63b8ff" d="M102.85,-102.93C102.85,-89.98 102.85,-76.78 102.85,-65.6"/>
<polygon fill="none" stroke="#63b8ff" points="99.35,-103.22 102.85,-113.22 106.35,-103.22 99.35,-103.22"/>
</a>
</g>
</g>
<!-- Node5 -->
<g id="Node000005" class="node">
<title>Node5</title>
<g id="a_Node000005"><a xlink:href="classPonca_1_1BasketDiff.html" target="_top" xlink:title="Aggregator class used to declare specialized structures with derivatives computations,...">
<polygon fill="white" stroke="transparent" points="393.85,-71 265.85,-71 265.85,0 393.85,0 393.85,-71"/>
<text text-anchor="start" x="270.85" y="-58.5" font-family="Helvetica,sans-Serif" font-size="10.00">Ponca::BasketDiff&lt;</text>
<text text-anchor="start" x="270.85" y="-47.5" font-family="Helvetica,sans-Serif" font-size="10.00"> BasketType, Type, Ext0,</text>
<text text-anchor="start" x="311.85" y="-36.5" font-family="Helvetica,sans-Serif" font-size="10.00"> Exts &gt;</text>
<text text-anchor="start" x="327.85" y="-21.5" font-family="Helvetica,sans-Serif" font-size="10.00"> </text>
<text text-anchor="start" x="278.85" y="-6.5" font-family="Helvetica,sans-Serif" font-size="10.00">+</text>
<text text-anchor="start" x="300.85" y="-6.5" font-family="Helvetica,sans-Serif" font-size="10.00">addNeighbor()</text>
<polygon fill="#666666" stroke="#666666" points="265.85,-31.5 265.85,-31.5 393.85,-31.5 393.85,-31.5 265.85,-31.5"/>
<polygon fill="#666666" stroke="#666666" points="265.85,-16.5 265.85,-16.5 393.85,-16.5 393.85,-16.5 265.85,-16.5"/>
<polygon fill="none" stroke="#666666" points="265.85,0 265.85,-71 393.85,-71 393.85,0 265.85,0"/>
</a>
</g>
</g>
<!-- Node4&#45;&gt;Node5 -->
<g id="edge4_Node000004_Node000005" class="edge">
<title>Node4&#45;&gt;Node5</title>
<g id="a_edge4_Node000004_Node000005"><a xlink:title=" ">
<path fill="none" stroke="#63b8ff" d="M329.85,-97.58C329.85,-88.46 329.85,-79.39 329.85,-71.12"/>
<polygon fill="none" stroke="#63b8ff" points="326.35,-97.84 329.85,-107.84 333.35,-97.84 326.35,-97.84"/>
</a>
</g>
</g>
<!-- Node9 -->
<g id="Node000009" class="node">
<title>Node9</title>
<g id="a_Node000009"><a xlink:href="structPonca_1_1BasketComputeObject.html" target="_top" xlink:title="Base ComputeObject for the Basket classes.">
<polygon fill="white" stroke="transparent" points="225.35,-382 70.35,-382 70.35,-307 225.35,-307 225.35,-382"/>
<text text-anchor="start" x="75.85" y="-369.5" font-family="Helvetica,sans-Serif" font-size="10.00">Ponca::BasketComputeObject</text>
<text text-anchor="start" x="97.35" y="-358.5" font-family="Helvetica,sans-Serif" font-size="10.00">&lt; _Derived, _Base &gt;</text>
<text text-anchor="start" x="146.35" y="-343.5" font-family="Helvetica,sans-Serif" font-size="10.00"> </text>
<text text-anchor="start" x="86.35" y="-328.5" font-family="Helvetica,sans-Serif" font-size="10.00">+</text>
<text text-anchor="start" x="110.85" y="-328.5" font-family="Helvetica,sans-Serif" font-size="10.00">compute()</text>
<text text-anchor="start" x="86.35" y="-313.5" font-family="Helvetica,sans-Serif" font-size="10.00">+</text>
<text text-anchor="start" x="110.85" y="-313.5" font-family="Helvetica,sans-Serif" font-size="10.00">computeWithIds()</text>
<polygon fill="#666666" stroke="#666666" points="70.85,-353.5 70.85,-353.5 225.85,-353.5 225.85,-353.5 70.85,-353.5"/>
<polygon fill="#666666" stroke="#666666" points="70.85,-338.5 70.85,-338.5 225.85,-338.5 225.85,-338.5 70.85,-338.5"/>
<polygon fill="none" stroke="#666666" points="70.35,-307 70.35,-382 225.35,-382 225.35,-307 70.35,-307"/>
</a>
</g>
</g>
<!-- Node8&#45;&gt;Node9 -->
<g id="edge8_Node000008_Node000009" class="edge">
<title>Node8&#45;&gt;Node9</title>
<g id="a_edge8_Node000008_Node000009"><a xlink:title=" ">
<path fill="none" stroke="#63b8ff" d="M135.1,-530.72C138.32,-484.03 142.62,-421.51 145.31,-382.37"/>
<polygon fill="none" stroke="#63b8ff" points="131.61,-530.5 134.42,-540.72 138.59,-530.98 131.61,-530.5"/>
</a>
</g>
</g>
<!-- Node9&#45;&gt;Node2 -->
<g id="edge9_Node000009_Node000002" class="edge">
<title>Node9&#45;&gt;Node2</title>
<g id="a_edge9_Node000009_Node000002"><a xlink:title=" ">
<path fill="none" stroke="orange" d="M136.3,-297.17C129.7,-270.68 121.43,-237.51 114.76,-210.78"/>
<polygon fill="orange" stroke="orange" points="132.93,-298.12 138.75,-306.97 139.72,-296.42 132.93,-298.12"/>
</a>
</g>
<text text-anchor="start" x="133.85" y="-275.5" font-family="Helvetica,sans-Serif" font-size="10.00" fill="grey"> &lt; Basket&lt; P, NF, Ext0,</text>
<text text-anchor="start" x="133.85" y="-264.5" font-family="Helvetica,sans-Serif" font-size="10.00" fill="grey"> Exts... &gt;, internal</text>
<text text-anchor="start" x="133.85" y="-253.5" font-family="Helvetica,sans-Serif" font-size="10.00" fill="grey">::BasketAggregate&lt; P,</text>
<text text-anchor="middle" x="199.35" y="-242.5" font-family="Helvetica,sans-Serif" font-size="10.00" fill="grey"> NF, Ext0, Exts... &gt;::type &gt;</text>
</g>
<!-- Node9&#45;&gt;Node4 -->
<g id="edge10_Node000009_Node000004" class="edge">
<title>Node9&#45;&gt;Node4</title>
<g id="a_edge10_Node000009_Node000004"><a xlink:title=" ">
<path fill="none" stroke="orange" d="M234.63,-313.51C247.05,-306.74 258.95,-298.63 268.85,-289 289.32,-269.09 303.85,-240.91 313.58,-216.25"/>
<polygon fill="orange" stroke="orange" points="232.81,-310.52 225.52,-318.21 236.01,-316.74 232.81,-310.52"/>
</a>
</g>
<text text-anchor="start" x="305.85" y="-281" font-family="Helvetica,sans-Serif" font-size="10.00" fill="grey"> &lt; BasketDiff&lt; BasketType,</text>
<text text-anchor="start" x="305.85" y="-270" font-family="Helvetica,sans-Serif" font-size="10.00" fill="grey"> Type, Ext0, Exts... &gt;,</text>
<text text-anchor="start" x="305.85" y="-259" font-family="Helvetica,sans-Serif" font-size="10.00" fill="grey"> internal::BasketDiffAggregate</text>
<text text-anchor="start" x="305.85" y="-248" font-family="Helvetica,sans-Serif" font-size="10.00" fill="grey">&lt; BasketType, Type, Ext0, Exts...</text>
<text text-anchor="middle" x="385.85" y="-237" font-family="Helvetica,sans-Serif" font-size="10.00" fill="grey"> &gt;::type &gt;</text>
</g>
</g>
</svg>
