<?xml version="1.0" encoding="UTF-8" standalone="no"?>
<!DOCTYPE svg PUBLIC "-//W3C//DTD SVG 1.1//EN"
 "http://www.w3.org/Graphics/SVG/1.1/DTD/svg11.dtd">
<!-- Generated by graphviz version 2.43.0 (0)
 -->
<!-- Title: Ponca::QueryOutputIsNearest&lt; Index, Scalar &gt; Pages: 1 -->
<svg width="752pt" height="985pt"
 viewBox="0.00 0.00 752.00 985.00" xmlns="http://www.w3.org/2000/svg" xmlns:xlink="http://www.w3.org/1999/xlink">
<g id="graph0" class="graph" transform="scale(1 1) rotate(0) translate(4 981)">
<title>Ponca::QueryOutputIsNearest&lt; Index, Scalar &gt;</title>
<!-- Node1 -->
<g id="node1" class="node">
<title>Node1</title>
<g id="a_node1"><a xlink:title="Base class for nearest queries.">
<polygon fill="#999999" stroke="#666666" points="278.5,-780.5 278.5,-881.5 439.5,-881.5 439.5,-780.5 278.5,-780.5"/>
<text text-anchor="start" x="286.5" y="-869.5" font-family="Helvetica,sans-Serif" font-size="10.00">Ponca::QueryOutputIsNearest</text>
<text text-anchor="middle" x="359" y="-858.5" font-family="Helvetica,sans-Serif" font-size="10.00">&lt; Index, Scalar &gt;</text>
<polyline fill="none" stroke="#666666" points="278.5,-851.5 439.5,-851.5 "/>
<text text-anchor="start" x="286.5" y="-839.5" font-family="Helvetica,sans-Serif" font-size="10.00"># m_nearest</text>
<text text-anchor="start" x="286.5" y="-828.5" font-family="Helvetica,sans-Serif" font-size="10.00"># m_squared_distance</text>
<polyline fill="none" stroke="#666666" points="278.5,-821.5 439.5,-821.5 "/>
<text text-anchor="start" x="286.5" y="-809.5" font-family="Helvetica,sans-Serif" font-size="10.00">+ QueryOutputIsNearest()</text>
<text text-anchor="start" x="286.5" y="-798.5" font-family="Helvetica,sans-Serif" font-size="10.00">+ get()</text>
<text text-anchor="start" x="286.5" y="-787.5" font-family="Helvetica,sans-Serif" font-size="10.00"># reset()</text>
</a>
</g>
</g>
<!-- Node3 -->
<g id="node3" class="node">
<title>Node3</title>
<g id="a_node3"><a xlink:href="group__spatialpartitioning.html" target="_top" xlink:title=" ">
<polygon fill="white" stroke="#bfbfbf" points="0,-609.5 0,-699.5 170,-699.5 170,-609.5 0,-609.5"/>
<text text-anchor="start" x="8" y="-687.5" font-family="Helvetica,sans-Serif" font-size="10.00">Ponca::Query&lt; QueryInput</text>
<text text-anchor="start" x="8" y="-676.5" font-family="Helvetica,sans-Serif" font-size="10.00">IsIndex&lt; Index &gt;, QueryOutput</text>
<text text-anchor="middle" x="85" y="-665.5" font-family="Helvetica,sans-Serif" font-size="10.00">IsNearest&lt; Index, Scalar &gt; &gt;</text>
<polyline fill="none" stroke="#bfbfbf" points="0,-658.5 170,-658.5 "/>
<text text-anchor="middle" x="85" y="-646.5" font-family="Helvetica,sans-Serif" font-size="10.00"> </text>
<polyline fill="none" stroke="#bfbfbf" points="0,-639.5 170,-639.5 "/>
<text text-anchor="start" x="8" y="-627.5" font-family="Helvetica,sans-Serif" font-size="10.00">+ Query()</text>
<text text-anchor="start" x="8" y="-616.5" font-family="Helvetica,sans-Serif" font-size="10.00">+ Query()</text>
</a>
</g>
</g>
<!-- Node1&#45;&gt;Node3 -->
<g id="edge2" class="edge">
<title>Node1&#45;&gt;Node3</title>
<path fill="none" stroke="#63b8ff" d="M272.65,-775.01C234.43,-750.67 190.09,-722.42 154.1,-699.51"/>
<polygon fill="none" stroke="#63b8ff" points="270.9,-778.04 281.22,-780.46 274.66,-772.14 270.9,-778.04"/>
</g>
<!-- Node7 -->
<g id="node7" class="node">
<title>Node7</title>
<g id="a_node7"><a xlink:href="group__spatialpartitioning.html" target="_top" xlink:title=" ">
<polygon fill="white" stroke="#666666" points="188.5,-598.5 188.5,-710.5 349.5,-710.5 349.5,-598.5 188.5,-598.5"/>
<text text-anchor="start" x="196.5" y="-698.5" font-family="Helvetica,sans-Serif" font-size="10.00">Ponca::QueryOutputIsNearest</text>
<text text-anchor="start" x="196.5" y="-687.5" font-family="Helvetica,sans-Serif" font-size="10.00">&lt; Traits::IndexType, Traits</text>
<text text-anchor="middle" x="269" y="-676.5" font-family="Helvetica,sans-Serif" font-size="10.00">::DataPoint::Scalar &gt;</text>
<polyline fill="none" stroke="#666666" points="188.5,-669.5 349.5,-669.5 "/>
<text text-anchor="start" x="196.5" y="-657.5" font-family="Helvetica,sans-Serif" font-size="10.00"># m_nearest</text>
<text text-anchor="start" x="196.5" y="-646.5" font-family="Helvetica,sans-Serif" font-size="10.00"># m_squared_distance</text>
<polyline fill="none" stroke="#666666" points="188.5,-639.5 349.5,-639.5 "/>
<text text-anchor="start" x="196.5" y="-627.5" font-family="Helvetica,sans-Serif" font-size="10.00">+ QueryOutputIsNearest()</text>
<text text-anchor="start" x="196.5" y="-616.5" font-family="Helvetica,sans-Serif" font-size="10.00">+ get()</text>
<text text-anchor="start" x="196.5" y="-605.5" font-family="Helvetica,sans-Serif" font-size="10.00"># reset()</text>
</a>
</g>
</g>
<!-- Node1&#45;&gt;Node7 -->
<g id="edge6" class="edge">
<title>Node1&#45;&gt;Node7</title>
<path fill="none" stroke="orange" d="M318.3,-771.39C316.45,-768.25 314.67,-765.11 313,-762 304.29,-745.79 296.15,-727.48 289.31,-710.66"/>
<polygon fill="orange" stroke="orange" points="315.47,-773.49 323.66,-780.21 321.45,-769.85 315.47,-773.49"/>
<text text-anchor="start" x="313" y="-754" font-family="Helvetica,sans-Serif" font-size="10.00"> &lt; Traits::IndexType,</text>
<text text-anchor="start" x="313" y="-743" font-family="Helvetica,sans-Serif" font-size="10.00"> Traits::DataPoint::</text>
<text text-anchor="middle" x="363" y="-732" font-family="Helvetica,sans-Serif" font-size="10.00">Scalar &gt;</text>
</g>
<!-- Node9 -->
<g id="node9" class="node">
<title>Node9</title>
<g id="a_node9"><a xlink:href="group__spatialpartitioning.html" target="_top" xlink:title=" ">
<polygon fill="white" stroke="#666666" points="368,-598.5 368,-710.5 532,-710.5 532,-598.5 368,-598.5"/>
<text text-anchor="start" x="376" y="-698.5" font-family="Helvetica,sans-Serif" font-size="10.00">Ponca::QueryOutputIsNearest</text>
<text text-anchor="start" x="376" y="-687.5" font-family="Helvetica,sans-Serif" font-size="10.00">&lt; Traits::IndexType, DataPoint</text>
<text text-anchor="middle" x="450" y="-676.5" font-family="Helvetica,sans-Serif" font-size="10.00">::Scalar &gt;</text>
<polyline fill="none" stroke="#666666" points="368,-669.5 532,-669.5 "/>
<text text-anchor="start" x="376" y="-657.5" font-family="Helvetica,sans-Serif" font-size="10.00"># m_nearest</text>
<text text-anchor="start" x="376" y="-646.5" font-family="Helvetica,sans-Serif" font-size="10.00"># m_squared_distance</text>
<polyline fill="none" stroke="#666666" points="368,-639.5 532,-639.5 "/>
<text text-anchor="start" x="376" y="-627.5" font-family="Helvetica,sans-Serif" font-size="10.00">+ QueryOutputIsNearest()</text>
<text text-anchor="start" x="376" y="-616.5" font-family="Helvetica,sans-Serif" font-size="10.00">+ get()</text>
<text text-anchor="start" x="376" y="-605.5" font-family="Helvetica,sans-Serif" font-size="10.00"># reset()</text>
</a>
</g>
</g>
<!-- Node1&#45;&gt;Node9 -->
<g id="edge8" class="edge">
<title>Node1&#45;&gt;Node9</title>
<path fill="none" stroke="orange" d="M407.13,-771.87C409.21,-768.6 411.19,-765.3 413,-762 421.77,-746.05 429.05,-727.63 434.77,-710.65"/>
<polygon fill="orange" stroke="orange" points="404.04,-770.19 401.38,-780.45 409.86,-774.09 404.04,-770.19"/>
<text text-anchor="start" x="428" y="-748.5" font-family="Helvetica,sans-Serif" font-size="10.00"> &lt; Traits::IndexType,</text>
<text text-anchor="middle" x="478" y="-737.5" font-family="Helvetica,sans-Serif" font-size="10.00"> DataPoint::Scalar &gt;</text>
</g>
<!-- Node11 -->
<g id="node11" class="node">
<title>Node11</title>
<g id="a_node11"><a xlink:href="group__spatialpartitioning.html" target="_top" xlink:title=" ">
<polygon fill="white" stroke="#666666" points="556.5,-604 556.5,-705 717.5,-705 717.5,-604 556.5,-604"/>
<text text-anchor="start" x="564.5" y="-693" font-family="Helvetica,sans-Serif" font-size="10.00">Ponca::QueryOutputIsNearest</text>
<text text-anchor="middle" x="637" y="-682" font-family="Helvetica,sans-Serif" font-size="10.00">&lt; Index, DataPoint::Scalar &gt;</text>
<polyline fill="none" stroke="#666666" points="556.5,-675 717.5,-675 "/>
<text text-anchor="start" x="564.5" y="-663" font-family="Helvetica,sans-Serif" font-size="10.00"># m_nearest</text>
<text text-anchor="start" x="564.5" y="-652" font-family="Helvetica,sans-Serif" font-size="10.00"># m_squared_distance</text>
<polyline fill="none" stroke="#666666" points="556.5,-645 717.5,-645 "/>
<text text-anchor="start" x="564.5" y="-633" font-family="Helvetica,sans-Serif" font-size="10.00">+ QueryOutputIsNearest()</text>
<text text-anchor="start" x="564.5" y="-622" font-family="Helvetica,sans-Serif" font-size="10.00">+ get()</text>
<text text-anchor="start" x="564.5" y="-611" font-family="Helvetica,sans-Serif" font-size="10.00"># reset()</text>
</a>
</g>
</g>
<!-- Node1&#45;&gt;Node11 -->
<g id="edge10" class="edge">
<title>Node1&#45;&gt;Node11</title>
<path fill="none" stroke="orange" d="M449.6,-802.52C477.25,-792.04 506.94,-778.54 532,-762 555.62,-746.41 578.16,-724.79 596.26,-705.1"/>
<polygon fill="orange" stroke="orange" points="448.08,-799.35 439.92,-806.11 450.51,-805.92 448.08,-799.35"/>
<text text-anchor="start" x="570" y="-748.5" font-family="Helvetica,sans-Serif" font-size="10.00"> &lt; Index, DataPoint</text>
<text text-anchor="middle" x="618" y="-737.5" font-family="Helvetica,sans-Serif" font-size="10.00">::Scalar &gt;</text>
</g>
<!-- Node2 -->
<g id="node2" class="node">
<title>Node2</title>
<g id="a_node2"><a xlink:href="group__spatialpartitioning.html#structPonca_1_1QueryOutputBase" target="_top" xlink:title="Base class for queries output type.">
<polygon fill="white" stroke="#666666" points="290,-919.5 290,-976.5 428,-976.5 428,-919.5 290,-919.5"/>
<text text-anchor="middle" x="359" y="-964.5" font-family="Helvetica,sans-Serif" font-size="10.00">Ponca::QueryOutputBase</text>
<polyline fill="none" stroke="#666666" points="290,-957.5 428,-957.5 "/>
<text text-anchor="middle" x="359" y="-945.5" font-family="Helvetica,sans-Serif" font-size="10.00"> </text>
<polyline fill="none" stroke="#666666" points="290,-938.5 428,-938.5 "/>
<text text-anchor="middle" x="359" y="-926.5" font-family="Helvetica,sans-Serif" font-size="10.00"> </text>
</a>
</g>
</g>
<!-- Node2&#45;&gt;Node1 -->
<g id="edge1" class="edge">
<title>Node2&#45;&gt;Node1</title>
<path fill="none" stroke="#63b8ff" d="M359,-909.19C359,-900.43 359,-890.99 359,-881.81"/>
<polygon fill="none" stroke="#63b8ff" points="355.5,-909.45 359,-919.45 362.5,-909.45 355.5,-909.45"/>
</g>
<!-- Node4 -->
<g id="node4" class="node">
<title>Node4</title>
<g id="a_node4"><a xlink:href="group__spatialpartitioning.html#structPonca_1_1NearestIndexQuery" target="_top" xlink:title="Base Query class combining QueryInputIsIndex and QueryOutputIsNearest.">
<polygon fill="white" stroke="#666666" points="12,-470.5 12,-538.5 158,-538.5 158,-470.5 12,-470.5"/>
<text text-anchor="start" x="20" y="-526.5" font-family="Helvetica,sans-Serif" font-size="10.00">Ponca::NearestIndexQuery</text>
<text text-anchor="middle" x="85" y="-515.5" font-family="Helvetica,sans-Serif" font-size="10.00">&lt; Index, Scalar &gt;</text>
<polyline fill="none" stroke="#666666" points="12,-508.5 158,-508.5 "/>
<text text-anchor="middle" x="85" y="-496.5" font-family="Helvetica,sans-Serif" font-size="10.00"> </text>
<polyline fill="none" stroke="#666666" points="12,-489.5 158,-489.5 "/>
<text text-anchor="middle" x="85" y="-477.5" font-family="Helvetica,sans-Serif" font-size="10.00"> </text>
</a>
</g>
</g>
<!-- Node3&#45;&gt;Node4 -->
<g id="edge3" class="edge">
<title>Node3&#45;&gt;Node4</title>
<path fill="none" stroke="#63b8ff" d="M85,-599.42C85,-579.1 85,-556.63 85,-538.76"/>
<polygon fill="none" stroke="#63b8ff" points="81.5,-599.5 85,-609.5 88.5,-599.5 81.5,-599.5"/>
</g>
<!-- Node5 -->
<g id="node5" class="node">
<title>Node5</title>
<g id="a_node5"><a xlink:href="group__spatialpartitioning.html" target="_top" xlink:title=" ">
<polygon fill="white" stroke="#666666" points="12,-299.5 12,-378.5 158,-378.5 158,-299.5 12,-299.5"/>
<text text-anchor="start" x="20" y="-366.5" font-family="Helvetica,sans-Serif" font-size="10.00">Ponca::NearestIndexQuery</text>
<text text-anchor="start" x="20" y="-355.5" font-family="Helvetica,sans-Serif" font-size="10.00">&lt; Traits::IndexType, Traits</text>
<text text-anchor="middle" x="85" y="-344.5" font-family="Helvetica,sans-Serif" font-size="10.00">::DataPoint::Scalar &gt;</text>
<polyline fill="none" stroke="#666666" points="12,-337.5 158,-337.5 "/>
<text text-anchor="middle" x="85" y="-325.5" font-family="Helvetica,sans-Serif" font-size="10.00"> </text>
<polyline fill="none" stroke="#666666" points="12,-318.5 158,-318.5 "/>
<text text-anchor="middle" x="85" y="-306.5" font-family="Helvetica,sans-Serif" font-size="10.00"> </text>
</a>
</g>
</g>
<!-- Node4&#45;&gt;Node5 -->
<g id="edge4" class="edge">
<title>Node4&#45;&gt;Node5</title>
<path fill="none" stroke="orange" d="M85,-460.35C85,-435.03 85,-403.31 85,-378.79"/>
<polygon fill="orange" stroke="orange" points="81.5,-460.41 85,-470.41 88.5,-460.41 81.5,-460.41"/>
<text text-anchor="start" x="85" y="-422" font-family="Helvetica,sans-Serif" font-size="10.00"> &lt; Traits::IndexType,</text>
<text text-anchor="start" x="85" y="-411" font-family="Helvetica,sans-Serif" font-size="10.00"> Traits::DataPoint::</text>
<text text-anchor="middle" x="135" y="-400" font-family="Helvetica,sans-Serif" font-size="10.00">Scalar &gt;</text>
</g>
<!-- Node6 -->
<g id="node6" class="node">
<title>Node6</title>
<g id="a_node6"><a xlink:href="classPonca_1_1KdTreeNearestIndexQuery.html" target="_top" xlink:title=" ">
<polygon fill="white" stroke="#bfbfbf" points="3.5,-139.5 3.5,-240.5 166.5,-240.5 166.5,-139.5 3.5,-139.5"/>
<text text-anchor="start" x="11.5" y="-228.5" font-family="Helvetica,sans-Serif" font-size="10.00">Ponca::KdTreeNearestIndex</text>
<text text-anchor="middle" x="85" y="-217.5" font-family="Helvetica,sans-Serif" font-size="10.00">Query&lt; Traits &gt;</text>
<polyline fill="none" stroke="#bfbfbf" points="3.5,-210.5 166.5,-210.5 "/>
<text text-anchor="middle" x="85" y="-198.5" font-family="Helvetica,sans-Serif" font-size="10.00"> </text>
<polyline fill="none" stroke="#bfbfbf" points="3.5,-191.5 166.5,-191.5 "/>
<text text-anchor="start" x="11.5" y="-179.5" font-family="Helvetica,sans-Serif" font-size="10.00">+ KdTreeNearestIndexQuery()</text>
<text text-anchor="start" x="11.5" y="-168.5" font-family="Helvetica,sans-Serif" font-size="10.00">+ begin()</text>
<text text-anchor="start" x="11.5" y="-157.5" font-family="Helvetica,sans-Serif" font-size="10.00">+ end()</text>
<text text-anchor="start" x="11.5" y="-146.5" font-family="Helvetica,sans-Serif" font-size="10.00"># search()</text>
</a>
</g>
</g>
<!-- Node5&#45;&gt;Node6 -->
<g id="edge5" class="edge">
<title>Node5&#45;&gt;Node6</title>
<path fill="none" stroke="#63b8ff" d="M85,-288.94C85,-273.43 85,-256.28 85,-240.72"/>
<polygon fill="none" stroke="#63b8ff" points="81.5,-289.38 85,-299.38 88.5,-289.38 81.5,-289.38"/>
</g>
<!-- Node8 -->
<g id="node8" class="node">
<title>Node8</title>
<g id="a_node8"><a xlink:href="group__spatialpartitioning.html" target="_top" xlink:title=" ">
<polygon fill="white" stroke="#bfbfbf" points="193,-448.5 193,-560.5 339,-560.5 339,-448.5 193,-448.5"/>
<text text-anchor="start" x="201" y="-548.5" font-family="Helvetica,sans-Serif" font-size="10.00">Ponca::Query&lt; QueryInput</text>
<text text-anchor="start" x="201" y="-537.5" font-family="Helvetica,sans-Serif" font-size="10.00">IsIndex&lt; Traits::IndexType</text>
<text text-anchor="start" x="201" y="-526.5" font-family="Helvetica,sans-Serif" font-size="10.00"> &gt;, QueryOutputIsNearest</text>
<text text-anchor="start" x="201" y="-515.5" font-family="Helvetica,sans-Serif" font-size="10.00">&lt; Traits::IndexType, Traits</text>
<text text-anchor="middle" x="266" y="-504.5" font-family="Helvetica,sans-Serif" font-size="10.00">::DataPoint::Scalar &gt; &gt;</text>
<polyline fill="none" stroke="#bfbfbf" points="193,-497.5 339,-497.5 "/>
<text text-anchor="middle" x="266" y="-485.5" font-family="Helvetica,sans-Serif" font-size="10.00"> </text>
<polyline fill="none" stroke="#bfbfbf" points="193,-478.5 339,-478.5 "/>
<text text-anchor="start" x="201" y="-466.5" font-family="Helvetica,sans-Serif" font-size="10.00">+ Query()</text>
<text text-anchor="start" x="201" y="-455.5" font-family="Helvetica,sans-Serif" font-size="10.00">+ Query()</text>
</a>
</g>
</g>
<!-- Node7&#45;&gt;Node8 -->
<g id="edge7" class="edge">
<title>Node7&#45;&gt;Node8</title>
<path fill="none" stroke="#63b8ff" d="M267.68,-588.14C267.49,-578.97 267.3,-569.61 267.12,-560.66"/>
<polygon fill="none" stroke="#63b8ff" points="264.18,-588.46 267.88,-598.39 271.18,-588.32 264.18,-588.46"/>
</g>
<!-- Node10 -->
<g id="node10" class="node">
<title>Node10</title>
<g id="a_node10"><a xlink:href="group__spatialpartitioning.html" target="_top" xlink:title=" ">
<polygon fill="white" stroke="#bfbfbf" points="357.5,-454 357.5,-555 542.5,-555 542.5,-454 357.5,-454"/>
<text text-anchor="start" x="365.5" y="-543" font-family="Helvetica,sans-Serif" font-size="10.00">Ponca::Query&lt; QueryInput</text>
<text text-anchor="start" x="365.5" y="-532" font-family="Helvetica,sans-Serif" font-size="10.00">IsPosition&lt; Traits::DataPoint</text>
<text text-anchor="start" x="365.5" y="-521" font-family="Helvetica,sans-Serif" font-size="10.00"> &gt;, QueryOutputIsNearest&lt; Traits</text>
<text text-anchor="middle" x="450" y="-510" font-family="Helvetica,sans-Serif" font-size="10.00">::IndexType, DataPoint::Scalar &gt; &gt;</text>
<polyline fill="none" stroke="#bfbfbf" points="357.5,-503 542.5,-503 "/>
<text text-anchor="middle" x="450" y="-491" font-family="Helvetica,sans-Serif" font-size="10.00"> </text>
<polyline fill="none" stroke="#bfbfbf" points="357.5,-484 542.5,-484 "/>
<text text-anchor="start" x="365.5" y="-472" font-family="Helvetica,sans-Serif" font-size="10.00">+ Query()</text>
<text text-anchor="start" x="365.5" y="-461" font-family="Helvetica,sans-Serif" font-size="10.00">+ Query()</text>
</a>
</g>
</g>
<!-- Node9&#45;&gt;Node10 -->
<g id="edge9" class="edge">
<title>Node9&#45;&gt;Node10</title>
<path fill="none" stroke="#63b8ff" d="M450,-588.32C450,-577.24 450,-565.89 450,-555.28"/>
<polygon fill="none" stroke="#63b8ff" points="446.5,-588.39 450,-598.39 453.5,-588.39 446.5,-588.39"/>
</g>
<!-- Node12 -->
<g id="node12" class="node">
<title>Node12</title>
<g id="a_node12"><a xlink:href="group__spatialpartitioning.html" target="_top" xlink:title=" ">
<polygon fill="white" stroke="#bfbfbf" points="560.5,-454 560.5,-555 727.5,-555 727.5,-454 560.5,-454"/>
<text text-anchor="start" x="568.5" y="-543" font-family="Helvetica,sans-Serif" font-size="10.00">Ponca::Query&lt; QueryInput</text>
<text text-anchor="start" x="568.5" y="-532" font-family="Helvetica,sans-Serif" font-size="10.00">IsPosition&lt; DataPoint</text>
<text text-anchor="start" x="568.5" y="-521" font-family="Helvetica,sans-Serif" font-size="10.00"> &gt;, QueryOutputIsNearest</text>
<text text-anchor="middle" x="644" y="-510" font-family="Helvetica,sans-Serif" font-size="10.00">&lt; Index, DataPoint::Scalar &gt; &gt;</text>
<polyline fill="none" stroke="#bfbfbf" points="560.5,-503 727.5,-503 "/>
<text text-anchor="middle" x="644" y="-491" font-family="Helvetica,sans-Serif" font-size="10.00"> </text>
<polyline fill="none" stroke="#bfbfbf" points="560.5,-484 727.5,-484 "/>
<text text-anchor="start" x="568.5" y="-472" font-family="Helvetica,sans-Serif" font-size="10.00">+ Query()</text>
<text text-anchor="start" x="568.5" y="-461" font-family="Helvetica,sans-Serif" font-size="10.00">+ Query()</text>
</a>
</g>
</g>
<!-- Node11&#45;&gt;Node12 -->
<g id="edge11" class="edge">
<title>Node11&#45;&gt;Node12</title>
<path fill="none" stroke="#63b8ff" d="M639.83,-593.68C640.44,-580.86 641.07,-567.45 641.66,-555.06"/>
<polygon fill="none" stroke="#63b8ff" points="636.33,-593.65 639.35,-603.81 643.32,-593.98 636.33,-593.65"/>
</g>
<!-- Node13 -->
<g id="node13" class="node">
<title>Node13</title>
<g id="a_node13"><a xlink:href="group__spatialpartitioning.html#structPonca_1_1NearestPointQuery" target="_top" xlink:title="Base Query class combining QueryInputIsPosition and QueryOutputIsNearest.">
<polygon fill="white" stroke="#666666" points="572,-305 572,-373 716,-373 716,-305 572,-305"/>
<text text-anchor="start" x="580" y="-361" font-family="Helvetica,sans-Serif" font-size="10.00">Ponca::NearestPointQuery</text>
<text text-anchor="middle" x="644" y="-350" font-family="Helvetica,sans-Serif" font-size="10.00">&lt; Index, DataPoint &gt;</text>
<polyline fill="none" stroke="#666666" points="572,-343 716,-343 "/>
<text text-anchor="middle" x="644" y="-331" font-family="Helvetica,sans-Serif" font-size="10.00"> </text>
<polyline fill="none" stroke="#666666" points="572,-324 716,-324 "/>
<text text-anchor="middle" x="644" y="-312" font-family="Helvetica,sans-Serif" font-size="10.00"> </text>
</a>
</g>
</g>
<!-- Node12&#45;&gt;Node13 -->
<g id="edge12" class="edge">
<title>Node12&#45;&gt;Node13</title>
<path fill="none" stroke="#63b8ff" d="M644,-443.55C644,-419.77 644,-393.33 644,-373.12"/>
<polygon fill="none" stroke="#63b8ff" points="640.5,-443.56 644,-453.56 647.5,-443.56 640.5,-443.56"/>
</g>
<!-- Node14 -->
<g id="node14" class="node">
<title>Node14</title>
<g id="a_node14"><a xlink:href="group__spatialpartitioning.html" target="_top" xlink:title=" ">
<polygon fill="white" stroke="#666666" points="572,-150.5 572,-229.5 716,-229.5 716,-150.5 572,-150.5"/>
<text text-anchor="start" x="580" y="-217.5" font-family="Helvetica,sans-Serif" font-size="10.00">Ponca::NearestPointQuery</text>
<text text-anchor="start" x="580" y="-206.5" font-family="Helvetica,sans-Serif" font-size="10.00">&lt; Traits::IndexType, Traits</text>
<text text-anchor="middle" x="644" y="-195.5" font-family="Helvetica,sans-Serif" font-size="10.00">::DataPoint &gt;</text>
<polyline fill="none" stroke="#666666" points="572,-188.5 716,-188.5 "/>
<text text-anchor="middle" x="644" y="-176.5" font-family="Helvetica,sans-Serif" font-size="10.00"> </text>
<polyline fill="none" stroke="#666666" points="572,-169.5 716,-169.5 "/>
<text text-anchor="middle" x="644" y="-157.5" font-family="Helvetica,sans-Serif" font-size="10.00"> </text>
</a>
</g>
</g>
<!-- Node13&#45;&gt;Node14 -->
<g id="edge13" class="edge">
<title>Node13&#45;&gt;Node14</title>
<path fill="none" stroke="orange" d="M644,-294.58C644,-274 644,-249.62 644,-229.68"/>
<polygon fill="orange" stroke="orange" points="640.5,-294.64 644,-304.64 647.5,-294.64 640.5,-294.64"/>
<text text-anchor="start" x="644" y="-273" font-family="Helvetica,sans-Serif" font-size="10.00"> &lt; Traits::IndexType,</text>
<text text-anchor="middle" x="694" y="-262" font-family="Helvetica,sans-Serif" font-size="10.00"> Traits::DataPoint &gt;</text>
</g>
<!-- Node15 -->
<g id="node15" class="node">
<title>Node15</title>
<g id="a_node15"><a xlink:href="classPonca_1_1KdTreeNearestPointQuery.html" target="_top" xlink:title=" ">
<polygon fill="white" stroke="#bfbfbf" points="563.5,-0.5 563.5,-101.5 724.5,-101.5 724.5,-0.5 563.5,-0.5"/>
<text text-anchor="start" x="571.5" y="-89.5" font-family="Helvetica,sans-Serif" font-size="10.00">Ponca::KdTreeNearestPoint</text>
<text text-anchor="middle" x="644" y="-78.5" font-family="Helvetica,sans-Serif" font-size="10.00">Query&lt; Traits &gt;</text>
<polyline fill="none" stroke="#bfbfbf" points="563.5,-71.5 724.5,-71.5 "/>
<text text-anchor="middle" x="644" y="-59.5" font-family="Helvetica,sans-Serif" font-size="10.00"> </text>
<polyline fill="none" stroke="#bfbfbf" points="563.5,-52.5 724.5,-52.5 "/>
<text text-anchor="start" x="571.5" y="-40.5" font-family="Helvetica,sans-Serif" font-size="10.00">+ KdTreeNearestPointQuery()</text>
<text text-anchor="start" x="571.5" y="-29.5" font-family="Helvetica,sans-Serif" font-size="10.00">+ begin()</text>
<text text-anchor="start" x="571.5" y="-18.5" font-family="Helvetica,sans-Serif" font-size="10.00">+ end()</text>
<text text-anchor="start" x="571.5" y="-7.5" font-family="Helvetica,sans-Serif" font-size="10.00"># search()</text>
</a>
</g>
</g>
<!-- Node14&#45;&gt;Node15 -->
<g id="edge14" class="edge">
<title>Node14&#45;&gt;Node15</title>
<path fill="none" stroke="#63b8ff" d="M644,-140.19C644,-127.63 644,-114.1 644,-101.51"/>
<polygon fill="none" stroke="#63b8ff" points="640.5,-140.47 644,-150.47 647.5,-140.47 640.5,-140.47"/>
</g>
</g>
</svg>
