<?xml version="1.0" encoding="UTF-8" standalone="no"?>
<!DOCTYPE svg PUBLIC "-//W3C//DTD SVG 1.1//EN"
 "http://www.w3.org/Graphics/SVG/1.1/DTD/svg11.dtd">
<!-- Generated by graphviz version 2.43.0 (0)
 -->
<!-- Title: Ponca::NoWeightFunc&lt; DataPoint &gt; Pages: 1 -->
<!--zoomable 750 -->

<svg id="main" version="1.1" xmlns="http://www.w3.org/2000/svg" xmlns:xlink="http://www.w3.org/1999/xlink" xml:space="preserve" onload="init(evt)">
<style type="text/css"><![CDATA[
.node, .edge {opacity: 0.7;}
.node.selected, .edge.selected {opacity: 1;}
.edge:hover path { stroke: red; }
.edge:hover polygon { stroke: red; fill: red; }
]]></style>

<defs>
  <circle id="rim" cx="0" cy="0" r="7"/>
  <circle id="rim2" cx="0" cy="0" r="3.5"/>
  <g id="zoomPlus">
    <use xlink:href="#rim" fill="#404040"><set attributeName="fill" to="#808080" begin="zoomplus.mouseover" end="zoomplus.mouseout"/></use>
    <path d="M-4,0h8M0,-4v8" fill="none" stroke="white" stroke-width="1.5" pointer-events="none"/>
  </g>
  <g id="zoomMin">
    <use xlink:href="#rim" fill="#404040"><set attributeName="fill" to="#808080" begin="zoomminus.mouseover" end="zoomminus.mouseout"/></use>
    <path d="M-4,0h8" fill="none" stroke="white" stroke-width="1.5" pointer-events="none"/>
  </g>
  <g id="arrowUp" transform="translate(30 24)">
    <use xlink:href="#rim"/>
    <path pointer-events="none" fill="none" stroke="white" stroke-width="1.5" d="M0,-3.0v7 M-2.5,-0.5L0,-3.0L2.5,-0.5"/>
  </g>
  <g id="arrowRight" transform="rotate(90) translate(36 -43)">
    <use xlink:href="#rim"/>
    <path pointer-events="none" fill="none" stroke="white" stroke-width="1.5" d="M0,-3.0v7 M-2.5,-0.5L0,-3.0L2.5,-0.5"/>
  </g>
  <g id="arrowDown" transform="rotate(180) translate(-30 -48)">
    <use xlink:href="#rim"/>
    <path pointer-events="none" fill="none" stroke="white" stroke-width="1.5" d="M0,-3.0v7 M-2.5,-0.5L0,-3.0L2.5,-0.5"/>
  </g>
  <g id="arrowLeft" transform="rotate(270) translate(-36 17)">
    <use xlink:href="#rim"/>
    <path pointer-events="none" fill="none" stroke="white" stroke-width="1.5" d="M0,-3.0v7 M-2.5,-0.5L0,-3.0L2.5,-0.5"/>
  </g>
  <g id="resetDef">
    <use xlink:href="#rim2" fill="#404040"><set attributeName="fill" to="#808080" begin="reset.mouseover" end="reset.mouseout"/></use>
  </g>
</defs>
<script type="application/ecmascript">
var viewWidth = 389;
var viewHeight = 750;
var sectionId = 'dynsection-0';
</script>
<script type="application/ecmascript" xlink:href="svg.min.js"/>
<svg id="graph" class="graph">
<g id="viewport">
<title>Ponca::NoWeightFunc&lt; DataPoint &gt;</title>
<!-- Node1 -->
<g id="Node000001" class="node">
<title>Node1</title>
<g id="a_Node000001"><a xlink:title="Weighting function that set uniform weight to all samples, but transform neighbors coordinates to loc...">
<polygon fill="#999999" stroke="transparent" points="199.5,-198 83.5,-198 83.5,-138 199.5,-138 199.5,-198"/>
<text text-anchor="start" x="88.5" y="-186" font-family="Helvetica,sans-Serif" font-size="10.00">Ponca::NoWeightFunc</text>
<text text-anchor="start" x="106" y="-175" font-family="Helvetica,sans-Serif" font-size="10.00">&lt; DataPoint &gt;</text>
<text text-anchor="start" x="139.5" y="-160" font-family="Helvetica,sans-Serif" font-size="10.00"> </text>
<text text-anchor="start" x="139.5" y="-145" font-family="Helvetica,sans-Serif" font-size="10.00"> </text>
<polygon fill="#666666" stroke="#666666" points="83.5,-170 83.5,-170 199.5,-170 199.5,-170 83.5,-170"/>
<polygon fill="#666666" stroke="#666666" points="83.5,-155 83.5,-155 199.5,-155 199.5,-155 83.5,-155"/>
<polygon fill="none" stroke="#666666" points="83.5,-138 83.5,-198 199.5,-198 199.5,-138 83.5,-138"/>
</a>
</g>
</g>
<!-- Node6 -->
<g id="Node000006" class="node">
<title>Node6</title>
<g id="a_Node000006"><a xlink:href="classPonca_1_1NeighborFilterStoreNormal.html" target="_top" xlink:title=" ">
<polygon fill="white" stroke="transparent" points="232.5,-101 50.5,-101 50.5,0 232.5,0 232.5,-101"/>
<text text-anchor="start" x="55.5" y="-88.5" font-family="Helvetica,sans-Serif" font-size="10.00">Ponca::NeighborFilterStore</text>
<text text-anchor="start" x="55.5" y="-77.5" font-family="Helvetica,sans-Serif" font-size="10.00">Normal&lt; DataPoint, NoWeightFunc</text>
<text text-anchor="start" x="100.5" y="-66.5" font-family="Helvetica,sans-Serif" font-size="10.00">&lt; DataPoint &gt; &gt;</text>
<text text-anchor="start" x="60" y="-51.5" font-family="Helvetica,sans-Serif" font-size="10.00">#</text>
<text text-anchor="start" x="78.5" y="-51.5" font-family="Helvetica,sans-Serif" font-size="10.00">m_n</text>
<text text-anchor="start" x="60" y="-36.5" font-family="Helvetica,sans-Serif" font-size="10.00">+</text>
<text text-anchor="start" x="78.5" y="-36.5" font-family="Helvetica,sans-Serif" font-size="10.00">NeighborFilterStoreNormal()</text>
<text text-anchor="start" x="60" y="-21.5" font-family="Helvetica,sans-Serif" font-size="10.00">+</text>
<text text-anchor="start" x="78.5" y="-21.5" font-family="Helvetica,sans-Serif" font-size="10.00">NeighborFilterStoreNormal()</text>
<text text-anchor="start" x="60" y="-6.5" font-family="Helvetica,sans-Serif" font-size="10.00">+</text>
<text text-anchor="start" x="78.5" y="-6.5" font-family="Helvetica,sans-Serif" font-size="10.00">evalNormal()</text>
<polygon fill="#666666" stroke="#666666" points="50.5,-61.5 50.5,-61.5 232.5,-61.5 232.5,-61.5 50.5,-61.5"/>
<polygon fill="#666666" stroke="#666666" points="50.5,-46.5 50.5,-46.5 76.5,-46.5 76.5,-46.5 50.5,-46.5"/>
<polygon fill="#666666" stroke="#666666" points="76.5,-46.5 76.5,-46.5 232.5,-46.5 232.5,-46.5 76.5,-46.5"/>
<polygon fill="none" stroke="#666666" points="50.5,0 50.5,-101 232.5,-101 232.5,0 50.5,0"/>
</a>
</g>
</g>
<!-- Node1&#45;&gt;Node6 -->
<g id="edge5_Node000001_Node000006" class="edge">
<title>Node1&#45;&gt;Node6</title>
<g id="a_edge5_Node000001_Node000006"><a xlink:title=" ">
<path fill="none" stroke="#63b8ff" d="M141.5,-127.82C141.5,-119.3 141.5,-110.18 141.5,-101.31"/>
<polygon fill="none" stroke="#63b8ff" points="138,-127.85 141.5,-137.85 145,-127.85 138,-127.85"/>
</a>
</g>
</g>
<!-- Node2 -->
<g id="Node000002" class="node">
<title>Node2</title>
<g id="a_Node000002"><a xlink:href="classPonca_1_1internal_1_1NoWeightFuncBase.html" target="_top" xlink:title=" ">
<polygon fill="white" stroke="transparent" points="227,-411 56,-411 56,-235 227,-235 227,-411"/>
<text text-anchor="start" x="61.5" y="-399" font-family="Helvetica,sans-Serif" font-size="10.00">Ponca::internal::NoWeight</text>
<text text-anchor="start" x="61.5" y="-388" font-family="Helvetica,sans-Serif" font-size="10.00">FuncBase&lt; DataPoint, internal</text>
<text text-anchor="start" x="61.5" y="-377" font-family="Helvetica,sans-Serif" font-size="10.00">::CenteredNeighborhoodFrame &gt;</text>
<text text-anchor="start" x="140" y="-362" font-family="Helvetica,sans-Serif" font-size="10.00"> </text>
<text text-anchor="start" x="72.5" y="-347" font-family="Helvetica,sans-Serif" font-size="10.00">+</text>
<text text-anchor="start" x="97.5" y="-347" font-family="Helvetica,sans-Serif" font-size="10.00">NoWeightFuncBase()</text>
<text text-anchor="start" x="72.5" y="-332" font-family="Helvetica,sans-Serif" font-size="10.00">+</text>
<text text-anchor="start" x="97.5" y="-332" font-family="Helvetica,sans-Serif" font-size="10.00">NoWeightFuncBase()</text>
<text text-anchor="start" x="72.5" y="-317" font-family="Helvetica,sans-Serif" font-size="10.00">+</text>
<text text-anchor="start" x="97.5" y="-317" font-family="Helvetica,sans-Serif" font-size="10.00">operator()()</text>
<text text-anchor="start" x="72.5" y="-302" font-family="Helvetica,sans-Serif" font-size="10.00">+</text>
<text text-anchor="start" x="97.5" y="-302" font-family="Helvetica,sans-Serif" font-size="10.00">spacedw()</text>
<text text-anchor="start" x="72.5" y="-287" font-family="Helvetica,sans-Serif" font-size="10.00">+</text>
<text text-anchor="start" x="97.5" y="-287" font-family="Helvetica,sans-Serif" font-size="10.00">spaced2w()</text>
<text text-anchor="start" x="72.5" y="-272" font-family="Helvetica,sans-Serif" font-size="10.00">+</text>
<text text-anchor="start" x="97.5" y="-272" font-family="Helvetica,sans-Serif" font-size="10.00">scaledw()</text>
<text text-anchor="start" x="72.5" y="-257" font-family="Helvetica,sans-Serif" font-size="10.00">+</text>
<text text-anchor="start" x="97.5" y="-257" font-family="Helvetica,sans-Serif" font-size="10.00">scaled2w()</text>
<text text-anchor="start" x="72.5" y="-242" font-family="Helvetica,sans-Serif" font-size="10.00">+</text>
<text text-anchor="start" x="97.5" y="-242" font-family="Helvetica,sans-Serif" font-size="10.00">scaleSpaced2w()</text>
<polygon fill="#666666" stroke="#666666" points="56.5,-372 56.5,-372 227.5,-372 227.5,-372 56.5,-372"/>
<polygon fill="#666666" stroke="#666666" points="56.5,-357 56.5,-357 227.5,-357 227.5,-357 56.5,-357"/>
<polygon fill="none" stroke="#666666" points="56,-235 56,-411 227,-411 227,-235 56,-235"/>
</a>
</g>
</g>
<!-- Node2&#45;&gt;Node1 -->
<g id="edge1_Node000001_Node000002" class="edge">
<title>Node2&#45;&gt;Node1</title>
<g id="a_edge1_Node000001_Node000002"><a xlink:title=" ">
<path fill="none" stroke="#63b8ff" d="M141.5,-224.71C141.5,-215.2 141.5,-206.14 141.5,-198.21"/>
<polygon fill="none" stroke="#63b8ff" points="138,-224.77 141.5,-234.77 145,-224.77 138,-224.77"/>
</a>
</g>
</g>
<!-- Node3 -->
<g id="Node000003" class="node">
<title>Node3</title>
<g id="a_Node000003"><a xlink:title=" ">
<polygon fill="white" stroke="transparent" points="167,-587 0,-587 0,-527 167,-527 167,-587"/>
<text text-anchor="start" x="5.5" y="-575" font-family="Helvetica,sans-Serif" font-size="10.00">internal::CenteredNeighborhood</text>
<text text-anchor="start" x="31.5" y="-564" font-family="Helvetica,sans-Serif" font-size="10.00">Frame &lt; DataPoint &gt;</text>
<text text-anchor="start" x="82" y="-549" font-family="Helvetica,sans-Serif" font-size="10.00"> </text>
<text text-anchor="start" x="82" y="-534" font-family="Helvetica,sans-Serif" font-size="10.00"> </text>
<polygon fill="#bfbfbf" stroke="#bfbfbf" points="0.5,-559 0.5,-559 167.5,-559 167.5,-559 0.5,-559"/>
<polygon fill="#bfbfbf" stroke="#bfbfbf" points="0.5,-544 0.5,-544 167.5,-544 167.5,-544 0.5,-544"/>
<polygon fill="none" stroke="#bfbfbf" points="0,-527 0,-587 167,-587 167,-527 0,-527"/>
</a>
</g>
</g>
<!-- Node3&#45;&gt;Node2 -->
<g id="edge2_Node000002_Node000003" class="edge">
<title>Node3&#45;&gt;Node2</title>
<g id="a_edge2_Node000002_Node000003"><a xlink:title=" ">
<path fill="none" stroke="#63b8ff" d="M93.27,-516.9C100.5,-487.99 110.63,-447.48 119.74,-411.04"/>
<polygon fill="none" stroke="#63b8ff" points="89.88,-516.07 90.85,-526.62 96.67,-517.76 89.88,-516.07"/>
</a>
</g>
</g>
<!-- Node4 -->
<g id="Node000004" class="node">
<title>Node4</title>
<g id="a_Node000004"><a xlink:href="classPonca_1_1internal_1_1NoWeightFuncBase.html" target="_top" xlink:title="Weighting function that set uniform weight to all samples.">
<polygon fill="white" stroke="transparent" points="380.5,-645 184.5,-645 184.5,-469 380.5,-469 380.5,-645"/>
<text text-anchor="start" x="189.5" y="-633" font-family="Helvetica,sans-Serif" font-size="10.00">Ponca::internal::NoWeight</text>
<text text-anchor="start" x="189.5" y="-622" font-family="Helvetica,sans-Serif" font-size="10.00">FuncBase&lt; DataPoint, _Neighborhood</text>
<text text-anchor="start" x="261" y="-611" font-family="Helvetica,sans-Serif" font-size="10.00">Frame &gt;</text>
<text text-anchor="start" x="280.5" y="-596" font-family="Helvetica,sans-Serif" font-size="10.00"> </text>
<text text-anchor="start" x="206.5" y="-581" font-family="Helvetica,sans-Serif" font-size="10.00">+</text>
<text text-anchor="start" x="237.5" y="-581" font-family="Helvetica,sans-Serif" font-size="10.00">NoWeightFuncBase()</text>
<text text-anchor="start" x="206.5" y="-566" font-family="Helvetica,sans-Serif" font-size="10.00">+</text>
<text text-anchor="start" x="237.5" y="-566" font-family="Helvetica,sans-Serif" font-size="10.00">NoWeightFuncBase()</text>
<text text-anchor="start" x="206.5" y="-551" font-family="Helvetica,sans-Serif" font-size="10.00">+</text>
<text text-anchor="start" x="237.5" y="-551" font-family="Helvetica,sans-Serif" font-size="10.00">operator()()</text>
<text text-anchor="start" x="206.5" y="-536" font-family="Helvetica,sans-Serif" font-size="10.00">+</text>
<text text-anchor="start" x="237.5" y="-536" font-family="Helvetica,sans-Serif" font-size="10.00">spacedw()</text>
<text text-anchor="start" x="206.5" y="-521" font-family="Helvetica,sans-Serif" font-size="10.00">+</text>
<text text-anchor="start" x="237.5" y="-521" font-family="Helvetica,sans-Serif" font-size="10.00">spaced2w()</text>
<text text-anchor="start" x="206.5" y="-506" font-family="Helvetica,sans-Serif" font-size="10.00">+</text>
<text text-anchor="start" x="237.5" y="-506" font-family="Helvetica,sans-Serif" font-size="10.00">scaledw()</text>
<text text-anchor="start" x="206.5" y="-491" font-family="Helvetica,sans-Serif" font-size="10.00">+</text>
<text text-anchor="start" x="237.5" y="-491" font-family="Helvetica,sans-Serif" font-size="10.00">scaled2w()</text>
<text text-anchor="start" x="206.5" y="-476" font-family="Helvetica,sans-Serif" font-size="10.00">+</text>
<text text-anchor="start" x="237.5" y="-476" font-family="Helvetica,sans-Serif" font-size="10.00">scaleSpaced2w()</text>
<polygon fill="#666666" stroke="#666666" points="184.5,-606 184.5,-606 380.5,-606 380.5,-606 184.5,-606"/>
<polygon fill="#666666" stroke="#666666" points="184.5,-591 184.5,-591 380.5,-591 380.5,-591 184.5,-591"/>
<polygon fill="none" stroke="#666666" points="184.5,-469 184.5,-645 380.5,-645 380.5,-469 184.5,-469"/>
</a>
</g>
</g>
<!-- Node4&#45;&gt;Node2 -->
<g id="edge3_Node000002_Node000004" class="edge">
<title>Node4&#45;&gt;Node2</title>
<g id="a_edge3_Node000002_Node000004"><a xlink:title=" ">
<path fill="none" stroke="orange" d="M224.17,-460.02C214.33,-443.83 204.16,-427.1 194.47,-411.15"/>
<polygon fill="orange" stroke="orange" points="221.41,-462.22 229.6,-468.95 227.39,-458.59 221.41,-462.22"/>
</a>
</g>
<text text-anchor="start" x="215.5" y="-443" font-family="Helvetica,sans-Serif" font-size="10.00" fill="grey"> &lt; DataPoint, internal</text>
<text text-anchor="middle" x="296" y="-432" font-family="Helvetica,sans-Serif" font-size="10.00" fill="grey">::CenteredNeighborhoodFrame &gt;</text>
</g>
<!-- Node5 -->
<g id="Node000005" class="node">
<title>Node5</title>
<g id="a_Node000005"><a xlink:title=" ">
<polygon fill="white" stroke="transparent" points="340,-742 225,-742 225,-682 340,-682 340,-742"/>
<text text-anchor="start" x="230.5" y="-730" font-family="Helvetica,sans-Serif" font-size="10.00">_NeighborhoodFrame</text>
<text text-anchor="start" x="247.5" y="-719" font-family="Helvetica,sans-Serif" font-size="10.00">&lt; DataPoint &gt;</text>
<text text-anchor="start" x="281" y="-704" font-family="Helvetica,sans-Serif" font-size="10.00"> </text>
<text text-anchor="start" x="281" y="-689" font-family="Helvetica,sans-Serif" font-size="10.00"> </text>
<polygon fill="#bfbfbf" stroke="#bfbfbf" points="225.5,-714 225.5,-714 340.5,-714 340.5,-714 225.5,-714"/>
<polygon fill="#bfbfbf" stroke="#bfbfbf" points="225.5,-699 225.5,-699 340.5,-699 340.5,-699 225.5,-699"/>
<polygon fill="none" stroke="#bfbfbf" points="225,-682 225,-742 340,-742 340,-682 225,-682"/>
</a>
</g>
</g>
<!-- Node5&#45;&gt;Node4 -->
<g id="edge4_Node000004_Node000005" class="edge">
<title>Node5&#45;&gt;Node4</title>
<g id="a_edge4_Node000004_Node000005"><a xlink:title=" ">
<path fill="none" stroke="#63b8ff" d="M282.5,-671.79C282.5,-663.47 282.5,-654.37 282.5,-645.06"/>
<polygon fill="none" stroke="#63b8ff" points="279,-671.86 282.5,-681.86 286,-671.86 279,-671.86"/>
</a>
</g>
</g>
</g>
</svg>

<g id="navigator" transform="translate(0 0)" fill="#404254">
  <rect fill="#f2f5e9" fill-opacity="0.5" stroke="#606060" stroke-width=".5" x="0" y="0" width="60" height="60"/>
  <use id="zoomplus" xlink:href="#zoomPlus" x="17" y="9" onmousedown="handleZoom(evt,'in')"/>
  <use id="zoomminus" xlink:href="#zoomMin" x="42" y="9" onmousedown="handleZoom(evt,'out')"/>
  <use id="reset" xlink:href="#resetDef" x="30" y="36" onmousedown="handleReset()"/>
   <use id="arrowup" xlink:href="#arrowUp" x="0" y="0" onmousedown="handlePan(0,-1)"/>
  <use id="arrowright" xlink:href="#arrowRight" x="0" y="0" onmousedown="handlePan(1,0)"/>
  <use id="arrowdown" xlink:href="#arrowDown" x="0" y="0" onmousedown="handlePan(0,1)"/>
  <use id="arrowleft" xlink:href="#arrowLeft" x="0" y="0" onmousedown="handlePan(-1,0)"/>
</g>
<svg viewBox="0 0 15 15" width="100%" height="30px" preserveAspectRatio="xMaxYMin meet">
 <g id="arrow_out" transform="scale(0.3 0.3)">
  <a xlink:href="structPonca_1_1NoWeightFunc__inherit__graph_org.svg" target="_base">
   <rect id="button" ry="5" rx="5" y="6" x="6" height="38" width="38"
        fill="#f2f5e9" fill-opacity="0.5" stroke="#606060" stroke-width="1.0"/>
   <path id="arrow"
     d="M 11.500037,31.436501 C 11.940474,20.09759 22.043105,11.32322 32.158766,21.979434 L 37.068811,17.246167 C 37.068811,17.246167 37.088388,32 37.088388,32 L 22.160133,31.978069 C 22.160133,31.978069 26.997745,27.140456 26.997745,27.140456 C 18.528582,18.264221 13.291696,25.230495 11.500037,31.436501 z"
     style="fill:#404040;"/>
  </a>
 </g>
</svg>

<style type='text/css'>
<![CDATA[
[data-mouse-over-selected='false'] { opacity: 0.7; }
[data-mouse-over-selected='true']  { opacity: 1.0; }
]]>
</style>
<script type="application/ecmascript"><![CDATA[
document.addEventListener('DOMContentLoaded', (event) => {
  highlightEdges();
  highlightAdjacentNodes();
});
]]></script>
</svg>
