<?xml version="1.0" encoding="UTF-8" standalone="no"?>
<!DOCTYPE svg PUBLIC "-//W3C//DTD SVG 1.1//EN"
 "http://www.w3.org/Graphics/SVG/1.1/DTD/svg11.dtd">
<!-- Generated by graphviz version 2.43.0 (0)
 -->
<!-- Title: Ponca::QueryOutputIsKNearest&lt; Scalar &gt; Pages: 1 -->
<svg width="528pt" height="726pt"
 viewBox="0.00 0.00 528.00 726.00" xmlns="http://www.w3.org/2000/svg" xmlns:xlink="http://www.w3.org/1999/xlink">
<g id="graph0" class="graph" transform="scale(1 1) rotate(0) translate(4 722)">
<title>Ponca::QueryOutputIsKNearest&lt; Scalar &gt;</title>
<!-- Node1 -->
<g id="node1" class="node">
<title>Node1</title>
<g id="a_node1"><a xlink:title="Base class for knearest queries.">
<polygon fill="#bfbfbf" stroke="black" points="84,-532.5 84,-622.5 251,-622.5 251,-532.5 84,-532.5"/>
<text text-anchor="start" x="92" y="-610.5" font-family="Helvetica,sans-Serif" font-size="10.00">Ponca::QueryOutputIsKNearest</text>
<text text-anchor="middle" x="167.5" y="-599.5" font-family="Helvetica,sans-Serif" font-size="10.00">&lt; Scalar &gt;</text>
<polyline fill="none" stroke="black" points="84,-592.5 251,-592.5 "/>
<text text-anchor="start" x="92" y="-580.5" font-family="Helvetica,sans-Serif" font-size="10.00"># m_queue</text>
<polyline fill="none" stroke="black" points="84,-573.5 251,-573.5 "/>
<text text-anchor="start" x="92" y="-561.5" font-family="Helvetica,sans-Serif" font-size="10.00">+ QueryOutputIsKNearest()</text>
<text text-anchor="start" x="92" y="-550.5" font-family="Helvetica,sans-Serif" font-size="10.00">+ queue()</text>
<text text-anchor="start" x="92" y="-539.5" font-family="Helvetica,sans-Serif" font-size="10.00"># reset()</text>
</a>
</g>
</g>
<!-- Node3 -->
<g id="node3" class="node">
<title>Node3</title>
<g id="a_node3"><a xlink:href="structPonca_1_1Query.html" target="_top" xlink:title=" ">
<polygon fill="none" stroke="black" points="6,-394.5 6,-484.5 155,-484.5 155,-394.5 6,-394.5"/>
<text text-anchor="start" x="14" y="-472.5" font-family="Helvetica,sans-Serif" font-size="10.00">Query&lt; QueryInputIsIndex,</text>
<text text-anchor="start" x="14" y="-461.5" font-family="Helvetica,sans-Serif" font-size="10.00"> QueryOutputIsKNearest</text>
<text text-anchor="middle" x="80.5" y="-450.5" font-family="Helvetica,sans-Serif" font-size="10.00">&lt; Scalar &gt; &gt;</text>
<polyline fill="none" stroke="black" points="6,-443.5 155,-443.5 "/>
<text text-anchor="middle" x="80.5" y="-431.5" font-family="Helvetica,sans-Serif" font-size="10.00"> </text>
<polyline fill="none" stroke="black" points="6,-424.5 155,-424.5 "/>
<text text-anchor="start" x="14" y="-412.5" font-family="Helvetica,sans-Serif" font-size="10.00">+ Query()</text>
<text text-anchor="start" x="14" y="-401.5" font-family="Helvetica,sans-Serif" font-size="10.00">+ Query()</text>
</a>
</g>
</g>
<!-- Node1&#45;&gt;Node3 -->
<g id="edge2" class="edge">
<title>Node1&#45;&gt;Node3</title>
<path fill="none" stroke="midnightblue" d="M133.68,-523.63C125.49,-510.82 116.81,-497.27 108.9,-484.9"/>
<polygon fill="none" stroke="midnightblue" points="130.92,-525.81 139.25,-532.34 136.81,-522.03 130.92,-525.81"/>
</g>
<!-- Node7 -->
<g id="node7" class="node">
<title>Node7</title>
<g id="a_node7"><a xlink:href="structPonca_1_1QueryOutputIsKNearest.html" target="_top" xlink:title=" ">
<polygon fill="none" stroke="black" points="174,-394.5 174,-484.5 341,-484.5 341,-394.5 174,-394.5"/>
<text text-anchor="start" x="182" y="-472.5" font-family="Helvetica,sans-Serif" font-size="10.00">Ponca::QueryOutputIsKNearest</text>
<text text-anchor="middle" x="257.5" y="-461.5" font-family="Helvetica,sans-Serif" font-size="10.00">&lt; DataPoint::Scalar &gt;</text>
<polyline fill="none" stroke="black" points="174,-454.5 341,-454.5 "/>
<text text-anchor="start" x="182" y="-442.5" font-family="Helvetica,sans-Serif" font-size="10.00"># m_queue</text>
<polyline fill="none" stroke="black" points="174,-435.5 341,-435.5 "/>
<text text-anchor="start" x="182" y="-423.5" font-family="Helvetica,sans-Serif" font-size="10.00">+ QueryOutputIsKNearest()</text>
<text text-anchor="start" x="182" y="-412.5" font-family="Helvetica,sans-Serif" font-size="10.00">+ queue()</text>
<text text-anchor="start" x="182" y="-401.5" font-family="Helvetica,sans-Serif" font-size="10.00"># reset()</text>
</a>
</g>
</g>
<!-- Node1&#45;&gt;Node7 -->
<g id="edge6" class="edge">
<title>Node1&#45;&gt;Node7</title>
<path fill="none" stroke="orange" d="M202.25,-523.99C210.79,-511.08 219.86,-497.39 228.12,-484.9"/>
<polygon fill="orange" stroke="orange" points="199.32,-522.07 196.72,-532.34 205.16,-525.94 199.32,-522.07"/>
<text text-anchor="middle" x="269.5" y="-506" font-family="Helvetica,sans-Serif" font-size="10.00"> &lt; DataPoint::Scalar &gt;</text>
</g>
<!-- Node2 -->
<g id="node2" class="node">
<title>Node2</title>
<g id="a_node2"><a xlink:href="structPonca_1_1QueryOutputBase.html" target="_top" xlink:title="Base class for queries output type.">
<polygon fill="none" stroke="black" points="98.5,-660.5 98.5,-717.5 236.5,-717.5 236.5,-660.5 98.5,-660.5"/>
<text text-anchor="middle" x="167.5" y="-705.5" font-family="Helvetica,sans-Serif" font-size="10.00">Ponca::QueryOutputBase</text>
<polyline fill="none" stroke="black" points="98.5,-698.5 236.5,-698.5 "/>
<text text-anchor="middle" x="167.5" y="-686.5" font-family="Helvetica,sans-Serif" font-size="10.00"> </text>
<polyline fill="none" stroke="black" points="98.5,-679.5 236.5,-679.5 "/>
<text text-anchor="middle" x="167.5" y="-667.5" font-family="Helvetica,sans-Serif" font-size="10.00"> </text>
</a>
</g>
</g>
<!-- Node2&#45;&gt;Node1 -->
<g id="edge1" class="edge">
<title>Node2&#45;&gt;Node1</title>
<path fill="none" stroke="midnightblue" d="M167.5,-650.31C167.5,-641.43 167.5,-631.88 167.5,-622.74"/>
<polygon fill="none" stroke="midnightblue" points="164,-650.37 167.5,-660.37 171,-650.37 164,-650.37"/>
</g>
<!-- Node4 -->
<g id="node4" class="node">
<title>Node4</title>
<g id="a_node4"><a xlink:href="structPonca_1_1KNearestIndexQuery.html" target="_top" xlink:title="Base Query class combining QueryInputIsIndex and QueryOutputIsKNearest.">
<polygon fill="none" stroke="black" points="0,-272 0,-340 153,-340 153,-272 0,-272"/>
<text text-anchor="start" x="8" y="-328" font-family="Helvetica,sans-Serif" font-size="10.00">Ponca::KNearestIndexQuery</text>
<text text-anchor="middle" x="76.5" y="-317" font-family="Helvetica,sans-Serif" font-size="10.00">&lt; Scalar &gt;</text>
<polyline fill="none" stroke="black" points="0,-310 153,-310 "/>
<text text-anchor="middle" x="76.5" y="-298" font-family="Helvetica,sans-Serif" font-size="10.00"> </text>
<polyline fill="none" stroke="black" points="0,-291 153,-291 "/>
<text text-anchor="middle" x="76.5" y="-279" font-family="Helvetica,sans-Serif" font-size="10.00"> </text>
</a>
</g>
</g>
<!-- Node3&#45;&gt;Node4 -->
<g id="edge3" class="edge">
<title>Node3&#45;&gt;Node4</title>
<path fill="none" stroke="midnightblue" d="M78.85,-384.15C78.39,-369.17 77.91,-353.38 77.5,-340.01"/>
<polygon fill="none" stroke="midnightblue" points="75.35,-384.46 79.16,-394.35 82.35,-384.24 75.35,-384.46"/>
</g>
<!-- Node5 -->
<g id="node5" class="node">
<title>Node5</title>
<g id="a_node5"><a xlink:href="structPonca_1_1KNearestIndexQuery.html" target="_top" xlink:title=" ">
<polygon fill="none" stroke="black" points="113,-139.5 113,-207.5 266,-207.5 266,-139.5 113,-139.5"/>
<text text-anchor="start" x="121" y="-195.5" font-family="Helvetica,sans-Serif" font-size="10.00">Ponca::KNearestIndexQuery</text>
<text text-anchor="middle" x="189.5" y="-184.5" font-family="Helvetica,sans-Serif" font-size="10.00">&lt; DataPoint::Scalar &gt;</text>
<polyline fill="none" stroke="black" points="113,-177.5 266,-177.5 "/>
<text text-anchor="middle" x="189.5" y="-165.5" font-family="Helvetica,sans-Serif" font-size="10.00"> </text>
<polyline fill="none" stroke="black" points="113,-158.5 266,-158.5 "/>
<text text-anchor="middle" x="189.5" y="-146.5" font-family="Helvetica,sans-Serif" font-size="10.00"> </text>
</a>
</g>
</g>
<!-- Node4&#45;&gt;Node5 -->
<g id="edge4" class="edge">
<title>Node4&#45;&gt;Node5</title>
<path fill="none" stroke="orange" d="M84.65,-261.83C88.54,-249.33 94.22,-236.3 102.5,-226 108,-219.16 114.67,-213.03 121.84,-207.59"/>
<polygon fill="orange" stroke="orange" points="81.22,-261.1 81.91,-271.67 87.96,-262.98 81.22,-261.1"/>
<text text-anchor="middle" x="157.5" y="-229" font-family="Helvetica,sans-Serif" font-size="10.00"> &lt; DataPoint::Scalar &gt;</text>
</g>
<!-- Node6 -->
<g id="node6" class="node">
<title>Node6</title>
<g id="a_node6"><a xlink:href="classPonca_1_1KdTreeKNearestIndexQuery.html" target="_top" xlink:title=" ">
<polygon fill="none" stroke="black" points="104.5,-0.5 104.5,-101.5 274.5,-101.5 274.5,-0.5 104.5,-0.5"/>
<text text-anchor="start" x="112.5" y="-89.5" font-family="Helvetica,sans-Serif" font-size="10.00">Ponca::KdTreeKNearestIndex</text>
<text text-anchor="middle" x="189.5" y="-78.5" font-family="Helvetica,sans-Serif" font-size="10.00">Query&lt; DataPoint &gt;</text>
<polyline fill="none" stroke="black" points="104.5,-71.5 274.5,-71.5 "/>
<text text-anchor="middle" x="189.5" y="-59.5" font-family="Helvetica,sans-Serif" font-size="10.00"> </text>
<polyline fill="none" stroke="black" points="104.5,-52.5 274.5,-52.5 "/>
<text text-anchor="start" x="112.5" y="-40.5" font-family="Helvetica,sans-Serif" font-size="10.00">+ KdTreeKNearestIndexQuery()</text>
<text text-anchor="start" x="112.5" y="-29.5" font-family="Helvetica,sans-Serif" font-size="10.00">+ begin()</text>
<text text-anchor="start" x="112.5" y="-18.5" font-family="Helvetica,sans-Serif" font-size="10.00">+ end()</text>
<text text-anchor="start" x="112.5" y="-7.5" font-family="Helvetica,sans-Serif" font-size="10.00"># search()</text>
</a>
</g>
</g>
<!-- Node5&#45;&gt;Node6 -->
<g id="edge5" class="edge">
<title>Node5&#45;&gt;Node6</title>
<path fill="none" stroke="midnightblue" d="M189.5,-129.15C189.5,-120.29 189.5,-110.91 189.5,-101.84"/>
<polygon fill="none" stroke="midnightblue" points="186,-129.25 189.5,-139.25 193,-129.25 186,-129.25"/>
</g>
<!-- Node8 -->
<g id="node8" class="node">
<title>Node8</title>
<g id="a_node8"><a xlink:href="structPonca_1_1Query.html" target="_top" xlink:title=" ">
<polygon fill="none" stroke="black" points="171,-261 171,-351 344,-351 344,-261 171,-261"/>
<text text-anchor="start" x="179" y="-339" font-family="Helvetica,sans-Serif" font-size="10.00">Ponca::Query&lt; QueryInput</text>
<text text-anchor="start" x="179" y="-328" font-family="Helvetica,sans-Serif" font-size="10.00">IsIndex, QueryOutputIsKNearest</text>
<text text-anchor="middle" x="257.5" y="-317" font-family="Helvetica,sans-Serif" font-size="10.00">&lt; DataPoint::Scalar &gt; &gt;</text>
<polyline fill="none" stroke="black" points="171,-310 344,-310 "/>
<text text-anchor="middle" x="257.5" y="-298" font-family="Helvetica,sans-Serif" font-size="10.00"> </text>
<polyline fill="none" stroke="black" points="171,-291 344,-291 "/>
<text text-anchor="start" x="179" y="-279" font-family="Helvetica,sans-Serif" font-size="10.00">+ Query()</text>
<text text-anchor="start" x="179" y="-268" font-family="Helvetica,sans-Serif" font-size="10.00">+ Query()</text>
</a>
</g>
</g>
<!-- Node7&#45;&gt;Node8 -->
<g id="edge7" class="edge">
<title>Node7&#45;&gt;Node8</title>
<path fill="none" stroke="midnightblue" d="M257.5,-384.05C257.5,-373.13 257.5,-361.78 257.5,-351.26"/>
<polygon fill="none" stroke="midnightblue" points="254,-384.35 257.5,-394.35 261,-384.35 254,-384.35"/>
</g>
<!-- Node9 -->
<g id="node9" class="node">
<title>Node9</title>
<g id="a_node9"><a xlink:href="structPonca_1_1Query.html" target="_top" xlink:title=" ">
<polygon fill="none" stroke="black" points="362,-255.5 362,-356.5 511,-356.5 511,-255.5 362,-255.5"/>
<text text-anchor="start" x="370" y="-344.5" font-family="Helvetica,sans-Serif" font-size="10.00">Ponca::Query&lt; QueryInput</text>
<text text-anchor="start" x="370" y="-333.5" font-family="Helvetica,sans-Serif" font-size="10.00">IsPosition&lt; DataPoint</text>
<text text-anchor="start" x="370" y="-322.5" font-family="Helvetica,sans-Serif" font-size="10.00"> &gt;, QueryOutputIsKNearest</text>
<text text-anchor="middle" x="436.5" y="-311.5" font-family="Helvetica,sans-Serif" font-size="10.00">&lt; DataPoint::Scalar &gt; &gt;</text>
<polyline fill="none" stroke="black" points="362,-304.5 511,-304.5 "/>
<text text-anchor="middle" x="436.5" y="-292.5" font-family="Helvetica,sans-Serif" font-size="10.00"> </text>
<polyline fill="none" stroke="black" points="362,-285.5 511,-285.5 "/>
<text text-anchor="start" x="370" y="-273.5" font-family="Helvetica,sans-Serif" font-size="10.00">+ Query()</text>
<text text-anchor="start" x="370" y="-262.5" font-family="Helvetica,sans-Serif" font-size="10.00">+ Query()</text>
</a>
</g>
</g>
<!-- Node7&#45;&gt;Node9 -->
<g id="edge9" class="edge">
<title>Node7&#45;&gt;Node9</title>
<path fill="none" stroke="midnightblue" d="M325.81,-388.32C339.91,-377.96 354.76,-367.05 368.85,-356.7"/>
<polygon fill="none" stroke="midnightblue" points="323.59,-385.61 317.6,-394.35 327.73,-391.25 323.59,-385.61"/>
</g>
<!-- Node8&#45;&gt;Node5 -->
<g id="edge8" class="edge">
<title>Node8&#45;&gt;Node5</title>
<path fill="none" stroke="midnightblue" d="M229.93,-251.81C225.45,-243.18 220.85,-234.34 216.5,-226 213.42,-220.09 210.13,-213.81 206.95,-207.73"/>
<polygon fill="none" stroke="midnightblue" points="226.83,-253.43 234.55,-260.69 233.04,-250.21 226.83,-253.43"/>
</g>
<!-- Node10 -->
<g id="node10" class="node">
<title>Node10</title>
<g id="a_node10"><a xlink:href="structPonca_1_1KNearestPointQuery.html" target="_top" xlink:title="Base Query class combining QueryInputIsPosition and QueryOutputIsKNearest.">
<polygon fill="none" stroke="black" points="361,-139.5 361,-207.5 512,-207.5 512,-139.5 361,-139.5"/>
<text text-anchor="start" x="369" y="-195.5" font-family="Helvetica,sans-Serif" font-size="10.00">Ponca::KNearestPointQuery</text>
<text text-anchor="middle" x="436.5" y="-184.5" font-family="Helvetica,sans-Serif" font-size="10.00">&lt; DataPoint &gt;</text>
<polyline fill="none" stroke="black" points="361,-177.5 512,-177.5 "/>
<text text-anchor="middle" x="436.5" y="-165.5" font-family="Helvetica,sans-Serif" font-size="10.00"> </text>
<polyline fill="none" stroke="black" points="361,-158.5 512,-158.5 "/>
<text text-anchor="middle" x="436.5" y="-146.5" font-family="Helvetica,sans-Serif" font-size="10.00"> </text>
</a>
</g>
</g>
<!-- Node9&#45;&gt;Node10 -->
<g id="edge10" class="edge">
<title>Node9&#45;&gt;Node10</title>
<path fill="none" stroke="midnightblue" d="M436.5,-245.03C436.5,-232.12 436.5,-218.93 436.5,-207.51"/>
<polygon fill="none" stroke="midnightblue" points="433,-245.29 436.5,-255.29 440,-245.29 433,-245.29"/>
</g>
<!-- Node11 -->
<g id="node11" class="node">
<title>Node11</title>
<g id="a_node11"><a xlink:href="classPonca_1_1KdTreeKNearestPointQuery.html" target="_top" xlink:title=" ">
<polygon fill="none" stroke="black" points="353,-0.5 353,-101.5 520,-101.5 520,-0.5 353,-0.5"/>
<text text-anchor="start" x="361" y="-89.5" font-family="Helvetica,sans-Serif" font-size="10.00">Ponca::KdTreeKNearestPoint</text>
<text text-anchor="middle" x="436.5" y="-78.5" font-family="Helvetica,sans-Serif" font-size="10.00">Query&lt; DataPoint &gt;</text>
<polyline fill="none" stroke="black" points="353,-71.5 520,-71.5 "/>
<text text-anchor="middle" x="436.5" y="-59.5" font-family="Helvetica,sans-Serif" font-size="10.00"> </text>
<polyline fill="none" stroke="black" points="353,-52.5 520,-52.5 "/>
<text text-anchor="start" x="361" y="-40.5" font-family="Helvetica,sans-Serif" font-size="10.00">+ KdTreeKNearestPointQuery()</text>
<text text-anchor="start" x="361" y="-29.5" font-family="Helvetica,sans-Serif" font-size="10.00">+ begin()</text>
<text text-anchor="start" x="361" y="-18.5" font-family="Helvetica,sans-Serif" font-size="10.00">+ end()</text>
<text text-anchor="start" x="361" y="-7.5" font-family="Helvetica,sans-Serif" font-size="10.00"># search()</text>
</a>
</g>
</g>
<!-- Node10&#45;&gt;Node11 -->
<g id="edge11" class="edge">
<title>Node10&#45;&gt;Node11</title>
<path fill="none" stroke="midnightblue" d="M436.5,-129.15C436.5,-120.29 436.5,-110.91 436.5,-101.84"/>
<polygon fill="none" stroke="midnightblue" points="433,-129.25 436.5,-139.25 440,-129.25 433,-129.25"/>
</g>
</g>
</svg>
