<?xml version="1.0" encoding="UTF-8" standalone="no"?>
<!DOCTYPE svg PUBLIC "-//W3C//DTD SVG 1.1//EN"
 "http://www.w3.org/Graphics/SVG/1.1/DTD/svg11.dtd">
<!-- Generated by graphviz version 2.43.0 (0)
 -->
<!-- Title: Ponca::BasketComputeObject&lt; _Derived, _Base &gt; Pages: 1 -->
<!--zoomable 684 -->

<svg id="main" version="1.1" xmlns="http://www.w3.org/2000/svg" xmlns:xlink="http://www.w3.org/1999/xlink" xml:space="preserve" onload="init(evt)">
<style type="text/css"><![CDATA[
.node, .edge {opacity: 0.7;}
.node.selected, .edge.selected {opacity: 1;}
.edge:hover path { stroke: red; }
.edge:hover polygon { stroke: red; fill: red; }
]]></style>

<defs>
  <circle id="rim" cx="0" cy="0" r="7"/>
  <circle id="rim2" cx="0" cy="0" r="3.5"/>
  <g id="zoomPlus">
    <use xlink:href="#rim" fill="#404040"><set attributeName="fill" to="#808080" begin="zoomplus.mouseover" end="zoomplus.mouseout"/></use>
    <path d="M-4,0h8M0,-4v8" fill="none" stroke="white" stroke-width="1.5" pointer-events="none"/>
  </g>
  <g id="zoomMin">
    <use xlink:href="#rim" fill="#404040"><set attributeName="fill" to="#808080" begin="zoomminus.mouseover" end="zoomminus.mouseout"/></use>
    <path d="M-4,0h8" fill="none" stroke="white" stroke-width="1.5" pointer-events="none"/>
  </g>
  <g id="arrowUp" transform="translate(30 24)">
    <use xlink:href="#rim"/>
    <path pointer-events="none" fill="none" stroke="white" stroke-width="1.5" d="M0,-3.0v7 M-2.5,-0.5L0,-3.0L2.5,-0.5"/>
  </g>
  <g id="arrowRight" transform="rotate(90) translate(36 -43)">
    <use xlink:href="#rim"/>
    <path pointer-events="none" fill="none" stroke="white" stroke-width="1.5" d="M0,-3.0v7 M-2.5,-0.5L0,-3.0L2.5,-0.5"/>
  </g>
  <g id="arrowDown" transform="rotate(180) translate(-30 -48)">
    <use xlink:href="#rim"/>
    <path pointer-events="none" fill="none" stroke="white" stroke-width="1.5" d="M0,-3.0v7 M-2.5,-0.5L0,-3.0L2.5,-0.5"/>
  </g>
  <g id="arrowLeft" transform="rotate(270) translate(-36 17)">
    <use xlink:href="#rim"/>
    <path pointer-events="none" fill="none" stroke="white" stroke-width="1.5" d="M0,-3.0v7 M-2.5,-0.5L0,-3.0L2.5,-0.5"/>
  </g>
  <g id="resetDef">
    <use xlink:href="#rim2" fill="#404040"><set attributeName="fill" to="#808080" begin="reset.mouseover" end="reset.mouseout"/></use>
  </g>
</defs>
<script type="application/ecmascript">
var viewWidth = 430;
var viewHeight = 684;
var sectionId = 'dynsection-0';
</script>
<script type="application/ecmascript" xlink:href="svg.min.js"/>
<svg id="graph" class="graph">
<g id="viewport">
<title>Ponca::BasketComputeObject&lt; _Derived, _Base &gt;</title>
<!-- Node1 -->
<g id="Node000001" class="node">
<title>Node1</title>
<g id="a_Node000001"><a xlink:title="Base ComputeObject for the Basket classes.">
<polygon fill="#999999" stroke="transparent" points="254,-382 99,-382 99,-307 254,-307 254,-382"/>
<text text-anchor="start" x="104.5" y="-369.5" font-family="Helvetica,sans-Serif" font-size="10.00">Ponca::BasketComputeObject</text>
<text text-anchor="start" x="126" y="-358.5" font-family="Helvetica,sans-Serif" font-size="10.00">&lt; _Derived, _Base &gt;</text>
<text text-anchor="start" x="175" y="-343.5" font-family="Helvetica,sans-Serif" font-size="10.00"> </text>
<text text-anchor="start" x="115" y="-328.5" font-family="Helvetica,sans-Serif" font-size="10.00">+</text>
<text text-anchor="start" x="139.5" y="-328.5" font-family="Helvetica,sans-Serif" font-size="10.00">compute()</text>
<text text-anchor="start" x="115" y="-313.5" font-family="Helvetica,sans-Serif" font-size="10.00">+</text>
<text text-anchor="start" x="139.5" y="-313.5" font-family="Helvetica,sans-Serif" font-size="10.00">computeWithIds()</text>
<polygon fill="#666666" stroke="#666666" points="99.5,-353.5 99.5,-353.5 254.5,-353.5 254.5,-353.5 99.5,-353.5"/>
<polygon fill="#666666" stroke="#666666" points="99.5,-338.5 99.5,-338.5 254.5,-338.5 254.5,-338.5 99.5,-338.5"/>
<polygon fill="none" stroke="#666666" points="99,-307 99,-382 254,-382 254,-307 99,-307"/>
</a>
</g>
</g>
<!-- Node5 -->
<g id="Node000005" class="node">
<title>Node5</title>
<g id="a_Node000005"><a xlink:href="structPonca_1_1BasketComputeObject.html" target="_top" xlink:title=" ">
<polygon fill="white" stroke="transparent" points="161,-210.5 0,-210.5 0,-113.5 161,-113.5 161,-210.5"/>
<text text-anchor="start" x="5.5" y="-198" font-family="Helvetica,sans-Serif" font-size="10.00">Ponca::BasketComputeObject</text>
<text text-anchor="start" x="5.5" y="-187" font-family="Helvetica,sans-Serif" font-size="10.00">&lt; Basket&lt; P, NF, Ext0, Exts...</text>
<text text-anchor="start" x="5.5" y="-176" font-family="Helvetica,sans-Serif" font-size="10.00"> &gt;, internal::BasketAggregate</text>
<text text-anchor="start" x="5.5" y="-165" font-family="Helvetica,sans-Serif" font-size="10.00">&lt; P, NF, Ext0, Exts... &gt;::type &gt;</text>
<text text-anchor="start" x="79" y="-150" font-family="Helvetica,sans-Serif" font-size="10.00"> </text>
<text text-anchor="start" x="17.5" y="-135" font-family="Helvetica,sans-Serif" font-size="10.00">+</text>
<text text-anchor="start" x="43.5" y="-135" font-family="Helvetica,sans-Serif" font-size="10.00">compute()</text>
<text text-anchor="start" x="17.5" y="-120" font-family="Helvetica,sans-Serif" font-size="10.00">+</text>
<text text-anchor="start" x="43.5" y="-120" font-family="Helvetica,sans-Serif" font-size="10.00">computeWithIds()</text>
<polygon fill="#666666" stroke="#666666" points="0.5,-160 0.5,-160 161.5,-160 161.5,-160 0.5,-160"/>
<polygon fill="#666666" stroke="#666666" points="0.5,-145 0.5,-145 161.5,-145 161.5,-145 0.5,-145"/>
<polygon fill="none" stroke="#666666" points="0,-113.5 0,-210.5 161,-210.5 161,-113.5 0,-113.5"/>
</a>
</g>
</g>
<!-- Node1&#45;&gt;Node5 -->
<g id="edge4_Node000001_Node000005" class="edge">
<title>Node1&#45;&gt;Node5</title>
<g id="a_edge4_Node000001_Node000005"><a xlink:title=" ">
<path fill="none" stroke="orange" d="M117.05,-299.34C114.28,-296.03 111.73,-292.58 109.5,-289 94.9,-265.56 87.64,-235.56 84.03,-210.71"/>
<polygon fill="orange" stroke="orange" points="114.53,-301.78 123.87,-306.79 119.7,-297.05 114.53,-301.78"/>
</a>
</g>
<text text-anchor="start" x="109.5" y="-275.5" font-family="Helvetica,sans-Serif" font-size="10.00" fill="grey"> &lt; Basket&lt; P, NF, Ext0,</text>
<text text-anchor="start" x="109.5" y="-264.5" font-family="Helvetica,sans-Serif" font-size="10.00" fill="grey"> Exts... &gt;, internal</text>
<text text-anchor="start" x="109.5" y="-253.5" font-family="Helvetica,sans-Serif" font-size="10.00" fill="grey">::BasketAggregate&lt; P,</text>
<text text-anchor="middle" x="175" y="-242.5" font-family="Helvetica,sans-Serif" font-size="10.00" fill="grey"> NF, Ext0, Exts... &gt;::type &gt;</text>
</g>
<!-- Node7 -->
<g id="Node000007" class="node">
<title>Node7</title>
<g id="a_Node000007"><a xlink:href="structPonca_1_1BasketComputeObject.html" target="_top" xlink:title=" ">
<polygon fill="white" stroke="transparent" points="366,-216 179,-216 179,-108 366,-108 366,-216"/>
<text text-anchor="start" x="184.5" y="-204" font-family="Helvetica,sans-Serif" font-size="10.00">Ponca::BasketComputeObject</text>
<text text-anchor="start" x="184.5" y="-193" font-family="Helvetica,sans-Serif" font-size="10.00">&lt; BasketDiff&lt; BasketType,</text>
<text text-anchor="start" x="184.5" y="-182" font-family="Helvetica,sans-Serif" font-size="10.00"> Type, Ext0, Exts... &gt;, internal</text>
<text text-anchor="start" x="184.5" y="-171" font-family="Helvetica,sans-Serif" font-size="10.00">::BasketDiffAggregate&lt; BasketType,</text>
<text text-anchor="start" x="203" y="-160" font-family="Helvetica,sans-Serif" font-size="10.00"> Type, Ext0, Exts... &gt;::type &gt;</text>
<text text-anchor="start" x="271" y="-145" font-family="Helvetica,sans-Serif" font-size="10.00"> </text>
<text text-anchor="start" x="203" y="-130" font-family="Helvetica,sans-Serif" font-size="10.00">+</text>
<text text-anchor="start" x="235.5" y="-130" font-family="Helvetica,sans-Serif" font-size="10.00">compute()</text>
<text text-anchor="start" x="203" y="-115" font-family="Helvetica,sans-Serif" font-size="10.00">+</text>
<text text-anchor="start" x="235.5" y="-115" font-family="Helvetica,sans-Serif" font-size="10.00">computeWithIds()</text>
<polygon fill="#666666" stroke="#666666" points="179.5,-155 179.5,-155 366.5,-155 366.5,-155 179.5,-155"/>
<polygon fill="#666666" stroke="#666666" points="179.5,-140 179.5,-140 366.5,-140 366.5,-140 179.5,-140"/>
<polygon fill="none" stroke="#666666" points="179,-108 179,-216 366,-216 366,-108 179,-108"/>
</a>
</g>
</g>
<!-- Node1&#45;&gt;Node7 -->
<g id="edge6_Node000001_Node000007" class="edge">
<title>Node1&#45;&gt;Node7</title>
<g id="a_edge6_Node000001_Node000007"><a xlink:title=" ">
<path fill="none" stroke="orange" d="M233.03,-299.31C235.77,-296 238.29,-292.55 240.5,-289 254.1,-267.16 261.94,-239.79 266.44,-216.14"/>
<polygon fill="orange" stroke="orange" points="230.4,-297 226.32,-306.78 235.61,-301.68 230.4,-297"/>
</a>
</g>
<text text-anchor="start" x="261.5" y="-281" font-family="Helvetica,sans-Serif" font-size="10.00" fill="grey"> &lt; BasketDiff&lt; BasketType,</text>
<text text-anchor="start" x="261.5" y="-270" font-family="Helvetica,sans-Serif" font-size="10.00" fill="grey"> Type, Ext0, Exts... &gt;,</text>
<text text-anchor="start" x="261.5" y="-259" font-family="Helvetica,sans-Serif" font-size="10.00" fill="grey"> internal::BasketDiffAggregate</text>
<text text-anchor="start" x="261.5" y="-248" font-family="Helvetica,sans-Serif" font-size="10.00" fill="grey">&lt; BasketType, Type, Ext0, Exts...</text>
<text text-anchor="middle" x="341.5" y="-237" font-family="Helvetica,sans-Serif" font-size="10.00" fill="grey"> &gt;::type &gt;</text>
</g>
<!-- Node2 -->
<g id="Node000002" class="node">
<title>Node2</title>
<g id="a_Node000002"><a xlink:href="structPonca_1_1ComputeObject.html" target="_top" xlink:title=" ">
<polygon fill="white" stroke="transparent" points="188.5,-524 66.5,-524 66.5,-419 188.5,-419 188.5,-524"/>
<text text-anchor="start" x="71.5" y="-511.5" font-family="Helvetica,sans-Serif" font-size="10.00">Ponca::ComputeObject</text>
<text text-anchor="start" x="94" y="-500.5" font-family="Helvetica,sans-Serif" font-size="10.00">&lt; _Derived &gt;</text>
<text text-anchor="start" x="125.5" y="-485.5" font-family="Helvetica,sans-Serif" font-size="10.00"> </text>
<text text-anchor="start" x="73.5" y="-470.5" font-family="Helvetica,sans-Serif" font-size="10.00">+</text>
<text text-anchor="start" x="89.5" y="-470.5" font-family="Helvetica,sans-Serif" font-size="10.00">compute()</text>
<text text-anchor="start" x="73.5" y="-455.5" font-family="Helvetica,sans-Serif" font-size="10.00">+</text>
<text text-anchor="start" x="89.5" y="-455.5" font-family="Helvetica,sans-Serif" font-size="10.00">compute()</text>
<text text-anchor="start" x="73.5" y="-440.5" font-family="Helvetica,sans-Serif" font-size="10.00">+</text>
<text text-anchor="start" x="89.5" y="-440.5" font-family="Helvetica,sans-Serif" font-size="10.00">computeWithIds()</text>
<text text-anchor="start" x="73.5" y="-425.5" font-family="Helvetica,sans-Serif" font-size="10.00">#</text>
<text text-anchor="start" x="89.5" y="-425.5" font-family="Helvetica,sans-Serif" font-size="10.00">derived()</text>
<polygon fill="#666666" stroke="#666666" points="66.5,-495.5 66.5,-495.5 188.5,-495.5 188.5,-495.5 66.5,-495.5"/>
<polygon fill="#666666" stroke="#666666" points="66.5,-480.5 66.5,-480.5 188.5,-480.5 188.5,-480.5 66.5,-480.5"/>
<polygon fill="none" stroke="#666666" points="66.5,-419 66.5,-524 188.5,-524 188.5,-419 66.5,-419"/>
</a>
</g>
</g>
<!-- Node2&#45;&gt;Node1 -->
<g id="edge1_Node000001_Node000002" class="edge">
<title>Node2&#45;&gt;Node1</title>
<g id="a_edge1_Node000001_Node000002"><a xlink:title=" ">
<path fill="none" stroke="#63b8ff" d="M151.38,-409.58C155.07,-400.17 158.78,-390.71 162.17,-382.06"/>
<polygon fill="none" stroke="#63b8ff" points="148.1,-408.35 147.71,-418.94 154.62,-410.9 148.1,-408.35"/>
</a>
</g>
</g>
<!-- Node3 -->
<g id="Node000003" class="node">
<title>Node3</title>
<g id="a_Node000003"><a xlink:href="structPonca_1_1ComputeObject.html" target="_top" xlink:title="ComputeObject is a virtual object that represents an algorithm which can be used with the compute fun...">
<polygon fill="white" stroke="transparent" points="188.5,-676 66.5,-676 66.5,-571 188.5,-571 188.5,-676"/>
<text text-anchor="start" x="71.5" y="-663.5" font-family="Helvetica,sans-Serif" font-size="10.00">Ponca::ComputeObject</text>
<text text-anchor="start" x="97" y="-652.5" font-family="Helvetica,sans-Serif" font-size="10.00">&lt; Derived &gt;</text>
<text text-anchor="start" x="125.5" y="-637.5" font-family="Helvetica,sans-Serif" font-size="10.00"> </text>
<text text-anchor="start" x="73.5" y="-622.5" font-family="Helvetica,sans-Serif" font-size="10.00">+</text>
<text text-anchor="start" x="89.5" y="-622.5" font-family="Helvetica,sans-Serif" font-size="10.00">compute()</text>
<text text-anchor="start" x="73.5" y="-607.5" font-family="Helvetica,sans-Serif" font-size="10.00">+</text>
<text text-anchor="start" x="89.5" y="-607.5" font-family="Helvetica,sans-Serif" font-size="10.00">compute()</text>
<text text-anchor="start" x="73.5" y="-592.5" font-family="Helvetica,sans-Serif" font-size="10.00">+</text>
<text text-anchor="start" x="89.5" y="-592.5" font-family="Helvetica,sans-Serif" font-size="10.00">computeWithIds()</text>
<text text-anchor="start" x="73.5" y="-577.5" font-family="Helvetica,sans-Serif" font-size="10.00">#</text>
<text text-anchor="start" x="89.5" y="-577.5" font-family="Helvetica,sans-Serif" font-size="10.00">derived()</text>
<polygon fill="#666666" stroke="#666666" points="66.5,-647.5 66.5,-647.5 188.5,-647.5 188.5,-647.5 66.5,-647.5"/>
<polygon fill="#666666" stroke="#666666" points="66.5,-632.5 66.5,-632.5 188.5,-632.5 188.5,-632.5 66.5,-632.5"/>
<polygon fill="none" stroke="#666666" points="66.5,-571 66.5,-676 188.5,-676 188.5,-571 66.5,-571"/>
</a>
</g>
</g>
<!-- Node3&#45;&gt;Node2 -->
<g id="edge2_Node000002_Node000003" class="edge">
<title>Node3&#45;&gt;Node2</title>
<g id="a_edge2_Node000002_Node000003"><a xlink:title=" ">
<path fill="none" stroke="orange" d="M127.5,-560.81C127.5,-548.65 127.5,-536.01 127.5,-524.22"/>
<polygon fill="orange" stroke="orange" points="124,-560.88 127.5,-570.88 131,-560.88 124,-560.88"/>
</a>
</g>
<text text-anchor="middle" x="162.5" y="-545" font-family="Helvetica,sans-Serif" font-size="10.00" fill="grey"> &lt; _Derived &gt;</text>
</g>
<!-- Node4 -->
<g id="Node000004" class="node">
<title>Node4</title>
<g id="a_Node000004"><a xlink:title=" ">
<polygon fill="white" stroke="transparent" points="246.5,-496 206.5,-496 206.5,-447 246.5,-447 246.5,-496"/>
<text text-anchor="start" x="211.5" y="-483.5" font-family="Helvetica,sans-Serif" font-size="10.00">_Base</text>
<text text-anchor="start" x="224.5" y="-468.5" font-family="Helvetica,sans-Serif" font-size="10.00"> </text>
<text text-anchor="start" x="224.5" y="-453.5" font-family="Helvetica,sans-Serif" font-size="10.00"> </text>
<polygon fill="#bfbfbf" stroke="#bfbfbf" points="206.5,-478.5 206.5,-478.5 246.5,-478.5 246.5,-478.5 206.5,-478.5"/>
<polygon fill="#bfbfbf" stroke="#bfbfbf" points="206.5,-463.5 206.5,-463.5 246.5,-463.5 246.5,-463.5 206.5,-463.5"/>
<polygon fill="none" stroke="#bfbfbf" points="206.5,-447 206.5,-496 246.5,-496 246.5,-447 206.5,-447"/>
</a>
</g>
</g>
<!-- Node4&#45;&gt;Node1 -->
<g id="edge3_Node000001_Node000004" class="edge">
<title>Node4&#45;&gt;Node1</title>
<g id="a_edge3_Node000001_Node000004"><a xlink:title=" ">
<path fill="none" stroke="#63b8ff" d="M213.29,-437.47C206.48,-420.46 198.17,-399.68 191.17,-382.18"/>
<polygon fill="none" stroke="#63b8ff" points="210.13,-439 217.1,-446.99 216.63,-436.4 210.13,-439"/>
</a>
</g>
</g>
<!-- Node6 -->
<g id="Node000006" class="node">
<title>Node6</title>
<g id="a_Node000006"><a xlink:href="classPonca_1_1Basket.html" target="_top" xlink:title="Aggregator class used to declare specialized structures using CRTP.">
<polygon fill="white" stroke="transparent" points="140,-65.5 21,-65.5 21,-5.5 140,-5.5 140,-65.5"/>
<text text-anchor="start" x="26.5" y="-53.5" font-family="Helvetica,sans-Serif" font-size="10.00">Ponca::Basket&lt; P, NF,</text>
<text text-anchor="start" x="49" y="-42.5" font-family="Helvetica,sans-Serif" font-size="10.00"> Ext0, Exts &gt;</text>
<text text-anchor="start" x="79" y="-27.5" font-family="Helvetica,sans-Serif" font-size="10.00"> </text>
<text text-anchor="start" x="32.5" y="-12.5" font-family="Helvetica,sans-Serif" font-size="10.00">+</text>
<text text-anchor="start" x="52.5" y="-12.5" font-family="Helvetica,sans-Serif" font-size="10.00">addNeighbor()</text>
<polygon fill="#666666" stroke="#666666" points="21.5,-37.5 21.5,-37.5 140.5,-37.5 140.5,-37.5 21.5,-37.5"/>
<polygon fill="#666666" stroke="#666666" points="21.5,-22.5 21.5,-22.5 140.5,-22.5 140.5,-22.5 21.5,-22.5"/>
<polygon fill="none" stroke="#666666" points="21,-5.5 21,-65.5 140,-65.5 140,-5.5 21,-5.5"/>
</a>
</g>
</g>
<!-- Node5&#45;&gt;Node6 -->
<g id="edge5_Node000005_Node000006" class="edge">
<title>Node5&#45;&gt;Node6</title>
<g id="a_edge5_Node000005_Node000006"><a xlink:title=" ">
<path fill="none" stroke="#63b8ff" d="M80.5,-102.93C80.5,-89.98 80.5,-76.78 80.5,-65.6"/>
<polygon fill="none" stroke="#63b8ff" points="77,-103.22 80.5,-113.22 84,-103.22 77,-103.22"/>
</a>
</g>
</g>
<!-- Node8 -->
<g id="Node000008" class="node">
<title>Node8</title>
<g id="a_Node000008"><a xlink:href="classPonca_1_1BasketDiff.html" target="_top" xlink:title="Aggregator class used to declare specialized structures with derivatives computations,...">
<polygon fill="white" stroke="transparent" points="336.5,-71 208.5,-71 208.5,0 336.5,0 336.5,-71"/>
<text text-anchor="start" x="213.5" y="-58.5" font-family="Helvetica,sans-Serif" font-size="10.00">Ponca::BasketDiff&lt;</text>
<text text-anchor="start" x="213.5" y="-47.5" font-family="Helvetica,sans-Serif" font-size="10.00"> BasketType, Type, Ext0,</text>
<text text-anchor="start" x="254.5" y="-36.5" font-family="Helvetica,sans-Serif" font-size="10.00"> Exts &gt;</text>
<text text-anchor="start" x="270.5" y="-21.5" font-family="Helvetica,sans-Serif" font-size="10.00"> </text>
<text text-anchor="start" x="221.5" y="-6.5" font-family="Helvetica,sans-Serif" font-size="10.00">+</text>
<text text-anchor="start" x="243.5" y="-6.5" font-family="Helvetica,sans-Serif" font-size="10.00">addNeighbor()</text>
<polygon fill="#666666" stroke="#666666" points="208.5,-31.5 208.5,-31.5 336.5,-31.5 336.5,-31.5 208.5,-31.5"/>
<polygon fill="#666666" stroke="#666666" points="208.5,-16.5 208.5,-16.5 336.5,-16.5 336.5,-16.5 208.5,-16.5"/>
<polygon fill="none" stroke="#666666" points="208.5,0 208.5,-71 336.5,-71 336.5,0 208.5,0"/>
</a>
</g>
</g>
<!-- Node7&#45;&gt;Node8 -->
<g id="edge7_Node000007_Node000008" class="edge">
<title>Node7&#45;&gt;Node8</title>
<g id="a_edge7_Node000007_Node000008"><a xlink:title=" ">
<path fill="none" stroke="#63b8ff" d="M272.5,-97.58C272.5,-88.46 272.5,-79.39 272.5,-71.12"/>
<polygon fill="none" stroke="#63b8ff" points="269,-97.84 272.5,-107.84 276,-97.84 269,-97.84"/>
</a>
</g>
</g>
</g>
</svg>

<g id="navigator" transform="translate(0 0)" fill="#404254">
  <rect fill="#f2f5e9" fill-opacity="0.5" stroke="#606060" stroke-width=".5" x="0" y="0" width="60" height="60"/>
  <use id="zoomplus" xlink:href="#zoomPlus" x="17" y="9" onmousedown="handleZoom(evt,'in')"/>
  <use id="zoomminus" xlink:href="#zoomMin" x="42" y="9" onmousedown="handleZoom(evt,'out')"/>
  <use id="reset" xlink:href="#resetDef" x="30" y="36" onmousedown="handleReset()"/>
   <use id="arrowup" xlink:href="#arrowUp" x="0" y="0" onmousedown="handlePan(0,-1)"/>
  <use id="arrowright" xlink:href="#arrowRight" x="0" y="0" onmousedown="handlePan(1,0)"/>
  <use id="arrowdown" xlink:href="#arrowDown" x="0" y="0" onmousedown="handlePan(0,1)"/>
  <use id="arrowleft" xlink:href="#arrowLeft" x="0" y="0" onmousedown="handlePan(-1,0)"/>
</g>
<svg viewBox="0 0 15 15" width="100%" height="30px" preserveAspectRatio="xMaxYMin meet">
 <g id="arrow_out" transform="scale(0.3 0.3)">
  <a xlink:href="structPonca_1_1BasketComputeObject__inherit__graph_org.svg" target="_base">
   <rect id="button" ry="5" rx="5" y="6" x="6" height="38" width="38"
        fill="#f2f5e9" fill-opacity="0.5" stroke="#606060" stroke-width="1.0"/>
   <path id="arrow"
     d="M 11.500037,31.436501 C 11.940474,20.09759 22.043105,11.32322 32.158766,21.979434 L 37.068811,17.246167 C 37.068811,17.246167 37.088388,32 37.088388,32 L 22.160133,31.978069 C 22.160133,31.978069 26.997745,27.140456 26.997745,27.140456 C 18.528582,18.264221 13.291696,25.230495 11.500037,31.436501 z"
     style="fill:#404040;"/>
  </a>
 </g>
</svg>

<style type='text/css'>
<![CDATA[
[data-mouse-over-selected='false'] { opacity: 0.7; }
[data-mouse-over-selected='true']  { opacity: 1.0; }
]]>
</style>
<script type="application/ecmascript"><![CDATA[
document.addEventListener('DOMContentLoaded', (event) => {
  highlightEdges();
  highlightAdjacentNodes();
});
]]></script>
</svg>
