<?xml version="1.0" encoding="UTF-8" standalone="no"?>
<!DOCTYPE svg PUBLIC "-//W3C//DTD SVG 1.1//EN"
 "http://www.w3.org/Graphics/SVG/1.1/DTD/svg11.dtd">
<!-- Generated by graphviz version 2.43.0 (0)
 -->
<!-- Title: Ponca::QueryInputIsPosition&lt; DataPoint &gt; Pages: 1 -->
<svg width="254pt" height="438pt"
 viewBox="0.00 0.00 253.50 438.00" xmlns="http://www.w3.org/2000/svg" xmlns:xlink="http://www.w3.org/1999/xlink">
<g id="graph0" class="graph" transform="scale(1 1) rotate(0) translate(4 434)">
<title>Ponca::QueryInputIsPosition&lt; DataPoint &gt;</title>
<polygon fill="white" stroke="transparent" points="-4,4 -4,-434 249.5,-434 249.5,4 -4,4"/>
<!-- Node1 -->
<g id="node1" class="node">
<title>Node1</title>
<g id="a_node1"><a xlink:title="Base class for queries storing points.">
<polygon fill="#bfbfbf" stroke="black" points="0,-0.5 0,-68.5 153,-68.5 153,-0.5 0,-0.5"/>
<text text-anchor="start" x="8" y="-56.5" font-family="Helvetica,sans-Serif" font-size="10.00">Ponca::QueryInputIsPosition</text>
<text text-anchor="middle" x="76.5" y="-45.5" font-family="Helvetica,sans-Serif" font-size="10.00">&lt; DataPoint &gt;</text>
<polyline fill="none" stroke="black" points="0,-38.5 153,-38.5 "/>
<text text-anchor="middle" x="76.5" y="-26.5" font-family="Helvetica,sans-Serif" font-size="10.00"> </text>
<polyline fill="none" stroke="black" points="0,-19.5 153,-19.5 "/>
<text text-anchor="start" x="8" y="-7.5" font-family="Helvetica,sans-Serif" font-size="10.00">+ QueryInputIsPosition()</text>
</a>
</g>
</g>
<!-- Node2 -->
<g id="node2" class="node">
<title>Node2</title>
<g id="a_node2"><a xlink:href="structPonca_1_1QueryInput.html" target="_top" xlink:title=" ">
<polygon fill="white" stroke="black" points="7.5,-106.5 7.5,-196.5 145.5,-196.5 145.5,-106.5 7.5,-106.5"/>
<text text-anchor="start" x="15.5" y="-184.5" font-family="Helvetica,sans-Serif" font-size="10.00">Ponca::QueryInput&lt;</text>
<text text-anchor="middle" x="76.5" y="-173.5" font-family="Helvetica,sans-Serif" font-size="10.00"> DataPoint::VectorType &gt;</text>
<polyline fill="none" stroke="black" points="7.5,-166.5 145.5,-166.5 "/>
<text text-anchor="middle" x="76.5" y="-154.5" font-family="Helvetica,sans-Serif" font-size="10.00"> </text>
<polyline fill="none" stroke="black" points="7.5,-147.5 145.5,-147.5 "/>
<text text-anchor="start" x="15.5" y="-135.5" font-family="Helvetica,sans-Serif" font-size="10.00">+ QueryInput()</text>
<text text-anchor="start" x="15.5" y="-124.5" font-family="Helvetica,sans-Serif" font-size="10.00">+ input()</text>
<text text-anchor="start" x="15.5" y="-113.5" font-family="Helvetica,sans-Serif" font-size="10.00"># editInput()</text>
</a>
</g>
</g>
<!-- Node2&#45;&gt;Node1 -->
<g id="edge1" class="edge">
<title>Node2&#45;&gt;Node1</title>
<path fill="none" stroke="midnightblue" d="M76.5,-96.23C76.5,-86.8 76.5,-77.26 76.5,-68.62"/>
<polygon fill="none" stroke="midnightblue" points="73,-96.37 76.5,-106.37 80,-96.37 73,-96.37"/>
</g>
<!-- Node3 -->
<g id="node3" class="node">
<title>Node3</title>
<g id="a_node3"><a xlink:href="structPonca_1_1QueryInputBase.html" target="_top" xlink:title="Base class for queries input type.">
<polygon fill="white" stroke="black" points="7.5,-372.5 7.5,-429.5 137.5,-429.5 137.5,-372.5 7.5,-372.5"/>
<text text-anchor="middle" x="72.5" y="-417.5" font-family="Helvetica,sans-Serif" font-size="10.00">Ponca::QueryInputBase</text>
<polyline fill="none" stroke="black" points="7.5,-410.5 137.5,-410.5 "/>
<text text-anchor="middle" x="72.5" y="-398.5" font-family="Helvetica,sans-Serif" font-size="10.00"> </text>
<polyline fill="none" stroke="black" points="7.5,-391.5 137.5,-391.5 "/>
<text text-anchor="middle" x="72.5" y="-379.5" font-family="Helvetica,sans-Serif" font-size="10.00"> </text>
</a>
</g>
</g>
<!-- Node3&#45;&gt;Node2 -->
<g id="edge2" class="edge">
<title>Node3&#45;&gt;Node2</title>
<path fill="none" stroke="midnightblue" d="M73.11,-361.96C73.84,-317.36 75.03,-243.58 75.79,-196.54"/>
<polygon fill="none" stroke="midnightblue" points="69.61,-362.03 72.95,-372.09 76.61,-362.15 69.61,-362.03"/>
</g>
<!-- Node4 -->
<g id="node4" class="node">
<title>Node4</title>
<g id="a_node4"><a xlink:href="structPonca_1_1QueryInput.html" target="_top" xlink:title="Base class for typed queries input type.">
<polygon fill="white" stroke="black" points="88.5,-244.5 88.5,-334.5 202.5,-334.5 202.5,-244.5 88.5,-244.5"/>
<text text-anchor="start" x="96.5" y="-322.5" font-family="Helvetica,sans-Serif" font-size="10.00">Ponca::QueryInput&lt;</text>
<text text-anchor="middle" x="145.5" y="-311.5" font-family="Helvetica,sans-Serif" font-size="10.00"> InputType_ &gt;</text>
<polyline fill="none" stroke="black" points="88.5,-304.5 202.5,-304.5 "/>
<text text-anchor="middle" x="145.5" y="-292.5" font-family="Helvetica,sans-Serif" font-size="10.00"> </text>
<polyline fill="none" stroke="black" points="88.5,-285.5 202.5,-285.5 "/>
<text text-anchor="start" x="96.5" y="-273.5" font-family="Helvetica,sans-Serif" font-size="10.00">+ QueryInput()</text>
<text text-anchor="start" x="96.5" y="-262.5" font-family="Helvetica,sans-Serif" font-size="10.00">+ input()</text>
<text text-anchor="start" x="96.5" y="-251.5" font-family="Helvetica,sans-Serif" font-size="10.00"># editInput()</text>
</a>
</g>
</g>
<!-- Node3&#45;&gt;Node4 -->
<g id="edge4" class="edge">
<title>Node3&#45;&gt;Node4</title>
<path fill="none" stroke="midnightblue" d="M96.47,-364.04C102.72,-354.68 109.51,-344.48 116.01,-334.74"/>
<polygon fill="none" stroke="midnightblue" points="93.56,-362.11 90.92,-372.37 99.38,-365.99 93.56,-362.11"/>
</g>
<!-- Node4&#45;&gt;Node2 -->
<g id="edge3" class="edge">
<title>Node4&#45;&gt;Node2</title>
<path fill="none" stroke="orange" d="M118.49,-235.26C112.05,-222.56 105.24,-209.15 99.03,-196.9"/>
<polygon fill="orange" stroke="orange" points="115.45,-237.01 123.1,-244.34 121.69,-233.84 115.45,-237.01"/>
<text text-anchor="middle" x="179" y="-218" font-family="Helvetica,sans-Serif" font-size="10.00"> &lt; DataPoint::VectorType &gt;</text>
</g>
</g>
</svg>
