<?xml version="1.0" encoding="UTF-8" standalone="no"?>
<!DOCTYPE svg PUBLIC "-//W3C//DTD SVG 1.1//EN"
 "http://www.w3.org/Graphics/SVG/1.1/DTD/svg11.dtd">
<!-- Generated by graphviz version 2.43.0 (0)
 -->
<!-- Title: Ponca::internal::HexagramBase&lt; P &gt; Pages: 1 -->
<svg width="442pt" height="164pt"
 viewBox="0.00 0.00 442.00 164.00" xmlns="http://www.w3.org/2000/svg" xmlns:xlink="http://www.w3.org/1999/xlink">
<g id="graph0" class="graph" transform="scale(1 1) rotate(0) translate(4 160)">
<title>Ponca::internal::HexagramBase&lt; P &gt;</title>
<!-- Node1 -->
<g id="Node000001" class="node">
<title>Node1</title>
<g id="a_Node000001"><a xlink:title=" ">
<polygon fill="#999999" stroke="transparent" points="291.5,-156 151.5,-156 151.5,-96 291.5,-96 291.5,-156"/>
<text text-anchor="start" x="156.5" y="-144" font-family="Helvetica,sans-Serif" font-size="10.00">Ponca::internal::Hexagram</text>
<text text-anchor="start" x="195" y="-133" font-family="Helvetica,sans-Serif" font-size="10.00">Base&lt; P &gt;</text>
<text text-anchor="start" x="164" y="-118" font-family="Helvetica,sans-Serif" font-size="10.00">+</text>
<text text-anchor="start" x="185.5" y="-118" font-family="Helvetica,sans-Serif" font-size="10.00">avg_normal_coef</text>
<text text-anchor="start" x="219.5" y="-103" font-family="Helvetica,sans-Serif" font-size="10.00"> </text>
<polygon fill="#666666" stroke="#666666" points="151.5,-128 151.5,-128 291.5,-128 291.5,-128 151.5,-128"/>
<polygon fill="#666666" stroke="#666666" points="151.5,-113 151.5,-113 183.5,-113 183.5,-113 151.5,-113"/>
<polygon fill="#666666" stroke="#666666" points="183.5,-113 183.5,-113 291.5,-113 291.5,-113 183.5,-113"/>
<polygon fill="none" stroke="#666666" points="151.5,-96 151.5,-156 291.5,-156 291.5,-96 151.5,-96"/>
</a>
</g>
</g>
<!-- Node2 -->
<g id="Node000002" class="node">
<title>Node2</title>
<g id="a_Node000002"><a xlink:href="structPonca_1_1internal_1_1TriangleGenerator_3_01AvgHexagramGeneration_00_01P_01_4.html" target="_top" xlink:title=" ">
<polygon fill="white" stroke="transparent" points="217,-60 0,-60 0,0 217,0 217,-60"/>
<text text-anchor="start" x="5.5" y="-48" font-family="Helvetica,sans-Serif" font-size="10.00">Ponca::internal::Triangle</text>
<text text-anchor="start" x="5.5" y="-37" font-family="Helvetica,sans-Serif" font-size="10.00">Generator&lt; AvgHexagramGeneration, P &gt;</text>
<text text-anchor="start" x="107" y="-22" font-family="Helvetica,sans-Serif" font-size="10.00"> </text>
<text text-anchor="start" x="40.5" y="-7" font-family="Helvetica,sans-Serif" font-size="10.00">+</text>
<text text-anchor="start" x="89.5" y="-7" font-family="Helvetica,sans-Serif" font-size="10.00">generate()</text>
<polygon fill="#666666" stroke="#666666" points="0.5,-32 0.5,-32 217.5,-32 217.5,-32 0.5,-32"/>
<polygon fill="#666666" stroke="#666666" points="0.5,-17 0.5,-17 217.5,-17 217.5,-17 0.5,-17"/>
<polygon fill="none" stroke="#666666" points="0,0 0,-60 217,-60 217,0 0,0"/>
</a>
</g>
</g>
<!-- Node1&#45;&gt;Node2 -->
<g id="edge1_Node000001_Node000002" class="edge">
<title>Node1&#45;&gt;Node2</title>
<g id="a_edge1_Node000001_Node000002"><a xlink:title=" ">
<path fill="none" stroke="darkgreen" d="M178.53,-89.26C167,-79.66 154.67,-69.4 143.61,-60.21"/>
<polygon fill="none" stroke="darkgreen" points="176.44,-92.07 186.37,-95.77 180.92,-86.69 176.44,-92.07"/>
</a>
</g>
</g>
<!-- Node3 -->
<g id="Node000003" class="node">
<title>Node3</title>
<g id="a_Node000003"><a xlink:href="structPonca_1_1internal_1_1TriangleGenerator_3_01HexagramGeneration_00_01P_01_4.html" target="_top" xlink:title=" ">
<polygon fill="white" stroke="transparent" points="434,-60 235,-60 235,0 434,0 434,-60"/>
<text text-anchor="start" x="240.5" y="-48" font-family="Helvetica,sans-Serif" font-size="10.00">Ponca::internal::Triangle</text>
<text text-anchor="start" x="240.5" y="-37" font-family="Helvetica,sans-Serif" font-size="10.00">Generator&lt; HexagramGeneration, P &gt;</text>
<text text-anchor="start" x="333" y="-22" font-family="Helvetica,sans-Serif" font-size="10.00"> </text>
<text text-anchor="start" x="271" y="-7" font-family="Helvetica,sans-Serif" font-size="10.00">+</text>
<text text-anchor="start" x="315.5" y="-7" font-family="Helvetica,sans-Serif" font-size="10.00">generate()</text>
<polygon fill="#666666" stroke="#666666" points="235.5,-32 235.5,-32 434.5,-32 434.5,-32 235.5,-32"/>
<polygon fill="#666666" stroke="#666666" points="235.5,-17 235.5,-17 434.5,-17 434.5,-17 235.5,-17"/>
<polygon fill="none" stroke="#666666" points="235,0 235,-60 434,-60 434,0 235,0"/>
</a>
</g>
</g>
<!-- Node1&#45;&gt;Node3 -->
<g id="edge2_Node000001_Node000003" class="edge">
<title>Node1&#45;&gt;Node3</title>
<g id="a_edge2_Node000001_Node000003"><a xlink:title=" ">
<path fill="none" stroke="darkgreen" d="M264.47,-89.26C276,-79.66 288.33,-69.4 299.39,-60.21"/>
<polygon fill="none" stroke="darkgreen" points="262.08,-86.69 256.63,-95.77 266.56,-92.07 262.08,-86.69"/>
</a>
</g>
</g>
</g>
</svg>
