<?xml version="1.0" encoding="UTF-8" standalone="no"?>
<!DOCTYPE svg PUBLIC "-//W3C//DTD SVG 1.1//EN"
 "http://www.w3.org/Graphics/SVG/1.1/DTD/svg11.dtd">
<!-- Generated by graphviz version 2.43.0 (0)
 -->
<!-- Title: Ponca::Query&lt; Input_, Output_ &gt; Pages: 1 -->
<!--zoomable 759 -->
<svg id="main" version="1.1" xmlns="http://www.w3.org/2000/svg" xmlns:xlink="http://www.w3.org/1999/xlink" xml:space="preserve" onload="init(evt)">
<style type="text/css"><![CDATA[
.edge:hover path { stroke: red; }
.edge:hover polygon { stroke: red; fill: red; }
]]></style>
<script type="text/javascript"><![CDATA[
var edges = document.getElementsByTagName('g');
if (edges && edges.length) {
  for (var i=0;i<edges.length;i++) {
    if (edges[i].id.substr(0,4)=='edge') {
      edges[i].setAttribute('class','edge');
    }
  }
}
]]></script>
        <defs>
                <circle id="rim" cx="0" cy="0" r="7"/>
                <circle id="rim2" cx="0" cy="0" r="3.5"/>
                <g id="zoomPlus">
                        <use xlink:href="#rim" fill="#404040">
                                <set attributeName="fill" to="#808080" begin="zoomplus.mouseover" end="zoomplus.mouseout"/>
                        </use>
                        <path d="M-4,0h8M0,-4v8" fill="none" stroke="white" stroke-width="1.5" pointer-events="none"/>
                </g>
                <g id="zoomMin">
                        <use xlink:href="#rim" fill="#404040">
                                <set attributeName="fill" to="#808080" begin="zoomminus.mouseover" end="zoomminus.mouseout"/>
                        </use>
                        <path d="M-4,0h8" fill="none" stroke="white" stroke-width="1.5" pointer-events="none"/>
                </g>
                <g id="dirArrow">
                        <path fill="none" stroke="white" stroke-width="1.5" d="M0,-3.0v7 M-2.5,-0.5L0,-3.0L2.5,-0.5"/>
                </g>
               <g id="resetDef">
                       <use xlink:href="#rim2" fill="#404040">
                               <set attributeName="fill" to="#808080" begin="reset.mouseover" end="reset.mouseout"/>
                       </use>
               </g>
        </defs>

<script type="text/javascript">
var viewWidth = 1769;
var viewHeight = 759;
var sectionId = 'dynsection-17';
</script>
<script xlink:href="svgpan.js"/>
<svg id="graph" class="graph">
<g id="viewport">
<title>Ponca::Query&lt; Input_, Output_ &gt;</title>
<!-- Node1 -->
<g id="node1" class="node">
<title>Node1</title>
<g id="a_node1"><a xlink:title=" ">
<polygon fill="#999999" stroke="#666666" points="765,-576.5 765,-655.5 882,-655.5 882,-576.5 765,-576.5"/>
<text text-anchor="start" x="773" y="-643.5" font-family="Helvetica,sans-Serif" font-size="10.00">Ponca::Query&lt; Input</text>
<text text-anchor="middle" x="823.5" y="-632.5" font-family="Helvetica,sans-Serif" font-size="10.00">_, Output_ &gt;</text>
<polyline fill="none" stroke="#666666" points="765,-625.5 882,-625.5 "/>
<text text-anchor="middle" x="823.5" y="-613.5" font-family="Helvetica,sans-Serif" font-size="10.00"> </text>
<polyline fill="none" stroke="#666666" points="765,-606.5 882,-606.5 "/>
<text text-anchor="start" x="773" y="-594.5" font-family="Helvetica,sans-Serif" font-size="10.00">+ Query()</text>
<text text-anchor="start" x="773" y="-583.5" font-family="Helvetica,sans-Serif" font-size="10.00">+ Query()</text>
</a>
</g>
</g>
<!-- Node4 -->
<g id="node4" class="node">
<title>Node4</title>
<g id="a_node4"><a xlink:href="group__spatialpartitioning.html" target="_top" xlink:title=" ">
<polygon fill="white" stroke="#666666" points="45,-167 45,-235 198,-235 198,-167 45,-167"/>
<text text-anchor="start" x="53" y="-223" font-family="Helvetica,sans-Serif" font-size="10.00">Ponca::KNearestIndexQuery</text>
<text text-anchor="middle" x="121.5" y="-212" font-family="Helvetica,sans-Serif" font-size="10.00">&lt; DataPoint::Scalar &gt;</text>
<polyline fill="none" stroke="#666666" points="45,-205 198,-205 "/>
<text text-anchor="middle" x="121.5" y="-193" font-family="Helvetica,sans-Serif" font-size="10.00"> </text>
<polyline fill="none" stroke="#666666" points="45,-186 198,-186 "/>
<text text-anchor="middle" x="121.5" y="-174" font-family="Helvetica,sans-Serif" font-size="10.00"> </text>
</a>
</g>
</g>
<!-- Node1&#45;&gt;Node4 -->
<g id="edge3" class="edge">
<title>Node1&#45;&gt;Node4</title>
<path fill="none" stroke="#63b8ff" d="M754.61,-612C632.79,-605.94 384.66,-590.02 304.5,-558 269.75,-544.12 256.33,-539.34 237.5,-507 184.03,-415.14 257.6,-362.65 205.5,-270 198.05,-256.75 186.91,-245.08 175.15,-235.31"/>
<polygon fill="none" stroke="#63b8ff" points="754.77,-615.51 764.93,-612.5 755.11,-608.52 754.77,-615.51"/>
</g>
<!-- Node6 -->
<g id="node6" class="node">
<title>Node6</title>
<g id="a_node6"><a xlink:href="group__spatialpartitioning.html" target="_top" xlink:title=" ">
<polygon fill="white" stroke="#666666" points="278.5,-167 278.5,-235 424.5,-235 424.5,-167 278.5,-167"/>
<text text-anchor="start" x="286.5" y="-223" font-family="Helvetica,sans-Serif" font-size="10.00">Ponca::NearestIndexQuery</text>
<text text-anchor="middle" x="351.5" y="-212" font-family="Helvetica,sans-Serif" font-size="10.00">&lt; DataPoint::Scalar &gt;</text>
<polyline fill="none" stroke="#666666" points="278.5,-205 424.5,-205 "/>
<text text-anchor="middle" x="351.5" y="-193" font-family="Helvetica,sans-Serif" font-size="10.00"> </text>
<polyline fill="none" stroke="#666666" points="278.5,-186 424.5,-186 "/>
<text text-anchor="middle" x="351.5" y="-174" font-family="Helvetica,sans-Serif" font-size="10.00"> </text>
</a>
</g>
</g>
<!-- Node1&#45;&gt;Node6 -->
<g id="edge5" class="edge">
<title>Node1&#45;&gt;Node6</title>
<path fill="none" stroke="#63b8ff" d="M754.75,-609.01C695.58,-602.06 608.88,-587.53 538.5,-558 501.33,-542.4 484.7,-541.28 463.5,-507 407.59,-416.6 482.48,-363.26 431.5,-270 424.24,-256.72 413.28,-244.91 401.78,-235"/>
<polygon fill="none" stroke="#63b8ff" points="754.4,-612.49 764.73,-610.14 755.19,-605.54 754.4,-612.49"/>
</g>
<!-- Node8 -->
<g id="node8" class="node">
<title>Node8</title>
<g id="a_node8"><a xlink:href="group__spatialpartitioning.html" target="_top" xlink:title=" ">
<polygon fill="white" stroke="#666666" points="1166,-167 1166,-235 1305,-235 1305,-167 1166,-167"/>
<text text-anchor="start" x="1174" y="-223" font-family="Helvetica,sans-Serif" font-size="10.00">Ponca::RangeIndexQuery</text>
<text text-anchor="middle" x="1235.5" y="-212" font-family="Helvetica,sans-Serif" font-size="10.00">&lt; DataPoint::Scalar &gt;</text>
<polyline fill="none" stroke="#666666" points="1166,-205 1305,-205 "/>
<text text-anchor="middle" x="1235.5" y="-193" font-family="Helvetica,sans-Serif" font-size="10.00"> </text>
<polyline fill="none" stroke="#666666" points="1166,-186 1305,-186 "/>
<text text-anchor="middle" x="1235.5" y="-174" font-family="Helvetica,sans-Serif" font-size="10.00"> </text>
</a>
</g>
</g>
<!-- Node1&#45;&gt;Node8 -->
<g id="edge7" class="edge">
<title>Node1&#45;&gt;Node8</title>
<path fill="none" stroke="#63b8ff" d="M892.12,-610.25C976.92,-603.2 1115.07,-587.52 1156.5,-558 1177.56,-542.99 1176.03,-531.43 1184.5,-507 1201.83,-457.04 1222.69,-303.36 1231.38,-235.17"/>
<polygon fill="none" stroke="#63b8ff" points="891.74,-606.77 882.06,-611.07 892.31,-613.75 891.74,-606.77"/>
</g>
<!-- Node10 -->
<g id="node10" class="node">
<title>Node10</title>
<g id="a_node10"><a xlink:href="group__spatialpartitioning.html" target="_top" xlink:title=" ">
<polygon fill="white" stroke="#bfbfbf" points="0,-411 0,-501 173,-501 173,-411 0,-411"/>
<text text-anchor="start" x="8" y="-489" font-family="Helvetica,sans-Serif" font-size="10.00">Ponca::Query&lt; QueryInput</text>
<text text-anchor="start" x="8" y="-478" font-family="Helvetica,sans-Serif" font-size="10.00">IsIndex, QueryOutputIsKNearest</text>
<text text-anchor="middle" x="86.5" y="-467" font-family="Helvetica,sans-Serif" font-size="10.00">&lt; Scalar &gt; &gt;</text>
<polyline fill="none" stroke="#bfbfbf" points="0,-460 173,-460 "/>
<text text-anchor="middle" x="86.5" y="-448" font-family="Helvetica,sans-Serif" font-size="10.00"> </text>
<polyline fill="none" stroke="#bfbfbf" points="0,-441 173,-441 "/>
<text text-anchor="start" x="8" y="-429" font-family="Helvetica,sans-Serif" font-size="10.00">+ Query()</text>
<text text-anchor="start" x="8" y="-418" font-family="Helvetica,sans-Serif" font-size="10.00">+ Query()</text>
</a>
</g>
</g>
<!-- Node1&#45;&gt;Node10 -->
<g id="edge9" class="edge">
<title>Node1&#45;&gt;Node10</title>
<path fill="none" stroke="orange" d="M754.71,-614.87C580.28,-613.84 131.35,-606.45 86.5,-558 72.68,-543.07 71.39,-520.94 74.1,-501.19"/>
<polygon fill="orange" stroke="orange" points="754.78,-618.37 764.8,-614.93 754.82,-611.37 754.78,-618.37"/>
<text text-anchor="start" x="86.5" y="-550" font-family="Helvetica,sans-Serif" font-size="10.00"> &lt; QueryInputIsIndex,</text>
<text text-anchor="start" x="86.5" y="-539" font-family="Helvetica,sans-Serif" font-size="10.00"> QueryOutputIsKNearest</text>
<text text-anchor="middle" x="146" y="-528" font-family="Helvetica,sans-Serif" font-size="10.00">&lt; Scalar &gt; &gt;</text>
</g>
<!-- Node12 -->
<g id="node12" class="node">
<title>Node12</title>
<g id="a_node12"><a xlink:href="group__spatialpartitioning.html" target="_top" xlink:title=" ">
<polygon fill="white" stroke="#bfbfbf" points="473,-405.5 473,-506.5 622,-506.5 622,-405.5 473,-405.5"/>
<text text-anchor="start" x="481" y="-494.5" font-family="Helvetica,sans-Serif" font-size="10.00">Ponca::Query&lt; QueryInput</text>
<text text-anchor="start" x="481" y="-483.5" font-family="Helvetica,sans-Serif" font-size="10.00">IsPosition&lt; DataPoint</text>
<text text-anchor="start" x="481" y="-472.5" font-family="Helvetica,sans-Serif" font-size="10.00"> &gt;, QueryOutputIsKNearest</text>
<text text-anchor="middle" x="547.5" y="-461.5" font-family="Helvetica,sans-Serif" font-size="10.00">&lt; DataPoint::Scalar &gt; &gt;</text>
<polyline fill="none" stroke="#bfbfbf" points="473,-454.5 622,-454.5 "/>
<text text-anchor="middle" x="547.5" y="-442.5" font-family="Helvetica,sans-Serif" font-size="10.00"> </text>
<polyline fill="none" stroke="#bfbfbf" points="473,-435.5 622,-435.5 "/>
<text text-anchor="start" x="481" y="-423.5" font-family="Helvetica,sans-Serif" font-size="10.00">+ Query()</text>
<text text-anchor="start" x="481" y="-412.5" font-family="Helvetica,sans-Serif" font-size="10.00">+ Query()</text>
</a>
</g>
</g>
<!-- Node1&#45;&gt;Node12 -->
<g id="edge12" class="edge">
<title>Node1&#45;&gt;Node12</title>
<path fill="none" stroke="orange" d="M754.74,-609.47C684.52,-602.3 582.25,-587.09 556.5,-558 544.25,-544.16 540.53,-524.68 540.41,-506.52"/>
<polygon fill="orange" stroke="orange" points="754.56,-612.97 764.85,-610.47 755.25,-606.01 754.56,-612.97"/>
<text text-anchor="start" x="556.5" y="-550" font-family="Helvetica,sans-Serif" font-size="10.00"> &lt; QueryInputIsPosition</text>
<text text-anchor="start" x="556.5" y="-539" font-family="Helvetica,sans-Serif" font-size="10.00">&lt; DataPoint &gt;, QueryOutputIs</text>
<text text-anchor="middle" x="638" y="-528" font-family="Helvetica,sans-Serif" font-size="10.00">KNearest&lt; DataPoint::Scalar &gt; &gt;</text>
</g>
<!-- Node15 -->
<g id="node15" class="node">
<title>Node15</title>
<g id="a_node15"><a xlink:href="group__spatialpartitioning.html" target="_top" xlink:title=" ">
<polygon fill="white" stroke="#bfbfbf" points="640,-411 640,-501 813,-501 813,-411 640,-411"/>
<text text-anchor="start" x="648" y="-489" font-family="Helvetica,sans-Serif" font-size="10.00">Ponca::Query&lt; QueryInput</text>
<text text-anchor="start" x="648" y="-478" font-family="Helvetica,sans-Serif" font-size="10.00">IsIndex, QueryOutputIsKNearest</text>
<text text-anchor="middle" x="726.5" y="-467" font-family="Helvetica,sans-Serif" font-size="10.00">&lt; DataPoint::Scalar &gt; &gt;</text>
<polyline fill="none" stroke="#bfbfbf" points="640,-460 813,-460 "/>
<text text-anchor="middle" x="726.5" y="-448" font-family="Helvetica,sans-Serif" font-size="10.00"> </text>
<polyline fill="none" stroke="#bfbfbf" points="640,-441 813,-441 "/>
<text text-anchor="start" x="648" y="-429" font-family="Helvetica,sans-Serif" font-size="10.00">+ Query()</text>
<text text-anchor="start" x="648" y="-418" font-family="Helvetica,sans-Serif" font-size="10.00">+ Query()</text>
</a>
</g>
</g>
<!-- Node1&#45;&gt;Node15 -->
<g id="edge15" class="edge">
<title>Node1&#45;&gt;Node15</title>
<path fill="none" stroke="orange" d="M756.5,-583.07C747.44,-576.03 739.29,-567.71 733.5,-558 723.46,-541.17 720.84,-519.84 721.08,-501.12"/>
<polygon fill="orange" stroke="orange" points="754.49,-585.94 764.65,-588.93 758.58,-580.25 754.49,-585.94"/>
<text text-anchor="start" x="733.5" y="-550" font-family="Helvetica,sans-Serif" font-size="10.00"> &lt; QueryInputIsIndex,</text>
<text text-anchor="start" x="733.5" y="-539" font-family="Helvetica,sans-Serif" font-size="10.00"> QueryOutputIsKNearest</text>
<text text-anchor="middle" x="793" y="-528" font-family="Helvetica,sans-Serif" font-size="10.00">&lt; DataPoint::Scalar &gt; &gt;</text>
</g>
<!-- Node16 -->
<g id="node16" class="node">
<title>Node16</title>
<g id="a_node16"><a xlink:href="group__spatialpartitioning.html" target="_top" xlink:title=" ">
<polygon fill="white" stroke="#bfbfbf" points="831,-411 831,-501 998,-501 998,-411 831,-411"/>
<text text-anchor="start" x="839" y="-489" font-family="Helvetica,sans-Serif" font-size="10.00">Ponca::Query&lt; QueryInput</text>
<text text-anchor="start" x="839" y="-478" font-family="Helvetica,sans-Serif" font-size="10.00">IsIndex, QueryOutputIsNearest</text>
<text text-anchor="middle" x="914.5" y="-467" font-family="Helvetica,sans-Serif" font-size="10.00">&lt; DataPoint::Scalar &gt; &gt;</text>
<polyline fill="none" stroke="#bfbfbf" points="831,-460 998,-460 "/>
<text text-anchor="middle" x="914.5" y="-448" font-family="Helvetica,sans-Serif" font-size="10.00"> </text>
<polyline fill="none" stroke="#bfbfbf" points="831,-441 998,-441 "/>
<text text-anchor="start" x="839" y="-429" font-family="Helvetica,sans-Serif" font-size="10.00">+ Query()</text>
<text text-anchor="start" x="839" y="-418" font-family="Helvetica,sans-Serif" font-size="10.00">+ Query()</text>
</a>
</g>
</g>
<!-- Node1&#45;&gt;Node16 -->
<g id="edge16" class="edge">
<title>Node1&#45;&gt;Node16</title>
<path fill="none" stroke="orange" d="M850.91,-567.69C852.8,-564.41 854.68,-561.16 856.5,-558 867.21,-539.43 878.99,-518.92 889.12,-501.27"/>
<polygon fill="orange" stroke="orange" points="847.86,-565.97 845.88,-576.38 853.92,-569.47 847.86,-565.97"/>
<text text-anchor="start" x="873.5" y="-550" font-family="Helvetica,sans-Serif" font-size="10.00"> &lt; QueryInputIsIndex,</text>
<text text-anchor="start" x="873.5" y="-539" font-family="Helvetica,sans-Serif" font-size="10.00"> QueryOutputIsNearest</text>
<text text-anchor="middle" x="932.5" y="-528" font-family="Helvetica,sans-Serif" font-size="10.00">&lt; DataPoint::Scalar &gt; &gt;</text>
</g>
<!-- Node17 -->
<g id="node17" class="node">
<title>Node17</title>
<g id="a_node17"><a xlink:href="group__spatialpartitioning.html" target="_top" xlink:title=" ">
<polygon fill="white" stroke="#bfbfbf" points="1016,-411 1016,-501 1175,-501 1175,-411 1016,-411"/>
<text text-anchor="start" x="1024" y="-489" font-family="Helvetica,sans-Serif" font-size="10.00">Ponca::Query&lt; QueryInput</text>
<text text-anchor="start" x="1024" y="-478" font-family="Helvetica,sans-Serif" font-size="10.00">IsIndex, QueryOutputIsRange</text>
<text text-anchor="middle" x="1095.5" y="-467" font-family="Helvetica,sans-Serif" font-size="10.00">&lt; DataPoint::Scalar &gt; &gt;</text>
<polyline fill="none" stroke="#bfbfbf" points="1016,-460 1175,-460 "/>
<text text-anchor="middle" x="1095.5" y="-448" font-family="Helvetica,sans-Serif" font-size="10.00"> </text>
<polyline fill="none" stroke="#bfbfbf" points="1016,-441 1175,-441 "/>
<text text-anchor="start" x="1024" y="-429" font-family="Helvetica,sans-Serif" font-size="10.00">+ Query()</text>
<text text-anchor="start" x="1024" y="-418" font-family="Helvetica,sans-Serif" font-size="10.00">+ Query()</text>
</a>
</g>
</g>
<!-- Node1&#45;&gt;Node17 -->
<g id="edge17" class="edge">
<title>Node1&#45;&gt;Node17</title>
<path fill="none" stroke="orange" d="M892.21,-600.18C925.07,-591.16 964.01,-577.54 995.5,-558 1019.82,-542.91 1042.64,-520.76 1060.31,-501.04"/>
<polygon fill="orange" stroke="orange" points="890.99,-596.88 882.23,-602.83 892.79,-603.65 890.99,-596.88"/>
<text text-anchor="start" x="1034.5" y="-550" font-family="Helvetica,sans-Serif" font-size="10.00"> &lt; QueryInputIsIndex,</text>
<text text-anchor="start" x="1034.5" y="-539" font-family="Helvetica,sans-Serif" font-size="10.00"> QueryOutputIsRange</text>
<text text-anchor="middle" x="1093.5" y="-528" font-family="Helvetica,sans-Serif" font-size="10.00">&lt; DataPoint::Scalar &gt; &gt;</text>
</g>
<!-- Node18 -->
<g id="node18" class="node">
<title>Node18</title>
<g id="a_node18"><a xlink:href="group__spatialpartitioning.html" target="_top" xlink:title=" ">
<polygon fill="white" stroke="#bfbfbf" points="247,-411 247,-501 414,-501 414,-411 247,-411"/>
<text text-anchor="start" x="255" y="-489" font-family="Helvetica,sans-Serif" font-size="10.00">Ponca::Query&lt; QueryInput</text>
<text text-anchor="start" x="255" y="-478" font-family="Helvetica,sans-Serif" font-size="10.00">IsIndex, QueryOutputIsNearest</text>
<text text-anchor="middle" x="330.5" y="-467" font-family="Helvetica,sans-Serif" font-size="10.00">&lt; Scalar &gt; &gt;</text>
<polyline fill="none" stroke="#bfbfbf" points="247,-460 414,-460 "/>
<text text-anchor="middle" x="330.5" y="-448" font-family="Helvetica,sans-Serif" font-size="10.00"> </text>
<polyline fill="none" stroke="#bfbfbf" points="247,-441 414,-441 "/>
<text text-anchor="start" x="255" y="-429" font-family="Helvetica,sans-Serif" font-size="10.00">+ Query()</text>
<text text-anchor="start" x="255" y="-418" font-family="Helvetica,sans-Serif" font-size="10.00">+ Query()</text>
</a>
</g>
</g>
<!-- Node1&#45;&gt;Node18 -->
<g id="edge18" class="edge">
<title>Node1&#45;&gt;Node18</title>
<path fill="none" stroke="orange" d="M754.63,-612.22C623.4,-606.2 347.99,-589.89 319.5,-558 305.93,-542.81 306.84,-520.76 311.93,-501.14"/>
<polygon fill="orange" stroke="orange" points="754.82,-615.73 764.96,-612.68 755.13,-608.74 754.82,-615.73"/>
<text text-anchor="start" x="319.5" y="-550" font-family="Helvetica,sans-Serif" font-size="10.00"> &lt; QueryInputIsIndex,</text>
<text text-anchor="start" x="319.5" y="-539" font-family="Helvetica,sans-Serif" font-size="10.00"> QueryOutputIsNearest</text>
<text text-anchor="middle" x="375.5" y="-528" font-family="Helvetica,sans-Serif" font-size="10.00">&lt; Scalar &gt; &gt;</text>
</g>
<!-- Node20 -->
<g id="node20" class="node">
<title>Node20</title>
<g id="a_node20"><a xlink:href="group__spatialpartitioning.html" target="_top" xlink:title=" ">
<polygon fill="white" stroke="#bfbfbf" points="1407.5,-405.5 1407.5,-506.5 1553.5,-506.5 1553.5,-405.5 1407.5,-405.5"/>
<text text-anchor="start" x="1415.5" y="-494.5" font-family="Helvetica,sans-Serif" font-size="10.00">Ponca::Query&lt; QueryInput</text>
<text text-anchor="start" x="1415.5" y="-483.5" font-family="Helvetica,sans-Serif" font-size="10.00">IsPosition&lt; DataPoint</text>
<text text-anchor="start" x="1415.5" y="-472.5" font-family="Helvetica,sans-Serif" font-size="10.00"> &gt;, QueryOutputIsNearest</text>
<text text-anchor="middle" x="1480.5" y="-461.5" font-family="Helvetica,sans-Serif" font-size="10.00">&lt; DataPoint::Scalar &gt; &gt;</text>
<polyline fill="none" stroke="#bfbfbf" points="1407.5,-454.5 1553.5,-454.5 "/>
<text text-anchor="middle" x="1480.5" y="-442.5" font-family="Helvetica,sans-Serif" font-size="10.00"> </text>
<polyline fill="none" stroke="#bfbfbf" points="1407.5,-435.5 1553.5,-435.5 "/>
<text text-anchor="start" x="1415.5" y="-423.5" font-family="Helvetica,sans-Serif" font-size="10.00">+ Query()</text>
<text text-anchor="start" x="1415.5" y="-412.5" font-family="Helvetica,sans-Serif" font-size="10.00">+ Query()</text>
</a>
</g>
</g>
<!-- Node1&#45;&gt;Node20 -->
<g id="edge21" class="edge">
<title>Node1&#45;&gt;Node20</title>
<path fill="none" stroke="orange" d="M892.43,-613.08C1019.42,-608.68 1284.94,-595.21 1368.5,-558 1394.81,-546.28 1419.19,-525.99 1438.44,-506.65"/>
<polygon fill="orange" stroke="orange" points="892.3,-609.58 882.43,-613.42 892.54,-616.58 892.3,-609.58"/>
<text text-anchor="start" x="1416.5" y="-550" font-family="Helvetica,sans-Serif" font-size="10.00"> &lt; QueryInputIsPosition</text>
<text text-anchor="start" x="1416.5" y="-539" font-family="Helvetica,sans-Serif" font-size="10.00">&lt; DataPoint &gt;, QueryOutputIs</text>
<text text-anchor="middle" x="1495" y="-528" font-family="Helvetica,sans-Serif" font-size="10.00">Nearest&lt; DataPoint::Scalar &gt; &gt;</text>
</g>
<!-- Node23 -->
<g id="node23" class="node">
<title>Node23</title>
<g id="a_node23"><a xlink:href="group__spatialpartitioning.html" target="_top" xlink:title=" ">
<polygon fill="white" stroke="#bfbfbf" points="1230,-411 1230,-501 1389,-501 1389,-411 1230,-411"/>
<text text-anchor="start" x="1238" y="-489" font-family="Helvetica,sans-Serif" font-size="10.00">Ponca::Query&lt; QueryInput</text>
<text text-anchor="start" x="1238" y="-478" font-family="Helvetica,sans-Serif" font-size="10.00">IsIndex, QueryOutputIsRange</text>
<text text-anchor="middle" x="1309.5" y="-467" font-family="Helvetica,sans-Serif" font-size="10.00">&lt; Scalar &gt; &gt;</text>
<polyline fill="none" stroke="#bfbfbf" points="1230,-460 1389,-460 "/>
<text text-anchor="middle" x="1309.5" y="-448" font-family="Helvetica,sans-Serif" font-size="10.00"> </text>
<polyline fill="none" stroke="#bfbfbf" points="1230,-441 1389,-441 "/>
<text text-anchor="start" x="1238" y="-429" font-family="Helvetica,sans-Serif" font-size="10.00">+ Query()</text>
<text text-anchor="start" x="1238" y="-418" font-family="Helvetica,sans-Serif" font-size="10.00">+ Query()</text>
</a>
</g>
</g>
<!-- Node1&#45;&gt;Node23 -->
<g id="edge24" class="edge">
<title>Node1&#45;&gt;Node23</title>
<path fill="none" stroke="orange" d="M892.13,-610.58C989.38,-603.39 1161.58,-586.97 1216.5,-558 1241.69,-544.71 1263.63,-521.82 1279.86,-501.19"/>
<polygon fill="orange" stroke="orange" points="891.82,-607.09 882.1,-611.31 892.32,-614.08 891.82,-607.09"/>
<text text-anchor="start" x="1257.5" y="-550" font-family="Helvetica,sans-Serif" font-size="10.00"> &lt; QueryInputIsIndex,</text>
<text text-anchor="start" x="1257.5" y="-539" font-family="Helvetica,sans-Serif" font-size="10.00"> QueryOutputIsRange</text>
<text text-anchor="middle" x="1311" y="-528" font-family="Helvetica,sans-Serif" font-size="10.00">&lt; Scalar &gt; &gt;</text>
</g>
<!-- Node25 -->
<g id="node25" class="node">
<title>Node25</title>
<g id="a_node25"><a xlink:href="group__spatialpartitioning.html" target="_top" xlink:title=" ">
<polygon fill="white" stroke="#bfbfbf" points="1574.5,-405.5 1574.5,-506.5 1720.5,-506.5 1720.5,-405.5 1574.5,-405.5"/>
<text text-anchor="start" x="1582.5" y="-494.5" font-family="Helvetica,sans-Serif" font-size="10.00">Ponca::Query&lt; QueryInput</text>
<text text-anchor="start" x="1582.5" y="-483.5" font-family="Helvetica,sans-Serif" font-size="10.00">IsPosition&lt; DataPoint</text>
<text text-anchor="start" x="1582.5" y="-472.5" font-family="Helvetica,sans-Serif" font-size="10.00"> &gt;, QueryOutputIsRange</text>
<text text-anchor="middle" x="1647.5" y="-461.5" font-family="Helvetica,sans-Serif" font-size="10.00">&lt; DataPoint::Scalar &gt; &gt;</text>
<polyline fill="none" stroke="#bfbfbf" points="1574.5,-454.5 1720.5,-454.5 "/>
<text text-anchor="middle" x="1647.5" y="-442.5" font-family="Helvetica,sans-Serif" font-size="10.00"> </text>
<polyline fill="none" stroke="#bfbfbf" points="1574.5,-435.5 1720.5,-435.5 "/>
<text text-anchor="start" x="1582.5" y="-423.5" font-family="Helvetica,sans-Serif" font-size="10.00">+ Query()</text>
<text text-anchor="start" x="1582.5" y="-412.5" font-family="Helvetica,sans-Serif" font-size="10.00">+ Query()</text>
</a>
</g>
</g>
<!-- Node1&#45;&gt;Node25 -->
<g id="edge27" class="edge">
<title>Node1&#45;&gt;Node25</title>
<path fill="none" stroke="orange" d="M892.41,-613.15C1067.34,-608 1518.9,-591.56 1577.5,-558 1597.86,-546.34 1613.65,-526.05 1625.04,-506.7"/>
<polygon fill="orange" stroke="orange" points="892.18,-609.66 882.29,-613.45 892.39,-616.66 892.18,-609.66"/>
<text text-anchor="start" x="1611.5" y="-550" font-family="Helvetica,sans-Serif" font-size="10.00"> &lt; QueryInputIsPosition</text>
<text text-anchor="start" x="1611.5" y="-539" font-family="Helvetica,sans-Serif" font-size="10.00">&lt; DataPoint &gt;, QueryOutputIs</text>
<text text-anchor="middle" x="1686" y="-528" font-family="Helvetica,sans-Serif" font-size="10.00">Range&lt; DataPoint::Scalar &gt; &gt;</text>
</g>
<!-- Node2 -->
<g id="node2" class="node">
<title>Node2</title>
<g id="a_node2"><a xlink:title=" ">
<polygon fill="white" stroke="#bfbfbf" points="766,-693.5 766,-750.5 813,-750.5 813,-693.5 766,-693.5"/>
<text text-anchor="middle" x="789.5" y="-738.5" font-family="Helvetica,sans-Serif" font-size="10.00">Input_</text>
<polyline fill="none" stroke="#bfbfbf" points="766,-731.5 813,-731.5 "/>
<text text-anchor="middle" x="789.5" y="-719.5" font-family="Helvetica,sans-Serif" font-size="10.00"> </text>
<polyline fill="none" stroke="#bfbfbf" points="766,-712.5 813,-712.5 "/>
<text text-anchor="middle" x="789.5" y="-700.5" font-family="Helvetica,sans-Serif" font-size="10.00"> </text>
</a>
</g>
</g>
<!-- Node2&#45;&gt;Node1 -->
<g id="edge1" class="edge">
<title>Node2&#45;&gt;Node1</title>
<path fill="none" stroke="#63b8ff" d="M801.66,-683.82C804.64,-674.68 807.84,-664.89 810.85,-655.69"/>
<polygon fill="none" stroke="#63b8ff" points="798.3,-682.81 798.52,-693.4 804.96,-684.99 798.3,-682.81"/>
</g>
<!-- Node3 -->
<g id="node3" class="node">
<title>Node3</title>
<g id="a_node3"><a xlink:title=" ">
<polygon fill="white" stroke="#bfbfbf" points="831,-693.5 831,-750.5 886,-750.5 886,-693.5 831,-693.5"/>
<text text-anchor="middle" x="858.5" y="-738.5" font-family="Helvetica,sans-Serif" font-size="10.00">Output_</text>
<polyline fill="none" stroke="#bfbfbf" points="831,-731.5 886,-731.5 "/>
<text text-anchor="middle" x="858.5" y="-719.5" font-family="Helvetica,sans-Serif" font-size="10.00"> </text>
<polyline fill="none" stroke="#bfbfbf" points="831,-712.5 886,-712.5 "/>
<text text-anchor="middle" x="858.5" y="-700.5" font-family="Helvetica,sans-Serif" font-size="10.00"> </text>
</a>
</g>
</g>
<!-- Node3&#45;&gt;Node1 -->
<g id="edge2" class="edge">
<title>Node3&#45;&gt;Node1</title>
<path fill="none" stroke="#63b8ff" d="M845.99,-683.82C842.91,-674.68 839.62,-664.89 836.52,-655.69"/>
<polygon fill="none" stroke="#63b8ff" points="842.71,-685.04 849.21,-693.4 849.34,-682.81 842.71,-685.04"/>
</g>
<!-- Node5 -->
<g id="node5" class="node">
<title>Node5</title>
<g id="a_node5"><a xlink:href="classPonca_1_1KdTreeKNearestIndexQuery.html" target="_top" xlink:title=" ">
<polygon fill="white" stroke="#bfbfbf" points="36.5,-6 36.5,-107 206.5,-107 206.5,-6 36.5,-6"/>
<text text-anchor="start" x="44.5" y="-95" font-family="Helvetica,sans-Serif" font-size="10.00">Ponca::KdTreeKNearestIndex</text>
<text text-anchor="middle" x="121.5" y="-84" font-family="Helvetica,sans-Serif" font-size="10.00">Query&lt; DataPoint &gt;</text>
<polyline fill="none" stroke="#bfbfbf" points="36.5,-77 206.5,-77 "/>
<text text-anchor="middle" x="121.5" y="-65" font-family="Helvetica,sans-Serif" font-size="10.00"> </text>
<polyline fill="none" stroke="#bfbfbf" points="36.5,-58 206.5,-58 "/>
<text text-anchor="start" x="44.5" y="-46" font-family="Helvetica,sans-Serif" font-size="10.00">+ KdTreeKNearestIndexQuery()</text>
<text text-anchor="start" x="44.5" y="-35" font-family="Helvetica,sans-Serif" font-size="10.00">+ begin()</text>
<text text-anchor="start" x="44.5" y="-24" font-family="Helvetica,sans-Serif" font-size="10.00">+ end()</text>
<text text-anchor="start" x="44.5" y="-13" font-family="Helvetica,sans-Serif" font-size="10.00"># search()</text>
</a>
</g>
</g>
<!-- Node4&#45;&gt;Node5 -->
<g id="edge4" class="edge">
<title>Node4&#45;&gt;Node5</title>
<path fill="none" stroke="#63b8ff" d="M121.5,-156.53C121.5,-140.93 121.5,-123.22 121.5,-107.14"/>
<polygon fill="none" stroke="#63b8ff" points="118,-156.95 121.5,-166.95 125,-156.95 118,-156.95"/>
</g>
<!-- Node7 -->
<g id="node7" class="node">
<title>Node7</title>
<g id="a_node7"><a xlink:href="classPonca_1_1KdTreeNearestIndexQuery.html" target="_top" xlink:title=" ">
<polygon fill="white" stroke="#bfbfbf" points="270,-6 270,-107 433,-107 433,-6 270,-6"/>
<text text-anchor="start" x="278" y="-95" font-family="Helvetica,sans-Serif" font-size="10.00">Ponca::KdTreeNearestIndex</text>
<text text-anchor="middle" x="351.5" y="-84" font-family="Helvetica,sans-Serif" font-size="10.00">Query&lt; DataPoint &gt;</text>
<polyline fill="none" stroke="#bfbfbf" points="270,-77 433,-77 "/>
<text text-anchor="middle" x="351.5" y="-65" font-family="Helvetica,sans-Serif" font-size="10.00"> </text>
<polyline fill="none" stroke="#bfbfbf" points="270,-58 433,-58 "/>
<text text-anchor="start" x="278" y="-46" font-family="Helvetica,sans-Serif" font-size="10.00">+ KdTreeNearestIndexQuery()</text>
<text text-anchor="start" x="278" y="-35" font-family="Helvetica,sans-Serif" font-size="10.00">+ begin()</text>
<text text-anchor="start" x="278" y="-24" font-family="Helvetica,sans-Serif" font-size="10.00">+ end()</text>
<text text-anchor="start" x="278" y="-13" font-family="Helvetica,sans-Serif" font-size="10.00"># search()</text>
</a>
</g>
</g>
<!-- Node6&#45;&gt;Node7 -->
<g id="edge6" class="edge">
<title>Node6&#45;&gt;Node7</title>
<path fill="none" stroke="#63b8ff" d="M351.5,-156.53C351.5,-140.93 351.5,-123.22 351.5,-107.14"/>
<polygon fill="none" stroke="#63b8ff" points="348,-156.95 351.5,-166.95 355,-156.95 348,-156.95"/>
</g>
<!-- Node9 -->
<g id="node9" class="node">
<title>Node9</title>
<g id="a_node9"><a xlink:href="classPonca_1_1KdTreeRangeIndexQuery.html" target="_top" xlink:title=" ">
<polygon fill="white" stroke="#bfbfbf" points="1149.5,-0.5 1149.5,-112.5 1321.5,-112.5 1321.5,-0.5 1149.5,-0.5"/>
<text text-anchor="start" x="1157.5" y="-100.5" font-family="Helvetica,sans-Serif" font-size="10.00">Ponca::KdTreeRangeIndexQuery</text>
<text text-anchor="middle" x="1235.5" y="-89.5" font-family="Helvetica,sans-Serif" font-size="10.00">&lt; DataPoint &gt;</text>
<polyline fill="none" stroke="#bfbfbf" points="1149.5,-82.5 1321.5,-82.5 "/>
<text text-anchor="start" x="1157.5" y="-70.5" font-family="Helvetica,sans-Serif" font-size="10.00"># Iterator</text>
<polyline fill="none" stroke="#bfbfbf" points="1149.5,-63.5 1321.5,-63.5 "/>
<text text-anchor="start" x="1157.5" y="-51.5" font-family="Helvetica,sans-Serif" font-size="10.00">+ KdTreeRangeIndexQuery()</text>
<text text-anchor="start" x="1157.5" y="-40.5" font-family="Helvetica,sans-Serif" font-size="10.00">+ begin()</text>
<text text-anchor="start" x="1157.5" y="-29.5" font-family="Helvetica,sans-Serif" font-size="10.00">+ end()</text>
<text text-anchor="start" x="1157.5" y="-18.5" font-family="Helvetica,sans-Serif" font-size="10.00"># initialize()</text>
<text text-anchor="start" x="1157.5" y="-7.5" font-family="Helvetica,sans-Serif" font-size="10.00"># advance()</text>
</a>
</g>
</g>
<!-- Node8&#45;&gt;Node9 -->
<g id="edge8" class="edge">
<title>Node8&#45;&gt;Node9</title>
<path fill="none" stroke="#63b8ff" d="M1235.5,-156.71C1235.5,-142.85 1235.5,-127.3 1235.5,-112.7"/>
<polygon fill="none" stroke="#63b8ff" points="1232,-156.95 1235.5,-166.95 1239,-156.95 1232,-156.95"/>
</g>
<!-- Node11 -->
<g id="node11" class="node">
<title>Node11</title>
<g id="a_node11"><a xlink:href="group__spatialpartitioning.html#structPonca_1_1KNearestIndexQuery" target="_top" xlink:title="Base Query class combining QueryInputIsIndex and QueryOutputIsKNearest.">
<polygon fill="white" stroke="#666666" points="16,-299.5 16,-367.5 169,-367.5 169,-299.5 16,-299.5"/>
<text text-anchor="start" x="24" y="-355.5" font-family="Helvetica,sans-Serif" font-size="10.00">Ponca::KNearestIndexQuery</text>
<text text-anchor="middle" x="92.5" y="-344.5" font-family="Helvetica,sans-Serif" font-size="10.00">&lt; Scalar &gt;</text>
<polyline fill="none" stroke="#666666" points="16,-337.5 169,-337.5 "/>
<text text-anchor="middle" x="92.5" y="-325.5" font-family="Helvetica,sans-Serif" font-size="10.00"> </text>
<polyline fill="none" stroke="#666666" points="16,-318.5 169,-318.5 "/>
<text text-anchor="middle" x="92.5" y="-306.5" font-family="Helvetica,sans-Serif" font-size="10.00"> </text>
</a>
</g>
</g>
<!-- Node10&#45;&gt;Node11 -->
<g id="edge10" class="edge">
<title>Node10&#45;&gt;Node11</title>
<path fill="none" stroke="#63b8ff" d="M89.21,-400.63C89.77,-389.42 90.34,-377.92 90.85,-367.73"/>
<polygon fill="none" stroke="#63b8ff" points="85.7,-400.65 88.7,-410.81 92.69,-401 85.7,-400.65"/>
</g>
<!-- Node11&#45;&gt;Node4 -->
<g id="edge11" class="edge">
<title>Node11&#45;&gt;Node4</title>
<path fill="none" stroke="orange" d="M92.78,-289.37C93.33,-282.84 94.2,-276.21 95.5,-270 97.94,-258.37 102.09,-246.11 106.37,-235.26"/>
<polygon fill="orange" stroke="orange" points="89.28,-289.29 92.13,-299.49 96.26,-289.73 89.28,-289.29"/>
<text text-anchor="middle" x="150.5" y="-273" font-family="Helvetica,sans-Serif" font-size="10.00"> &lt; DataPoint::Scalar &gt;</text>
</g>
<!-- Node13 -->
<g id="node13" class="node">
<title>Node13</title>
<g id="a_node13"><a xlink:href="group__spatialpartitioning.html#structPonca_1_1KNearestPointQuery" target="_top" xlink:title="Base Query class combining QueryInputIsPosition and QueryOutputIsKNearest.">
<polygon fill="white" stroke="#666666" points="474,-299.5 474,-367.5 625,-367.5 625,-299.5 474,-299.5"/>
<text text-anchor="start" x="482" y="-355.5" font-family="Helvetica,sans-Serif" font-size="10.00">Ponca::KNearestPointQuery</text>
<text text-anchor="middle" x="549.5" y="-344.5" font-family="Helvetica,sans-Serif" font-size="10.00">&lt; DataPoint &gt;</text>
<polyline fill="none" stroke="#666666" points="474,-337.5 625,-337.5 "/>
<text text-anchor="middle" x="549.5" y="-325.5" font-family="Helvetica,sans-Serif" font-size="10.00"> </text>
<polyline fill="none" stroke="#666666" points="474,-318.5 625,-318.5 "/>
<text text-anchor="middle" x="549.5" y="-306.5" font-family="Helvetica,sans-Serif" font-size="10.00"> </text>
</a>
</g>
</g>
<!-- Node12&#45;&gt;Node13 -->
<g id="edge13" class="edge">
<title>Node12&#45;&gt;Node13</title>
<path fill="none" stroke="#63b8ff" d="M548.49,-395.07C548.65,-385.61 548.81,-376.14 548.95,-367.59"/>
<polygon fill="none" stroke="#63b8ff" points="544.99,-395.24 548.33,-405.29 551.99,-395.35 544.99,-395.24"/>
</g>
<!-- Node14 -->
<g id="node14" class="node">
<title>Node14</title>
<g id="a_node14"><a xlink:href="classPonca_1_1KdTreeKNearestPointQuery.html" target="_top" xlink:title=" ">
<polygon fill="white" stroke="#bfbfbf" points="466,-150.5 466,-251.5 633,-251.5 633,-150.5 466,-150.5"/>
<text text-anchor="start" x="474" y="-239.5" font-family="Helvetica,sans-Serif" font-size="10.00">Ponca::KdTreeKNearestPoint</text>
<text text-anchor="middle" x="549.5" y="-228.5" font-family="Helvetica,sans-Serif" font-size="10.00">Query&lt; DataPoint &gt;</text>
<polyline fill="none" stroke="#bfbfbf" points="466,-221.5 633,-221.5 "/>
<text text-anchor="middle" x="549.5" y="-209.5" font-family="Helvetica,sans-Serif" font-size="10.00"> </text>
<polyline fill="none" stroke="#bfbfbf" points="466,-202.5 633,-202.5 "/>
<text text-anchor="start" x="474" y="-190.5" font-family="Helvetica,sans-Serif" font-size="10.00">+ KdTreeKNearestPointQuery()</text>
<text text-anchor="start" x="474" y="-179.5" font-family="Helvetica,sans-Serif" font-size="10.00">+ begin()</text>
<text text-anchor="start" x="474" y="-168.5" font-family="Helvetica,sans-Serif" font-size="10.00">+ end()</text>
<text text-anchor="start" x="474" y="-157.5" font-family="Helvetica,sans-Serif" font-size="10.00"># search()</text>
</a>
</g>
</g>
<!-- Node13&#45;&gt;Node14 -->
<g id="edge14" class="edge">
<title>Node13&#45;&gt;Node14</title>
<path fill="none" stroke="#63b8ff" d="M549.5,-289.1C549.5,-277.21 549.5,-264.21 549.5,-251.98"/>
<polygon fill="none" stroke="#63b8ff" points="546,-289.23 549.5,-299.23 553,-289.23 546,-289.23"/>
</g>
<!-- Node19 -->
<g id="node19" class="node">
<title>Node19</title>
<g id="a_node19"><a xlink:href="group__spatialpartitioning.html#structPonca_1_1NearestIndexQuery" target="_top" xlink:title="Base Query class combining QueryInputIsIndex and QueryOutputIsNearest.">
<polygon fill="white" stroke="#666666" points="250.5,-299.5 250.5,-367.5 396.5,-367.5 396.5,-299.5 250.5,-299.5"/>
<text text-anchor="start" x="258.5" y="-355.5" font-family="Helvetica,sans-Serif" font-size="10.00">Ponca::NearestIndexQuery</text>
<text text-anchor="middle" x="323.5" y="-344.5" font-family="Helvetica,sans-Serif" font-size="10.00">&lt; Scalar &gt;</text>
<polyline fill="none" stroke="#666666" points="250.5,-337.5 396.5,-337.5 "/>
<text text-anchor="middle" x="323.5" y="-325.5" font-family="Helvetica,sans-Serif" font-size="10.00"> </text>
<polyline fill="none" stroke="#666666" points="250.5,-318.5 396.5,-318.5 "/>
<text text-anchor="middle" x="323.5" y="-306.5" font-family="Helvetica,sans-Serif" font-size="10.00"> </text>
</a>
</g>
</g>
<!-- Node18&#45;&gt;Node19 -->
<g id="edge19" class="edge">
<title>Node18&#45;&gt;Node19</title>
<path fill="none" stroke="#63b8ff" d="M327.34,-400.63C326.69,-389.42 326.02,-377.92 325.43,-367.73"/>
<polygon fill="none" stroke="#63b8ff" points="323.86,-401.03 327.93,-410.81 330.85,-400.63 323.86,-401.03"/>
</g>
<!-- Node19&#45;&gt;Node6 -->
<g id="edge20" class="edge">
<title>Node19&#45;&gt;Node6</title>
<path fill="none" stroke="orange" d="M319.43,-289.36C319.59,-282.83 320.19,-276.2 321.5,-270 323.98,-258.26 328.61,-246.07 333.51,-235.32"/>
<polygon fill="orange" stroke="orange" points="315.93,-289.51 319.51,-299.48 322.93,-289.45 315.93,-289.51"/>
<text text-anchor="middle" x="376.5" y="-273" font-family="Helvetica,sans-Serif" font-size="10.00"> &lt; DataPoint::Scalar &gt;</text>
</g>
<!-- Node21 -->
<g id="node21" class="node">
<title>Node21</title>
<g id="a_node21"><a xlink:href="group__spatialpartitioning.html#structPonca_1_1NearestPointQuery" target="_top" xlink:title="Base Query class combining QueryInputIsPosition and QueryOutputIsNearest.">
<polygon fill="white" stroke="#666666" points="1399.5,-299.5 1399.5,-367.5 1543.5,-367.5 1543.5,-299.5 1399.5,-299.5"/>
<text text-anchor="start" x="1407.5" y="-355.5" font-family="Helvetica,sans-Serif" font-size="10.00">Ponca::NearestPointQuery</text>
<text text-anchor="middle" x="1471.5" y="-344.5" font-family="Helvetica,sans-Serif" font-size="10.00">&lt; DataPoint &gt;</text>
<polyline fill="none" stroke="#666666" points="1399.5,-337.5 1543.5,-337.5 "/>
<text text-anchor="middle" x="1471.5" y="-325.5" font-family="Helvetica,sans-Serif" font-size="10.00"> </text>
<polyline fill="none" stroke="#666666" points="1399.5,-318.5 1543.5,-318.5 "/>
<text text-anchor="middle" x="1471.5" y="-306.5" font-family="Helvetica,sans-Serif" font-size="10.00"> </text>
</a>
</g>
</g>
<!-- Node20&#45;&gt;Node21 -->
<g id="edge22" class="edge">
<title>Node20&#45;&gt;Node21</title>
<path fill="none" stroke="#63b8ff" d="M1476.02,-395.07C1475.32,-385.61 1474.61,-376.14 1473.97,-367.59"/>
<polygon fill="none" stroke="#63b8ff" points="1472.55,-395.58 1476.79,-405.29 1479.53,-395.06 1472.55,-395.58"/>
</g>
<!-- Node22 -->
<g id="node22" class="node">
<title>Node22</title>
<g id="a_node22"><a xlink:href="classPonca_1_1KdTreeNearestPointQuery.html" target="_top" xlink:title=" ">
<polygon fill="white" stroke="#bfbfbf" points="1390,-150.5 1390,-251.5 1551,-251.5 1551,-150.5 1390,-150.5"/>
<text text-anchor="start" x="1398" y="-239.5" font-family="Helvetica,sans-Serif" font-size="10.00">Ponca::KdTreeNearestPoint</text>
<text text-anchor="middle" x="1470.5" y="-228.5" font-family="Helvetica,sans-Serif" font-size="10.00">Query&lt; DataPoint &gt;</text>
<polyline fill="none" stroke="#bfbfbf" points="1390,-221.5 1551,-221.5 "/>
<text text-anchor="middle" x="1470.5" y="-209.5" font-family="Helvetica,sans-Serif" font-size="10.00"> </text>
<polyline fill="none" stroke="#bfbfbf" points="1390,-202.5 1551,-202.5 "/>
<text text-anchor="start" x="1398" y="-190.5" font-family="Helvetica,sans-Serif" font-size="10.00">+ KdTreeNearestPointQuery()</text>
<text text-anchor="start" x="1398" y="-179.5" font-family="Helvetica,sans-Serif" font-size="10.00">+ begin()</text>
<text text-anchor="start" x="1398" y="-168.5" font-family="Helvetica,sans-Serif" font-size="10.00">+ end()</text>
<text text-anchor="start" x="1398" y="-157.5" font-family="Helvetica,sans-Serif" font-size="10.00"># search()</text>
</a>
</g>
</g>
<!-- Node21&#45;&gt;Node22 -->
<g id="edge23" class="edge">
<title>Node21&#45;&gt;Node22</title>
<path fill="none" stroke="#63b8ff" d="M1471.17,-289.1C1471.08,-277.21 1470.98,-264.21 1470.88,-251.98"/>
<polygon fill="none" stroke="#63b8ff" points="1467.67,-289.26 1471.25,-299.23 1474.67,-289.21 1467.67,-289.26"/>
</g>
<!-- Node24 -->
<g id="node24" class="node">
<title>Node24</title>
<g id="a_node24"><a xlink:href="group__spatialpartitioning.html#structPonca_1_1RangeIndexQuery" target="_top" xlink:title="Base Query class combining QueryInputIsIndex and QueryOutputIsRange.">
<polygon fill="white" stroke="#666666" points="1234,-299.5 1234,-367.5 1373,-367.5 1373,-299.5 1234,-299.5"/>
<text text-anchor="start" x="1242" y="-355.5" font-family="Helvetica,sans-Serif" font-size="10.00">Ponca::RangeIndexQuery</text>
<text text-anchor="middle" x="1303.5" y="-344.5" font-family="Helvetica,sans-Serif" font-size="10.00">&lt; Scalar &gt;</text>
<polyline fill="none" stroke="#666666" points="1234,-337.5 1373,-337.5 "/>
<text text-anchor="middle" x="1303.5" y="-325.5" font-family="Helvetica,sans-Serif" font-size="10.00"> </text>
<polyline fill="none" stroke="#666666" points="1234,-318.5 1373,-318.5 "/>
<text text-anchor="middle" x="1303.5" y="-306.5" font-family="Helvetica,sans-Serif" font-size="10.00"> </text>
</a>
</g>
</g>
<!-- Node23&#45;&gt;Node24 -->
<g id="edge25" class="edge">
<title>Node23&#45;&gt;Node24</title>
<path fill="none" stroke="#63b8ff" d="M1306.79,-400.63C1306.23,-389.42 1305.66,-377.92 1305.15,-367.73"/>
<polygon fill="none" stroke="#63b8ff" points="1303.31,-401 1307.3,-410.81 1310.3,-400.65 1303.31,-401"/>
</g>
<!-- Node24&#45;&gt;Node8 -->
<g id="edge26" class="edge">
<title>Node24&#45;&gt;Node8</title>
<path fill="none" stroke="orange" d="M1281.45,-290.18C1272.16,-272.36 1261.51,-251.92 1252.8,-235.21"/>
<polygon fill="orange" stroke="orange" points="1278.44,-291.98 1286.16,-299.23 1284.65,-288.75 1278.44,-291.98"/>
<text text-anchor="middle" x="1330.5" y="-273" font-family="Helvetica,sans-Serif" font-size="10.00"> &lt; DataPoint::Scalar &gt;</text>
</g>
<!-- Node26 -->
<g id="node26" class="node">
<title>Node26</title>
<g id="a_node26"><a xlink:href="group__spatialpartitioning.html#structPonca_1_1RangePointQuery" target="_top" xlink:title="Base Query class combining QueryInputIsPosition and QueryOutputIsRange.">
<polygon fill="white" stroke="#666666" points="1586,-299.5 1586,-367.5 1723,-367.5 1723,-299.5 1586,-299.5"/>
<text text-anchor="start" x="1594" y="-355.5" font-family="Helvetica,sans-Serif" font-size="10.00">Ponca::RangePointQuery</text>
<text text-anchor="middle" x="1654.5" y="-344.5" font-family="Helvetica,sans-Serif" font-size="10.00">&lt; DataPoint &gt;</text>
<polyline fill="none" stroke="#666666" points="1586,-337.5 1723,-337.5 "/>
<text text-anchor="middle" x="1654.5" y="-325.5" font-family="Helvetica,sans-Serif" font-size="10.00"> </text>
<polyline fill="none" stroke="#666666" points="1586,-318.5 1723,-318.5 "/>
<text text-anchor="middle" x="1654.5" y="-306.5" font-family="Helvetica,sans-Serif" font-size="10.00"> </text>
</a>
</g>
</g>
<!-- Node25&#45;&gt;Node26 -->
<g id="edge28" class="edge">
<title>Node25&#45;&gt;Node26</title>
<path fill="none" stroke="#63b8ff" d="M1650.98,-395.07C1651.53,-385.61 1652.08,-376.14 1652.58,-367.59"/>
<polygon fill="none" stroke="#63b8ff" points="1647.47,-395.11 1650.39,-405.29 1654.46,-395.51 1647.47,-395.11"/>
</g>
<!-- Node27 -->
<g id="node27" class="node">
<title>Node27</title>
<g id="a_node27"><a xlink:href="classPonca_1_1KdTreeRangePointQuery.html" target="_top" xlink:title=" ">
<polygon fill="white" stroke="#bfbfbf" points="1569.5,-150.5 1569.5,-251.5 1739.5,-251.5 1739.5,-150.5 1569.5,-150.5"/>
<text text-anchor="start" x="1577.5" y="-239.5" font-family="Helvetica,sans-Serif" font-size="10.00">Ponca::KdTreeRangePointQuery</text>
<text text-anchor="middle" x="1654.5" y="-228.5" font-family="Helvetica,sans-Serif" font-size="10.00">&lt; DataPoint &gt;</text>
<polyline fill="none" stroke="#bfbfbf" points="1569.5,-221.5 1739.5,-221.5 "/>
<text text-anchor="start" x="1577.5" y="-209.5" font-family="Helvetica,sans-Serif" font-size="10.00"># Iterator</text>
<polyline fill="none" stroke="#bfbfbf" points="1569.5,-202.5 1739.5,-202.5 "/>
<text text-anchor="start" x="1577.5" y="-190.5" font-family="Helvetica,sans-Serif" font-size="10.00">+ KdTreeRangePointQuery()</text>
<text text-anchor="start" x="1577.5" y="-179.5" font-family="Helvetica,sans-Serif" font-size="10.00">+ begin()</text>
<text text-anchor="start" x="1577.5" y="-168.5" font-family="Helvetica,sans-Serif" font-size="10.00">+ end()</text>
<text text-anchor="start" x="1577.5" y="-157.5" font-family="Helvetica,sans-Serif" font-size="10.00"># advance()</text>
</a>
</g>
</g>
<!-- Node26&#45;&gt;Node27 -->
<g id="edge29" class="edge">
<title>Node26&#45;&gt;Node27</title>
<path fill="none" stroke="#63b8ff" d="M1654.5,-289.1C1654.5,-277.21 1654.5,-264.21 1654.5,-251.98"/>
<polygon fill="none" stroke="#63b8ff" points="1651,-289.23 1654.5,-299.23 1658,-289.23 1651,-289.23"/>
</g>
</g>
</svg>
        <g id="navigator" transform="translate(0 0)" fill="#404254">
                <rect fill="#f2f5e9" fill-opacity="0.5" stroke="#606060" stroke-width=".5" x="0" y="0" width="60" height="60"/>
                <use id="zoomplus" xlink:href="#zoomPlus" x="17" y="9" onmousedown="handleZoom(evt,'in')"/>
                <use id="zoomminus" xlink:href="#zoomMin" x="42" y="9" onmousedown="handleZoom(evt,'out')"/>
                <use id="reset" xlink:href="#resetDef" x="30" y="36" onmousedown="handleReset()"/>
                <g id="arrowUp" xlink:href="#dirArrow" transform="translate(30 24)" onmousedown="handlePan(0,-1)">
                  <use xlink:href="#rim" fill="#404040">
                        <set attributeName="fill" to="#808080" begin="arrowUp.mouseover" end="arrowUp.mouseout"/>
                  </use>
                  <path fill="none" stroke="white" stroke-width="1.5" d="M0,-3.0v7 M-2.5,-0.5L0,-3.0L2.5,-0.5"/>
                </g>
                <g id="arrowRight" xlink:href="#dirArrow" transform="rotate(90) translate(36 -43)" onmousedown="handlePan(1,0)">
                  <use xlink:href="#rim" fill="#404040">
                        <set attributeName="fill" to="#808080" begin="arrowRight.mouseover" end="arrowRight.mouseout"/>
                  </use>
                  <path fill="none" stroke="white" stroke-width="1.5" d="M0,-3.0v7 M-2.5,-0.5L0,-3.0L2.5,-0.5"/>
                </g>
                <g id="arrowDown" xlink:href="#dirArrow" transform="rotate(180) translate(-30 -48)" onmousedown="handlePan(0,1)">
                  <use xlink:href="#rim" fill="#404040">
                        <set attributeName="fill" to="#808080" begin="arrowDown.mouseover" end="arrowDown.mouseout"/>
                  </use>
                  <path fill="none" stroke="white" stroke-width="1.5" d="M0,-3.0v7 M-2.5,-0.5L0,-3.0L2.5,-0.5"/>
                </g>
                <g id="arrowLeft" xlink:href="#dirArrow" transform="rotate(270) translate(-36 17)" onmousedown="handlePan(-1,0)">
                  <use xlink:href="#rim" fill="#404040">
                        <set attributeName="fill" to="#808080" begin="arrowLeft.mouseover" end="arrowLeft.mouseout"/>
                  </use>
                  <path fill="none" stroke="white" stroke-width="1.5" d="M0,-3.0v7 M-2.5,-0.5L0,-3.0L2.5,-0.5"/>
                </g>
        </g>
        <svg viewBox="0 0 15 15" width="100%" height="30px" preserveAspectRatio="xMaxYMin meet">
         <g id="arrow_out" transform="scale(0.3 0.3)">
          <a xlink:href="structPonca_1_1Query__inherit__graph_org.svg" target="_base">
           <rect id="button" ry="5" rx="5" y="6" x="6" height="38" width="38"
                fill="#f2f5e9" fill-opacity="0.5" stroke="#606060" stroke-width="1.0"/>
           <path id="arrow"
             d="M 11.500037,31.436501 C 11.940474,20.09759 22.043105,11.32322 32.158766,21.979434 L 37.068811,17.246167 C 37.068811,17.246167 37.088388,32 37.088388,32 L 22.160133,31.978069 C 22.160133,31.978069 26.997745,27.140456 26.997745,27.140456 C 18.528582,18.264221 13.291696,25.230495 11.500037,31.436501 z"
             style="fill:#404040;"/>
          </a>
         </g>
        </svg>
</svg>
