<?xml version="1.0" encoding="UTF-8" standalone="no"?>
<!DOCTYPE svg PUBLIC "-//W3C//DTD SVG 1.1//EN"
 "http://www.w3.org/Graphics/SVG/1.1/DTD/svg11.dtd">
<!-- Generated by graphviz version 2.43.0 (0)
 -->
<!-- Title: Ponca::Query&lt; Input_, Output_ &gt; Pages: 1 -->
<svg width="437pt" height="643pt"
 viewBox="0.00 0.00 437.00 643.00" xmlns="http://www.w3.org/2000/svg" xmlns:xlink="http://www.w3.org/1999/xlink">
<g id="graph0" class="graph" transform="scale(1 1) rotate(0) translate(4 639)">
<title>Ponca::Query&lt; Input_, Output_ &gt;</title>
<!-- Node1 -->
<g id="Node000001" class="node">
<title>Node1</title>
<g id="a_Node000001"><a xlink:title="Composes the Query object depending on an input type and output type.">
<polygon fill="#999999" stroke="transparent" points="228.5,-549 117.5,-549 117.5,-444 228.5,-444 228.5,-549"/>
<text text-anchor="start" x="123" y="-536.5" font-family="Helvetica,sans-Serif" font-size="10.00">Ponca::Query&lt; Input</text>
<text text-anchor="start" x="143" y="-525.5" font-family="Helvetica,sans-Serif" font-size="10.00">_, Output_ &gt;</text>
<text text-anchor="start" x="171.5" y="-510.5" font-family="Helvetica,sans-Serif" font-size="10.00"> </text>
<text text-anchor="start" x="130" y="-495.5" font-family="Helvetica,sans-Serif" font-size="10.00">+</text>
<text text-anchor="start" x="151" y="-495.5" font-family="Helvetica,sans-Serif" font-size="10.00">Query()</text>
<text text-anchor="start" x="130" y="-480.5" font-family="Helvetica,sans-Serif" font-size="10.00">+</text>
<text text-anchor="start" x="151" y="-480.5" font-family="Helvetica,sans-Serif" font-size="10.00">Query()</text>
<text text-anchor="start" x="130" y="-465.5" font-family="Helvetica,sans-Serif" font-size="10.00">+</text>
<text text-anchor="start" x="151" y="-465.5" font-family="Helvetica,sans-Serif" font-size="10.00">operator()()</text>
<text text-anchor="start" x="130" y="-450.5" font-family="Helvetica,sans-Serif" font-size="10.00">+</text>
<text text-anchor="start" x="151" y="-450.5" font-family="Helvetica,sans-Serif" font-size="10.00">operator()()</text>
<polygon fill="#666666" stroke="#666666" points="118,-520.5 118,-520.5 229,-520.5 229,-520.5 118,-520.5"/>
<polygon fill="#666666" stroke="#666666" points="118,-505.5 118,-505.5 229,-505.5 229,-505.5 118,-505.5"/>
<polygon fill="none" stroke="#666666" points="117.5,-444 117.5,-549 228.5,-549 228.5,-444 117.5,-444"/>
</a>
</g>
</g>
<!-- Node4 -->
<g id="Node000004" class="node">
<title>Node4</title>
<g id="a_Node000004"><a xlink:href="classPonca_1_1KnnGraphRangeQuery.html" target="_top" xlink:title=" ">
<polygon fill="white" stroke="transparent" points="154,-180 0,-180 0,0 154,0 154,-180"/>
<text text-anchor="start" x="5" y="-168" font-family="Helvetica,sans-Serif" font-size="10.00">Ponca::KnnGraphRangeQuery</text>
<text text-anchor="start" x="52.5" y="-157" font-family="Helvetica,sans-Serif" font-size="10.00">&lt; Traits &gt;</text>
<text text-anchor="start" x="8" y="-142" font-family="Helvetica,sans-Serif" font-size="10.00">#</text>
<text text-anchor="start" x="25" y="-142" font-family="Helvetica,sans-Serif" font-size="10.00">m_graph</text>
<text text-anchor="start" x="8" y="-127" font-family="Helvetica,sans-Serif" font-size="10.00">#</text>
<text text-anchor="start" x="25" y="-127" font-family="Helvetica,sans-Serif" font-size="10.00">m_flag</text>
<text text-anchor="start" x="8" y="-112" font-family="Helvetica,sans-Serif" font-size="10.00">#</text>
<text text-anchor="start" x="25" y="-112" font-family="Helvetica,sans-Serif" font-size="10.00">m_stack</text>
<text text-anchor="start" x="8" y="-97" font-family="Helvetica,sans-Serif" font-size="10.00">+</text>
<text text-anchor="start" x="25" y="-97" font-family="Helvetica,sans-Serif" font-size="10.00">KnnGraphRangeQuery()</text>
<text text-anchor="start" x="8" y="-82" font-family="Helvetica,sans-Serif" font-size="10.00">+</text>
<text text-anchor="start" x="25" y="-82" font-family="Helvetica,sans-Serif" font-size="10.00">operator()()</text>
<text text-anchor="start" x="8" y="-67" font-family="Helvetica,sans-Serif" font-size="10.00">+</text>
<text text-anchor="start" x="25" y="-67" font-family="Helvetica,sans-Serif" font-size="10.00">operator()()</text>
<text text-anchor="start" x="8" y="-52" font-family="Helvetica,sans-Serif" font-size="10.00">+</text>
<text text-anchor="start" x="25" y="-52" font-family="Helvetica,sans-Serif" font-size="10.00">begin()</text>
<text text-anchor="start" x="8" y="-37" font-family="Helvetica,sans-Serif" font-size="10.00">+</text>
<text text-anchor="start" x="25" y="-37" font-family="Helvetica,sans-Serif" font-size="10.00">end()</text>
<text text-anchor="start" x="8" y="-22" font-family="Helvetica,sans-Serif" font-size="10.00">#</text>
<text text-anchor="start" x="25" y="-22" font-family="Helvetica,sans-Serif" font-size="10.00">initialize()</text>
<text text-anchor="start" x="8" y="-7" font-family="Helvetica,sans-Serif" font-size="10.00">#</text>
<text text-anchor="start" x="25" y="-7" font-family="Helvetica,sans-Serif" font-size="10.00">advance()</text>
<polygon fill="#666666" stroke="#666666" points="0,-152 0,-152 154,-152 154,-152 0,-152"/>
<polygon fill="#666666" stroke="#666666" points="0,-107 0,-107 23,-107 23,-107 0,-107"/>
<polygon fill="#666666" stroke="#666666" points="23,-107 23,-107 154,-107 154,-107 23,-107"/>
<polygon fill="none" stroke="#666666" points="0,0 0,-180 154,-180 154,0 0,0"/>
</a>
</g>
</g>
<!-- Node1&#45;&gt;Node4 -->
<g id="edge3_Node000001_Node000004" class="edge">
<title>Node1&#45;&gt;Node4</title>
<g id="a_edge3_Node000001_Node000004"><a xlink:title=" ">
<path fill="none" stroke="#63b8ff" d="M110.16,-449.25C97.95,-436.98 86.83,-422.72 80,-407 48.9,-335.42 51.44,-245.82 59.83,-180.33"/>
<polygon fill="none" stroke="#63b8ff" points="107.82,-451.84 117.46,-456.23 112.66,-446.79 107.82,-451.84"/>
</a>
</g>
</g>
<!-- Node5 -->
<g id="Node000005" class="node">
<title>Node5</title>
<g id="a_Node000005"><a xlink:href="classPonca_1_1KnnGraphKNearestQuery.html" target="_top" xlink:title="Extension of the Query class that allows to read the result of a k&#45;nearest neighbors search on the Kn...">
<polygon fill="white" stroke="transparent" points="257,-369.5 89,-369.5 89,-264.5 257,-264.5 257,-369.5"/>
<text text-anchor="start" x="94" y="-357" font-family="Helvetica,sans-Serif" font-size="10.00">Ponca::KnnGraphKNearestQuery</text>
<text text-anchor="start" x="148.5" y="-346" font-family="Helvetica,sans-Serif" font-size="10.00">&lt; Traits &gt;</text>
<text text-anchor="start" x="97" y="-331" font-family="Helvetica,sans-Serif" font-size="10.00">#</text>
<text text-anchor="start" x="114" y="-331" font-family="Helvetica,sans-Serif" font-size="10.00">m_graph</text>
<text text-anchor="start" x="97" y="-316" font-family="Helvetica,sans-Serif" font-size="10.00">+</text>
<text text-anchor="start" x="114" y="-316" font-family="Helvetica,sans-Serif" font-size="10.00">KnnGraphKNearestQuery()</text>
<text text-anchor="start" x="97" y="-301" font-family="Helvetica,sans-Serif" font-size="10.00">+</text>
<text text-anchor="start" x="114" y="-301" font-family="Helvetica,sans-Serif" font-size="10.00">operator()()</text>
<text text-anchor="start" x="97" y="-286" font-family="Helvetica,sans-Serif" font-size="10.00">+</text>
<text text-anchor="start" x="114" y="-286" font-family="Helvetica,sans-Serif" font-size="10.00">begin()</text>
<text text-anchor="start" x="97" y="-271" font-family="Helvetica,sans-Serif" font-size="10.00">+</text>
<text text-anchor="start" x="114" y="-271" font-family="Helvetica,sans-Serif" font-size="10.00">end()</text>
<polygon fill="#666666" stroke="#666666" points="89,-341 89,-341 257,-341 257,-341 89,-341"/>
<polygon fill="#666666" stroke="#666666" points="89,-326 89,-326 112,-326 112,-326 89,-326"/>
<polygon fill="#666666" stroke="#666666" points="112,-326 112,-326 257,-326 257,-326 112,-326"/>
<polygon fill="none" stroke="#666666" points="89,-264.5 89,-369.5 257,-369.5 257,-264.5 89,-264.5"/>
</a>
</g>
</g>
<!-- Node1&#45;&gt;Node5 -->
<g id="edge4_Node000001_Node000005" class="edge">
<title>Node1&#45;&gt;Node5</title>
<g id="a_edge4_Node000001_Node000005"><a xlink:title=" ">
<path fill="none" stroke="#63b8ff" d="M173,-433.62C173,-412.71 173,-389.6 173,-369.58"/>
<polygon fill="none" stroke="#63b8ff" points="169.5,-433.68 173,-443.68 176.5,-433.68 169.5,-433.68"/>
</a>
</g>
</g>
<!-- Node6 -->
<g id="Node000006" class="node">
<title>Node6</title>
<g id="a_Node000006"><a xlink:href="classPonca_1_1KnnGraphRangeQuery.html" target="_top" xlink:title="Extension of the Query class that allows to read the result of a range neighbor search on the KnnGrap...">
<polygon fill="white" stroke="transparent" points="429,-407 275,-407 275,-227 429,-227 429,-407"/>
<text text-anchor="start" x="280" y="-395" font-family="Helvetica,sans-Serif" font-size="10.00">Ponca::KnnGraphRangeQuery</text>
<text text-anchor="start" x="303" y="-384" font-family="Helvetica,sans-Serif" font-size="10.00">&lt; Traits, IndexSet &gt;</text>
<text text-anchor="start" x="283" y="-369" font-family="Helvetica,sans-Serif" font-size="10.00">#</text>
<text text-anchor="start" x="300" y="-369" font-family="Helvetica,sans-Serif" font-size="10.00">m_graph</text>
<text text-anchor="start" x="283" y="-354" font-family="Helvetica,sans-Serif" font-size="10.00">#</text>
<text text-anchor="start" x="300" y="-354" font-family="Helvetica,sans-Serif" font-size="10.00">m_flag</text>
<text text-anchor="start" x="283" y="-339" font-family="Helvetica,sans-Serif" font-size="10.00">#</text>
<text text-anchor="start" x="300" y="-339" font-family="Helvetica,sans-Serif" font-size="10.00">m_stack</text>
<text text-anchor="start" x="283" y="-324" font-family="Helvetica,sans-Serif" font-size="10.00">+</text>
<text text-anchor="start" x="300" y="-324" font-family="Helvetica,sans-Serif" font-size="10.00">KnnGraphRangeQuery()</text>
<text text-anchor="start" x="283" y="-309" font-family="Helvetica,sans-Serif" font-size="10.00">+</text>
<text text-anchor="start" x="300" y="-309" font-family="Helvetica,sans-Serif" font-size="10.00">operator()()</text>
<text text-anchor="start" x="283" y="-294" font-family="Helvetica,sans-Serif" font-size="10.00">+</text>
<text text-anchor="start" x="300" y="-294" font-family="Helvetica,sans-Serif" font-size="10.00">operator()()</text>
<text text-anchor="start" x="283" y="-279" font-family="Helvetica,sans-Serif" font-size="10.00">+</text>
<text text-anchor="start" x="300" y="-279" font-family="Helvetica,sans-Serif" font-size="10.00">begin()</text>
<text text-anchor="start" x="283" y="-264" font-family="Helvetica,sans-Serif" font-size="10.00">+</text>
<text text-anchor="start" x="300" y="-264" font-family="Helvetica,sans-Serif" font-size="10.00">end()</text>
<text text-anchor="start" x="283" y="-249" font-family="Helvetica,sans-Serif" font-size="10.00">#</text>
<text text-anchor="start" x="300" y="-249" font-family="Helvetica,sans-Serif" font-size="10.00">initialize()</text>
<text text-anchor="start" x="283" y="-234" font-family="Helvetica,sans-Serif" font-size="10.00">#</text>
<text text-anchor="start" x="300" y="-234" font-family="Helvetica,sans-Serif" font-size="10.00">advance()</text>
<polygon fill="#666666" stroke="#666666" points="275,-379 275,-379 429,-379 429,-379 275,-379"/>
<polygon fill="#666666" stroke="#666666" points="275,-334 275,-334 298,-334 298,-334 275,-334"/>
<polygon fill="#666666" stroke="#666666" points="298,-334 298,-334 429,-334 429,-334 298,-334"/>
<polygon fill="none" stroke="#666666" points="275,-227 275,-407 429,-407 429,-227 275,-227"/>
</a>
</g>
</g>
<!-- Node1&#45;&gt;Node6 -->
<g id="edge5_Node000001_Node000006" class="edge">
<title>Node1&#45;&gt;Node6</title>
<g id="a_edge5_Node000001_Node000006"><a xlink:title=" ">
<path fill="none" stroke="#63b8ff" d="M235.4,-436.81C245.69,-426.93 256.2,-416.73 266,-407 268.9,-404.12 271.84,-401.19 274.8,-398.21"/>
<polygon fill="none" stroke="#63b8ff" points="232.76,-434.49 227.95,-443.93 237.6,-439.55 232.76,-434.49"/>
</a>
</g>
</g>
<!-- Node2 -->
<g id="Node000002" class="node">
<title>Node2</title>
<g id="a_Node000002"><a xlink:title=" ">
<polygon fill="white" stroke="transparent" points="162.5,-635 121.5,-635 121.5,-586 162.5,-586 162.5,-635"/>
<text text-anchor="start" x="127" y="-622.5" font-family="Helvetica,sans-Serif" font-size="10.00">Input_</text>
<text text-anchor="start" x="140.5" y="-607.5" font-family="Helvetica,sans-Serif" font-size="10.00"> </text>
<text text-anchor="start" x="140.5" y="-592.5" font-family="Helvetica,sans-Serif" font-size="10.00"> </text>
<polygon fill="#bfbfbf" stroke="#bfbfbf" points="122,-617.5 122,-617.5 163,-617.5 163,-617.5 122,-617.5"/>
<polygon fill="#bfbfbf" stroke="#bfbfbf" points="122,-602.5 122,-602.5 163,-602.5 163,-602.5 122,-602.5"/>
<polygon fill="none" stroke="#bfbfbf" points="121.5,-586 121.5,-635 162.5,-635 162.5,-586 121.5,-586"/>
</a>
</g>
</g>
<!-- Node2&#45;&gt;Node1 -->
<g id="edge1_Node000001_Node000002" class="edge">
<title>Node2&#45;&gt;Node1</title>
<g id="a_edge1_Node000001_Node000002"><a xlink:title=" ">
<path fill="none" stroke="#63b8ff" d="M151.28,-575.98C153.6,-567.58 156.15,-558.38 158.65,-549.33"/>
<polygon fill="none" stroke="#63b8ff" points="147.87,-575.18 148.57,-585.75 154.62,-577.04 147.87,-575.18"/>
</a>
</g>
</g>
<!-- Node3 -->
<g id="Node000003" class="node">
<title>Node3</title>
<g id="a_Node000003"><a xlink:title=" ">
<polygon fill="white" stroke="transparent" points="229.5,-635 180.5,-635 180.5,-586 229.5,-586 229.5,-635"/>
<text text-anchor="start" x="186" y="-622.5" font-family="Helvetica,sans-Serif" font-size="10.00">Output_</text>
<text text-anchor="start" x="203.5" y="-607.5" font-family="Helvetica,sans-Serif" font-size="10.00"> </text>
<text text-anchor="start" x="203.5" y="-592.5" font-family="Helvetica,sans-Serif" font-size="10.00"> </text>
<polygon fill="#bfbfbf" stroke="#bfbfbf" points="181,-617.5 181,-617.5 230,-617.5 230,-617.5 181,-617.5"/>
<polygon fill="#bfbfbf" stroke="#bfbfbf" points="181,-602.5 181,-602.5 230,-602.5 230,-602.5 181,-602.5"/>
<polygon fill="none" stroke="#bfbfbf" points="180.5,-586 180.5,-635 229.5,-635 229.5,-586 180.5,-586"/>
</a>
</g>
</g>
<!-- Node3&#45;&gt;Node1 -->
<g id="edge2_Node000001_Node000003" class="edge">
<title>Node3&#45;&gt;Node1</title>
<g id="a_edge2_Node000001_Node000003"><a xlink:title=" ">
<path fill="none" stroke="#63b8ff" d="M195.42,-575.98C193.02,-567.58 190.4,-558.38 187.81,-549.33"/>
<polygon fill="none" stroke="#63b8ff" points="192.1,-577.09 198.21,-585.75 198.83,-575.17 192.1,-577.09"/>
</a>
</g>
</g>
<!-- Node6&#45;&gt;Node4 -->
<g id="edge6_Node000006_Node000004" class="edge">
<title>Node6&#45;&gt;Node4</title>
<g id="a_edge6_Node000006_Node000004"><a xlink:title=" ">
<path fill="none" stroke="orange" d="M267.1,-227.95C266.73,-227.63 266.37,-227.32 266,-227 230.99,-196.72 189.49,-166.32 154.31,-141.96"/>
<polygon fill="orange" stroke="orange" points="265.01,-230.78 274.8,-234.82 269.66,-225.55 265.01,-230.78"/>
</a>
</g>
<text text-anchor="middle" x="267" y="-201" font-family="Helvetica,sans-Serif" font-size="10.00" fill="grey"> &lt; Traits &gt;</text>
</g>
</g>
</svg>
