<?xml version="1.0" encoding="UTF-8" standalone="no"?>
<!DOCTYPE svg PUBLIC "-//W3C//DTD SVG 1.1//EN"
 "http://www.w3.org/Graphics/SVG/1.1/DTD/svg11.dtd">
<!-- Generated by graphviz version 2.43.0 (0)
 -->
<!-- Title: Ponca::NoWeightFunc&lt; DataPoint &gt; Pages: 1 -->
<svg width="389pt" height="612pt"
 viewBox="0.00 0.00 388.50 612.00" xmlns="http://www.w3.org/2000/svg" xmlns:xlink="http://www.w3.org/1999/xlink">
<g id="graph0" class="graph" transform="scale(1 1) rotate(0) translate(4 608)">
<title>Ponca::NoWeightFunc&lt; DataPoint &gt;</title>
<!-- Node1 -->
<g id="Node000001" class="node">
<title>Node1</title>
<g id="a_Node000001"><a xlink:title="Weighting function that set uniform weight to all samples, but transform neighbors coordinates to loc...">
<polygon fill="#999999" stroke="transparent" points="199.5,-60 83.5,-60 83.5,0 199.5,0 199.5,-60"/>
<text text-anchor="start" x="88.5" y="-48" font-family="Helvetica,sans-Serif" font-size="10.00">Ponca::NoWeightFunc</text>
<text text-anchor="start" x="106" y="-37" font-family="Helvetica,sans-Serif" font-size="10.00">&lt; DataPoint &gt;</text>
<text text-anchor="start" x="139.5" y="-22" font-family="Helvetica,sans-Serif" font-size="10.00"> </text>
<text text-anchor="start" x="139.5" y="-7" font-family="Helvetica,sans-Serif" font-size="10.00"> </text>
<polygon fill="#666666" stroke="#666666" points="83.5,-32 83.5,-32 199.5,-32 199.5,-32 83.5,-32"/>
<polygon fill="#666666" stroke="#666666" points="83.5,-17 83.5,-17 199.5,-17 199.5,-17 83.5,-17"/>
<polygon fill="none" stroke="#666666" points="83.5,0 83.5,-60 199.5,-60 199.5,0 83.5,0"/>
</a>
</g>
</g>
<!-- Node2 -->
<g id="Node000002" class="node">
<title>Node2</title>
<g id="a_Node000002"><a xlink:href="classPonca_1_1internal_1_1NoWeightFuncBase.html" target="_top" xlink:title=" ">
<polygon fill="white" stroke="transparent" points="227,-273 56,-273 56,-97 227,-97 227,-273"/>
<text text-anchor="start" x="61.5" y="-261" font-family="Helvetica,sans-Serif" font-size="10.00">Ponca::internal::NoWeight</text>
<text text-anchor="start" x="61.5" y="-250" font-family="Helvetica,sans-Serif" font-size="10.00">FuncBase&lt; DataPoint, internal</text>
<text text-anchor="start" x="61.5" y="-239" font-family="Helvetica,sans-Serif" font-size="10.00">::CenteredNeighborhoodFrame &gt;</text>
<text text-anchor="start" x="140" y="-224" font-family="Helvetica,sans-Serif" font-size="10.00"> </text>
<text text-anchor="start" x="72.5" y="-209" font-family="Helvetica,sans-Serif" font-size="10.00">+</text>
<text text-anchor="start" x="97.5" y="-209" font-family="Helvetica,sans-Serif" font-size="10.00">NoWeightFuncBase()</text>
<text text-anchor="start" x="72.5" y="-194" font-family="Helvetica,sans-Serif" font-size="10.00">+</text>
<text text-anchor="start" x="97.5" y="-194" font-family="Helvetica,sans-Serif" font-size="10.00">NoWeightFuncBase()</text>
<text text-anchor="start" x="72.5" y="-179" font-family="Helvetica,sans-Serif" font-size="10.00">+</text>
<text text-anchor="start" x="97.5" y="-179" font-family="Helvetica,sans-Serif" font-size="10.00">operator()()</text>
<text text-anchor="start" x="72.5" y="-164" font-family="Helvetica,sans-Serif" font-size="10.00">+</text>
<text text-anchor="start" x="97.5" y="-164" font-family="Helvetica,sans-Serif" font-size="10.00">spacedw()</text>
<text text-anchor="start" x="72.5" y="-149" font-family="Helvetica,sans-Serif" font-size="10.00">+</text>
<text text-anchor="start" x="97.5" y="-149" font-family="Helvetica,sans-Serif" font-size="10.00">spaced2w()</text>
<text text-anchor="start" x="72.5" y="-134" font-family="Helvetica,sans-Serif" font-size="10.00">+</text>
<text text-anchor="start" x="97.5" y="-134" font-family="Helvetica,sans-Serif" font-size="10.00">scaledw()</text>
<text text-anchor="start" x="72.5" y="-119" font-family="Helvetica,sans-Serif" font-size="10.00">+</text>
<text text-anchor="start" x="97.5" y="-119" font-family="Helvetica,sans-Serif" font-size="10.00">scaled2w()</text>
<text text-anchor="start" x="72.5" y="-104" font-family="Helvetica,sans-Serif" font-size="10.00">+</text>
<text text-anchor="start" x="97.5" y="-104" font-family="Helvetica,sans-Serif" font-size="10.00">scaleSpaced2w()</text>
<polygon fill="#666666" stroke="#666666" points="56.5,-234 56.5,-234 227.5,-234 227.5,-234 56.5,-234"/>
<polygon fill="#666666" stroke="#666666" points="56.5,-219 56.5,-219 227.5,-219 227.5,-219 56.5,-219"/>
<polygon fill="none" stroke="#666666" points="56,-97 56,-273 227,-273 227,-97 56,-97"/>
</a>
</g>
</g>
<!-- Node2&#45;&gt;Node1 -->
<g id="edge1_Node000001_Node000002" class="edge">
<title>Node2&#45;&gt;Node1</title>
<g id="a_edge1_Node000001_Node000002"><a xlink:title=" ">
<path fill="none" stroke="#63b8ff" d="M141.5,-86.71C141.5,-77.2 141.5,-68.14 141.5,-60.21"/>
<polygon fill="none" stroke="#63b8ff" points="138,-86.77 141.5,-96.77 145,-86.77 138,-86.77"/>
</a>
</g>
</g>
<!-- Node3 -->
<g id="Node000003" class="node">
<title>Node3</title>
<g id="a_Node000003"><a xlink:title=" ">
<polygon fill="white" stroke="transparent" points="167,-449 0,-449 0,-389 167,-389 167,-449"/>
<text text-anchor="start" x="5.5" y="-437" font-family="Helvetica,sans-Serif" font-size="10.00">internal::CenteredNeighborhood</text>
<text text-anchor="start" x="31.5" y="-426" font-family="Helvetica,sans-Serif" font-size="10.00">Frame &lt; DataPoint &gt;</text>
<text text-anchor="start" x="82" y="-411" font-family="Helvetica,sans-Serif" font-size="10.00"> </text>
<text text-anchor="start" x="82" y="-396" font-family="Helvetica,sans-Serif" font-size="10.00"> </text>
<polygon fill="#bfbfbf" stroke="#bfbfbf" points="0.5,-421 0.5,-421 167.5,-421 167.5,-421 0.5,-421"/>
<polygon fill="#bfbfbf" stroke="#bfbfbf" points="0.5,-406 0.5,-406 167.5,-406 167.5,-406 0.5,-406"/>
<polygon fill="none" stroke="#bfbfbf" points="0,-389 0,-449 167,-449 167,-389 0,-389"/>
</a>
</g>
</g>
<!-- Node3&#45;&gt;Node2 -->
<g id="edge2_Node000002_Node000003" class="edge">
<title>Node3&#45;&gt;Node2</title>
<g id="a_edge2_Node000002_Node000003"><a xlink:title=" ">
<path fill="none" stroke="#63b8ff" d="M93.27,-378.9C100.5,-349.99 110.63,-309.48 119.74,-273.04"/>
<polygon fill="none" stroke="#63b8ff" points="89.88,-378.07 90.85,-388.62 96.67,-379.76 89.88,-378.07"/>
</a>
</g>
</g>
<!-- Node4 -->
<g id="Node000004" class="node">
<title>Node4</title>
<g id="a_Node000004"><a xlink:href="classPonca_1_1internal_1_1NoWeightFuncBase.html" target="_top" xlink:title="Weighting function that set uniform weight to all samples.">
<polygon fill="white" stroke="transparent" points="380.5,-507 184.5,-507 184.5,-331 380.5,-331 380.5,-507"/>
<text text-anchor="start" x="189.5" y="-495" font-family="Helvetica,sans-Serif" font-size="10.00">Ponca::internal::NoWeight</text>
<text text-anchor="start" x="189.5" y="-484" font-family="Helvetica,sans-Serif" font-size="10.00">FuncBase&lt; DataPoint, _Neighborhood</text>
<text text-anchor="start" x="261" y="-473" font-family="Helvetica,sans-Serif" font-size="10.00">Frame &gt;</text>
<text text-anchor="start" x="280.5" y="-458" font-family="Helvetica,sans-Serif" font-size="10.00"> </text>
<text text-anchor="start" x="206.5" y="-443" font-family="Helvetica,sans-Serif" font-size="10.00">+</text>
<text text-anchor="start" x="237.5" y="-443" font-family="Helvetica,sans-Serif" font-size="10.00">NoWeightFuncBase()</text>
<text text-anchor="start" x="206.5" y="-428" font-family="Helvetica,sans-Serif" font-size="10.00">+</text>
<text text-anchor="start" x="237.5" y="-428" font-family="Helvetica,sans-Serif" font-size="10.00">NoWeightFuncBase()</text>
<text text-anchor="start" x="206.5" y="-413" font-family="Helvetica,sans-Serif" font-size="10.00">+</text>
<text text-anchor="start" x="237.5" y="-413" font-family="Helvetica,sans-Serif" font-size="10.00">operator()()</text>
<text text-anchor="start" x="206.5" y="-398" font-family="Helvetica,sans-Serif" font-size="10.00">+</text>
<text text-anchor="start" x="237.5" y="-398" font-family="Helvetica,sans-Serif" font-size="10.00">spacedw()</text>
<text text-anchor="start" x="206.5" y="-383" font-family="Helvetica,sans-Serif" font-size="10.00">+</text>
<text text-anchor="start" x="237.5" y="-383" font-family="Helvetica,sans-Serif" font-size="10.00">spaced2w()</text>
<text text-anchor="start" x="206.5" y="-368" font-family="Helvetica,sans-Serif" font-size="10.00">+</text>
<text text-anchor="start" x="237.5" y="-368" font-family="Helvetica,sans-Serif" font-size="10.00">scaledw()</text>
<text text-anchor="start" x="206.5" y="-353" font-family="Helvetica,sans-Serif" font-size="10.00">+</text>
<text text-anchor="start" x="237.5" y="-353" font-family="Helvetica,sans-Serif" font-size="10.00">scaled2w()</text>
<text text-anchor="start" x="206.5" y="-338" font-family="Helvetica,sans-Serif" font-size="10.00">+</text>
<text text-anchor="start" x="237.5" y="-338" font-family="Helvetica,sans-Serif" font-size="10.00">scaleSpaced2w()</text>
<polygon fill="#666666" stroke="#666666" points="184.5,-468 184.5,-468 380.5,-468 380.5,-468 184.5,-468"/>
<polygon fill="#666666" stroke="#666666" points="184.5,-453 184.5,-453 380.5,-453 380.5,-453 184.5,-453"/>
<polygon fill="none" stroke="#666666" points="184.5,-331 184.5,-507 380.5,-507 380.5,-331 184.5,-331"/>
</a>
</g>
</g>
<!-- Node4&#45;&gt;Node2 -->
<g id="edge3_Node000002_Node000004" class="edge">
<title>Node4&#45;&gt;Node2</title>
<g id="a_edge3_Node000002_Node000004"><a xlink:title=" ">
<path fill="none" stroke="orange" d="M224.17,-322.02C214.33,-305.83 204.16,-289.1 194.47,-273.15"/>
<polygon fill="orange" stroke="orange" points="221.41,-324.22 229.6,-330.95 227.39,-320.59 221.41,-324.22"/>
</a>
</g>
<text text-anchor="start" x="215.5" y="-305" font-family="Helvetica,sans-Serif" font-size="10.00" fill="grey"> &lt; DataPoint, internal</text>
<text text-anchor="middle" x="296" y="-294" font-family="Helvetica,sans-Serif" font-size="10.00" fill="grey">::CenteredNeighborhoodFrame &gt;</text>
</g>
<!-- Node5 -->
<g id="Node000005" class="node">
<title>Node5</title>
<g id="a_Node000005"><a xlink:title=" ">
<polygon fill="white" stroke="transparent" points="340,-604 225,-604 225,-544 340,-544 340,-604"/>
<text text-anchor="start" x="230.5" y="-592" font-family="Helvetica,sans-Serif" font-size="10.00">_NeighborhoodFrame</text>
<text text-anchor="start" x="247.5" y="-581" font-family="Helvetica,sans-Serif" font-size="10.00">&lt; DataPoint &gt;</text>
<text text-anchor="start" x="281" y="-566" font-family="Helvetica,sans-Serif" font-size="10.00"> </text>
<text text-anchor="start" x="281" y="-551" font-family="Helvetica,sans-Serif" font-size="10.00"> </text>
<polygon fill="#bfbfbf" stroke="#bfbfbf" points="225.5,-576 225.5,-576 340.5,-576 340.5,-576 225.5,-576"/>
<polygon fill="#bfbfbf" stroke="#bfbfbf" points="225.5,-561 225.5,-561 340.5,-561 340.5,-561 225.5,-561"/>
<polygon fill="none" stroke="#bfbfbf" points="225,-544 225,-604 340,-604 340,-544 225,-544"/>
</a>
</g>
</g>
<!-- Node5&#45;&gt;Node4 -->
<g id="edge4_Node000004_Node000005" class="edge">
<title>Node5&#45;&gt;Node4</title>
<g id="a_edge4_Node000004_Node000005"><a xlink:title=" ">
<path fill="none" stroke="#63b8ff" d="M282.5,-533.79C282.5,-525.47 282.5,-516.37 282.5,-507.06"/>
<polygon fill="none" stroke="#63b8ff" points="279,-533.86 282.5,-543.86 286,-533.86 279,-533.86"/>
</a>
</g>
</g>
</g>
</svg>
