<?xml version="1.0" encoding="UTF-8" standalone="no"?>
<!DOCTYPE svg PUBLIC "-//W3C//DTD SVG 1.1//EN"
 "http://www.w3.org/Graphics/SVG/1.1/DTD/svg11.dtd">
<!-- Generated by graphviz version 2.43.0 (0)
 -->
<!-- Title: Ponca::KdTreeDense&lt; DataPoint &gt; Pages: 1 -->
<svg width="318pt" height="1036pt"
 viewBox="0.00 0.00 318.00 1036.00" xmlns="http://www.w3.org/2000/svg" xmlns:xlink="http://www.w3.org/1999/xlink">
<g id="graph0" class="graph" transform="scale(1 1) rotate(0) translate(4 1032)">
<title>Ponca::KdTreeDense&lt; DataPoint &gt;</title>
<!-- Node1 -->
<g id="Node000001" class="node">
<title>Node1</title>
<g id="a_Node000001"><a xlink:title="[KdTree type definition]">
<polygon fill="#999999" stroke="transparent" points="178,-60 68,-60 68,0 178,0 178,-60"/>
<text text-anchor="start" x="73" y="-48" font-family="Helvetica,sans-Serif" font-size="10.00">Ponca::KdTreeDense</text>
<text text-anchor="start" x="87.5" y="-37" font-family="Helvetica,sans-Serif" font-size="10.00">&lt; DataPoint &gt;</text>
<text text-anchor="start" x="121" y="-22" font-family="Helvetica,sans-Serif" font-size="10.00"> </text>
<text text-anchor="start" x="121" y="-7" font-family="Helvetica,sans-Serif" font-size="10.00"> </text>
<polygon fill="#666666" stroke="#666666" points="68,-32 68,-32 178,-32 178,-32 68,-32"/>
<polygon fill="#666666" stroke="#666666" points="68,-17 68,-17 178,-17 178,-17 68,-17"/>
<polygon fill="none" stroke="#666666" points="68,0 68,-60 178,-60 178,0 68,0"/>
</a>
</g>
</g>
<!-- Node2 -->
<g id="Node000002" class="node">
<title>Node2</title>
<g id="a_Node000002"><a xlink:href="classPonca_1_1KdTreeDenseBase.html" target="_top" xlink:title=" ">
<polygon fill="white" stroke="transparent" points="190,-183 56,-183 56,-97 190,-97 190,-183"/>
<text text-anchor="start" x="61" y="-171" font-family="Helvetica,sans-Serif" font-size="10.00">Ponca::KdTreeDenseBase</text>
<text text-anchor="start" x="61" y="-160" font-family="Helvetica,sans-Serif" font-size="10.00">&lt; KdTreeDefaultTraits</text>
<text text-anchor="start" x="82" y="-149" font-family="Helvetica,sans-Serif" font-size="10.00">&lt; DataPoint &gt; &gt;</text>
<text text-anchor="start" x="121" y="-134" font-family="Helvetica,sans-Serif" font-size="10.00"> </text>
<text text-anchor="start" x="64" y="-119" font-family="Helvetica,sans-Serif" font-size="10.00">+</text>
<text text-anchor="start" x="81" y="-119" font-family="Helvetica,sans-Serif" font-size="10.00">KdTreeDenseBase()</text>
<text text-anchor="start" x="64" y="-104" font-family="Helvetica,sans-Serif" font-size="10.00">+</text>
<text text-anchor="start" x="81" y="-104" font-family="Helvetica,sans-Serif" font-size="10.00">KdTreeDenseBase()</text>
<polygon fill="#666666" stroke="#666666" points="56,-144 56,-144 190,-144 190,-144 56,-144"/>
<polygon fill="#666666" stroke="#666666" points="56,-129 56,-129 190,-129 190,-129 56,-129"/>
<polygon fill="none" stroke="#666666" points="56,-97 56,-183 190,-183 190,-97 56,-97"/>
</a>
</g>
</g>
<!-- Node2&#45;&gt;Node1 -->
<g id="edge1_Node000001_Node000002" class="edge">
<title>Node2&#45;&gt;Node1</title>
<g id="a_edge1_Node000001_Node000002"><a xlink:title=" ">
<path fill="none" stroke="#63b8ff" d="M123,-86.69C123,-77.54 123,-68.33 123,-60.1"/>
<polygon fill="none" stroke="#63b8ff" points="119.5,-86.94 123,-96.94 126.5,-86.94 119.5,-86.94"/>
</a>
</g>
</g>
<!-- Node3 -->
<g id="Node000003" class="node">
<title>Node3</title>
<g id="a_Node000003"><a xlink:href="classPonca_1_1KdTreeBase.html" target="_top" xlink:title="[KdTreeSparse type definition]">
<polygon fill="white" stroke="transparent" points="150,-616 0,-616 0,-241 150,-241 150,-616"/>
<text text-anchor="start" x="24.5" y="-603.5" font-family="Helvetica,sans-Serif" font-size="10.00">Ponca::KdTreeBase&lt;</text>
<text text-anchor="start" x="54.5" y="-592.5" font-family="Helvetica,sans-Serif" font-size="10.00"> Traits &gt;</text>
<text text-anchor="start" x="4" y="-577.5" font-family="Helvetica,sans-Serif" font-size="10.00">+</text>
<text text-anchor="start" x="17" y="-577.5" font-family="Helvetica,sans-Serif" font-size="10.00">MAX_NODE_COUNT</text>
<text text-anchor="start" x="4" y="-562.5" font-family="Helvetica,sans-Serif" font-size="10.00">+</text>
<text text-anchor="start" x="17" y="-562.5" font-family="Helvetica,sans-Serif" font-size="10.00">MAX_POINT_COUNT</text>
<text text-anchor="start" x="4" y="-547.5" font-family="Helvetica,sans-Serif" font-size="10.00">+</text>
<text text-anchor="start" x="17" y="-547.5" font-family="Helvetica,sans-Serif" font-size="10.00">MAX_DEPTH</text>
<text text-anchor="start" x="4" y="-532.5" font-family="Helvetica,sans-Serif" font-size="10.00">+</text>
<text text-anchor="start" x="17" y="-532.5" font-family="Helvetica,sans-Serif" font-size="10.00">SUPPORTS_SUBSAMPLING</text>
<text text-anchor="start" x="4" y="-517.5" font-family="Helvetica,sans-Serif" font-size="10.00">#</text>
<text text-anchor="start" x="17" y="-517.5" font-family="Helvetica,sans-Serif" font-size="10.00">m_points</text>
<text text-anchor="start" x="4" y="-502.5" font-family="Helvetica,sans-Serif" font-size="10.00">#</text>
<text text-anchor="start" x="17" y="-502.5" font-family="Helvetica,sans-Serif" font-size="10.00">m_nodes</text>
<text text-anchor="start" x="4" y="-487.5" font-family="Helvetica,sans-Serif" font-size="10.00">#</text>
<text text-anchor="start" x="17" y="-487.5" font-family="Helvetica,sans-Serif" font-size="10.00">m_indices</text>
<text text-anchor="start" x="4" y="-472.5" font-family="Helvetica,sans-Serif" font-size="10.00">#</text>
<text text-anchor="start" x="17" y="-472.5" font-family="Helvetica,sans-Serif" font-size="10.00">m_min_cell_size</text>
<text text-anchor="start" x="4" y="-457.5" font-family="Helvetica,sans-Serif" font-size="10.00">#</text>
<text text-anchor="start" x="17" y="-457.5" font-family="Helvetica,sans-Serif" font-size="10.00">m_leaf_count</text>
<text text-anchor="start" x="4" y="-442.5" font-family="Helvetica,sans-Serif" font-size="10.00">+</text>
<text text-anchor="start" x="17" y="-442.5" font-family="Helvetica,sans-Serif" font-size="10.00">build()</text>
<text text-anchor="start" x="4" y="-427.5" font-family="Helvetica,sans-Serif" font-size="10.00">+</text>
<text text-anchor="start" x="17" y="-427.5" font-family="Helvetica,sans-Serif" font-size="10.00">build()</text>
<text text-anchor="start" x="4" y="-412.5" font-family="Helvetica,sans-Serif" font-size="10.00">+</text>
<text text-anchor="start" x="17" y="-412.5" font-family="Helvetica,sans-Serif" font-size="10.00">clear()</text>
<text text-anchor="start" x="4" y="-397.5" font-family="Helvetica,sans-Serif" font-size="10.00">+</text>
<text text-anchor="start" x="17" y="-397.5" font-family="Helvetica,sans-Serif" font-size="10.00">node_count()</text>
<text text-anchor="start" x="4" y="-382.5" font-family="Helvetica,sans-Serif" font-size="10.00">+</text>
<text text-anchor="start" x="17" y="-382.5" font-family="Helvetica,sans-Serif" font-size="10.00">sample_count()</text>
<text text-anchor="start" x="4" y="-367.5" font-family="Helvetica,sans-Serif" font-size="10.00">+</text>
<text text-anchor="start" x="17" y="-367.5" font-family="Helvetica,sans-Serif" font-size="10.00">pointCount()</text>
<text text-anchor="start" x="4" y="-352.5" font-family="Helvetica,sans-Serif" font-size="10.00">+</text>
<text text-anchor="start" x="17" y="-352.5" font-family="Helvetica,sans-Serif" font-size="10.00">leaf_count()</text>
<text text-anchor="start" x="4" y="-337.5" font-family="Helvetica,sans-Serif" font-size="10.00">+</text>
<text text-anchor="start" x="17" y="-337.5" font-family="Helvetica,sans-Serif" font-size="10.00">points()</text>
<text text-anchor="start" x="4" y="-322.5" font-family="Helvetica,sans-Serif" font-size="10.00">+</text>
<text text-anchor="start" x="17" y="-322.5" font-family="Helvetica,sans-Serif" font-size="10.00">points()</text>
<text text-anchor="start" x="4" y="-307.5" font-family="Helvetica,sans-Serif" font-size="10.00">+</text>
<text text-anchor="start" x="17" y="-307.5" font-family="Helvetica,sans-Serif" font-size="10.00">nodes()</text>
<text text-anchor="start" x="17" y="-292.5" font-family="Helvetica,sans-Serif" font-size="10.00">and 22 more...</text>
<text text-anchor="start" x="4" y="-277.5" font-family="Helvetica,sans-Serif" font-size="10.00">#</text>
<text text-anchor="start" x="17" y="-277.5" font-family="Helvetica,sans-Serif" font-size="10.00">KdTreeBase()</text>
<text text-anchor="start" x="4" y="-262.5" font-family="Helvetica,sans-Serif" font-size="10.00">#</text>
<text text-anchor="start" x="17" y="-262.5" font-family="Helvetica,sans-Serif" font-size="10.00">buildWithSampling()</text>
<text text-anchor="start" x="4" y="-247.5" font-family="Helvetica,sans-Serif" font-size="10.00">#</text>
<text text-anchor="start" x="17" y="-247.5" font-family="Helvetica,sans-Serif" font-size="10.00">buildWithSampling()</text>
<polygon fill="#666666" stroke="#666666" points="0,-587.5 0,-587.5 150,-587.5 150,-587.5 0,-587.5"/>
<polygon fill="#666666" stroke="#666666" points="0,-452.5 0,-452.5 15,-452.5 15,-452.5 0,-452.5"/>
<polygon fill="#666666" stroke="#666666" points="15,-452.5 15,-452.5 150,-452.5 150,-452.5 15,-452.5"/>
<polygon fill="none" stroke="#666666" points="0,-241 0,-616 150,-616 150,-241 0,-241"/>
</a>
</g>
</g>
<!-- Node3&#45;&gt;Node2 -->
<g id="edge2_Node000002_Node000003" class="edge">
<title>Node3&#45;&gt;Node2</title>
<g id="a_edge2_Node000002_Node000003"><a xlink:title=" ">
<path fill="none" stroke="#63b8ff" d="M107.93,-230.93C110.88,-213.37 113.61,-197.06 115.92,-183.28"/>
<polygon fill="none" stroke="#63b8ff" points="104.48,-230.36 106.28,-240.8 111.38,-231.52 104.48,-230.36"/>
</a>
</g>
</g>
<!-- Node4 -->
<g id="Node000004" class="node">
<title>Node4</title>
<g id="a_Node000004"><a xlink:href="classPonca_1_1KdTreeDenseBase.html" target="_top" xlink:title="Customizable base class for dense KdTree datastructure.">
<polygon fill="white" stroke="transparent" points="302,-466 168,-466 168,-391 302,-391 302,-466"/>
<text text-anchor="start" x="173" y="-453.5" font-family="Helvetica,sans-Serif" font-size="10.00">Ponca::KdTreeDenseBase</text>
<text text-anchor="start" x="210.5" y="-442.5" font-family="Helvetica,sans-Serif" font-size="10.00">&lt; Traits &gt;</text>
<text text-anchor="start" x="233" y="-427.5" font-family="Helvetica,sans-Serif" font-size="10.00"> </text>
<text text-anchor="start" x="176" y="-412.5" font-family="Helvetica,sans-Serif" font-size="10.00">+</text>
<text text-anchor="start" x="193" y="-412.5" font-family="Helvetica,sans-Serif" font-size="10.00">KdTreeDenseBase()</text>
<text text-anchor="start" x="176" y="-397.5" font-family="Helvetica,sans-Serif" font-size="10.00">+</text>
<text text-anchor="start" x="193" y="-397.5" font-family="Helvetica,sans-Serif" font-size="10.00">KdTreeDenseBase()</text>
<polygon fill="#666666" stroke="#666666" points="168,-437.5 168,-437.5 302,-437.5 302,-437.5 168,-437.5"/>
<polygon fill="#666666" stroke="#666666" points="168,-422.5 168,-422.5 302,-422.5 302,-422.5 168,-422.5"/>
<polygon fill="none" stroke="#666666" points="168,-391 168,-466 302,-466 302,-391 168,-391"/>
</a>
</g>
</g>
<!-- Node4&#45;&gt;Node2 -->
<g id="edge3_Node000002_Node000004" class="edge">
<title>Node4&#45;&gt;Node2</title>
<g id="a_edge3_Node000002_Node000004"><a xlink:title=" ">
<path fill="none" stroke="orange" d="M217.01,-381.48C195.65,-326.83 160.3,-236.42 139.58,-183.41"/>
<polygon fill="orange" stroke="orange" points="213.8,-382.88 220.7,-390.92 220.32,-380.34 213.8,-382.88"/>
</a>
</g>
<text text-anchor="start" x="153" y="-215" font-family="Helvetica,sans-Serif" font-size="10.00" fill="grey"> &lt; KdTreeDefaultTraits</text>
<text text-anchor="middle" x="208" y="-204" font-family="Helvetica,sans-Serif" font-size="10.00" fill="grey">&lt; DataPoint &gt; &gt;</text>
</g>
<!-- Node5 -->
<g id="Node000005" class="node">
<title>Node5</title>
<g id="a_Node000005"><a xlink:href="classPonca_1_1KdTreeBase.html" target="_top" xlink:title="[KdTreeSparse type definition]">
<polygon fill="white" stroke="transparent" points="310,-1028 160,-1028 160,-653 310,-653 310,-1028"/>
<text text-anchor="start" x="184.5" y="-1015.5" font-family="Helvetica,sans-Serif" font-size="10.00">Ponca::KdTreeBase&lt;</text>
<text text-anchor="start" x="214.5" y="-1004.5" font-family="Helvetica,sans-Serif" font-size="10.00"> Traits &gt;</text>
<text text-anchor="start" x="164" y="-989.5" font-family="Helvetica,sans-Serif" font-size="10.00">+</text>
<text text-anchor="start" x="177" y="-989.5" font-family="Helvetica,sans-Serif" font-size="10.00">MAX_NODE_COUNT</text>
<text text-anchor="start" x="164" y="-974.5" font-family="Helvetica,sans-Serif" font-size="10.00">+</text>
<text text-anchor="start" x="177" y="-974.5" font-family="Helvetica,sans-Serif" font-size="10.00">MAX_POINT_COUNT</text>
<text text-anchor="start" x="164" y="-959.5" font-family="Helvetica,sans-Serif" font-size="10.00">+</text>
<text text-anchor="start" x="177" y="-959.5" font-family="Helvetica,sans-Serif" font-size="10.00">MAX_DEPTH</text>
<text text-anchor="start" x="164" y="-944.5" font-family="Helvetica,sans-Serif" font-size="10.00">+</text>
<text text-anchor="start" x="177" y="-944.5" font-family="Helvetica,sans-Serif" font-size="10.00">SUPPORTS_SUBSAMPLING</text>
<text text-anchor="start" x="164" y="-929.5" font-family="Helvetica,sans-Serif" font-size="10.00">#</text>
<text text-anchor="start" x="177" y="-929.5" font-family="Helvetica,sans-Serif" font-size="10.00">m_points</text>
<text text-anchor="start" x="164" y="-914.5" font-family="Helvetica,sans-Serif" font-size="10.00">#</text>
<text text-anchor="start" x="177" y="-914.5" font-family="Helvetica,sans-Serif" font-size="10.00">m_nodes</text>
<text text-anchor="start" x="164" y="-899.5" font-family="Helvetica,sans-Serif" font-size="10.00">#</text>
<text text-anchor="start" x="177" y="-899.5" font-family="Helvetica,sans-Serif" font-size="10.00">m_indices</text>
<text text-anchor="start" x="164" y="-884.5" font-family="Helvetica,sans-Serif" font-size="10.00">#</text>
<text text-anchor="start" x="177" y="-884.5" font-family="Helvetica,sans-Serif" font-size="10.00">m_min_cell_size</text>
<text text-anchor="start" x="164" y="-869.5" font-family="Helvetica,sans-Serif" font-size="10.00">#</text>
<text text-anchor="start" x="177" y="-869.5" font-family="Helvetica,sans-Serif" font-size="10.00">m_leaf_count</text>
<text text-anchor="start" x="164" y="-854.5" font-family="Helvetica,sans-Serif" font-size="10.00">+</text>
<text text-anchor="start" x="177" y="-854.5" font-family="Helvetica,sans-Serif" font-size="10.00">build()</text>
<text text-anchor="start" x="164" y="-839.5" font-family="Helvetica,sans-Serif" font-size="10.00">+</text>
<text text-anchor="start" x="177" y="-839.5" font-family="Helvetica,sans-Serif" font-size="10.00">build()</text>
<text text-anchor="start" x="164" y="-824.5" font-family="Helvetica,sans-Serif" font-size="10.00">+</text>
<text text-anchor="start" x="177" y="-824.5" font-family="Helvetica,sans-Serif" font-size="10.00">clear()</text>
<text text-anchor="start" x="164" y="-809.5" font-family="Helvetica,sans-Serif" font-size="10.00">+</text>
<text text-anchor="start" x="177" y="-809.5" font-family="Helvetica,sans-Serif" font-size="10.00">node_count()</text>
<text text-anchor="start" x="164" y="-794.5" font-family="Helvetica,sans-Serif" font-size="10.00">+</text>
<text text-anchor="start" x="177" y="-794.5" font-family="Helvetica,sans-Serif" font-size="10.00">sample_count()</text>
<text text-anchor="start" x="164" y="-779.5" font-family="Helvetica,sans-Serif" font-size="10.00">+</text>
<text text-anchor="start" x="177" y="-779.5" font-family="Helvetica,sans-Serif" font-size="10.00">pointCount()</text>
<text text-anchor="start" x="164" y="-764.5" font-family="Helvetica,sans-Serif" font-size="10.00">+</text>
<text text-anchor="start" x="177" y="-764.5" font-family="Helvetica,sans-Serif" font-size="10.00">leaf_count()</text>
<text text-anchor="start" x="164" y="-749.5" font-family="Helvetica,sans-Serif" font-size="10.00">+</text>
<text text-anchor="start" x="177" y="-749.5" font-family="Helvetica,sans-Serif" font-size="10.00">points()</text>
<text text-anchor="start" x="164" y="-734.5" font-family="Helvetica,sans-Serif" font-size="10.00">+</text>
<text text-anchor="start" x="177" y="-734.5" font-family="Helvetica,sans-Serif" font-size="10.00">points()</text>
<text text-anchor="start" x="164" y="-719.5" font-family="Helvetica,sans-Serif" font-size="10.00">+</text>
<text text-anchor="start" x="177" y="-719.5" font-family="Helvetica,sans-Serif" font-size="10.00">nodes()</text>
<text text-anchor="start" x="177" y="-704.5" font-family="Helvetica,sans-Serif" font-size="10.00">and 22 more...</text>
<text text-anchor="start" x="164" y="-689.5" font-family="Helvetica,sans-Serif" font-size="10.00">#</text>
<text text-anchor="start" x="177" y="-689.5" font-family="Helvetica,sans-Serif" font-size="10.00">KdTreeBase()</text>
<text text-anchor="start" x="164" y="-674.5" font-family="Helvetica,sans-Serif" font-size="10.00">#</text>
<text text-anchor="start" x="177" y="-674.5" font-family="Helvetica,sans-Serif" font-size="10.00">buildWithSampling()</text>
<text text-anchor="start" x="164" y="-659.5" font-family="Helvetica,sans-Serif" font-size="10.00">#</text>
<text text-anchor="start" x="177" y="-659.5" font-family="Helvetica,sans-Serif" font-size="10.00">buildWithSampling()</text>
<polygon fill="#666666" stroke="#666666" points="160,-999.5 160,-999.5 310,-999.5 310,-999.5 160,-999.5"/>
<polygon fill="#666666" stroke="#666666" points="160,-864.5 160,-864.5 175,-864.5 175,-864.5 160,-864.5"/>
<polygon fill="#666666" stroke="#666666" points="175,-864.5 175,-864.5 310,-864.5 310,-864.5 175,-864.5"/>
<polygon fill="none" stroke="#666666" points="160,-653 160,-1028 310,-1028 310,-653 160,-653"/>
</a>
</g>
</g>
<!-- Node5&#45;&gt;Node4 -->
<g id="edge4_Node000004_Node000005" class="edge">
<title>Node5&#45;&gt;Node4</title>
<g id="a_edge4_Node000004_Node000005"><a xlink:title=" ">
<path fill="none" stroke="#63b8ff" d="M235,-642.44C235,-575.09 235,-506.61 235,-466.1"/>
<polygon fill="none" stroke="#63b8ff" points="231.5,-642.8 235,-652.8 238.5,-642.8 231.5,-642.8"/>
</a>
</g>
</g>
</g>
</svg>
