<?xml version="1.0" encoding="UTF-8" standalone="no"?>
<!DOCTYPE svg PUBLIC "-//W3C//DTD SVG 1.1//EN"
 "http://www.w3.org/Graphics/SVG/1.1/DTD/svg11.dtd">
<!-- Generated by graphviz version 2.43.0 (0)
 -->
<!-- Title: Ponca::KNearestPointQuery&lt; DataPoint &gt; Pages: 1 -->
<svg width="962pt" height="1183pt"
 viewBox="0.00 0.00 962.00 1183.00" xmlns="http://www.w3.org/2000/svg" xmlns:xlink="http://www.w3.org/1999/xlink">
<g id="graph0" class="graph" transform="scale(1 1) rotate(0) translate(4 1179)">
<title>Ponca::KNearestPointQuery&lt; DataPoint &gt;</title>
<!-- Node1 -->
<g id="node1" class="node">
<title>Node1</title>
<g id="a_node1"><a xlink:title="Base Query class combining QueryInputIsPosition and QueryOutputIsKNearest.">
<polygon fill="#999999" stroke="#666666" points="469.5,-41 312.5,-41 312.5,0 469.5,0 469.5,-41"/>
<text text-anchor="start" x="320.5" y="-29" font-family="Helvetica,sans-Serif" font-size="10.00">{Ponca::KNearestPointQuery</text>
<text text-anchor="middle" x="391" y="-18" font-family="Helvetica,sans-Serif" font-size="10.00">&lt; DataPoint &gt;</text>
<text text-anchor="middle" x="391" y="-7" font-family="Helvetica,sans-Serif" font-size="10.00">||}</text>
</a>
</g>
</g>
<!-- Node2 -->
<g id="node2" class="node">
<title>Node2</title>
<g id="a_node2"><a xlink:href="group__spatialpartitioning.html" target="_top" xlink:title=" ">
<polygon fill="white" stroke="#bfbfbf" points="467,-163 315,-163 315,-78 467,-78 467,-163"/>
<text text-anchor="start" x="323" y="-151" font-family="Helvetica,sans-Serif" font-size="10.00">{Ponca::Query&lt; QueryInput</text>
<text text-anchor="start" x="323" y="-140" font-family="Helvetica,sans-Serif" font-size="10.00">IsPosition&lt; DataPoint</text>
<text text-anchor="start" x="323" y="-129" font-family="Helvetica,sans-Serif" font-size="10.00"> &gt;, QueryOutputIsKNearest</text>
<text text-anchor="middle" x="391" y="-118" font-family="Helvetica,sans-Serif" font-size="10.00">&lt; DataPoint::Scalar &gt; &gt;</text>
<text text-anchor="start" x="323" y="-107" font-family="Helvetica,sans-Serif" font-size="10.00">||+ Query()</text>
<text text-anchor="start" x="323" y="-96" font-family="Helvetica,sans-Serif" font-size="10.00">+ Query()</text>
<text text-anchor="middle" x="391" y="-85" font-family="Helvetica,sans-Serif" font-size="10.00">}</text>
</a>
</g>
</g>
<!-- Node2&#45;&gt;Node1 -->
<g id="edge1" class="edge">
<title>Node2&#45;&gt;Node1</title>
<path fill="none" stroke="#63b8ff" d="M391,-67.72C391,-58.29 391,-48.99 391,-41.24"/>
<polygon fill="none" stroke="#63b8ff" points="387.5,-67.94 391,-77.94 394.5,-67.94 387.5,-67.94"/>
</g>
<!-- Node3 -->
<g id="node3" class="node">
<title>Node3</title>
<g id="a_node3"><a xlink:href="group__spatialpartitioning.html#structPonca_1_1QueryInputIsPosition" target="_top" xlink:title="Base class for queries storing points.">
<polygon fill="white" stroke="#666666" points="266.5,-295 107.5,-295 107.5,-243 266.5,-243 266.5,-295"/>
<text text-anchor="start" x="115.5" y="-283" font-family="Helvetica,sans-Serif" font-size="10.00">{Ponca::QueryInputIsPosition</text>
<text text-anchor="middle" x="187" y="-272" font-family="Helvetica,sans-Serif" font-size="10.00">&lt; DataPoint &gt;</text>
<text text-anchor="start" x="115.5" y="-261" font-family="Helvetica,sans-Serif" font-size="10.00">||+ QueryInputIsPosition()</text>
<text text-anchor="middle" x="187" y="-250" font-family="Helvetica,sans-Serif" font-size="10.00">}</text>
</a>
</g>
</g>
<!-- Node3&#45;&gt;Node2 -->
<g id="edge2" class="edge">
<title>Node3&#45;&gt;Node2</title>
<path fill="none" stroke="#63b8ff" d="M230.21,-236.97C260.09,-215.51 300.19,-186.71 332.87,-163.25"/>
<polygon fill="none" stroke="#63b8ff" points="228.15,-234.14 222.07,-242.82 232.23,-239.83 228.15,-234.14"/>
</g>
<!-- Node4 -->
<g id="node4" class="node">
<title>Node4</title>
<g id="a_node4"><a xlink:href="group__spatialpartitioning.html" target="_top" xlink:title=" ">
<polygon fill="white" stroke="#666666" points="196,-427 58,-427 58,-353 196,-353 196,-427"/>
<text text-anchor="start" x="66" y="-415" font-family="Helvetica,sans-Serif" font-size="10.00">{Ponca::QueryInput&lt;</text>
<text text-anchor="middle" x="127" y="-404" font-family="Helvetica,sans-Serif" font-size="10.00"> DataPoint::VectorType &gt;</text>
<text text-anchor="start" x="66" y="-393" font-family="Helvetica,sans-Serif" font-size="10.00">||+ QueryInput()</text>
<text text-anchor="start" x="66" y="-382" font-family="Helvetica,sans-Serif" font-size="10.00">+ input()</text>
<text text-anchor="start" x="66" y="-371" font-family="Helvetica,sans-Serif" font-size="10.00"># editInput()</text>
<text text-anchor="middle" x="127" y="-360" font-family="Helvetica,sans-Serif" font-size="10.00">}</text>
</a>
</g>
</g>
<!-- Node4&#45;&gt;Node3 -->
<g id="edge3" class="edge">
<title>Node4&#45;&gt;Node3</title>
<path fill="none" stroke="#63b8ff" d="M149.68,-344.02C157.99,-327.55 167.09,-309.49 174.23,-295.34"/>
<polygon fill="none" stroke="#63b8ff" points="146.54,-342.47 145.16,-352.97 152.79,-345.62 146.54,-342.47"/>
</g>
<!-- Node5 -->
<g id="node5" class="node">
<title>Node5</title>
<g id="a_node5"><a xlink:href="group__spatialpartitioning.html#structPonca_1_1QueryInputBase" target="_top" xlink:title="Base class for queries input type.">
<polygon fill="white" stroke="#666666" points="136,-839.5 0,-839.5 0,-809.5 136,-809.5 136,-839.5"/>
<text text-anchor="middle" x="68" y="-827.5" font-family="Helvetica,sans-Serif" font-size="10.00">{Ponca::QueryInputBase</text>
<text text-anchor="middle" x="68" y="-816.5" font-family="Helvetica,sans-Serif" font-size="10.00">||}</text>
</a>
</g>
</g>
<!-- Node5&#45;&gt;Node4 -->
<g id="edge4" class="edge">
<title>Node5&#45;&gt;Node4</title>
<path fill="none" stroke="#63b8ff" d="M61.48,-799.56C46.91,-741.56 16.15,-589.82 58,-474 64.24,-456.73 75.82,-440.52 87.73,-427.09"/>
<polygon fill="none" stroke="#63b8ff" points="58.1,-800.46 63.99,-809.26 64.87,-798.71 58.1,-800.46"/>
</g>
<!-- Node6 -->
<g id="node6" class="node">
<title>Node6</title>
<g id="a_node6"><a xlink:href="group__spatialpartitioning.html#structPonca_1_1QueryInput" target="_top" xlink:title="Base class for typed queries input type.">
<polygon fill="white" stroke="#666666" points="187,-608.5 67,-608.5 67,-534.5 187,-534.5 187,-608.5"/>
<text text-anchor="start" x="75" y="-596.5" font-family="Helvetica,sans-Serif" font-size="10.00">{Ponca::QueryInput&lt;</text>
<text text-anchor="middle" x="127" y="-585.5" font-family="Helvetica,sans-Serif" font-size="10.00"> InputType_ &gt;</text>
<text text-anchor="start" x="75" y="-574.5" font-family="Helvetica,sans-Serif" font-size="10.00">||+ QueryInput()</text>
<text text-anchor="start" x="75" y="-563.5" font-family="Helvetica,sans-Serif" font-size="10.00">+ input()</text>
<text text-anchor="start" x="75" y="-552.5" font-family="Helvetica,sans-Serif" font-size="10.00"># editInput()</text>
<text text-anchor="middle" x="127" y="-541.5" font-family="Helvetica,sans-Serif" font-size="10.00">}</text>
</a>
</g>
</g>
<!-- Node5&#45;&gt;Node6 -->
<g id="edge6" class="edge">
<title>Node5&#45;&gt;Node6</title>
<path fill="none" stroke="#63b8ff" d="M73.66,-799.41C84.07,-755.14 106.28,-660.63 118.51,-608.64"/>
<polygon fill="none" stroke="#63b8ff" points="70.22,-798.75 71.34,-809.29 77.04,-800.35 70.22,-798.75"/>
</g>
<!-- Node6&#45;&gt;Node4 -->
<g id="edge5" class="edge">
<title>Node6&#45;&gt;Node4</title>
<path fill="none" stroke="orange" d="M127,-523.9C127,-493.77 127,-455.11 127,-427.27"/>
<polygon fill="orange" stroke="orange" points="123.5,-524.18 127,-534.18 130.5,-524.18 123.5,-524.18"/>
<text text-anchor="middle" x="193.5" y="-448" font-family="Helvetica,sans-Serif" font-size="10.00"> &lt; DataPoint::VectorType &gt;</text>
</g>
<!-- Node7 -->
<g id="node7" class="node">
<title>Node7</title>
<g id="a_node7"><a xlink:href="group__spatialpartitioning.html" target="_top" xlink:title=" ">
<polygon fill="white" stroke="#666666" points="477.5,-306 304.5,-306 304.5,-232 477.5,-232 477.5,-306"/>
<text text-anchor="start" x="312.5" y="-294" font-family="Helvetica,sans-Serif" font-size="10.00">{Ponca::QueryOutputIsKNearest</text>
<text text-anchor="middle" x="391" y="-283" font-family="Helvetica,sans-Serif" font-size="10.00">&lt; DataPoint::Scalar &gt;</text>
<text text-anchor="start" x="312.5" y="-272" font-family="Helvetica,sans-Serif" font-size="10.00">||+ QueryOutputIsKNearest()</text>
<text text-anchor="start" x="312.5" y="-261" font-family="Helvetica,sans-Serif" font-size="10.00">+ queue()</text>
<text text-anchor="start" x="312.5" y="-250" font-family="Helvetica,sans-Serif" font-size="10.00"># reset()</text>
<text text-anchor="middle" x="391" y="-239" font-family="Helvetica,sans-Serif" font-size="10.00">}</text>
</a>
</g>
</g>
<!-- Node7&#45;&gt;Node2 -->
<g id="edge7" class="edge">
<title>Node7&#45;&gt;Node2</title>
<path fill="none" stroke="#63b8ff" d="M391,-221.7C391,-202.97 391,-181.5 391,-163.26"/>
<polygon fill="none" stroke="#63b8ff" points="387.5,-221.79 391,-231.79 394.5,-221.79 387.5,-221.79"/>
</g>
<!-- Node8 -->
<g id="node8" class="node">
<title>Node8</title>
<g id="a_node8"><a xlink:href="group__spatialpartitioning.html#structPonca_1_1QueryOutputBase" target="_top" xlink:title="Base class for queries output type.">
<polygon fill="white" stroke="#666666" points="349,-586.5 205,-586.5 205,-556.5 349,-556.5 349,-586.5"/>
<text text-anchor="middle" x="277" y="-574.5" font-family="Helvetica,sans-Serif" font-size="10.00">{Ponca::QueryOutputBase</text>
<text text-anchor="middle" x="277" y="-563.5" font-family="Helvetica,sans-Serif" font-size="10.00">||}</text>
</a>
</g>
</g>
<!-- Node8&#45;&gt;Node7 -->
<g id="edge8" class="edge">
<title>Node8&#45;&gt;Node7</title>
<path fill="none" stroke="#63b8ff" d="M273.49,-546.19C268.62,-504.22 263.7,-416.6 296,-353 305.22,-334.84 320.28,-318.92 335.72,-306.01"/>
<polygon fill="none" stroke="#63b8ff" points="270.04,-546.81 274.77,-556.29 276.99,-545.93 270.04,-546.81"/>
</g>
<!-- Node16 -->
<g id="node16" class="node">
<title>Node16</title>
<g id="a_node16"><a xlink:href="group__spatialpartitioning.html#structPonca_1_1QueryOutputIsKNearest" target="_top" xlink:title="Base class for knearest queries.">
<polygon fill="white" stroke="#666666" points="478.5,-427 305.5,-427 305.5,-353 478.5,-353 478.5,-427"/>
<text text-anchor="start" x="313.5" y="-415" font-family="Helvetica,sans-Serif" font-size="10.00">{Ponca::QueryOutputIsKNearest</text>
<text text-anchor="middle" x="392" y="-404" font-family="Helvetica,sans-Serif" font-size="10.00">&lt; Scalar &gt;</text>
<text text-anchor="start" x="313.5" y="-393" font-family="Helvetica,sans-Serif" font-size="10.00">||+ QueryOutputIsKNearest()</text>
<text text-anchor="start" x="313.5" y="-382" font-family="Helvetica,sans-Serif" font-size="10.00">+ queue()</text>
<text text-anchor="start" x="313.5" y="-371" font-family="Helvetica,sans-Serif" font-size="10.00"># reset()</text>
<text text-anchor="middle" x="392" y="-360" font-family="Helvetica,sans-Serif" font-size="10.00">}</text>
</a>
</g>
</g>
<!-- Node8&#45;&gt;Node16 -->
<g id="edge17" class="edge">
<title>Node8&#45;&gt;Node16</title>
<path fill="none" stroke="#63b8ff" d="M291.55,-547.79C311.03,-517.38 345.81,-463.1 368.89,-427.07"/>
<polygon fill="none" stroke="#63b8ff" points="288.47,-546.11 286.02,-556.41 294.37,-549.88 288.47,-546.11"/>
</g>
<!-- Node9 -->
<g id="node9" class="node">
<title>Node9</title>
<g id="a_node9"><a xlink:href="group__common.html" target="_top" xlink:title=" ">
<polygon fill="white" stroke="#666666" points="801,-669 593,-669 593,-474 801,-474 801,-669"/>
<text text-anchor="start" x="601" y="-657" font-family="Helvetica,sans-Serif" font-size="10.00">{Ponca::limited_priority</text>
<text text-anchor="start" x="601" y="-646" font-family="Helvetica,sans-Serif" font-size="10.00">_queue&lt; Ponca::IndexSquaredDistance</text>
<text text-anchor="middle" x="697" y="-635" font-family="Helvetica,sans-Serif" font-size="10.00">&lt; DataPoint::Scalar &gt; &gt;</text>
<text text-anchor="start" x="601" y="-624" font-family="Helvetica,sans-Serif" font-size="10.00">|# m_comp</text>
<text text-anchor="start" x="601" y="-613" font-family="Helvetica,sans-Serif" font-size="10.00"># m_size</text>
<text text-anchor="start" x="601" y="-602" font-family="Helvetica,sans-Serif" font-size="10.00">|+ limited_priority_queue()</text>
<text text-anchor="start" x="601" y="-591" font-family="Helvetica,sans-Serif" font-size="10.00">+ limited_priority_queue()</text>
<text text-anchor="start" x="601" y="-580" font-family="Helvetica,sans-Serif" font-size="10.00">+ limited_priority_queue()</text>
<text text-anchor="start" x="601" y="-569" font-family="Helvetica,sans-Serif" font-size="10.00">+ limited_priority_queue()</text>
<text text-anchor="start" x="601" y="-558" font-family="Helvetica,sans-Serif" font-size="10.00">+ ~limited_priority_queue()</text>
<text text-anchor="start" x="601" y="-547" font-family="Helvetica,sans-Serif" font-size="10.00">+ operator=()</text>
<text text-anchor="start" x="601" y="-536" font-family="Helvetica,sans-Serif" font-size="10.00">+ begin()</text>
<text text-anchor="start" x="601" y="-525" font-family="Helvetica,sans-Serif" font-size="10.00">+ begin()</text>
<text text-anchor="start" x="601" y="-514" font-family="Helvetica,sans-Serif" font-size="10.00">+ cbegin()</text>
<text text-anchor="start" x="601" y="-503" font-family="Helvetica,sans-Serif" font-size="10.00">+ end()</text>
<text text-anchor="start" x="601" y="-492" font-family="Helvetica,sans-Serif" font-size="10.00">and 16 more...</text>
<text text-anchor="middle" x="697" y="-481" font-family="Helvetica,sans-Serif" font-size="10.00">}</text>
</a>
</g>
</g>
<!-- Node9&#45;&gt;Node7 -->
<g id="edge9" class="edge">
<title>Node9&#45;&gt;Node7</title>
<path fill="none" stroke="#404040" d="M592.75,-481.25C589.81,-478.8 586.89,-476.38 584,-474 558.14,-452.67 542.78,-455.42 525,-427 500.13,-387.23 531.09,-360.8 502,-324 497.76,-318.64 492.86,-313.78 487.53,-309.37"/>
<polygon fill="none" stroke="#404040" points="487.14,-309.08 479.93,-308.72 477.5,-301.93 484.7,-302.3 487.14,-309.08"/>
<text text-anchor="middle" x="553.5" y="-387.5" font-family="Helvetica,sans-Serif" font-size="10.00"> #m_queue</text>
</g>
<!-- Node10 -->
<g id="node10" class="node">
<title>Node10</title>
<g id="a_node10"><a xlink:title=" ">
<polygon fill="white" stroke="#666666" points="911,-850.5 777,-850.5 777,-798.5 911,-798.5 911,-850.5"/>
<text text-anchor="start" x="785" y="-838.5" font-family="Helvetica,sans-Serif" font-size="10.00">{std::vector&lt; Ponca</text>
<text text-anchor="start" x="785" y="-827.5" font-family="Helvetica,sans-Serif" font-size="10.00">::IndexSquaredDistance</text>
<text text-anchor="middle" x="844" y="-816.5" font-family="Helvetica,sans-Serif" font-size="10.00">&lt; DataPoint::Scalar &gt; &gt;</text>
<text text-anchor="middle" x="844" y="-805.5" font-family="Helvetica,sans-Serif" font-size="10.00">||}</text>
</a>
</g>
</g>
<!-- Node10&#45;&gt;Node9 -->
<g id="edge10" class="edge">
<title>Node10&#45;&gt;Node9</title>
<path fill="none" stroke="#404040" d="M848.28,-798.29C851.89,-769.66 853.96,-722.34 836,-687 829.18,-673.58 820.02,-661.17 809.62,-649.84"/>
<polygon fill="none" stroke="#404040" points="809.4,-649.61 802.35,-648.09 801.05,-641 808.09,-642.52 809.4,-649.61"/>
<text text-anchor="middle" x="859" y="-695.5" font-family="Helvetica,sans-Serif" font-size="10.00"> #m_c</text>
</g>
<!-- Node11 -->
<g id="node11" class="node">
<title>Node11</title>
<g id="a_node11"><a xlink:href="group__spatialpartitioning.html" target="_top" xlink:title=" ">
<polygon fill="white" stroke="#666666" points="927.5,-1054 760.5,-1054 760.5,-980 927.5,-980 927.5,-1054"/>
<text text-anchor="start" x="768.5" y="-1042" font-family="Helvetica,sans-Serif" font-size="10.00">{Ponca::IndexSquaredDistance</text>
<text text-anchor="middle" x="844" y="-1031" font-family="Helvetica,sans-Serif" font-size="10.00">&lt; DataPoint::Scalar &gt;</text>
<text text-anchor="start" x="768.5" y="-1020" font-family="Helvetica,sans-Serif" font-size="10.00">|+ index</text>
<text text-anchor="start" x="768.5" y="-1009" font-family="Helvetica,sans-Serif" font-size="10.00">+ squared_distance</text>
<text text-anchor="start" x="768.5" y="-998" font-family="Helvetica,sans-Serif" font-size="10.00">|+ operator&lt;()</text>
<text text-anchor="middle" x="844" y="-987" font-family="Helvetica,sans-Serif" font-size="10.00">}</text>
</a>
</g>
</g>
<!-- Node11&#45;&gt;Node10 -->
<g id="edge11" class="edge">
<title>Node11&#45;&gt;Node10</title>
<path fill="none" stroke="#404040" d="M844,-979.72C844,-946.22 844,-896.67 844,-862.83"/>
<polygon fill="none" stroke="#404040" points="844,-862.7 840,-856.7 844,-850.7 848,-856.7 844,-862.7"/>
<text text-anchor="middle" x="873" y="-948.5" font-family="Helvetica,sans-Serif" font-size="10.00"> +elements</text>
</g>
<!-- Node12 -->
<g id="node12" class="node">
<title>Node12</title>
<g id="a_node12"><a xlink:href="group__spatialpartitioning.html#structPonca_1_1IndexSquaredDistance" target="_top" xlink:title="Associates an index with a distance.">
<polygon fill="white" stroke="#666666" points="927.5,-1175 760.5,-1175 760.5,-1101 927.5,-1101 927.5,-1175"/>
<text text-anchor="start" x="768.5" y="-1163" font-family="Helvetica,sans-Serif" font-size="10.00">{Ponca::IndexSquaredDistance</text>
<text text-anchor="middle" x="844" y="-1152" font-family="Helvetica,sans-Serif" font-size="10.00">&lt; Scalar &gt;</text>
<text text-anchor="start" x="768.5" y="-1141" font-family="Helvetica,sans-Serif" font-size="10.00">|+ index</text>
<text text-anchor="start" x="768.5" y="-1130" font-family="Helvetica,sans-Serif" font-size="10.00">+ squared_distance</text>
<text text-anchor="start" x="768.5" y="-1119" font-family="Helvetica,sans-Serif" font-size="10.00">|+ operator&lt;()</text>
<text text-anchor="middle" x="844" y="-1108" font-family="Helvetica,sans-Serif" font-size="10.00">}</text>
</a>
</g>
</g>
<!-- Node12&#45;&gt;Node11 -->
<g id="edge12" class="edge">
<title>Node12&#45;&gt;Node11</title>
<path fill="none" stroke="orange" d="M844,-1090.63C844,-1078.58 844,-1065.77 844,-1054.32"/>
<polygon fill="orange" stroke="orange" points="840.5,-1090.97 844,-1100.97 847.5,-1090.97 840.5,-1090.97"/>
<text text-anchor="middle" x="899" y="-1075" font-family="Helvetica,sans-Serif" font-size="10.00"> &lt; DataPoint::Scalar &gt;</text>
</g>
<!-- Node13 -->
<g id="node13" class="node">
<title>Node13</title>
<g id="a_node13"><a xlink:title=" ">
<polygon fill="white" stroke="#666666" points="616.5,-1032 513.5,-1032 513.5,-1002 616.5,-1002 616.5,-1032"/>
<text text-anchor="middle" x="565" y="-1020" font-family="Helvetica,sans-Serif" font-size="10.00">{std::vector&lt; T &gt;</text>
<text text-anchor="middle" x="565" y="-1009" font-family="Helvetica,sans-Serif" font-size="10.00">||}</text>
</a>
</g>
</g>
<!-- Node13&#45;&gt;Node10 -->
<g id="edge13" class="edge">
<title>Node13&#45;&gt;Node10</title>
<path fill="none" stroke="orange" d="M590.13,-995.54C612.47,-978.33 646.65,-954.31 680,-940 712.69,-925.97 727.39,-940.13 758,-922 787.73,-904.39 812.82,-873.04 828.08,-850.86"/>
<polygon fill="orange" stroke="orange" points="587.89,-992.85 582.18,-1001.77 592.21,-998.36 587.89,-992.85"/>
<text text-anchor="start" x="680" y="-954" font-family="Helvetica,sans-Serif" font-size="10.00"> &lt; Ponca::IndexSquaredDistance</text>
<text text-anchor="middle" x="760" y="-943" font-family="Helvetica,sans-Serif" font-size="10.00">&lt; DataPoint::Scalar &gt; &gt;</text>
</g>
<!-- Node18 -->
<g id="node18" class="node">
<title>Node18</title>
<g id="a_node18"><a xlink:title=" ">
<polygon fill="white" stroke="#666666" points="506,-856 374,-856 374,-793 506,-793 506,-856"/>
<text text-anchor="start" x="382" y="-844" font-family="Helvetica,sans-Serif" font-size="10.00">{std::vector&lt; Ponca</text>
<text text-anchor="start" x="382" y="-833" font-family="Helvetica,sans-Serif" font-size="10.00">::IndexSquaredDistance</text>
<text text-anchor="middle" x="440" y="-822" font-family="Helvetica,sans-Serif" font-size="10.00">&lt; Scalar &gt; &gt;</text>
<text text-anchor="start" x="382" y="-811" font-family="Helvetica,sans-Serif" font-size="10.00">|+ elements</text>
<text text-anchor="middle" x="440" y="-800" font-family="Helvetica,sans-Serif" font-size="10.00">|}</text>
</a>
</g>
</g>
<!-- Node13&#45;&gt;Node18 -->
<g id="edge20" class="edge">
<title>Node13&#45;&gt;Node18</title>
<path fill="none" stroke="orange" d="M517.96,-997.2C501.9,-988.66 485.18,-977.03 474,-962 450.82,-930.85 443.32,-885.74 440.96,-856.02"/>
<polygon fill="orange" stroke="orange" points="516.79,-1000.53 527.3,-1001.88 519.93,-994.27 516.79,-1000.53"/>
<text text-anchor="start" x="474" y="-954" font-family="Helvetica,sans-Serif" font-size="10.00"> &lt; Ponca::IndexSquaredDistance</text>
<text text-anchor="middle" x="554" y="-943" font-family="Helvetica,sans-Serif" font-size="10.00">&lt; Scalar &gt; &gt;</text>
</g>
<!-- Node14 -->
<g id="node14" class="node">
<title>Node14</title>
<g id="a_node14"><a xlink:title=" ">
<polygon fill="white" stroke="#bfbfbf" points="579.5,-1153 550.5,-1153 550.5,-1123 579.5,-1123 579.5,-1153"/>
<text text-anchor="middle" x="565" y="-1141" font-family="Helvetica,sans-Serif" font-size="10.00">{T</text>
<text text-anchor="middle" x="565" y="-1130" font-family="Helvetica,sans-Serif" font-size="10.00">||}</text>
</a>
</g>
</g>
<!-- Node14&#45;&gt;Node13 -->
<g id="edge14" class="edge">
<title>Node14&#45;&gt;Node13</title>
<path fill="none" stroke="#404040" d="M565,-1122.88C565,-1103.56 565,-1068.51 565,-1044.28"/>
<polygon fill="none" stroke="#404040" points="565,-1044.1 561,-1038.1 565,-1032.1 569,-1038.1 565,-1044.1"/>
<text text-anchor="middle" x="594" y="-1075" font-family="Helvetica,sans-Serif" font-size="10.00"> +elements</text>
</g>
<!-- Node15 -->
<g id="node15" class="node">
<title>Node15</title>
<g id="a_node15"><a xlink:href="group__common.html#classPonca_1_1limited__priority__queue" target="_top" xlink:title="The limited_priority_queue class is similar to std::priority_queue but has a limited capacity and han...">
<polygon fill="white" stroke="#666666" points="749,-922 595,-922 595,-727 749,-727 749,-922"/>
<text text-anchor="start" x="603" y="-910" font-family="Helvetica,sans-Serif" font-size="10.00">{Ponca::limited_priority</text>
<text text-anchor="middle" x="672" y="-899" font-family="Helvetica,sans-Serif" font-size="10.00">_queue&lt; T, CompareT &gt;</text>
<text text-anchor="start" x="603" y="-888" font-family="Helvetica,sans-Serif" font-size="10.00">|# m_c</text>
<text text-anchor="start" x="603" y="-877" font-family="Helvetica,sans-Serif" font-size="10.00"># m_comp</text>
<text text-anchor="start" x="603" y="-866" font-family="Helvetica,sans-Serif" font-size="10.00"># m_size</text>
<text text-anchor="start" x="603" y="-855" font-family="Helvetica,sans-Serif" font-size="10.00">|+ limited_priority_queue()</text>
<text text-anchor="start" x="603" y="-844" font-family="Helvetica,sans-Serif" font-size="10.00">+ limited_priority_queue()</text>
<text text-anchor="start" x="603" y="-833" font-family="Helvetica,sans-Serif" font-size="10.00">+ limited_priority_queue()</text>
<text text-anchor="start" x="603" y="-822" font-family="Helvetica,sans-Serif" font-size="10.00">+ limited_priority_queue()</text>
<text text-anchor="start" x="603" y="-811" font-family="Helvetica,sans-Serif" font-size="10.00">+ ~limited_priority_queue()</text>
<text text-anchor="start" x="603" y="-800" font-family="Helvetica,sans-Serif" font-size="10.00">+ operator=()</text>
<text text-anchor="start" x="603" y="-789" font-family="Helvetica,sans-Serif" font-size="10.00">+ begin()</text>
<text text-anchor="start" x="603" y="-778" font-family="Helvetica,sans-Serif" font-size="10.00">+ begin()</text>
<text text-anchor="start" x="603" y="-767" font-family="Helvetica,sans-Serif" font-size="10.00">+ cbegin()</text>
<text text-anchor="start" x="603" y="-756" font-family="Helvetica,sans-Serif" font-size="10.00">+ end()</text>
<text text-anchor="start" x="603" y="-745" font-family="Helvetica,sans-Serif" font-size="10.00">and 16 more...</text>
<text text-anchor="middle" x="672" y="-734" font-family="Helvetica,sans-Serif" font-size="10.00">}</text>
</a>
</g>
</g>
<!-- Node15&#45;&gt;Node9 -->
<g id="edge15" class="edge">
<title>Node15&#45;&gt;Node9</title>
<path fill="none" stroke="orange" d="M673.57,-716.74C674.19,-706.68 674.98,-696.64 676,-687 676.62,-681.17 677.36,-675.19 678.2,-669.18"/>
<polygon fill="orange" stroke="orange" points="670.07,-716.63 673.01,-726.81 677.06,-717.02 670.07,-716.63"/>
<text text-anchor="start" x="676" y="-701" font-family="Helvetica,sans-Serif" font-size="10.00"> &lt; Ponca::IndexSquaredDistance</text>
<text text-anchor="middle" x="756" y="-690" font-family="Helvetica,sans-Serif" font-size="10.00">&lt; DataPoint::Scalar &gt; &gt;</text>
</g>
<!-- Node17 -->
<g id="node17" class="node">
<title>Node17</title>
<g id="a_node17"><a xlink:href="group__common.html" target="_top" xlink:title=" ">
<polygon fill="white" stroke="#666666" points="575,-669 367,-669 367,-474 575,-474 575,-669"/>
<text text-anchor="start" x="375" y="-657" font-family="Helvetica,sans-Serif" font-size="10.00">{Ponca::limited_priority</text>
<text text-anchor="start" x="375" y="-646" font-family="Helvetica,sans-Serif" font-size="10.00">_queue&lt; Ponca::IndexSquaredDistance</text>
<text text-anchor="middle" x="471" y="-635" font-family="Helvetica,sans-Serif" font-size="10.00">&lt; Scalar &gt; &gt;</text>
<text text-anchor="start" x="375" y="-624" font-family="Helvetica,sans-Serif" font-size="10.00">|# m_comp</text>
<text text-anchor="start" x="375" y="-613" font-family="Helvetica,sans-Serif" font-size="10.00"># m_size</text>
<text text-anchor="start" x="375" y="-602" font-family="Helvetica,sans-Serif" font-size="10.00">|+ limited_priority_queue()</text>
<text text-anchor="start" x="375" y="-591" font-family="Helvetica,sans-Serif" font-size="10.00">+ limited_priority_queue()</text>
<text text-anchor="start" x="375" y="-580" font-family="Helvetica,sans-Serif" font-size="10.00">+ limited_priority_queue()</text>
<text text-anchor="start" x="375" y="-569" font-family="Helvetica,sans-Serif" font-size="10.00">+ limited_priority_queue()</text>
<text text-anchor="start" x="375" y="-558" font-family="Helvetica,sans-Serif" font-size="10.00">+ ~limited_priority_queue()</text>
<text text-anchor="start" x="375" y="-547" font-family="Helvetica,sans-Serif" font-size="10.00">+ operator=()</text>
<text text-anchor="start" x="375" y="-536" font-family="Helvetica,sans-Serif" font-size="10.00">+ begin()</text>
<text text-anchor="start" x="375" y="-525" font-family="Helvetica,sans-Serif" font-size="10.00">+ begin()</text>
<text text-anchor="start" x="375" y="-514" font-family="Helvetica,sans-Serif" font-size="10.00">+ cbegin()</text>
<text text-anchor="start" x="375" y="-503" font-family="Helvetica,sans-Serif" font-size="10.00">+ end()</text>
<text text-anchor="start" x="375" y="-492" font-family="Helvetica,sans-Serif" font-size="10.00">and 16 more...</text>
<text text-anchor="middle" x="471" y="-481" font-family="Helvetica,sans-Serif" font-size="10.00">}</text>
</a>
</g>
</g>
<!-- Node15&#45;&gt;Node17 -->
<g id="edge21" class="edge">
<title>Node15&#45;&gt;Node17</title>
<path fill="none" stroke="orange" d="M586.27,-777.96C558.85,-759.73 530.56,-736.47 511,-709 502.48,-697.03 495.75,-683.25 490.46,-669.15"/>
<polygon fill="orange" stroke="orange" points="584.45,-780.95 594.75,-783.46 588.26,-775.08 584.45,-780.95"/>
<text text-anchor="start" x="511" y="-701" font-family="Helvetica,sans-Serif" font-size="10.00"> &lt; Ponca::IndexSquaredDistance</text>
<text text-anchor="middle" x="591" y="-690" font-family="Helvetica,sans-Serif" font-size="10.00">&lt; Scalar &gt; &gt;</text>
</g>
<!-- Node16&#45;&gt;Node7 -->
<g id="edge16" class="edge">
<title>Node16&#45;&gt;Node7</title>
<path fill="none" stroke="orange" d="M391.61,-342.63C391.51,-330.58 391.4,-317.77 391.31,-306.32"/>
<polygon fill="orange" stroke="orange" points="388.11,-343 391.7,-352.97 395.11,-342.94 388.11,-343"/>
<text text-anchor="middle" x="447" y="-327" font-family="Helvetica,sans-Serif" font-size="10.00"> &lt; DataPoint::Scalar &gt;</text>
</g>
<!-- Node17&#45;&gt;Node16 -->
<g id="edge18" class="edge">
<title>Node17&#45;&gt;Node16</title>
<path fill="none" stroke="#404040" d="M428.49,-473.92C423.07,-461.6 417.73,-449.46 412.87,-438.42"/>
<polygon fill="none" stroke="#404040" points="412.84,-438.34 406.76,-434.46 408,-427.36 414.08,-431.24 412.84,-438.34"/>
<text text-anchor="middle" x="448.5" y="-448" font-family="Helvetica,sans-Serif" font-size="10.00"> #m_queue</text>
</g>
<!-- Node18&#45;&gt;Node17 -->
<g id="edge19" class="edge">
<title>Node18&#45;&gt;Node17</title>
<path fill="none" stroke="#404040" d="M436.87,-792.97C434.66,-765.2 432.9,-723.14 438,-687 438.27,-685.08 438.57,-683.16 438.88,-681.22"/>
<polygon fill="none" stroke="#404040" points="438.92,-681.03 436.07,-674.4 441.09,-669.23 443.94,-675.85 438.92,-681.03"/>
<text text-anchor="middle" x="454" y="-695.5" font-family="Helvetica,sans-Serif" font-size="10.00"> #m_c</text>
</g>
<!-- Node19 -->
<g id="node19" class="node">
<title>Node19</title>
<g id="a_node19"><a xlink:href="group__spatialpartitioning.html#structPonca_1_1Query" target="_top" xlink:title=" ">
<polygon fill="white" stroke="#bfbfbf" points="679.5,-300.5 556.5,-300.5 556.5,-237.5 679.5,-237.5 679.5,-300.5"/>
<text text-anchor="start" x="564.5" y="-288.5" font-family="Helvetica,sans-Serif" font-size="10.00">{Ponca::Query&lt; Input</text>
<text text-anchor="middle" x="618" y="-277.5" font-family="Helvetica,sans-Serif" font-size="10.00">_, Output_ &gt;</text>
<text text-anchor="start" x="564.5" y="-266.5" font-family="Helvetica,sans-Serif" font-size="10.00">||+ Query()</text>
<text text-anchor="start" x="564.5" y="-255.5" font-family="Helvetica,sans-Serif" font-size="10.00">+ Query()</text>
<text text-anchor="middle" x="618" y="-244.5" font-family="Helvetica,sans-Serif" font-size="10.00">}</text>
</a>
</g>
</g>
<!-- Node19&#45;&gt;Node2 -->
<g id="edge22" class="edge">
<title>Node19&#45;&gt;Node2</title>
<path fill="none" stroke="orange" d="M562.25,-232.02C529.95,-211.17 489.14,-184.84 455.47,-163.11"/>
<polygon fill="orange" stroke="orange" points="560.39,-234.99 570.69,-237.47 564.19,-229.1 560.39,-234.99"/>
<text text-anchor="start" x="532" y="-206" font-family="Helvetica,sans-Serif" font-size="10.00"> &lt; QueryInputIsPosition</text>
<text text-anchor="start" x="532" y="-195" font-family="Helvetica,sans-Serif" font-size="10.00">&lt; DataPoint &gt;, QueryOutputIs</text>
<text text-anchor="middle" x="613.5" y="-184" font-family="Helvetica,sans-Serif" font-size="10.00">KNearest&lt; DataPoint::Scalar &gt; &gt;</text>
</g>
<!-- Node20 -->
<g id="node20" class="node">
<title>Node20</title>
<g id="a_node20"><a xlink:title=" ">
<polygon fill="white" stroke="#bfbfbf" points="644.5,-405 591.5,-405 591.5,-375 644.5,-375 644.5,-405"/>
<text text-anchor="middle" x="618" y="-393" font-family="Helvetica,sans-Serif" font-size="10.00">{Input_</text>
<text text-anchor="middle" x="618" y="-382" font-family="Helvetica,sans-Serif" font-size="10.00">||}</text>
</a>
</g>
</g>
<!-- Node20&#45;&gt;Node19 -->
<g id="edge23" class="edge">
<title>Node20&#45;&gt;Node19</title>
<path fill="none" stroke="#63b8ff" d="M618,-364.88C618,-346.31 618,-320.52 618,-300.52"/>
<polygon fill="none" stroke="#63b8ff" points="614.5,-364.88 618,-374.88 621.5,-364.88 614.5,-364.88"/>
</g>
<!-- Node21 -->
<g id="node21" class="node">
<title>Node21</title>
<g id="a_node21"><a xlink:title=" ">
<polygon fill="white" stroke="#bfbfbf" points="723.5,-405 662.5,-405 662.5,-375 723.5,-375 723.5,-405"/>
<text text-anchor="middle" x="693" y="-393" font-family="Helvetica,sans-Serif" font-size="10.00">{Output_</text>
<text text-anchor="middle" x="693" y="-382" font-family="Helvetica,sans-Serif" font-size="10.00">||}</text>
</a>
</g>
</g>
<!-- Node21&#45;&gt;Node19 -->
<g id="edge24" class="edge">
<title>Node21&#45;&gt;Node19</title>
<path fill="none" stroke="#63b8ff" d="M678.61,-366.17C666.86,-347.52 650.14,-320.99 637.24,-300.52"/>
<polygon fill="none" stroke="#63b8ff" points="675.81,-368.29 684.1,-374.88 681.73,-364.56 675.81,-368.29"/>
</g>
</g>
</svg>
