<?xml version="1.0" encoding="UTF-8" standalone="no"?>
<!DOCTYPE svg PUBLIC "-//W3C//DTD SVG 1.1//EN"
 "http://www.w3.org/Graphics/SVG/1.1/DTD/svg11.dtd">
<!-- Generated by graphviz version 2.43.0 (0)
 -->
<!-- Title: Ponca::QueryInputIsPosition&lt; DataPoint &gt; Pages: 1 -->
<svg width="254pt" height="416pt"
 viewBox="0.00 0.00 253.50 416.00" xmlns="http://www.w3.org/2000/svg" xmlns:xlink="http://www.w3.org/1999/xlink">
<g id="graph0" class="graph" transform="scale(1 1) rotate(0) translate(4 412)">
<title>Ponca::QueryInputIsPosition&lt; DataPoint &gt;</title>
<polygon fill="white" stroke="transparent" points="-4,4 -4,-412 249.5,-412 249.5,4 -4,4"/>
<!-- Node1 -->
<g id="node1" class="node">
<title>Node1</title>
<g id="a_node1"><a xlink:title="Base class for queries storing points.">
<polygon fill="#bfbfbf" stroke="black" points="0,-0.5 0,-68.5 153,-68.5 153,-0.5 0,-0.5"/>
<text text-anchor="start" x="8" y="-56.5" font-family="Helvetica,sans-Serif" font-size="10.00">Ponca::QueryInputIsPosition</text>
<text text-anchor="middle" x="76.5" y="-45.5" font-family="Helvetica,sans-Serif" font-size="10.00">&lt; DataPoint &gt;</text>
<polyline fill="none" stroke="black" points="0,-38.5 153,-38.5 "/>
<text text-anchor="middle" x="76.5" y="-26.5" font-family="Helvetica,sans-Serif" font-size="10.00"> </text>
<polyline fill="none" stroke="black" points="0,-19.5 153,-19.5 "/>
<text text-anchor="start" x="8" y="-7.5" font-family="Helvetica,sans-Serif" font-size="10.00">+ QueryInputIsPosition()</text>
</a>
</g>
</g>
<!-- Node2 -->
<g id="node2" class="node">
<title>Node2</title>
<g id="a_node2"><a xlink:href="structPonca_1_1QueryInput.html" target="_top" xlink:title=" ">
<polygon fill="white" stroke="black" points="7.5,-106.5 7.5,-185.5 145.5,-185.5 145.5,-106.5 7.5,-106.5"/>
<text text-anchor="start" x="15.5" y="-173.5" font-family="Helvetica,sans-Serif" font-size="10.00">Ponca::QueryInput&lt;</text>
<text text-anchor="middle" x="76.5" y="-162.5" font-family="Helvetica,sans-Serif" font-size="10.00"> DataPoint::VectorType &gt;</text>
<polyline fill="none" stroke="black" points="7.5,-155.5 145.5,-155.5 "/>
<text text-anchor="middle" x="76.5" y="-143.5" font-family="Helvetica,sans-Serif" font-size="10.00"> </text>
<polyline fill="none" stroke="black" points="7.5,-136.5 145.5,-136.5 "/>
<text text-anchor="start" x="15.5" y="-124.5" font-family="Helvetica,sans-Serif" font-size="10.00">+ QueryInput()</text>
<text text-anchor="start" x="15.5" y="-113.5" font-family="Helvetica,sans-Serif" font-size="10.00">+ input()</text>
</a>
</g>
</g>
<!-- Node2&#45;&gt;Node1 -->
<g id="edge1" class="edge">
<title>Node2&#45;&gt;Node1</title>
<path fill="none" stroke="midnightblue" d="M76.5,-96.38C76.5,-87.02 76.5,-77.41 76.5,-68.67"/>
<polygon fill="none" stroke="midnightblue" points="73,-96.39 76.5,-106.39 80,-96.39 73,-96.39"/>
</g>
<!-- Node3 -->
<g id="node3" class="node">
<title>Node3</title>
<g id="a_node3"><a xlink:href="structPonca_1_1QueryInputBase.html" target="_top" xlink:title="Base class for queries input type.">
<polygon fill="white" stroke="black" points="7.5,-350.5 7.5,-407.5 137.5,-407.5 137.5,-350.5 7.5,-350.5"/>
<text text-anchor="middle" x="72.5" y="-395.5" font-family="Helvetica,sans-Serif" font-size="10.00">Ponca::QueryInputBase</text>
<polyline fill="none" stroke="black" points="7.5,-388.5 137.5,-388.5 "/>
<text text-anchor="middle" x="72.5" y="-376.5" font-family="Helvetica,sans-Serif" font-size="10.00"> </text>
<polyline fill="none" stroke="black" points="7.5,-369.5 137.5,-369.5 "/>
<text text-anchor="middle" x="72.5" y="-357.5" font-family="Helvetica,sans-Serif" font-size="10.00"> </text>
</a>
</g>
</g>
<!-- Node3&#45;&gt;Node2 -->
<g id="edge2" class="edge">
<title>Node3&#45;&gt;Node2</title>
<path fill="none" stroke="midnightblue" d="M73.16,-339.89C73.9,-297.27 75.09,-228.61 75.83,-185.74"/>
<polygon fill="none" stroke="midnightblue" points="69.66,-340.08 72.98,-350.14 76.66,-340.2 69.66,-340.08"/>
</g>
<!-- Node4 -->
<g id="node4" class="node">
<title>Node4</title>
<g id="a_node4"><a xlink:href="structPonca_1_1QueryInput.html" target="_top" xlink:title="Base class for typed queries input type.">
<polygon fill="white" stroke="black" points="88.5,-233.5 88.5,-312.5 202.5,-312.5 202.5,-233.5 88.5,-233.5"/>
<text text-anchor="start" x="96.5" y="-300.5" font-family="Helvetica,sans-Serif" font-size="10.00">Ponca::QueryInput&lt;</text>
<text text-anchor="middle" x="145.5" y="-289.5" font-family="Helvetica,sans-Serif" font-size="10.00"> InputType_ &gt;</text>
<polyline fill="none" stroke="black" points="88.5,-282.5 202.5,-282.5 "/>
<text text-anchor="middle" x="145.5" y="-270.5" font-family="Helvetica,sans-Serif" font-size="10.00"> </text>
<polyline fill="none" stroke="black" points="88.5,-263.5 202.5,-263.5 "/>
<text text-anchor="start" x="96.5" y="-251.5" font-family="Helvetica,sans-Serif" font-size="10.00">+ QueryInput()</text>
<text text-anchor="start" x="96.5" y="-240.5" font-family="Helvetica,sans-Serif" font-size="10.00">+ input()</text>
</a>
</g>
</g>
<!-- Node3&#45;&gt;Node4 -->
<g id="edge4" class="edge">
<title>Node3&#45;&gt;Node4</title>
<path fill="none" stroke="midnightblue" d="M97.79,-341.98C104.42,-332.52 111.61,-322.28 118.34,-312.69"/>
<polygon fill="none" stroke="midnightblue" points="94.75,-340.21 91.87,-350.4 100.48,-344.23 94.75,-340.21"/>
</g>
<!-- Node4&#45;&gt;Node2 -->
<g id="edge3" class="edge">
<title>Node4&#45;&gt;Node2</title>
<path fill="none" stroke="orange" d="M119.4,-224.72C112.27,-211.81 104.64,-197.98 97.81,-185.61"/>
<polygon fill="orange" stroke="orange" points="116.34,-226.41 124.23,-233.48 122.47,-223.03 116.34,-226.41"/>
<text text-anchor="middle" x="179" y="-207" font-family="Helvetica,sans-Serif" font-size="10.00"> &lt; DataPoint::VectorType &gt;</text>
</g>
</g>
</svg>
