<?xml version="1.0" encoding="UTF-8" standalone="no"?>
<!DOCTYPE svg PUBLIC "-//W3C//DTD SVG 1.1//EN"
 "http://www.w3.org/Graphics/SVG/1.1/DTD/svg11.dtd">
<!-- Generated by graphviz version 2.43.0 (0)
 -->
<!-- Title: Ponca::KdTreeSparse&lt; DataPoint &gt; Pages: 1 -->
<svg width="326pt" height="1096pt"
 viewBox="0.00 0.00 326.00 1096.00" xmlns="http://www.w3.org/2000/svg" xmlns:xlink="http://www.w3.org/1999/xlink">
<g id="graph0" class="graph" transform="scale(1 1) rotate(0) translate(4 1092)">
<title>Ponca::KdTreeSparse&lt; DataPoint &gt;</title>
<!-- Node1 -->
<g id="Node000001" class="node">
<title>Node1</title>
<g id="a_Node000001"><a xlink:title="[KdTreeDense type definition]">
<polygon fill="#999999" stroke="transparent" points="147,-60 35,-60 35,0 147,0 147,-60"/>
<text text-anchor="start" x="40" y="-48" font-family="Helvetica,sans-Serif" font-size="10.00">Ponca::KdTreeSparse</text>
<text text-anchor="start" x="55.5" y="-37" font-family="Helvetica,sans-Serif" font-size="10.00">&lt; DataPoint &gt;</text>
<text text-anchor="start" x="89" y="-22" font-family="Helvetica,sans-Serif" font-size="10.00"> </text>
<text text-anchor="start" x="89" y="-7" font-family="Helvetica,sans-Serif" font-size="10.00"> </text>
<polygon fill="#666666" stroke="#666666" points="35,-32 35,-32 147,-32 147,-32 35,-32"/>
<polygon fill="#666666" stroke="#666666" points="35,-17 35,-17 147,-17 147,-17 35,-17"/>
<polygon fill="none" stroke="#666666" points="35,0 35,-60 147,-60 147,0 35,0"/>
</a>
</g>
</g>
<!-- Node2 -->
<g id="Node000002" class="node">
<title>Node2</title>
<g id="a_Node000002"><a xlink:href="classPonca_1_1KdTreeSparseBase.html" target="_top" xlink:title=" ">
<polygon fill="white" stroke="transparent" points="166,-243 16,-243 16,-97 166,-97 166,-243"/>
<text text-anchor="start" x="28" y="-231" font-family="Helvetica,sans-Serif" font-size="10.00">Ponca::KdTreeSparseBase</text>
<text text-anchor="start" x="28" y="-220" font-family="Helvetica,sans-Serif" font-size="10.00">&lt; KdTreeDefaultTraits</text>
<text text-anchor="start" x="50" y="-209" font-family="Helvetica,sans-Serif" font-size="10.00">&lt; DataPoint &gt; &gt;</text>
<text text-anchor="start" x="20" y="-194" font-family="Helvetica,sans-Serif" font-size="10.00">+</text>
<text text-anchor="start" x="33" y="-194" font-family="Helvetica,sans-Serif" font-size="10.00">SUPPORTS_SUBSAMPLING</text>
<text text-anchor="start" x="20" y="-179" font-family="Helvetica,sans-Serif" font-size="10.00">+</text>
<text text-anchor="start" x="33" y="-179" font-family="Helvetica,sans-Serif" font-size="10.00">KdTreeSparseBase()</text>
<text text-anchor="start" x="20" y="-164" font-family="Helvetica,sans-Serif" font-size="10.00">+</text>
<text text-anchor="start" x="33" y="-164" font-family="Helvetica,sans-Serif" font-size="10.00">KdTreeSparseBase()</text>
<text text-anchor="start" x="20" y="-149" font-family="Helvetica,sans-Serif" font-size="10.00">+</text>
<text text-anchor="start" x="33" y="-149" font-family="Helvetica,sans-Serif" font-size="10.00">KdTreeSparseBase()</text>
<text text-anchor="start" x="20" y="-134" font-family="Helvetica,sans-Serif" font-size="10.00">+</text>
<text text-anchor="start" x="33" y="-134" font-family="Helvetica,sans-Serif" font-size="10.00">buildWithSampling()</text>
<text text-anchor="start" x="20" y="-119" font-family="Helvetica,sans-Serif" font-size="10.00">+</text>
<text text-anchor="start" x="33" y="-119" font-family="Helvetica,sans-Serif" font-size="10.00">buildWithSampling()</text>
<text text-anchor="start" x="20" y="-104" font-family="Helvetica,sans-Serif" font-size="10.00">+</text>
<text text-anchor="start" x="33" y="-104" font-family="Helvetica,sans-Serif" font-size="10.00">buildWithSampling()</text>
<polygon fill="#666666" stroke="#666666" points="16,-204 16,-204 166,-204 166,-204 16,-204"/>
<polygon fill="#666666" stroke="#666666" points="16,-189 16,-189 31,-189 31,-189 16,-189"/>
<polygon fill="#666666" stroke="#666666" points="31,-189 31,-189 166,-189 166,-189 31,-189"/>
<polygon fill="none" stroke="#666666" points="16,-97 16,-243 166,-243 166,-97 16,-97"/>
</a>
</g>
</g>
<!-- Node2&#45;&gt;Node1 -->
<g id="edge1_Node000001_Node000002" class="edge">
<title>Node2&#45;&gt;Node1</title>
<g id="a_edge1_Node000001_Node000002"><a xlink:title=" ">
<path fill="none" stroke="#63b8ff" d="M91,-86.54C91,-77.21 91,-68.23 91,-60.3"/>
<polygon fill="none" stroke="#63b8ff" points="87.5,-86.77 91,-96.77 94.5,-86.77 87.5,-86.77"/>
</a>
</g>
</g>
<!-- Node3 -->
<g id="Node000003" class="node">
<title>Node3</title>
<g id="a_Node000003"><a xlink:href="classPonca_1_1KdTreeBase.html" target="_top" xlink:title="[KdTreeSparse type definition]">
<polygon fill="white" stroke="transparent" points="150,-676 0,-676 0,-301 150,-301 150,-676"/>
<text text-anchor="start" x="24.5" y="-663.5" font-family="Helvetica,sans-Serif" font-size="10.00">Ponca::KdTreeBase&lt;</text>
<text text-anchor="start" x="54.5" y="-652.5" font-family="Helvetica,sans-Serif" font-size="10.00"> Traits &gt;</text>
<text text-anchor="start" x="4" y="-637.5" font-family="Helvetica,sans-Serif" font-size="10.00">+</text>
<text text-anchor="start" x="17" y="-637.5" font-family="Helvetica,sans-Serif" font-size="10.00">MAX_NODE_COUNT</text>
<text text-anchor="start" x="4" y="-622.5" font-family="Helvetica,sans-Serif" font-size="10.00">+</text>
<text text-anchor="start" x="17" y="-622.5" font-family="Helvetica,sans-Serif" font-size="10.00">MAX_POINT_COUNT</text>
<text text-anchor="start" x="4" y="-607.5" font-family="Helvetica,sans-Serif" font-size="10.00">+</text>
<text text-anchor="start" x="17" y="-607.5" font-family="Helvetica,sans-Serif" font-size="10.00">MAX_DEPTH</text>
<text text-anchor="start" x="4" y="-592.5" font-family="Helvetica,sans-Serif" font-size="10.00">+</text>
<text text-anchor="start" x="17" y="-592.5" font-family="Helvetica,sans-Serif" font-size="10.00">SUPPORTS_SUBSAMPLING</text>
<text text-anchor="start" x="4" y="-577.5" font-family="Helvetica,sans-Serif" font-size="10.00">#</text>
<text text-anchor="start" x="17" y="-577.5" font-family="Helvetica,sans-Serif" font-size="10.00">m_points</text>
<text text-anchor="start" x="4" y="-562.5" font-family="Helvetica,sans-Serif" font-size="10.00">#</text>
<text text-anchor="start" x="17" y="-562.5" font-family="Helvetica,sans-Serif" font-size="10.00">m_nodes</text>
<text text-anchor="start" x="4" y="-547.5" font-family="Helvetica,sans-Serif" font-size="10.00">#</text>
<text text-anchor="start" x="17" y="-547.5" font-family="Helvetica,sans-Serif" font-size="10.00">m_indices</text>
<text text-anchor="start" x="4" y="-532.5" font-family="Helvetica,sans-Serif" font-size="10.00">#</text>
<text text-anchor="start" x="17" y="-532.5" font-family="Helvetica,sans-Serif" font-size="10.00">m_min_cell_size</text>
<text text-anchor="start" x="4" y="-517.5" font-family="Helvetica,sans-Serif" font-size="10.00">#</text>
<text text-anchor="start" x="17" y="-517.5" font-family="Helvetica,sans-Serif" font-size="10.00">m_leaf_count</text>
<text text-anchor="start" x="4" y="-502.5" font-family="Helvetica,sans-Serif" font-size="10.00">+</text>
<text text-anchor="start" x="17" y="-502.5" font-family="Helvetica,sans-Serif" font-size="10.00">build()</text>
<text text-anchor="start" x="4" y="-487.5" font-family="Helvetica,sans-Serif" font-size="10.00">+</text>
<text text-anchor="start" x="17" y="-487.5" font-family="Helvetica,sans-Serif" font-size="10.00">build()</text>
<text text-anchor="start" x="4" y="-472.5" font-family="Helvetica,sans-Serif" font-size="10.00">+</text>
<text text-anchor="start" x="17" y="-472.5" font-family="Helvetica,sans-Serif" font-size="10.00">clear()</text>
<text text-anchor="start" x="4" y="-457.5" font-family="Helvetica,sans-Serif" font-size="10.00">+</text>
<text text-anchor="start" x="17" y="-457.5" font-family="Helvetica,sans-Serif" font-size="10.00">node_count()</text>
<text text-anchor="start" x="4" y="-442.5" font-family="Helvetica,sans-Serif" font-size="10.00">+</text>
<text text-anchor="start" x="17" y="-442.5" font-family="Helvetica,sans-Serif" font-size="10.00">sample_count()</text>
<text text-anchor="start" x="4" y="-427.5" font-family="Helvetica,sans-Serif" font-size="10.00">+</text>
<text text-anchor="start" x="17" y="-427.5" font-family="Helvetica,sans-Serif" font-size="10.00">pointCount()</text>
<text text-anchor="start" x="4" y="-412.5" font-family="Helvetica,sans-Serif" font-size="10.00">+</text>
<text text-anchor="start" x="17" y="-412.5" font-family="Helvetica,sans-Serif" font-size="10.00">leaf_count()</text>
<text text-anchor="start" x="4" y="-397.5" font-family="Helvetica,sans-Serif" font-size="10.00">+</text>
<text text-anchor="start" x="17" y="-397.5" font-family="Helvetica,sans-Serif" font-size="10.00">points()</text>
<text text-anchor="start" x="4" y="-382.5" font-family="Helvetica,sans-Serif" font-size="10.00">+</text>
<text text-anchor="start" x="17" y="-382.5" font-family="Helvetica,sans-Serif" font-size="10.00">points()</text>
<text text-anchor="start" x="4" y="-367.5" font-family="Helvetica,sans-Serif" font-size="10.00">+</text>
<text text-anchor="start" x="17" y="-367.5" font-family="Helvetica,sans-Serif" font-size="10.00">nodes()</text>
<text text-anchor="start" x="17" y="-352.5" font-family="Helvetica,sans-Serif" font-size="10.00">and 22 more...</text>
<text text-anchor="start" x="4" y="-337.5" font-family="Helvetica,sans-Serif" font-size="10.00">#</text>
<text text-anchor="start" x="17" y="-337.5" font-family="Helvetica,sans-Serif" font-size="10.00">KdTreeBase()</text>
<text text-anchor="start" x="4" y="-322.5" font-family="Helvetica,sans-Serif" font-size="10.00">#</text>
<text text-anchor="start" x="17" y="-322.5" font-family="Helvetica,sans-Serif" font-size="10.00">buildWithSampling()</text>
<text text-anchor="start" x="4" y="-307.5" font-family="Helvetica,sans-Serif" font-size="10.00">#</text>
<text text-anchor="start" x="17" y="-307.5" font-family="Helvetica,sans-Serif" font-size="10.00">buildWithSampling()</text>
<polygon fill="#666666" stroke="#666666" points="0,-647.5 0,-647.5 150,-647.5 150,-647.5 0,-647.5"/>
<polygon fill="#666666" stroke="#666666" points="0,-512.5 0,-512.5 15,-512.5 15,-512.5 0,-512.5"/>
<polygon fill="#666666" stroke="#666666" points="15,-512.5 15,-512.5 150,-512.5 150,-512.5 15,-512.5"/>
<polygon fill="none" stroke="#666666" points="0,-301 0,-676 150,-676 150,-301 0,-301"/>
</a>
</g>
</g>
<!-- Node3&#45;&gt;Node2 -->
<g id="edge2_Node000002_Node000003" class="edge">
<title>Node3&#45;&gt;Node2</title>
<g id="a_edge2_Node000002_Node000003"><a xlink:title=" ">
<path fill="none" stroke="#63b8ff" d="M84.97,-290.29C85.8,-273.77 86.61,-257.86 87.34,-243.33"/>
<polygon fill="none" stroke="#63b8ff" points="81.46,-290.48 84.45,-300.65 88.45,-290.84 81.46,-290.48"/>
</a>
</g>
</g>
<!-- Node4 -->
<g id="Node000004" class="node">
<title>Node4</title>
<g id="a_Node000004"><a xlink:href="classPonca_1_1KdTreeSparseBase.html" target="_top" xlink:title="Customizable base class for KdTreeSparse datastructure.">
<polygon fill="white" stroke="transparent" points="318,-556 168,-556 168,-421 318,-421 318,-556"/>
<text text-anchor="start" x="180" y="-543.5" font-family="Helvetica,sans-Serif" font-size="10.00">Ponca::KdTreeSparseBase</text>
<text text-anchor="start" x="218.5" y="-532.5" font-family="Helvetica,sans-Serif" font-size="10.00">&lt; Traits &gt;</text>
<text text-anchor="start" x="172" y="-517.5" font-family="Helvetica,sans-Serif" font-size="10.00">+</text>
<text text-anchor="start" x="185" y="-517.5" font-family="Helvetica,sans-Serif" font-size="10.00">SUPPORTS_SUBSAMPLING</text>
<text text-anchor="start" x="172" y="-502.5" font-family="Helvetica,sans-Serif" font-size="10.00">+</text>
<text text-anchor="start" x="185" y="-502.5" font-family="Helvetica,sans-Serif" font-size="10.00">KdTreeSparseBase()</text>
<text text-anchor="start" x="172" y="-487.5" font-family="Helvetica,sans-Serif" font-size="10.00">+</text>
<text text-anchor="start" x="185" y="-487.5" font-family="Helvetica,sans-Serif" font-size="10.00">KdTreeSparseBase()</text>
<text text-anchor="start" x="172" y="-472.5" font-family="Helvetica,sans-Serif" font-size="10.00">+</text>
<text text-anchor="start" x="185" y="-472.5" font-family="Helvetica,sans-Serif" font-size="10.00">KdTreeSparseBase()</text>
<text text-anchor="start" x="172" y="-457.5" font-family="Helvetica,sans-Serif" font-size="10.00">+</text>
<text text-anchor="start" x="185" y="-457.5" font-family="Helvetica,sans-Serif" font-size="10.00">buildWithSampling()</text>
<text text-anchor="start" x="172" y="-442.5" font-family="Helvetica,sans-Serif" font-size="10.00">+</text>
<text text-anchor="start" x="185" y="-442.5" font-family="Helvetica,sans-Serif" font-size="10.00">buildWithSampling()</text>
<text text-anchor="start" x="172" y="-427.5" font-family="Helvetica,sans-Serif" font-size="10.00">+</text>
<text text-anchor="start" x="185" y="-427.5" font-family="Helvetica,sans-Serif" font-size="10.00">buildWithSampling()</text>
<polygon fill="#666666" stroke="#666666" points="168,-527.5 168,-527.5 318,-527.5 318,-527.5 168,-527.5"/>
<polygon fill="#666666" stroke="#666666" points="168,-512.5 168,-512.5 183,-512.5 183,-512.5 168,-512.5"/>
<polygon fill="#666666" stroke="#666666" points="183,-512.5 183,-512.5 318,-512.5 318,-512.5 183,-512.5"/>
<polygon fill="none" stroke="#666666" points="168,-421 168,-556 318,-556 318,-421 168,-421"/>
</a>
</g>
</g>
<!-- Node4&#45;&gt;Node2 -->
<g id="edge3_Node000002_Node000004" class="edge">
<title>Node4&#45;&gt;Node2</title>
<g id="a_edge3_Node000002_Node000004"><a xlink:title=" ">
<path fill="none" stroke="orange" d="M209.85,-411.2C194.78,-377.25 176.46,-336.91 159,-301 149.81,-282.1 139.48,-261.88 129.7,-243.16"/>
<polygon fill="orange" stroke="orange" points="206.76,-412.87 214.01,-420.6 213.16,-410.04 206.76,-412.87"/>
</a>
</g>
<text text-anchor="start" x="148" y="-275" font-family="Helvetica,sans-Serif" font-size="10.00" fill="grey"> &lt; KdTreeDefaultTraits</text>
<text text-anchor="middle" x="203" y="-264" font-family="Helvetica,sans-Serif" font-size="10.00" fill="grey">&lt; DataPoint &gt; &gt;</text>
</g>
<!-- Node5 -->
<g id="Node000005" class="node">
<title>Node5</title>
<g id="a_Node000005"><a xlink:href="classPonca_1_1KdTreeBase.html" target="_top" xlink:title="[KdTreeSparse type definition]">
<polygon fill="white" stroke="transparent" points="318,-1088 168,-1088 168,-713 318,-713 318,-1088"/>
<text text-anchor="start" x="192.5" y="-1075.5" font-family="Helvetica,sans-Serif" font-size="10.00">Ponca::KdTreeBase&lt;</text>
<text text-anchor="start" x="222.5" y="-1064.5" font-family="Helvetica,sans-Serif" font-size="10.00"> Traits &gt;</text>
<text text-anchor="start" x="172" y="-1049.5" font-family="Helvetica,sans-Serif" font-size="10.00">+</text>
<text text-anchor="start" x="185" y="-1049.5" font-family="Helvetica,sans-Serif" font-size="10.00">MAX_NODE_COUNT</text>
<text text-anchor="start" x="172" y="-1034.5" font-family="Helvetica,sans-Serif" font-size="10.00">+</text>
<text text-anchor="start" x="185" y="-1034.5" font-family="Helvetica,sans-Serif" font-size="10.00">MAX_POINT_COUNT</text>
<text text-anchor="start" x="172" y="-1019.5" font-family="Helvetica,sans-Serif" font-size="10.00">+</text>
<text text-anchor="start" x="185" y="-1019.5" font-family="Helvetica,sans-Serif" font-size="10.00">MAX_DEPTH</text>
<text text-anchor="start" x="172" y="-1004.5" font-family="Helvetica,sans-Serif" font-size="10.00">+</text>
<text text-anchor="start" x="185" y="-1004.5" font-family="Helvetica,sans-Serif" font-size="10.00">SUPPORTS_SUBSAMPLING</text>
<text text-anchor="start" x="172" y="-989.5" font-family="Helvetica,sans-Serif" font-size="10.00">#</text>
<text text-anchor="start" x="185" y="-989.5" font-family="Helvetica,sans-Serif" font-size="10.00">m_points</text>
<text text-anchor="start" x="172" y="-974.5" font-family="Helvetica,sans-Serif" font-size="10.00">#</text>
<text text-anchor="start" x="185" y="-974.5" font-family="Helvetica,sans-Serif" font-size="10.00">m_nodes</text>
<text text-anchor="start" x="172" y="-959.5" font-family="Helvetica,sans-Serif" font-size="10.00">#</text>
<text text-anchor="start" x="185" y="-959.5" font-family="Helvetica,sans-Serif" font-size="10.00">m_indices</text>
<text text-anchor="start" x="172" y="-944.5" font-family="Helvetica,sans-Serif" font-size="10.00">#</text>
<text text-anchor="start" x="185" y="-944.5" font-family="Helvetica,sans-Serif" font-size="10.00">m_min_cell_size</text>
<text text-anchor="start" x="172" y="-929.5" font-family="Helvetica,sans-Serif" font-size="10.00">#</text>
<text text-anchor="start" x="185" y="-929.5" font-family="Helvetica,sans-Serif" font-size="10.00">m_leaf_count</text>
<text text-anchor="start" x="172" y="-914.5" font-family="Helvetica,sans-Serif" font-size="10.00">+</text>
<text text-anchor="start" x="185" y="-914.5" font-family="Helvetica,sans-Serif" font-size="10.00">build()</text>
<text text-anchor="start" x="172" y="-899.5" font-family="Helvetica,sans-Serif" font-size="10.00">+</text>
<text text-anchor="start" x="185" y="-899.5" font-family="Helvetica,sans-Serif" font-size="10.00">build()</text>
<text text-anchor="start" x="172" y="-884.5" font-family="Helvetica,sans-Serif" font-size="10.00">+</text>
<text text-anchor="start" x="185" y="-884.5" font-family="Helvetica,sans-Serif" font-size="10.00">clear()</text>
<text text-anchor="start" x="172" y="-869.5" font-family="Helvetica,sans-Serif" font-size="10.00">+</text>
<text text-anchor="start" x="185" y="-869.5" font-family="Helvetica,sans-Serif" font-size="10.00">node_count()</text>
<text text-anchor="start" x="172" y="-854.5" font-family="Helvetica,sans-Serif" font-size="10.00">+</text>
<text text-anchor="start" x="185" y="-854.5" font-family="Helvetica,sans-Serif" font-size="10.00">sample_count()</text>
<text text-anchor="start" x="172" y="-839.5" font-family="Helvetica,sans-Serif" font-size="10.00">+</text>
<text text-anchor="start" x="185" y="-839.5" font-family="Helvetica,sans-Serif" font-size="10.00">pointCount()</text>
<text text-anchor="start" x="172" y="-824.5" font-family="Helvetica,sans-Serif" font-size="10.00">+</text>
<text text-anchor="start" x="185" y="-824.5" font-family="Helvetica,sans-Serif" font-size="10.00">leaf_count()</text>
<text text-anchor="start" x="172" y="-809.5" font-family="Helvetica,sans-Serif" font-size="10.00">+</text>
<text text-anchor="start" x="185" y="-809.5" font-family="Helvetica,sans-Serif" font-size="10.00">points()</text>
<text text-anchor="start" x="172" y="-794.5" font-family="Helvetica,sans-Serif" font-size="10.00">+</text>
<text text-anchor="start" x="185" y="-794.5" font-family="Helvetica,sans-Serif" font-size="10.00">points()</text>
<text text-anchor="start" x="172" y="-779.5" font-family="Helvetica,sans-Serif" font-size="10.00">+</text>
<text text-anchor="start" x="185" y="-779.5" font-family="Helvetica,sans-Serif" font-size="10.00">nodes()</text>
<text text-anchor="start" x="185" y="-764.5" font-family="Helvetica,sans-Serif" font-size="10.00">and 22 more...</text>
<text text-anchor="start" x="172" y="-749.5" font-family="Helvetica,sans-Serif" font-size="10.00">#</text>
<text text-anchor="start" x="185" y="-749.5" font-family="Helvetica,sans-Serif" font-size="10.00">KdTreeBase()</text>
<text text-anchor="start" x="172" y="-734.5" font-family="Helvetica,sans-Serif" font-size="10.00">#</text>
<text text-anchor="start" x="185" y="-734.5" font-family="Helvetica,sans-Serif" font-size="10.00">buildWithSampling()</text>
<text text-anchor="start" x="172" y="-719.5" font-family="Helvetica,sans-Serif" font-size="10.00">#</text>
<text text-anchor="start" x="185" y="-719.5" font-family="Helvetica,sans-Serif" font-size="10.00">buildWithSampling()</text>
<polygon fill="#666666" stroke="#666666" points="168,-1059.5 168,-1059.5 318,-1059.5 318,-1059.5 168,-1059.5"/>
<polygon fill="#666666" stroke="#666666" points="168,-924.5 168,-924.5 183,-924.5 183,-924.5 168,-924.5"/>
<polygon fill="#666666" stroke="#666666" points="183,-924.5 183,-924.5 318,-924.5 318,-924.5 183,-924.5"/>
<polygon fill="none" stroke="#666666" points="168,-713 168,-1088 318,-1088 318,-713 168,-713"/>
</a>
</g>
</g>
<!-- Node5&#45;&gt;Node4 -->
<g id="edge4_Node000004_Node000005" class="edge">
<title>Node5&#45;&gt;Node4</title>
<g id="a_edge4_Node000004_Node000005"><a xlink:title=" ">
<path fill="none" stroke="#63b8ff" d="M243,-702.61C243,-649.83 243,-596.34 243,-556.16"/>
<polygon fill="none" stroke="#63b8ff" points="239.5,-702.8 243,-712.8 246.5,-702.8 239.5,-702.8"/>
</a>
</g>
</g>
</g>
</svg>
