<?xml version="1.0" encoding="UTF-8" standalone="no"?>
<!DOCTYPE svg PUBLIC "-//W3C//DTD SVG 1.1//EN"
 "http://www.w3.org/Graphics/SVG/1.1/DTD/svg11.dtd">
<!-- Generated by graphviz version 2.43.0 (0)
 -->
<!-- Title: Ponca::NearestPointQuery&lt; Index, DataPoint &gt; Pages: 1 -->
<svg width="575pt" height="803pt"
 viewBox="0.00 0.00 574.50 803.00" xmlns="http://www.w3.org/2000/svg" xmlns:xlink="http://www.w3.org/1999/xlink">
<g id="graph0" class="graph" transform="scale(1 1) rotate(0) translate(4 799)">
<title>Ponca::NearestPointQuery&lt; Index, DataPoint &gt;</title>
<!-- Node1 -->
<g id="Node000001" class="node">
<title>Node1</title>
<g id="a_Node000001"><a xlink:title="Base Query class combining QueryInputIsPosition and QueryOutputIsNearest.">
<polygon fill="#999999" stroke="transparent" points="390,-60 252,-60 252,0 390,0 390,-60"/>
<text text-anchor="start" x="257" y="-48" font-family="Helvetica,sans-Serif" font-size="10.00">Ponca::NearestPointQuery</text>
<text text-anchor="start" x="269" y="-37" font-family="Helvetica,sans-Serif" font-size="10.00">&lt; Index, DataPoint &gt;</text>
<text text-anchor="start" x="319" y="-22" font-family="Helvetica,sans-Serif" font-size="10.00"> </text>
<text text-anchor="start" x="319" y="-7" font-family="Helvetica,sans-Serif" font-size="10.00"> </text>
<polygon fill="#666666" stroke="#666666" points="252,-32 252,-32 390,-32 390,-32 252,-32"/>
<polygon fill="#666666" stroke="#666666" points="252,-17 252,-17 390,-17 390,-17 252,-17"/>
<polygon fill="none" stroke="#666666" points="252,0 252,-60 390,-60 390,0 252,0"/>
</a>
</g>
</g>
<!-- Node2 -->
<g id="Node000002" class="node">
<title>Node2</title>
<g id="a_Node000002"><a xlink:href="group__spatialpartitioning.html" target="_top" xlink:title=" ">
<polygon fill="white" stroke="transparent" points="401.5,-194 240.5,-194 240.5,-97 401.5,-97 401.5,-194"/>
<text text-anchor="start" x="246" y="-181.5" font-family="Helvetica,sans-Serif" font-size="10.00">Ponca::Query&lt; QueryInput</text>
<text text-anchor="start" x="246" y="-170.5" font-family="Helvetica,sans-Serif" font-size="10.00">IsPosition&lt; DataPoint</text>
<text text-anchor="start" x="246" y="-159.5" font-family="Helvetica,sans-Serif" font-size="10.00"> &gt;, QueryOutputIsNearest</text>
<text text-anchor="start" x="246" y="-148.5" font-family="Helvetica,sans-Serif" font-size="10.00">&lt; Index, DataPoint::Scalar &gt; &gt;</text>
<text text-anchor="start" x="319.5" y="-133.5" font-family="Helvetica,sans-Serif" font-size="10.00"> </text>
<text text-anchor="start" x="270.5" y="-118.5" font-family="Helvetica,sans-Serif" font-size="10.00">+</text>
<text text-anchor="start" x="309" y="-118.5" font-family="Helvetica,sans-Serif" font-size="10.00">Query()</text>
<text text-anchor="start" x="270.5" y="-103.5" font-family="Helvetica,sans-Serif" font-size="10.00">+</text>
<text text-anchor="start" x="309" y="-103.5" font-family="Helvetica,sans-Serif" font-size="10.00">Query()</text>
<polygon fill="#bfbfbf" stroke="#bfbfbf" points="241,-143.5 241,-143.5 402,-143.5 402,-143.5 241,-143.5"/>
<polygon fill="#bfbfbf" stroke="#bfbfbf" points="241,-128.5 241,-128.5 402,-128.5 402,-128.5 241,-128.5"/>
<polygon fill="none" stroke="#bfbfbf" points="240.5,-97 240.5,-194 401.5,-194 401.5,-97 240.5,-97"/>
</a>
</g>
</g>
<!-- Node2&#45;&gt;Node1 -->
<g id="edge1_Node000001_Node000002" class="edge">
<title>Node2&#45;&gt;Node1</title>
<g id="a_edge1_Node000001_Node000002"><a xlink:title=" ">
<path fill="none" stroke="#63b8ff" d="M321,-86.48C321,-77.4 321,-68.36 321,-60.3"/>
<polygon fill="none" stroke="#63b8ff" points="317.5,-86.69 321,-96.69 324.5,-86.69 317.5,-86.69"/>
</a>
</g>
</g>
<!-- Node3 -->
<g id="Node000003" class="node">
<title>Node3</title>
<g id="a_Node000003"><a xlink:href="group__spatialpartitioning.html#structPonca_1_1QueryInputIsPosition" target="_top" xlink:title="Base class for queries storing points.">
<polygon fill="white" stroke="transparent" points="211.5,-379 64.5,-379 64.5,-289 211.5,-289 211.5,-379"/>
<text text-anchor="start" x="70" y="-367" font-family="Helvetica,sans-Serif" font-size="10.00">Ponca::QueryInputIsPosition</text>
<text text-anchor="start" x="103" y="-356" font-family="Helvetica,sans-Serif" font-size="10.00">&lt; DataPoint &gt;</text>
<text text-anchor="start" x="136.5" y="-341" font-family="Helvetica,sans-Serif" font-size="10.00"> </text>
<text text-anchor="start" x="73" y="-326" font-family="Helvetica,sans-Serif" font-size="10.00">+</text>
<text text-anchor="start" x="90" y="-326" font-family="Helvetica,sans-Serif" font-size="10.00">QueryInputIsPosition()</text>
<text text-anchor="start" x="73" y="-311" font-family="Helvetica,sans-Serif" font-size="10.00">#</text>
<text text-anchor="start" x="90" y="-311" font-family="Helvetica,sans-Serif" font-size="10.00">skipIndexFunctor()</text>
<text text-anchor="start" x="73" y="-296" font-family="Helvetica,sans-Serif" font-size="10.00">#</text>
<text text-anchor="start" x="90" y="-296" font-family="Helvetica,sans-Serif" font-size="10.00">getInputPosition()</text>
<polygon fill="#666666" stroke="#666666" points="65,-351 65,-351 212,-351 212,-351 65,-351"/>
<polygon fill="#666666" stroke="#666666" points="65,-336 65,-336 212,-336 212,-336 65,-336"/>
<polygon fill="none" stroke="#666666" points="64.5,-289 64.5,-379 211.5,-379 211.5,-289 64.5,-289"/>
</a>
</g>
</g>
<!-- Node3&#45;&gt;Node2 -->
<g id="edge2_Node000002_Node000003" class="edge">
<title>Node3&#45;&gt;Node2</title>
<g id="a_edge2_Node000002_Node000003"><a xlink:title=" ">
<path fill="none" stroke="#63b8ff" d="M188.39,-281.64C215.17,-254.36 247.87,-221.03 274.1,-194.3"/>
<polygon fill="none" stroke="#63b8ff" points="185.87,-279.21 181.37,-288.8 190.87,-284.12 185.87,-279.21"/>
</a>
</g>
</g>
<!-- Node4 -->
<g id="Node000004" class="node">
<title>Node4</title>
<g id="a_Node000004"><a xlink:href="group__spatialpartitioning.html" target="_top" xlink:title=" ">
<polygon fill="white" stroke="transparent" points="173,-557 41,-557 41,-467 173,-467 173,-557"/>
<text text-anchor="start" x="46" y="-545" font-family="Helvetica,sans-Serif" font-size="10.00">Ponca::QueryInput&lt;</text>
<text text-anchor="start" x="46" y="-534" font-family="Helvetica,sans-Serif" font-size="10.00"> DataPoint::VectorType &gt;</text>
<text text-anchor="start" x="105" y="-519" font-family="Helvetica,sans-Serif" font-size="10.00"> </text>
<text text-anchor="start" x="57" y="-504" font-family="Helvetica,sans-Serif" font-size="10.00">+</text>
<text text-anchor="start" x="82" y="-504" font-family="Helvetica,sans-Serif" font-size="10.00">QueryInput()</text>
<text text-anchor="start" x="57" y="-489" font-family="Helvetica,sans-Serif" font-size="10.00">+</text>
<text text-anchor="start" x="82" y="-489" font-family="Helvetica,sans-Serif" font-size="10.00">input()</text>
<text text-anchor="start" x="57" y="-474" font-family="Helvetica,sans-Serif" font-size="10.00">#</text>
<text text-anchor="start" x="82" y="-474" font-family="Helvetica,sans-Serif" font-size="10.00">editInput()</text>
<polygon fill="#666666" stroke="#666666" points="41,-529 41,-529 173,-529 173,-529 41,-529"/>
<polygon fill="#666666" stroke="#666666" points="41,-514 41,-514 173,-514 173,-514 41,-514"/>
<polygon fill="none" stroke="#666666" points="41,-467 41,-557 173,-557 173,-467 41,-467"/>
</a>
</g>
</g>
<!-- Node4&#45;&gt;Node3 -->
<g id="edge3_Node000003_Node000004" class="edge">
<title>Node4&#45;&gt;Node3</title>
<g id="a_edge3_Node000003_Node000004"><a xlink:title=" ">
<path fill="none" stroke="#63b8ff" d="M116.59,-456.57C120.97,-431.68 126.1,-402.58 130.23,-379.09"/>
<polygon fill="none" stroke="#63b8ff" points="113.11,-456.13 114.82,-466.59 120,-457.35 113.11,-456.13"/>
</a>
</g>
</g>
<!-- Node5 -->
<g id="Node000005" class="node">
<title>Node5</title>
<g id="a_Node000005"><a xlink:href="group__spatialpartitioning.html#structPonca_1_1QueryInputBase" target="_top" xlink:title="Base class for queries input type.">
<polygon fill="white" stroke="transparent" points="124,-795 0,-795 0,-746 124,-746 124,-795"/>
<text text-anchor="start" x="5" y="-782.5" font-family="Helvetica,sans-Serif" font-size="10.00">Ponca::QueryInputBase</text>
<text text-anchor="start" x="60" y="-767.5" font-family="Helvetica,sans-Serif" font-size="10.00"> </text>
<text text-anchor="start" x="60" y="-752.5" font-family="Helvetica,sans-Serif" font-size="10.00"> </text>
<polygon fill="#666666" stroke="#666666" points="0,-777.5 0,-777.5 124,-777.5 124,-777.5 0,-777.5"/>
<polygon fill="#666666" stroke="#666666" points="0,-762.5 0,-762.5 124,-762.5 124,-762.5 0,-762.5"/>
<polygon fill="none" stroke="#666666" points="0,-746 0,-795 124,-795 124,-746 0,-746"/>
</a>
</g>
</g>
<!-- Node5&#45;&gt;Node4 -->
<g id="edge4_Node000004_Node000005" class="edge">
<title>Node5&#45;&gt;Node4</title>
<g id="a_edge4_Node000004_Node000005"><a xlink:title=" ">
<path fill="none" stroke="#63b8ff" d="M60.72,-735.6C60.24,-704.87 61.19,-658.48 69,-619 73.14,-598.1 80.64,-575.78 87.89,-557.04"/>
<polygon fill="none" stroke="#63b8ff" points="57.23,-735.86 60.95,-745.78 64.23,-735.7 57.23,-735.86"/>
</a>
</g>
</g>
<!-- Node6 -->
<g id="Node000006" class="node">
<title>Node6</title>
<g id="a_Node000006"><a xlink:href="group__spatialpartitioning.html#structPonca_1_1QueryInput" target="_top" xlink:title="Base class for typed queries input type.">
<polygon fill="white" stroke="transparent" points="186,-709 78,-709 78,-619 186,-619 186,-709"/>
<text text-anchor="start" x="83" y="-697" font-family="Helvetica,sans-Serif" font-size="10.00">Ponca::QueryInput&lt;</text>
<text text-anchor="start" x="98.5" y="-686" font-family="Helvetica,sans-Serif" font-size="10.00"> InputType_ &gt;</text>
<text text-anchor="start" x="130" y="-671" font-family="Helvetica,sans-Serif" font-size="10.00"> </text>
<text text-anchor="start" x="88" y="-656" font-family="Helvetica,sans-Serif" font-size="10.00">+</text>
<text text-anchor="start" x="107" y="-656" font-family="Helvetica,sans-Serif" font-size="10.00">QueryInput()</text>
<text text-anchor="start" x="88" y="-641" font-family="Helvetica,sans-Serif" font-size="10.00">+</text>
<text text-anchor="start" x="107" y="-641" font-family="Helvetica,sans-Serif" font-size="10.00">input()</text>
<text text-anchor="start" x="88" y="-626" font-family="Helvetica,sans-Serif" font-size="10.00">#</text>
<text text-anchor="start" x="107" y="-626" font-family="Helvetica,sans-Serif" font-size="10.00">editInput()</text>
<polygon fill="#666666" stroke="#666666" points="78,-681 78,-681 186,-681 186,-681 78,-681"/>
<polygon fill="#666666" stroke="#666666" points="78,-666 78,-666 186,-666 186,-666 78,-666"/>
<polygon fill="none" stroke="#666666" points="78,-619 78,-709 186,-709 186,-619 78,-619"/>
</a>
</g>
</g>
<!-- Node5&#45;&gt;Node6 -->
<g id="edge6_Node000006_Node000005" class="edge">
<title>Node5&#45;&gt;Node6</title>
<g id="a_edge6_Node000006_Node000005"><a xlink:title=" ">
<path fill="none" stroke="#63b8ff" d="M83.6,-737.26C89.54,-728.39 96.09,-718.6 102.41,-709.18"/>
<polygon fill="none" stroke="#63b8ff" points="80.54,-735.53 77.88,-745.79 86.36,-739.43 80.54,-735.53"/>
</a>
</g>
</g>
<!-- Node6&#45;&gt;Node4 -->
<g id="edge5_Node000004_Node000006" class="edge">
<title>Node6&#45;&gt;Node4</title>
<g id="a_edge5_Node000004_Node000006"><a xlink:title=" ">
<path fill="none" stroke="orange" d="M109.85,-609.08C109.14,-606.37 108.51,-603.67 108,-601 105.28,-586.9 104.43,-571.29 104.43,-557.18"/>
<polygon fill="orange" stroke="orange" points="106.54,-610.26 112.73,-618.86 113.26,-608.28 106.54,-610.26"/>
</a>
</g>
<text text-anchor="middle" x="174.5" y="-593" font-family="Helvetica,sans-Serif" font-size="10.00" fill="grey"> &lt; DataPoint::VectorType &gt;</text>
</g>
<!-- Node7 -->
<g id="Node000007" class="node">
<title>Node7</title>
<g id="a_Node000007"><a xlink:href="group__spatialpartitioning.html" target="_top" xlink:title=" ">
<polygon fill="white" stroke="transparent" points="400,-394 242,-394 242,-274 400,-274 400,-394"/>
<text text-anchor="start" x="248.5" y="-382" font-family="Helvetica,sans-Serif" font-size="10.00">Ponca::QueryOutputIsNearest</text>
<text text-anchor="start" x="251" y="-371" font-family="Helvetica,sans-Serif" font-size="10.00">&lt; Index, DataPoint::Scalar &gt;</text>
<text text-anchor="start" x="246" y="-356" font-family="Helvetica,sans-Serif" font-size="10.00">#</text>
<text text-anchor="start" x="259" y="-356" font-family="Helvetica,sans-Serif" font-size="10.00">m_nearest</text>
<text text-anchor="start" x="246" y="-341" font-family="Helvetica,sans-Serif" font-size="10.00">#</text>
<text text-anchor="start" x="259" y="-341" font-family="Helvetica,sans-Serif" font-size="10.00">m_squared_distance</text>
<text text-anchor="start" x="246" y="-326" font-family="Helvetica,sans-Serif" font-size="10.00">+</text>
<text text-anchor="start" x="259" y="-326" font-family="Helvetica,sans-Serif" font-size="10.00">QueryOutputIsNearest()</text>
<text text-anchor="start" x="246" y="-311" font-family="Helvetica,sans-Serif" font-size="10.00">+</text>
<text text-anchor="start" x="259" y="-311" font-family="Helvetica,sans-Serif" font-size="10.00">get()</text>
<text text-anchor="start" x="246" y="-296" font-family="Helvetica,sans-Serif" font-size="10.00">#</text>
<text text-anchor="start" x="259" y="-296" font-family="Helvetica,sans-Serif" font-size="10.00">reset()</text>
<text text-anchor="start" x="246" y="-281" font-family="Helvetica,sans-Serif" font-size="10.00">#</text>
<text text-anchor="start" x="259" y="-281" font-family="Helvetica,sans-Serif" font-size="10.00">descentDistanceThreshold()</text>
<polygon fill="#666666" stroke="#666666" points="242,-366 242,-366 400,-366 400,-366 242,-366"/>
<polygon fill="#666666" stroke="#666666" points="242,-336 242,-336 257,-336 257,-336 242,-336"/>
<polygon fill="#666666" stroke="#666666" points="257,-336 257,-336 400,-336 400,-336 257,-336"/>
<polygon fill="none" stroke="#666666" points="242,-274 242,-394 400,-394 400,-274 242,-274"/>
</a>
</g>
</g>
<!-- Node7&#45;&gt;Node2 -->
<g id="edge7_Node000002_Node000007" class="edge">
<title>Node7&#45;&gt;Node2</title>
<g id="a_edge7_Node000002_Node000007"><a xlink:title=" ">
<path fill="none" stroke="#63b8ff" d="M321,-263.86C321,-240.69 321,-215.39 321,-194.23"/>
<polygon fill="none" stroke="#63b8ff" points="317.5,-263.99 321,-273.99 324.5,-263.99 317.5,-263.99"/>
</a>
</g>
</g>
<!-- Node8 -->
<g id="Node000008" class="node">
<title>Node8</title>
<g id="a_Node000008"><a xlink:href="group__spatialpartitioning.html#structPonca_1_1QueryOutputBase" target="_top" xlink:title="Base class for queries output type.">
<polygon fill="white" stroke="transparent" points="359,-688.5 227,-688.5 227,-639.5 359,-639.5 359,-688.5"/>
<text text-anchor="start" x="232" y="-676" font-family="Helvetica,sans-Serif" font-size="10.00">Ponca::QueryOutputBase</text>
<text text-anchor="start" x="291" y="-661" font-family="Helvetica,sans-Serif" font-size="10.00"> </text>
<text text-anchor="start" x="291" y="-646" font-family="Helvetica,sans-Serif" font-size="10.00"> </text>
<polygon fill="#666666" stroke="#666666" points="227,-671 227,-671 359,-671 359,-671 227,-671"/>
<polygon fill="#666666" stroke="#666666" points="227,-656 227,-656 359,-656 359,-656 227,-656"/>
<polygon fill="none" stroke="#666666" points="227,-639.5 227,-688.5 359,-688.5 359,-639.5 227,-639.5"/>
</a>
</g>
</g>
<!-- Node8&#45;&gt;Node7 -->
<g id="edge8_Node000007_Node000008" class="edge">
<title>Node8&#45;&gt;Node7</title>
<g id="a_edge8_Node000007_Node000008"><a xlink:title=" ">
<path fill="none" stroke="#63b8ff" d="M284.24,-629.43C274.62,-587.55 262.03,-513.92 274,-452 277.76,-432.55 284.74,-412.23 292.18,-394.09"/>
<polygon fill="none" stroke="#63b8ff" points="280.88,-630.45 286.6,-639.37 287.69,-628.83 280.88,-630.45"/>
</a>
</g>
</g>
<!-- Node9 -->
<g id="Node000009" class="node">
<title>Node9</title>
<g id="a_Node000009"><a xlink:href="group__spatialpartitioning.html#structPonca_1_1QueryOutputIsNearest" target="_top" xlink:title="Base class for nearest queries.">
<polygon fill="white" stroke="transparent" points="441,-572 283,-572 283,-452 441,-452 441,-572"/>
<text text-anchor="start" x="289.5" y="-560" font-family="Helvetica,sans-Serif" font-size="10.00">Ponca::QueryOutputIsNearest</text>
<text text-anchor="start" x="319" y="-549" font-family="Helvetica,sans-Serif" font-size="10.00">&lt; Index, Scalar &gt;</text>
<text text-anchor="start" x="287" y="-534" font-family="Helvetica,sans-Serif" font-size="10.00">#</text>
<text text-anchor="start" x="300" y="-534" font-family="Helvetica,sans-Serif" font-size="10.00">m_nearest</text>
<text text-anchor="start" x="287" y="-519" font-family="Helvetica,sans-Serif" font-size="10.00">#</text>
<text text-anchor="start" x="300" y="-519" font-family="Helvetica,sans-Serif" font-size="10.00">m_squared_distance</text>
<text text-anchor="start" x="287" y="-504" font-family="Helvetica,sans-Serif" font-size="10.00">+</text>
<text text-anchor="start" x="300" y="-504" font-family="Helvetica,sans-Serif" font-size="10.00">QueryOutputIsNearest()</text>
<text text-anchor="start" x="287" y="-489" font-family="Helvetica,sans-Serif" font-size="10.00">+</text>
<text text-anchor="start" x="300" y="-489" font-family="Helvetica,sans-Serif" font-size="10.00">get()</text>
<text text-anchor="start" x="287" y="-474" font-family="Helvetica,sans-Serif" font-size="10.00">#</text>
<text text-anchor="start" x="300" y="-474" font-family="Helvetica,sans-Serif" font-size="10.00">reset()</text>
<text text-anchor="start" x="287" y="-459" font-family="Helvetica,sans-Serif" font-size="10.00">#</text>
<text text-anchor="start" x="300" y="-459" font-family="Helvetica,sans-Serif" font-size="10.00">descentDistanceThreshold()</text>
<polygon fill="#666666" stroke="#666666" points="283,-544 283,-544 441,-544 441,-544 283,-544"/>
<polygon fill="#666666" stroke="#666666" points="283,-514 283,-514 298,-514 298,-514 283,-514"/>
<polygon fill="#666666" stroke="#666666" points="298,-514 298,-514 441,-514 441,-514 298,-514"/>
<polygon fill="none" stroke="#666666" points="283,-452 283,-572 441,-572 441,-452 283,-452"/>
</a>
</g>
</g>
<!-- Node8&#45;&gt;Node9 -->
<g id="edge10_Node000009_Node000008" class="edge">
<title>Node8&#45;&gt;Node9</title>
<g id="a_edge10_Node000009_Node000008"><a xlink:title=" ">
<path fill="none" stroke="#63b8ff" d="M308.27,-629.8C316.05,-612.89 325.74,-591.82 334.74,-572.25"/>
<polygon fill="none" stroke="#63b8ff" points="304.93,-628.68 303.93,-639.23 311.29,-631.61 304.93,-628.68"/>
</a>
</g>
</g>
<!-- Node9&#45;&gt;Node7 -->
<g id="edge9_Node000007_Node000009" class="edge">
<title>Node9&#45;&gt;Node7</title>
<g id="a_edge9_Node000007_Node000009"><a xlink:title=" ">
<path fill="none" stroke="orange" d="M345.86,-441.73C342.2,-426.02 338.35,-409.48 334.8,-394.24"/>
<polygon fill="orange" stroke="orange" points="342.56,-442.96 348.23,-451.9 349.37,-441.37 342.56,-442.96"/>
</a>
</g>
<text text-anchor="start" x="344" y="-426" font-family="Helvetica,sans-Serif" font-size="10.00" fill="grey"> &lt; Index, DataPoint</text>
<text text-anchor="middle" x="392" y="-415" font-family="Helvetica,sans-Serif" font-size="10.00" fill="grey">::Scalar &gt;</text>
</g>
<!-- Node10 -->
<g id="Node000010" class="node">
<title>Node10</title>
<g id="a_Node000010"><a xlink:href="group__spatialpartitioning.html#structPonca_1_1Query" target="_top" xlink:title=" ">
<polygon fill="white" stroke="transparent" points="534.5,-371.5 423.5,-371.5 423.5,-296.5 534.5,-296.5 534.5,-371.5"/>
<text text-anchor="start" x="429" y="-359" font-family="Helvetica,sans-Serif" font-size="10.00">Ponca::Query&lt; Input</text>
<text text-anchor="start" x="449" y="-348" font-family="Helvetica,sans-Serif" font-size="10.00">_, Output_ &gt;</text>
<text text-anchor="start" x="477.5" y="-333" font-family="Helvetica,sans-Serif" font-size="10.00"> </text>
<text text-anchor="start" x="441" y="-318" font-family="Helvetica,sans-Serif" font-size="10.00">+</text>
<text text-anchor="start" x="467" y="-318" font-family="Helvetica,sans-Serif" font-size="10.00">Query()</text>
<text text-anchor="start" x="441" y="-303" font-family="Helvetica,sans-Serif" font-size="10.00">+</text>
<text text-anchor="start" x="467" y="-303" font-family="Helvetica,sans-Serif" font-size="10.00">Query()</text>
<polygon fill="#bfbfbf" stroke="#bfbfbf" points="424,-343 424,-343 535,-343 535,-343 424,-343"/>
<polygon fill="#bfbfbf" stroke="#bfbfbf" points="424,-328 424,-328 535,-328 535,-328 424,-328"/>
<polygon fill="none" stroke="#bfbfbf" points="423.5,-296.5 423.5,-371.5 534.5,-371.5 534.5,-296.5 423.5,-296.5"/>
</a>
</g>
</g>
<!-- Node10&#45;&gt;Node2 -->
<g id="edge11_Node000002_Node000010" class="edge">
<title>Node10&#45;&gt;Node2</title>
<g id="a_edge11_Node000002_Node000010"><a xlink:title=" ">
<path fill="none" stroke="orange" d="M441.2,-288.38C417.14,-259.98 386,-223.23 361.45,-194.25"/>
<polygon fill="orange" stroke="orange" points="438.65,-290.79 447.78,-296.15 443.99,-286.26 438.65,-290.79"/>
</a>
</g>
<text text-anchor="start" x="410" y="-248" font-family="Helvetica,sans-Serif" font-size="10.00" fill="grey"> &lt; QueryInputIsPosition</text>
<text text-anchor="start" x="410" y="-237" font-family="Helvetica,sans-Serif" font-size="10.00" fill="grey">&lt; DataPoint &gt;, QueryOutputIs</text>
<text text-anchor="start" x="410" y="-226" font-family="Helvetica,sans-Serif" font-size="10.00" fill="grey">Nearest&lt; Index, DataPoint</text>
<text text-anchor="middle" x="484" y="-215" font-family="Helvetica,sans-Serif" font-size="10.00" fill="grey">::Scalar &gt; &gt;</text>
</g>
<!-- Node11 -->
<g id="Node000011" class="node">
<title>Node11</title>
<g id="a_Node000011"><a xlink:title=" ">
<polygon fill="white" stroke="transparent" points="499.5,-536.5 458.5,-536.5 458.5,-487.5 499.5,-487.5 499.5,-536.5"/>
<text text-anchor="start" x="464" y="-524" font-family="Helvetica,sans-Serif" font-size="10.00">Input_</text>
<text text-anchor="start" x="477.5" y="-509" font-family="Helvetica,sans-Serif" font-size="10.00"> </text>
<text text-anchor="start" x="477.5" y="-494" font-family="Helvetica,sans-Serif" font-size="10.00"> </text>
<polygon fill="#bfbfbf" stroke="#bfbfbf" points="459,-519 459,-519 500,-519 500,-519 459,-519"/>
<polygon fill="#bfbfbf" stroke="#bfbfbf" points="459,-504 459,-504 500,-504 500,-504 459,-504"/>
<polygon fill="none" stroke="#bfbfbf" points="458.5,-487.5 458.5,-536.5 499.5,-536.5 499.5,-487.5 458.5,-487.5"/>
</a>
</g>
</g>
<!-- Node11&#45;&gt;Node10 -->
<g id="edge12_Node000010_Node000011" class="edge">
<title>Node11&#45;&gt;Node10</title>
<g id="a_edge12_Node000010_Node000011"><a xlink:title=" ">
<path fill="none" stroke="#63b8ff" d="M479,-477.21C479,-447.03 479,-402.9 479,-371.82"/>
<polygon fill="none" stroke="#63b8ff" points="475.5,-477.26 479,-487.26 482.5,-477.26 475.5,-477.26"/>
</a>
</g>
</g>
<!-- Node12 -->
<g id="Node000012" class="node">
<title>Node12</title>
<g id="a_Node000012"><a xlink:title=" ">
<polygon fill="white" stroke="transparent" points="566.5,-536.5 517.5,-536.5 517.5,-487.5 566.5,-487.5 566.5,-536.5"/>
<text text-anchor="start" x="523" y="-524" font-family="Helvetica,sans-Serif" font-size="10.00">Output_</text>
<text text-anchor="start" x="540.5" y="-509" font-family="Helvetica,sans-Serif" font-size="10.00"> </text>
<text text-anchor="start" x="540.5" y="-494" font-family="Helvetica,sans-Serif" font-size="10.00"> </text>
<polygon fill="#bfbfbf" stroke="#bfbfbf" points="518,-519 518,-519 567,-519 567,-519 518,-519"/>
<polygon fill="#bfbfbf" stroke="#bfbfbf" points="518,-504 518,-504 567,-504 567,-504 518,-504"/>
<polygon fill="none" stroke="#bfbfbf" points="517.5,-487.5 517.5,-536.5 566.5,-536.5 566.5,-487.5 517.5,-487.5"/>
</a>
</g>
</g>
<!-- Node12&#45;&gt;Node10 -->
<g id="edge13_Node000010_Node000012" class="edge">
<title>Node12&#45;&gt;Node10</title>
<g id="a_edge13_Node000010_Node000012"><a xlink:title=" ">
<path fill="none" stroke="#63b8ff" d="M530.05,-477.61C519.24,-447.41 503.35,-403.03 492.18,-371.82"/>
<polygon fill="none" stroke="#63b8ff" points="526.84,-479.03 533.5,-487.26 533.43,-476.67 526.84,-479.03"/>
</a>
</g>
</g>
</g>
</svg>
