<?xml version="1.0" encoding="UTF-8" standalone="no"?>
<!DOCTYPE svg PUBLIC "-//W3C//DTD SVG 1.1//EN"
 "http://www.w3.org/Graphics/SVG/1.1/DTD/svg11.dtd">
<!-- Generated by graphviz version 2.43.0 (0)
 -->
<!-- Title: Ponca::Query&lt; Input_, Output_ &gt; Pages: 1 -->
<svg width="120pt" height="198pt"
 viewBox="0.00 0.00 120.00 198.00" xmlns="http://www.w3.org/2000/svg" xmlns:xlink="http://www.w3.org/1999/xlink">
<g id="graph0" class="graph" transform="scale(1 1) rotate(0) translate(4 194)">
<title>Ponca::Query&lt; Input_, Output_ &gt;</title>
<!-- Node1 -->
<g id="Node000001" class="node">
<title>Node1</title>
<g id="a_Node000001"><a xlink:title="Composes the Query object depending on an input type and output type.">
<polygon fill="#999999" stroke="transparent" points="111,-105 0,-105 0,0 111,0 111,-105"/>
<text text-anchor="start" x="5.5" y="-92.5" font-family="Helvetica,sans-Serif" font-size="10.00">Ponca::Query&lt; Input</text>
<text text-anchor="start" x="25.5" y="-81.5" font-family="Helvetica,sans-Serif" font-size="10.00">_, Output_ &gt;</text>
<text text-anchor="start" x="54" y="-66.5" font-family="Helvetica,sans-Serif" font-size="10.00"> </text>
<text text-anchor="start" x="12.5" y="-51.5" font-family="Helvetica,sans-Serif" font-size="10.00">+</text>
<text text-anchor="start" x="33.5" y="-51.5" font-family="Helvetica,sans-Serif" font-size="10.00">Query()</text>
<text text-anchor="start" x="12.5" y="-36.5" font-family="Helvetica,sans-Serif" font-size="10.00">+</text>
<text text-anchor="start" x="33.5" y="-36.5" font-family="Helvetica,sans-Serif" font-size="10.00">Query()</text>
<text text-anchor="start" x="12.5" y="-21.5" font-family="Helvetica,sans-Serif" font-size="10.00">+</text>
<text text-anchor="start" x="33.5" y="-21.5" font-family="Helvetica,sans-Serif" font-size="10.00">operator()()</text>
<text text-anchor="start" x="12.5" y="-6.5" font-family="Helvetica,sans-Serif" font-size="10.00">+</text>
<text text-anchor="start" x="33.5" y="-6.5" font-family="Helvetica,sans-Serif" font-size="10.00">operator()()</text>
<polygon fill="#666666" stroke="#666666" points="0.5,-76.5 0.5,-76.5 111.5,-76.5 111.5,-76.5 0.5,-76.5"/>
<polygon fill="#666666" stroke="#666666" points="0.5,-61.5 0.5,-61.5 111.5,-61.5 111.5,-61.5 0.5,-61.5"/>
<polygon fill="none" stroke="#666666" points="0,0 0,-105 111,-105 111,0 0,0"/>
</a>
</g>
</g>
<!-- Node2 -->
<g id="Node000002" class="node">
<title>Node2</title>
<g id="a_Node000002"><a xlink:title=" ">
<polygon fill="white" stroke="transparent" points="45,-190 4,-190 4,-141 45,-141 45,-190"/>
<text text-anchor="start" x="9.5" y="-177.5" font-family="Helvetica,sans-Serif" font-size="10.00">Input_</text>
<text text-anchor="start" x="23" y="-162.5" font-family="Helvetica,sans-Serif" font-size="10.00"> </text>
<text text-anchor="start" x="23" y="-147.5" font-family="Helvetica,sans-Serif" font-size="10.00"> </text>
<polygon fill="#bfbfbf" stroke="#bfbfbf" points="4.5,-172.5 4.5,-172.5 45.5,-172.5 45.5,-172.5 4.5,-172.5"/>
<polygon fill="#bfbfbf" stroke="#bfbfbf" points="4.5,-157.5 4.5,-157.5 45.5,-157.5 45.5,-157.5 4.5,-157.5"/>
<polygon fill="none" stroke="#bfbfbf" points="4,-141 4,-190 45,-190 45,-141 4,-141"/>
</a>
</g>
</g>
<!-- Node2&#45;&gt;Node1 -->
<g id="edge1_Node000001_Node000002" class="edge">
<title>Node2&#45;&gt;Node1</title>
<g id="a_edge1_Node000001_Node000002"><a xlink:title=" ">
<path fill="none" stroke="#63b8ff" d="M33.82,-131.13C36.09,-122.99 38.58,-114.1 41.03,-105.32"/>
<polygon fill="none" stroke="#63b8ff" points="30.39,-130.39 31.07,-140.96 37.14,-132.27 30.39,-130.39"/>
</a>
</g>
</g>
<!-- Node3 -->
<g id="Node000003" class="node">
<title>Node3</title>
<g id="a_Node000003"><a xlink:title=" ">
<polygon fill="white" stroke="transparent" points="112,-190 63,-190 63,-141 112,-141 112,-190"/>
<text text-anchor="start" x="68.5" y="-177.5" font-family="Helvetica,sans-Serif" font-size="10.00">Output_</text>
<text text-anchor="start" x="86" y="-162.5" font-family="Helvetica,sans-Serif" font-size="10.00"> </text>
<text text-anchor="start" x="86" y="-147.5" font-family="Helvetica,sans-Serif" font-size="10.00"> </text>
<polygon fill="#bfbfbf" stroke="#bfbfbf" points="63.5,-172.5 63.5,-172.5 112.5,-172.5 112.5,-172.5 63.5,-172.5"/>
<polygon fill="#bfbfbf" stroke="#bfbfbf" points="63.5,-157.5 63.5,-157.5 112.5,-157.5 112.5,-157.5 63.5,-157.5"/>
<polygon fill="none" stroke="#bfbfbf" points="63,-141 63,-190 112,-190 112,-141 63,-141"/>
</a>
</g>
</g>
<!-- Node3&#45;&gt;Node1 -->
<g id="edge2_Node000001_Node000003" class="edge">
<title>Node3&#45;&gt;Node1</title>
<g id="a_edge2_Node000001_Node000003"><a xlink:title=" ">
<path fill="none" stroke="#63b8ff" d="M77.88,-131.13C75.53,-122.99 72.97,-114.1 70.44,-105.32"/>
<polygon fill="none" stroke="#63b8ff" points="74.58,-132.32 80.71,-140.96 81.31,-130.38 74.58,-132.32"/>
</a>
</g>
</g>
</g>
</svg>
