<?xml version="1.0" encoding="UTF-8" standalone="no"?>
<!DOCTYPE svg PUBLIC "-//W3C//DTD SVG 1.1//EN"
 "http://www.w3.org/Graphics/SVG/1.1/DTD/svg11.dtd">
<!-- Generated by graphviz version 2.43.0 (0)
 -->
<!-- Title: Ponca::KNearestPointQuery&lt; Index, DataPoint &gt; Pages: 1 -->
<!--zoomable 1319 -->
<svg id="main" version="1.1" xmlns="http://www.w3.org/2000/svg" xmlns:xlink="http://www.w3.org/1999/xlink" xml:space="preserve" onload="init(evt)">
<style type="text/css"><![CDATA[
.edge:hover path { stroke: red; }
.edge:hover polygon { stroke: red; fill: red; }
]]></style>
<script type="text/javascript"><![CDATA[
var edges = document.getElementsByTagName('g');
if (edges && edges.length) {
  for (var i=0;i<edges.length;i++) {
    if (edges[i].id.substr(0,4)=='edge') {
      edges[i].setAttribute('class','edge');
    }
  }
}
]]></script>
        <defs>
                <circle id="rim" cx="0" cy="0" r="7"/>
                <circle id="rim2" cx="0" cy="0" r="3.5"/>
                <g id="zoomPlus">
                        <use xlink:href="#rim" fill="#404040">
                                <set attributeName="fill" to="#808080" begin="zoomplus.mouseover" end="zoomplus.mouseout"/>
                        </use>
                        <path d="M-4,0h8M0,-4v8" fill="none" stroke="white" stroke-width="1.5" pointer-events="none"/>
                </g>
                <g id="zoomMin">
                        <use xlink:href="#rim" fill="#404040">
                                <set attributeName="fill" to="#808080" begin="zoomminus.mouseover" end="zoomminus.mouseout"/>
                        </use>
                        <path d="M-4,0h8" fill="none" stroke="white" stroke-width="1.5" pointer-events="none"/>
                </g>
                <g id="dirArrow">
                        <path fill="none" stroke="white" stroke-width="1.5" d="M0,-3.0v7 M-2.5,-0.5L0,-3.0L2.5,-0.5"/>
                </g>
               <g id="resetDef">
                       <use xlink:href="#rim2" fill="#404040">
                               <set attributeName="fill" to="#808080" begin="reset.mouseover" end="reset.mouseout"/>
                       </use>
               </g>
        </defs>

<script type="text/javascript">
var viewWidth = 947;
var viewHeight = 1319;
var sectionId = 'dynsection-26';
</script>
<script xlink:href="svgpan.js"/>
<svg id="graph" class="graph">
<g id="viewport">
<title>Ponca::KNearestPointQuery&lt; Index, DataPoint &gt;</title>
<!-- Node1 -->
<g id="node1" class="node">
<title>Node1</title>
<g id="a_node1"><a xlink:title="Base Query class combining QueryInputIsPosition and QueryOutputIsKNearest.">
<polygon fill="#999999" stroke="#666666" points="304.5,-0.5 304.5,-68.5 455.5,-68.5 455.5,-0.5 304.5,-0.5"/>
<text text-anchor="start" x="312.5" y="-56.5" font-family="Helvetica,sans-Serif" font-size="10.00">Ponca::KNearestPointQuery</text>
<text text-anchor="middle" x="380" y="-45.5" font-family="Helvetica,sans-Serif" font-size="10.00">&lt; Index, DataPoint &gt;</text>
<polyline fill="none" stroke="#666666" points="304.5,-38.5 455.5,-38.5 "/>
<text text-anchor="middle" x="380" y="-26.5" font-family="Helvetica,sans-Serif" font-size="10.00"> </text>
<polyline fill="none" stroke="#666666" points="304.5,-19.5 455.5,-19.5 "/>
<text text-anchor="middle" x="380" y="-7.5" font-family="Helvetica,sans-Serif" font-size="10.00"> </text>
</a>
</g>
</g>
<!-- Node2 -->
<g id="node2" class="node">
<title>Node2</title>
<g id="a_node2"><a xlink:href="group__spatialpartitioning.html" target="_top" xlink:title=" ">
<polygon fill="white" stroke="#bfbfbf" points="296.5,-106.5 296.5,-207.5 463.5,-207.5 463.5,-106.5 296.5,-106.5"/>
<text text-anchor="start" x="304.5" y="-195.5" font-family="Helvetica,sans-Serif" font-size="10.00">Ponca::Query&lt; QueryInput</text>
<text text-anchor="start" x="304.5" y="-184.5" font-family="Helvetica,sans-Serif" font-size="10.00">IsPosition&lt; DataPoint</text>
<text text-anchor="start" x="304.5" y="-173.5" font-family="Helvetica,sans-Serif" font-size="10.00"> &gt;, QueryOutputIsKNearest</text>
<text text-anchor="middle" x="380" y="-162.5" font-family="Helvetica,sans-Serif" font-size="10.00">&lt; Index, DataPoint::Scalar &gt; &gt;</text>
<polyline fill="none" stroke="#bfbfbf" points="296.5,-155.5 463.5,-155.5 "/>
<text text-anchor="middle" x="380" y="-143.5" font-family="Helvetica,sans-Serif" font-size="10.00"> </text>
<polyline fill="none" stroke="#bfbfbf" points="296.5,-136.5 463.5,-136.5 "/>
<text text-anchor="start" x="304.5" y="-124.5" font-family="Helvetica,sans-Serif" font-size="10.00">+ Query()</text>
<text text-anchor="start" x="304.5" y="-113.5" font-family="Helvetica,sans-Serif" font-size="10.00">+ Query()</text>
</a>
</g>
</g>
<!-- Node2&#45;&gt;Node1 -->
<g id="edge1" class="edge">
<title>Node2&#45;&gt;Node1</title>
<path fill="none" stroke="#63b8ff" d="M380,-96.07C380,-86.61 380,-77.14 380,-68.59"/>
<polygon fill="none" stroke="#63b8ff" points="376.5,-96.29 380,-106.29 383.5,-96.29 376.5,-96.29"/>
</g>
<!-- Node3 -->
<g id="node3" class="node">
<title>Node3</title>
<g id="a_node3"><a xlink:href="group__spatialpartitioning.html#structPonca_1_1QueryInputIsPosition" target="_top" xlink:title="Base class for queries storing points.">
<polygon fill="white" stroke="#666666" points="105.5,-299.5 105.5,-367.5 258.5,-367.5 258.5,-299.5 105.5,-299.5"/>
<text text-anchor="start" x="113.5" y="-355.5" font-family="Helvetica,sans-Serif" font-size="10.00">Ponca::QueryInputIsPosition</text>
<text text-anchor="middle" x="182" y="-344.5" font-family="Helvetica,sans-Serif" font-size="10.00">&lt; DataPoint &gt;</text>
<polyline fill="none" stroke="#666666" points="105.5,-337.5 258.5,-337.5 "/>
<text text-anchor="middle" x="182" y="-325.5" font-family="Helvetica,sans-Serif" font-size="10.00"> </text>
<polyline fill="none" stroke="#666666" points="105.5,-318.5 258.5,-318.5 "/>
<text text-anchor="start" x="113.5" y="-306.5" font-family="Helvetica,sans-Serif" font-size="10.00">+ QueryInputIsPosition()</text>
</a>
</g>
</g>
<!-- Node3&#45;&gt;Node2 -->
<g id="edge2" class="edge">
<title>Node3&#45;&gt;Node2</title>
<path fill="none" stroke="#63b8ff" d="M227.54,-292.37C256.14,-267.16 293.25,-234.45 323.7,-207.62"/>
<polygon fill="none" stroke="#63b8ff" points="224.9,-290.03 219.71,-299.27 229.52,-295.28 224.9,-290.03"/>
</g>
<!-- Node4 -->
<g id="node4" class="node">
<title>Node4</title>
<g id="a_node4"><a xlink:href="group__spatialpartitioning.html" target="_top" xlink:title=" ">
<polygon fill="white" stroke="#666666" points="52,-437.5 52,-527.5 190,-527.5 190,-437.5 52,-437.5"/>
<text text-anchor="start" x="60" y="-515.5" font-family="Helvetica,sans-Serif" font-size="10.00">Ponca::QueryInput&lt;</text>
<text text-anchor="middle" x="121" y="-504.5" font-family="Helvetica,sans-Serif" font-size="10.00"> DataPoint::VectorType &gt;</text>
<polyline fill="none" stroke="#666666" points="52,-497.5 190,-497.5 "/>
<text text-anchor="middle" x="121" y="-485.5" font-family="Helvetica,sans-Serif" font-size="10.00"> </text>
<polyline fill="none" stroke="#666666" points="52,-478.5 190,-478.5 "/>
<text text-anchor="start" x="60" y="-466.5" font-family="Helvetica,sans-Serif" font-size="10.00">+ QueryInput()</text>
<text text-anchor="start" x="60" y="-455.5" font-family="Helvetica,sans-Serif" font-size="10.00">+ input()</text>
<text text-anchor="start" x="60" y="-444.5" font-family="Helvetica,sans-Serif" font-size="10.00"># editInput()</text>
</a>
</g>
</g>
<!-- Node4&#45;&gt;Node3 -->
<g id="edge3" class="edge">
<title>Node4&#45;&gt;Node3</title>
<path fill="none" stroke="#63b8ff" d="M143.19,-428.02C151.54,-407.89 160.8,-385.6 168.17,-367.82"/>
<polygon fill="none" stroke="#63b8ff" points="139.9,-426.82 139.3,-437.4 146.37,-429.5 139.9,-426.82"/>
</g>
<!-- Node5 -->
<g id="node5" class="node">
<title>Node5</title>
<g id="a_node5"><a xlink:href="group__spatialpartitioning.html#structPonca_1_1QueryInputBase" target="_top" xlink:title="Base class for queries input type.">
<polygon fill="white" stroke="#666666" points="0,-906 0,-963 130,-963 130,-906 0,-906"/>
<text text-anchor="middle" x="65" y="-951" font-family="Helvetica,sans-Serif" font-size="10.00">Ponca::QueryInputBase</text>
<polyline fill="none" stroke="#666666" points="0,-944 130,-944 "/>
<text text-anchor="middle" x="65" y="-932" font-family="Helvetica,sans-Serif" font-size="10.00"> </text>
<polyline fill="none" stroke="#666666" points="0,-925 130,-925 "/>
<text text-anchor="middle" x="65" y="-913" font-family="Helvetica,sans-Serif" font-size="10.00"> </text>
</a>
</g>
</g>
<!-- Node5&#45;&gt;Node4 -->
<g id="edge4" class="edge">
<title>Node5&#45;&gt;Node4</title>
<path fill="none" stroke="#63b8ff" d="M56.1,-895.61C42.16,-828.92 20.25,-687.04 56,-575 61.33,-558.29 70.95,-542.02 81.18,-527.95"/>
<polygon fill="none" stroke="#63b8ff" points="52.74,-896.61 58.26,-905.65 59.58,-895.14 52.74,-896.61"/>
</g>
<!-- Node6 -->
<g id="node6" class="node">
<title>Node6</title>
<g id="a_node6"><a xlink:href="group__spatialpartitioning.html#structPonca_1_1QueryInput" target="_top" xlink:title="Base class for typed queries input type.">
<polygon fill="white" stroke="#666666" points="65,-630.5 65,-720.5 179,-720.5 179,-630.5 65,-630.5"/>
<text text-anchor="start" x="73" y="-708.5" font-family="Helvetica,sans-Serif" font-size="10.00">Ponca::QueryInput&lt;</text>
<text text-anchor="middle" x="122" y="-697.5" font-family="Helvetica,sans-Serif" font-size="10.00"> InputType_ &gt;</text>
<polyline fill="none" stroke="#666666" points="65,-690.5 179,-690.5 "/>
<text text-anchor="middle" x="122" y="-678.5" font-family="Helvetica,sans-Serif" font-size="10.00"> </text>
<polyline fill="none" stroke="#666666" points="65,-671.5 179,-671.5 "/>
<text text-anchor="start" x="73" y="-659.5" font-family="Helvetica,sans-Serif" font-size="10.00">+ QueryInput()</text>
<text text-anchor="start" x="73" y="-648.5" font-family="Helvetica,sans-Serif" font-size="10.00">+ input()</text>
<text text-anchor="start" x="73" y="-637.5" font-family="Helvetica,sans-Serif" font-size="10.00"># editInput()</text>
</a>
</g>
</g>
<!-- Node5&#45;&gt;Node6 -->
<g id="edge6" class="edge">
<title>Node5&#45;&gt;Node6</title>
<path fill="none" stroke="#63b8ff" d="M73.31,-896.04C83.61,-849.57 101.16,-770.45 112.14,-720.95"/>
<polygon fill="none" stroke="#63b8ff" points="69.85,-895.48 71.1,-906 76.68,-896.99 69.85,-895.48"/>
</g>
<!-- Node6&#45;&gt;Node4 -->
<g id="edge5" class="edge">
<title>Node6&#45;&gt;Node4</title>
<path fill="none" stroke="orange" d="M121.72,-620.12C121.56,-590.81 121.37,-555.11 121.23,-527.56"/>
<polygon fill="orange" stroke="orange" points="118.22,-620.22 121.77,-630.2 125.22,-620.18 118.22,-620.22"/>
<text text-anchor="middle" x="188.5" y="-549" font-family="Helvetica,sans-Serif" font-size="10.00"> &lt; DataPoint::VectorType &gt;</text>
</g>
<!-- Node7 -->
<g id="node7" class="node">
<title>Node7</title>
<g id="a_node7"><a xlink:href="group__spatialpartitioning.html" target="_top" xlink:title=" ">
<polygon fill="white" stroke="#666666" points="296.5,-288.5 296.5,-378.5 463.5,-378.5 463.5,-288.5 296.5,-288.5"/>
<text text-anchor="start" x="304.5" y="-366.5" font-family="Helvetica,sans-Serif" font-size="10.00">Ponca::QueryOutputIsKNearest</text>
<text text-anchor="middle" x="380" y="-355.5" font-family="Helvetica,sans-Serif" font-size="10.00">&lt; Index, DataPoint::Scalar &gt;</text>
<polyline fill="none" stroke="#666666" points="296.5,-348.5 463.5,-348.5 "/>
<text text-anchor="middle" x="380" y="-336.5" font-family="Helvetica,sans-Serif" font-size="10.00"> </text>
<polyline fill="none" stroke="#666666" points="296.5,-329.5 463.5,-329.5 "/>
<text text-anchor="start" x="304.5" y="-317.5" font-family="Helvetica,sans-Serif" font-size="10.00">+ QueryOutputIsKNearest()</text>
<text text-anchor="start" x="304.5" y="-306.5" font-family="Helvetica,sans-Serif" font-size="10.00">+ queue()</text>
<text text-anchor="start" x="304.5" y="-295.5" font-family="Helvetica,sans-Serif" font-size="10.00"># reset()</text>
</a>
</g>
</g>
<!-- Node7&#45;&gt;Node2 -->
<g id="edge7" class="edge">
<title>Node7&#45;&gt;Node2</title>
<path fill="none" stroke="#63b8ff" d="M380,-278.35C380,-255.75 380,-229.66 380,-207.57"/>
<polygon fill="none" stroke="#63b8ff" points="376.5,-278.47 380,-288.47 383.5,-278.47 376.5,-278.47"/>
</g>
<!-- Node8 -->
<g id="node8" class="node">
<title>Node8</title>
<g id="a_node8"><a xlink:href="group__spatialpartitioning.html#structPonca_1_1QueryOutputBase" target="_top" xlink:title="Base class for queries output type.">
<polygon fill="white" stroke="#666666" points="199,-647 199,-704 337,-704 337,-647 199,-647"/>
<text text-anchor="middle" x="268" y="-692" font-family="Helvetica,sans-Serif" font-size="10.00">Ponca::QueryOutputBase</text>
<polyline fill="none" stroke="#666666" points="199,-685 337,-685 "/>
<text text-anchor="middle" x="268" y="-673" font-family="Helvetica,sans-Serif" font-size="10.00"> </text>
<polyline fill="none" stroke="#666666" points="199,-666 337,-666 "/>
<text text-anchor="middle" x="268" y="-654" font-family="Helvetica,sans-Serif" font-size="10.00"> </text>
</a>
</g>
</g>
<!-- Node8&#45;&gt;Node7 -->
<g id="edge8" class="edge">
<title>Node8&#45;&gt;Node7</title>
<path fill="none" stroke="#63b8ff" d="M263.75,-636.74C259.9,-588.33 258.54,-502.79 287,-437 296.35,-415.39 312.17,-395.3 328.14,-378.74"/>
<polygon fill="none" stroke="#63b8ff" points="260.27,-637.12 264.63,-646.78 267.25,-636.51 260.27,-637.12"/>
</g>
<!-- Node16 -->
<g id="node16" class="node">
<title>Node16</title>
<g id="a_node16"><a xlink:href="group__spatialpartitioning.html#structPonca_1_1QueryOutputIsKNearest" target="_top" xlink:title="Base class for knearest queries.">
<polygon fill="white" stroke="#666666" points="296.5,-437.5 296.5,-527.5 463.5,-527.5 463.5,-437.5 296.5,-437.5"/>
<text text-anchor="start" x="304.5" y="-515.5" font-family="Helvetica,sans-Serif" font-size="10.00">Ponca::QueryOutputIsKNearest</text>
<text text-anchor="middle" x="380" y="-504.5" font-family="Helvetica,sans-Serif" font-size="10.00">&lt; Index, Scalar &gt;</text>
<polyline fill="none" stroke="#666666" points="296.5,-497.5 463.5,-497.5 "/>
<text text-anchor="middle" x="380" y="-485.5" font-family="Helvetica,sans-Serif" font-size="10.00"> </text>
<polyline fill="none" stroke="#666666" points="296.5,-478.5 463.5,-478.5 "/>
<text text-anchor="start" x="304.5" y="-466.5" font-family="Helvetica,sans-Serif" font-size="10.00">+ QueryOutputIsKNearest()</text>
<text text-anchor="start" x="304.5" y="-455.5" font-family="Helvetica,sans-Serif" font-size="10.00">+ queue()</text>
<text text-anchor="start" x="304.5" y="-444.5" font-family="Helvetica,sans-Serif" font-size="10.00"># reset()</text>
</a>
</g>
</g>
<!-- Node8&#45;&gt;Node16 -->
<g id="edge17" class="edge">
<title>Node8&#45;&gt;Node16</title>
<path fill="none" stroke="#63b8ff" d="M289.49,-637.85C307.93,-606.4 334.55,-561.01 354.15,-527.58"/>
<polygon fill="none" stroke="#63b8ff" points="286.32,-636.33 284.29,-646.73 292.36,-639.87 286.32,-636.33"/>
</g>
<!-- Node9 -->
<g id="node9" class="node">
<title>Node9</title>
<g id="a_node9"><a xlink:href="classPonca_1_1limited__priority__queue.html" target="_top" xlink:title=" ">
<polygon fill="white" stroke="#666666" points="581,-575.5 581,-775.5 789,-775.5 789,-575.5 581,-575.5"/>
<text text-anchor="start" x="589" y="-763.5" font-family="Helvetica,sans-Serif" font-size="10.00">Ponca::limited_priority</text>
<text text-anchor="start" x="589" y="-752.5" font-family="Helvetica,sans-Serif" font-size="10.00">_queue&lt; Ponca::IndexSquaredDistance</text>
<text text-anchor="middle" x="685" y="-741.5" font-family="Helvetica,sans-Serif" font-size="10.00">&lt; Index, DataPoint::Scalar &gt; &gt;</text>
<polyline fill="none" stroke="#666666" points="581,-734.5 789,-734.5 "/>
<text text-anchor="start" x="589" y="-722.5" font-family="Helvetica,sans-Serif" font-size="10.00"># m_comp</text>
<text text-anchor="start" x="589" y="-711.5" font-family="Helvetica,sans-Serif" font-size="10.00"># m_size</text>
<polyline fill="none" stroke="#666666" points="581,-704.5 789,-704.5 "/>
<text text-anchor="start" x="589" y="-692.5" font-family="Helvetica,sans-Serif" font-size="10.00">+ limited_priority_queue()</text>
<text text-anchor="start" x="589" y="-681.5" font-family="Helvetica,sans-Serif" font-size="10.00">+ limited_priority_queue()</text>
<text text-anchor="start" x="589" y="-670.5" font-family="Helvetica,sans-Serif" font-size="10.00">+ limited_priority_queue()</text>
<text text-anchor="start" x="589" y="-659.5" font-family="Helvetica,sans-Serif" font-size="10.00">+ limited_priority_queue()</text>
<text text-anchor="start" x="589" y="-648.5" font-family="Helvetica,sans-Serif" font-size="10.00">+ ~limited_priority_queue()</text>
<text text-anchor="start" x="589" y="-637.5" font-family="Helvetica,sans-Serif" font-size="10.00">+ operator=()</text>
<text text-anchor="start" x="589" y="-626.5" font-family="Helvetica,sans-Serif" font-size="10.00">+ begin()</text>
<text text-anchor="start" x="589" y="-615.5" font-family="Helvetica,sans-Serif" font-size="10.00">+ begin()</text>
<text text-anchor="start" x="589" y="-604.5" font-family="Helvetica,sans-Serif" font-size="10.00">+ cbegin()</text>
<text text-anchor="start" x="589" y="-593.5" font-family="Helvetica,sans-Serif" font-size="10.00">+ end()</text>
<text text-anchor="start" x="589" y="-582.5" font-family="Helvetica,sans-Serif" font-size="10.00">and 16 more...</text>
</a>
</g>
</g>
<!-- Node9&#45;&gt;Node7 -->
<g id="edge9" class="edge">
<title>Node9&#45;&gt;Node7</title>
<path fill="none" stroke="#404040" d="M580.93,-582.27C577.93,-579.8 574.95,-577.38 572,-575 544.51,-552.87 527.16,-557.64 508,-528 475.67,-478 514.17,-445.75 480,-397 477.58,-393.54 474.89,-390.24 472.01,-387.08"/>
<polygon fill="none" stroke="#404040" points="471.94,-387.01 464.86,-385.64 463.4,-378.58 470.48,-379.95 471.94,-387.01"/>
<text text-anchor="middle" x="536.5" y="-480" font-family="Helvetica,sans-Serif" font-size="10.00"> #m_queue</text>
</g>
<!-- Node10 -->
<g id="node10" class="node">
<title>Node10</title>
<g id="a_node10"><a xlink:title=" ">
<polygon fill="white" stroke="#666666" points="759.5,-895 759.5,-974 926.5,-974 926.5,-895 759.5,-895"/>
<text text-anchor="start" x="767.5" y="-962" font-family="Helvetica,sans-Serif" font-size="10.00">std::vector&lt; Ponca</text>
<text text-anchor="start" x="767.5" y="-951" font-family="Helvetica,sans-Serif" font-size="10.00">::IndexSquaredDistance</text>
<text text-anchor="middle" x="843" y="-940" font-family="Helvetica,sans-Serif" font-size="10.00">&lt; Index, DataPoint::Scalar &gt; &gt;</text>
<polyline fill="none" stroke="#666666" points="759.5,-933 926.5,-933 "/>
<text text-anchor="middle" x="843" y="-921" font-family="Helvetica,sans-Serif" font-size="10.00"> </text>
<polyline fill="none" stroke="#666666" points="759.5,-914 926.5,-914 "/>
<text text-anchor="middle" x="843" y="-902" font-family="Helvetica,sans-Serif" font-size="10.00"> </text>
</a>
</g>
</g>
<!-- Node10&#45;&gt;Node9 -->
<g id="edge10" class="edge">
<title>Node10&#45;&gt;Node9</title>
<path fill="none" stroke="#404040" d="M844.64,-894.78C844.24,-865.41 840.07,-824.96 823,-794 816.12,-781.51 807.34,-769.77 797.57,-758.89"/>
<polygon fill="none" stroke="#404040" points="797.38,-758.69 790.35,-757.07 789.14,-749.96 796.17,-751.58 797.38,-758.69"/>
<text text-anchor="middle" x="848" y="-802.5" font-family="Helvetica,sans-Serif" font-size="10.00"> #m_c</text>
</g>
<!-- Node11 -->
<g id="node11" class="node">
<title>Node11</title>
<g id="a_node11"><a xlink:href="structPonca_1_1IndexSquaredDistance.html" target="_top" xlink:title=" ">
<polygon fill="white" stroke="#666666" points="762.5,-1093.5 762.5,-1172.5 923.5,-1172.5 923.5,-1093.5 762.5,-1093.5"/>
<text text-anchor="start" x="770.5" y="-1160.5" font-family="Helvetica,sans-Serif" font-size="10.00">Ponca::IndexSquaredDistance</text>
<text text-anchor="middle" x="843" y="-1149.5" font-family="Helvetica,sans-Serif" font-size="10.00">&lt; Index, DataPoint::Scalar &gt;</text>
<polyline fill="none" stroke="#666666" points="762.5,-1142.5 923.5,-1142.5 "/>
<text text-anchor="start" x="770.5" y="-1130.5" font-family="Helvetica,sans-Serif" font-size="10.00">+ index</text>
<text text-anchor="start" x="770.5" y="-1119.5" font-family="Helvetica,sans-Serif" font-size="10.00">+ squared_distance</text>
<polyline fill="none" stroke="#666666" points="762.5,-1112.5 923.5,-1112.5 "/>
<text text-anchor="start" x="770.5" y="-1100.5" font-family="Helvetica,sans-Serif" font-size="10.00">+ operator&lt;()</text>
</a>
</g>
</g>
<!-- Node11&#45;&gt;Node10 -->
<g id="edge11" class="edge">
<title>Node11&#45;&gt;Node10</title>
<path fill="none" stroke="#404040" d="M843,-1093.18C843,-1062.63 843,-1019.81 843,-986.5"/>
<polygon fill="none" stroke="#404040" points="843,-986.24 839,-980.24 843,-974.24 847,-980.24 843,-986.24"/>
<text text-anchor="middle" x="872" y="-1061.5" font-family="Helvetica,sans-Serif" font-size="10.00"> +elements</text>
</g>
<!-- Node12 -->
<g id="node12" class="node">
<title>Node12</title>
<g id="a_node12"><a xlink:href="structPonca_1_1IndexSquaredDistance.html" target="_top" xlink:title="Associates an index with a distance.">
<polygon fill="white" stroke="#666666" points="762.5,-1231.5 762.5,-1310.5 923.5,-1310.5 923.5,-1231.5 762.5,-1231.5"/>
<text text-anchor="start" x="770.5" y="-1298.5" font-family="Helvetica,sans-Serif" font-size="10.00">Ponca::IndexSquaredDistance</text>
<text text-anchor="middle" x="843" y="-1287.5" font-family="Helvetica,sans-Serif" font-size="10.00">&lt; Index, Scalar &gt;</text>
<polyline fill="none" stroke="#666666" points="762.5,-1280.5 923.5,-1280.5 "/>
<text text-anchor="start" x="770.5" y="-1268.5" font-family="Helvetica,sans-Serif" font-size="10.00">+ index</text>
<text text-anchor="start" x="770.5" y="-1257.5" font-family="Helvetica,sans-Serif" font-size="10.00">+ squared_distance</text>
<polyline fill="none" stroke="#666666" points="762.5,-1250.5 923.5,-1250.5 "/>
<text text-anchor="start" x="770.5" y="-1238.5" font-family="Helvetica,sans-Serif" font-size="10.00">+ operator&lt;()</text>
</a>
</g>
</g>
<!-- Node12&#45;&gt;Node11 -->
<g id="edge12" class="edge">
<title>Node12&#45;&gt;Node11</title>
<path fill="none" stroke="orange" d="M843,-1221.18C843,-1205.25 843,-1187.79 843,-1172.7"/>
<polygon fill="orange" stroke="orange" points="839.5,-1221.39 843,-1231.39 846.5,-1221.39 839.5,-1221.39"/>
<text text-anchor="start" x="843" y="-1205" font-family="Helvetica,sans-Serif" font-size="10.00"> &lt; Index, DataPoint</text>
<text text-anchor="middle" x="891" y="-1194" font-family="Helvetica,sans-Serif" font-size="10.00">::Scalar &gt;</text>
</g>
<!-- Node13 -->
<g id="node13" class="node">
<title>Node13</title>
<g id="a_node13"><a xlink:title=" ">
<polygon fill="white" stroke="#666666" points="513.5,-1104.5 513.5,-1161.5 610.5,-1161.5 610.5,-1104.5 513.5,-1104.5"/>
<text text-anchor="middle" x="562" y="-1149.5" font-family="Helvetica,sans-Serif" font-size="10.00">std::vector&lt; T &gt;</text>
<polyline fill="none" stroke="#666666" points="513.5,-1142.5 610.5,-1142.5 "/>
<text text-anchor="middle" x="562" y="-1130.5" font-family="Helvetica,sans-Serif" font-size="10.00"> </text>
<polyline fill="none" stroke="#666666" points="513.5,-1123.5 610.5,-1123.5 "/>
<text text-anchor="middle" x="562" y="-1111.5" font-family="Helvetica,sans-Serif" font-size="10.00"> </text>
</a>
</g>
</g>
<!-- Node13&#45;&gt;Node10 -->
<g id="edge13" class="edge">
<title>Node13&#45;&gt;Node10</title>
<path fill="none" stroke="orange" d="M608.71,-1098.6C629.8,-1084 655.27,-1067.04 679,-1053 694.05,-1044.09 699.24,-1044.38 714,-1035 742.89,-1016.65 773.29,-993.41 797.31,-974.02"/>
<polygon fill="orange" stroke="orange" points="606.46,-1095.9 600.25,-1104.48 610.46,-1101.64 606.46,-1095.9"/>
<text text-anchor="start" x="679" y="-1067" font-family="Helvetica,sans-Serif" font-size="10.00"> &lt; Ponca::IndexSquaredDistance</text>
<text text-anchor="middle" x="759" y="-1056" font-family="Helvetica,sans-Serif" font-size="10.00">&lt; Index, DataPoint::Scalar &gt; &gt;</text>
</g>
<!-- Node18 -->
<g id="node18" class="node">
<title>Node18</title>
<g id="a_node18"><a xlink:title=" ">
<polygon fill="white" stroke="#666666" points="363,-895 363,-974 495,-974 495,-895 363,-895"/>
<text text-anchor="start" x="371" y="-962" font-family="Helvetica,sans-Serif" font-size="10.00">std::vector&lt; Ponca</text>
<text text-anchor="start" x="371" y="-951" font-family="Helvetica,sans-Serif" font-size="10.00">::IndexSquaredDistance</text>
<text text-anchor="middle" x="429" y="-940" font-family="Helvetica,sans-Serif" font-size="10.00">&lt; Index, Scalar &gt; &gt;</text>
<polyline fill="none" stroke="#666666" points="363,-933 495,-933 "/>
<text text-anchor="start" x="371" y="-921" font-family="Helvetica,sans-Serif" font-size="10.00">+ elements</text>
<polyline fill="none" stroke="#666666" points="363,-914 495,-914 "/>
<text text-anchor="middle" x="429" y="-902" font-family="Helvetica,sans-Serif" font-size="10.00"> </text>
</a>
</g>
</g>
<!-- Node13&#45;&gt;Node18 -->
<g id="edge20" class="edge">
<title>Node13&#45;&gt;Node18</title>
<path fill="none" stroke="orange" d="M504.76,-1104.92C492.21,-1096.77 480,-1086.8 471,-1075 448.52,-1045.54 438.02,-1004.12 433.14,-974.07"/>
<polygon fill="orange" stroke="orange" points="503.11,-1108.01 513.46,-1110.26 506.77,-1102.05 503.11,-1108.01"/>
<text text-anchor="start" x="471" y="-1067" font-family="Helvetica,sans-Serif" font-size="10.00"> &lt; Ponca::IndexSquaredDistance</text>
<text text-anchor="middle" x="551" y="-1056" font-family="Helvetica,sans-Serif" font-size="10.00">&lt; Index, Scalar &gt; &gt;</text>
</g>
<!-- Node14 -->
<g id="node14" class="node">
<title>Node14</title>
<g id="a_node14"><a xlink:title=" ">
<polygon fill="white" stroke="#bfbfbf" points="547.5,-1242.5 547.5,-1299.5 576.5,-1299.5 576.5,-1242.5 547.5,-1242.5"/>
<text text-anchor="middle" x="562" y="-1287.5" font-family="Helvetica,sans-Serif" font-size="10.00">T</text>
<polyline fill="none" stroke="#bfbfbf" points="547.5,-1280.5 576.5,-1280.5 "/>
<text text-anchor="middle" x="562" y="-1268.5" font-family="Helvetica,sans-Serif" font-size="10.00"> </text>
<polyline fill="none" stroke="#bfbfbf" points="547.5,-1261.5 576.5,-1261.5 "/>
<text text-anchor="middle" x="562" y="-1249.5" font-family="Helvetica,sans-Serif" font-size="10.00"> </text>
</a>
</g>
</g>
<!-- Node14&#45;&gt;Node13 -->
<g id="edge14" class="edge">
<title>Node14&#45;&gt;Node13</title>
<path fill="none" stroke="#404040" d="M562,-1242.48C562,-1222.79 562,-1195.99 562,-1173.95"/>
<polygon fill="none" stroke="#404040" points="562,-1173.95 558,-1167.95 562,-1161.95 566,-1167.95 562,-1173.95"/>
<text text-anchor="middle" x="591" y="-1199.5" font-family="Helvetica,sans-Serif" font-size="10.00"> +elements</text>
</g>
<!-- Node15 -->
<g id="node15" class="node">
<title>Node15</title>
<g id="a_node15"><a xlink:href="classPonca_1_1limited__priority__queue.html" target="_top" xlink:title="The limited_priority_queue class is similar to std::priority_queue but has a limited capacity and han...">
<polygon fill="white" stroke="#666666" points="551,-834.5 551,-1034.5 705,-1034.5 705,-834.5 551,-834.5"/>
<text text-anchor="start" x="559" y="-1022.5" font-family="Helvetica,sans-Serif" font-size="10.00">Ponca::limited_priority</text>
<text text-anchor="middle" x="628" y="-1011.5" font-family="Helvetica,sans-Serif" font-size="10.00">_queue&lt; T, CompareT &gt;</text>
<polyline fill="none" stroke="#666666" points="551,-1004.5 705,-1004.5 "/>
<text text-anchor="start" x="559" y="-992.5" font-family="Helvetica,sans-Serif" font-size="10.00"># m_c</text>
<text text-anchor="start" x="559" y="-981.5" font-family="Helvetica,sans-Serif" font-size="10.00"># m_comp</text>
<text text-anchor="start" x="559" y="-970.5" font-family="Helvetica,sans-Serif" font-size="10.00"># m_size</text>
<polyline fill="none" stroke="#666666" points="551,-963.5 705,-963.5 "/>
<text text-anchor="start" x="559" y="-951.5" font-family="Helvetica,sans-Serif" font-size="10.00">+ limited_priority_queue()</text>
<text text-anchor="start" x="559" y="-940.5" font-family="Helvetica,sans-Serif" font-size="10.00">+ limited_priority_queue()</text>
<text text-anchor="start" x="559" y="-929.5" font-family="Helvetica,sans-Serif" font-size="10.00">+ limited_priority_queue()</text>
<text text-anchor="start" x="559" y="-918.5" font-family="Helvetica,sans-Serif" font-size="10.00">+ limited_priority_queue()</text>
<text text-anchor="start" x="559" y="-907.5" font-family="Helvetica,sans-Serif" font-size="10.00">+ ~limited_priority_queue()</text>
<text text-anchor="start" x="559" y="-896.5" font-family="Helvetica,sans-Serif" font-size="10.00">+ operator=()</text>
<text text-anchor="start" x="559" y="-885.5" font-family="Helvetica,sans-Serif" font-size="10.00">+ begin()</text>
<text text-anchor="start" x="559" y="-874.5" font-family="Helvetica,sans-Serif" font-size="10.00">+ begin()</text>
<text text-anchor="start" x="559" y="-863.5" font-family="Helvetica,sans-Serif" font-size="10.00">+ cbegin()</text>
<text text-anchor="start" x="559" y="-852.5" font-family="Helvetica,sans-Serif" font-size="10.00">+ end()</text>
<text text-anchor="start" x="559" y="-841.5" font-family="Helvetica,sans-Serif" font-size="10.00">and 16 more...</text>
</a>
</g>
</g>
<!-- Node15&#45;&gt;Node9 -->
<g id="edge15" class="edge">
<title>Node15&#45;&gt;Node9</title>
<path fill="none" stroke="orange" d="M652.25,-824.16C655.83,-808.04 659.49,-791.5 663.02,-775.6"/>
<polygon fill="orange" stroke="orange" points="648.79,-823.62 650.04,-834.14 655.62,-825.13 648.79,-823.62"/>
<text text-anchor="start" x="659" y="-808" font-family="Helvetica,sans-Serif" font-size="10.00"> &lt; Ponca::IndexSquaredDistance</text>
<text text-anchor="middle" x="739" y="-797" font-family="Helvetica,sans-Serif" font-size="10.00">&lt; Index, DataPoint::Scalar &gt; &gt;</text>
</g>
<!-- Node17 -->
<g id="node17" class="node">
<title>Node17</title>
<g id="a_node17"><a xlink:href="classPonca_1_1limited__priority__queue.html" target="_top" xlink:title=" ">
<polygon fill="white" stroke="#666666" points="355,-575.5 355,-775.5 563,-775.5 563,-575.5 355,-575.5"/>
<text text-anchor="start" x="363" y="-763.5" font-family="Helvetica,sans-Serif" font-size="10.00">Ponca::limited_priority</text>
<text text-anchor="start" x="363" y="-752.5" font-family="Helvetica,sans-Serif" font-size="10.00">_queue&lt; Ponca::IndexSquaredDistance</text>
<text text-anchor="middle" x="459" y="-741.5" font-family="Helvetica,sans-Serif" font-size="10.00">&lt; Index, Scalar &gt; &gt;</text>
<polyline fill="none" stroke="#666666" points="355,-734.5 563,-734.5 "/>
<text text-anchor="start" x="363" y="-722.5" font-family="Helvetica,sans-Serif" font-size="10.00"># m_comp</text>
<text text-anchor="start" x="363" y="-711.5" font-family="Helvetica,sans-Serif" font-size="10.00"># m_size</text>
<polyline fill="none" stroke="#666666" points="355,-704.5 563,-704.5 "/>
<text text-anchor="start" x="363" y="-692.5" font-family="Helvetica,sans-Serif" font-size="10.00">+ limited_priority_queue()</text>
<text text-anchor="start" x="363" y="-681.5" font-family="Helvetica,sans-Serif" font-size="10.00">+ limited_priority_queue()</text>
<text text-anchor="start" x="363" y="-670.5" font-family="Helvetica,sans-Serif" font-size="10.00">+ limited_priority_queue()</text>
<text text-anchor="start" x="363" y="-659.5" font-family="Helvetica,sans-Serif" font-size="10.00">+ limited_priority_queue()</text>
<text text-anchor="start" x="363" y="-648.5" font-family="Helvetica,sans-Serif" font-size="10.00">+ ~limited_priority_queue()</text>
<text text-anchor="start" x="363" y="-637.5" font-family="Helvetica,sans-Serif" font-size="10.00">+ operator=()</text>
<text text-anchor="start" x="363" y="-626.5" font-family="Helvetica,sans-Serif" font-size="10.00">+ begin()</text>
<text text-anchor="start" x="363" y="-615.5" font-family="Helvetica,sans-Serif" font-size="10.00">+ begin()</text>
<text text-anchor="start" x="363" y="-604.5" font-family="Helvetica,sans-Serif" font-size="10.00">+ cbegin()</text>
<text text-anchor="start" x="363" y="-593.5" font-family="Helvetica,sans-Serif" font-size="10.00">+ end()</text>
<text text-anchor="start" x="363" y="-582.5" font-family="Helvetica,sans-Serif" font-size="10.00">and 16 more...</text>
</a>
</g>
</g>
<!-- Node15&#45;&gt;Node17 -->
<g id="edge21" class="edge">
<title>Node15&#45;&gt;Node17</title>
<path fill="none" stroke="orange" d="M542.9,-867.79C519.65,-848.3 498.72,-828.77 491,-816 483.54,-803.67 477.83,-789.76 473.44,-775.63"/>
<polygon fill="orange" stroke="orange" points="540.93,-870.7 550.86,-874.39 545.4,-865.31 540.93,-870.7"/>
<text text-anchor="start" x="491" y="-808" font-family="Helvetica,sans-Serif" font-size="10.00"> &lt; Ponca::IndexSquaredDistance</text>
<text text-anchor="middle" x="571" y="-797" font-family="Helvetica,sans-Serif" font-size="10.00">&lt; Index, Scalar &gt; &gt;</text>
</g>
<!-- Node16&#45;&gt;Node7 -->
<g id="edge16" class="edge">
<title>Node16&#45;&gt;Node7</title>
<path fill="none" stroke="orange" d="M380,-427.11C380,-411.12 380,-393.83 380,-378.57"/>
<polygon fill="orange" stroke="orange" points="376.5,-427.4 380,-437.4 383.5,-427.4 376.5,-427.4"/>
<text text-anchor="start" x="380" y="-411" font-family="Helvetica,sans-Serif" font-size="10.00"> &lt; Index, DataPoint</text>
<text text-anchor="middle" x="428" y="-400" font-family="Helvetica,sans-Serif" font-size="10.00">::Scalar &gt;</text>
</g>
<!-- Node17&#45;&gt;Node16 -->
<g id="edge18" class="edge">
<title>Node17&#45;&gt;Node16</title>
<path fill="none" stroke="#404040" d="M418,-575.36C412.81,-562.83 407.66,-550.38 402.9,-538.87"/>
<polygon fill="none" stroke="#404040" points="402.88,-538.81 396.89,-534.79 398.29,-527.72 404.28,-531.74 402.88,-538.81"/>
<text text-anchor="middle" x="439.5" y="-549" font-family="Helvetica,sans-Serif" font-size="10.00"> #m_queue</text>
</g>
<!-- Node18&#45;&gt;Node17 -->
<g id="edge19" class="edge">
<title>Node18&#45;&gt;Node17</title>
<path fill="none" stroke="#404040" d="M424.91,-894.82C422.72,-866.72 421.34,-827.84 426,-794 426.28,-791.94 426.59,-789.87 426.93,-787.79"/>
<polygon fill="none" stroke="#404040" points="426.96,-787.59 424.09,-780.98 429.09,-775.78 431.96,-782.4 426.96,-787.59"/>
<text text-anchor="middle" x="442" y="-802.5" font-family="Helvetica,sans-Serif" font-size="10.00"> #m_c</text>
</g>
<!-- Node19 -->
<g id="node19" class="node">
<title>Node19</title>
<g id="a_node19"><a xlink:href="group__spatialpartitioning.html#structPonca_1_1Query" target="_top" xlink:title=" ">
<polygon fill="white" stroke="#bfbfbf" points="539.5,-294 539.5,-373 656.5,-373 656.5,-294 539.5,-294"/>
<text text-anchor="start" x="547.5" y="-361" font-family="Helvetica,sans-Serif" font-size="10.00">Ponca::Query&lt; Input</text>
<text text-anchor="middle" x="598" y="-350" font-family="Helvetica,sans-Serif" font-size="10.00">_, Output_ &gt;</text>
<polyline fill="none" stroke="#bfbfbf" points="539.5,-343 656.5,-343 "/>
<text text-anchor="middle" x="598" y="-331" font-family="Helvetica,sans-Serif" font-size="10.00"> </text>
<polyline fill="none" stroke="#bfbfbf" points="539.5,-324 656.5,-324 "/>
<text text-anchor="start" x="547.5" y="-312" font-family="Helvetica,sans-Serif" font-size="10.00">+ Query()</text>
<text text-anchor="start" x="547.5" y="-301" font-family="Helvetica,sans-Serif" font-size="10.00">+ Query()</text>
</a>
</g>
</g>
<!-- Node19&#45;&gt;Node2 -->
<g id="edge22" class="edge">
<title>Node19&#45;&gt;Node2</title>
<path fill="none" stroke="orange" d="M541.89,-287.58C511.35,-263.14 473.5,-232.85 442.08,-207.7"/>
<polygon fill="orange" stroke="orange" points="539.89,-290.47 549.89,-293.99 544.27,-285.01 539.89,-290.47"/>
<text text-anchor="start" x="515" y="-262" font-family="Helvetica,sans-Serif" font-size="10.00"> &lt; QueryInputIsPosition</text>
<text text-anchor="start" x="515" y="-251" font-family="Helvetica,sans-Serif" font-size="10.00">&lt; DataPoint &gt;, QueryOutputIs</text>
<text text-anchor="start" x="515" y="-240" font-family="Helvetica,sans-Serif" font-size="10.00">KNearest&lt; Index, DataPoint</text>
<text text-anchor="middle" x="589" y="-229" font-family="Helvetica,sans-Serif" font-size="10.00">::Scalar &gt; &gt;</text>
</g>
<!-- Node20 -->
<g id="node20" class="node">
<title>Node20</title>
<g id="a_node20"><a xlink:title=" ">
<polygon fill="white" stroke="#bfbfbf" points="574.5,-454 574.5,-511 621.5,-511 621.5,-454 574.5,-454"/>
<text text-anchor="middle" x="598" y="-499" font-family="Helvetica,sans-Serif" font-size="10.00">Input_</text>
<polyline fill="none" stroke="#bfbfbf" points="574.5,-492 621.5,-492 "/>
<text text-anchor="middle" x="598" y="-480" font-family="Helvetica,sans-Serif" font-size="10.00"> </text>
<polyline fill="none" stroke="#bfbfbf" points="574.5,-473 621.5,-473 "/>
<text text-anchor="middle" x="598" y="-461" font-family="Helvetica,sans-Serif" font-size="10.00"> </text>
</a>
</g>
</g>
<!-- Node20&#45;&gt;Node19 -->
<g id="edge23" class="edge">
<title>Node20&#45;&gt;Node19</title>
<path fill="none" stroke="#63b8ff" d="M598,-443.7C598,-422.04 598,-394.92 598,-373.12"/>
<polygon fill="none" stroke="#63b8ff" points="594.5,-443.85 598,-453.85 601.5,-443.85 594.5,-443.85"/>
</g>
<!-- Node21 -->
<g id="node21" class="node">
<title>Node21</title>
<g id="a_node21"><a xlink:title=" ">
<polygon fill="white" stroke="#bfbfbf" points="639.5,-454 639.5,-511 694.5,-511 694.5,-454 639.5,-454"/>
<text text-anchor="middle" x="667" y="-499" font-family="Helvetica,sans-Serif" font-size="10.00">Output_</text>
<polyline fill="none" stroke="#bfbfbf" points="639.5,-492 694.5,-492 "/>
<text text-anchor="middle" x="667" y="-480" font-family="Helvetica,sans-Serif" font-size="10.00"> </text>
<polyline fill="none" stroke="#bfbfbf" points="639.5,-473 694.5,-473 "/>
<text text-anchor="middle" x="667" y="-461" font-family="Helvetica,sans-Serif" font-size="10.00"> </text>
</a>
</g>
</g>
<!-- Node21&#45;&gt;Node19 -->
<g id="edge24" class="edge">
<title>Node21&#45;&gt;Node19</title>
<path fill="none" stroke="#63b8ff" d="M649.67,-444.59C639.44,-422.78 626.5,-395.21 616.13,-373.12"/>
<polygon fill="none" stroke="#63b8ff" points="646.6,-446.29 654.02,-453.85 652.94,-443.31 646.6,-446.29"/>
</g>
</g>
</svg>
        <g id="navigator" transform="translate(0 0)" fill="#404254">
                <rect fill="#f2f5e9" fill-opacity="0.5" stroke="#606060" stroke-width=".5" x="0" y="0" width="60" height="60"/>
                <use id="zoomplus" xlink:href="#zoomPlus" x="17" y="9" onmousedown="handleZoom(evt,'in')"/>
                <use id="zoomminus" xlink:href="#zoomMin" x="42" y="9" onmousedown="handleZoom(evt,'out')"/>
                <use id="reset" xlink:href="#resetDef" x="30" y="36" onmousedown="handleReset()"/>
                <g id="arrowUp" xlink:href="#dirArrow" transform="translate(30 24)" onmousedown="handlePan(0,-1)">
                  <use xlink:href="#rim" fill="#404040">
                        <set attributeName="fill" to="#808080" begin="arrowUp.mouseover" end="arrowUp.mouseout"/>
                  </use>
                  <path fill="none" stroke="white" stroke-width="1.5" d="M0,-3.0v7 M-2.5,-0.5L0,-3.0L2.5,-0.5"/>
                </g>
                <g id="arrowRight" xlink:href="#dirArrow" transform="rotate(90) translate(36 -43)" onmousedown="handlePan(1,0)">
                  <use xlink:href="#rim" fill="#404040">
                        <set attributeName="fill" to="#808080" begin="arrowRight.mouseover" end="arrowRight.mouseout"/>
                  </use>
                  <path fill="none" stroke="white" stroke-width="1.5" d="M0,-3.0v7 M-2.5,-0.5L0,-3.0L2.5,-0.5"/>
                </g>
                <g id="arrowDown" xlink:href="#dirArrow" transform="rotate(180) translate(-30 -48)" onmousedown="handlePan(0,1)">
                  <use xlink:href="#rim" fill="#404040">
                        <set attributeName="fill" to="#808080" begin="arrowDown.mouseover" end="arrowDown.mouseout"/>
                  </use>
                  <path fill="none" stroke="white" stroke-width="1.5" d="M0,-3.0v7 M-2.5,-0.5L0,-3.0L2.5,-0.5"/>
                </g>
                <g id="arrowLeft" xlink:href="#dirArrow" transform="rotate(270) translate(-36 17)" onmousedown="handlePan(-1,0)">
                  <use xlink:href="#rim" fill="#404040">
                        <set attributeName="fill" to="#808080" begin="arrowLeft.mouseover" end="arrowLeft.mouseout"/>
                  </use>
                  <path fill="none" stroke="white" stroke-width="1.5" d="M0,-3.0v7 M-2.5,-0.5L0,-3.0L2.5,-0.5"/>
                </g>
        </g>
        <svg viewBox="0 0 15 15" width="100%" height="30px" preserveAspectRatio="xMaxYMin meet">
         <g id="arrow_out" transform="scale(0.3 0.3)">
          <a xlink:href="structPonca_1_1KNearestPointQuery__coll__graph_org.svg" target="_base">
           <rect id="button" ry="5" rx="5" y="6" x="6" height="38" width="38"
                fill="#f2f5e9" fill-opacity="0.5" stroke="#606060" stroke-width="1.0"/>
           <path id="arrow"
             d="M 11.500037,31.436501 C 11.940474,20.09759 22.043105,11.32322 32.158766,21.979434 L 37.068811,17.246167 C 37.068811,17.246167 37.088388,32 37.088388,32 L 22.160133,31.978069 C 22.160133,31.978069 26.997745,27.140456 26.997745,27.140456 C 18.528582,18.264221 13.291696,25.230495 11.500037,31.436501 z"
             style="fill:#404040;"/>
          </a>
         </g>
        </svg>
</svg>
