<?xml version="1.0" encoding="UTF-8" standalone="no"?>
<!DOCTYPE svg PUBLIC "-//W3C//DTD SVG 1.1//EN"
 "http://www.w3.org/Graphics/SVG/1.1/DTD/svg11.dtd">
<!-- Generated by graphviz version 2.43.0 (0)
 -->
<!-- Title: Ponca::QueryOutputIsKNearest&lt; Scalar &gt; Pages: 1 -->
<!--zoomable 742 -->
<svg id="main" version="1.1" xmlns="http://www.w3.org/2000/svg" xmlns:xlink="http://www.w3.org/1999/xlink" xml:space="preserve" onload="init(evt)">
<style type="text/css"><![CDATA[
.edge:hover path { stroke: red; }
.edge:hover polygon { stroke: red; fill: red; }
]]></style>
<script type="text/javascript"><![CDATA[
var edges = document.getElementsByTagName('g');
if (edges && edges.length) {
  for (var i=0;i<edges.length;i++) {
    if (edges[i].id.substr(0,4)=='edge') {
      edges[i].setAttribute('class','edge');
    }
  }
}
]]></script>
        <defs>
                <circle id="rim" cx="0" cy="0" r="7"/>
                <circle id="rim2" cx="0" cy="0" r="3.5"/>
                <g id="zoomPlus">
                        <use xlink:href="#rim" fill="#404040">
                                <set attributeName="fill" to="#808080" begin="zoomplus.mouseover" end="zoomplus.mouseout"/>
                        </use>
                        <path d="M-4,0h8M0,-4v8" fill="none" stroke="white" stroke-width="1.5" pointer-events="none"/>
                </g>
                <g id="zoomMin">
                        <use xlink:href="#rim" fill="#404040">
                                <set attributeName="fill" to="#808080" begin="zoomminus.mouseover" end="zoomminus.mouseout"/>
                        </use>
                        <path d="M-4,0h8" fill="none" stroke="white" stroke-width="1.5" pointer-events="none"/>
                </g>
                <g id="dirArrow">
                        <path fill="none" stroke="white" stroke-width="1.5" d="M0,-3.0v7 M-2.5,-0.5L0,-3.0L2.5,-0.5"/>
                </g>
               <g id="resetDef">
                       <use xlink:href="#rim2" fill="#404040">
                               <set attributeName="fill" to="#808080" begin="reset.mouseover" end="reset.mouseout"/>
                       </use>
               </g>
        </defs>

<script type="text/javascript">
var viewWidth = 462;
var viewHeight = 742;
var sectionId = 'dynsection-27';
</script>
<script xlink:href="svgpan.js"/>
<svg id="graph" class="graph">
<g id="viewport">
<title>Ponca::QueryOutputIsKNearest&lt; Scalar &gt;</title>
<!-- Node1 -->
<g id="node1" class="node">
<title>Node1</title>
<g id="a_node1"><a xlink:title="Base class for knearest queries.">
<polygon fill="#999999" stroke="#666666" points="214.5,-74 41.5,-74 41.5,0 214.5,0 214.5,-74"/>
<text text-anchor="start" x="49.5" y="-62" font-family="Helvetica,sans-Serif" font-size="10.00">{Ponca::QueryOutputIsKNearest</text>
<text text-anchor="middle" x="128" y="-51" font-family="Helvetica,sans-Serif" font-size="10.00">&lt; Scalar &gt;</text>
<text text-anchor="start" x="49.5" y="-40" font-family="Helvetica,sans-Serif" font-size="10.00">||+ QueryOutputIsKNearest()</text>
<text text-anchor="start" x="49.5" y="-29" font-family="Helvetica,sans-Serif" font-size="10.00">+ queue()</text>
<text text-anchor="start" x="49.5" y="-18" font-family="Helvetica,sans-Serif" font-size="10.00"># reset()</text>
<text text-anchor="middle" x="128" y="-7" font-family="Helvetica,sans-Serif" font-size="10.00">}</text>
</a>
</g>
</g>
<!-- Node2 -->
<g id="node2" class="node">
<title>Node2</title>
<g id="a_node2"><a xlink:href="group__spatialpartitioning.html#structPonca_1_1QueryOutputBase" target="_top" xlink:title="Base class for queries output type.">
<polygon fill="white" stroke="#666666" points="144,-233.5 0,-233.5 0,-203.5 144,-203.5 144,-233.5"/>
<text text-anchor="middle" x="72" y="-221.5" font-family="Helvetica,sans-Serif" font-size="10.00">{Ponca::QueryOutputBase</text>
<text text-anchor="middle" x="72" y="-210.5" font-family="Helvetica,sans-Serif" font-size="10.00">||}</text>
</a>
</g>
</g>
<!-- Node2&#45;&gt;Node1 -->
<g id="edge1" class="edge">
<title>Node2&#45;&gt;Node1</title>
<path fill="none" stroke="#63b8ff" d="M79.46,-193.6C89.01,-162.98 105.65,-109.64 116.75,-74.07"/>
<polygon fill="none" stroke="#63b8ff" points="76.03,-192.83 76.39,-203.41 82.71,-194.91 76.03,-192.83"/>
</g>
<!-- Node3 -->
<g id="node3" class="node">
<title>Node3</title>
<g id="a_node3"><a xlink:href="group__common.html" target="_top" xlink:title=" ">
<polygon fill="white" stroke="#666666" points="370,-316 162,-316 162,-121 370,-121 370,-316"/>
<text text-anchor="start" x="170" y="-304" font-family="Helvetica,sans-Serif" font-size="10.00">{Ponca::limited_priority</text>
<text text-anchor="start" x="170" y="-293" font-family="Helvetica,sans-Serif" font-size="10.00">_queue&lt; Ponca::IndexSquaredDistance</text>
<text text-anchor="middle" x="266" y="-282" font-family="Helvetica,sans-Serif" font-size="10.00">&lt; Scalar &gt; &gt;</text>
<text text-anchor="start" x="170" y="-271" font-family="Helvetica,sans-Serif" font-size="10.00">|# m_comp</text>
<text text-anchor="start" x="170" y="-260" font-family="Helvetica,sans-Serif" font-size="10.00"># m_size</text>
<text text-anchor="start" x="170" y="-249" font-family="Helvetica,sans-Serif" font-size="10.00">|+ limited_priority_queue()</text>
<text text-anchor="start" x="170" y="-238" font-family="Helvetica,sans-Serif" font-size="10.00">+ limited_priority_queue()</text>
<text text-anchor="start" x="170" y="-227" font-family="Helvetica,sans-Serif" font-size="10.00">+ limited_priority_queue()</text>
<text text-anchor="start" x="170" y="-216" font-family="Helvetica,sans-Serif" font-size="10.00">+ limited_priority_queue()</text>
<text text-anchor="start" x="170" y="-205" font-family="Helvetica,sans-Serif" font-size="10.00">+ ~limited_priority_queue()</text>
<text text-anchor="start" x="170" y="-194" font-family="Helvetica,sans-Serif" font-size="10.00">+ operator=()</text>
<text text-anchor="start" x="170" y="-183" font-family="Helvetica,sans-Serif" font-size="10.00">+ begin()</text>
<text text-anchor="start" x="170" y="-172" font-family="Helvetica,sans-Serif" font-size="10.00">+ begin()</text>
<text text-anchor="start" x="170" y="-161" font-family="Helvetica,sans-Serif" font-size="10.00">+ cbegin()</text>
<text text-anchor="start" x="170" y="-150" font-family="Helvetica,sans-Serif" font-size="10.00">+ end()</text>
<text text-anchor="start" x="170" y="-139" font-family="Helvetica,sans-Serif" font-size="10.00">and 16 more...</text>
<text text-anchor="middle" x="266" y="-128" font-family="Helvetica,sans-Serif" font-size="10.00">}</text>
</a>
</g>
</g>
<!-- Node3&#45;&gt;Node1 -->
<g id="edge2" class="edge">
<title>Node3&#45;&gt;Node1</title>
<path fill="none" stroke="#404040" d="M191.75,-120.92C181.88,-108.08 172.16,-95.43 163.39,-84.03"/>
<polygon fill="none" stroke="#404040" points="163.27,-83.87 156.44,-81.55 155.95,-74.36 162.78,-76.68 163.27,-83.87"/>
<text text-anchor="middle" x="204.5" y="-95" font-family="Helvetica,sans-Serif" font-size="10.00"> #m_queue</text>
</g>
<!-- Node4 -->
<g id="node4" class="node">
<title>Node4</title>
<g id="a_node4"><a xlink:title=" ">
<polygon fill="white" stroke="#666666" points="225,-503 93,-503 93,-440 225,-440 225,-503"/>
<text text-anchor="start" x="101" y="-491" font-family="Helvetica,sans-Serif" font-size="10.00">{std::vector&lt; Ponca</text>
<text text-anchor="start" x="101" y="-480" font-family="Helvetica,sans-Serif" font-size="10.00">::IndexSquaredDistance</text>
<text text-anchor="middle" x="159" y="-469" font-family="Helvetica,sans-Serif" font-size="10.00">&lt; Scalar &gt; &gt;</text>
<text text-anchor="start" x="101" y="-458" font-family="Helvetica,sans-Serif" font-size="10.00">|+ elements</text>
<text text-anchor="middle" x="159" y="-447" font-family="Helvetica,sans-Serif" font-size="10.00">|}</text>
</a>
</g>
</g>
<!-- Node4&#45;&gt;Node3 -->
<g id="edge3" class="edge">
<title>Node4&#45;&gt;Node3</title>
<path fill="none" stroke="#404040" d="M172.12,-439.72C184.13,-411.54 202.64,-368.13 220.06,-327.28"/>
<polygon fill="none" stroke="#404040" points="220.11,-327.16 218.78,-320.07 224.81,-316.12 226.14,-323.2 220.11,-327.16"/>
<text text-anchor="middle" x="231" y="-342.5" font-family="Helvetica,sans-Serif" font-size="10.00"> #m_c</text>
</g>
<!-- Node5 -->
<g id="node5" class="node">
<title>Node5</title>
<g id="a_node5"><a xlink:title=" ">
<polygon fill="white" stroke="#666666" points="210.5,-657 107.5,-657 107.5,-627 210.5,-627 210.5,-657"/>
<text text-anchor="middle" x="159" y="-645" font-family="Helvetica,sans-Serif" font-size="10.00">{std::vector&lt; T &gt;</text>
<text text-anchor="middle" x="159" y="-634" font-family="Helvetica,sans-Serif" font-size="10.00">||}</text>
</a>
</g>
</g>
<!-- Node5&#45;&gt;Node4 -->
<g id="edge4" class="edge">
<title>Node5&#45;&gt;Node4</title>
<path fill="none" stroke="orange" d="M159,-616.55C159,-586.62 159,-535.9 159,-503.32"/>
<polygon fill="orange" stroke="orange" points="155.5,-616.92 159,-626.92 162.5,-616.92 155.5,-616.92"/>
<text text-anchor="start" x="159" y="-601" font-family="Helvetica,sans-Serif" font-size="10.00"> &lt; Ponca::IndexSquaredDistance</text>
<text text-anchor="middle" x="239" y="-590" font-family="Helvetica,sans-Serif" font-size="10.00">&lt; Scalar &gt; &gt;</text>
</g>
<!-- Node6 -->
<g id="node6" class="node">
<title>Node6</title>
<g id="a_node6"><a xlink:title=" ">
<polygon fill="white" stroke="#bfbfbf" points="173.5,-734 144.5,-734 144.5,-704 173.5,-704 173.5,-734"/>
<text text-anchor="middle" x="159" y="-722" font-family="Helvetica,sans-Serif" font-size="10.00">{T</text>
<text text-anchor="middle" x="159" y="-711" font-family="Helvetica,sans-Serif" font-size="10.00">||}</text>
</a>
</g>
</g>
<!-- Node6&#45;&gt;Node5 -->
<g id="edge5" class="edge">
<title>Node6&#45;&gt;Node5</title>
<path fill="none" stroke="#404040" d="M159,-703.89C159,-694.15 159,-680.9 159,-669.25"/>
<polygon fill="none" stroke="#404040" points="159,-669.04 155,-663.04 159,-657.04 163,-663.04 159,-669.04"/>
<text text-anchor="middle" x="188" y="-678" font-family="Helvetica,sans-Serif" font-size="10.00"> +elements</text>
</g>
<!-- Node7 -->
<g id="node7" class="node">
<title>Node7</title>
<g id="a_node7"><a xlink:href="group__common.html#classPonca_1_1limited__priority__queue" target="_top" xlink:title="The limited_priority_queue class is similar to std::priority_queue but has a limited capacity and han...">
<polygon fill="white" stroke="#666666" points="397,-569 243,-569 243,-374 397,-374 397,-569"/>
<text text-anchor="start" x="251" y="-557" font-family="Helvetica,sans-Serif" font-size="10.00">{Ponca::limited_priority</text>
<text text-anchor="middle" x="320" y="-546" font-family="Helvetica,sans-Serif" font-size="10.00">_queue&lt; T, CompareT &gt;</text>
<text text-anchor="start" x="251" y="-535" font-family="Helvetica,sans-Serif" font-size="10.00">|# m_c</text>
<text text-anchor="start" x="251" y="-524" font-family="Helvetica,sans-Serif" font-size="10.00"># m_comp</text>
<text text-anchor="start" x="251" y="-513" font-family="Helvetica,sans-Serif" font-size="10.00"># m_size</text>
<text text-anchor="start" x="251" y="-502" font-family="Helvetica,sans-Serif" font-size="10.00">|+ limited_priority_queue()</text>
<text text-anchor="start" x="251" y="-491" font-family="Helvetica,sans-Serif" font-size="10.00">+ limited_priority_queue()</text>
<text text-anchor="start" x="251" y="-480" font-family="Helvetica,sans-Serif" font-size="10.00">+ limited_priority_queue()</text>
<text text-anchor="start" x="251" y="-469" font-family="Helvetica,sans-Serif" font-size="10.00">+ limited_priority_queue()</text>
<text text-anchor="start" x="251" y="-458" font-family="Helvetica,sans-Serif" font-size="10.00">+ ~limited_priority_queue()</text>
<text text-anchor="start" x="251" y="-447" font-family="Helvetica,sans-Serif" font-size="10.00">+ operator=()</text>
<text text-anchor="start" x="251" y="-436" font-family="Helvetica,sans-Serif" font-size="10.00">+ begin()</text>
<text text-anchor="start" x="251" y="-425" font-family="Helvetica,sans-Serif" font-size="10.00">+ begin()</text>
<text text-anchor="start" x="251" y="-414" font-family="Helvetica,sans-Serif" font-size="10.00">+ cbegin()</text>
<text text-anchor="start" x="251" y="-403" font-family="Helvetica,sans-Serif" font-size="10.00">+ end()</text>
<text text-anchor="start" x="251" y="-392" font-family="Helvetica,sans-Serif" font-size="10.00">and 16 more...</text>
<text text-anchor="middle" x="320" y="-381" font-family="Helvetica,sans-Serif" font-size="10.00">}</text>
</a>
</g>
</g>
<!-- Node7&#45;&gt;Node3 -->
<g id="edge6" class="edge">
<title>Node7&#45;&gt;Node3</title>
<path fill="none" stroke="orange" d="M297.09,-363.99C293.67,-348.1 290.16,-331.8 286.79,-316.13"/>
<polygon fill="orange" stroke="orange" points="293.67,-364.78 299.2,-373.82 300.52,-363.3 293.67,-364.78"/>
<text text-anchor="start" x="294" y="-348" font-family="Helvetica,sans-Serif" font-size="10.00"> &lt; Ponca::IndexSquaredDistance</text>
<text text-anchor="middle" x="374" y="-337" font-family="Helvetica,sans-Serif" font-size="10.00">&lt; Scalar &gt; &gt;</text>
</g>
</g>
</svg>
        <g id="navigator" transform="translate(0 0)" fill="#404254">
                <rect fill="#f2f5e9" fill-opacity="0.5" stroke="#606060" stroke-width=".5" x="0" y="0" width="60" height="60"/>
                <use id="zoomplus" xlink:href="#zoomPlus" x="17" y="9" onmousedown="handleZoom(evt,'in')"/>
                <use id="zoomminus" xlink:href="#zoomMin" x="42" y="9" onmousedown="handleZoom(evt,'out')"/>
                <use id="reset" xlink:href="#resetDef" x="30" y="36" onmousedown="handleReset()"/>
                <g id="arrowUp" xlink:href="#dirArrow" transform="translate(30 24)" onmousedown="handlePan(0,-1)">
                  <use xlink:href="#rim" fill="#404040">
                        <set attributeName="fill" to="#808080" begin="arrowUp.mouseover" end="arrowUp.mouseout"/>
                  </use>
                  <path fill="none" stroke="white" stroke-width="1.5" d="M0,-3.0v7 M-2.5,-0.5L0,-3.0L2.5,-0.5"/>
                </g>
                <g id="arrowRight" xlink:href="#dirArrow" transform="rotate(90) translate(36 -43)" onmousedown="handlePan(1,0)">
                  <use xlink:href="#rim" fill="#404040">
                        <set attributeName="fill" to="#808080" begin="arrowRight.mouseover" end="arrowRight.mouseout"/>
                  </use>
                  <path fill="none" stroke="white" stroke-width="1.5" d="M0,-3.0v7 M-2.5,-0.5L0,-3.0L2.5,-0.5"/>
                </g>
                <g id="arrowDown" xlink:href="#dirArrow" transform="rotate(180) translate(-30 -48)" onmousedown="handlePan(0,1)">
                  <use xlink:href="#rim" fill="#404040">
                        <set attributeName="fill" to="#808080" begin="arrowDown.mouseover" end="arrowDown.mouseout"/>
                  </use>
                  <path fill="none" stroke="white" stroke-width="1.5" d="M0,-3.0v7 M-2.5,-0.5L0,-3.0L2.5,-0.5"/>
                </g>
                <g id="arrowLeft" xlink:href="#dirArrow" transform="rotate(270) translate(-36 17)" onmousedown="handlePan(-1,0)">
                  <use xlink:href="#rim" fill="#404040">
                        <set attributeName="fill" to="#808080" begin="arrowLeft.mouseover" end="arrowLeft.mouseout"/>
                  </use>
                  <path fill="none" stroke="white" stroke-width="1.5" d="M0,-3.0v7 M-2.5,-0.5L0,-3.0L2.5,-0.5"/>
                </g>
        </g>
        <svg viewBox="0 0 15 15" width="100%" height="30px" preserveAspectRatio="xMaxYMin meet">
         <g id="arrow_out" transform="scale(0.3 0.3)">
          <a xlink:href="structPonca_1_1QueryOutputIsKNearest__coll__graph_org.svg" target="_base">
           <rect id="button" ry="5" rx="5" y="6" x="6" height="38" width="38"
                fill="#f2f5e9" fill-opacity="0.5" stroke="#606060" stroke-width="1.0"/>
           <path id="arrow"
             d="M 11.500037,31.436501 C 11.940474,20.09759 22.043105,11.32322 32.158766,21.979434 L 37.068811,17.246167 C 37.068811,17.246167 37.088388,32 37.088388,32 L 22.160133,31.978069 C 22.160133,31.978069 26.997745,27.140456 26.997745,27.140456 C 18.528582,18.264221 13.291696,25.230495 11.500037,31.436501 z"
             style="fill:#404040;"/>
          </a>
         </g>
        </svg>
</svg>
