<?xml version="1.0" encoding="UTF-8" standalone="no"?>
<!DOCTYPE svg PUBLIC "-//W3C//DTD SVG 1.1//EN"
 "http://www.w3.org/Graphics/SVG/1.1/DTD/svg11.dtd">
<!-- Generated by graphviz version 2.43.0 (0)
 -->
<!-- Title: Ponca::QueryInputIsIndex&lt; Index &gt; Pages: 1 -->
<svg width="196pt" height="448pt"
 viewBox="0.00 0.00 195.50 448.00" xmlns="http://www.w3.org/2000/svg" xmlns:xlink="http://www.w3.org/1999/xlink">

<svg id="main" version="1.1" xmlns="http://www.w3.org/2000/svg" xmlns:xlink="http://www.w3.org/1999/xlink" xml:space="preserve" onload="init(evt)">
<style type="text/css"><![CDATA[
.node, .edge {opacity: 0.7;}
.node.selected, .edge.selected {opacity: 1;}
.edge:hover path { stroke: red; }
.edge:hover polygon { stroke: red; fill: red; }
]]></style>
<script type="application/ecmascript" xlink:href="svg.min.js"/>
<svg id="graph" class="graph">
<g id="graph0" class="graph" transform="scale(1 1) rotate(0) translate(4 444)">
<title>Ponca::QueryInputIsIndex&lt; Index &gt;</title>
<!-- Node1 -->
<g id="Node000001" class="node">
<title>Node1</title>
<g id="a_Node000001"><a xlink:title="Base class for queries storing points.">
<polygon fill="#999999" stroke="transparent" points="135,-90 0,-90 0,0 135,0 135,-90"/>
<text text-anchor="start" x="5.5" y="-78" font-family="Helvetica,sans-Serif" font-size="10.00">Ponca::QueryInputIsIndex</text>
<text text-anchor="start" x="43" y="-67" font-family="Helvetica,sans-Serif" font-size="10.00">&lt; Index &gt;</text>
<text text-anchor="start" x="66" y="-52" font-family="Helvetica,sans-Serif" font-size="10.00"> </text>
<text text-anchor="start" x="8.5" y="-37" font-family="Helvetica,sans-Serif" font-size="10.00">+</text>
<text text-anchor="start" x="25.5" y="-37" font-family="Helvetica,sans-Serif" font-size="10.00">QueryInputIsIndex()</text>
<text text-anchor="start" x="8.5" y="-22" font-family="Helvetica,sans-Serif" font-size="10.00">#</text>
<text text-anchor="start" x="25.5" y="-22" font-family="Helvetica,sans-Serif" font-size="10.00">skipIndexFunctor()</text>
<text text-anchor="start" x="8.5" y="-7" font-family="Helvetica,sans-Serif" font-size="10.00">#</text>
<text text-anchor="start" x="25.5" y="-7" font-family="Helvetica,sans-Serif" font-size="10.00">getInputPosition()</text>
<polygon fill="#666666" stroke="#666666" points="0.5,-62 0.5,-62 135.5,-62 135.5,-62 0.5,-62"/>
<polygon fill="#666666" stroke="#666666" points="0.5,-47 0.5,-47 135.5,-47 135.5,-47 0.5,-47"/>
<polygon fill="none" stroke="#666666" points="0,0 0,-90 135,-90 135,0 0,0"/>
</a>
</g>
</g>
<!-- Node2 -->
<g id="Node000002" class="node">
<title>Node2</title>
<g id="a_Node000002"><a xlink:href="group__spatialpartitioning.html" target="_top" xlink:title=" ">
<polygon fill="white" stroke="transparent" points="121.5,-217 13.5,-217 13.5,-127 121.5,-127 121.5,-217"/>
<text text-anchor="start" x="18.5" y="-205" font-family="Helvetica,sans-Serif" font-size="10.00">Ponca::QueryInput&lt;</text>
<text text-anchor="start" x="46.5" y="-194" font-family="Helvetica,sans-Serif" font-size="10.00"> Index &gt;</text>
<text text-anchor="start" x="65.5" y="-179" font-family="Helvetica,sans-Serif" font-size="10.00"> </text>
<text text-anchor="start" x="23.5" y="-164" font-family="Helvetica,sans-Serif" font-size="10.00">+</text>
<text text-anchor="start" x="42.5" y="-164" font-family="Helvetica,sans-Serif" font-size="10.00">QueryInput()</text>
<text text-anchor="start" x="23.5" y="-149" font-family="Helvetica,sans-Serif" font-size="10.00">+</text>
<text text-anchor="start" x="42.5" y="-149" font-family="Helvetica,sans-Serif" font-size="10.00">input()</text>
<text text-anchor="start" x="23.5" y="-134" font-family="Helvetica,sans-Serif" font-size="10.00">#</text>
<text text-anchor="start" x="42.5" y="-134" font-family="Helvetica,sans-Serif" font-size="10.00">editInput()</text>
<polygon fill="#666666" stroke="#666666" points="13.5,-189 13.5,-189 121.5,-189 121.5,-189 13.5,-189"/>
<polygon fill="#666666" stroke="#666666" points="13.5,-174 13.5,-174 121.5,-174 121.5,-174 13.5,-174"/>
<polygon fill="none" stroke="#666666" points="13.5,-127 13.5,-217 121.5,-217 121.5,-127 13.5,-127"/>
</a>
</g>
</g>
<!-- Node2&#45;&gt;Node1 -->
<g id="edge1_Node000001_Node000002" class="edge">
<title>Node2&#45;&gt;Node1</title>
<g id="a_edge1_Node000001_Node000002"><a xlink:title=" ">
<path fill="none" stroke="#63b8ff" d="M67.5,-116.66C67.5,-107.78 67.5,-98.68 67.5,-90.09"/>
<polygon fill="none" stroke="#63b8ff" points="64,-116.93 67.5,-126.93 71,-116.93 64,-116.93"/>
</a>
</g>
</g>
<!-- Node3 -->
<g id="Node000003" class="node">
<title>Node3</title>
<g id="a_Node000003"><a xlink:href="group__spatialpartitioning.html#structPonca_1_1QueryInputBase" target="_top" xlink:title="Base class for queries input type.">
<polygon fill="white" stroke="transparent" points="125.5,-440 1.5,-440 1.5,-391 125.5,-391 125.5,-440"/>
<text text-anchor="start" x="6.5" y="-427.5" font-family="Helvetica,sans-Serif" font-size="10.00">Ponca::QueryInputBase</text>
<text text-anchor="start" x="61.5" y="-412.5" font-family="Helvetica,sans-Serif" font-size="10.00"> </text>
<text text-anchor="start" x="61.5" y="-397.5" font-family="Helvetica,sans-Serif" font-size="10.00"> </text>
<polygon fill="#666666" stroke="#666666" points="1.5,-422.5 1.5,-422.5 125.5,-422.5 125.5,-422.5 1.5,-422.5"/>
<polygon fill="#666666" stroke="#666666" points="1.5,-407.5 1.5,-407.5 125.5,-407.5 125.5,-407.5 1.5,-407.5"/>
<polygon fill="none" stroke="#666666" points="1.5,-391 1.5,-440 125.5,-440 125.5,-391 1.5,-391"/>
</a>
</g>
</g>
<!-- Node3&#45;&gt;Node2 -->
<g id="edge2_Node000002_Node000003" class="edge">
<title>Node3&#45;&gt;Node2</title>
<g id="a_edge2_Node000002_Node000003"><a xlink:title=" ">
<path fill="none" stroke="#63b8ff" d="M64.06,-380.74C64.77,-337.97 65.99,-264.19 66.77,-217.04"/>
<polygon fill="none" stroke="#63b8ff" points="60.56,-380.85 63.89,-390.9 67.56,-380.96 60.56,-380.85"/>
</a>
</g>
</g>
<!-- Node4 -->
<g id="Node000004" class="node">
<title>Node4</title>
<g id="a_Node000004"><a xlink:href="group__spatialpartitioning.html#structPonca_1_1QueryInput" target="_top" xlink:title="Base class for typed queries input type.">
<polygon fill="white" stroke="transparent" points="187.5,-354 79.5,-354 79.5,-264 187.5,-264 187.5,-354"/>
<text text-anchor="start" x="84.5" y="-342" font-family="Helvetica,sans-Serif" font-size="10.00">Ponca::QueryInput&lt;</text>
<text text-anchor="start" x="100" y="-331" font-family="Helvetica,sans-Serif" font-size="10.00"> InputType_ &gt;</text>
<text text-anchor="start" x="131.5" y="-316" font-family="Helvetica,sans-Serif" font-size="10.00"> </text>
<text text-anchor="start" x="89.5" y="-301" font-family="Helvetica,sans-Serif" font-size="10.00">+</text>
<text text-anchor="start" x="108.5" y="-301" font-family="Helvetica,sans-Serif" font-size="10.00">QueryInput()</text>
<text text-anchor="start" x="89.5" y="-286" font-family="Helvetica,sans-Serif" font-size="10.00">+</text>
<text text-anchor="start" x="108.5" y="-286" font-family="Helvetica,sans-Serif" font-size="10.00">input()</text>
<text text-anchor="start" x="89.5" y="-271" font-family="Helvetica,sans-Serif" font-size="10.00">#</text>
<text text-anchor="start" x="108.5" y="-271" font-family="Helvetica,sans-Serif" font-size="10.00">editInput()</text>
<polygon fill="#666666" stroke="#666666" points="79.5,-326 79.5,-326 187.5,-326 187.5,-326 79.5,-326"/>
<polygon fill="#666666" stroke="#666666" points="79.5,-311 79.5,-311 187.5,-311 187.5,-311 79.5,-311"/>
<polygon fill="none" stroke="#666666" points="79.5,-264 79.5,-354 187.5,-354 187.5,-264 79.5,-264"/>
</a>
</g>
</g>
<!-- Node3&#45;&gt;Node4 -->
<g id="edge4_Node000004_Node000003" class="edge">
<title>Node3&#45;&gt;Node4</title>
<g id="a_edge4_Node000004_Node000003"><a xlink:title=" ">
<path fill="none" stroke="#63b8ff" d="M85.1,-382.26C91.04,-373.39 97.59,-363.6 103.91,-354.18"/>
<polygon fill="none" stroke="#63b8ff" points="82.04,-380.53 79.38,-390.79 87.86,-384.43 82.04,-380.53"/>
</a>
</g>
</g>
<!-- Node4&#45;&gt;Node2 -->
<g id="edge3_Node000002_Node000004" class="edge">
<title>Node4&#45;&gt;Node2</title>
<g id="a_edge3_Node000002_Node000004"><a xlink:title=" ">
<path fill="none" stroke="orange" d="M107.35,-254.52C101.32,-242.19 94.97,-229.2 89.16,-217.3"/>
<polygon fill="orange" stroke="orange" points="104.35,-256.35 111.89,-263.8 110.64,-253.27 104.35,-256.35"/>
</a>
</g>
<text text-anchor="middle" x="128" y="-238" font-family="Helvetica,sans-Serif" font-size="10.00" fill="grey"> &lt; Index &gt;</text>
</g>
</g>
</svg>
</svg>

<style type='text/css'>
<![CDATA[
[data-mouse-over-selected='false'] { opacity: 0.7; }
[data-mouse-over-selected='true']  { opacity: 1.0; }
]]>
</style>
<script type="application/ecmascript"><![CDATA[
document.addEventListener('DOMContentLoaded', (event) => {
  highlightEdges();
  highlightAdjacentNodes();
});
]]></script>
</svg>
