<?xml version="1.0" encoding="UTF-8" standalone="no"?>
<!DOCTYPE svg PUBLIC "-//W3C//DTD SVG 1.1//EN"
 "http://www.w3.org/Graphics/SVG/1.1/DTD/svg11.dtd">
<!-- Generated by graphviz version 2.43.0 (0)
 -->
<!-- Title: Ponca::KNearestIndexQuery&lt; Index, Scalar &gt; Pages: 1 -->
<svg width="640pt" height="1149pt"
 viewBox="0.00 0.00 640.00 1149.00" xmlns="http://www.w3.org/2000/svg" xmlns:xlink="http://www.w3.org/1999/xlink">
<g id="graph0" class="graph" transform="scale(1 1) rotate(0) translate(4 1145)">
<title>Ponca::KNearestIndexQuery&lt; Index, Scalar &gt;</title>
<!-- Node1 -->
<g id="Node000001" class="node">
<title>Node1</title>
<g id="a_Node000001"><a xlink:title="Base Query class combining QueryInputIsIndex and QueryOutputIsKNearest.">
<polygon fill="#999999" stroke="transparent" points="434.5,-60 287.5,-60 287.5,0 434.5,0 434.5,-60"/>
<text text-anchor="start" x="293" y="-48" font-family="Helvetica,sans-Serif" font-size="10.00">Ponca::KNearestIndexQuery</text>
<text text-anchor="start" x="318.5" y="-37" font-family="Helvetica,sans-Serif" font-size="10.00">&lt; Index, Scalar &gt;</text>
<text text-anchor="start" x="359.5" y="-22" font-family="Helvetica,sans-Serif" font-size="10.00"> </text>
<text text-anchor="start" x="359.5" y="-7" font-family="Helvetica,sans-Serif" font-size="10.00"> </text>
<polygon fill="#666666" stroke="#666666" points="288,-32 288,-32 435,-32 435,-32 288,-32"/>
<polygon fill="#666666" stroke="#666666" points="288,-17 288,-17 435,-17 435,-17 288,-17"/>
<polygon fill="none" stroke="#666666" points="287.5,0 287.5,-60 434.5,-60 434.5,0 287.5,0"/>
</a>
</g>
</g>
<!-- Node2 -->
<g id="Node000002" class="node">
<title>Node2</title>
<g id="a_Node000002"><a xlink:href="group__spatialpartitioning.html" target="_top" xlink:title=" ">
<polygon fill="white" stroke="transparent" points="443,-183 279,-183 279,-97 443,-97 443,-183"/>
<text text-anchor="start" x="284" y="-171" font-family="Helvetica,sans-Serif" font-size="10.00">Ponca::Query&lt; QueryInput</text>
<text text-anchor="start" x="284" y="-160" font-family="Helvetica,sans-Serif" font-size="10.00">IsIndex&lt; Index &gt;, QueryOutput</text>
<text text-anchor="start" x="285.5" y="-149" font-family="Helvetica,sans-Serif" font-size="10.00">IsKNearest&lt; Index, Scalar &gt; &gt;</text>
<text text-anchor="start" x="359" y="-134" font-family="Helvetica,sans-Serif" font-size="10.00"> </text>
<text text-anchor="start" x="309.5" y="-119" font-family="Helvetica,sans-Serif" font-size="10.00">+</text>
<text text-anchor="start" x="349" y="-119" font-family="Helvetica,sans-Serif" font-size="10.00">Query()</text>
<text text-anchor="start" x="309.5" y="-104" font-family="Helvetica,sans-Serif" font-size="10.00">+</text>
<text text-anchor="start" x="349" y="-104" font-family="Helvetica,sans-Serif" font-size="10.00">Query()</text>
<polygon fill="#bfbfbf" stroke="#bfbfbf" points="279,-144 279,-144 443,-144 443,-144 279,-144"/>
<polygon fill="#bfbfbf" stroke="#bfbfbf" points="279,-129 279,-129 443,-129 443,-129 279,-129"/>
<polygon fill="none" stroke="#bfbfbf" points="279,-97 279,-183 443,-183 443,-97 279,-97"/>
</a>
</g>
</g>
<!-- Node2&#45;&gt;Node1 -->
<g id="edge1_Node000001_Node000002" class="edge">
<title>Node2&#45;&gt;Node1</title>
<g id="a_edge1_Node000001_Node000002"><a xlink:title=" ">
<path fill="none" stroke="#63b8ff" d="M361,-86.69C361,-77.54 361,-68.33 361,-60.1"/>
<polygon fill="none" stroke="#63b8ff" points="357.5,-86.94 361,-96.94 364.5,-86.94 357.5,-86.94"/>
</a>
</g>
</g>
<!-- Node3 -->
<g id="Node000003" class="node">
<title>Node3</title>
<g id="a_Node000003"><a xlink:href="group__spatialpartitioning.html#structPonca_1_1QueryInputIsIndex" target="_top" xlink:title="Base class for queries storing points.">
<polygon fill="white" stroke="transparent" points="219.5,-349.5 84.5,-349.5 84.5,-259.5 219.5,-259.5 219.5,-349.5"/>
<text text-anchor="start" x="90" y="-337.5" font-family="Helvetica,sans-Serif" font-size="10.00">Ponca::QueryInputIsIndex</text>
<text text-anchor="start" x="127.5" y="-326.5" font-family="Helvetica,sans-Serif" font-size="10.00">&lt; Index &gt;</text>
<text text-anchor="start" x="150.5" y="-311.5" font-family="Helvetica,sans-Serif" font-size="10.00"> </text>
<text text-anchor="start" x="93" y="-296.5" font-family="Helvetica,sans-Serif" font-size="10.00">+</text>
<text text-anchor="start" x="110" y="-296.5" font-family="Helvetica,sans-Serif" font-size="10.00">QueryInputIsIndex()</text>
<text text-anchor="start" x="93" y="-281.5" font-family="Helvetica,sans-Serif" font-size="10.00">#</text>
<text text-anchor="start" x="110" y="-281.5" font-family="Helvetica,sans-Serif" font-size="10.00">skipIndexFunctor()</text>
<text text-anchor="start" x="93" y="-266.5" font-family="Helvetica,sans-Serif" font-size="10.00">#</text>
<text text-anchor="start" x="110" y="-266.5" font-family="Helvetica,sans-Serif" font-size="10.00">getInputPosition()</text>
<polygon fill="#666666" stroke="#666666" points="85,-321.5 85,-321.5 220,-321.5 220,-321.5 85,-321.5"/>
<polygon fill="#666666" stroke="#666666" points="85,-306.5 85,-306.5 220,-306.5 220,-306.5 85,-306.5"/>
<polygon fill="none" stroke="#666666" points="84.5,-259.5 84.5,-349.5 219.5,-349.5 219.5,-259.5 84.5,-259.5"/>
</a>
</g>
</g>
<!-- Node3&#45;&gt;Node2 -->
<g id="edge2_Node000002_Node000003" class="edge">
<title>Node3&#45;&gt;Node2</title>
<g id="a_edge2_Node000002_Node000003"><a xlink:title=" ">
<path fill="none" stroke="#63b8ff" d="M216.83,-253.09C245.66,-230.68 279.22,-204.59 306.7,-183.22"/>
<polygon fill="none" stroke="#63b8ff" points="214.58,-250.41 208.83,-259.31 218.88,-255.94 214.58,-250.41"/>
</a>
</g>
</g>
<!-- Node4 -->
<g id="Node000004" class="node">
<title>Node4</title>
<g id="a_Node000004"><a xlink:href="group__spatialpartitioning.html" target="_top" xlink:title=" ">
<polygon fill="white" stroke="transparent" points="128,-567 20,-567 20,-477 128,-477 128,-567"/>
<text text-anchor="start" x="25" y="-555" font-family="Helvetica,sans-Serif" font-size="10.00">Ponca::QueryInput&lt;</text>
<text text-anchor="start" x="53" y="-544" font-family="Helvetica,sans-Serif" font-size="10.00"> Index &gt;</text>
<text text-anchor="start" x="72" y="-529" font-family="Helvetica,sans-Serif" font-size="10.00"> </text>
<text text-anchor="start" x="30" y="-514" font-family="Helvetica,sans-Serif" font-size="10.00">+</text>
<text text-anchor="start" x="49" y="-514" font-family="Helvetica,sans-Serif" font-size="10.00">QueryInput()</text>
<text text-anchor="start" x="30" y="-499" font-family="Helvetica,sans-Serif" font-size="10.00">+</text>
<text text-anchor="start" x="49" y="-499" font-family="Helvetica,sans-Serif" font-size="10.00">input()</text>
<text text-anchor="start" x="30" y="-484" font-family="Helvetica,sans-Serif" font-size="10.00">#</text>
<text text-anchor="start" x="49" y="-484" font-family="Helvetica,sans-Serif" font-size="10.00">editInput()</text>
<polygon fill="#666666" stroke="#666666" points="20,-539 20,-539 128,-539 128,-539 20,-539"/>
<polygon fill="#666666" stroke="#666666" points="20,-524 20,-524 128,-524 128,-524 20,-524"/>
<polygon fill="none" stroke="#666666" points="20,-477 20,-567 128,-567 128,-477 20,-477"/>
</a>
</g>
</g>
<!-- Node4&#45;&gt;Node3 -->
<g id="edge3_Node000003_Node000004" class="edge">
<title>Node4&#45;&gt;Node3</title>
<g id="a_edge3_Node000003_Node000004"><a xlink:title=" ">
<path fill="none" stroke="#63b8ff" d="M93.39,-467.42C106.54,-431.1 123.7,-383.69 136.05,-349.57"/>
<polygon fill="none" stroke="#63b8ff" points="90.09,-466.28 89.97,-476.87 96.67,-468.66 90.09,-466.28"/>
</a>
</g>
</g>
<!-- Node5 -->
<g id="Node000005" class="node">
<title>Node5</title>
<g id="a_Node000005"><a xlink:href="group__spatialpartitioning.html#structPonca_1_1QueryInputBase" target="_top" xlink:title="Base class for queries input type.">
<polygon fill="white" stroke="transparent" points="124,-1045 0,-1045 0,-996 124,-996 124,-1045"/>
<text text-anchor="start" x="5" y="-1032.5" font-family="Helvetica,sans-Serif" font-size="10.00">Ponca::QueryInputBase</text>
<text text-anchor="start" x="60" y="-1017.5" font-family="Helvetica,sans-Serif" font-size="10.00"> </text>
<text text-anchor="start" x="60" y="-1002.5" font-family="Helvetica,sans-Serif" font-size="10.00"> </text>
<polygon fill="#666666" stroke="#666666" points="0,-1027.5 0,-1027.5 124,-1027.5 124,-1027.5 0,-1027.5"/>
<polygon fill="#666666" stroke="#666666" points="0,-1012.5 0,-1012.5 124,-1012.5 124,-1012.5 0,-1012.5"/>
<polygon fill="none" stroke="#666666" points="0,-996 0,-1045 124,-1045 124,-996 0,-996"/>
</a>
</g>
</g>
<!-- Node5&#45;&gt;Node4 -->
<g id="edge4_Node000004_Node000005" class="edge">
<title>Node5&#45;&gt;Node4</title>
<g id="a_edge4_Node000004_Node000005"><a xlink:title=" ">
<path fill="none" stroke="#63b8ff" d="M60.99,-985.82C60.59,-971.13 60.19,-953.72 60,-938 58.69,-831.34 55.74,-804.58 60,-698 61.78,-653.38 66.11,-602.52 69.48,-567.17"/>
<polygon fill="none" stroke="#63b8ff" points="57.49,-986.07 61.27,-995.96 64.49,-985.87 57.49,-986.07"/>
</a>
</g>
</g>
<!-- Node6 -->
<g id="Node000006" class="node">
<title>Node6</title>
<g id="a_Node000006"><a xlink:href="group__spatialpartitioning.html#structPonca_1_1QueryInput" target="_top" xlink:title="Base class for typed queries input type.">
<polygon fill="white" stroke="transparent" points="177,-863 69,-863 69,-773 177,-773 177,-863"/>
<text text-anchor="start" x="74" y="-851" font-family="Helvetica,sans-Serif" font-size="10.00">Ponca::QueryInput&lt;</text>
<text text-anchor="start" x="89.5" y="-840" font-family="Helvetica,sans-Serif" font-size="10.00"> InputType_ &gt;</text>
<text text-anchor="start" x="121" y="-825" font-family="Helvetica,sans-Serif" font-size="10.00"> </text>
<text text-anchor="start" x="79" y="-810" font-family="Helvetica,sans-Serif" font-size="10.00">+</text>
<text text-anchor="start" x="98" y="-810" font-family="Helvetica,sans-Serif" font-size="10.00">QueryInput()</text>
<text text-anchor="start" x="79" y="-795" font-family="Helvetica,sans-Serif" font-size="10.00">+</text>
<text text-anchor="start" x="98" y="-795" font-family="Helvetica,sans-Serif" font-size="10.00">input()</text>
<text text-anchor="start" x="79" y="-780" font-family="Helvetica,sans-Serif" font-size="10.00">#</text>
<text text-anchor="start" x="98" y="-780" font-family="Helvetica,sans-Serif" font-size="10.00">editInput()</text>
<polygon fill="#666666" stroke="#666666" points="69,-835 69,-835 177,-835 177,-835 69,-835"/>
<polygon fill="#666666" stroke="#666666" points="69,-820 69,-820 177,-820 177,-820 69,-820"/>
<polygon fill="none" stroke="#666666" points="69,-773 69,-863 177,-863 177,-773 69,-773"/>
</a>
</g>
</g>
<!-- Node5&#45;&gt;Node6 -->
<g id="edge6_Node000006_Node000005" class="edge">
<title>Node5&#45;&gt;Node6</title>
<g id="a_edge6_Node000006_Node000005"><a xlink:title=" ">
<path fill="none" stroke="#63b8ff" d="M72.23,-985.89C82.47,-952.22 98.29,-900.23 109.54,-863.23"/>
<polygon fill="none" stroke="#63b8ff" points="68.8,-985.13 69.24,-995.71 75.5,-987.16 68.8,-985.13"/>
</a>
</g>
</g>
<!-- Node6&#45;&gt;Node4 -->
<g id="edge5_Node000004_Node000006" class="edge">
<title>Node6&#45;&gt;Node4</title>
<g id="a_edge5_Node000004_Node000006"><a xlink:title=" ">
<path fill="none" stroke="orange" d="M113.98,-762.85C104.6,-706.6 90.1,-619.63 81.39,-567.32"/>
<polygon fill="orange" stroke="orange" points="110.57,-763.7 115.66,-772.99 117.47,-762.55 110.57,-763.7"/>
</a>
</g>
<text text-anchor="middle" x="126.5" y="-666.5" font-family="Helvetica,sans-Serif" font-size="10.00" fill="grey"> &lt; Index &gt;</text>
</g>
<!-- Node7 -->
<g id="Node000007" class="node">
<title>Node7</title>
<g id="a_Node000007"><a xlink:href="group__spatialpartitioning.html#structPonca_1_1QueryOutputIsKNearest" target="_top" xlink:title="Base class for knearest queries.">
<polygon fill="white" stroke="transparent" points="441.5,-357 280.5,-357 280.5,-252 441.5,-252 441.5,-357"/>
<text text-anchor="start" x="286" y="-344.5" font-family="Helvetica,sans-Serif" font-size="10.00">Ponca::QueryOutputIsKNearest</text>
<text text-anchor="start" x="318.5" y="-333.5" font-family="Helvetica,sans-Serif" font-size="10.00">&lt; Index, Scalar &gt;</text>
<text text-anchor="start" x="359.5" y="-318.5" font-family="Helvetica,sans-Serif" font-size="10.00"> </text>
<text text-anchor="start" x="285.5" y="-303.5" font-family="Helvetica,sans-Serif" font-size="10.00">+</text>
<text text-anchor="start" x="299" y="-303.5" font-family="Helvetica,sans-Serif" font-size="10.00">QueryOutputIsKNearest()</text>
<text text-anchor="start" x="285.5" y="-288.5" font-family="Helvetica,sans-Serif" font-size="10.00">+</text>
<text text-anchor="start" x="299" y="-288.5" font-family="Helvetica,sans-Serif" font-size="10.00">queue()</text>
<text text-anchor="start" x="285.5" y="-273.5" font-family="Helvetica,sans-Serif" font-size="10.00">#</text>
<text text-anchor="start" x="299" y="-273.5" font-family="Helvetica,sans-Serif" font-size="10.00">reset()</text>
<text text-anchor="start" x="285.5" y="-258.5" font-family="Helvetica,sans-Serif" font-size="10.00">#</text>
<text text-anchor="start" x="299" y="-258.5" font-family="Helvetica,sans-Serif" font-size="10.00">descentDistanceThreshold()</text>
<polygon fill="#666666" stroke="#666666" points="281,-328.5 281,-328.5 442,-328.5 442,-328.5 281,-328.5"/>
<polygon fill="#666666" stroke="#666666" points="281,-313.5 281,-313.5 442,-313.5 442,-313.5 281,-313.5"/>
<polygon fill="none" stroke="#666666" points="280.5,-252 280.5,-357 441.5,-357 441.5,-252 280.5,-252"/>
</a>
</g>
</g>
<!-- Node7&#45;&gt;Node2 -->
<g id="edge7_Node000002_Node000007" class="edge">
<title>Node7&#45;&gt;Node2</title>
<g id="a_edge7_Node000002_Node000007"><a xlink:title=" ">
<path fill="none" stroke="#63b8ff" d="M361,-241.6C361,-222.07 361,-200.96 361,-183.15"/>
<polygon fill="none" stroke="#63b8ff" points="357.5,-241.64 361,-251.64 364.5,-241.64 357.5,-241.64"/>
</a>
</g>
</g>
<!-- Node8 -->
<g id="Node000008" class="node">
<title>Node8</title>
<g id="a_Node000008"><a xlink:href="group__spatialpartitioning.html#structPonca_1_1QueryOutputBase" target="_top" xlink:title="Base class for queries output type.">
<polygon fill="white" stroke="transparent" points="278,-546.5 146,-546.5 146,-497.5 278,-497.5 278,-546.5"/>
<text text-anchor="start" x="151" y="-534" font-family="Helvetica,sans-Serif" font-size="10.00">Ponca::QueryOutputBase</text>
<text text-anchor="start" x="210" y="-519" font-family="Helvetica,sans-Serif" font-size="10.00"> </text>
<text text-anchor="start" x="210" y="-504" font-family="Helvetica,sans-Serif" font-size="10.00"> </text>
<polygon fill="#666666" stroke="#666666" points="146,-529 146,-529 278,-529 278,-529 146,-529"/>
<polygon fill="#666666" stroke="#666666" points="146,-514 146,-514 278,-514 278,-514 146,-514"/>
<polygon fill="none" stroke="#666666" points="146,-497.5 146,-546.5 278,-546.5 278,-497.5 146,-497.5"/>
</a>
</g>
</g>
<!-- Node8&#45;&gt;Node7 -->
<g id="edge8_Node000007_Node000008" class="edge">
<title>Node8&#45;&gt;Node7</title>
<g id="a_edge8_Node000007_Node000008"><a xlink:title=" ">
<path fill="none" stroke="#63b8ff" d="M231.78,-488.74C246.55,-465 267.47,-432.11 287,-404 297.74,-388.54 309.84,-372.07 321.1,-357.11"/>
<polygon fill="none" stroke="#63b8ff" points="228.73,-487.01 226.44,-497.36 234.68,-490.7 228.73,-487.01"/>
</a>
</g>
</g>
<!-- Node9 -->
<g id="Node000009" class="node">
<title>Node9</title>
<g id="a_Node000009"><a xlink:href="classPonca_1_1limited__priority__queue.html" target="_top" xlink:title=" ">
<polygon fill="white" stroke="transparent" points="498,-640 296,-640 296,-404 498,-404 498,-640"/>
<text text-anchor="start" x="301" y="-628" font-family="Helvetica,sans-Serif" font-size="10.00">Ponca::limited_priority</text>
<text text-anchor="start" x="301" y="-617" font-family="Helvetica,sans-Serif" font-size="10.00">_queue&lt; Ponca::IndexSquaredDistance</text>
<text text-anchor="start" x="348.5" y="-606" font-family="Helvetica,sans-Serif" font-size="10.00">&lt; Index, Scalar &gt; &gt;</text>
<text text-anchor="start" x="313.5" y="-591" font-family="Helvetica,sans-Serif" font-size="10.00">#</text>
<text text-anchor="start" x="340" y="-591" font-family="Helvetica,sans-Serif" font-size="10.00">m_comp</text>
<text text-anchor="start" x="313.5" y="-576" font-family="Helvetica,sans-Serif" font-size="10.00">#</text>
<text text-anchor="start" x="340" y="-576" font-family="Helvetica,sans-Serif" font-size="10.00">m_size</text>
<text text-anchor="start" x="313.5" y="-561" font-family="Helvetica,sans-Serif" font-size="10.00">+</text>
<text text-anchor="start" x="340" y="-561" font-family="Helvetica,sans-Serif" font-size="10.00">limited_priority_queue()</text>
<text text-anchor="start" x="313.5" y="-546" font-family="Helvetica,sans-Serif" font-size="10.00">+</text>
<text text-anchor="start" x="340" y="-546" font-family="Helvetica,sans-Serif" font-size="10.00">limited_priority_queue()</text>
<text text-anchor="start" x="313.5" y="-531" font-family="Helvetica,sans-Serif" font-size="10.00">+</text>
<text text-anchor="start" x="340" y="-531" font-family="Helvetica,sans-Serif" font-size="10.00">limited_priority_queue()</text>
<text text-anchor="start" x="313.5" y="-516" font-family="Helvetica,sans-Serif" font-size="10.00">+</text>
<text text-anchor="start" x="340" y="-516" font-family="Helvetica,sans-Serif" font-size="10.00">limited_priority_queue()</text>
<text text-anchor="start" x="313.5" y="-501" font-family="Helvetica,sans-Serif" font-size="10.00">+</text>
<text text-anchor="start" x="340" y="-501" font-family="Helvetica,sans-Serif" font-size="10.00">~limited_priority_queue()</text>
<text text-anchor="start" x="313.5" y="-486" font-family="Helvetica,sans-Serif" font-size="10.00">+</text>
<text text-anchor="start" x="340" y="-486" font-family="Helvetica,sans-Serif" font-size="10.00">operator=()</text>
<text text-anchor="start" x="313.5" y="-471" font-family="Helvetica,sans-Serif" font-size="10.00">+</text>
<text text-anchor="start" x="340" y="-471" font-family="Helvetica,sans-Serif" font-size="10.00">begin()</text>
<text text-anchor="start" x="313.5" y="-456" font-family="Helvetica,sans-Serif" font-size="10.00">+</text>
<text text-anchor="start" x="340" y="-456" font-family="Helvetica,sans-Serif" font-size="10.00">begin()</text>
<text text-anchor="start" x="313.5" y="-441" font-family="Helvetica,sans-Serif" font-size="10.00">+</text>
<text text-anchor="start" x="340" y="-441" font-family="Helvetica,sans-Serif" font-size="10.00">cbegin()</text>
<text text-anchor="start" x="313.5" y="-426" font-family="Helvetica,sans-Serif" font-size="10.00">+</text>
<text text-anchor="start" x="340" y="-426" font-family="Helvetica,sans-Serif" font-size="10.00">end()</text>
<text text-anchor="start" x="340" y="-411" font-family="Helvetica,sans-Serif" font-size="10.00">and 16 more...</text>
<polygon fill="#666666" stroke="#666666" points="296,-601 296,-601 498,-601 498,-601 296,-601"/>
<polygon fill="#666666" stroke="#666666" points="296,-571 296,-571 338,-571 338,-571 296,-571"/>
<polygon fill="#666666" stroke="#666666" points="338,-571 338,-571 498,-571 498,-571 338,-571"/>
<polygon fill="none" stroke="#666666" points="296,-404 296,-640 498,-640 498,-404 296,-404"/>
</a>
</g>
</g>
<!-- Node9&#45;&gt;Node7 -->
<g id="edge9_Node000007_Node000009" class="edge">
<title>Node9&#45;&gt;Node7</title>
<g id="a_edge9_Node000007_Node000009"><a xlink:title=" ">
<path fill="none" stroke="#63b8ff" d="M377.42,-403.79C375.43,-391.88 373.47,-380.13 371.63,-369.12"/>
<polygon fill="none" stroke="#63b8ff" points="371.59,-368.88 366.65,-363.62 369.61,-357.04 374.54,-362.3 371.59,-368.88"/>
</a>
</g>
<text text-anchor="middle" x="402.5" y="-378" font-family="Helvetica,sans-Serif" font-size="10.00" fill="grey"> #m_queue</text>
</g>
<!-- Node10 -->
<g id="Node000010" class="node">
<title>Node10</title>
<g id="a_Node000010"><a xlink:title=" ">
<polygon fill="white" stroke="transparent" points="337,-853.5 211,-853.5 211,-782.5 337,-782.5 337,-853.5"/>
<text text-anchor="start" x="216" y="-841" font-family="Helvetica,sans-Serif" font-size="10.00">std::vector&lt; Ponca</text>
<text text-anchor="start" x="216" y="-830" font-family="Helvetica,sans-Serif" font-size="10.00">::IndexSquaredDistance</text>
<text text-anchor="start" x="225.5" y="-819" font-family="Helvetica,sans-Serif" font-size="10.00">&lt; Index, Scalar &gt; &gt;</text>
<text text-anchor="start" x="229.5" y="-804" font-family="Helvetica,sans-Serif" font-size="10.00">+</text>
<text text-anchor="start" x="257" y="-804" font-family="Helvetica,sans-Serif" font-size="10.00">elements</text>
<text text-anchor="start" x="272" y="-789" font-family="Helvetica,sans-Serif" font-size="10.00"> </text>
<polygon fill="#666666" stroke="#666666" points="211,-814 211,-814 337,-814 337,-814 211,-814"/>
<polygon fill="#666666" stroke="#666666" points="211,-799 211,-799 255,-799 255,-799 211,-799"/>
<polygon fill="#666666" stroke="#666666" points="255,-799 255,-799 337,-799 337,-799 255,-799"/>
<polygon fill="none" stroke="#666666" points="211,-782.5 211,-853.5 337,-853.5 337,-782.5 211,-782.5"/>
</a>
</g>
</g>
<!-- Node10&#45;&gt;Node9 -->
<g id="edge10_Node000009_Node000010" class="edge">
<title>Node10&#45;&gt;Node9</title>
<g id="a_edge10_Node000009_Node000010"><a xlink:title=" ">
<path fill="none" stroke="#63b8ff" d="M288.47,-782.41C302.05,-749.95 323.22,-699.35 343.27,-651.43"/>
<polygon fill="none" stroke="#63b8ff" points="343.3,-651.36 341.92,-644.28 347.93,-640.29 349.3,-647.37 343.3,-651.36"/>
</a>
</g>
<text text-anchor="middle" x="356" y="-666.5" font-family="Helvetica,sans-Serif" font-size="10.00" fill="grey"> #m_c</text>
</g>
<!-- Node11 -->
<g id="Node000011" class="node">
<title>Node11</title>
<g id="a_Node000011"><a xlink:title=" ">
<polygon fill="white" stroke="transparent" points="319.5,-1045 228.5,-1045 228.5,-996 319.5,-996 319.5,-1045"/>
<text text-anchor="start" x="234" y="-1032.5" font-family="Helvetica,sans-Serif" font-size="10.00">std::vector&lt; T &gt;</text>
<text text-anchor="start" x="272.5" y="-1017.5" font-family="Helvetica,sans-Serif" font-size="10.00"> </text>
<text text-anchor="start" x="272.5" y="-1002.5" font-family="Helvetica,sans-Serif" font-size="10.00"> </text>
<polygon fill="#666666" stroke="#666666" points="229,-1027.5 229,-1027.5 320,-1027.5 320,-1027.5 229,-1027.5"/>
<polygon fill="#666666" stroke="#666666" points="229,-1012.5 229,-1012.5 320,-1012.5 320,-1012.5 229,-1012.5"/>
<polygon fill="none" stroke="#666666" points="228.5,-996 228.5,-1045 319.5,-1045 319.5,-996 228.5,-996"/>
</a>
</g>
</g>
<!-- Node11&#45;&gt;Node10 -->
<g id="edge11_Node000010_Node000011" class="edge">
<title>Node11&#45;&gt;Node10</title>
<g id="a_edge11_Node000010_Node000011"><a xlink:title=" ">
<path fill="none" stroke="orange" d="M274,-985.53C274,-948.88 274,-890.83 274,-853.85"/>
<polygon fill="orange" stroke="orange" points="270.5,-985.71 274,-995.71 277.5,-985.71 270.5,-985.71"/>
</a>
</g>
<text text-anchor="start" x="274" y="-970" font-family="Helvetica,sans-Serif" font-size="10.00" fill="grey"> &lt; Ponca::IndexSquaredDistance</text>
<text text-anchor="middle" x="354" y="-959" font-family="Helvetica,sans-Serif" font-size="10.00" fill="grey">&lt; Index, Scalar &gt; &gt;</text>
</g>
<!-- Node12 -->
<g id="Node000012" class="node">
<title>Node12</title>
<g id="a_Node000012"><a xlink:title=" ">
<polygon fill="white" stroke="transparent" points="282.5,-1141 265.5,-1141 265.5,-1092 282.5,-1092 282.5,-1141"/>
<text text-anchor="start" x="271" y="-1128.5" font-family="Helvetica,sans-Serif" font-size="10.00">T</text>
<text text-anchor="start" x="272.5" y="-1113.5" font-family="Helvetica,sans-Serif" font-size="10.00"> </text>
<text text-anchor="start" x="272.5" y="-1098.5" font-family="Helvetica,sans-Serif" font-size="10.00"> </text>
<polygon fill="#bfbfbf" stroke="#bfbfbf" points="266,-1123.5 266,-1123.5 283,-1123.5 283,-1123.5 266,-1123.5"/>
<polygon fill="#bfbfbf" stroke="#bfbfbf" points="266,-1108.5 266,-1108.5 283,-1108.5 283,-1108.5 266,-1108.5"/>
<polygon fill="none" stroke="#bfbfbf" points="265.5,-1092 265.5,-1141 282.5,-1141 282.5,-1092 265.5,-1092"/>
</a>
</g>
</g>
<!-- Node12&#45;&gt;Node11 -->
<g id="edge12_Node000011_Node000012" class="edge">
<title>Node12&#45;&gt;Node11</title>
<g id="a_edge12_Node000011_Node000012"><a xlink:title=" ">
<path fill="none" stroke="#63b8ff" d="M274,-1091.78C274,-1081.32 274,-1068.79 274,-1057.23"/>
<polygon fill="none" stroke="#63b8ff" points="274,-1057.21 270,-1051.21 274,-1045.21 278,-1051.21 274,-1057.21"/>
</a>
</g>
<text text-anchor="middle" x="303" y="-1066" font-family="Helvetica,sans-Serif" font-size="10.00" fill="grey"> +elements</text>
</g>
<!-- Node13 -->
<g id="Node000013" class="node">
<title>Node13</title>
<g id="a_Node000013"><a xlink:href="classPonca_1_1limited__priority__queue.html" target="_top" xlink:title="The limited_priority_queue class is similar to std::priority_queue but has a limited capacity and han...">
<polygon fill="white" stroke="transparent" points="503,-938 355,-938 355,-698 503,-698 503,-938"/>
<text text-anchor="start" x="368.5" y="-926" font-family="Helvetica,sans-Serif" font-size="10.00">Ponca::limited_priority</text>
<text text-anchor="start" x="368.5" y="-915" font-family="Helvetica,sans-Serif" font-size="10.00">_queue&lt; T, CompareT &gt;</text>
<text text-anchor="start" x="359" y="-900" font-family="Helvetica,sans-Serif" font-size="10.00">#</text>
<text text-anchor="start" x="372" y="-900" font-family="Helvetica,sans-Serif" font-size="10.00">m_c</text>
<text text-anchor="start" x="359" y="-885" font-family="Helvetica,sans-Serif" font-size="10.00">#</text>
<text text-anchor="start" x="372" y="-885" font-family="Helvetica,sans-Serif" font-size="10.00">m_comp</text>
<text text-anchor="start" x="359" y="-870" font-family="Helvetica,sans-Serif" font-size="10.00">#</text>
<text text-anchor="start" x="372" y="-870" font-family="Helvetica,sans-Serif" font-size="10.00">m_size</text>
<text text-anchor="start" x="359" y="-855" font-family="Helvetica,sans-Serif" font-size="10.00">+</text>
<text text-anchor="start" x="372" y="-855" font-family="Helvetica,sans-Serif" font-size="10.00">limited_priority_queue()</text>
<text text-anchor="start" x="359" y="-840" font-family="Helvetica,sans-Serif" font-size="10.00">+</text>
<text text-anchor="start" x="372" y="-840" font-family="Helvetica,sans-Serif" font-size="10.00">limited_priority_queue()</text>
<text text-anchor="start" x="359" y="-825" font-family="Helvetica,sans-Serif" font-size="10.00">+</text>
<text text-anchor="start" x="372" y="-825" font-family="Helvetica,sans-Serif" font-size="10.00">limited_priority_queue()</text>
<text text-anchor="start" x="359" y="-810" font-family="Helvetica,sans-Serif" font-size="10.00">+</text>
<text text-anchor="start" x="372" y="-810" font-family="Helvetica,sans-Serif" font-size="10.00">limited_priority_queue()</text>
<text text-anchor="start" x="359" y="-795" font-family="Helvetica,sans-Serif" font-size="10.00">+</text>
<text text-anchor="start" x="372" y="-795" font-family="Helvetica,sans-Serif" font-size="10.00">~limited_priority_queue()</text>
<text text-anchor="start" x="359" y="-780" font-family="Helvetica,sans-Serif" font-size="10.00">+</text>
<text text-anchor="start" x="372" y="-780" font-family="Helvetica,sans-Serif" font-size="10.00">operator=()</text>
<text text-anchor="start" x="359" y="-765" font-family="Helvetica,sans-Serif" font-size="10.00">+</text>
<text text-anchor="start" x="372" y="-765" font-family="Helvetica,sans-Serif" font-size="10.00">begin()</text>
<text text-anchor="start" x="359" y="-750" font-family="Helvetica,sans-Serif" font-size="10.00">+</text>
<text text-anchor="start" x="372" y="-750" font-family="Helvetica,sans-Serif" font-size="10.00">begin()</text>
<text text-anchor="start" x="359" y="-735" font-family="Helvetica,sans-Serif" font-size="10.00">+</text>
<text text-anchor="start" x="372" y="-735" font-family="Helvetica,sans-Serif" font-size="10.00">cbegin()</text>
<text text-anchor="start" x="359" y="-720" font-family="Helvetica,sans-Serif" font-size="10.00">+</text>
<text text-anchor="start" x="372" y="-720" font-family="Helvetica,sans-Serif" font-size="10.00">end()</text>
<text text-anchor="start" x="372" y="-705" font-family="Helvetica,sans-Serif" font-size="10.00">and 16 more...</text>
<polygon fill="#666666" stroke="#666666" points="355,-910 355,-910 503,-910 503,-910 355,-910"/>
<polygon fill="#666666" stroke="#666666" points="355,-865 355,-865 370,-865 370,-865 355,-865"/>
<polygon fill="#666666" stroke="#666666" points="370,-865 370,-865 503,-865 503,-865 370,-865"/>
<polygon fill="none" stroke="#666666" points="355,-698 355,-938 503,-938 503,-698 355,-698"/>
</a>
</g>
</g>
<!-- Node13&#45;&gt;Node9 -->
<g id="edge13_Node000009_Node000013" class="edge">
<title>Node13&#45;&gt;Node9</title>
<g id="a_edge13_Node000009_Node000013"><a xlink:title=" ">
<path fill="none" stroke="orange" d="M414.91,-687.58C413.21,-671.89 411.47,-655.92 409.78,-640.42"/>
<polygon fill="orange" stroke="orange" points="411.47,-688.28 416.03,-697.84 418.43,-687.52 411.47,-688.28"/>
</a>
</g>
<text text-anchor="start" x="414" y="-672" font-family="Helvetica,sans-Serif" font-size="10.00" fill="grey"> &lt; Ponca::IndexSquaredDistance</text>
<text text-anchor="middle" x="494" y="-661" font-family="Helvetica,sans-Serif" font-size="10.00" fill="grey">&lt; Index, Scalar &gt; &gt;</text>
</g>
<!-- Node14 -->
<g id="Node000014" class="node">
<title>Node14</title>
<g id="a_Node000014"><a xlink:href="group__spatialpartitioning.html#structPonca_1_1Query" target="_top" xlink:title=" ">
<polygon fill="white" stroke="transparent" points="592.5,-342 481.5,-342 481.5,-267 592.5,-267 592.5,-342"/>
<text text-anchor="start" x="487" y="-329.5" font-family="Helvetica,sans-Serif" font-size="10.00">Ponca::Query&lt; Input</text>
<text text-anchor="start" x="507" y="-318.5" font-family="Helvetica,sans-Serif" font-size="10.00">_, Output_ &gt;</text>
<text text-anchor="start" x="535.5" y="-303.5" font-family="Helvetica,sans-Serif" font-size="10.00"> </text>
<text text-anchor="start" x="499" y="-288.5" font-family="Helvetica,sans-Serif" font-size="10.00">+</text>
<text text-anchor="start" x="525" y="-288.5" font-family="Helvetica,sans-Serif" font-size="10.00">Query()</text>
<text text-anchor="start" x="499" y="-273.5" font-family="Helvetica,sans-Serif" font-size="10.00">+</text>
<text text-anchor="start" x="525" y="-273.5" font-family="Helvetica,sans-Serif" font-size="10.00">Query()</text>
<polygon fill="#bfbfbf" stroke="#bfbfbf" points="482,-313.5 482,-313.5 593,-313.5 593,-313.5 482,-313.5"/>
<polygon fill="#bfbfbf" stroke="#bfbfbf" points="482,-298.5 482,-298.5 593,-298.5 593,-298.5 482,-298.5"/>
<polygon fill="none" stroke="#bfbfbf" points="481.5,-267 481.5,-342 592.5,-342 592.5,-267 481.5,-267"/>
</a>
</g>
</g>
<!-- Node14&#45;&gt;Node2 -->
<g id="edge14_Node000002_Node000014" class="edge">
<title>Node14&#45;&gt;Node2</title>
<g id="a_edge14_Node000002_Node000014"><a xlink:title=" ">
<path fill="none" stroke="orange" d="M489.62,-259.76C463.87,-235.98 432.17,-206.71 406.68,-183.18"/>
<polygon fill="orange" stroke="orange" points="487.34,-262.41 497.06,-266.63 492.09,-257.27 487.34,-262.41"/>
</a>
</g>
<text text-anchor="start" x="460" y="-226" font-family="Helvetica,sans-Serif" font-size="10.00" fill="grey"> &lt; QueryInputIsIndex</text>
<text text-anchor="start" x="460" y="-215" font-family="Helvetica,sans-Serif" font-size="10.00" fill="grey">&lt; Index &gt;, QueryOutputIsKNearest</text>
<text text-anchor="middle" x="546" y="-204" font-family="Helvetica,sans-Serif" font-size="10.00" fill="grey">&lt; Index, Scalar &gt; &gt;</text>
</g>
<!-- Node15 -->
<g id="Node000015" class="node">
<title>Node15</title>
<g id="a_Node000015"><a xlink:title=" ">
<polygon fill="white" stroke="transparent" points="557.5,-546.5 516.5,-546.5 516.5,-497.5 557.5,-497.5 557.5,-546.5"/>
<text text-anchor="start" x="522" y="-534" font-family="Helvetica,sans-Serif" font-size="10.00">Input_</text>
<text text-anchor="start" x="535.5" y="-519" font-family="Helvetica,sans-Serif" font-size="10.00"> </text>
<text text-anchor="start" x="535.5" y="-504" font-family="Helvetica,sans-Serif" font-size="10.00"> </text>
<polygon fill="#bfbfbf" stroke="#bfbfbf" points="517,-529 517,-529 558,-529 558,-529 517,-529"/>
<polygon fill="#bfbfbf" stroke="#bfbfbf" points="517,-514 517,-514 558,-514 558,-514 517,-514"/>
<polygon fill="none" stroke="#bfbfbf" points="516.5,-497.5 516.5,-546.5 557.5,-546.5 557.5,-497.5 516.5,-497.5"/>
</a>
</g>
</g>
<!-- Node15&#45;&gt;Node14 -->
<g id="edge15_Node000014_Node000015" class="edge">
<title>Node15&#45;&gt;Node14</title>
<g id="a_edge15_Node000014_Node000015"><a xlink:title=" ">
<path fill="none" stroke="#63b8ff" d="M537,-486.93C537,-447.43 537,-382.59 537,-342.06"/>
<polygon fill="none" stroke="#63b8ff" points="533.5,-487.11 537,-497.11 540.5,-487.11 533.5,-487.11"/>
</a>
</g>
</g>
<!-- Node16 -->
<g id="Node000016" class="node">
<title>Node16</title>
<g id="a_Node000016"><a xlink:title=" ">
<polygon fill="white" stroke="transparent" points="624.5,-546.5 575.5,-546.5 575.5,-497.5 624.5,-497.5 624.5,-546.5"/>
<text text-anchor="start" x="581" y="-534" font-family="Helvetica,sans-Serif" font-size="10.00">Output_</text>
<text text-anchor="start" x="598.5" y="-519" font-family="Helvetica,sans-Serif" font-size="10.00"> </text>
<text text-anchor="start" x="598.5" y="-504" font-family="Helvetica,sans-Serif" font-size="10.00"> </text>
<polygon fill="#bfbfbf" stroke="#bfbfbf" points="576,-529 576,-529 625,-529 625,-529 576,-529"/>
<polygon fill="#bfbfbf" stroke="#bfbfbf" points="576,-514 576,-514 625,-514 625,-514 576,-514"/>
<polygon fill="none" stroke="#bfbfbf" points="575.5,-497.5 575.5,-546.5 624.5,-546.5 624.5,-497.5 575.5,-497.5"/>
</a>
</g>
</g>
<!-- Node16&#45;&gt;Node14 -->
<g id="edge16_Node000014_Node000016" class="edge">
<title>Node16&#45;&gt;Node14</title>
<g id="a_edge16_Node000014_Node000016"><a xlink:title=" ">
<path fill="none" stroke="#63b8ff" d="M590.29,-487.45C583.5,-464.06 574.23,-432.12 566,-404 560.04,-383.64 553.36,-360.92 547.91,-342.44"/>
<polygon fill="none" stroke="#63b8ff" points="586.98,-488.61 593.12,-497.24 593.7,-486.66 586.98,-488.61"/>
</a>
</g>
</g>
</g>
</svg>
