<?xml version="1.0" encoding="UTF-8" standalone="no"?>
<!DOCTYPE svg PUBLIC "-//W3C//DTD SVG 1.1//EN"
 "http://www.w3.org/Graphics/SVG/1.1/DTD/svg11.dtd">
<!-- Generated by graphviz version 2.43.0 (0)
 -->
<!-- Title: Ponca::NoWeightFuncGlobal&lt; DataPoint &gt; Pages: 1 -->
<!--zoomable 612 -->

<svg id="main" version="1.1" xmlns="http://www.w3.org/2000/svg" xmlns:xlink="http://www.w3.org/1999/xlink" xml:space="preserve" onload="init(evt)">
<style type="text/css"><![CDATA[
.node, .edge {opacity: 0.7;}
.node.selected, .edge.selected {opacity: 1;}
.edge:hover path { stroke: red; }
.edge:hover polygon { stroke: red; fill: red; }
]]></style>

<defs>
  <circle id="rim" cx="0" cy="0" r="7"/>
  <circle id="rim2" cx="0" cy="0" r="3.5"/>
  <g id="zoomPlus">
    <use xlink:href="#rim" fill="#404040"><set attributeName="fill" to="#808080" begin="zoomplus.mouseover" end="zoomplus.mouseout"/></use>
    <path d="M-4,0h8M0,-4v8" fill="none" stroke="white" stroke-width="1.5" pointer-events="none"/>
  </g>
  <g id="zoomMin">
    <use xlink:href="#rim" fill="#404040"><set attributeName="fill" to="#808080" begin="zoomminus.mouseover" end="zoomminus.mouseout"/></use>
    <path d="M-4,0h8" fill="none" stroke="white" stroke-width="1.5" pointer-events="none"/>
  </g>
  <g id="arrowUp" transform="translate(30 24)">
    <use xlink:href="#rim"/>
    <path pointer-events="none" fill="none" stroke="white" stroke-width="1.5" d="M0,-3.0v7 M-2.5,-0.5L0,-3.0L2.5,-0.5"/>
  </g>
  <g id="arrowRight" transform="rotate(90) translate(36 -43)">
    <use xlink:href="#rim"/>
    <path pointer-events="none" fill="none" stroke="white" stroke-width="1.5" d="M0,-3.0v7 M-2.5,-0.5L0,-3.0L2.5,-0.5"/>
  </g>
  <g id="arrowDown" transform="rotate(180) translate(-30 -48)">
    <use xlink:href="#rim"/>
    <path pointer-events="none" fill="none" stroke="white" stroke-width="1.5" d="M0,-3.0v7 M-2.5,-0.5L0,-3.0L2.5,-0.5"/>
  </g>
  <g id="arrowLeft" transform="rotate(270) translate(-36 17)">
    <use xlink:href="#rim"/>
    <path pointer-events="none" fill="none" stroke="white" stroke-width="1.5" d="M0,-3.0v7 M-2.5,-0.5L0,-3.0L2.5,-0.5"/>
  </g>
  <g id="resetDef">
    <use xlink:href="#rim2" fill="#404040"><set attributeName="fill" to="#808080" begin="reset.mouseover" end="reset.mouseout"/></use>
  </g>
</defs>
<script type="application/ecmascript">
var viewWidth = 376;
var viewHeight = 612;
var sectionId = 'dynsection-0';
</script>
<script type="application/ecmascript" xlink:href="svg.min.js"/>
<svg id="graph" class="graph">
<g id="viewport">
<title>Ponca::NoWeightFuncGlobal&lt; DataPoint &gt;</title>
<!-- Node1 -->
<g id="Node000001" class="node">
<title>Node1</title>
<g id="a_Node000001"><a xlink:title="Weighting function that set uniform weight to all samples and keep neighbors coordinates in global fr...">
<polygon fill="#999999" stroke="transparent" points="206.5,-60 59.5,-60 59.5,0 206.5,0 206.5,-60"/>
<text text-anchor="start" x="65" y="-48" font-family="Helvetica,sans-Serif" font-size="10.00">Ponca::NoWeightFuncGlobal</text>
<text text-anchor="start" x="98" y="-37" font-family="Helvetica,sans-Serif" font-size="10.00">&lt; DataPoint &gt;</text>
<text text-anchor="start" x="131.5" y="-22" font-family="Helvetica,sans-Serif" font-size="10.00"> </text>
<text text-anchor="start" x="131.5" y="-7" font-family="Helvetica,sans-Serif" font-size="10.00"> </text>
<polygon fill="#666666" stroke="#666666" points="60,-32 60,-32 207,-32 207,-32 60,-32"/>
<polygon fill="#666666" stroke="#666666" points="60,-17 60,-17 207,-17 207,-17 60,-17"/>
<polygon fill="none" stroke="#666666" points="59.5,0 59.5,-60 206.5,-60 206.5,0 59.5,0"/>
</a>
</g>
</g>
<!-- Node2 -->
<g id="Node000002" class="node">
<title>Node2</title>
<g id="a_Node000002"><a xlink:href="classPonca_1_1internal_1_1NoWeightFuncBase.html" target="_top" xlink:title=" ">
<polygon fill="white" stroke="transparent" points="213,-273 53,-273 53,-97 213,-97 213,-273"/>
<text text-anchor="start" x="58" y="-261" font-family="Helvetica,sans-Serif" font-size="10.00">Ponca::internal::NoWeight</text>
<text text-anchor="start" x="58" y="-250" font-family="Helvetica,sans-Serif" font-size="10.00">FuncBase&lt; DataPoint, internal</text>
<text text-anchor="start" x="59" y="-239" font-family="Helvetica,sans-Serif" font-size="10.00">::GlobalNeighborhoodFrame &gt;</text>
<text text-anchor="start" x="131" y="-224" font-family="Helvetica,sans-Serif" font-size="10.00"> </text>
<text text-anchor="start" x="66" y="-209" font-family="Helvetica,sans-Serif" font-size="10.00">+</text>
<text text-anchor="start" x="88" y="-209" font-family="Helvetica,sans-Serif" font-size="10.00">NoWeightFuncBase()</text>
<text text-anchor="start" x="66" y="-194" font-family="Helvetica,sans-Serif" font-size="10.00">+</text>
<text text-anchor="start" x="88" y="-194" font-family="Helvetica,sans-Serif" font-size="10.00">NoWeightFuncBase()</text>
<text text-anchor="start" x="66" y="-179" font-family="Helvetica,sans-Serif" font-size="10.00">+</text>
<text text-anchor="start" x="88" y="-179" font-family="Helvetica,sans-Serif" font-size="10.00">operator()()</text>
<text text-anchor="start" x="66" y="-164" font-family="Helvetica,sans-Serif" font-size="10.00">+</text>
<text text-anchor="start" x="88" y="-164" font-family="Helvetica,sans-Serif" font-size="10.00">spacedw()</text>
<text text-anchor="start" x="66" y="-149" font-family="Helvetica,sans-Serif" font-size="10.00">+</text>
<text text-anchor="start" x="88" y="-149" font-family="Helvetica,sans-Serif" font-size="10.00">spaced2w()</text>
<text text-anchor="start" x="66" y="-134" font-family="Helvetica,sans-Serif" font-size="10.00">+</text>
<text text-anchor="start" x="88" y="-134" font-family="Helvetica,sans-Serif" font-size="10.00">scaledw()</text>
<text text-anchor="start" x="66" y="-119" font-family="Helvetica,sans-Serif" font-size="10.00">+</text>
<text text-anchor="start" x="88" y="-119" font-family="Helvetica,sans-Serif" font-size="10.00">scaled2w()</text>
<text text-anchor="start" x="66" y="-104" font-family="Helvetica,sans-Serif" font-size="10.00">+</text>
<text text-anchor="start" x="88" y="-104" font-family="Helvetica,sans-Serif" font-size="10.00">scaleSpaced2w()</text>
<polygon fill="#666666" stroke="#666666" points="53,-234 53,-234 213,-234 213,-234 53,-234"/>
<polygon fill="#666666" stroke="#666666" points="53,-219 53,-219 213,-219 213,-219 53,-219"/>
<polygon fill="none" stroke="#666666" points="53,-97 53,-273 213,-273 213,-97 53,-97"/>
</a>
</g>
</g>
<!-- Node2&#45;&gt;Node1 -->
<g id="edge1_Node000001_Node000002" class="edge">
<title>Node2&#45;&gt;Node1</title>
<g id="a_edge1_Node000001_Node000002"><a xlink:title=" ">
<path fill="none" stroke="#63b8ff" d="M133,-86.71C133,-77.2 133,-68.14 133,-60.21"/>
<polygon fill="none" stroke="#63b8ff" points="129.5,-86.77 133,-96.77 136.5,-86.77 129.5,-86.77"/>
</a>
</g>
</g>
<!-- Node3 -->
<g id="Node000003" class="node">
<title>Node3</title>
<g id="a_Node000003"><a xlink:title=" ">
<polygon fill="white" stroke="transparent" points="154,-449 0,-449 0,-389 154,-389 154,-449"/>
<text text-anchor="start" x="5" y="-437" font-family="Helvetica,sans-Serif" font-size="10.00">internal::GlobalNeighborhood</text>
<text text-anchor="start" x="24.5" y="-426" font-family="Helvetica,sans-Serif" font-size="10.00">Frame &lt; DataPoint &gt;</text>
<text text-anchor="start" x="75" y="-411" font-family="Helvetica,sans-Serif" font-size="10.00"> </text>
<text text-anchor="start" x="75" y="-396" font-family="Helvetica,sans-Serif" font-size="10.00"> </text>
<polygon fill="#bfbfbf" stroke="#bfbfbf" points="0,-421 0,-421 154,-421 154,-421 0,-421"/>
<polygon fill="#bfbfbf" stroke="#bfbfbf" points="0,-406 0,-406 154,-406 154,-406 0,-406"/>
<polygon fill="none" stroke="#bfbfbf" points="0,-389 0,-449 154,-449 154,-389 0,-389"/>
</a>
</g>
</g>
<!-- Node3&#45;&gt;Node2 -->
<g id="edge2_Node000002_Node000003" class="edge">
<title>Node3&#45;&gt;Node2</title>
<g id="a_edge2_Node000002_Node000003"><a xlink:title=" ">
<path fill="none" stroke="#63b8ff" d="M86.53,-378.52C93.5,-349.64 103.23,-309.32 111.99,-273.04"/>
<polygon fill="none" stroke="#63b8ff" points="83.04,-378.07 84.09,-388.62 89.84,-379.72 83.04,-378.07"/>
</a>
</g>
</g>
<!-- Node4 -->
<g id="Node000004" class="node">
<title>Node4</title>
<g id="a_Node000004"><a xlink:href="classPonca_1_1internal_1_1NoWeightFuncBase.html" target="_top" xlink:title="Weighting function that set uniform weight to all samples.">
<polygon fill="white" stroke="transparent" points="368,-507 172,-507 172,-331 368,-331 368,-507"/>
<text text-anchor="start" x="177" y="-495" font-family="Helvetica,sans-Serif" font-size="10.00">Ponca::internal::NoWeight</text>
<text text-anchor="start" x="177" y="-484" font-family="Helvetica,sans-Serif" font-size="10.00">FuncBase&lt; DataPoint, _Neighborhood</text>
<text text-anchor="start" x="248.5" y="-473" font-family="Helvetica,sans-Serif" font-size="10.00">Frame &gt;</text>
<text text-anchor="start" x="268" y="-458" font-family="Helvetica,sans-Serif" font-size="10.00"> </text>
<text text-anchor="start" x="194" y="-443" font-family="Helvetica,sans-Serif" font-size="10.00">+</text>
<text text-anchor="start" x="225" y="-443" font-family="Helvetica,sans-Serif" font-size="10.00">NoWeightFuncBase()</text>
<text text-anchor="start" x="194" y="-428" font-family="Helvetica,sans-Serif" font-size="10.00">+</text>
<text text-anchor="start" x="225" y="-428" font-family="Helvetica,sans-Serif" font-size="10.00">NoWeightFuncBase()</text>
<text text-anchor="start" x="194" y="-413" font-family="Helvetica,sans-Serif" font-size="10.00">+</text>
<text text-anchor="start" x="225" y="-413" font-family="Helvetica,sans-Serif" font-size="10.00">operator()()</text>
<text text-anchor="start" x="194" y="-398" font-family="Helvetica,sans-Serif" font-size="10.00">+</text>
<text text-anchor="start" x="225" y="-398" font-family="Helvetica,sans-Serif" font-size="10.00">spacedw()</text>
<text text-anchor="start" x="194" y="-383" font-family="Helvetica,sans-Serif" font-size="10.00">+</text>
<text text-anchor="start" x="225" y="-383" font-family="Helvetica,sans-Serif" font-size="10.00">spaced2w()</text>
<text text-anchor="start" x="194" y="-368" font-family="Helvetica,sans-Serif" font-size="10.00">+</text>
<text text-anchor="start" x="225" y="-368" font-family="Helvetica,sans-Serif" font-size="10.00">scaledw()</text>
<text text-anchor="start" x="194" y="-353" font-family="Helvetica,sans-Serif" font-size="10.00">+</text>
<text text-anchor="start" x="225" y="-353" font-family="Helvetica,sans-Serif" font-size="10.00">scaled2w()</text>
<text text-anchor="start" x="194" y="-338" font-family="Helvetica,sans-Serif" font-size="10.00">+</text>
<text text-anchor="start" x="225" y="-338" font-family="Helvetica,sans-Serif" font-size="10.00">scaleSpaced2w()</text>
<polygon fill="#666666" stroke="#666666" points="172,-468 172,-468 368,-468 368,-468 172,-468"/>
<polygon fill="#666666" stroke="#666666" points="172,-453 172,-453 368,-453 368,-453 172,-453"/>
<polygon fill="none" stroke="#666666" points="172,-331 172,-507 368,-507 368,-331 172,-331"/>
</a>
</g>
</g>
<!-- Node4&#45;&gt;Node2 -->
<g id="edge3_Node000002_Node000004" class="edge">
<title>Node4&#45;&gt;Node2</title>
<g id="a_edge3_Node000002_Node000004"><a xlink:title=" ">
<path fill="none" stroke="orange" d="M213.32,-322.02C203.76,-305.83 193.88,-289.1 184.46,-273.15"/>
<polygon fill="orange" stroke="orange" points="210.5,-324.12 218.6,-330.95 216.53,-320.56 210.5,-324.12"/>
</a>
</g>
<text text-anchor="start" x="205" y="-305" font-family="Helvetica,sans-Serif" font-size="10.00" fill="grey"> &lt; DataPoint, internal</text>
<text text-anchor="middle" x="279" y="-294" font-family="Helvetica,sans-Serif" font-size="10.00" fill="grey">::GlobalNeighborhoodFrame &gt;</text>
</g>
<!-- Node5 -->
<g id="Node000005" class="node">
<title>Node5</title>
<g id="a_Node000005"><a xlink:title=" ">
<polygon fill="white" stroke="transparent" points="327.5,-604 212.5,-604 212.5,-544 327.5,-544 327.5,-604"/>
<text text-anchor="start" x="218" y="-592" font-family="Helvetica,sans-Serif" font-size="10.00">_NeighborhoodFrame</text>
<text text-anchor="start" x="235" y="-581" font-family="Helvetica,sans-Serif" font-size="10.00">&lt; DataPoint &gt;</text>
<text text-anchor="start" x="268.5" y="-566" font-family="Helvetica,sans-Serif" font-size="10.00"> </text>
<text text-anchor="start" x="268.5" y="-551" font-family="Helvetica,sans-Serif" font-size="10.00"> </text>
<polygon fill="#bfbfbf" stroke="#bfbfbf" points="213,-576 213,-576 328,-576 328,-576 213,-576"/>
<polygon fill="#bfbfbf" stroke="#bfbfbf" points="213,-561 213,-561 328,-561 328,-561 213,-561"/>
<polygon fill="none" stroke="#bfbfbf" points="212.5,-544 212.5,-604 327.5,-604 327.5,-544 212.5,-544"/>
</a>
</g>
</g>
<!-- Node5&#45;&gt;Node4 -->
<g id="edge4_Node000004_Node000005" class="edge">
<title>Node5&#45;&gt;Node4</title>
<g id="a_edge4_Node000004_Node000005"><a xlink:title=" ">
<path fill="none" stroke="#63b8ff" d="M270,-533.79C270,-525.47 270,-516.37 270,-507.06"/>
<polygon fill="none" stroke="#63b8ff" points="266.5,-533.86 270,-543.86 273.5,-533.86 266.5,-533.86"/>
</a>
</g>
</g>
</g>
</svg>

<g id="navigator" transform="translate(0 0)" fill="#404254">
  <rect fill="#f2f5e9" fill-opacity="0.5" stroke="#606060" stroke-width=".5" x="0" y="0" width="60" height="60"/>
  <use id="zoomplus" xlink:href="#zoomPlus" x="17" y="9" onmousedown="handleZoom(evt,'in')"/>
  <use id="zoomminus" xlink:href="#zoomMin" x="42" y="9" onmousedown="handleZoom(evt,'out')"/>
  <use id="reset" xlink:href="#resetDef" x="30" y="36" onmousedown="handleReset()"/>
   <use id="arrowup" xlink:href="#arrowUp" x="0" y="0" onmousedown="handlePan(0,-1)"/>
  <use id="arrowright" xlink:href="#arrowRight" x="0" y="0" onmousedown="handlePan(1,0)"/>
  <use id="arrowdown" xlink:href="#arrowDown" x="0" y="0" onmousedown="handlePan(0,1)"/>
  <use id="arrowleft" xlink:href="#arrowLeft" x="0" y="0" onmousedown="handlePan(-1,0)"/>
</g>
<svg viewBox="0 0 15 15" width="100%" height="30px" preserveAspectRatio="xMaxYMin meet">
 <g id="arrow_out" transform="scale(0.3 0.3)">
  <a xlink:href="structPonca_1_1NoWeightFuncGlobal__inherit__graph_org.svg" target="_base">
   <rect id="button" ry="5" rx="5" y="6" x="6" height="38" width="38"
        fill="#f2f5e9" fill-opacity="0.5" stroke="#606060" stroke-width="1.0"/>
   <path id="arrow"
     d="M 11.500037,31.436501 C 11.940474,20.09759 22.043105,11.32322 32.158766,21.979434 L 37.068811,17.246167 C 37.068811,17.246167 37.088388,32 37.088388,32 L 22.160133,31.978069 C 22.160133,31.978069 26.997745,27.140456 26.997745,27.140456 C 18.528582,18.264221 13.291696,25.230495 11.500037,31.436501 z"
     style="fill:#404040;"/>
  </a>
 </g>
</svg>

<style type='text/css'>
<![CDATA[
[data-mouse-over-selected='false'] { opacity: 0.7; }
[data-mouse-over-selected='true']  { opacity: 1.0; }
]]>
</style>
<script type="application/ecmascript"><![CDATA[
document.addEventListener('DOMContentLoaded', (event) => {
  highlightEdges();
  highlightAdjacentNodes();
});
]]></script>
</svg>
