<?xml version="1.0" encoding="UTF-8" standalone="no"?>
<!DOCTYPE svg PUBLIC "-//W3C//DTD SVG 1.1//EN"
 "http://www.w3.org/Graphics/SVG/1.1/DTD/svg11.dtd">
<!-- Generated by graphviz version 2.43.0 (0)
 -->
<!-- Title: Ponca::ComputeObject&lt; Derived &gt; Pages: 1 -->
<svg width="601pt" height="736pt"
 viewBox="0.00 0.00 601.00 736.00" xmlns="http://www.w3.org/2000/svg" xmlns:xlink="http://www.w3.org/1999/xlink">
<g id="graph0" class="graph" transform="scale(1 1) rotate(0) translate(4 732)">
<title>Ponca::ComputeObject&lt; Derived &gt;</title>
<!-- Node1 -->
<g id="Node000001" class="node">
<title>Node1</title>
<g id="a_Node000001"><a xlink:title="ComputeObject is a virtual object that represents an algorithm which can be used with the compute fun...">
<polygon fill="#999999" stroke="transparent" points="355,-728 233,-728 233,-623 355,-623 355,-728"/>
<text text-anchor="start" x="238" y="-715.5" font-family="Helvetica,sans-Serif" font-size="10.00">Ponca::ComputeObject</text>
<text text-anchor="start" x="263.5" y="-704.5" font-family="Helvetica,sans-Serif" font-size="10.00">&lt; Derived &gt;</text>
<text text-anchor="start" x="292" y="-689.5" font-family="Helvetica,sans-Serif" font-size="10.00"> </text>
<text text-anchor="start" x="240" y="-674.5" font-family="Helvetica,sans-Serif" font-size="10.00">+</text>
<text text-anchor="start" x="256" y="-674.5" font-family="Helvetica,sans-Serif" font-size="10.00">compute()</text>
<text text-anchor="start" x="240" y="-659.5" font-family="Helvetica,sans-Serif" font-size="10.00">+</text>
<text text-anchor="start" x="256" y="-659.5" font-family="Helvetica,sans-Serif" font-size="10.00">compute()</text>
<text text-anchor="start" x="240" y="-644.5" font-family="Helvetica,sans-Serif" font-size="10.00">+</text>
<text text-anchor="start" x="256" y="-644.5" font-family="Helvetica,sans-Serif" font-size="10.00">computeWithIds()</text>
<text text-anchor="start" x="240" y="-629.5" font-family="Helvetica,sans-Serif" font-size="10.00">#</text>
<text text-anchor="start" x="256" y="-629.5" font-family="Helvetica,sans-Serif" font-size="10.00">derived()</text>
<polygon fill="#666666" stroke="#666666" points="233,-699.5 233,-699.5 355,-699.5 355,-699.5 233,-699.5"/>
<polygon fill="#666666" stroke="#666666" points="233,-684.5 233,-684.5 355,-684.5 355,-684.5 233,-684.5"/>
<polygon fill="none" stroke="#666666" points="233,-623 233,-728 355,-728 355,-623 233,-623"/>
</a>
</g>
</g>
<!-- Node2 -->
<g id="Node000002" class="node">
<title>Node2</title>
<g id="a_Node000002"><a xlink:href="structPonca_1_1BasketComputeObject.html" target="_top" xlink:title=" ">
<polygon fill="white" stroke="transparent" points="158,-225.5 0,-225.5 0,-113.5 158,-113.5 158,-225.5"/>
<text text-anchor="start" x="5" y="-213.5" font-family="Helvetica,sans-Serif" font-size="10.00">Ponca::BasketComputeObject</text>
<text text-anchor="start" x="5" y="-202.5" font-family="Helvetica,sans-Serif" font-size="10.00">&lt; Basket&lt; P, W, Ext0, Exts...</text>
<text text-anchor="start" x="5" y="-191.5" font-family="Helvetica,sans-Serif" font-size="10.00"> &gt;, internal::BasketAggregate</text>
<text text-anchor="start" x="5" y="-180.5" font-family="Helvetica,sans-Serif" font-size="10.00">&lt; P, W, Ext0, Exts... &gt;::type &gt;</text>
<text text-anchor="start" x="77" y="-165.5" font-family="Helvetica,sans-Serif" font-size="10.00"> </text>
<text text-anchor="start" x="16" y="-150.5" font-family="Helvetica,sans-Serif" font-size="10.00">+</text>
<text text-anchor="start" x="41" y="-150.5" font-family="Helvetica,sans-Serif" font-size="10.00">compute()</text>
<text text-anchor="start" x="16" y="-135.5" font-family="Helvetica,sans-Serif" font-size="10.00">+</text>
<text text-anchor="start" x="41" y="-135.5" font-family="Helvetica,sans-Serif" font-size="10.00">computeWithIds()</text>
<text text-anchor="start" x="16" y="-120.5" font-family="Helvetica,sans-Serif" font-size="10.00">#</text>
<text text-anchor="start" x="41" y="-120.5" font-family="Helvetica,sans-Serif" font-size="10.00">base()</text>
<polygon fill="#666666" stroke="#666666" points="0,-175.5 0,-175.5 158,-175.5 158,-175.5 0,-175.5"/>
<polygon fill="#666666" stroke="#666666" points="0,-160.5 0,-160.5 158,-160.5 158,-160.5 0,-160.5"/>
<polygon fill="none" stroke="#666666" points="0,-113.5 0,-225.5 158,-225.5 158,-113.5 0,-113.5"/>
</a>
</g>
</g>
<!-- Node1&#45;&gt;Node2 -->
<g id="edge1_Node000001_Node000002" class="edge">
<title>Node1&#45;&gt;Node2</title>
<g id="a_edge1_Node000001_Node000002"><a xlink:title=" ">
<path fill="none" stroke="#63b8ff" d="M223.45,-656.77C176.49,-640.98 118.09,-612.77 88,-565 22,-460.23 44.71,-306.74 63.77,-225.56"/>
<polygon fill="none" stroke="#63b8ff" points="222.39,-660.11 232.98,-659.86 224.55,-653.45 222.39,-660.11"/>
</a>
</g>
</g>
<!-- Node4 -->
<g id="Node000004" class="node">
<title>Node4</title>
<g id="a_Node000004"><a xlink:href="structPonca_1_1BasketComputeObject.html" target="_top" xlink:title=" ">
<polygon fill="white" stroke="transparent" points="438.5,-231 251.5,-231 251.5,-108 438.5,-108 438.5,-231"/>
<text text-anchor="start" x="257" y="-218.5" font-family="Helvetica,sans-Serif" font-size="10.00">Ponca::BasketComputeObject</text>
<text text-anchor="start" x="257" y="-207.5" font-family="Helvetica,sans-Serif" font-size="10.00">&lt; BasketDiff&lt; BasketType,</text>
<text text-anchor="start" x="257" y="-196.5" font-family="Helvetica,sans-Serif" font-size="10.00"> Type, Ext0, Exts... &gt;, internal</text>
<text text-anchor="start" x="257" y="-185.5" font-family="Helvetica,sans-Serif" font-size="10.00">::BasketDiffAggregate&lt; BasketType,</text>
<text text-anchor="start" x="275.5" y="-174.5" font-family="Helvetica,sans-Serif" font-size="10.00"> Type, Ext0, Exts... &gt;::type &gt;</text>
<text text-anchor="start" x="343.5" y="-159.5" font-family="Helvetica,sans-Serif" font-size="10.00"> </text>
<text text-anchor="start" x="275.5" y="-144.5" font-family="Helvetica,sans-Serif" font-size="10.00">+</text>
<text text-anchor="start" x="308" y="-144.5" font-family="Helvetica,sans-Serif" font-size="10.00">compute()</text>
<text text-anchor="start" x="275.5" y="-129.5" font-family="Helvetica,sans-Serif" font-size="10.00">+</text>
<text text-anchor="start" x="308" y="-129.5" font-family="Helvetica,sans-Serif" font-size="10.00">computeWithIds()</text>
<text text-anchor="start" x="275.5" y="-114.5" font-family="Helvetica,sans-Serif" font-size="10.00">#</text>
<text text-anchor="start" x="308" y="-114.5" font-family="Helvetica,sans-Serif" font-size="10.00">base()</text>
<polygon fill="#666666" stroke="#666666" points="252,-169.5 252,-169.5 439,-169.5 439,-169.5 252,-169.5"/>
<polygon fill="#666666" stroke="#666666" points="252,-154.5 252,-154.5 439,-154.5 439,-154.5 252,-154.5"/>
<polygon fill="none" stroke="#666666" points="251.5,-108 251.5,-231 438.5,-231 438.5,-108 251.5,-108"/>
</a>
</g>
</g>
<!-- Node1&#45;&gt;Node4 -->
<g id="edge3_Node000001_Node000004" class="edge">
<title>Node1&#45;&gt;Node4</title>
<g id="a_edge3_Node000001_Node000004"><a xlink:title=" ">
<path fill="none" stroke="#63b8ff" d="M364.02,-646.44C381.09,-636.08 397.24,-622.46 407,-605 445.6,-535.94 432.95,-323.73 407,-249 404.89,-242.93 402.1,-236.97 398.86,-231.23"/>
<polygon fill="none" stroke="#63b8ff" points="361.98,-643.57 355.03,-651.57 365.45,-649.65 361.98,-643.57"/>
</a>
</g>
</g>
<!-- Node6 -->
<g id="Node000006" class="node">
<title>Node6</title>
<g id="a_Node000006"><a xlink:href="structPonca_1_1ComputeObject.html" target="_top" xlink:title=" ">
<polygon fill="white" stroke="transparent" points="359,-565 237,-565 237,-449 359,-449 359,-565"/>
<text text-anchor="start" x="242" y="-553" font-family="Helvetica,sans-Serif" font-size="10.00">Ponca::ComputeObject</text>
<text text-anchor="start" x="242" y="-542" font-family="Helvetica,sans-Serif" font-size="10.00">&lt; Basket&lt; P, W, Ext0,</text>
<text text-anchor="start" x="270" y="-531" font-family="Helvetica,sans-Serif" font-size="10.00"> Exts... &gt; &gt;</text>
<text text-anchor="start" x="296" y="-516" font-family="Helvetica,sans-Serif" font-size="10.00"> </text>
<text text-anchor="start" x="244" y="-501" font-family="Helvetica,sans-Serif" font-size="10.00">+</text>
<text text-anchor="start" x="260" y="-501" font-family="Helvetica,sans-Serif" font-size="10.00">compute()</text>
<text text-anchor="start" x="244" y="-486" font-family="Helvetica,sans-Serif" font-size="10.00">+</text>
<text text-anchor="start" x="260" y="-486" font-family="Helvetica,sans-Serif" font-size="10.00">compute()</text>
<text text-anchor="start" x="244" y="-471" font-family="Helvetica,sans-Serif" font-size="10.00">+</text>
<text text-anchor="start" x="260" y="-471" font-family="Helvetica,sans-Serif" font-size="10.00">computeWithIds()</text>
<text text-anchor="start" x="244" y="-456" font-family="Helvetica,sans-Serif" font-size="10.00">#</text>
<text text-anchor="start" x="260" y="-456" font-family="Helvetica,sans-Serif" font-size="10.00">derived()</text>
<polygon fill="#666666" stroke="#666666" points="237,-526 237,-526 359,-526 359,-526 237,-526"/>
<polygon fill="#666666" stroke="#666666" points="237,-511 237,-511 359,-511 359,-511 237,-511"/>
<polygon fill="none" stroke="#666666" points="237,-449 237,-565 359,-565 359,-449 237,-449"/>
</a>
</g>
</g>
<!-- Node1&#45;&gt;Node6 -->
<g id="edge5_Node000001_Node000006" class="edge">
<title>Node1&#45;&gt;Node6</title>
<g id="a_edge5_Node000001_Node000006"><a xlink:title=" ">
<path fill="none" stroke="orange" d="M294.43,-612.54C294.57,-602.66 294.76,-592.55 295,-583 295.15,-577.27 295.33,-571.29 295.54,-565.32"/>
<polygon fill="orange" stroke="orange" points="290.93,-612.67 294.3,-622.72 297.93,-612.76 290.93,-612.67"/>
</a>
</g>
<text text-anchor="start" x="295" y="-597" font-family="Helvetica,sans-Serif" font-size="10.00" fill="grey"> &lt; Basket&lt; P, W, Ext0,</text>
<text text-anchor="middle" x="351" y="-586" font-family="Helvetica,sans-Serif" font-size="10.00" fill="grey"> Exts... &gt; &gt;</text>
</g>
<!-- Node7 -->
<g id="Node000007" class="node">
<title>Node7</title>
<g id="a_Node000007"><a xlink:href="structPonca_1_1ComputeObject.html" target="_top" xlink:title=" ">
<polygon fill="white" stroke="transparent" points="219,-559.5 97,-559.5 97,-454.5 219,-454.5 219,-559.5"/>
<text text-anchor="start" x="102" y="-547" font-family="Helvetica,sans-Serif" font-size="10.00">Ponca::ComputeObject</text>
<text text-anchor="start" x="124.5" y="-536" font-family="Helvetica,sans-Serif" font-size="10.00">&lt; _Derived &gt;</text>
<text text-anchor="start" x="156" y="-521" font-family="Helvetica,sans-Serif" font-size="10.00"> </text>
<text text-anchor="start" x="104" y="-506" font-family="Helvetica,sans-Serif" font-size="10.00">+</text>
<text text-anchor="start" x="120" y="-506" font-family="Helvetica,sans-Serif" font-size="10.00">compute()</text>
<text text-anchor="start" x="104" y="-491" font-family="Helvetica,sans-Serif" font-size="10.00">+</text>
<text text-anchor="start" x="120" y="-491" font-family="Helvetica,sans-Serif" font-size="10.00">compute()</text>
<text text-anchor="start" x="104" y="-476" font-family="Helvetica,sans-Serif" font-size="10.00">+</text>
<text text-anchor="start" x="120" y="-476" font-family="Helvetica,sans-Serif" font-size="10.00">computeWithIds()</text>
<text text-anchor="start" x="104" y="-461" font-family="Helvetica,sans-Serif" font-size="10.00">#</text>
<text text-anchor="start" x="120" y="-461" font-family="Helvetica,sans-Serif" font-size="10.00">derived()</text>
<polygon fill="#666666" stroke="#666666" points="97,-531 97,-531 219,-531 219,-531 97,-531"/>
<polygon fill="#666666" stroke="#666666" points="97,-516 97,-516 219,-516 219,-516 97,-516"/>
<polygon fill="none" stroke="#666666" points="97,-454.5 97,-559.5 219,-559.5 219,-454.5 97,-454.5"/>
</a>
</g>
</g>
<!-- Node1&#45;&gt;Node7 -->
<g id="edge6_Node000001_Node000007" class="edge">
<title>Node1&#45;&gt;Node7</title>
<g id="a_edge6_Node000001_Node000007"><a xlink:title=" ">
<path fill="none" stroke="orange" d="M229.94,-615.26C226.84,-611.85 223.84,-608.42 221,-605 209.39,-591.02 198.12,-574.8 188.39,-559.67"/>
<polygon fill="orange" stroke="orange" points="227.46,-617.73 236.85,-622.64 232.57,-612.95 227.46,-617.73"/>
</a>
</g>
<text text-anchor="middle" x="256" y="-591.5" font-family="Helvetica,sans-Serif" font-size="10.00" fill="grey"> &lt; _Derived &gt;</text>
</g>
<!-- Node9 -->
<g id="Node000009" class="node">
<title>Node9</title>
<g id="a_Node000009"><a xlink:href="structPonca_1_1ComputeObject.html" target="_top" xlink:title=" ">
<polygon fill="white" stroke="transparent" points="591,-565 449,-565 449,-449 591,-449 591,-565"/>
<text text-anchor="start" x="454" y="-553" font-family="Helvetica,sans-Serif" font-size="10.00">Ponca::ComputeObject</text>
<text text-anchor="start" x="454" y="-542" font-family="Helvetica,sans-Serif" font-size="10.00">&lt; BasketDiff&lt; BasketType,</text>
<text text-anchor="start" x="464" y="-531" font-family="Helvetica,sans-Serif" font-size="10.00"> Type, Ext0, Exts... &gt; &gt;</text>
<text text-anchor="start" x="518" y="-516" font-family="Helvetica,sans-Serif" font-size="10.00"> </text>
<text text-anchor="start" x="461" y="-501" font-family="Helvetica,sans-Serif" font-size="10.00">+</text>
<text text-anchor="start" x="482" y="-501" font-family="Helvetica,sans-Serif" font-size="10.00">compute()</text>
<text text-anchor="start" x="461" y="-486" font-family="Helvetica,sans-Serif" font-size="10.00">+</text>
<text text-anchor="start" x="482" y="-486" font-family="Helvetica,sans-Serif" font-size="10.00">compute()</text>
<text text-anchor="start" x="461" y="-471" font-family="Helvetica,sans-Serif" font-size="10.00">+</text>
<text text-anchor="start" x="482" y="-471" font-family="Helvetica,sans-Serif" font-size="10.00">computeWithIds()</text>
<text text-anchor="start" x="461" y="-456" font-family="Helvetica,sans-Serif" font-size="10.00">#</text>
<text text-anchor="start" x="482" y="-456" font-family="Helvetica,sans-Serif" font-size="10.00">derived()</text>
<polygon fill="#666666" stroke="#666666" points="449,-526 449,-526 591,-526 591,-526 449,-526"/>
<polygon fill="#666666" stroke="#666666" points="449,-511 449,-511 591,-511 591,-511 449,-511"/>
<polygon fill="none" stroke="#666666" points="449,-449 449,-565 591,-565 591,-449 449,-449"/>
</a>
</g>
</g>
<!-- Node1&#45;&gt;Node9 -->
<g id="edge10_Node000001_Node000009" class="edge">
<title>Node1&#45;&gt;Node9</title>
<g id="a_edge10_Node000001_Node000009"><a xlink:title=" ">
<path fill="none" stroke="orange" d="M364.59,-646.36C388.15,-635.28 413.78,-621.28 435,-605 449.92,-593.55 464.2,-579.17 476.66,-565.01"/>
<polygon fill="orange" stroke="orange" points="362.96,-643.26 355.33,-650.62 365.88,-649.62 362.96,-643.26"/>
</a>
</g>
<text text-anchor="start" x="458" y="-597" font-family="Helvetica,sans-Serif" font-size="10.00" fill="grey"> &lt; BasketDiff&lt; BasketType,</text>
<text text-anchor="middle" x="525.5" y="-586" font-family="Helvetica,sans-Serif" font-size="10.00" fill="grey"> Type, Ext0, Exts... &gt; &gt;</text>
</g>
<!-- Node3 -->
<g id="Node000003" class="node">
<title>Node3</title>
<g id="a_Node000003"><a xlink:href="classPonca_1_1Basket.html" target="_top" xlink:title="Aggregator class used to declare specialized structures using CRTP.">
<polygon fill="white" stroke="transparent" points="136.5,-65.5 21.5,-65.5 21.5,-5.5 136.5,-5.5 136.5,-65.5"/>
<text text-anchor="start" x="27" y="-53.5" font-family="Helvetica,sans-Serif" font-size="10.00">Ponca::Basket&lt; P, W,</text>
<text text-anchor="start" x="47.5" y="-42.5" font-family="Helvetica,sans-Serif" font-size="10.00"> Ext0, Exts &gt;</text>
<text text-anchor="start" x="77.5" y="-27.5" font-family="Helvetica,sans-Serif" font-size="10.00"> </text>
<text text-anchor="start" x="32" y="-12.5" font-family="Helvetica,sans-Serif" font-size="10.00">+</text>
<text text-anchor="start" x="51" y="-12.5" font-family="Helvetica,sans-Serif" font-size="10.00">addNeighbor()</text>
<polygon fill="#666666" stroke="#666666" points="22,-37.5 22,-37.5 137,-37.5 137,-37.5 22,-37.5"/>
<polygon fill="#666666" stroke="#666666" points="22,-22.5 22,-22.5 137,-22.5 137,-22.5 22,-22.5"/>
<polygon fill="none" stroke="#666666" points="21.5,-5.5 21.5,-65.5 136.5,-65.5 136.5,-5.5 21.5,-5.5"/>
</a>
</g>
</g>
<!-- Node2&#45;&gt;Node3 -->
<g id="edge2_Node000002_Node000003" class="edge">
<title>Node2&#45;&gt;Node3</title>
<g id="a_edge2_Node000002_Node000003"><a xlink:title=" ">
<path fill="none" stroke="#63b8ff" d="M79,-103.22C79,-90 79,-76.74 79,-65.57"/>
<polygon fill="none" stroke="#63b8ff" points="75.5,-103.28 79,-113.28 82.5,-103.28 75.5,-103.28"/>
</a>
</g>
</g>
<!-- Node5 -->
<g id="Node000005" class="node">
<title>Node5</title>
<g id="a_Node000005"><a xlink:href="classPonca_1_1BasketDiff.html" target="_top" xlink:title="Aggregator class used to declare specialized structures with derivatives computations,...">
<polygon fill="white" stroke="transparent" points="409,-71 281,-71 281,0 409,0 409,-71"/>
<text text-anchor="start" x="286" y="-58.5" font-family="Helvetica,sans-Serif" font-size="10.00">Ponca::BasketDiff&lt;</text>
<text text-anchor="start" x="286" y="-47.5" font-family="Helvetica,sans-Serif" font-size="10.00"> BasketType, Type, Ext0,</text>
<text text-anchor="start" x="327" y="-36.5" font-family="Helvetica,sans-Serif" font-size="10.00"> Exts &gt;</text>
<text text-anchor="start" x="343" y="-21.5" font-family="Helvetica,sans-Serif" font-size="10.00"> </text>
<text text-anchor="start" x="294" y="-6.5" font-family="Helvetica,sans-Serif" font-size="10.00">+</text>
<text text-anchor="start" x="316" y="-6.5" font-family="Helvetica,sans-Serif" font-size="10.00">addNeighbor()</text>
<polygon fill="#666666" stroke="#666666" points="281,-31.5 281,-31.5 409,-31.5 409,-31.5 281,-31.5"/>
<polygon fill="#666666" stroke="#666666" points="281,-16.5 281,-16.5 409,-16.5 409,-16.5 281,-16.5"/>
<polygon fill="none" stroke="#666666" points="281,0 281,-71 409,-71 409,0 281,0"/>
</a>
</g>
</g>
<!-- Node4&#45;&gt;Node5 -->
<g id="edge4_Node000004_Node000005" class="edge">
<title>Node4&#45;&gt;Node5</title>
<g id="a_edge4_Node000004_Node000005"><a xlink:title=" ">
<path fill="none" stroke="#63b8ff" d="M345,-97.84C345,-88.58 345,-79.44 345,-71.15"/>
<polygon fill="none" stroke="#63b8ff" points="341.5,-97.91 345,-107.91 348.5,-97.91 341.5,-97.91"/>
</a>
</g>
</g>
<!-- Node8 -->
<g id="Node000008" class="node">
<title>Node8</title>
<g id="a_Node000008"><a xlink:href="structPonca_1_1BasketComputeObject.html" target="_top" xlink:title="Base ComputeObject for the Basket classes.">
<polygon fill="white" stroke="transparent" points="246.5,-412 91.5,-412 91.5,-322 246.5,-322 246.5,-412"/>
<text text-anchor="start" x="97" y="-400" font-family="Helvetica,sans-Serif" font-size="10.00">Ponca::BasketComputeObject</text>
<text text-anchor="start" x="118.5" y="-389" font-family="Helvetica,sans-Serif" font-size="10.00">&lt; _Derived, _Base &gt;</text>
<text text-anchor="start" x="167.5" y="-374" font-family="Helvetica,sans-Serif" font-size="10.00"> </text>
<text text-anchor="start" x="107.5" y="-359" font-family="Helvetica,sans-Serif" font-size="10.00">+</text>
<text text-anchor="start" x="132" y="-359" font-family="Helvetica,sans-Serif" font-size="10.00">compute()</text>
<text text-anchor="start" x="107.5" y="-344" font-family="Helvetica,sans-Serif" font-size="10.00">+</text>
<text text-anchor="start" x="132" y="-344" font-family="Helvetica,sans-Serif" font-size="10.00">computeWithIds()</text>
<text text-anchor="start" x="107.5" y="-329" font-family="Helvetica,sans-Serif" font-size="10.00">#</text>
<text text-anchor="start" x="132" y="-329" font-family="Helvetica,sans-Serif" font-size="10.00">base()</text>
<polygon fill="#666666" stroke="#666666" points="92,-384 92,-384 247,-384 247,-384 92,-384"/>
<polygon fill="#666666" stroke="#666666" points="92,-369 92,-369 247,-369 247,-369 92,-369"/>
<polygon fill="none" stroke="#666666" points="91.5,-322 91.5,-412 246.5,-412 246.5,-322 91.5,-322"/>
</a>
</g>
</g>
<!-- Node7&#45;&gt;Node8 -->
<g id="edge7_Node000007_Node000008" class="edge">
<title>Node7&#45;&gt;Node8</title>
<g id="a_edge7_Node000007_Node000008"><a xlink:title=" ">
<path fill="none" stroke="#63b8ff" d="M162.94,-444.08C163.79,-433.4 164.66,-422.48 165.46,-412.38"/>
<polygon fill="none" stroke="#63b8ff" points="159.43,-443.97 162.13,-454.22 166.41,-444.53 159.43,-443.97"/>
</a>
</g>
</g>
<!-- Node8&#45;&gt;Node2 -->
<g id="edge8_Node000008_Node000002" class="edge">
<title>Node8&#45;&gt;Node2</title>
<g id="a_edge8_Node000008_Node000002"><a xlink:title=" ">
<path fill="none" stroke="orange" d="M103.45,-314.13C101.07,-310.87 98.89,-307.49 97,-304 84.12,-280.26 79.2,-250.76 77.68,-225.54"/>
<polygon fill="orange" stroke="orange" points="100.77,-316.39 109.77,-321.99 106.23,-312.01 100.77,-316.39"/>
</a>
</g>
<text text-anchor="start" x="97" y="-290.5" font-family="Helvetica,sans-Serif" font-size="10.00" fill="grey"> &lt; Basket&lt; P, W, Ext0,</text>
<text text-anchor="start" x="97" y="-279.5" font-family="Helvetica,sans-Serif" font-size="10.00" fill="grey"> Exts... &gt;, internal</text>
<text text-anchor="start" x="97" y="-268.5" font-family="Helvetica,sans-Serif" font-size="10.00" fill="grey">::BasketAggregate&lt; P,</text>
<text text-anchor="middle" x="160.5" y="-257.5" font-family="Helvetica,sans-Serif" font-size="10.00" fill="grey"> W, Ext0, Exts... &gt;::type &gt;</text>
</g>
<!-- Node8&#45;&gt;Node4 -->
<g id="edge9_Node000008_Node000004" class="edge">
<title>Node8&#45;&gt;Node4</title>
<g id="a_edge9_Node000008_Node000004"><a xlink:title=" ">
<path fill="none" stroke="orange" d="M217.59,-313.47C219.85,-310.34 222.01,-307.17 224,-304 238.09,-281.56 231.05,-270.16 247,-249 251.59,-242.91 256.76,-237.01 262.26,-231.38"/>
<polygon fill="orange" stroke="orange" points="214.63,-311.58 211.37,-321.66 220.21,-315.81 214.63,-311.58"/>
</a>
</g>
<text text-anchor="start" x="247" y="-296" font-family="Helvetica,sans-Serif" font-size="10.00" fill="grey"> &lt; BasketDiff&lt; BasketType,</text>
<text text-anchor="start" x="247" y="-285" font-family="Helvetica,sans-Serif" font-size="10.00" fill="grey"> Type, Ext0, Exts... &gt;,</text>
<text text-anchor="start" x="247" y="-274" font-family="Helvetica,sans-Serif" font-size="10.00" fill="grey"> internal::BasketDiffAggregate</text>
<text text-anchor="start" x="247" y="-263" font-family="Helvetica,sans-Serif" font-size="10.00" fill="grey">&lt; BasketType, Type, Ext0, Exts...</text>
<text text-anchor="middle" x="327" y="-252" font-family="Helvetica,sans-Serif" font-size="10.00" fill="grey"> &gt;::type &gt;</text>
</g>
</g>
</svg>
