<?xml version="1.0" encoding="UTF-8" standalone="no"?>
<!DOCTYPE svg PUBLIC "-//W3C//DTD SVG 1.1//EN"
 "http://www.w3.org/Graphics/SVG/1.1/DTD/svg11.dtd">
<!-- Generated by graphviz version 2.43.0 (0)
 -->
<!-- Title: Ponca::KdTreeDefaultNode&lt; Index, NodeIndex, DataPoint, LeafSize &gt; Pages: 1 -->
<svg width="178pt" height="467pt"
 viewBox="0.00 0.00 178.00 467.00" xmlns="http://www.w3.org/2000/svg" xmlns:xlink="http://www.w3.org/1999/xlink">
<g id="graph0" class="graph" transform="scale(1 1) rotate(0) translate(4 463)">
<title>Ponca::KdTreeDefaultNode&lt; Index, NodeIndex, DataPoint, LeafSize &gt;</title>
<!-- Node1 -->
<g id="Node000001" class="node">
<title>Node1</title>
<g id="a_Node000001"><a xlink:title=" ">
<polygon fill="#999999" stroke="transparent" points="167,-71 3,-71 3,0 167,0 167,-71"/>
<text text-anchor="start" x="8" y="-58.5" font-family="Helvetica,sans-Serif" font-size="10.00">Ponca::KdTreeDefaultNode</text>
<text text-anchor="start" x="8" y="-47.5" font-family="Helvetica,sans-Serif" font-size="10.00">&lt; Index, NodeIndex, DataPoint,</text>
<text text-anchor="start" x="57" y="-36.5" font-family="Helvetica,sans-Serif" font-size="10.00"> LeafSize &gt;</text>
<text text-anchor="start" x="83" y="-21.5" font-family="Helvetica,sans-Serif" font-size="10.00"> </text>
<text text-anchor="start" x="83" y="-6.5" font-family="Helvetica,sans-Serif" font-size="10.00"> </text>
<polygon fill="#666666" stroke="#666666" points="3,-31.5 3,-31.5 167,-31.5 167,-31.5 3,-31.5"/>
<polygon fill="#666666" stroke="#666666" points="3,-16.5 3,-16.5 167,-16.5 167,-16.5 3,-16.5"/>
<polygon fill="none" stroke="#666666" points="3,0 3,-71 167,-71 167,0 3,0"/>
</a>
</g>
</g>
<!-- Node2 -->
<g id="Node000002" class="node">
<title>Node2</title>
<g id="a_Node000002"><a xlink:href="classPonca_1_1KdTreeCustomizableNode.html" target="_top" xlink:title="The node type used by default by the kd&#45;tree.">
<polygon fill="white" stroke="transparent" points="170,-459 0,-459 0,-107 170,-107 170,-459"/>
<text text-anchor="start" x="5" y="-447" font-family="Helvetica,sans-Serif" font-size="10.00">Ponca::KdTreeCustomizable</text>
<text text-anchor="start" x="5" y="-436" font-family="Helvetica,sans-Serif" font-size="10.00">Node&lt; Index, NodeIndex,</text>
<text text-anchor="start" x="5" y="-425" font-family="Helvetica,sans-Serif" font-size="10.00"> DataPoint, LeafSize, _InnerNode</text>
<text text-anchor="start" x="27.5" y="-414" font-family="Helvetica,sans-Serif" font-size="10.00">Type, _LeafNodeType &gt;</text>
<text text-anchor="start" x="83" y="-399" font-family="Helvetica,sans-Serif" font-size="10.00"> </text>
<text text-anchor="start" x="5.5" y="-384" font-family="Helvetica,sans-Serif" font-size="10.00">+</text>
<text text-anchor="start" x="20" y="-384" font-family="Helvetica,sans-Serif" font-size="10.00">KdTreeCustomizableNode()</text>
<text text-anchor="start" x="5.5" y="-369" font-family="Helvetica,sans-Serif" font-size="10.00">+</text>
<text text-anchor="start" x="20" y="-369" font-family="Helvetica,sans-Serif" font-size="10.00">KdTreeCustomizableNode()</text>
<text text-anchor="start" x="5.5" y="-354" font-family="Helvetica,sans-Serif" font-size="10.00">+</text>
<text text-anchor="start" x="20" y="-354" font-family="Helvetica,sans-Serif" font-size="10.00">operator=()</text>
<text text-anchor="start" x="5.5" y="-339" font-family="Helvetica,sans-Serif" font-size="10.00">+</text>
<text text-anchor="start" x="20" y="-339" font-family="Helvetica,sans-Serif" font-size="10.00">KdTreeCustomizableNode()</text>
<text text-anchor="start" x="5.5" y="-324" font-family="Helvetica,sans-Serif" font-size="10.00">+</text>
<text text-anchor="start" x="20" y="-324" font-family="Helvetica,sans-Serif" font-size="10.00">operator=()</text>
<text text-anchor="start" x="5.5" y="-309" font-family="Helvetica,sans-Serif" font-size="10.00">+</text>
<text text-anchor="start" x="20" y="-309" font-family="Helvetica,sans-Serif" font-size="10.00">~KdTreeCustomizableNode()</text>
<text text-anchor="start" x="5.5" y="-294" font-family="Helvetica,sans-Serif" font-size="10.00">+</text>
<text text-anchor="start" x="20" y="-294" font-family="Helvetica,sans-Serif" font-size="10.00">is_leaf()</text>
<text text-anchor="start" x="5.5" y="-279" font-family="Helvetica,sans-Serif" font-size="10.00">+</text>
<text text-anchor="start" x="20" y="-279" font-family="Helvetica,sans-Serif" font-size="10.00">set_is_leaf()</text>
<text text-anchor="start" x="5.5" y="-264" font-family="Helvetica,sans-Serif" font-size="10.00">+</text>
<text text-anchor="start" x="20" y="-264" font-family="Helvetica,sans-Serif" font-size="10.00">configure_range()</text>
<text text-anchor="start" x="5.5" y="-249" font-family="Helvetica,sans-Serif" font-size="10.00">+</text>
<text text-anchor="start" x="20" y="-249" font-family="Helvetica,sans-Serif" font-size="10.00">configure_inner()</text>
<text text-anchor="start" x="5.5" y="-234" font-family="Helvetica,sans-Serif" font-size="10.00">+</text>
<text text-anchor="start" x="20" y="-234" font-family="Helvetica,sans-Serif" font-size="10.00">leaf_start()</text>
<text text-anchor="start" x="5.5" y="-219" font-family="Helvetica,sans-Serif" font-size="10.00">+</text>
<text text-anchor="start" x="20" y="-219" font-family="Helvetica,sans-Serif" font-size="10.00">leaf_size()</text>
<text text-anchor="start" x="5.5" y="-204" font-family="Helvetica,sans-Serif" font-size="10.00">+</text>
<text text-anchor="start" x="20" y="-204" font-family="Helvetica,sans-Serif" font-size="10.00">inner_split_value()</text>
<text text-anchor="start" x="5.5" y="-189" font-family="Helvetica,sans-Serif" font-size="10.00">+</text>
<text text-anchor="start" x="20" y="-189" font-family="Helvetica,sans-Serif" font-size="10.00">inner_split_dim()</text>
<text text-anchor="start" x="5.5" y="-174" font-family="Helvetica,sans-Serif" font-size="10.00">+</text>
<text text-anchor="start" x="20" y="-174" font-family="Helvetica,sans-Serif" font-size="10.00">inner_first_child_id()</text>
<text text-anchor="start" x="5.5" y="-159" font-family="Helvetica,sans-Serif" font-size="10.00">#</text>
<text text-anchor="start" x="20" y="-159" font-family="Helvetica,sans-Serif" font-size="10.00">getAsLeaf()</text>
<text text-anchor="start" x="5.5" y="-144" font-family="Helvetica,sans-Serif" font-size="10.00">#</text>
<text text-anchor="start" x="20" y="-144" font-family="Helvetica,sans-Serif" font-size="10.00">getAsInner()</text>
<text text-anchor="start" x="5.5" y="-129" font-family="Helvetica,sans-Serif" font-size="10.00">#</text>
<text text-anchor="start" x="20" y="-129" font-family="Helvetica,sans-Serif" font-size="10.00">getAsLeaf()</text>
<text text-anchor="start" x="5.5" y="-114" font-family="Helvetica,sans-Serif" font-size="10.00">#</text>
<text text-anchor="start" x="20" y="-114" font-family="Helvetica,sans-Serif" font-size="10.00">getAsInner()</text>
<polygon fill="#666666" stroke="#666666" points="0,-409 0,-409 170,-409 170,-409 0,-409"/>
<polygon fill="#666666" stroke="#666666" points="0,-394 0,-394 170,-394 170,-394 0,-394"/>
<polygon fill="none" stroke="#666666" points="0,-107 0,-459 170,-459 170,-107 0,-107"/>
</a>
</g>
</g>
<!-- Node2&#45;&gt;Node1 -->
<g id="edge1_Node000001_Node000002" class="edge">
<title>Node2&#45;&gt;Node1</title>
<g id="a_edge1_Node000001_Node000002"><a xlink:title=" ">
<path fill="none" stroke="#63b8ff" d="M85,-96.58C85,-87.33 85,-78.74 85,-71.1"/>
<polygon fill="none" stroke="#63b8ff" points="81.5,-96.85 85,-106.85 88.5,-96.85 81.5,-96.85"/>
</a>
</g>
</g>
</g>
</svg>
