<?xml version="1.0" encoding="UTF-8" standalone="no"?>
<!DOCTYPE svg PUBLIC "-//W3C//DTD SVG 1.1//EN"
 "http://www.w3.org/Graphics/SVG/1.1/DTD/svg11.dtd">
<!-- Generated by graphviz version 2.43.0 (0)
 -->
<!-- Title: Ponca::QueryOutputBase Pages: 1 -->
<svg width="728pt" height="573pt"
 viewBox="0.00 0.00 727.50 573.00" xmlns="http://www.w3.org/2000/svg" xmlns:xlink="http://www.w3.org/1999/xlink">
<g id="graph0" class="graph" transform="scale(1 1) rotate(0) translate(4 569)">
<title>Ponca::QueryOutputBase</title>
<!-- Node1 -->
<g id="Node000001" class="node">
<title>Node1</title>
<g id="a_Node000001"><a xlink:title="Base class for queries output types.">
<polygon fill="#999999" stroke="transparent" points="436.5,-565 304.5,-565 304.5,-516 436.5,-516 436.5,-565"/>
<text text-anchor="start" x="309.5" y="-552.5" font-family="Helvetica,sans-Serif" font-size="10.00">Ponca::QueryOutputBase</text>
<text text-anchor="start" x="368.5" y="-537.5" font-family="Helvetica,sans-Serif" font-size="10.00"> </text>
<text text-anchor="start" x="368.5" y="-522.5" font-family="Helvetica,sans-Serif" font-size="10.00"> </text>
<polygon fill="#666666" stroke="#666666" points="304.5,-547.5 304.5,-547.5 436.5,-547.5 436.5,-547.5 304.5,-547.5"/>
<polygon fill="#666666" stroke="#666666" points="304.5,-532.5 304.5,-532.5 436.5,-532.5 436.5,-532.5 304.5,-532.5"/>
<polygon fill="none" stroke="#666666" points="304.5,-516 304.5,-565 436.5,-565 436.5,-516 304.5,-516"/>
</a>
</g>
</g>
<!-- Node2 -->
<g id="Node000002" class="node">
<title>Node2</title>
<g id="a_Node000002"><a xlink:href="structPonca_1_1NeighborGraphQueryOutputType.html" target="_top" xlink:title="Output type of the NeighborGraphOneConnectedQuery.">
<polygon fill="white" stroke="transparent" points="170,-427.5 21,-427.5 21,-367.5 170,-367.5 170,-427.5"/>
<text text-anchor="start" x="26.5" y="-415.5" font-family="Helvetica,sans-Serif" font-size="10.00">Ponca::NeighborGraphQuery</text>
<text text-anchor="start" x="68" y="-404.5" font-family="Helvetica,sans-Serif" font-size="10.00">OutputType</text>
<text text-anchor="start" x="94" y="-389.5" font-family="Helvetica,sans-Serif" font-size="10.00"> </text>
<text text-anchor="start" x="94" y="-374.5" font-family="Helvetica,sans-Serif" font-size="10.00"> </text>
<polygon fill="#666666" stroke="#666666" points="21.5,-399.5 21.5,-399.5 170.5,-399.5 170.5,-399.5 21.5,-399.5"/>
<polygon fill="#666666" stroke="#666666" points="21.5,-384.5 21.5,-384.5 170.5,-384.5 170.5,-384.5 21.5,-384.5"/>
<polygon fill="none" stroke="#666666" points="21,-367.5 21,-427.5 170,-427.5 170,-367.5 21,-367.5"/>
</a>
</g>
</g>
<!-- Node1&#45;&gt;Node2 -->
<g id="edge1_Node000001_Node000002" class="edge">
<title>Node1&#45;&gt;Node2</title>
<g id="a_edge1_Node000001_Node000002"><a xlink:title=" ">
<path fill="none" stroke="#63b8ff" d="M294.04,-524.39C257.67,-515.08 214.57,-500.84 179.5,-480 156.44,-466.3 134.83,-445.06 119.3,-427.7"/>
<polygon fill="none" stroke="#63b8ff" points="293.56,-527.88 304.11,-526.89 295.25,-521.09 293.56,-527.88"/>
</a>
</g>
</g>
<!-- Node5 -->
<g id="Node000005" class="node">
<title>Node5</title>
<g id="a_Node000005"><a xlink:href="group__spatialpartitioning.html#structPonca_1_1QueryOutputIsKNearest" target="_top" xlink:title="Class to construct the knearest queries.">
<polygon fill="white" stroke="transparent" points="367,-457.5 188,-457.5 188,-337.5 367,-337.5 367,-457.5"/>
<text text-anchor="start" x="193.5" y="-445.5" font-family="Helvetica,sans-Serif" font-size="10.00">Ponca::QueryOutputIsKNearest</text>
<text text-anchor="start" x="193.5" y="-434.5" font-family="Helvetica,sans-Serif" font-size="10.00">&lt; Index, Scalar, MAX_KNN_SIZE &gt;</text>
<text text-anchor="start" x="197.5" y="-419.5" font-family="Helvetica,sans-Serif" font-size="10.00">#</text>
<text text-anchor="start" x="215.5" y="-419.5" font-family="Helvetica,sans-Serif" font-size="10.00">m_queue</text>
<text text-anchor="start" x="197.5" y="-404.5" font-family="Helvetica,sans-Serif" font-size="10.00">+</text>
<text text-anchor="start" x="215.5" y="-404.5" font-family="Helvetica,sans-Serif" font-size="10.00">QueryOutputIsKNearest()</text>
<text text-anchor="start" x="197.5" y="-389.5" font-family="Helvetica,sans-Serif" font-size="10.00">+</text>
<text text-anchor="start" x="215.5" y="-389.5" font-family="Helvetica,sans-Serif" font-size="10.00">operator()()</text>
<text text-anchor="start" x="197.5" y="-374.5" font-family="Helvetica,sans-Serif" font-size="10.00">+</text>
<text text-anchor="start" x="215.5" y="-374.5" font-family="Helvetica,sans-Serif" font-size="10.00">queue()</text>
<text text-anchor="start" x="197.5" y="-359.5" font-family="Helvetica,sans-Serif" font-size="10.00">#</text>
<text text-anchor="start" x="215.5" y="-359.5" font-family="Helvetica,sans-Serif" font-size="10.00">reset()</text>
<text text-anchor="start" x="197.5" y="-344.5" font-family="Helvetica,sans-Serif" font-size="10.00">#</text>
<text text-anchor="start" x="215.5" y="-344.5" font-family="Helvetica,sans-Serif" font-size="10.00">descentDistanceThreshold()</text>
<polygon fill="#666666" stroke="#666666" points="188.5,-429.5 188.5,-429.5 367.5,-429.5 367.5,-429.5 188.5,-429.5"/>
<polygon fill="#666666" stroke="#666666" points="188.5,-414.5 188.5,-414.5 213.5,-414.5 213.5,-414.5 188.5,-414.5"/>
<polygon fill="#666666" stroke="#666666" points="213.5,-414.5 213.5,-414.5 367.5,-414.5 367.5,-414.5 213.5,-414.5"/>
<polygon fill="none" stroke="#666666" points="188,-337.5 188,-457.5 367,-457.5 367,-337.5 188,-337.5"/>
</a>
</g>
</g>
<!-- Node1&#45;&gt;Node5 -->
<g id="edge4_Node000001_Node000005" class="edge">
<title>Node1&#45;&gt;Node5</title>
<g id="a_edge4_Node000001_Node000005"><a xlink:title=" ">
<path fill="none" stroke="#63b8ff" d="M349.2,-507.21C339.53,-492.55 327.77,-474.72 316.6,-457.78"/>
<polygon fill="none" stroke="#63b8ff" points="346.51,-509.48 354.93,-515.9 352.35,-505.62 346.51,-509.48"/>
</a>
</g>
</g>
<!-- Node6 -->
<g id="Node000006" class="node">
<title>Node6</title>
<g id="a_Node000006"><a xlink:href="group__spatialpartitioning.html#structPonca_1_1QueryOutputIsNearest" target="_top" xlink:title="Class to construct the nearest query output.">
<polygon fill="white" stroke="transparent" points="543.5,-465 385.5,-465 385.5,-330 543.5,-330 543.5,-465"/>
<text text-anchor="start" x="392" y="-452.5" font-family="Helvetica,sans-Serif" font-size="10.00">Ponca::QueryOutputIsNearest</text>
<text text-anchor="start" x="421.5" y="-441.5" font-family="Helvetica,sans-Serif" font-size="10.00">&lt; Index, Scalar &gt;</text>
<text text-anchor="start" x="389.5" y="-426.5" font-family="Helvetica,sans-Serif" font-size="10.00">#</text>
<text text-anchor="start" x="402.5" y="-426.5" font-family="Helvetica,sans-Serif" font-size="10.00">m_nearest</text>
<text text-anchor="start" x="389.5" y="-411.5" font-family="Helvetica,sans-Serif" font-size="10.00">#</text>
<text text-anchor="start" x="402.5" y="-411.5" font-family="Helvetica,sans-Serif" font-size="10.00">m_squared_distance</text>
<text text-anchor="start" x="389.5" y="-396.5" font-family="Helvetica,sans-Serif" font-size="10.00">+</text>
<text text-anchor="start" x="402.5" y="-396.5" font-family="Helvetica,sans-Serif" font-size="10.00">QueryOutputIsNearest()</text>
<text text-anchor="start" x="389.5" y="-381.5" font-family="Helvetica,sans-Serif" font-size="10.00">+</text>
<text text-anchor="start" x="402.5" y="-381.5" font-family="Helvetica,sans-Serif" font-size="10.00">operator()()</text>
<text text-anchor="start" x="389.5" y="-366.5" font-family="Helvetica,sans-Serif" font-size="10.00">+</text>
<text text-anchor="start" x="402.5" y="-366.5" font-family="Helvetica,sans-Serif" font-size="10.00">get()</text>
<text text-anchor="start" x="389.5" y="-351.5" font-family="Helvetica,sans-Serif" font-size="10.00">#</text>
<text text-anchor="start" x="402.5" y="-351.5" font-family="Helvetica,sans-Serif" font-size="10.00">reset()</text>
<text text-anchor="start" x="389.5" y="-336.5" font-family="Helvetica,sans-Serif" font-size="10.00">#</text>
<text text-anchor="start" x="402.5" y="-336.5" font-family="Helvetica,sans-Serif" font-size="10.00">descentDistanceThreshold()</text>
<polygon fill="#666666" stroke="#666666" points="385.5,-436.5 385.5,-436.5 543.5,-436.5 543.5,-436.5 385.5,-436.5"/>
<polygon fill="#666666" stroke="#666666" points="385.5,-406.5 385.5,-406.5 400.5,-406.5 400.5,-406.5 385.5,-406.5"/>
<polygon fill="#666666" stroke="#666666" points="400.5,-406.5 400.5,-406.5 543.5,-406.5 543.5,-406.5 400.5,-406.5"/>
<polygon fill="none" stroke="#666666" points="385.5,-330 385.5,-465 543.5,-465 543.5,-330 385.5,-330"/>
</a>
</g>
</g>
<!-- Node1&#45;&gt;Node6 -->
<g id="edge5_Node000001_Node000006" class="edge">
<title>Node1&#45;&gt;Node6</title>
<g id="a_edge5_Node000001_Node000006"><a xlink:title=" ">
<path fill="none" stroke="#63b8ff" d="M391.79,-507.56C400.22,-494.92 410.25,-479.88 420.12,-465.08"/>
<polygon fill="none" stroke="#63b8ff" points="388.87,-505.64 386.23,-515.9 394.69,-509.52 388.87,-505.64"/>
</a>
</g>
</g>
<!-- Node7 -->
<g id="Node000007" class="node">
<title>Node7</title>
<g id="a_Node000007"><a xlink:href="group__spatialpartitioning.html#structPonca_1_1QueryOutputIsRange" target="_top" xlink:title="Class to construct the range query output.">
<polygon fill="white" stroke="transparent" points="719.5,-480 561.5,-480 561.5,-315 719.5,-315 719.5,-480"/>
<text text-anchor="start" x="572" y="-467.5" font-family="Helvetica,sans-Serif" font-size="10.00">Ponca::QueryOutputIsRange</text>
<text text-anchor="start" x="597.5" y="-456.5" font-family="Helvetica,sans-Serif" font-size="10.00">&lt; Index, Scalar &gt;</text>
<text text-anchor="start" x="565.5" y="-441.5" font-family="Helvetica,sans-Serif" font-size="10.00">#</text>
<text text-anchor="start" x="578.5" y="-441.5" font-family="Helvetica,sans-Serif" font-size="10.00">m_squared_radius</text>
<text text-anchor="start" x="565.5" y="-426.5" font-family="Helvetica,sans-Serif" font-size="10.00">+</text>
<text text-anchor="start" x="578.5" y="-426.5" font-family="Helvetica,sans-Serif" font-size="10.00">QueryOutputIsRange()</text>
<text text-anchor="start" x="565.5" y="-411.5" font-family="Helvetica,sans-Serif" font-size="10.00">+</text>
<text text-anchor="start" x="578.5" y="-411.5" font-family="Helvetica,sans-Serif" font-size="10.00">operator()()</text>
<text text-anchor="start" x="565.5" y="-396.5" font-family="Helvetica,sans-Serif" font-size="10.00">+</text>
<text text-anchor="start" x="578.5" y="-396.5" font-family="Helvetica,sans-Serif" font-size="10.00">radius()</text>
<text text-anchor="start" x="565.5" y="-381.5" font-family="Helvetica,sans-Serif" font-size="10.00">+</text>
<text text-anchor="start" x="578.5" y="-381.5" font-family="Helvetica,sans-Serif" font-size="10.00">squaredRadius()</text>
<text text-anchor="start" x="565.5" y="-366.5" font-family="Helvetica,sans-Serif" font-size="10.00">+</text>
<text text-anchor="start" x="578.5" y="-366.5" font-family="Helvetica,sans-Serif" font-size="10.00">setRadius()</text>
<text text-anchor="start" x="565.5" y="-351.5" font-family="Helvetica,sans-Serif" font-size="10.00">+</text>
<text text-anchor="start" x="578.5" y="-351.5" font-family="Helvetica,sans-Serif" font-size="10.00">setSquaredRadius()</text>
<text text-anchor="start" x="565.5" y="-336.5" font-family="Helvetica,sans-Serif" font-size="10.00">#</text>
<text text-anchor="start" x="578.5" y="-336.5" font-family="Helvetica,sans-Serif" font-size="10.00">reset()</text>
<text text-anchor="start" x="565.5" y="-321.5" font-family="Helvetica,sans-Serif" font-size="10.00">#</text>
<text text-anchor="start" x="578.5" y="-321.5" font-family="Helvetica,sans-Serif" font-size="10.00">descentDistanceThreshold()</text>
<polygon fill="#666666" stroke="#666666" points="561.5,-451.5 561.5,-451.5 719.5,-451.5 719.5,-451.5 561.5,-451.5"/>
<polygon fill="#666666" stroke="#666666" points="561.5,-436.5 561.5,-436.5 576.5,-436.5 576.5,-436.5 561.5,-436.5"/>
<polygon fill="#666666" stroke="#666666" points="576.5,-436.5 576.5,-436.5 719.5,-436.5 719.5,-436.5 576.5,-436.5"/>
<polygon fill="none" stroke="#666666" points="561.5,-315 561.5,-480 719.5,-480 719.5,-315 561.5,-315"/>
</a>
</g>
</g>
<!-- Node1&#45;&gt;Node7 -->
<g id="edge6_Node000001_Node000007" class="edge">
<title>Node1&#45;&gt;Node7</title>
<g id="a_edge6_Node000001_Node000007"><a xlink:title=" ">
<path fill="none" stroke="#63b8ff" d="M446.42,-522.56C480.33,-513.05 519.9,-499.17 552.5,-480 555.46,-478.26 558.41,-476.4 561.33,-474.46"/>
<polygon fill="none" stroke="#63b8ff" points="445.29,-519.24 436.56,-525.25 447.13,-526 445.29,-519.24"/>
</a>
</g>
</g>
<!-- Node3 -->
<g id="Node000003" class="node">
<title>Node3</title>
<g id="a_Node000003"><a xlink:href="group__spatialpartitioning.html" target="_top" xlink:title=" ">
<polygon fill="white" stroke="transparent" points="175.5,-279 15.5,-279 15.5,-152 175.5,-152 175.5,-279"/>
<text text-anchor="start" x="20.5" y="-266.5" font-family="Helvetica,sans-Serif" font-size="10.00">Ponca::Query&lt; QueryInput</text>
<text text-anchor="start" x="20.5" y="-255.5" font-family="Helvetica,sans-Serif" font-size="10.00">IsIndex&lt; _NeighborGraph</text>
<text text-anchor="start" x="20.5" y="-244.5" font-family="Helvetica,sans-Serif" font-size="10.00">::Traits::IndexType &gt;, Neighbor</text>
<text text-anchor="start" x="32.5" y="-233.5" font-family="Helvetica,sans-Serif" font-size="10.00">GraphQueryOutputType &gt;</text>
<text text-anchor="start" x="93.5" y="-218.5" font-family="Helvetica,sans-Serif" font-size="10.00"> </text>
<text text-anchor="start" x="40" y="-203.5" font-family="Helvetica,sans-Serif" font-size="10.00">+</text>
<text text-anchor="start" x="73.5" y="-203.5" font-family="Helvetica,sans-Serif" font-size="10.00">Query()</text>
<text text-anchor="start" x="40" y="-188.5" font-family="Helvetica,sans-Serif" font-size="10.00">+</text>
<text text-anchor="start" x="73.5" y="-188.5" font-family="Helvetica,sans-Serif" font-size="10.00">Query()</text>
<text text-anchor="start" x="40" y="-173.5" font-family="Helvetica,sans-Serif" font-size="10.00">+</text>
<text text-anchor="start" x="73.5" y="-173.5" font-family="Helvetica,sans-Serif" font-size="10.00">operator()()</text>
<text text-anchor="start" x="40" y="-158.5" font-family="Helvetica,sans-Serif" font-size="10.00">+</text>
<text text-anchor="start" x="73.5" y="-158.5" font-family="Helvetica,sans-Serif" font-size="10.00">operator()()</text>
<polygon fill="#666666" stroke="#666666" points="15.5,-228.5 15.5,-228.5 175.5,-228.5 175.5,-228.5 15.5,-228.5"/>
<polygon fill="#666666" stroke="#666666" points="15.5,-213.5 15.5,-213.5 175.5,-213.5 175.5,-213.5 15.5,-213.5"/>
<polygon fill="none" stroke="#666666" points="15.5,-152 15.5,-279 175.5,-279 175.5,-152 15.5,-152"/>
</a>
</g>
</g>
<!-- Node2&#45;&gt;Node3 -->
<g id="edge2_Node000002_Node000003" class="edge">
<title>Node2&#45;&gt;Node3</title>
<g id="a_edge2_Node000002_Node000003"><a xlink:title=" ">
<path fill="none" stroke="#63b8ff" d="M95.5,-357.17C95.5,-334.31 95.5,-304.98 95.5,-279.03"/>
<polygon fill="none" stroke="#63b8ff" points="92,-357.18 95.5,-367.18 99,-357.18 92,-357.18"/>
</a>
</g>
</g>
<!-- Node4 -->
<g id="Node000004" class="node">
<title>Node4</title>
<g id="a_Node000004"><a xlink:href="classPonca_1_1NeighborGraphOneConnectedQuery.html" target="_top" xlink:title="Extension of the Query class that allows to read the neighbors that are directly connected to the que...">
<polygon fill="white" stroke="transparent" points="191,-116 0,-116 0,0 191,0 191,-116"/>
<text text-anchor="start" x="5.5" y="-104" font-family="Helvetica,sans-Serif" font-size="10.00">Ponca::NeighborGraphOneConnected</text>
<text text-anchor="start" x="30.5" y="-93" font-family="Helvetica,sans-Serif" font-size="10.00">Query&lt; _NeighborGraph &gt;</text>
<text text-anchor="start" x="10.5" y="-78" font-family="Helvetica,sans-Serif" font-size="10.00">#</text>
<text text-anchor="start" x="29.5" y="-78" font-family="Helvetica,sans-Serif" font-size="10.00">m_graph</text>
<text text-anchor="start" x="10.5" y="-63" font-family="Helvetica,sans-Serif" font-size="10.00">+</text>
<text text-anchor="start" x="29.5" y="-63" font-family="Helvetica,sans-Serif" font-size="10.00">NeighborGraphOneConnected</text>
<text text-anchor="start" x="29.5" y="-52" font-family="Helvetica,sans-Serif" font-size="10.00">Query()</text>
<text text-anchor="start" x="10.5" y="-37" font-family="Helvetica,sans-Serif" font-size="10.00">+</text>
<text text-anchor="start" x="29.5" y="-37" font-family="Helvetica,sans-Serif" font-size="10.00">operator()()</text>
<text text-anchor="start" x="10.5" y="-22" font-family="Helvetica,sans-Serif" font-size="10.00">+</text>
<text text-anchor="start" x="29.5" y="-22" font-family="Helvetica,sans-Serif" font-size="10.00">begin()</text>
<text text-anchor="start" x="10.5" y="-7" font-family="Helvetica,sans-Serif" font-size="10.00">+</text>
<text text-anchor="start" x="29.5" y="-7" font-family="Helvetica,sans-Serif" font-size="10.00">end()</text>
<polygon fill="#666666" stroke="#666666" points="0.5,-88 0.5,-88 191.5,-88 191.5,-88 0.5,-88"/>
<polygon fill="#666666" stroke="#666666" points="0.5,-73 0.5,-73 27.5,-73 27.5,-73 0.5,-73"/>
<polygon fill="#666666" stroke="#666666" points="27.5,-73 27.5,-73 191.5,-73 191.5,-73 27.5,-73"/>
<polygon fill="none" stroke="#666666" points="0,0 0,-116 191,-116 191,0 0,0"/>
</a>
</g>
</g>
<!-- Node3&#45;&gt;Node4 -->
<g id="edge3_Node000003_Node000004" class="edge">
<title>Node3&#45;&gt;Node4</title>
<g id="a_edge3_Node000003_Node000004"><a xlink:title=" ">
<path fill="none" stroke="#63b8ff" d="M95.5,-141.66C95.5,-133.05 95.5,-124.36 95.5,-116.01"/>
<polygon fill="none" stroke="#63b8ff" points="92,-141.7 95.5,-151.7 99,-141.7 92,-141.7"/>
</a>
</g>
</g>
</g>
</svg>
