<?xml version="1.0" encoding="UTF-8" standalone="no"?>
<!DOCTYPE svg PUBLIC "-//W3C//DTD SVG 1.1//EN"
 "http://www.w3.org/Graphics/SVG/1.1/DTD/svg11.dtd">
<!-- Generated by graphviz version 2.43.0 (0)
 -->
<!-- Title: Ponca::NeighborGraphQueryOutputType Pages: 1 -->
<svg width="199pt" height="468pt"
 viewBox="0.00 0.00 199.00 468.00" xmlns="http://www.w3.org/2000/svg" xmlns:xlink="http://www.w3.org/1999/xlink">
<g id="graph0" class="graph" transform="scale(1 1) rotate(0) translate(4 464)">
<title>Ponca::NeighborGraphQueryOutputType</title>
<!-- Node1 -->
<g id="Node000001" class="node">
<title>Node1</title>
<g id="a_Node000001"><a xlink:title="Output type of the NeighborGraphOneConnectedQuery.">
<polygon fill="#999999" stroke="transparent" points="170,-375 21,-375 21,-315 170,-315 170,-375"/>
<text text-anchor="start" x="26.5" y="-363" font-family="Helvetica,sans-Serif" font-size="10.00">Ponca::NeighborGraphQuery</text>
<text text-anchor="start" x="68" y="-352" font-family="Helvetica,sans-Serif" font-size="10.00">OutputType</text>
<text text-anchor="start" x="94" y="-337" font-family="Helvetica,sans-Serif" font-size="10.00"> </text>
<text text-anchor="start" x="94" y="-322" font-family="Helvetica,sans-Serif" font-size="10.00"> </text>
<polygon fill="#666666" stroke="#666666" points="21.5,-347 21.5,-347 170.5,-347 170.5,-347 21.5,-347"/>
<polygon fill="#666666" stroke="#666666" points="21.5,-332 21.5,-332 170.5,-332 170.5,-332 21.5,-332"/>
<polygon fill="none" stroke="#666666" points="21,-315 21,-375 170,-375 170,-315 21,-315"/>
</a>
</g>
</g>
<!-- Node3 -->
<g id="Node000003" class="node">
<title>Node3</title>
<g id="a_Node000003"><a xlink:href="group__spatialpartitioning.html" target="_top" xlink:title=" ">
<polygon fill="white" stroke="transparent" points="175.5,-279 15.5,-279 15.5,-152 175.5,-152 175.5,-279"/>
<text text-anchor="start" x="20.5" y="-266.5" font-family="Helvetica,sans-Serif" font-size="10.00">Ponca::Query&lt; QueryInput</text>
<text text-anchor="start" x="20.5" y="-255.5" font-family="Helvetica,sans-Serif" font-size="10.00">IsIndex&lt; _NeighborGraph</text>
<text text-anchor="start" x="20.5" y="-244.5" font-family="Helvetica,sans-Serif" font-size="10.00">::Traits::IndexType &gt;, Neighbor</text>
<text text-anchor="start" x="32.5" y="-233.5" font-family="Helvetica,sans-Serif" font-size="10.00">GraphQueryOutputType &gt;</text>
<text text-anchor="start" x="93.5" y="-218.5" font-family="Helvetica,sans-Serif" font-size="10.00"> </text>
<text text-anchor="start" x="40" y="-203.5" font-family="Helvetica,sans-Serif" font-size="10.00">+</text>
<text text-anchor="start" x="73.5" y="-203.5" font-family="Helvetica,sans-Serif" font-size="10.00">Query()</text>
<text text-anchor="start" x="40" y="-188.5" font-family="Helvetica,sans-Serif" font-size="10.00">+</text>
<text text-anchor="start" x="73.5" y="-188.5" font-family="Helvetica,sans-Serif" font-size="10.00">Query()</text>
<text text-anchor="start" x="40" y="-173.5" font-family="Helvetica,sans-Serif" font-size="10.00">+</text>
<text text-anchor="start" x="73.5" y="-173.5" font-family="Helvetica,sans-Serif" font-size="10.00">operator()()</text>
<text text-anchor="start" x="40" y="-158.5" font-family="Helvetica,sans-Serif" font-size="10.00">+</text>
<text text-anchor="start" x="73.5" y="-158.5" font-family="Helvetica,sans-Serif" font-size="10.00">operator()()</text>
<polygon fill="#666666" stroke="#666666" points="15.5,-228.5 15.5,-228.5 175.5,-228.5 175.5,-228.5 15.5,-228.5"/>
<polygon fill="#666666" stroke="#666666" points="15.5,-213.5 15.5,-213.5 175.5,-213.5 175.5,-213.5 15.5,-213.5"/>
<polygon fill="none" stroke="#666666" points="15.5,-152 15.5,-279 175.5,-279 175.5,-152 15.5,-152"/>
</a>
</g>
</g>
<!-- Node1&#45;&gt;Node3 -->
<g id="edge2_Node000001_Node000003" class="edge">
<title>Node1&#45;&gt;Node3</title>
<g id="a_edge2_Node000001_Node000003"><a xlink:title=" ">
<path fill="none" stroke="#63b8ff" d="M95.5,-304.55C95.5,-296.48 95.5,-287.79 95.5,-279.14"/>
<polygon fill="none" stroke="#63b8ff" points="92,-304.75 95.5,-314.75 99,-304.75 92,-304.75"/>
</a>
</g>
</g>
<!-- Node2 -->
<g id="Node000002" class="node">
<title>Node2</title>
<g id="a_Node000002"><a xlink:href="group__spatialpartitioning.html#structPonca_1_1QueryOutputBase" target="_top" xlink:title="Base class for queries output types.">
<polygon fill="white" stroke="transparent" points="161.5,-460 29.5,-460 29.5,-411 161.5,-411 161.5,-460"/>
<text text-anchor="start" x="34.5" y="-447.5" font-family="Helvetica,sans-Serif" font-size="10.00">Ponca::QueryOutputBase</text>
<text text-anchor="start" x="93.5" y="-432.5" font-family="Helvetica,sans-Serif" font-size="10.00"> </text>
<text text-anchor="start" x="93.5" y="-417.5" font-family="Helvetica,sans-Serif" font-size="10.00"> </text>
<polygon fill="#666666" stroke="#666666" points="29.5,-442.5 29.5,-442.5 161.5,-442.5 161.5,-442.5 29.5,-442.5"/>
<polygon fill="#666666" stroke="#666666" points="29.5,-427.5 29.5,-427.5 161.5,-427.5 161.5,-427.5 29.5,-427.5"/>
<polygon fill="none" stroke="#666666" points="29.5,-411 29.5,-460 161.5,-460 161.5,-411 29.5,-411"/>
</a>
</g>
</g>
<!-- Node2&#45;&gt;Node1 -->
<g id="edge1_Node000001_Node000002" class="edge">
<title>Node2&#45;&gt;Node1</title>
<g id="a_edge1_Node000001_Node000002"><a xlink:title=" ">
<path fill="none" stroke="#63b8ff" d="M95.5,-400.55C95.5,-392.18 95.5,-383.28 95.5,-375.16"/>
<polygon fill="none" stroke="#63b8ff" points="92,-400.78 95.5,-410.78 99,-400.78 92,-400.78"/>
</a>
</g>
</g>
<!-- Node4 -->
<g id="Node000004" class="node">
<title>Node4</title>
<g id="a_Node000004"><a xlink:href="classPonca_1_1NeighborGraphOneConnectedQuery.html" target="_top" xlink:title="Extension of the Query class that allows to read the neighbors that are directly connected to the que...">
<polygon fill="white" stroke="transparent" points="191,-116 0,-116 0,0 191,0 191,-116"/>
<text text-anchor="start" x="5.5" y="-104" font-family="Helvetica,sans-Serif" font-size="10.00">Ponca::NeighborGraphOneConnected</text>
<text text-anchor="start" x="30.5" y="-93" font-family="Helvetica,sans-Serif" font-size="10.00">Query&lt; _NeighborGraph &gt;</text>
<text text-anchor="start" x="10.5" y="-78" font-family="Helvetica,sans-Serif" font-size="10.00">#</text>
<text text-anchor="start" x="29.5" y="-78" font-family="Helvetica,sans-Serif" font-size="10.00">m_graph</text>
<text text-anchor="start" x="10.5" y="-63" font-family="Helvetica,sans-Serif" font-size="10.00">+</text>
<text text-anchor="start" x="29.5" y="-63" font-family="Helvetica,sans-Serif" font-size="10.00">NeighborGraphOneConnected</text>
<text text-anchor="start" x="29.5" y="-52" font-family="Helvetica,sans-Serif" font-size="10.00">Query()</text>
<text text-anchor="start" x="10.5" y="-37" font-family="Helvetica,sans-Serif" font-size="10.00">+</text>
<text text-anchor="start" x="29.5" y="-37" font-family="Helvetica,sans-Serif" font-size="10.00">operator()()</text>
<text text-anchor="start" x="10.5" y="-22" font-family="Helvetica,sans-Serif" font-size="10.00">+</text>
<text text-anchor="start" x="29.5" y="-22" font-family="Helvetica,sans-Serif" font-size="10.00">begin()</text>
<text text-anchor="start" x="10.5" y="-7" font-family="Helvetica,sans-Serif" font-size="10.00">+</text>
<text text-anchor="start" x="29.5" y="-7" font-family="Helvetica,sans-Serif" font-size="10.00">end()</text>
<polygon fill="#666666" stroke="#666666" points="0.5,-88 0.5,-88 191.5,-88 191.5,-88 0.5,-88"/>
<polygon fill="#666666" stroke="#666666" points="0.5,-73 0.5,-73 27.5,-73 27.5,-73 0.5,-73"/>
<polygon fill="#666666" stroke="#666666" points="27.5,-73 27.5,-73 191.5,-73 191.5,-73 27.5,-73"/>
<polygon fill="none" stroke="#666666" points="0,0 0,-116 191,-116 191,0 0,0"/>
</a>
</g>
</g>
<!-- Node3&#45;&gt;Node4 -->
<g id="edge3_Node000003_Node000004" class="edge">
<title>Node3&#45;&gt;Node4</title>
<g id="a_edge3_Node000003_Node000004"><a xlink:title=" ">
<path fill="none" stroke="#63b8ff" d="M95.5,-141.66C95.5,-133.05 95.5,-124.36 95.5,-116.01"/>
<polygon fill="none" stroke="#63b8ff" points="92,-141.7 95.5,-151.7 99,-141.7 92,-141.7"/>
</a>
</g>
</g>
</g>
</svg>
