<?xml version="1.0" encoding="UTF-8" standalone="no"?>
<!DOCTYPE svg PUBLIC "-//W3C//DTD SVG 1.1//EN"
 "http://www.w3.org/Graphics/SVG/1.1/DTD/svg11.dtd">
<!-- Generated by graphviz version 2.43.0 (0)
 -->
<!-- Title: Ponca::RangeIndexQuery&lt; Scalar &gt; Pages: 1 -->
<!--zoomable 1025 -->
<svg id="main" version="1.1" xmlns="http://www.w3.org/2000/svg" xmlns:xlink="http://www.w3.org/1999/xlink" xml:space="preserve" onload="init(evt)">
<style type="text/css"><![CDATA[
.edge:hover path { stroke: red; }
.edge:hover polygon { stroke: red; fill: red; }
]]></style>
<script type="text/javascript"><![CDATA[
var edges = document.getElementsByTagName('g');
if (edges && edges.length) {
  for (var i=0;i<edges.length;i++) {
    if (edges[i].id.substr(0,4)=='edge') {
      edges[i].setAttribute('class','edge');
    }
  }
}
]]></script>
        <defs>
                <circle id="rim" cx="0" cy="0" r="7"/>
                <circle id="rim2" cx="0" cy="0" r="3.5"/>
                <g id="zoomPlus">
                        <use xlink:href="#rim" fill="#404040">
                                <set attributeName="fill" to="#808080" begin="zoomplus.mouseover" end="zoomplus.mouseout"/>
                        </use>
                        <path d="M-4,0h8M0,-4v8" fill="none" stroke="white" stroke-width="1.5" pointer-events="none"/>
                </g>
                <g id="zoomMin">
                        <use xlink:href="#rim" fill="#404040">
                                <set attributeName="fill" to="#808080" begin="zoomminus.mouseover" end="zoomminus.mouseout"/>
                        </use>
                        <path d="M-4,0h8" fill="none" stroke="white" stroke-width="1.5" pointer-events="none"/>
                </g>
                <g id="dirArrow">
                        <path fill="none" stroke="white" stroke-width="1.5" d="M0,-3.0v7 M-2.5,-0.5L0,-3.0L2.5,-0.5"/>
                </g>
               <g id="resetDef">
                       <use xlink:href="#rim2" fill="#404040">
                               <set attributeName="fill" to="#808080" begin="reset.mouseover" end="reset.mouseout"/>
                       </use>
               </g>
        </defs>

<script type="text/javascript">
var viewWidth = 472;
var viewHeight = 1025;
var sectionId = 'dynsection-0';
</script>
<script xlink:href="svgpan.js"/>
<svg id="graph" class="graph">
<g id="viewport">
<title>Ponca::RangeIndexQuery&lt; Scalar &gt;</title>
<!-- Node1 -->
<g id="node1" class="node">
<title>Node1</title>
<g id="a_node1"><a xlink:title="Base Query class combining QueryInputIsIndex and QueryOutputIsRange.">
<polygon fill="#bfbfbf" stroke="black" points="166,-266.5 166,-334.5 305,-334.5 305,-266.5 166,-266.5"/>
<text text-anchor="start" x="174" y="-322.5" font-family="Helvetica,sans-Serif" font-size="10.00">Ponca::RangeIndexQuery</text>
<text text-anchor="middle" x="235.5" y="-311.5" font-family="Helvetica,sans-Serif" font-size="10.00">&lt; Scalar &gt;</text>
<polyline fill="none" stroke="black" points="166,-304.5 305,-304.5 "/>
<text text-anchor="middle" x="235.5" y="-292.5" font-family="Helvetica,sans-Serif" font-size="10.00"> </text>
<polyline fill="none" stroke="black" points="166,-285.5 305,-285.5 "/>
<text text-anchor="middle" x="235.5" y="-273.5" font-family="Helvetica,sans-Serif" font-size="10.00"> </text>
</a>
</g>
</g>
<!-- Node12 -->
<g id="node12" class="node">
<title>Node12</title>
<g id="a_node12"><a xlink:href="structPonca_1_1RangeIndexQuery.html" target="_top" xlink:title=" ">
<polygon fill="none" stroke="black" points="166,-150.5 166,-218.5 305,-218.5 305,-150.5 166,-150.5"/>
<text text-anchor="start" x="174" y="-206.5" font-family="Helvetica,sans-Serif" font-size="10.00">Ponca::RangeIndexQuery</text>
<text text-anchor="middle" x="235.5" y="-195.5" font-family="Helvetica,sans-Serif" font-size="10.00">&lt; DataPoint::Scalar &gt;</text>
<polyline fill="none" stroke="black" points="166,-188.5 305,-188.5 "/>
<text text-anchor="middle" x="235.5" y="-176.5" font-family="Helvetica,sans-Serif" font-size="10.00"> </text>
<polyline fill="none" stroke="black" points="166,-169.5 305,-169.5 "/>
<text text-anchor="middle" x="235.5" y="-157.5" font-family="Helvetica,sans-Serif" font-size="10.00"> </text>
</a>
</g>
</g>
<!-- Node1&#45;&gt;Node12 -->
<g id="edge12" class="edge">
<title>Node1&#45;&gt;Node12</title>
<path fill="none" stroke="orange" d="M235.5,-256.06C235.5,-243.64 235.5,-230.32 235.5,-218.62"/>
<polygon fill="orange" stroke="orange" points="232,-256.22 235.5,-266.22 239,-256.22 232,-256.22"/>
<text text-anchor="middle" x="290.5" y="-240" font-family="Helvetica,sans-Serif" font-size="10.00"> &lt; DataPoint::Scalar &gt;</text>
</g>
<!-- Node2 -->
<g id="node2" class="node">
<title>Node2</title>
<g id="a_node2"><a xlink:href="structPonca_1_1Query.html" target="_top" xlink:title=" ">
<polygon fill="none" stroke="black" points="156,-372.5 156,-462.5 315,-462.5 315,-372.5 156,-372.5"/>
<text text-anchor="start" x="164" y="-450.5" font-family="Helvetica,sans-Serif" font-size="10.00">Ponca::Query&lt; QueryInput</text>
<text text-anchor="start" x="164" y="-439.5" font-family="Helvetica,sans-Serif" font-size="10.00">IsIndex, QueryOutputIsRange</text>
<text text-anchor="middle" x="235.5" y="-428.5" font-family="Helvetica,sans-Serif" font-size="10.00">&lt; Scalar &gt; &gt;</text>
<polyline fill="none" stroke="black" points="156,-421.5 315,-421.5 "/>
<text text-anchor="middle" x="235.5" y="-409.5" font-family="Helvetica,sans-Serif" font-size="10.00"> </text>
<polyline fill="none" stroke="black" points="156,-402.5 315,-402.5 "/>
<text text-anchor="start" x="164" y="-390.5" font-family="Helvetica,sans-Serif" font-size="10.00">+ Query()</text>
<text text-anchor="start" x="164" y="-379.5" font-family="Helvetica,sans-Serif" font-size="10.00">+ Query()</text>
</a>
</g>
</g>
<!-- Node2&#45;&gt;Node1 -->
<g id="edge1" class="edge">
<title>Node2&#45;&gt;Node1</title>
<path fill="none" stroke="midnightblue" d="M235.5,-362.23C235.5,-352.8 235.5,-343.26 235.5,-334.62"/>
<polygon fill="none" stroke="midnightblue" points="232,-362.37 235.5,-372.37 239,-362.37 232,-362.37"/>
</g>
<!-- Node3 -->
<g id="node3" class="node">
<title>Node3</title>
<g id="a_node3"><a xlink:href="structPonca_1_1QueryInputIsIndex.html" target="_top" xlink:title="Base class for queries storing points.">
<polygon fill="none" stroke="black" points="0,-565.5 0,-622.5 141,-622.5 141,-565.5 0,-565.5"/>
<text text-anchor="middle" x="70.5" y="-610.5" font-family="Helvetica,sans-Serif" font-size="10.00">Ponca::QueryInputIsIndex</text>
<polyline fill="none" stroke="black" points="0,-603.5 141,-603.5 "/>
<text text-anchor="middle" x="70.5" y="-591.5" font-family="Helvetica,sans-Serif" font-size="10.00"> </text>
<polyline fill="none" stroke="black" points="0,-584.5 141,-584.5 "/>
<text text-anchor="start" x="8" y="-572.5" font-family="Helvetica,sans-Serif" font-size="10.00">+ QueryInputIsIndex()</text>
</a>
</g>
</g>
<!-- Node3&#45;&gt;Node2 -->
<g id="edge2" class="edge">
<title>Node3&#45;&gt;Node2</title>
<path fill="none" stroke="midnightblue" d="M103.67,-557.92C129.61,-530.49 165.82,-492.19 193.73,-462.67"/>
<polygon fill="none" stroke="midnightblue" points="100.97,-555.68 96.64,-565.35 106.06,-560.49 100.97,-555.68"/>
</g>
<!-- Node4 -->
<g id="node4" class="node">
<title>Node4</title>
<g id="a_node4"><a xlink:href="structPonca_1_1QueryInput.html" target="_top" xlink:title=" ">
<polygon fill="none" stroke="black" points="13.5,-693.5 13.5,-783.5 127.5,-783.5 127.5,-693.5 13.5,-693.5"/>
<text text-anchor="start" x="21.5" y="-771.5" font-family="Helvetica,sans-Serif" font-size="10.00">Ponca::QueryInput&lt;</text>
<text text-anchor="middle" x="70.5" y="-760.5" font-family="Helvetica,sans-Serif" font-size="10.00"> int &gt;</text>
<polyline fill="none" stroke="black" points="13.5,-753.5 127.5,-753.5 "/>
<text text-anchor="middle" x="70.5" y="-741.5" font-family="Helvetica,sans-Serif" font-size="10.00"> </text>
<polyline fill="none" stroke="black" points="13.5,-734.5 127.5,-734.5 "/>
<text text-anchor="start" x="21.5" y="-722.5" font-family="Helvetica,sans-Serif" font-size="10.00">+ QueryInput()</text>
<text text-anchor="start" x="21.5" y="-711.5" font-family="Helvetica,sans-Serif" font-size="10.00">+ input()</text>
<text text-anchor="start" x="21.5" y="-700.5" font-family="Helvetica,sans-Serif" font-size="10.00"># editInput()</text>
</a>
</g>
</g>
<!-- Node4&#45;&gt;Node3 -->
<g id="edge3" class="edge">
<title>Node4&#45;&gt;Node3</title>
<path fill="none" stroke="midnightblue" d="M70.5,-682.96C70.5,-662.37 70.5,-639.81 70.5,-622.69"/>
<polygon fill="none" stroke="midnightblue" points="67,-683.19 70.5,-693.19 74,-683.19 67,-683.19"/>
</g>
<!-- Node5 -->
<g id="node5" class="node">
<title>Node5</title>
<g id="a_node5"><a xlink:href="structPonca_1_1QueryInputBase.html" target="_top" xlink:title="Base class for queries input type.">
<polygon fill="none" stroke="black" points="1.5,-959.5 1.5,-1016.5 131.5,-1016.5 131.5,-959.5 1.5,-959.5"/>
<text text-anchor="middle" x="66.5" y="-1004.5" font-family="Helvetica,sans-Serif" font-size="10.00">Ponca::QueryInputBase</text>
<polyline fill="none" stroke="black" points="1.5,-997.5 131.5,-997.5 "/>
<text text-anchor="middle" x="66.5" y="-985.5" font-family="Helvetica,sans-Serif" font-size="10.00"> </text>
<polyline fill="none" stroke="black" points="1.5,-978.5 131.5,-978.5 "/>
<text text-anchor="middle" x="66.5" y="-966.5" font-family="Helvetica,sans-Serif" font-size="10.00"> </text>
</a>
</g>
</g>
<!-- Node5&#45;&gt;Node4 -->
<g id="edge4" class="edge">
<title>Node5&#45;&gt;Node4</title>
<path fill="none" stroke="midnightblue" d="M67.11,-948.96C67.84,-904.36 69.03,-830.58 69.79,-783.54"/>
<polygon fill="none" stroke="midnightblue" points="63.61,-949.03 66.95,-959.09 70.61,-949.15 63.61,-949.03"/>
</g>
<!-- Node6 -->
<g id="node6" class="node">
<title>Node6</title>
<g id="a_node6"><a xlink:href="structPonca_1_1QueryInput.html" target="_top" xlink:title="Base class for typed queries input type.">
<polygon fill="none" stroke="black" points="82.5,-831.5 82.5,-921.5 196.5,-921.5 196.5,-831.5 82.5,-831.5"/>
<text text-anchor="start" x="90.5" y="-909.5" font-family="Helvetica,sans-Serif" font-size="10.00">Ponca::QueryInput&lt;</text>
<text text-anchor="middle" x="139.5" y="-898.5" font-family="Helvetica,sans-Serif" font-size="10.00"> InputType_ &gt;</text>
<polyline fill="none" stroke="black" points="82.5,-891.5 196.5,-891.5 "/>
<text text-anchor="middle" x="139.5" y="-879.5" font-family="Helvetica,sans-Serif" font-size="10.00"> </text>
<polyline fill="none" stroke="black" points="82.5,-872.5 196.5,-872.5 "/>
<text text-anchor="start" x="90.5" y="-860.5" font-family="Helvetica,sans-Serif" font-size="10.00">+ QueryInput()</text>
<text text-anchor="start" x="90.5" y="-849.5" font-family="Helvetica,sans-Serif" font-size="10.00">+ input()</text>
<text text-anchor="start" x="90.5" y="-838.5" font-family="Helvetica,sans-Serif" font-size="10.00"># editInput()</text>
</a>
</g>
</g>
<!-- Node5&#45;&gt;Node6 -->
<g id="edge6" class="edge">
<title>Node5&#45;&gt;Node6</title>
<path fill="none" stroke="midnightblue" d="M90.47,-951.04C96.72,-941.68 103.51,-931.48 110.01,-921.74"/>
<polygon fill="none" stroke="midnightblue" points="87.56,-949.11 84.92,-959.37 93.38,-952.99 87.56,-949.11"/>
</g>
<!-- Node6&#45;&gt;Node4 -->
<g id="edge5" class="edge">
<title>Node6&#45;&gt;Node4</title>
<path fill="none" stroke="orange" d="M112.49,-822.26C106.05,-809.56 99.24,-796.15 93.03,-783.9"/>
<polygon fill="orange" stroke="orange" points="109.45,-824.01 117.1,-831.34 115.69,-820.84 109.45,-824.01"/>
<text text-anchor="middle" x="127" y="-805" font-family="Helvetica,sans-Serif" font-size="10.00"> &lt; int &gt;</text>
</g>
<!-- Node7 -->
<g id="node7" class="node">
<title>Node7</title>
<g id="a_node7"><a xlink:href="structPonca_1_1QueryOutputIsRange.html" target="_top" xlink:title="Base class for range queries.">
<polygon fill="none" stroke="black" points="159,-532.5 159,-655.5 312,-655.5 312,-532.5 159,-532.5"/>
<text text-anchor="start" x="167" y="-643.5" font-family="Helvetica,sans-Serif" font-size="10.00">Ponca::QueryOutputIsRange</text>
<text text-anchor="middle" x="235.5" y="-632.5" font-family="Helvetica,sans-Serif" font-size="10.00">&lt; Scalar &gt;</text>
<polyline fill="none" stroke="black" points="159,-625.5 312,-625.5 "/>
<text text-anchor="start" x="167" y="-613.5" font-family="Helvetica,sans-Serif" font-size="10.00"># m_squared_radius</text>
<polyline fill="none" stroke="black" points="159,-606.5 312,-606.5 "/>
<text text-anchor="start" x="167" y="-594.5" font-family="Helvetica,sans-Serif" font-size="10.00">+ QueryOutputIsRange()</text>
<text text-anchor="start" x="167" y="-583.5" font-family="Helvetica,sans-Serif" font-size="10.00">+ radius()</text>
<text text-anchor="start" x="167" y="-572.5" font-family="Helvetica,sans-Serif" font-size="10.00">+ squared_radius()</text>
<text text-anchor="start" x="167" y="-561.5" font-family="Helvetica,sans-Serif" font-size="10.00">+ set_radius()</text>
<text text-anchor="start" x="167" y="-550.5" font-family="Helvetica,sans-Serif" font-size="10.00">+ set_squared_radius()</text>
<text text-anchor="start" x="167" y="-539.5" font-family="Helvetica,sans-Serif" font-size="10.00"># reset()</text>
</a>
</g>
</g>
<!-- Node7&#45;&gt;Node2 -->
<g id="edge7" class="edge">
<title>Node7&#45;&gt;Node2</title>
<path fill="none" stroke="midnightblue" d="M235.5,-522.36C235.5,-502.2 235.5,-480.8 235.5,-462.71"/>
<polygon fill="none" stroke="midnightblue" points="232,-522.46 235.5,-532.46 239,-522.46 232,-522.46"/>
</g>
<!-- Node8 -->
<g id="node8" class="node">
<title>Node8</title>
<g id="a_node8"><a xlink:href="structPonca_1_1QueryOutputBase.html" target="_top" xlink:title="Base class for queries output type.">
<polygon fill="none" stroke="black" points="166.5,-710 166.5,-767 304.5,-767 304.5,-710 166.5,-710"/>
<text text-anchor="middle" x="235.5" y="-755" font-family="Helvetica,sans-Serif" font-size="10.00">Ponca::QueryOutputBase</text>
<polyline fill="none" stroke="black" points="166.5,-748 304.5,-748 "/>
<text text-anchor="middle" x="235.5" y="-736" font-family="Helvetica,sans-Serif" font-size="10.00"> </text>
<polyline fill="none" stroke="black" points="166.5,-729 304.5,-729 "/>
<text text-anchor="middle" x="235.5" y="-717" font-family="Helvetica,sans-Serif" font-size="10.00"> </text>
</a>
</g>
</g>
<!-- Node8&#45;&gt;Node7 -->
<g id="edge8" class="edge">
<title>Node8&#45;&gt;Node7</title>
<path fill="none" stroke="midnightblue" d="M235.5,-699.41C235.5,-686 235.5,-670.58 235.5,-655.77"/>
<polygon fill="none" stroke="midnightblue" points="232,-699.69 235.5,-709.69 239,-699.69 232,-699.69"/>
</g>
<!-- Node9 -->
<g id="node9" class="node">
<title>Node9</title>
<g id="a_node9"><a xlink:href="structPonca_1_1Query.html" target="_top" xlink:title=" ">
<polygon fill="none" stroke="black" points="330,-554.5 330,-633.5 447,-633.5 447,-554.5 330,-554.5"/>
<text text-anchor="start" x="338" y="-621.5" font-family="Helvetica,sans-Serif" font-size="10.00">Ponca::Query&lt; Input</text>
<text text-anchor="middle" x="388.5" y="-610.5" font-family="Helvetica,sans-Serif" font-size="10.00">_, Output_ &gt;</text>
<polyline fill="none" stroke="black" points="330,-603.5 447,-603.5 "/>
<text text-anchor="middle" x="388.5" y="-591.5" font-family="Helvetica,sans-Serif" font-size="10.00"> </text>
<polyline fill="none" stroke="black" points="330,-584.5 447,-584.5 "/>
<text text-anchor="start" x="338" y="-572.5" font-family="Helvetica,sans-Serif" font-size="10.00">+ Query()</text>
<text text-anchor="start" x="338" y="-561.5" font-family="Helvetica,sans-Serif" font-size="10.00">+ Query()</text>
</a>
</g>
</g>
<!-- Node9&#45;&gt;Node2 -->
<g id="edge9" class="edge">
<title>Node9&#45;&gt;Node2</title>
<path fill="none" stroke="orange" d="M347.66,-546.42C324.87,-520.43 296.65,-488.24 274.21,-462.65"/>
<polygon fill="orange" stroke="orange" points="345.32,-549.06 354.54,-554.27 350.58,-544.45 345.32,-549.06"/>
<text text-anchor="start" x="317.5" y="-506" font-family="Helvetica,sans-Serif" font-size="10.00"> &lt; QueryInputIsIndex,</text>
<text text-anchor="start" x="317.5" y="-495" font-family="Helvetica,sans-Serif" font-size="10.00"> QueryOutputIsRange</text>
<text text-anchor="middle" x="371" y="-484" font-family="Helvetica,sans-Serif" font-size="10.00">&lt; Scalar &gt; &gt;</text>
</g>
<!-- Node10 -->
<g id="node10" class="node">
<title>Node10</title>
<g id="a_node10"><a xlink:title=" ">
<polygon fill="none" stroke="#bfbfbf" points="344,-710 344,-767 391,-767 391,-710 344,-710"/>
<text text-anchor="middle" x="367.5" y="-755" font-family="Helvetica,sans-Serif" font-size="10.00">Input_</text>
<polyline fill="none" stroke="#bfbfbf" points="344,-748 391,-748 "/>
<text text-anchor="middle" x="367.5" y="-736" font-family="Helvetica,sans-Serif" font-size="10.00"> </text>
<polyline fill="none" stroke="#bfbfbf" points="344,-729 391,-729 "/>
<text text-anchor="middle" x="367.5" y="-717" font-family="Helvetica,sans-Serif" font-size="10.00"> </text>
</a>
</g>
</g>
<!-- Node10&#45;&gt;Node9 -->
<g id="edge10" class="edge">
<title>Node10&#45;&gt;Node9</title>
<path fill="none" stroke="midnightblue" d="M373.06,-699.77C376.07,-679.32 379.79,-654.1 382.82,-633.52"/>
<polygon fill="none" stroke="midnightblue" points="369.59,-699.28 371.6,-709.69 376.52,-700.3 369.59,-699.28"/>
</g>
<!-- Node11 -->
<g id="node11" class="node">
<title>Node11</title>
<g id="a_node11"><a xlink:title=" ">
<polygon fill="none" stroke="#bfbfbf" points="409,-710 409,-767 464,-767 464,-710 409,-710"/>
<text text-anchor="middle" x="436.5" y="-755" font-family="Helvetica,sans-Serif" font-size="10.00">Output_</text>
<polyline fill="none" stroke="#bfbfbf" points="409,-748 464,-748 "/>
<text text-anchor="middle" x="436.5" y="-736" font-family="Helvetica,sans-Serif" font-size="10.00"> </text>
<polyline fill="none" stroke="#bfbfbf" points="409,-729 464,-729 "/>
<text text-anchor="middle" x="436.5" y="-717" font-family="Helvetica,sans-Serif" font-size="10.00"> </text>
</a>
</g>
</g>
<!-- Node11&#45;&gt;Node9 -->
<g id="edge11" class="edge">
<title>Node11&#45;&gt;Node9</title>
<path fill="none" stroke="midnightblue" d="M423.89,-700.05C416.98,-679.55 408.44,-654.19 401.48,-633.52"/>
<polygon fill="none" stroke="midnightblue" points="420.62,-701.33 427.13,-709.69 427.26,-699.09 420.62,-701.33"/>
</g>
<!-- Node13 -->
<g id="node13" class="node">
<title>Node13</title>
<g id="a_node13"><a xlink:href="classPonca_1_1KdTreeRangeIndexQuery.html" target="_top" xlink:title=" ">
<polygon fill="none" stroke="black" points="149.5,-0.5 149.5,-112.5 321.5,-112.5 321.5,-0.5 149.5,-0.5"/>
<text text-anchor="start" x="157.5" y="-100.5" font-family="Helvetica,sans-Serif" font-size="10.00">Ponca::KdTreeRangeIndexQuery</text>
<text text-anchor="middle" x="235.5" y="-89.5" font-family="Helvetica,sans-Serif" font-size="10.00">&lt; DataPoint &gt;</text>
<polyline fill="none" stroke="black" points="149.5,-82.5 321.5,-82.5 "/>
<text text-anchor="start" x="157.5" y="-70.5" font-family="Helvetica,sans-Serif" font-size="10.00"># Iterator</text>
<polyline fill="none" stroke="black" points="149.5,-63.5 321.5,-63.5 "/>
<text text-anchor="start" x="157.5" y="-51.5" font-family="Helvetica,sans-Serif" font-size="10.00">+ KdTreeRangeIndexQuery()</text>
<text text-anchor="start" x="157.5" y="-40.5" font-family="Helvetica,sans-Serif" font-size="10.00">+ begin()</text>
<text text-anchor="start" x="157.5" y="-29.5" font-family="Helvetica,sans-Serif" font-size="10.00">+ end()</text>
<text text-anchor="start" x="157.5" y="-18.5" font-family="Helvetica,sans-Serif" font-size="10.00"># initialize()</text>
<text text-anchor="start" x="157.5" y="-7.5" font-family="Helvetica,sans-Serif" font-size="10.00"># advance()</text>
</a>
</g>
</g>
<!-- Node12&#45;&gt;Node13 -->
<g id="edge13" class="edge">
<title>Node12&#45;&gt;Node13</title>
<path fill="none" stroke="midnightblue" d="M235.5,-140.31C235.5,-131.45 235.5,-122.01 235.5,-112.79"/>
<polygon fill="none" stroke="midnightblue" points="232,-140.39 235.5,-150.39 239,-140.4 232,-140.39"/>
</g>
</g>
</svg>
        <g id="navigator" transform="translate(0 0)" fill="#404254">
                <rect fill="#f2f5e9" fill-opacity="0.5" stroke="#606060" stroke-width=".5" x="0" y="0" width="60" height="60"/>
                <use id="zoomplus" xlink:href="#zoomPlus" x="17" y="9" onmousedown="handleZoom(evt,'in')"/>
                <use id="zoomminus" xlink:href="#zoomMin" x="42" y="9" onmousedown="handleZoom(evt,'out')"/>
                <use id="reset" xlink:href="#resetDef" x="30" y="36" onmousedown="handleReset()"/>
                <g id="arrowUp" xlink:href="#dirArrow" transform="translate(30 24)" onmousedown="handlePan(0,-1)">
                  <use xlink:href="#rim" fill="#404040">
                        <set attributeName="fill" to="#808080" begin="arrowUp.mouseover" end="arrowUp.mouseout"/>
                  </use>
                  <path fill="none" stroke="white" stroke-width="1.5" d="M0,-3.0v7 M-2.5,-0.5L0,-3.0L2.5,-0.5"/>
                </g>
                <g id="arrowRight" xlink:href="#dirArrow" transform="rotate(90) translate(36 -43)" onmousedown="handlePan(1,0)">
                  <use xlink:href="#rim" fill="#404040">
                        <set attributeName="fill" to="#808080" begin="arrowRight.mouseover" end="arrowRight.mouseout"/>
                  </use>
                  <path fill="none" stroke="white" stroke-width="1.5" d="M0,-3.0v7 M-2.5,-0.5L0,-3.0L2.5,-0.5"/>
                </g>
                <g id="arrowDown" xlink:href="#dirArrow" transform="rotate(180) translate(-30 -48)" onmousedown="handlePan(0,1)">
                  <use xlink:href="#rim" fill="#404040">
                        <set attributeName="fill" to="#808080" begin="arrowDown.mouseover" end="arrowDown.mouseout"/>
                  </use>
                  <path fill="none" stroke="white" stroke-width="1.5" d="M0,-3.0v7 M-2.5,-0.5L0,-3.0L2.5,-0.5"/>
                </g>
                <g id="arrowLeft" xlink:href="#dirArrow" transform="rotate(270) translate(-36 17)" onmousedown="handlePan(-1,0)">
                  <use xlink:href="#rim" fill="#404040">
                        <set attributeName="fill" to="#808080" begin="arrowLeft.mouseover" end="arrowLeft.mouseout"/>
                  </use>
                  <path fill="none" stroke="white" stroke-width="1.5" d="M0,-3.0v7 M-2.5,-0.5L0,-3.0L2.5,-0.5"/>
                </g>
        </g>
        <svg viewBox="0 0 15 15" width="100%" height="30px" preserveAspectRatio="xMaxYMin meet">
         <g id="arrow_out" transform="scale(0.3 0.3)">
          <a xlink:href="structPonca_1_1RangeIndexQuery__inherit__graph_org.svg" target="_base">
           <rect id="button" ry="5" rx="5" y="6" x="6" height="38" width="38"
                fill="#f2f5e9" fill-opacity="0.5" stroke="#606060" stroke-width="1.0"/>
           <path id="arrow"
             d="M 11.500037,31.436501 C 11.940474,20.09759 22.043105,11.32322 32.158766,21.979434 L 37.068811,17.246167 C 37.068811,17.246167 37.088388,32 37.088388,32 L 22.160133,31.978069 C 22.160133,31.978069 26.997745,27.140456 26.997745,27.140456 C 18.528582,18.264221 13.291696,25.230495 11.500037,31.436501 z"
             style="fill:#404040;"/>
          </a>
         </g>
        </svg>
</svg>
