<?xml version="1.0" encoding="UTF-8" standalone="no"?>
<!DOCTYPE svg PUBLIC "-//W3C//DTD SVG 1.1//EN"
 "http://www.w3.org/Graphics/SVG/1.1/DTD/svg11.dtd">
<!-- Generated by graphviz version 2.43.0 (0)
 -->
<!-- Title: Ponca::QueryOutputIsKNearest&lt; Index, Scalar &gt; Pages: 1 -->
<svg width="446pt" height="897pt"
 viewBox="0.00 0.00 446.00 897.00" xmlns="http://www.w3.org/2000/svg" xmlns:xlink="http://www.w3.org/1999/xlink">
<g id="graph0" class="graph" transform="scale(1 1) rotate(0) translate(4 893)">
<title>Ponca::QueryOutputIsKNearest&lt; Index, Scalar &gt;</title>
<!-- Node1 -->
<g id="Node000001" class="node">
<title>Node1</title>
<g id="a_Node000001"><a xlink:title="Base class for knearest queries.">
<polygon fill="#999999" stroke="transparent" points="200.5,-105 39.5,-105 39.5,0 200.5,0 200.5,-105"/>
<text text-anchor="start" x="45" y="-92.5" font-family="Helvetica,sans-Serif" font-size="10.00">Ponca::QueryOutputIsKNearest</text>
<text text-anchor="start" x="77.5" y="-81.5" font-family="Helvetica,sans-Serif" font-size="10.00">&lt; Index, Scalar &gt;</text>
<text text-anchor="start" x="118.5" y="-66.5" font-family="Helvetica,sans-Serif" font-size="10.00"> </text>
<text text-anchor="start" x="44.5" y="-51.5" font-family="Helvetica,sans-Serif" font-size="10.00">+</text>
<text text-anchor="start" x="58" y="-51.5" font-family="Helvetica,sans-Serif" font-size="10.00">QueryOutputIsKNearest()</text>
<text text-anchor="start" x="44.5" y="-36.5" font-family="Helvetica,sans-Serif" font-size="10.00">+</text>
<text text-anchor="start" x="58" y="-36.5" font-family="Helvetica,sans-Serif" font-size="10.00">queue()</text>
<text text-anchor="start" x="44.5" y="-21.5" font-family="Helvetica,sans-Serif" font-size="10.00">#</text>
<text text-anchor="start" x="58" y="-21.5" font-family="Helvetica,sans-Serif" font-size="10.00">reset()</text>
<text text-anchor="start" x="44.5" y="-6.5" font-family="Helvetica,sans-Serif" font-size="10.00">#</text>
<text text-anchor="start" x="58" y="-6.5" font-family="Helvetica,sans-Serif" font-size="10.00">descentDistanceThreshold()</text>
<polygon fill="#666666" stroke="#666666" points="40,-76.5 40,-76.5 201,-76.5 201,-76.5 40,-76.5"/>
<polygon fill="#666666" stroke="#666666" points="40,-61.5 40,-61.5 201,-61.5 201,-61.5 40,-61.5"/>
<polygon fill="none" stroke="#666666" points="39.5,0 39.5,-105 200.5,-105 200.5,0 39.5,0"/>
</a>
</g>
</g>
<!-- Node2 -->
<g id="Node000002" class="node">
<title>Node2</title>
<g id="a_Node000002"><a xlink:href="group__spatialpartitioning.html#structPonca_1_1QueryOutputBase" target="_top" xlink:title="Base class for queries output type.">
<polygon fill="white" stroke="transparent" points="132,-294.5 0,-294.5 0,-245.5 132,-245.5 132,-294.5"/>
<text text-anchor="start" x="5" y="-282" font-family="Helvetica,sans-Serif" font-size="10.00">Ponca::QueryOutputBase</text>
<text text-anchor="start" x="64" y="-267" font-family="Helvetica,sans-Serif" font-size="10.00"> </text>
<text text-anchor="start" x="64" y="-252" font-family="Helvetica,sans-Serif" font-size="10.00"> </text>
<polygon fill="#666666" stroke="#666666" points="0,-277 0,-277 132,-277 132,-277 0,-277"/>
<polygon fill="#666666" stroke="#666666" points="0,-262 0,-262 132,-262 132,-262 0,-262"/>
<polygon fill="none" stroke="#666666" points="0,-245.5 0,-294.5 132,-294.5 132,-245.5 0,-245.5"/>
</a>
</g>
</g>
<!-- Node2&#45;&gt;Node1 -->
<g id="edge1_Node000001_Node000002" class="edge">
<title>Node2&#45;&gt;Node1</title>
<g id="a_edge1_Node000001_Node000002"><a xlink:title=" ">
<path fill="none" stroke="#63b8ff" d="M74.53,-234.97C83.26,-200.13 96.94,-145.53 107.02,-105.31"/>
<polygon fill="none" stroke="#63b8ff" points="71.02,-234.56 71.99,-245.11 77.81,-236.26 71.02,-234.56"/>
</a>
</g>
</g>
<!-- Node3 -->
<g id="Node000003" class="node">
<title>Node3</title>
<g id="a_Node000003"><a xlink:href="classPonca_1_1limited__priority__queue.html" target="_top" xlink:title=" ">
<polygon fill="white" stroke="transparent" points="352,-388 150,-388 150,-152 352,-152 352,-388"/>
<text text-anchor="start" x="155" y="-376" font-family="Helvetica,sans-Serif" font-size="10.00">Ponca::limited_priority</text>
<text text-anchor="start" x="155" y="-365" font-family="Helvetica,sans-Serif" font-size="10.00">_queue&lt; Ponca::IndexSquaredDistance</text>
<text text-anchor="start" x="202.5" y="-354" font-family="Helvetica,sans-Serif" font-size="10.00">&lt; Index, Scalar &gt; &gt;</text>
<text text-anchor="start" x="167.5" y="-339" font-family="Helvetica,sans-Serif" font-size="10.00">#</text>
<text text-anchor="start" x="194" y="-339" font-family="Helvetica,sans-Serif" font-size="10.00">m_comp</text>
<text text-anchor="start" x="167.5" y="-324" font-family="Helvetica,sans-Serif" font-size="10.00">#</text>
<text text-anchor="start" x="194" y="-324" font-family="Helvetica,sans-Serif" font-size="10.00">m_size</text>
<text text-anchor="start" x="167.5" y="-309" font-family="Helvetica,sans-Serif" font-size="10.00">+</text>
<text text-anchor="start" x="194" y="-309" font-family="Helvetica,sans-Serif" font-size="10.00">limited_priority_queue()</text>
<text text-anchor="start" x="167.5" y="-294" font-family="Helvetica,sans-Serif" font-size="10.00">+</text>
<text text-anchor="start" x="194" y="-294" font-family="Helvetica,sans-Serif" font-size="10.00">limited_priority_queue()</text>
<text text-anchor="start" x="167.5" y="-279" font-family="Helvetica,sans-Serif" font-size="10.00">+</text>
<text text-anchor="start" x="194" y="-279" font-family="Helvetica,sans-Serif" font-size="10.00">limited_priority_queue()</text>
<text text-anchor="start" x="167.5" y="-264" font-family="Helvetica,sans-Serif" font-size="10.00">+</text>
<text text-anchor="start" x="194" y="-264" font-family="Helvetica,sans-Serif" font-size="10.00">limited_priority_queue()</text>
<text text-anchor="start" x="167.5" y="-249" font-family="Helvetica,sans-Serif" font-size="10.00">+</text>
<text text-anchor="start" x="194" y="-249" font-family="Helvetica,sans-Serif" font-size="10.00">~limited_priority_queue()</text>
<text text-anchor="start" x="167.5" y="-234" font-family="Helvetica,sans-Serif" font-size="10.00">+</text>
<text text-anchor="start" x="194" y="-234" font-family="Helvetica,sans-Serif" font-size="10.00">operator=()</text>
<text text-anchor="start" x="167.5" y="-219" font-family="Helvetica,sans-Serif" font-size="10.00">+</text>
<text text-anchor="start" x="194" y="-219" font-family="Helvetica,sans-Serif" font-size="10.00">begin()</text>
<text text-anchor="start" x="167.5" y="-204" font-family="Helvetica,sans-Serif" font-size="10.00">+</text>
<text text-anchor="start" x="194" y="-204" font-family="Helvetica,sans-Serif" font-size="10.00">begin()</text>
<text text-anchor="start" x="167.5" y="-189" font-family="Helvetica,sans-Serif" font-size="10.00">+</text>
<text text-anchor="start" x="194" y="-189" font-family="Helvetica,sans-Serif" font-size="10.00">cbegin()</text>
<text text-anchor="start" x="167.5" y="-174" font-family="Helvetica,sans-Serif" font-size="10.00">+</text>
<text text-anchor="start" x="194" y="-174" font-family="Helvetica,sans-Serif" font-size="10.00">end()</text>
<text text-anchor="start" x="194" y="-159" font-family="Helvetica,sans-Serif" font-size="10.00">and 16 more...</text>
<polygon fill="#666666" stroke="#666666" points="150,-349 150,-349 352,-349 352,-349 150,-349"/>
<polygon fill="#666666" stroke="#666666" points="150,-319 150,-319 192,-319 192,-319 150,-319"/>
<polygon fill="#666666" stroke="#666666" points="192,-319 192,-319 352,-319 352,-319 192,-319"/>
<polygon fill="none" stroke="#666666" points="150,-152 150,-388 352,-388 352,-152 150,-152"/>
</a>
</g>
</g>
<!-- Node3&#45;&gt;Node1 -->
<g id="edge2_Node000001_Node000003" class="edge">
<title>Node3&#45;&gt;Node1</title>
<g id="a_edge2_Node000001_Node000003"><a xlink:title=" ">
<path fill="none" stroke="#63b8ff" d="M179.75,-151.79C172.12,-139.24 164.6,-126.87 157.6,-115.36"/>
<polygon fill="none" stroke="#63b8ff" points="157.57,-115.3 151.03,-112.25 151.33,-105.04 157.87,-108.09 157.57,-115.3"/>
</a>
</g>
<text text-anchor="middle" x="194.5" y="-126" font-family="Helvetica,sans-Serif" font-size="10.00" fill="grey"> #m_queue</text>
</g>
<!-- Node4 -->
<g id="Node000004" class="node">
<title>Node4</title>
<g id="a_Node000004"><a xlink:title=" ">
<polygon fill="white" stroke="transparent" points="211,-601.5 85,-601.5 85,-530.5 211,-530.5 211,-601.5"/>
<text text-anchor="start" x="90" y="-589" font-family="Helvetica,sans-Serif" font-size="10.00">std::vector&lt; Ponca</text>
<text text-anchor="start" x="90" y="-578" font-family="Helvetica,sans-Serif" font-size="10.00">::IndexSquaredDistance</text>
<text text-anchor="start" x="99.5" y="-567" font-family="Helvetica,sans-Serif" font-size="10.00">&lt; Index, Scalar &gt; &gt;</text>
<text text-anchor="start" x="103.5" y="-552" font-family="Helvetica,sans-Serif" font-size="10.00">+</text>
<text text-anchor="start" x="131" y="-552" font-family="Helvetica,sans-Serif" font-size="10.00">elements</text>
<text text-anchor="start" x="146" y="-537" font-family="Helvetica,sans-Serif" font-size="10.00"> </text>
<polygon fill="#666666" stroke="#666666" points="85,-562 85,-562 211,-562 211,-562 85,-562"/>
<polygon fill="#666666" stroke="#666666" points="85,-547 85,-547 129,-547 129,-547 85,-547"/>
<polygon fill="#666666" stroke="#666666" points="129,-547 129,-547 211,-547 211,-547 129,-547"/>
<polygon fill="none" stroke="#666666" points="85,-530.5 85,-601.5 211,-601.5 211,-530.5 85,-530.5"/>
</a>
</g>
</g>
<!-- Node4&#45;&gt;Node3 -->
<g id="edge3_Node000003_Node000004" class="edge">
<title>Node4&#45;&gt;Node3</title>
<g id="a_edge3_Node000003_Node000004"><a xlink:title=" ">
<path fill="none" stroke="#63b8ff" d="M160.12,-530.41C171.47,-498.02 189.14,-447.57 205.9,-399.73"/>
<polygon fill="none" stroke="#63b8ff" points="205.94,-399.62 204.15,-392.63 209.91,-388.29 211.7,-395.28 205.94,-399.62"/>
</a>
</g>
<text text-anchor="middle" x="218" y="-414.5" font-family="Helvetica,sans-Serif" font-size="10.00" fill="grey"> #m_c</text>
</g>
<!-- Node5 -->
<g id="Node000005" class="node">
<title>Node5</title>
<g id="a_Node000005"><a xlink:title=" ">
<polygon fill="white" stroke="transparent" points="193.5,-793 102.5,-793 102.5,-744 193.5,-744 193.5,-793"/>
<text text-anchor="start" x="108" y="-780.5" font-family="Helvetica,sans-Serif" font-size="10.00">std::vector&lt; T &gt;</text>
<text text-anchor="start" x="146.5" y="-765.5" font-family="Helvetica,sans-Serif" font-size="10.00"> </text>
<text text-anchor="start" x="146.5" y="-750.5" font-family="Helvetica,sans-Serif" font-size="10.00"> </text>
<polygon fill="#666666" stroke="#666666" points="103,-775.5 103,-775.5 194,-775.5 194,-775.5 103,-775.5"/>
<polygon fill="#666666" stroke="#666666" points="103,-760.5 103,-760.5 194,-760.5 194,-760.5 103,-760.5"/>
<polygon fill="none" stroke="#666666" points="102.5,-744 102.5,-793 193.5,-793 193.5,-744 102.5,-744"/>
</a>
</g>
</g>
<!-- Node5&#45;&gt;Node4 -->
<g id="edge4_Node000004_Node000005" class="edge">
<title>Node5&#45;&gt;Node4</title>
<g id="a_edge4_Node000004_Node000005"><a xlink:title=" ">
<path fill="none" stroke="orange" d="M148,-733.53C148,-696.88 148,-638.83 148,-601.85"/>
<polygon fill="orange" stroke="orange" points="144.5,-733.71 148,-743.71 151.5,-733.71 144.5,-733.71"/>
</a>
</g>
<text text-anchor="start" x="148" y="-718" font-family="Helvetica,sans-Serif" font-size="10.00" fill="grey"> &lt; Ponca::IndexSquaredDistance</text>
<text text-anchor="middle" x="228" y="-707" font-family="Helvetica,sans-Serif" font-size="10.00" fill="grey">&lt; Index, Scalar &gt; &gt;</text>
</g>
<!-- Node6 -->
<g id="Node000006" class="node">
<title>Node6</title>
<g id="a_Node000006"><a xlink:title=" ">
<polygon fill="white" stroke="transparent" points="156.5,-889 139.5,-889 139.5,-840 156.5,-840 156.5,-889"/>
<text text-anchor="start" x="145" y="-876.5" font-family="Helvetica,sans-Serif" font-size="10.00">T</text>
<text text-anchor="start" x="146.5" y="-861.5" font-family="Helvetica,sans-Serif" font-size="10.00"> </text>
<text text-anchor="start" x="146.5" y="-846.5" font-family="Helvetica,sans-Serif" font-size="10.00"> </text>
<polygon fill="#bfbfbf" stroke="#bfbfbf" points="140,-871.5 140,-871.5 157,-871.5 157,-871.5 140,-871.5"/>
<polygon fill="#bfbfbf" stroke="#bfbfbf" points="140,-856.5 140,-856.5 157,-856.5 157,-856.5 140,-856.5"/>
<polygon fill="none" stroke="#bfbfbf" points="139.5,-840 139.5,-889 156.5,-889 156.5,-840 139.5,-840"/>
</a>
</g>
</g>
<!-- Node6&#45;&gt;Node5 -->
<g id="edge5_Node000005_Node000006" class="edge">
<title>Node6&#45;&gt;Node5</title>
<g id="a_edge5_Node000005_Node000006"><a xlink:title=" ">
<path fill="none" stroke="#63b8ff" d="M148,-839.78C148,-829.32 148,-816.79 148,-805.23"/>
<polygon fill="none" stroke="#63b8ff" points="148,-805.21 144,-799.21 148,-793.21 152,-799.21 148,-805.21"/>
</a>
</g>
<text text-anchor="middle" x="177" y="-814" font-family="Helvetica,sans-Serif" font-size="10.00" fill="grey"> +elements</text>
</g>
<!-- Node7 -->
<g id="Node000007" class="node">
<title>Node7</title>
<g id="a_Node000007"><a xlink:href="classPonca_1_1limited__priority__queue.html" target="_top" xlink:title="The limited_priority_queue class is similar to std::priority_queue but has a limited capacity and han...">
<polygon fill="white" stroke="transparent" points="377,-686 229,-686 229,-446 377,-446 377,-686"/>
<text text-anchor="start" x="242.5" y="-674" font-family="Helvetica,sans-Serif" font-size="10.00">Ponca::limited_priority</text>
<text text-anchor="start" x="242.5" y="-663" font-family="Helvetica,sans-Serif" font-size="10.00">_queue&lt; T, CompareT &gt;</text>
<text text-anchor="start" x="233" y="-648" font-family="Helvetica,sans-Serif" font-size="10.00">#</text>
<text text-anchor="start" x="246" y="-648" font-family="Helvetica,sans-Serif" font-size="10.00">m_c</text>
<text text-anchor="start" x="233" y="-633" font-family="Helvetica,sans-Serif" font-size="10.00">#</text>
<text text-anchor="start" x="246" y="-633" font-family="Helvetica,sans-Serif" font-size="10.00">m_comp</text>
<text text-anchor="start" x="233" y="-618" font-family="Helvetica,sans-Serif" font-size="10.00">#</text>
<text text-anchor="start" x="246" y="-618" font-family="Helvetica,sans-Serif" font-size="10.00">m_size</text>
<text text-anchor="start" x="233" y="-603" font-family="Helvetica,sans-Serif" font-size="10.00">+</text>
<text text-anchor="start" x="246" y="-603" font-family="Helvetica,sans-Serif" font-size="10.00">limited_priority_queue()</text>
<text text-anchor="start" x="233" y="-588" font-family="Helvetica,sans-Serif" font-size="10.00">+</text>
<text text-anchor="start" x="246" y="-588" font-family="Helvetica,sans-Serif" font-size="10.00">limited_priority_queue()</text>
<text text-anchor="start" x="233" y="-573" font-family="Helvetica,sans-Serif" font-size="10.00">+</text>
<text text-anchor="start" x="246" y="-573" font-family="Helvetica,sans-Serif" font-size="10.00">limited_priority_queue()</text>
<text text-anchor="start" x="233" y="-558" font-family="Helvetica,sans-Serif" font-size="10.00">+</text>
<text text-anchor="start" x="246" y="-558" font-family="Helvetica,sans-Serif" font-size="10.00">limited_priority_queue()</text>
<text text-anchor="start" x="233" y="-543" font-family="Helvetica,sans-Serif" font-size="10.00">+</text>
<text text-anchor="start" x="246" y="-543" font-family="Helvetica,sans-Serif" font-size="10.00">~limited_priority_queue()</text>
<text text-anchor="start" x="233" y="-528" font-family="Helvetica,sans-Serif" font-size="10.00">+</text>
<text text-anchor="start" x="246" y="-528" font-family="Helvetica,sans-Serif" font-size="10.00">operator=()</text>
<text text-anchor="start" x="233" y="-513" font-family="Helvetica,sans-Serif" font-size="10.00">+</text>
<text text-anchor="start" x="246" y="-513" font-family="Helvetica,sans-Serif" font-size="10.00">begin()</text>
<text text-anchor="start" x="233" y="-498" font-family="Helvetica,sans-Serif" font-size="10.00">+</text>
<text text-anchor="start" x="246" y="-498" font-family="Helvetica,sans-Serif" font-size="10.00">begin()</text>
<text text-anchor="start" x="233" y="-483" font-family="Helvetica,sans-Serif" font-size="10.00">+</text>
<text text-anchor="start" x="246" y="-483" font-family="Helvetica,sans-Serif" font-size="10.00">cbegin()</text>
<text text-anchor="start" x="233" y="-468" font-family="Helvetica,sans-Serif" font-size="10.00">+</text>
<text text-anchor="start" x="246" y="-468" font-family="Helvetica,sans-Serif" font-size="10.00">end()</text>
<text text-anchor="start" x="246" y="-453" font-family="Helvetica,sans-Serif" font-size="10.00">and 16 more...</text>
<polygon fill="#666666" stroke="#666666" points="229,-658 229,-658 377,-658 377,-658 229,-658"/>
<polygon fill="#666666" stroke="#666666" points="229,-613 229,-613 244,-613 244,-613 229,-613"/>
<polygon fill="#666666" stroke="#666666" points="244,-613 244,-613 377,-613 377,-613 244,-613"/>
<polygon fill="none" stroke="#666666" points="229,-446 229,-686 377,-686 377,-446 229,-446"/>
</a>
</g>
</g>
<!-- Node7&#45;&gt;Node3 -->
<g id="edge6_Node000003_Node000007" class="edge">
<title>Node7&#45;&gt;Node3</title>
<g id="a_edge6_Node000003_Node000007"><a xlink:title=" ">
<path fill="none" stroke="orange" d="M280.11,-435.58C277.33,-419.89 274.51,-403.92 271.77,-388.42"/>
<polygon fill="orange" stroke="orange" points="276.74,-436.61 281.92,-445.84 283.63,-435.39 276.74,-436.61"/>
</a>
</g>
<text text-anchor="start" x="278" y="-420" font-family="Helvetica,sans-Serif" font-size="10.00" fill="grey"> &lt; Ponca::IndexSquaredDistance</text>
<text text-anchor="middle" x="358" y="-409" font-family="Helvetica,sans-Serif" font-size="10.00" fill="grey">&lt; Index, Scalar &gt; &gt;</text>
</g>
</g>
</svg>
