<?xml version="1.0" encoding="UTF-8" standalone="no"?>
<!DOCTYPE svg PUBLIC "-//W3C//DTD SVG 1.1//EN"
 "http://www.w3.org/Graphics/SVG/1.1/DTD/svg11.dtd">
<!-- Generated by graphviz version 2.43.0 (0)
 -->
<!-- Title: Ponca::NearestIndexQuery&lt; Index, Scalar &gt; Pages: 1 -->
<svg width="487pt" height="730pt"
 viewBox="0.00 0.00 486.50 730.00" xmlns="http://www.w3.org/2000/svg" xmlns:xlink="http://www.w3.org/1999/xlink">
<g id="graph0" class="graph" transform="scale(1 1) rotate(0) translate(4 726)">
<title>Ponca::NearestIndexQuery&lt; Index, Scalar &gt;</title>
<!-- Node1 -->
<g id="Node000001" class="node">
<title>Node1</title>
<g id="a_Node000001"><a xlink:title="Base Query class combining QueryInputIsIndex and QueryOutputIsNearest.">
<polygon fill="#999999" stroke="transparent" points="302.5,-60 162.5,-60 162.5,0 302.5,0 302.5,-60"/>
<text text-anchor="start" x="167.5" y="-48" font-family="Helvetica,sans-Serif" font-size="10.00">Ponca::NearestIndexQuery</text>
<text text-anchor="start" x="189.5" y="-37" font-family="Helvetica,sans-Serif" font-size="10.00">&lt; Index, Scalar &gt;</text>
<text text-anchor="start" x="230.5" y="-22" font-family="Helvetica,sans-Serif" font-size="10.00"> </text>
<text text-anchor="start" x="230.5" y="-7" font-family="Helvetica,sans-Serif" font-size="10.00"> </text>
<polygon fill="#666666" stroke="#666666" points="162.5,-32 162.5,-32 302.5,-32 302.5,-32 162.5,-32"/>
<polygon fill="#666666" stroke="#666666" points="162.5,-17 162.5,-17 302.5,-17 302.5,-17 162.5,-17"/>
<polygon fill="none" stroke="#666666" points="162.5,0 162.5,-60 302.5,-60 302.5,0 162.5,0"/>
</a>
</g>
</g>
<!-- Node2 -->
<g id="Node000002" class="node">
<title>Node2</title>
<g id="a_Node000002"><a xlink:href="group__spatialpartitioning.html" target="_top" xlink:title=" ">
<polygon fill="white" stroke="transparent" points="314.5,-183 150.5,-183 150.5,-97 314.5,-97 314.5,-183"/>
<text text-anchor="start" x="155.5" y="-171" font-family="Helvetica,sans-Serif" font-size="10.00">Ponca::Query&lt; QueryInput</text>
<text text-anchor="start" x="155.5" y="-160" font-family="Helvetica,sans-Serif" font-size="10.00">IsIndex&lt; Index &gt;, QueryOutput</text>
<text text-anchor="start" x="160.5" y="-149" font-family="Helvetica,sans-Serif" font-size="10.00">IsNearest&lt; Index, Scalar &gt; &gt;</text>
<text text-anchor="start" x="230.5" y="-134" font-family="Helvetica,sans-Serif" font-size="10.00"> </text>
<text text-anchor="start" x="181" y="-119" font-family="Helvetica,sans-Serif" font-size="10.00">+</text>
<text text-anchor="start" x="220.5" y="-119" font-family="Helvetica,sans-Serif" font-size="10.00">Query()</text>
<text text-anchor="start" x="181" y="-104" font-family="Helvetica,sans-Serif" font-size="10.00">+</text>
<text text-anchor="start" x="220.5" y="-104" font-family="Helvetica,sans-Serif" font-size="10.00">Query()</text>
<polygon fill="#bfbfbf" stroke="#bfbfbf" points="150.5,-144 150.5,-144 314.5,-144 314.5,-144 150.5,-144"/>
<polygon fill="#bfbfbf" stroke="#bfbfbf" points="150.5,-129 150.5,-129 314.5,-129 314.5,-129 150.5,-129"/>
<polygon fill="none" stroke="#bfbfbf" points="150.5,-97 150.5,-183 314.5,-183 314.5,-97 150.5,-97"/>
</a>
</g>
</g>
<!-- Node2&#45;&gt;Node1 -->
<g id="edge1_Node000001_Node000002" class="edge">
<title>Node2&#45;&gt;Node1</title>
<g id="a_edge1_Node000001_Node000002"><a xlink:title=" ">
<path fill="none" stroke="#63b8ff" d="M232.5,-86.69C232.5,-77.54 232.5,-68.33 232.5,-60.1"/>
<polygon fill="none" stroke="#63b8ff" points="229,-86.94 232.5,-96.94 236,-86.94 229,-86.94"/>
</a>
</g>
</g>
<!-- Node3 -->
<g id="Node000003" class="node">
<title>Node3</title>
<g id="a_Node000003"><a xlink:href="group__spatialpartitioning.html#structPonca_1_1QueryInputIsIndex" target="_top" xlink:title="Base class for queries storing points.">
<polygon fill="white" stroke="transparent" points="135,-357 0,-357 0,-267 135,-267 135,-357"/>
<text text-anchor="start" x="5.5" y="-345" font-family="Helvetica,sans-Serif" font-size="10.00">Ponca::QueryInputIsIndex</text>
<text text-anchor="start" x="43" y="-334" font-family="Helvetica,sans-Serif" font-size="10.00">&lt; Index &gt;</text>
<text text-anchor="start" x="66" y="-319" font-family="Helvetica,sans-Serif" font-size="10.00"> </text>
<text text-anchor="start" x="8.5" y="-304" font-family="Helvetica,sans-Serif" font-size="10.00">+</text>
<text text-anchor="start" x="25.5" y="-304" font-family="Helvetica,sans-Serif" font-size="10.00">QueryInputIsIndex()</text>
<text text-anchor="start" x="8.5" y="-289" font-family="Helvetica,sans-Serif" font-size="10.00">#</text>
<text text-anchor="start" x="25.5" y="-289" font-family="Helvetica,sans-Serif" font-size="10.00">skipIndexFunctor()</text>
<text text-anchor="start" x="8.5" y="-274" font-family="Helvetica,sans-Serif" font-size="10.00">#</text>
<text text-anchor="start" x="25.5" y="-274" font-family="Helvetica,sans-Serif" font-size="10.00">getInputPosition()</text>
<polygon fill="#666666" stroke="#666666" points="0.5,-329 0.5,-329 135.5,-329 135.5,-329 0.5,-329"/>
<polygon fill="#666666" stroke="#666666" points="0.5,-314 0.5,-314 135.5,-314 135.5,-314 0.5,-314"/>
<polygon fill="none" stroke="#666666" points="0,-267 0,-357 135,-357 135,-267 0,-267"/>
</a>
</g>
</g>
<!-- Node3&#45;&gt;Node2 -->
<g id="edge2_Node000002_Node000003" class="edge">
<title>Node3&#45;&gt;Node2</title>
<g id="a_edge2_Node000002_Node000003"><a xlink:title=" ">
<path fill="none" stroke="#63b8ff" d="M117.61,-259.37C141.26,-235 169.13,-206.29 191.5,-183.24"/>
<polygon fill="none" stroke="#63b8ff" points="114.87,-257.16 110.42,-266.78 119.9,-262.04 114.87,-257.16"/>
</a>
</g>
</g>
<!-- Node4 -->
<g id="Node000004" class="node">
<title>Node4</title>
<g id="a_Node000004"><a xlink:href="group__spatialpartitioning.html" target="_top" xlink:title=" ">
<polygon fill="white" stroke="transparent" points="121.5,-499 13.5,-499 13.5,-409 121.5,-409 121.5,-499"/>
<text text-anchor="start" x="18.5" y="-487" font-family="Helvetica,sans-Serif" font-size="10.00">Ponca::QueryInput&lt;</text>
<text text-anchor="start" x="46.5" y="-476" font-family="Helvetica,sans-Serif" font-size="10.00"> Index &gt;</text>
<text text-anchor="start" x="65.5" y="-461" font-family="Helvetica,sans-Serif" font-size="10.00"> </text>
<text text-anchor="start" x="23.5" y="-446" font-family="Helvetica,sans-Serif" font-size="10.00">+</text>
<text text-anchor="start" x="42.5" y="-446" font-family="Helvetica,sans-Serif" font-size="10.00">QueryInput()</text>
<text text-anchor="start" x="23.5" y="-431" font-family="Helvetica,sans-Serif" font-size="10.00">+</text>
<text text-anchor="start" x="42.5" y="-431" font-family="Helvetica,sans-Serif" font-size="10.00">input()</text>
<text text-anchor="start" x="23.5" y="-416" font-family="Helvetica,sans-Serif" font-size="10.00">#</text>
<text text-anchor="start" x="42.5" y="-416" font-family="Helvetica,sans-Serif" font-size="10.00">editInput()</text>
<polygon fill="#666666" stroke="#666666" points="13.5,-471 13.5,-471 121.5,-471 121.5,-471 13.5,-471"/>
<polygon fill="#666666" stroke="#666666" points="13.5,-456 13.5,-456 121.5,-456 121.5,-456 13.5,-456"/>
<polygon fill="none" stroke="#666666" points="13.5,-409 13.5,-499 121.5,-499 121.5,-409 13.5,-409"/>
</a>
</g>
</g>
<!-- Node4&#45;&gt;Node3 -->
<g id="edge3_Node000003_Node000004" class="edge">
<title>Node4&#45;&gt;Node3</title>
<g id="a_edge3_Node000003_Node000004"><a xlink:title=" ">
<path fill="none" stroke="#63b8ff" d="M67.5,-398.41C67.5,-384.69 67.5,-370.14 67.5,-357.01"/>
<polygon fill="none" stroke="#63b8ff" points="64,-398.7 67.5,-408.7 71,-398.7 64,-398.7"/>
</a>
</g>
</g>
<!-- Node5 -->
<g id="Node000005" class="node">
<title>Node5</title>
<g id="a_Node000005"><a xlink:href="group__spatialpartitioning.html#structPonca_1_1QueryInputBase" target="_top" xlink:title="Base class for queries input type.">
<polygon fill="white" stroke="transparent" points="125.5,-722 1.5,-722 1.5,-673 125.5,-673 125.5,-722"/>
<text text-anchor="start" x="6.5" y="-709.5" font-family="Helvetica,sans-Serif" font-size="10.00">Ponca::QueryInputBase</text>
<text text-anchor="start" x="61.5" y="-694.5" font-family="Helvetica,sans-Serif" font-size="10.00"> </text>
<text text-anchor="start" x="61.5" y="-679.5" font-family="Helvetica,sans-Serif" font-size="10.00"> </text>
<polygon fill="#666666" stroke="#666666" points="1.5,-704.5 1.5,-704.5 125.5,-704.5 125.5,-704.5 1.5,-704.5"/>
<polygon fill="#666666" stroke="#666666" points="1.5,-689.5 1.5,-689.5 125.5,-689.5 125.5,-689.5 1.5,-689.5"/>
<polygon fill="none" stroke="#666666" points="1.5,-673 1.5,-722 125.5,-722 125.5,-673 1.5,-673"/>
</a>
</g>
</g>
<!-- Node5&#45;&gt;Node4 -->
<g id="edge4_Node000004_Node000005" class="edge">
<title>Node5&#45;&gt;Node4</title>
<g id="a_edge4_Node000004_Node000005"><a xlink:title=" ">
<path fill="none" stroke="#63b8ff" d="M64.06,-662.74C64.77,-619.97 65.99,-546.19 66.77,-499.04"/>
<polygon fill="none" stroke="#63b8ff" points="60.56,-662.85 63.89,-672.9 67.56,-662.96 60.56,-662.85"/>
</a>
</g>
</g>
<!-- Node6 -->
<g id="Node000006" class="node">
<title>Node6</title>
<g id="a_Node000006"><a xlink:href="group__spatialpartitioning.html#structPonca_1_1QueryInput" target="_top" xlink:title="Base class for typed queries input type.">
<polygon fill="white" stroke="transparent" points="187.5,-636 79.5,-636 79.5,-546 187.5,-546 187.5,-636"/>
<text text-anchor="start" x="84.5" y="-624" font-family="Helvetica,sans-Serif" font-size="10.00">Ponca::QueryInput&lt;</text>
<text text-anchor="start" x="100" y="-613" font-family="Helvetica,sans-Serif" font-size="10.00"> InputType_ &gt;</text>
<text text-anchor="start" x="131.5" y="-598" font-family="Helvetica,sans-Serif" font-size="10.00"> </text>
<text text-anchor="start" x="89.5" y="-583" font-family="Helvetica,sans-Serif" font-size="10.00">+</text>
<text text-anchor="start" x="108.5" y="-583" font-family="Helvetica,sans-Serif" font-size="10.00">QueryInput()</text>
<text text-anchor="start" x="89.5" y="-568" font-family="Helvetica,sans-Serif" font-size="10.00">+</text>
<text text-anchor="start" x="108.5" y="-568" font-family="Helvetica,sans-Serif" font-size="10.00">input()</text>
<text text-anchor="start" x="89.5" y="-553" font-family="Helvetica,sans-Serif" font-size="10.00">#</text>
<text text-anchor="start" x="108.5" y="-553" font-family="Helvetica,sans-Serif" font-size="10.00">editInput()</text>
<polygon fill="#666666" stroke="#666666" points="79.5,-608 79.5,-608 187.5,-608 187.5,-608 79.5,-608"/>
<polygon fill="#666666" stroke="#666666" points="79.5,-593 79.5,-593 187.5,-593 187.5,-593 79.5,-593"/>
<polygon fill="none" stroke="#666666" points="79.5,-546 79.5,-636 187.5,-636 187.5,-546 79.5,-546"/>
</a>
</g>
</g>
<!-- Node5&#45;&gt;Node6 -->
<g id="edge6_Node000006_Node000005" class="edge">
<title>Node5&#45;&gt;Node6</title>
<g id="a_edge6_Node000006_Node000005"><a xlink:title=" ">
<path fill="none" stroke="#63b8ff" d="M85.1,-664.26C91.04,-655.39 97.59,-645.6 103.91,-636.18"/>
<polygon fill="none" stroke="#63b8ff" points="82.04,-662.53 79.38,-672.79 87.86,-666.43 82.04,-662.53"/>
</a>
</g>
</g>
<!-- Node6&#45;&gt;Node4 -->
<g id="edge5_Node000004_Node000006" class="edge">
<title>Node6&#45;&gt;Node4</title>
<g id="a_edge5_Node000004_Node000006"><a xlink:title=" ">
<path fill="none" stroke="orange" d="M107.35,-536.52C101.32,-524.19 94.97,-511.2 89.16,-499.3"/>
<polygon fill="orange" stroke="orange" points="104.35,-538.35 111.89,-545.8 110.64,-535.27 104.35,-538.35"/>
</a>
</g>
<text text-anchor="middle" x="129" y="-520" font-family="Helvetica,sans-Serif" font-size="10.00" fill="grey"> &lt; Index &gt;</text>
</g>
<!-- Node7 -->
<g id="Node000007" class="node">
<title>Node7</title>
<g id="a_Node000007"><a xlink:href="group__spatialpartitioning.html#structPonca_1_1QueryOutputIsNearest" target="_top" xlink:title="Base class for nearest queries.">
<polygon fill="white" stroke="transparent" points="311.5,-372 153.5,-372 153.5,-252 311.5,-252 311.5,-372"/>
<text text-anchor="start" x="160" y="-360" font-family="Helvetica,sans-Serif" font-size="10.00">Ponca::QueryOutputIsNearest</text>
<text text-anchor="start" x="189.5" y="-349" font-family="Helvetica,sans-Serif" font-size="10.00">&lt; Index, Scalar &gt;</text>
<text text-anchor="start" x="157.5" y="-334" font-family="Helvetica,sans-Serif" font-size="10.00">#</text>
<text text-anchor="start" x="170.5" y="-334" font-family="Helvetica,sans-Serif" font-size="10.00">m_nearest</text>
<text text-anchor="start" x="157.5" y="-319" font-family="Helvetica,sans-Serif" font-size="10.00">#</text>
<text text-anchor="start" x="170.5" y="-319" font-family="Helvetica,sans-Serif" font-size="10.00">m_squared_distance</text>
<text text-anchor="start" x="157.5" y="-304" font-family="Helvetica,sans-Serif" font-size="10.00">+</text>
<text text-anchor="start" x="170.5" y="-304" font-family="Helvetica,sans-Serif" font-size="10.00">QueryOutputIsNearest()</text>
<text text-anchor="start" x="157.5" y="-289" font-family="Helvetica,sans-Serif" font-size="10.00">+</text>
<text text-anchor="start" x="170.5" y="-289" font-family="Helvetica,sans-Serif" font-size="10.00">get()</text>
<text text-anchor="start" x="157.5" y="-274" font-family="Helvetica,sans-Serif" font-size="10.00">#</text>
<text text-anchor="start" x="170.5" y="-274" font-family="Helvetica,sans-Serif" font-size="10.00">reset()</text>
<text text-anchor="start" x="157.5" y="-259" font-family="Helvetica,sans-Serif" font-size="10.00">#</text>
<text text-anchor="start" x="170.5" y="-259" font-family="Helvetica,sans-Serif" font-size="10.00">descentDistanceThreshold()</text>
<polygon fill="#666666" stroke="#666666" points="153.5,-344 153.5,-344 311.5,-344 311.5,-344 153.5,-344"/>
<polygon fill="#666666" stroke="#666666" points="153.5,-314 153.5,-314 168.5,-314 168.5,-314 153.5,-314"/>
<polygon fill="#666666" stroke="#666666" points="168.5,-314 168.5,-314 311.5,-314 311.5,-314 168.5,-314"/>
<polygon fill="none" stroke="#666666" points="153.5,-252 153.5,-372 311.5,-372 311.5,-252 153.5,-252"/>
</a>
</g>
</g>
<!-- Node7&#45;&gt;Node2 -->
<g id="edge7_Node000002_Node000007" class="edge">
<title>Node7&#45;&gt;Node2</title>
<g id="a_edge7_Node000002_Node000007"><a xlink:title=" ">
<path fill="none" stroke="#63b8ff" d="M232.5,-241.33C232.5,-221.55 232.5,-200.63 232.5,-183.04"/>
<polygon fill="none" stroke="#63b8ff" points="229,-241.54 232.5,-251.54 236,-241.54 229,-241.54"/>
</a>
</g>
</g>
<!-- Node8 -->
<g id="Node000008" class="node">
<title>Node8</title>
<g id="a_Node000008"><a xlink:href="group__spatialpartitioning.html#structPonca_1_1QueryOutputBase" target="_top" xlink:title="Base class for queries output type.">
<polygon fill="white" stroke="transparent" points="298.5,-478.5 166.5,-478.5 166.5,-429.5 298.5,-429.5 298.5,-478.5"/>
<text text-anchor="start" x="171.5" y="-466" font-family="Helvetica,sans-Serif" font-size="10.00">Ponca::QueryOutputBase</text>
<text text-anchor="start" x="230.5" y="-451" font-family="Helvetica,sans-Serif" font-size="10.00"> </text>
<text text-anchor="start" x="230.5" y="-436" font-family="Helvetica,sans-Serif" font-size="10.00"> </text>
<polygon fill="#666666" stroke="#666666" points="166.5,-461 166.5,-461 298.5,-461 298.5,-461 166.5,-461"/>
<polygon fill="#666666" stroke="#666666" points="166.5,-446 166.5,-446 298.5,-446 298.5,-446 166.5,-446"/>
<polygon fill="none" stroke="#666666" points="166.5,-429.5 166.5,-478.5 298.5,-478.5 298.5,-429.5 166.5,-429.5"/>
</a>
</g>
</g>
<!-- Node8&#45;&gt;Node7 -->
<g id="edge8_Node000007_Node000008" class="edge">
<title>Node8&#45;&gt;Node7</title>
<g id="a_edge8_Node000007_Node000008"><a xlink:title=" ">
<path fill="none" stroke="#63b8ff" d="M232.5,-419.06C232.5,-404.97 232.5,-388.21 232.5,-372.21"/>
<polygon fill="none" stroke="#63b8ff" points="229,-419.25 232.5,-429.25 236,-419.25 229,-419.25"/>
</a>
</g>
</g>
<!-- Node9 -->
<g id="Node000009" class="node">
<title>Node9</title>
<g id="a_Node000009"><a xlink:href="group__spatialpartitioning.html#structPonca_1_1Query" target="_top" xlink:title=" ">
<polygon fill="white" stroke="transparent" points="440,-349.5 329,-349.5 329,-274.5 440,-274.5 440,-349.5"/>
<text text-anchor="start" x="334.5" y="-337" font-family="Helvetica,sans-Serif" font-size="10.00">Ponca::Query&lt; Input</text>
<text text-anchor="start" x="354.5" y="-326" font-family="Helvetica,sans-Serif" font-size="10.00">_, Output_ &gt;</text>
<text text-anchor="start" x="383" y="-311" font-family="Helvetica,sans-Serif" font-size="10.00"> </text>
<text text-anchor="start" x="346.5" y="-296" font-family="Helvetica,sans-Serif" font-size="10.00">+</text>
<text text-anchor="start" x="372.5" y="-296" font-family="Helvetica,sans-Serif" font-size="10.00">Query()</text>
<text text-anchor="start" x="346.5" y="-281" font-family="Helvetica,sans-Serif" font-size="10.00">+</text>
<text text-anchor="start" x="372.5" y="-281" font-family="Helvetica,sans-Serif" font-size="10.00">Query()</text>
<polygon fill="#bfbfbf" stroke="#bfbfbf" points="329.5,-321 329.5,-321 440.5,-321 440.5,-321 329.5,-321"/>
<polygon fill="#bfbfbf" stroke="#bfbfbf" points="329.5,-306 329.5,-306 440.5,-306 440.5,-306 329.5,-306"/>
<polygon fill="none" stroke="#bfbfbf" points="329,-274.5 329,-349.5 440,-349.5 440,-274.5 329,-274.5"/>
</a>
</g>
</g>
<!-- Node9&#45;&gt;Node2 -->
<g id="edge9_Node000002_Node000009" class="edge">
<title>Node9&#45;&gt;Node2</title>
<g id="a_edge9_Node000002_Node000009"><a xlink:title=" ">
<path fill="none" stroke="orange" d="M344.58,-266.35C321.58,-240.63 292.85,-208.5 270.23,-183.2"/>
<polygon fill="orange" stroke="orange" points="342.24,-268.99 351.52,-274.11 347.46,-264.32 342.24,-268.99"/>
</a>
</g>
<text text-anchor="start" x="313.5" y="-226" font-family="Helvetica,sans-Serif" font-size="10.00" fill="grey"> &lt; QueryInputIsIndex</text>
<text text-anchor="start" x="313.5" y="-215" font-family="Helvetica,sans-Serif" font-size="10.00" fill="grey">&lt; Index &gt;, QueryOutputIsNearest</text>
<text text-anchor="middle" x="396" y="-204" font-family="Helvetica,sans-Serif" font-size="10.00" fill="grey">&lt; Index, Scalar &gt; &gt;</text>
</g>
<!-- Node10 -->
<g id="Node000010" class="node">
<title>Node10</title>
<g id="a_Node000010"><a xlink:title=" ">
<polygon fill="white" stroke="transparent" points="381,-478.5 340,-478.5 340,-429.5 381,-429.5 381,-478.5"/>
<text text-anchor="start" x="345.5" y="-466" font-family="Helvetica,sans-Serif" font-size="10.00">Input_</text>
<text text-anchor="start" x="359" y="-451" font-family="Helvetica,sans-Serif" font-size="10.00"> </text>
<text text-anchor="start" x="359" y="-436" font-family="Helvetica,sans-Serif" font-size="10.00"> </text>
<polygon fill="#bfbfbf" stroke="#bfbfbf" points="340.5,-461 340.5,-461 381.5,-461 381.5,-461 340.5,-461"/>
<polygon fill="#bfbfbf" stroke="#bfbfbf" points="340.5,-446 340.5,-446 381.5,-446 381.5,-446 340.5,-446"/>
<polygon fill="none" stroke="#bfbfbf" points="340,-429.5 340,-478.5 381,-478.5 381,-429.5 340,-429.5"/>
</a>
</g>
</g>
<!-- Node10&#45;&gt;Node9 -->
<g id="edge10_Node000009_Node000010" class="edge">
<title>Node10&#45;&gt;Node9</title>
<g id="a_edge10_Node000009_Node000010"><a xlink:title=" ">
<path fill="none" stroke="#63b8ff" d="M366.3,-419.15C369.91,-398.11 374.55,-371.05 378.24,-349.52"/>
<polygon fill="none" stroke="#63b8ff" points="362.81,-418.8 364.57,-429.25 369.71,-419.99 362.81,-418.8"/>
</a>
</g>
</g>
<!-- Node11 -->
<g id="Node000011" class="node">
<title>Node11</title>
<g id="a_Node000011"><a xlink:title=" ">
<polygon fill="white" stroke="transparent" points="448,-478.5 399,-478.5 399,-429.5 448,-429.5 448,-478.5"/>
<text text-anchor="start" x="404.5" y="-466" font-family="Helvetica,sans-Serif" font-size="10.00">Output_</text>
<text text-anchor="start" x="422" y="-451" font-family="Helvetica,sans-Serif" font-size="10.00"> </text>
<text text-anchor="start" x="422" y="-436" font-family="Helvetica,sans-Serif" font-size="10.00"> </text>
<polygon fill="#bfbfbf" stroke="#bfbfbf" points="399.5,-461 399.5,-461 448.5,-461 448.5,-461 399.5,-461"/>
<polygon fill="#bfbfbf" stroke="#bfbfbf" points="399.5,-446 399.5,-446 448.5,-446 448.5,-446 399.5,-446"/>
<polygon fill="none" stroke="#bfbfbf" points="399,-429.5 399,-478.5 448,-478.5 448,-429.5 399,-429.5"/>
</a>
</g>
</g>
<!-- Node11&#45;&gt;Node9 -->
<g id="edge11_Node000009_Node000011" class="edge">
<title>Node11&#45;&gt;Node9</title>
<g id="a_edge11_Node000009_Node000011"><a xlink:title=" ">
<path fill="none" stroke="#63b8ff" d="M414.15,-419.44C408.28,-398.35 400.7,-371.15 394.67,-349.52"/>
<polygon fill="none" stroke="#63b8ff" points="410.83,-420.56 416.88,-429.25 417.57,-418.68 410.83,-420.56"/>
</a>
</g>
</g>
</g>
</svg>
