<?xml version="1.0" encoding="UTF-8" standalone="no"?>
<!DOCTYPE svg PUBLIC "-//W3C//DTD SVG 1.1//EN"
 "http://www.w3.org/Graphics/SVG/1.1/DTD/svg11.dtd">
<!-- Generated by graphviz version 2.43.0 (0)
 -->
<!-- Title: Ponca::WeingartenCurvatureEstimator&lt; DataPoint, _NFilter, T &gt; Pages: 1 -->
<svg width="187pt" height="286pt"
 viewBox="0.00 0.00 187.00 286.00" xmlns="http://www.w3.org/2000/svg" xmlns:xlink="http://www.w3.org/1999/xlink">
<g id="graph0" class="graph" transform="scale(1 1) rotate(0) translate(4 282)">
<title>Ponca::WeingartenCurvatureEstimator&lt; DataPoint, _NFilter, T &gt;</title>
<!-- Node1 -->
<g id="Node000001" class="node">
<title>Node1</title>
<g id="a_Node000001"><a xlink:title="Compute principal curvatures from a base class providing fundamental forms.">
<polygon fill="#999999" stroke="transparent" points="179,-86 0,-86 0,0 179,0 179,-86"/>
<text text-anchor="start" x="20.5" y="-74" font-family="Helvetica,sans-Serif" font-size="10.00">Ponca::WeingartenCurvature</text>
<text text-anchor="start" x="20.5" y="-63" font-family="Helvetica,sans-Serif" font-size="10.00">Estimator&lt; DataPoint, </text>
<text text-anchor="start" x="59.5" y="-52" font-family="Helvetica,sans-Serif" font-size="10.00">_NFilter, T &gt;</text>
<text text-anchor="start" x="88" y="-37" font-family="Helvetica,sans-Serif" font-size="10.00"> </text>
<text text-anchor="start" x="4.5" y="-22" font-family="Helvetica,sans-Serif" font-size="10.00">+</text>
<text text-anchor="start" x="17.5" y="-22" font-family="Helvetica,sans-Serif" font-size="10.00">weingartenCurvatureEstimator()</text>
<text text-anchor="start" x="4.5" y="-7" font-family="Helvetica,sans-Serif" font-size="10.00">+</text>
<text text-anchor="start" x="17.5" y="-7" font-family="Helvetica,sans-Serif" font-size="10.00">weingartenCurvatureEstimator()</text>
<polygon fill="#666666" stroke="#666666" points="0.5,-47 0.5,-47 179.5,-47 179.5,-47 0.5,-47"/>
<polygon fill="#666666" stroke="#666666" points="0.5,-32 0.5,-32 179.5,-32 179.5,-32 0.5,-32"/>
<polygon fill="none" stroke="#666666" points="0,0 0,-86 179,-86 179,0 0,0"/>
</a>
</g>
</g>
<!-- Node2 -->
<g id="Node000002" class="node">
<title>Node2</title>
<g id="a_Node000002"><a xlink:href="classPonca_1_1internal_1_1WeingartenCurvatureEstimatorBase.html" target="_top" xlink:title="Compute principal curvatures from a base class providing fundamental forms.">
<polygon fill="white" stroke="transparent" points="162,-193 17,-193 17,-122 162,-122 162,-193"/>
<text text-anchor="start" x="22.5" y="-180.5" font-family="Helvetica,sans-Serif" font-size="10.00">Ponca::internal::Weingarten</text>
<text text-anchor="start" x="22.5" y="-169.5" font-family="Helvetica,sans-Serif" font-size="10.00">CurvatureEstimatorBase&lt;</text>
<text text-anchor="start" x="31" y="-158.5" font-family="Helvetica,sans-Serif" font-size="10.00"> DataPoint, _NFilter, T &gt;</text>
<text text-anchor="start" x="88" y="-143.5" font-family="Helvetica,sans-Serif" font-size="10.00"> </text>
<text text-anchor="start" x="41.5" y="-128.5" font-family="Helvetica,sans-Serif" font-size="10.00">+</text>
<text text-anchor="start" x="74.5" y="-128.5" font-family="Helvetica,sans-Serif" font-size="10.00">finalize()</text>
<polygon fill="#666666" stroke="#666666" points="17.5,-153.5 17.5,-153.5 162.5,-153.5 162.5,-153.5 17.5,-153.5"/>
<polygon fill="#666666" stroke="#666666" points="17.5,-138.5 17.5,-138.5 162.5,-138.5 162.5,-138.5 17.5,-138.5"/>
<polygon fill="none" stroke="#666666" points="17,-122 17,-193 162,-193 162,-122 17,-122"/>
</a>
</g>
</g>
<!-- Node2&#45;&gt;Node1 -->
<g id="edge1_Node000001_Node000002" class="edge">
<title>Node2&#45;&gt;Node1</title>
<g id="a_edge1_Node000001_Node000002"><a xlink:title=" ">
<path fill="none" stroke="#63b8ff" d="M89.5,-111.8C89.5,-103.39 89.5,-94.62 89.5,-86.28"/>
<polygon fill="none" stroke="#63b8ff" points="86,-111.83 89.5,-121.83 93,-111.83 86,-111.83"/>
</a>
</g>
</g>
<!-- Node3 -->
<g id="Node000003" class="node">
<title>Node3</title>
<g id="a_Node000003"><a xlink:title=" ">
<polygon fill="white" stroke="transparent" points="98,-278 81,-278 81,-229 98,-229 98,-278"/>
<text text-anchor="start" x="86.5" y="-265.5" font-family="Helvetica,sans-Serif" font-size="10.00">T</text>
<text text-anchor="start" x="88" y="-250.5" font-family="Helvetica,sans-Serif" font-size="10.00"> </text>
<text text-anchor="start" x="88" y="-235.5" font-family="Helvetica,sans-Serif" font-size="10.00"> </text>
<polygon fill="#bfbfbf" stroke="#bfbfbf" points="81.5,-260.5 81.5,-260.5 98.5,-260.5 98.5,-260.5 81.5,-260.5"/>
<polygon fill="#bfbfbf" stroke="#bfbfbf" points="81.5,-245.5 81.5,-245.5 98.5,-245.5 98.5,-245.5 81.5,-245.5"/>
<polygon fill="none" stroke="#bfbfbf" points="81,-229 81,-278 98,-278 98,-229 81,-229"/>
</a>
</g>
</g>
<!-- Node3&#45;&gt;Node2 -->
<g id="edge2_Node000002_Node000003" class="edge">
<title>Node3&#45;&gt;Node2</title>
<g id="a_edge2_Node000002_Node000003"><a xlink:title=" ">
<path fill="none" stroke="#63b8ff" d="M89.5,-218.7C89.5,-210.42 89.5,-201.55 89.5,-193.23"/>
<polygon fill="none" stroke="#63b8ff" points="86,-218.78 89.5,-228.78 93,-218.78 86,-218.78"/>
</a>
</g>
</g>
</g>
</svg>
