<?xml version="1.0" encoding="UTF-8" standalone="no"?>
<!DOCTYPE svg PUBLIC "-//W3C//DTD SVG 1.1//EN"
 "http://www.w3.org/Graphics/SVG/1.1/DTD/svg11.dtd">
<!-- Generated by graphviz version 2.43.0 (0)
 -->
<!-- Title: Ponca::QueryOutputIsNearest&lt; Scalar &gt; Pages: 1 -->
<svg width="535pt" height="646pt"
 viewBox="0.00 0.00 535.00 646.00" xmlns="http://www.w3.org/2000/svg" xmlns:xlink="http://www.w3.org/1999/xlink">
<g id="graph0" class="graph" transform="scale(1 1) rotate(0) translate(4 642)">
<title>Ponca::QueryOutputIsNearest&lt; Scalar &gt;</title>
<!-- Node1 -->
<g id="node1" class="node">
<title>Node1</title>
<g id="a_node1"><a xlink:title="Base class for nearest queries.">
<polygon fill="#999999" stroke="#666666" points="260,-571 93,-571 93,-475 260,-475 260,-571"/>
<text text-anchor="start" x="101" y="-559" font-family="Helvetica,sans-Serif" font-size="10.00">{Ponca::QueryOutputIsNearest</text>
<text text-anchor="middle" x="176.5" y="-548" font-family="Helvetica,sans-Serif" font-size="10.00">&lt; Scalar &gt;</text>
<text text-anchor="start" x="101" y="-537" font-family="Helvetica,sans-Serif" font-size="10.00">|# m_nearest</text>
<text text-anchor="start" x="101" y="-526" font-family="Helvetica,sans-Serif" font-size="10.00"># m_squared_distance</text>
<text text-anchor="start" x="101" y="-515" font-family="Helvetica,sans-Serif" font-size="10.00">|+ QueryOutputIsNearest()</text>
<text text-anchor="start" x="101" y="-504" font-family="Helvetica,sans-Serif" font-size="10.00">+ get()</text>
<text text-anchor="start" x="101" y="-493" font-family="Helvetica,sans-Serif" font-size="10.00"># reset()</text>
<text text-anchor="middle" x="176.5" y="-482" font-family="Helvetica,sans-Serif" font-size="10.00">}</text>
</a>
</g>
</g>
<!-- Node3 -->
<g id="node3" class="node">
<title>Node3</title>
<g id="a_node3"><a xlink:href="group__spatialpartitioning.html" target="_top" xlink:title=" ">
<polygon fill="white" stroke="#bfbfbf" points="168,-417 1,-417 1,-343 168,-343 168,-417"/>
<text text-anchor="start" x="9" y="-405" font-family="Helvetica,sans-Serif" font-size="10.00">{Ponca::Query&lt; QueryInput</text>
<text text-anchor="start" x="9" y="-394" font-family="Helvetica,sans-Serif" font-size="10.00">IsIndex, QueryOutputIsNearest</text>
<text text-anchor="middle" x="84.5" y="-383" font-family="Helvetica,sans-Serif" font-size="10.00">&lt; Scalar &gt; &gt;</text>
<text text-anchor="start" x="9" y="-372" font-family="Helvetica,sans-Serif" font-size="10.00">||+ Query()</text>
<text text-anchor="start" x="9" y="-361" font-family="Helvetica,sans-Serif" font-size="10.00">+ Query()</text>
<text text-anchor="middle" x="84.5" y="-350" font-family="Helvetica,sans-Serif" font-size="10.00">}</text>
</a>
</g>
</g>
<!-- Node1&#45;&gt;Node3 -->
<g id="edge2" class="edge">
<title>Node1&#45;&gt;Node3</title>
<path fill="none" stroke="#63b8ff" d="M140.08,-466.18C129.35,-449.73 117.89,-432.17 108.18,-417.29"/>
<polygon fill="none" stroke="#63b8ff" points="137.21,-468.19 145.61,-474.66 143.08,-464.37 137.21,-468.19"/>
</g>
<!-- Node7 -->
<g id="node7" class="node">
<title>Node7</title>
<g id="a_node7"><a xlink:href="group__spatialpartitioning.html" target="_top" xlink:title=" ">
<polygon fill="white" stroke="#666666" points="353,-428 186,-428 186,-332 353,-332 353,-428"/>
<text text-anchor="start" x="194" y="-416" font-family="Helvetica,sans-Serif" font-size="10.00">{Ponca::QueryOutputIsNearest</text>
<text text-anchor="middle" x="269.5" y="-405" font-family="Helvetica,sans-Serif" font-size="10.00">&lt; DataPoint::Scalar &gt;</text>
<text text-anchor="start" x="194" y="-394" font-family="Helvetica,sans-Serif" font-size="10.00">|# m_nearest</text>
<text text-anchor="start" x="194" y="-383" font-family="Helvetica,sans-Serif" font-size="10.00"># m_squared_distance</text>
<text text-anchor="start" x="194" y="-372" font-family="Helvetica,sans-Serif" font-size="10.00">|+ QueryOutputIsNearest()</text>
<text text-anchor="start" x="194" y="-361" font-family="Helvetica,sans-Serif" font-size="10.00">+ get()</text>
<text text-anchor="start" x="194" y="-350" font-family="Helvetica,sans-Serif" font-size="10.00"># reset()</text>
<text text-anchor="middle" x="269.5" y="-339" font-family="Helvetica,sans-Serif" font-size="10.00">}</text>
</a>
</g>
</g>
<!-- Node1&#45;&gt;Node7 -->
<g id="edge6" class="edge">
<title>Node1&#45;&gt;Node7</title>
<path fill="none" stroke="orange" d="M213.34,-466.14C221.57,-453.67 230.22,-440.56 238.2,-428.46"/>
<polygon fill="orange" stroke="orange" points="210.31,-464.38 207.73,-474.66 216.15,-468.24 210.31,-464.38"/>
<text text-anchor="middle" x="280.5" y="-449" font-family="Helvetica,sans-Serif" font-size="10.00"> &lt; DataPoint::Scalar &gt;</text>
</g>
<!-- Node2 -->
<g id="node2" class="node">
<title>Node2</title>
<g id="a_node2"><a xlink:href="group__spatialpartitioning.html#structPonca_1_1QueryOutputBase" target="_top" xlink:title="Base class for queries output type.">
<polygon fill="white" stroke="#666666" points="248.5,-638 104.5,-638 104.5,-608 248.5,-608 248.5,-638"/>
<text text-anchor="middle" x="176.5" y="-626" font-family="Helvetica,sans-Serif" font-size="10.00">{Ponca::QueryOutputBase</text>
<text text-anchor="middle" x="176.5" y="-615" font-family="Helvetica,sans-Serif" font-size="10.00">||}</text>
</a>
</g>
</g>
<!-- Node2&#45;&gt;Node1 -->
<g id="edge1" class="edge">
<title>Node2&#45;&gt;Node1</title>
<path fill="none" stroke="#63b8ff" d="M176.5,-597.83C176.5,-589.75 176.5,-580.45 176.5,-571.23"/>
<polygon fill="none" stroke="#63b8ff" points="173,-597.96 176.5,-607.96 180,-597.96 173,-597.96"/>
</g>
<!-- Node4 -->
<g id="node4" class="node">
<title>Node4</title>
<g id="a_node4"><a xlink:href="group__spatialpartitioning.html#structPonca_1_1NearestIndexQuery" target="_top" xlink:title="Base Query class combining QueryInputIsIndex and QueryOutputIsNearest.">
<polygon fill="white" stroke="#666666" points="160.5,-273 8.5,-273 8.5,-232 160.5,-232 160.5,-273"/>
<text text-anchor="start" x="16.5" y="-261" font-family="Helvetica,sans-Serif" font-size="10.00">{Ponca::NearestIndexQuery</text>
<text text-anchor="middle" x="84.5" y="-250" font-family="Helvetica,sans-Serif" font-size="10.00">&lt; Scalar &gt;</text>
<text text-anchor="middle" x="84.5" y="-239" font-family="Helvetica,sans-Serif" font-size="10.00">||}</text>
</a>
</g>
</g>
<!-- Node3&#45;&gt;Node4 -->
<g id="edge3" class="edge">
<title>Node3&#45;&gt;Node4</title>
<path fill="none" stroke="#63b8ff" d="M84.5,-332.54C84.5,-311.97 84.5,-288.89 84.5,-273"/>
<polygon fill="none" stroke="#63b8ff" points="81,-332.7 84.5,-342.7 88,-332.7 81,-332.7"/>
</g>
<!-- Node5 -->
<g id="node5" class="node">
<title>Node5</title>
<g id="a_node5"><a xlink:href="group__spatialpartitioning.html" target="_top" xlink:title=" ">
<polygon fill="white" stroke="#666666" points="160.5,-163 8.5,-163 8.5,-122 160.5,-122 160.5,-163"/>
<text text-anchor="start" x="16.5" y="-151" font-family="Helvetica,sans-Serif" font-size="10.00">{Ponca::NearestIndexQuery</text>
<text text-anchor="middle" x="84.5" y="-140" font-family="Helvetica,sans-Serif" font-size="10.00">&lt; DataPoint::Scalar &gt;</text>
<text text-anchor="middle" x="84.5" y="-129" font-family="Helvetica,sans-Serif" font-size="10.00">||}</text>
</a>
</g>
</g>
<!-- Node4&#45;&gt;Node5 -->
<g id="edge4" class="edge">
<title>Node4&#45;&gt;Node5</title>
<path fill="none" stroke="orange" d="M84.5,-221.89C84.5,-203.24 84.5,-179.68 84.5,-163.28"/>
<polygon fill="orange" stroke="orange" points="81,-221.94 84.5,-231.94 88,-221.94 81,-221.94"/>
<text text-anchor="middle" x="139.5" y="-184" font-family="Helvetica,sans-Serif" font-size="10.00"> &lt; DataPoint::Scalar &gt;</text>
</g>
<!-- Node6 -->
<g id="node6" class="node">
<title>Node6</title>
<g id="a_node6"><a xlink:href="classPonca_1_1KdTreeNearestIndexQuery.html" target="_top" xlink:title=" ">
<polygon fill="white" stroke="#bfbfbf" points="169,-85 0,-85 0,0 169,0 169,-85"/>
<text text-anchor="start" x="8" y="-73" font-family="Helvetica,sans-Serif" font-size="10.00">{Ponca::KdTreeNearestIndex</text>
<text text-anchor="middle" x="84.5" y="-62" font-family="Helvetica,sans-Serif" font-size="10.00">Query&lt; DataPoint &gt;</text>
<text text-anchor="start" x="8" y="-51" font-family="Helvetica,sans-Serif" font-size="10.00">||+ KdTreeNearestIndexQuery()</text>
<text text-anchor="start" x="8" y="-40" font-family="Helvetica,sans-Serif" font-size="10.00">+ begin()</text>
<text text-anchor="start" x="8" y="-29" font-family="Helvetica,sans-Serif" font-size="10.00">+ end()</text>
<text text-anchor="start" x="8" y="-18" font-family="Helvetica,sans-Serif" font-size="10.00"># search()</text>
<text text-anchor="middle" x="84.5" y="-7" font-family="Helvetica,sans-Serif" font-size="10.00">}</text>
</a>
</g>
</g>
<!-- Node5&#45;&gt;Node6 -->
<g id="edge5" class="edge">
<title>Node5&#45;&gt;Node6</title>
<path fill="none" stroke="#63b8ff" d="M84.5,-111.65C84.5,-103.3 84.5,-94.06 84.5,-85.16"/>
<polygon fill="none" stroke="#63b8ff" points="81,-111.67 84.5,-121.67 88,-111.67 81,-111.67"/>
</g>
<!-- Node8 -->
<g id="node8" class="node">
<title>Node8</title>
<g id="a_node8"><a xlink:href="group__spatialpartitioning.html" target="_top" xlink:title=" ">
<polygon fill="white" stroke="#bfbfbf" points="349,-289.5 182,-289.5 182,-215.5 349,-215.5 349,-289.5"/>
<text text-anchor="start" x="190" y="-277.5" font-family="Helvetica,sans-Serif" font-size="10.00">{Ponca::Query&lt; QueryInput</text>
<text text-anchor="start" x="190" y="-266.5" font-family="Helvetica,sans-Serif" font-size="10.00">IsIndex, QueryOutputIsNearest</text>
<text text-anchor="middle" x="265.5" y="-255.5" font-family="Helvetica,sans-Serif" font-size="10.00">&lt; DataPoint::Scalar &gt; &gt;</text>
<text text-anchor="start" x="190" y="-244.5" font-family="Helvetica,sans-Serif" font-size="10.00">||+ Query()</text>
<text text-anchor="start" x="190" y="-233.5" font-family="Helvetica,sans-Serif" font-size="10.00">+ Query()</text>
<text text-anchor="middle" x="265.5" y="-222.5" font-family="Helvetica,sans-Serif" font-size="10.00">}</text>
</a>
</g>
</g>
<!-- Node7&#45;&gt;Node8 -->
<g id="edge7" class="edge">
<title>Node7&#45;&gt;Node8</title>
<path fill="none" stroke="#63b8ff" d="M267.67,-321.65C267.33,-310.84 266.98,-299.81 266.66,-289.87"/>
<polygon fill="none" stroke="#63b8ff" points="264.18,-322.03 268,-331.91 271.18,-321.8 264.18,-322.03"/>
</g>
<!-- Node9 -->
<g id="node9" class="node">
<title>Node9</title>
<g id="a_node9"><a xlink:href="group__spatialpartitioning.html" target="_top" xlink:title=" ">
<polygon fill="white" stroke="#bfbfbf" points="519.5,-295 367.5,-295 367.5,-210 519.5,-210 519.5,-295"/>
<text text-anchor="start" x="375.5" y="-283" font-family="Helvetica,sans-Serif" font-size="10.00">{Ponca::Query&lt; QueryInput</text>
<text text-anchor="start" x="375.5" y="-272" font-family="Helvetica,sans-Serif" font-size="10.00">IsPosition&lt; DataPoint</text>
<text text-anchor="start" x="375.5" y="-261" font-family="Helvetica,sans-Serif" font-size="10.00"> &gt;, QueryOutputIsNearest</text>
<text text-anchor="middle" x="443.5" y="-250" font-family="Helvetica,sans-Serif" font-size="10.00">&lt; DataPoint::Scalar &gt; &gt;</text>
<text text-anchor="start" x="375.5" y="-239" font-family="Helvetica,sans-Serif" font-size="10.00">||+ Query()</text>
<text text-anchor="start" x="375.5" y="-228" font-family="Helvetica,sans-Serif" font-size="10.00">+ Query()</text>
<text text-anchor="middle" x="443.5" y="-217" font-family="Helvetica,sans-Serif" font-size="10.00">}</text>
</a>
</g>
</g>
<!-- Node7&#45;&gt;Node9 -->
<g id="edge8" class="edge">
<title>Node7&#45;&gt;Node9</title>
<path fill="none" stroke="#63b8ff" d="M343.13,-325.9C357.41,-315.6 372.18,-304.94 385.86,-295.08"/>
<polygon fill="none" stroke="#63b8ff" points="340.85,-323.22 334.79,-331.91 344.94,-328.9 340.85,-323.22"/>
</g>
<!-- Node10 -->
<g id="node10" class="node">
<title>Node10</title>
<g id="a_node10"><a xlink:href="group__spatialpartitioning.html#structPonca_1_1NearestPointQuery" target="_top" xlink:title="Base Query class combining QueryInputIsPosition and QueryOutputIsNearest.">
<polygon fill="white" stroke="#666666" points="518.5,-163 368.5,-163 368.5,-122 518.5,-122 518.5,-163"/>
<text text-anchor="start" x="376.5" y="-151" font-family="Helvetica,sans-Serif" font-size="10.00">{Ponca::NearestPointQuery</text>
<text text-anchor="middle" x="443.5" y="-140" font-family="Helvetica,sans-Serif" font-size="10.00">&lt; DataPoint &gt;</text>
<text text-anchor="middle" x="443.5" y="-129" font-family="Helvetica,sans-Serif" font-size="10.00">||}</text>
</a>
</g>
</g>
<!-- Node9&#45;&gt;Node10 -->
<g id="edge9" class="edge">
<title>Node9&#45;&gt;Node10</title>
<path fill="none" stroke="#63b8ff" d="M443.5,-199.46C443.5,-186.52 443.5,-173.43 443.5,-163.17"/>
<polygon fill="none" stroke="#63b8ff" points="440,-199.74 443.5,-209.74 447,-199.74 440,-199.74"/>
</g>
<!-- Node11 -->
<g id="node11" class="node">
<title>Node11</title>
<g id="a_node11"><a xlink:href="classPonca_1_1KdTreeNearestPointQuery.html" target="_top" xlink:title=" ">
<polygon fill="white" stroke="#bfbfbf" points="527,-85 360,-85 360,0 527,0 527,-85"/>
<text text-anchor="start" x="368" y="-73" font-family="Helvetica,sans-Serif" font-size="10.00">{Ponca::KdTreeNearestPoint</text>
<text text-anchor="middle" x="443.5" y="-62" font-family="Helvetica,sans-Serif" font-size="10.00">Query&lt; DataPoint &gt;</text>
<text text-anchor="start" x="368" y="-51" font-family="Helvetica,sans-Serif" font-size="10.00">||+ KdTreeNearestPointQuery()</text>
<text text-anchor="start" x="368" y="-40" font-family="Helvetica,sans-Serif" font-size="10.00">+ begin()</text>
<text text-anchor="start" x="368" y="-29" font-family="Helvetica,sans-Serif" font-size="10.00">+ end()</text>
<text text-anchor="start" x="368" y="-18" font-family="Helvetica,sans-Serif" font-size="10.00"># search()</text>
<text text-anchor="middle" x="443.5" y="-7" font-family="Helvetica,sans-Serif" font-size="10.00">}</text>
</a>
</g>
</g>
<!-- Node10&#45;&gt;Node11 -->
<g id="edge10" class="edge">
<title>Node10&#45;&gt;Node11</title>
<path fill="none" stroke="#63b8ff" d="M443.5,-111.65C443.5,-103.3 443.5,-94.06 443.5,-85.16"/>
<polygon fill="none" stroke="#63b8ff" points="440,-111.67 443.5,-121.67 447,-111.67 440,-111.67"/>
</g>
</g>
</svg>
