<?xml version="1.0" encoding="UTF-8" standalone="no"?>
<!DOCTYPE svg PUBLIC "-//W3C//DTD SVG 1.1//EN"
 "http://www.w3.org/Graphics/SVG/1.1/DTD/svg11.dtd">
<!-- Generated by graphviz version 2.43.0 (0)
 -->
<!-- Title: Ponca::QueryInputIsPosition&lt; DataPoint &gt; Pages: 1 -->
<!--zoomable 679 -->

<svg id="main" version="1.1" xmlns="http://www.w3.org/2000/svg" xmlns:xlink="http://www.w3.org/1999/xlink" xml:space="preserve" onload="init(evt)">
<style type="text/css"><![CDATA[
.node, .edge {opacity: 0.7;}
.node.selected, .edge.selected {opacity: 1;}
.edge:hover path { stroke: red; }
.edge:hover polygon { stroke: red; fill: red; }
]]></style>

<defs>
  <circle id="rim" cx="0" cy="0" r="7"/>
  <circle id="rim2" cx="0" cy="0" r="3.5"/>
  <g id="zoomPlus">
    <use xlink:href="#rim" fill="#404040"><set attributeName="fill" to="#808080" begin="zoomplus.mouseover" end="zoomplus.mouseout"/></use>
    <path d="M-4,0h8M0,-4v8" fill="none" stroke="white" stroke-width="1.5" pointer-events="none"/>
  </g>
  <g id="zoomMin">
    <use xlink:href="#rim" fill="#404040"><set attributeName="fill" to="#808080" begin="zoomminus.mouseover" end="zoomminus.mouseout"/></use>
    <path d="M-4,0h8" fill="none" stroke="white" stroke-width="1.5" pointer-events="none"/>
  </g>
  <g id="arrowUp" transform="translate(30 24)">
    <use xlink:href="#rim"/>
    <path pointer-events="none" fill="none" stroke="white" stroke-width="1.5" d="M0,-3.0v7 M-2.5,-0.5L0,-3.0L2.5,-0.5"/>
  </g>
  <g id="arrowRight" transform="rotate(90) translate(36 -43)">
    <use xlink:href="#rim"/>
    <path pointer-events="none" fill="none" stroke="white" stroke-width="1.5" d="M0,-3.0v7 M-2.5,-0.5L0,-3.0L2.5,-0.5"/>
  </g>
  <g id="arrowDown" transform="rotate(180) translate(-30 -48)">
    <use xlink:href="#rim"/>
    <path pointer-events="none" fill="none" stroke="white" stroke-width="1.5" d="M0,-3.0v7 M-2.5,-0.5L0,-3.0L2.5,-0.5"/>
  </g>
  <g id="arrowLeft" transform="rotate(270) translate(-36 17)">
    <use xlink:href="#rim"/>
    <path pointer-events="none" fill="none" stroke="white" stroke-width="1.5" d="M0,-3.0v7 M-2.5,-0.5L0,-3.0L2.5,-0.5"/>
  </g>
  <g id="resetDef">
    <use xlink:href="#rim2" fill="#404040"><set attributeName="fill" to="#808080" begin="reset.mouseover" end="reset.mouseout"/></use>
  </g>
</defs>
<script type="application/ecmascript">
var viewWidth = 527;
var viewHeight = 679;
var sectionId = 'dynsection-9';
</script>
<script type="application/ecmascript" xlink:href="svg.min.js"/>
<svg id="graph" class="graph">
<g id="viewport">
<title>Ponca::QueryInputIsPosition&lt; DataPoint &gt;</title>
<!-- Node1 -->
<g id="Node000001" class="node">
<title>Node1</title>
<g id="a_Node000001"><a xlink:title="Base class for queries storing points.">
<polygon fill="#999999" stroke="transparent" points="333,-321 186,-321 186,-231 333,-231 333,-321"/>
<text text-anchor="start" x="191.5" y="-309" font-family="Helvetica,sans-Serif" font-size="10.00">Ponca::QueryInputIsPosition</text>
<text text-anchor="start" x="224.5" y="-298" font-family="Helvetica,sans-Serif" font-size="10.00">&lt; DataPoint &gt;</text>
<text text-anchor="start" x="258" y="-283" font-family="Helvetica,sans-Serif" font-size="10.00"> </text>
<text text-anchor="start" x="194.5" y="-268" font-family="Helvetica,sans-Serif" font-size="10.00">+</text>
<text text-anchor="start" x="211.5" y="-268" font-family="Helvetica,sans-Serif" font-size="10.00">QueryInputIsPosition()</text>
<text text-anchor="start" x="194.5" y="-253" font-family="Helvetica,sans-Serif" font-size="10.00">#</text>
<text text-anchor="start" x="211.5" y="-253" font-family="Helvetica,sans-Serif" font-size="10.00">skipIndexFunctor()</text>
<text text-anchor="start" x="194.5" y="-238" font-family="Helvetica,sans-Serif" font-size="10.00">#</text>
<text text-anchor="start" x="211.5" y="-238" font-family="Helvetica,sans-Serif" font-size="10.00">getInputPosition()</text>
<polygon fill="#666666" stroke="#666666" points="186.5,-293 186.5,-293 333.5,-293 333.5,-293 186.5,-293"/>
<polygon fill="#666666" stroke="#666666" points="186.5,-278 186.5,-278 333.5,-278 333.5,-278 186.5,-278"/>
<polygon fill="none" stroke="#666666" points="186,-231 186,-321 333,-321 333,-231 186,-231"/>
</a>
</g>
</g>
<!-- Node5 -->
<g id="Node000005" class="node">
<title>Node5</title>
<g id="a_Node000005"><a xlink:href="group__spatialpartitioning.html" target="_top" xlink:title=" ">
<polygon fill="white" stroke="transparent" points="161,-194 0,-194 0,-97 161,-97 161,-194"/>
<text text-anchor="start" x="5.5" y="-181.5" font-family="Helvetica,sans-Serif" font-size="10.00">Ponca::Query&lt; QueryInput</text>
<text text-anchor="start" x="5.5" y="-170.5" font-family="Helvetica,sans-Serif" font-size="10.00">IsPosition&lt; DataPoint</text>
<text text-anchor="start" x="5.5" y="-159.5" font-family="Helvetica,sans-Serif" font-size="10.00"> &gt;, QueryOutputIsKNearest</text>
<text text-anchor="start" x="5.5" y="-148.5" font-family="Helvetica,sans-Serif" font-size="10.00">&lt; Index, DataPoint::Scalar &gt; &gt;</text>
<text text-anchor="start" x="79" y="-133.5" font-family="Helvetica,sans-Serif" font-size="10.00"> </text>
<text text-anchor="start" x="30" y="-118.5" font-family="Helvetica,sans-Serif" font-size="10.00">+</text>
<text text-anchor="start" x="68.5" y="-118.5" font-family="Helvetica,sans-Serif" font-size="10.00">Query()</text>
<text text-anchor="start" x="30" y="-103.5" font-family="Helvetica,sans-Serif" font-size="10.00">+</text>
<text text-anchor="start" x="68.5" y="-103.5" font-family="Helvetica,sans-Serif" font-size="10.00">Query()</text>
<polygon fill="#bfbfbf" stroke="#bfbfbf" points="0.5,-143.5 0.5,-143.5 161.5,-143.5 161.5,-143.5 0.5,-143.5"/>
<polygon fill="#bfbfbf" stroke="#bfbfbf" points="0.5,-128.5 0.5,-128.5 161.5,-128.5 161.5,-128.5 0.5,-128.5"/>
<polygon fill="none" stroke="#bfbfbf" points="0,-97 0,-194 161,-194 161,-97 0,-97"/>
</a>
</g>
</g>
<!-- Node1&#45;&gt;Node5 -->
<g id="edge5_Node000001_Node000005" class="edge">
<title>Node1&#45;&gt;Node5</title>
<g id="a_edge5_Node000001_Node000005"><a xlink:title=" ">
<path fill="none" stroke="#63b8ff" d="M189.93,-225.05C175.8,-214.92 160.99,-204.28 146.97,-194.22"/>
<polygon fill="none" stroke="#63b8ff" points="187.98,-227.97 198.15,-230.96 192.07,-222.28 187.98,-227.97"/>
</a>
</g>
</g>
<!-- Node7 -->
<g id="Node000007" class="node">
<title>Node7</title>
<g id="a_Node000007"><a xlink:href="group__spatialpartitioning.html" target="_top" xlink:title=" ">
<polygon fill="white" stroke="transparent" points="340,-194 179,-194 179,-97 340,-97 340,-194"/>
<text text-anchor="start" x="184.5" y="-181.5" font-family="Helvetica,sans-Serif" font-size="10.00">Ponca::Query&lt; QueryInput</text>
<text text-anchor="start" x="184.5" y="-170.5" font-family="Helvetica,sans-Serif" font-size="10.00">IsPosition&lt; DataPoint</text>
<text text-anchor="start" x="184.5" y="-159.5" font-family="Helvetica,sans-Serif" font-size="10.00"> &gt;, QueryOutputIsNearest</text>
<text text-anchor="start" x="184.5" y="-148.5" font-family="Helvetica,sans-Serif" font-size="10.00">&lt; Index, DataPoint::Scalar &gt; &gt;</text>
<text text-anchor="start" x="258" y="-133.5" font-family="Helvetica,sans-Serif" font-size="10.00"> </text>
<text text-anchor="start" x="209" y="-118.5" font-family="Helvetica,sans-Serif" font-size="10.00">+</text>
<text text-anchor="start" x="247.5" y="-118.5" font-family="Helvetica,sans-Serif" font-size="10.00">Query()</text>
<text text-anchor="start" x="209" y="-103.5" font-family="Helvetica,sans-Serif" font-size="10.00">+</text>
<text text-anchor="start" x="247.5" y="-103.5" font-family="Helvetica,sans-Serif" font-size="10.00">Query()</text>
<polygon fill="#bfbfbf" stroke="#bfbfbf" points="179.5,-143.5 179.5,-143.5 340.5,-143.5 340.5,-143.5 179.5,-143.5"/>
<polygon fill="#bfbfbf" stroke="#bfbfbf" points="179.5,-128.5 179.5,-128.5 340.5,-128.5 340.5,-128.5 179.5,-128.5"/>
<polygon fill="none" stroke="#bfbfbf" points="179,-97 179,-194 340,-194 340,-97 179,-97"/>
</a>
</g>
</g>
<!-- Node1&#45;&gt;Node7 -->
<g id="edge7_Node000001_Node000007" class="edge">
<title>Node1&#45;&gt;Node7</title>
<g id="a_edge7_Node000001_Node000007"><a xlink:title=" ">
<path fill="none" stroke="#63b8ff" d="M259.5,-220.66C259.5,-211.91 259.5,-202.9 259.5,-194.32"/>
<polygon fill="none" stroke="#63b8ff" points="256,-220.78 259.5,-230.78 263,-220.78 256,-220.78"/>
</a>
</g>
</g>
<!-- Node9 -->
<g id="Node000009" class="node">
<title>Node9</title>
<g id="a_Node000009"><a xlink:href="group__spatialpartitioning.html" target="_top" xlink:title=" ">
<polygon fill="white" stroke="transparent" points="519,-194 358,-194 358,-97 519,-97 519,-194"/>
<text text-anchor="start" x="363.5" y="-181.5" font-family="Helvetica,sans-Serif" font-size="10.00">Ponca::Query&lt; QueryInput</text>
<text text-anchor="start" x="363.5" y="-170.5" font-family="Helvetica,sans-Serif" font-size="10.00">IsPosition&lt; DataPoint</text>
<text text-anchor="start" x="363.5" y="-159.5" font-family="Helvetica,sans-Serif" font-size="10.00"> &gt;, QueryOutputIsRange</text>
<text text-anchor="start" x="363.5" y="-148.5" font-family="Helvetica,sans-Serif" font-size="10.00">&lt; Index, DataPoint::Scalar &gt; &gt;</text>
<text text-anchor="start" x="437" y="-133.5" font-family="Helvetica,sans-Serif" font-size="10.00"> </text>
<text text-anchor="start" x="388" y="-118.5" font-family="Helvetica,sans-Serif" font-size="10.00">+</text>
<text text-anchor="start" x="426.5" y="-118.5" font-family="Helvetica,sans-Serif" font-size="10.00">Query()</text>
<text text-anchor="start" x="388" y="-103.5" font-family="Helvetica,sans-Serif" font-size="10.00">+</text>
<text text-anchor="start" x="426.5" y="-103.5" font-family="Helvetica,sans-Serif" font-size="10.00">Query()</text>
<polygon fill="#bfbfbf" stroke="#bfbfbf" points="358.5,-143.5 358.5,-143.5 519.5,-143.5 519.5,-143.5 358.5,-143.5"/>
<polygon fill="#bfbfbf" stroke="#bfbfbf" points="358.5,-128.5 358.5,-128.5 519.5,-128.5 519.5,-128.5 358.5,-128.5"/>
<polygon fill="none" stroke="#bfbfbf" points="358,-97 358,-194 519,-194 519,-97 358,-97"/>
</a>
</g>
</g>
<!-- Node1&#45;&gt;Node9 -->
<g id="edge9_Node000001_Node000009" class="edge">
<title>Node1&#45;&gt;Node9</title>
<g id="a_edge9_Node000001_Node000009"><a xlink:title=" ">
<path fill="none" stroke="#63b8ff" d="M329.07,-225.05C343.2,-214.92 358.01,-204.28 372.03,-194.22"/>
<polygon fill="none" stroke="#63b8ff" points="326.93,-222.28 320.85,-230.96 331.02,-227.97 326.93,-222.28"/>
</a>
</g>
</g>
<!-- Node2 -->
<g id="Node000002" class="node">
<title>Node2</title>
<g id="a_Node000002"><a xlink:href="group__spatialpartitioning.html" target="_top" xlink:title=" ">
<polygon fill="white" stroke="transparent" points="325.5,-448 193.5,-448 193.5,-358 325.5,-358 325.5,-448"/>
<text text-anchor="start" x="198.5" y="-436" font-family="Helvetica,sans-Serif" font-size="10.00">Ponca::QueryInput&lt;</text>
<text text-anchor="start" x="198.5" y="-425" font-family="Helvetica,sans-Serif" font-size="10.00"> DataPoint::VectorType &gt;</text>
<text text-anchor="start" x="257.5" y="-410" font-family="Helvetica,sans-Serif" font-size="10.00"> </text>
<text text-anchor="start" x="209.5" y="-395" font-family="Helvetica,sans-Serif" font-size="10.00">+</text>
<text text-anchor="start" x="234.5" y="-395" font-family="Helvetica,sans-Serif" font-size="10.00">QueryInput()</text>
<text text-anchor="start" x="209.5" y="-380" font-family="Helvetica,sans-Serif" font-size="10.00">+</text>
<text text-anchor="start" x="234.5" y="-380" font-family="Helvetica,sans-Serif" font-size="10.00">input()</text>
<text text-anchor="start" x="209.5" y="-365" font-family="Helvetica,sans-Serif" font-size="10.00">#</text>
<text text-anchor="start" x="234.5" y="-365" font-family="Helvetica,sans-Serif" font-size="10.00">editInput()</text>
<polygon fill="#666666" stroke="#666666" points="193.5,-420 193.5,-420 325.5,-420 325.5,-420 193.5,-420"/>
<polygon fill="#666666" stroke="#666666" points="193.5,-405 193.5,-405 325.5,-405 325.5,-405 193.5,-405"/>
<polygon fill="none" stroke="#666666" points="193.5,-358 193.5,-448 325.5,-448 325.5,-358 193.5,-358"/>
</a>
</g>
</g>
<!-- Node2&#45;&gt;Node1 -->
<g id="edge1_Node000001_Node000002" class="edge">
<title>Node2&#45;&gt;Node1</title>
<g id="a_edge1_Node000001_Node000002"><a xlink:title=" ">
<path fill="none" stroke="#63b8ff" d="M259.5,-347.66C259.5,-338.78 259.5,-329.68 259.5,-321.09"/>
<polygon fill="none" stroke="#63b8ff" points="256,-347.93 259.5,-357.93 263,-347.93 256,-347.93"/>
</a>
</g>
</g>
<!-- Node3 -->
<g id="Node000003" class="node">
<title>Node3</title>
<g id="a_Node000003"><a xlink:href="group__spatialpartitioning.html#structPonca_1_1QueryInputBase" target="_top" xlink:title="Base class for queries input type.">
<polygon fill="white" stroke="transparent" points="317.5,-671 193.5,-671 193.5,-622 317.5,-622 317.5,-671"/>
<text text-anchor="start" x="198.5" y="-658.5" font-family="Helvetica,sans-Serif" font-size="10.00">Ponca::QueryInputBase</text>
<text text-anchor="start" x="253.5" y="-643.5" font-family="Helvetica,sans-Serif" font-size="10.00"> </text>
<text text-anchor="start" x="253.5" y="-628.5" font-family="Helvetica,sans-Serif" font-size="10.00"> </text>
<polygon fill="#666666" stroke="#666666" points="193.5,-653.5 193.5,-653.5 317.5,-653.5 317.5,-653.5 193.5,-653.5"/>
<polygon fill="#666666" stroke="#666666" points="193.5,-638.5 193.5,-638.5 317.5,-638.5 317.5,-638.5 193.5,-638.5"/>
<polygon fill="none" stroke="#666666" points="193.5,-622 193.5,-671 317.5,-671 317.5,-622 193.5,-622"/>
</a>
</g>
</g>
<!-- Node3&#45;&gt;Node2 -->
<g id="edge2_Node000002_Node000003" class="edge">
<title>Node3&#45;&gt;Node2</title>
<g id="a_edge2_Node000002_Node000003"><a xlink:title=" ">
<path fill="none" stroke="#63b8ff" d="M256.06,-611.74C256.77,-568.97 257.99,-495.19 258.77,-448.04"/>
<polygon fill="none" stroke="#63b8ff" points="252.56,-611.85 255.89,-621.9 259.56,-611.96 252.56,-611.85"/>
</a>
</g>
</g>
<!-- Node4 -->
<g id="Node000004" class="node">
<title>Node4</title>
<g id="a_Node000004"><a xlink:href="group__spatialpartitioning.html#structPonca_1_1QueryInput" target="_top" xlink:title="Base class for typed queries input type.">
<polygon fill="white" stroke="transparent" points="379.5,-585 271.5,-585 271.5,-495 379.5,-495 379.5,-585"/>
<text text-anchor="start" x="276.5" y="-573" font-family="Helvetica,sans-Serif" font-size="10.00">Ponca::QueryInput&lt;</text>
<text text-anchor="start" x="292" y="-562" font-family="Helvetica,sans-Serif" font-size="10.00"> InputType_ &gt;</text>
<text text-anchor="start" x="323.5" y="-547" font-family="Helvetica,sans-Serif" font-size="10.00"> </text>
<text text-anchor="start" x="281.5" y="-532" font-family="Helvetica,sans-Serif" font-size="10.00">+</text>
<text text-anchor="start" x="300.5" y="-532" font-family="Helvetica,sans-Serif" font-size="10.00">QueryInput()</text>
<text text-anchor="start" x="281.5" y="-517" font-family="Helvetica,sans-Serif" font-size="10.00">+</text>
<text text-anchor="start" x="300.5" y="-517" font-family="Helvetica,sans-Serif" font-size="10.00">input()</text>
<text text-anchor="start" x="281.5" y="-502" font-family="Helvetica,sans-Serif" font-size="10.00">#</text>
<text text-anchor="start" x="300.5" y="-502" font-family="Helvetica,sans-Serif" font-size="10.00">editInput()</text>
<polygon fill="#666666" stroke="#666666" points="271.5,-557 271.5,-557 379.5,-557 379.5,-557 271.5,-557"/>
<polygon fill="#666666" stroke="#666666" points="271.5,-542 271.5,-542 379.5,-542 379.5,-542 271.5,-542"/>
<polygon fill="none" stroke="#666666" points="271.5,-495 271.5,-585 379.5,-585 379.5,-495 271.5,-495"/>
</a>
</g>
</g>
<!-- Node3&#45;&gt;Node4 -->
<g id="edge4_Node000004_Node000003" class="edge">
<title>Node3&#45;&gt;Node4</title>
<g id="a_edge4_Node000004_Node000003"><a xlink:title=" ">
<path fill="none" stroke="#63b8ff" d="M277.1,-613.26C283.04,-604.39 289.59,-594.6 295.91,-585.18"/>
<polygon fill="none" stroke="#63b8ff" points="274.04,-611.53 271.38,-621.79 279.86,-615.43 274.04,-611.53"/>
</a>
</g>
</g>
<!-- Node4&#45;&gt;Node2 -->
<g id="edge3_Node000002_Node000004" class="edge">
<title>Node4&#45;&gt;Node2</title>
<g id="a_edge3_Node000002_Node000004"><a xlink:title=" ">
<path fill="none" stroke="orange" d="M299.35,-485.52C293.32,-473.19 286.97,-460.2 281.16,-448.3"/>
<polygon fill="orange" stroke="orange" points="296.35,-487.35 303.89,-494.8 302.64,-484.27 296.35,-487.35"/>
</a>
</g>
<text text-anchor="middle" x="360" y="-469" font-family="Helvetica,sans-Serif" font-size="10.00" fill="grey"> &lt; DataPoint::VectorType &gt;</text>
</g>
<!-- Node6 -->
<g id="Node000006" class="node">
<title>Node6</title>
<g id="a_Node000006"><a xlink:href="group__spatialpartitioning.html#structPonca_1_1KNearestPointQuery" target="_top" xlink:title="Base Query class combining QueryInputIsPosition and QueryOutputIsKNearest.">
<polygon fill="white" stroke="transparent" points="153,-60 8,-60 8,0 153,0 153,-60"/>
<text text-anchor="start" x="13.5" y="-48" font-family="Helvetica,sans-Serif" font-size="10.00">Ponca::KNearestPointQuery</text>
<text text-anchor="start" x="29" y="-37" font-family="Helvetica,sans-Serif" font-size="10.00">&lt; Index, DataPoint &gt;</text>
<text text-anchor="start" x="79" y="-22" font-family="Helvetica,sans-Serif" font-size="10.00"> </text>
<text text-anchor="start" x="79" y="-7" font-family="Helvetica,sans-Serif" font-size="10.00"> </text>
<polygon fill="#666666" stroke="#666666" points="8.5,-32 8.5,-32 153.5,-32 153.5,-32 8.5,-32"/>
<polygon fill="#666666" stroke="#666666" points="8.5,-17 8.5,-17 153.5,-17 153.5,-17 8.5,-17"/>
<polygon fill="none" stroke="#666666" points="8,0 8,-60 153,-60 153,0 8,0"/>
</a>
</g>
</g>
<!-- Node5&#45;&gt;Node6 -->
<g id="edge6_Node000005_Node000006" class="edge">
<title>Node5&#45;&gt;Node6</title>
<g id="a_edge6_Node000005_Node000006"><a xlink:title=" ">
<path fill="none" stroke="#63b8ff" d="M80.5,-86.48C80.5,-77.4 80.5,-68.36 80.5,-60.3"/>
<polygon fill="none" stroke="#63b8ff" points="77,-86.69 80.5,-96.69 84,-86.69 77,-86.69"/>
</a>
</g>
</g>
<!-- Node8 -->
<g id="Node000008" class="node">
<title>Node8</title>
<g id="a_Node000008"><a xlink:href="group__spatialpartitioning.html#structPonca_1_1NearestPointQuery" target="_top" xlink:title="Base Query class combining QueryInputIsPosition and QueryOutputIsNearest.">
<polygon fill="white" stroke="transparent" points="328.5,-60 190.5,-60 190.5,0 328.5,0 328.5,-60"/>
<text text-anchor="start" x="195.5" y="-48" font-family="Helvetica,sans-Serif" font-size="10.00">Ponca::NearestPointQuery</text>
<text text-anchor="start" x="207.5" y="-37" font-family="Helvetica,sans-Serif" font-size="10.00">&lt; Index, DataPoint &gt;</text>
<text text-anchor="start" x="257.5" y="-22" font-family="Helvetica,sans-Serif" font-size="10.00"> </text>
<text text-anchor="start" x="257.5" y="-7" font-family="Helvetica,sans-Serif" font-size="10.00"> </text>
<polygon fill="#666666" stroke="#666666" points="190.5,-32 190.5,-32 328.5,-32 328.5,-32 190.5,-32"/>
<polygon fill="#666666" stroke="#666666" points="190.5,-17 190.5,-17 328.5,-17 328.5,-17 190.5,-17"/>
<polygon fill="none" stroke="#666666" points="190.5,0 190.5,-60 328.5,-60 328.5,0 190.5,0"/>
</a>
</g>
</g>
<!-- Node7&#45;&gt;Node8 -->
<g id="edge8_Node000007_Node000008" class="edge">
<title>Node7&#45;&gt;Node8</title>
<g id="a_edge8_Node000007_Node000008"><a xlink:title=" ">
<path fill="none" stroke="#63b8ff" d="M259.5,-86.48C259.5,-77.4 259.5,-68.36 259.5,-60.3"/>
<polygon fill="none" stroke="#63b8ff" points="256,-86.69 259.5,-96.69 263,-86.69 256,-86.69"/>
</a>
</g>
</g>
<!-- Node10 -->
<g id="Node000010" class="node">
<title>Node10</title>
<g id="a_Node000010"><a xlink:href="group__spatialpartitioning.html#structPonca_1_1RangePointQuery" target="_top" xlink:title="Base Query class combining QueryInputIsPosition and QueryOutputIsRange.">
<polygon fill="white" stroke="transparent" points="504,-60 373,-60 373,0 504,0 504,-60"/>
<text text-anchor="start" x="378.5" y="-48" font-family="Helvetica,sans-Serif" font-size="10.00">Ponca::RangePointQuery</text>
<text text-anchor="start" x="387" y="-37" font-family="Helvetica,sans-Serif" font-size="10.00">&lt; Index, DataPoint &gt;</text>
<text text-anchor="start" x="437" y="-22" font-family="Helvetica,sans-Serif" font-size="10.00"> </text>
<text text-anchor="start" x="437" y="-7" font-family="Helvetica,sans-Serif" font-size="10.00"> </text>
<polygon fill="#666666" stroke="#666666" points="373.5,-32 373.5,-32 504.5,-32 504.5,-32 373.5,-32"/>
<polygon fill="#666666" stroke="#666666" points="373.5,-17 373.5,-17 504.5,-17 504.5,-17 373.5,-17"/>
<polygon fill="none" stroke="#666666" points="373,0 373,-60 504,-60 504,0 373,0"/>
</a>
</g>
</g>
<!-- Node9&#45;&gt;Node10 -->
<g id="edge10_Node000009_Node000010" class="edge">
<title>Node9&#45;&gt;Node10</title>
<g id="a_edge10_Node000009_Node000010"><a xlink:title=" ">
<path fill="none" stroke="#63b8ff" d="M438.5,-86.48C438.5,-77.4 438.5,-68.36 438.5,-60.3"/>
<polygon fill="none" stroke="#63b8ff" points="435,-86.69 438.5,-96.69 442,-86.69 435,-86.69"/>
</a>
</g>
</g>
</g>
</svg>

<g id="navigator" transform="translate(0 0)" fill="#404254">
  <rect fill="#f2f5e9" fill-opacity="0.5" stroke="#606060" stroke-width=".5" x="0" y="0" width="60" height="60"/>
  <use id="zoomplus" xlink:href="#zoomPlus" x="17" y="9" onmousedown="handleZoom(evt,'in')"/>
  <use id="zoomminus" xlink:href="#zoomMin" x="42" y="9" onmousedown="handleZoom(evt,'out')"/>
  <use id="reset" xlink:href="#resetDef" x="30" y="36" onmousedown="handleReset()"/>
   <use id="arrowup" xlink:href="#arrowUp" x="0" y="0" onmousedown="handlePan(0,-1)"/>
  <use id="arrowright" xlink:href="#arrowRight" x="0" y="0" onmousedown="handlePan(1,0)"/>
  <use id="arrowdown" xlink:href="#arrowDown" x="0" y="0" onmousedown="handlePan(0,1)"/>
  <use id="arrowleft" xlink:href="#arrowLeft" x="0" y="0" onmousedown="handlePan(-1,0)"/>
</g>
<svg viewBox="0 0 15 15" width="100%" height="30px" preserveAspectRatio="xMaxYMin meet">
 <g id="arrow_out" transform="scale(0.3 0.3)">
  <a xlink:href="structPonca_1_1QueryInputIsPosition__inherit__graph_org.svg" target="_base">
   <rect id="button" ry="5" rx="5" y="6" x="6" height="38" width="38"
        fill="#f2f5e9" fill-opacity="0.5" stroke="#606060" stroke-width="1.0"/>
   <path id="arrow"
     d="M 11.500037,31.436501 C 11.940474,20.09759 22.043105,11.32322 32.158766,21.979434 L 37.068811,17.246167 C 37.068811,17.246167 37.088388,32 37.088388,32 L 22.160133,31.978069 C 22.160133,31.978069 26.997745,27.140456 26.997745,27.140456 C 18.528582,18.264221 13.291696,25.230495 11.500037,31.436501 z"
     style="fill:#404040;"/>
  </a>
 </g>
</svg>

<style type='text/css'>
<![CDATA[
[data-mouse-over-selected='false'] { opacity: 0.7; }
[data-mouse-over-selected='true']  { opacity: 1.0; }
]]>
</style>
<script type="application/ecmascript"><![CDATA[
document.addEventListener('DOMContentLoaded', (event) => {
  highlightEdges();
  highlightAdjacentNodes();
});
]]></script>
</svg>
