<?xml version="1.0" encoding="UTF-8" standalone="no"?>
<!DOCTYPE svg PUBLIC "-//W3C//DTD SVG 1.1//EN"
 "http://www.w3.org/Graphics/SVG/1.1/DTD/svg11.dtd">
<!-- Generated by graphviz version 2.43.0 (0)
 -->
<!-- Title: Ponca::NearestPointQuery&lt; DataPoint &gt; Pages: 1 -->
<svg width="628pt" height="667pt"
 viewBox="0.00 0.00 627.50 667.00" xmlns="http://www.w3.org/2000/svg" xmlns:xlink="http://www.w3.org/1999/xlink">
<g id="graph0" class="graph" transform="scale(1 1) rotate(0) translate(4 663)">
<title>Ponca::NearestPointQuery&lt; DataPoint &gt;</title>
<!-- Node1 -->
<g id="node1" class="node">
<title>Node1</title>
<g id="a_node1"><a xlink:title="Base Query class combining QueryInputIsPosition and QueryOutputIsNearest.">
<polygon fill="#999999" stroke="#666666" points="421,-41 271,-41 271,0 421,0 421,-41"/>
<text text-anchor="start" x="279" y="-29" font-family="Helvetica,sans-Serif" font-size="10.00">{Ponca::NearestPointQuery</text>
<text text-anchor="middle" x="346" y="-18" font-family="Helvetica,sans-Serif" font-size="10.00">&lt; DataPoint &gt;</text>
<text text-anchor="middle" x="346" y="-7" font-family="Helvetica,sans-Serif" font-size="10.00">||}</text>
</a>
</g>
</g>
<!-- Node2 -->
<g id="node2" class="node">
<title>Node2</title>
<g id="a_node2"><a xlink:href="group__spatialpartitioning.html" target="_top" xlink:title=" ">
<polygon fill="white" stroke="#bfbfbf" points="422,-163 270,-163 270,-78 422,-78 422,-163"/>
<text text-anchor="start" x="278" y="-151" font-family="Helvetica,sans-Serif" font-size="10.00">{Ponca::Query&lt; QueryInput</text>
<text text-anchor="start" x="278" y="-140" font-family="Helvetica,sans-Serif" font-size="10.00">IsPosition&lt; DataPoint</text>
<text text-anchor="start" x="278" y="-129" font-family="Helvetica,sans-Serif" font-size="10.00"> &gt;, QueryOutputIsNearest</text>
<text text-anchor="middle" x="346" y="-118" font-family="Helvetica,sans-Serif" font-size="10.00">&lt; DataPoint::Scalar &gt; &gt;</text>
<text text-anchor="start" x="278" y="-107" font-family="Helvetica,sans-Serif" font-size="10.00">||+ Query()</text>
<text text-anchor="start" x="278" y="-96" font-family="Helvetica,sans-Serif" font-size="10.00">+ Query()</text>
<text text-anchor="middle" x="346" y="-85" font-family="Helvetica,sans-Serif" font-size="10.00">}</text>
</a>
</g>
</g>
<!-- Node2&#45;&gt;Node1 -->
<g id="edge1" class="edge">
<title>Node2&#45;&gt;Node1</title>
<path fill="none" stroke="#63b8ff" d="M346,-67.72C346,-58.29 346,-48.99 346,-41.24"/>
<polygon fill="none" stroke="#63b8ff" points="342.5,-67.94 346,-77.94 349.5,-67.94 342.5,-67.94"/>
</g>
<!-- Node3 -->
<g id="node3" class="node">
<title>Node3</title>
<g id="a_node3"><a xlink:href="group__spatialpartitioning.html#structPonca_1_1QueryInputIsPosition" target="_top" xlink:title="Base class for queries storing points.">
<polygon fill="white" stroke="#666666" points="233.5,-306 74.5,-306 74.5,-254 233.5,-254 233.5,-306"/>
<text text-anchor="start" x="82.5" y="-294" font-family="Helvetica,sans-Serif" font-size="10.00">{Ponca::QueryInputIsPosition</text>
<text text-anchor="middle" x="154" y="-283" font-family="Helvetica,sans-Serif" font-size="10.00">&lt; DataPoint &gt;</text>
<text text-anchor="start" x="82.5" y="-272" font-family="Helvetica,sans-Serif" font-size="10.00">||+ QueryInputIsPosition()</text>
<text text-anchor="middle" x="154" y="-261" font-family="Helvetica,sans-Serif" font-size="10.00">}</text>
</a>
</g>
</g>
<!-- Node3&#45;&gt;Node2 -->
<g id="edge2" class="edge">
<title>Node3&#45;&gt;Node2</title>
<path fill="none" stroke="#63b8ff" d="M192.86,-247.12C222.4,-222.89 263.28,-189.35 295.38,-163.02"/>
<polygon fill="none" stroke="#63b8ff" points="190.36,-244.65 184.85,-253.69 194.8,-250.06 190.36,-244.65"/>
</g>
<!-- Node4 -->
<g id="node4" class="node">
<title>Node4</title>
<g id="a_node4"><a xlink:href="group__spatialpartitioning.html" target="_top" xlink:title=" ">
<polygon fill="white" stroke="#666666" points="196,-460 58,-460 58,-386 196,-386 196,-460"/>
<text text-anchor="start" x="66" y="-448" font-family="Helvetica,sans-Serif" font-size="10.00">{Ponca::QueryInput&lt;</text>
<text text-anchor="middle" x="127" y="-437" font-family="Helvetica,sans-Serif" font-size="10.00"> DataPoint::VectorType &gt;</text>
<text text-anchor="start" x="66" y="-426" font-family="Helvetica,sans-Serif" font-size="10.00">||+ QueryInput()</text>
<text text-anchor="start" x="66" y="-415" font-family="Helvetica,sans-Serif" font-size="10.00">+ input()</text>
<text text-anchor="start" x="66" y="-404" font-family="Helvetica,sans-Serif" font-size="10.00"># editInput()</text>
<text text-anchor="middle" x="127" y="-393" font-family="Helvetica,sans-Serif" font-size="10.00">}</text>
</a>
</g>
</g>
<!-- Node4&#45;&gt;Node3 -->
<g id="edge3" class="edge">
<title>Node4&#45;&gt;Node3</title>
<path fill="none" stroke="#63b8ff" d="M135.87,-375.7C140.31,-352.51 145.51,-325.35 149.2,-306.08"/>
<polygon fill="none" stroke="#63b8ff" points="132.4,-375.21 133.95,-385.69 139.27,-376.53 132.4,-375.21"/>
</g>
<!-- Node5 -->
<g id="node5" class="node">
<title>Node5</title>
<g id="a_node5"><a xlink:href="group__spatialpartitioning.html#structPonca_1_1QueryInputBase" target="_top" xlink:title="Base class for queries input type.">
<polygon fill="white" stroke="#666666" points="136,-659 0,-659 0,-629 136,-629 136,-659"/>
<text text-anchor="middle" x="68" y="-647" font-family="Helvetica,sans-Serif" font-size="10.00">{Ponca::QueryInputBase</text>
<text text-anchor="middle" x="68" y="-636" font-family="Helvetica,sans-Serif" font-size="10.00">||}</text>
</a>
</g>
</g>
<!-- Node5&#45;&gt;Node4 -->
<g id="edge4" class="edge">
<title>Node5&#45;&gt;Node4</title>
<path fill="none" stroke="#63b8ff" d="M66.19,-618.51C65.04,-592.92 65.25,-551.84 75,-518 80.84,-497.75 91.65,-477.06 101.91,-460.27"/>
<polygon fill="none" stroke="#63b8ff" points="62.72,-619 66.77,-628.79 69.71,-618.61 62.72,-619"/>
</g>
<!-- Node6 -->
<g id="node6" class="node">
<title>Node6</title>
<g id="a_node6"><a xlink:href="group__spatialpartitioning.html#structPonca_1_1QueryInput" target="_top" xlink:title="Base class for typed queries input type.">
<polygon fill="white" stroke="#666666" points="204,-592 84,-592 84,-518 204,-518 204,-592"/>
<text text-anchor="start" x="92" y="-580" font-family="Helvetica,sans-Serif" font-size="10.00">{Ponca::QueryInput&lt;</text>
<text text-anchor="middle" x="144" y="-569" font-family="Helvetica,sans-Serif" font-size="10.00"> InputType_ &gt;</text>
<text text-anchor="start" x="92" y="-558" font-family="Helvetica,sans-Serif" font-size="10.00">||+ QueryInput()</text>
<text text-anchor="start" x="92" y="-547" font-family="Helvetica,sans-Serif" font-size="10.00">+ input()</text>
<text text-anchor="start" x="92" y="-536" font-family="Helvetica,sans-Serif" font-size="10.00"># editInput()</text>
<text text-anchor="middle" x="144" y="-525" font-family="Helvetica,sans-Serif" font-size="10.00">}</text>
</a>
</g>
</g>
<!-- Node5&#45;&gt;Node6 -->
<g id="edge6" class="edge">
<title>Node5&#45;&gt;Node6</title>
<path fill="none" stroke="#63b8ff" d="M87.15,-621.08C94.8,-612.32 103.83,-601.99 112.41,-592.17"/>
<polygon fill="none" stroke="#63b8ff" points="84.49,-618.8 80.55,-628.63 89.76,-623.41 84.49,-618.8"/>
</g>
<!-- Node6&#45;&gt;Node4 -->
<g id="edge5" class="edge">
<title>Node6&#45;&gt;Node4</title>
<path fill="none" stroke="orange" d="M129.4,-507.72C128.86,-505.12 128.39,-502.54 128,-500 126.04,-487.08 125.45,-472.79 125.46,-460.12"/>
<polygon fill="orange" stroke="orange" points="126.06,-508.79 131.77,-517.71 132.87,-507.17 126.06,-508.79"/>
<text text-anchor="middle" x="194.5" y="-492" font-family="Helvetica,sans-Serif" font-size="10.00"> &lt; DataPoint::VectorType &gt;</text>
</g>
<!-- Node7 -->
<g id="node7" class="node">
<title>Node7</title>
<g id="a_node7"><a xlink:href="group__spatialpartitioning.html" target="_top" xlink:title=" ">
<polygon fill="white" stroke="#666666" points="429.5,-328 262.5,-328 262.5,-232 429.5,-232 429.5,-328"/>
<text text-anchor="start" x="270.5" y="-316" font-family="Helvetica,sans-Serif" font-size="10.00">{Ponca::QueryOutputIsNearest</text>
<text text-anchor="middle" x="346" y="-305" font-family="Helvetica,sans-Serif" font-size="10.00">&lt; DataPoint::Scalar &gt;</text>
<text text-anchor="start" x="270.5" y="-294" font-family="Helvetica,sans-Serif" font-size="10.00">|# m_nearest</text>
<text text-anchor="start" x="270.5" y="-283" font-family="Helvetica,sans-Serif" font-size="10.00"># m_squared_distance</text>
<text text-anchor="start" x="270.5" y="-272" font-family="Helvetica,sans-Serif" font-size="10.00">|+ QueryOutputIsNearest()</text>
<text text-anchor="start" x="270.5" y="-261" font-family="Helvetica,sans-Serif" font-size="10.00">+ get()</text>
<text text-anchor="start" x="270.5" y="-250" font-family="Helvetica,sans-Serif" font-size="10.00"># reset()</text>
<text text-anchor="middle" x="346" y="-239" font-family="Helvetica,sans-Serif" font-size="10.00">}</text>
</a>
</g>
</g>
<!-- Node7&#45;&gt;Node2 -->
<g id="edge7" class="edge">
<title>Node7&#45;&gt;Node2</title>
<path fill="none" stroke="#63b8ff" d="M346,-221.53C346,-202.18 346,-180.99 346,-163.11"/>
<polygon fill="none" stroke="#63b8ff" points="342.5,-221.74 346,-231.74 349.5,-221.74 342.5,-221.74"/>
</g>
<!-- Node8 -->
<g id="node8" class="node">
<title>Node8</title>
<g id="a_node8"><a xlink:href="group__spatialpartitioning.html#structPonca_1_1QueryOutputBase" target="_top" xlink:title="Base class for queries output type.">
<polygon fill="white" stroke="#666666" points="377,-570 233,-570 233,-540 377,-540 377,-570"/>
<text text-anchor="middle" x="305" y="-558" font-family="Helvetica,sans-Serif" font-size="10.00">{Ponca::QueryOutputBase</text>
<text text-anchor="middle" x="305" y="-547" font-family="Helvetica,sans-Serif" font-size="10.00">||}</text>
</a>
</g>
</g>
<!-- Node8&#45;&gt;Node7 -->
<g id="edge8" class="edge">
<title>Node8&#45;&gt;Node7</title>
<path fill="none" stroke="#63b8ff" d="M298.61,-530.05C290.41,-495.28 278.81,-429.06 293,-375 297.23,-358.87 304.93,-342.6 313.17,-328.23"/>
<polygon fill="none" stroke="#63b8ff" points="295.22,-530.92 301.02,-539.78 302.02,-529.24 295.22,-530.92"/>
</g>
<!-- Node9 -->
<g id="node9" class="node">
<title>Node9</title>
<g id="a_node9"><a xlink:href="group__spatialpartitioning.html#structPonca_1_1QueryOutputIsNearest" target="_top" xlink:title="Base class for nearest queries.">
<polygon fill="white" stroke="#666666" points="469.5,-471 302.5,-471 302.5,-375 469.5,-375 469.5,-471"/>
<text text-anchor="start" x="310.5" y="-459" font-family="Helvetica,sans-Serif" font-size="10.00">{Ponca::QueryOutputIsNearest</text>
<text text-anchor="middle" x="386" y="-448" font-family="Helvetica,sans-Serif" font-size="10.00">&lt; Scalar &gt;</text>
<text text-anchor="start" x="310.5" y="-437" font-family="Helvetica,sans-Serif" font-size="10.00">|# m_nearest</text>
<text text-anchor="start" x="310.5" y="-426" font-family="Helvetica,sans-Serif" font-size="10.00"># m_squared_distance</text>
<text text-anchor="start" x="310.5" y="-415" font-family="Helvetica,sans-Serif" font-size="10.00">|+ QueryOutputIsNearest()</text>
<text text-anchor="start" x="310.5" y="-404" font-family="Helvetica,sans-Serif" font-size="10.00">+ get()</text>
<text text-anchor="start" x="310.5" y="-393" font-family="Helvetica,sans-Serif" font-size="10.00"># reset()</text>
<text text-anchor="middle" x="386" y="-382" font-family="Helvetica,sans-Serif" font-size="10.00">}</text>
</a>
</g>
</g>
<!-- Node8&#45;&gt;Node9 -->
<g id="edge10" class="edge">
<title>Node8&#45;&gt;Node9</title>
<path fill="none" stroke="#63b8ff" d="M319.12,-531.34C329.47,-514.73 343.89,-491.58 356.7,-471.03"/>
<polygon fill="none" stroke="#63b8ff" points="316.14,-529.5 313.82,-539.84 322.08,-533.2 316.14,-529.5"/>
</g>
<!-- Node9&#45;&gt;Node7 -->
<g id="edge9" class="edge">
<title>Node9&#45;&gt;Node7</title>
<path fill="none" stroke="orange" d="M369.75,-364.7C366.33,-352.66 362.76,-340.09 359.46,-328.46"/>
<polygon fill="orange" stroke="orange" points="366.47,-365.99 372.57,-374.66 373.21,-364.08 366.47,-365.99"/>
<text text-anchor="middle" x="423" y="-349" font-family="Helvetica,sans-Serif" font-size="10.00"> &lt; DataPoint::Scalar &gt;</text>
</g>
<!-- Node10 -->
<g id="node10" class="node">
<title>Node10</title>
<g id="a_node10"><a xlink:href="group__spatialpartitioning.html#structPonca_1_1Query" target="_top" xlink:title=" ">
<polygon fill="white" stroke="#bfbfbf" points="575.5,-311.5 452.5,-311.5 452.5,-248.5 575.5,-248.5 575.5,-311.5"/>
<text text-anchor="start" x="460.5" y="-299.5" font-family="Helvetica,sans-Serif" font-size="10.00">{Ponca::Query&lt; Input</text>
<text text-anchor="middle" x="514" y="-288.5" font-family="Helvetica,sans-Serif" font-size="10.00">_, Output_ &gt;</text>
<text text-anchor="start" x="460.5" y="-277.5" font-family="Helvetica,sans-Serif" font-size="10.00">||+ Query()</text>
<text text-anchor="start" x="460.5" y="-266.5" font-family="Helvetica,sans-Serif" font-size="10.00">+ Query()</text>
<text text-anchor="middle" x="514" y="-255.5" font-family="Helvetica,sans-Serif" font-size="10.00">}</text>
</a>
</g>
</g>
<!-- Node10&#45;&gt;Node2 -->
<g id="edge11" class="edge">
<title>Node10&#45;&gt;Node2</title>
<path fill="none" stroke="orange" d="M473.67,-241.19C448.58,-217.67 416.3,-187.4 390.47,-163.19"/>
<polygon fill="orange" stroke="orange" points="471.52,-243.97 481.21,-248.26 476.31,-238.87 471.52,-243.97"/>
<text text-anchor="start" x="441" y="-206" font-family="Helvetica,sans-Serif" font-size="10.00"> &lt; QueryInputIsPosition</text>
<text text-anchor="start" x="441" y="-195" font-family="Helvetica,sans-Serif" font-size="10.00">&lt; DataPoint &gt;, QueryOutputIs</text>
<text text-anchor="middle" x="519.5" y="-184" font-family="Helvetica,sans-Serif" font-size="10.00">Nearest&lt; DataPoint::Scalar &gt; &gt;</text>
</g>
<!-- Node11 -->
<g id="node11" class="node">
<title>Node11</title>
<g id="a_node11"><a xlink:title=" ">
<polygon fill="white" stroke="#bfbfbf" points="540.5,-438 487.5,-438 487.5,-408 540.5,-408 540.5,-438"/>
<text text-anchor="middle" x="514" y="-426" font-family="Helvetica,sans-Serif" font-size="10.00">{Input_</text>
<text text-anchor="middle" x="514" y="-415" font-family="Helvetica,sans-Serif" font-size="10.00">||}</text>
</a>
</g>
</g>
<!-- Node11&#45;&gt;Node10 -->
<g id="edge12" class="edge">
<title>Node11&#45;&gt;Node10</title>
<path fill="none" stroke="#63b8ff" d="M514,-397.7C514,-373.9 514,-337.57 514,-311.77"/>
<polygon fill="none" stroke="#63b8ff" points="510.5,-397.96 514,-407.96 517.5,-397.96 510.5,-397.96"/>
</g>
<!-- Node12 -->
<g id="node12" class="node">
<title>Node12</title>
<g id="a_node12"><a xlink:title=" ">
<polygon fill="white" stroke="#bfbfbf" points="619.5,-438 558.5,-438 558.5,-408 619.5,-408 619.5,-438"/>
<text text-anchor="middle" x="589" y="-426" font-family="Helvetica,sans-Serif" font-size="10.00">{Output_</text>
<text text-anchor="middle" x="589" y="-415" font-family="Helvetica,sans-Serif" font-size="10.00">||}</text>
</a>
</g>
</g>
<!-- Node12&#45;&gt;Node10 -->
<g id="edge13" class="edge">
<title>Node12&#45;&gt;Node10</title>
<path fill="none" stroke="#63b8ff" d="M576.75,-398.97C564.12,-375.22 544.34,-338.03 530.37,-311.77"/>
<polygon fill="none" stroke="#63b8ff" points="573.75,-400.78 581.53,-407.96 579.93,-397.49 573.75,-400.78"/>
</g>
</g>
</svg>
