<?xml version="1.0" encoding="UTF-8" standalone="no"?>
<!DOCTYPE svg PUBLIC "-//W3C//DTD SVG 1.1//EN"
 "http://www.w3.org/Graphics/SVG/1.1/DTD/svg11.dtd">
<!-- Generated by graphviz version 2.43.0 (0)
 -->
<!-- Title: Ponca::QueryOutputIsKNearest&lt; Index, Scalar, MAX_KNN_SIZE &gt; Pages: 1 -->
<svg width="492pt" height="1124pt"
 viewBox="0.00 0.00 491.50 1124.00" xmlns="http://www.w3.org/2000/svg" xmlns:xlink="http://www.w3.org/1999/xlink">
<g id="graph0" class="graph" transform="scale(1 1) rotate(0) translate(4 1120)">
<title>Ponca::QueryOutputIsKNearest&lt; Index, Scalar, MAX_KNN_SIZE &gt;</title>
<!-- Node1 -->
<g id="Node000001" class="node">
<title>Node1</title>
<g id="a_Node000001"><a xlink:title="Class to construct the knearest queries.">
<polygon fill="#999999" stroke="transparent" points="179,-120 0,-120 0,0 179,0 179,-120"/>
<text text-anchor="start" x="5.5" y="-108" font-family="Helvetica,sans-Serif" font-size="10.00">Ponca::QueryOutputIsKNearest</text>
<text text-anchor="start" x="5.5" y="-97" font-family="Helvetica,sans-Serif" font-size="10.00">&lt; Index, Scalar, MAX_KNN_SIZE &gt;</text>
<text text-anchor="start" x="88" y="-82" font-family="Helvetica,sans-Serif" font-size="10.00"> </text>
<text text-anchor="start" x="9.5" y="-67" font-family="Helvetica,sans-Serif" font-size="10.00">+</text>
<text text-anchor="start" x="27.5" y="-67" font-family="Helvetica,sans-Serif" font-size="10.00">QueryOutputIsKNearest()</text>
<text text-anchor="start" x="9.5" y="-52" font-family="Helvetica,sans-Serif" font-size="10.00">+</text>
<text text-anchor="start" x="27.5" y="-52" font-family="Helvetica,sans-Serif" font-size="10.00">operator()()</text>
<text text-anchor="start" x="9.5" y="-37" font-family="Helvetica,sans-Serif" font-size="10.00">+</text>
<text text-anchor="start" x="27.5" y="-37" font-family="Helvetica,sans-Serif" font-size="10.00">queue()</text>
<text text-anchor="start" x="9.5" y="-22" font-family="Helvetica,sans-Serif" font-size="10.00">#</text>
<text text-anchor="start" x="27.5" y="-22" font-family="Helvetica,sans-Serif" font-size="10.00">reset()</text>
<text text-anchor="start" x="9.5" y="-7" font-family="Helvetica,sans-Serif" font-size="10.00">#</text>
<text text-anchor="start" x="27.5" y="-7" font-family="Helvetica,sans-Serif" font-size="10.00">descentDistanceThreshold()</text>
<polygon fill="#666666" stroke="#666666" points="0.5,-92 0.5,-92 179.5,-92 179.5,-92 0.5,-92"/>
<polygon fill="#666666" stroke="#666666" points="0.5,-77 0.5,-77 179.5,-77 179.5,-77 0.5,-77"/>
<polygon fill="none" stroke="#666666" points="0,0 0,-120 179,-120 179,0 0,0"/>
</a>
</g>
</g>
<!-- Node2 -->
<g id="Node000002" class="node">
<title>Node2</title>
<g id="a_Node000002"><a xlink:href="group__spatialpartitioning.html#structPonca_1_1QueryOutputBase" target="_top" xlink:title="Base class for queries output types.">
<polygon fill="white" stroke="transparent" points="139.5,-324.5 7.5,-324.5 7.5,-275.5 139.5,-275.5 139.5,-324.5"/>
<text text-anchor="start" x="12.5" y="-312" font-family="Helvetica,sans-Serif" font-size="10.00">Ponca::QueryOutputBase</text>
<text text-anchor="start" x="71.5" y="-297" font-family="Helvetica,sans-Serif" font-size="10.00"> </text>
<text text-anchor="start" x="71.5" y="-282" font-family="Helvetica,sans-Serif" font-size="10.00"> </text>
<polygon fill="#666666" stroke="#666666" points="7.5,-307 7.5,-307 139.5,-307 139.5,-307 7.5,-307"/>
<polygon fill="#666666" stroke="#666666" points="7.5,-292 7.5,-292 139.5,-292 139.5,-292 7.5,-292"/>
<polygon fill="none" stroke="#666666" points="7.5,-275.5 7.5,-324.5 139.5,-324.5 139.5,-275.5 7.5,-275.5"/>
</a>
</g>
</g>
<!-- Node2&#45;&gt;Node1 -->
<g id="edge1_Node000001_Node000002" class="edge">
<title>Node2&#45;&gt;Node1</title>
<g id="a_edge1_Node000001_Node000002"><a xlink:title=" ">
<path fill="none" stroke="#63b8ff" d="M75.79,-264.87C78.33,-227.17 82.46,-165.76 85.52,-120.18"/>
<polygon fill="none" stroke="#63b8ff" points="72.27,-265.1 75.09,-275.31 79.26,-265.57 72.27,-265.1"/>
</a>
</g>
</g>
<!-- Node3 -->
<g id="Node000003" class="node">
<title>Node3</title>
<g id="a_Node000003"><a xlink:href="classPonca_1_1LimitedPriorityQueue.html" target="_top" xlink:title=" ">
<polygon fill="white" stroke="transparent" points="339.5,-433 157.5,-433 157.5,-167 339.5,-167 339.5,-433"/>
<text text-anchor="start" x="162.5" y="-421" font-family="Helvetica,sans-Serif" font-size="10.00">Ponca::LimitedPriorityQueue</text>
<text text-anchor="start" x="162.5" y="-410" font-family="Helvetica,sans-Serif" font-size="10.00">&lt; IndexSquaredDistance&lt;</text>
<text text-anchor="start" x="162.5" y="-399" font-family="Helvetica,sans-Serif" font-size="10.00"> Index, Scalar &gt;, MAX_KNN_SIZE &gt;</text>
<text text-anchor="start" x="171.5" y="-384" font-family="Helvetica,sans-Serif" font-size="10.00">#</text>
<text text-anchor="start" x="194.5" y="-384" font-family="Helvetica,sans-Serif" font-size="10.00">m_comp</text>
<text text-anchor="start" x="171.5" y="-369" font-family="Helvetica,sans-Serif" font-size="10.00">#</text>
<text text-anchor="start" x="194.5" y="-369" font-family="Helvetica,sans-Serif" font-size="10.00">m_size</text>
<text text-anchor="start" x="171.5" y="-354" font-family="Helvetica,sans-Serif" font-size="10.00">#</text>
<text text-anchor="start" x="194.5" y="-354" font-family="Helvetica,sans-Serif" font-size="10.00">m_capacity</text>
<text text-anchor="start" x="171.5" y="-339" font-family="Helvetica,sans-Serif" font-size="10.00">+</text>
<text text-anchor="start" x="194.5" y="-339" font-family="Helvetica,sans-Serif" font-size="10.00">LimitedPriorityQueue()</text>
<text text-anchor="start" x="171.5" y="-324" font-family="Helvetica,sans-Serif" font-size="10.00">+</text>
<text text-anchor="start" x="194.5" y="-324" font-family="Helvetica,sans-Serif" font-size="10.00">LimitedPriorityQueue()</text>
<text text-anchor="start" x="171.5" y="-309" font-family="Helvetica,sans-Serif" font-size="10.00">+</text>
<text text-anchor="start" x="194.5" y="-309" font-family="Helvetica,sans-Serif" font-size="10.00">LimitedPriorityQueue()</text>
<text text-anchor="start" x="171.5" y="-294" font-family="Helvetica,sans-Serif" font-size="10.00">+</text>
<text text-anchor="start" x="194.5" y="-294" font-family="Helvetica,sans-Serif" font-size="10.00">LimitedPriorityQueue()</text>
<text text-anchor="start" x="171.5" y="-279" font-family="Helvetica,sans-Serif" font-size="10.00">+</text>
<text text-anchor="start" x="194.5" y="-279" font-family="Helvetica,sans-Serif" font-size="10.00">~LimitedPriorityQueue()</text>
<text text-anchor="start" x="171.5" y="-264" font-family="Helvetica,sans-Serif" font-size="10.00">+</text>
<text text-anchor="start" x="194.5" y="-264" font-family="Helvetica,sans-Serif" font-size="10.00">operator=()</text>
<text text-anchor="start" x="171.5" y="-249" font-family="Helvetica,sans-Serif" font-size="10.00">+</text>
<text text-anchor="start" x="194.5" y="-249" font-family="Helvetica,sans-Serif" font-size="10.00">begin()</text>
<text text-anchor="start" x="171.5" y="-234" font-family="Helvetica,sans-Serif" font-size="10.00">+</text>
<text text-anchor="start" x="194.5" y="-234" font-family="Helvetica,sans-Serif" font-size="10.00">begin()</text>
<text text-anchor="start" x="171.5" y="-219" font-family="Helvetica,sans-Serif" font-size="10.00">+</text>
<text text-anchor="start" x="194.5" y="-219" font-family="Helvetica,sans-Serif" font-size="10.00">cbegin()</text>
<text text-anchor="start" x="171.5" y="-204" font-family="Helvetica,sans-Serif" font-size="10.00">+</text>
<text text-anchor="start" x="194.5" y="-204" font-family="Helvetica,sans-Serif" font-size="10.00">end()</text>
<text text-anchor="start" x="194.5" y="-189" font-family="Helvetica,sans-Serif" font-size="10.00">and 16 more...</text>
<text text-anchor="start" x="171.5" y="-174" font-family="Helvetica,sans-Serif" font-size="10.00">#</text>
<text text-anchor="start" x="194.5" y="-174" font-family="Helvetica,sans-Serif" font-size="10.00">pushImpl()</text>
<polygon fill="#666666" stroke="#666666" points="157.5,-394 157.5,-394 339.5,-394 339.5,-394 157.5,-394"/>
<polygon fill="#666666" stroke="#666666" points="157.5,-349 157.5,-349 192.5,-349 192.5,-349 157.5,-349"/>
<polygon fill="#666666" stroke="#666666" points="192.5,-349 192.5,-349 339.5,-349 339.5,-349 192.5,-349"/>
<polygon fill="none" stroke="#666666" points="157.5,-167 157.5,-433 339.5,-433 339.5,-167 157.5,-167"/>
</a>
</g>
</g>
<!-- Node3&#45;&gt;Node1 -->
<g id="edge2_Node000001_Node000003" class="edge">
<title>Node3&#45;&gt;Node1</title>
<g id="a_edge2_Node000001_Node000003"><a xlink:title=" ">
<path fill="none" stroke="#63b8ff" d="M160.17,-166.78C151.76,-154.2 143.49,-141.82 135.74,-130.21"/>
<polygon fill="none" stroke="#63b8ff" points="135.73,-130.2 129.07,-127.43 129.07,-120.22 135.72,-122.99 135.73,-130.2"/>
</a>
</g>
<text text-anchor="middle" x="174" y="-141" font-family="Helvetica,sans-Serif" font-size="10.00" fill="grey"> #m_queue</text>
</g>
<!-- Node4 -->
<g id="Node000004" class="node">
<title>Node4</title>
<g id="a_Node000004"><a xlink:title=" ">
<polygon fill="white" stroke="transparent" points="270,-846 135,-846 135,-775 270,-775 270,-846"/>
<text text-anchor="start" x="140.5" y="-833.5" font-family="Helvetica,sans-Serif" font-size="10.00">std::array&lt; IndexSquared</text>
<text text-anchor="start" x="140.5" y="-822.5" font-family="Helvetica,sans-Serif" font-size="10.00">Distance&lt; Index, Scalar</text>
<text text-anchor="start" x="184.5" y="-811.5" font-family="Helvetica,sans-Serif" font-size="10.00"> &gt;, N &gt;</text>
<text text-anchor="start" x="156.5" y="-796.5" font-family="Helvetica,sans-Serif" font-size="10.00">+</text>
<text text-anchor="start" x="186.5" y="-796.5" font-family="Helvetica,sans-Serif" font-size="10.00">elements</text>
<text text-anchor="start" x="201" y="-781.5" font-family="Helvetica,sans-Serif" font-size="10.00"> </text>
<polygon fill="#666666" stroke="#666666" points="135.5,-806.5 135.5,-806.5 270.5,-806.5 270.5,-806.5 135.5,-806.5"/>
<polygon fill="#666666" stroke="#666666" points="135.5,-791.5 135.5,-791.5 184.5,-791.5 184.5,-791.5 135.5,-791.5"/>
<polygon fill="#666666" stroke="#666666" points="184.5,-791.5 184.5,-791.5 270.5,-791.5 270.5,-791.5 184.5,-791.5"/>
<polygon fill="none" stroke="#666666" points="135,-775 135,-846 270,-846 270,-775 135,-775"/>
</a>
</g>
</g>
<!-- Node4&#45;&gt;Node3 -->
<g id="edge3_Node000003_Node000004" class="edge">
<title>Node4&#45;&gt;Node3</title>
<g id="a_edge3_Node000003_Node000004"><a xlink:title=" ">
<path fill="none" stroke="#63b8ff" d="M202.4,-774.81C202.57,-717.75 204.28,-600.58 214.5,-502 216.42,-483.49 218.98,-464.1 221.85,-444.98"/>
<polygon fill="none" stroke="#63b8ff" points="221.85,-444.98 218.8,-438.44 223.67,-433.12 226.71,-439.65 221.85,-444.98"/>
</a>
</g>
<text text-anchor="middle" x="239" y="-627" font-family="Helvetica,sans-Serif" font-size="10.00" fill="grey"> #m_data</text>
</g>
<!-- Node5 -->
<g id="Node000005" class="node">
<title>Node5</title>
<g id="a_Node000005"><a xlink:title=" ">
<polygon fill="white" stroke="transparent" points="373.5,-1020 287.5,-1020 287.5,-971 373.5,-971 373.5,-1020"/>
<text text-anchor="start" x="292.5" y="-1007.5" font-family="Helvetica,sans-Serif" font-size="10.00">std::array&lt; T &gt;</text>
<text text-anchor="start" x="328.5" y="-992.5" font-family="Helvetica,sans-Serif" font-size="10.00"> </text>
<text text-anchor="start" x="328.5" y="-977.5" font-family="Helvetica,sans-Serif" font-size="10.00"> </text>
<polygon fill="#666666" stroke="#666666" points="287.5,-1002.5 287.5,-1002.5 373.5,-1002.5 373.5,-1002.5 287.5,-1002.5"/>
<polygon fill="#666666" stroke="#666666" points="287.5,-987.5 287.5,-987.5 373.5,-987.5 373.5,-987.5 287.5,-987.5"/>
<polygon fill="none" stroke="#666666" points="287.5,-971 287.5,-1020 373.5,-1020 373.5,-971 287.5,-971"/>
</a>
</g>
</g>
<!-- Node5&#45;&gt;Node4 -->
<g id="edge4_Node000004_Node000005" class="edge">
<title>Node5&#45;&gt;Node4</title>
<g id="a_edge4_Node000004_Node000005"><a xlink:title=" ">
<path fill="none" stroke="orange" d="M277.56,-989.5C253.2,-984.31 226.27,-973.87 210.5,-953 187.58,-922.67 189.41,-877.41 194.47,-846.29"/>
<polygon fill="orange" stroke="orange" points="276.97,-992.95 287.44,-991.36 278.26,-986.07 276.97,-992.95"/>
</a>
</g>
<text text-anchor="start" x="210.5" y="-945" font-family="Helvetica,sans-Serif" font-size="10.00" fill="grey"> &lt; IndexSquaredDistance</text>
<text text-anchor="middle" x="272.5" y="-934" font-family="Helvetica,sans-Serif" font-size="10.00" fill="grey">&lt; Index, Scalar &gt;, N &gt;</text>
</g>
<!-- Node8 -->
<g id="Node000008" class="node">
<title>Node8</title>
<g id="a_Node000008"><a xlink:title=" ">
<polygon fill="white" stroke="transparent" points="398,-913 299,-913 299,-864 398,-864 398,-913"/>
<text text-anchor="start" x="304.5" y="-900.5" font-family="Helvetica,sans-Serif" font-size="10.00">std::array&lt; T, N &gt;</text>
<text text-anchor="start" x="347" y="-885.5" font-family="Helvetica,sans-Serif" font-size="10.00"> </text>
<text text-anchor="start" x="347" y="-870.5" font-family="Helvetica,sans-Serif" font-size="10.00"> </text>
<polygon fill="#666666" stroke="#666666" points="299.5,-895.5 299.5,-895.5 398.5,-895.5 398.5,-895.5 299.5,-895.5"/>
<polygon fill="#666666" stroke="#666666" points="299.5,-880.5 299.5,-880.5 398.5,-880.5 398.5,-880.5 299.5,-880.5"/>
<polygon fill="none" stroke="#666666" points="299,-864 299,-913 398,-913 398,-864 299,-864"/>
</a>
</g>
</g>
<!-- Node5&#45;&gt;Node8 -->
<g id="edge9_Node000008_Node000005" class="edge">
<title>Node5&#45;&gt;Node8</title>
<g id="a_edge9_Node000008_Node000005"><a xlink:title=" ">
<path fill="none" stroke="orange" d="M336.29,-960.72C338.94,-945.28 342.01,-927.35 344.41,-913.35"/>
<polygon fill="orange" stroke="orange" points="332.78,-960.49 334.54,-970.94 339.68,-961.67 332.78,-960.49"/>
</a>
</g>
<text text-anchor="middle" x="364.5" y="-939.5" font-family="Helvetica,sans-Serif" font-size="10.00" fill="grey"> &lt; T, N &gt;</text>
</g>
<!-- Node6 -->
<g id="Node000006" class="node">
<title>Node6</title>
<g id="a_Node000006"><a xlink:title=" ">
<polygon fill="white" stroke="transparent" points="378,-1116 361,-1116 361,-1067 378,-1067 378,-1116"/>
<text text-anchor="start" x="366.5" y="-1103.5" font-family="Helvetica,sans-Serif" font-size="10.00">T</text>
<text text-anchor="start" x="368" y="-1088.5" font-family="Helvetica,sans-Serif" font-size="10.00"> </text>
<text text-anchor="start" x="368" y="-1073.5" font-family="Helvetica,sans-Serif" font-size="10.00"> </text>
<polygon fill="#bfbfbf" stroke="#bfbfbf" points="361.5,-1098.5 361.5,-1098.5 378.5,-1098.5 378.5,-1098.5 361.5,-1098.5"/>
<polygon fill="#bfbfbf" stroke="#bfbfbf" points="361.5,-1083.5 361.5,-1083.5 378.5,-1083.5 378.5,-1083.5 361.5,-1083.5"/>
<polygon fill="none" stroke="#bfbfbf" points="361,-1067 361,-1116 378,-1116 378,-1067 361,-1067"/>
</a>
</g>
</g>
<!-- Node6&#45;&gt;Node5 -->
<g id="edge5_Node000005_Node000006" class="edge">
<title>Node6&#45;&gt;Node5</title>
<g id="a_edge5_Node000005_Node000006"><a xlink:title=" ">
<path fill="none" stroke="#63b8ff" d="M360.87,-1082.15C353.37,-1074.32 342.89,-1061.93 337.5,-1049 335.33,-1043.8 333.8,-1038.08 332.73,-1032.39"/>
<polygon fill="none" stroke="#63b8ff" points="332.68,-1032.07 327.9,-1026.68 331.03,-1020.18 335.82,-1025.58 332.68,-1032.07"/>
</a>
</g>
<text text-anchor="middle" x="366.5" y="-1041" font-family="Helvetica,sans-Serif" font-size="10.00" fill="grey"> +elements</text>
</g>
<!-- Node6&#45;&gt;Node8 -->
<g id="edge8_Node000008_Node000006" class="edge">
<title>Node6&#45;&gt;Node8</title>
<g id="a_edge8_Node000008_Node000006"><a xlink:title=" ">
<path fill="none" stroke="#63b8ff" d="M378.13,-1080.38C384.31,-1072.43 392.12,-1060.77 395.5,-1049 403.96,-1019.56 468.33,-1102.92 391.5,-931 390.24,-928.18 388.69,-925.46 386.94,-922.85"/>
<polygon fill="none" stroke="#63b8ff" points="386.84,-922.72 379.97,-920.53 379.35,-913.35 386.22,-915.54 386.84,-922.72"/>
</a>
</g>
<text text-anchor="middle" x="454.5" y="-993" font-family="Helvetica,sans-Serif" font-size="10.00" fill="grey"> +elements</text>
</g>
<!-- Node7 -->
<g id="Node000007" class="node">
<title>Node7</title>
<g id="a_Node000007"><a xlink:href="classPonca_1_1LimitedPriorityQueue.html" target="_top" xlink:title="The LimitedPriorityQueue class is similar to std::priority_queue but has a limited capacity and handl...">
<polygon fill="white" stroke="transparent" points="422,-757 273,-757 273,-502 422,-502 422,-757"/>
<text text-anchor="start" x="278.5" y="-744.5" font-family="Helvetica,sans-Serif" font-size="10.00">Ponca::LimitedPriorityQueue</text>
<text text-anchor="start" x="298.5" y="-733.5" font-family="Helvetica,sans-Serif" font-size="10.00">&lt; T, N, CompareT &gt;</text>
<text text-anchor="start" x="279.5" y="-718.5" font-family="Helvetica,sans-Serif" font-size="10.00">#</text>
<text text-anchor="start" x="294.5" y="-718.5" font-family="Helvetica,sans-Serif" font-size="10.00">m_comp</text>
<text text-anchor="start" x="279.5" y="-703.5" font-family="Helvetica,sans-Serif" font-size="10.00">#</text>
<text text-anchor="start" x="294.5" y="-703.5" font-family="Helvetica,sans-Serif" font-size="10.00">m_size</text>
<text text-anchor="start" x="279.5" y="-688.5" font-family="Helvetica,sans-Serif" font-size="10.00">#</text>
<text text-anchor="start" x="294.5" y="-688.5" font-family="Helvetica,sans-Serif" font-size="10.00">m_capacity</text>
<text text-anchor="start" x="279.5" y="-673.5" font-family="Helvetica,sans-Serif" font-size="10.00">+</text>
<text text-anchor="start" x="294.5" y="-673.5" font-family="Helvetica,sans-Serif" font-size="10.00">LimitedPriorityQueue()</text>
<text text-anchor="start" x="279.5" y="-658.5" font-family="Helvetica,sans-Serif" font-size="10.00">+</text>
<text text-anchor="start" x="294.5" y="-658.5" font-family="Helvetica,sans-Serif" font-size="10.00">LimitedPriorityQueue()</text>
<text text-anchor="start" x="279.5" y="-643.5" font-family="Helvetica,sans-Serif" font-size="10.00">+</text>
<text text-anchor="start" x="294.5" y="-643.5" font-family="Helvetica,sans-Serif" font-size="10.00">LimitedPriorityQueue()</text>
<text text-anchor="start" x="279.5" y="-628.5" font-family="Helvetica,sans-Serif" font-size="10.00">+</text>
<text text-anchor="start" x="294.5" y="-628.5" font-family="Helvetica,sans-Serif" font-size="10.00">LimitedPriorityQueue()</text>
<text text-anchor="start" x="279.5" y="-613.5" font-family="Helvetica,sans-Serif" font-size="10.00">+</text>
<text text-anchor="start" x="294.5" y="-613.5" font-family="Helvetica,sans-Serif" font-size="10.00">~LimitedPriorityQueue()</text>
<text text-anchor="start" x="279.5" y="-598.5" font-family="Helvetica,sans-Serif" font-size="10.00">+</text>
<text text-anchor="start" x="294.5" y="-598.5" font-family="Helvetica,sans-Serif" font-size="10.00">operator=()</text>
<text text-anchor="start" x="279.5" y="-583.5" font-family="Helvetica,sans-Serif" font-size="10.00">+</text>
<text text-anchor="start" x="294.5" y="-583.5" font-family="Helvetica,sans-Serif" font-size="10.00">begin()</text>
<text text-anchor="start" x="279.5" y="-568.5" font-family="Helvetica,sans-Serif" font-size="10.00">+</text>
<text text-anchor="start" x="294.5" y="-568.5" font-family="Helvetica,sans-Serif" font-size="10.00">begin()</text>
<text text-anchor="start" x="279.5" y="-553.5" font-family="Helvetica,sans-Serif" font-size="10.00">+</text>
<text text-anchor="start" x="294.5" y="-553.5" font-family="Helvetica,sans-Serif" font-size="10.00">cbegin()</text>
<text text-anchor="start" x="279.5" y="-538.5" font-family="Helvetica,sans-Serif" font-size="10.00">+</text>
<text text-anchor="start" x="294.5" y="-538.5" font-family="Helvetica,sans-Serif" font-size="10.00">end()</text>
<text text-anchor="start" x="294.5" y="-523.5" font-family="Helvetica,sans-Serif" font-size="10.00">and 16 more...</text>
<text text-anchor="start" x="279.5" y="-508.5" font-family="Helvetica,sans-Serif" font-size="10.00">#</text>
<text text-anchor="start" x="294.5" y="-508.5" font-family="Helvetica,sans-Serif" font-size="10.00">pushImpl()</text>
<polygon fill="#666666" stroke="#666666" points="273.5,-728.5 273.5,-728.5 422.5,-728.5 422.5,-728.5 273.5,-728.5"/>
<polygon fill="#666666" stroke="#666666" points="273.5,-683.5 273.5,-683.5 292.5,-683.5 292.5,-683.5 273.5,-683.5"/>
<polygon fill="#666666" stroke="#666666" points="292.5,-683.5 292.5,-683.5 422.5,-683.5 422.5,-683.5 292.5,-683.5"/>
<polygon fill="none" stroke="#666666" points="273,-502 273,-757 422,-757 422,-502 273,-502"/>
</a>
</g>
</g>
<!-- Node7&#45;&gt;Node3 -->
<g id="edge6_Node000003_Node000007" class="edge">
<title>Node7&#45;&gt;Node3</title>
<g id="a_edge6_Node000003_Node000007"><a xlink:title=" ">
<path fill="none" stroke="orange" d="M306.26,-492.07C300.38,-472.61 294.33,-452.62 288.48,-433.24"/>
<polygon fill="orange" stroke="orange" points="302.98,-493.32 309.22,-501.88 309.68,-491.29 302.98,-493.32"/>
</a>
</g>
<text text-anchor="start" x="301.5" y="-476" font-family="Helvetica,sans-Serif" font-size="10.00" fill="grey"> &lt; IndexSquaredDistance</text>
<text text-anchor="start" x="301.5" y="-465" font-family="Helvetica,sans-Serif" font-size="10.00" fill="grey">&lt; Index, Scalar &gt;, MAX</text>
<text text-anchor="middle" x="363.5" y="-454" font-family="Helvetica,sans-Serif" font-size="10.00" fill="grey">_KNN_SIZE &gt;</text>
</g>
<!-- Node8&#45;&gt;Node7 -->
<g id="edge7_Node000007_Node000008" class="edge">
<title>Node8&#45;&gt;Node7</title>
<g id="a_edge7_Node000007_Node000008"><a xlink:title=" ">
<path fill="none" stroke="#63b8ff" d="M348.41,-863.78C348.32,-841.45 348.18,-806.07 348.04,-769.53"/>
<polygon fill="none" stroke="#63b8ff" points="348.04,-769.12 344.02,-763.13 347.99,-757.12 352.02,-763.1 348.04,-769.12"/>
</a>
</g>
<text text-anchor="middle" x="373" y="-808" font-family="Helvetica,sans-Serif" font-size="10.00" fill="grey"> #m_data</text>
</g>
</g>
</svg>
