<?xml version="1.0" encoding="UTF-8" standalone="no"?>
<!DOCTYPE svg PUBLIC "-//W3C//DTD SVG 1.1//EN"
 "http://www.w3.org/Graphics/SVG/1.1/DTD/svg11.dtd">
<!-- Generated by graphviz version 2.43.0 (0)
 -->
<!-- Title: Ponca::KNearestIndexQuery&lt; Scalar &gt; Pages: 1 -->
<!--zoomable 823 -->
<svg id="main" version="1.1" xmlns="http://www.w3.org/2000/svg" xmlns:xlink="http://www.w3.org/1999/xlink" xml:space="preserve" onload="init(evt)">
<style type="text/css"><![CDATA[
.edge:hover path { stroke: red; }
.edge:hover polygon { stroke: red; fill: red; }
]]></style>
<script type="text/javascript"><![CDATA[
var edges = document.getElementsByTagName('g');
if (edges && edges.length) {
  for (var i=0;i<edges.length;i++) {
    if (edges[i].id.substr(0,4)=='edge') {
      edges[i].setAttribute('class','edge');
    }
  }
}
]]></script>
        <defs>
                <circle id="rim" cx="0" cy="0" r="7"/>
                <circle id="rim2" cx="0" cy="0" r="3.5"/>
                <g id="zoomPlus">
                        <use xlink:href="#rim" fill="#404040">
                                <set attributeName="fill" to="#808080" begin="zoomplus.mouseover" end="zoomplus.mouseout"/>
                        </use>
                        <path d="M-4,0h8M0,-4v8" fill="none" stroke="white" stroke-width="1.5" pointer-events="none"/>
                </g>
                <g id="zoomMin">
                        <use xlink:href="#rim" fill="#404040">
                                <set attributeName="fill" to="#808080" begin="zoomminus.mouseover" end="zoomminus.mouseout"/>
                        </use>
                        <path d="M-4,0h8" fill="none" stroke="white" stroke-width="1.5" pointer-events="none"/>
                </g>
                <g id="dirArrow">
                        <path fill="none" stroke="white" stroke-width="1.5" d="M0,-3.0v7 M-2.5,-0.5L0,-3.0L2.5,-0.5"/>
                </g>
               <g id="resetDef">
                       <use xlink:href="#rim2" fill="#404040">
                               <set attributeName="fill" to="#808080" begin="reset.mouseover" end="reset.mouseout"/>
                       </use>
               </g>
        </defs>

<script type="text/javascript">
var viewWidth = 506;
var viewHeight = 823;
var sectionId = 'dynsection-30';
</script>
<script xlink:href="svgpan.js"/>
<svg id="graph" class="graph">
<g id="viewport">
<title>Ponca::KNearestIndexQuery&lt; Scalar &gt;</title>
<!-- Node1 -->
<g id="node1" class="node">
<title>Node1</title>
<g id="a_node1"><a xlink:title="Base Query class combining QueryInputIsIndex and QueryOutputIsKNearest.">
<polygon fill="#999999" stroke="#666666" points="331,-251 172,-251 172,-210 331,-210 331,-251"/>
<text text-anchor="start" x="180" y="-239" font-family="Helvetica,sans-Serif" font-size="10.00">{Ponca::KNearestIndexQuery</text>
<text text-anchor="middle" x="251.5" y="-228" font-family="Helvetica,sans-Serif" font-size="10.00">&lt; Scalar &gt;</text>
<text text-anchor="middle" x="251.5" y="-217" font-family="Helvetica,sans-Serif" font-size="10.00">||}</text>
</a>
</g>
</g>
<!-- Node12 -->
<g id="node12" class="node">
<title>Node12</title>
<g id="a_node12"><a xlink:href="group__spatialpartitioning.html" target="_top" xlink:title=" ">
<polygon fill="white" stroke="#666666" points="331,-163 172,-163 172,-122 331,-122 331,-163"/>
<text text-anchor="start" x="180" y="-151" font-family="Helvetica,sans-Serif" font-size="10.00">{Ponca::KNearestIndexQuery</text>
<text text-anchor="middle" x="251.5" y="-140" font-family="Helvetica,sans-Serif" font-size="10.00">&lt; DataPoint::Scalar &gt;</text>
<text text-anchor="middle" x="251.5" y="-129" font-family="Helvetica,sans-Serif" font-size="10.00">||}</text>
</a>
</g>
</g>
<!-- Node1&#45;&gt;Node12 -->
<g id="edge12" class="edge">
<title>Node1&#45;&gt;Node12</title>
<path fill="none" stroke="orange" d="M251.5,-199.86C251.5,-187.76 251.5,-174.08 251.5,-163.24"/>
<polygon fill="orange" stroke="orange" points="248,-199.99 251.5,-209.99 255,-199.99 248,-199.99"/>
<text text-anchor="middle" x="306.5" y="-184" font-family="Helvetica,sans-Serif" font-size="10.00"> &lt; DataPoint::Scalar &gt;</text>
</g>
<!-- Node2 -->
<g id="node2" class="node">
<title>Node2</title>
<g id="a_node2"><a xlink:href="group__spatialpartitioning.html" target="_top" xlink:title=" ">
<polygon fill="white" stroke="#bfbfbf" points="338,-362 165,-362 165,-288 338,-288 338,-362"/>
<text text-anchor="start" x="173" y="-350" font-family="Helvetica,sans-Serif" font-size="10.00">{Ponca::Query&lt; QueryInput</text>
<text text-anchor="start" x="173" y="-339" font-family="Helvetica,sans-Serif" font-size="10.00">IsIndex, QueryOutputIsKNearest</text>
<text text-anchor="middle" x="251.5" y="-328" font-family="Helvetica,sans-Serif" font-size="10.00">&lt; Scalar &gt; &gt;</text>
<text text-anchor="start" x="173" y="-317" font-family="Helvetica,sans-Serif" font-size="10.00">||+ Query()</text>
<text text-anchor="start" x="173" y="-306" font-family="Helvetica,sans-Serif" font-size="10.00">+ Query()</text>
<text text-anchor="middle" x="251.5" y="-295" font-family="Helvetica,sans-Serif" font-size="10.00">}</text>
</a>
</g>
</g>
<!-- Node2&#45;&gt;Node1 -->
<g id="edge1" class="edge">
<title>Node2&#45;&gt;Node1</title>
<path fill="none" stroke="#63b8ff" d="M251.5,-277.8C251.5,-268.35 251.5,-258.9 251.5,-251.03"/>
<polygon fill="none" stroke="#63b8ff" points="248,-277.97 251.5,-287.97 255,-277.97 248,-277.97"/>
</g>
<!-- Node3 -->
<g id="node3" class="node">
<title>Node3</title>
<g id="a_node3"><a xlink:href="group__spatialpartitioning.html#structPonca_1_1QueryInputIsIndex" target="_top" xlink:title="Base class for queries storing points.">
<polygon fill="white" stroke="#666666" points="147,-494 0,-494 0,-453 147,-453 147,-494"/>
<text text-anchor="middle" x="73.5" y="-482" font-family="Helvetica,sans-Serif" font-size="10.00">{Ponca::QueryInputIsIndex</text>
<text text-anchor="start" x="8" y="-471" font-family="Helvetica,sans-Serif" font-size="10.00">||+ QueryInputIsIndex()</text>
<text text-anchor="middle" x="73.5" y="-460" font-family="Helvetica,sans-Serif" font-size="10.00">}</text>
</a>
</g>
</g>
<!-- Node3&#45;&gt;Node2 -->
<g id="edge2" class="edge">
<title>Node3&#45;&gt;Node2</title>
<path fill="none" stroke="#63b8ff" d="M105.54,-446.13C134.09,-422.63 176.12,-388.04 207.75,-362.01"/>
<polygon fill="none" stroke="#63b8ff" points="103,-443.69 97.51,-452.74 107.45,-449.09 103,-443.69"/>
</g>
<!-- Node4 -->
<g id="node4" class="node">
<title>Node4</title>
<g id="a_node4"><a xlink:href="group__spatialpartitioning.html" target="_top" xlink:title=" ">
<polygon fill="white" stroke="#666666" points="133.5,-627 13.5,-627 13.5,-553 133.5,-553 133.5,-627"/>
<text text-anchor="start" x="21.5" y="-615" font-family="Helvetica,sans-Serif" font-size="10.00">{Ponca::QueryInput&lt;</text>
<text text-anchor="middle" x="73.5" y="-604" font-family="Helvetica,sans-Serif" font-size="10.00"> int &gt;</text>
<text text-anchor="start" x="21.5" y="-593" font-family="Helvetica,sans-Serif" font-size="10.00">||+ QueryInput()</text>
<text text-anchor="start" x="21.5" y="-582" font-family="Helvetica,sans-Serif" font-size="10.00">+ input()</text>
<text text-anchor="start" x="21.5" y="-571" font-family="Helvetica,sans-Serif" font-size="10.00"># editInput()</text>
<text text-anchor="middle" x="73.5" y="-560" font-family="Helvetica,sans-Serif" font-size="10.00">}</text>
</a>
</g>
</g>
<!-- Node4&#45;&gt;Node3 -->
<g id="edge3" class="edge">
<title>Node4&#45;&gt;Node3</title>
<path fill="none" stroke="#63b8ff" d="M73.5,-542.5C73.5,-525.64 73.5,-507.49 73.5,-494.18"/>
<polygon fill="none" stroke="#63b8ff" points="70,-542.77 73.5,-552.77 77,-542.77 70,-542.77"/>
</g>
<!-- Node5 -->
<g id="node5" class="node">
<title>Node5</title>
<g id="a_node5"><a xlink:href="group__spatialpartitioning.html#structPonca_1_1QueryInputBase" target="_top" xlink:title="Base class for queries input type.">
<polygon fill="white" stroke="#666666" points="137.5,-815 1.5,-815 1.5,-785 137.5,-785 137.5,-815"/>
<text text-anchor="middle" x="69.5" y="-803" font-family="Helvetica,sans-Serif" font-size="10.00">{Ponca::QueryInputBase</text>
<text text-anchor="middle" x="69.5" y="-792" font-family="Helvetica,sans-Serif" font-size="10.00">||}</text>
</a>
</g>
</g>
<!-- Node5&#45;&gt;Node4 -->
<g id="edge4" class="edge">
<title>Node5&#45;&gt;Node4</title>
<path fill="none" stroke="#63b8ff" d="M69.97,-774.5C70.67,-738.1 71.99,-669.49 72.8,-627.26"/>
<polygon fill="none" stroke="#63b8ff" points="66.47,-774.64 69.77,-784.7 73.47,-774.77 66.47,-774.64"/>
</g>
<!-- Node6 -->
<g id="node6" class="node">
<title>Node6</title>
<g id="a_node6"><a xlink:href="group__spatialpartitioning.html#structPonca_1_1QueryInput" target="_top" xlink:title="Base class for typed queries input type.">
<polygon fill="white" stroke="#666666" points="205.5,-748 85.5,-748 85.5,-674 205.5,-674 205.5,-748"/>
<text text-anchor="start" x="93.5" y="-736" font-family="Helvetica,sans-Serif" font-size="10.00">{Ponca::QueryInput&lt;</text>
<text text-anchor="middle" x="145.5" y="-725" font-family="Helvetica,sans-Serif" font-size="10.00"> InputType_ &gt;</text>
<text text-anchor="start" x="93.5" y="-714" font-family="Helvetica,sans-Serif" font-size="10.00">||+ QueryInput()</text>
<text text-anchor="start" x="93.5" y="-703" font-family="Helvetica,sans-Serif" font-size="10.00">+ input()</text>
<text text-anchor="start" x="93.5" y="-692" font-family="Helvetica,sans-Serif" font-size="10.00"># editInput()</text>
<text text-anchor="middle" x="145.5" y="-681" font-family="Helvetica,sans-Serif" font-size="10.00">}</text>
</a>
</g>
</g>
<!-- Node5&#45;&gt;Node6 -->
<g id="edge6" class="edge">
<title>Node5&#45;&gt;Node6</title>
<path fill="none" stroke="#63b8ff" d="M88.65,-777.08C96.3,-768.32 105.33,-757.99 113.91,-748.17"/>
<polygon fill="none" stroke="#63b8ff" points="85.99,-774.8 82.05,-784.63 91.26,-779.41 85.99,-774.8"/>
</g>
<!-- Node6&#45;&gt;Node4 -->
<g id="edge5" class="edge">
<title>Node6&#45;&gt;Node4</title>
<path fill="none" stroke="orange" d="M118.33,-665.09C110.78,-652.61 102.68,-639.23 95.47,-627.32"/>
<polygon fill="orange" stroke="orange" points="115.53,-667.23 123.7,-673.97 121.52,-663.61 115.53,-667.23"/>
<text text-anchor="middle" x="132" y="-648" font-family="Helvetica,sans-Serif" font-size="10.00"> &lt; int &gt;</text>
</g>
<!-- Node7 -->
<g id="node7" class="node">
<title>Node7</title>
<g id="a_node7"><a xlink:href="group__spatialpartitioning.html#structPonca_1_1QueryOutputIsKNearest" target="_top" xlink:title="Base class for knearest queries.">
<polygon fill="white" stroke="#666666" points="338,-516 165,-516 165,-431 338,-431 338,-516"/>
<text text-anchor="start" x="173" y="-504" font-family="Helvetica,sans-Serif" font-size="10.00">{Ponca::QueryOutputIsKNearest</text>
<text text-anchor="middle" x="251.5" y="-493" font-family="Helvetica,sans-Serif" font-size="10.00">&lt; Scalar &gt;</text>
<text text-anchor="start" x="173" y="-482" font-family="Helvetica,sans-Serif" font-size="10.00">|# m_queue</text>
<text text-anchor="start" x="173" y="-471" font-family="Helvetica,sans-Serif" font-size="10.00">|+ QueryOutputIsKNearest()</text>
<text text-anchor="start" x="173" y="-460" font-family="Helvetica,sans-Serif" font-size="10.00">+ queue()</text>
<text text-anchor="start" x="173" y="-449" font-family="Helvetica,sans-Serif" font-size="10.00"># reset()</text>
<text text-anchor="middle" x="251.5" y="-438" font-family="Helvetica,sans-Serif" font-size="10.00">}</text>
</a>
</g>
</g>
<!-- Node7&#45;&gt;Node2 -->
<g id="edge7" class="edge">
<title>Node7&#45;&gt;Node2</title>
<path fill="none" stroke="#63b8ff" d="M251.5,-420.73C251.5,-401.39 251.5,-379.86 251.5,-362.21"/>
<polygon fill="none" stroke="#63b8ff" points="248,-420.91 251.5,-430.91 255,-420.91 248,-420.91"/>
</g>
<!-- Node8 -->
<g id="node8" class="node">
<title>Node8</title>
<g id="a_node8"><a xlink:href="group__spatialpartitioning.html#structPonca_1_1QueryOutputBase" target="_top" xlink:title="Base class for queries output type.">
<polygon fill="white" stroke="#666666" points="323.5,-605 179.5,-605 179.5,-575 323.5,-575 323.5,-605"/>
<text text-anchor="middle" x="251.5" y="-593" font-family="Helvetica,sans-Serif" font-size="10.00">{Ponca::QueryOutputBase</text>
<text text-anchor="middle" x="251.5" y="-582" font-family="Helvetica,sans-Serif" font-size="10.00">||}</text>
</a>
</g>
</g>
<!-- Node8&#45;&gt;Node7 -->
<g id="edge8" class="edge">
<title>Node8&#45;&gt;Node7</title>
<path fill="none" stroke="#63b8ff" d="M251.5,-564.61C251.5,-550.49 251.5,-532.34 251.5,-516.03"/>
<polygon fill="none" stroke="#63b8ff" points="248,-564.96 251.5,-574.96 255,-564.96 248,-564.96"/>
</g>
<!-- Node9 -->
<g id="node9" class="node">
<title>Node9</title>
<g id="a_node9"><a xlink:href="group__spatialpartitioning.html#structPonca_1_1Query" target="_top" xlink:title=" ">
<polygon fill="white" stroke="#bfbfbf" points="479,-505 356,-505 356,-442 479,-442 479,-505"/>
<text text-anchor="start" x="364" y="-493" font-family="Helvetica,sans-Serif" font-size="10.00">{Ponca::Query&lt; Input</text>
<text text-anchor="middle" x="417.5" y="-482" font-family="Helvetica,sans-Serif" font-size="10.00">_, Output_ &gt;</text>
<text text-anchor="start" x="364" y="-471" font-family="Helvetica,sans-Serif" font-size="10.00">||+ Query()</text>
<text text-anchor="start" x="364" y="-460" font-family="Helvetica,sans-Serif" font-size="10.00">+ Query()</text>
<text text-anchor="middle" x="417.5" y="-449" font-family="Helvetica,sans-Serif" font-size="10.00">}</text>
</a>
</g>
</g>
<!-- Node9&#45;&gt;Node2 -->
<g id="edge9" class="edge">
<title>Node9&#45;&gt;Node2</title>
<path fill="none" stroke="orange" d="M375.05,-435.04C349.65,-412.62 317.53,-384.27 292.4,-362.1"/>
<polygon fill="orange" stroke="orange" points="372.89,-437.8 382.7,-441.79 377.52,-432.55 372.89,-437.8"/>
<text text-anchor="start" x="349.5" y="-405" font-family="Helvetica,sans-Serif" font-size="10.00"> &lt; QueryInputIsIndex,</text>
<text text-anchor="start" x="349.5" y="-394" font-family="Helvetica,sans-Serif" font-size="10.00"> QueryOutputIsKNearest</text>
<text text-anchor="middle" x="409" y="-383" font-family="Helvetica,sans-Serif" font-size="10.00">&lt; Scalar &gt; &gt;</text>
</g>
<!-- Node10 -->
<g id="node10" class="node">
<title>Node10</title>
<g id="a_node10"><a xlink:title=" ">
<polygon fill="white" stroke="#bfbfbf" points="419,-605 366,-605 366,-575 419,-575 419,-605"/>
<text text-anchor="middle" x="392.5" y="-593" font-family="Helvetica,sans-Serif" font-size="10.00">{Input_</text>
<text text-anchor="middle" x="392.5" y="-582" font-family="Helvetica,sans-Serif" font-size="10.00">||}</text>
</a>
</g>
</g>
<!-- Node10&#45;&gt;Node9 -->
<g id="edge10" class="edge">
<title>Node10&#45;&gt;Node9</title>
<path fill="none" stroke="#63b8ff" d="M397.74,-565.01C401.55,-547.57 406.73,-523.81 410.84,-505.01"/>
<polygon fill="none" stroke="#63b8ff" points="394.28,-564.44 395.57,-574.96 401.12,-565.94 394.28,-564.44"/>
</g>
<!-- Node11 -->
<g id="node11" class="node">
<title>Node11</title>
<g id="a_node11"><a xlink:title=" ">
<polygon fill="white" stroke="#bfbfbf" points="498,-605 437,-605 437,-575 498,-575 498,-605"/>
<text text-anchor="middle" x="467.5" y="-593" font-family="Helvetica,sans-Serif" font-size="10.00">{Output_</text>
<text text-anchor="middle" x="467.5" y="-582" font-family="Helvetica,sans-Serif" font-size="10.00">||}</text>
</a>
</g>
</g>
<!-- Node11&#45;&gt;Node9 -->
<g id="edge11" class="edge">
<title>Node11&#45;&gt;Node9</title>
<path fill="none" stroke="#63b8ff" d="M457.24,-565.51C449.6,-548.02 439.11,-523.99 430.83,-505.01"/>
<polygon fill="none" stroke="#63b8ff" points="454.16,-567.2 461.37,-574.96 460.57,-564.4 454.16,-567.2"/>
</g>
<!-- Node13 -->
<g id="node13" class="node">
<title>Node13</title>
<g id="a_node13"><a xlink:href="classPonca_1_1KdTreeKNearestIndexQuery.html" target="_top" xlink:title=" ">
<polygon fill="white" stroke="#bfbfbf" points="339.5,-85 163.5,-85 163.5,0 339.5,0 339.5,-85"/>
<text text-anchor="start" x="171.5" y="-73" font-family="Helvetica,sans-Serif" font-size="10.00">{Ponca::KdTreeKNearestIndex</text>
<text text-anchor="middle" x="251.5" y="-62" font-family="Helvetica,sans-Serif" font-size="10.00">Query&lt; DataPoint &gt;</text>
<text text-anchor="start" x="171.5" y="-51" font-family="Helvetica,sans-Serif" font-size="10.00">||+ KdTreeKNearestIndexQuery()</text>
<text text-anchor="start" x="171.5" y="-40" font-family="Helvetica,sans-Serif" font-size="10.00">+ begin()</text>
<text text-anchor="start" x="171.5" y="-29" font-family="Helvetica,sans-Serif" font-size="10.00">+ end()</text>
<text text-anchor="start" x="171.5" y="-18" font-family="Helvetica,sans-Serif" font-size="10.00"># search()</text>
<text text-anchor="middle" x="251.5" y="-7" font-family="Helvetica,sans-Serif" font-size="10.00">}</text>
</a>
</g>
</g>
<!-- Node12&#45;&gt;Node13 -->
<g id="edge13" class="edge">
<title>Node12&#45;&gt;Node13</title>
<path fill="none" stroke="#63b8ff" d="M251.5,-111.65C251.5,-103.3 251.5,-94.06 251.5,-85.16"/>
<polygon fill="none" stroke="#63b8ff" points="248,-111.67 251.5,-121.67 255,-111.67 248,-111.67"/>
</g>
</g>
</svg>
        <g id="navigator" transform="translate(0 0)" fill="#404254">
                <rect fill="#f2f5e9" fill-opacity="0.5" stroke="#606060" stroke-width=".5" x="0" y="0" width="60" height="60"/>
                <use id="zoomplus" xlink:href="#zoomPlus" x="17" y="9" onmousedown="handleZoom(evt,'in')"/>
                <use id="zoomminus" xlink:href="#zoomMin" x="42" y="9" onmousedown="handleZoom(evt,'out')"/>
                <use id="reset" xlink:href="#resetDef" x="30" y="36" onmousedown="handleReset()"/>
                <g id="arrowUp" xlink:href="#dirArrow" transform="translate(30 24)" onmousedown="handlePan(0,-1)">
                  <use xlink:href="#rim" fill="#404040">
                        <set attributeName="fill" to="#808080" begin="arrowUp.mouseover" end="arrowUp.mouseout"/>
                  </use>
                  <path fill="none" stroke="white" stroke-width="1.5" d="M0,-3.0v7 M-2.5,-0.5L0,-3.0L2.5,-0.5"/>
                </g>
                <g id="arrowRight" xlink:href="#dirArrow" transform="rotate(90) translate(36 -43)" onmousedown="handlePan(1,0)">
                  <use xlink:href="#rim" fill="#404040">
                        <set attributeName="fill" to="#808080" begin="arrowRight.mouseover" end="arrowRight.mouseout"/>
                  </use>
                  <path fill="none" stroke="white" stroke-width="1.5" d="M0,-3.0v7 M-2.5,-0.5L0,-3.0L2.5,-0.5"/>
                </g>
                <g id="arrowDown" xlink:href="#dirArrow" transform="rotate(180) translate(-30 -48)" onmousedown="handlePan(0,1)">
                  <use xlink:href="#rim" fill="#404040">
                        <set attributeName="fill" to="#808080" begin="arrowDown.mouseover" end="arrowDown.mouseout"/>
                  </use>
                  <path fill="none" stroke="white" stroke-width="1.5" d="M0,-3.0v7 M-2.5,-0.5L0,-3.0L2.5,-0.5"/>
                </g>
                <g id="arrowLeft" xlink:href="#dirArrow" transform="rotate(270) translate(-36 17)" onmousedown="handlePan(-1,0)">
                  <use xlink:href="#rim" fill="#404040">
                        <set attributeName="fill" to="#808080" begin="arrowLeft.mouseover" end="arrowLeft.mouseout"/>
                  </use>
                  <path fill="none" stroke="white" stroke-width="1.5" d="M0,-3.0v7 M-2.5,-0.5L0,-3.0L2.5,-0.5"/>
                </g>
        </g>
        <svg viewBox="0 0 15 15" width="100%" height="30px" preserveAspectRatio="xMaxYMin meet">
         <g id="arrow_out" transform="scale(0.3 0.3)">
          <a xlink:href="structPonca_1_1KNearestIndexQuery__inherit__graph_org.svg" target="_base">
           <rect id="button" ry="5" rx="5" y="6" x="6" height="38" width="38"
                fill="#f2f5e9" fill-opacity="0.5" stroke="#606060" stroke-width="1.0"/>
           <path id="arrow"
             d="M 11.500037,31.436501 C 11.940474,20.09759 22.043105,11.32322 32.158766,21.979434 L 37.068811,17.246167 C 37.068811,17.246167 37.088388,32 37.088388,32 L 22.160133,31.978069 C 22.160133,31.978069 26.997745,27.140456 26.997745,27.140456 C 18.528582,18.264221 13.291696,25.230495 11.500037,31.436501 z"
             style="fill:#404040;"/>
          </a>
         </g>
        </svg>
</svg>
