<?xml version="1.0" encoding="UTF-8" standalone="no"?>
<!DOCTYPE svg PUBLIC "-//W3C//DTD SVG 1.1//EN"
 "http://www.w3.org/Graphics/SVG/1.1/DTD/svg11.dtd">
<!-- Generated by graphviz version 2.43.0 (0)
 -->
<!-- Title: Ponca::QueryInput&lt; InputType_ &gt; Pages: 1 -->
<!--zoomable 982 -->
<svg id="main" version="1.1" xmlns="http://www.w3.org/2000/svg" xmlns:xlink="http://www.w3.org/1999/xlink" xml:space="preserve" onload="init(evt)">
<style type="text/css"><![CDATA[
.edge:hover path { stroke: red; }
.edge:hover polygon { stroke: red; fill: red; }
]]></style>
<script type="text/javascript"><![CDATA[
var edges = document.getElementsByTagName('g');
if (edges && edges.length) {
  for (var i=0;i<edges.length;i++) {
    if (edges[i].id.substr(0,4)=='edge') {
      edges[i].setAttribute('class','edge');
    }
  }
}
]]></script>
        <defs>
                <circle id="rim" cx="0" cy="0" r="7"/>
                <circle id="rim2" cx="0" cy="0" r="3.5"/>
                <g id="zoomPlus">
                        <use xlink:href="#rim" fill="#404040">
                                <set attributeName="fill" to="#808080" begin="zoomplus.mouseover" end="zoomplus.mouseout"/>
                        </use>
                        <path d="M-4,0h8M0,-4v8" fill="none" stroke="white" stroke-width="1.5" pointer-events="none"/>
                </g>
                <g id="zoomMin">
                        <use xlink:href="#rim" fill="#404040">
                                <set attributeName="fill" to="#808080" begin="zoomminus.mouseover" end="zoomminus.mouseout"/>
                        </use>
                        <path d="M-4,0h8" fill="none" stroke="white" stroke-width="1.5" pointer-events="none"/>
                </g>
                <g id="dirArrow">
                        <path fill="none" stroke="white" stroke-width="1.5" d="M0,-3.0v7 M-2.5,-0.5L0,-3.0L2.5,-0.5"/>
                </g>
               <g id="resetDef">
                       <use xlink:href="#rim2" fill="#404040">
                               <set attributeName="fill" to="#808080" begin="reset.mouseover" end="reset.mouseout"/>
                       </use>
               </g>
        </defs>

<script type="text/javascript">
var viewWidth = 1639;
var viewHeight = 982;
var sectionId = 'dynsection-5';
</script>
<script xlink:href="svgpan.js"/>
<svg id="graph" class="graph">
<g id="viewport">
<title>Ponca::QueryInput&lt; InputType_ &gt;</title>
<!-- Node1 -->
<g id="node1" class="node">
<title>Node1</title>
<g id="a_node1"><a xlink:title="Base class for typed queries input type.">
<polygon fill="#999999" stroke="#666666" points="953.5,-788.5 953.5,-878.5 1067.5,-878.5 1067.5,-788.5 953.5,-788.5"/>
<text text-anchor="start" x="961.5" y="-866.5" font-family="Helvetica,sans-Serif" font-size="10.00">Ponca::QueryInput&lt;</text>
<text text-anchor="middle" x="1010.5" y="-855.5" font-family="Helvetica,sans-Serif" font-size="10.00"> InputType_ &gt;</text>
<polyline fill="none" stroke="#666666" points="953.5,-848.5 1067.5,-848.5 "/>
<text text-anchor="middle" x="1010.5" y="-836.5" font-family="Helvetica,sans-Serif" font-size="10.00"> </text>
<polyline fill="none" stroke="#666666" points="953.5,-829.5 1067.5,-829.5 "/>
<text text-anchor="start" x="961.5" y="-817.5" font-family="Helvetica,sans-Serif" font-size="10.00">+ QueryInput()</text>
<text text-anchor="start" x="961.5" y="-806.5" font-family="Helvetica,sans-Serif" font-size="10.00">+ input()</text>
<text text-anchor="start" x="961.5" y="-795.5" font-family="Helvetica,sans-Serif" font-size="10.00"># editInput()</text>
</a>
</g>
</g>
<!-- Node3 -->
<g id="node3" class="node">
<title>Node3</title>
<g id="a_node3"><a xlink:href="group__spatialpartitioning.html" target="_top" xlink:title=" ">
<polygon fill="white" stroke="#666666" points="881.5,-650.5 881.5,-740.5 995.5,-740.5 995.5,-650.5 881.5,-650.5"/>
<text text-anchor="start" x="889.5" y="-728.5" font-family="Helvetica,sans-Serif" font-size="10.00">Ponca::QueryInput&lt;</text>
<text text-anchor="middle" x="938.5" y="-717.5" font-family="Helvetica,sans-Serif" font-size="10.00"> int &gt;</text>
<polyline fill="none" stroke="#666666" points="881.5,-710.5 995.5,-710.5 "/>
<text text-anchor="middle" x="938.5" y="-698.5" font-family="Helvetica,sans-Serif" font-size="10.00"> </text>
<polyline fill="none" stroke="#666666" points="881.5,-691.5 995.5,-691.5 "/>
<text text-anchor="start" x="889.5" y="-679.5" font-family="Helvetica,sans-Serif" font-size="10.00">+ QueryInput()</text>
<text text-anchor="start" x="889.5" y="-668.5" font-family="Helvetica,sans-Serif" font-size="10.00">+ input()</text>
<text text-anchor="start" x="889.5" y="-657.5" font-family="Helvetica,sans-Serif" font-size="10.00"># editInput()</text>
</a>
</g>
</g>
<!-- Node1&#45;&gt;Node3 -->
<g id="edge2" class="edge">
<title>Node1&#45;&gt;Node3</title>
<path fill="none" stroke="orange" d="M982.31,-779.26C975.59,-766.56 968.49,-753.15 962.01,-740.9"/>
<polygon fill="orange" stroke="orange" points="979.35,-781.14 987.12,-788.34 985.54,-777.87 979.35,-781.14"/>
<text text-anchor="middle" x="997" y="-762" font-family="Helvetica,sans-Serif" font-size="10.00"> &lt; int &gt;</text>
</g>
<!-- Node20 -->
<g id="node20" class="node">
<title>Node20</title>
<g id="a_node20"><a xlink:href="group__spatialpartitioning.html" target="_top" xlink:title=" ">
<polygon fill="white" stroke="#666666" points="1070.5,-650.5 1070.5,-740.5 1208.5,-740.5 1208.5,-650.5 1070.5,-650.5"/>
<text text-anchor="start" x="1078.5" y="-728.5" font-family="Helvetica,sans-Serif" font-size="10.00">Ponca::QueryInput&lt;</text>
<text text-anchor="middle" x="1139.5" y="-717.5" font-family="Helvetica,sans-Serif" font-size="10.00"> DataPoint::VectorType &gt;</text>
<polyline fill="none" stroke="#666666" points="1070.5,-710.5 1208.5,-710.5 "/>
<text text-anchor="middle" x="1139.5" y="-698.5" font-family="Helvetica,sans-Serif" font-size="10.00"> </text>
<polyline fill="none" stroke="#666666" points="1070.5,-691.5 1208.5,-691.5 "/>
<text text-anchor="start" x="1078.5" y="-679.5" font-family="Helvetica,sans-Serif" font-size="10.00">+ QueryInput()</text>
<text text-anchor="start" x="1078.5" y="-668.5" font-family="Helvetica,sans-Serif" font-size="10.00">+ input()</text>
<text text-anchor="start" x="1078.5" y="-657.5" font-family="Helvetica,sans-Serif" font-size="10.00"># editInput()</text>
</a>
</g>
</g>
<!-- Node1&#45;&gt;Node20 -->
<g id="edge19" class="edge">
<title>Node1&#45;&gt;Node20</title>
<path fill="none" stroke="orange" d="M1059.6,-780.73C1072.05,-767.61 1085.32,-753.62 1097.39,-740.9"/>
<polygon fill="orange" stroke="orange" points="1056.73,-778.68 1052.38,-788.34 1061.8,-783.5 1056.73,-778.68"/>
<text text-anchor="middle" x="1146" y="-762" font-family="Helvetica,sans-Serif" font-size="10.00"> &lt; DataPoint::VectorType &gt;</text>
</g>
<!-- Node2 -->
<g id="node2" class="node">
<title>Node2</title>
<g id="a_node2"><a xlink:href="group__spatialpartitioning.html#structPonca_1_1QueryInputBase" target="_top" xlink:title="Base class for queries input type.">
<polygon fill="white" stroke="#666666" points="945.5,-916.5 945.5,-973.5 1075.5,-973.5 1075.5,-916.5 945.5,-916.5"/>
<text text-anchor="middle" x="1010.5" y="-961.5" font-family="Helvetica,sans-Serif" font-size="10.00">Ponca::QueryInputBase</text>
<polyline fill="none" stroke="#666666" points="945.5,-954.5 1075.5,-954.5 "/>
<text text-anchor="middle" x="1010.5" y="-942.5" font-family="Helvetica,sans-Serif" font-size="10.00"> </text>
<polyline fill="none" stroke="#666666" points="945.5,-935.5 1075.5,-935.5 "/>
<text text-anchor="middle" x="1010.5" y="-923.5" font-family="Helvetica,sans-Serif" font-size="10.00"> </text>
</a>
</g>
</g>
<!-- Node2&#45;&gt;Node1 -->
<g id="edge1" class="edge">
<title>Node2&#45;&gt;Node1</title>
<path fill="none" stroke="#63b8ff" d="M1010.5,-906.31C1010.5,-897.43 1010.5,-887.88 1010.5,-878.74"/>
<polygon fill="none" stroke="#63b8ff" points="1007,-906.37 1010.5,-916.37 1014,-906.37 1007,-906.37"/>
</g>
<!-- Node4 -->
<g id="node4" class="node">
<title>Node4</title>
<g id="a_node4"><a xlink:href="group__spatialpartitioning.html#structPonca_1_1QueryInputIsIndex" target="_top" xlink:title="Base class for queries storing points.">
<polygon fill="white" stroke="#666666" points="576,-550 576,-607 717,-607 717,-550 576,-550"/>
<text text-anchor="middle" x="646.5" y="-595" font-family="Helvetica,sans-Serif" font-size="10.00">Ponca::QueryInputIsIndex</text>
<polyline fill="none" stroke="#666666" points="576,-588 717,-588 "/>
<text text-anchor="middle" x="646.5" y="-576" font-family="Helvetica,sans-Serif" font-size="10.00"> </text>
<polyline fill="none" stroke="#666666" points="576,-569 717,-569 "/>
<text text-anchor="start" x="584" y="-557" font-family="Helvetica,sans-Serif" font-size="10.00">+ QueryInputIsIndex()</text>
</a>
</g>
</g>
<!-- Node3&#45;&gt;Node4 -->
<g id="edge3" class="edge">
<title>Node3&#45;&gt;Node4</title>
<path fill="none" stroke="#63b8ff" d="M871.78,-668.22C825.31,-649.92 763.47,-625.57 716.33,-607"/>
<polygon fill="none" stroke="#63b8ff" points="870.57,-671.51 881.16,-671.92 873.14,-665 870.57,-671.51"/>
</g>
<!-- Node5 -->
<g id="node5" class="node">
<title>Node5</title>
<g id="a_node5"><a xlink:href="group__spatialpartitioning.html" target="_top" xlink:title=" ">
<polygon fill="white" stroke="#bfbfbf" points="0,-411 0,-501 173,-501 173,-411 0,-411"/>
<text text-anchor="start" x="8" y="-489" font-family="Helvetica,sans-Serif" font-size="10.00">Ponca::Query&lt; QueryInput</text>
<text text-anchor="start" x="8" y="-478" font-family="Helvetica,sans-Serif" font-size="10.00">IsIndex, QueryOutputIsKNearest</text>
<text text-anchor="middle" x="86.5" y="-467" font-family="Helvetica,sans-Serif" font-size="10.00">&lt; Scalar &gt; &gt;</text>
<polyline fill="none" stroke="#bfbfbf" points="0,-460 173,-460 "/>
<text text-anchor="middle" x="86.5" y="-448" font-family="Helvetica,sans-Serif" font-size="10.00"> </text>
<polyline fill="none" stroke="#bfbfbf" points="0,-441 173,-441 "/>
<text text-anchor="start" x="8" y="-429" font-family="Helvetica,sans-Serif" font-size="10.00">+ Query()</text>
<text text-anchor="start" x="8" y="-418" font-family="Helvetica,sans-Serif" font-size="10.00">+ Query()</text>
</a>
</g>
</g>
<!-- Node4&#45;&gt;Node5 -->
<g id="edge4" class="edge">
<title>Node4&#45;&gt;Node5</title>
<path fill="none" stroke="#63b8ff" d="M565.84,-573.43C471.59,-566.83 311.92,-549.85 181.5,-507 176.19,-505.25 170.82,-503.23 165.47,-501.02"/>
<polygon fill="none" stroke="#63b8ff" points="565.67,-576.93 575.88,-574.11 566.14,-569.94 565.67,-576.93"/>
</g>
<!-- Node9 -->
<g id="node9" class="node">
<title>Node9</title>
<g id="a_node9"><a xlink:href="group__spatialpartitioning.html" target="_top" xlink:title=" ">
<polygon fill="white" stroke="#bfbfbf" points="191,-411 191,-501 364,-501 364,-411 191,-411"/>
<text text-anchor="start" x="199" y="-489" font-family="Helvetica,sans-Serif" font-size="10.00">Ponca::Query&lt; QueryInput</text>
<text text-anchor="start" x="199" y="-478" font-family="Helvetica,sans-Serif" font-size="10.00">IsIndex, QueryOutputIsKNearest</text>
<text text-anchor="middle" x="277.5" y="-467" font-family="Helvetica,sans-Serif" font-size="10.00">&lt; DataPoint::Scalar &gt; &gt;</text>
<polyline fill="none" stroke="#bfbfbf" points="191,-460 364,-460 "/>
<text text-anchor="middle" x="277.5" y="-448" font-family="Helvetica,sans-Serif" font-size="10.00"> </text>
<polyline fill="none" stroke="#bfbfbf" points="191,-441 364,-441 "/>
<text text-anchor="start" x="199" y="-429" font-family="Helvetica,sans-Serif" font-size="10.00">+ Query()</text>
<text text-anchor="start" x="199" y="-418" font-family="Helvetica,sans-Serif" font-size="10.00">+ Query()</text>
</a>
</g>
</g>
<!-- Node4&#45;&gt;Node9 -->
<g id="edge8" class="edge">
<title>Node4&#45;&gt;Node9</title>
<path fill="none" stroke="#63b8ff" d="M565.73,-561.9C510.33,-549.95 435.7,-531.38 372.5,-507 367.8,-505.19 363.04,-503.2 358.28,-501.1"/>
<polygon fill="none" stroke="#63b8ff" points="565.33,-565.39 575.84,-564.05 566.79,-558.55 565.33,-565.39"/>
</g>
<!-- Node10 -->
<g id="node10" class="node">
<title>Node10</title>
<g id="a_node10"><a xlink:href="group__spatialpartitioning.html" target="_top" xlink:title=" ">
<polygon fill="white" stroke="#bfbfbf" points="382,-411 382,-501 549,-501 549,-411 382,-411"/>
<text text-anchor="start" x="390" y="-489" font-family="Helvetica,sans-Serif" font-size="10.00">Ponca::Query&lt; QueryInput</text>
<text text-anchor="start" x="390" y="-478" font-family="Helvetica,sans-Serif" font-size="10.00">IsIndex, QueryOutputIsNearest</text>
<text text-anchor="middle" x="465.5" y="-467" font-family="Helvetica,sans-Serif" font-size="10.00">&lt; DataPoint::Scalar &gt; &gt;</text>
<polyline fill="none" stroke="#bfbfbf" points="382,-460 549,-460 "/>
<text text-anchor="middle" x="465.5" y="-448" font-family="Helvetica,sans-Serif" font-size="10.00"> </text>
<polyline fill="none" stroke="#bfbfbf" points="382,-441 549,-441 "/>
<text text-anchor="start" x="390" y="-429" font-family="Helvetica,sans-Serif" font-size="10.00">+ Query()</text>
<text text-anchor="start" x="390" y="-418" font-family="Helvetica,sans-Serif" font-size="10.00">+ Query()</text>
</a>
</g>
</g>
<!-- Node4&#45;&gt;Node10 -->
<g id="edge9" class="edge">
<title>Node4&#45;&gt;Node10</title>
<path fill="none" stroke="#63b8ff" d="M596.6,-544.28C576.53,-530.92 553.11,-515.33 531.66,-501.05"/>
<polygon fill="none" stroke="#63b8ff" points="594.71,-547.23 604.97,-549.85 598.59,-541.4 594.71,-547.23"/>
</g>
<!-- Node11 -->
<g id="node11" class="node">
<title>Node11</title>
<g id="a_node11"><a xlink:href="group__spatialpartitioning.html" target="_top" xlink:title=" ">
<polygon fill="white" stroke="#bfbfbf" points="567,-411 567,-501 726,-501 726,-411 567,-411"/>
<text text-anchor="start" x="575" y="-489" font-family="Helvetica,sans-Serif" font-size="10.00">Ponca::Query&lt; QueryInput</text>
<text text-anchor="start" x="575" y="-478" font-family="Helvetica,sans-Serif" font-size="10.00">IsIndex, QueryOutputIsRange</text>
<text text-anchor="middle" x="646.5" y="-467" font-family="Helvetica,sans-Serif" font-size="10.00">&lt; DataPoint::Scalar &gt; &gt;</text>
<polyline fill="none" stroke="#bfbfbf" points="567,-460 726,-460 "/>
<text text-anchor="middle" x="646.5" y="-448" font-family="Helvetica,sans-Serif" font-size="10.00"> </text>
<polyline fill="none" stroke="#bfbfbf" points="567,-441 726,-441 "/>
<text text-anchor="start" x="575" y="-429" font-family="Helvetica,sans-Serif" font-size="10.00">+ Query()</text>
<text text-anchor="start" x="575" y="-418" font-family="Helvetica,sans-Serif" font-size="10.00">+ Query()</text>
</a>
</g>
</g>
<!-- Node4&#45;&gt;Node11 -->
<g id="edge10" class="edge">
<title>Node4&#45;&gt;Node11</title>
<path fill="none" stroke="#63b8ff" d="M646.5,-539.54C646.5,-527.32 646.5,-513.67 646.5,-501.05"/>
<polygon fill="none" stroke="#63b8ff" points="643,-539.85 646.5,-549.85 650,-539.85 643,-539.85"/>
</g>
<!-- Node12 -->
<g id="node12" class="node">
<title>Node12</title>
<g id="a_node12"><a xlink:href="group__spatialpartitioning.html" target="_top" xlink:title=" ">
<polygon fill="white" stroke="#bfbfbf" points="744,-411 744,-501 911,-501 911,-411 744,-411"/>
<text text-anchor="start" x="752" y="-489" font-family="Helvetica,sans-Serif" font-size="10.00">Ponca::Query&lt; QueryInput</text>
<text text-anchor="start" x="752" y="-478" font-family="Helvetica,sans-Serif" font-size="10.00">IsIndex, QueryOutputIsNearest</text>
<text text-anchor="middle" x="827.5" y="-467" font-family="Helvetica,sans-Serif" font-size="10.00">&lt; Scalar &gt; &gt;</text>
<polyline fill="none" stroke="#bfbfbf" points="744,-460 911,-460 "/>
<text text-anchor="middle" x="827.5" y="-448" font-family="Helvetica,sans-Serif" font-size="10.00"> </text>
<polyline fill="none" stroke="#bfbfbf" points="744,-441 911,-441 "/>
<text text-anchor="start" x="752" y="-429" font-family="Helvetica,sans-Serif" font-size="10.00">+ Query()</text>
<text text-anchor="start" x="752" y="-418" font-family="Helvetica,sans-Serif" font-size="10.00">+ Query()</text>
</a>
</g>
</g>
<!-- Node4&#45;&gt;Node12 -->
<g id="edge11" class="edge">
<title>Node4&#45;&gt;Node12</title>
<path fill="none" stroke="#63b8ff" d="M696.4,-544.28C716.47,-530.92 739.89,-515.33 761.34,-501.05"/>
<polygon fill="none" stroke="#63b8ff" points="694.41,-541.4 688.03,-549.85 698.29,-547.23 694.41,-541.4"/>
</g>
<!-- Node16 -->
<g id="node16" class="node">
<title>Node16</title>
<g id="a_node16"><a xlink:href="group__spatialpartitioning.html" target="_top" xlink:title=" ">
<polygon fill="white" stroke="#bfbfbf" points="929,-411 929,-501 1088,-501 1088,-411 929,-411"/>
<text text-anchor="start" x="937" y="-489" font-family="Helvetica,sans-Serif" font-size="10.00">Ponca::Query&lt; QueryInput</text>
<text text-anchor="start" x="937" y="-478" font-family="Helvetica,sans-Serif" font-size="10.00">IsIndex, QueryOutputIsRange</text>
<text text-anchor="middle" x="1008.5" y="-467" font-family="Helvetica,sans-Serif" font-size="10.00">&lt; Scalar &gt; &gt;</text>
<polyline fill="none" stroke="#bfbfbf" points="929,-460 1088,-460 "/>
<text text-anchor="middle" x="1008.5" y="-448" font-family="Helvetica,sans-Serif" font-size="10.00"> </text>
<polyline fill="none" stroke="#bfbfbf" points="929,-441 1088,-441 "/>
<text text-anchor="start" x="937" y="-429" font-family="Helvetica,sans-Serif" font-size="10.00">+ Query()</text>
<text text-anchor="start" x="937" y="-418" font-family="Helvetica,sans-Serif" font-size="10.00">+ Query()</text>
</a>
</g>
</g>
<!-- Node4&#45;&gt;Node16 -->
<g id="edge15" class="edge">
<title>Node4&#45;&gt;Node16</title>
<path fill="none" stroke="#63b8ff" d="M727.19,-562.41C782.48,-550.7 856.86,-532.18 919.5,-507 923.94,-505.21 928.43,-503.25 932.92,-501.16"/>
<polygon fill="none" stroke="#63b8ff" points="726.17,-559.05 717.09,-564.52 727.6,-565.9 726.17,-559.05"/>
</g>
<!-- Node6 -->
<g id="node6" class="node">
<title>Node6</title>
<g id="a_node6"><a xlink:href="group__spatialpartitioning.html#structPonca_1_1KNearestIndexQuery" target="_top" xlink:title="Base Query class combining QueryInputIsIndex and QueryOutputIsKNearest.">
<polygon fill="white" stroke="#666666" points="10,-299.5 10,-367.5 163,-367.5 163,-299.5 10,-299.5"/>
<text text-anchor="start" x="18" y="-355.5" font-family="Helvetica,sans-Serif" font-size="10.00">Ponca::KNearestIndexQuery</text>
<text text-anchor="middle" x="86.5" y="-344.5" font-family="Helvetica,sans-Serif" font-size="10.00">&lt; Scalar &gt;</text>
<polyline fill="none" stroke="#666666" points="10,-337.5 163,-337.5 "/>
<text text-anchor="middle" x="86.5" y="-325.5" font-family="Helvetica,sans-Serif" font-size="10.00"> </text>
<polyline fill="none" stroke="#666666" points="10,-318.5 163,-318.5 "/>
<text text-anchor="middle" x="86.5" y="-306.5" font-family="Helvetica,sans-Serif" font-size="10.00"> </text>
</a>
</g>
</g>
<!-- Node5&#45;&gt;Node6 -->
<g id="edge5" class="edge">
<title>Node5&#45;&gt;Node6</title>
<path fill="none" stroke="#63b8ff" d="M86.5,-400.63C86.5,-389.42 86.5,-377.92 86.5,-367.73"/>
<polygon fill="none" stroke="#63b8ff" points="83,-400.81 86.5,-410.81 90,-400.81 83,-400.81"/>
</g>
<!-- Node7 -->
<g id="node7" class="node">
<title>Node7</title>
<g id="a_node7"><a xlink:href="group__spatialpartitioning.html" target="_top" xlink:title=" ">
<polygon fill="white" stroke="#666666" points="10,-167 10,-235 163,-235 163,-167 10,-167"/>
<text text-anchor="start" x="18" y="-223" font-family="Helvetica,sans-Serif" font-size="10.00">Ponca::KNearestIndexQuery</text>
<text text-anchor="middle" x="86.5" y="-212" font-family="Helvetica,sans-Serif" font-size="10.00">&lt; DataPoint::Scalar &gt;</text>
<polyline fill="none" stroke="#666666" points="10,-205 163,-205 "/>
<text text-anchor="middle" x="86.5" y="-193" font-family="Helvetica,sans-Serif" font-size="10.00"> </text>
<polyline fill="none" stroke="#666666" points="10,-186 163,-186 "/>
<text text-anchor="middle" x="86.5" y="-174" font-family="Helvetica,sans-Serif" font-size="10.00"> </text>
</a>
</g>
</g>
<!-- Node6&#45;&gt;Node7 -->
<g id="edge6" class="edge">
<title>Node6&#45;&gt;Node7</title>
<path fill="none" stroke="orange" d="M86.5,-289.2C86.5,-271.61 86.5,-251.61 86.5,-235.21"/>
<polygon fill="orange" stroke="orange" points="83,-289.23 86.5,-299.23 90,-289.23 83,-289.23"/>
<text text-anchor="middle" x="141.5" y="-273" font-family="Helvetica,sans-Serif" font-size="10.00"> &lt; DataPoint::Scalar &gt;</text>
</g>
<!-- Node8 -->
<g id="node8" class="node">
<title>Node8</title>
<g id="a_node8"><a xlink:href="classPonca_1_1KdTreeKNearestIndexQuery.html" target="_top" xlink:title=" ">
<polygon fill="white" stroke="#bfbfbf" points="1.5,-6 1.5,-107 171.5,-107 171.5,-6 1.5,-6"/>
<text text-anchor="start" x="9.5" y="-95" font-family="Helvetica,sans-Serif" font-size="10.00">Ponca::KdTreeKNearestIndex</text>
<text text-anchor="middle" x="86.5" y="-84" font-family="Helvetica,sans-Serif" font-size="10.00">Query&lt; DataPoint &gt;</text>
<polyline fill="none" stroke="#bfbfbf" points="1.5,-77 171.5,-77 "/>
<text text-anchor="middle" x="86.5" y="-65" font-family="Helvetica,sans-Serif" font-size="10.00"> </text>
<polyline fill="none" stroke="#bfbfbf" points="1.5,-58 171.5,-58 "/>
<text text-anchor="start" x="9.5" y="-46" font-family="Helvetica,sans-Serif" font-size="10.00">+ KdTreeKNearestIndexQuery()</text>
<text text-anchor="start" x="9.5" y="-35" font-family="Helvetica,sans-Serif" font-size="10.00">+ begin()</text>
<text text-anchor="start" x="9.5" y="-24" font-family="Helvetica,sans-Serif" font-size="10.00">+ end()</text>
<text text-anchor="start" x="9.5" y="-13" font-family="Helvetica,sans-Serif" font-size="10.00"># search()</text>
</a>
</g>
</g>
<!-- Node7&#45;&gt;Node8 -->
<g id="edge7" class="edge">
<title>Node7&#45;&gt;Node8</title>
<path fill="none" stroke="#63b8ff" d="M86.5,-156.53C86.5,-140.93 86.5,-123.22 86.5,-107.14"/>
<polygon fill="none" stroke="#63b8ff" points="83,-156.95 86.5,-166.95 90,-156.95 83,-156.95"/>
</g>
<!-- Node13 -->
<g id="node13" class="node">
<title>Node13</title>
<g id="a_node13"><a xlink:href="group__spatialpartitioning.html#structPonca_1_1NearestIndexQuery" target="_top" xlink:title="Base Query class combining QueryInputIsIndex and QueryOutputIsNearest.">
<polygon fill="white" stroke="#666666" points="752.5,-299.5 752.5,-367.5 898.5,-367.5 898.5,-299.5 752.5,-299.5"/>
<text text-anchor="start" x="760.5" y="-355.5" font-family="Helvetica,sans-Serif" font-size="10.00">Ponca::NearestIndexQuery</text>
<text text-anchor="middle" x="825.5" y="-344.5" font-family="Helvetica,sans-Serif" font-size="10.00">&lt; Scalar &gt;</text>
<polyline fill="none" stroke="#666666" points="752.5,-337.5 898.5,-337.5 "/>
<text text-anchor="middle" x="825.5" y="-325.5" font-family="Helvetica,sans-Serif" font-size="10.00"> </text>
<polyline fill="none" stroke="#666666" points="752.5,-318.5 898.5,-318.5 "/>
<text text-anchor="middle" x="825.5" y="-306.5" font-family="Helvetica,sans-Serif" font-size="10.00"> </text>
</a>
</g>
</g>
<!-- Node12&#45;&gt;Node13 -->
<g id="edge12" class="edge">
<title>Node12&#45;&gt;Node13</title>
<path fill="none" stroke="#63b8ff" d="M826.6,-400.63C826.41,-389.42 826.22,-377.92 826.05,-367.73"/>
<polygon fill="none" stroke="#63b8ff" points="823.1,-400.87 826.77,-410.81 830.1,-400.76 823.1,-400.87"/>
</g>
<!-- Node14 -->
<g id="node14" class="node">
<title>Node14</title>
<g id="a_node14"><a xlink:href="group__spatialpartitioning.html" target="_top" xlink:title=" ">
<polygon fill="white" stroke="#666666" points="751.5,-167 751.5,-235 897.5,-235 897.5,-167 751.5,-167"/>
<text text-anchor="start" x="759.5" y="-223" font-family="Helvetica,sans-Serif" font-size="10.00">Ponca::NearestIndexQuery</text>
<text text-anchor="middle" x="824.5" y="-212" font-family="Helvetica,sans-Serif" font-size="10.00">&lt; DataPoint::Scalar &gt;</text>
<polyline fill="none" stroke="#666666" points="751.5,-205 897.5,-205 "/>
<text text-anchor="middle" x="824.5" y="-193" font-family="Helvetica,sans-Serif" font-size="10.00"> </text>
<polyline fill="none" stroke="#666666" points="751.5,-186 897.5,-186 "/>
<text text-anchor="middle" x="824.5" y="-174" font-family="Helvetica,sans-Serif" font-size="10.00"> </text>
</a>
</g>
</g>
<!-- Node13&#45;&gt;Node14 -->
<g id="edge13" class="edge">
<title>Node13&#45;&gt;Node14</title>
<path fill="none" stroke="orange" d="M825.17,-289.2C825.03,-271.61 824.88,-251.61 824.75,-235.21"/>
<polygon fill="orange" stroke="orange" points="821.67,-289.26 825.25,-299.23 828.67,-289.21 821.67,-289.26"/>
<text text-anchor="middle" x="880.5" y="-273" font-family="Helvetica,sans-Serif" font-size="10.00"> &lt; DataPoint::Scalar &gt;</text>
</g>
<!-- Node15 -->
<g id="node15" class="node">
<title>Node15</title>
<g id="a_node15"><a xlink:href="classPonca_1_1KdTreeNearestIndexQuery.html" target="_top" xlink:title=" ">
<polygon fill="white" stroke="#bfbfbf" points="741,-6 741,-107 904,-107 904,-6 741,-6"/>
<text text-anchor="start" x="749" y="-95" font-family="Helvetica,sans-Serif" font-size="10.00">Ponca::KdTreeNearestIndex</text>
<text text-anchor="middle" x="822.5" y="-84" font-family="Helvetica,sans-Serif" font-size="10.00">Query&lt; DataPoint &gt;</text>
<polyline fill="none" stroke="#bfbfbf" points="741,-77 904,-77 "/>
<text text-anchor="middle" x="822.5" y="-65" font-family="Helvetica,sans-Serif" font-size="10.00"> </text>
<polyline fill="none" stroke="#bfbfbf" points="741,-58 904,-58 "/>
<text text-anchor="start" x="749" y="-46" font-family="Helvetica,sans-Serif" font-size="10.00">+ KdTreeNearestIndexQuery()</text>
<text text-anchor="start" x="749" y="-35" font-family="Helvetica,sans-Serif" font-size="10.00">+ begin()</text>
<text text-anchor="start" x="749" y="-24" font-family="Helvetica,sans-Serif" font-size="10.00">+ end()</text>
<text text-anchor="start" x="749" y="-13" font-family="Helvetica,sans-Serif" font-size="10.00"># search()</text>
</a>
</g>
</g>
<!-- Node14&#45;&gt;Node15 -->
<g id="edge14" class="edge">
<title>Node14&#45;&gt;Node15</title>
<path fill="none" stroke="#63b8ff" d="M823.89,-156.53C823.67,-140.93 823.42,-123.22 823.2,-107.14"/>
<polygon fill="none" stroke="#63b8ff" points="820.4,-157 824.04,-166.95 827.4,-156.9 820.4,-157"/>
</g>
<!-- Node17 -->
<g id="node17" class="node">
<title>Node17</title>
<g id="a_node17"><a xlink:href="group__spatialpartitioning.html#structPonca_1_1RangeIndexQuery" target="_top" xlink:title="Base Query class combining QueryInputIsIndex and QueryOutputIsRange.">
<polygon fill="white" stroke="#666666" points="939,-299.5 939,-367.5 1078,-367.5 1078,-299.5 939,-299.5"/>
<text text-anchor="start" x="947" y="-355.5" font-family="Helvetica,sans-Serif" font-size="10.00">Ponca::RangeIndexQuery</text>
<text text-anchor="middle" x="1008.5" y="-344.5" font-family="Helvetica,sans-Serif" font-size="10.00">&lt; Scalar &gt;</text>
<polyline fill="none" stroke="#666666" points="939,-337.5 1078,-337.5 "/>
<text text-anchor="middle" x="1008.5" y="-325.5" font-family="Helvetica,sans-Serif" font-size="10.00"> </text>
<polyline fill="none" stroke="#666666" points="939,-318.5 1078,-318.5 "/>
<text text-anchor="middle" x="1008.5" y="-306.5" font-family="Helvetica,sans-Serif" font-size="10.00"> </text>
</a>
</g>
</g>
<!-- Node16&#45;&gt;Node17 -->
<g id="edge16" class="edge">
<title>Node16&#45;&gt;Node17</title>
<path fill="none" stroke="#63b8ff" d="M1008.5,-400.63C1008.5,-389.42 1008.5,-377.92 1008.5,-367.73"/>
<polygon fill="none" stroke="#63b8ff" points="1005,-400.81 1008.5,-410.81 1012,-400.81 1005,-400.81"/>
</g>
<!-- Node18 -->
<g id="node18" class="node">
<title>Node18</title>
<g id="a_node18"><a xlink:href="group__spatialpartitioning.html" target="_top" xlink:title=" ">
<polygon fill="white" stroke="#666666" points="939,-167 939,-235 1078,-235 1078,-167 939,-167"/>
<text text-anchor="start" x="947" y="-223" font-family="Helvetica,sans-Serif" font-size="10.00">Ponca::RangeIndexQuery</text>
<text text-anchor="middle" x="1008.5" y="-212" font-family="Helvetica,sans-Serif" font-size="10.00">&lt; DataPoint::Scalar &gt;</text>
<polyline fill="none" stroke="#666666" points="939,-205 1078,-205 "/>
<text text-anchor="middle" x="1008.5" y="-193" font-family="Helvetica,sans-Serif" font-size="10.00"> </text>
<polyline fill="none" stroke="#666666" points="939,-186 1078,-186 "/>
<text text-anchor="middle" x="1008.5" y="-174" font-family="Helvetica,sans-Serif" font-size="10.00"> </text>
</a>
</g>
</g>
<!-- Node17&#45;&gt;Node18 -->
<g id="edge17" class="edge">
<title>Node17&#45;&gt;Node18</title>
<path fill="none" stroke="orange" d="M1008.5,-289.2C1008.5,-271.61 1008.5,-251.61 1008.5,-235.21"/>
<polygon fill="orange" stroke="orange" points="1005,-289.23 1008.5,-299.23 1012,-289.23 1005,-289.23"/>
<text text-anchor="middle" x="1063.5" y="-273" font-family="Helvetica,sans-Serif" font-size="10.00"> &lt; DataPoint::Scalar &gt;</text>
</g>
<!-- Node19 -->
<g id="node19" class="node">
<title>Node19</title>
<g id="a_node19"><a xlink:href="classPonca_1_1KdTreeRangeIndexQuery.html" target="_top" xlink:title=" ">
<polygon fill="white" stroke="#bfbfbf" points="922.5,-0.5 922.5,-112.5 1094.5,-112.5 1094.5,-0.5 922.5,-0.5"/>
<text text-anchor="start" x="930.5" y="-100.5" font-family="Helvetica,sans-Serif" font-size="10.00">Ponca::KdTreeRangeIndexQuery</text>
<text text-anchor="middle" x="1008.5" y="-89.5" font-family="Helvetica,sans-Serif" font-size="10.00">&lt; DataPoint &gt;</text>
<polyline fill="none" stroke="#bfbfbf" points="922.5,-82.5 1094.5,-82.5 "/>
<text text-anchor="start" x="930.5" y="-70.5" font-family="Helvetica,sans-Serif" font-size="10.00"># Iterator</text>
<polyline fill="none" stroke="#bfbfbf" points="922.5,-63.5 1094.5,-63.5 "/>
<text text-anchor="start" x="930.5" y="-51.5" font-family="Helvetica,sans-Serif" font-size="10.00">+ KdTreeRangeIndexQuery()</text>
<text text-anchor="start" x="930.5" y="-40.5" font-family="Helvetica,sans-Serif" font-size="10.00">+ begin()</text>
<text text-anchor="start" x="930.5" y="-29.5" font-family="Helvetica,sans-Serif" font-size="10.00">+ end()</text>
<text text-anchor="start" x="930.5" y="-18.5" font-family="Helvetica,sans-Serif" font-size="10.00"># initialize()</text>
<text text-anchor="start" x="930.5" y="-7.5" font-family="Helvetica,sans-Serif" font-size="10.00"># advance()</text>
</a>
</g>
</g>
<!-- Node18&#45;&gt;Node19 -->
<g id="edge18" class="edge">
<title>Node18&#45;&gt;Node19</title>
<path fill="none" stroke="#63b8ff" d="M1008.5,-156.71C1008.5,-142.85 1008.5,-127.3 1008.5,-112.7"/>
<polygon fill="none" stroke="#63b8ff" points="1005,-156.95 1008.5,-166.95 1012,-156.95 1005,-156.95"/>
</g>
<!-- Node21 -->
<g id="node21" class="node">
<title>Node21</title>
<g id="a_node21"><a xlink:href="group__spatialpartitioning.html#structPonca_1_1QueryInputIsPosition" target="_top" xlink:title="Base class for queries storing points.">
<polygon fill="white" stroke="#666666" points="1156,-544.5 1156,-612.5 1309,-612.5 1309,-544.5 1156,-544.5"/>
<text text-anchor="start" x="1164" y="-600.5" font-family="Helvetica,sans-Serif" font-size="10.00">Ponca::QueryInputIsPosition</text>
<text text-anchor="middle" x="1232.5" y="-589.5" font-family="Helvetica,sans-Serif" font-size="10.00">&lt; DataPoint &gt;</text>
<polyline fill="none" stroke="#666666" points="1156,-582.5 1309,-582.5 "/>
<text text-anchor="middle" x="1232.5" y="-570.5" font-family="Helvetica,sans-Serif" font-size="10.00"> </text>
<polyline fill="none" stroke="#666666" points="1156,-563.5 1309,-563.5 "/>
<text text-anchor="start" x="1164" y="-551.5" font-family="Helvetica,sans-Serif" font-size="10.00">+ QueryInputIsPosition()</text>
</a>
</g>
</g>
<!-- Node20&#45;&gt;Node21 -->
<g id="edge20" class="edge">
<title>Node20&#45;&gt;Node21</title>
<path fill="none" stroke="#63b8ff" d="M1181.69,-642.33C1189.86,-632.23 1198.21,-621.9 1205.72,-612.62"/>
<polygon fill="none" stroke="#63b8ff" points="1178.76,-640.39 1175.19,-650.37 1184.2,-644.79 1178.76,-640.39"/>
</g>
<!-- Node22 -->
<g id="node22" class="node">
<title>Node22</title>
<g id="a_node22"><a xlink:href="group__spatialpartitioning.html" target="_top" xlink:title=" ">
<polygon fill="white" stroke="#bfbfbf" points="1110,-405.5 1110,-506.5 1259,-506.5 1259,-405.5 1110,-405.5"/>
<text text-anchor="start" x="1118" y="-494.5" font-family="Helvetica,sans-Serif" font-size="10.00">Ponca::Query&lt; QueryInput</text>
<text text-anchor="start" x="1118" y="-483.5" font-family="Helvetica,sans-Serif" font-size="10.00">IsPosition&lt; DataPoint</text>
<text text-anchor="start" x="1118" y="-472.5" font-family="Helvetica,sans-Serif" font-size="10.00"> &gt;, QueryOutputIsKNearest</text>
<text text-anchor="middle" x="1184.5" y="-461.5" font-family="Helvetica,sans-Serif" font-size="10.00">&lt; DataPoint::Scalar &gt; &gt;</text>
<polyline fill="none" stroke="#bfbfbf" points="1110,-454.5 1259,-454.5 "/>
<text text-anchor="middle" x="1184.5" y="-442.5" font-family="Helvetica,sans-Serif" font-size="10.00"> </text>
<polyline fill="none" stroke="#bfbfbf" points="1110,-435.5 1259,-435.5 "/>
<text text-anchor="start" x="1118" y="-423.5" font-family="Helvetica,sans-Serif" font-size="10.00">+ Query()</text>
<text text-anchor="start" x="1118" y="-412.5" font-family="Helvetica,sans-Serif" font-size="10.00">+ Query()</text>
</a>
</g>
</g>
<!-- Node21&#45;&gt;Node22 -->
<g id="edge21" class="edge">
<title>Node21&#45;&gt;Node22</title>
<path fill="none" stroke="#63b8ff" d="M1215.46,-534.73C1211.87,-525.7 1208.04,-516.1 1204.35,-506.84"/>
<polygon fill="none" stroke="#63b8ff" points="1212.3,-536.26 1219.26,-544.25 1218.81,-533.67 1212.3,-536.26"/>
</g>
<!-- Node25 -->
<g id="node25" class="node">
<title>Node25</title>
<g id="a_node25"><a xlink:href="group__spatialpartitioning.html" target="_top" xlink:title=" ">
<polygon fill="white" stroke="#bfbfbf" points="1279.5,-405.5 1279.5,-506.5 1425.5,-506.5 1425.5,-405.5 1279.5,-405.5"/>
<text text-anchor="start" x="1287.5" y="-494.5" font-family="Helvetica,sans-Serif" font-size="10.00">Ponca::Query&lt; QueryInput</text>
<text text-anchor="start" x="1287.5" y="-483.5" font-family="Helvetica,sans-Serif" font-size="10.00">IsPosition&lt; DataPoint</text>
<text text-anchor="start" x="1287.5" y="-472.5" font-family="Helvetica,sans-Serif" font-size="10.00"> &gt;, QueryOutputIsNearest</text>
<text text-anchor="middle" x="1352.5" y="-461.5" font-family="Helvetica,sans-Serif" font-size="10.00">&lt; DataPoint::Scalar &gt; &gt;</text>
<polyline fill="none" stroke="#bfbfbf" points="1279.5,-454.5 1425.5,-454.5 "/>
<text text-anchor="middle" x="1352.5" y="-442.5" font-family="Helvetica,sans-Serif" font-size="10.00"> </text>
<polyline fill="none" stroke="#bfbfbf" points="1279.5,-435.5 1425.5,-435.5 "/>
<text text-anchor="start" x="1287.5" y="-423.5" font-family="Helvetica,sans-Serif" font-size="10.00">+ Query()</text>
<text text-anchor="start" x="1287.5" y="-412.5" font-family="Helvetica,sans-Serif" font-size="10.00">+ Query()</text>
</a>
</g>
</g>
<!-- Node21&#45;&gt;Node25 -->
<g id="edge24" class="edge">
<title>Node21&#45;&gt;Node25</title>
<path fill="none" stroke="#63b8ff" d="M1272.81,-537.02C1282.45,-527.34 1292.86,-516.89 1302.86,-506.84"/>
<polygon fill="none" stroke="#63b8ff" points="1270.18,-534.7 1265.61,-544.25 1275.14,-539.64 1270.18,-534.7"/>
</g>
<!-- Node28 -->
<g id="node28" class="node">
<title>Node28</title>
<g id="a_node28"><a xlink:href="group__spatialpartitioning.html" target="_top" xlink:title=" ">
<polygon fill="white" stroke="#bfbfbf" points="1457.5,-405.5 1457.5,-506.5 1603.5,-506.5 1603.5,-405.5 1457.5,-405.5"/>
<text text-anchor="start" x="1465.5" y="-494.5" font-family="Helvetica,sans-Serif" font-size="10.00">Ponca::Query&lt; QueryInput</text>
<text text-anchor="start" x="1465.5" y="-483.5" font-family="Helvetica,sans-Serif" font-size="10.00">IsPosition&lt; DataPoint</text>
<text text-anchor="start" x="1465.5" y="-472.5" font-family="Helvetica,sans-Serif" font-size="10.00"> &gt;, QueryOutputIsRange</text>
<text text-anchor="middle" x="1530.5" y="-461.5" font-family="Helvetica,sans-Serif" font-size="10.00">&lt; DataPoint::Scalar &gt; &gt;</text>
<polyline fill="none" stroke="#bfbfbf" points="1457.5,-454.5 1603.5,-454.5 "/>
<text text-anchor="middle" x="1530.5" y="-442.5" font-family="Helvetica,sans-Serif" font-size="10.00"> </text>
<polyline fill="none" stroke="#bfbfbf" points="1457.5,-435.5 1603.5,-435.5 "/>
<text text-anchor="start" x="1465.5" y="-423.5" font-family="Helvetica,sans-Serif" font-size="10.00">+ Query()</text>
<text text-anchor="start" x="1465.5" y="-412.5" font-family="Helvetica,sans-Serif" font-size="10.00">+ Query()</text>
</a>
</g>
</g>
<!-- Node21&#45;&gt;Node28 -->
<g id="edge27" class="edge">
<title>Node21&#45;&gt;Node28</title>
<path fill="none" stroke="#63b8ff" d="M1318.82,-550.43C1355.01,-538.3 1397.25,-523.1 1434.5,-507 1442,-503.76 1449.73,-500.17 1457.38,-496.46"/>
<polygon fill="none" stroke="#63b8ff" points="1317.66,-547.13 1309.28,-553.61 1319.87,-553.77 1317.66,-547.13"/>
</g>
<!-- Node23 -->
<g id="node23" class="node">
<title>Node23</title>
<g id="a_node23"><a xlink:href="group__spatialpartitioning.html#structPonca_1_1KNearestPointQuery" target="_top" xlink:title="Base Query class combining QueryInputIsPosition and QueryOutputIsKNearest.">
<polygon fill="white" stroke="#666666" points="1104,-299.5 1104,-367.5 1255,-367.5 1255,-299.5 1104,-299.5"/>
<text text-anchor="start" x="1112" y="-355.5" font-family="Helvetica,sans-Serif" font-size="10.00">Ponca::KNearestPointQuery</text>
<text text-anchor="middle" x="1179.5" y="-344.5" font-family="Helvetica,sans-Serif" font-size="10.00">&lt; DataPoint &gt;</text>
<polyline fill="none" stroke="#666666" points="1104,-337.5 1255,-337.5 "/>
<text text-anchor="middle" x="1179.5" y="-325.5" font-family="Helvetica,sans-Serif" font-size="10.00"> </text>
<polyline fill="none" stroke="#666666" points="1104,-318.5 1255,-318.5 "/>
<text text-anchor="middle" x="1179.5" y="-306.5" font-family="Helvetica,sans-Serif" font-size="10.00"> </text>
</a>
</g>
</g>
<!-- Node22&#45;&gt;Node23 -->
<g id="edge22" class="edge">
<title>Node22&#45;&gt;Node23</title>
<path fill="none" stroke="#63b8ff" d="M1182.01,-395.07C1181.62,-385.61 1181.23,-376.14 1180.87,-367.59"/>
<polygon fill="none" stroke="#63b8ff" points="1178.53,-395.45 1182.44,-405.29 1185.52,-395.16 1178.53,-395.45"/>
</g>
<!-- Node24 -->
<g id="node24" class="node">
<title>Node24</title>
<g id="a_node24"><a xlink:href="classPonca_1_1KdTreeKNearestPointQuery.html" target="_top" xlink:title=" ">
<polygon fill="white" stroke="#bfbfbf" points="1096,-150.5 1096,-251.5 1263,-251.5 1263,-150.5 1096,-150.5"/>
<text text-anchor="start" x="1104" y="-239.5" font-family="Helvetica,sans-Serif" font-size="10.00">Ponca::KdTreeKNearestPoint</text>
<text text-anchor="middle" x="1179.5" y="-228.5" font-family="Helvetica,sans-Serif" font-size="10.00">Query&lt; DataPoint &gt;</text>
<polyline fill="none" stroke="#bfbfbf" points="1096,-221.5 1263,-221.5 "/>
<text text-anchor="middle" x="1179.5" y="-209.5" font-family="Helvetica,sans-Serif" font-size="10.00"> </text>
<polyline fill="none" stroke="#bfbfbf" points="1096,-202.5 1263,-202.5 "/>
<text text-anchor="start" x="1104" y="-190.5" font-family="Helvetica,sans-Serif" font-size="10.00">+ KdTreeKNearestPointQuery()</text>
<text text-anchor="start" x="1104" y="-179.5" font-family="Helvetica,sans-Serif" font-size="10.00">+ begin()</text>
<text text-anchor="start" x="1104" y="-168.5" font-family="Helvetica,sans-Serif" font-size="10.00">+ end()</text>
<text text-anchor="start" x="1104" y="-157.5" font-family="Helvetica,sans-Serif" font-size="10.00"># search()</text>
</a>
</g>
</g>
<!-- Node23&#45;&gt;Node24 -->
<g id="edge23" class="edge">
<title>Node23&#45;&gt;Node24</title>
<path fill="none" stroke="#63b8ff" d="M1179.5,-289.1C1179.5,-277.21 1179.5,-264.21 1179.5,-251.98"/>
<polygon fill="none" stroke="#63b8ff" points="1176,-289.23 1179.5,-299.23 1183,-289.23 1176,-289.23"/>
</g>
<!-- Node26 -->
<g id="node26" class="node">
<title>Node26</title>
<g id="a_node26"><a xlink:href="group__spatialpartitioning.html#structPonca_1_1NearestPointQuery" target="_top" xlink:title="Base Query class combining QueryInputIsPosition and QueryOutputIsNearest.">
<polygon fill="white" stroke="#666666" points="1288.5,-299.5 1288.5,-367.5 1432.5,-367.5 1432.5,-299.5 1288.5,-299.5"/>
<text text-anchor="start" x="1296.5" y="-355.5" font-family="Helvetica,sans-Serif" font-size="10.00">Ponca::NearestPointQuery</text>
<text text-anchor="middle" x="1360.5" y="-344.5" font-family="Helvetica,sans-Serif" font-size="10.00">&lt; DataPoint &gt;</text>
<polyline fill="none" stroke="#666666" points="1288.5,-337.5 1432.5,-337.5 "/>
<text text-anchor="middle" x="1360.5" y="-325.5" font-family="Helvetica,sans-Serif" font-size="10.00"> </text>
<polyline fill="none" stroke="#666666" points="1288.5,-318.5 1432.5,-318.5 "/>
<text text-anchor="middle" x="1360.5" y="-306.5" font-family="Helvetica,sans-Serif" font-size="10.00"> </text>
</a>
</g>
</g>
<!-- Node25&#45;&gt;Node26 -->
<g id="edge25" class="edge">
<title>Node25&#45;&gt;Node26</title>
<path fill="none" stroke="#63b8ff" d="M1356.48,-395.07C1357.11,-385.61 1357.74,-376.14 1358.3,-367.59"/>
<polygon fill="none" stroke="#63b8ff" points="1352.97,-395.08 1355.8,-405.29 1359.95,-395.55 1352.97,-395.08"/>
</g>
<!-- Node27 -->
<g id="node27" class="node">
<title>Node27</title>
<g id="a_node27"><a xlink:href="classPonca_1_1KdTreeNearestPointQuery.html" target="_top" xlink:title=" ">
<polygon fill="white" stroke="#bfbfbf" points="1281,-150.5 1281,-251.5 1442,-251.5 1442,-150.5 1281,-150.5"/>
<text text-anchor="start" x="1289" y="-239.5" font-family="Helvetica,sans-Serif" font-size="10.00">Ponca::KdTreeNearestPoint</text>
<text text-anchor="middle" x="1361.5" y="-228.5" font-family="Helvetica,sans-Serif" font-size="10.00">Query&lt; DataPoint &gt;</text>
<polyline fill="none" stroke="#bfbfbf" points="1281,-221.5 1442,-221.5 "/>
<text text-anchor="middle" x="1361.5" y="-209.5" font-family="Helvetica,sans-Serif" font-size="10.00"> </text>
<polyline fill="none" stroke="#bfbfbf" points="1281,-202.5 1442,-202.5 "/>
<text text-anchor="start" x="1289" y="-190.5" font-family="Helvetica,sans-Serif" font-size="10.00">+ KdTreeNearestPointQuery()</text>
<text text-anchor="start" x="1289" y="-179.5" font-family="Helvetica,sans-Serif" font-size="10.00">+ begin()</text>
<text text-anchor="start" x="1289" y="-168.5" font-family="Helvetica,sans-Serif" font-size="10.00">+ end()</text>
<text text-anchor="start" x="1289" y="-157.5" font-family="Helvetica,sans-Serif" font-size="10.00"># search()</text>
</a>
</g>
</g>
<!-- Node26&#45;&gt;Node27 -->
<g id="edge26" class="edge">
<title>Node26&#45;&gt;Node27</title>
<path fill="none" stroke="#63b8ff" d="M1360.83,-289.1C1360.92,-277.21 1361.02,-264.21 1361.12,-251.98"/>
<polygon fill="none" stroke="#63b8ff" points="1357.33,-289.21 1360.75,-299.23 1364.33,-289.26 1357.33,-289.21"/>
</g>
<!-- Node29 -->
<g id="node29" class="node">
<title>Node29</title>
<g id="a_node29"><a xlink:href="group__spatialpartitioning.html#structPonca_1_1RangePointQuery" target="_top" xlink:title="Base Query class combining QueryInputIsPosition and QueryOutputIsRange.">
<polygon fill="white" stroke="#666666" points="1473,-299.5 1473,-367.5 1610,-367.5 1610,-299.5 1473,-299.5"/>
<text text-anchor="start" x="1481" y="-355.5" font-family="Helvetica,sans-Serif" font-size="10.00">Ponca::RangePointQuery</text>
<text text-anchor="middle" x="1541.5" y="-344.5" font-family="Helvetica,sans-Serif" font-size="10.00">&lt; DataPoint &gt;</text>
<polyline fill="none" stroke="#666666" points="1473,-337.5 1610,-337.5 "/>
<text text-anchor="middle" x="1541.5" y="-325.5" font-family="Helvetica,sans-Serif" font-size="10.00"> </text>
<polyline fill="none" stroke="#666666" points="1473,-318.5 1610,-318.5 "/>
<text text-anchor="middle" x="1541.5" y="-306.5" font-family="Helvetica,sans-Serif" font-size="10.00"> </text>
</a>
</g>
</g>
<!-- Node28&#45;&gt;Node29 -->
<g id="edge28" class="edge">
<title>Node28&#45;&gt;Node29</title>
<path fill="none" stroke="#63b8ff" d="M1535.97,-395.07C1536.83,-385.61 1537.7,-376.14 1538.48,-367.59"/>
<polygon fill="none" stroke="#63b8ff" points="1532.46,-395.02 1535.04,-405.29 1539.43,-395.65 1532.46,-395.02"/>
</g>
<!-- Node30 -->
<g id="node30" class="node">
<title>Node30</title>
<g id="a_node30"><a xlink:href="classPonca_1_1KdTreeRangePointQuery.html" target="_top" xlink:title=" ">
<polygon fill="white" stroke="#bfbfbf" points="1460.5,-150.5 1460.5,-251.5 1630.5,-251.5 1630.5,-150.5 1460.5,-150.5"/>
<text text-anchor="start" x="1468.5" y="-239.5" font-family="Helvetica,sans-Serif" font-size="10.00">Ponca::KdTreeRangePointQuery</text>
<text text-anchor="middle" x="1545.5" y="-228.5" font-family="Helvetica,sans-Serif" font-size="10.00">&lt; DataPoint &gt;</text>
<polyline fill="none" stroke="#bfbfbf" points="1460.5,-221.5 1630.5,-221.5 "/>
<text text-anchor="start" x="1468.5" y="-209.5" font-family="Helvetica,sans-Serif" font-size="10.00"># Iterator</text>
<polyline fill="none" stroke="#bfbfbf" points="1460.5,-202.5 1630.5,-202.5 "/>
<text text-anchor="start" x="1468.5" y="-190.5" font-family="Helvetica,sans-Serif" font-size="10.00">+ KdTreeRangePointQuery()</text>
<text text-anchor="start" x="1468.5" y="-179.5" font-family="Helvetica,sans-Serif" font-size="10.00">+ begin()</text>
<text text-anchor="start" x="1468.5" y="-168.5" font-family="Helvetica,sans-Serif" font-size="10.00">+ end()</text>
<text text-anchor="start" x="1468.5" y="-157.5" font-family="Helvetica,sans-Serif" font-size="10.00"># advance()</text>
</a>
</g>
</g>
<!-- Node29&#45;&gt;Node30 -->
<g id="edge29" class="edge">
<title>Node29&#45;&gt;Node30</title>
<path fill="none" stroke="#63b8ff" d="M1542.83,-289.1C1543.19,-277.21 1543.59,-264.21 1543.97,-251.98"/>
<polygon fill="none" stroke="#63b8ff" points="1539.33,-289.13 1542.52,-299.23 1546.32,-289.34 1539.33,-289.13"/>
</g>
</g>
</svg>
        <g id="navigator" transform="translate(0 0)" fill="#404254">
                <rect fill="#f2f5e9" fill-opacity="0.5" stroke="#606060" stroke-width=".5" x="0" y="0" width="60" height="60"/>
                <use id="zoomplus" xlink:href="#zoomPlus" x="17" y="9" onmousedown="handleZoom(evt,'in')"/>
                <use id="zoomminus" xlink:href="#zoomMin" x="42" y="9" onmousedown="handleZoom(evt,'out')"/>
                <use id="reset" xlink:href="#resetDef" x="30" y="36" onmousedown="handleReset()"/>
                <g id="arrowUp" xlink:href="#dirArrow" transform="translate(30 24)" onmousedown="handlePan(0,-1)">
                  <use xlink:href="#rim" fill="#404040">
                        <set attributeName="fill" to="#808080" begin="arrowUp.mouseover" end="arrowUp.mouseout"/>
                  </use>
                  <path fill="none" stroke="white" stroke-width="1.5" d="M0,-3.0v7 M-2.5,-0.5L0,-3.0L2.5,-0.5"/>
                </g>
                <g id="arrowRight" xlink:href="#dirArrow" transform="rotate(90) translate(36 -43)" onmousedown="handlePan(1,0)">
                  <use xlink:href="#rim" fill="#404040">
                        <set attributeName="fill" to="#808080" begin="arrowRight.mouseover" end="arrowRight.mouseout"/>
                  </use>
                  <path fill="none" stroke="white" stroke-width="1.5" d="M0,-3.0v7 M-2.5,-0.5L0,-3.0L2.5,-0.5"/>
                </g>
                <g id="arrowDown" xlink:href="#dirArrow" transform="rotate(180) translate(-30 -48)" onmousedown="handlePan(0,1)">
                  <use xlink:href="#rim" fill="#404040">
                        <set attributeName="fill" to="#808080" begin="arrowDown.mouseover" end="arrowDown.mouseout"/>
                  </use>
                  <path fill="none" stroke="white" stroke-width="1.5" d="M0,-3.0v7 M-2.5,-0.5L0,-3.0L2.5,-0.5"/>
                </g>
                <g id="arrowLeft" xlink:href="#dirArrow" transform="rotate(270) translate(-36 17)" onmousedown="handlePan(-1,0)">
                  <use xlink:href="#rim" fill="#404040">
                        <set attributeName="fill" to="#808080" begin="arrowLeft.mouseover" end="arrowLeft.mouseout"/>
                  </use>
                  <path fill="none" stroke="white" stroke-width="1.5" d="M0,-3.0v7 M-2.5,-0.5L0,-3.0L2.5,-0.5"/>
                </g>
        </g>
        <svg viewBox="0 0 15 15" width="100%" height="30px" preserveAspectRatio="xMaxYMin meet">
         <g id="arrow_out" transform="scale(0.3 0.3)">
          <a xlink:href="structPonca_1_1QueryInput__inherit__graph_org.svg" target="_base">
           <rect id="button" ry="5" rx="5" y="6" x="6" height="38" width="38"
                fill="#f2f5e9" fill-opacity="0.5" stroke="#606060" stroke-width="1.0"/>
           <path id="arrow"
             d="M 11.500037,31.436501 C 11.940474,20.09759 22.043105,11.32322 32.158766,21.979434 L 37.068811,17.246167 C 37.068811,17.246167 37.088388,32 37.088388,32 L 22.160133,31.978069 C 22.160133,31.978069 26.997745,27.140456 26.997745,27.140456 C 18.528582,18.264221 13.291696,25.230495 11.500037,31.436501 z"
             style="fill:#404040;"/>
          </a>
         </g>
        </svg>
</svg>
