<?xml version="1.0" encoding="UTF-8" standalone="no"?>
<!DOCTYPE svg PUBLIC "-//W3C//DTD SVG 1.1//EN"
 "http://www.w3.org/Graphics/SVG/1.1/DTD/svg11.dtd">
<!-- Generated by graphviz version 2.43.0 (0)
 -->
<!-- Title: Ponca::RangeIndexQuery&lt; Index, Scalar &gt; Pages: 1 -->
<!--zoomable 805 -->

<svg id="main" version="1.1" xmlns="http://www.w3.org/2000/svg" xmlns:xlink="http://www.w3.org/1999/xlink" xml:space="preserve" onload="init(evt)">
<style type="text/css"><![CDATA[
.node, .edge {opacity: 0.7;}
.node.selected, .edge.selected {opacity: 1;}
.edge:hover path { stroke: red; }
.edge:hover polygon { stroke: red; fill: red; }
]]></style>

<defs>
  <circle id="rim" cx="0" cy="0" r="7"/>
  <circle id="rim2" cx="0" cy="0" r="3.5"/>
  <g id="zoomPlus">
    <use xlink:href="#rim" fill="#404040"><set attributeName="fill" to="#808080" begin="zoomplus.mouseover" end="zoomplus.mouseout"/></use>
    <path d="M-4,0h8M0,-4v8" fill="none" stroke="white" stroke-width="1.5" pointer-events="none"/>
  </g>
  <g id="zoomMin">
    <use xlink:href="#rim" fill="#404040"><set attributeName="fill" to="#808080" begin="zoomminus.mouseover" end="zoomminus.mouseout"/></use>
    <path d="M-4,0h8" fill="none" stroke="white" stroke-width="1.5" pointer-events="none"/>
  </g>
  <g id="arrowUp" transform="translate(30 24)">
    <use xlink:href="#rim"/>
    <path pointer-events="none" fill="none" stroke="white" stroke-width="1.5" d="M0,-3.0v7 M-2.5,-0.5L0,-3.0L2.5,-0.5"/>
  </g>
  <g id="arrowRight" transform="rotate(90) translate(36 -43)">
    <use xlink:href="#rim"/>
    <path pointer-events="none" fill="none" stroke="white" stroke-width="1.5" d="M0,-3.0v7 M-2.5,-0.5L0,-3.0L2.5,-0.5"/>
  </g>
  <g id="arrowDown" transform="rotate(180) translate(-30 -48)">
    <use xlink:href="#rim"/>
    <path pointer-events="none" fill="none" stroke="white" stroke-width="1.5" d="M0,-3.0v7 M-2.5,-0.5L0,-3.0L2.5,-0.5"/>
  </g>
  <g id="arrowLeft" transform="rotate(270) translate(-36 17)">
    <use xlink:href="#rim"/>
    <path pointer-events="none" fill="none" stroke="white" stroke-width="1.5" d="M0,-3.0v7 M-2.5,-0.5L0,-3.0L2.5,-0.5"/>
  </g>
  <g id="resetDef">
    <use xlink:href="#rim2" fill="#404040"><set attributeName="fill" to="#808080" begin="reset.mouseover" end="reset.mouseout"/></use>
  </g>
</defs>
<script type="application/ecmascript">
var viewWidth = 474;
var viewHeight = 805;
var sectionId = 'dynsection-24';
</script>
<script type="application/ecmascript" xlink:href="svg.min.js"/>
<svg id="graph" class="graph">
<g id="viewport">
<title>Ponca::RangeIndexQuery&lt; Index, Scalar &gt;</title>
<!-- Node1 -->
<g id="Node000001" class="node">
<title>Node1</title>
<g id="a_Node000001"><a xlink:title="Base Query class combining QueryInputIsIndex and QueryOutputIsRange.">
<polygon fill="#999999" stroke="transparent" points="299,-60 166,-60 166,0 299,0 299,-60"/>
<text text-anchor="start" x="171.5" y="-48" font-family="Helvetica,sans-Serif" font-size="10.00">Ponca::RangeIndexQuery</text>
<text text-anchor="start" x="190" y="-37" font-family="Helvetica,sans-Serif" font-size="10.00">&lt; Index, Scalar &gt;</text>
<text text-anchor="start" x="231" y="-22" font-family="Helvetica,sans-Serif" font-size="10.00"> </text>
<text text-anchor="start" x="231" y="-7" font-family="Helvetica,sans-Serif" font-size="10.00"> </text>
<polygon fill="#666666" stroke="#666666" points="166.5,-32 166.5,-32 299.5,-32 299.5,-32 166.5,-32"/>
<polygon fill="#666666" stroke="#666666" points="166.5,-17 166.5,-17 299.5,-17 299.5,-17 166.5,-17"/>
<polygon fill="none" stroke="#666666" points="166,0 166,-60 299,-60 299,0 166,0"/>
</a>
</g>
</g>
<!-- Node2 -->
<g id="Node000002" class="node">
<title>Node2</title>
<g id="a_Node000002"><a xlink:href="group__spatialpartitioning.html" target="_top" xlink:title=" ">
<polygon fill="white" stroke="transparent" points="314.5,-213 150.5,-213 150.5,-97 314.5,-97 314.5,-213"/>
<text text-anchor="start" x="155.5" y="-201" font-family="Helvetica,sans-Serif" font-size="10.00">Ponca::Query&lt; QueryInput</text>
<text text-anchor="start" x="155.5" y="-190" font-family="Helvetica,sans-Serif" font-size="10.00">IsIndex&lt; Index &gt;, QueryOutput</text>
<text text-anchor="start" x="164.5" y="-179" font-family="Helvetica,sans-Serif" font-size="10.00">IsRange&lt; Index, Scalar &gt; &gt;</text>
<text text-anchor="start" x="230.5" y="-164" font-family="Helvetica,sans-Serif" font-size="10.00"> </text>
<text text-anchor="start" x="176" y="-149" font-family="Helvetica,sans-Serif" font-size="10.00">+</text>
<text text-anchor="start" x="210.5" y="-149" font-family="Helvetica,sans-Serif" font-size="10.00">Query()</text>
<text text-anchor="start" x="176" y="-134" font-family="Helvetica,sans-Serif" font-size="10.00">+</text>
<text text-anchor="start" x="210.5" y="-134" font-family="Helvetica,sans-Serif" font-size="10.00">Query()</text>
<text text-anchor="start" x="176" y="-119" font-family="Helvetica,sans-Serif" font-size="10.00">+</text>
<text text-anchor="start" x="210.5" y="-119" font-family="Helvetica,sans-Serif" font-size="10.00">operator()()</text>
<text text-anchor="start" x="176" y="-104" font-family="Helvetica,sans-Serif" font-size="10.00">+</text>
<text text-anchor="start" x="210.5" y="-104" font-family="Helvetica,sans-Serif" font-size="10.00">operator()()</text>
<polygon fill="#666666" stroke="#666666" points="150.5,-174 150.5,-174 314.5,-174 314.5,-174 150.5,-174"/>
<polygon fill="#666666" stroke="#666666" points="150.5,-159 150.5,-159 314.5,-159 314.5,-159 150.5,-159"/>
<polygon fill="none" stroke="#666666" points="150.5,-97 150.5,-213 314.5,-213 314.5,-97 150.5,-97"/>
</a>
</g>
</g>
<!-- Node2&#45;&gt;Node1 -->
<g id="edge1_Node000001_Node000002" class="edge">
<title>Node2&#45;&gt;Node1</title>
<g id="a_edge1_Node000001_Node000002"><a xlink:title=" ">
<path fill="none" stroke="#63b8ff" d="M232.5,-86.71C232.5,-77.42 232.5,-68.31 232.5,-60.23"/>
<polygon fill="none" stroke="#63b8ff" points="229,-86.82 232.5,-96.82 236,-86.82 229,-86.82"/>
</a>
</g>
</g>
<!-- Node3 -->
<g id="Node000003" class="node">
<title>Node3</title>
<g id="a_Node000003"><a xlink:href="group__spatialpartitioning.html#structPonca_1_1QueryInputIsIndex" target="_top" xlink:title="Extension of QueryInput that handles an index based search, in a partitioning structure.">
<polygon fill="white" stroke="transparent" points="135,-417 0,-417 0,-312 135,-312 135,-417"/>
<text text-anchor="start" x="5.5" y="-404.5" font-family="Helvetica,sans-Serif" font-size="10.00">Ponca::QueryInputIsIndex</text>
<text text-anchor="start" x="43" y="-393.5" font-family="Helvetica,sans-Serif" font-size="10.00">&lt; Index &gt;</text>
<text text-anchor="start" x="66" y="-378.5" font-family="Helvetica,sans-Serif" font-size="10.00"> </text>
<text text-anchor="start" x="8.5" y="-363.5" font-family="Helvetica,sans-Serif" font-size="10.00">+</text>
<text text-anchor="start" x="25.5" y="-363.5" font-family="Helvetica,sans-Serif" font-size="10.00">QueryInputIsIndex()</text>
<text text-anchor="start" x="8.5" y="-348.5" font-family="Helvetica,sans-Serif" font-size="10.00">+</text>
<text text-anchor="start" x="25.5" y="-348.5" font-family="Helvetica,sans-Serif" font-size="10.00">operator()()</text>
<text text-anchor="start" x="8.5" y="-333.5" font-family="Helvetica,sans-Serif" font-size="10.00">#</text>
<text text-anchor="start" x="25.5" y="-333.5" font-family="Helvetica,sans-Serif" font-size="10.00">skipIndexFunctor()</text>
<text text-anchor="start" x="8.5" y="-318.5" font-family="Helvetica,sans-Serif" font-size="10.00">#</text>
<text text-anchor="start" x="25.5" y="-318.5" font-family="Helvetica,sans-Serif" font-size="10.00">getInputPosition()</text>
<polygon fill="#666666" stroke="#666666" points="0.5,-388.5 0.5,-388.5 135.5,-388.5 135.5,-388.5 0.5,-388.5"/>
<polygon fill="#666666" stroke="#666666" points="0.5,-373.5 0.5,-373.5 135.5,-373.5 135.5,-373.5 0.5,-373.5"/>
<polygon fill="none" stroke="#666666" points="0,-312 0,-417 135,-417 135,-312 0,-312"/>
</a>
</g>
</g>
<!-- Node3&#45;&gt;Node2 -->
<g id="edge2_Node000002_Node000003" class="edge">
<title>Node3&#45;&gt;Node2</title>
<g id="a_edge2_Node000002_Node000003"><a xlink:title=" ">
<path fill="none" stroke="#63b8ff" d="M114.78,-304.04C137.5,-275.47 164.6,-241.4 187.06,-213.14"/>
<polygon fill="none" stroke="#63b8ff" points="111.98,-301.94 108.5,-311.94 117.46,-306.29 111.98,-301.94"/>
</a>
</g>
</g>
<!-- Node4 -->
<g id="Node000004" class="node">
<title>Node4</title>
<g id="a_Node000004"><a xlink:href="group__spatialpartitioning.html" target="_top" xlink:title=" ">
<polygon fill="white" stroke="transparent" points="121.5,-574 13.5,-574 13.5,-484 121.5,-484 121.5,-574"/>
<text text-anchor="start" x="18.5" y="-562" font-family="Helvetica,sans-Serif" font-size="10.00">Ponca::QueryInput&lt;</text>
<text text-anchor="start" x="46.5" y="-551" font-family="Helvetica,sans-Serif" font-size="10.00"> Index &gt;</text>
<text text-anchor="start" x="65.5" y="-536" font-family="Helvetica,sans-Serif" font-size="10.00"> </text>
<text text-anchor="start" x="23.5" y="-521" font-family="Helvetica,sans-Serif" font-size="10.00">+</text>
<text text-anchor="start" x="42.5" y="-521" font-family="Helvetica,sans-Serif" font-size="10.00">QueryInput()</text>
<text text-anchor="start" x="23.5" y="-506" font-family="Helvetica,sans-Serif" font-size="10.00">+</text>
<text text-anchor="start" x="42.5" y="-506" font-family="Helvetica,sans-Serif" font-size="10.00">input()</text>
<text text-anchor="start" x="23.5" y="-491" font-family="Helvetica,sans-Serif" font-size="10.00">#</text>
<text text-anchor="start" x="42.5" y="-491" font-family="Helvetica,sans-Serif" font-size="10.00">setInput()</text>
<polygon fill="#666666" stroke="#666666" points="13.5,-546 13.5,-546 121.5,-546 121.5,-546 13.5,-546"/>
<polygon fill="#666666" stroke="#666666" points="13.5,-531 13.5,-531 121.5,-531 121.5,-531 13.5,-531"/>
<polygon fill="none" stroke="#666666" points="13.5,-484 13.5,-574 121.5,-574 121.5,-484 13.5,-484"/>
</a>
</g>
</g>
<!-- Node4&#45;&gt;Node3 -->
<g id="edge3_Node000003_Node000004" class="edge">
<title>Node4&#45;&gt;Node3</title>
<g id="a_edge3_Node000003_Node000004"><a xlink:title=" ">
<path fill="none" stroke="#63b8ff" d="M67.5,-473.43C67.5,-455.22 67.5,-435.01 67.5,-417.04"/>
<polygon fill="none" stroke="#63b8ff" points="64,-473.6 67.5,-483.6 71,-473.6 64,-473.6"/>
</a>
</g>
</g>
<!-- Node5 -->
<g id="Node000005" class="node">
<title>Node5</title>
<g id="a_Node000005"><a xlink:href="group__spatialpartitioning.html#structPonca_1_1QueryInputBase" target="_top" xlink:title="Base class for queries input type.">
<polygon fill="white" stroke="transparent" points="125.5,-797 1.5,-797 1.5,-748 125.5,-748 125.5,-797"/>
<text text-anchor="start" x="6.5" y="-784.5" font-family="Helvetica,sans-Serif" font-size="10.00">Ponca::QueryInputBase</text>
<text text-anchor="start" x="61.5" y="-769.5" font-family="Helvetica,sans-Serif" font-size="10.00"> </text>
<text text-anchor="start" x="61.5" y="-754.5" font-family="Helvetica,sans-Serif" font-size="10.00"> </text>
<polygon fill="#666666" stroke="#666666" points="1.5,-779.5 1.5,-779.5 125.5,-779.5 125.5,-779.5 1.5,-779.5"/>
<polygon fill="#666666" stroke="#666666" points="1.5,-764.5 1.5,-764.5 125.5,-764.5 125.5,-764.5 1.5,-764.5"/>
<polygon fill="none" stroke="#666666" points="1.5,-748 1.5,-797 125.5,-797 125.5,-748 1.5,-748"/>
</a>
</g>
</g>
<!-- Node5&#45;&gt;Node4 -->
<g id="edge4_Node000004_Node000005" class="edge">
<title>Node5&#45;&gt;Node4</title>
<g id="a_edge4_Node000004_Node000005"><a xlink:title=" ">
<path fill="none" stroke="#63b8ff" d="M64.06,-737.74C64.77,-694.97 65.99,-621.19 66.77,-574.04"/>
<polygon fill="none" stroke="#63b8ff" points="60.56,-737.85 63.89,-747.9 67.56,-737.96 60.56,-737.85"/>
</a>
</g>
</g>
<!-- Node6 -->
<g id="Node000006" class="node">
<title>Node6</title>
<g id="a_Node000006"><a xlink:href="group__spatialpartitioning.html#structPonca_1_1QueryInput" target="_top" xlink:title="Base class for Query input type.">
<polygon fill="white" stroke="transparent" points="187.5,-711 79.5,-711 79.5,-621 187.5,-621 187.5,-711"/>
<text text-anchor="start" x="84.5" y="-699" font-family="Helvetica,sans-Serif" font-size="10.00">Ponca::QueryInput&lt;</text>
<text text-anchor="start" x="100" y="-688" font-family="Helvetica,sans-Serif" font-size="10.00"> InputType_ &gt;</text>
<text text-anchor="start" x="131.5" y="-673" font-family="Helvetica,sans-Serif" font-size="10.00"> </text>
<text text-anchor="start" x="89.5" y="-658" font-family="Helvetica,sans-Serif" font-size="10.00">+</text>
<text text-anchor="start" x="108.5" y="-658" font-family="Helvetica,sans-Serif" font-size="10.00">QueryInput()</text>
<text text-anchor="start" x="89.5" y="-643" font-family="Helvetica,sans-Serif" font-size="10.00">+</text>
<text text-anchor="start" x="108.5" y="-643" font-family="Helvetica,sans-Serif" font-size="10.00">input()</text>
<text text-anchor="start" x="89.5" y="-628" font-family="Helvetica,sans-Serif" font-size="10.00">#</text>
<text text-anchor="start" x="108.5" y="-628" font-family="Helvetica,sans-Serif" font-size="10.00">setInput()</text>
<polygon fill="#666666" stroke="#666666" points="79.5,-683 79.5,-683 187.5,-683 187.5,-683 79.5,-683"/>
<polygon fill="#666666" stroke="#666666" points="79.5,-668 79.5,-668 187.5,-668 187.5,-668 79.5,-668"/>
<polygon fill="none" stroke="#666666" points="79.5,-621 79.5,-711 187.5,-711 187.5,-621 79.5,-621"/>
</a>
</g>
</g>
<!-- Node5&#45;&gt;Node6 -->
<g id="edge6_Node000006_Node000005" class="edge">
<title>Node5&#45;&gt;Node6</title>
<g id="a_edge6_Node000006_Node000005"><a xlink:title=" ">
<path fill="none" stroke="#63b8ff" d="M85.1,-739.26C91.04,-730.39 97.59,-720.6 103.91,-711.18"/>
<polygon fill="none" stroke="#63b8ff" points="82.04,-737.53 79.38,-747.79 87.86,-741.43 82.04,-737.53"/>
</a>
</g>
</g>
<!-- Node6&#45;&gt;Node4 -->
<g id="edge5_Node000004_Node000006" class="edge">
<title>Node6&#45;&gt;Node4</title>
<g id="a_edge5_Node000004_Node000006"><a xlink:title=" ">
<path fill="none" stroke="orange" d="M107.35,-611.52C101.32,-599.19 94.97,-586.2 89.16,-574.3"/>
<polygon fill="orange" stroke="orange" points="104.35,-613.35 111.89,-620.8 110.64,-610.27 104.35,-613.35"/>
</a>
</g>
<text text-anchor="middle" x="129" y="-595" font-family="Helvetica,sans-Serif" font-size="10.00" fill="grey"> &lt; Index &gt;</text>
</g>
<!-- Node7 -->
<g id="Node000007" class="node">
<title>Node7</title>
<g id="a_Node000007"><a xlink:href="group__spatialpartitioning.html#structPonca_1_1QueryOutputIsRange" target="_top" xlink:title="Class to construct the range query output.">
<polygon fill="white" stroke="transparent" points="311.5,-447 153.5,-447 153.5,-282 311.5,-282 311.5,-447"/>
<text text-anchor="start" x="164" y="-434.5" font-family="Helvetica,sans-Serif" font-size="10.00">Ponca::QueryOutputIsRange</text>
<text text-anchor="start" x="189.5" y="-423.5" font-family="Helvetica,sans-Serif" font-size="10.00">&lt; Index, Scalar &gt;</text>
<text text-anchor="start" x="157.5" y="-408.5" font-family="Helvetica,sans-Serif" font-size="10.00">#</text>
<text text-anchor="start" x="170.5" y="-408.5" font-family="Helvetica,sans-Serif" font-size="10.00">m_squared_radius</text>
<text text-anchor="start" x="157.5" y="-393.5" font-family="Helvetica,sans-Serif" font-size="10.00">+</text>
<text text-anchor="start" x="170.5" y="-393.5" font-family="Helvetica,sans-Serif" font-size="10.00">QueryOutputIsRange()</text>
<text text-anchor="start" x="157.5" y="-378.5" font-family="Helvetica,sans-Serif" font-size="10.00">+</text>
<text text-anchor="start" x="170.5" y="-378.5" font-family="Helvetica,sans-Serif" font-size="10.00">operator()()</text>
<text text-anchor="start" x="157.5" y="-363.5" font-family="Helvetica,sans-Serif" font-size="10.00">+</text>
<text text-anchor="start" x="170.5" y="-363.5" font-family="Helvetica,sans-Serif" font-size="10.00">radius()</text>
<text text-anchor="start" x="157.5" y="-348.5" font-family="Helvetica,sans-Serif" font-size="10.00">+</text>
<text text-anchor="start" x="170.5" y="-348.5" font-family="Helvetica,sans-Serif" font-size="10.00">squaredRadius()</text>
<text text-anchor="start" x="157.5" y="-333.5" font-family="Helvetica,sans-Serif" font-size="10.00">+</text>
<text text-anchor="start" x="170.5" y="-333.5" font-family="Helvetica,sans-Serif" font-size="10.00">setRadius()</text>
<text text-anchor="start" x="157.5" y="-318.5" font-family="Helvetica,sans-Serif" font-size="10.00">+</text>
<text text-anchor="start" x="170.5" y="-318.5" font-family="Helvetica,sans-Serif" font-size="10.00">setSquaredRadius()</text>
<text text-anchor="start" x="157.5" y="-303.5" font-family="Helvetica,sans-Serif" font-size="10.00">#</text>
<text text-anchor="start" x="170.5" y="-303.5" font-family="Helvetica,sans-Serif" font-size="10.00">reset()</text>
<text text-anchor="start" x="157.5" y="-288.5" font-family="Helvetica,sans-Serif" font-size="10.00">#</text>
<text text-anchor="start" x="170.5" y="-288.5" font-family="Helvetica,sans-Serif" font-size="10.00">descentDistanceThreshold()</text>
<polygon fill="#666666" stroke="#666666" points="153.5,-418.5 153.5,-418.5 311.5,-418.5 311.5,-418.5 153.5,-418.5"/>
<polygon fill="#666666" stroke="#666666" points="153.5,-403.5 153.5,-403.5 168.5,-403.5 168.5,-403.5 153.5,-403.5"/>
<polygon fill="#666666" stroke="#666666" points="168.5,-403.5 168.5,-403.5 311.5,-403.5 311.5,-403.5 168.5,-403.5"/>
<polygon fill="none" stroke="#666666" points="153.5,-282 153.5,-447 311.5,-447 311.5,-282 153.5,-282"/>
</a>
</g>
</g>
<!-- Node7&#45;&gt;Node2 -->
<g id="edge7_Node000002_Node000007" class="edge">
<title>Node7&#45;&gt;Node2</title>
<g id="a_edge7_Node000002_Node000007"><a xlink:title=" ">
<path fill="none" stroke="#63b8ff" d="M232.5,-271.78C232.5,-251.89 232.5,-231.41 232.5,-213.3"/>
<polygon fill="none" stroke="#63b8ff" points="229,-271.79 232.5,-281.79 236,-271.79 229,-271.79"/>
</a>
</g>
</g>
<!-- Node8 -->
<g id="Node000008" class="node">
<title>Node8</title>
<g id="a_Node000008"><a xlink:href="group__spatialpartitioning.html#structPonca_1_1QueryOutputBase" target="_top" xlink:title="Base class for queries output types.">
<polygon fill="white" stroke="transparent" points="298.5,-553.5 166.5,-553.5 166.5,-504.5 298.5,-504.5 298.5,-553.5"/>
<text text-anchor="start" x="171.5" y="-541" font-family="Helvetica,sans-Serif" font-size="10.00">Ponca::QueryOutputBase</text>
<text text-anchor="start" x="230.5" y="-526" font-family="Helvetica,sans-Serif" font-size="10.00"> </text>
<text text-anchor="start" x="230.5" y="-511" font-family="Helvetica,sans-Serif" font-size="10.00"> </text>
<polygon fill="#666666" stroke="#666666" points="166.5,-536 166.5,-536 298.5,-536 298.5,-536 166.5,-536"/>
<polygon fill="#666666" stroke="#666666" points="166.5,-521 166.5,-521 298.5,-521 298.5,-521 166.5,-521"/>
<polygon fill="none" stroke="#666666" points="166.5,-504.5 166.5,-553.5 298.5,-553.5 298.5,-504.5 166.5,-504.5"/>
</a>
</g>
</g>
<!-- Node8&#45;&gt;Node7 -->
<g id="edge8_Node000007_Node000008" class="edge">
<title>Node8&#45;&gt;Node7</title>
<g id="a_edge8_Node000007_Node000008"><a xlink:title=" ">
<path fill="none" stroke="#63b8ff" d="M232.5,-493.98C232.5,-480.22 232.5,-463.68 232.5,-447.13"/>
<polygon fill="none" stroke="#63b8ff" points="229,-494.37 232.5,-504.37 236,-494.37 229,-494.37"/>
</a>
</g>
</g>
<!-- Node9 -->
<g id="Node000009" class="node">
<title>Node9</title>
<g id="a_Node000009"><a xlink:href="group__spatialpartitioning.html#structPonca_1_1Query" target="_top" xlink:title="Composes the Query object depending on an input type and output type.">
<polygon fill="white" stroke="transparent" points="440,-417 329,-417 329,-312 440,-312 440,-417"/>
<text text-anchor="start" x="334.5" y="-404.5" font-family="Helvetica,sans-Serif" font-size="10.00">Ponca::Query&lt; Input</text>
<text text-anchor="start" x="354.5" y="-393.5" font-family="Helvetica,sans-Serif" font-size="10.00">_, Output_ &gt;</text>
<text text-anchor="start" x="383" y="-378.5" font-family="Helvetica,sans-Serif" font-size="10.00"> </text>
<text text-anchor="start" x="341.5" y="-363.5" font-family="Helvetica,sans-Serif" font-size="10.00">+</text>
<text text-anchor="start" x="362.5" y="-363.5" font-family="Helvetica,sans-Serif" font-size="10.00">Query()</text>
<text text-anchor="start" x="341.5" y="-348.5" font-family="Helvetica,sans-Serif" font-size="10.00">+</text>
<text text-anchor="start" x="362.5" y="-348.5" font-family="Helvetica,sans-Serif" font-size="10.00">Query()</text>
<text text-anchor="start" x="341.5" y="-333.5" font-family="Helvetica,sans-Serif" font-size="10.00">+</text>
<text text-anchor="start" x="362.5" y="-333.5" font-family="Helvetica,sans-Serif" font-size="10.00">operator()()</text>
<text text-anchor="start" x="341.5" y="-318.5" font-family="Helvetica,sans-Serif" font-size="10.00">+</text>
<text text-anchor="start" x="362.5" y="-318.5" font-family="Helvetica,sans-Serif" font-size="10.00">operator()()</text>
<polygon fill="#666666" stroke="#666666" points="329.5,-388.5 329.5,-388.5 440.5,-388.5 440.5,-388.5 329.5,-388.5"/>
<polygon fill="#666666" stroke="#666666" points="329.5,-373.5 329.5,-373.5 440.5,-373.5 440.5,-373.5 329.5,-373.5"/>
<polygon fill="none" stroke="#666666" points="329,-312 329,-417 440,-417 440,-312 329,-312"/>
</a>
</g>
</g>
<!-- Node9&#45;&gt;Node2 -->
<g id="edge9_Node000002_Node000009" class="edge">
<title>Node9&#45;&gt;Node2</title>
<g id="a_edge9_Node000002_Node000009"><a xlink:title=" ">
<path fill="none" stroke="orange" d="M340.68,-303.67C319.81,-275.18 294.97,-241.27 274.36,-213.14"/>
<polygon fill="orange" stroke="orange" points="338,-305.94 346.73,-311.94 343.65,-301.81 338,-305.94"/>
</a>
</g>
<text text-anchor="start" x="308.5" y="-256" font-family="Helvetica,sans-Serif" font-size="10.00" fill="grey"> &lt; QueryInputIsIndex</text>
<text text-anchor="start" x="308.5" y="-245" font-family="Helvetica,sans-Serif" font-size="10.00" fill="grey">&lt; Index &gt;, QueryOutputIsRange</text>
<text text-anchor="middle" x="387" y="-234" font-family="Helvetica,sans-Serif" font-size="10.00" fill="grey">&lt; Index, Scalar &gt; &gt;</text>
</g>
<!-- Node10 -->
<g id="Node000010" class="node">
<title>Node10</title>
<g id="a_Node000010"><a xlink:title=" ">
<polygon fill="white" stroke="transparent" points="381,-553.5 340,-553.5 340,-504.5 381,-504.5 381,-553.5"/>
<text text-anchor="start" x="345.5" y="-541" font-family="Helvetica,sans-Serif" font-size="10.00">Input_</text>
<text text-anchor="start" x="359" y="-526" font-family="Helvetica,sans-Serif" font-size="10.00"> </text>
<text text-anchor="start" x="359" y="-511" font-family="Helvetica,sans-Serif" font-size="10.00"> </text>
<polygon fill="#bfbfbf" stroke="#bfbfbf" points="340.5,-536 340.5,-536 381.5,-536 381.5,-536 340.5,-536"/>
<polygon fill="#bfbfbf" stroke="#bfbfbf" points="340.5,-521 340.5,-521 381.5,-521 381.5,-521 340.5,-521"/>
<polygon fill="none" stroke="#bfbfbf" points="340,-504.5 340,-553.5 381,-553.5 381,-504.5 340,-504.5"/>
</a>
</g>
</g>
<!-- Node10&#45;&gt;Node9 -->
<g id="edge10_Node000009_Node000010" class="edge">
<title>Node10&#45;&gt;Node9</title>
<g id="a_edge10_Node000009_Node000010"><a xlink:title=" ">
<path fill="none" stroke="#63b8ff" d="M365.47,-494.37C368.76,-472.04 373.16,-442.3 376.89,-417.01"/>
<polygon fill="none" stroke="#63b8ff" points="361.99,-493.97 363.99,-504.37 368.91,-494.99 361.99,-493.97"/>
</a>
</g>
</g>
<!-- Node11 -->
<g id="Node000011" class="node">
<title>Node11</title>
<g id="a_Node000011"><a xlink:title=" ">
<polygon fill="white" stroke="transparent" points="448,-553.5 399,-553.5 399,-504.5 448,-504.5 448,-553.5"/>
<text text-anchor="start" x="404.5" y="-541" font-family="Helvetica,sans-Serif" font-size="10.00">Output_</text>
<text text-anchor="start" x="422" y="-526" font-family="Helvetica,sans-Serif" font-size="10.00"> </text>
<text text-anchor="start" x="422" y="-511" font-family="Helvetica,sans-Serif" font-size="10.00"> </text>
<polygon fill="#bfbfbf" stroke="#bfbfbf" points="399.5,-536 399.5,-536 448.5,-536 448.5,-536 399.5,-536"/>
<polygon fill="#bfbfbf" stroke="#bfbfbf" points="399.5,-521 399.5,-521 448.5,-521 448.5,-521 399.5,-521"/>
<polygon fill="none" stroke="#bfbfbf" points="399,-504.5 399,-553.5 448,-553.5 448,-504.5 399,-504.5"/>
</a>
</g>
</g>
<!-- Node11&#45;&gt;Node9 -->
<g id="edge11_Node000009_Node000011" class="edge">
<title>Node11&#45;&gt;Node9</title>
<g id="a_edge11_Node000009_Node000011"><a xlink:title=" ">
<path fill="none" stroke="#63b8ff" d="M415.43,-494.37C410.07,-472.04 402.93,-442.3 396.86,-417.01"/>
<polygon fill="none" stroke="#63b8ff" points="412.09,-495.46 417.83,-504.37 418.9,-493.83 412.09,-495.46"/>
</a>
</g>
</g>
</g>
</svg>

<g id="navigator" transform="translate(0 0)" fill="#404254">
  <rect fill="#f2f5e9" fill-opacity="0.5" stroke="#606060" stroke-width=".5" x="0" y="0" width="60" height="60"/>
  <use id="zoomplus" xlink:href="#zoomPlus" x="17" y="9" onmousedown="handleZoom(evt,'in')"/>
  <use id="zoomminus" xlink:href="#zoomMin" x="42" y="9" onmousedown="handleZoom(evt,'out')"/>
  <use id="reset" xlink:href="#resetDef" x="30" y="36" onmousedown="handleReset()"/>
   <use id="arrowup" xlink:href="#arrowUp" x="0" y="0" onmousedown="handlePan(0,-1)"/>
  <use id="arrowright" xlink:href="#arrowRight" x="0" y="0" onmousedown="handlePan(1,0)"/>
  <use id="arrowdown" xlink:href="#arrowDown" x="0" y="0" onmousedown="handlePan(0,1)"/>
  <use id="arrowleft" xlink:href="#arrowLeft" x="0" y="0" onmousedown="handlePan(-1,0)"/>
</g>
<svg viewBox="0 0 15 15" width="100%" height="30px" preserveAspectRatio="xMaxYMin meet">
 <g id="arrow_out" transform="scale(0.3 0.3)">
  <a xlink:href="structPonca_1_1RangeIndexQuery__coll__graph_org.svg" target="_base">
   <rect id="button" ry="5" rx="5" y="6" x="6" height="38" width="38"
        fill="#f2f5e9" fill-opacity="0.5" stroke="#606060" stroke-width="1.0"/>
   <path id="arrow"
     d="M 11.500037,31.436501 C 11.940474,20.09759 22.043105,11.32322 32.158766,21.979434 L 37.068811,17.246167 C 37.068811,17.246167 37.088388,32 37.088388,32 L 22.160133,31.978069 C 22.160133,31.978069 26.997745,27.140456 26.997745,27.140456 C 18.528582,18.264221 13.291696,25.230495 11.500037,31.436501 z"
     style="fill:#404040;"/>
  </a>
 </g>
</svg>

<style type='text/css'>
<![CDATA[
[data-mouse-over-selected='false'] { opacity: 0.7; }
[data-mouse-over-selected='true']  { opacity: 1.0; }
]]>
</style>
<script type="application/ecmascript"><![CDATA[
document.addEventListener('DOMContentLoaded', (event) => {
  highlightEdges();
  highlightAdjacentNodes();
});
]]></script>
</svg>
