<?xml version="1.0" encoding="UTF-8" standalone="no"?>
<!DOCTYPE svg PUBLIC "-//W3C//DTD SVG 1.1//EN"
 "http://www.w3.org/Graphics/SVG/1.1/DTD/svg11.dtd">
<!-- Generated by graphviz version 2.43.0 (0)
 -->
<!-- Title: Ponca::QueryOutputIsKNearest&lt; Index, Scalar &gt; Pages: 1 -->
<svg width="734pt" height="963pt"
 viewBox="0.00 0.00 733.50 963.00" xmlns="http://www.w3.org/2000/svg" xmlns:xlink="http://www.w3.org/1999/xlink">
<g id="graph0" class="graph" transform="scale(1 1) rotate(0) translate(4 959)">
<title>Ponca::QueryOutputIsKNearest&lt; Index, Scalar &gt;</title>
<!-- Node1 -->
<g id="node1" class="node">
<title>Node1</title>
<g id="a_node1"><a xlink:title="Base class for knearest queries.">
<polygon fill="#999999" stroke="#666666" points="280.5,-769.5 280.5,-859.5 447.5,-859.5 447.5,-769.5 280.5,-769.5"/>
<text text-anchor="start" x="288.5" y="-847.5" font-family="Helvetica,sans-Serif" font-size="10.00">Ponca::QueryOutputIsKNearest</text>
<text text-anchor="middle" x="364" y="-836.5" font-family="Helvetica,sans-Serif" font-size="10.00">&lt; Index, Scalar &gt;</text>
<polyline fill="none" stroke="#666666" points="280.5,-829.5 447.5,-829.5 "/>
<text text-anchor="start" x="288.5" y="-817.5" font-family="Helvetica,sans-Serif" font-size="10.00"># m_queue</text>
<polyline fill="none" stroke="#666666" points="280.5,-810.5 447.5,-810.5 "/>
<text text-anchor="start" x="288.5" y="-798.5" font-family="Helvetica,sans-Serif" font-size="10.00">+ QueryOutputIsKNearest()</text>
<text text-anchor="start" x="288.5" y="-787.5" font-family="Helvetica,sans-Serif" font-size="10.00">+ queue()</text>
<text text-anchor="start" x="288.5" y="-776.5" font-family="Helvetica,sans-Serif" font-size="10.00"># reset()</text>
</a>
</g>
</g>
<!-- Node3 -->
<g id="node3" class="node">
<title>Node3</title>
<g id="a_node3"><a xlink:href="group__spatialpartitioning.html" target="_top" xlink:title=" ">
<polygon fill="white" stroke="#bfbfbf" points="0,-604 0,-694 170,-694 170,-604 0,-604"/>
<text text-anchor="start" x="8" y="-682" font-family="Helvetica,sans-Serif" font-size="10.00">Ponca::Query&lt; QueryInput</text>
<text text-anchor="start" x="8" y="-671" font-family="Helvetica,sans-Serif" font-size="10.00">IsIndex&lt; Index &gt;, QueryOutput</text>
<text text-anchor="middle" x="85" y="-660" font-family="Helvetica,sans-Serif" font-size="10.00">IsKNearest&lt; Index, Scalar &gt; &gt;</text>
<polyline fill="none" stroke="#bfbfbf" points="0,-653 170,-653 "/>
<text text-anchor="middle" x="85" y="-641" font-family="Helvetica,sans-Serif" font-size="10.00"> </text>
<polyline fill="none" stroke="#bfbfbf" points="0,-634 170,-634 "/>
<text text-anchor="start" x="8" y="-622" font-family="Helvetica,sans-Serif" font-size="10.00">+ Query()</text>
<text text-anchor="start" x="8" y="-611" font-family="Helvetica,sans-Serif" font-size="10.00">+ Query()</text>
</a>
</g>
</g>
<!-- Node1&#45;&gt;Node3 -->
<g id="edge2" class="edge">
<title>Node1&#45;&gt;Node3</title>
<path fill="none" stroke="#63b8ff" d="M279.85,-764.19C241.8,-741.89 197.19,-715.75 160.27,-694.11"/>
<polygon fill="none" stroke="#63b8ff" points="278.47,-767.43 288.87,-769.47 282.01,-761.39 278.47,-767.43"/>
</g>
<!-- Node7 -->
<g id="node7" class="node">
<title>Node7</title>
<g id="a_node7"><a xlink:href="group__spatialpartitioning.html" target="_top" xlink:title=" ">
<polygon fill="white" stroke="#666666" points="188.5,-604 188.5,-694 355.5,-694 355.5,-604 188.5,-604"/>
<text text-anchor="start" x="196.5" y="-682" font-family="Helvetica,sans-Serif" font-size="10.00">Ponca::QueryOutputIsKNearest</text>
<text text-anchor="middle" x="272" y="-671" font-family="Helvetica,sans-Serif" font-size="10.00">&lt; Index, DataPoint::Scalar &gt;</text>
<polyline fill="none" stroke="#666666" points="188.5,-664 355.5,-664 "/>
<text text-anchor="start" x="196.5" y="-652" font-family="Helvetica,sans-Serif" font-size="10.00"># m_queue</text>
<polyline fill="none" stroke="#666666" points="188.5,-645 355.5,-645 "/>
<text text-anchor="start" x="196.5" y="-633" font-family="Helvetica,sans-Serif" font-size="10.00">+ QueryOutputIsKNearest()</text>
<text text-anchor="start" x="196.5" y="-622" font-family="Helvetica,sans-Serif" font-size="10.00">+ queue()</text>
<text text-anchor="start" x="196.5" y="-611" font-family="Helvetica,sans-Serif" font-size="10.00"># reset()</text>
</a>
</g>
</g>
<!-- Node1&#45;&gt;Node7 -->
<g id="edge6" class="edge">
<title>Node1&#45;&gt;Node7</title>
<path fill="none" stroke="orange" d="M327.8,-760.67C325.8,-757.42 323.85,-754.18 322,-751 311.45,-732.81 300.94,-712.08 292.3,-694.16"/>
<polygon fill="orange" stroke="orange" points="324.91,-762.65 333.21,-769.23 330.83,-758.91 324.91,-762.65"/>
<text text-anchor="start" x="322" y="-737.5" font-family="Helvetica,sans-Serif" font-size="10.00"> &lt; Index, DataPoint</text>
<text text-anchor="middle" x="370" y="-726.5" font-family="Helvetica,sans-Serif" font-size="10.00">::Scalar &gt;</text>
</g>
<!-- Node12 -->
<g id="node12" class="node">
<title>Node12</title>
<g id="a_node12"><a xlink:href="group__spatialpartitioning.html" target="_top" xlink:title=" ">
<polygon fill="white" stroke="#666666" points="373.5,-598.5 373.5,-699.5 540.5,-699.5 540.5,-598.5 373.5,-598.5"/>
<text text-anchor="start" x="381.5" y="-687.5" font-family="Helvetica,sans-Serif" font-size="10.00">Ponca::QueryOutputIsKNearest</text>
<text text-anchor="start" x="381.5" y="-676.5" font-family="Helvetica,sans-Serif" font-size="10.00">&lt; Traits::IndexType, Traits</text>
<text text-anchor="middle" x="457" y="-665.5" font-family="Helvetica,sans-Serif" font-size="10.00">::DataPoint::Scalar &gt;</text>
<polyline fill="none" stroke="#666666" points="373.5,-658.5 540.5,-658.5 "/>
<text text-anchor="start" x="381.5" y="-646.5" font-family="Helvetica,sans-Serif" font-size="10.00"># m_queue</text>
<polyline fill="none" stroke="#666666" points="373.5,-639.5 540.5,-639.5 "/>
<text text-anchor="start" x="381.5" y="-627.5" font-family="Helvetica,sans-Serif" font-size="10.00">+ QueryOutputIsKNearest()</text>
<text text-anchor="start" x="381.5" y="-616.5" font-family="Helvetica,sans-Serif" font-size="10.00">+ queue()</text>
<text text-anchor="start" x="381.5" y="-605.5" font-family="Helvetica,sans-Serif" font-size="10.00"># reset()</text>
</a>
</g>
</g>
<!-- Node1&#45;&gt;Node12 -->
<g id="edge11" class="edge">
<title>Node1&#45;&gt;Node12</title>
<path fill="none" stroke="orange" d="M411.45,-761.03C413.78,-757.72 415.98,-754.36 418,-751 427.53,-735.12 435.5,-716.51 441.7,-699.62"/>
<polygon fill="orange" stroke="orange" points="408.58,-759.04 405.46,-769.16 414.21,-763.19 408.58,-759.04"/>
<text text-anchor="start" x="434" y="-743" font-family="Helvetica,sans-Serif" font-size="10.00"> &lt; Traits::IndexType,</text>
<text text-anchor="start" x="434" y="-732" font-family="Helvetica,sans-Serif" font-size="10.00"> Traits::DataPoint::</text>
<text text-anchor="middle" x="484" y="-721" font-family="Helvetica,sans-Serif" font-size="10.00">Scalar &gt;</text>
</g>
<!-- Node14 -->
<g id="node14" class="node">
<title>Node14</title>
<g id="a_node14"><a xlink:href="group__spatialpartitioning.html" target="_top" xlink:title=" ">
<polygon fill="white" stroke="#666666" points="558.5,-598.5 558.5,-699.5 725.5,-699.5 725.5,-598.5 558.5,-598.5"/>
<text text-anchor="start" x="566.5" y="-687.5" font-family="Helvetica,sans-Serif" font-size="10.00">Ponca::QueryOutputIsKNearest</text>
<text text-anchor="start" x="566.5" y="-676.5" font-family="Helvetica,sans-Serif" font-size="10.00">&lt; Traits::IndexType, DataPoint</text>
<text text-anchor="middle" x="642" y="-665.5" font-family="Helvetica,sans-Serif" font-size="10.00">::Scalar &gt;</text>
<polyline fill="none" stroke="#666666" points="558.5,-658.5 725.5,-658.5 "/>
<text text-anchor="start" x="566.5" y="-646.5" font-family="Helvetica,sans-Serif" font-size="10.00"># m_queue</text>
<polyline fill="none" stroke="#666666" points="558.5,-639.5 725.5,-639.5 "/>
<text text-anchor="start" x="566.5" y="-627.5" font-family="Helvetica,sans-Serif" font-size="10.00">+ QueryOutputIsKNearest()</text>
<text text-anchor="start" x="566.5" y="-616.5" font-family="Helvetica,sans-Serif" font-size="10.00">+ queue()</text>
<text text-anchor="start" x="566.5" y="-605.5" font-family="Helvetica,sans-Serif" font-size="10.00"># reset()</text>
</a>
</g>
</g>
<!-- Node1&#45;&gt;Node14 -->
<g id="edge13" class="edge">
<title>Node1&#45;&gt;Node14</title>
<path fill="none" stroke="orange" d="M457.37,-788.14C484.49,-778.65 513.4,-766.35 538,-751 560.31,-737.08 581.74,-717.69 599.29,-699.62"/>
<polygon fill="orange" stroke="orange" points="456.21,-784.84 447.87,-791.38 458.46,-791.47 456.21,-784.84"/>
<text text-anchor="start" x="578" y="-737.5" font-family="Helvetica,sans-Serif" font-size="10.00"> &lt; Traits::IndexType,</text>
<text text-anchor="middle" x="628" y="-726.5" font-family="Helvetica,sans-Serif" font-size="10.00"> DataPoint::Scalar &gt;</text>
</g>
<!-- Node2 -->
<g id="node2" class="node">
<title>Node2</title>
<g id="a_node2"><a xlink:href="group__spatialpartitioning.html#structPonca_1_1QueryOutputBase" target="_top" xlink:title="Base class for queries output type.">
<polygon fill="white" stroke="#666666" points="295,-897.5 295,-954.5 433,-954.5 433,-897.5 295,-897.5"/>
<text text-anchor="middle" x="364" y="-942.5" font-family="Helvetica,sans-Serif" font-size="10.00">Ponca::QueryOutputBase</text>
<polyline fill="none" stroke="#666666" points="295,-935.5 433,-935.5 "/>
<text text-anchor="middle" x="364" y="-923.5" font-family="Helvetica,sans-Serif" font-size="10.00"> </text>
<polyline fill="none" stroke="#666666" points="295,-916.5 433,-916.5 "/>
<text text-anchor="middle" x="364" y="-904.5" font-family="Helvetica,sans-Serif" font-size="10.00"> </text>
</a>
</g>
</g>
<!-- Node2&#45;&gt;Node1 -->
<g id="edge1" class="edge">
<title>Node2&#45;&gt;Node1</title>
<path fill="none" stroke="#63b8ff" d="M364,-887.31C364,-878.43 364,-868.88 364,-859.74"/>
<polygon fill="none" stroke="#63b8ff" points="360.5,-887.37 364,-897.37 367.5,-887.37 360.5,-887.37"/>
</g>
<!-- Node4 -->
<g id="node4" class="node">
<title>Node4</title>
<g id="a_node4"><a xlink:href="group__spatialpartitioning.html#structPonca_1_1KNearestIndexQuery" target="_top" xlink:title="Base Query class combining QueryInputIsIndex and QueryOutputIsKNearest.">
<polygon fill="white" stroke="#666666" points="8.5,-470.5 8.5,-538.5 161.5,-538.5 161.5,-470.5 8.5,-470.5"/>
<text text-anchor="start" x="16.5" y="-526.5" font-family="Helvetica,sans-Serif" font-size="10.00">Ponca::KNearestIndexQuery</text>
<text text-anchor="middle" x="85" y="-515.5" font-family="Helvetica,sans-Serif" font-size="10.00">&lt; Index, Scalar &gt;</text>
<polyline fill="none" stroke="#666666" points="8.5,-508.5 161.5,-508.5 "/>
<text text-anchor="middle" x="85" y="-496.5" font-family="Helvetica,sans-Serif" font-size="10.00"> </text>
<polyline fill="none" stroke="#666666" points="8.5,-489.5 161.5,-489.5 "/>
<text text-anchor="middle" x="85" y="-477.5" font-family="Helvetica,sans-Serif" font-size="10.00"> </text>
</a>
</g>
</g>
<!-- Node3&#45;&gt;Node4 -->
<g id="edge3" class="edge">
<title>Node3&#45;&gt;Node4</title>
<path fill="none" stroke="#63b8ff" d="M85,-593.66C85,-575.23 85,-555.21 85,-538.91"/>
<polygon fill="none" stroke="#63b8ff" points="81.5,-593.69 85,-603.69 88.5,-593.69 81.5,-593.69"/>
</g>
<!-- Node5 -->
<g id="node5" class="node">
<title>Node5</title>
<g id="a_node5"><a xlink:href="group__spatialpartitioning.html" target="_top" xlink:title=" ">
<polygon fill="white" stroke="#666666" points="8.5,-299.5 8.5,-378.5 161.5,-378.5 161.5,-299.5 8.5,-299.5"/>
<text text-anchor="start" x="16.5" y="-366.5" font-family="Helvetica,sans-Serif" font-size="10.00">Ponca::KNearestIndexQuery</text>
<text text-anchor="start" x="16.5" y="-355.5" font-family="Helvetica,sans-Serif" font-size="10.00">&lt; Traits::IndexType, Traits</text>
<text text-anchor="middle" x="85" y="-344.5" font-family="Helvetica,sans-Serif" font-size="10.00">::DataPoint::Scalar &gt;</text>
<polyline fill="none" stroke="#666666" points="8.5,-337.5 161.5,-337.5 "/>
<text text-anchor="middle" x="85" y="-325.5" font-family="Helvetica,sans-Serif" font-size="10.00"> </text>
<polyline fill="none" stroke="#666666" points="8.5,-318.5 161.5,-318.5 "/>
<text text-anchor="middle" x="85" y="-306.5" font-family="Helvetica,sans-Serif" font-size="10.00"> </text>
</a>
</g>
</g>
<!-- Node4&#45;&gt;Node5 -->
<g id="edge4" class="edge">
<title>Node4&#45;&gt;Node5</title>
<path fill="none" stroke="orange" d="M85,-460.35C85,-435.03 85,-403.31 85,-378.79"/>
<polygon fill="orange" stroke="orange" points="81.5,-460.41 85,-470.41 88.5,-460.41 81.5,-460.41"/>
<text text-anchor="start" x="85" y="-422" font-family="Helvetica,sans-Serif" font-size="10.00"> &lt; Traits::IndexType,</text>
<text text-anchor="start" x="85" y="-411" font-family="Helvetica,sans-Serif" font-size="10.00"> Traits::DataPoint::</text>
<text text-anchor="middle" x="135" y="-400" font-family="Helvetica,sans-Serif" font-size="10.00">Scalar &gt;</text>
</g>
<!-- Node6 -->
<g id="node6" class="node">
<title>Node6</title>
<g id="a_node6"><a xlink:href="classPonca_1_1KdTreeKNearestIndexQuery.html" target="_top" xlink:title=" ">
<polygon fill="white" stroke="#bfbfbf" points="0,-139.5 0,-240.5 170,-240.5 170,-139.5 0,-139.5"/>
<text text-anchor="start" x="8" y="-228.5" font-family="Helvetica,sans-Serif" font-size="10.00">Ponca::KdTreeKNearestIndex</text>
<text text-anchor="middle" x="85" y="-217.5" font-family="Helvetica,sans-Serif" font-size="10.00">Query&lt; Traits &gt;</text>
<polyline fill="none" stroke="#bfbfbf" points="0,-210.5 170,-210.5 "/>
<text text-anchor="middle" x="85" y="-198.5" font-family="Helvetica,sans-Serif" font-size="10.00"> </text>
<polyline fill="none" stroke="#bfbfbf" points="0,-191.5 170,-191.5 "/>
<text text-anchor="start" x="8" y="-179.5" font-family="Helvetica,sans-Serif" font-size="10.00">+ KdTreeKNearestIndexQuery()</text>
<text text-anchor="start" x="8" y="-168.5" font-family="Helvetica,sans-Serif" font-size="10.00">+ begin()</text>
<text text-anchor="start" x="8" y="-157.5" font-family="Helvetica,sans-Serif" font-size="10.00">+ end()</text>
<text text-anchor="start" x="8" y="-146.5" font-family="Helvetica,sans-Serif" font-size="10.00"># search()</text>
</a>
</g>
</g>
<!-- Node5&#45;&gt;Node6 -->
<g id="edge5" class="edge">
<title>Node5&#45;&gt;Node6</title>
<path fill="none" stroke="#63b8ff" d="M85,-288.94C85,-273.43 85,-256.28 85,-240.72"/>
<polygon fill="none" stroke="#63b8ff" points="81.5,-289.38 85,-299.38 88.5,-289.38 81.5,-289.38"/>
</g>
<!-- Node8 -->
<g id="node8" class="node">
<title>Node8</title>
<g id="a_node8"><a xlink:href="group__spatialpartitioning.html" target="_top" xlink:title=" ">
<polygon fill="white" stroke="#bfbfbf" points="188.5,-454 188.5,-555 355.5,-555 355.5,-454 188.5,-454"/>
<text text-anchor="start" x="196.5" y="-543" font-family="Helvetica,sans-Serif" font-size="10.00">Ponca::Query&lt; QueryInput</text>
<text text-anchor="start" x="196.5" y="-532" font-family="Helvetica,sans-Serif" font-size="10.00">IsPosition&lt; DataPoint</text>
<text text-anchor="start" x="196.5" y="-521" font-family="Helvetica,sans-Serif" font-size="10.00"> &gt;, QueryOutputIsKNearest</text>
<text text-anchor="middle" x="272" y="-510" font-family="Helvetica,sans-Serif" font-size="10.00">&lt; Index, DataPoint::Scalar &gt; &gt;</text>
<polyline fill="none" stroke="#bfbfbf" points="188.5,-503 355.5,-503 "/>
<text text-anchor="middle" x="272" y="-491" font-family="Helvetica,sans-Serif" font-size="10.00"> </text>
<polyline fill="none" stroke="#bfbfbf" points="188.5,-484 355.5,-484 "/>
<text text-anchor="start" x="196.5" y="-472" font-family="Helvetica,sans-Serif" font-size="10.00">+ Query()</text>
<text text-anchor="start" x="196.5" y="-461" font-family="Helvetica,sans-Serif" font-size="10.00">+ Query()</text>
</a>
</g>
</g>
<!-- Node7&#45;&gt;Node8 -->
<g id="edge7" class="edge">
<title>Node7&#45;&gt;Node8</title>
<path fill="none" stroke="#63b8ff" d="M272,-593.37C272,-580.83 272,-567.56 272,-555.25"/>
<polygon fill="none" stroke="#63b8ff" points="268.5,-593.69 272,-603.69 275.5,-593.69 268.5,-593.69"/>
</g>
<!-- Node9 -->
<g id="node9" class="node">
<title>Node9</title>
<g id="a_node9"><a xlink:href="group__spatialpartitioning.html#structPonca_1_1KNearestPointQuery" target="_top" xlink:title="Base Query class combining QueryInputIsPosition and QueryOutputIsKNearest.">
<polygon fill="white" stroke="#666666" points="196.5,-305 196.5,-373 347.5,-373 347.5,-305 196.5,-305"/>
<text text-anchor="start" x="204.5" y="-361" font-family="Helvetica,sans-Serif" font-size="10.00">Ponca::KNearestPointQuery</text>
<text text-anchor="middle" x="272" y="-350" font-family="Helvetica,sans-Serif" font-size="10.00">&lt; Index, DataPoint &gt;</text>
<polyline fill="none" stroke="#666666" points="196.5,-343 347.5,-343 "/>
<text text-anchor="middle" x="272" y="-331" font-family="Helvetica,sans-Serif" font-size="10.00"> </text>
<polyline fill="none" stroke="#666666" points="196.5,-324 347.5,-324 "/>
<text text-anchor="middle" x="272" y="-312" font-family="Helvetica,sans-Serif" font-size="10.00"> </text>
</a>
</g>
</g>
<!-- Node8&#45;&gt;Node9 -->
<g id="edge8" class="edge">
<title>Node8&#45;&gt;Node9</title>
<path fill="none" stroke="#63b8ff" d="M272,-443.55C272,-419.77 272,-393.33 272,-373.12"/>
<polygon fill="none" stroke="#63b8ff" points="268.5,-443.56 272,-453.56 275.5,-443.56 268.5,-443.56"/>
</g>
<!-- Node10 -->
<g id="node10" class="node">
<title>Node10</title>
<g id="a_node10"><a xlink:href="group__spatialpartitioning.html" target="_top" xlink:title=" ">
<polygon fill="white" stroke="#666666" points="196.5,-150.5 196.5,-229.5 347.5,-229.5 347.5,-150.5 196.5,-150.5"/>
<text text-anchor="start" x="204.5" y="-217.5" font-family="Helvetica,sans-Serif" font-size="10.00">Ponca::KNearestPointQuery</text>
<text text-anchor="start" x="204.5" y="-206.5" font-family="Helvetica,sans-Serif" font-size="10.00">&lt; Traits::IndexType, Traits</text>
<text text-anchor="middle" x="272" y="-195.5" font-family="Helvetica,sans-Serif" font-size="10.00">::DataPoint &gt;</text>
<polyline fill="none" stroke="#666666" points="196.5,-188.5 347.5,-188.5 "/>
<text text-anchor="middle" x="272" y="-176.5" font-family="Helvetica,sans-Serif" font-size="10.00"> </text>
<polyline fill="none" stroke="#666666" points="196.5,-169.5 347.5,-169.5 "/>
<text text-anchor="middle" x="272" y="-157.5" font-family="Helvetica,sans-Serif" font-size="10.00"> </text>
</a>
</g>
</g>
<!-- Node9&#45;&gt;Node10 -->
<g id="edge9" class="edge">
<title>Node9&#45;&gt;Node10</title>
<path fill="none" stroke="orange" d="M272,-294.58C272,-274 272,-249.62 272,-229.68"/>
<polygon fill="orange" stroke="orange" points="268.5,-294.64 272,-304.64 275.5,-294.64 268.5,-294.64"/>
<text text-anchor="start" x="272" y="-273" font-family="Helvetica,sans-Serif" font-size="10.00"> &lt; Traits::IndexType,</text>
<text text-anchor="middle" x="322" y="-262" font-family="Helvetica,sans-Serif" font-size="10.00"> Traits::DataPoint &gt;</text>
</g>
<!-- Node11 -->
<g id="node11" class="node">
<title>Node11</title>
<g id="a_node11"><a xlink:href="classPonca_1_1KdTreeKNearestPointQuery.html" target="_top" xlink:title=" ">
<polygon fill="white" stroke="#bfbfbf" points="188.5,-0.5 188.5,-101.5 355.5,-101.5 355.5,-0.5 188.5,-0.5"/>
<text text-anchor="start" x="196.5" y="-89.5" font-family="Helvetica,sans-Serif" font-size="10.00">Ponca::KdTreeKNearestPoint</text>
<text text-anchor="middle" x="272" y="-78.5" font-family="Helvetica,sans-Serif" font-size="10.00">Query&lt; Traits &gt;</text>
<polyline fill="none" stroke="#bfbfbf" points="188.5,-71.5 355.5,-71.5 "/>
<text text-anchor="middle" x="272" y="-59.5" font-family="Helvetica,sans-Serif" font-size="10.00"> </text>
<polyline fill="none" stroke="#bfbfbf" points="188.5,-52.5 355.5,-52.5 "/>
<text text-anchor="start" x="196.5" y="-40.5" font-family="Helvetica,sans-Serif" font-size="10.00">+ KdTreeKNearestPointQuery()</text>
<text text-anchor="start" x="196.5" y="-29.5" font-family="Helvetica,sans-Serif" font-size="10.00">+ begin()</text>
<text text-anchor="start" x="196.5" y="-18.5" font-family="Helvetica,sans-Serif" font-size="10.00">+ end()</text>
<text text-anchor="start" x="196.5" y="-7.5" font-family="Helvetica,sans-Serif" font-size="10.00"># search()</text>
</a>
</g>
</g>
<!-- Node10&#45;&gt;Node11 -->
<g id="edge10" class="edge">
<title>Node10&#45;&gt;Node11</title>
<path fill="none" stroke="#63b8ff" d="M272,-140.19C272,-127.63 272,-114.1 272,-101.51"/>
<polygon fill="none" stroke="#63b8ff" points="268.5,-140.47 272,-150.47 275.5,-140.47 268.5,-140.47"/>
</g>
<!-- Node13 -->
<g id="node13" class="node">
<title>Node13</title>
<g id="a_node13"><a xlink:href="group__spatialpartitioning.html" target="_top" xlink:title=" ">
<polygon fill="white" stroke="#bfbfbf" points="382.5,-448.5 382.5,-560.5 531.5,-560.5 531.5,-448.5 382.5,-448.5"/>
<text text-anchor="start" x="390.5" y="-548.5" font-family="Helvetica,sans-Serif" font-size="10.00">Ponca::Query&lt; QueryInput</text>
<text text-anchor="start" x="390.5" y="-537.5" font-family="Helvetica,sans-Serif" font-size="10.00">IsIndex&lt; Traits::IndexType</text>
<text text-anchor="start" x="390.5" y="-526.5" font-family="Helvetica,sans-Serif" font-size="10.00"> &gt;, QueryOutputIsKNearest</text>
<text text-anchor="start" x="390.5" y="-515.5" font-family="Helvetica,sans-Serif" font-size="10.00">&lt; Traits::IndexType, Traits</text>
<text text-anchor="middle" x="457" y="-504.5" font-family="Helvetica,sans-Serif" font-size="10.00">::DataPoint::Scalar &gt; &gt;</text>
<polyline fill="none" stroke="#bfbfbf" points="382.5,-497.5 531.5,-497.5 "/>
<text text-anchor="middle" x="457" y="-485.5" font-family="Helvetica,sans-Serif" font-size="10.00"> </text>
<polyline fill="none" stroke="#bfbfbf" points="382.5,-478.5 531.5,-478.5 "/>
<text text-anchor="start" x="390.5" y="-466.5" font-family="Helvetica,sans-Serif" font-size="10.00">+ Query()</text>
<text text-anchor="start" x="390.5" y="-455.5" font-family="Helvetica,sans-Serif" font-size="10.00">+ Query()</text>
</a>
</g>
</g>
<!-- Node12&#45;&gt;Node13 -->
<g id="edge12" class="edge">
<title>Node12&#45;&gt;Node13</title>
<path fill="none" stroke="#63b8ff" d="M457,-588.11C457,-579.1 457,-569.83 457,-560.91"/>
<polygon fill="none" stroke="#63b8ff" points="453.5,-588.16 457,-598.16 460.5,-588.16 453.5,-588.16"/>
</g>
<!-- Node15 -->
<g id="node15" class="node">
<title>Node15</title>
<g id="a_node15"><a xlink:href="group__spatialpartitioning.html" target="_top" xlink:title=" ">
<polygon fill="white" stroke="#bfbfbf" points="563,-448.5 563,-560.5 721,-560.5 721,-448.5 563,-448.5"/>
<text text-anchor="start" x="571" y="-548.5" font-family="Helvetica,sans-Serif" font-size="10.00">Ponca::Query&lt; QueryInput</text>
<text text-anchor="start" x="571" y="-537.5" font-family="Helvetica,sans-Serif" font-size="10.00">IsPosition&lt; Traits::DataPoint</text>
<text text-anchor="start" x="571" y="-526.5" font-family="Helvetica,sans-Serif" font-size="10.00"> &gt;, QueryOutputIsKNearest&lt;</text>
<text text-anchor="start" x="571" y="-515.5" font-family="Helvetica,sans-Serif" font-size="10.00"> Traits::IndexType, DataPoint</text>
<text text-anchor="middle" x="642" y="-504.5" font-family="Helvetica,sans-Serif" font-size="10.00">::Scalar &gt; &gt;</text>
<polyline fill="none" stroke="#bfbfbf" points="563,-497.5 721,-497.5 "/>
<text text-anchor="middle" x="642" y="-485.5" font-family="Helvetica,sans-Serif" font-size="10.00"> </text>
<polyline fill="none" stroke="#bfbfbf" points="563,-478.5 721,-478.5 "/>
<text text-anchor="start" x="571" y="-466.5" font-family="Helvetica,sans-Serif" font-size="10.00">+ Query()</text>
<text text-anchor="start" x="571" y="-455.5" font-family="Helvetica,sans-Serif" font-size="10.00">+ Query()</text>
</a>
</g>
</g>
<!-- Node14&#45;&gt;Node15 -->
<g id="edge14" class="edge">
<title>Node14&#45;&gt;Node15</title>
<path fill="none" stroke="#63b8ff" d="M642,-588.11C642,-579.1 642,-569.83 642,-560.91"/>
<polygon fill="none" stroke="#63b8ff" points="638.5,-588.16 642,-598.16 645.5,-588.16 638.5,-588.16"/>
</g>
</g>
</svg>
