<?xml version="1.0" encoding="UTF-8" standalone="no"?>
<!DOCTYPE svg PUBLIC "-//W3C//DTD SVG 1.1//EN"
 "http://www.w3.org/Graphics/SVG/1.1/DTD/svg11.dtd">
<!-- Generated by graphviz version 2.43.0 (0)
 -->
<!-- Title: Ponca::BasketComputeObject&lt; _Derived, _Base &gt; Pages: 1 -->
<svg width="427pt" height="778pt"
 viewBox="0.00 0.00 426.50 778.00" xmlns="http://www.w3.org/2000/svg" xmlns:xlink="http://www.w3.org/1999/xlink">
<g id="graph0" class="graph" transform="scale(1 1) rotate(0) translate(4 774)">
<title>Ponca::BasketComputeObject&lt; _Derived, _Base &gt;</title>
<!-- Node1 -->
<g id="Node000001" class="node">
<title>Node1</title>
<g id="a_Node000001"><a xlink:title="Base ComputeObject for the Basket classes.">
<polygon fill="#999999" stroke="transparent" points="254,-476 99,-476 99,-356 254,-356 254,-476"/>
<text text-anchor="start" x="104.5" y="-464" font-family="Helvetica,sans-Serif" font-size="10.00">Ponca::BasketComputeObject</text>
<text text-anchor="start" x="126" y="-453" font-family="Helvetica,sans-Serif" font-size="10.00">&lt; _Derived, _Base &gt;</text>
<text text-anchor="start" x="175" y="-438" font-family="Helvetica,sans-Serif" font-size="10.00"> </text>
<text text-anchor="start" x="110" y="-423" font-family="Helvetica,sans-Serif" font-size="10.00">+</text>
<text text-anchor="start" x="129.5" y="-423" font-family="Helvetica,sans-Serif" font-size="10.00">compute()</text>
<text text-anchor="start" x="110" y="-408" font-family="Helvetica,sans-Serif" font-size="10.00">+</text>
<text text-anchor="start" x="129.5" y="-408" font-family="Helvetica,sans-Serif" font-size="10.00">computeWithIds()</text>
<text text-anchor="start" x="110" y="-393" font-family="Helvetica,sans-Serif" font-size="10.00">+</text>
<text text-anchor="start" x="129.5" y="-393" font-family="Helvetica,sans-Serif" font-size="10.00">computeMLS()</text>
<text text-anchor="start" x="110" y="-378" font-family="Helvetica,sans-Serif" font-size="10.00">+</text>
<text text-anchor="start" x="129.5" y="-378" font-family="Helvetica,sans-Serif" font-size="10.00">computeWithIdsMLS()</text>
<text text-anchor="start" x="110" y="-363" font-family="Helvetica,sans-Serif" font-size="10.00">#</text>
<text text-anchor="start" x="129.5" y="-363" font-family="Helvetica,sans-Serif" font-size="10.00">computeMLSImpl()</text>
<polygon fill="#666666" stroke="#666666" points="99.5,-448 99.5,-448 254.5,-448 254.5,-448 99.5,-448"/>
<polygon fill="#666666" stroke="#666666" points="99.5,-433 99.5,-433 254.5,-433 254.5,-433 99.5,-433"/>
<polygon fill="none" stroke="#666666" points="99,-356 99,-476 254,-476 254,-356 99,-356"/>
</a>
</g>
</g>
<!-- Node5 -->
<g id="Node000005" class="node">
<title>Node5</title>
<g id="a_Node000005"><a xlink:href="structPonca_1_1BasketComputeObject.html" target="_top" xlink:title=" ">
<polygon fill="white" stroke="transparent" points="161,-259.5 0,-259.5 0,-117.5 161,-117.5 161,-259.5"/>
<text text-anchor="start" x="5.5" y="-247.5" font-family="Helvetica,sans-Serif" font-size="10.00">Ponca::BasketComputeObject</text>
<text text-anchor="start" x="5.5" y="-236.5" font-family="Helvetica,sans-Serif" font-size="10.00">&lt; Basket&lt; P, NF, Ext0, Exts...</text>
<text text-anchor="start" x="5.5" y="-225.5" font-family="Helvetica,sans-Serif" font-size="10.00"> &gt;, internal::BasketAggregate</text>
<text text-anchor="start" x="5.5" y="-214.5" font-family="Helvetica,sans-Serif" font-size="10.00">&lt; P, NF, Ext0, Exts... &gt;::type &gt;</text>
<text text-anchor="start" x="79" y="-199.5" font-family="Helvetica,sans-Serif" font-size="10.00"> </text>
<text text-anchor="start" x="12.5" y="-184.5" font-family="Helvetica,sans-Serif" font-size="10.00">+</text>
<text text-anchor="start" x="33.5" y="-184.5" font-family="Helvetica,sans-Serif" font-size="10.00">compute()</text>
<text text-anchor="start" x="12.5" y="-169.5" font-family="Helvetica,sans-Serif" font-size="10.00">+</text>
<text text-anchor="start" x="33.5" y="-169.5" font-family="Helvetica,sans-Serif" font-size="10.00">computeWithIds()</text>
<text text-anchor="start" x="12.5" y="-154.5" font-family="Helvetica,sans-Serif" font-size="10.00">+</text>
<text text-anchor="start" x="33.5" y="-154.5" font-family="Helvetica,sans-Serif" font-size="10.00">computeMLS()</text>
<text text-anchor="start" x="12.5" y="-139.5" font-family="Helvetica,sans-Serif" font-size="10.00">+</text>
<text text-anchor="start" x="33.5" y="-139.5" font-family="Helvetica,sans-Serif" font-size="10.00">computeWithIdsMLS()</text>
<text text-anchor="start" x="12.5" y="-124.5" font-family="Helvetica,sans-Serif" font-size="10.00">#</text>
<text text-anchor="start" x="33.5" y="-124.5" font-family="Helvetica,sans-Serif" font-size="10.00">computeMLSImpl()</text>
<polygon fill="#666666" stroke="#666666" points="0.5,-209.5 0.5,-209.5 161.5,-209.5 161.5,-209.5 0.5,-209.5"/>
<polygon fill="#666666" stroke="#666666" points="0.5,-194.5 0.5,-194.5 161.5,-194.5 161.5,-194.5 0.5,-194.5"/>
<polygon fill="none" stroke="#666666" points="0,-117.5 0,-259.5 161,-259.5 161,-117.5 0,-117.5"/>
</a>
</g>
</g>
<!-- Node1&#45;&gt;Node5 -->
<g id="edge4_Node000001_Node000005" class="edge">
<title>Node1&#45;&gt;Node5</title>
<g id="a_edge4_Node000001_Node000005"><a xlink:title=" ">
<path fill="none" stroke="orange" d="M114.52,-347.27C112.71,-344.21 111.02,-341.12 109.5,-338 97.68,-313.81 90.68,-285.18 86.53,-259.55"/>
<polygon fill="orange" stroke="orange" points="111.6,-349.19 119.92,-355.75 117.5,-345.43 111.6,-349.19"/>
</a>
</g>
<text text-anchor="start" x="109.5" y="-324.5" font-family="Helvetica,sans-Serif" font-size="10.00" fill="grey"> &lt; Basket&lt; P, NF, Ext0,</text>
<text text-anchor="start" x="109.5" y="-313.5" font-family="Helvetica,sans-Serif" font-size="10.00" fill="grey"> Exts... &gt;, internal</text>
<text text-anchor="start" x="109.5" y="-302.5" font-family="Helvetica,sans-Serif" font-size="10.00" fill="grey">::BasketAggregate&lt; P,</text>
<text text-anchor="middle" x="175" y="-291.5" font-family="Helvetica,sans-Serif" font-size="10.00" fill="grey"> NF, Ext0, Exts... &gt;::type &gt;</text>
</g>
<!-- Node7 -->
<g id="Node000007" class="node">
<title>Node7</title>
<g id="a_Node000007"><a xlink:href="structPonca_1_1BasketComputeObject.html" target="_top" xlink:title=" ">
<polygon fill="white" stroke="transparent" points="366,-265 179,-265 179,-112 366,-112 366,-265"/>
<text text-anchor="start" x="184.5" y="-252.5" font-family="Helvetica,sans-Serif" font-size="10.00">Ponca::BasketComputeObject</text>
<text text-anchor="start" x="184.5" y="-241.5" font-family="Helvetica,sans-Serif" font-size="10.00">&lt; BasketDiff&lt; BasketType,</text>
<text text-anchor="start" x="184.5" y="-230.5" font-family="Helvetica,sans-Serif" font-size="10.00"> Type, Ext0, Exts... &gt;, internal</text>
<text text-anchor="start" x="184.5" y="-219.5" font-family="Helvetica,sans-Serif" font-size="10.00">::BasketDiffAggregate&lt; BasketType,</text>
<text text-anchor="start" x="203" y="-208.5" font-family="Helvetica,sans-Serif" font-size="10.00"> Type, Ext0, Exts... &gt;::type &gt;</text>
<text text-anchor="start" x="271" y="-193.5" font-family="Helvetica,sans-Serif" font-size="10.00"> </text>
<text text-anchor="start" x="198" y="-178.5" font-family="Helvetica,sans-Serif" font-size="10.00">+</text>
<text text-anchor="start" x="225.5" y="-178.5" font-family="Helvetica,sans-Serif" font-size="10.00">compute()</text>
<text text-anchor="start" x="198" y="-163.5" font-family="Helvetica,sans-Serif" font-size="10.00">+</text>
<text text-anchor="start" x="225.5" y="-163.5" font-family="Helvetica,sans-Serif" font-size="10.00">computeWithIds()</text>
<text text-anchor="start" x="198" y="-148.5" font-family="Helvetica,sans-Serif" font-size="10.00">+</text>
<text text-anchor="start" x="225.5" y="-148.5" font-family="Helvetica,sans-Serif" font-size="10.00">computeMLS()</text>
<text text-anchor="start" x="198" y="-133.5" font-family="Helvetica,sans-Serif" font-size="10.00">+</text>
<text text-anchor="start" x="225.5" y="-133.5" font-family="Helvetica,sans-Serif" font-size="10.00">computeWithIdsMLS()</text>
<text text-anchor="start" x="198" y="-118.5" font-family="Helvetica,sans-Serif" font-size="10.00">#</text>
<text text-anchor="start" x="225.5" y="-118.5" font-family="Helvetica,sans-Serif" font-size="10.00">computeMLSImpl()</text>
<polygon fill="#666666" stroke="#666666" points="179.5,-203.5 179.5,-203.5 366.5,-203.5 366.5,-203.5 179.5,-203.5"/>
<polygon fill="#666666" stroke="#666666" points="179.5,-188.5 179.5,-188.5 366.5,-188.5 366.5,-188.5 179.5,-188.5"/>
<polygon fill="none" stroke="#666666" points="179,-112 179,-265 366,-265 366,-112 179,-112"/>
</a>
</g>
</g>
<!-- Node1&#45;&gt;Node7 -->
<g id="edge6_Node000001_Node000007" class="edge">
<title>Node1&#45;&gt;Node7</title>
<g id="a_edge6_Node000001_Node000007"><a xlink:title=" ">
<path fill="none" stroke="orange" d="M235.48,-347.36C237.29,-344.27 238.97,-341.14 240.5,-338 251.46,-315.47 258.69,-289.21 263.46,-265.1"/>
<polygon fill="orange" stroke="orange" points="232.44,-345.62 230.1,-355.96 238.37,-349.33 232.44,-345.62"/>
</a>
</g>
<text text-anchor="start" x="258.5" y="-330" font-family="Helvetica,sans-Serif" font-size="10.00" fill="grey"> &lt; BasketDiff&lt; BasketType,</text>
<text text-anchor="start" x="258.5" y="-319" font-family="Helvetica,sans-Serif" font-size="10.00" fill="grey"> Type, Ext0, Exts... &gt;,</text>
<text text-anchor="start" x="258.5" y="-308" font-family="Helvetica,sans-Serif" font-size="10.00" fill="grey"> internal::BasketDiffAggregate</text>
<text text-anchor="start" x="258.5" y="-297" font-family="Helvetica,sans-Serif" font-size="10.00" fill="grey">&lt; BasketType, Type, Ext0, Exts...</text>
<text text-anchor="middle" x="338.5" y="-286" font-family="Helvetica,sans-Serif" font-size="10.00" fill="grey"> &gt;::type &gt;</text>
</g>
<!-- Node2 -->
<g id="Node000002" class="node">
<title>Node2</title>
<g id="a_Node000002"><a xlink:href="structPonca_1_1ComputeObject.html" target="_top" xlink:title=" ">
<polygon fill="white" stroke="transparent" points="188.5,-618 66.5,-618 66.5,-513 188.5,-513 188.5,-618"/>
<text text-anchor="start" x="71.5" y="-605.5" font-family="Helvetica,sans-Serif" font-size="10.00">Ponca::ComputeObject</text>
<text text-anchor="start" x="94" y="-594.5" font-family="Helvetica,sans-Serif" font-size="10.00">&lt; _Derived &gt;</text>
<text text-anchor="start" x="125.5" y="-579.5" font-family="Helvetica,sans-Serif" font-size="10.00"> </text>
<text text-anchor="start" x="73.5" y="-564.5" font-family="Helvetica,sans-Serif" font-size="10.00">+</text>
<text text-anchor="start" x="89.5" y="-564.5" font-family="Helvetica,sans-Serif" font-size="10.00">compute()</text>
<text text-anchor="start" x="73.5" y="-549.5" font-family="Helvetica,sans-Serif" font-size="10.00">+</text>
<text text-anchor="start" x="89.5" y="-549.5" font-family="Helvetica,sans-Serif" font-size="10.00">compute()</text>
<text text-anchor="start" x="73.5" y="-534.5" font-family="Helvetica,sans-Serif" font-size="10.00">+</text>
<text text-anchor="start" x="89.5" y="-534.5" font-family="Helvetica,sans-Serif" font-size="10.00">computeWithIds()</text>
<text text-anchor="start" x="73.5" y="-519.5" font-family="Helvetica,sans-Serif" font-size="10.00">#</text>
<text text-anchor="start" x="89.5" y="-519.5" font-family="Helvetica,sans-Serif" font-size="10.00">derived()</text>
<polygon fill="#666666" stroke="#666666" points="66.5,-589.5 66.5,-589.5 188.5,-589.5 188.5,-589.5 66.5,-589.5"/>
<polygon fill="#666666" stroke="#666666" points="66.5,-574.5 66.5,-574.5 188.5,-574.5 188.5,-574.5 66.5,-574.5"/>
<polygon fill="none" stroke="#666666" points="66.5,-513 66.5,-618 188.5,-618 188.5,-513 66.5,-513"/>
</a>
</g>
</g>
<!-- Node2&#45;&gt;Node1 -->
<g id="edge1_Node000001_Node000002" class="edge">
<title>Node2&#45;&gt;Node1</title>
<g id="a_edge1_Node000001_Node000002"><a xlink:title=" ">
<path fill="none" stroke="#63b8ff" d="M147.83,-503.29C150.82,-494.31 153.89,-485.07 156.86,-476.13"/>
<polygon fill="none" stroke="#63b8ff" points="144.47,-502.32 144.64,-512.91 151.11,-504.53 144.47,-502.32"/>
</a>
</g>
</g>
<!-- Node3 -->
<g id="Node000003" class="node">
<title>Node3</title>
<g id="a_Node000003"><a xlink:href="structPonca_1_1ComputeObject.html" target="_top" xlink:title="ComputeObject is a virtual object that represents an algorithm which can be used with the compute fun...">
<polygon fill="white" stroke="transparent" points="188.5,-770 66.5,-770 66.5,-665 188.5,-665 188.5,-770"/>
<text text-anchor="start" x="71.5" y="-757.5" font-family="Helvetica,sans-Serif" font-size="10.00">Ponca::ComputeObject</text>
<text text-anchor="start" x="97" y="-746.5" font-family="Helvetica,sans-Serif" font-size="10.00">&lt; Derived &gt;</text>
<text text-anchor="start" x="125.5" y="-731.5" font-family="Helvetica,sans-Serif" font-size="10.00"> </text>
<text text-anchor="start" x="73.5" y="-716.5" font-family="Helvetica,sans-Serif" font-size="10.00">+</text>
<text text-anchor="start" x="89.5" y="-716.5" font-family="Helvetica,sans-Serif" font-size="10.00">compute()</text>
<text text-anchor="start" x="73.5" y="-701.5" font-family="Helvetica,sans-Serif" font-size="10.00">+</text>
<text text-anchor="start" x="89.5" y="-701.5" font-family="Helvetica,sans-Serif" font-size="10.00">compute()</text>
<text text-anchor="start" x="73.5" y="-686.5" font-family="Helvetica,sans-Serif" font-size="10.00">+</text>
<text text-anchor="start" x="89.5" y="-686.5" font-family="Helvetica,sans-Serif" font-size="10.00">computeWithIds()</text>
<text text-anchor="start" x="73.5" y="-671.5" font-family="Helvetica,sans-Serif" font-size="10.00">#</text>
<text text-anchor="start" x="89.5" y="-671.5" font-family="Helvetica,sans-Serif" font-size="10.00">derived()</text>
<polygon fill="#666666" stroke="#666666" points="66.5,-741.5 66.5,-741.5 188.5,-741.5 188.5,-741.5 66.5,-741.5"/>
<polygon fill="#666666" stroke="#666666" points="66.5,-726.5 66.5,-726.5 188.5,-726.5 188.5,-726.5 66.5,-726.5"/>
<polygon fill="none" stroke="#666666" points="66.5,-665 66.5,-770 188.5,-770 188.5,-665 66.5,-665"/>
</a>
</g>
</g>
<!-- Node3&#45;&gt;Node2 -->
<g id="edge2_Node000002_Node000003" class="edge">
<title>Node3&#45;&gt;Node2</title>
<g id="a_edge2_Node000002_Node000003"><a xlink:title=" ">
<path fill="none" stroke="orange" d="M127.5,-654.81C127.5,-642.65 127.5,-630.01 127.5,-618.22"/>
<polygon fill="orange" stroke="orange" points="124,-654.88 127.5,-664.88 131,-654.88 124,-654.88"/>
</a>
</g>
<text text-anchor="middle" x="162.5" y="-639" font-family="Helvetica,sans-Serif" font-size="10.00" fill="grey"> &lt; _Derived &gt;</text>
</g>
<!-- Node4 -->
<g id="Node000004" class="node">
<title>Node4</title>
<g id="a_Node000004"><a xlink:title=" ">
<polygon fill="white" stroke="transparent" points="246.5,-590 206.5,-590 206.5,-541 246.5,-541 246.5,-590"/>
<text text-anchor="start" x="211.5" y="-577.5" font-family="Helvetica,sans-Serif" font-size="10.00">_Base</text>
<text text-anchor="start" x="224.5" y="-562.5" font-family="Helvetica,sans-Serif" font-size="10.00"> </text>
<text text-anchor="start" x="224.5" y="-547.5" font-family="Helvetica,sans-Serif" font-size="10.00"> </text>
<polygon fill="#bfbfbf" stroke="#bfbfbf" points="206.5,-572.5 206.5,-572.5 246.5,-572.5 246.5,-572.5 206.5,-572.5"/>
<polygon fill="#bfbfbf" stroke="#bfbfbf" points="206.5,-557.5 206.5,-557.5 246.5,-557.5 246.5,-557.5 206.5,-557.5"/>
<polygon fill="none" stroke="#bfbfbf" points="206.5,-541 206.5,-590 246.5,-590 246.5,-541 206.5,-541"/>
</a>
</g>
</g>
<!-- Node4&#45;&gt;Node1 -->
<g id="edge3_Node000001_Node000004" class="edge">
<title>Node4&#45;&gt;Node1</title>
<g id="a_edge3_Node000001_Node000004"><a xlink:title=" ">
<path fill="none" stroke="#63b8ff" d="M215.22,-531.24C209.72,-515.01 202.94,-495 196.6,-476.29"/>
<polygon fill="none" stroke="#63b8ff" points="211.94,-532.45 218.47,-540.8 218.57,-530.21 211.94,-532.45"/>
</a>
</g>
</g>
<!-- Node6 -->
<g id="Node000006" class="node">
<title>Node6</title>
<g id="a_Node000006"><a xlink:href="classPonca_1_1Basket.html" target="_top" xlink:title="Aggregator class used to declare specialized structures using CRTP.">
<polygon fill="white" stroke="transparent" points="140,-75 21,-75 21,0 140,0 140,-75"/>
<text text-anchor="start" x="26.5" y="-62.5" font-family="Helvetica,sans-Serif" font-size="10.00">Ponca::Basket&lt; P, NF,</text>
<text text-anchor="start" x="49" y="-51.5" font-family="Helvetica,sans-Serif" font-size="10.00"> Ext0, Exts &gt;</text>
<text text-anchor="start" x="79" y="-36.5" font-family="Helvetica,sans-Serif" font-size="10.00"> </text>
<text text-anchor="start" x="29.5" y="-21.5" font-family="Helvetica,sans-Serif" font-size="10.00">+</text>
<text text-anchor="start" x="46.5" y="-21.5" font-family="Helvetica,sans-Serif" font-size="10.00">addNeighbor()</text>
<text text-anchor="start" x="29.5" y="-6.5" font-family="Helvetica,sans-Serif" font-size="10.00">+</text>
<text text-anchor="start" x="46.5" y="-6.5" font-family="Helvetica,sans-Serif" font-size="10.00">projectDescent()</text>
<polygon fill="#666666" stroke="#666666" points="21.5,-46.5 21.5,-46.5 140.5,-46.5 140.5,-46.5 21.5,-46.5"/>
<polygon fill="#666666" stroke="#666666" points="21.5,-31.5 21.5,-31.5 140.5,-31.5 140.5,-31.5 21.5,-31.5"/>
<polygon fill="none" stroke="#666666" points="21,0 21,-75 140,-75 140,0 21,0"/>
</a>
</g>
</g>
<!-- Node5&#45;&gt;Node6 -->
<g id="edge5_Node000005_Node000006" class="edge">
<title>Node5&#45;&gt;Node6</title>
<g id="a_edge5_Node000005_Node000006"><a xlink:title=" ">
<path fill="none" stroke="#63b8ff" d="M80.5,-107.06C80.5,-95.86 80.5,-84.85 80.5,-75.03"/>
<polygon fill="none" stroke="#63b8ff" points="77,-107.36 80.5,-117.36 84,-107.36 77,-107.36"/>
</a>
</g>
</g>
<!-- Node8 -->
<g id="Node000008" class="node">
<title>Node8</title>
<g id="a_Node000008"><a xlink:href="classPonca_1_1BasketDiff.html" target="_top" xlink:title="Aggregator class used to declare specialized structures with derivatives computations,...">
<polygon fill="white" stroke="transparent" points="336.5,-73 208.5,-73 208.5,-2 336.5,-2 336.5,-73"/>
<text text-anchor="start" x="213.5" y="-60.5" font-family="Helvetica,sans-Serif" font-size="10.00">Ponca::BasketDiff&lt;</text>
<text text-anchor="start" x="213.5" y="-49.5" font-family="Helvetica,sans-Serif" font-size="10.00"> BasketType, Type, Ext0,</text>
<text text-anchor="start" x="254.5" y="-38.5" font-family="Helvetica,sans-Serif" font-size="10.00"> Exts &gt;</text>
<text text-anchor="start" x="270.5" y="-23.5" font-family="Helvetica,sans-Serif" font-size="10.00"> </text>
<text text-anchor="start" x="221.5" y="-8.5" font-family="Helvetica,sans-Serif" font-size="10.00">+</text>
<text text-anchor="start" x="243.5" y="-8.5" font-family="Helvetica,sans-Serif" font-size="10.00">addNeighbor()</text>
<polygon fill="#666666" stroke="#666666" points="208.5,-33.5 208.5,-33.5 336.5,-33.5 336.5,-33.5 208.5,-33.5"/>
<polygon fill="#666666" stroke="#666666" points="208.5,-18.5 208.5,-18.5 336.5,-18.5 336.5,-18.5 208.5,-18.5"/>
<polygon fill="none" stroke="#666666" points="208.5,-2 208.5,-73 336.5,-73 336.5,-2 208.5,-2"/>
</a>
</g>
</g>
<!-- Node7&#45;&gt;Node8 -->
<g id="edge7_Node000007_Node000008" class="edge">
<title>Node7&#45;&gt;Node8</title>
<g id="a_edge7_Node000007_Node000008"><a xlink:title=" ">
<path fill="none" stroke="#63b8ff" d="M272.5,-101.59C272.5,-91.56 272.5,-81.81 272.5,-73.1"/>
<polygon fill="none" stroke="#63b8ff" points="269,-101.69 272.5,-111.69 276,-101.69 269,-101.69"/>
</a>
</g>
</g>
</g>
</svg>
