<?xml version="1.0" encoding="UTF-8" standalone="no"?>
<!DOCTYPE svg PUBLIC "-//W3C//DTD SVG 1.1//EN"
 "http://www.w3.org/Graphics/SVG/1.1/DTD/svg11.dtd">
<!-- Generated by graphviz version 2.43.0 (0)
 -->
<!-- Title: Ponca::KNearestIndexQuery&lt; Index, Scalar &gt; Pages: 1 -->
<svg width="501pt" height="982pt"
 viewBox="0.00 0.00 500.50 982.00" xmlns="http://www.w3.org/2000/svg" xmlns:xlink="http://www.w3.org/1999/xlink">
<g id="graph0" class="graph" transform="scale(1 1) rotate(0) translate(4 978)">
<title>Ponca::KNearestIndexQuery&lt; Index, Scalar &gt;</title>
<!-- Node1 -->
<g id="Node000001" class="node">
<title>Node1</title>
<g id="a_Node000001"><a xlink:title="Base Query class combining QueryInputIsIndex and QueryOutputIsKNearest.">
<polygon fill="#999999" stroke="transparent" points="307,-327 160,-327 160,-267 307,-267 307,-327"/>
<text text-anchor="start" x="165.5" y="-315" font-family="Helvetica,sans-Serif" font-size="10.00">Ponca::KNearestIndexQuery</text>
<text text-anchor="start" x="191" y="-304" font-family="Helvetica,sans-Serif" font-size="10.00">&lt; Index, Scalar &gt;</text>
<text text-anchor="start" x="232" y="-289" font-family="Helvetica,sans-Serif" font-size="10.00"> </text>
<text text-anchor="start" x="232" y="-274" font-family="Helvetica,sans-Serif" font-size="10.00"> </text>
<polygon fill="#666666" stroke="#666666" points="160.5,-299 160.5,-299 307.5,-299 307.5,-299 160.5,-299"/>
<polygon fill="#666666" stroke="#666666" points="160.5,-284 160.5,-284 307.5,-284 307.5,-284 160.5,-284"/>
<polygon fill="none" stroke="#666666" points="160,-267 160,-327 307,-327 307,-267 160,-267"/>
</a>
</g>
</g>
<!-- Node12 -->
<g id="Node000012" class="node">
<title>Node12</title>
<g id="a_Node000012"><a xlink:href="group__spatialpartitioning.html" target="_top" xlink:title=" ">
<polygon fill="white" stroke="transparent" points="307,-198 160,-198 160,-127 307,-127 307,-198"/>
<text text-anchor="start" x="165.5" y="-185.5" font-family="Helvetica,sans-Serif" font-size="10.00">Ponca::KNearestIndexQuery</text>
<text text-anchor="start" x="165.5" y="-174.5" font-family="Helvetica,sans-Serif" font-size="10.00">&lt; Traits::IndexType, Traits</text>
<text text-anchor="start" x="183" y="-163.5" font-family="Helvetica,sans-Serif" font-size="10.00">::DataPoint::Scalar &gt;</text>
<text text-anchor="start" x="232" y="-148.5" font-family="Helvetica,sans-Serif" font-size="10.00"> </text>
<text text-anchor="start" x="232" y="-133.5" font-family="Helvetica,sans-Serif" font-size="10.00"> </text>
<polygon fill="#666666" stroke="#666666" points="160.5,-158.5 160.5,-158.5 307.5,-158.5 307.5,-158.5 160.5,-158.5"/>
<polygon fill="#666666" stroke="#666666" points="160.5,-143.5 160.5,-143.5 307.5,-143.5 307.5,-143.5 160.5,-143.5"/>
<polygon fill="none" stroke="#666666" points="160,-127 160,-198 307,-198 307,-127 160,-127"/>
</a>
</g>
</g>
<!-- Node1&#45;&gt;Node12 -->
<g id="edge12_Node000001_Node000012" class="edge">
<title>Node1&#45;&gt;Node12</title>
<g id="a_edge12_Node000001_Node000012"><a xlink:title=" ">
<path fill="none" stroke="orange" d="M233.5,-256.71C233.5,-238.12 233.5,-216.11 233.5,-198.15"/>
<polygon fill="orange" stroke="orange" points="230,-256.92 233.5,-266.92 237,-256.92 230,-256.92"/>
</a>
</g>
<text text-anchor="start" x="233.5" y="-241" font-family="Helvetica,sans-Serif" font-size="10.00" fill="grey"> &lt; Traits::IndexType,</text>
<text text-anchor="start" x="233.5" y="-230" font-family="Helvetica,sans-Serif" font-size="10.00" fill="grey"> Traits::DataPoint::</text>
<text text-anchor="middle" x="283.5" y="-219" font-family="Helvetica,sans-Serif" font-size="10.00" fill="grey">Scalar &gt;</text>
</g>
<!-- Node2 -->
<g id="Node000002" class="node">
<title>Node2</title>
<g id="a_Node000002"><a xlink:href="group__spatialpartitioning.html" target="_top" xlink:title=" ">
<polygon fill="white" stroke="transparent" points="315.5,-450 151.5,-450 151.5,-364 315.5,-364 315.5,-450"/>
<text text-anchor="start" x="156.5" y="-438" font-family="Helvetica,sans-Serif" font-size="10.00">Ponca::Query&lt; QueryInput</text>
<text text-anchor="start" x="156.5" y="-427" font-family="Helvetica,sans-Serif" font-size="10.00">IsIndex&lt; Index &gt;, QueryOutput</text>
<text text-anchor="start" x="158" y="-416" font-family="Helvetica,sans-Serif" font-size="10.00">IsKNearest&lt; Index, Scalar &gt; &gt;</text>
<text text-anchor="start" x="231.5" y="-401" font-family="Helvetica,sans-Serif" font-size="10.00"> </text>
<text text-anchor="start" x="182" y="-386" font-family="Helvetica,sans-Serif" font-size="10.00">+</text>
<text text-anchor="start" x="221.5" y="-386" font-family="Helvetica,sans-Serif" font-size="10.00">Query()</text>
<text text-anchor="start" x="182" y="-371" font-family="Helvetica,sans-Serif" font-size="10.00">+</text>
<text text-anchor="start" x="221.5" y="-371" font-family="Helvetica,sans-Serif" font-size="10.00">Query()</text>
<polygon fill="#bfbfbf" stroke="#bfbfbf" points="151.5,-411 151.5,-411 315.5,-411 315.5,-411 151.5,-411"/>
<polygon fill="#bfbfbf" stroke="#bfbfbf" points="151.5,-396 151.5,-396 315.5,-396 315.5,-396 151.5,-396"/>
<polygon fill="none" stroke="#bfbfbf" points="151.5,-364 151.5,-450 315.5,-450 315.5,-364 151.5,-364"/>
</a>
</g>
</g>
<!-- Node2&#45;&gt;Node1 -->
<g id="edge1_Node000001_Node000002" class="edge">
<title>Node2&#45;&gt;Node1</title>
<g id="a_edge1_Node000001_Node000002"><a xlink:title=" ">
<path fill="none" stroke="#63b8ff" d="M233.5,-353.69C233.5,-344.54 233.5,-335.33 233.5,-327.1"/>
<polygon fill="none" stroke="#63b8ff" points="230,-353.94 233.5,-363.94 237,-353.94 230,-353.94"/>
</a>
</g>
</g>
<!-- Node3 -->
<g id="Node000003" class="node">
<title>Node3</title>
<g id="a_Node000003"><a xlink:href="group__spatialpartitioning.html#structPonca_1_1QueryInputIsIndex" target="_top" xlink:title="Base class for queries storing points.">
<polygon fill="white" stroke="transparent" points="135,-616.5 0,-616.5 0,-526.5 135,-526.5 135,-616.5"/>
<text text-anchor="start" x="5.5" y="-604.5" font-family="Helvetica,sans-Serif" font-size="10.00">Ponca::QueryInputIsIndex</text>
<text text-anchor="start" x="43" y="-593.5" font-family="Helvetica,sans-Serif" font-size="10.00">&lt; Index &gt;</text>
<text text-anchor="start" x="66" y="-578.5" font-family="Helvetica,sans-Serif" font-size="10.00"> </text>
<text text-anchor="start" x="8.5" y="-563.5" font-family="Helvetica,sans-Serif" font-size="10.00">+</text>
<text text-anchor="start" x="25.5" y="-563.5" font-family="Helvetica,sans-Serif" font-size="10.00">QueryInputIsIndex()</text>
<text text-anchor="start" x="8.5" y="-548.5" font-family="Helvetica,sans-Serif" font-size="10.00">#</text>
<text text-anchor="start" x="25.5" y="-548.5" font-family="Helvetica,sans-Serif" font-size="10.00">skipIndexFunctor()</text>
<text text-anchor="start" x="8.5" y="-533.5" font-family="Helvetica,sans-Serif" font-size="10.00">#</text>
<text text-anchor="start" x="25.5" y="-533.5" font-family="Helvetica,sans-Serif" font-size="10.00">getInputPosition()</text>
<polygon fill="#666666" stroke="#666666" points="0.5,-588.5 0.5,-588.5 135.5,-588.5 135.5,-588.5 0.5,-588.5"/>
<polygon fill="#666666" stroke="#666666" points="0.5,-573.5 0.5,-573.5 135.5,-573.5 135.5,-573.5 0.5,-573.5"/>
<polygon fill="none" stroke="#666666" points="0,-526.5 0,-616.5 135,-616.5 135,-526.5 0,-526.5"/>
</a>
</g>
</g>
<!-- Node3&#45;&gt;Node2 -->
<g id="edge2_Node000002_Node000003" class="edge">
<title>Node3&#45;&gt;Node2</title>
<g id="a_edge2_Node000002_Node000003"><a xlink:title=" ">
<path fill="none" stroke="#63b8ff" d="M120.09,-519.02C142.78,-496.81 168.98,-471.16 190.48,-450.11"/>
<polygon fill="none" stroke="#63b8ff" points="117.56,-516.6 112.86,-526.1 122.45,-521.6 117.56,-516.6"/>
</a>
</g>
</g>
<!-- Node4 -->
<g id="Node000004" class="node">
<title>Node4</title>
<g id="a_Node000004"><a xlink:href="group__spatialpartitioning.html" target="_top" xlink:title=" ">
<polygon fill="white" stroke="transparent" points="121.5,-751 13.5,-751 13.5,-661 121.5,-661 121.5,-751"/>
<text text-anchor="start" x="18.5" y="-739" font-family="Helvetica,sans-Serif" font-size="10.00">Ponca::QueryInput&lt;</text>
<text text-anchor="start" x="46.5" y="-728" font-family="Helvetica,sans-Serif" font-size="10.00"> Index &gt;</text>
<text text-anchor="start" x="65.5" y="-713" font-family="Helvetica,sans-Serif" font-size="10.00"> </text>
<text text-anchor="start" x="23.5" y="-698" font-family="Helvetica,sans-Serif" font-size="10.00">+</text>
<text text-anchor="start" x="42.5" y="-698" font-family="Helvetica,sans-Serif" font-size="10.00">QueryInput()</text>
<text text-anchor="start" x="23.5" y="-683" font-family="Helvetica,sans-Serif" font-size="10.00">+</text>
<text text-anchor="start" x="42.5" y="-683" font-family="Helvetica,sans-Serif" font-size="10.00">input()</text>
<text text-anchor="start" x="23.5" y="-668" font-family="Helvetica,sans-Serif" font-size="10.00">#</text>
<text text-anchor="start" x="42.5" y="-668" font-family="Helvetica,sans-Serif" font-size="10.00">editInput()</text>
<polygon fill="#666666" stroke="#666666" points="13.5,-723 13.5,-723 121.5,-723 121.5,-723 13.5,-723"/>
<polygon fill="#666666" stroke="#666666" points="13.5,-708 13.5,-708 121.5,-708 121.5,-708 13.5,-708"/>
<polygon fill="none" stroke="#666666" points="13.5,-661 13.5,-751 121.5,-751 121.5,-661 13.5,-661"/>
</a>
</g>
</g>
<!-- Node4&#45;&gt;Node3 -->
<g id="edge3_Node000003_Node000004" class="edge">
<title>Node4&#45;&gt;Node3</title>
<g id="a_edge3_Node000003_Node000004"><a xlink:title=" ">
<path fill="none" stroke="#63b8ff" d="M67.5,-650.72C67.5,-639.46 67.5,-627.73 67.5,-616.88"/>
<polygon fill="none" stroke="#63b8ff" points="64,-650.88 67.5,-660.88 71,-650.88 64,-650.88"/>
</a>
</g>
</g>
<!-- Node5 -->
<g id="Node000005" class="node">
<title>Node5</title>
<g id="a_Node000005"><a xlink:href="group__spatialpartitioning.html#structPonca_1_1QueryInputBase" target="_top" xlink:title="Base class for queries input type.">
<polygon fill="white" stroke="transparent" points="125.5,-974 1.5,-974 1.5,-925 125.5,-925 125.5,-974"/>
<text text-anchor="start" x="6.5" y="-961.5" font-family="Helvetica,sans-Serif" font-size="10.00">Ponca::QueryInputBase</text>
<text text-anchor="start" x="61.5" y="-946.5" font-family="Helvetica,sans-Serif" font-size="10.00"> </text>
<text text-anchor="start" x="61.5" y="-931.5" font-family="Helvetica,sans-Serif" font-size="10.00"> </text>
<polygon fill="#666666" stroke="#666666" points="1.5,-956.5 1.5,-956.5 125.5,-956.5 125.5,-956.5 1.5,-956.5"/>
<polygon fill="#666666" stroke="#666666" points="1.5,-941.5 1.5,-941.5 125.5,-941.5 125.5,-941.5 1.5,-941.5"/>
<polygon fill="none" stroke="#666666" points="1.5,-925 1.5,-974 125.5,-974 125.5,-925 1.5,-925"/>
</a>
</g>
</g>
<!-- Node5&#45;&gt;Node4 -->
<g id="edge4_Node000004_Node000005" class="edge">
<title>Node5&#45;&gt;Node4</title>
<g id="a_edge4_Node000004_Node000005"><a xlink:title=" ">
<path fill="none" stroke="#63b8ff" d="M64.06,-914.74C64.77,-871.97 65.99,-798.19 66.77,-751.04"/>
<polygon fill="none" stroke="#63b8ff" points="60.56,-914.85 63.89,-924.9 67.56,-914.96 60.56,-914.85"/>
</a>
</g>
</g>
<!-- Node6 -->
<g id="Node000006" class="node">
<title>Node6</title>
<g id="a_Node000006"><a xlink:href="group__spatialpartitioning.html#structPonca_1_1QueryInput" target="_top" xlink:title="Base class for typed queries input type.">
<polygon fill="white" stroke="transparent" points="187.5,-888 79.5,-888 79.5,-798 187.5,-798 187.5,-888"/>
<text text-anchor="start" x="84.5" y="-876" font-family="Helvetica,sans-Serif" font-size="10.00">Ponca::QueryInput&lt;</text>
<text text-anchor="start" x="100" y="-865" font-family="Helvetica,sans-Serif" font-size="10.00"> InputType_ &gt;</text>
<text text-anchor="start" x="131.5" y="-850" font-family="Helvetica,sans-Serif" font-size="10.00"> </text>
<text text-anchor="start" x="89.5" y="-835" font-family="Helvetica,sans-Serif" font-size="10.00">+</text>
<text text-anchor="start" x="108.5" y="-835" font-family="Helvetica,sans-Serif" font-size="10.00">QueryInput()</text>
<text text-anchor="start" x="89.5" y="-820" font-family="Helvetica,sans-Serif" font-size="10.00">+</text>
<text text-anchor="start" x="108.5" y="-820" font-family="Helvetica,sans-Serif" font-size="10.00">input()</text>
<text text-anchor="start" x="89.5" y="-805" font-family="Helvetica,sans-Serif" font-size="10.00">#</text>
<text text-anchor="start" x="108.5" y="-805" font-family="Helvetica,sans-Serif" font-size="10.00">editInput()</text>
<polygon fill="#666666" stroke="#666666" points="79.5,-860 79.5,-860 187.5,-860 187.5,-860 79.5,-860"/>
<polygon fill="#666666" stroke="#666666" points="79.5,-845 79.5,-845 187.5,-845 187.5,-845 79.5,-845"/>
<polygon fill="none" stroke="#666666" points="79.5,-798 79.5,-888 187.5,-888 187.5,-798 79.5,-798"/>
</a>
</g>
</g>
<!-- Node5&#45;&gt;Node6 -->
<g id="edge6_Node000006_Node000005" class="edge">
<title>Node5&#45;&gt;Node6</title>
<g id="a_edge6_Node000006_Node000005"><a xlink:title=" ">
<path fill="none" stroke="#63b8ff" d="M85.1,-916.26C91.04,-907.39 97.59,-897.6 103.91,-888.18"/>
<polygon fill="none" stroke="#63b8ff" points="82.04,-914.53 79.38,-924.79 87.86,-918.43 82.04,-914.53"/>
</a>
</g>
</g>
<!-- Node6&#45;&gt;Node4 -->
<g id="edge5_Node000004_Node000006" class="edge">
<title>Node6&#45;&gt;Node4</title>
<g id="a_edge5_Node000004_Node000006"><a xlink:title=" ">
<path fill="none" stroke="orange" d="M107.35,-788.52C101.32,-776.19 94.97,-763.2 89.16,-751.3"/>
<polygon fill="orange" stroke="orange" points="104.35,-790.35 111.89,-797.8 110.64,-787.27 104.35,-790.35"/>
</a>
</g>
<text text-anchor="middle" x="129" y="-772" font-family="Helvetica,sans-Serif" font-size="10.00" fill="grey"> &lt; Index &gt;</text>
</g>
<!-- Node7 -->
<g id="Node000007" class="node">
<title>Node7</title>
<g id="a_Node000007"><a xlink:href="group__spatialpartitioning.html#structPonca_1_1QueryOutputIsKNearest" target="_top" xlink:title="Base class for knearest queries.">
<polygon fill="white" stroke="transparent" points="314,-624 153,-624 153,-519 314,-519 314,-624"/>
<text text-anchor="start" x="158.5" y="-611.5" font-family="Helvetica,sans-Serif" font-size="10.00">Ponca::QueryOutputIsKNearest</text>
<text text-anchor="start" x="191" y="-600.5" font-family="Helvetica,sans-Serif" font-size="10.00">&lt; Index, Scalar &gt;</text>
<text text-anchor="start" x="158" y="-585.5" font-family="Helvetica,sans-Serif" font-size="10.00">#</text>
<text text-anchor="start" x="171.5" y="-585.5" font-family="Helvetica,sans-Serif" font-size="10.00">m_queue</text>
<text text-anchor="start" x="158" y="-570.5" font-family="Helvetica,sans-Serif" font-size="10.00">+</text>
<text text-anchor="start" x="171.5" y="-570.5" font-family="Helvetica,sans-Serif" font-size="10.00">QueryOutputIsKNearest()</text>
<text text-anchor="start" x="158" y="-555.5" font-family="Helvetica,sans-Serif" font-size="10.00">+</text>
<text text-anchor="start" x="171.5" y="-555.5" font-family="Helvetica,sans-Serif" font-size="10.00">queue()</text>
<text text-anchor="start" x="158" y="-540.5" font-family="Helvetica,sans-Serif" font-size="10.00">#</text>
<text text-anchor="start" x="171.5" y="-540.5" font-family="Helvetica,sans-Serif" font-size="10.00">reset()</text>
<text text-anchor="start" x="158" y="-525.5" font-family="Helvetica,sans-Serif" font-size="10.00">#</text>
<text text-anchor="start" x="171.5" y="-525.5" font-family="Helvetica,sans-Serif" font-size="10.00">descentDistanceThreshold()</text>
<polygon fill="#666666" stroke="#666666" points="153.5,-595.5 153.5,-595.5 314.5,-595.5 314.5,-595.5 153.5,-595.5"/>
<polygon fill="#666666" stroke="#666666" points="153.5,-580.5 153.5,-580.5 169.5,-580.5 169.5,-580.5 153.5,-580.5"/>
<polygon fill="#666666" stroke="#666666" points="169.5,-580.5 169.5,-580.5 314.5,-580.5 314.5,-580.5 169.5,-580.5"/>
<polygon fill="none" stroke="#666666" points="153,-519 153,-624 314,-624 314,-519 153,-519"/>
</a>
</g>
</g>
<!-- Node7&#45;&gt;Node2 -->
<g id="edge7_Node000002_Node000007" class="edge">
<title>Node7&#45;&gt;Node2</title>
<g id="a_edge7_Node000002_Node000007"><a xlink:title=" ">
<path fill="none" stroke="#63b8ff" d="M233.5,-508.6C233.5,-489.07 233.5,-467.96 233.5,-450.15"/>
<polygon fill="none" stroke="#63b8ff" points="230,-508.64 233.5,-518.64 237,-508.64 230,-508.64"/>
</a>
</g>
</g>
<!-- Node8 -->
<g id="Node000008" class="node">
<title>Node8</title>
<g id="a_Node000008"><a xlink:href="group__spatialpartitioning.html#structPonca_1_1QueryOutputBase" target="_top" xlink:title="Base class for queries output type.">
<polygon fill="white" stroke="transparent" points="299.5,-730.5 167.5,-730.5 167.5,-681.5 299.5,-681.5 299.5,-730.5"/>
<text text-anchor="start" x="172.5" y="-718" font-family="Helvetica,sans-Serif" font-size="10.00">Ponca::QueryOutputBase</text>
<text text-anchor="start" x="231.5" y="-703" font-family="Helvetica,sans-Serif" font-size="10.00"> </text>
<text text-anchor="start" x="231.5" y="-688" font-family="Helvetica,sans-Serif" font-size="10.00"> </text>
<polygon fill="#666666" stroke="#666666" points="167.5,-713 167.5,-713 299.5,-713 299.5,-713 167.5,-713"/>
<polygon fill="#666666" stroke="#666666" points="167.5,-698 167.5,-698 299.5,-698 299.5,-698 167.5,-698"/>
<polygon fill="none" stroke="#666666" points="167.5,-681.5 167.5,-730.5 299.5,-730.5 299.5,-681.5 167.5,-681.5"/>
</a>
</g>
</g>
<!-- Node8&#45;&gt;Node7 -->
<g id="edge8_Node000007_Node000008" class="edge">
<title>Node8&#45;&gt;Node7</title>
<g id="a_edge8_Node000007_Node000008"><a xlink:title=" ">
<path fill="none" stroke="#63b8ff" d="M233.5,-671.01C233.5,-656.8 233.5,-639.96 233.5,-624.26"/>
<polygon fill="none" stroke="#63b8ff" points="230,-671.31 233.5,-681.31 237,-671.31 230,-671.31"/>
</a>
</g>
</g>
<!-- Node9 -->
<g id="Node000009" class="node">
<title>Node9</title>
<g id="a_Node000009"><a xlink:href="group__spatialpartitioning.html#structPonca_1_1Query" target="_top" xlink:title=" ">
<polygon fill="white" stroke="transparent" points="443,-609 332,-609 332,-534 443,-534 443,-609"/>
<text text-anchor="start" x="337.5" y="-596.5" font-family="Helvetica,sans-Serif" font-size="10.00">Ponca::Query&lt; Input</text>
<text text-anchor="start" x="357.5" y="-585.5" font-family="Helvetica,sans-Serif" font-size="10.00">_, Output_ &gt;</text>
<text text-anchor="start" x="386" y="-570.5" font-family="Helvetica,sans-Serif" font-size="10.00"> </text>
<text text-anchor="start" x="349.5" y="-555.5" font-family="Helvetica,sans-Serif" font-size="10.00">+</text>
<text text-anchor="start" x="375.5" y="-555.5" font-family="Helvetica,sans-Serif" font-size="10.00">Query()</text>
<text text-anchor="start" x="349.5" y="-540.5" font-family="Helvetica,sans-Serif" font-size="10.00">+</text>
<text text-anchor="start" x="375.5" y="-540.5" font-family="Helvetica,sans-Serif" font-size="10.00">Query()</text>
<polygon fill="#bfbfbf" stroke="#bfbfbf" points="332.5,-580.5 332.5,-580.5 443.5,-580.5 443.5,-580.5 332.5,-580.5"/>
<polygon fill="#bfbfbf" stroke="#bfbfbf" points="332.5,-565.5 332.5,-565.5 443.5,-565.5 443.5,-565.5 332.5,-565.5"/>
<polygon fill="none" stroke="#bfbfbf" points="332,-534 332,-609 443,-609 443,-534 332,-534"/>
</a>
</g>
</g>
<!-- Node9&#45;&gt;Node2 -->
<g id="edge9_Node000002_Node000009" class="edge">
<title>Node9&#45;&gt;Node2</title>
<g id="a_edge9_Node000002_Node000009"><a xlink:title=" ">
<path fill="none" stroke="orange" d="M345.46,-526.14C323.03,-502.47 295.58,-473.51 273.47,-450.18"/>
<polygon fill="orange" stroke="orange" points="343.14,-528.78 352.56,-533.63 348.22,-523.96 343.14,-528.78"/>
</a>
</g>
<text text-anchor="start" x="320.5" y="-493" font-family="Helvetica,sans-Serif" font-size="10.00" fill="grey"> &lt; QueryInputIsIndex</text>
<text text-anchor="start" x="320.5" y="-482" font-family="Helvetica,sans-Serif" font-size="10.00" fill="grey">&lt; Index &gt;, QueryOutputIsKNearest</text>
<text text-anchor="middle" x="406.5" y="-471" font-family="Helvetica,sans-Serif" font-size="10.00" fill="grey">&lt; Index, Scalar &gt; &gt;</text>
</g>
<!-- Node10 -->
<g id="Node000010" class="node">
<title>Node10</title>
<g id="a_Node000010"><a xlink:title=" ">
<polygon fill="white" stroke="transparent" points="383,-730.5 342,-730.5 342,-681.5 383,-681.5 383,-730.5"/>
<text text-anchor="start" x="347.5" y="-718" font-family="Helvetica,sans-Serif" font-size="10.00">Input_</text>
<text text-anchor="start" x="361" y="-703" font-family="Helvetica,sans-Serif" font-size="10.00"> </text>
<text text-anchor="start" x="361" y="-688" font-family="Helvetica,sans-Serif" font-size="10.00"> </text>
<polygon fill="#bfbfbf" stroke="#bfbfbf" points="342.5,-713 342.5,-713 383.5,-713 383.5,-713 342.5,-713"/>
<polygon fill="#bfbfbf" stroke="#bfbfbf" points="342.5,-698 342.5,-698 383.5,-698 383.5,-698 342.5,-698"/>
<polygon fill="none" stroke="#bfbfbf" points="342,-681.5 342,-730.5 383,-730.5 383,-681.5 342,-681.5"/>
</a>
</g>
</g>
<!-- Node10&#45;&gt;Node9 -->
<g id="edge10_Node000009_Node000010" class="edge">
<title>Node10&#45;&gt;Node9</title>
<g id="a_edge10_Node000009_Node000010"><a xlink:title=" ">
<path fill="none" stroke="#63b8ff" d="M368.85,-671.32C372.43,-652.37 376.9,-628.67 380.57,-609.23"/>
<polygon fill="none" stroke="#63b8ff" points="365.38,-670.84 366.97,-681.31 372.26,-672.13 365.38,-670.84"/>
</a>
</g>
</g>
<!-- Node11 -->
<g id="Node000011" class="node">
<title>Node11</title>
<g id="a_Node000011"><a xlink:title=" ">
<polygon fill="white" stroke="transparent" points="450,-730.5 401,-730.5 401,-681.5 450,-681.5 450,-730.5"/>
<text text-anchor="start" x="406.5" y="-718" font-family="Helvetica,sans-Serif" font-size="10.00">Output_</text>
<text text-anchor="start" x="424" y="-703" font-family="Helvetica,sans-Serif" font-size="10.00"> </text>
<text text-anchor="start" x="424" y="-688" font-family="Helvetica,sans-Serif" font-size="10.00"> </text>
<polygon fill="#bfbfbf" stroke="#bfbfbf" points="401.5,-713 401.5,-713 450.5,-713 450.5,-713 401.5,-713"/>
<polygon fill="#bfbfbf" stroke="#bfbfbf" points="401.5,-698 401.5,-698 450.5,-698 450.5,-698 401.5,-698"/>
<polygon fill="none" stroke="#bfbfbf" points="401,-681.5 401,-730.5 450,-730.5 450,-681.5 401,-681.5"/>
</a>
</g>
</g>
<!-- Node11&#45;&gt;Node9 -->
<g id="edge11_Node000009_Node000011" class="edge">
<title>Node11&#45;&gt;Node9</title>
<g id="a_edge11_Node000009_Node000011"><a xlink:title=" ">
<path fill="none" stroke="#63b8ff" d="M415.92,-671.59C410.47,-652.59 403.63,-628.76 398.04,-609.23"/>
<polygon fill="none" stroke="#63b8ff" points="412.59,-672.66 418.71,-681.31 419.31,-670.73 412.59,-672.66"/>
</a>
</g>
</g>
<!-- Node13 -->
<g id="Node000013" class="node">
<title>Node13</title>
<g id="a_Node000013"><a xlink:href="classPonca_1_1KnnGraphKNearestQuery.html" target="_top" xlink:title=" ">
<polygon fill="white" stroke="transparent" points="317.5,-90 149.5,-90 149.5,0 317.5,0 317.5,-90"/>
<text text-anchor="start" x="154.5" y="-78" font-family="Helvetica,sans-Serif" font-size="10.00">Ponca::KnnGraphKNearestQuery</text>
<text text-anchor="start" x="209" y="-67" font-family="Helvetica,sans-Serif" font-size="10.00">&lt; Traits &gt;</text>
<text text-anchor="start" x="157.5" y="-52" font-family="Helvetica,sans-Serif" font-size="10.00">#</text>
<text text-anchor="start" x="174.5" y="-52" font-family="Helvetica,sans-Serif" font-size="10.00">m_graph</text>
<text text-anchor="start" x="157.5" y="-37" font-family="Helvetica,sans-Serif" font-size="10.00">+</text>
<text text-anchor="start" x="174.5" y="-37" font-family="Helvetica,sans-Serif" font-size="10.00">KnnGraphKNearestQuery()</text>
<text text-anchor="start" x="157.5" y="-22" font-family="Helvetica,sans-Serif" font-size="10.00">+</text>
<text text-anchor="start" x="174.5" y="-22" font-family="Helvetica,sans-Serif" font-size="10.00">begin()</text>
<text text-anchor="start" x="157.5" y="-7" font-family="Helvetica,sans-Serif" font-size="10.00">+</text>
<text text-anchor="start" x="174.5" y="-7" font-family="Helvetica,sans-Serif" font-size="10.00">end()</text>
<polygon fill="#bfbfbf" stroke="#bfbfbf" points="149.5,-62 149.5,-62 317.5,-62 317.5,-62 149.5,-62"/>
<polygon fill="#bfbfbf" stroke="#bfbfbf" points="149.5,-47 149.5,-47 172.5,-47 172.5,-47 149.5,-47"/>
<polygon fill="#bfbfbf" stroke="#bfbfbf" points="172.5,-47 172.5,-47 317.5,-47 317.5,-47 172.5,-47"/>
<polygon fill="none" stroke="#bfbfbf" points="149.5,0 149.5,-90 317.5,-90 317.5,0 149.5,0"/>
</a>
</g>
</g>
<!-- Node12&#45;&gt;Node13 -->
<g id="edge13_Node000012_Node000013" class="edge">
<title>Node12&#45;&gt;Node13</title>
<g id="a_edge13_Node000012_Node000013"><a xlink:title=" ">
<path fill="none" stroke="#63b8ff" d="M233.5,-116.79C233.5,-108.02 233.5,-98.82 233.5,-90.06"/>
<polygon fill="none" stroke="#63b8ff" points="230,-116.85 233.5,-126.85 237,-116.85 230,-116.85"/>
</a>
</g>
</g>
</g>
</svg>
