<?xml version="1.0" encoding="UTF-8" standalone="no"?>
<!DOCTYPE svg PUBLIC "-//W3C//DTD SVG 1.1//EN"
 "http://www.w3.org/Graphics/SVG/1.1/DTD/svg11.dtd">
<!-- Generated by graphviz version 2.43.0 (0)
 -->
<!-- Title: Ponca::RangeIndexQuery&lt; Scalar &gt; Pages: 1 -->
<svg width="496pt" height="878pt"
 viewBox="0.00 0.00 496.00 878.00" xmlns="http://www.w3.org/2000/svg" xmlns:xlink="http://www.w3.org/1999/xlink">
<g id="graph0" class="graph" transform="scale(1 1) rotate(0) translate(4 874)">
<title>Ponca::RangeIndexQuery&lt; Scalar &gt;</title>
<!-- Node1 -->
<g id="node1" class="node">
<title>Node1</title>
<g id="a_node1"><a xlink:title="Base Query class combining QueryInputIsIndex and QueryOutputIsRange.">
<polygon fill="#999999" stroke="#666666" points="317,-273 172,-273 172,-232 317,-232 317,-273"/>
<text text-anchor="start" x="180" y="-261" font-family="Helvetica,sans-Serif" font-size="10.00">{Ponca::RangeIndexQuery</text>
<text text-anchor="middle" x="244.5" y="-250" font-family="Helvetica,sans-Serif" font-size="10.00">&lt; Scalar &gt;</text>
<text text-anchor="middle" x="244.5" y="-239" font-family="Helvetica,sans-Serif" font-size="10.00">||}</text>
</a>
</g>
</g>
<!-- Node12 -->
<g id="node12" class="node">
<title>Node12</title>
<g id="a_node12"><a xlink:href="group__spatialpartitioning.html" target="_top" xlink:title=" ">
<polygon fill="white" stroke="#666666" points="317,-185 172,-185 172,-144 317,-144 317,-185"/>
<text text-anchor="start" x="180" y="-173" font-family="Helvetica,sans-Serif" font-size="10.00">{Ponca::RangeIndexQuery</text>
<text text-anchor="middle" x="244.5" y="-162" font-family="Helvetica,sans-Serif" font-size="10.00">&lt; DataPoint::Scalar &gt;</text>
<text text-anchor="middle" x="244.5" y="-151" font-family="Helvetica,sans-Serif" font-size="10.00">||}</text>
</a>
</g>
</g>
<!-- Node1&#45;&gt;Node12 -->
<g id="edge12" class="edge">
<title>Node1&#45;&gt;Node12</title>
<path fill="none" stroke="orange" d="M244.5,-221.86C244.5,-209.76 244.5,-196.08 244.5,-185.24"/>
<polygon fill="orange" stroke="orange" points="241,-221.99 244.5,-231.99 248,-221.99 241,-221.99"/>
<text text-anchor="middle" x="299.5" y="-206" font-family="Helvetica,sans-Serif" font-size="10.00"> &lt; DataPoint::Scalar &gt;</text>
</g>
<!-- Node2 -->
<g id="node2" class="node">
<title>Node2</title>
<g id="a_node2"><a xlink:href="group__spatialpartitioning.html" target="_top" xlink:title=" ">
<polygon fill="white" stroke="#bfbfbf" points="324,-384 165,-384 165,-310 324,-310 324,-384"/>
<text text-anchor="start" x="173" y="-372" font-family="Helvetica,sans-Serif" font-size="10.00">{Ponca::Query&lt; QueryInput</text>
<text text-anchor="start" x="173" y="-361" font-family="Helvetica,sans-Serif" font-size="10.00">IsIndex, QueryOutputIsRange</text>
<text text-anchor="middle" x="244.5" y="-350" font-family="Helvetica,sans-Serif" font-size="10.00">&lt; Scalar &gt; &gt;</text>
<text text-anchor="start" x="173" y="-339" font-family="Helvetica,sans-Serif" font-size="10.00">||+ Query()</text>
<text text-anchor="start" x="173" y="-328" font-family="Helvetica,sans-Serif" font-size="10.00">+ Query()</text>
<text text-anchor="middle" x="244.5" y="-317" font-family="Helvetica,sans-Serif" font-size="10.00">}</text>
</a>
</g>
</g>
<!-- Node2&#45;&gt;Node1 -->
<g id="edge1" class="edge">
<title>Node2&#45;&gt;Node1</title>
<path fill="none" stroke="#63b8ff" d="M244.5,-299.8C244.5,-290.35 244.5,-280.9 244.5,-273.03"/>
<polygon fill="none" stroke="#63b8ff" points="241,-299.97 244.5,-309.97 248,-299.97 241,-299.97"/>
</g>
<!-- Node3 -->
<g id="node3" class="node">
<title>Node3</title>
<g id="a_node3"><a xlink:href="group__spatialpartitioning.html#structPonca_1_1QueryInputIsIndex" target="_top" xlink:title="Base class for queries storing points.">
<polygon fill="white" stroke="#666666" points="147,-532.5 0,-532.5 0,-491.5 147,-491.5 147,-532.5"/>
<text text-anchor="middle" x="73.5" y="-520.5" font-family="Helvetica,sans-Serif" font-size="10.00">{Ponca::QueryInputIsIndex</text>
<text text-anchor="start" x="8" y="-509.5" font-family="Helvetica,sans-Serif" font-size="10.00">||+ QueryInputIsIndex()</text>
<text text-anchor="middle" x="73.5" y="-498.5" font-family="Helvetica,sans-Serif" font-size="10.00">}</text>
</a>
</g>
</g>
<!-- Node3&#45;&gt;Node2 -->
<g id="edge2" class="edge">
<title>Node3&#45;&gt;Node2</title>
<path fill="none" stroke="#63b8ff" d="M101.4,-484.41C130.03,-457.11 174.78,-414.46 206.61,-384.12"/>
<polygon fill="none" stroke="#63b8ff" points="98.95,-481.91 94.13,-491.34 103.78,-486.97 98.95,-481.91"/>
</g>
<!-- Node4 -->
<g id="node4" class="node">
<title>Node4</title>
<g id="a_node4"><a xlink:href="group__spatialpartitioning.html" target="_top" xlink:title=" ">
<polygon fill="white" stroke="#666666" points="133.5,-682 13.5,-682 13.5,-608 133.5,-608 133.5,-682"/>
<text text-anchor="start" x="21.5" y="-670" font-family="Helvetica,sans-Serif" font-size="10.00">{Ponca::QueryInput&lt;</text>
<text text-anchor="middle" x="73.5" y="-659" font-family="Helvetica,sans-Serif" font-size="10.00"> int &gt;</text>
<text text-anchor="start" x="21.5" y="-648" font-family="Helvetica,sans-Serif" font-size="10.00">||+ QueryInput()</text>
<text text-anchor="start" x="21.5" y="-637" font-family="Helvetica,sans-Serif" font-size="10.00">+ input()</text>
<text text-anchor="start" x="21.5" y="-626" font-family="Helvetica,sans-Serif" font-size="10.00"># editInput()</text>
<text text-anchor="middle" x="73.5" y="-615" font-family="Helvetica,sans-Serif" font-size="10.00">}</text>
</a>
</g>
</g>
<!-- Node4&#45;&gt;Node3 -->
<g id="edge3" class="edge">
<title>Node4&#45;&gt;Node3</title>
<path fill="none" stroke="#63b8ff" d="M73.5,-597.58C73.5,-575.36 73.5,-549.92 73.5,-532.79"/>
<polygon fill="none" stroke="#63b8ff" points="70,-597.86 73.5,-607.86 77,-597.86 70,-597.86"/>
</g>
<!-- Node5 -->
<g id="node5" class="node">
<title>Node5</title>
<g id="a_node5"><a xlink:href="group__spatialpartitioning.html#structPonca_1_1QueryInputBase" target="_top" xlink:title="Base class for queries input type.">
<polygon fill="white" stroke="#666666" points="137.5,-870 1.5,-870 1.5,-840 137.5,-840 137.5,-870"/>
<text text-anchor="middle" x="69.5" y="-858" font-family="Helvetica,sans-Serif" font-size="10.00">{Ponca::QueryInputBase</text>
<text text-anchor="middle" x="69.5" y="-847" font-family="Helvetica,sans-Serif" font-size="10.00">||}</text>
</a>
</g>
</g>
<!-- Node5&#45;&gt;Node4 -->
<g id="edge4" class="edge">
<title>Node5&#45;&gt;Node4</title>
<path fill="none" stroke="#63b8ff" d="M69.97,-829.5C70.67,-793.1 71.99,-724.49 72.8,-682.26"/>
<polygon fill="none" stroke="#63b8ff" points="66.47,-829.64 69.77,-839.7 73.47,-829.77 66.47,-829.64"/>
</g>
<!-- Node6 -->
<g id="node6" class="node">
<title>Node6</title>
<g id="a_node6"><a xlink:href="group__spatialpartitioning.html#structPonca_1_1QueryInput" target="_top" xlink:title="Base class for typed queries input type.">
<polygon fill="white" stroke="#666666" points="205.5,-803 85.5,-803 85.5,-729 205.5,-729 205.5,-803"/>
<text text-anchor="start" x="93.5" y="-791" font-family="Helvetica,sans-Serif" font-size="10.00">{Ponca::QueryInput&lt;</text>
<text text-anchor="middle" x="145.5" y="-780" font-family="Helvetica,sans-Serif" font-size="10.00"> InputType_ &gt;</text>
<text text-anchor="start" x="93.5" y="-769" font-family="Helvetica,sans-Serif" font-size="10.00">||+ QueryInput()</text>
<text text-anchor="start" x="93.5" y="-758" font-family="Helvetica,sans-Serif" font-size="10.00">+ input()</text>
<text text-anchor="start" x="93.5" y="-747" font-family="Helvetica,sans-Serif" font-size="10.00"># editInput()</text>
<text text-anchor="middle" x="145.5" y="-736" font-family="Helvetica,sans-Serif" font-size="10.00">}</text>
</a>
</g>
</g>
<!-- Node5&#45;&gt;Node6 -->
<g id="edge6" class="edge">
<title>Node5&#45;&gt;Node6</title>
<path fill="none" stroke="#63b8ff" d="M88.65,-832.08C96.3,-823.32 105.33,-812.99 113.91,-803.17"/>
<polygon fill="none" stroke="#63b8ff" points="85.99,-829.8 82.05,-839.63 91.26,-834.41 85.99,-829.8"/>
</g>
<!-- Node6&#45;&gt;Node4 -->
<g id="edge5" class="edge">
<title>Node6&#45;&gt;Node4</title>
<path fill="none" stroke="orange" d="M118.33,-720.09C110.78,-707.61 102.68,-694.23 95.47,-682.32"/>
<polygon fill="orange" stroke="orange" points="115.53,-722.23 123.7,-728.97 121.52,-718.61 115.53,-722.23"/>
<text text-anchor="middle" x="132" y="-703" font-family="Helvetica,sans-Serif" font-size="10.00"> &lt; int &gt;</text>
</g>
<!-- Node7 -->
<g id="node7" class="node">
<title>Node7</title>
<g id="a_node7"><a xlink:href="group__spatialpartitioning.html#structPonca_1_1QueryOutputIsRange" target="_top" xlink:title="Base class for range queries.">
<polygon fill="white" stroke="#666666" points="324,-571 165,-571 165,-453 324,-453 324,-571"/>
<text text-anchor="start" x="173" y="-559" font-family="Helvetica,sans-Serif" font-size="10.00">{Ponca::QueryOutputIsRange</text>
<text text-anchor="middle" x="244.5" y="-548" font-family="Helvetica,sans-Serif" font-size="10.00">&lt; Scalar &gt;</text>
<text text-anchor="start" x="173" y="-537" font-family="Helvetica,sans-Serif" font-size="10.00">|# m_squared_radius</text>
<text text-anchor="start" x="173" y="-526" font-family="Helvetica,sans-Serif" font-size="10.00">|+ QueryOutputIsRange()</text>
<text text-anchor="start" x="173" y="-515" font-family="Helvetica,sans-Serif" font-size="10.00">+ radius()</text>
<text text-anchor="start" x="173" y="-504" font-family="Helvetica,sans-Serif" font-size="10.00">+ squared_radius()</text>
<text text-anchor="start" x="173" y="-493" font-family="Helvetica,sans-Serif" font-size="10.00">+ set_radius()</text>
<text text-anchor="start" x="173" y="-482" font-family="Helvetica,sans-Serif" font-size="10.00">+ set_squared_radius()</text>
<text text-anchor="start" x="173" y="-471" font-family="Helvetica,sans-Serif" font-size="10.00"># reset()</text>
<text text-anchor="middle" x="244.5" y="-460" font-family="Helvetica,sans-Serif" font-size="10.00">}</text>
</a>
</g>
</g>
<!-- Node7&#45;&gt;Node2 -->
<g id="edge7" class="edge">
<title>Node7&#45;&gt;Node2</title>
<path fill="none" stroke="#63b8ff" d="M244.5,-442.57C244.5,-422.52 244.5,-401.39 244.5,-384.21"/>
<polygon fill="none" stroke="#63b8ff" points="241,-442.61 244.5,-452.61 248,-442.61 241,-442.61"/>
</g>
<!-- Node8 -->
<g id="node8" class="node">
<title>Node8</title>
<g id="a_node8"><a xlink:href="group__spatialpartitioning.html#structPonca_1_1QueryOutputBase" target="_top" xlink:title="Base class for queries output type.">
<polygon fill="white" stroke="#666666" points="316.5,-660 172.5,-660 172.5,-630 316.5,-630 316.5,-660"/>
<text text-anchor="middle" x="244.5" y="-648" font-family="Helvetica,sans-Serif" font-size="10.00">{Ponca::QueryOutputBase</text>
<text text-anchor="middle" x="244.5" y="-637" font-family="Helvetica,sans-Serif" font-size="10.00">||}</text>
</a>
</g>
</g>
<!-- Node8&#45;&gt;Node7 -->
<g id="edge8" class="edge">
<title>Node8&#45;&gt;Node7</title>
<path fill="none" stroke="#63b8ff" d="M244.5,-619.93C244.5,-606.18 244.5,-588.29 244.5,-571.1"/>
<polygon fill="none" stroke="#63b8ff" points="241,-619.98 244.5,-629.98 248,-619.98 241,-619.98"/>
</g>
<!-- Node9 -->
<g id="node9" class="node">
<title>Node9</title>
<g id="a_node9"><a xlink:href="group__spatialpartitioning.html#structPonca_1_1Query" target="_top" xlink:title=" ">
<polygon fill="white" stroke="#bfbfbf" points="465,-543.5 342,-543.5 342,-480.5 465,-480.5 465,-543.5"/>
<text text-anchor="start" x="350" y="-531.5" font-family="Helvetica,sans-Serif" font-size="10.00">{Ponca::Query&lt; Input</text>
<text text-anchor="middle" x="403.5" y="-520.5" font-family="Helvetica,sans-Serif" font-size="10.00">_, Output_ &gt;</text>
<text text-anchor="start" x="350" y="-509.5" font-family="Helvetica,sans-Serif" font-size="10.00">||+ Query()</text>
<text text-anchor="start" x="350" y="-498.5" font-family="Helvetica,sans-Serif" font-size="10.00">+ Query()</text>
<text text-anchor="middle" x="403.5" y="-487.5" font-family="Helvetica,sans-Serif" font-size="10.00">}</text>
</a>
</g>
</g>
<!-- Node9&#45;&gt;Node2 -->
<g id="edge9" class="edge">
<title>Node9&#45;&gt;Node2</title>
<path fill="none" stroke="orange" d="M366.47,-473.04C340.35,-446.26 305.56,-410.6 279.82,-384.21"/>
<polygon fill="orange" stroke="orange" points="364.11,-475.63 373.59,-480.34 369.12,-470.74 364.11,-475.63"/>
<text text-anchor="start" x="329.5" y="-427" font-family="Helvetica,sans-Serif" font-size="10.00"> &lt; QueryInputIsIndex,</text>
<text text-anchor="start" x="329.5" y="-416" font-family="Helvetica,sans-Serif" font-size="10.00"> QueryOutputIsRange</text>
<text text-anchor="middle" x="383" y="-405" font-family="Helvetica,sans-Serif" font-size="10.00">&lt; Scalar &gt; &gt;</text>
</g>
<!-- Node10 -->
<g id="node10" class="node">
<title>Node10</title>
<g id="a_node10"><a xlink:title=" ">
<polygon fill="white" stroke="#bfbfbf" points="409,-660 356,-660 356,-630 409,-630 409,-660"/>
<text text-anchor="middle" x="382.5" y="-648" font-family="Helvetica,sans-Serif" font-size="10.00">{Input_</text>
<text text-anchor="middle" x="382.5" y="-637" font-family="Helvetica,sans-Serif" font-size="10.00">||}</text>
</a>
</g>
</g>
<!-- Node10&#45;&gt;Node9 -->
<g id="edge10" class="edge">
<title>Node10&#45;&gt;Node9</title>
<path fill="none" stroke="#63b8ff" d="M386.34,-620.06C389.78,-598.61 394.84,-567.01 398.58,-543.7"/>
<polygon fill="none" stroke="#63b8ff" points="382.87,-619.55 384.75,-629.98 389.79,-620.66 382.87,-619.55"/>
</g>
<!-- Node11 -->
<g id="node11" class="node">
<title>Node11</title>
<g id="a_node11"><a xlink:title=" ">
<polygon fill="white" stroke="#bfbfbf" points="488,-660 427,-660 427,-630 488,-630 488,-660"/>
<text text-anchor="middle" x="457.5" y="-648" font-family="Helvetica,sans-Serif" font-size="10.00">{Output_</text>
<text text-anchor="middle" x="457.5" y="-637" font-family="Helvetica,sans-Serif" font-size="10.00">||}</text>
</a>
</g>
</g>
<!-- Node11&#45;&gt;Node9 -->
<g id="edge11" class="edge">
<title>Node11&#45;&gt;Node9</title>
<path fill="none" stroke="#63b8ff" d="M447.87,-620.65C439.03,-599.18 425.85,-567.23 416.16,-543.7"/>
<polygon fill="none" stroke="#63b8ff" points="444.67,-622.07 451.72,-629.98 451.15,-619.4 444.67,-622.07"/>
</g>
<!-- Node13 -->
<g id="node13" class="node">
<title>Node13</title>
<g id="a_node13"><a xlink:href="classPonca_1_1KdTreeRangeIndexQuery.html" target="_top" xlink:title=" ">
<polygon fill="white" stroke="#bfbfbf" points="333.5,-107 155.5,-107 155.5,0 333.5,0 333.5,-107"/>
<text text-anchor="start" x="163.5" y="-95" font-family="Helvetica,sans-Serif" font-size="10.00">{Ponca::KdTreeRangeIndexQuery</text>
<text text-anchor="middle" x="244.5" y="-84" font-family="Helvetica,sans-Serif" font-size="10.00">&lt; DataPoint &gt;</text>
<text text-anchor="start" x="163.5" y="-73" font-family="Helvetica,sans-Serif" font-size="10.00">|# Iterator</text>
<text text-anchor="start" x="163.5" y="-62" font-family="Helvetica,sans-Serif" font-size="10.00">|+ KdTreeRangeIndexQuery()</text>
<text text-anchor="start" x="163.5" y="-51" font-family="Helvetica,sans-Serif" font-size="10.00">+ begin()</text>
<text text-anchor="start" x="163.5" y="-40" font-family="Helvetica,sans-Serif" font-size="10.00">+ end()</text>
<text text-anchor="start" x="163.5" y="-29" font-family="Helvetica,sans-Serif" font-size="10.00"># initialize()</text>
<text text-anchor="start" x="163.5" y="-18" font-family="Helvetica,sans-Serif" font-size="10.00"># advance()</text>
<text text-anchor="middle" x="244.5" y="-7" font-family="Helvetica,sans-Serif" font-size="10.00">}</text>
</a>
</g>
</g>
<!-- Node12&#45;&gt;Node13 -->
<g id="edge13" class="edge">
<title>Node12&#45;&gt;Node13</title>
<path fill="none" stroke="#63b8ff" d="M244.5,-133.63C244.5,-125.45 244.5,-116.33 244.5,-107.28"/>
<polygon fill="none" stroke="#63b8ff" points="241,-133.76 244.5,-143.76 248,-133.76 241,-133.76"/>
</g>
</g>
</svg>
