<?xml version="1.0" encoding="UTF-8" standalone="no"?>
<!DOCTYPE svg PUBLIC "-//W3C//DTD SVG 1.1//EN"
 "http://www.w3.org/Graphics/SVG/1.1/DTD/svg11.dtd">
<!-- Generated by graphviz version 2.43.0 (0)
 -->
<!-- Title: Ponca::WeingartenCurvatureEstimator&lt; DataPoint, _NFilter, T &gt; Pages: 1 -->
<svg width="157pt" height="406pt"
 viewBox="0.00 0.00 157.00 406.00" xmlns="http://www.w3.org/2000/svg" xmlns:xlink="http://www.w3.org/1999/xlink">

<svg id="main" version="1.1" xmlns="http://www.w3.org/2000/svg" xmlns:xlink="http://www.w3.org/1999/xlink" xml:space="preserve" onload="init(evt)">
<style type="text/css"><![CDATA[
.node, .edge {opacity: 0.7;}
.node.selected, .edge.selected {opacity: 1;}
.edge:hover path { stroke: red; }
.edge:hover polygon { stroke: red; fill: red; }
]]></style>
<script type="application/ecmascript" xlink:href="svg.min.js"/>
<svg id="graph" class="graph">
<g id="graph0" class="graph" transform="scale(1 1) rotate(0) translate(4 402)">
<title>Ponca::WeingartenCurvatureEstimator&lt; DataPoint, _NFilter, T &gt;</title>
<!-- Node1 -->
<g id="Node000001" class="node">
<title>Node1</title>
<g id="a_Node000001"><a xlink:title="Compute principal curvatures from a base class providing fundamental forms.">
<polygon fill="#999999" stroke="transparent" points="149,-116 0,-116 0,0 149,0 149,-116"/>
<text text-anchor="start" x="5.5" y="-104" font-family="Helvetica,sans-Serif" font-size="10.00">Ponca::WeingartenCurvature</text>
<text text-anchor="start" x="5.5" y="-93" font-family="Helvetica,sans-Serif" font-size="10.00">Estimator&lt; DataPoint, </text>
<text text-anchor="start" x="44.5" y="-82" font-family="Helvetica,sans-Serif" font-size="10.00">_NFilter, T &gt;</text>
<text text-anchor="start" x="73" y="-67" font-family="Helvetica,sans-Serif" font-size="10.00"> </text>
<text text-anchor="start" x="15" y="-52" font-family="Helvetica,sans-Serif" font-size="10.00">+</text>
<text text-anchor="start" x="38.5" y="-52" font-family="Helvetica,sans-Serif" font-size="10.00">meanCurvature()</text>
<text text-anchor="start" x="15" y="-37" font-family="Helvetica,sans-Serif" font-size="10.00">+</text>
<text text-anchor="start" x="38.5" y="-37" font-family="Helvetica,sans-Serif" font-size="10.00">meanCurvature()</text>
<text text-anchor="start" x="15" y="-22" font-family="Helvetica,sans-Serif" font-size="10.00">+</text>
<text text-anchor="start" x="38.5" y="-22" font-family="Helvetica,sans-Serif" font-size="10.00">curvatureTensor()</text>
<text text-anchor="start" x="15" y="-7" font-family="Helvetica,sans-Serif" font-size="10.00">+</text>
<text text-anchor="start" x="38.5" y="-7" font-family="Helvetica,sans-Serif" font-size="10.00">curvatureTensor()</text>
<polygon fill="#666666" stroke="#666666" points="0.5,-77 0.5,-77 149.5,-77 149.5,-77 0.5,-77"/>
<polygon fill="#666666" stroke="#666666" points="0.5,-62 0.5,-62 149.5,-62 149.5,-62 0.5,-62"/>
<polygon fill="none" stroke="#666666" points="0,0 0,-116 149,-116 149,0 0,0"/>
</a>
</g>
</g>
<!-- Node2 -->
<g id="Node000002" class="node">
<title>Node2</title>
<g id="a_Node000002"><a xlink:href="classPonca_1_1internal_1_1WeingartenCurvatureEstimatorBase.html" target="_top" xlink:title="Compute principal curvatures from a base class providing fundamental forms.">
<polygon fill="white" stroke="transparent" points="147,-313 2,-313 2,-152 147,-152 147,-313"/>
<text text-anchor="start" x="7.5" y="-300.5" font-family="Helvetica,sans-Serif" font-size="10.00">Ponca::internal::Weingarten</text>
<text text-anchor="start" x="7.5" y="-289.5" font-family="Helvetica,sans-Serif" font-size="10.00">CurvatureEstimatorBase&lt;</text>
<text text-anchor="start" x="16" y="-278.5" font-family="Helvetica,sans-Serif" font-size="10.00"> DataPoint, _NFilter, T &gt;</text>
<text text-anchor="start" x="73" y="-263.5" font-family="Helvetica,sans-Serif" font-size="10.00"> </text>
<text text-anchor="start" x="12" y="-248.5" font-family="Helvetica,sans-Serif" font-size="10.00">+</text>
<text text-anchor="start" x="30.5" y="-248.5" font-family="Helvetica,sans-Serif" font-size="10.00">finalize()</text>
<text text-anchor="start" x="12" y="-233.5" font-family="Helvetica,sans-Serif" font-size="10.00">+</text>
<text text-anchor="start" x="30.5" y="-233.5" font-family="Helvetica,sans-Serif" font-size="10.00">kmin()</text>
<text text-anchor="start" x="12" y="-218.5" font-family="Helvetica,sans-Serif" font-size="10.00">+</text>
<text text-anchor="start" x="30.5" y="-218.5" font-family="Helvetica,sans-Serif" font-size="10.00">kmax()</text>
<text text-anchor="start" x="12" y="-203.5" font-family="Helvetica,sans-Serif" font-size="10.00">+</text>
<text text-anchor="start" x="30.5" y="-203.5" font-family="Helvetica,sans-Serif" font-size="10.00">kminDirection()</text>
<text text-anchor="start" x="12" y="-188.5" font-family="Helvetica,sans-Serif" font-size="10.00">+</text>
<text text-anchor="start" x="30.5" y="-188.5" font-family="Helvetica,sans-Serif" font-size="10.00">kmaxDirection()</text>
<text text-anchor="start" x="12" y="-173.5" font-family="Helvetica,sans-Serif" font-size="10.00">+</text>
<text text-anchor="start" x="30.5" y="-173.5" font-family="Helvetica,sans-Serif" font-size="10.00">kMean()</text>
<text text-anchor="start" x="12" y="-158.5" font-family="Helvetica,sans-Serif" font-size="10.00">+</text>
<text text-anchor="start" x="30.5" y="-158.5" font-family="Helvetica,sans-Serif" font-size="10.00">GaussianCurvature()</text>
<polygon fill="#666666" stroke="#666666" points="2.5,-273.5 2.5,-273.5 147.5,-273.5 147.5,-273.5 2.5,-273.5"/>
<polygon fill="#666666" stroke="#666666" points="2.5,-258.5 2.5,-258.5 147.5,-258.5 147.5,-258.5 2.5,-258.5"/>
<polygon fill="none" stroke="#666666" points="2,-152 2,-313 147,-313 147,-152 2,-152"/>
</a>
</g>
</g>
<!-- Node2&#45;&gt;Node1 -->
<g id="edge1_Node000001_Node000002" class="edge">
<title>Node2&#45;&gt;Node1</title>
<g id="a_edge1_Node000001_Node000002"><a xlink:title=" ">
<path fill="none" stroke="#63b8ff" d="M74.5,-141.66C74.5,-133.02 74.5,-124.42 74.5,-116.22"/>
<polygon fill="none" stroke="#63b8ff" points="71,-141.81 74.5,-151.81 78,-141.81 71,-141.81"/>
</a>
</g>
</g>
<!-- Node3 -->
<g id="Node000003" class="node">
<title>Node3</title>
<g id="a_Node000003"><a xlink:title=" ">
<polygon fill="white" stroke="transparent" points="83,-398 66,-398 66,-349 83,-349 83,-398"/>
<text text-anchor="start" x="71.5" y="-385.5" font-family="Helvetica,sans-Serif" font-size="10.00">T</text>
<text text-anchor="start" x="73" y="-370.5" font-family="Helvetica,sans-Serif" font-size="10.00"> </text>
<text text-anchor="start" x="73" y="-355.5" font-family="Helvetica,sans-Serif" font-size="10.00"> </text>
<polygon fill="#bfbfbf" stroke="#bfbfbf" points="66.5,-380.5 66.5,-380.5 83.5,-380.5 83.5,-380.5 66.5,-380.5"/>
<polygon fill="#bfbfbf" stroke="#bfbfbf" points="66.5,-365.5 66.5,-365.5 83.5,-365.5 83.5,-365.5 66.5,-365.5"/>
<polygon fill="none" stroke="#bfbfbf" points="66,-349 66,-398 83,-398 83,-349 66,-349"/>
</a>
</g>
</g>
<!-- Node3&#45;&gt;Node2 -->
<g id="edge2_Node000002_Node000003" class="edge">
<title>Node3&#45;&gt;Node2</title>
<g id="a_edge2_Node000002_Node000003"><a xlink:title=" ">
<path fill="none" stroke="#63b8ff" d="M74.5,-338.77C74.5,-330.91 74.5,-322.2 74.5,-313.26"/>
<polygon fill="none" stroke="#63b8ff" points="71,-338.92 74.5,-348.92 78,-338.92 71,-338.92"/>
</a>
</g>
</g>
</g>
</svg>
</svg>

<style type='text/css'>
<![CDATA[
[data-mouse-over-selected='false'] { opacity: 0.7; }
[data-mouse-over-selected='true']  { opacity: 1.0; }
]]>
</style>
<script type="application/ecmascript"><![CDATA[
document.addEventListener('DOMContentLoaded', (event) => {
  highlightEdges();
  highlightAdjacentNodes();
});
]]></script>
</svg>
