<?xml version="1.0" encoding="UTF-8" standalone="no"?>
<!DOCTYPE svg PUBLIC "-//W3C//DTD SVG 1.1//EN"
 "http://www.w3.org/Graphics/SVG/1.1/DTD/svg11.dtd">
<!-- Generated by graphviz version 2.43.0 (0)
 -->
<!-- Title: Ponca::NearestIndexQuery&lt; Scalar &gt; Pages: 1 -->
<!--zoomable 970 -->
<svg id="main" version="1.1" xmlns="http://www.w3.org/2000/svg" xmlns:xlink="http://www.w3.org/1999/xlink" xml:space="preserve" onload="init(evt)">
<style type="text/css"><![CDATA[
.edge:hover path { stroke: red; }
.edge:hover polygon { stroke: red; fill: red; }
]]></style>
<script type="text/javascript"><![CDATA[
var edges = document.getElementsByTagName('g');
if (edges && edges.length) {
  for (var i=0;i<edges.length;i++) {
    if (edges[i].id.substr(0,4)=='edge') {
      edges[i].setAttribute('class','edge');
    }
  }
}
]]></script>
        <defs>
                <circle id="rim" cx="0" cy="0" r="7"/>
                <circle id="rim2" cx="0" cy="0" r="3.5"/>
                <g id="zoomPlus">
                        <use xlink:href="#rim" fill="#404040">
                                <set attributeName="fill" to="#808080" begin="zoomplus.mouseover" end="zoomplus.mouseout"/>
                        </use>
                        <path d="M-4,0h8M0,-4v8" fill="none" stroke="white" stroke-width="1.5" pointer-events="none"/>
                </g>
                <g id="zoomMin">
                        <use xlink:href="#rim" fill="#404040">
                                <set attributeName="fill" to="#808080" begin="zoomminus.mouseover" end="zoomminus.mouseout"/>
                        </use>
                        <path d="M-4,0h8" fill="none" stroke="white" stroke-width="1.5" pointer-events="none"/>
                </g>
                <g id="dirArrow">
                        <path fill="none" stroke="white" stroke-width="1.5" d="M0,-3.0v7 M-2.5,-0.5L0,-3.0L2.5,-0.5"/>
                </g>
               <g id="resetDef">
                       <use xlink:href="#rim2" fill="#404040">
                               <set attributeName="fill" to="#808080" begin="reset.mouseover" end="reset.mouseout"/>
                       </use>
               </g>
        </defs>

<script type="text/javascript">
var viewWidth = 478;
var viewHeight = 970;
var sectionId = 'dynsection-0';
</script>
<script xlink:href="svgpan.js"/>
<svg id="graph" class="graph">
<g id="viewport">
<title>Ponca::NearestIndexQuery&lt; Scalar &gt;</title>
<polygon fill="white" stroke="transparent" points="-4,4 -4,-966 474,-966 474,4 -4,4"/>
<!-- Node1 -->
<g id="node1" class="node">
<title>Node1</title>
<g id="a_node1"><a xlink:title="Base Query class combining QueryInputIsIndex and QueryOutputIsNearest.">
<polygon fill="#bfbfbf" stroke="black" points="166.5,-255.5 166.5,-323.5 312.5,-323.5 312.5,-255.5 166.5,-255.5"/>
<text text-anchor="start" x="174.5" y="-311.5" font-family="Helvetica,sans-Serif" font-size="10.00">Ponca::NearestIndexQuery</text>
<text text-anchor="middle" x="239.5" y="-300.5" font-family="Helvetica,sans-Serif" font-size="10.00">&lt; Scalar &gt;</text>
<polyline fill="none" stroke="black" points="166.5,-293.5 312.5,-293.5 "/>
<text text-anchor="middle" x="239.5" y="-281.5" font-family="Helvetica,sans-Serif" font-size="10.00"> </text>
<polyline fill="none" stroke="black" points="166.5,-274.5 312.5,-274.5 "/>
<text text-anchor="middle" x="239.5" y="-262.5" font-family="Helvetica,sans-Serif" font-size="10.00"> </text>
</a>
</g>
</g>
<!-- Node12 -->
<g id="node12" class="node">
<title>Node12</title>
<g id="a_node12"><a xlink:href="structPonca_1_1NearestIndexQuery.html" target="_top" xlink:title=" ">
<polygon fill="white" stroke="black" points="166.5,-139.5 166.5,-207.5 312.5,-207.5 312.5,-139.5 166.5,-139.5"/>
<text text-anchor="start" x="174.5" y="-195.5" font-family="Helvetica,sans-Serif" font-size="10.00">Ponca::NearestIndexQuery</text>
<text text-anchor="middle" x="239.5" y="-184.5" font-family="Helvetica,sans-Serif" font-size="10.00">&lt; DataPoint::Scalar &gt;</text>
<polyline fill="none" stroke="black" points="166.5,-177.5 312.5,-177.5 "/>
<text text-anchor="middle" x="239.5" y="-165.5" font-family="Helvetica,sans-Serif" font-size="10.00"> </text>
<polyline fill="none" stroke="black" points="166.5,-158.5 312.5,-158.5 "/>
<text text-anchor="middle" x="239.5" y="-146.5" font-family="Helvetica,sans-Serif" font-size="10.00"> </text>
</a>
</g>
</g>
<!-- Node1&#45;&gt;Node12 -->
<g id="edge12" class="edge">
<title>Node1&#45;&gt;Node12</title>
<path fill="none" stroke="orange" d="M239.5,-245.06C239.5,-232.64 239.5,-219.32 239.5,-207.62"/>
<polygon fill="orange" stroke="orange" points="236,-245.22 239.5,-255.22 243,-245.22 236,-245.22"/>
<text text-anchor="middle" x="294.5" y="-229" font-family="Helvetica,sans-Serif" font-size="10.00"> &lt; DataPoint::Scalar &gt;</text>
</g>
<!-- Node2 -->
<g id="node2" class="node">
<title>Node2</title>
<g id="a_node2"><a xlink:href="structPonca_1_1Query.html" target="_top" xlink:title=" ">
<polygon fill="white" stroke="black" points="156,-361.5 156,-451.5 323,-451.5 323,-361.5 156,-361.5"/>
<text text-anchor="start" x="164" y="-439.5" font-family="Helvetica,sans-Serif" font-size="10.00">Ponca::Query&lt; QueryInput</text>
<text text-anchor="start" x="164" y="-428.5" font-family="Helvetica,sans-Serif" font-size="10.00">IsIndex, QueryOutputIsNearest</text>
<text text-anchor="middle" x="239.5" y="-417.5" font-family="Helvetica,sans-Serif" font-size="10.00">&lt; Scalar &gt; &gt;</text>
<polyline fill="none" stroke="black" points="156,-410.5 323,-410.5 "/>
<text text-anchor="middle" x="239.5" y="-398.5" font-family="Helvetica,sans-Serif" font-size="10.00"> </text>
<polyline fill="none" stroke="black" points="156,-391.5 323,-391.5 "/>
<text text-anchor="start" x="164" y="-379.5" font-family="Helvetica,sans-Serif" font-size="10.00">+ Query()</text>
<text text-anchor="start" x="164" y="-368.5" font-family="Helvetica,sans-Serif" font-size="10.00">+ Query()</text>
</a>
</g>
</g>
<!-- Node2&#45;&gt;Node1 -->
<g id="edge1" class="edge">
<title>Node2&#45;&gt;Node1</title>
<path fill="none" stroke="midnightblue" d="M239.5,-351.23C239.5,-341.8 239.5,-332.26 239.5,-323.62"/>
<polygon fill="none" stroke="midnightblue" points="236,-351.37 239.5,-361.37 243,-351.37 236,-351.37"/>
</g>
<!-- Node3 -->
<g id="node3" class="node">
<title>Node3</title>
<g id="a_node3"><a xlink:href="structPonca_1_1QueryInputIsIndex.html" target="_top" xlink:title="Base class for queries storing points.">
<polygon fill="white" stroke="black" points="0,-543.5 0,-600.5 141,-600.5 141,-543.5 0,-543.5"/>
<text text-anchor="middle" x="70.5" y="-588.5" font-family="Helvetica,sans-Serif" font-size="10.00">Ponca::QueryInputIsIndex</text>
<polyline fill="none" stroke="black" points="0,-581.5 141,-581.5 "/>
<text text-anchor="middle" x="70.5" y="-569.5" font-family="Helvetica,sans-Serif" font-size="10.00"> </text>
<polyline fill="none" stroke="black" points="0,-562.5 141,-562.5 "/>
<text text-anchor="start" x="8" y="-550.5" font-family="Helvetica,sans-Serif" font-size="10.00">+ QueryInputIsIndex()</text>
</a>
</g>
</g>
<!-- Node3&#45;&gt;Node2 -->
<g id="edge2" class="edge">
<title>Node3&#45;&gt;Node2</title>
<path fill="none" stroke="midnightblue" d="M106.44,-536.23C131.93,-511.57 166.34,-478.28 193.78,-451.73"/>
<polygon fill="none" stroke="midnightblue" points="103.92,-533.8 99.17,-543.26 108.79,-538.83 103.92,-533.8"/>
</g>
<!-- Node4 -->
<g id="node4" class="node">
<title>Node4</title>
<g id="a_node4"><a xlink:href="structPonca_1_1QueryInput.html" target="_top" xlink:title=" ">
<polygon fill="white" stroke="black" points="13.5,-660.5 13.5,-739.5 127.5,-739.5 127.5,-660.5 13.5,-660.5"/>
<text text-anchor="start" x="21.5" y="-727.5" font-family="Helvetica,sans-Serif" font-size="10.00">Ponca::QueryInput&lt;</text>
<text text-anchor="middle" x="70.5" y="-716.5" font-family="Helvetica,sans-Serif" font-size="10.00"> int &gt;</text>
<polyline fill="none" stroke="black" points="13.5,-709.5 127.5,-709.5 "/>
<text text-anchor="middle" x="70.5" y="-697.5" font-family="Helvetica,sans-Serif" font-size="10.00"> </text>
<polyline fill="none" stroke="black" points="13.5,-690.5 127.5,-690.5 "/>
<text text-anchor="start" x="21.5" y="-678.5" font-family="Helvetica,sans-Serif" font-size="10.00">+ QueryInput()</text>
<text text-anchor="start" x="21.5" y="-667.5" font-family="Helvetica,sans-Serif" font-size="10.00">+ input()</text>
</a>
</g>
</g>
<!-- Node4&#45;&gt;Node3 -->
<g id="edge3" class="edge">
<title>Node4&#45;&gt;Node3</title>
<path fill="none" stroke="midnightblue" d="M70.5,-649.98C70.5,-633.26 70.5,-615.16 70.5,-600.71"/>
<polygon fill="none" stroke="midnightblue" points="67,-650.17 70.5,-660.17 74,-650.17 67,-650.17"/>
</g>
<!-- Node5 -->
<g id="node5" class="node">
<title>Node5</title>
<g id="a_node5"><a xlink:href="structPonca_1_1QueryInputBase.html" target="_top" xlink:title="Base class for queries input type.">
<polygon fill="white" stroke="black" points="1.5,-904.5 1.5,-961.5 131.5,-961.5 131.5,-904.5 1.5,-904.5"/>
<text text-anchor="middle" x="66.5" y="-949.5" font-family="Helvetica,sans-Serif" font-size="10.00">Ponca::QueryInputBase</text>
<polyline fill="none" stroke="black" points="1.5,-942.5 131.5,-942.5 "/>
<text text-anchor="middle" x="66.5" y="-930.5" font-family="Helvetica,sans-Serif" font-size="10.00"> </text>
<polyline fill="none" stroke="black" points="1.5,-923.5 131.5,-923.5 "/>
<text text-anchor="middle" x="66.5" y="-911.5" font-family="Helvetica,sans-Serif" font-size="10.00"> </text>
</a>
</g>
</g>
<!-- Node5&#45;&gt;Node4 -->
<g id="edge4" class="edge">
<title>Node5&#45;&gt;Node4</title>
<path fill="none" stroke="midnightblue" d="M67.16,-893.89C67.9,-851.27 69.09,-782.61 69.83,-739.74"/>
<polygon fill="none" stroke="midnightblue" points="63.66,-894.08 66.98,-904.14 70.66,-894.2 63.66,-894.08"/>
</g>
<!-- Node6 -->
<g id="node6" class="node">
<title>Node6</title>
<g id="a_node6"><a xlink:href="structPonca_1_1QueryInput.html" target="_top" xlink:title="Base class for typed queries input type.">
<polygon fill="white" stroke="black" points="82.5,-787.5 82.5,-866.5 196.5,-866.5 196.5,-787.5 82.5,-787.5"/>
<text text-anchor="start" x="90.5" y="-854.5" font-family="Helvetica,sans-Serif" font-size="10.00">Ponca::QueryInput&lt;</text>
<text text-anchor="middle" x="139.5" y="-843.5" font-family="Helvetica,sans-Serif" font-size="10.00"> InputType_ &gt;</text>
<polyline fill="none" stroke="black" points="82.5,-836.5 196.5,-836.5 "/>
<text text-anchor="middle" x="139.5" y="-824.5" font-family="Helvetica,sans-Serif" font-size="10.00"> </text>
<polyline fill="none" stroke="black" points="82.5,-817.5 196.5,-817.5 "/>
<text text-anchor="start" x="90.5" y="-805.5" font-family="Helvetica,sans-Serif" font-size="10.00">+ QueryInput()</text>
<text text-anchor="start" x="90.5" y="-794.5" font-family="Helvetica,sans-Serif" font-size="10.00">+ input()</text>
</a>
</g>
</g>
<!-- Node5&#45;&gt;Node6 -->
<g id="edge6" class="edge">
<title>Node5&#45;&gt;Node6</title>
<path fill="none" stroke="midnightblue" d="M91.79,-895.98C98.42,-886.52 105.61,-876.28 112.34,-866.69"/>
<polygon fill="none" stroke="midnightblue" points="88.75,-894.21 85.87,-904.4 94.48,-898.23 88.75,-894.21"/>
</g>
<!-- Node6&#45;&gt;Node4 -->
<g id="edge5" class="edge">
<title>Node6&#45;&gt;Node4</title>
<path fill="none" stroke="orange" d="M113.4,-778.72C106.27,-765.81 98.64,-751.98 91.81,-739.61"/>
<polygon fill="orange" stroke="orange" points="110.34,-780.41 118.23,-787.48 116.47,-777.03 110.34,-780.41"/>
<text text-anchor="middle" x="127" y="-761" font-family="Helvetica,sans-Serif" font-size="10.00"> &lt; int &gt;</text>
</g>
<!-- Node7 -->
<g id="node7" class="node">
<title>Node7</title>
<g id="a_node7"><a xlink:href="structPonca_1_1QueryOutputIsNearest.html" target="_top" xlink:title="Base class for nearest queries.">
<polygon fill="white" stroke="black" points="159,-521.5 159,-622.5 320,-622.5 320,-521.5 159,-521.5"/>
<text text-anchor="start" x="167" y="-610.5" font-family="Helvetica,sans-Serif" font-size="10.00">Ponca::QueryOutputIsNearest</text>
<text text-anchor="middle" x="239.5" y="-599.5" font-family="Helvetica,sans-Serif" font-size="10.00">&lt; Scalar &gt;</text>
<polyline fill="none" stroke="black" points="159,-592.5 320,-592.5 "/>
<text text-anchor="start" x="167" y="-580.5" font-family="Helvetica,sans-Serif" font-size="10.00"># m_nearest</text>
<text text-anchor="start" x="167" y="-569.5" font-family="Helvetica,sans-Serif" font-size="10.00"># m_squared_distance</text>
<polyline fill="none" stroke="black" points="159,-562.5 320,-562.5 "/>
<text text-anchor="start" x="167" y="-550.5" font-family="Helvetica,sans-Serif" font-size="10.00">+ QueryOutputIsNearest()</text>
<text text-anchor="start" x="167" y="-539.5" font-family="Helvetica,sans-Serif" font-size="10.00">+ get()</text>
<text text-anchor="start" x="167" y="-528.5" font-family="Helvetica,sans-Serif" font-size="10.00"># reset()</text>
</a>
</g>
</g>
<!-- Node7&#45;&gt;Node2 -->
<g id="edge7" class="edge">
<title>Node7&#45;&gt;Node2</title>
<path fill="none" stroke="midnightblue" d="M239.5,-510.97C239.5,-491.31 239.5,-469.85 239.5,-451.6"/>
<polygon fill="none" stroke="midnightblue" points="236,-511.06 239.5,-521.06 243,-511.06 236,-511.06"/>
</g>
<!-- Node8 -->
<g id="node8" class="node">
<title>Node8</title>
<g id="a_node8"><a xlink:href="structPonca_1_1QueryOutputBase.html" target="_top" xlink:title="Base class for queries output type.">
<polygon fill="white" stroke="black" points="170.5,-671.5 170.5,-728.5 308.5,-728.5 308.5,-671.5 170.5,-671.5"/>
<text text-anchor="middle" x="239.5" y="-716.5" font-family="Helvetica,sans-Serif" font-size="10.00">Ponca::QueryOutputBase</text>
<polyline fill="none" stroke="black" points="170.5,-709.5 308.5,-709.5 "/>
<text text-anchor="middle" x="239.5" y="-697.5" font-family="Helvetica,sans-Serif" font-size="10.00"> </text>
<polyline fill="none" stroke="black" points="170.5,-690.5 308.5,-690.5 "/>
<text text-anchor="middle" x="239.5" y="-678.5" font-family="Helvetica,sans-Serif" font-size="10.00"> </text>
</a>
</g>
</g>
<!-- Node8&#45;&gt;Node7 -->
<g id="edge8" class="edge">
<title>Node8&#45;&gt;Node7</title>
<path fill="none" stroke="midnightblue" d="M239.5,-661.15C239.5,-649.06 239.5,-635.48 239.5,-622.67"/>
<polygon fill="none" stroke="midnightblue" points="236,-661.35 239.5,-671.35 243,-661.35 236,-661.35"/>
</g>
<!-- Node9 -->
<g id="node9" class="node">
<title>Node9</title>
<g id="a_node9"><a xlink:href="structPonca_1_1Query.html" target="_top" xlink:title=" ">
<polygon fill="white" stroke="black" points="338,-532.5 338,-611.5 455,-611.5 455,-532.5 338,-532.5"/>
<text text-anchor="start" x="346" y="-599.5" font-family="Helvetica,sans-Serif" font-size="10.00">Ponca::Query&lt; Input</text>
<text text-anchor="middle" x="396.5" y="-588.5" font-family="Helvetica,sans-Serif" font-size="10.00">_, Output_ &gt;</text>
<polyline fill="none" stroke="black" points="338,-581.5 455,-581.5 "/>
<text text-anchor="middle" x="396.5" y="-569.5" font-family="Helvetica,sans-Serif" font-size="10.00"> </text>
<polyline fill="none" stroke="black" points="338,-562.5 455,-562.5 "/>
<text text-anchor="start" x="346" y="-550.5" font-family="Helvetica,sans-Serif" font-size="10.00">+ Query()</text>
<text text-anchor="start" x="346" y="-539.5" font-family="Helvetica,sans-Serif" font-size="10.00">+ Query()</text>
</a>
</g>
</g>
<!-- Node9&#45;&gt;Node2 -->
<g id="edge9" class="edge">
<title>Node9&#45;&gt;Node2</title>
<path fill="none" stroke="orange" d="M352.31,-524.98C330.29,-502.04 303.77,-474.43 281.99,-451.75"/>
<polygon fill="orange" stroke="orange" points="349.84,-527.46 359.29,-532.25 354.89,-522.62 349.84,-527.46"/>
<text text-anchor="start" x="327.5" y="-495" font-family="Helvetica,sans-Serif" font-size="10.00"> &lt; QueryInputIsIndex,</text>
<text text-anchor="start" x="327.5" y="-484" font-family="Helvetica,sans-Serif" font-size="10.00"> QueryOutputIsNearest</text>
<text text-anchor="middle" x="383.5" y="-473" font-family="Helvetica,sans-Serif" font-size="10.00">&lt; Scalar &gt; &gt;</text>
</g>
<!-- Node10 -->
<g id="node10" class="node">
<title>Node10</title>
<g id="a_node10"><a xlink:title=" ">
<polygon fill="white" stroke="#bfbfbf" points="350,-671.5 350,-728.5 397,-728.5 397,-671.5 350,-671.5"/>
<text text-anchor="middle" x="373.5" y="-716.5" font-family="Helvetica,sans-Serif" font-size="10.00">Input_</text>
<polyline fill="none" stroke="#bfbfbf" points="350,-709.5 397,-709.5 "/>
<text text-anchor="middle" x="373.5" y="-697.5" font-family="Helvetica,sans-Serif" font-size="10.00"> </text>
<polyline fill="none" stroke="#bfbfbf" points="350,-690.5 397,-690.5 "/>
<text text-anchor="middle" x="373.5" y="-678.5" font-family="Helvetica,sans-Serif" font-size="10.00"> </text>
</a>
</g>
</g>
<!-- Node10&#45;&gt;Node9 -->
<g id="edge10" class="edge">
<title>Node10&#45;&gt;Node9</title>
<path fill="none" stroke="midnightblue" d="M380.36,-661.43C383.23,-645.69 386.57,-627.42 389.46,-611.58"/>
<polygon fill="none" stroke="midnightblue" points="376.9,-660.88 378.55,-671.35 383.79,-662.14 376.9,-660.88"/>
</g>
<!-- Node11 -->
<g id="node11" class="node">
<title>Node11</title>
<g id="a_node11"><a xlink:title=" ">
<polygon fill="white" stroke="#bfbfbf" points="415,-671.5 415,-728.5 470,-728.5 470,-671.5 415,-671.5"/>
<text text-anchor="middle" x="442.5" y="-716.5" font-family="Helvetica,sans-Serif" font-size="10.00">Output_</text>
<polyline fill="none" stroke="#bfbfbf" points="415,-709.5 470,-709.5 "/>
<text text-anchor="middle" x="442.5" y="-697.5" font-family="Helvetica,sans-Serif" font-size="10.00"> </text>
<polyline fill="none" stroke="#bfbfbf" points="415,-690.5 470,-690.5 "/>
<text text-anchor="middle" x="442.5" y="-678.5" font-family="Helvetica,sans-Serif" font-size="10.00"> </text>
</a>
</g>
</g>
<!-- Node11&#45;&gt;Node9 -->
<g id="edge11" class="edge">
<title>Node11&#45;&gt;Node9</title>
<path fill="none" stroke="midnightblue" d="M428.95,-661.88C423.17,-646.04 416.42,-627.57 410.58,-611.58"/>
<polygon fill="none" stroke="midnightblue" points="425.69,-663.16 432.41,-671.35 432.26,-660.75 425.69,-663.16"/>
</g>
<!-- Node13 -->
<g id="node13" class="node">
<title>Node13</title>
<g id="a_node13"><a xlink:href="classPonca_1_1KdTreeNearestIndexQuery.html" target="_top" xlink:title=" ">
<polygon fill="white" stroke="black" points="158,-0.5 158,-101.5 321,-101.5 321,-0.5 158,-0.5"/>
<text text-anchor="start" x="166" y="-89.5" font-family="Helvetica,sans-Serif" font-size="10.00">Ponca::KdTreeNearestIndex</text>
<text text-anchor="middle" x="239.5" y="-78.5" font-family="Helvetica,sans-Serif" font-size="10.00">Query&lt; DataPoint &gt;</text>
<polyline fill="none" stroke="black" points="158,-71.5 321,-71.5 "/>
<text text-anchor="middle" x="239.5" y="-59.5" font-family="Helvetica,sans-Serif" font-size="10.00"> </text>
<polyline fill="none" stroke="black" points="158,-52.5 321,-52.5 "/>
<text text-anchor="start" x="166" y="-40.5" font-family="Helvetica,sans-Serif" font-size="10.00">+ KdTreeNearestIndexQuery()</text>
<text text-anchor="start" x="166" y="-29.5" font-family="Helvetica,sans-Serif" font-size="10.00">+ begin()</text>
<text text-anchor="start" x="166" y="-18.5" font-family="Helvetica,sans-Serif" font-size="10.00">+ end()</text>
<text text-anchor="start" x="166" y="-7.5" font-family="Helvetica,sans-Serif" font-size="10.00"># search()</text>
</a>
</g>
</g>
<!-- Node12&#45;&gt;Node13 -->
<g id="edge13" class="edge">
<title>Node12&#45;&gt;Node13</title>
<path fill="none" stroke="midnightblue" d="M239.5,-129.15C239.5,-120.29 239.5,-110.91 239.5,-101.84"/>
<polygon fill="none" stroke="midnightblue" points="236,-129.25 239.5,-139.25 243,-129.25 236,-129.25"/>
</g>
</g>
</svg>
        <g id="navigator" transform="translate(0 0)" fill="#404254">
                <rect fill="#f2f5e9" fill-opacity="0.5" stroke="#606060" stroke-width=".5" x="0" y="0" width="60" height="60"/>
                <use id="zoomplus" xlink:href="#zoomPlus" x="17" y="9" onmousedown="handleZoom(evt,'in')"/>
                <use id="zoomminus" xlink:href="#zoomMin" x="42" y="9" onmousedown="handleZoom(evt,'out')"/>
                <use id="reset" xlink:href="#resetDef" x="30" y="36" onmousedown="handleReset()"/>
                <g id="arrowUp" xlink:href="#dirArrow" transform="translate(30 24)" onmousedown="handlePan(0,-1)">
                  <use xlink:href="#rim" fill="#404040">
                        <set attributeName="fill" to="#808080" begin="arrowUp.mouseover" end="arrowUp.mouseout"/>
                  </use>
                  <path fill="none" stroke="white" stroke-width="1.5" d="M0,-3.0v7 M-2.5,-0.5L0,-3.0L2.5,-0.5"/>
                </g>
                <g id="arrowRight" xlink:href="#dirArrow" transform="rotate(90) translate(36 -43)" onmousedown="handlePan(1,0)">
                  <use xlink:href="#rim" fill="#404040">
                        <set attributeName="fill" to="#808080" begin="arrowRight.mouseover" end="arrowRight.mouseout"/>
                  </use>
                  <path fill="none" stroke="white" stroke-width="1.5" d="M0,-3.0v7 M-2.5,-0.5L0,-3.0L2.5,-0.5"/>
                </g>
                <g id="arrowDown" xlink:href="#dirArrow" transform="rotate(180) translate(-30 -48)" onmousedown="handlePan(0,1)">
                  <use xlink:href="#rim" fill="#404040">
                        <set attributeName="fill" to="#808080" begin="arrowDown.mouseover" end="arrowDown.mouseout"/>
                  </use>
                  <path fill="none" stroke="white" stroke-width="1.5" d="M0,-3.0v7 M-2.5,-0.5L0,-3.0L2.5,-0.5"/>
                </g>
                <g id="arrowLeft" xlink:href="#dirArrow" transform="rotate(270) translate(-36 17)" onmousedown="handlePan(-1,0)">
                  <use xlink:href="#rim" fill="#404040">
                        <set attributeName="fill" to="#808080" begin="arrowLeft.mouseover" end="arrowLeft.mouseout"/>
                  </use>
                  <path fill="none" stroke="white" stroke-width="1.5" d="M0,-3.0v7 M-2.5,-0.5L0,-3.0L2.5,-0.5"/>
                </g>
        </g>
        <svg viewBox="0 0 15 15" width="100%" height="30px" preserveAspectRatio="xMaxYMin meet">
         <g id="arrow_out" transform="scale(0.3 0.3)">
          <a xlink:href="structPonca_1_1NearestIndexQuery__inherit__graph_org.svg" target="_base">
           <rect id="button" ry="5" rx="5" y="6" x="6" height="38" width="38"
                fill="#f2f5e9" fill-opacity="0.5" stroke="#606060" stroke-width="1.0"/>
           <path id="arrow"
             d="M 11.500037,31.436501 C 11.940474,20.09759 22.043105,11.32322 32.158766,21.979434 L 37.068811,17.246167 C 37.068811,17.246167 37.088388,32 37.088388,32 L 22.160133,31.978069 C 22.160133,31.978069 26.997745,27.140456 26.997745,27.140456 C 18.528582,18.264221 13.291696,25.230495 11.500037,31.436501 z"
             style="fill:#404040;"/>
          </a>
         </g>
        </svg>
</svg>
