<?xml version="1.0" encoding="UTF-8" standalone="no"?>
<!DOCTYPE svg PUBLIC "-//W3C//DTD SVG 1.1//EN"
 "http://www.w3.org/Graphics/SVG/1.1/DTD/svg11.dtd">
<!-- Generated by graphviz version 2.43.0 (0)
 -->
<!-- Title: Ponca::IndexSquaredDistance&lt; Index, Scalar &gt; Pages: 1 -->
<svg width="361pt" height="226pt"
 viewBox="0.00 0.00 360.50 226.00" xmlns="http://www.w3.org/2000/svg" xmlns:xlink="http://www.w3.org/1999/xlink">
<g id="graph0" class="graph" transform="scale(1 1) rotate(0) translate(4 222)">
<title>Ponca::IndexSquaredDistance&lt; Index, Scalar &gt;</title>
<!-- Node1 -->
<g id="node1" class="node">
<title>Node1</title>
<g id="a_node1"><a xlink:title="Associates an index with a distance.">
<polygon fill="#999999" stroke="#666666" points="89,-138.5 89,-217.5 250,-217.5 250,-138.5 89,-138.5"/>
<text text-anchor="start" x="97" y="-205.5" font-family="Helvetica,sans-Serif" font-size="10.00">Ponca::IndexSquaredDistance</text>
<text text-anchor="middle" x="169.5" y="-194.5" font-family="Helvetica,sans-Serif" font-size="10.00">&lt; Index, Scalar &gt;</text>
<polyline fill="none" stroke="#666666" points="89,-187.5 250,-187.5 "/>
<text text-anchor="start" x="97" y="-175.5" font-family="Helvetica,sans-Serif" font-size="10.00">+ index</text>
<text text-anchor="start" x="97" y="-164.5" font-family="Helvetica,sans-Serif" font-size="10.00">+ squared_distance</text>
<polyline fill="none" stroke="#666666" points="89,-157.5 250,-157.5 "/>
<text text-anchor="start" x="97" y="-145.5" font-family="Helvetica,sans-Serif" font-size="10.00">+ operator&lt;()</text>
</a>
</g>
</g>
<!-- Node2 -->
<g id="node2" class="node">
<title>Node2</title>
<g id="a_node2"><a xlink:href="structPonca_1_1IndexSquaredDistance.html" target="_top" xlink:title=" ">
<polygon fill="white" stroke="#666666" points="0,-0.5 0,-79.5 161,-79.5 161,-0.5 0,-0.5"/>
<text text-anchor="start" x="8" y="-67.5" font-family="Helvetica,sans-Serif" font-size="10.00">Ponca::IndexSquaredDistance</text>
<text text-anchor="middle" x="80.5" y="-56.5" font-family="Helvetica,sans-Serif" font-size="10.00">&lt; Index, DataPoint::Scalar &gt;</text>
<polyline fill="none" stroke="#666666" points="0,-49.5 161,-49.5 "/>
<text text-anchor="start" x="8" y="-37.5" font-family="Helvetica,sans-Serif" font-size="10.00">+ index</text>
<text text-anchor="start" x="8" y="-26.5" font-family="Helvetica,sans-Serif" font-size="10.00">+ squared_distance</text>
<polyline fill="none" stroke="#666666" points="0,-19.5 161,-19.5 "/>
<text text-anchor="start" x="8" y="-7.5" font-family="Helvetica,sans-Serif" font-size="10.00">+ operator&lt;()</text>
</a>
</g>
</g>
<!-- Node1&#45;&gt;Node2 -->
<g id="edge1" class="edge">
<title>Node1&#45;&gt;Node2</title>
<path fill="none" stroke="orange" d="M138.74,-130C128,-113.59 116.08,-95.36 105.83,-79.7"/>
<polygon fill="orange" stroke="orange" points="135.83,-131.94 144.23,-138.39 141.69,-128.11 135.83,-131.94"/>
<text text-anchor="start" x="130.5" y="-112" font-family="Helvetica,sans-Serif" font-size="10.00"> &lt; Index, DataPoint</text>
<text text-anchor="middle" x="178.5" y="-101" font-family="Helvetica,sans-Serif" font-size="10.00">::Scalar &gt;</text>
</g>
<!-- Node3 -->
<g id="node3" class="node">
<title>Node3</title>
<g id="a_node3"><a xlink:href="structPonca_1_1IndexSquaredDistance.html" target="_top" xlink:title=" ">
<polygon fill="white" stroke="#666666" points="179,-0.5 179,-79.5 340,-79.5 340,-0.5 179,-0.5"/>
<text text-anchor="start" x="187" y="-67.5" font-family="Helvetica,sans-Serif" font-size="10.00">Ponca::IndexSquaredDistance</text>
<text text-anchor="middle" x="259.5" y="-56.5" font-family="Helvetica,sans-Serif" font-size="10.00">&lt; IndexType, Scalar &gt;</text>
<polyline fill="none" stroke="#666666" points="179,-49.5 340,-49.5 "/>
<text text-anchor="start" x="187" y="-37.5" font-family="Helvetica,sans-Serif" font-size="10.00">+ index</text>
<text text-anchor="start" x="187" y="-26.5" font-family="Helvetica,sans-Serif" font-size="10.00">+ squared_distance</text>
<polyline fill="none" stroke="#666666" points="179,-19.5 340,-19.5 "/>
<text text-anchor="start" x="187" y="-7.5" font-family="Helvetica,sans-Serif" font-size="10.00">+ operator&lt;()</text>
</a>
</g>
</g>
<!-- Node1&#45;&gt;Node3 -->
<g id="edge2" class="edge">
<title>Node1&#45;&gt;Node3</title>
<path fill="none" stroke="orange" d="M222.38,-130.86C225.3,-127.33 228.05,-123.7 230.5,-120 238.57,-107.82 244.77,-93.11 249.31,-79.69"/>
<polygon fill="orange" stroke="orange" points="219.72,-128.58 215.73,-138.39 224.97,-133.21 219.72,-128.58"/>
<text text-anchor="middle" x="296.5" y="-106.5" font-family="Helvetica,sans-Serif" font-size="10.00"> &lt; IndexType, Scalar &gt;</text>
</g>
</g>
</svg>
