<?xml version="1.0" encoding="UTF-8" standalone="no"?>
<!DOCTYPE svg PUBLIC "-//W3C//DTD SVG 1.1//EN"
 "http://www.w3.org/Graphics/SVG/1.1/DTD/svg11.dtd">
<!-- Generated by graphviz version 2.43.0 (0)
 -->
<!-- Title: Ponca::QueryOutputIsRange&lt; Index, Scalar &gt; Pages: 1 -->
<svg width="531pt" height="1036pt"
 viewBox="0.00 0.00 530.50 1036.00" xmlns="http://www.w3.org/2000/svg" xmlns:xlink="http://www.w3.org/1999/xlink">
<g id="graph0" class="graph" transform="scale(1 1) rotate(0) translate(4 1032)">
<title>Ponca::QueryOutputIsRange&lt; Index, Scalar &gt;</title>
<!-- Node1 -->
<g id="Node000001" class="node">
<title>Node1</title>
<g id="a_Node000001"><a xlink:title="Class to construct the range query output.">
<polygon fill="#999999" stroke="transparent" points="340,-942 182,-942 182,-777 340,-777 340,-942"/>
<text text-anchor="start" x="192.5" y="-929.5" font-family="Helvetica,sans-Serif" font-size="10.00">Ponca::QueryOutputIsRange</text>
<text text-anchor="start" x="218" y="-918.5" font-family="Helvetica,sans-Serif" font-size="10.00">&lt; Index, Scalar &gt;</text>
<text text-anchor="start" x="186" y="-903.5" font-family="Helvetica,sans-Serif" font-size="10.00">#</text>
<text text-anchor="start" x="199" y="-903.5" font-family="Helvetica,sans-Serif" font-size="10.00">m_squared_radius</text>
<text text-anchor="start" x="186" y="-888.5" font-family="Helvetica,sans-Serif" font-size="10.00">+</text>
<text text-anchor="start" x="199" y="-888.5" font-family="Helvetica,sans-Serif" font-size="10.00">QueryOutputIsRange()</text>
<text text-anchor="start" x="186" y="-873.5" font-family="Helvetica,sans-Serif" font-size="10.00">+</text>
<text text-anchor="start" x="199" y="-873.5" font-family="Helvetica,sans-Serif" font-size="10.00">operator()()</text>
<text text-anchor="start" x="186" y="-858.5" font-family="Helvetica,sans-Serif" font-size="10.00">+</text>
<text text-anchor="start" x="199" y="-858.5" font-family="Helvetica,sans-Serif" font-size="10.00">radius()</text>
<text text-anchor="start" x="186" y="-843.5" font-family="Helvetica,sans-Serif" font-size="10.00">+</text>
<text text-anchor="start" x="199" y="-843.5" font-family="Helvetica,sans-Serif" font-size="10.00">squaredRadius()</text>
<text text-anchor="start" x="186" y="-828.5" font-family="Helvetica,sans-Serif" font-size="10.00">+</text>
<text text-anchor="start" x="199" y="-828.5" font-family="Helvetica,sans-Serif" font-size="10.00">setRadius()</text>
<text text-anchor="start" x="186" y="-813.5" font-family="Helvetica,sans-Serif" font-size="10.00">+</text>
<text text-anchor="start" x="199" y="-813.5" font-family="Helvetica,sans-Serif" font-size="10.00">setSquaredRadius()</text>
<text text-anchor="start" x="186" y="-798.5" font-family="Helvetica,sans-Serif" font-size="10.00">#</text>
<text text-anchor="start" x="199" y="-798.5" font-family="Helvetica,sans-Serif" font-size="10.00">reset()</text>
<text text-anchor="start" x="186" y="-783.5" font-family="Helvetica,sans-Serif" font-size="10.00">#</text>
<text text-anchor="start" x="199" y="-783.5" font-family="Helvetica,sans-Serif" font-size="10.00">descentDistanceThreshold()</text>
<polygon fill="#666666" stroke="#666666" points="182,-913.5 182,-913.5 340,-913.5 340,-913.5 182,-913.5"/>
<polygon fill="#666666" stroke="#666666" points="182,-898.5 182,-898.5 197,-898.5 197,-898.5 182,-898.5"/>
<polygon fill="#666666" stroke="#666666" points="197,-898.5 197,-898.5 340,-898.5 340,-898.5 197,-898.5"/>
<polygon fill="none" stroke="#666666" points="182,-777 182,-942 340,-942 340,-777 182,-777"/>
</a>
</g>
</g>
<!-- Node3 -->
<g id="Node000003" class="node">
<title>Node3</title>
<g id="a_Node000003"><a xlink:href="group__spatialpartitioning.html" target="_top" xlink:title=" ">
<polygon fill="white" stroke="transparent" points="164,-678 0,-678 0,-562 164,-562 164,-678"/>
<text text-anchor="start" x="5" y="-666" font-family="Helvetica,sans-Serif" font-size="10.00">Ponca::Query&lt; QueryInput</text>
<text text-anchor="start" x="5" y="-655" font-family="Helvetica,sans-Serif" font-size="10.00">IsIndex&lt; Index &gt;, QueryOutput</text>
<text text-anchor="start" x="14" y="-644" font-family="Helvetica,sans-Serif" font-size="10.00">IsRange&lt; Index, Scalar &gt; &gt;</text>
<text text-anchor="start" x="80" y="-629" font-family="Helvetica,sans-Serif" font-size="10.00"> </text>
<text text-anchor="start" x="25.5" y="-614" font-family="Helvetica,sans-Serif" font-size="10.00">+</text>
<text text-anchor="start" x="60" y="-614" font-family="Helvetica,sans-Serif" font-size="10.00">Query()</text>
<text text-anchor="start" x="25.5" y="-599" font-family="Helvetica,sans-Serif" font-size="10.00">+</text>
<text text-anchor="start" x="60" y="-599" font-family="Helvetica,sans-Serif" font-size="10.00">Query()</text>
<text text-anchor="start" x="25.5" y="-584" font-family="Helvetica,sans-Serif" font-size="10.00">+</text>
<text text-anchor="start" x="60" y="-584" font-family="Helvetica,sans-Serif" font-size="10.00">operator()()</text>
<text text-anchor="start" x="25.5" y="-569" font-family="Helvetica,sans-Serif" font-size="10.00">+</text>
<text text-anchor="start" x="60" y="-569" font-family="Helvetica,sans-Serif" font-size="10.00">operator()()</text>
<polygon fill="#666666" stroke="#666666" points="0,-639 0,-639 164,-639 164,-639 0,-639"/>
<polygon fill="#666666" stroke="#666666" points="0,-624 0,-624 164,-624 164,-624 0,-624"/>
<polygon fill="none" stroke="#666666" points="0,-562 0,-678 164,-678 164,-562 0,-562"/>
</a>
</g>
</g>
<!-- Node1&#45;&gt;Node3 -->
<g id="edge2_Node000001_Node000003" class="edge">
<title>Node1&#45;&gt;Node3</title>
<g id="a_edge2_Node000001_Node000003"><a xlink:title=" ">
<path fill="none" stroke="#63b8ff" d="M193.32,-768.7C170.44,-738.34 145.53,-705.3 125.09,-678.18"/>
<polygon fill="none" stroke="#63b8ff" points="190.58,-770.89 199.4,-776.77 196.17,-766.67 190.58,-770.89"/>
</a>
</g>
</g>
<!-- Node7 -->
<g id="Node000007" class="node">
<title>Node7</title>
<g id="a_Node000007"><a xlink:href="group__spatialpartitioning.html" target="_top" xlink:title=" ">
<polygon fill="white" stroke="transparent" points="340,-708 182,-708 182,-532 340,-532 340,-708"/>
<text text-anchor="start" x="192.5" y="-696" font-family="Helvetica,sans-Serif" font-size="10.00">Ponca::QueryOutputIsRange</text>
<text text-anchor="start" x="192.5" y="-685" font-family="Helvetica,sans-Serif" font-size="10.00">&lt; Traits::IndexType, Traits</text>
<text text-anchor="start" x="210" y="-674" font-family="Helvetica,sans-Serif" font-size="10.00">::DataPoint::Scalar &gt;</text>
<text text-anchor="start" x="186" y="-659" font-family="Helvetica,sans-Serif" font-size="10.00">#</text>
<text text-anchor="start" x="199" y="-659" font-family="Helvetica,sans-Serif" font-size="10.00">m_squared_radius</text>
<text text-anchor="start" x="186" y="-644" font-family="Helvetica,sans-Serif" font-size="10.00">+</text>
<text text-anchor="start" x="199" y="-644" font-family="Helvetica,sans-Serif" font-size="10.00">QueryOutputIsRange()</text>
<text text-anchor="start" x="186" y="-629" font-family="Helvetica,sans-Serif" font-size="10.00">+</text>
<text text-anchor="start" x="199" y="-629" font-family="Helvetica,sans-Serif" font-size="10.00">operator()()</text>
<text text-anchor="start" x="186" y="-614" font-family="Helvetica,sans-Serif" font-size="10.00">+</text>
<text text-anchor="start" x="199" y="-614" font-family="Helvetica,sans-Serif" font-size="10.00">radius()</text>
<text text-anchor="start" x="186" y="-599" font-family="Helvetica,sans-Serif" font-size="10.00">+</text>
<text text-anchor="start" x="199" y="-599" font-family="Helvetica,sans-Serif" font-size="10.00">squaredRadius()</text>
<text text-anchor="start" x="186" y="-584" font-family="Helvetica,sans-Serif" font-size="10.00">+</text>
<text text-anchor="start" x="199" y="-584" font-family="Helvetica,sans-Serif" font-size="10.00">setRadius()</text>
<text text-anchor="start" x="186" y="-569" font-family="Helvetica,sans-Serif" font-size="10.00">+</text>
<text text-anchor="start" x="199" y="-569" font-family="Helvetica,sans-Serif" font-size="10.00">setSquaredRadius()</text>
<text text-anchor="start" x="186" y="-554" font-family="Helvetica,sans-Serif" font-size="10.00">#</text>
<text text-anchor="start" x="199" y="-554" font-family="Helvetica,sans-Serif" font-size="10.00">reset()</text>
<text text-anchor="start" x="186" y="-539" font-family="Helvetica,sans-Serif" font-size="10.00">#</text>
<text text-anchor="start" x="199" y="-539" font-family="Helvetica,sans-Serif" font-size="10.00">descentDistanceThreshold()</text>
<polygon fill="#666666" stroke="#666666" points="182,-669 182,-669 340,-669 340,-669 182,-669"/>
<polygon fill="#666666" stroke="#666666" points="182,-654 182,-654 197,-654 197,-654 182,-654"/>
<polygon fill="#666666" stroke="#666666" points="197,-654 197,-654 340,-654 340,-654 197,-654"/>
<polygon fill="none" stroke="#666666" points="182,-532 182,-708 340,-708 340,-532 182,-532"/>
</a>
</g>
</g>
<!-- Node1&#45;&gt;Node7 -->
<g id="edge6_Node000001_Node000007" class="edge">
<title>Node1&#45;&gt;Node7</title>
<g id="a_edge6_Node000001_Node000007"><a xlink:title=" ">
<path fill="none" stroke="orange" d="M261,-766.53C261,-747.34 261,-727.16 261,-708.15"/>
<polygon fill="orange" stroke="orange" points="257.5,-766.77 261,-776.77 264.5,-766.77 257.5,-766.77"/>
</a>
</g>
<text text-anchor="start" x="261" y="-751" font-family="Helvetica,sans-Serif" font-size="10.00" fill="grey"> &lt; Traits::IndexType,</text>
<text text-anchor="start" x="261" y="-740" font-family="Helvetica,sans-Serif" font-size="10.00" fill="grey"> Traits::DataPoint::</text>
<text text-anchor="middle" x="311" y="-729" font-family="Helvetica,sans-Serif" font-size="10.00" fill="grey">Scalar &gt;</text>
</g>
<!-- Node9 -->
<g id="Node000009" class="node">
<title>Node9</title>
<g id="a_Node000009"><a xlink:href="group__spatialpartitioning.html" target="_top" xlink:title=" ">
<polygon fill="white" stroke="transparent" points="517,-702.5 359,-702.5 359,-537.5 517,-537.5 517,-702.5"/>
<text text-anchor="start" x="368" y="-690" font-family="Helvetica,sans-Serif" font-size="10.00">Ponca::QueryOutputIsRange</text>
<text text-anchor="start" x="368" y="-679" font-family="Helvetica,sans-Serif" font-size="10.00">&lt; Index, DataPoint::Scalar &gt;</text>
<text text-anchor="start" x="363" y="-664" font-family="Helvetica,sans-Serif" font-size="10.00">#</text>
<text text-anchor="start" x="376" y="-664" font-family="Helvetica,sans-Serif" font-size="10.00">m_squared_radius</text>
<text text-anchor="start" x="363" y="-649" font-family="Helvetica,sans-Serif" font-size="10.00">+</text>
<text text-anchor="start" x="376" y="-649" font-family="Helvetica,sans-Serif" font-size="10.00">QueryOutputIsRange()</text>
<text text-anchor="start" x="363" y="-634" font-family="Helvetica,sans-Serif" font-size="10.00">+</text>
<text text-anchor="start" x="376" y="-634" font-family="Helvetica,sans-Serif" font-size="10.00">operator()()</text>
<text text-anchor="start" x="363" y="-619" font-family="Helvetica,sans-Serif" font-size="10.00">+</text>
<text text-anchor="start" x="376" y="-619" font-family="Helvetica,sans-Serif" font-size="10.00">radius()</text>
<text text-anchor="start" x="363" y="-604" font-family="Helvetica,sans-Serif" font-size="10.00">+</text>
<text text-anchor="start" x="376" y="-604" font-family="Helvetica,sans-Serif" font-size="10.00">squaredRadius()</text>
<text text-anchor="start" x="363" y="-589" font-family="Helvetica,sans-Serif" font-size="10.00">+</text>
<text text-anchor="start" x="376" y="-589" font-family="Helvetica,sans-Serif" font-size="10.00">setRadius()</text>
<text text-anchor="start" x="363" y="-574" font-family="Helvetica,sans-Serif" font-size="10.00">+</text>
<text text-anchor="start" x="376" y="-574" font-family="Helvetica,sans-Serif" font-size="10.00">setSquaredRadius()</text>
<text text-anchor="start" x="363" y="-559" font-family="Helvetica,sans-Serif" font-size="10.00">#</text>
<text text-anchor="start" x="376" y="-559" font-family="Helvetica,sans-Serif" font-size="10.00">reset()</text>
<text text-anchor="start" x="363" y="-544" font-family="Helvetica,sans-Serif" font-size="10.00">#</text>
<text text-anchor="start" x="376" y="-544" font-family="Helvetica,sans-Serif" font-size="10.00">descentDistanceThreshold()</text>
<polygon fill="#666666" stroke="#666666" points="359,-674 359,-674 517,-674 517,-674 359,-674"/>
<polygon fill="#666666" stroke="#666666" points="359,-659 359,-659 374,-659 374,-659 359,-659"/>
<polygon fill="#666666" stroke="#666666" points="374,-659 374,-659 517,-659 517,-659 374,-659"/>
<polygon fill="none" stroke="#666666" points="359,-537.5 359,-702.5 517,-702.5 517,-537.5 359,-537.5"/>
</a>
</g>
</g>
<!-- Node1&#45;&gt;Node9 -->
<g id="edge8_Node000001_Node000009" class="edge">
<title>Node1&#45;&gt;Node9</title>
<g id="a_edge8_Node000001_Node000009"><a xlink:title=" ">
<path fill="none" stroke="orange" d="M347.02,-780.67C353.38,-773.59 359.47,-766.32 365,-759 377.99,-741.81 389.95,-721.98 400.27,-702.82"/>
<polygon fill="orange" stroke="orange" points="344.22,-778.54 340.02,-788.27 349.37,-783.29 344.22,-778.54"/>
</a>
</g>
<text text-anchor="start" x="386" y="-745.5" font-family="Helvetica,sans-Serif" font-size="10.00" fill="grey"> &lt; Index, DataPoint</text>
<text text-anchor="middle" x="434" y="-734.5" font-family="Helvetica,sans-Serif" font-size="10.00" fill="grey">::Scalar &gt;</text>
</g>
<!-- Node2 -->
<g id="Node000002" class="node">
<title>Node2</title>
<g id="a_Node000002"><a xlink:href="group__spatialpartitioning.html#structPonca_1_1QueryOutputBase" target="_top" xlink:title="Base class for queries output types.">
<polygon fill="white" stroke="transparent" points="327,-1028 195,-1028 195,-979 327,-979 327,-1028"/>
<text text-anchor="start" x="200" y="-1015.5" font-family="Helvetica,sans-Serif" font-size="10.00">Ponca::QueryOutputBase</text>
<text text-anchor="start" x="259" y="-1000.5" font-family="Helvetica,sans-Serif" font-size="10.00"> </text>
<text text-anchor="start" x="259" y="-985.5" font-family="Helvetica,sans-Serif" font-size="10.00"> </text>
<polygon fill="#666666" stroke="#666666" points="195,-1010.5 195,-1010.5 327,-1010.5 327,-1010.5 195,-1010.5"/>
<polygon fill="#666666" stroke="#666666" points="195,-995.5 195,-995.5 327,-995.5 327,-995.5 195,-995.5"/>
<polygon fill="none" stroke="#666666" points="195,-979 195,-1028 327,-1028 327,-979 195,-979"/>
</a>
</g>
</g>
<!-- Node2&#45;&gt;Node1 -->
<g id="edge1_Node000001_Node000002" class="edge">
<title>Node2&#45;&gt;Node1</title>
<g id="a_edge1_Node000001_Node000002"><a xlink:title=" ">
<path fill="none" stroke="#63b8ff" d="M261,-968.65C261,-960.55 261,-951.54 261,-942.29"/>
<polygon fill="none" stroke="#63b8ff" points="257.5,-968.73 261,-978.73 264.5,-968.73 257.5,-968.73"/>
</a>
</g>
</g>
<!-- Node4 -->
<g id="Node000004" class="node">
<title>Node4</title>
<g id="a_Node000004"><a xlink:href="group__spatialpartitioning.html#structPonca_1_1RangeIndexQuery" target="_top" xlink:title="Base Query class combining QueryInputIsIndex and QueryOutputIsRange.">
<polygon fill="white" stroke="transparent" points="148.5,-456 15.5,-456 15.5,-396 148.5,-396 148.5,-456"/>
<text text-anchor="start" x="21" y="-444" font-family="Helvetica,sans-Serif" font-size="10.00">Ponca::RangeIndexQuery</text>
<text text-anchor="start" x="39.5" y="-433" font-family="Helvetica,sans-Serif" font-size="10.00">&lt; Index, Scalar &gt;</text>
<text text-anchor="start" x="80.5" y="-418" font-family="Helvetica,sans-Serif" font-size="10.00"> </text>
<text text-anchor="start" x="80.5" y="-403" font-family="Helvetica,sans-Serif" font-size="10.00"> </text>
<polygon fill="#666666" stroke="#666666" points="16,-428 16,-428 149,-428 149,-428 16,-428"/>
<polygon fill="#666666" stroke="#666666" points="16,-413 16,-413 149,-413 149,-413 16,-413"/>
<polygon fill="none" stroke="#666666" points="15.5,-396 15.5,-456 148.5,-456 148.5,-396 15.5,-396"/>
</a>
</g>
</g>
<!-- Node3&#45;&gt;Node4 -->
<g id="edge3_Node000003_Node000004" class="edge">
<title>Node3&#45;&gt;Node4</title>
<g id="a_edge3_Node000003_Node000004"><a xlink:title=" ">
<path fill="none" stroke="#63b8ff" d="M82,-551.5C82,-518.83 82,-481.32 82,-456.08"/>
<polygon fill="none" stroke="#63b8ff" points="78.5,-551.91 82,-561.91 85.5,-551.91 78.5,-551.91"/>
</a>
</g>
</g>
<!-- Node5 -->
<g id="Node000005" class="node">
<title>Node5</title>
<g id="a_Node000005"><a xlink:href="group__spatialpartitioning.html" target="_top" xlink:title=" ">
<polygon fill="white" stroke="transparent" points="150,-288 14,-288 14,-217 150,-217 150,-288"/>
<text text-anchor="start" x="19" y="-275.5" font-family="Helvetica,sans-Serif" font-size="10.00">Ponca::RangeIndexQuery</text>
<text text-anchor="start" x="19" y="-264.5" font-family="Helvetica,sans-Serif" font-size="10.00">&lt; Traits::IndexType, Traits</text>
<text text-anchor="start" x="31" y="-253.5" font-family="Helvetica,sans-Serif" font-size="10.00">::DataPoint::Scalar &gt;</text>
<text text-anchor="start" x="80" y="-238.5" font-family="Helvetica,sans-Serif" font-size="10.00"> </text>
<text text-anchor="start" x="80" y="-223.5" font-family="Helvetica,sans-Serif" font-size="10.00"> </text>
<polygon fill="#666666" stroke="#666666" points="14,-248.5 14,-248.5 150,-248.5 150,-248.5 14,-248.5"/>
<polygon fill="#666666" stroke="#666666" points="14,-233.5 14,-233.5 150,-233.5 150,-233.5 14,-233.5"/>
<polygon fill="none" stroke="#666666" points="14,-217 14,-288 150,-288 150,-217 14,-217"/>
</a>
</g>
</g>
<!-- Node4&#45;&gt;Node5 -->
<g id="edge4_Node000004_Node000005" class="edge">
<title>Node4&#45;&gt;Node5</title>
<g id="a_edge4_Node000004_Node000005"><a xlink:title=" ">
<path fill="none" stroke="orange" d="M82,-385.57C82,-356.13 82,-316.27 82,-288.06"/>
<polygon fill="orange" stroke="orange" points="78.5,-385.91 82,-395.91 85.5,-385.91 78.5,-385.91"/>
</a>
</g>
<text text-anchor="start" x="82" y="-331" font-family="Helvetica,sans-Serif" font-size="10.00" fill="grey"> &lt; Traits::IndexType,</text>
<text text-anchor="start" x="82" y="-320" font-family="Helvetica,sans-Serif" font-size="10.00" fill="grey"> Traits::DataPoint::</text>
<text text-anchor="middle" x="132" y="-309" font-family="Helvetica,sans-Serif" font-size="10.00" fill="grey">Scalar &gt;</text>
</g>
<!-- Node6 -->
<g id="Node000006" class="node">
<title>Node6</title>
<g id="a_Node000006"><a xlink:href="classPonca_1_1KnnGraphRangeQuery.html" target="_top" xlink:title="Extension of the Query class that allows to read the result of a range neighbor search on the KnnGrap...">
<polygon fill="white" stroke="transparent" points="159,-180 5,-180 5,0 159,0 159,-180"/>
<text text-anchor="start" x="10" y="-168" font-family="Helvetica,sans-Serif" font-size="10.00">Ponca::KnnGraphRangeQuery</text>
<text text-anchor="start" x="57.5" y="-157" font-family="Helvetica,sans-Serif" font-size="10.00">&lt; Traits &gt;</text>
<text text-anchor="start" x="13" y="-142" font-family="Helvetica,sans-Serif" font-size="10.00">#</text>
<text text-anchor="start" x="30" y="-142" font-family="Helvetica,sans-Serif" font-size="10.00">m_graph</text>
<text text-anchor="start" x="13" y="-127" font-family="Helvetica,sans-Serif" font-size="10.00">#</text>
<text text-anchor="start" x="30" y="-127" font-family="Helvetica,sans-Serif" font-size="10.00">m_flag</text>
<text text-anchor="start" x="13" y="-112" font-family="Helvetica,sans-Serif" font-size="10.00">#</text>
<text text-anchor="start" x="30" y="-112" font-family="Helvetica,sans-Serif" font-size="10.00">m_stack</text>
<text text-anchor="start" x="13" y="-97" font-family="Helvetica,sans-Serif" font-size="10.00">+</text>
<text text-anchor="start" x="30" y="-97" font-family="Helvetica,sans-Serif" font-size="10.00">KnnGraphRangeQuery()</text>
<text text-anchor="start" x="13" y="-82" font-family="Helvetica,sans-Serif" font-size="10.00">+</text>
<text text-anchor="start" x="30" y="-82" font-family="Helvetica,sans-Serif" font-size="10.00">operator()()</text>
<text text-anchor="start" x="13" y="-67" font-family="Helvetica,sans-Serif" font-size="10.00">+</text>
<text text-anchor="start" x="30" y="-67" font-family="Helvetica,sans-Serif" font-size="10.00">operator()()</text>
<text text-anchor="start" x="13" y="-52" font-family="Helvetica,sans-Serif" font-size="10.00">+</text>
<text text-anchor="start" x="30" y="-52" font-family="Helvetica,sans-Serif" font-size="10.00">begin()</text>
<text text-anchor="start" x="13" y="-37" font-family="Helvetica,sans-Serif" font-size="10.00">+</text>
<text text-anchor="start" x="30" y="-37" font-family="Helvetica,sans-Serif" font-size="10.00">end()</text>
<text text-anchor="start" x="13" y="-22" font-family="Helvetica,sans-Serif" font-size="10.00">#</text>
<text text-anchor="start" x="30" y="-22" font-family="Helvetica,sans-Serif" font-size="10.00">initialize()</text>
<text text-anchor="start" x="13" y="-7" font-family="Helvetica,sans-Serif" font-size="10.00">#</text>
<text text-anchor="start" x="30" y="-7" font-family="Helvetica,sans-Serif" font-size="10.00">advance()</text>
<polygon fill="#666666" stroke="#666666" points="5,-152 5,-152 159,-152 159,-152 5,-152"/>
<polygon fill="#666666" stroke="#666666" points="5,-107 5,-107 28,-107 28,-107 5,-107"/>
<polygon fill="#666666" stroke="#666666" points="28,-107 28,-107 159,-107 159,-107 28,-107"/>
<polygon fill="none" stroke="#666666" points="5,0 5,-180 159,-180 159,0 5,0"/>
</a>
</g>
</g>
<!-- Node5&#45;&gt;Node6 -->
<g id="edge5_Node000005_Node000006" class="edge">
<title>Node5&#45;&gt;Node6</title>
<g id="a_edge5_Node000005_Node000006"><a xlink:title=" ">
<path fill="none" stroke="#63b8ff" d="M82,-206.49C82,-198.16 82,-189.19 82,-180.07"/>
<polygon fill="none" stroke="#63b8ff" points="78.5,-206.67 82,-216.67 85.5,-206.67 78.5,-206.67"/>
</a>
</g>
</g>
<!-- Node8 -->
<g id="Node000008" class="node">
<title>Node8</title>
<g id="a_Node000008"><a xlink:href="group__spatialpartitioning.html" target="_top" xlink:title=" ">
<polygon fill="white" stroke="transparent" points="343.5,-495 176.5,-495 176.5,-357 343.5,-357 343.5,-495"/>
<text text-anchor="start" x="182" y="-483" font-family="Helvetica,sans-Serif" font-size="10.00">Ponca::Query&lt; QueryInput</text>
<text text-anchor="start" x="182" y="-472" font-family="Helvetica,sans-Serif" font-size="10.00">IsIndex&lt; Traits::IndexType</text>
<text text-anchor="start" x="182" y="-461" font-family="Helvetica,sans-Serif" font-size="10.00"> &gt;, QueryOutputIsRange&lt; Traits</text>
<text text-anchor="start" x="182" y="-450" font-family="Helvetica,sans-Serif" font-size="10.00">::IndexType, Traits::DataPoint</text>
<text text-anchor="start" x="231" y="-439" font-family="Helvetica,sans-Serif" font-size="10.00">::Scalar &gt; &gt;</text>
<text text-anchor="start" x="258.5" y="-424" font-family="Helvetica,sans-Serif" font-size="10.00"> </text>
<text text-anchor="start" x="203" y="-409" font-family="Helvetica,sans-Serif" font-size="10.00">+</text>
<text text-anchor="start" x="238" y="-409" font-family="Helvetica,sans-Serif" font-size="10.00">Query()</text>
<text text-anchor="start" x="203" y="-394" font-family="Helvetica,sans-Serif" font-size="10.00">+</text>
<text text-anchor="start" x="238" y="-394" font-family="Helvetica,sans-Serif" font-size="10.00">Query()</text>
<text text-anchor="start" x="203" y="-379" font-family="Helvetica,sans-Serif" font-size="10.00">+</text>
<text text-anchor="start" x="238" y="-379" font-family="Helvetica,sans-Serif" font-size="10.00">operator()()</text>
<text text-anchor="start" x="203" y="-364" font-family="Helvetica,sans-Serif" font-size="10.00">+</text>
<text text-anchor="start" x="238" y="-364" font-family="Helvetica,sans-Serif" font-size="10.00">operator()()</text>
<polygon fill="#666666" stroke="#666666" points="177,-434 177,-434 344,-434 344,-434 177,-434"/>
<polygon fill="#666666" stroke="#666666" points="177,-419 177,-419 344,-419 344,-419 177,-419"/>
<polygon fill="none" stroke="#666666" points="176.5,-357 176.5,-495 343.5,-495 343.5,-357 176.5,-357"/>
</a>
</g>
</g>
<!-- Node7&#45;&gt;Node8 -->
<g id="edge7_Node000007_Node000008" class="edge">
<title>Node7&#45;&gt;Node8</title>
<g id="a_edge7_Node000007_Node000008"><a xlink:title=" ">
<path fill="none" stroke="#63b8ff" d="M260.49,-521.79C260.45,-512.74 260.4,-503.71 260.35,-495.01"/>
<polygon fill="none" stroke="#63b8ff" points="256.99,-522.01 260.55,-531.99 263.99,-521.97 256.99,-522.01"/>
</a>
</g>
</g>
<!-- Node10 -->
<g id="Node000010" class="node">
<title>Node10</title>
<g id="a_Node000010"><a xlink:href="group__spatialpartitioning.html" target="_top" xlink:title=" ">
<polygon fill="white" stroke="transparent" points="522.5,-489.5 361.5,-489.5 361.5,-362.5 522.5,-362.5 522.5,-489.5"/>
<text text-anchor="start" x="367" y="-477" font-family="Helvetica,sans-Serif" font-size="10.00">Ponca::Query&lt; QueryInput</text>
<text text-anchor="start" x="367" y="-466" font-family="Helvetica,sans-Serif" font-size="10.00">IsPosition&lt; DataPoint</text>
<text text-anchor="start" x="367" y="-455" font-family="Helvetica,sans-Serif" font-size="10.00"> &gt;, QueryOutputIsRange</text>
<text text-anchor="start" x="367" y="-444" font-family="Helvetica,sans-Serif" font-size="10.00">&lt; Index, DataPoint::Scalar &gt; &gt;</text>
<text text-anchor="start" x="440.5" y="-429" font-family="Helvetica,sans-Serif" font-size="10.00"> </text>
<text text-anchor="start" x="386.5" y="-414" font-family="Helvetica,sans-Serif" font-size="10.00">+</text>
<text text-anchor="start" x="420" y="-414" font-family="Helvetica,sans-Serif" font-size="10.00">Query()</text>
<text text-anchor="start" x="386.5" y="-399" font-family="Helvetica,sans-Serif" font-size="10.00">+</text>
<text text-anchor="start" x="420" y="-399" font-family="Helvetica,sans-Serif" font-size="10.00">Query()</text>
<text text-anchor="start" x="386.5" y="-384" font-family="Helvetica,sans-Serif" font-size="10.00">+</text>
<text text-anchor="start" x="420" y="-384" font-family="Helvetica,sans-Serif" font-size="10.00">operator()()</text>
<text text-anchor="start" x="386.5" y="-369" font-family="Helvetica,sans-Serif" font-size="10.00">+</text>
<text text-anchor="start" x="420" y="-369" font-family="Helvetica,sans-Serif" font-size="10.00">operator()()</text>
<polygon fill="#666666" stroke="#666666" points="362,-439 362,-439 523,-439 523,-439 362,-439"/>
<polygon fill="#666666" stroke="#666666" points="362,-424 362,-424 523,-424 523,-424 362,-424"/>
<polygon fill="none" stroke="#666666" points="361.5,-362.5 361.5,-489.5 522.5,-489.5 522.5,-362.5 361.5,-362.5"/>
</a>
</g>
</g>
<!-- Node9&#45;&gt;Node10 -->
<g id="edge9_Node000009_Node000010" class="edge">
<title>Node9&#45;&gt;Node10</title>
<g id="a_edge9_Node000009_Node000010"><a xlink:title=" ">
<path fill="none" stroke="#63b8ff" d="M439.91,-527.17C440.18,-514.49 440.44,-501.71 440.69,-489.72"/>
<polygon fill="none" stroke="#63b8ff" points="436.41,-527.23 439.7,-537.3 443.41,-527.37 436.41,-527.23"/>
</a>
</g>
</g>
<!-- Node11 -->
<g id="Node000011" class="node">
<title>Node11</title>
<g id="a_Node000011"><a xlink:href="group__spatialpartitioning.html#structPonca_1_1RangePointQuery" target="_top" xlink:title="Base Query class combining QueryInputIsPosition and QueryOutputIsRange.">
<polygon fill="white" stroke="transparent" points="507.5,-282.5 376.5,-282.5 376.5,-222.5 507.5,-222.5 507.5,-282.5"/>
<text text-anchor="start" x="382" y="-270.5" font-family="Helvetica,sans-Serif" font-size="10.00">Ponca::RangePointQuery</text>
<text text-anchor="start" x="390.5" y="-259.5" font-family="Helvetica,sans-Serif" font-size="10.00">&lt; Index, DataPoint &gt;</text>
<text text-anchor="start" x="440.5" y="-244.5" font-family="Helvetica,sans-Serif" font-size="10.00"> </text>
<text text-anchor="start" x="440.5" y="-229.5" font-family="Helvetica,sans-Serif" font-size="10.00"> </text>
<polygon fill="#666666" stroke="#666666" points="377,-254.5 377,-254.5 508,-254.5 508,-254.5 377,-254.5"/>
<polygon fill="#666666" stroke="#666666" points="377,-239.5 377,-239.5 508,-239.5 508,-239.5 377,-239.5"/>
<polygon fill="none" stroke="#666666" points="376.5,-222.5 376.5,-282.5 507.5,-282.5 507.5,-222.5 376.5,-222.5"/>
</a>
</g>
</g>
<!-- Node10&#45;&gt;Node11 -->
<g id="edge10_Node000010_Node000011" class="edge">
<title>Node10&#45;&gt;Node11</title>
<g id="a_edge10_Node000010_Node000011"><a xlink:title=" ">
<path fill="none" stroke="#63b8ff" d="M442,-351.8C442,-327.49 442,-301.8 442,-282.78"/>
<polygon fill="none" stroke="#63b8ff" points="438.5,-352.11 442,-362.11 445.5,-352.11 438.5,-352.11"/>
</a>
</g>
</g>
</g>
</svg>
