<?xml version="1.0" encoding="UTF-8" standalone="no"?>
<!DOCTYPE svg PUBLIC "-//W3C//DTD SVG 1.1//EN"
 "http://www.w3.org/Graphics/SVG/1.1/DTD/svg11.dtd">
<!-- Generated by graphviz version 2.43.0 (0)
 -->
<!-- Title: Ponca::QueryInputIsPosition&lt; DataPoint &gt; Pages: 1 -->
<!--zoomable 1014 -->
<svg id="main" version="1.1" xmlns="http://www.w3.org/2000/svg" xmlns:xlink="http://www.w3.org/1999/xlink" xml:space="preserve" onload="init(evt)">
<style type="text/css"><![CDATA[
.edge:hover path { stroke: red; }
.edge:hover polygon { stroke: red; fill: red; }
]]></style>
<script type="text/javascript"><![CDATA[
var edges = document.getElementsByTagName('g');
if (edges && edges.length) {
  for (var i=0;i<edges.length;i++) {
    if (edges[i].id.substr(0,4)=='edge') {
      edges[i].setAttribute('class','edge');
    }
  }
}
]]></script>
        <defs>
                <circle id="rim" cx="0" cy="0" r="7"/>
                <circle id="rim2" cx="0" cy="0" r="3.5"/>
                <g id="zoomPlus">
                        <use xlink:href="#rim" fill="#404040">
                                <set attributeName="fill" to="#808080" begin="zoomplus.mouseover" end="zoomplus.mouseout"/>
                        </use>
                        <path d="M-4,0h8M0,-4v8" fill="none" stroke="white" stroke-width="1.5" pointer-events="none"/>
                </g>
                <g id="zoomMin">
                        <use xlink:href="#rim" fill="#404040">
                                <set attributeName="fill" to="#808080" begin="zoomminus.mouseover" end="zoomminus.mouseout"/>
                        </use>
                        <path d="M-4,0h8" fill="none" stroke="white" stroke-width="1.5" pointer-events="none"/>
                </g>
                <g id="dirArrow">
                        <path fill="none" stroke="white" stroke-width="1.5" d="M0,-3.0v7 M-2.5,-0.5L0,-3.0L2.5,-0.5"/>
                </g>
               <g id="resetDef">
                       <use xlink:href="#rim2" fill="#404040">
                               <set attributeName="fill" to="#808080" begin="reset.mouseover" end="reset.mouseout"/>
                       </use>
               </g>
        </defs>

<script type="text/javascript">
var viewWidth = 1111;
var viewHeight = 1014;
var sectionId = 'dynsection-9';
</script>
<script xlink:href="svgpan.js"/>
<svg id="graph" class="graph">
<g id="viewport">
<title>Ponca::QueryInputIsPosition&lt; DataPoint &gt;</title>
<!-- Node1 -->
<g id="node1" class="node">
<title>Node1</title>
<g id="a_node1"><a xlink:title="Base class for queries storing points.">
<polygon fill="#999999" stroke="#666666" points="284,-576.5 284,-644.5 437,-644.5 437,-576.5 284,-576.5"/>
<text text-anchor="start" x="292" y="-632.5" font-family="Helvetica,sans-Serif" font-size="10.00">Ponca::QueryInputIsPosition</text>
<text text-anchor="middle" x="360.5" y="-621.5" font-family="Helvetica,sans-Serif" font-size="10.00">&lt; DataPoint &gt;</text>
<polyline fill="none" stroke="#666666" points="284,-614.5 437,-614.5 "/>
<text text-anchor="middle" x="360.5" y="-602.5" font-family="Helvetica,sans-Serif" font-size="10.00"> </text>
<polyline fill="none" stroke="#666666" points="284,-595.5 437,-595.5 "/>
<text text-anchor="start" x="292" y="-583.5" font-family="Helvetica,sans-Serif" font-size="10.00">+ QueryInputIsPosition()</text>
</a>
</g>
</g>
<!-- Node5 -->
<g id="node5" class="node">
<title>Node5</title>
<g id="a_node5"><a xlink:href="group__spatialpartitioning.html" target="_top" xlink:title=" ">
<polygon fill="white" stroke="#bfbfbf" points="0,-427.5 0,-528.5 167,-528.5 167,-427.5 0,-427.5"/>
<text text-anchor="start" x="8" y="-516.5" font-family="Helvetica,sans-Serif" font-size="10.00">Ponca::Query&lt; QueryInput</text>
<text text-anchor="start" x="8" y="-505.5" font-family="Helvetica,sans-Serif" font-size="10.00">IsPosition&lt; DataPoint</text>
<text text-anchor="start" x="8" y="-494.5" font-family="Helvetica,sans-Serif" font-size="10.00"> &gt;, QueryOutputIsKNearest</text>
<text text-anchor="middle" x="83.5" y="-483.5" font-family="Helvetica,sans-Serif" font-size="10.00">&lt; Index, DataPoint::Scalar &gt; &gt;</text>
<polyline fill="none" stroke="#bfbfbf" points="0,-476.5 167,-476.5 "/>
<text text-anchor="middle" x="83.5" y="-464.5" font-family="Helvetica,sans-Serif" font-size="10.00"> </text>
<polyline fill="none" stroke="#bfbfbf" points="0,-457.5 167,-457.5 "/>
<text text-anchor="start" x="8" y="-445.5" font-family="Helvetica,sans-Serif" font-size="10.00">+ Query()</text>
<text text-anchor="start" x="8" y="-434.5" font-family="Helvetica,sans-Serif" font-size="10.00">+ Query()</text>
</a>
</g>
</g>
<!-- Node1&#45;&gt;Node5 -->
<g id="edge5" class="edge">
<title>Node1&#45;&gt;Node5</title>
<path fill="none" stroke="#63b8ff" d="M274.17,-573.79C242.83,-560.34 207.31,-544.53 175.5,-529 172.72,-527.64 169.91,-526.25 167.08,-524.82"/>
<polygon fill="none" stroke="#63b8ff" points="273.19,-577.17 283.76,-577.89 275.94,-570.74 273.19,-577.17"/>
</g>
<!-- Node9 -->
<g id="node9" class="node">
<title>Node9</title>
<g id="a_node9"><a xlink:href="group__spatialpartitioning.html" target="_top" xlink:title=" ">
<polygon fill="white" stroke="#bfbfbf" points="185,-427.5 185,-528.5 352,-528.5 352,-427.5 185,-427.5"/>
<text text-anchor="start" x="193" y="-516.5" font-family="Helvetica,sans-Serif" font-size="10.00">Ponca::Query&lt; QueryInput</text>
<text text-anchor="start" x="193" y="-505.5" font-family="Helvetica,sans-Serif" font-size="10.00">IsPosition&lt; DataPoint</text>
<text text-anchor="start" x="193" y="-494.5" font-family="Helvetica,sans-Serif" font-size="10.00"> &gt;, QueryOutputIsNearest</text>
<text text-anchor="middle" x="268.5" y="-483.5" font-family="Helvetica,sans-Serif" font-size="10.00">&lt; Index, DataPoint::Scalar &gt; &gt;</text>
<polyline fill="none" stroke="#bfbfbf" points="185,-476.5 352,-476.5 "/>
<text text-anchor="middle" x="268.5" y="-464.5" font-family="Helvetica,sans-Serif" font-size="10.00"> </text>
<polyline fill="none" stroke="#bfbfbf" points="185,-457.5 352,-457.5 "/>
<text text-anchor="start" x="193" y="-445.5" font-family="Helvetica,sans-Serif" font-size="10.00">+ Query()</text>
<text text-anchor="start" x="193" y="-434.5" font-family="Helvetica,sans-Serif" font-size="10.00">+ Query()</text>
</a>
</g>
</g>
<!-- Node1&#45;&gt;Node9 -->
<g id="edge9" class="edge">
<title>Node1&#45;&gt;Node9</title>
<path fill="none" stroke="#63b8ff" d="M331.17,-567.9C322.45,-555.52 312.79,-541.83 303.73,-528.98"/>
<polygon fill="none" stroke="#63b8ff" points="328.42,-570.08 337.05,-576.23 334.15,-566.04 328.42,-570.08"/>
</g>
<!-- Node13 -->
<g id="node13" class="node">
<title>Node13</title>
<g id="a_node13"><a xlink:href="group__spatialpartitioning.html" target="_top" xlink:title=" ">
<polygon fill="white" stroke="#bfbfbf" points="370,-427.5 370,-528.5 537,-528.5 537,-427.5 370,-427.5"/>
<text text-anchor="start" x="378" y="-516.5" font-family="Helvetica,sans-Serif" font-size="10.00">Ponca::Query&lt; QueryInput</text>
<text text-anchor="start" x="378" y="-505.5" font-family="Helvetica,sans-Serif" font-size="10.00">IsPosition&lt; DataPoint</text>
<text text-anchor="start" x="378" y="-494.5" font-family="Helvetica,sans-Serif" font-size="10.00"> &gt;, QueryOutputIsRange</text>
<text text-anchor="middle" x="453.5" y="-483.5" font-family="Helvetica,sans-Serif" font-size="10.00">&lt; Index, DataPoint::Scalar &gt; &gt;</text>
<polyline fill="none" stroke="#bfbfbf" points="370,-476.5 537,-476.5 "/>
<text text-anchor="middle" x="453.5" y="-464.5" font-family="Helvetica,sans-Serif" font-size="10.00"> </text>
<polyline fill="none" stroke="#bfbfbf" points="370,-457.5 537,-457.5 "/>
<text text-anchor="start" x="378" y="-445.5" font-family="Helvetica,sans-Serif" font-size="10.00">+ Query()</text>
<text text-anchor="start" x="378" y="-434.5" font-family="Helvetica,sans-Serif" font-size="10.00">+ Query()</text>
</a>
</g>
</g>
<!-- Node1&#45;&gt;Node13 -->
<g id="edge13" class="edge">
<title>Node1&#45;&gt;Node13</title>
<path fill="none" stroke="#63b8ff" d="M390.15,-567.9C398.97,-555.52 408.73,-541.83 417.89,-528.98"/>
<polygon fill="none" stroke="#63b8ff" points="387.16,-566.06 384.21,-576.23 392.86,-570.12 387.16,-566.06"/>
</g>
<!-- Node17 -->
<g id="node17" class="node">
<title>Node17</title>
<g id="a_node17"><a xlink:href="group__spatialpartitioning.html" target="_top" xlink:title=" ">
<polygon fill="white" stroke="#666666" points="651,-444 651,-512 804,-512 804,-444 651,-444"/>
<text text-anchor="start" x="659" y="-500" font-family="Helvetica,sans-Serif" font-size="10.00">Ponca::QueryInputIsPosition</text>
<text text-anchor="middle" x="727.5" y="-489" font-family="Helvetica,sans-Serif" font-size="10.00">&lt; Traits::DataPoint &gt;</text>
<polyline fill="none" stroke="#666666" points="651,-482 804,-482 "/>
<text text-anchor="middle" x="727.5" y="-470" font-family="Helvetica,sans-Serif" font-size="10.00"> </text>
<polyline fill="none" stroke="#666666" points="651,-463 804,-463 "/>
<text text-anchor="start" x="659" y="-451" font-family="Helvetica,sans-Serif" font-size="10.00">+ QueryInputIsPosition()</text>
</a>
</g>
</g>
<!-- Node1&#45;&gt;Node17 -->
<g id="edge17" class="edge">
<title>Node1&#45;&gt;Node17</title>
<path fill="none" stroke="orange" d="M447.18,-578.68C509.07,-556.67 591.53,-527.35 650.98,-506.21"/>
<polygon fill="orange" stroke="orange" points="445.68,-575.49 437.44,-582.14 448.03,-582.09 445.68,-575.49"/>
<text text-anchor="middle" x="585.5" y="-550" font-family="Helvetica,sans-Serif" font-size="10.00"> &lt; Traits::DataPoint &gt;</text>
</g>
<!-- Node2 -->
<g id="node2" class="node">
<title>Node2</title>
<g id="a_node2"><a xlink:href="group__spatialpartitioning.html" target="_top" xlink:title=" ">
<polygon fill="white" stroke="#666666" points="291.5,-682.5 291.5,-772.5 429.5,-772.5 429.5,-682.5 291.5,-682.5"/>
<text text-anchor="start" x="299.5" y="-760.5" font-family="Helvetica,sans-Serif" font-size="10.00">Ponca::QueryInput&lt;</text>
<text text-anchor="middle" x="360.5" y="-749.5" font-family="Helvetica,sans-Serif" font-size="10.00"> DataPoint::VectorType &gt;</text>
<polyline fill="none" stroke="#666666" points="291.5,-742.5 429.5,-742.5 "/>
<text text-anchor="middle" x="360.5" y="-730.5" font-family="Helvetica,sans-Serif" font-size="10.00"> </text>
<polyline fill="none" stroke="#666666" points="291.5,-723.5 429.5,-723.5 "/>
<text text-anchor="start" x="299.5" y="-711.5" font-family="Helvetica,sans-Serif" font-size="10.00">+ QueryInput()</text>
<text text-anchor="start" x="299.5" y="-700.5" font-family="Helvetica,sans-Serif" font-size="10.00">+ input()</text>
<text text-anchor="start" x="299.5" y="-689.5" font-family="Helvetica,sans-Serif" font-size="10.00"># editInput()</text>
</a>
</g>
</g>
<!-- Node2&#45;&gt;Node1 -->
<g id="edge1" class="edge">
<title>Node2&#45;&gt;Node1</title>
<path fill="none" stroke="#63b8ff" d="M360.5,-672.23C360.5,-662.8 360.5,-653.26 360.5,-644.62"/>
<polygon fill="none" stroke="#63b8ff" points="357,-672.37 360.5,-682.37 364,-672.37 357,-672.37"/>
</g>
<!-- Node3 -->
<g id="node3" class="node">
<title>Node3</title>
<g id="a_node3"><a xlink:href="group__spatialpartitioning.html#structPonca_1_1QueryInputBase" target="_top" xlink:title="Base class for queries input type.">
<polygon fill="white" stroke="#666666" points="291.5,-948.5 291.5,-1005.5 421.5,-1005.5 421.5,-948.5 291.5,-948.5"/>
<text text-anchor="middle" x="356.5" y="-993.5" font-family="Helvetica,sans-Serif" font-size="10.00">Ponca::QueryInputBase</text>
<polyline fill="none" stroke="#666666" points="291.5,-986.5 421.5,-986.5 "/>
<text text-anchor="middle" x="356.5" y="-974.5" font-family="Helvetica,sans-Serif" font-size="10.00"> </text>
<polyline fill="none" stroke="#666666" points="291.5,-967.5 421.5,-967.5 "/>
<text text-anchor="middle" x="356.5" y="-955.5" font-family="Helvetica,sans-Serif" font-size="10.00"> </text>
</a>
</g>
</g>
<!-- Node3&#45;&gt;Node2 -->
<g id="edge2" class="edge">
<title>Node3&#45;&gt;Node2</title>
<path fill="none" stroke="#63b8ff" d="M357.11,-937.96C357.84,-893.36 359.03,-819.58 359.79,-772.54"/>
<polygon fill="none" stroke="#63b8ff" points="353.61,-938.03 356.95,-948.09 360.61,-938.15 353.61,-938.03"/>
</g>
<!-- Node4 -->
<g id="node4" class="node">
<title>Node4</title>
<g id="a_node4"><a xlink:href="group__spatialpartitioning.html#structPonca_1_1QueryInput" target="_top" xlink:title="Base class for typed queries input type.">
<polygon fill="white" stroke="#666666" points="372.5,-820.5 372.5,-910.5 486.5,-910.5 486.5,-820.5 372.5,-820.5"/>
<text text-anchor="start" x="380.5" y="-898.5" font-family="Helvetica,sans-Serif" font-size="10.00">Ponca::QueryInput&lt;</text>
<text text-anchor="middle" x="429.5" y="-887.5" font-family="Helvetica,sans-Serif" font-size="10.00"> InputType_ &gt;</text>
<polyline fill="none" stroke="#666666" points="372.5,-880.5 486.5,-880.5 "/>
<text text-anchor="middle" x="429.5" y="-868.5" font-family="Helvetica,sans-Serif" font-size="10.00"> </text>
<polyline fill="none" stroke="#666666" points="372.5,-861.5 486.5,-861.5 "/>
<text text-anchor="start" x="380.5" y="-849.5" font-family="Helvetica,sans-Serif" font-size="10.00">+ QueryInput()</text>
<text text-anchor="start" x="380.5" y="-838.5" font-family="Helvetica,sans-Serif" font-size="10.00">+ input()</text>
<text text-anchor="start" x="380.5" y="-827.5" font-family="Helvetica,sans-Serif" font-size="10.00"># editInput()</text>
</a>
</g>
</g>
<!-- Node3&#45;&gt;Node4 -->
<g id="edge4" class="edge">
<title>Node3&#45;&gt;Node4</title>
<path fill="none" stroke="#63b8ff" d="M380.47,-940.04C386.72,-930.68 393.51,-920.48 400.01,-910.74"/>
<polygon fill="none" stroke="#63b8ff" points="377.56,-938.11 374.92,-948.37 383.38,-941.99 377.56,-938.11"/>
</g>
<!-- Node4&#45;&gt;Node2 -->
<g id="edge3" class="edge">
<title>Node4&#45;&gt;Node2</title>
<path fill="none" stroke="orange" d="M402.49,-811.26C396.05,-798.56 389.24,-785.15 383.03,-772.9"/>
<polygon fill="orange" stroke="orange" points="399.45,-813.01 407.1,-820.34 405.69,-809.84 399.45,-813.01"/>
<text text-anchor="middle" x="463" y="-794" font-family="Helvetica,sans-Serif" font-size="10.00"> &lt; DataPoint::VectorType &gt;</text>
</g>
<!-- Node6 -->
<g id="node6" class="node">
<title>Node6</title>
<g id="a_node6"><a xlink:href="group__spatialpartitioning.html#structPonca_1_1KNearestPointQuery" target="_top" xlink:title="Base Query class combining QueryInputIsPosition and QueryOutputIsKNearest.">
<polygon fill="white" stroke="#666666" points="8,-299.5 8,-367.5 159,-367.5 159,-299.5 8,-299.5"/>
<text text-anchor="start" x="16" y="-355.5" font-family="Helvetica,sans-Serif" font-size="10.00">Ponca::KNearestPointQuery</text>
<text text-anchor="middle" x="83.5" y="-344.5" font-family="Helvetica,sans-Serif" font-size="10.00">&lt; Index, DataPoint &gt;</text>
<polyline fill="none" stroke="#666666" points="8,-337.5 159,-337.5 "/>
<text text-anchor="middle" x="83.5" y="-325.5" font-family="Helvetica,sans-Serif" font-size="10.00"> </text>
<polyline fill="none" stroke="#666666" points="8,-318.5 159,-318.5 "/>
<text text-anchor="middle" x="83.5" y="-306.5" font-family="Helvetica,sans-Serif" font-size="10.00"> </text>
</a>
</g>
</g>
<!-- Node5&#45;&gt;Node6 -->
<g id="edge6" class="edge">
<title>Node5&#45;&gt;Node6</title>
<path fill="none" stroke="#63b8ff" d="M83.5,-416.8C83.5,-399.93 83.5,-382.21 83.5,-367.56"/>
<polygon fill="none" stroke="#63b8ff" points="80,-417.16 83.5,-427.16 87,-417.16 80,-417.16"/>
</g>
<!-- Node7 -->
<g id="node7" class="node">
<title>Node7</title>
<g id="a_node7"><a xlink:href="group__spatialpartitioning.html" target="_top" xlink:title=" ">
<polygon fill="white" stroke="#666666" points="8,-139.5 8,-218.5 159,-218.5 159,-139.5 8,-139.5"/>
<text text-anchor="start" x="16" y="-206.5" font-family="Helvetica,sans-Serif" font-size="10.00">Ponca::KNearestPointQuery</text>
<text text-anchor="start" x="16" y="-195.5" font-family="Helvetica,sans-Serif" font-size="10.00">&lt; Traits::IndexType, Traits</text>
<text text-anchor="middle" x="83.5" y="-184.5" font-family="Helvetica,sans-Serif" font-size="10.00">::DataPoint &gt;</text>
<polyline fill="none" stroke="#666666" points="8,-177.5 159,-177.5 "/>
<text text-anchor="middle" x="83.5" y="-165.5" font-family="Helvetica,sans-Serif" font-size="10.00"> </text>
<polyline fill="none" stroke="#666666" points="8,-158.5 159,-158.5 "/>
<text text-anchor="middle" x="83.5" y="-146.5" font-family="Helvetica,sans-Serif" font-size="10.00"> </text>
</a>
</g>
</g>
<!-- Node6&#45;&gt;Node7 -->
<g id="edge7" class="edge">
<title>Node6&#45;&gt;Node7</title>
<path fill="none" stroke="orange" d="M83.5,-289.25C83.5,-267.04 83.5,-240.2 83.5,-218.68"/>
<polygon fill="orange" stroke="orange" points="80,-289.41 83.5,-299.41 87,-289.41 80,-289.41"/>
<text text-anchor="start" x="83.5" y="-251" font-family="Helvetica,sans-Serif" font-size="10.00"> &lt; Traits::IndexType,</text>
<text text-anchor="middle" x="133.5" y="-240" font-family="Helvetica,sans-Serif" font-size="10.00"> Traits::DataPoint &gt;</text>
</g>
<!-- Node8 -->
<g id="node8" class="node">
<title>Node8</title>
<g id="a_node8"><a xlink:href="classPonca_1_1KdTreeKNearestPointQuery.html" target="_top" xlink:title=" ">
<polygon fill="white" stroke="#bfbfbf" points="0,-0.5 0,-101.5 167,-101.5 167,-0.5 0,-0.5"/>
<text text-anchor="start" x="8" y="-89.5" font-family="Helvetica,sans-Serif" font-size="10.00">Ponca::KdTreeKNearestPoint</text>
<text text-anchor="middle" x="83.5" y="-78.5" font-family="Helvetica,sans-Serif" font-size="10.00">Query&lt; Traits &gt;</text>
<polyline fill="none" stroke="#bfbfbf" points="0,-71.5 167,-71.5 "/>
<text text-anchor="middle" x="83.5" y="-59.5" font-family="Helvetica,sans-Serif" font-size="10.00"> </text>
<polyline fill="none" stroke="#bfbfbf" points="0,-52.5 167,-52.5 "/>
<text text-anchor="start" x="8" y="-40.5" font-family="Helvetica,sans-Serif" font-size="10.00">+ KdTreeKNearestPointQuery()</text>
<text text-anchor="start" x="8" y="-29.5" font-family="Helvetica,sans-Serif" font-size="10.00">+ begin()</text>
<text text-anchor="start" x="8" y="-18.5" font-family="Helvetica,sans-Serif" font-size="10.00">+ end()</text>
<text text-anchor="start" x="8" y="-7.5" font-family="Helvetica,sans-Serif" font-size="10.00"># search()</text>
</a>
</g>
</g>
<!-- Node7&#45;&gt;Node8 -->
<g id="edge8" class="edge">
<title>Node7&#45;&gt;Node8</title>
<path fill="none" stroke="#63b8ff" d="M83.5,-128.89C83.5,-119.94 83.5,-110.6 83.5,-101.63"/>
<polygon fill="none" stroke="#63b8ff" points="80,-129.17 83.5,-139.17 87,-129.17 80,-129.17"/>
</g>
<!-- Node10 -->
<g id="node10" class="node">
<title>Node10</title>
<g id="a_node10"><a xlink:href="group__spatialpartitioning.html#structPonca_1_1NearestPointQuery" target="_top" xlink:title="Base Query class combining QueryInputIsPosition and QueryOutputIsNearest.">
<polygon fill="white" stroke="#666666" points="196.5,-299.5 196.5,-367.5 340.5,-367.5 340.5,-299.5 196.5,-299.5"/>
<text text-anchor="start" x="204.5" y="-355.5" font-family="Helvetica,sans-Serif" font-size="10.00">Ponca::NearestPointQuery</text>
<text text-anchor="middle" x="268.5" y="-344.5" font-family="Helvetica,sans-Serif" font-size="10.00">&lt; Index, DataPoint &gt;</text>
<polyline fill="none" stroke="#666666" points="196.5,-337.5 340.5,-337.5 "/>
<text text-anchor="middle" x="268.5" y="-325.5" font-family="Helvetica,sans-Serif" font-size="10.00"> </text>
<polyline fill="none" stroke="#666666" points="196.5,-318.5 340.5,-318.5 "/>
<text text-anchor="middle" x="268.5" y="-306.5" font-family="Helvetica,sans-Serif" font-size="10.00"> </text>
</a>
</g>
</g>
<!-- Node9&#45;&gt;Node10 -->
<g id="edge10" class="edge">
<title>Node9&#45;&gt;Node10</title>
<path fill="none" stroke="#63b8ff" d="M268.5,-416.8C268.5,-399.93 268.5,-382.21 268.5,-367.56"/>
<polygon fill="none" stroke="#63b8ff" points="265,-417.16 268.5,-427.16 272,-417.16 265,-417.16"/>
</g>
<!-- Node11 -->
<g id="node11" class="node">
<title>Node11</title>
<g id="a_node11"><a xlink:href="group__spatialpartitioning.html" target="_top" xlink:title=" ">
<polygon fill="white" stroke="#666666" points="196.5,-139.5 196.5,-218.5 340.5,-218.5 340.5,-139.5 196.5,-139.5"/>
<text text-anchor="start" x="204.5" y="-206.5" font-family="Helvetica,sans-Serif" font-size="10.00">Ponca::NearestPointQuery</text>
<text text-anchor="start" x="204.5" y="-195.5" font-family="Helvetica,sans-Serif" font-size="10.00">&lt; Traits::IndexType, Traits</text>
<text text-anchor="middle" x="268.5" y="-184.5" font-family="Helvetica,sans-Serif" font-size="10.00">::DataPoint &gt;</text>
<polyline fill="none" stroke="#666666" points="196.5,-177.5 340.5,-177.5 "/>
<text text-anchor="middle" x="268.5" y="-165.5" font-family="Helvetica,sans-Serif" font-size="10.00"> </text>
<polyline fill="none" stroke="#666666" points="196.5,-158.5 340.5,-158.5 "/>
<text text-anchor="middle" x="268.5" y="-146.5" font-family="Helvetica,sans-Serif" font-size="10.00"> </text>
</a>
</g>
</g>
<!-- Node10&#45;&gt;Node11 -->
<g id="edge11" class="edge">
<title>Node10&#45;&gt;Node11</title>
<path fill="none" stroke="orange" d="M268.5,-289.25C268.5,-267.04 268.5,-240.2 268.5,-218.68"/>
<polygon fill="orange" stroke="orange" points="265,-289.41 268.5,-299.41 272,-289.41 265,-289.41"/>
<text text-anchor="start" x="268.5" y="-251" font-family="Helvetica,sans-Serif" font-size="10.00"> &lt; Traits::IndexType,</text>
<text text-anchor="middle" x="318.5" y="-240" font-family="Helvetica,sans-Serif" font-size="10.00"> Traits::DataPoint &gt;</text>
</g>
<!-- Node12 -->
<g id="node12" class="node">
<title>Node12</title>
<g id="a_node12"><a xlink:href="classPonca_1_1KdTreeNearestPointQuery.html" target="_top" xlink:title=" ">
<polygon fill="white" stroke="#bfbfbf" points="188,-0.5 188,-101.5 349,-101.5 349,-0.5 188,-0.5"/>
<text text-anchor="start" x="196" y="-89.5" font-family="Helvetica,sans-Serif" font-size="10.00">Ponca::KdTreeNearestPoint</text>
<text text-anchor="middle" x="268.5" y="-78.5" font-family="Helvetica,sans-Serif" font-size="10.00">Query&lt; Traits &gt;</text>
<polyline fill="none" stroke="#bfbfbf" points="188,-71.5 349,-71.5 "/>
<text text-anchor="middle" x="268.5" y="-59.5" font-family="Helvetica,sans-Serif" font-size="10.00"> </text>
<polyline fill="none" stroke="#bfbfbf" points="188,-52.5 349,-52.5 "/>
<text text-anchor="start" x="196" y="-40.5" font-family="Helvetica,sans-Serif" font-size="10.00">+ KdTreeNearestPointQuery()</text>
<text text-anchor="start" x="196" y="-29.5" font-family="Helvetica,sans-Serif" font-size="10.00">+ begin()</text>
<text text-anchor="start" x="196" y="-18.5" font-family="Helvetica,sans-Serif" font-size="10.00">+ end()</text>
<text text-anchor="start" x="196" y="-7.5" font-family="Helvetica,sans-Serif" font-size="10.00"># search()</text>
</a>
</g>
</g>
<!-- Node11&#45;&gt;Node12 -->
<g id="edge12" class="edge">
<title>Node11&#45;&gt;Node12</title>
<path fill="none" stroke="#63b8ff" d="M268.5,-128.89C268.5,-119.94 268.5,-110.6 268.5,-101.63"/>
<polygon fill="none" stroke="#63b8ff" points="265,-129.17 268.5,-139.17 272,-129.17 265,-129.17"/>
</g>
<!-- Node14 -->
<g id="node14" class="node">
<title>Node14</title>
<g id="a_node14"><a xlink:href="group__spatialpartitioning.html#structPonca_1_1RangePointQuery" target="_top" xlink:title="Base Query class combining QueryInputIsPosition and QueryOutputIsRange.">
<polygon fill="white" stroke="#666666" points="384,-299.5 384,-367.5 521,-367.5 521,-299.5 384,-299.5"/>
<text text-anchor="start" x="392" y="-355.5" font-family="Helvetica,sans-Serif" font-size="10.00">Ponca::RangePointQuery</text>
<text text-anchor="middle" x="452.5" y="-344.5" font-family="Helvetica,sans-Serif" font-size="10.00">&lt; Index, DataPoint &gt;</text>
<polyline fill="none" stroke="#666666" points="384,-337.5 521,-337.5 "/>
<text text-anchor="middle" x="452.5" y="-325.5" font-family="Helvetica,sans-Serif" font-size="10.00"> </text>
<polyline fill="none" stroke="#666666" points="384,-318.5 521,-318.5 "/>
<text text-anchor="middle" x="452.5" y="-306.5" font-family="Helvetica,sans-Serif" font-size="10.00"> </text>
</a>
</g>
</g>
<!-- Node13&#45;&gt;Node14 -->
<g id="edge14" class="edge">
<title>Node13&#45;&gt;Node14</title>
<path fill="none" stroke="#63b8ff" d="M453.08,-416.8C452.96,-399.93 452.83,-382.21 452.73,-367.56"/>
<polygon fill="none" stroke="#63b8ff" points="449.58,-417.19 453.15,-427.16 456.58,-417.14 449.58,-417.19"/>
</g>
<!-- Node15 -->
<g id="node15" class="node">
<title>Node15</title>
<g id="a_node15"><a xlink:href="group__spatialpartitioning.html" target="_top" xlink:title=" ">
<polygon fill="white" stroke="#666666" points="381.5,-139.5 381.5,-218.5 523.5,-218.5 523.5,-139.5 381.5,-139.5"/>
<text text-anchor="start" x="389.5" y="-206.5" font-family="Helvetica,sans-Serif" font-size="10.00">Ponca::RangePointQuery</text>
<text text-anchor="start" x="389.5" y="-195.5" font-family="Helvetica,sans-Serif" font-size="10.00">&lt; Traits::IndexType, Traits</text>
<text text-anchor="middle" x="452.5" y="-184.5" font-family="Helvetica,sans-Serif" font-size="10.00">::DataPoint &gt;</text>
<polyline fill="none" stroke="#666666" points="381.5,-177.5 523.5,-177.5 "/>
<text text-anchor="middle" x="452.5" y="-165.5" font-family="Helvetica,sans-Serif" font-size="10.00"> </text>
<polyline fill="none" stroke="#666666" points="381.5,-158.5 523.5,-158.5 "/>
<text text-anchor="middle" x="452.5" y="-146.5" font-family="Helvetica,sans-Serif" font-size="10.00"> </text>
</a>
</g>
</g>
<!-- Node14&#45;&gt;Node15 -->
<g id="edge15" class="edge">
<title>Node14&#45;&gt;Node15</title>
<path fill="none" stroke="orange" d="M452.5,-289.25C452.5,-267.04 452.5,-240.2 452.5,-218.68"/>
<polygon fill="orange" stroke="orange" points="449,-289.41 452.5,-299.41 456,-289.41 449,-289.41"/>
<text text-anchor="start" x="452.5" y="-251" font-family="Helvetica,sans-Serif" font-size="10.00"> &lt; Traits::IndexType,</text>
<text text-anchor="middle" x="502.5" y="-240" font-family="Helvetica,sans-Serif" font-size="10.00"> Traits::DataPoint &gt;</text>
</g>
<!-- Node16 -->
<g id="node16" class="node">
<title>Node16</title>
<g id="a_node16"><a xlink:href="classPonca_1_1KdTreeRangePointQuery.html" target="_top" xlink:title=" ">
<polygon fill="white" stroke="#bfbfbf" points="367.5,-0.5 367.5,-101.5 537.5,-101.5 537.5,-0.5 367.5,-0.5"/>
<text text-anchor="start" x="375.5" y="-89.5" font-family="Helvetica,sans-Serif" font-size="10.00">Ponca::KdTreeRangePointQuery</text>
<text text-anchor="middle" x="452.5" y="-78.5" font-family="Helvetica,sans-Serif" font-size="10.00">&lt; Traits &gt;</text>
<polyline fill="none" stroke="#bfbfbf" points="367.5,-71.5 537.5,-71.5 "/>
<text text-anchor="start" x="375.5" y="-59.5" font-family="Helvetica,sans-Serif" font-size="10.00"># Iterator</text>
<polyline fill="none" stroke="#bfbfbf" points="367.5,-52.5 537.5,-52.5 "/>
<text text-anchor="start" x="375.5" y="-40.5" font-family="Helvetica,sans-Serif" font-size="10.00">+ KdTreeRangePointQuery()</text>
<text text-anchor="start" x="375.5" y="-29.5" font-family="Helvetica,sans-Serif" font-size="10.00">+ begin()</text>
<text text-anchor="start" x="375.5" y="-18.5" font-family="Helvetica,sans-Serif" font-size="10.00">+ end()</text>
<text text-anchor="start" x="375.5" y="-7.5" font-family="Helvetica,sans-Serif" font-size="10.00"># advance()</text>
</a>
</g>
</g>
<!-- Node15&#45;&gt;Node16 -->
<g id="edge16" class="edge">
<title>Node15&#45;&gt;Node16</title>
<path fill="none" stroke="#63b8ff" d="M452.5,-128.89C452.5,-119.94 452.5,-110.6 452.5,-101.63"/>
<polygon fill="none" stroke="#63b8ff" points="449,-129.17 452.5,-139.17 456,-129.17 449,-129.17"/>
</g>
<!-- Node18 -->
<g id="node18" class="node">
<title>Node18</title>
<g id="a_node18"><a xlink:href="group__spatialpartitioning.html" target="_top" xlink:title=" ">
<polygon fill="white" stroke="#bfbfbf" points="539.5,-277.5 539.5,-389.5 697.5,-389.5 697.5,-277.5 539.5,-277.5"/>
<text text-anchor="start" x="547.5" y="-377.5" font-family="Helvetica,sans-Serif" font-size="10.00">Ponca::Query&lt; QueryInput</text>
<text text-anchor="start" x="547.5" y="-366.5" font-family="Helvetica,sans-Serif" font-size="10.00">IsPosition&lt; Traits::DataPoint</text>
<text text-anchor="start" x="547.5" y="-355.5" font-family="Helvetica,sans-Serif" font-size="10.00"> &gt;, QueryOutputIsKNearest&lt;</text>
<text text-anchor="start" x="547.5" y="-344.5" font-family="Helvetica,sans-Serif" font-size="10.00"> Traits::IndexType, DataPoint</text>
<text text-anchor="middle" x="618.5" y="-333.5" font-family="Helvetica,sans-Serif" font-size="10.00">::Scalar &gt; &gt;</text>
<polyline fill="none" stroke="#bfbfbf" points="539.5,-326.5 697.5,-326.5 "/>
<text text-anchor="middle" x="618.5" y="-314.5" font-family="Helvetica,sans-Serif" font-size="10.00"> </text>
<polyline fill="none" stroke="#bfbfbf" points="539.5,-307.5 697.5,-307.5 "/>
<text text-anchor="start" x="547.5" y="-295.5" font-family="Helvetica,sans-Serif" font-size="10.00">+ Query()</text>
<text text-anchor="start" x="547.5" y="-284.5" font-family="Helvetica,sans-Serif" font-size="10.00">+ Query()</text>
</a>
</g>
</g>
<!-- Node17&#45;&gt;Node18 -->
<g id="edge18" class="edge">
<title>Node17&#45;&gt;Node18</title>
<path fill="none" stroke="#63b8ff" d="M695.94,-435.74C684.95,-421.37 672.44,-405.01 660.72,-389.7"/>
<polygon fill="none" stroke="#63b8ff" points="693.36,-438.13 702.22,-443.95 698.92,-433.88 693.36,-438.13"/>
</g>
<!-- Node19 -->
<g id="node19" class="node">
<title>Node19</title>
<g id="a_node19"><a xlink:href="group__spatialpartitioning.html" target="_top" xlink:title=" ">
<polygon fill="white" stroke="#bfbfbf" points="715,-283 715,-384 900,-384 900,-283 715,-283"/>
<text text-anchor="start" x="723" y="-372" font-family="Helvetica,sans-Serif" font-size="10.00">Ponca::Query&lt; QueryInput</text>
<text text-anchor="start" x="723" y="-361" font-family="Helvetica,sans-Serif" font-size="10.00">IsPosition&lt; Traits::DataPoint</text>
<text text-anchor="start" x="723" y="-350" font-family="Helvetica,sans-Serif" font-size="10.00"> &gt;, QueryOutputIsNearest&lt; Traits</text>
<text text-anchor="middle" x="807.5" y="-339" font-family="Helvetica,sans-Serif" font-size="10.00">::IndexType, DataPoint::Scalar &gt; &gt;</text>
<polyline fill="none" stroke="#bfbfbf" points="715,-332 900,-332 "/>
<text text-anchor="middle" x="807.5" y="-320" font-family="Helvetica,sans-Serif" font-size="10.00"> </text>
<polyline fill="none" stroke="#bfbfbf" points="715,-313 900,-313 "/>
<text text-anchor="start" x="723" y="-301" font-family="Helvetica,sans-Serif" font-size="10.00">+ Query()</text>
<text text-anchor="start" x="723" y="-290" font-family="Helvetica,sans-Serif" font-size="10.00">+ Query()</text>
</a>
</g>
</g>
<!-- Node17&#45;&gt;Node19 -->
<g id="edge19" class="edge">
<title>Node17&#45;&gt;Node19</title>
<path fill="none" stroke="#63b8ff" d="M751.15,-434.88C760.09,-418.95 770.34,-400.69 779.63,-384.14"/>
<polygon fill="none" stroke="#63b8ff" points="747.9,-433.52 746.05,-443.95 754,-436.94 747.9,-433.52"/>
</g>
<!-- Node20 -->
<g id="node20" class="node">
<title>Node20</title>
<g id="a_node20"><a xlink:href="group__spatialpartitioning.html" target="_top" xlink:title=" ">
<polygon fill="white" stroke="#bfbfbf" points="918,-283 918,-384 1103,-384 1103,-283 918,-283"/>
<text text-anchor="start" x="926" y="-372" font-family="Helvetica,sans-Serif" font-size="10.00">Ponca::Query&lt; QueryInput</text>
<text text-anchor="start" x="926" y="-361" font-family="Helvetica,sans-Serif" font-size="10.00">IsPosition&lt; Traits::DataPoint</text>
<text text-anchor="start" x="926" y="-350" font-family="Helvetica,sans-Serif" font-size="10.00"> &gt;, QueryOutputIsRange&lt; Traits</text>
<text text-anchor="middle" x="1010.5" y="-339" font-family="Helvetica,sans-Serif" font-size="10.00">::IndexType, DataPoint::Scalar &gt; &gt;</text>
<polyline fill="none" stroke="#bfbfbf" points="918,-332 1103,-332 "/>
<text text-anchor="middle" x="1010.5" y="-320" font-family="Helvetica,sans-Serif" font-size="10.00"> </text>
<polyline fill="none" stroke="#bfbfbf" points="918,-313 1103,-313 "/>
<text text-anchor="start" x="926" y="-301" font-family="Helvetica,sans-Serif" font-size="10.00">+ Query()</text>
<text text-anchor="start" x="926" y="-290" font-family="Helvetica,sans-Serif" font-size="10.00">+ Query()</text>
</a>
</g>
</g>
<!-- Node17&#45;&gt;Node20 -->
<g id="edge20" class="edge">
<title>Node17&#45;&gt;Node20</title>
<path fill="none" stroke="#63b8ff" d="M808.51,-439.48C840.2,-424.49 876.75,-406.81 909.5,-390 913.24,-388.08 917.04,-386.1 920.88,-384.09"/>
<polygon fill="none" stroke="#63b8ff" points="806.82,-436.41 799.27,-443.84 809.81,-442.74 806.82,-436.41"/>
</g>
</g>
</svg>
        <g id="navigator" transform="translate(0 0)" fill="#404254">
                <rect fill="#f2f5e9" fill-opacity="0.5" stroke="#606060" stroke-width=".5" x="0" y="0" width="60" height="60"/>
                <use id="zoomplus" xlink:href="#zoomPlus" x="17" y="9" onmousedown="handleZoom(evt,'in')"/>
                <use id="zoomminus" xlink:href="#zoomMin" x="42" y="9" onmousedown="handleZoom(evt,'out')"/>
                <use id="reset" xlink:href="#resetDef" x="30" y="36" onmousedown="handleReset()"/>
                <g id="arrowUp" xlink:href="#dirArrow" transform="translate(30 24)" onmousedown="handlePan(0,-1)">
                  <use xlink:href="#rim" fill="#404040">
                        <set attributeName="fill" to="#808080" begin="arrowUp.mouseover" end="arrowUp.mouseout"/>
                  </use>
                  <path fill="none" stroke="white" stroke-width="1.5" d="M0,-3.0v7 M-2.5,-0.5L0,-3.0L2.5,-0.5"/>
                </g>
                <g id="arrowRight" xlink:href="#dirArrow" transform="rotate(90) translate(36 -43)" onmousedown="handlePan(1,0)">
                  <use xlink:href="#rim" fill="#404040">
                        <set attributeName="fill" to="#808080" begin="arrowRight.mouseover" end="arrowRight.mouseout"/>
                  </use>
                  <path fill="none" stroke="white" stroke-width="1.5" d="M0,-3.0v7 M-2.5,-0.5L0,-3.0L2.5,-0.5"/>
                </g>
                <g id="arrowDown" xlink:href="#dirArrow" transform="rotate(180) translate(-30 -48)" onmousedown="handlePan(0,1)">
                  <use xlink:href="#rim" fill="#404040">
                        <set attributeName="fill" to="#808080" begin="arrowDown.mouseover" end="arrowDown.mouseout"/>
                  </use>
                  <path fill="none" stroke="white" stroke-width="1.5" d="M0,-3.0v7 M-2.5,-0.5L0,-3.0L2.5,-0.5"/>
                </g>
                <g id="arrowLeft" xlink:href="#dirArrow" transform="rotate(270) translate(-36 17)" onmousedown="handlePan(-1,0)">
                  <use xlink:href="#rim" fill="#404040">
                        <set attributeName="fill" to="#808080" begin="arrowLeft.mouseover" end="arrowLeft.mouseout"/>
                  </use>
                  <path fill="none" stroke="white" stroke-width="1.5" d="M0,-3.0v7 M-2.5,-0.5L0,-3.0L2.5,-0.5"/>
                </g>
        </g>
        <svg viewBox="0 0 15 15" width="100%" height="30px" preserveAspectRatio="xMaxYMin meet">
         <g id="arrow_out" transform="scale(0.3 0.3)">
          <a xlink:href="structPonca_1_1QueryInputIsPosition__inherit__graph_org.svg" target="_base">
           <rect id="button" ry="5" rx="5" y="6" x="6" height="38" width="38"
                fill="#f2f5e9" fill-opacity="0.5" stroke="#606060" stroke-width="1.0"/>
           <path id="arrow"
             d="M 11.500037,31.436501 C 11.940474,20.09759 22.043105,11.32322 32.158766,21.979434 L 37.068811,17.246167 C 37.068811,17.246167 37.088388,32 37.088388,32 L 22.160133,31.978069 C 22.160133,31.978069 26.997745,27.140456 26.997745,27.140456 C 18.528582,18.264221 13.291696,25.230495 11.500037,31.436501 z"
             style="fill:#404040;"/>
          </a>
         </g>
        </svg>
</svg>
