<?xml version="1.0" encoding="UTF-8" standalone="no"?>
<!DOCTYPE svg PUBLIC "-//W3C//DTD SVG 1.1//EN"
 "http://www.w3.org/Graphics/SVG/1.1/DTD/svg11.dtd">
<!-- Generated by graphviz version 2.43.0 (0)
 -->
<!-- Title: Ponca::QueryOutputIsRange&lt; Scalar &gt; Pages: 1 -->
<svg width="520pt" height="803pt"
 viewBox="0.00 0.00 520.00 803.00" xmlns="http://www.w3.org/2000/svg" xmlns:xlink="http://www.w3.org/1999/xlink">
<g id="graph0" class="graph" transform="scale(1 1) rotate(0) translate(4 799)">
<title>Ponca::QueryOutputIsRange&lt; Scalar &gt;</title>
<!-- Node1 -->
<g id="node1" class="node">
<title>Node1</title>
<g id="a_node1"><a xlink:title="Base class for range queries.">
<polygon fill="#999999" stroke="#666666" points="95.5,-576.5 95.5,-699.5 248.5,-699.5 248.5,-576.5 95.5,-576.5"/>
<text text-anchor="start" x="103.5" y="-687.5" font-family="Helvetica,sans-Serif" font-size="10.00">Ponca::QueryOutputIsRange</text>
<text text-anchor="middle" x="172" y="-676.5" font-family="Helvetica,sans-Serif" font-size="10.00">&lt; Scalar &gt;</text>
<polyline fill="none" stroke="#666666" points="95.5,-669.5 248.5,-669.5 "/>
<text text-anchor="start" x="103.5" y="-657.5" font-family="Helvetica,sans-Serif" font-size="10.00"># m_squared_radius</text>
<polyline fill="none" stroke="#666666" points="95.5,-650.5 248.5,-650.5 "/>
<text text-anchor="start" x="103.5" y="-638.5" font-family="Helvetica,sans-Serif" font-size="10.00">+ QueryOutputIsRange()</text>
<text text-anchor="start" x="103.5" y="-627.5" font-family="Helvetica,sans-Serif" font-size="10.00">+ radius()</text>
<text text-anchor="start" x="103.5" y="-616.5" font-family="Helvetica,sans-Serif" font-size="10.00">+ squared_radius()</text>
<text text-anchor="start" x="103.5" y="-605.5" font-family="Helvetica,sans-Serif" font-size="10.00">+ set_radius()</text>
<text text-anchor="start" x="103.5" y="-594.5" font-family="Helvetica,sans-Serif" font-size="10.00">+ set_squared_radius()</text>
<text text-anchor="start" x="103.5" y="-583.5" font-family="Helvetica,sans-Serif" font-size="10.00"># reset()</text>
</a>
</g>
</g>
<!-- Node3 -->
<g id="node3" class="node">
<title>Node3</title>
<g id="a_node3"><a xlink:href="group__spatialpartitioning.html" target="_top" xlink:title=" ">
<polygon fill="white" stroke="#bfbfbf" points="6.5,-422 6.5,-512 165.5,-512 165.5,-422 6.5,-422"/>
<text text-anchor="start" x="14.5" y="-500" font-family="Helvetica,sans-Serif" font-size="10.00">Ponca::Query&lt; QueryInput</text>
<text text-anchor="start" x="14.5" y="-489" font-family="Helvetica,sans-Serif" font-size="10.00">IsIndex, QueryOutputIsRange</text>
<text text-anchor="middle" x="86" y="-478" font-family="Helvetica,sans-Serif" font-size="10.00">&lt; Scalar &gt; &gt;</text>
<polyline fill="none" stroke="#bfbfbf" points="6.5,-471 165.5,-471 "/>
<text text-anchor="middle" x="86" y="-459" font-family="Helvetica,sans-Serif" font-size="10.00"> </text>
<polyline fill="none" stroke="#bfbfbf" points="6.5,-452 165.5,-452 "/>
<text text-anchor="start" x="14.5" y="-440" font-family="Helvetica,sans-Serif" font-size="10.00">+ Query()</text>
<text text-anchor="start" x="14.5" y="-429" font-family="Helvetica,sans-Serif" font-size="10.00">+ Query()</text>
</a>
</g>
</g>
<!-- Node1&#45;&gt;Node3 -->
<g id="edge2" class="edge">
<title>Node1&#45;&gt;Node3</title>
<path fill="none" stroke="#63b8ff" d="M136.58,-567.4C127.09,-548.74 117.08,-529.08 108.5,-512.21"/>
<polygon fill="none" stroke="#63b8ff" points="133.54,-569.14 141.19,-576.46 139.78,-565.96 133.54,-569.14"/>
</g>
<!-- Node7 -->
<g id="node7" class="node">
<title>Node7</title>
<g id="a_node7"><a xlink:href="group__spatialpartitioning.html" target="_top" xlink:title=" ">
<polygon fill="white" stroke="#666666" points="183.5,-405.5 183.5,-528.5 336.5,-528.5 336.5,-405.5 183.5,-405.5"/>
<text text-anchor="start" x="191.5" y="-516.5" font-family="Helvetica,sans-Serif" font-size="10.00">Ponca::QueryOutputIsRange</text>
<text text-anchor="middle" x="260" y="-505.5" font-family="Helvetica,sans-Serif" font-size="10.00">&lt; DataPoint::Scalar &gt;</text>
<polyline fill="none" stroke="#666666" points="183.5,-498.5 336.5,-498.5 "/>
<text text-anchor="start" x="191.5" y="-486.5" font-family="Helvetica,sans-Serif" font-size="10.00"># m_squared_radius</text>
<polyline fill="none" stroke="#666666" points="183.5,-479.5 336.5,-479.5 "/>
<text text-anchor="start" x="191.5" y="-467.5" font-family="Helvetica,sans-Serif" font-size="10.00">+ QueryOutputIsRange()</text>
<text text-anchor="start" x="191.5" y="-456.5" font-family="Helvetica,sans-Serif" font-size="10.00">+ radius()</text>
<text text-anchor="start" x="191.5" y="-445.5" font-family="Helvetica,sans-Serif" font-size="10.00">+ squared_radius()</text>
<text text-anchor="start" x="191.5" y="-434.5" font-family="Helvetica,sans-Serif" font-size="10.00">+ set_radius()</text>
<text text-anchor="start" x="191.5" y="-423.5" font-family="Helvetica,sans-Serif" font-size="10.00">+ set_squared_radius()</text>
<text text-anchor="start" x="191.5" y="-412.5" font-family="Helvetica,sans-Serif" font-size="10.00"># reset()</text>
</a>
</g>
</g>
<!-- Node1&#45;&gt;Node7 -->
<g id="edge6" class="edge">
<title>Node1&#45;&gt;Node7</title>
<path fill="none" stroke="orange" d="M208.32,-567.25C214.99,-554.45 221.89,-541.19 228.4,-528.68"/>
<polygon fill="orange" stroke="orange" points="205.04,-565.98 203.52,-576.46 211.24,-569.21 205.04,-565.98"/>
<text text-anchor="middle" x="273" y="-550" font-family="Helvetica,sans-Serif" font-size="10.00"> &lt; DataPoint::Scalar &gt;</text>
</g>
<!-- Node2 -->
<g id="node2" class="node">
<title>Node2</title>
<g id="a_node2"><a xlink:href="group__spatialpartitioning.html#structPonca_1_1QueryOutputBase" target="_top" xlink:title="Base class for queries output type.">
<polygon fill="white" stroke="#666666" points="103,-737.5 103,-794.5 241,-794.5 241,-737.5 103,-737.5"/>
<text text-anchor="middle" x="172" y="-782.5" font-family="Helvetica,sans-Serif" font-size="10.00">Ponca::QueryOutputBase</text>
<polyline fill="none" stroke="#666666" points="103,-775.5 241,-775.5 "/>
<text text-anchor="middle" x="172" y="-763.5" font-family="Helvetica,sans-Serif" font-size="10.00"> </text>
<polyline fill="none" stroke="#666666" points="103,-756.5 241,-756.5 "/>
<text text-anchor="middle" x="172" y="-744.5" font-family="Helvetica,sans-Serif" font-size="10.00"> </text>
</a>
</g>
</g>
<!-- Node2&#45;&gt;Node1 -->
<g id="edge1" class="edge">
<title>Node2&#45;&gt;Node1</title>
<path fill="none" stroke="#63b8ff" d="M172,-727.18C172,-718.49 172,-709.03 172,-699.65"/>
<polygon fill="none" stroke="#63b8ff" points="168.5,-727.35 172,-737.35 175.5,-727.35 168.5,-727.35"/>
</g>
<!-- Node4 -->
<g id="node4" class="node">
<title>Node4</title>
<g id="a_node4"><a xlink:href="group__spatialpartitioning.html#structPonca_1_1RangeIndexQuery" target="_top" xlink:title="Base Query class combining QueryInputIsIndex and QueryOutputIsRange.">
<polygon fill="white" stroke="#666666" points="16.5,-283 16.5,-351 155.5,-351 155.5,-283 16.5,-283"/>
<text text-anchor="start" x="24.5" y="-339" font-family="Helvetica,sans-Serif" font-size="10.00">Ponca::RangeIndexQuery</text>
<text text-anchor="middle" x="86" y="-328" font-family="Helvetica,sans-Serif" font-size="10.00">&lt; Scalar &gt;</text>
<polyline fill="none" stroke="#666666" points="16.5,-321 155.5,-321 "/>
<text text-anchor="middle" x="86" y="-309" font-family="Helvetica,sans-Serif" font-size="10.00"> </text>
<polyline fill="none" stroke="#666666" points="16.5,-302 155.5,-302 "/>
<text text-anchor="middle" x="86" y="-290" font-family="Helvetica,sans-Serif" font-size="10.00"> </text>
</a>
</g>
</g>
<!-- Node3&#45;&gt;Node4 -->
<g id="edge3" class="edge">
<title>Node3&#45;&gt;Node4</title>
<path fill="none" stroke="#63b8ff" d="M86,-411.92C86,-391.6 86,-369.13 86,-351.26"/>
<polygon fill="none" stroke="#63b8ff" points="82.5,-412 86,-422 89.5,-412 82.5,-412"/>
</g>
<!-- Node5 -->
<g id="node5" class="node">
<title>Node5</title>
<g id="a_node5"><a xlink:href="group__spatialpartitioning.html" target="_top" xlink:title=" ">
<polygon fill="white" stroke="#666666" points="16.5,-150.5 16.5,-218.5 155.5,-218.5 155.5,-150.5 16.5,-150.5"/>
<text text-anchor="start" x="24.5" y="-206.5" font-family="Helvetica,sans-Serif" font-size="10.00">Ponca::RangeIndexQuery</text>
<text text-anchor="middle" x="86" y="-195.5" font-family="Helvetica,sans-Serif" font-size="10.00">&lt; DataPoint::Scalar &gt;</text>
<polyline fill="none" stroke="#666666" points="16.5,-188.5 155.5,-188.5 "/>
<text text-anchor="middle" x="86" y="-176.5" font-family="Helvetica,sans-Serif" font-size="10.00"> </text>
<polyline fill="none" stroke="#666666" points="16.5,-169.5 155.5,-169.5 "/>
<text text-anchor="middle" x="86" y="-157.5" font-family="Helvetica,sans-Serif" font-size="10.00"> </text>
</a>
</g>
</g>
<!-- Node4&#45;&gt;Node5 -->
<g id="edge4" class="edge">
<title>Node4&#45;&gt;Node5</title>
<path fill="none" stroke="orange" d="M86,-272.7C86,-255.11 86,-235.11 86,-218.71"/>
<polygon fill="orange" stroke="orange" points="82.5,-272.73 86,-282.73 89.5,-272.73 82.5,-272.73"/>
<text text-anchor="middle" x="141" y="-240" font-family="Helvetica,sans-Serif" font-size="10.00"> &lt; DataPoint::Scalar &gt;</text>
</g>
<!-- Node6 -->
<g id="node6" class="node">
<title>Node6</title>
<g id="a_node6"><a xlink:href="classPonca_1_1KdTreeRangeIndexQuery.html" target="_top" xlink:title=" ">
<polygon fill="white" stroke="#bfbfbf" points="0,-0.5 0,-112.5 172,-112.5 172,-0.5 0,-0.5"/>
<text text-anchor="start" x="8" y="-100.5" font-family="Helvetica,sans-Serif" font-size="10.00">Ponca::KdTreeRangeIndexQuery</text>
<text text-anchor="middle" x="86" y="-89.5" font-family="Helvetica,sans-Serif" font-size="10.00">&lt; DataPoint &gt;</text>
<polyline fill="none" stroke="#bfbfbf" points="0,-82.5 172,-82.5 "/>
<text text-anchor="start" x="8" y="-70.5" font-family="Helvetica,sans-Serif" font-size="10.00"># Iterator</text>
<polyline fill="none" stroke="#bfbfbf" points="0,-63.5 172,-63.5 "/>
<text text-anchor="start" x="8" y="-51.5" font-family="Helvetica,sans-Serif" font-size="10.00">+ KdTreeRangeIndexQuery()</text>
<text text-anchor="start" x="8" y="-40.5" font-family="Helvetica,sans-Serif" font-size="10.00">+ begin()</text>
<text text-anchor="start" x="8" y="-29.5" font-family="Helvetica,sans-Serif" font-size="10.00">+ end()</text>
<text text-anchor="start" x="8" y="-18.5" font-family="Helvetica,sans-Serif" font-size="10.00"># initialize()</text>
<text text-anchor="start" x="8" y="-7.5" font-family="Helvetica,sans-Serif" font-size="10.00"># advance()</text>
</a>
</g>
</g>
<!-- Node5&#45;&gt;Node6 -->
<g id="edge5" class="edge">
<title>Node5&#45;&gt;Node6</title>
<path fill="none" stroke="#63b8ff" d="M86,-140.31C86,-131.45 86,-122.01 86,-112.79"/>
<polygon fill="none" stroke="#63b8ff" points="82.5,-140.39 86,-150.39 89.5,-140.4 82.5,-140.39"/>
</g>
<!-- Node8 -->
<g id="node8" class="node">
<title>Node8</title>
<g id="a_node8"><a xlink:href="group__spatialpartitioning.html" target="_top" xlink:title=" ">
<polygon fill="white" stroke="#bfbfbf" points="176.5,-272 176.5,-362 335.5,-362 335.5,-272 176.5,-272"/>
<text text-anchor="start" x="184.5" y="-350" font-family="Helvetica,sans-Serif" font-size="10.00">Ponca::Query&lt; QueryInput</text>
<text text-anchor="start" x="184.5" y="-339" font-family="Helvetica,sans-Serif" font-size="10.00">IsIndex, QueryOutputIsRange</text>
<text text-anchor="middle" x="256" y="-328" font-family="Helvetica,sans-Serif" font-size="10.00">&lt; DataPoint::Scalar &gt; &gt;</text>
<polyline fill="none" stroke="#bfbfbf" points="176.5,-321 335.5,-321 "/>
<text text-anchor="middle" x="256" y="-309" font-family="Helvetica,sans-Serif" font-size="10.00"> </text>
<polyline fill="none" stroke="#bfbfbf" points="176.5,-302 335.5,-302 "/>
<text text-anchor="start" x="184.5" y="-290" font-family="Helvetica,sans-Serif" font-size="10.00">+ Query()</text>
<text text-anchor="start" x="184.5" y="-279" font-family="Helvetica,sans-Serif" font-size="10.00">+ Query()</text>
</a>
</g>
</g>
<!-- Node7&#45;&gt;Node8 -->
<g id="edge7" class="edge">
<title>Node7&#45;&gt;Node8</title>
<path fill="none" stroke="#63b8ff" d="M258.09,-395.19C257.78,-384.03 257.48,-372.78 257.2,-362.45"/>
<polygon fill="none" stroke="#63b8ff" points="254.59,-395.47 258.36,-405.38 261.59,-395.28 254.59,-395.47"/>
</g>
<!-- Node9 -->
<g id="node9" class="node">
<title>Node9</title>
<g id="a_node9"><a xlink:href="group__spatialpartitioning.html" target="_top" xlink:title=" ">
<polygon fill="white" stroke="#bfbfbf" points="354,-266.5 354,-367.5 500,-367.5 500,-266.5 354,-266.5"/>
<text text-anchor="start" x="362" y="-355.5" font-family="Helvetica,sans-Serif" font-size="10.00">Ponca::Query&lt; QueryInput</text>
<text text-anchor="start" x="362" y="-344.5" font-family="Helvetica,sans-Serif" font-size="10.00">IsPosition&lt; DataPoint</text>
<text text-anchor="start" x="362" y="-333.5" font-family="Helvetica,sans-Serif" font-size="10.00"> &gt;, QueryOutputIsRange</text>
<text text-anchor="middle" x="427" y="-322.5" font-family="Helvetica,sans-Serif" font-size="10.00">&lt; DataPoint::Scalar &gt; &gt;</text>
<polyline fill="none" stroke="#bfbfbf" points="354,-315.5 500,-315.5 "/>
<text text-anchor="middle" x="427" y="-303.5" font-family="Helvetica,sans-Serif" font-size="10.00"> </text>
<polyline fill="none" stroke="#bfbfbf" points="354,-296.5 500,-296.5 "/>
<text text-anchor="start" x="362" y="-284.5" font-family="Helvetica,sans-Serif" font-size="10.00">+ Query()</text>
<text text-anchor="start" x="362" y="-273.5" font-family="Helvetica,sans-Serif" font-size="10.00">+ Query()</text>
</a>
</g>
</g>
<!-- Node7&#45;&gt;Node9 -->
<g id="edge8" class="edge">
<title>Node7&#45;&gt;Node9</title>
<path fill="none" stroke="#63b8ff" d="M336.08,-398.58C347.81,-388.18 359.74,-377.61 370.93,-367.69"/>
<polygon fill="none" stroke="#63b8ff" points="333.57,-396.12 328.41,-405.38 338.21,-401.36 333.57,-396.12"/>
</g>
<!-- Node10 -->
<g id="node10" class="node">
<title>Node10</title>
<g id="a_node10"><a xlink:href="group__spatialpartitioning.html#structPonca_1_1RangePointQuery" target="_top" xlink:title="Base Query class combining QueryInputIsPosition and QueryOutputIsRange.">
<polygon fill="white" stroke="#666666" points="358.5,-150.5 358.5,-218.5 495.5,-218.5 495.5,-150.5 358.5,-150.5"/>
<text text-anchor="start" x="366.5" y="-206.5" font-family="Helvetica,sans-Serif" font-size="10.00">Ponca::RangePointQuery</text>
<text text-anchor="middle" x="427" y="-195.5" font-family="Helvetica,sans-Serif" font-size="10.00">&lt; DataPoint &gt;</text>
<polyline fill="none" stroke="#666666" points="358.5,-188.5 495.5,-188.5 "/>
<text text-anchor="middle" x="427" y="-176.5" font-family="Helvetica,sans-Serif" font-size="10.00"> </text>
<polyline fill="none" stroke="#666666" points="358.5,-169.5 495.5,-169.5 "/>
<text text-anchor="middle" x="427" y="-157.5" font-family="Helvetica,sans-Serif" font-size="10.00"> </text>
</a>
</g>
</g>
<!-- Node9&#45;&gt;Node10 -->
<g id="edge9" class="edge">
<title>Node9&#45;&gt;Node10</title>
<path fill="none" stroke="#63b8ff" d="M427,-256.03C427,-243.12 427,-229.93 427,-218.51"/>
<polygon fill="none" stroke="#63b8ff" points="423.5,-256.29 427,-266.29 430.5,-256.29 423.5,-256.29"/>
</g>
<!-- Node11 -->
<g id="node11" class="node">
<title>Node11</title>
<g id="a_node11"><a xlink:href="classPonca_1_1KdTreeRangePointQuery.html" target="_top" xlink:title=" ">
<polygon fill="white" stroke="#bfbfbf" points="342,-6 342,-107 512,-107 512,-6 342,-6"/>
<text text-anchor="start" x="350" y="-95" font-family="Helvetica,sans-Serif" font-size="10.00">Ponca::KdTreeRangePointQuery</text>
<text text-anchor="middle" x="427" y="-84" font-family="Helvetica,sans-Serif" font-size="10.00">&lt; DataPoint &gt;</text>
<polyline fill="none" stroke="#bfbfbf" points="342,-77 512,-77 "/>
<text text-anchor="start" x="350" y="-65" font-family="Helvetica,sans-Serif" font-size="10.00"># Iterator</text>
<polyline fill="none" stroke="#bfbfbf" points="342,-58 512,-58 "/>
<text text-anchor="start" x="350" y="-46" font-family="Helvetica,sans-Serif" font-size="10.00">+ KdTreeRangePointQuery()</text>
<text text-anchor="start" x="350" y="-35" font-family="Helvetica,sans-Serif" font-size="10.00">+ begin()</text>
<text text-anchor="start" x="350" y="-24" font-family="Helvetica,sans-Serif" font-size="10.00">+ end()</text>
<text text-anchor="start" x="350" y="-13" font-family="Helvetica,sans-Serif" font-size="10.00"># advance()</text>
</a>
</g>
</g>
<!-- Node10&#45;&gt;Node11 -->
<g id="edge10" class="edge">
<title>Node10&#45;&gt;Node11</title>
<path fill="none" stroke="#63b8ff" d="M427,-140.18C427,-129.64 427,-118.29 427,-107.47"/>
<polygon fill="none" stroke="#63b8ff" points="423.5,-140.39 427,-150.39 430.5,-140.4 423.5,-140.39"/>
</g>
</g>
</svg>
