<?xml version="1.0" encoding="UTF-8" standalone="no"?>
<!DOCTYPE svg PUBLIC "-//W3C//DTD SVG 1.1//EN"
 "http://www.w3.org/Graphics/SVG/1.1/DTD/svg11.dtd">
<!-- Generated by graphviz version 2.43.0 (0)
 -->
<!-- Title: Ponca::ComputeObject&lt; Derived &gt; Pages: 1 -->
<!--zoomable 706 -->

<svg id="main" version="1.1" xmlns="http://www.w3.org/2000/svg" xmlns:xlink="http://www.w3.org/1999/xlink" xml:space="preserve" onload="init(evt)">
<style type="text/css"><![CDATA[
.node, .edge {opacity: 0.7;}
.node.selected, .edge.selected {opacity: 1;}
.edge:hover path { stroke: red; }
.edge:hover polygon { stroke: red; fill: red; }
]]></style>

<defs>
  <circle id="rim" cx="0" cy="0" r="7"/>
  <circle id="rim2" cx="0" cy="0" r="3.5"/>
  <g id="zoomPlus">
    <use xlink:href="#rim" fill="#404040"><set attributeName="fill" to="#808080" begin="zoomplus.mouseover" end="zoomplus.mouseout"/></use>
    <path d="M-4,0h8M0,-4v8" fill="none" stroke="white" stroke-width="1.5" pointer-events="none"/>
  </g>
  <g id="zoomMin">
    <use xlink:href="#rim" fill="#404040"><set attributeName="fill" to="#808080" begin="zoomminus.mouseover" end="zoomminus.mouseout"/></use>
    <path d="M-4,0h8" fill="none" stroke="white" stroke-width="1.5" pointer-events="none"/>
  </g>
  <g id="arrowUp" transform="translate(30 24)">
    <use xlink:href="#rim"/>
    <path pointer-events="none" fill="none" stroke="white" stroke-width="1.5" d="M0,-3.0v7 M-2.5,-0.5L0,-3.0L2.5,-0.5"/>
  </g>
  <g id="arrowRight" transform="rotate(90) translate(36 -43)">
    <use xlink:href="#rim"/>
    <path pointer-events="none" fill="none" stroke="white" stroke-width="1.5" d="M0,-3.0v7 M-2.5,-0.5L0,-3.0L2.5,-0.5"/>
  </g>
  <g id="arrowDown" transform="rotate(180) translate(-30 -48)">
    <use xlink:href="#rim"/>
    <path pointer-events="none" fill="none" stroke="white" stroke-width="1.5" d="M0,-3.0v7 M-2.5,-0.5L0,-3.0L2.5,-0.5"/>
  </g>
  <g id="arrowLeft" transform="rotate(270) translate(-36 17)">
    <use xlink:href="#rim"/>
    <path pointer-events="none" fill="none" stroke="white" stroke-width="1.5" d="M0,-3.0v7 M-2.5,-0.5L0,-3.0L2.5,-0.5"/>
  </g>
  <g id="resetDef">
    <use xlink:href="#rim2" fill="#404040"><set attributeName="fill" to="#808080" begin="reset.mouseover" end="reset.mouseout"/></use>
  </g>
</defs>
<script type="application/ecmascript">
var viewWidth = 601;
var viewHeight = 706;
var sectionId = 'dynsection-0';
</script>
<script type="application/ecmascript" xlink:href="svg.min.js"/>
<svg id="graph" class="graph">
<g id="viewport">
<title>Ponca::ComputeObject&lt; Derived &gt;</title>
<!-- Node1 -->
<g id="Node000001" class="node">
<title>Node1</title>
<g id="a_Node000001"><a xlink:title="ComputeObject is a virtual object that represents an algorithm which can be used with the compute fun...">
<polygon fill="#999999" stroke="transparent" points="355,-698 233,-698 233,-593 355,-593 355,-698"/>
<text text-anchor="start" x="238" y="-685.5" font-family="Helvetica,sans-Serif" font-size="10.00">Ponca::ComputeObject</text>
<text text-anchor="start" x="263.5" y="-674.5" font-family="Helvetica,sans-Serif" font-size="10.00">&lt; Derived &gt;</text>
<text text-anchor="start" x="292" y="-659.5" font-family="Helvetica,sans-Serif" font-size="10.00"> </text>
<text text-anchor="start" x="240" y="-644.5" font-family="Helvetica,sans-Serif" font-size="10.00">+</text>
<text text-anchor="start" x="256" y="-644.5" font-family="Helvetica,sans-Serif" font-size="10.00">compute()</text>
<text text-anchor="start" x="240" y="-629.5" font-family="Helvetica,sans-Serif" font-size="10.00">+</text>
<text text-anchor="start" x="256" y="-629.5" font-family="Helvetica,sans-Serif" font-size="10.00">compute()</text>
<text text-anchor="start" x="240" y="-614.5" font-family="Helvetica,sans-Serif" font-size="10.00">+</text>
<text text-anchor="start" x="256" y="-614.5" font-family="Helvetica,sans-Serif" font-size="10.00">computeWithIds()</text>
<text text-anchor="start" x="240" y="-599.5" font-family="Helvetica,sans-Serif" font-size="10.00">#</text>
<text text-anchor="start" x="256" y="-599.5" font-family="Helvetica,sans-Serif" font-size="10.00">derived()</text>
<polygon fill="#666666" stroke="#666666" points="233,-669.5 233,-669.5 355,-669.5 355,-669.5 233,-669.5"/>
<polygon fill="#666666" stroke="#666666" points="233,-654.5 233,-654.5 355,-654.5 355,-654.5 233,-654.5"/>
<polygon fill="none" stroke="#666666" points="233,-593 233,-698 355,-698 355,-593 233,-593"/>
</a>
</g>
</g>
<!-- Node2 -->
<g id="Node000002" class="node">
<title>Node2</title>
<g id="a_Node000002"><a xlink:href="structPonca_1_1BasketComputeObject.html" target="_top" xlink:title=" ">
<polygon fill="white" stroke="transparent" points="158,-210.5 0,-210.5 0,-113.5 158,-113.5 158,-210.5"/>
<text text-anchor="start" x="5" y="-198" font-family="Helvetica,sans-Serif" font-size="10.00">Ponca::BasketComputeObject</text>
<text text-anchor="start" x="5" y="-187" font-family="Helvetica,sans-Serif" font-size="10.00">&lt; Basket&lt; P, W, Ext0, Exts...</text>
<text text-anchor="start" x="5" y="-176" font-family="Helvetica,sans-Serif" font-size="10.00"> &gt;, internal::BasketAggregate</text>
<text text-anchor="start" x="5" y="-165" font-family="Helvetica,sans-Serif" font-size="10.00">&lt; P, W, Ext0, Exts... &gt;::type &gt;</text>
<text text-anchor="start" x="77" y="-150" font-family="Helvetica,sans-Serif" font-size="10.00"> </text>
<text text-anchor="start" x="16" y="-135" font-family="Helvetica,sans-Serif" font-size="10.00">+</text>
<text text-anchor="start" x="41" y="-135" font-family="Helvetica,sans-Serif" font-size="10.00">compute()</text>
<text text-anchor="start" x="16" y="-120" font-family="Helvetica,sans-Serif" font-size="10.00">+</text>
<text text-anchor="start" x="41" y="-120" font-family="Helvetica,sans-Serif" font-size="10.00">computeWithIds()</text>
<polygon fill="#666666" stroke="#666666" points="0,-160 0,-160 158,-160 158,-160 0,-160"/>
<polygon fill="#666666" stroke="#666666" points="0,-145 0,-145 158,-145 158,-145 0,-145"/>
<polygon fill="none" stroke="#666666" points="0,-113.5 0,-210.5 158,-210.5 158,-113.5 0,-113.5"/>
</a>
</g>
</g>
<!-- Node1&#45;&gt;Node2 -->
<g id="edge1_Node000001_Node000002" class="edge">
<title>Node1&#45;&gt;Node2</title>
<g id="a_edge1_Node000001_Node000002"><a xlink:title=" ">
<path fill="none" stroke="#63b8ff" d="M223.02,-626.59C176.16,-610.76 118.05,-582.57 88,-535 24.42,-434.37 47.7,-285.89 65.74,-210.57"/>
<polygon fill="none" stroke="#63b8ff" points="221.93,-629.92 232.53,-629.69 224.1,-623.26 221.93,-629.92"/>
</a>
</g>
</g>
<!-- Node4 -->
<g id="Node000004" class="node">
<title>Node4</title>
<g id="a_Node000004"><a xlink:href="structPonca_1_1BasketComputeObject.html" target="_top" xlink:title=" ">
<polygon fill="white" stroke="transparent" points="438.5,-216 251.5,-216 251.5,-108 438.5,-108 438.5,-216"/>
<text text-anchor="start" x="257" y="-204" font-family="Helvetica,sans-Serif" font-size="10.00">Ponca::BasketComputeObject</text>
<text text-anchor="start" x="257" y="-193" font-family="Helvetica,sans-Serif" font-size="10.00">&lt; BasketDiff&lt; BasketType,</text>
<text text-anchor="start" x="257" y="-182" font-family="Helvetica,sans-Serif" font-size="10.00"> Type, Ext0, Exts... &gt;, internal</text>
<text text-anchor="start" x="257" y="-171" font-family="Helvetica,sans-Serif" font-size="10.00">::BasketDiffAggregate&lt; BasketType,</text>
<text text-anchor="start" x="275.5" y="-160" font-family="Helvetica,sans-Serif" font-size="10.00"> Type, Ext0, Exts... &gt;::type &gt;</text>
<text text-anchor="start" x="343.5" y="-145" font-family="Helvetica,sans-Serif" font-size="10.00"> </text>
<text text-anchor="start" x="275.5" y="-130" font-family="Helvetica,sans-Serif" font-size="10.00">+</text>
<text text-anchor="start" x="308" y="-130" font-family="Helvetica,sans-Serif" font-size="10.00">compute()</text>
<text text-anchor="start" x="275.5" y="-115" font-family="Helvetica,sans-Serif" font-size="10.00">+</text>
<text text-anchor="start" x="308" y="-115" font-family="Helvetica,sans-Serif" font-size="10.00">computeWithIds()</text>
<polygon fill="#666666" stroke="#666666" points="252,-155 252,-155 439,-155 439,-155 252,-155"/>
<polygon fill="#666666" stroke="#666666" points="252,-140 252,-140 439,-140 439,-140 252,-140"/>
<polygon fill="none" stroke="#666666" points="251.5,-108 251.5,-216 438.5,-216 438.5,-108 251.5,-108"/>
</a>
</g>
</g>
<!-- Node1&#45;&gt;Node4 -->
<g id="edge3_Node000001_Node000004" class="edge">
<title>Node1&#45;&gt;Node4</title>
<g id="a_edge3_Node000001_Node000004"><a xlink:title=" ">
<path fill="none" stroke="#63b8ff" d="M364.02,-616.44C381.09,-606.08 397.24,-592.46 407,-575 443.97,-508.85 433.62,-304.95 407,-234 404.7,-227.87 401.61,-221.92 398.02,-216.25"/>
<polygon fill="none" stroke="#63b8ff" points="361.98,-613.57 355.03,-621.57 365.45,-619.65 361.98,-613.57"/>
</a>
</g>
</g>
<!-- Node6 -->
<g id="Node000006" class="node">
<title>Node6</title>
<g id="a_Node000006"><a xlink:href="structPonca_1_1ComputeObject.html" target="_top" xlink:title=" ">
<polygon fill="white" stroke="transparent" points="359,-535 237,-535 237,-419 359,-419 359,-535"/>
<text text-anchor="start" x="242" y="-523" font-family="Helvetica,sans-Serif" font-size="10.00">Ponca::ComputeObject</text>
<text text-anchor="start" x="242" y="-512" font-family="Helvetica,sans-Serif" font-size="10.00">&lt; Basket&lt; P, W, Ext0,</text>
<text text-anchor="start" x="270" y="-501" font-family="Helvetica,sans-Serif" font-size="10.00"> Exts... &gt; &gt;</text>
<text text-anchor="start" x="296" y="-486" font-family="Helvetica,sans-Serif" font-size="10.00"> </text>
<text text-anchor="start" x="244" y="-471" font-family="Helvetica,sans-Serif" font-size="10.00">+</text>
<text text-anchor="start" x="260" y="-471" font-family="Helvetica,sans-Serif" font-size="10.00">compute()</text>
<text text-anchor="start" x="244" y="-456" font-family="Helvetica,sans-Serif" font-size="10.00">+</text>
<text text-anchor="start" x="260" y="-456" font-family="Helvetica,sans-Serif" font-size="10.00">compute()</text>
<text text-anchor="start" x="244" y="-441" font-family="Helvetica,sans-Serif" font-size="10.00">+</text>
<text text-anchor="start" x="260" y="-441" font-family="Helvetica,sans-Serif" font-size="10.00">computeWithIds()</text>
<text text-anchor="start" x="244" y="-426" font-family="Helvetica,sans-Serif" font-size="10.00">#</text>
<text text-anchor="start" x="260" y="-426" font-family="Helvetica,sans-Serif" font-size="10.00">derived()</text>
<polygon fill="#666666" stroke="#666666" points="237,-496 237,-496 359,-496 359,-496 237,-496"/>
<polygon fill="#666666" stroke="#666666" points="237,-481 237,-481 359,-481 359,-481 237,-481"/>
<polygon fill="none" stroke="#666666" points="237,-419 237,-535 359,-535 359,-419 237,-419"/>
</a>
</g>
</g>
<!-- Node1&#45;&gt;Node6 -->
<g id="edge5_Node000001_Node000006" class="edge">
<title>Node1&#45;&gt;Node6</title>
<g id="a_edge5_Node000001_Node000006"><a xlink:title=" ">
<path fill="none" stroke="orange" d="M294.43,-582.54C294.57,-572.66 294.76,-562.55 295,-553 295.15,-547.27 295.33,-541.29 295.54,-535.32"/>
<polygon fill="orange" stroke="orange" points="290.93,-582.67 294.3,-592.72 297.93,-582.76 290.93,-582.67"/>
</a>
</g>
<text text-anchor="start" x="295" y="-567" font-family="Helvetica,sans-Serif" font-size="10.00" fill="grey"> &lt; Basket&lt; P, W, Ext0,</text>
<text text-anchor="middle" x="351" y="-556" font-family="Helvetica,sans-Serif" font-size="10.00" fill="grey"> Exts... &gt; &gt;</text>
</g>
<!-- Node7 -->
<g id="Node000007" class="node">
<title>Node7</title>
<g id="a_Node000007"><a xlink:href="structPonca_1_1ComputeObject.html" target="_top" xlink:title=" ">
<polygon fill="white" stroke="transparent" points="219,-529.5 97,-529.5 97,-424.5 219,-424.5 219,-529.5"/>
<text text-anchor="start" x="102" y="-517" font-family="Helvetica,sans-Serif" font-size="10.00">Ponca::ComputeObject</text>
<text text-anchor="start" x="124.5" y="-506" font-family="Helvetica,sans-Serif" font-size="10.00">&lt; _Derived &gt;</text>
<text text-anchor="start" x="156" y="-491" font-family="Helvetica,sans-Serif" font-size="10.00"> </text>
<text text-anchor="start" x="104" y="-476" font-family="Helvetica,sans-Serif" font-size="10.00">+</text>
<text text-anchor="start" x="120" y="-476" font-family="Helvetica,sans-Serif" font-size="10.00">compute()</text>
<text text-anchor="start" x="104" y="-461" font-family="Helvetica,sans-Serif" font-size="10.00">+</text>
<text text-anchor="start" x="120" y="-461" font-family="Helvetica,sans-Serif" font-size="10.00">compute()</text>
<text text-anchor="start" x="104" y="-446" font-family="Helvetica,sans-Serif" font-size="10.00">+</text>
<text text-anchor="start" x="120" y="-446" font-family="Helvetica,sans-Serif" font-size="10.00">computeWithIds()</text>
<text text-anchor="start" x="104" y="-431" font-family="Helvetica,sans-Serif" font-size="10.00">#</text>
<text text-anchor="start" x="120" y="-431" font-family="Helvetica,sans-Serif" font-size="10.00">derived()</text>
<polygon fill="#666666" stroke="#666666" points="97,-501 97,-501 219,-501 219,-501 97,-501"/>
<polygon fill="#666666" stroke="#666666" points="97,-486 97,-486 219,-486 219,-486 97,-486"/>
<polygon fill="none" stroke="#666666" points="97,-424.5 97,-529.5 219,-529.5 219,-424.5 97,-424.5"/>
</a>
</g>
</g>
<!-- Node1&#45;&gt;Node7 -->
<g id="edge6_Node000001_Node000007" class="edge">
<title>Node1&#45;&gt;Node7</title>
<g id="a_edge6_Node000001_Node000007"><a xlink:title=" ">
<path fill="none" stroke="orange" d="M229.94,-585.26C226.84,-581.85 223.84,-578.42 221,-575 209.39,-561.02 198.12,-544.8 188.39,-529.67"/>
<polygon fill="orange" stroke="orange" points="227.46,-587.73 236.85,-592.64 232.57,-582.95 227.46,-587.73"/>
</a>
</g>
<text text-anchor="middle" x="256" y="-561.5" font-family="Helvetica,sans-Serif" font-size="10.00" fill="grey"> &lt; _Derived &gt;</text>
</g>
<!-- Node9 -->
<g id="Node000009" class="node">
<title>Node9</title>
<g id="a_Node000009"><a xlink:href="structPonca_1_1ComputeObject.html" target="_top" xlink:title=" ">
<polygon fill="white" stroke="transparent" points="591,-535 449,-535 449,-419 591,-419 591,-535"/>
<text text-anchor="start" x="454" y="-523" font-family="Helvetica,sans-Serif" font-size="10.00">Ponca::ComputeObject</text>
<text text-anchor="start" x="454" y="-512" font-family="Helvetica,sans-Serif" font-size="10.00">&lt; BasketDiff&lt; BasketType,</text>
<text text-anchor="start" x="464" y="-501" font-family="Helvetica,sans-Serif" font-size="10.00"> Type, Ext0, Exts... &gt; &gt;</text>
<text text-anchor="start" x="518" y="-486" font-family="Helvetica,sans-Serif" font-size="10.00"> </text>
<text text-anchor="start" x="461" y="-471" font-family="Helvetica,sans-Serif" font-size="10.00">+</text>
<text text-anchor="start" x="482" y="-471" font-family="Helvetica,sans-Serif" font-size="10.00">compute()</text>
<text text-anchor="start" x="461" y="-456" font-family="Helvetica,sans-Serif" font-size="10.00">+</text>
<text text-anchor="start" x="482" y="-456" font-family="Helvetica,sans-Serif" font-size="10.00">compute()</text>
<text text-anchor="start" x="461" y="-441" font-family="Helvetica,sans-Serif" font-size="10.00">+</text>
<text text-anchor="start" x="482" y="-441" font-family="Helvetica,sans-Serif" font-size="10.00">computeWithIds()</text>
<text text-anchor="start" x="461" y="-426" font-family="Helvetica,sans-Serif" font-size="10.00">#</text>
<text text-anchor="start" x="482" y="-426" font-family="Helvetica,sans-Serif" font-size="10.00">derived()</text>
<polygon fill="#666666" stroke="#666666" points="449,-496 449,-496 591,-496 591,-496 449,-496"/>
<polygon fill="#666666" stroke="#666666" points="449,-481 449,-481 591,-481 591,-481 449,-481"/>
<polygon fill="none" stroke="#666666" points="449,-419 449,-535 591,-535 591,-419 449,-419"/>
</a>
</g>
</g>
<!-- Node1&#45;&gt;Node9 -->
<g id="edge10_Node000001_Node000009" class="edge">
<title>Node1&#45;&gt;Node9</title>
<g id="a_edge10_Node000001_Node000009"><a xlink:title=" ">
<path fill="none" stroke="orange" d="M364.59,-616.36C388.15,-605.28 413.78,-591.28 435,-575 449.92,-563.55 464.2,-549.17 476.66,-535.01"/>
<polygon fill="orange" stroke="orange" points="362.96,-613.26 355.33,-620.62 365.88,-619.62 362.96,-613.26"/>
</a>
</g>
<text text-anchor="start" x="458" y="-567" font-family="Helvetica,sans-Serif" font-size="10.00" fill="grey"> &lt; BasketDiff&lt; BasketType,</text>
<text text-anchor="middle" x="525.5" y="-556" font-family="Helvetica,sans-Serif" font-size="10.00" fill="grey"> Type, Ext0, Exts... &gt; &gt;</text>
</g>
<!-- Node3 -->
<g id="Node000003" class="node">
<title>Node3</title>
<g id="a_Node000003"><a xlink:href="classPonca_1_1Basket.html" target="_top" xlink:title="Aggregator class used to declare specialized structures using CRTP.">
<polygon fill="white" stroke="transparent" points="136.5,-65.5 21.5,-65.5 21.5,-5.5 136.5,-5.5 136.5,-65.5"/>
<text text-anchor="start" x="27" y="-53.5" font-family="Helvetica,sans-Serif" font-size="10.00">Ponca::Basket&lt; P, W,</text>
<text text-anchor="start" x="47.5" y="-42.5" font-family="Helvetica,sans-Serif" font-size="10.00"> Ext0, Exts &gt;</text>
<text text-anchor="start" x="77.5" y="-27.5" font-family="Helvetica,sans-Serif" font-size="10.00"> </text>
<text text-anchor="start" x="32" y="-12.5" font-family="Helvetica,sans-Serif" font-size="10.00">+</text>
<text text-anchor="start" x="51" y="-12.5" font-family="Helvetica,sans-Serif" font-size="10.00">addNeighbor()</text>
<polygon fill="#666666" stroke="#666666" points="22,-37.5 22,-37.5 137,-37.5 137,-37.5 22,-37.5"/>
<polygon fill="#666666" stroke="#666666" points="22,-22.5 22,-22.5 137,-22.5 137,-22.5 22,-22.5"/>
<polygon fill="none" stroke="#666666" points="21.5,-5.5 21.5,-65.5 136.5,-65.5 136.5,-5.5 21.5,-5.5"/>
</a>
</g>
</g>
<!-- Node2&#45;&gt;Node3 -->
<g id="edge2_Node000002_Node000003" class="edge">
<title>Node2&#45;&gt;Node3</title>
<g id="a_edge2_Node000002_Node000003"><a xlink:title=" ">
<path fill="none" stroke="#63b8ff" d="M79,-102.93C79,-89.98 79,-76.78 79,-65.6"/>
<polygon fill="none" stroke="#63b8ff" points="75.5,-103.22 79,-113.22 82.5,-103.22 75.5,-103.22"/>
</a>
</g>
</g>
<!-- Node5 -->
<g id="Node000005" class="node">
<title>Node5</title>
<g id="a_Node000005"><a xlink:href="classPonca_1_1BasketDiff.html" target="_top" xlink:title="Aggregator class used to declare specialized structures with derivatives computations,...">
<polygon fill="white" stroke="transparent" points="409,-71 281,-71 281,0 409,0 409,-71"/>
<text text-anchor="start" x="286" y="-58.5" font-family="Helvetica,sans-Serif" font-size="10.00">Ponca::BasketDiff&lt;</text>
<text text-anchor="start" x="286" y="-47.5" font-family="Helvetica,sans-Serif" font-size="10.00"> BasketType, Type, Ext0,</text>
<text text-anchor="start" x="327" y="-36.5" font-family="Helvetica,sans-Serif" font-size="10.00"> Exts &gt;</text>
<text text-anchor="start" x="343" y="-21.5" font-family="Helvetica,sans-Serif" font-size="10.00"> </text>
<text text-anchor="start" x="294" y="-6.5" font-family="Helvetica,sans-Serif" font-size="10.00">+</text>
<text text-anchor="start" x="316" y="-6.5" font-family="Helvetica,sans-Serif" font-size="10.00">addNeighbor()</text>
<polygon fill="#666666" stroke="#666666" points="281,-31.5 281,-31.5 409,-31.5 409,-31.5 281,-31.5"/>
<polygon fill="#666666" stroke="#666666" points="281,-16.5 281,-16.5 409,-16.5 409,-16.5 281,-16.5"/>
<polygon fill="none" stroke="#666666" points="281,0 281,-71 409,-71 409,0 281,0"/>
</a>
</g>
</g>
<!-- Node4&#45;&gt;Node5 -->
<g id="edge4_Node000004_Node000005" class="edge">
<title>Node4&#45;&gt;Node5</title>
<g id="a_edge4_Node000004_Node000005"><a xlink:title=" ">
<path fill="none" stroke="#63b8ff" d="M345,-97.58C345,-88.46 345,-79.39 345,-71.12"/>
<polygon fill="none" stroke="#63b8ff" points="341.5,-97.84 345,-107.84 348.5,-97.84 341.5,-97.84"/>
</a>
</g>
</g>
<!-- Node8 -->
<g id="Node000008" class="node">
<title>Node8</title>
<g id="a_Node000008"><a xlink:href="structPonca_1_1BasketComputeObject.html" target="_top" xlink:title="Base ComputeObject for the Basket classes.">
<polygon fill="white" stroke="transparent" points="246.5,-382 91.5,-382 91.5,-307 246.5,-307 246.5,-382"/>
<text text-anchor="start" x="97" y="-369.5" font-family="Helvetica,sans-Serif" font-size="10.00">Ponca::BasketComputeObject</text>
<text text-anchor="start" x="118.5" y="-358.5" font-family="Helvetica,sans-Serif" font-size="10.00">&lt; _Derived, _Base &gt;</text>
<text text-anchor="start" x="167.5" y="-343.5" font-family="Helvetica,sans-Serif" font-size="10.00"> </text>
<text text-anchor="start" x="107.5" y="-328.5" font-family="Helvetica,sans-Serif" font-size="10.00">+</text>
<text text-anchor="start" x="132" y="-328.5" font-family="Helvetica,sans-Serif" font-size="10.00">compute()</text>
<text text-anchor="start" x="107.5" y="-313.5" font-family="Helvetica,sans-Serif" font-size="10.00">+</text>
<text text-anchor="start" x="132" y="-313.5" font-family="Helvetica,sans-Serif" font-size="10.00">computeWithIds()</text>
<polygon fill="#666666" stroke="#666666" points="92,-353.5 92,-353.5 247,-353.5 247,-353.5 92,-353.5"/>
<polygon fill="#666666" stroke="#666666" points="92,-338.5 92,-338.5 247,-338.5 247,-338.5 92,-338.5"/>
<polygon fill="none" stroke="#666666" points="91.5,-307 91.5,-382 246.5,-382 246.5,-307 91.5,-307"/>
</a>
</g>
</g>
<!-- Node7&#45;&gt;Node8 -->
<g id="edge7_Node000007_Node000008" class="edge">
<title>Node7&#45;&gt;Node8</title>
<g id="a_edge7_Node000007_Node000008"><a xlink:title=" ">
<path fill="none" stroke="#63b8ff" d="M163.19,-414.39C164.12,-403.39 165.06,-392.25 165.9,-382.23"/>
<polygon fill="none" stroke="#63b8ff" points="159.7,-414.16 162.35,-424.42 166.68,-414.75 159.7,-414.16"/>
</a>
</g>
</g>
<!-- Node8&#45;&gt;Node2 -->
<g id="edge8_Node000008_Node000002" class="edge">
<title>Node8&#45;&gt;Node2</title>
<g id="a_edge8_Node000008_Node000002"><a xlink:title=" ">
<path fill="none" stroke="orange" d="M104.39,-299.45C101.64,-296.13 99.15,-292.65 97,-289 83.2,-265.58 78.51,-235.58 77.36,-210.73"/>
<polygon fill="orange" stroke="orange" points="101.87,-301.87 111.21,-306.87 107.02,-297.14 101.87,-301.87"/>
</a>
</g>
<text text-anchor="start" x="97" y="-275.5" font-family="Helvetica,sans-Serif" font-size="10.00" fill="grey"> &lt; Basket&lt; P, W, Ext0,</text>
<text text-anchor="start" x="97" y="-264.5" font-family="Helvetica,sans-Serif" font-size="10.00" fill="grey"> Exts... &gt;, internal</text>
<text text-anchor="start" x="97" y="-253.5" font-family="Helvetica,sans-Serif" font-size="10.00" fill="grey">::BasketAggregate&lt; P,</text>
<text text-anchor="middle" x="160.5" y="-242.5" font-family="Helvetica,sans-Serif" font-size="10.00" fill="grey"> W, Ext0, Exts... &gt;::type &gt;</text>
</g>
<!-- Node8&#45;&gt;Node4 -->
<g id="edge9_Node000008_Node000004" class="edge">
<title>Node8&#45;&gt;Node4</title>
<g id="a_edge9_Node000008_Node000004"><a xlink:title=" ">
<path fill="none" stroke="orange" d="M216.4,-299.19C219.11,-295.86 221.68,-292.45 224,-289 238.81,-267.03 230.55,-254.77 247,-234 251.96,-227.74 257.6,-221.78 263.62,-216.16"/>
<polygon fill="orange" stroke="orange" points="213.71,-296.95 209.83,-306.8 219.01,-301.52 213.71,-296.95"/>
</a>
</g>
<text text-anchor="start" x="247" y="-281" font-family="Helvetica,sans-Serif" font-size="10.00" fill="grey"> &lt; BasketDiff&lt; BasketType,</text>
<text text-anchor="start" x="247" y="-270" font-family="Helvetica,sans-Serif" font-size="10.00" fill="grey"> Type, Ext0, Exts... &gt;,</text>
<text text-anchor="start" x="247" y="-259" font-family="Helvetica,sans-Serif" font-size="10.00" fill="grey"> internal::BasketDiffAggregate</text>
<text text-anchor="start" x="247" y="-248" font-family="Helvetica,sans-Serif" font-size="10.00" fill="grey">&lt; BasketType, Type, Ext0, Exts...</text>
<text text-anchor="middle" x="327" y="-237" font-family="Helvetica,sans-Serif" font-size="10.00" fill="grey"> &gt;::type &gt;</text>
</g>
</g>
</svg>

<g id="navigator" transform="translate(0 0)" fill="#404254">
  <rect fill="#f2f5e9" fill-opacity="0.5" stroke="#606060" stroke-width=".5" x="0" y="0" width="60" height="60"/>
  <use id="zoomplus" xlink:href="#zoomPlus" x="17" y="9" onmousedown="handleZoom(evt,'in')"/>
  <use id="zoomminus" xlink:href="#zoomMin" x="42" y="9" onmousedown="handleZoom(evt,'out')"/>
  <use id="reset" xlink:href="#resetDef" x="30" y="36" onmousedown="handleReset()"/>
   <use id="arrowup" xlink:href="#arrowUp" x="0" y="0" onmousedown="handlePan(0,-1)"/>
  <use id="arrowright" xlink:href="#arrowRight" x="0" y="0" onmousedown="handlePan(1,0)"/>
  <use id="arrowdown" xlink:href="#arrowDown" x="0" y="0" onmousedown="handlePan(0,1)"/>
  <use id="arrowleft" xlink:href="#arrowLeft" x="0" y="0" onmousedown="handlePan(-1,0)"/>
</g>
<svg viewBox="0 0 15 15" width="100%" height="30px" preserveAspectRatio="xMaxYMin meet">
 <g id="arrow_out" transform="scale(0.3 0.3)">
  <a xlink:href="structPonca_1_1ComputeObject__inherit__graph_org.svg" target="_base">
   <rect id="button" ry="5" rx="5" y="6" x="6" height="38" width="38"
        fill="#f2f5e9" fill-opacity="0.5" stroke="#606060" stroke-width="1.0"/>
   <path id="arrow"
     d="M 11.500037,31.436501 C 11.940474,20.09759 22.043105,11.32322 32.158766,21.979434 L 37.068811,17.246167 C 37.068811,17.246167 37.088388,32 37.088388,32 L 22.160133,31.978069 C 22.160133,31.978069 26.997745,27.140456 26.997745,27.140456 C 18.528582,18.264221 13.291696,25.230495 11.500037,31.436501 z"
     style="fill:#404040;"/>
  </a>
 </g>
</svg>

<style type='text/css'>
<![CDATA[
[data-mouse-over-selected='false'] { opacity: 0.7; }
[data-mouse-over-selected='true']  { opacity: 1.0; }
]]>
</style>
<script type="application/ecmascript"><![CDATA[
document.addEventListener('DOMContentLoaded', (event) => {
  highlightEdges();
  highlightAdjacentNodes();
});
]]></script>
</svg>
