<?xml version="1.0" encoding="UTF-8" standalone="no"?>
<!DOCTYPE svg PUBLIC "-//W3C//DTD SVG 1.1//EN"
 "http://www.w3.org/Graphics/SVG/1.1/DTD/svg11.dtd">
<!-- Generated by graphviz version 2.43.0 (0)
 -->
<!-- Title: Ponca::QueryInputIsPosition&lt; DataPoint &gt; Pages: 1 -->
<svg width="560pt" height="692pt"
 viewBox="0.00 0.00 559.50 692.00" xmlns="http://www.w3.org/2000/svg" xmlns:xlink="http://www.w3.org/1999/xlink">
<g id="graph0" class="graph" transform="scale(1 1) rotate(0) translate(4 688)">
<title>Ponca::QueryInputIsPosition&lt; DataPoint &gt;</title>
<!-- Node1 -->
<g id="node1" class="node">
<title>Node1</title>
<g id="a_node1"><a xlink:title="Base class for queries storing points.">
<polygon fill="#999999" stroke="#666666" points="354,-385 195,-385 195,-333 354,-333 354,-385"/>
<text text-anchor="start" x="203" y="-373" font-family="Helvetica,sans-Serif" font-size="10.00">{Ponca::QueryInputIsPosition</text>
<text text-anchor="middle" x="274.5" y="-362" font-family="Helvetica,sans-Serif" font-size="10.00">&lt; DataPoint &gt;</text>
<text text-anchor="start" x="203" y="-351" font-family="Helvetica,sans-Serif" font-size="10.00">||+ QueryInputIsPosition()</text>
<text text-anchor="middle" x="274.5" y="-340" font-family="Helvetica,sans-Serif" font-size="10.00">}</text>
</a>
</g>
</g>
<!-- Node5 -->
<g id="node5" class="node">
<title>Node5</title>
<g id="a_node5"><a xlink:href="group__spatialpartitioning.html" target="_top" xlink:title=" ">
<polygon fill="white" stroke="#bfbfbf" points="176.5,-296 24.5,-296 24.5,-211 176.5,-211 176.5,-296"/>
<text text-anchor="start" x="32.5" y="-284" font-family="Helvetica,sans-Serif" font-size="10.00">{Ponca::Query&lt; QueryInput</text>
<text text-anchor="start" x="32.5" y="-273" font-family="Helvetica,sans-Serif" font-size="10.00">IsPosition&lt; DataPoint</text>
<text text-anchor="start" x="32.5" y="-262" font-family="Helvetica,sans-Serif" font-size="10.00"> &gt;, QueryOutputIsKNearest</text>
<text text-anchor="middle" x="100.5" y="-251" font-family="Helvetica,sans-Serif" font-size="10.00">&lt; DataPoint::Scalar &gt; &gt;</text>
<text text-anchor="start" x="32.5" y="-240" font-family="Helvetica,sans-Serif" font-size="10.00">||+ Query()</text>
<text text-anchor="start" x="32.5" y="-229" font-family="Helvetica,sans-Serif" font-size="10.00">+ Query()</text>
<text text-anchor="middle" x="100.5" y="-218" font-family="Helvetica,sans-Serif" font-size="10.00">}</text>
</a>
</g>
</g>
<!-- Node1&#45;&gt;Node5 -->
<g id="edge5" class="edge">
<title>Node1&#45;&gt;Node5</title>
<path fill="none" stroke="#63b8ff" d="M223.4,-327.6C206.81,-317.74 188.11,-306.62 170.4,-296.08"/>
<polygon fill="none" stroke="#63b8ff" points="222,-330.84 232.38,-332.95 225.57,-324.83 222,-330.84"/>
</g>
<!-- Node8 -->
<g id="node8" class="node">
<title>Node8</title>
<g id="a_node8"><a xlink:href="group__spatialpartitioning.html" target="_top" xlink:title=" ">
<polygon fill="white" stroke="#bfbfbf" points="350.5,-296 198.5,-296 198.5,-211 350.5,-211 350.5,-296"/>
<text text-anchor="start" x="206.5" y="-284" font-family="Helvetica,sans-Serif" font-size="10.00">{Ponca::Query&lt; QueryInput</text>
<text text-anchor="start" x="206.5" y="-273" font-family="Helvetica,sans-Serif" font-size="10.00">IsPosition&lt; DataPoint</text>
<text text-anchor="start" x="206.5" y="-262" font-family="Helvetica,sans-Serif" font-size="10.00"> &gt;, QueryOutputIsNearest</text>
<text text-anchor="middle" x="274.5" y="-251" font-family="Helvetica,sans-Serif" font-size="10.00">&lt; DataPoint::Scalar &gt; &gt;</text>
<text text-anchor="start" x="206.5" y="-240" font-family="Helvetica,sans-Serif" font-size="10.00">||+ Query()</text>
<text text-anchor="start" x="206.5" y="-229" font-family="Helvetica,sans-Serif" font-size="10.00">+ Query()</text>
<text text-anchor="middle" x="274.5" y="-218" font-family="Helvetica,sans-Serif" font-size="10.00">}</text>
</a>
</g>
</g>
<!-- Node1&#45;&gt;Node8 -->
<g id="edge8" class="edge">
<title>Node1&#45;&gt;Node8</title>
<path fill="none" stroke="#63b8ff" d="M274.5,-322.92C274.5,-314.36 274.5,-305.12 274.5,-296.28"/>
<polygon fill="none" stroke="#63b8ff" points="271,-322.95 274.5,-332.95 278,-322.95 271,-322.95"/>
</g>
<!-- Node11 -->
<g id="node11" class="node">
<title>Node11</title>
<g id="a_node11"><a xlink:href="group__spatialpartitioning.html" target="_top" xlink:title=" ">
<polygon fill="white" stroke="#bfbfbf" points="529.5,-296 377.5,-296 377.5,-211 529.5,-211 529.5,-296"/>
<text text-anchor="start" x="385.5" y="-284" font-family="Helvetica,sans-Serif" font-size="10.00">{Ponca::Query&lt; QueryInput</text>
<text text-anchor="start" x="385.5" y="-273" font-family="Helvetica,sans-Serif" font-size="10.00">IsPosition&lt; DataPoint</text>
<text text-anchor="start" x="385.5" y="-262" font-family="Helvetica,sans-Serif" font-size="10.00"> &gt;, QueryOutputIsRange</text>
<text text-anchor="middle" x="453.5" y="-251" font-family="Helvetica,sans-Serif" font-size="10.00">&lt; DataPoint::Scalar &gt; &gt;</text>
<text text-anchor="start" x="385.5" y="-240" font-family="Helvetica,sans-Serif" font-size="10.00">||+ Query()</text>
<text text-anchor="start" x="385.5" y="-229" font-family="Helvetica,sans-Serif" font-size="10.00">+ Query()</text>
<text text-anchor="middle" x="453.5" y="-218" font-family="Helvetica,sans-Serif" font-size="10.00">}</text>
</a>
</g>
</g>
<!-- Node1&#45;&gt;Node11 -->
<g id="edge11" class="edge">
<title>Node1&#45;&gt;Node11</title>
<path fill="none" stroke="#63b8ff" d="M326.59,-327.88C343.78,-317.94 363.2,-306.71 381.59,-296.08"/>
<polygon fill="none" stroke="#63b8ff" points="324.74,-324.91 317.83,-332.95 328.24,-330.97 324.74,-324.91"/>
</g>
<!-- Node2 -->
<g id="node2" class="node">
<title>Node2</title>
<g id="a_node2"><a xlink:href="group__spatialpartitioning.html" target="_top" xlink:title=" ">
<polygon fill="white" stroke="#666666" points="343.5,-496 205.5,-496 205.5,-422 343.5,-422 343.5,-496"/>
<text text-anchor="start" x="213.5" y="-484" font-family="Helvetica,sans-Serif" font-size="10.00">{Ponca::QueryInput&lt;</text>
<text text-anchor="middle" x="274.5" y="-473" font-family="Helvetica,sans-Serif" font-size="10.00"> DataPoint::VectorType &gt;</text>
<text text-anchor="start" x="213.5" y="-462" font-family="Helvetica,sans-Serif" font-size="10.00">||+ QueryInput()</text>
<text text-anchor="start" x="213.5" y="-451" font-family="Helvetica,sans-Serif" font-size="10.00">+ input()</text>
<text text-anchor="start" x="213.5" y="-440" font-family="Helvetica,sans-Serif" font-size="10.00"># editInput()</text>
<text text-anchor="middle" x="274.5" y="-429" font-family="Helvetica,sans-Serif" font-size="10.00">}</text>
</a>
</g>
</g>
<!-- Node2&#45;&gt;Node1 -->
<g id="edge1" class="edge">
<title>Node2&#45;&gt;Node1</title>
<path fill="none" stroke="#63b8ff" d="M274.5,-411.58C274.5,-402.44 274.5,-393.17 274.5,-385.06"/>
<polygon fill="none" stroke="#63b8ff" points="271,-411.79 274.5,-421.79 278,-411.79 271,-411.79"/>
</g>
<!-- Node3 -->
<g id="node3" class="node">
<title>Node3</title>
<g id="a_node3"><a xlink:href="group__spatialpartitioning.html#structPonca_1_1QueryInputBase" target="_top" xlink:title="Base class for queries input type.">
<polygon fill="white" stroke="#666666" points="338.5,-684 202.5,-684 202.5,-654 338.5,-654 338.5,-684"/>
<text text-anchor="middle" x="270.5" y="-672" font-family="Helvetica,sans-Serif" font-size="10.00">{Ponca::QueryInputBase</text>
<text text-anchor="middle" x="270.5" y="-661" font-family="Helvetica,sans-Serif" font-size="10.00">||}</text>
</a>
</g>
</g>
<!-- Node3&#45;&gt;Node2 -->
<g id="edge2" class="edge">
<title>Node3&#45;&gt;Node2</title>
<path fill="none" stroke="#63b8ff" d="M270.97,-643.5C271.67,-607.1 272.99,-538.49 273.8,-496.26"/>
<polygon fill="none" stroke="#63b8ff" points="267.47,-643.64 270.77,-653.7 274.47,-643.77 267.47,-643.64"/>
</g>
<!-- Node4 -->
<g id="node4" class="node">
<title>Node4</title>
<g id="a_node4"><a xlink:href="group__spatialpartitioning.html#structPonca_1_1QueryInput" target="_top" xlink:title="Base class for typed queries input type.">
<polygon fill="white" stroke="#666666" points="406.5,-617 286.5,-617 286.5,-543 406.5,-543 406.5,-617"/>
<text text-anchor="start" x="294.5" y="-605" font-family="Helvetica,sans-Serif" font-size="10.00">{Ponca::QueryInput&lt;</text>
<text text-anchor="middle" x="346.5" y="-594" font-family="Helvetica,sans-Serif" font-size="10.00"> InputType_ &gt;</text>
<text text-anchor="start" x="294.5" y="-583" font-family="Helvetica,sans-Serif" font-size="10.00">||+ QueryInput()</text>
<text text-anchor="start" x="294.5" y="-572" font-family="Helvetica,sans-Serif" font-size="10.00">+ input()</text>
<text text-anchor="start" x="294.5" y="-561" font-family="Helvetica,sans-Serif" font-size="10.00"># editInput()</text>
<text text-anchor="middle" x="346.5" y="-550" font-family="Helvetica,sans-Serif" font-size="10.00">}</text>
</a>
</g>
</g>
<!-- Node3&#45;&gt;Node4 -->
<g id="edge4" class="edge">
<title>Node3&#45;&gt;Node4</title>
<path fill="none" stroke="#63b8ff" d="M289.65,-646.08C297.3,-637.32 306.33,-626.99 314.91,-617.17"/>
<polygon fill="none" stroke="#63b8ff" points="286.99,-643.8 283.05,-653.63 292.26,-648.41 286.99,-643.8"/>
</g>
<!-- Node4&#45;&gt;Node2 -->
<g id="edge3" class="edge">
<title>Node4&#45;&gt;Node2</title>
<path fill="none" stroke="orange" d="M319.33,-534.09C311.78,-521.61 303.68,-508.23 296.47,-496.32"/>
<polygon fill="orange" stroke="orange" points="316.53,-536.23 324.7,-542.97 322.52,-532.61 316.53,-536.23"/>
<text text-anchor="middle" x="379" y="-517" font-family="Helvetica,sans-Serif" font-size="10.00"> &lt; DataPoint::VectorType &gt;</text>
</g>
<!-- Node6 -->
<g id="node6" class="node">
<title>Node6</title>
<g id="a_node6"><a xlink:href="group__spatialpartitioning.html#structPonca_1_1KNearestPointQuery" target="_top" xlink:title="Base Query class combining QueryInputIsPosition and QueryOutputIsKNearest.">
<polygon fill="white" stroke="#666666" points="173,-174 16,-174 16,-133 173,-133 173,-174"/>
<text text-anchor="start" x="24" y="-162" font-family="Helvetica,sans-Serif" font-size="10.00">{Ponca::KNearestPointQuery</text>
<text text-anchor="middle" x="94.5" y="-151" font-family="Helvetica,sans-Serif" font-size="10.00">&lt; DataPoint &gt;</text>
<text text-anchor="middle" x="94.5" y="-140" font-family="Helvetica,sans-Serif" font-size="10.00">||}</text>
</a>
</g>
</g>
<!-- Node5&#45;&gt;Node6 -->
<g id="edge6" class="edge">
<title>Node5&#45;&gt;Node6</title>
<path fill="none" stroke="#63b8ff" d="M97.33,-200.72C96.75,-191.29 96.18,-181.99 95.71,-174.24"/>
<polygon fill="none" stroke="#63b8ff" points="93.85,-201.17 97.96,-210.94 100.84,-200.74 93.85,-201.17"/>
</g>
<!-- Node7 -->
<g id="node7" class="node">
<title>Node7</title>
<g id="a_node7"><a xlink:href="classPonca_1_1KdTreeKNearestPointQuery.html" target="_top" xlink:title=" ">
<polygon fill="white" stroke="#bfbfbf" points="173,-90.5 0,-90.5 0,-5.5 173,-5.5 173,-90.5"/>
<text text-anchor="start" x="8" y="-78.5" font-family="Helvetica,sans-Serif" font-size="10.00">{Ponca::KdTreeKNearestPoint</text>
<text text-anchor="middle" x="86.5" y="-67.5" font-family="Helvetica,sans-Serif" font-size="10.00">Query&lt; DataPoint &gt;</text>
<text text-anchor="start" x="8" y="-56.5" font-family="Helvetica,sans-Serif" font-size="10.00">||+ KdTreeKNearestPointQuery()</text>
<text text-anchor="start" x="8" y="-45.5" font-family="Helvetica,sans-Serif" font-size="10.00">+ begin()</text>
<text text-anchor="start" x="8" y="-34.5" font-family="Helvetica,sans-Serif" font-size="10.00">+ end()</text>
<text text-anchor="start" x="8" y="-23.5" font-family="Helvetica,sans-Serif" font-size="10.00"># search()</text>
<text text-anchor="middle" x="86.5" y="-12.5" font-family="Helvetica,sans-Serif" font-size="10.00">}</text>
</a>
</g>
</g>
<!-- Node6&#45;&gt;Node7 -->
<g id="edge7" class="edge">
<title>Node6&#45;&gt;Node7</title>
<path fill="none" stroke="#63b8ff" d="M92.17,-122.41C91.41,-112.52 90.55,-101.34 89.73,-90.74"/>
<polygon fill="none" stroke="#63b8ff" points="88.7,-122.84 92.96,-132.54 95.68,-122.3 88.7,-122.84"/>
</g>
<!-- Node9 -->
<g id="node9" class="node">
<title>Node9</title>
<g id="a_node9"><a xlink:href="group__spatialpartitioning.html#structPonca_1_1NearestPointQuery" target="_top" xlink:title="Base Query class combining QueryInputIsPosition and QueryOutputIsNearest.">
<polygon fill="white" stroke="#666666" points="349.5,-174 199.5,-174 199.5,-133 349.5,-133 349.5,-174"/>
<text text-anchor="start" x="207.5" y="-162" font-family="Helvetica,sans-Serif" font-size="10.00">{Ponca::NearestPointQuery</text>
<text text-anchor="middle" x="274.5" y="-151" font-family="Helvetica,sans-Serif" font-size="10.00">&lt; DataPoint &gt;</text>
<text text-anchor="middle" x="274.5" y="-140" font-family="Helvetica,sans-Serif" font-size="10.00">||}</text>
</a>
</g>
</g>
<!-- Node8&#45;&gt;Node9 -->
<g id="edge9" class="edge">
<title>Node8&#45;&gt;Node9</title>
<path fill="none" stroke="#63b8ff" d="M274.5,-200.72C274.5,-191.29 274.5,-181.99 274.5,-174.24"/>
<polygon fill="none" stroke="#63b8ff" points="271,-200.94 274.5,-210.94 278,-200.94 271,-200.94"/>
</g>
<!-- Node10 -->
<g id="node10" class="node">
<title>Node10</title>
<g id="a_node10"><a xlink:href="classPonca_1_1KdTreeNearestPointQuery.html" target="_top" xlink:title=" ">
<polygon fill="white" stroke="#bfbfbf" points="358,-90.5 191,-90.5 191,-5.5 358,-5.5 358,-90.5"/>
<text text-anchor="start" x="199" y="-78.5" font-family="Helvetica,sans-Serif" font-size="10.00">{Ponca::KdTreeNearestPoint</text>
<text text-anchor="middle" x="274.5" y="-67.5" font-family="Helvetica,sans-Serif" font-size="10.00">Query&lt; DataPoint &gt;</text>
<text text-anchor="start" x="199" y="-56.5" font-family="Helvetica,sans-Serif" font-size="10.00">||+ KdTreeNearestPointQuery()</text>
<text text-anchor="start" x="199" y="-45.5" font-family="Helvetica,sans-Serif" font-size="10.00">+ begin()</text>
<text text-anchor="start" x="199" y="-34.5" font-family="Helvetica,sans-Serif" font-size="10.00">+ end()</text>
<text text-anchor="start" x="199" y="-23.5" font-family="Helvetica,sans-Serif" font-size="10.00"># search()</text>
<text text-anchor="middle" x="274.5" y="-12.5" font-family="Helvetica,sans-Serif" font-size="10.00">}</text>
</a>
</g>
</g>
<!-- Node9&#45;&gt;Node10 -->
<g id="edge10" class="edge">
<title>Node9&#45;&gt;Node10</title>
<path fill="none" stroke="#63b8ff" d="M274.5,-122.41C274.5,-112.52 274.5,-101.34 274.5,-90.74"/>
<polygon fill="none" stroke="#63b8ff" points="271,-122.54 274.5,-132.54 278,-122.54 271,-122.54"/>
</g>
<!-- Node12 -->
<g id="node12" class="node">
<title>Node12</title>
<g id="a_node12"><a xlink:href="group__spatialpartitioning.html#structPonca_1_1RangePointQuery" target="_top" xlink:title="Base Query class combining QueryInputIsPosition and QueryOutputIsRange.">
<polygon fill="white" stroke="#666666" points="533,-174 390,-174 390,-133 533,-133 533,-174"/>
<text text-anchor="start" x="398" y="-162" font-family="Helvetica,sans-Serif" font-size="10.00">{Ponca::RangePointQuery</text>
<text text-anchor="middle" x="461.5" y="-151" font-family="Helvetica,sans-Serif" font-size="10.00">&lt; DataPoint &gt;</text>
<text text-anchor="middle" x="461.5" y="-140" font-family="Helvetica,sans-Serif" font-size="10.00">||}</text>
</a>
</g>
</g>
<!-- Node11&#45;&gt;Node12 -->
<g id="edge12" class="edge">
<title>Node11&#45;&gt;Node12</title>
<path fill="none" stroke="#63b8ff" d="M457.73,-200.72C458.5,-191.29 459.26,-181.99 459.89,-174.24"/>
<polygon fill="none" stroke="#63b8ff" points="454.22,-200.69 456.89,-210.94 461.19,-201.26 454.22,-200.69"/>
</g>
<!-- Node13 -->
<g id="node13" class="node">
<title>Node13</title>
<g id="a_node13"><a xlink:href="classPonca_1_1KdTreeRangePointQuery.html" target="_top" xlink:title=" ">
<polygon fill="white" stroke="#bfbfbf" points="551.5,-96 375.5,-96 375.5,0 551.5,0 551.5,-96"/>
<text text-anchor="start" x="383.5" y="-84" font-family="Helvetica,sans-Serif" font-size="10.00">{Ponca::KdTreeRangePointQuery</text>
<text text-anchor="middle" x="463.5" y="-73" font-family="Helvetica,sans-Serif" font-size="10.00">&lt; DataPoint &gt;</text>
<text text-anchor="start" x="383.5" y="-62" font-family="Helvetica,sans-Serif" font-size="10.00">|# Iterator</text>
<text text-anchor="start" x="383.5" y="-51" font-family="Helvetica,sans-Serif" font-size="10.00">|+ KdTreeRangePointQuery()</text>
<text text-anchor="start" x="383.5" y="-40" font-family="Helvetica,sans-Serif" font-size="10.00">+ begin()</text>
<text text-anchor="start" x="383.5" y="-29" font-family="Helvetica,sans-Serif" font-size="10.00">+ end()</text>
<text text-anchor="start" x="383.5" y="-18" font-family="Helvetica,sans-Serif" font-size="10.00"># advance()</text>
<text text-anchor="middle" x="463.5" y="-7" font-family="Helvetica,sans-Serif" font-size="10.00">}</text>
</a>
</g>
</g>
<!-- Node12&#45;&gt;Node13 -->
<g id="edge13" class="edge">
<title>Node12&#45;&gt;Node13</title>
<path fill="none" stroke="#63b8ff" d="M462.08,-122.41C462.24,-114.25 462.41,-105.22 462.58,-96.36"/>
<polygon fill="none" stroke="#63b8ff" points="458.58,-122.48 461.89,-132.54 465.58,-122.61 458.58,-122.48"/>
</g>
</g>
</svg>
