<?xml version="1.0" encoding="UTF-8" standalone="no"?>
<!DOCTYPE svg PUBLIC "-//W3C//DTD SVG 1.1//EN"
 "http://www.w3.org/Graphics/SVG/1.1/DTD/svg11.dtd">
<!-- Generated by graphviz version 2.43.0 (0)
 -->
<!-- Title: Ponca::QueryOutputBase Pages: 1 -->
<!--zoomable 712 -->
<svg id="main" version="1.1" xmlns="http://www.w3.org/2000/svg" xmlns:xlink="http://www.w3.org/1999/xlink" xml:space="preserve" onload="init(evt)">
<style type="text/css"><![CDATA[
.edge:hover path { stroke: red; }
.edge:hover polygon { stroke: red; fill: red; }
]]></style>
<script type="text/javascript"><![CDATA[
var edges = document.getElementsByTagName('g');
if (edges && edges.length) {
  for (var i=0;i<edges.length;i++) {
    if (edges[i].id.substr(0,4)=='edge') {
      edges[i].setAttribute('class','edge');
    }
  }
}
]]></script>
        <defs>
                <circle id="rim" cx="0" cy="0" r="7"/>
                <circle id="rim2" cx="0" cy="0" r="3.5"/>
                <g id="zoomPlus">
                        <use xlink:href="#rim" fill="#404040">
                                <set attributeName="fill" to="#808080" begin="zoomplus.mouseover" end="zoomplus.mouseout"/>
                        </use>
                        <path d="M-4,0h8M0,-4v8" fill="none" stroke="white" stroke-width="1.5" pointer-events="none"/>
                </g>
                <g id="zoomMin">
                        <use xlink:href="#rim" fill="#404040">
                                <set attributeName="fill" to="#808080" begin="zoomminus.mouseover" end="zoomminus.mouseout"/>
                        </use>
                        <path d="M-4,0h8" fill="none" stroke="white" stroke-width="1.5" pointer-events="none"/>
                </g>
                <g id="dirArrow">
                        <path fill="none" stroke="white" stroke-width="1.5" d="M0,-3.0v7 M-2.5,-0.5L0,-3.0L2.5,-0.5"/>
                </g>
               <g id="resetDef">
                       <use xlink:href="#rim2" fill="#404040">
                               <set attributeName="fill" to="#808080" begin="reset.mouseover" end="reset.mouseout"/>
                       </use>
               </g>
        </defs>

<script type="text/javascript">
var viewWidth = 1621;
var viewHeight = 712;
var sectionId = 'dynsection-13';
</script>
<script xlink:href="svgpan.js"/>
<svg id="graph" class="graph">
<g id="viewport">
<title>Ponca::QueryOutputBase</title>
<!-- Node1 -->
<g id="node1" class="node">
<title>Node1</title>
<g id="a_node1"><a xlink:title="Base class for queries output type.">
<polygon fill="#999999" stroke="#666666" points="917.5,-704 773.5,-704 773.5,-674 917.5,-674 917.5,-704"/>
<text text-anchor="middle" x="845.5" y="-692" font-family="Helvetica,sans-Serif" font-size="10.00">{Ponca::QueryOutputBase</text>
<text text-anchor="middle" x="845.5" y="-681" font-family="Helvetica,sans-Serif" font-size="10.00">||}</text>
</a>
</g>
</g>
<!-- Node2 -->
<g id="node2" class="node">
<title>Node2</title>
<g id="a_node2"><a xlink:href="group__spatialpartitioning.html" target="_top" xlink:title=" ">
<polygon fill="white" stroke="#666666" points="354,-455.5 181,-455.5 181,-370.5 354,-370.5 354,-455.5"/>
<text text-anchor="start" x="189" y="-443.5" font-family="Helvetica,sans-Serif" font-size="10.00">{Ponca::QueryOutputIsKNearest</text>
<text text-anchor="middle" x="267.5" y="-432.5" font-family="Helvetica,sans-Serif" font-size="10.00">&lt; DataPoint::Scalar &gt;</text>
<text text-anchor="start" x="189" y="-421.5" font-family="Helvetica,sans-Serif" font-size="10.00">|# m_queue</text>
<text text-anchor="start" x="189" y="-410.5" font-family="Helvetica,sans-Serif" font-size="10.00">|+ QueryOutputIsKNearest()</text>
<text text-anchor="start" x="189" y="-399.5" font-family="Helvetica,sans-Serif" font-size="10.00">+ queue()</text>
<text text-anchor="start" x="189" y="-388.5" font-family="Helvetica,sans-Serif" font-size="10.00"># reset()</text>
<text text-anchor="middle" x="267.5" y="-377.5" font-family="Helvetica,sans-Serif" font-size="10.00">}</text>
</a>
</g>
</g>
<!-- Node1&#45;&gt;Node2 -->
<g id="edge1" class="edge">
<title>Node1&#45;&gt;Node2</title>
<path fill="none" stroke="#63b8ff" d="M762.89,-683.81C633.36,-676.58 393.94,-660.24 362.5,-637 304.13,-593.84 281.29,-507.6 272.6,-455.92"/>
<polygon fill="none" stroke="#63b8ff" points="762.99,-687.32 773.16,-684.38 763.37,-680.33 762.99,-687.32"/>
</g>
<!-- Node7 -->
<g id="node7" class="node">
<title>Node7</title>
<g id="a_node7"><a xlink:href="group__spatialpartitioning.html" target="_top" xlink:title=" ">
<polygon fill="white" stroke="#666666" points="874,-461 707,-461 707,-365 874,-365 874,-461"/>
<text text-anchor="start" x="715" y="-449" font-family="Helvetica,sans-Serif" font-size="10.00">{Ponca::QueryOutputIsNearest</text>
<text text-anchor="middle" x="790.5" y="-438" font-family="Helvetica,sans-Serif" font-size="10.00">&lt; DataPoint::Scalar &gt;</text>
<text text-anchor="start" x="715" y="-427" font-family="Helvetica,sans-Serif" font-size="10.00">|# m_nearest</text>
<text text-anchor="start" x="715" y="-416" font-family="Helvetica,sans-Serif" font-size="10.00"># m_squared_distance</text>
<text text-anchor="start" x="715" y="-405" font-family="Helvetica,sans-Serif" font-size="10.00">|+ QueryOutputIsNearest()</text>
<text text-anchor="start" x="715" y="-394" font-family="Helvetica,sans-Serif" font-size="10.00">+ get()</text>
<text text-anchor="start" x="715" y="-383" font-family="Helvetica,sans-Serif" font-size="10.00"># reset()</text>
<text text-anchor="middle" x="790.5" y="-372" font-family="Helvetica,sans-Serif" font-size="10.00">}</text>
</a>
</g>
</g>
<!-- Node1&#45;&gt;Node7 -->
<g id="edge6" class="edge">
<title>Node1&#45;&gt;Node7</title>
<path fill="none" stroke="#63b8ff" d="M825.35,-665.82C818.83,-657.39 812.31,-647.31 808.5,-637 787.15,-579.26 785.34,-507.53 787.06,-461.27"/>
<polygon fill="none" stroke="#63b8ff" points="822.72,-668.14 831.76,-673.66 828.14,-663.7 822.72,-668.14"/>
</g>
<!-- Node12 -->
<g id="node12" class="node">
<title>Node12</title>
<g id="a_node12"><a xlink:href="group__spatialpartitioning.html" target="_top" xlink:title=" ">
<polygon fill="white" stroke="#666666" points="1236,-472 1077,-472 1077,-354 1236,-354 1236,-472"/>
<text text-anchor="start" x="1085" y="-460" font-family="Helvetica,sans-Serif" font-size="10.00">{Ponca::QueryOutputIsRange</text>
<text text-anchor="middle" x="1156.5" y="-449" font-family="Helvetica,sans-Serif" font-size="10.00">&lt; DataPoint::Scalar &gt;</text>
<text text-anchor="start" x="1085" y="-438" font-family="Helvetica,sans-Serif" font-size="10.00">|# m_squared_radius</text>
<text text-anchor="start" x="1085" y="-427" font-family="Helvetica,sans-Serif" font-size="10.00">|+ QueryOutputIsRange()</text>
<text text-anchor="start" x="1085" y="-416" font-family="Helvetica,sans-Serif" font-size="10.00">+ radius()</text>
<text text-anchor="start" x="1085" y="-405" font-family="Helvetica,sans-Serif" font-size="10.00">+ squared_radius()</text>
<text text-anchor="start" x="1085" y="-394" font-family="Helvetica,sans-Serif" font-size="10.00">+ set_radius()</text>
<text text-anchor="start" x="1085" y="-383" font-family="Helvetica,sans-Serif" font-size="10.00">+ set_squared_radius()</text>
<text text-anchor="start" x="1085" y="-372" font-family="Helvetica,sans-Serif" font-size="10.00"># reset()</text>
<text text-anchor="middle" x="1156.5" y="-361" font-family="Helvetica,sans-Serif" font-size="10.00">}</text>
</a>
</g>
</g>
<!-- Node1&#45;&gt;Node12 -->
<g id="edge11" class="edge">
<title>Node1&#45;&gt;Node12</title>
<path fill="none" stroke="#63b8ff" d="M926.19,-670.95C949.56,-663.29 974,-652.39 993.5,-637 1042.28,-598.5 1031.8,-569.14 1068.5,-519 1079.95,-503.36 1093.03,-487.03 1105.54,-472.05"/>
<polygon fill="none" stroke="#63b8ff" points="925.11,-667.62 916.61,-673.93 927.19,-674.3 925.11,-667.62"/>
</g>
<!-- Node17 -->
<g id="node17" class="node">
<title>Node17</title>
<g id="a_node17"><a xlink:href="group__spatialpartitioning.html#structPonca_1_1QueryOutputIsKNearest" target="_top" xlink:title="Base class for knearest queries.">
<polygon fill="white" stroke="#666666" points="545,-620.5 372,-620.5 372,-535.5 545,-535.5 545,-620.5"/>
<text text-anchor="start" x="380" y="-608.5" font-family="Helvetica,sans-Serif" font-size="10.00">{Ponca::QueryOutputIsKNearest</text>
<text text-anchor="middle" x="458.5" y="-597.5" font-family="Helvetica,sans-Serif" font-size="10.00">&lt; Scalar &gt;</text>
<text text-anchor="start" x="380" y="-586.5" font-family="Helvetica,sans-Serif" font-size="10.00">|# m_queue</text>
<text text-anchor="start" x="380" y="-575.5" font-family="Helvetica,sans-Serif" font-size="10.00">|+ QueryOutputIsKNearest()</text>
<text text-anchor="start" x="380" y="-564.5" font-family="Helvetica,sans-Serif" font-size="10.00">+ queue()</text>
<text text-anchor="start" x="380" y="-553.5" font-family="Helvetica,sans-Serif" font-size="10.00"># reset()</text>
<text text-anchor="middle" x="458.5" y="-542.5" font-family="Helvetica,sans-Serif" font-size="10.00">}</text>
</a>
</g>
</g>
<!-- Node1&#45;&gt;Node17 -->
<g id="edge16" class="edge">
<title>Node1&#45;&gt;Node17</title>
<path fill="none" stroke="#63b8ff" d="M785.72,-671.16C721.43,-653.05 618.59,-624.09 545.37,-603.47"/>
<polygon fill="none" stroke="#63b8ff" points="785.12,-674.63 795.7,-673.97 787.02,-667.89 785.12,-674.63"/>
</g>
<!-- Node22 -->
<g id="node22" class="node">
<title>Node22</title>
<g id="a_node22"><a xlink:href="group__spatialpartitioning.html#structPonca_1_1QueryOutputIsNearest" target="_top" xlink:title="Base class for nearest queries.">
<polygon fill="white" stroke="#666666" points="985,-626 818,-626 818,-530 985,-530 985,-626"/>
<text text-anchor="start" x="826" y="-614" font-family="Helvetica,sans-Serif" font-size="10.00">{Ponca::QueryOutputIsNearest</text>
<text text-anchor="middle" x="901.5" y="-603" font-family="Helvetica,sans-Serif" font-size="10.00">&lt; Scalar &gt;</text>
<text text-anchor="start" x="826" y="-592" font-family="Helvetica,sans-Serif" font-size="10.00">|# m_nearest</text>
<text text-anchor="start" x="826" y="-581" font-family="Helvetica,sans-Serif" font-size="10.00"># m_squared_distance</text>
<text text-anchor="start" x="826" y="-570" font-family="Helvetica,sans-Serif" font-size="10.00">|+ QueryOutputIsNearest()</text>
<text text-anchor="start" x="826" y="-559" font-family="Helvetica,sans-Serif" font-size="10.00">+ get()</text>
<text text-anchor="start" x="826" y="-548" font-family="Helvetica,sans-Serif" font-size="10.00"># reset()</text>
<text text-anchor="middle" x="901.5" y="-537" font-family="Helvetica,sans-Serif" font-size="10.00">}</text>
</a>
</g>
</g>
<!-- Node1&#45;&gt;Node22 -->
<g id="edge22" class="edge">
<title>Node1&#45;&gt;Node22</title>
<path fill="none" stroke="#63b8ff" d="M857.49,-664.67C863.24,-653.47 870.35,-639.63 877.17,-626.36"/>
<polygon fill="none" stroke="#63b8ff" points="854.28,-663.26 852.82,-673.75 860.5,-666.45 854.28,-663.26"/>
</g>
<!-- Node27 -->
<g id="node27" class="node">
<title>Node27</title>
<g id="a_node27"><a xlink:href="group__spatialpartitioning.html#structPonca_1_1QueryOutputIsRange" target="_top" xlink:title="Base class for range queries.">
<polygon fill="white" stroke="#666666" points="1236,-637 1077,-637 1077,-519 1236,-519 1236,-637"/>
<text text-anchor="start" x="1085" y="-625" font-family="Helvetica,sans-Serif" font-size="10.00">{Ponca::QueryOutputIsRange</text>
<text text-anchor="middle" x="1156.5" y="-614" font-family="Helvetica,sans-Serif" font-size="10.00">&lt; Scalar &gt;</text>
<text text-anchor="start" x="1085" y="-603" font-family="Helvetica,sans-Serif" font-size="10.00">|# m_squared_radius</text>
<text text-anchor="start" x="1085" y="-592" font-family="Helvetica,sans-Serif" font-size="10.00">|+ QueryOutputIsRange()</text>
<text text-anchor="start" x="1085" y="-581" font-family="Helvetica,sans-Serif" font-size="10.00">+ radius()</text>
<text text-anchor="start" x="1085" y="-570" font-family="Helvetica,sans-Serif" font-size="10.00">+ squared_radius()</text>
<text text-anchor="start" x="1085" y="-559" font-family="Helvetica,sans-Serif" font-size="10.00">+ set_radius()</text>
<text text-anchor="start" x="1085" y="-548" font-family="Helvetica,sans-Serif" font-size="10.00">+ set_squared_radius()</text>
<text text-anchor="start" x="1085" y="-537" font-family="Helvetica,sans-Serif" font-size="10.00"># reset()</text>
<text text-anchor="middle" x="1156.5" y="-526" font-family="Helvetica,sans-Serif" font-size="10.00">}</text>
</a>
</g>
</g>
<!-- Node1&#45;&gt;Node27 -->
<g id="edge28" class="edge">
<title>Node1&#45;&gt;Node27</title>
<path fill="none" stroke="#63b8ff" d="M928.16,-683.12C965.09,-678.85 1008.53,-670.88 1045.5,-656 1058.01,-650.97 1070.5,-644.31 1082.35,-637.01"/>
<polygon fill="none" stroke="#63b8ff" points="927.49,-679.68 917.92,-684.23 928.24,-686.64 927.49,-679.68"/>
</g>
<!-- Node3 -->
<g id="node3" class="node">
<title>Node3</title>
<g id="a_node3"><a xlink:href="group__spatialpartitioning.html" target="_top" xlink:title=" ">
<polygon fill="white" stroke="#bfbfbf" points="162.5,-317 10.5,-317 10.5,-232 162.5,-232 162.5,-317"/>
<text text-anchor="start" x="18.5" y="-305" font-family="Helvetica,sans-Serif" font-size="10.00">{Ponca::Query&lt; QueryInput</text>
<text text-anchor="start" x="18.5" y="-294" font-family="Helvetica,sans-Serif" font-size="10.00">IsPosition&lt; DataPoint</text>
<text text-anchor="start" x="18.5" y="-283" font-family="Helvetica,sans-Serif" font-size="10.00"> &gt;, QueryOutputIsKNearest</text>
<text text-anchor="middle" x="86.5" y="-272" font-family="Helvetica,sans-Serif" font-size="10.00">&lt; DataPoint::Scalar &gt; &gt;</text>
<text text-anchor="start" x="18.5" y="-261" font-family="Helvetica,sans-Serif" font-size="10.00">||+ Query()</text>
<text text-anchor="start" x="18.5" y="-250" font-family="Helvetica,sans-Serif" font-size="10.00">+ Query()</text>
<text text-anchor="middle" x="86.5" y="-239" font-family="Helvetica,sans-Serif" font-size="10.00">}</text>
</a>
</g>
</g>
<!-- Node2&#45;&gt;Node3 -->
<g id="edge2" class="edge">
<title>Node2&#45;&gt;Node3</title>
<path fill="none" stroke="#63b8ff" d="M204.22,-364.28C183.87,-348.93 161.49,-332.06 141.76,-317.18"/>
<polygon fill="none" stroke="#63b8ff" points="202.12,-367.08 212.21,-370.3 206.33,-361.49 202.12,-367.08"/>
</g>
<!-- Node6 -->
<g id="node6" class="node">
<title>Node6</title>
<g id="a_node6"><a xlink:href="group__spatialpartitioning.html" target="_top" xlink:title=" ">
<polygon fill="white" stroke="#bfbfbf" points="354,-311.5 181,-311.5 181,-237.5 354,-237.5 354,-311.5"/>
<text text-anchor="start" x="189" y="-299.5" font-family="Helvetica,sans-Serif" font-size="10.00">{Ponca::Query&lt; QueryInput</text>
<text text-anchor="start" x="189" y="-288.5" font-family="Helvetica,sans-Serif" font-size="10.00">IsIndex, QueryOutputIsKNearest</text>
<text text-anchor="middle" x="267.5" y="-277.5" font-family="Helvetica,sans-Serif" font-size="10.00">&lt; DataPoint::Scalar &gt; &gt;</text>
<text text-anchor="start" x="189" y="-266.5" font-family="Helvetica,sans-Serif" font-size="10.00">||+ Query()</text>
<text text-anchor="start" x="189" y="-255.5" font-family="Helvetica,sans-Serif" font-size="10.00">+ Query()</text>
<text text-anchor="middle" x="267.5" y="-244.5" font-family="Helvetica,sans-Serif" font-size="10.00">}</text>
</a>
</g>
</g>
<!-- Node2&#45;&gt;Node6 -->
<g id="edge5" class="edge">
<title>Node2&#45;&gt;Node6</title>
<path fill="none" stroke="#63b8ff" d="M267.5,-359.98C267.5,-343.93 267.5,-326.61 267.5,-311.86"/>
<polygon fill="none" stroke="#63b8ff" points="264,-360.3 267.5,-370.3 271,-360.3 264,-360.3"/>
</g>
<!-- Node4 -->
<g id="node4" class="node">
<title>Node4</title>
<g id="a_node4"><a xlink:href="group__spatialpartitioning.html#structPonca_1_1KNearestPointQuery" target="_top" xlink:title="Base Query class combining QueryInputIsPosition and QueryOutputIsKNearest.">
<polygon fill="white" stroke="#666666" points="165,-185 8,-185 8,-144 165,-144 165,-185"/>
<text text-anchor="start" x="16" y="-173" font-family="Helvetica,sans-Serif" font-size="10.00">{Ponca::KNearestPointQuery</text>
<text text-anchor="middle" x="86.5" y="-162" font-family="Helvetica,sans-Serif" font-size="10.00">&lt; DataPoint &gt;</text>
<text text-anchor="middle" x="86.5" y="-151" font-family="Helvetica,sans-Serif" font-size="10.00">||}</text>
</a>
</g>
</g>
<!-- Node3&#45;&gt;Node4 -->
<g id="edge3" class="edge">
<title>Node3&#45;&gt;Node4</title>
<path fill="none" stroke="#63b8ff" d="M86.5,-221.46C86.5,-208.52 86.5,-195.43 86.5,-185.17"/>
<polygon fill="none" stroke="#63b8ff" points="83,-221.74 86.5,-231.74 90,-221.74 83,-221.74"/>
</g>
<!-- Node5 -->
<g id="node5" class="node">
<title>Node5</title>
<g id="a_node5"><a xlink:href="classPonca_1_1KdTreeKNearestPointQuery.html" target="_top" xlink:title=" ">
<polygon fill="white" stroke="#bfbfbf" points="173,-96 0,-96 0,-11 173,-11 173,-96"/>
<text text-anchor="start" x="8" y="-84" font-family="Helvetica,sans-Serif" font-size="10.00">{Ponca::KdTreeKNearestPoint</text>
<text text-anchor="middle" x="86.5" y="-73" font-family="Helvetica,sans-Serif" font-size="10.00">Query&lt; DataPoint &gt;</text>
<text text-anchor="start" x="8" y="-62" font-family="Helvetica,sans-Serif" font-size="10.00">||+ KdTreeKNearestPointQuery()</text>
<text text-anchor="start" x="8" y="-51" font-family="Helvetica,sans-Serif" font-size="10.00">+ begin()</text>
<text text-anchor="start" x="8" y="-40" font-family="Helvetica,sans-Serif" font-size="10.00">+ end()</text>
<text text-anchor="start" x="8" y="-29" font-family="Helvetica,sans-Serif" font-size="10.00"># search()</text>
<text text-anchor="middle" x="86.5" y="-18" font-family="Helvetica,sans-Serif" font-size="10.00">}</text>
</a>
</g>
</g>
<!-- Node4&#45;&gt;Node5 -->
<g id="edge4" class="edge">
<title>Node4&#45;&gt;Node5</title>
<path fill="none" stroke="#63b8ff" d="M86.5,-133.75C86.5,-122.18 86.5,-108.72 86.5,-96.22"/>
<polygon fill="none" stroke="#63b8ff" points="83,-133.76 86.5,-143.76 90,-133.76 83,-133.76"/>
</g>
<!-- Node8 -->
<g id="node8" class="node">
<title>Node8</title>
<g id="a_node8"><a xlink:href="group__spatialpartitioning.html" target="_top" xlink:title=" ">
<polygon fill="white" stroke="#bfbfbf" points="716,-311.5 549,-311.5 549,-237.5 716,-237.5 716,-311.5"/>
<text text-anchor="start" x="557" y="-299.5" font-family="Helvetica,sans-Serif" font-size="10.00">{Ponca::Query&lt; QueryInput</text>
<text text-anchor="start" x="557" y="-288.5" font-family="Helvetica,sans-Serif" font-size="10.00">IsIndex, QueryOutputIsNearest</text>
<text text-anchor="middle" x="632.5" y="-277.5" font-family="Helvetica,sans-Serif" font-size="10.00">&lt; DataPoint::Scalar &gt; &gt;</text>
<text text-anchor="start" x="557" y="-266.5" font-family="Helvetica,sans-Serif" font-size="10.00">||+ Query()</text>
<text text-anchor="start" x="557" y="-255.5" font-family="Helvetica,sans-Serif" font-size="10.00">+ Query()</text>
<text text-anchor="middle" x="632.5" y="-244.5" font-family="Helvetica,sans-Serif" font-size="10.00">}</text>
</a>
</g>
</g>
<!-- Node7&#45;&gt;Node8 -->
<g id="edge7" class="edge">
<title>Node7&#45;&gt;Node8</title>
<path fill="none" stroke="#63b8ff" d="M728.03,-358.03C709.98,-342.44 690.72,-325.8 674.26,-311.58"/>
<polygon fill="none" stroke="#63b8ff" points="725.83,-360.75 735.68,-364.64 730.4,-355.46 725.83,-360.75"/>
</g>
<!-- Node9 -->
<g id="node9" class="node">
<title>Node9</title>
<g id="a_node9"><a xlink:href="group__spatialpartitioning.html" target="_top" xlink:title=" ">
<polygon fill="white" stroke="#bfbfbf" points="886.5,-317 734.5,-317 734.5,-232 886.5,-232 886.5,-317"/>
<text text-anchor="start" x="742.5" y="-305" font-family="Helvetica,sans-Serif" font-size="10.00">{Ponca::Query&lt; QueryInput</text>
<text text-anchor="start" x="742.5" y="-294" font-family="Helvetica,sans-Serif" font-size="10.00">IsPosition&lt; DataPoint</text>
<text text-anchor="start" x="742.5" y="-283" font-family="Helvetica,sans-Serif" font-size="10.00"> &gt;, QueryOutputIsNearest</text>
<text text-anchor="middle" x="810.5" y="-272" font-family="Helvetica,sans-Serif" font-size="10.00">&lt; DataPoint::Scalar &gt; &gt;</text>
<text text-anchor="start" x="742.5" y="-261" font-family="Helvetica,sans-Serif" font-size="10.00">||+ Query()</text>
<text text-anchor="start" x="742.5" y="-250" font-family="Helvetica,sans-Serif" font-size="10.00">+ Query()</text>
<text text-anchor="middle" x="810.5" y="-239" font-family="Helvetica,sans-Serif" font-size="10.00">}</text>
</a>
</g>
</g>
<!-- Node7&#45;&gt;Node9 -->
<g id="edge8" class="edge">
<title>Node7&#45;&gt;Node9</title>
<path fill="none" stroke="#63b8ff" d="M798.89,-354.72C800.73,-342.17 802.64,-329.11 804.37,-317.31"/>
<polygon fill="none" stroke="#63b8ff" points="795.43,-354.24 797.44,-364.64 802.35,-355.26 795.43,-354.24"/>
</g>
<!-- Node10 -->
<g id="node10" class="node">
<title>Node10</title>
<g id="a_node10"><a xlink:href="group__spatialpartitioning.html#structPonca_1_1NearestPointQuery" target="_top" xlink:title="Base Query class combining QueryInputIsPosition and QueryOutputIsNearest.">
<polygon fill="white" stroke="#666666" points="875.5,-185 725.5,-185 725.5,-144 875.5,-144 875.5,-185"/>
<text text-anchor="start" x="733.5" y="-173" font-family="Helvetica,sans-Serif" font-size="10.00">{Ponca::NearestPointQuery</text>
<text text-anchor="middle" x="800.5" y="-162" font-family="Helvetica,sans-Serif" font-size="10.00">&lt; DataPoint &gt;</text>
<text text-anchor="middle" x="800.5" y="-151" font-family="Helvetica,sans-Serif" font-size="10.00">||}</text>
</a>
</g>
</g>
<!-- Node9&#45;&gt;Node10 -->
<g id="edge9" class="edge">
<title>Node9&#45;&gt;Node10</title>
<path fill="none" stroke="#63b8ff" d="M805.68,-221.46C804.48,-208.52 803.27,-195.43 802.32,-185.17"/>
<polygon fill="none" stroke="#63b8ff" points="802.23,-222.11 806.63,-231.74 809.2,-221.46 802.23,-222.11"/>
</g>
<!-- Node11 -->
<g id="node11" class="node">
<title>Node11</title>
<g id="a_node11"><a xlink:href="classPonca_1_1KdTreeNearestPointQuery.html" target="_top" xlink:title=" ">
<polygon fill="white" stroke="#bfbfbf" points="883,-96 716,-96 716,-11 883,-11 883,-96"/>
<text text-anchor="start" x="724" y="-84" font-family="Helvetica,sans-Serif" font-size="10.00">{Ponca::KdTreeNearestPoint</text>
<text text-anchor="middle" x="799.5" y="-73" font-family="Helvetica,sans-Serif" font-size="10.00">Query&lt; DataPoint &gt;</text>
<text text-anchor="start" x="724" y="-62" font-family="Helvetica,sans-Serif" font-size="10.00">||+ KdTreeNearestPointQuery()</text>
<text text-anchor="start" x="724" y="-51" font-family="Helvetica,sans-Serif" font-size="10.00">+ begin()</text>
<text text-anchor="start" x="724" y="-40" font-family="Helvetica,sans-Serif" font-size="10.00">+ end()</text>
<text text-anchor="start" x="724" y="-29" font-family="Helvetica,sans-Serif" font-size="10.00"># search()</text>
<text text-anchor="middle" x="799.5" y="-18" font-family="Helvetica,sans-Serif" font-size="10.00">}</text>
</a>
</g>
</g>
<!-- Node10&#45;&gt;Node11 -->
<g id="edge10" class="edge">
<title>Node10&#45;&gt;Node11</title>
<path fill="none" stroke="#63b8ff" d="M800.23,-133.75C800.12,-122.18 800,-108.72 799.88,-96.22"/>
<polygon fill="none" stroke="#63b8ff" points="796.73,-133.79 800.32,-143.76 803.73,-133.73 796.73,-133.79"/>
</g>
<!-- Node13 -->
<g id="node13" class="node">
<title>Node13</title>
<g id="a_node13"><a xlink:href="group__spatialpartitioning.html" target="_top" xlink:title=" ">
<polygon fill="white" stroke="#bfbfbf" points="1234,-311.5 1075,-311.5 1075,-237.5 1234,-237.5 1234,-311.5"/>
<text text-anchor="start" x="1083" y="-299.5" font-family="Helvetica,sans-Serif" font-size="10.00">{Ponca::Query&lt; QueryInput</text>
<text text-anchor="start" x="1083" y="-288.5" font-family="Helvetica,sans-Serif" font-size="10.00">IsIndex, QueryOutputIsRange</text>
<text text-anchor="middle" x="1154.5" y="-277.5" font-family="Helvetica,sans-Serif" font-size="10.00">&lt; DataPoint::Scalar &gt; &gt;</text>
<text text-anchor="start" x="1083" y="-266.5" font-family="Helvetica,sans-Serif" font-size="10.00">||+ Query()</text>
<text text-anchor="start" x="1083" y="-255.5" font-family="Helvetica,sans-Serif" font-size="10.00">+ Query()</text>
<text text-anchor="middle" x="1154.5" y="-244.5" font-family="Helvetica,sans-Serif" font-size="10.00">}</text>
</a>
</g>
</g>
<!-- Node12&#45;&gt;Node13 -->
<g id="edge12" class="edge">
<title>Node12&#45;&gt;Node13</title>
<path fill="none" stroke="#63b8ff" d="M1155.5,-343.67C1155.34,-332.69 1155.18,-321.71 1155.03,-311.87"/>
<polygon fill="none" stroke="#63b8ff" points="1152,-343.77 1155.65,-353.72 1159,-343.67 1152,-343.77"/>
</g>
<!-- Node14 -->
<g id="node14" class="node">
<title>Node14</title>
<g id="a_node14"><a xlink:href="group__spatialpartitioning.html" target="_top" xlink:title=" ">
<polygon fill="white" stroke="#bfbfbf" points="1404.5,-317 1252.5,-317 1252.5,-232 1404.5,-232 1404.5,-317"/>
<text text-anchor="start" x="1260.5" y="-305" font-family="Helvetica,sans-Serif" font-size="10.00">{Ponca::Query&lt; QueryInput</text>
<text text-anchor="start" x="1260.5" y="-294" font-family="Helvetica,sans-Serif" font-size="10.00">IsPosition&lt; DataPoint</text>
<text text-anchor="start" x="1260.5" y="-283" font-family="Helvetica,sans-Serif" font-size="10.00"> &gt;, QueryOutputIsRange</text>
<text text-anchor="middle" x="1328.5" y="-272" font-family="Helvetica,sans-Serif" font-size="10.00">&lt; DataPoint::Scalar &gt; &gt;</text>
<text text-anchor="start" x="1260.5" y="-261" font-family="Helvetica,sans-Serif" font-size="10.00">||+ Query()</text>
<text text-anchor="start" x="1260.5" y="-250" font-family="Helvetica,sans-Serif" font-size="10.00">+ Query()</text>
<text text-anchor="middle" x="1328.5" y="-239" font-family="Helvetica,sans-Serif" font-size="10.00">}</text>
</a>
</g>
</g>
<!-- Node12&#45;&gt;Node14 -->
<g id="edge13" class="edge">
<title>Node12&#45;&gt;Node14</title>
<path fill="none" stroke="#63b8ff" d="M1237.98,-347.33C1250.95,-337.05 1264.05,-326.65 1276.1,-317.08"/>
<polygon fill="none" stroke="#63b8ff" points="1235.6,-344.76 1229.94,-353.72 1239.95,-350.24 1235.6,-344.76"/>
</g>
<!-- Node15 -->
<g id="node15" class="node">
<title>Node15</title>
<g id="a_node15"><a xlink:href="group__spatialpartitioning.html#structPonca_1_1RangePointQuery" target="_top" xlink:title="Base Query class combining QueryInputIsPosition and QueryOutputIsRange.">
<polygon fill="white" stroke="#666666" points="1384,-185 1241,-185 1241,-144 1384,-144 1384,-185"/>
<text text-anchor="start" x="1249" y="-173" font-family="Helvetica,sans-Serif" font-size="10.00">{Ponca::RangePointQuery</text>
<text text-anchor="middle" x="1312.5" y="-162" font-family="Helvetica,sans-Serif" font-size="10.00">&lt; DataPoint &gt;</text>
<text text-anchor="middle" x="1312.5" y="-151" font-family="Helvetica,sans-Serif" font-size="10.00">||}</text>
</a>
</g>
</g>
<!-- Node14&#45;&gt;Node15 -->
<g id="edge14" class="edge">
<title>Node14&#45;&gt;Node15</title>
<path fill="none" stroke="#63b8ff" d="M1320.85,-221.84C1318.91,-208.78 1316.95,-195.53 1315.41,-185.17"/>
<polygon fill="none" stroke="#63b8ff" points="1317.39,-222.37 1322.31,-231.74 1324.31,-221.34 1317.39,-222.37"/>
</g>
<!-- Node16 -->
<g id="node16" class="node">
<title>Node16</title>
<g id="a_node16"><a xlink:href="classPonca_1_1KdTreeRangePointQuery.html" target="_top" xlink:title=" ">
<polygon fill="white" stroke="#bfbfbf" points="1399.5,-101.5 1223.5,-101.5 1223.5,-5.5 1399.5,-5.5 1399.5,-101.5"/>
<text text-anchor="start" x="1231.5" y="-89.5" font-family="Helvetica,sans-Serif" font-size="10.00">{Ponca::KdTreeRangePointQuery</text>
<text text-anchor="middle" x="1311.5" y="-78.5" font-family="Helvetica,sans-Serif" font-size="10.00">&lt; DataPoint &gt;</text>
<text text-anchor="start" x="1231.5" y="-67.5" font-family="Helvetica,sans-Serif" font-size="10.00">|# Iterator</text>
<text text-anchor="start" x="1231.5" y="-56.5" font-family="Helvetica,sans-Serif" font-size="10.00">|+ KdTreeRangePointQuery()</text>
<text text-anchor="start" x="1231.5" y="-45.5" font-family="Helvetica,sans-Serif" font-size="10.00">+ begin()</text>
<text text-anchor="start" x="1231.5" y="-34.5" font-family="Helvetica,sans-Serif" font-size="10.00">+ end()</text>
<text text-anchor="start" x="1231.5" y="-23.5" font-family="Helvetica,sans-Serif" font-size="10.00"># advance()</text>
<text text-anchor="middle" x="1311.5" y="-12.5" font-family="Helvetica,sans-Serif" font-size="10.00">}</text>
</a>
</g>
</g>
<!-- Node15&#45;&gt;Node16 -->
<g id="edge15" class="edge">
<title>Node15&#45;&gt;Node16</title>
<path fill="none" stroke="#63b8ff" d="M1312.23,-133.67C1312.14,-123.8 1312.03,-112.56 1311.93,-101.71"/>
<polygon fill="none" stroke="#63b8ff" points="1308.73,-133.79 1312.32,-143.76 1315.73,-133.73 1308.73,-133.79"/>
</g>
<!-- Node17&#45;&gt;Node2 -->
<g id="edge21" class="edge">
<title>Node17&#45;&gt;Node2</title>
<path fill="none" stroke="orange" d="M381.42,-529.58C368.66,-520.63 355.9,-510.94 344.5,-501 328.99,-487.48 313.62,-470.92 300.74,-455.89"/>
<polygon fill="orange" stroke="orange" points="379.56,-532.55 389.78,-535.35 383.54,-526.79 379.56,-532.55"/>
<text text-anchor="middle" x="399.5" y="-493" font-family="Helvetica,sans-Serif" font-size="10.00"> &lt; DataPoint::Scalar &gt;</text>
</g>
<!-- Node18 -->
<g id="node18" class="node">
<title>Node18</title>
<g id="a_node18"><a xlink:href="group__spatialpartitioning.html" target="_top" xlink:title=" ">
<polygon fill="white" stroke="#bfbfbf" points="545,-450 372,-450 372,-376 545,-376 545,-450"/>
<text text-anchor="start" x="380" y="-438" font-family="Helvetica,sans-Serif" font-size="10.00">{Ponca::Query&lt; QueryInput</text>
<text text-anchor="start" x="380" y="-427" font-family="Helvetica,sans-Serif" font-size="10.00">IsIndex, QueryOutputIsKNearest</text>
<text text-anchor="middle" x="458.5" y="-416" font-family="Helvetica,sans-Serif" font-size="10.00">&lt; Scalar &gt; &gt;</text>
<text text-anchor="start" x="380" y="-405" font-family="Helvetica,sans-Serif" font-size="10.00">||+ Query()</text>
<text text-anchor="start" x="380" y="-394" font-family="Helvetica,sans-Serif" font-size="10.00">+ Query()</text>
<text text-anchor="middle" x="458.5" y="-383" font-family="Helvetica,sans-Serif" font-size="10.00">}</text>
</a>
</g>
</g>
<!-- Node17&#45;&gt;Node18 -->
<g id="edge17" class="edge">
<title>Node17&#45;&gt;Node18</title>
<path fill="none" stroke="#63b8ff" d="M458.5,-525.26C458.5,-500.84 458.5,-472.28 458.5,-450.21"/>
<polygon fill="none" stroke="#63b8ff" points="455,-525.45 458.5,-535.45 462,-525.45 455,-525.45"/>
</g>
<!-- Node19 -->
<g id="node19" class="node">
<title>Node19</title>
<g id="a_node19"><a xlink:href="group__spatialpartitioning.html#structPonca_1_1KNearestIndexQuery" target="_top" xlink:title="Base Query class combining QueryInputIsIndex and QueryOutputIsKNearest.">
<polygon fill="white" stroke="#666666" points="531,-295 372,-295 372,-254 531,-254 531,-295"/>
<text text-anchor="start" x="380" y="-283" font-family="Helvetica,sans-Serif" font-size="10.00">{Ponca::KNearestIndexQuery</text>
<text text-anchor="middle" x="451.5" y="-272" font-family="Helvetica,sans-Serif" font-size="10.00">&lt; Scalar &gt;</text>
<text text-anchor="middle" x="451.5" y="-261" font-family="Helvetica,sans-Serif" font-size="10.00">||}</text>
</a>
</g>
</g>
<!-- Node18&#45;&gt;Node19 -->
<g id="edge18" class="edge">
<title>Node18&#45;&gt;Node19</title>
<path fill="none" stroke="#63b8ff" d="M456.13,-365.73C454.89,-341.61 453.44,-313.38 452.5,-295.01"/>
<polygon fill="none" stroke="#63b8ff" points="452.63,-365.97 456.64,-375.78 459.63,-365.61 452.63,-365.97"/>
</g>
<!-- Node20 -->
<g id="node20" class="node">
<title>Node20</title>
<g id="a_node20"><a xlink:href="group__spatialpartitioning.html" target="_top" xlink:title=" ">
<polygon fill="white" stroke="#666666" points="531,-185 372,-185 372,-144 531,-144 531,-185"/>
<text text-anchor="start" x="380" y="-173" font-family="Helvetica,sans-Serif" font-size="10.00">{Ponca::KNearestIndexQuery</text>
<text text-anchor="middle" x="451.5" y="-162" font-family="Helvetica,sans-Serif" font-size="10.00">&lt; DataPoint::Scalar &gt;</text>
<text text-anchor="middle" x="451.5" y="-151" font-family="Helvetica,sans-Serif" font-size="10.00">||}</text>
</a>
</g>
</g>
<!-- Node19&#45;&gt;Node20 -->
<g id="edge19" class="edge">
<title>Node19&#45;&gt;Node20</title>
<path fill="none" stroke="orange" d="M451.5,-243.89C451.5,-225.24 451.5,-201.68 451.5,-185.28"/>
<polygon fill="orange" stroke="orange" points="448,-243.94 451.5,-253.94 455,-243.94 448,-243.94"/>
<text text-anchor="middle" x="506.5" y="-206" font-family="Helvetica,sans-Serif" font-size="10.00"> &lt; DataPoint::Scalar &gt;</text>
</g>
<!-- Node21 -->
<g id="node21" class="node">
<title>Node21</title>
<g id="a_node21"><a xlink:href="classPonca_1_1KdTreeKNearestIndexQuery.html" target="_top" xlink:title=" ">
<polygon fill="white" stroke="#bfbfbf" points="539.5,-96 363.5,-96 363.5,-11 539.5,-11 539.5,-96"/>
<text text-anchor="start" x="371.5" y="-84" font-family="Helvetica,sans-Serif" font-size="10.00">{Ponca::KdTreeKNearestIndex</text>
<text text-anchor="middle" x="451.5" y="-73" font-family="Helvetica,sans-Serif" font-size="10.00">Query&lt; DataPoint &gt;</text>
<text text-anchor="start" x="371.5" y="-62" font-family="Helvetica,sans-Serif" font-size="10.00">||+ KdTreeKNearestIndexQuery()</text>
<text text-anchor="start" x="371.5" y="-51" font-family="Helvetica,sans-Serif" font-size="10.00">+ begin()</text>
<text text-anchor="start" x="371.5" y="-40" font-family="Helvetica,sans-Serif" font-size="10.00">+ end()</text>
<text text-anchor="start" x="371.5" y="-29" font-family="Helvetica,sans-Serif" font-size="10.00"># search()</text>
<text text-anchor="middle" x="451.5" y="-18" font-family="Helvetica,sans-Serif" font-size="10.00">}</text>
</a>
</g>
</g>
<!-- Node20&#45;&gt;Node21 -->
<g id="edge20" class="edge">
<title>Node20&#45;&gt;Node21</title>
<path fill="none" stroke="#63b8ff" d="M451.5,-133.75C451.5,-122.18 451.5,-108.72 451.5,-96.22"/>
<polygon fill="none" stroke="#63b8ff" points="448,-133.76 451.5,-143.76 455,-133.76 448,-133.76"/>
</g>
<!-- Node22&#45;&gt;Node7 -->
<g id="edge27" class="edge">
<title>Node22&#45;&gt;Node7</title>
<path fill="none" stroke="orange" d="M851.83,-521.73C846.43,-514.92 841.2,-507.91 836.5,-501 828.05,-488.57 819.97,-474.4 813.01,-461.16"/>
<polygon fill="orange" stroke="orange" points="849.21,-524.05 858.22,-529.62 854.65,-519.65 849.21,-524.05"/>
<text text-anchor="middle" x="891.5" y="-493" font-family="Helvetica,sans-Serif" font-size="10.00"> &lt; DataPoint::Scalar &gt;</text>
</g>
<!-- Node23 -->
<g id="node23" class="node">
<title>Node23</title>
<g id="a_node23"><a xlink:href="group__spatialpartitioning.html" target="_top" xlink:title=" ">
<polygon fill="white" stroke="#bfbfbf" points="1059,-450 892,-450 892,-376 1059,-376 1059,-450"/>
<text text-anchor="start" x="900" y="-438" font-family="Helvetica,sans-Serif" font-size="10.00">{Ponca::Query&lt; QueryInput</text>
<text text-anchor="start" x="900" y="-427" font-family="Helvetica,sans-Serif" font-size="10.00">IsIndex, QueryOutputIsNearest</text>
<text text-anchor="middle" x="975.5" y="-416" font-family="Helvetica,sans-Serif" font-size="10.00">&lt; Scalar &gt; &gt;</text>
<text text-anchor="start" x="900" y="-405" font-family="Helvetica,sans-Serif" font-size="10.00">||+ Query()</text>
<text text-anchor="start" x="900" y="-394" font-family="Helvetica,sans-Serif" font-size="10.00">+ Query()</text>
<text text-anchor="middle" x="975.5" y="-383" font-family="Helvetica,sans-Serif" font-size="10.00">}</text>
</a>
</g>
</g>
<!-- Node22&#45;&gt;Node23 -->
<g id="edge23" class="edge">
<title>Node22&#45;&gt;Node23</title>
<path fill="none" stroke="#63b8ff" d="M940.11,-521.07C943.91,-514.46 947.47,-507.68 950.5,-501 957.78,-484.97 963.47,-466.32 967.58,-450.4"/>
<polygon fill="none" stroke="#63b8ff" points="936.93,-519.58 934.82,-529.96 942.94,-523.16 936.93,-519.58"/>
</g>
<!-- Node24 -->
<g id="node24" class="node">
<title>Node24</title>
<g id="a_node24"><a xlink:href="group__spatialpartitioning.html#structPonca_1_1NearestIndexQuery" target="_top" xlink:title="Base Query class combining QueryInputIsIndex and QueryOutputIsNearest.">
<polygon fill="white" stroke="#666666" points="1056.5,-295 904.5,-295 904.5,-254 1056.5,-254 1056.5,-295"/>
<text text-anchor="start" x="912.5" y="-283" font-family="Helvetica,sans-Serif" font-size="10.00">{Ponca::NearestIndexQuery</text>
<text text-anchor="middle" x="980.5" y="-272" font-family="Helvetica,sans-Serif" font-size="10.00">&lt; Scalar &gt;</text>
<text text-anchor="middle" x="980.5" y="-261" font-family="Helvetica,sans-Serif" font-size="10.00">||}</text>
</a>
</g>
</g>
<!-- Node23&#45;&gt;Node24 -->
<g id="edge24" class="edge">
<title>Node23&#45;&gt;Node24</title>
<path fill="none" stroke="#63b8ff" d="M977.19,-365.73C978.08,-341.61 979.11,-313.38 979.79,-295.01"/>
<polygon fill="none" stroke="#63b8ff" points="973.7,-365.66 976.83,-375.78 980.69,-365.91 973.7,-365.66"/>
</g>
<!-- Node25 -->
<g id="node25" class="node">
<title>Node25</title>
<g id="a_node25"><a xlink:href="group__spatialpartitioning.html" target="_top" xlink:title=" ">
<polygon fill="white" stroke="#666666" points="1060.5,-185 908.5,-185 908.5,-144 1060.5,-144 1060.5,-185"/>
<text text-anchor="start" x="916.5" y="-173" font-family="Helvetica,sans-Serif" font-size="10.00">{Ponca::NearestIndexQuery</text>
<text text-anchor="middle" x="984.5" y="-162" font-family="Helvetica,sans-Serif" font-size="10.00">&lt; DataPoint::Scalar &gt;</text>
<text text-anchor="middle" x="984.5" y="-151" font-family="Helvetica,sans-Serif" font-size="10.00">||}</text>
</a>
</g>
</g>
<!-- Node24&#45;&gt;Node25 -->
<g id="edge25" class="edge">
<title>Node24&#45;&gt;Node25</title>
<path fill="none" stroke="orange" d="M981.6,-243.89C982.29,-225.24 983.16,-201.68 983.77,-185.28"/>
<polygon fill="orange" stroke="orange" points="978.1,-243.82 981.22,-253.94 985.09,-244.08 978.1,-243.82"/>
<text text-anchor="middle" x="1038.5" y="-206" font-family="Helvetica,sans-Serif" font-size="10.00"> &lt; DataPoint::Scalar &gt;</text>
</g>
<!-- Node26 -->
<g id="node26" class="node">
<title>Node26</title>
<g id="a_node26"><a xlink:href="classPonca_1_1KdTreeNearestIndexQuery.html" target="_top" xlink:title=" ">
<polygon fill="white" stroke="#bfbfbf" points="1070,-96 901,-96 901,-11 1070,-11 1070,-96"/>
<text text-anchor="start" x="909" y="-84" font-family="Helvetica,sans-Serif" font-size="10.00">{Ponca::KdTreeNearestIndex</text>
<text text-anchor="middle" x="985.5" y="-73" font-family="Helvetica,sans-Serif" font-size="10.00">Query&lt; DataPoint &gt;</text>
<text text-anchor="start" x="909" y="-62" font-family="Helvetica,sans-Serif" font-size="10.00">||+ KdTreeNearestIndexQuery()</text>
<text text-anchor="start" x="909" y="-51" font-family="Helvetica,sans-Serif" font-size="10.00">+ begin()</text>
<text text-anchor="start" x="909" y="-40" font-family="Helvetica,sans-Serif" font-size="10.00">+ end()</text>
<text text-anchor="start" x="909" y="-29" font-family="Helvetica,sans-Serif" font-size="10.00"># search()</text>
<text text-anchor="middle" x="985.5" y="-18" font-family="Helvetica,sans-Serif" font-size="10.00">}</text>
</a>
</g>
</g>
<!-- Node25&#45;&gt;Node26 -->
<g id="edge26" class="edge">
<title>Node25&#45;&gt;Node26</title>
<path fill="none" stroke="#63b8ff" d="M984.77,-133.75C984.88,-122.18 985,-108.72 985.12,-96.22"/>
<polygon fill="none" stroke="#63b8ff" points="981.27,-133.73 984.68,-143.76 988.27,-133.79 981.27,-133.73"/>
</g>
<!-- Node27&#45;&gt;Node12 -->
<g id="edge33" class="edge">
<title>Node27&#45;&gt;Node12</title>
<path fill="none" stroke="orange" d="M1156.5,-508.58C1156.5,-496.5 1156.5,-484.02 1156.5,-472.25"/>
<polygon fill="orange" stroke="orange" points="1153,-508.61 1156.5,-518.61 1160,-508.61 1153,-508.61"/>
<text text-anchor="middle" x="1211.5" y="-493" font-family="Helvetica,sans-Serif" font-size="10.00"> &lt; DataPoint::Scalar &gt;</text>
</g>
<!-- Node28 -->
<g id="node28" class="node">
<title>Node28</title>
<g id="a_node28"><a xlink:href="group__spatialpartitioning.html" target="_top" xlink:title=" ">
<polygon fill="white" stroke="#bfbfbf" points="1455,-450 1296,-450 1296,-376 1455,-376 1455,-450"/>
<text text-anchor="start" x="1304" y="-438" font-family="Helvetica,sans-Serif" font-size="10.00">{Ponca::Query&lt; QueryInput</text>
<text text-anchor="start" x="1304" y="-427" font-family="Helvetica,sans-Serif" font-size="10.00">IsIndex, QueryOutputIsRange</text>
<text text-anchor="middle" x="1375.5" y="-416" font-family="Helvetica,sans-Serif" font-size="10.00">&lt; Scalar &gt; &gt;</text>
<text text-anchor="start" x="1304" y="-405" font-family="Helvetica,sans-Serif" font-size="10.00">||+ Query()</text>
<text text-anchor="start" x="1304" y="-394" font-family="Helvetica,sans-Serif" font-size="10.00">+ Query()</text>
<text text-anchor="middle" x="1375.5" y="-383" font-family="Helvetica,sans-Serif" font-size="10.00">}</text>
</a>
</g>
</g>
<!-- Node27&#45;&gt;Node28 -->
<g id="edge29" class="edge">
<title>Node27&#45;&gt;Node28</title>
<path fill="none" stroke="#63b8ff" d="M1244.54,-519.64C1253.4,-513.47 1262.19,-507.19 1270.5,-501 1291.96,-485.03 1314.93,-466.2 1333.9,-450.16"/>
<polygon fill="none" stroke="#63b8ff" points="1242.28,-516.95 1236.04,-525.51 1246.26,-522.71 1242.28,-516.95"/>
</g>
<!-- Node29 -->
<g id="node29" class="node">
<title>Node29</title>
<g id="a_node29"><a xlink:href="group__spatialpartitioning.html#structPonca_1_1RangeIndexQuery" target="_top" xlink:title="Base Query class combining QueryInputIsIndex and QueryOutputIsRange.">
<polygon fill="white" stroke="#666666" points="1571,-295 1426,-295 1426,-254 1571,-254 1571,-295"/>
<text text-anchor="start" x="1434" y="-283" font-family="Helvetica,sans-Serif" font-size="10.00">{Ponca::RangeIndexQuery</text>
<text text-anchor="middle" x="1498.5" y="-272" font-family="Helvetica,sans-Serif" font-size="10.00">&lt; Scalar &gt;</text>
<text text-anchor="middle" x="1498.5" y="-261" font-family="Helvetica,sans-Serif" font-size="10.00">||}</text>
</a>
</g>
</g>
<!-- Node28&#45;&gt;Node29 -->
<g id="edge30" class="edge">
<title>Node28&#45;&gt;Node29</title>
<path fill="none" stroke="#63b8ff" d="M1414.88,-368.3C1437.1,-343.64 1463.78,-314.04 1480.92,-295.01"/>
<polygon fill="none" stroke="#63b8ff" points="1412.23,-366.01 1408.14,-375.78 1417.43,-370.69 1412.23,-366.01"/>
</g>
<!-- Node30 -->
<g id="node30" class="node">
<title>Node30</title>
<g id="a_node30"><a xlink:href="group__spatialpartitioning.html" target="_top" xlink:title=" ">
<polygon fill="white" stroke="#666666" points="1578,-185 1433,-185 1433,-144 1578,-144 1578,-185"/>
<text text-anchor="start" x="1441" y="-173" font-family="Helvetica,sans-Serif" font-size="10.00">{Ponca::RangeIndexQuery</text>
<text text-anchor="middle" x="1505.5" y="-162" font-family="Helvetica,sans-Serif" font-size="10.00">&lt; DataPoint::Scalar &gt;</text>
<text text-anchor="middle" x="1505.5" y="-151" font-family="Helvetica,sans-Serif" font-size="10.00">||}</text>
</a>
</g>
</g>
<!-- Node29&#45;&gt;Node30 -->
<g id="edge31" class="edge">
<title>Node29&#45;&gt;Node30</title>
<path fill="none" stroke="orange" d="M1500.42,-243.89C1501.63,-225.24 1503.16,-201.68 1504.22,-185.28"/>
<polygon fill="orange" stroke="orange" points="1496.92,-243.74 1499.77,-253.94 1503.91,-244.19 1496.92,-243.74"/>
<text text-anchor="middle" x="1557.5" y="-206" font-family="Helvetica,sans-Serif" font-size="10.00"> &lt; DataPoint::Scalar &gt;</text>
</g>
<!-- Node31 -->
<g id="node31" class="node">
<title>Node31</title>
<g id="a_node31"><a xlink:href="classPonca_1_1KdTreeRangeIndexQuery.html" target="_top" xlink:title=" ">
<polygon fill="white" stroke="#bfbfbf" points="1595.5,-107 1417.5,-107 1417.5,0 1595.5,0 1595.5,-107"/>
<text text-anchor="start" x="1425.5" y="-95" font-family="Helvetica,sans-Serif" font-size="10.00">{Ponca::KdTreeRangeIndexQuery</text>
<text text-anchor="middle" x="1506.5" y="-84" font-family="Helvetica,sans-Serif" font-size="10.00">&lt; DataPoint &gt;</text>
<text text-anchor="start" x="1425.5" y="-73" font-family="Helvetica,sans-Serif" font-size="10.00">|# Iterator</text>
<text text-anchor="start" x="1425.5" y="-62" font-family="Helvetica,sans-Serif" font-size="10.00">|+ KdTreeRangeIndexQuery()</text>
<text text-anchor="start" x="1425.5" y="-51" font-family="Helvetica,sans-Serif" font-size="10.00">+ begin()</text>
<text text-anchor="start" x="1425.5" y="-40" font-family="Helvetica,sans-Serif" font-size="10.00">+ end()</text>
<text text-anchor="start" x="1425.5" y="-29" font-family="Helvetica,sans-Serif" font-size="10.00"># initialize()</text>
<text text-anchor="start" x="1425.5" y="-18" font-family="Helvetica,sans-Serif" font-size="10.00"># advance()</text>
<text text-anchor="middle" x="1506.5" y="-7" font-family="Helvetica,sans-Serif" font-size="10.00">}</text>
</a>
</g>
</g>
<!-- Node30&#45;&gt;Node31 -->
<g id="edge32" class="edge">
<title>Node30&#45;&gt;Node31</title>
<path fill="none" stroke="#63b8ff" d="M1505.77,-133.63C1505.85,-125.45 1505.93,-116.33 1506.02,-107.28"/>
<polygon fill="none" stroke="#63b8ff" points="1502.27,-133.73 1505.68,-143.76 1509.27,-133.79 1502.27,-133.73"/>
</g>
</g>
</svg>
        <g id="navigator" transform="translate(0 0)" fill="#404254">
                <rect fill="#f2f5e9" fill-opacity="0.5" stroke="#606060" stroke-width=".5" x="0" y="0" width="60" height="60"/>
                <use id="zoomplus" xlink:href="#zoomPlus" x="17" y="9" onmousedown="handleZoom(evt,'in')"/>
                <use id="zoomminus" xlink:href="#zoomMin" x="42" y="9" onmousedown="handleZoom(evt,'out')"/>
                <use id="reset" xlink:href="#resetDef" x="30" y="36" onmousedown="handleReset()"/>
                <g id="arrowUp" xlink:href="#dirArrow" transform="translate(30 24)" onmousedown="handlePan(0,-1)">
                  <use xlink:href="#rim" fill="#404040">
                        <set attributeName="fill" to="#808080" begin="arrowUp.mouseover" end="arrowUp.mouseout"/>
                  </use>
                  <path fill="none" stroke="white" stroke-width="1.5" d="M0,-3.0v7 M-2.5,-0.5L0,-3.0L2.5,-0.5"/>
                </g>
                <g id="arrowRight" xlink:href="#dirArrow" transform="rotate(90) translate(36 -43)" onmousedown="handlePan(1,0)">
                  <use xlink:href="#rim" fill="#404040">
                        <set attributeName="fill" to="#808080" begin="arrowRight.mouseover" end="arrowRight.mouseout"/>
                  </use>
                  <path fill="none" stroke="white" stroke-width="1.5" d="M0,-3.0v7 M-2.5,-0.5L0,-3.0L2.5,-0.5"/>
                </g>
                <g id="arrowDown" xlink:href="#dirArrow" transform="rotate(180) translate(-30 -48)" onmousedown="handlePan(0,1)">
                  <use xlink:href="#rim" fill="#404040">
                        <set attributeName="fill" to="#808080" begin="arrowDown.mouseover" end="arrowDown.mouseout"/>
                  </use>
                  <path fill="none" stroke="white" stroke-width="1.5" d="M0,-3.0v7 M-2.5,-0.5L0,-3.0L2.5,-0.5"/>
                </g>
                <g id="arrowLeft" xlink:href="#dirArrow" transform="rotate(270) translate(-36 17)" onmousedown="handlePan(-1,0)">
                  <use xlink:href="#rim" fill="#404040">
                        <set attributeName="fill" to="#808080" begin="arrowLeft.mouseover" end="arrowLeft.mouseout"/>
                  </use>
                  <path fill="none" stroke="white" stroke-width="1.5" d="M0,-3.0v7 M-2.5,-0.5L0,-3.0L2.5,-0.5"/>
                </g>
        </g>
        <svg viewBox="0 0 15 15" width="100%" height="30px" preserveAspectRatio="xMaxYMin meet">
         <g id="arrow_out" transform="scale(0.3 0.3)">
          <a xlink:href="structPonca_1_1QueryOutputBase__inherit__graph_org.svg" target="_base">
           <rect id="button" ry="5" rx="5" y="6" x="6" height="38" width="38"
                fill="#f2f5e9" fill-opacity="0.5" stroke="#606060" stroke-width="1.0"/>
           <path id="arrow"
             d="M 11.500037,31.436501 C 11.940474,20.09759 22.043105,11.32322 32.158766,21.979434 L 37.068811,17.246167 C 37.068811,17.246167 37.088388,32 37.088388,32 L 22.160133,31.978069 C 22.160133,31.978069 26.997745,27.140456 26.997745,27.140456 C 18.528582,18.264221 13.291696,25.230495 11.500037,31.436501 z"
             style="fill:#404040;"/>
          </a>
         </g>
        </svg>
</svg>
