<?xml version="1.0" encoding="UTF-8" standalone="no"?>
<!DOCTYPE svg PUBLIC "-//W3C//DTD SVG 1.1//EN"
 "http://www.w3.org/Graphics/SVG/1.1/DTD/svg11.dtd">
<!-- Generated by graphviz version 2.43.0 (0)
 -->
<!-- Title: Ponca::QueryInputIsPosition&lt; DataPoint &gt; Pages: 1 -->
<svg width="254pt" height="460pt"
 viewBox="0.00 0.00 253.50 460.00" xmlns="http://www.w3.org/2000/svg" xmlns:xlink="http://www.w3.org/1999/xlink">
<g id="graph0" class="graph" transform="scale(1 1) rotate(0) translate(4 456)">
<title>Ponca::QueryInputIsPosition&lt; DataPoint &gt;</title>
<!-- Node1 -->
<g id="node1" class="node">
<title>Node1</title>
<g id="a_node1"><a xlink:title="Base class for queries storing points.">
<polygon fill="#999999" stroke="#666666" points="0,-0.5 0,-90.5 153,-90.5 153,-0.5 0,-0.5"/>
<text text-anchor="start" x="8" y="-78.5" font-family="Helvetica,sans-Serif" font-size="10.00">Ponca::QueryInputIsPosition</text>
<text text-anchor="middle" x="76.5" y="-67.5" font-family="Helvetica,sans-Serif" font-size="10.00">&lt; DataPoint &gt;</text>
<polyline fill="none" stroke="#666666" points="0,-60.5 153,-60.5 "/>
<text text-anchor="middle" x="76.5" y="-48.5" font-family="Helvetica,sans-Serif" font-size="10.00"> </text>
<polyline fill="none" stroke="#666666" points="0,-41.5 153,-41.5 "/>
<text text-anchor="start" x="8" y="-29.5" font-family="Helvetica,sans-Serif" font-size="10.00">+ QueryInputIsPosition()</text>
<text text-anchor="start" x="8" y="-18.5" font-family="Helvetica,sans-Serif" font-size="10.00"># skipIndexFunctor()</text>
<text text-anchor="start" x="8" y="-7.5" font-family="Helvetica,sans-Serif" font-size="10.00"># getInputPosition()</text>
</a>
</g>
</g>
<!-- Node2 -->
<g id="node2" class="node">
<title>Node2</title>
<g id="a_node2"><a xlink:href="group__spatialpartitioning.html" target="_top" xlink:title=" ">
<polygon fill="white" stroke="#666666" points="7.5,-128.5 7.5,-218.5 145.5,-218.5 145.5,-128.5 7.5,-128.5"/>
<text text-anchor="start" x="15.5" y="-206.5" font-family="Helvetica,sans-Serif" font-size="10.00">Ponca::QueryInput&lt;</text>
<text text-anchor="middle" x="76.5" y="-195.5" font-family="Helvetica,sans-Serif" font-size="10.00"> DataPoint::VectorType &gt;</text>
<polyline fill="none" stroke="#666666" points="7.5,-188.5 145.5,-188.5 "/>
<text text-anchor="middle" x="76.5" y="-176.5" font-family="Helvetica,sans-Serif" font-size="10.00"> </text>
<polyline fill="none" stroke="#666666" points="7.5,-169.5 145.5,-169.5 "/>
<text text-anchor="start" x="15.5" y="-157.5" font-family="Helvetica,sans-Serif" font-size="10.00">+ QueryInput()</text>
<text text-anchor="start" x="15.5" y="-146.5" font-family="Helvetica,sans-Serif" font-size="10.00">+ input()</text>
<text text-anchor="start" x="15.5" y="-135.5" font-family="Helvetica,sans-Serif" font-size="10.00"># editInput()</text>
</a>
</g>
</g>
<!-- Node2&#45;&gt;Node1 -->
<g id="edge1" class="edge">
<title>Node2&#45;&gt;Node1</title>
<path fill="none" stroke="#63b8ff" d="M76.5,-118.23C76.5,-109.06 76.5,-99.63 76.5,-90.76"/>
<polygon fill="none" stroke="#63b8ff" points="73,-118.43 76.5,-128.43 80,-118.43 73,-118.43"/>
</g>
<!-- Node3 -->
<g id="node3" class="node">
<title>Node3</title>
<g id="a_node3"><a xlink:href="group__spatialpartitioning.html#structPonca_1_1QueryInputBase" target="_top" xlink:title="Base class for queries input type.">
<polygon fill="white" stroke="#666666" points="7.5,-394.5 7.5,-451.5 137.5,-451.5 137.5,-394.5 7.5,-394.5"/>
<text text-anchor="middle" x="72.5" y="-439.5" font-family="Helvetica,sans-Serif" font-size="10.00">Ponca::QueryInputBase</text>
<polyline fill="none" stroke="#666666" points="7.5,-432.5 137.5,-432.5 "/>
<text text-anchor="middle" x="72.5" y="-420.5" font-family="Helvetica,sans-Serif" font-size="10.00"> </text>
<polyline fill="none" stroke="#666666" points="7.5,-413.5 137.5,-413.5 "/>
<text text-anchor="middle" x="72.5" y="-401.5" font-family="Helvetica,sans-Serif" font-size="10.00"> </text>
</a>
</g>
</g>
<!-- Node3&#45;&gt;Node2 -->
<g id="edge2" class="edge">
<title>Node3&#45;&gt;Node2</title>
<path fill="none" stroke="#63b8ff" d="M73.11,-383.96C73.84,-339.36 75.03,-265.58 75.79,-218.54"/>
<polygon fill="none" stroke="#63b8ff" points="69.61,-384.03 72.95,-394.09 76.61,-384.15 69.61,-384.03"/>
</g>
<!-- Node4 -->
<g id="node4" class="node">
<title>Node4</title>
<g id="a_node4"><a xlink:href="group__spatialpartitioning.html#structPonca_1_1QueryInput" target="_top" xlink:title="Base class for typed queries input type.">
<polygon fill="white" stroke="#666666" points="88.5,-266.5 88.5,-356.5 202.5,-356.5 202.5,-266.5 88.5,-266.5"/>
<text text-anchor="start" x="96.5" y="-344.5" font-family="Helvetica,sans-Serif" font-size="10.00">Ponca::QueryInput&lt;</text>
<text text-anchor="middle" x="145.5" y="-333.5" font-family="Helvetica,sans-Serif" font-size="10.00"> InputType_ &gt;</text>
<polyline fill="none" stroke="#666666" points="88.5,-326.5 202.5,-326.5 "/>
<text text-anchor="middle" x="145.5" y="-314.5" font-family="Helvetica,sans-Serif" font-size="10.00"> </text>
<polyline fill="none" stroke="#666666" points="88.5,-307.5 202.5,-307.5 "/>
<text text-anchor="start" x="96.5" y="-295.5" font-family="Helvetica,sans-Serif" font-size="10.00">+ QueryInput()</text>
<text text-anchor="start" x="96.5" y="-284.5" font-family="Helvetica,sans-Serif" font-size="10.00">+ input()</text>
<text text-anchor="start" x="96.5" y="-273.5" font-family="Helvetica,sans-Serif" font-size="10.00"># editInput()</text>
</a>
</g>
</g>
<!-- Node3&#45;&gt;Node4 -->
<g id="edge4" class="edge">
<title>Node3&#45;&gt;Node4</title>
<path fill="none" stroke="#63b8ff" d="M96.47,-386.04C102.72,-376.68 109.51,-366.48 116.01,-356.74"/>
<polygon fill="none" stroke="#63b8ff" points="93.56,-384.11 90.92,-394.37 99.38,-387.99 93.56,-384.11"/>
</g>
<!-- Node4&#45;&gt;Node2 -->
<g id="edge3" class="edge">
<title>Node4&#45;&gt;Node2</title>
<path fill="none" stroke="orange" d="M118.49,-257.26C112.05,-244.56 105.24,-231.15 99.03,-218.9"/>
<polygon fill="orange" stroke="orange" points="115.45,-259.01 123.1,-266.34 121.69,-255.84 115.45,-259.01"/>
<text text-anchor="middle" x="179" y="-240" font-family="Helvetica,sans-Serif" font-size="10.00"> &lt; DataPoint::VectorType &gt;</text>
</g>
</g>
</svg>
