<?xml version="1.0" encoding="UTF-8" standalone="no"?>
<!DOCTYPE svg PUBLIC "-//W3C//DTD SVG 1.1//EN"
 "http://www.w3.org/Graphics/SVG/1.1/DTD/svg11.dtd">
<!-- Generated by graphviz version 2.43.0 (0)
 -->
<!-- Title: Ponca::QueryInputBase Pages: 1 -->
<!--zoomable 1080 -->
<svg id="main" version="1.1" xmlns="http://www.w3.org/2000/svg" xmlns:xlink="http://www.w3.org/1999/xlink" xml:space="preserve" onload="init(evt)">
<style type="text/css"><![CDATA[
.edge:hover path { stroke: red; }
.edge:hover polygon { stroke: red; fill: red; }
]]></style>
<script type="text/javascript"><![CDATA[
var edges = document.getElementsByTagName('g');
if (edges && edges.length) {
  for (var i=0;i<edges.length;i++) {
    if (edges[i].id.substr(0,4)=='edge') {
      edges[i].setAttribute('class','edge');
    }
  }
}
]]></script>
        <defs>
                <circle id="rim" cx="0" cy="0" r="7"/>
                <circle id="rim2" cx="0" cy="0" r="3.5"/>
                <g id="zoomPlus">
                        <use xlink:href="#rim" fill="#404040">
                                <set attributeName="fill" to="#808080" begin="zoomplus.mouseover" end="zoomplus.mouseout"/>
                        </use>
                        <path d="M-4,0h8M0,-4v8" fill="none" stroke="white" stroke-width="1.5" pointer-events="none"/>
                </g>
                <g id="zoomMin">
                        <use xlink:href="#rim" fill="#404040">
                                <set attributeName="fill" to="#808080" begin="zoomminus.mouseover" end="zoomminus.mouseout"/>
                        </use>
                        <path d="M-4,0h8" fill="none" stroke="white" stroke-width="1.5" pointer-events="none"/>
                </g>
                <g id="dirArrow">
                        <path fill="none" stroke="white" stroke-width="1.5" d="M0,-3.0v7 M-2.5,-0.5L0,-3.0L2.5,-0.5"/>
                </g>
               <g id="resetDef">
                       <use xlink:href="#rim2" fill="#404040">
                               <set attributeName="fill" to="#808080" begin="reset.mouseover" end="reset.mouseout"/>
                       </use>
               </g>
        </defs>

<script type="text/javascript">
var viewWidth = 1439;
var viewHeight = 1080;
var sectionId = 'dynsection-0';
</script>
<script xlink:href="svgpan.js"/>
<svg id="graph" class="graph">
<g id="viewport">
<title>Ponca::QueryInputBase</title>
<!-- Node1 -->
<g id="node1" class="node">
<title>Node1</title>
<g id="a_node1"><a xlink:title="Base class for queries input type.">
<polygon fill="#999999" stroke="#666666" points="485.5,-1014.5 485.5,-1071.5 615.5,-1071.5 615.5,-1014.5 485.5,-1014.5"/>
<text text-anchor="middle" x="550.5" y="-1059.5" font-family="Helvetica,sans-Serif" font-size="10.00">Ponca::QueryInputBase</text>
<polyline fill="none" stroke="#666666" points="485.5,-1052.5 615.5,-1052.5 "/>
<text text-anchor="middle" x="550.5" y="-1040.5" font-family="Helvetica,sans-Serif" font-size="10.00"> </text>
<polyline fill="none" stroke="#666666" points="485.5,-1033.5 615.5,-1033.5 "/>
<text text-anchor="middle" x="550.5" y="-1021.5" font-family="Helvetica,sans-Serif" font-size="10.00"> </text>
</a>
</g>
</g>
<!-- Node2 -->
<g id="node2" class="node">
<title>Node2</title>
<g id="a_node2"><a xlink:href="group__spatialpartitioning.html" target="_top" xlink:title=" ">
<polygon fill="white" stroke="#666666" points="373.5,-748.5 373.5,-838.5 487.5,-838.5 487.5,-748.5 373.5,-748.5"/>
<text text-anchor="start" x="381.5" y="-826.5" font-family="Helvetica,sans-Serif" font-size="10.00">Ponca::QueryInput&lt;</text>
<text text-anchor="middle" x="430.5" y="-815.5" font-family="Helvetica,sans-Serif" font-size="10.00"> Traits::IndexType &gt;</text>
<polyline fill="none" stroke="#666666" points="373.5,-808.5 487.5,-808.5 "/>
<text text-anchor="middle" x="430.5" y="-796.5" font-family="Helvetica,sans-Serif" font-size="10.00"> </text>
<polyline fill="none" stroke="#666666" points="373.5,-789.5 487.5,-789.5 "/>
<text text-anchor="start" x="381.5" y="-777.5" font-family="Helvetica,sans-Serif" font-size="10.00">+ QueryInput()</text>
<text text-anchor="start" x="381.5" y="-766.5" font-family="Helvetica,sans-Serif" font-size="10.00">+ input()</text>
<text text-anchor="start" x="381.5" y="-755.5" font-family="Helvetica,sans-Serif" font-size="10.00"># editInput()</text>
</a>
</g>
</g>
<!-- Node1&#45;&gt;Node2 -->
<g id="edge1" class="edge">
<title>Node1&#45;&gt;Node2</title>
<path fill="none" stroke="#63b8ff" d="M496.89,-1007.7C486.46,-998.83 476.59,-988.5 469.5,-977 443.48,-934.81 434.63,-877.86 431.72,-838.87"/>
<polygon fill="none" stroke="#63b8ff" points="494.95,-1010.63 504.93,-1014.19 499.35,-1005.18 494.95,-1010.63"/>
</g>
<!-- Node3 -->
<g id="node3" class="node">
<title>Node3</title>
<g id="a_node3"><a xlink:href="group__spatialpartitioning.html" target="_top" xlink:title=" ">
<polygon fill="white" stroke="#666666" points="824.5,-748.5 824.5,-838.5 938.5,-838.5 938.5,-748.5 824.5,-748.5"/>
<text text-anchor="start" x="832.5" y="-826.5" font-family="Helvetica,sans-Serif" font-size="10.00">Ponca::QueryInput&lt;</text>
<text text-anchor="middle" x="881.5" y="-815.5" font-family="Helvetica,sans-Serif" font-size="10.00"> Index &gt;</text>
<polyline fill="none" stroke="#666666" points="824.5,-808.5 938.5,-808.5 "/>
<text text-anchor="middle" x="881.5" y="-796.5" font-family="Helvetica,sans-Serif" font-size="10.00"> </text>
<polyline fill="none" stroke="#666666" points="824.5,-789.5 938.5,-789.5 "/>
<text text-anchor="start" x="832.5" y="-777.5" font-family="Helvetica,sans-Serif" font-size="10.00">+ QueryInput()</text>
<text text-anchor="start" x="832.5" y="-766.5" font-family="Helvetica,sans-Serif" font-size="10.00">+ input()</text>
<text text-anchor="start" x="832.5" y="-755.5" font-family="Helvetica,sans-Serif" font-size="10.00"># editInput()</text>
</a>
</g>
</g>
<!-- Node1&#45;&gt;Node3 -->
<g id="edge2" class="edge">
<title>Node1&#45;&gt;Node3</title>
<path fill="none" stroke="#63b8ff" d="M625.39,-1021.6C698.68,-997.51 807.39,-949.97 864.5,-868 870.49,-859.4 874.4,-849 876.94,-838.76"/>
<polygon fill="none" stroke="#63b8ff" points="624.18,-1018.31 615.74,-1024.7 626.33,-1024.97 624.18,-1018.31"/>
</g>
<!-- Node18 -->
<g id="node18" class="node">
<title>Node18</title>
<g id="a_node18"><a xlink:href="group__spatialpartitioning.html" target="_top" xlink:title=" ">
<polygon fill="white" stroke="#666666" points="505.5,-748.5 505.5,-838.5 643.5,-838.5 643.5,-748.5 505.5,-748.5"/>
<text text-anchor="start" x="513.5" y="-826.5" font-family="Helvetica,sans-Serif" font-size="10.00">Ponca::QueryInput&lt;</text>
<text text-anchor="middle" x="574.5" y="-815.5" font-family="Helvetica,sans-Serif" font-size="10.00"> DataPoint::VectorType &gt;</text>
<polyline fill="none" stroke="#666666" points="505.5,-808.5 643.5,-808.5 "/>
<text text-anchor="middle" x="574.5" y="-796.5" font-family="Helvetica,sans-Serif" font-size="10.00"> </text>
<polyline fill="none" stroke="#666666" points="505.5,-789.5 643.5,-789.5 "/>
<text text-anchor="start" x="513.5" y="-777.5" font-family="Helvetica,sans-Serif" font-size="10.00">+ QueryInput()</text>
<text text-anchor="start" x="513.5" y="-766.5" font-family="Helvetica,sans-Serif" font-size="10.00">+ input()</text>
<text text-anchor="start" x="513.5" y="-755.5" font-family="Helvetica,sans-Serif" font-size="10.00"># editInput()</text>
</a>
</g>
</g>
<!-- Node1&#45;&gt;Node18 -->
<g id="edge17" class="edge">
<title>Node1&#45;&gt;Node18</title>
<path fill="none" stroke="#63b8ff" d="M519.85,-1006.12C491.17,-967.94 456.37,-906.34 482.5,-857 485.75,-850.86 494.45,-843.23 505.28,-835.43"/>
<polygon fill="none" stroke="#63b8ff" points="517.34,-1008.6 526.22,-1014.37 522.87,-1004.32 517.34,-1008.6"/>
</g>
<!-- Node26 -->
<g id="node26" class="node">
<title>Node26</title>
<g id="a_node26"><a xlink:href="group__spatialpartitioning.html#structPonca_1_1QueryInput" target="_top" xlink:title="Base class for typed queries input type.">
<polygon fill="white" stroke="#666666" points="575.5,-886.5 575.5,-976.5 689.5,-976.5 689.5,-886.5 575.5,-886.5"/>
<text text-anchor="start" x="583.5" y="-964.5" font-family="Helvetica,sans-Serif" font-size="10.00">Ponca::QueryInput&lt;</text>
<text text-anchor="middle" x="632.5" y="-953.5" font-family="Helvetica,sans-Serif" font-size="10.00"> InputType_ &gt;</text>
<polyline fill="none" stroke="#666666" points="575.5,-946.5 689.5,-946.5 "/>
<text text-anchor="middle" x="632.5" y="-934.5" font-family="Helvetica,sans-Serif" font-size="10.00"> </text>
<polyline fill="none" stroke="#666666" points="575.5,-927.5 689.5,-927.5 "/>
<text text-anchor="start" x="583.5" y="-915.5" font-family="Helvetica,sans-Serif" font-size="10.00">+ QueryInput()</text>
<text text-anchor="start" x="583.5" y="-904.5" font-family="Helvetica,sans-Serif" font-size="10.00">+ input()</text>
<text text-anchor="start" x="583.5" y="-893.5" font-family="Helvetica,sans-Serif" font-size="10.00"># editInput()</text>
</a>
</g>
</g>
<!-- Node1&#45;&gt;Node26 -->
<g id="edge25" class="edge">
<title>Node1&#45;&gt;Node26</title>
<path fill="none" stroke="#63b8ff" d="M577.21,-1006.33C584.28,-996.89 592,-986.58 599.37,-976.74"/>
<polygon fill="none" stroke="#63b8ff" points="574.38,-1004.27 571.19,-1014.37 579.99,-1008.46 574.38,-1004.27"/>
</g>
<!-- Node4 -->
<g id="node4" class="node">
<title>Node4</title>
<g id="a_node4"><a xlink:href="group__spatialpartitioning.html#structPonca_1_1QueryInputIsIndex" target="_top" xlink:title="Base class for queries storing points.">
<polygon fill="white" stroke="#666666" points="884,-620.5 884,-710.5 1025,-710.5 1025,-620.5 884,-620.5"/>
<text text-anchor="start" x="892" y="-698.5" font-family="Helvetica,sans-Serif" font-size="10.00">Ponca::QueryInputIsIndex</text>
<text text-anchor="middle" x="954.5" y="-687.5" font-family="Helvetica,sans-Serif" font-size="10.00">&lt; Index &gt;</text>
<polyline fill="none" stroke="#666666" points="884,-680.5 1025,-680.5 "/>
<text text-anchor="middle" x="954.5" y="-668.5" font-family="Helvetica,sans-Serif" font-size="10.00"> </text>
<polyline fill="none" stroke="#666666" points="884,-661.5 1025,-661.5 "/>
<text text-anchor="start" x="892" y="-649.5" font-family="Helvetica,sans-Serif" font-size="10.00">+ QueryInputIsIndex()</text>
<text text-anchor="start" x="892" y="-638.5" font-family="Helvetica,sans-Serif" font-size="10.00"># skipIndexFunctor()</text>
<text text-anchor="start" x="892" y="-627.5" font-family="Helvetica,sans-Serif" font-size="10.00"># getInputPosition()</text>
</a>
</g>
</g>
<!-- Node3&#45;&gt;Node4 -->
<g id="edge3" class="edge">
<title>Node3&#45;&gt;Node4</title>
<path fill="none" stroke="#63b8ff" d="M912.09,-739.7C917.67,-730.07 923.44,-720.11 928.86,-710.76"/>
<polygon fill="none" stroke="#63b8ff" points="909.02,-738.02 907.03,-748.43 915.07,-741.53 909.02,-738.02"/>
</g>
<!-- Node5 -->
<g id="node5" class="node">
<title>Node5</title>
<g id="a_node5"><a xlink:href="group__spatialpartitioning.html" target="_top" xlink:title=" ">
<polygon fill="white" stroke="#bfbfbf" points="869.5,-477 869.5,-567 1039.5,-567 1039.5,-477 869.5,-477"/>
<text text-anchor="start" x="877.5" y="-555" font-family="Helvetica,sans-Serif" font-size="10.00">Ponca::Query&lt; QueryInput</text>
<text text-anchor="start" x="877.5" y="-544" font-family="Helvetica,sans-Serif" font-size="10.00">IsIndex&lt; Index &gt;, QueryOutput</text>
<text text-anchor="middle" x="954.5" y="-533" font-family="Helvetica,sans-Serif" font-size="10.00">IsKNearest&lt; Index, Scalar &gt; &gt;</text>
<polyline fill="none" stroke="#bfbfbf" points="869.5,-526 1039.5,-526 "/>
<text text-anchor="middle" x="954.5" y="-514" font-family="Helvetica,sans-Serif" font-size="10.00"> </text>
<polyline fill="none" stroke="#bfbfbf" points="869.5,-507 1039.5,-507 "/>
<text text-anchor="start" x="877.5" y="-495" font-family="Helvetica,sans-Serif" font-size="10.00">+ Query()</text>
<text text-anchor="start" x="877.5" y="-484" font-family="Helvetica,sans-Serif" font-size="10.00">+ Query()</text>
</a>
</g>
</g>
<!-- Node4&#45;&gt;Node5 -->
<g id="edge4" class="edge">
<title>Node4&#45;&gt;Node5</title>
<path fill="none" stroke="#63b8ff" d="M954.5,-610.01C954.5,-595.85 954.5,-580.78 954.5,-567.23"/>
<polygon fill="none" stroke="#63b8ff" points="951,-610.12 954.5,-620.12 958,-610.12 951,-610.12"/>
</g>
<!-- Node9 -->
<g id="node9" class="node">
<title>Node9</title>
<g id="a_node9"><a xlink:href="group__spatialpartitioning.html" target="_top" xlink:title=" ">
<polygon fill="white" stroke="#bfbfbf" points="1057.5,-477 1057.5,-567 1227.5,-567 1227.5,-477 1057.5,-477"/>
<text text-anchor="start" x="1065.5" y="-555" font-family="Helvetica,sans-Serif" font-size="10.00">Ponca::Query&lt; QueryInput</text>
<text text-anchor="start" x="1065.5" y="-544" font-family="Helvetica,sans-Serif" font-size="10.00">IsIndex&lt; Index &gt;, QueryOutput</text>
<text text-anchor="middle" x="1142.5" y="-533" font-family="Helvetica,sans-Serif" font-size="10.00">IsNearest&lt; Index, Scalar &gt; &gt;</text>
<polyline fill="none" stroke="#bfbfbf" points="1057.5,-526 1227.5,-526 "/>
<text text-anchor="middle" x="1142.5" y="-514" font-family="Helvetica,sans-Serif" font-size="10.00"> </text>
<polyline fill="none" stroke="#bfbfbf" points="1057.5,-507 1227.5,-507 "/>
<text text-anchor="start" x="1065.5" y="-495" font-family="Helvetica,sans-Serif" font-size="10.00">+ Query()</text>
<text text-anchor="start" x="1065.5" y="-484" font-family="Helvetica,sans-Serif" font-size="10.00">+ Query()</text>
</a>
</g>
</g>
<!-- Node4&#45;&gt;Node9 -->
<g id="edge8" class="edge">
<title>Node4&#45;&gt;Node9</title>
<path fill="none" stroke="#63b8ff" d="M1021.25,-614.26C1041.7,-598.87 1064.04,-582.05 1083.91,-567.1"/>
<polygon fill="none" stroke="#63b8ff" points="1019.1,-611.5 1013.21,-620.31 1023.31,-617.09 1019.1,-611.5"/>
</g>
<!-- Node11 -->
<g id="node11" class="node">
<title>Node11</title>
<g id="a_node11"><a xlink:href="group__spatialpartitioning.html" target="_top" xlink:title=" ">
<polygon fill="white" stroke="#bfbfbf" points="1245.5,-477 1245.5,-567 1415.5,-567 1415.5,-477 1245.5,-477"/>
<text text-anchor="start" x="1253.5" y="-555" font-family="Helvetica,sans-Serif" font-size="10.00">Ponca::Query&lt; QueryInput</text>
<text text-anchor="start" x="1253.5" y="-544" font-family="Helvetica,sans-Serif" font-size="10.00">IsIndex&lt; Index &gt;, QueryOutput</text>
<text text-anchor="middle" x="1330.5" y="-533" font-family="Helvetica,sans-Serif" font-size="10.00">IsRange&lt; Index, Scalar &gt; &gt;</text>
<polyline fill="none" stroke="#bfbfbf" points="1245.5,-526 1415.5,-526 "/>
<text text-anchor="middle" x="1330.5" y="-514" font-family="Helvetica,sans-Serif" font-size="10.00"> </text>
<polyline fill="none" stroke="#bfbfbf" points="1245.5,-507 1415.5,-507 "/>
<text text-anchor="start" x="1253.5" y="-495" font-family="Helvetica,sans-Serif" font-size="10.00">+ Query()</text>
<text text-anchor="start" x="1253.5" y="-484" font-family="Helvetica,sans-Serif" font-size="10.00">+ Query()</text>
</a>
</g>
</g>
<!-- Node4&#45;&gt;Node11 -->
<g id="edge10" class="edge">
<title>Node4&#45;&gt;Node11</title>
<path fill="none" stroke="#63b8ff" d="M1034.98,-642.47C1092.15,-625.84 1170.21,-601.13 1236.5,-573 1240.92,-571.12 1245.42,-569.11 1249.93,-567.01"/>
<polygon fill="none" stroke="#63b8ff" points="1033.92,-639.14 1025.28,-645.27 1035.86,-645.86 1033.92,-639.14"/>
</g>
<!-- Node15 -->
<g id="node15" class="node">
<title>Node15</title>
<g id="a_node15"><a xlink:href="group__spatialpartitioning.html" target="_top" xlink:title=" ">
<polygon fill="white" stroke="#666666" points="710,-477 710,-567 851,-567 851,-477 710,-477"/>
<text text-anchor="start" x="718" y="-555" font-family="Helvetica,sans-Serif" font-size="10.00">Ponca::QueryInputIsIndex</text>
<text text-anchor="middle" x="780.5" y="-544" font-family="Helvetica,sans-Serif" font-size="10.00">&lt; Traits::IndexType &gt;</text>
<polyline fill="none" stroke="#666666" points="710,-537 851,-537 "/>
<text text-anchor="middle" x="780.5" y="-525" font-family="Helvetica,sans-Serif" font-size="10.00"> </text>
<polyline fill="none" stroke="#666666" points="710,-518 851,-518 "/>
<text text-anchor="start" x="718" y="-506" font-family="Helvetica,sans-Serif" font-size="10.00">+ QueryInputIsIndex()</text>
<text text-anchor="start" x="718" y="-495" font-family="Helvetica,sans-Serif" font-size="10.00"># skipIndexFunctor()</text>
<text text-anchor="start" x="718" y="-484" font-family="Helvetica,sans-Serif" font-size="10.00"># getInputPosition()</text>
</a>
</g>
</g>
<!-- Node4&#45;&gt;Node15 -->
<g id="edge14" class="edge">
<title>Node4&#45;&gt;Node15</title>
<path fill="none" stroke="orange" d="M875.1,-625.44C863.65,-618.34 852.41,-610.47 842.5,-602 830.7,-591.92 819.62,-579.3 810.17,-567.12"/>
<polygon fill="orange" stroke="orange" points="873.49,-628.56 883.86,-630.71 877.1,-622.56 873.49,-628.56"/>
<text text-anchor="middle" x="896.5" y="-594" font-family="Helvetica,sans-Serif" font-size="10.00"> &lt; Traits::IndexType &gt;</text>
</g>
<!-- Node6 -->
<g id="node6" class="node">
<title>Node6</title>
<g id="a_node6"><a xlink:href="group__spatialpartitioning.html#structPonca_1_1KNearestIndexQuery" target="_top" xlink:title="Base Query class combining QueryInputIsIndex and QueryOutputIsKNearest.">
<polygon fill="white" stroke="#666666" points="892,-343.5 892,-411.5 1045,-411.5 1045,-343.5 892,-343.5"/>
<text text-anchor="start" x="900" y="-399.5" font-family="Helvetica,sans-Serif" font-size="10.00">Ponca::KNearestIndexQuery</text>
<text text-anchor="middle" x="968.5" y="-388.5" font-family="Helvetica,sans-Serif" font-size="10.00">&lt; Index, Scalar &gt;</text>
<polyline fill="none" stroke="#666666" points="892,-381.5 1045,-381.5 "/>
<text text-anchor="middle" x="968.5" y="-369.5" font-family="Helvetica,sans-Serif" font-size="10.00"> </text>
<polyline fill="none" stroke="#666666" points="892,-362.5 1045,-362.5 "/>
<text text-anchor="middle" x="968.5" y="-350.5" font-family="Helvetica,sans-Serif" font-size="10.00"> </text>
</a>
</g>
</g>
<!-- Node5&#45;&gt;Node6 -->
<g id="edge5" class="edge">
<title>Node5&#45;&gt;Node6</title>
<path fill="none" stroke="#63b8ff" d="M959.84,-466.66C961.65,-448.23 963.62,-428.21 965.22,-411.91"/>
<polygon fill="none" stroke="#63b8ff" points="956.35,-466.4 958.85,-476.69 963.31,-467.08 956.35,-466.4"/>
</g>
<!-- Node7 -->
<g id="node7" class="node">
<title>Node7</title>
<g id="a_node7"><a xlink:href="group__spatialpartitioning.html" target="_top" xlink:title=" ">
<polygon fill="white" stroke="#666666" points="892,-172.5 892,-251.5 1045,-251.5 1045,-172.5 892,-172.5"/>
<text text-anchor="start" x="900" y="-239.5" font-family="Helvetica,sans-Serif" font-size="10.00">Ponca::KNearestIndexQuery</text>
<text text-anchor="start" x="900" y="-228.5" font-family="Helvetica,sans-Serif" font-size="10.00">&lt; Traits::IndexType, Traits</text>
<text text-anchor="middle" x="968.5" y="-217.5" font-family="Helvetica,sans-Serif" font-size="10.00">::DataPoint::Scalar &gt;</text>
<polyline fill="none" stroke="#666666" points="892,-210.5 1045,-210.5 "/>
<text text-anchor="middle" x="968.5" y="-198.5" font-family="Helvetica,sans-Serif" font-size="10.00"> </text>
<polyline fill="none" stroke="#666666" points="892,-191.5 1045,-191.5 "/>
<text text-anchor="middle" x="968.5" y="-179.5" font-family="Helvetica,sans-Serif" font-size="10.00"> </text>
</a>
</g>
</g>
<!-- Node6&#45;&gt;Node7 -->
<g id="edge6" class="edge">
<title>Node6&#45;&gt;Node7</title>
<path fill="none" stroke="orange" d="M968.5,-333.35C968.5,-308.03 968.5,-276.31 968.5,-251.79"/>
<polygon fill="orange" stroke="orange" points="965,-333.41 968.5,-343.41 972,-333.41 965,-333.41"/>
<text text-anchor="start" x="968.5" y="-295" font-family="Helvetica,sans-Serif" font-size="10.00"> &lt; Traits::IndexType,</text>
<text text-anchor="start" x="968.5" y="-284" font-family="Helvetica,sans-Serif" font-size="10.00"> Traits::DataPoint::</text>
<text text-anchor="middle" x="1018.5" y="-273" font-family="Helvetica,sans-Serif" font-size="10.00">Scalar &gt;</text>
</g>
<!-- Node8 -->
<g id="node8" class="node">
<title>Node8</title>
<g id="a_node8"><a xlink:href="classPonca_1_1KnnGraphKNearestQuery.html" target="_top" xlink:title=" ">
<polygon fill="white" stroke="#bfbfbf" points="881.5,-22.5 881.5,-112.5 1055.5,-112.5 1055.5,-22.5 881.5,-22.5"/>
<text text-anchor="start" x="889.5" y="-100.5" font-family="Helvetica,sans-Serif" font-size="10.00">Ponca::KnnGraphKNearestQuery</text>
<text text-anchor="middle" x="968.5" y="-89.5" font-family="Helvetica,sans-Serif" font-size="10.00">&lt; Traits &gt;</text>
<polyline fill="none" stroke="#bfbfbf" points="881.5,-82.5 1055.5,-82.5 "/>
<text text-anchor="start" x="889.5" y="-70.5" font-family="Helvetica,sans-Serif" font-size="10.00"># m_graph</text>
<polyline fill="none" stroke="#bfbfbf" points="881.5,-63.5 1055.5,-63.5 "/>
<text text-anchor="start" x="889.5" y="-51.5" font-family="Helvetica,sans-Serif" font-size="10.00">+ KnnGraphKNearestQuery()</text>
<text text-anchor="start" x="889.5" y="-40.5" font-family="Helvetica,sans-Serif" font-size="10.00">+ begin()</text>
<text text-anchor="start" x="889.5" y="-29.5" font-family="Helvetica,sans-Serif" font-size="10.00">+ end()</text>
</a>
</g>
</g>
<!-- Node7&#45;&gt;Node8 -->
<g id="edge7" class="edge">
<title>Node7&#45;&gt;Node8</title>
<path fill="none" stroke="#63b8ff" d="M968.5,-162.16C968.5,-146.09 968.5,-128.33 968.5,-112.64"/>
<polygon fill="none" stroke="#63b8ff" points="965,-162.44 968.5,-172.44 972,-162.44 965,-162.44"/>
</g>
<!-- Node10 -->
<g id="node10" class="node">
<title>Node10</title>
<g id="a_node10"><a xlink:href="group__spatialpartitioning.html#structPonca_1_1NearestIndexQuery" target="_top" xlink:title="Base Query class combining QueryInputIsIndex and QueryOutputIsNearest.">
<polygon fill="white" stroke="#666666" points="1069.5,-343.5 1069.5,-411.5 1215.5,-411.5 1215.5,-343.5 1069.5,-343.5"/>
<text text-anchor="start" x="1077.5" y="-399.5" font-family="Helvetica,sans-Serif" font-size="10.00">Ponca::NearestIndexQuery</text>
<text text-anchor="middle" x="1142.5" y="-388.5" font-family="Helvetica,sans-Serif" font-size="10.00">&lt; Index, Scalar &gt;</text>
<polyline fill="none" stroke="#666666" points="1069.5,-381.5 1215.5,-381.5 "/>
<text text-anchor="middle" x="1142.5" y="-369.5" font-family="Helvetica,sans-Serif" font-size="10.00"> </text>
<polyline fill="none" stroke="#666666" points="1069.5,-362.5 1215.5,-362.5 "/>
<text text-anchor="middle" x="1142.5" y="-350.5" font-family="Helvetica,sans-Serif" font-size="10.00"> </text>
</a>
</g>
</g>
<!-- Node9&#45;&gt;Node10 -->
<g id="edge9" class="edge">
<title>Node9&#45;&gt;Node10</title>
<path fill="none" stroke="#63b8ff" d="M1142.5,-466.66C1142.5,-448.23 1142.5,-428.21 1142.5,-411.91"/>
<polygon fill="none" stroke="#63b8ff" points="1139,-466.69 1142.5,-476.69 1146,-466.69 1139,-466.69"/>
</g>
<!-- Node12 -->
<g id="node12" class="node">
<title>Node12</title>
<g id="a_node12"><a xlink:href="group__spatialpartitioning.html#structPonca_1_1RangeIndexQuery" target="_top" xlink:title="Base Query class combining QueryInputIsIndex and QueryOutputIsRange.">
<polygon fill="white" stroke="#666666" points="1261,-343.5 1261,-411.5 1400,-411.5 1400,-343.5 1261,-343.5"/>
<text text-anchor="start" x="1269" y="-399.5" font-family="Helvetica,sans-Serif" font-size="10.00">Ponca::RangeIndexQuery</text>
<text text-anchor="middle" x="1330.5" y="-388.5" font-family="Helvetica,sans-Serif" font-size="10.00">&lt; Index, Scalar &gt;</text>
<polyline fill="none" stroke="#666666" points="1261,-381.5 1400,-381.5 "/>
<text text-anchor="middle" x="1330.5" y="-369.5" font-family="Helvetica,sans-Serif" font-size="10.00"> </text>
<polyline fill="none" stroke="#666666" points="1261,-362.5 1400,-362.5 "/>
<text text-anchor="middle" x="1330.5" y="-350.5" font-family="Helvetica,sans-Serif" font-size="10.00"> </text>
</a>
</g>
</g>
<!-- Node11&#45;&gt;Node12 -->
<g id="edge11" class="edge">
<title>Node11&#45;&gt;Node12</title>
<path fill="none" stroke="#63b8ff" d="M1330.5,-466.66C1330.5,-448.23 1330.5,-428.21 1330.5,-411.91"/>
<polygon fill="none" stroke="#63b8ff" points="1327,-466.69 1330.5,-476.69 1334,-466.69 1327,-466.69"/>
</g>
<!-- Node13 -->
<g id="node13" class="node">
<title>Node13</title>
<g id="a_node13"><a xlink:href="group__spatialpartitioning.html" target="_top" xlink:title=" ">
<polygon fill="white" stroke="#666666" points="1259.5,-172.5 1259.5,-251.5 1401.5,-251.5 1401.5,-172.5 1259.5,-172.5"/>
<text text-anchor="start" x="1267.5" y="-239.5" font-family="Helvetica,sans-Serif" font-size="10.00">Ponca::RangeIndexQuery</text>
<text text-anchor="start" x="1267.5" y="-228.5" font-family="Helvetica,sans-Serif" font-size="10.00">&lt; Traits::IndexType, Traits</text>
<text text-anchor="middle" x="1330.5" y="-217.5" font-family="Helvetica,sans-Serif" font-size="10.00">::DataPoint::Scalar &gt;</text>
<polyline fill="none" stroke="#666666" points="1259.5,-210.5 1401.5,-210.5 "/>
<text text-anchor="middle" x="1330.5" y="-198.5" font-family="Helvetica,sans-Serif" font-size="10.00"> </text>
<polyline fill="none" stroke="#666666" points="1259.5,-191.5 1401.5,-191.5 "/>
<text text-anchor="middle" x="1330.5" y="-179.5" font-family="Helvetica,sans-Serif" font-size="10.00"> </text>
</a>
</g>
</g>
<!-- Node12&#45;&gt;Node13 -->
<g id="edge12" class="edge">
<title>Node12&#45;&gt;Node13</title>
<path fill="none" stroke="orange" d="M1330.5,-333.35C1330.5,-308.03 1330.5,-276.31 1330.5,-251.79"/>
<polygon fill="orange" stroke="orange" points="1327,-333.41 1330.5,-343.41 1334,-333.41 1327,-333.41"/>
<text text-anchor="start" x="1330.5" y="-295" font-family="Helvetica,sans-Serif" font-size="10.00"> &lt; Traits::IndexType,</text>
<text text-anchor="start" x="1330.5" y="-284" font-family="Helvetica,sans-Serif" font-size="10.00"> Traits::DataPoint::</text>
<text text-anchor="middle" x="1380.5" y="-273" font-family="Helvetica,sans-Serif" font-size="10.00">Scalar &gt;</text>
</g>
<!-- Node14 -->
<g id="node14" class="node">
<title>Node14</title>
<g id="a_node14"><a xlink:href="classPonca_1_1KnnGraphRangeQuery.html" target="_top" xlink:title=" ">
<polygon fill="white" stroke="#bfbfbf" points="1250.5,-0.5 1250.5,-134.5 1410.5,-134.5 1410.5,-0.5 1250.5,-0.5"/>
<text text-anchor="start" x="1258.5" y="-122.5" font-family="Helvetica,sans-Serif" font-size="10.00">Ponca::KnnGraphRangeQuery</text>
<text text-anchor="middle" x="1330.5" y="-111.5" font-family="Helvetica,sans-Serif" font-size="10.00">&lt; Traits &gt;</text>
<polyline fill="none" stroke="#bfbfbf" points="1250.5,-104.5 1410.5,-104.5 "/>
<text text-anchor="start" x="1258.5" y="-92.5" font-family="Helvetica,sans-Serif" font-size="10.00"># m_graph</text>
<text text-anchor="start" x="1258.5" y="-81.5" font-family="Helvetica,sans-Serif" font-size="10.00"># m_flag</text>
<text text-anchor="start" x="1258.5" y="-70.5" font-family="Helvetica,sans-Serif" font-size="10.00"># m_stack</text>
<polyline fill="none" stroke="#bfbfbf" points="1250.5,-63.5 1410.5,-63.5 "/>
<text text-anchor="start" x="1258.5" y="-51.5" font-family="Helvetica,sans-Serif" font-size="10.00">+ KnnGraphRangeQuery()</text>
<text text-anchor="start" x="1258.5" y="-40.5" font-family="Helvetica,sans-Serif" font-size="10.00">+ begin()</text>
<text text-anchor="start" x="1258.5" y="-29.5" font-family="Helvetica,sans-Serif" font-size="10.00">+ end()</text>
<text text-anchor="start" x="1258.5" y="-18.5" font-family="Helvetica,sans-Serif" font-size="10.00"># initialize()</text>
<text text-anchor="start" x="1258.5" y="-7.5" font-family="Helvetica,sans-Serif" font-size="10.00"># advance()</text>
</a>
</g>
</g>
<!-- Node13&#45;&gt;Node14 -->
<g id="edge13" class="edge">
<title>Node13&#45;&gt;Node14</title>
<path fill="none" stroke="#63b8ff" d="M1330.5,-162.24C1330.5,-153.32 1330.5,-143.88 1330.5,-134.55"/>
<polygon fill="none" stroke="#63b8ff" points="1327,-162.44 1330.5,-172.44 1334,-162.44 1327,-162.44"/>
</g>
<!-- Node16 -->
<g id="node16" class="node">
<title>Node16</title>
<g id="a_node16"><a xlink:href="group__spatialpartitioning.html" target="_top" xlink:title=" ">
<polygon fill="white" stroke="#bfbfbf" points="534,-321.5 534,-433.5 683,-433.5 683,-321.5 534,-321.5"/>
<text text-anchor="start" x="542" y="-421.5" font-family="Helvetica,sans-Serif" font-size="10.00">Ponca::Query&lt; QueryInput</text>
<text text-anchor="start" x="542" y="-410.5" font-family="Helvetica,sans-Serif" font-size="10.00">IsIndex&lt; Traits::IndexType</text>
<text text-anchor="start" x="542" y="-399.5" font-family="Helvetica,sans-Serif" font-size="10.00"> &gt;, QueryOutputIsKNearest</text>
<text text-anchor="start" x="542" y="-388.5" font-family="Helvetica,sans-Serif" font-size="10.00">&lt; Traits::IndexType, Traits</text>
<text text-anchor="middle" x="608.5" y="-377.5" font-family="Helvetica,sans-Serif" font-size="10.00">::DataPoint::Scalar &gt; &gt;</text>
<polyline fill="none" stroke="#bfbfbf" points="534,-370.5 683,-370.5 "/>
<text text-anchor="middle" x="608.5" y="-358.5" font-family="Helvetica,sans-Serif" font-size="10.00"> </text>
<polyline fill="none" stroke="#bfbfbf" points="534,-351.5 683,-351.5 "/>
<text text-anchor="start" x="542" y="-339.5" font-family="Helvetica,sans-Serif" font-size="10.00">+ Query()</text>
<text text-anchor="start" x="542" y="-328.5" font-family="Helvetica,sans-Serif" font-size="10.00">+ Query()</text>
</a>
</g>
</g>
<!-- Node15&#45;&gt;Node16 -->
<g id="edge15" class="edge">
<title>Node15&#45;&gt;Node16</title>
<path fill="none" stroke="#63b8ff" d="M719.18,-470.19C704.85,-458.32 689.53,-445.63 674.99,-433.58"/>
<polygon fill="none" stroke="#63b8ff" points="717.09,-473.01 727.02,-476.69 721.55,-467.62 717.09,-473.01"/>
</g>
<!-- Node17 -->
<g id="node17" class="node">
<title>Node17</title>
<g id="a_node17"><a xlink:href="group__spatialpartitioning.html" target="_top" xlink:title=" ">
<polygon fill="white" stroke="#bfbfbf" points="701,-321.5 701,-433.5 874,-433.5 874,-321.5 701,-321.5"/>
<text text-anchor="start" x="709" y="-421.5" font-family="Helvetica,sans-Serif" font-size="10.00">Ponca::Query&lt; QueryInput</text>
<text text-anchor="start" x="709" y="-410.5" font-family="Helvetica,sans-Serif" font-size="10.00">IsIndex&lt; Traits::IndexType</text>
<text text-anchor="start" x="709" y="-399.5" font-family="Helvetica,sans-Serif" font-size="10.00"> &gt;, QueryOutputIsRange&lt; Traits</text>
<text text-anchor="start" x="709" y="-388.5" font-family="Helvetica,sans-Serif" font-size="10.00">::IndexType, Traits::DataPoint</text>
<text text-anchor="middle" x="787.5" y="-377.5" font-family="Helvetica,sans-Serif" font-size="10.00">::Scalar &gt; &gt;</text>
<polyline fill="none" stroke="#bfbfbf" points="701,-370.5 874,-370.5 "/>
<text text-anchor="middle" x="787.5" y="-358.5" font-family="Helvetica,sans-Serif" font-size="10.00"> </text>
<polyline fill="none" stroke="#bfbfbf" points="701,-351.5 874,-351.5 "/>
<text text-anchor="start" x="709" y="-339.5" font-family="Helvetica,sans-Serif" font-size="10.00">+ Query()</text>
<text text-anchor="start" x="709" y="-328.5" font-family="Helvetica,sans-Serif" font-size="10.00">+ Query()</text>
</a>
</g>
</g>
<!-- Node15&#45;&gt;Node17 -->
<g id="edge16" class="edge">
<title>Node15&#45;&gt;Node17</title>
<path fill="none" stroke="#63b8ff" d="M783.18,-466.54C783.71,-455.75 784.26,-444.4 784.79,-433.58"/>
<polygon fill="none" stroke="#63b8ff" points="779.67,-466.53 782.68,-476.69 786.66,-466.88 779.67,-466.53"/>
</g>
<!-- Node19 -->
<g id="node19" class="node">
<title>Node19</title>
<g id="a_node19"><a xlink:href="group__spatialpartitioning.html#structPonca_1_1QueryInputIsPosition" target="_top" xlink:title="Base class for queries storing points.">
<polygon fill="white" stroke="#666666" points="245,-620.5 245,-710.5 398,-710.5 398,-620.5 245,-620.5"/>
<text text-anchor="start" x="253" y="-698.5" font-family="Helvetica,sans-Serif" font-size="10.00">Ponca::QueryInputIsPosition</text>
<text text-anchor="middle" x="321.5" y="-687.5" font-family="Helvetica,sans-Serif" font-size="10.00">&lt; DataPoint &gt;</text>
<polyline fill="none" stroke="#666666" points="245,-680.5 398,-680.5 "/>
<text text-anchor="middle" x="321.5" y="-668.5" font-family="Helvetica,sans-Serif" font-size="10.00"> </text>
<polyline fill="none" stroke="#666666" points="245,-661.5 398,-661.5 "/>
<text text-anchor="start" x="253" y="-649.5" font-family="Helvetica,sans-Serif" font-size="10.00">+ QueryInputIsPosition()</text>
<text text-anchor="start" x="253" y="-638.5" font-family="Helvetica,sans-Serif" font-size="10.00"># skipIndexFunctor()</text>
<text text-anchor="start" x="253" y="-627.5" font-family="Helvetica,sans-Serif" font-size="10.00"># getInputPosition()</text>
</a>
</g>
</g>
<!-- Node18&#45;&gt;Node19 -->
<g id="edge18" class="edge">
<title>Node18&#45;&gt;Node19</title>
<path fill="none" stroke="#63b8ff" d="M496.39,-748.03C459.53,-729.12 426.9,-713.7 398.4,-700.65"/>
<polygon fill="none" stroke="#63b8ff" points="494.85,-751.17 505.34,-752.65 498.06,-744.95 494.85,-751.17"/>
</g>
<!-- Node20 -->
<g id="node20" class="node">
<title>Node20</title>
<g id="a_node20"><a xlink:href="group__spatialpartitioning.html" target="_top" xlink:title=" ">
<polygon fill="white" stroke="#bfbfbf" points="185,-471.5 185,-572.5 352,-572.5 352,-471.5 185,-471.5"/>
<text text-anchor="start" x="193" y="-560.5" font-family="Helvetica,sans-Serif" font-size="10.00">Ponca::Query&lt; QueryInput</text>
<text text-anchor="start" x="193" y="-549.5" font-family="Helvetica,sans-Serif" font-size="10.00">IsPosition&lt; DataPoint</text>
<text text-anchor="start" x="193" y="-538.5" font-family="Helvetica,sans-Serif" font-size="10.00"> &gt;, QueryOutputIsKNearest</text>
<text text-anchor="middle" x="268.5" y="-527.5" font-family="Helvetica,sans-Serif" font-size="10.00">&lt; Index, DataPoint::Scalar &gt; &gt;</text>
<polyline fill="none" stroke="#bfbfbf" points="185,-520.5 352,-520.5 "/>
<text text-anchor="middle" x="268.5" y="-508.5" font-family="Helvetica,sans-Serif" font-size="10.00"> </text>
<polyline fill="none" stroke="#bfbfbf" points="185,-501.5 352,-501.5 "/>
<text text-anchor="start" x="193" y="-489.5" font-family="Helvetica,sans-Serif" font-size="10.00">+ Query()</text>
<text text-anchor="start" x="193" y="-478.5" font-family="Helvetica,sans-Serif" font-size="10.00">+ Query()</text>
</a>
</g>
</g>
<!-- Node19&#45;&gt;Node20 -->
<g id="edge19" class="edge">
<title>Node19&#45;&gt;Node20</title>
<path fill="none" stroke="#63b8ff" d="M301.36,-610.73C296.67,-598.22 291.71,-584.96 287.09,-572.64"/>
<polygon fill="none" stroke="#63b8ff" points="298.09,-611.98 304.88,-620.12 304.65,-609.52 298.09,-611.98"/>
</g>
<!-- Node22 -->
<g id="node22" class="node">
<title>Node22</title>
<g id="a_node22"><a xlink:href="group__spatialpartitioning.html" target="_top" xlink:title=" ">
<polygon fill="white" stroke="#bfbfbf" points="370,-471.5 370,-572.5 537,-572.5 537,-471.5 370,-471.5"/>
<text text-anchor="start" x="378" y="-560.5" font-family="Helvetica,sans-Serif" font-size="10.00">Ponca::Query&lt; QueryInput</text>
<text text-anchor="start" x="378" y="-549.5" font-family="Helvetica,sans-Serif" font-size="10.00">IsPosition&lt; DataPoint</text>
<text text-anchor="start" x="378" y="-538.5" font-family="Helvetica,sans-Serif" font-size="10.00"> &gt;, QueryOutputIsNearest</text>
<text text-anchor="middle" x="453.5" y="-527.5" font-family="Helvetica,sans-Serif" font-size="10.00">&lt; Index, DataPoint::Scalar &gt; &gt;</text>
<polyline fill="none" stroke="#bfbfbf" points="370,-520.5 537,-520.5 "/>
<text text-anchor="middle" x="453.5" y="-508.5" font-family="Helvetica,sans-Serif" font-size="10.00"> </text>
<polyline fill="none" stroke="#bfbfbf" points="370,-501.5 537,-501.5 "/>
<text text-anchor="start" x="378" y="-489.5" font-family="Helvetica,sans-Serif" font-size="10.00">+ Query()</text>
<text text-anchor="start" x="378" y="-478.5" font-family="Helvetica,sans-Serif" font-size="10.00">+ Query()</text>
</a>
</g>
</g>
<!-- Node19&#45;&gt;Node22 -->
<g id="edge21" class="edge">
<title>Node19&#45;&gt;Node22</title>
<path fill="none" stroke="#63b8ff" d="M369.95,-612.56C382.11,-599.52 395.13,-585.57 407.19,-572.64"/>
<polygon fill="none" stroke="#63b8ff" points="367.17,-610.42 362.9,-620.12 372.28,-615.19 367.17,-610.42"/>
</g>
<!-- Node24 -->
<g id="node24" class="node">
<title>Node24</title>
<g id="a_node24"><a xlink:href="group__spatialpartitioning.html" target="_top" xlink:title=" ">
<polygon fill="white" stroke="#bfbfbf" points="0,-471.5 0,-572.5 167,-572.5 167,-471.5 0,-471.5"/>
<text text-anchor="start" x="8" y="-560.5" font-family="Helvetica,sans-Serif" font-size="10.00">Ponca::Query&lt; QueryInput</text>
<text text-anchor="start" x="8" y="-549.5" font-family="Helvetica,sans-Serif" font-size="10.00">IsPosition&lt; DataPoint</text>
<text text-anchor="start" x="8" y="-538.5" font-family="Helvetica,sans-Serif" font-size="10.00"> &gt;, QueryOutputIsRange</text>
<text text-anchor="middle" x="83.5" y="-527.5" font-family="Helvetica,sans-Serif" font-size="10.00">&lt; Index, DataPoint::Scalar &gt; &gt;</text>
<polyline fill="none" stroke="#bfbfbf" points="0,-520.5 167,-520.5 "/>
<text text-anchor="middle" x="83.5" y="-508.5" font-family="Helvetica,sans-Serif" font-size="10.00"> </text>
<polyline fill="none" stroke="#bfbfbf" points="0,-501.5 167,-501.5 "/>
<text text-anchor="start" x="8" y="-489.5" font-family="Helvetica,sans-Serif" font-size="10.00">+ Query()</text>
<text text-anchor="start" x="8" y="-478.5" font-family="Helvetica,sans-Serif" font-size="10.00">+ Query()</text>
</a>
</g>
</g>
<!-- Node19&#45;&gt;Node24 -->
<g id="edge23" class="edge">
<title>Node19&#45;&gt;Node24</title>
<path fill="none" stroke="#63b8ff" d="M238.39,-615.09C215.2,-601.3 190,-586.32 166.79,-572.52"/>
<polygon fill="none" stroke="#63b8ff" points="236.79,-618.21 247.17,-620.31 240.37,-612.19 236.79,-618.21"/>
</g>
<!-- Node21 -->
<g id="node21" class="node">
<title>Node21</title>
<g id="a_node21"><a xlink:href="group__spatialpartitioning.html#structPonca_1_1KNearestPointQuery" target="_top" xlink:title="Base Query class combining QueryInputIsPosition and QueryOutputIsKNearest.">
<polygon fill="white" stroke="#666666" points="193,-343.5 193,-411.5 344,-411.5 344,-343.5 193,-343.5"/>
<text text-anchor="start" x="201" y="-399.5" font-family="Helvetica,sans-Serif" font-size="10.00">Ponca::KNearestPointQuery</text>
<text text-anchor="middle" x="268.5" y="-388.5" font-family="Helvetica,sans-Serif" font-size="10.00">&lt; Index, DataPoint &gt;</text>
<polyline fill="none" stroke="#666666" points="193,-381.5 344,-381.5 "/>
<text text-anchor="middle" x="268.5" y="-369.5" font-family="Helvetica,sans-Serif" font-size="10.00"> </text>
<polyline fill="none" stroke="#666666" points="193,-362.5 344,-362.5 "/>
<text text-anchor="middle" x="268.5" y="-350.5" font-family="Helvetica,sans-Serif" font-size="10.00"> </text>
</a>
</g>
</g>
<!-- Node20&#45;&gt;Node21 -->
<g id="edge20" class="edge">
<title>Node20&#45;&gt;Node21</title>
<path fill="none" stroke="#63b8ff" d="M268.5,-460.8C268.5,-443.93 268.5,-426.21 268.5,-411.56"/>
<polygon fill="none" stroke="#63b8ff" points="265,-461.16 268.5,-471.16 272,-461.16 265,-461.16"/>
</g>
<!-- Node23 -->
<g id="node23" class="node">
<title>Node23</title>
<g id="a_node23"><a xlink:href="group__spatialpartitioning.html#structPonca_1_1NearestPointQuery" target="_top" xlink:title="Base Query class combining QueryInputIsPosition and QueryOutputIsNearest.">
<polygon fill="white" stroke="#666666" points="371.5,-343.5 371.5,-411.5 515.5,-411.5 515.5,-343.5 371.5,-343.5"/>
<text text-anchor="start" x="379.5" y="-399.5" font-family="Helvetica,sans-Serif" font-size="10.00">Ponca::NearestPointQuery</text>
<text text-anchor="middle" x="443.5" y="-388.5" font-family="Helvetica,sans-Serif" font-size="10.00">&lt; Index, DataPoint &gt;</text>
<polyline fill="none" stroke="#666666" points="371.5,-381.5 515.5,-381.5 "/>
<text text-anchor="middle" x="443.5" y="-369.5" font-family="Helvetica,sans-Serif" font-size="10.00"> </text>
<polyline fill="none" stroke="#666666" points="371.5,-362.5 515.5,-362.5 "/>
<text text-anchor="middle" x="443.5" y="-350.5" font-family="Helvetica,sans-Serif" font-size="10.00"> </text>
</a>
</g>
</g>
<!-- Node22&#45;&gt;Node23 -->
<g id="edge22" class="edge">
<title>Node22&#45;&gt;Node23</title>
<path fill="none" stroke="#63b8ff" d="M449.28,-460.8C448.09,-443.93 446.85,-426.21 445.82,-411.56"/>
<polygon fill="none" stroke="#63b8ff" points="445.81,-461.43 450,-471.16 452.79,-460.94 445.81,-461.43"/>
</g>
<!-- Node25 -->
<g id="node25" class="node">
<title>Node25</title>
<g id="a_node25"><a xlink:href="group__spatialpartitioning.html#structPonca_1_1RangePointQuery" target="_top" xlink:title="Base Query class combining QueryInputIsPosition and QueryOutputIsRange.">
<polygon fill="white" stroke="#666666" points="15,-343.5 15,-411.5 152,-411.5 152,-343.5 15,-343.5"/>
<text text-anchor="start" x="23" y="-399.5" font-family="Helvetica,sans-Serif" font-size="10.00">Ponca::RangePointQuery</text>
<text text-anchor="middle" x="83.5" y="-388.5" font-family="Helvetica,sans-Serif" font-size="10.00">&lt; Index, DataPoint &gt;</text>
<polyline fill="none" stroke="#666666" points="15,-381.5 152,-381.5 "/>
<text text-anchor="middle" x="83.5" y="-369.5" font-family="Helvetica,sans-Serif" font-size="10.00"> </text>
<polyline fill="none" stroke="#666666" points="15,-362.5 152,-362.5 "/>
<text text-anchor="middle" x="83.5" y="-350.5" font-family="Helvetica,sans-Serif" font-size="10.00"> </text>
</a>
</g>
</g>
<!-- Node24&#45;&gt;Node25 -->
<g id="edge24" class="edge">
<title>Node24&#45;&gt;Node25</title>
<path fill="none" stroke="#63b8ff" d="M83.5,-460.8C83.5,-443.93 83.5,-426.21 83.5,-411.56"/>
<polygon fill="none" stroke="#63b8ff" points="80,-461.16 83.5,-471.16 87,-461.16 80,-461.16"/>
</g>
<!-- Node26&#45;&gt;Node2 -->
<g id="edge27" class="edge">
<title>Node26&#45;&gt;Node2</title>
<path fill="none" stroke="orange" d="M566.2,-905.68C543.66,-895.69 519,-882.96 498.5,-868 486.98,-859.6 475.87,-849.04 466.08,-838.56"/>
<polygon fill="orange" stroke="orange" points="564.81,-908.89 575.38,-909.65 567.59,-902.46 564.81,-908.89"/>
<text text-anchor="middle" x="552.5" y="-860" font-family="Helvetica,sans-Serif" font-size="10.00"> &lt; Traits::IndexType &gt;</text>
</g>
<!-- Node26&#45;&gt;Node3 -->
<g id="edge28" class="edge">
<title>Node26&#45;&gt;Node3</title>
<path fill="none" stroke="orange" d="M699.38,-909.44C728.63,-898.92 762.75,-884.83 791.5,-868 805.78,-859.64 820.14,-849.1 833.07,-838.62"/>
<polygon fill="orange" stroke="orange" points="697.93,-906.24 689.66,-912.87 700.26,-912.84 697.93,-906.24"/>
<text text-anchor="middle" x="834" y="-860" font-family="Helvetica,sans-Serif" font-size="10.00"> &lt; Index &gt;</text>
</g>
<!-- Node26&#45;&gt;Node15 -->
<g id="edge26" class="edge">
<title>Node26&#45;&gt;Node15</title>
<path fill="none" stroke="#63b8ff" d="M698.96,-898.63C723.79,-886.1 746.91,-873.42 750.5,-868 811.77,-775.53 800.31,-637.15 789.13,-567.07"/>
<polygon fill="none" stroke="#63b8ff" points="697.14,-895.62 689.76,-903.23 700.27,-901.89 697.14,-895.62"/>
</g>
<!-- Node26&#45;&gt;Node18 -->
<g id="edge29" class="edge">
<title>Node26&#45;&gt;Node18</title>
<path fill="none" stroke="orange" d="M617.95,-876.62C615.68,-869.93 613.19,-863.25 610.5,-857 607.87,-850.9 604.79,-844.65 601.56,-838.57"/>
<polygon fill="orange" stroke="orange" points="614.7,-877.94 621.11,-886.38 621.36,-875.78 614.7,-877.94"/>
<text text-anchor="middle" x="680" y="-860" font-family="Helvetica,sans-Serif" font-size="10.00"> &lt; DataPoint::VectorType &gt;</text>
</g>
</g>
</svg>
        <g id="navigator" transform="translate(0 0)" fill="#404254">
                <rect fill="#f2f5e9" fill-opacity="0.5" stroke="#606060" stroke-width=".5" x="0" y="0" width="60" height="60"/>
                <use id="zoomplus" xlink:href="#zoomPlus" x="17" y="9" onmousedown="handleZoom(evt,'in')"/>
                <use id="zoomminus" xlink:href="#zoomMin" x="42" y="9" onmousedown="handleZoom(evt,'out')"/>
                <use id="reset" xlink:href="#resetDef" x="30" y="36" onmousedown="handleReset()"/>
                <g id="arrowUp" xlink:href="#dirArrow" transform="translate(30 24)" onmousedown="handlePan(0,-1)">
                  <use xlink:href="#rim" fill="#404040">
                        <set attributeName="fill" to="#808080" begin="arrowUp.mouseover" end="arrowUp.mouseout"/>
                  </use>
                  <path fill="none" stroke="white" stroke-width="1.5" d="M0,-3.0v7 M-2.5,-0.5L0,-3.0L2.5,-0.5"/>
                </g>
                <g id="arrowRight" xlink:href="#dirArrow" transform="rotate(90) translate(36 -43)" onmousedown="handlePan(1,0)">
                  <use xlink:href="#rim" fill="#404040">
                        <set attributeName="fill" to="#808080" begin="arrowRight.mouseover" end="arrowRight.mouseout"/>
                  </use>
                  <path fill="none" stroke="white" stroke-width="1.5" d="M0,-3.0v7 M-2.5,-0.5L0,-3.0L2.5,-0.5"/>
                </g>
                <g id="arrowDown" xlink:href="#dirArrow" transform="rotate(180) translate(-30 -48)" onmousedown="handlePan(0,1)">
                  <use xlink:href="#rim" fill="#404040">
                        <set attributeName="fill" to="#808080" begin="arrowDown.mouseover" end="arrowDown.mouseout"/>
                  </use>
                  <path fill="none" stroke="white" stroke-width="1.5" d="M0,-3.0v7 M-2.5,-0.5L0,-3.0L2.5,-0.5"/>
                </g>
                <g id="arrowLeft" xlink:href="#dirArrow" transform="rotate(270) translate(-36 17)" onmousedown="handlePan(-1,0)">
                  <use xlink:href="#rim" fill="#404040">
                        <set attributeName="fill" to="#808080" begin="arrowLeft.mouseover" end="arrowLeft.mouseout"/>
                  </use>
                  <path fill="none" stroke="white" stroke-width="1.5" d="M0,-3.0v7 M-2.5,-0.5L0,-3.0L2.5,-0.5"/>
                </g>
        </g>
        <svg viewBox="0 0 15 15" width="100%" height="30px" preserveAspectRatio="xMaxYMin meet">
         <g id="arrow_out" transform="scale(0.3 0.3)">
          <a xlink:href="structPonca_1_1QueryInputBase__inherit__graph_org.svg" target="_base">
           <rect id="button" ry="5" rx="5" y="6" x="6" height="38" width="38"
                fill="#f2f5e9" fill-opacity="0.5" stroke="#606060" stroke-width="1.0"/>
           <path id="arrow"
             d="M 11.500037,31.436501 C 11.940474,20.09759 22.043105,11.32322 32.158766,21.979434 L 37.068811,17.246167 C 37.068811,17.246167 37.088388,32 37.088388,32 L 22.160133,31.978069 C 22.160133,31.978069 26.997745,27.140456 26.997745,27.140456 C 18.528582,18.264221 13.291696,25.230495 11.500037,31.436501 z"
             style="fill:#404040;"/>
          </a>
         </g>
        </svg>
</svg>
