<?xml version="1.0" encoding="UTF-8" standalone="no"?>
<!DOCTYPE svg PUBLIC "-//W3C//DTD SVG 1.1//EN"
 "http://www.w3.org/Graphics/SVG/1.1/DTD/svg11.dtd">
<!-- Generated by graphviz version 2.43.0 (0)
 -->
<!-- Title: Ponca::QueryOutputIsKNearest&lt; Index, Scalar, MAX_KNN_SIZE &gt; Pages: 1 -->
<svg width="187pt" height="213pt"
 viewBox="0.00 0.00 187.00 213.00" xmlns="http://www.w3.org/2000/svg" xmlns:xlink="http://www.w3.org/1999/xlink">
<g id="graph0" class="graph" transform="scale(1 1) rotate(0) translate(4 209)">
<title>Ponca::QueryOutputIsKNearest&lt; Index, Scalar, MAX_KNN_SIZE &gt;</title>
<!-- Node1 -->
<g id="Node000001" class="node">
<title>Node1</title>
<g id="a_Node000001"><a xlink:title="Class to construct the knearest queries.">
<polygon fill="#999999" stroke="transparent" points="179,-120 0,-120 0,0 179,0 179,-120"/>
<text text-anchor="start" x="5.5" y="-108" font-family="Helvetica,sans-Serif" font-size="10.00">Ponca::QueryOutputIsKNearest</text>
<text text-anchor="start" x="5.5" y="-97" font-family="Helvetica,sans-Serif" font-size="10.00">&lt; Index, Scalar, MAX_KNN_SIZE &gt;</text>
<text text-anchor="start" x="9.5" y="-82" font-family="Helvetica,sans-Serif" font-size="10.00">#</text>
<text text-anchor="start" x="27.5" y="-82" font-family="Helvetica,sans-Serif" font-size="10.00">m_queue</text>
<text text-anchor="start" x="9.5" y="-67" font-family="Helvetica,sans-Serif" font-size="10.00">+</text>
<text text-anchor="start" x="27.5" y="-67" font-family="Helvetica,sans-Serif" font-size="10.00">QueryOutputIsKNearest()</text>
<text text-anchor="start" x="9.5" y="-52" font-family="Helvetica,sans-Serif" font-size="10.00">+</text>
<text text-anchor="start" x="27.5" y="-52" font-family="Helvetica,sans-Serif" font-size="10.00">operator()()</text>
<text text-anchor="start" x="9.5" y="-37" font-family="Helvetica,sans-Serif" font-size="10.00">+</text>
<text text-anchor="start" x="27.5" y="-37" font-family="Helvetica,sans-Serif" font-size="10.00">queue()</text>
<text text-anchor="start" x="9.5" y="-22" font-family="Helvetica,sans-Serif" font-size="10.00">#</text>
<text text-anchor="start" x="27.5" y="-22" font-family="Helvetica,sans-Serif" font-size="10.00">reset()</text>
<text text-anchor="start" x="9.5" y="-7" font-family="Helvetica,sans-Serif" font-size="10.00">#</text>
<text text-anchor="start" x="27.5" y="-7" font-family="Helvetica,sans-Serif" font-size="10.00">descentDistanceThreshold()</text>
<polygon fill="#666666" stroke="#666666" points="0.5,-92 0.5,-92 179.5,-92 179.5,-92 0.5,-92"/>
<polygon fill="#666666" stroke="#666666" points="0.5,-77 0.5,-77 25.5,-77 25.5,-77 0.5,-77"/>
<polygon fill="#666666" stroke="#666666" points="25.5,-77 25.5,-77 179.5,-77 179.5,-77 25.5,-77"/>
<polygon fill="none" stroke="#666666" points="0,0 0,-120 179,-120 179,0 0,0"/>
</a>
</g>
</g>
<!-- Node2 -->
<g id="Node000002" class="node">
<title>Node2</title>
<g id="a_Node000002"><a xlink:href="group__spatialpartitioning.html#structPonca_1_1QueryOutputBase" target="_top" xlink:title="Base class for queries output types.">
<polygon fill="white" stroke="transparent" points="155.5,-205 23.5,-205 23.5,-156 155.5,-156 155.5,-205"/>
<text text-anchor="start" x="28.5" y="-192.5" font-family="Helvetica,sans-Serif" font-size="10.00">Ponca::QueryOutputBase</text>
<text text-anchor="start" x="87.5" y="-177.5" font-family="Helvetica,sans-Serif" font-size="10.00"> </text>
<text text-anchor="start" x="87.5" y="-162.5" font-family="Helvetica,sans-Serif" font-size="10.00"> </text>
<polygon fill="#666666" stroke="#666666" points="23.5,-187.5 23.5,-187.5 155.5,-187.5 155.5,-187.5 23.5,-187.5"/>
<polygon fill="#666666" stroke="#666666" points="23.5,-172.5 23.5,-172.5 155.5,-172.5 155.5,-172.5 23.5,-172.5"/>
<polygon fill="none" stroke="#666666" points="23.5,-156 23.5,-205 155.5,-205 155.5,-156 23.5,-156"/>
</a>
</g>
</g>
<!-- Node2&#45;&gt;Node1 -->
<g id="edge1_Node000001_Node000002" class="edge">
<title>Node2&#45;&gt;Node1</title>
<g id="a_edge1_Node000001_Node000002"><a xlink:title=" ">
<path fill="none" stroke="#63b8ff" d="M89.5,-145.59C89.5,-137.71 89.5,-129.09 89.5,-120.47"/>
<polygon fill="none" stroke="#63b8ff" points="86,-145.8 89.5,-155.8 93,-145.8 86,-145.8"/>
</a>
</g>
</g>
</g>
</svg>
