<?xml version="1.0" encoding="UTF-8" standalone="no"?>
<!DOCTYPE svg PUBLIC "-//W3C//DTD SVG 1.1//EN"
 "http://www.w3.org/Graphics/SVG/1.1/DTD/svg11.dtd">
<!-- Generated by graphviz version 2.43.0 (0)
 -->
<!-- Title: Ponca::RangePointQuery&lt; DataPoint &gt; Pages: 1 -->
<!--zoomable 711 -->
<svg id="main" version="1.1" xmlns="http://www.w3.org/2000/svg" xmlns:xlink="http://www.w3.org/1999/xlink" xml:space="preserve" onload="init(evt)">
<style type="text/css"><![CDATA[
.edge:hover path { stroke: red; }
.edge:hover polygon { stroke: red; fill: red; }
]]></style>
<script type="text/javascript"><![CDATA[
var edges = document.getElementsByTagName('g');
if (edges && edges.length) {
  for (var i=0;i<edges.length;i++) {
    if (edges[i].id.substr(0,4)=='edge') {
      edges[i].setAttribute('class','edge');
    }
  }
}
]]></script>
        <defs>
                <circle id="rim" cx="0" cy="0" r="7"/>
                <circle id="rim2" cx="0" cy="0" r="3.5"/>
                <g id="zoomPlus">
                        <use xlink:href="#rim" fill="#404040">
                                <set attributeName="fill" to="#808080" begin="zoomplus.mouseover" end="zoomplus.mouseout"/>
                        </use>
                        <path d="M-4,0h8M0,-4v8" fill="none" stroke="white" stroke-width="1.5" pointer-events="none"/>
                </g>
                <g id="zoomMin">
                        <use xlink:href="#rim" fill="#404040">
                                <set attributeName="fill" to="#808080" begin="zoomminus.mouseover" end="zoomminus.mouseout"/>
                        </use>
                        <path d="M-4,0h8" fill="none" stroke="white" stroke-width="1.5" pointer-events="none"/>
                </g>
                <g id="dirArrow">
                        <path fill="none" stroke="white" stroke-width="1.5" d="M0,-3.0v7 M-2.5,-0.5L0,-3.0L2.5,-0.5"/>
                </g>
               <g id="resetDef">
                       <use xlink:href="#rim2" fill="#404040">
                               <set attributeName="fill" to="#808080" begin="reset.mouseover" end="reset.mouseout"/>
                       </use>
               </g>
        </defs>

<script type="text/javascript">
var viewWidth = 609;
var viewHeight = 711;
var sectionId = 'dynsection-41';
</script>
<script xlink:href="svgpan.js"/>
<svg id="graph" class="graph">
<g id="viewport">
<title>Ponca::RangePointQuery&lt; DataPoint &gt;</title>
<!-- Node1 -->
<g id="node1" class="node">
<title>Node1</title>
<g id="a_node1"><a xlink:title="Base Query class combining QueryInputIsPosition and QueryOutputIsRange.">
<polygon fill="#999999" stroke="#666666" points="402.5,-41 259.5,-41 259.5,0 402.5,0 402.5,-41"/>
<text text-anchor="start" x="267.5" y="-29" font-family="Helvetica,sans-Serif" font-size="10.00">{Ponca::RangePointQuery</text>
<text text-anchor="middle" x="331" y="-18" font-family="Helvetica,sans-Serif" font-size="10.00">&lt; DataPoint &gt;</text>
<text text-anchor="middle" x="331" y="-7" font-family="Helvetica,sans-Serif" font-size="10.00">||}</text>
</a>
</g>
</g>
<!-- Node2 -->
<g id="node2" class="node">
<title>Node2</title>
<g id="a_node2"><a xlink:href="group__spatialpartitioning.html" target="_top" xlink:title=" ">
<polygon fill="white" stroke="#bfbfbf" points="407,-163 255,-163 255,-78 407,-78 407,-163"/>
<text text-anchor="start" x="263" y="-151" font-family="Helvetica,sans-Serif" font-size="10.00">{Ponca::Query&lt; QueryInput</text>
<text text-anchor="start" x="263" y="-140" font-family="Helvetica,sans-Serif" font-size="10.00">IsPosition&lt; DataPoint</text>
<text text-anchor="start" x="263" y="-129" font-family="Helvetica,sans-Serif" font-size="10.00"> &gt;, QueryOutputIsRange</text>
<text text-anchor="middle" x="331" y="-118" font-family="Helvetica,sans-Serif" font-size="10.00">&lt; DataPoint::Scalar &gt; &gt;</text>
<text text-anchor="start" x="263" y="-107" font-family="Helvetica,sans-Serif" font-size="10.00">||+ Query()</text>
<text text-anchor="start" x="263" y="-96" font-family="Helvetica,sans-Serif" font-size="10.00">+ Query()</text>
<text text-anchor="middle" x="331" y="-85" font-family="Helvetica,sans-Serif" font-size="10.00">}</text>
</a>
</g>
</g>
<!-- Node2&#45;&gt;Node1 -->
<g id="edge1" class="edge">
<title>Node2&#45;&gt;Node1</title>
<path fill="none" stroke="#63b8ff" d="M331,-67.72C331,-58.29 331,-48.99 331,-41.24"/>
<polygon fill="none" stroke="#63b8ff" points="327.5,-67.94 331,-77.94 334.5,-67.94 327.5,-67.94"/>
</g>
<!-- Node3 -->
<g id="node3" class="node">
<title>Node3</title>
<g id="a_node3"><a xlink:href="group__spatialpartitioning.html#structPonca_1_1QueryInputIsPosition" target="_top" xlink:title="Base class for queries storing points.">
<polygon fill="white" stroke="#666666" points="222.5,-317 63.5,-317 63.5,-265 222.5,-265 222.5,-317"/>
<text text-anchor="start" x="71.5" y="-305" font-family="Helvetica,sans-Serif" font-size="10.00">{Ponca::QueryInputIsPosition</text>
<text text-anchor="middle" x="143" y="-294" font-family="Helvetica,sans-Serif" font-size="10.00">&lt; DataPoint &gt;</text>
<text text-anchor="start" x="71.5" y="-283" font-family="Helvetica,sans-Serif" font-size="10.00">||+ QueryInputIsPosition()</text>
<text text-anchor="middle" x="143" y="-272" font-family="Helvetica,sans-Serif" font-size="10.00">}</text>
</a>
</g>
</g>
<!-- Node3&#45;&gt;Node2 -->
<g id="edge2" class="edge">
<title>Node3&#45;&gt;Node2</title>
<path fill="none" stroke="#63b8ff" d="M178.85,-257.87C208.81,-231.01 251.76,-192.52 284.39,-163.28"/>
<polygon fill="none" stroke="#63b8ff" points="176.26,-255.49 171.15,-264.77 180.93,-260.71 176.26,-255.49"/>
</g>
<!-- Node4 -->
<g id="node4" class="node">
<title>Node4</title>
<g id="a_node4"><a xlink:href="group__spatialpartitioning.html" target="_top" xlink:title=" ">
<polygon fill="white" stroke="#666666" points="185,-493 47,-493 47,-419 185,-419 185,-493"/>
<text text-anchor="start" x="55" y="-481" font-family="Helvetica,sans-Serif" font-size="10.00">{Ponca::QueryInput&lt;</text>
<text text-anchor="middle" x="116" y="-470" font-family="Helvetica,sans-Serif" font-size="10.00"> DataPoint::VectorType &gt;</text>
<text text-anchor="start" x="55" y="-459" font-family="Helvetica,sans-Serif" font-size="10.00">||+ QueryInput()</text>
<text text-anchor="start" x="55" y="-448" font-family="Helvetica,sans-Serif" font-size="10.00">+ input()</text>
<text text-anchor="start" x="55" y="-437" font-family="Helvetica,sans-Serif" font-size="10.00"># editInput()</text>
<text text-anchor="middle" x="116" y="-426" font-family="Helvetica,sans-Serif" font-size="10.00">}</text>
</a>
</g>
</g>
<!-- Node4&#45;&gt;Node3 -->
<g id="edge3" class="edge">
<title>Node4&#45;&gt;Node3</title>
<path fill="none" stroke="#63b8ff" d="M123.67,-408.7C128.57,-379.09 134.75,-341.79 138.78,-317.45"/>
<polygon fill="none" stroke="#63b8ff" points="120.17,-408.39 121.99,-418.83 127.08,-409.53 120.17,-408.39"/>
</g>
<!-- Node5 -->
<g id="node5" class="node">
<title>Node5</title>
<g id="a_node5"><a xlink:href="group__spatialpartitioning.html#structPonca_1_1QueryInputBase" target="_top" xlink:title="Base class for queries input type.">
<polygon fill="white" stroke="#666666" points="136,-703 0,-703 0,-673 136,-673 136,-703"/>
<text text-anchor="middle" x="68" y="-691" font-family="Helvetica,sans-Serif" font-size="10.00">{Ponca::QueryInputBase</text>
<text text-anchor="middle" x="68" y="-680" font-family="Helvetica,sans-Serif" font-size="10.00">||}</text>
</a>
</g>
</g>
<!-- Node5&#45;&gt;Node4 -->
<g id="edge4" class="edge">
<title>Node5&#45;&gt;Node4</title>
<path fill="none" stroke="#63b8ff" d="M67.11,-662.74C66.7,-637.34 67.52,-596.41 75,-562 80.16,-538.29 89.94,-512.91 98.65,-493.05"/>
<polygon fill="none" stroke="#63b8ff" points="63.62,-663.02 67.36,-672.93 70.62,-662.85 63.62,-663.02"/>
</g>
<!-- Node6 -->
<g id="node6" class="node">
<title>Node6</title>
<g id="a_node6"><a xlink:href="group__spatialpartitioning.html#structPonca_1_1QueryInput" target="_top" xlink:title="Base class for typed queries input type.">
<polygon fill="white" stroke="#666666" points="204,-636 84,-636 84,-562 204,-562 204,-636"/>
<text text-anchor="start" x="92" y="-624" font-family="Helvetica,sans-Serif" font-size="10.00">{Ponca::QueryInput&lt;</text>
<text text-anchor="middle" x="144" y="-613" font-family="Helvetica,sans-Serif" font-size="10.00"> InputType_ &gt;</text>
<text text-anchor="start" x="92" y="-602" font-family="Helvetica,sans-Serif" font-size="10.00">||+ QueryInput()</text>
<text text-anchor="start" x="92" y="-591" font-family="Helvetica,sans-Serif" font-size="10.00">+ input()</text>
<text text-anchor="start" x="92" y="-580" font-family="Helvetica,sans-Serif" font-size="10.00"># editInput()</text>
<text text-anchor="middle" x="144" y="-569" font-family="Helvetica,sans-Serif" font-size="10.00">}</text>
</a>
</g>
</g>
<!-- Node5&#45;&gt;Node6 -->
<g id="edge6" class="edge">
<title>Node5&#45;&gt;Node6</title>
<path fill="none" stroke="#63b8ff" d="M87.15,-665.08C94.8,-656.32 103.83,-645.99 112.41,-636.17"/>
<polygon fill="none" stroke="#63b8ff" points="84.49,-662.8 80.55,-672.63 89.76,-667.41 84.49,-662.8"/>
</g>
<!-- Node6&#45;&gt;Node4 -->
<g id="edge5" class="edge">
<title>Node6&#45;&gt;Node4</title>
<path fill="none" stroke="orange" d="M119.51,-552.48C118.53,-549.66 117.68,-546.82 117,-544 113.02,-527.56 112.33,-508.85 112.81,-493.01"/>
<polygon fill="orange" stroke="orange" points="116.32,-553.93 123.23,-561.96 122.83,-551.37 116.32,-553.93"/>
<text text-anchor="middle" x="183.5" y="-536" font-family="Helvetica,sans-Serif" font-size="10.00"> &lt; DataPoint::VectorType &gt;</text>
</g>
<!-- Node7 -->
<g id="node7" class="node">
<title>Node7</title>
<g id="a_node7"><a xlink:href="group__spatialpartitioning.html" target="_top" xlink:title=" ">
<polygon fill="white" stroke="#666666" points="410.5,-350 251.5,-350 251.5,-232 410.5,-232 410.5,-350"/>
<text text-anchor="start" x="259.5" y="-338" font-family="Helvetica,sans-Serif" font-size="10.00">{Ponca::QueryOutputIsRange</text>
<text text-anchor="middle" x="331" y="-327" font-family="Helvetica,sans-Serif" font-size="10.00">&lt; DataPoint::Scalar &gt;</text>
<text text-anchor="start" x="259.5" y="-316" font-family="Helvetica,sans-Serif" font-size="10.00">|# m_squared_radius</text>
<text text-anchor="start" x="259.5" y="-305" font-family="Helvetica,sans-Serif" font-size="10.00">|+ QueryOutputIsRange()</text>
<text text-anchor="start" x="259.5" y="-294" font-family="Helvetica,sans-Serif" font-size="10.00">+ radius()</text>
<text text-anchor="start" x="259.5" y="-283" font-family="Helvetica,sans-Serif" font-size="10.00">+ squared_radius()</text>
<text text-anchor="start" x="259.5" y="-272" font-family="Helvetica,sans-Serif" font-size="10.00">+ set_radius()</text>
<text text-anchor="start" x="259.5" y="-261" font-family="Helvetica,sans-Serif" font-size="10.00">+ set_squared_radius()</text>
<text text-anchor="start" x="259.5" y="-250" font-family="Helvetica,sans-Serif" font-size="10.00"># reset()</text>
<text text-anchor="middle" x="331" y="-239" font-family="Helvetica,sans-Serif" font-size="10.00">}</text>
</a>
</g>
</g>
<!-- Node7&#45;&gt;Node2 -->
<g id="edge7" class="edge">
<title>Node7&#45;&gt;Node2</title>
<path fill="none" stroke="#63b8ff" d="M331,-221.35C331,-201.62 331,-180.7 331,-163.14"/>
<polygon fill="none" stroke="#63b8ff" points="327.5,-221.54 331,-231.54 334.5,-221.54 327.5,-221.54"/>
</g>
<!-- Node8 -->
<g id="node8" class="node">
<title>Node8</title>
<g id="a_node8"><a xlink:href="group__spatialpartitioning.html#structPonca_1_1QueryOutputBase" target="_top" xlink:title="Base class for queries output type.">
<polygon fill="white" stroke="#666666" points="386,-614 242,-614 242,-584 386,-584 386,-614"/>
<text text-anchor="middle" x="314" y="-602" font-family="Helvetica,sans-Serif" font-size="10.00">{Ponca::QueryOutputBase</text>
<text text-anchor="middle" x="314" y="-591" font-family="Helvetica,sans-Serif" font-size="10.00">||}</text>
</a>
</g>
</g>
<!-- Node8&#45;&gt;Node7 -->
<g id="edge8" class="edge">
<title>Node8&#45;&gt;Node7</title>
<path fill="none" stroke="#63b8ff" d="M302.27,-574.52C294.82,-558.26 285.88,-535.87 282,-515 272.41,-463.44 270.64,-448.2 282,-397 285.51,-381.19 291.65,-364.94 298.43,-350.09"/>
<polygon fill="none" stroke="#63b8ff" points="299.21,-576.24 306.65,-583.78 305.54,-573.25 299.21,-576.24"/>
</g>
<!-- Node9 -->
<g id="node9" class="node">
<title>Node9</title>
<g id="a_node9"><a xlink:href="group__spatialpartitioning.html#structPonca_1_1QueryOutputIsRange" target="_top" xlink:title="Base class for range queries.">
<polygon fill="white" stroke="#666666" points="450.5,-515 291.5,-515 291.5,-397 450.5,-397 450.5,-515"/>
<text text-anchor="start" x="299.5" y="-503" font-family="Helvetica,sans-Serif" font-size="10.00">{Ponca::QueryOutputIsRange</text>
<text text-anchor="middle" x="371" y="-492" font-family="Helvetica,sans-Serif" font-size="10.00">&lt; Scalar &gt;</text>
<text text-anchor="start" x="299.5" y="-481" font-family="Helvetica,sans-Serif" font-size="10.00">|# m_squared_radius</text>
<text text-anchor="start" x="299.5" y="-470" font-family="Helvetica,sans-Serif" font-size="10.00">|+ QueryOutputIsRange()</text>
<text text-anchor="start" x="299.5" y="-459" font-family="Helvetica,sans-Serif" font-size="10.00">+ radius()</text>
<text text-anchor="start" x="299.5" y="-448" font-family="Helvetica,sans-Serif" font-size="10.00">+ squared_radius()</text>
<text text-anchor="start" x="299.5" y="-437" font-family="Helvetica,sans-Serif" font-size="10.00">+ set_radius()</text>
<text text-anchor="start" x="299.5" y="-426" font-family="Helvetica,sans-Serif" font-size="10.00">+ set_squared_radius()</text>
<text text-anchor="start" x="299.5" y="-415" font-family="Helvetica,sans-Serif" font-size="10.00"># reset()</text>
<text text-anchor="middle" x="371" y="-404" font-family="Helvetica,sans-Serif" font-size="10.00">}</text>
</a>
</g>
</g>
<!-- Node8&#45;&gt;Node9 -->
<g id="edge10" class="edge">
<title>Node8&#45;&gt;Node9</title>
<path fill="none" stroke="#63b8ff" d="M323.59,-574.27C330.13,-558.09 339.1,-535.92 347.47,-515.21"/>
<polygon fill="none" stroke="#63b8ff" points="320.18,-573.38 319.67,-583.96 326.67,-576.01 320.18,-573.38"/>
</g>
<!-- Node9&#45;&gt;Node7 -->
<g id="edge9" class="edge">
<title>Node9&#45;&gt;Node7</title>
<path fill="none" stroke="orange" d="M354.21,-386.58C351.25,-374.5 348.18,-362.02 345.3,-350.25"/>
<polygon fill="orange" stroke="orange" points="350.89,-387.74 356.67,-396.61 357.69,-386.07 350.89,-387.74"/>
<text text-anchor="middle" x="408" y="-371" font-family="Helvetica,sans-Serif" font-size="10.00"> &lt; DataPoint::Scalar &gt;</text>
</g>
<!-- Node10 -->
<g id="node10" class="node">
<title>Node10</title>
<g id="a_node10"><a xlink:href="group__spatialpartitioning.html#structPonca_1_1Query" target="_top" xlink:title=" ">
<polygon fill="white" stroke="#bfbfbf" points="556.5,-322.5 433.5,-322.5 433.5,-259.5 556.5,-259.5 556.5,-322.5"/>
<text text-anchor="start" x="441.5" y="-310.5" font-family="Helvetica,sans-Serif" font-size="10.00">{Ponca::Query&lt; Input</text>
<text text-anchor="middle" x="495" y="-299.5" font-family="Helvetica,sans-Serif" font-size="10.00">_, Output_ &gt;</text>
<text text-anchor="start" x="441.5" y="-288.5" font-family="Helvetica,sans-Serif" font-size="10.00">||+ Query()</text>
<text text-anchor="start" x="441.5" y="-277.5" font-family="Helvetica,sans-Serif" font-size="10.00">+ Query()</text>
<text text-anchor="middle" x="495" y="-266.5" font-family="Helvetica,sans-Serif" font-size="10.00">}</text>
</a>
</g>
</g>
<!-- Node10&#45;&gt;Node2 -->
<g id="edge11" class="edge">
<title>Node10&#45;&gt;Node2</title>
<path fill="none" stroke="orange" d="M458.28,-252.28C432.55,-225.83 398.14,-190.48 371.58,-163.2"/>
<polygon fill="orange" stroke="orange" points="455.82,-254.76 465.3,-259.49 460.83,-249.88 455.82,-254.76"/>
<text text-anchor="start" x="418" y="-206" font-family="Helvetica,sans-Serif" font-size="10.00"> &lt; QueryInputIsPosition</text>
<text text-anchor="start" x="418" y="-195" font-family="Helvetica,sans-Serif" font-size="10.00">&lt; DataPoint &gt;, QueryOutputIs</text>
<text text-anchor="middle" x="492.5" y="-184" font-family="Helvetica,sans-Serif" font-size="10.00">Range&lt; DataPoint::Scalar &gt; &gt;</text>
</g>
<!-- Node11 -->
<g id="node11" class="node">
<title>Node11</title>
<g id="a_node11"><a xlink:title=" ">
<polygon fill="white" stroke="#bfbfbf" points="521.5,-471 468.5,-471 468.5,-441 521.5,-441 521.5,-471"/>
<text text-anchor="middle" x="495" y="-459" font-family="Helvetica,sans-Serif" font-size="10.00">{Input_</text>
<text text-anchor="middle" x="495" y="-448" font-family="Helvetica,sans-Serif" font-size="10.00">||}</text>
</a>
</g>
</g>
<!-- Node11&#45;&gt;Node10 -->
<g id="edge12" class="edge">
<title>Node11&#45;&gt;Node10</title>
<path fill="none" stroke="#63b8ff" d="M495,-430.45C495,-401.69 495,-354.03 495,-322.81"/>
<polygon fill="none" stroke="#63b8ff" points="491.5,-430.82 495,-440.82 498.5,-430.82 491.5,-430.82"/>
</g>
<!-- Node12 -->
<g id="node12" class="node">
<title>Node12</title>
<g id="a_node12"><a xlink:title=" ">
<polygon fill="white" stroke="#bfbfbf" points="600.5,-471 539.5,-471 539.5,-441 600.5,-441 600.5,-471"/>
<text text-anchor="middle" x="570" y="-459" font-family="Helvetica,sans-Serif" font-size="10.00">{Output_</text>
<text text-anchor="middle" x="570" y="-448" font-family="Helvetica,sans-Serif" font-size="10.00">||}</text>
</a>
</g>
</g>
<!-- Node12&#45;&gt;Node10 -->
<g id="edge13" class="edge">
<title>Node12&#45;&gt;Node10</title>
<path fill="none" stroke="#63b8ff" d="M559.23,-431.59C546.06,-402.96 523.73,-354.44 509.18,-322.81"/>
<polygon fill="none" stroke="#63b8ff" points="556.12,-433.2 563.48,-440.82 562.47,-430.27 556.12,-433.2"/>
</g>
</g>
</svg>
        <g id="navigator" transform="translate(0 0)" fill="#404254">
                <rect fill="#f2f5e9" fill-opacity="0.5" stroke="#606060" stroke-width=".5" x="0" y="0" width="60" height="60"/>
                <use id="zoomplus" xlink:href="#zoomPlus" x="17" y="9" onmousedown="handleZoom(evt,'in')"/>
                <use id="zoomminus" xlink:href="#zoomMin" x="42" y="9" onmousedown="handleZoom(evt,'out')"/>
                <use id="reset" xlink:href="#resetDef" x="30" y="36" onmousedown="handleReset()"/>
                <g id="arrowUp" xlink:href="#dirArrow" transform="translate(30 24)" onmousedown="handlePan(0,-1)">
                  <use xlink:href="#rim" fill="#404040">
                        <set attributeName="fill" to="#808080" begin="arrowUp.mouseover" end="arrowUp.mouseout"/>
                  </use>
                  <path fill="none" stroke="white" stroke-width="1.5" d="M0,-3.0v7 M-2.5,-0.5L0,-3.0L2.5,-0.5"/>
                </g>
                <g id="arrowRight" xlink:href="#dirArrow" transform="rotate(90) translate(36 -43)" onmousedown="handlePan(1,0)">
                  <use xlink:href="#rim" fill="#404040">
                        <set attributeName="fill" to="#808080" begin="arrowRight.mouseover" end="arrowRight.mouseout"/>
                  </use>
                  <path fill="none" stroke="white" stroke-width="1.5" d="M0,-3.0v7 M-2.5,-0.5L0,-3.0L2.5,-0.5"/>
                </g>
                <g id="arrowDown" xlink:href="#dirArrow" transform="rotate(180) translate(-30 -48)" onmousedown="handlePan(0,1)">
                  <use xlink:href="#rim" fill="#404040">
                        <set attributeName="fill" to="#808080" begin="arrowDown.mouseover" end="arrowDown.mouseout"/>
                  </use>
                  <path fill="none" stroke="white" stroke-width="1.5" d="M0,-3.0v7 M-2.5,-0.5L0,-3.0L2.5,-0.5"/>
                </g>
                <g id="arrowLeft" xlink:href="#dirArrow" transform="rotate(270) translate(-36 17)" onmousedown="handlePan(-1,0)">
                  <use xlink:href="#rim" fill="#404040">
                        <set attributeName="fill" to="#808080" begin="arrowLeft.mouseover" end="arrowLeft.mouseout"/>
                  </use>
                  <path fill="none" stroke="white" stroke-width="1.5" d="M0,-3.0v7 M-2.5,-0.5L0,-3.0L2.5,-0.5"/>
                </g>
        </g>
        <svg viewBox="0 0 15 15" width="100%" height="30px" preserveAspectRatio="xMaxYMin meet">
         <g id="arrow_out" transform="scale(0.3 0.3)">
          <a xlink:href="structPonca_1_1RangePointQuery__coll__graph_org.svg" target="_base">
           <rect id="button" ry="5" rx="5" y="6" x="6" height="38" width="38"
                fill="#f2f5e9" fill-opacity="0.5" stroke="#606060" stroke-width="1.0"/>
           <path id="arrow"
             d="M 11.500037,31.436501 C 11.940474,20.09759 22.043105,11.32322 32.158766,21.979434 L 37.068811,17.246167 C 37.068811,17.246167 37.088388,32 37.088388,32 L 22.160133,31.978069 C 22.160133,31.978069 26.997745,27.140456 26.997745,27.140456 C 18.528582,18.264221 13.291696,25.230495 11.500037,31.436501 z"
             style="fill:#404040;"/>
          </a>
         </g>
        </svg>
</svg>
