<?xml version="1.0" encoding="UTF-8" standalone="no"?>
<!DOCTYPE svg PUBLIC "-//W3C//DTD SVG 1.1//EN"
 "http://www.w3.org/Graphics/SVG/1.1/DTD/svg11.dtd">
<!-- Generated by graphviz version 2.43.0 (0)
 -->
<!-- Title: Ponca::QueryInputBase Pages: 1 -->
<svg width="1624pt" height="982pt"
 viewBox="0.00 0.00 1623.50 982.00" xmlns="http://www.w3.org/2000/svg" xmlns:xlink="http://www.w3.org/1999/xlink">
<g id="graph0" class="graph" transform="scale(1 1) rotate(0) translate(4 978)">
<title>Ponca::QueryInputBase</title>
<!-- Node1 -->
<g id="node1" class="node">
<title>Node1</title>
<g id="a_node1"><a xlink:title="Base class for queries input type.">
<polygon fill="#999999" stroke="#666666" points="884.5,-916.5 884.5,-973.5 1014.5,-973.5 1014.5,-916.5 884.5,-916.5"/>
<text text-anchor="middle" x="949.5" y="-961.5" font-family="Helvetica,sans-Serif" font-size="10.00">Ponca::QueryInputBase</text>
<polyline fill="none" stroke="#666666" points="884.5,-954.5 1014.5,-954.5 "/>
<text text-anchor="middle" x="949.5" y="-942.5" font-family="Helvetica,sans-Serif" font-size="10.00"> </text>
<polyline fill="none" stroke="#666666" points="884.5,-935.5 1014.5,-935.5 "/>
<text text-anchor="middle" x="949.5" y="-923.5" font-family="Helvetica,sans-Serif" font-size="10.00"> </text>
</a>
</g>
</g>
<!-- Node2 -->
<g id="node2" class="node">
<title>Node2</title>
<g id="a_node2"><a xlink:href="group__spatialpartitioning.html" target="_top" xlink:title=" ">
<polygon fill="white" stroke="#666666" points="802.5,-650.5 802.5,-740.5 916.5,-740.5 916.5,-650.5 802.5,-650.5"/>
<text text-anchor="start" x="810.5" y="-728.5" font-family="Helvetica,sans-Serif" font-size="10.00">Ponca::QueryInput&lt;</text>
<text text-anchor="middle" x="859.5" y="-717.5" font-family="Helvetica,sans-Serif" font-size="10.00"> int &gt;</text>
<polyline fill="none" stroke="#666666" points="802.5,-710.5 916.5,-710.5 "/>
<text text-anchor="middle" x="859.5" y="-698.5" font-family="Helvetica,sans-Serif" font-size="10.00"> </text>
<polyline fill="none" stroke="#666666" points="802.5,-691.5 916.5,-691.5 "/>
<text text-anchor="start" x="810.5" y="-679.5" font-family="Helvetica,sans-Serif" font-size="10.00">+ QueryInput()</text>
<text text-anchor="start" x="810.5" y="-668.5" font-family="Helvetica,sans-Serif" font-size="10.00">+ input()</text>
<text text-anchor="start" x="810.5" y="-657.5" font-family="Helvetica,sans-Serif" font-size="10.00"># editInput()</text>
</a>
</g>
</g>
<!-- Node1&#45;&gt;Node2 -->
<g id="edge1" class="edge">
<title>Node1&#45;&gt;Node2</title>
<path fill="none" stroke="#63b8ff" d="M905.77,-909.21C897.1,-900.27 888.99,-890.02 883.5,-879 861.85,-835.52 857.45,-779.33 857.45,-740.86"/>
<polygon fill="none" stroke="#63b8ff" points="903.54,-911.93 913.14,-916.41 908.43,-906.92 903.54,-911.93"/>
</g>
<!-- Node19 -->
<g id="node19" class="node">
<title>Node19</title>
<g id="a_node19"><a xlink:href="group__spatialpartitioning.html" target="_top" xlink:title=" ">
<polygon fill="white" stroke="#666666" points="1033.5,-650.5 1033.5,-740.5 1171.5,-740.5 1171.5,-650.5 1033.5,-650.5"/>
<text text-anchor="start" x="1041.5" y="-728.5" font-family="Helvetica,sans-Serif" font-size="10.00">Ponca::QueryInput&lt;</text>
<text text-anchor="middle" x="1102.5" y="-717.5" font-family="Helvetica,sans-Serif" font-size="10.00"> DataPoint::VectorType &gt;</text>
<polyline fill="none" stroke="#666666" points="1033.5,-710.5 1171.5,-710.5 "/>
<text text-anchor="middle" x="1102.5" y="-698.5" font-family="Helvetica,sans-Serif" font-size="10.00"> </text>
<polyline fill="none" stroke="#666666" points="1033.5,-691.5 1171.5,-691.5 "/>
<text text-anchor="start" x="1041.5" y="-679.5" font-family="Helvetica,sans-Serif" font-size="10.00">+ QueryInput()</text>
<text text-anchor="start" x="1041.5" y="-668.5" font-family="Helvetica,sans-Serif" font-size="10.00">+ input()</text>
<text text-anchor="start" x="1041.5" y="-657.5" font-family="Helvetica,sans-Serif" font-size="10.00"># editInput()</text>
</a>
</g>
</g>
<!-- Node1&#45;&gt;Node19 -->
<g id="edge18" class="edge">
<title>Node1&#45;&gt;Node19</title>
<path fill="none" stroke="#63b8ff" d="M987.44,-909.29C1020.28,-876.77 1065.93,-825.04 1088.5,-770 1092.25,-760.87 1095,-750.68 1097.02,-740.87"/>
<polygon fill="none" stroke="#63b8ff" points="984.94,-906.85 980.23,-916.34 989.83,-911.85 984.94,-906.85"/>
</g>
<!-- Node30 -->
<g id="node30" class="node">
<title>Node30</title>
<g id="a_node30"><a xlink:href="group__spatialpartitioning.html#structPonca_1_1QueryInput" target="_top" xlink:title="Base class for typed queries input type.">
<polygon fill="white" stroke="#666666" points="892.5,-788.5 892.5,-878.5 1006.5,-878.5 1006.5,-788.5 892.5,-788.5"/>
<text text-anchor="start" x="900.5" y="-866.5" font-family="Helvetica,sans-Serif" font-size="10.00">Ponca::QueryInput&lt;</text>
<text text-anchor="middle" x="949.5" y="-855.5" font-family="Helvetica,sans-Serif" font-size="10.00"> InputType_ &gt;</text>
<polyline fill="none" stroke="#666666" points="892.5,-848.5 1006.5,-848.5 "/>
<text text-anchor="middle" x="949.5" y="-836.5" font-family="Helvetica,sans-Serif" font-size="10.00"> </text>
<polyline fill="none" stroke="#666666" points="892.5,-829.5 1006.5,-829.5 "/>
<text text-anchor="start" x="900.5" y="-817.5" font-family="Helvetica,sans-Serif" font-size="10.00">+ QueryInput()</text>
<text text-anchor="start" x="900.5" y="-806.5" font-family="Helvetica,sans-Serif" font-size="10.00">+ input()</text>
<text text-anchor="start" x="900.5" y="-795.5" font-family="Helvetica,sans-Serif" font-size="10.00"># editInput()</text>
</a>
</g>
</g>
<!-- Node1&#45;&gt;Node30 -->
<g id="edge29" class="edge">
<title>Node1&#45;&gt;Node30</title>
<path fill="none" stroke="#63b8ff" d="M949.5,-906.31C949.5,-897.43 949.5,-887.88 949.5,-878.74"/>
<polygon fill="none" stroke="#63b8ff" points="946,-906.37 949.5,-916.37 953,-906.37 946,-906.37"/>
</g>
<!-- Node3 -->
<g id="node3" class="node">
<title>Node3</title>
<g id="a_node3"><a xlink:href="group__spatialpartitioning.html#structPonca_1_1QueryInputIsIndex" target="_top" xlink:title="Base class for queries storing points.">
<polygon fill="white" stroke="#666666" points="555,-550 555,-607 696,-607 696,-550 555,-550"/>
<text text-anchor="middle" x="625.5" y="-595" font-family="Helvetica,sans-Serif" font-size="10.00">Ponca::QueryInputIsIndex</text>
<polyline fill="none" stroke="#666666" points="555,-588 696,-588 "/>
<text text-anchor="middle" x="625.5" y="-576" font-family="Helvetica,sans-Serif" font-size="10.00"> </text>
<polyline fill="none" stroke="#666666" points="555,-569 696,-569 "/>
<text text-anchor="start" x="563" y="-557" font-family="Helvetica,sans-Serif" font-size="10.00">+ QueryInputIsIndex()</text>
</a>
</g>
</g>
<!-- Node2&#45;&gt;Node3 -->
<g id="edge2" class="edge">
<title>Node2&#45;&gt;Node3</title>
<path fill="none" stroke="#63b8ff" d="M793.03,-661.83C757.89,-644.56 715.23,-623.6 681.75,-607.14"/>
<polygon fill="none" stroke="#63b8ff" points="791.74,-665.1 802.26,-666.37 794.83,-658.82 791.74,-665.1"/>
</g>
<!-- Node4 -->
<g id="node4" class="node">
<title>Node4</title>
<g id="a_node4"><a xlink:href="group__spatialpartitioning.html" target="_top" xlink:title=" ">
<polygon fill="white" stroke="#bfbfbf" points="539,-411 539,-501 712,-501 712,-411 539,-411"/>
<text text-anchor="start" x="547" y="-489" font-family="Helvetica,sans-Serif" font-size="10.00">Ponca::Query&lt; QueryInput</text>
<text text-anchor="start" x="547" y="-478" font-family="Helvetica,sans-Serif" font-size="10.00">IsIndex, QueryOutputIsKNearest</text>
<text text-anchor="middle" x="625.5" y="-467" font-family="Helvetica,sans-Serif" font-size="10.00">&lt; Scalar &gt; &gt;</text>
<polyline fill="none" stroke="#bfbfbf" points="539,-460 712,-460 "/>
<text text-anchor="middle" x="625.5" y="-448" font-family="Helvetica,sans-Serif" font-size="10.00"> </text>
<polyline fill="none" stroke="#bfbfbf" points="539,-441 712,-441 "/>
<text text-anchor="start" x="547" y="-429" font-family="Helvetica,sans-Serif" font-size="10.00">+ Query()</text>
<text text-anchor="start" x="547" y="-418" font-family="Helvetica,sans-Serif" font-size="10.00">+ Query()</text>
</a>
</g>
</g>
<!-- Node3&#45;&gt;Node4 -->
<g id="edge3" class="edge">
<title>Node3&#45;&gt;Node4</title>
<path fill="none" stroke="#63b8ff" d="M625.5,-539.54C625.5,-527.32 625.5,-513.67 625.5,-501.05"/>
<polygon fill="none" stroke="#63b8ff" points="622,-539.85 625.5,-549.85 629,-539.85 622,-539.85"/>
</g>
<!-- Node8 -->
<g id="node8" class="node">
<title>Node8</title>
<g id="a_node8"><a xlink:href="group__spatialpartitioning.html" target="_top" xlink:title=" ">
<polygon fill="white" stroke="#bfbfbf" points="730,-411 730,-501 903,-501 903,-411 730,-411"/>
<text text-anchor="start" x="738" y="-489" font-family="Helvetica,sans-Serif" font-size="10.00">Ponca::Query&lt; QueryInput</text>
<text text-anchor="start" x="738" y="-478" font-family="Helvetica,sans-Serif" font-size="10.00">IsIndex, QueryOutputIsKNearest</text>
<text text-anchor="middle" x="816.5" y="-467" font-family="Helvetica,sans-Serif" font-size="10.00">&lt; DataPoint::Scalar &gt; &gt;</text>
<polyline fill="none" stroke="#bfbfbf" points="730,-460 903,-460 "/>
<text text-anchor="middle" x="816.5" y="-448" font-family="Helvetica,sans-Serif" font-size="10.00"> </text>
<polyline fill="none" stroke="#bfbfbf" points="730,-441 903,-441 "/>
<text text-anchor="start" x="738" y="-429" font-family="Helvetica,sans-Serif" font-size="10.00">+ Query()</text>
<text text-anchor="start" x="738" y="-418" font-family="Helvetica,sans-Serif" font-size="10.00">+ Query()</text>
</a>
</g>
</g>
<!-- Node3&#45;&gt;Node8 -->
<g id="edge7" class="edge">
<title>Node3&#45;&gt;Node8</title>
<path fill="none" stroke="#63b8ff" d="M677.88,-544.46C699.11,-531.06 723.95,-515.39 746.68,-501.05"/>
<polygon fill="none" stroke="#63b8ff" points="675.91,-541.56 669.32,-549.85 679.64,-547.48 675.91,-541.56"/>
</g>
<!-- Node9 -->
<g id="node9" class="node">
<title>Node9</title>
<g id="a_node9"><a xlink:href="group__spatialpartitioning.html" target="_top" xlink:title=" ">
<polygon fill="white" stroke="#bfbfbf" points="921,-411 921,-501 1088,-501 1088,-411 921,-411"/>
<text text-anchor="start" x="929" y="-489" font-family="Helvetica,sans-Serif" font-size="10.00">Ponca::Query&lt; QueryInput</text>
<text text-anchor="start" x="929" y="-478" font-family="Helvetica,sans-Serif" font-size="10.00">IsIndex, QueryOutputIsNearest</text>
<text text-anchor="middle" x="1004.5" y="-467" font-family="Helvetica,sans-Serif" font-size="10.00">&lt; DataPoint::Scalar &gt; &gt;</text>
<polyline fill="none" stroke="#bfbfbf" points="921,-460 1088,-460 "/>
<text text-anchor="middle" x="1004.5" y="-448" font-family="Helvetica,sans-Serif" font-size="10.00"> </text>
<polyline fill="none" stroke="#bfbfbf" points="921,-441 1088,-441 "/>
<text text-anchor="start" x="929" y="-429" font-family="Helvetica,sans-Serif" font-size="10.00">+ Query()</text>
<text text-anchor="start" x="929" y="-418" font-family="Helvetica,sans-Serif" font-size="10.00">+ Query()</text>
</a>
</g>
</g>
<!-- Node3&#45;&gt;Node9 -->
<g id="edge8" class="edge">
<title>Node3&#45;&gt;Node9</title>
<path fill="none" stroke="#63b8ff" d="M705.94,-563.31C764.18,-551.69 844.17,-532.92 911.5,-507 916.2,-505.19 920.97,-503.19 925.73,-501.06"/>
<polygon fill="none" stroke="#63b8ff" points="705.2,-559.89 696.06,-565.25 706.55,-566.75 705.2,-559.89"/>
</g>
<!-- Node10 -->
<g id="node10" class="node">
<title>Node10</title>
<g id="a_node10"><a xlink:href="group__spatialpartitioning.html" target="_top" xlink:title=" ">
<polygon fill="white" stroke="#bfbfbf" points="0,-411 0,-501 159,-501 159,-411 0,-411"/>
<text text-anchor="start" x="8" y="-489" font-family="Helvetica,sans-Serif" font-size="10.00">Ponca::Query&lt; QueryInput</text>
<text text-anchor="start" x="8" y="-478" font-family="Helvetica,sans-Serif" font-size="10.00">IsIndex, QueryOutputIsRange</text>
<text text-anchor="middle" x="79.5" y="-467" font-family="Helvetica,sans-Serif" font-size="10.00">&lt; DataPoint::Scalar &gt; &gt;</text>
<polyline fill="none" stroke="#bfbfbf" points="0,-460 159,-460 "/>
<text text-anchor="middle" x="79.5" y="-448" font-family="Helvetica,sans-Serif" font-size="10.00"> </text>
<polyline fill="none" stroke="#bfbfbf" points="0,-441 159,-441 "/>
<text text-anchor="start" x="8" y="-429" font-family="Helvetica,sans-Serif" font-size="10.00">+ Query()</text>
<text text-anchor="start" x="8" y="-418" font-family="Helvetica,sans-Serif" font-size="10.00">+ Query()</text>
</a>
</g>
</g>
<!-- Node3&#45;&gt;Node10 -->
<g id="edge9" class="edge">
<title>Node3&#45;&gt;Node10</title>
<path fill="none" stroke="#63b8ff" d="M544.72,-573.92C451.52,-567.78 294.75,-551.26 167.5,-507 162.52,-505.27 157.5,-503.26 152.52,-501.05"/>
<polygon fill="none" stroke="#63b8ff" points="544.73,-577.42 554.93,-574.56 545.17,-570.44 544.73,-577.42"/>
</g>
<!-- Node11 -->
<g id="node11" class="node">
<title>Node11</title>
<g id="a_node11"><a xlink:href="group__spatialpartitioning.html" target="_top" xlink:title=" ">
<polygon fill="white" stroke="#bfbfbf" points="177,-411 177,-501 344,-501 344,-411 177,-411"/>
<text text-anchor="start" x="185" y="-489" font-family="Helvetica,sans-Serif" font-size="10.00">Ponca::Query&lt; QueryInput</text>
<text text-anchor="start" x="185" y="-478" font-family="Helvetica,sans-Serif" font-size="10.00">IsIndex, QueryOutputIsNearest</text>
<text text-anchor="middle" x="260.5" y="-467" font-family="Helvetica,sans-Serif" font-size="10.00">&lt; Scalar &gt; &gt;</text>
<polyline fill="none" stroke="#bfbfbf" points="177,-460 344,-460 "/>
<text text-anchor="middle" x="260.5" y="-448" font-family="Helvetica,sans-Serif" font-size="10.00"> </text>
<polyline fill="none" stroke="#bfbfbf" points="177,-441 344,-441 "/>
<text text-anchor="start" x="185" y="-429" font-family="Helvetica,sans-Serif" font-size="10.00">+ Query()</text>
<text text-anchor="start" x="185" y="-418" font-family="Helvetica,sans-Serif" font-size="10.00">+ Query()</text>
</a>
</g>
</g>
<!-- Node3&#45;&gt;Node11 -->
<g id="edge10" class="edge">
<title>Node3&#45;&gt;Node11</title>
<path fill="none" stroke="#63b8ff" d="M544.64,-562.07C489.43,-550.23 415.21,-531.7 352.5,-507 347.85,-505.17 343.14,-503.15 338.43,-501.01"/>
<polygon fill="none" stroke="#63b8ff" points="544.21,-565.56 554.72,-564.21 545.66,-558.71 544.21,-565.56"/>
</g>
<!-- Node15 -->
<g id="node15" class="node">
<title>Node15</title>
<g id="a_node15"><a xlink:href="group__spatialpartitioning.html" target="_top" xlink:title=" ">
<polygon fill="white" stroke="#bfbfbf" points="362,-411 362,-501 521,-501 521,-411 362,-411"/>
<text text-anchor="start" x="370" y="-489" font-family="Helvetica,sans-Serif" font-size="10.00">Ponca::Query&lt; QueryInput</text>
<text text-anchor="start" x="370" y="-478" font-family="Helvetica,sans-Serif" font-size="10.00">IsIndex, QueryOutputIsRange</text>
<text text-anchor="middle" x="441.5" y="-467" font-family="Helvetica,sans-Serif" font-size="10.00">&lt; Scalar &gt; &gt;</text>
<polyline fill="none" stroke="#bfbfbf" points="362,-460 521,-460 "/>
<text text-anchor="middle" x="441.5" y="-448" font-family="Helvetica,sans-Serif" font-size="10.00"> </text>
<polyline fill="none" stroke="#bfbfbf" points="362,-441 521,-441 "/>
<text text-anchor="start" x="370" y="-429" font-family="Helvetica,sans-Serif" font-size="10.00">+ Query()</text>
<text text-anchor="start" x="370" y="-418" font-family="Helvetica,sans-Serif" font-size="10.00">+ Query()</text>
</a>
</g>
</g>
<!-- Node3&#45;&gt;Node15 -->
<g id="edge14" class="edge">
<title>Node3&#45;&gt;Node15</title>
<path fill="none" stroke="#63b8ff" d="M574.77,-544.28C554.37,-530.92 530.56,-515.33 508.76,-501.05"/>
<polygon fill="none" stroke="#63b8ff" points="573,-547.3 583.29,-549.85 576.84,-541.45 573,-547.3"/>
</g>
<!-- Node5 -->
<g id="node5" class="node">
<title>Node5</title>
<g id="a_node5"><a xlink:href="group__spatialpartitioning.html#structPonca_1_1KNearestIndexQuery" target="_top" xlink:title="Base Query class combining QueryInputIsIndex and QueryOutputIsKNearest.">
<polygon fill="white" stroke="#666666" points="552,-299.5 552,-367.5 705,-367.5 705,-299.5 552,-299.5"/>
<text text-anchor="start" x="560" y="-355.5" font-family="Helvetica,sans-Serif" font-size="10.00">Ponca::KNearestIndexQuery</text>
<text text-anchor="middle" x="628.5" y="-344.5" font-family="Helvetica,sans-Serif" font-size="10.00">&lt; Scalar &gt;</text>
<polyline fill="none" stroke="#666666" points="552,-337.5 705,-337.5 "/>
<text text-anchor="middle" x="628.5" y="-325.5" font-family="Helvetica,sans-Serif" font-size="10.00"> </text>
<polyline fill="none" stroke="#666666" points="552,-318.5 705,-318.5 "/>
<text text-anchor="middle" x="628.5" y="-306.5" font-family="Helvetica,sans-Serif" font-size="10.00"> </text>
</a>
</g>
</g>
<!-- Node4&#45;&gt;Node5 -->
<g id="edge4" class="edge">
<title>Node4&#45;&gt;Node5</title>
<path fill="none" stroke="#63b8ff" d="M626.85,-400.63C627.13,-389.42 627.42,-377.92 627.67,-367.73"/>
<polygon fill="none" stroke="#63b8ff" points="623.35,-400.73 626.6,-410.81 630.35,-400.9 623.35,-400.73"/>
</g>
<!-- Node6 -->
<g id="node6" class="node">
<title>Node6</title>
<g id="a_node6"><a xlink:href="group__spatialpartitioning.html" target="_top" xlink:title=" ">
<polygon fill="white" stroke="#666666" points="554,-167 554,-235 707,-235 707,-167 554,-167"/>
<text text-anchor="start" x="562" y="-223" font-family="Helvetica,sans-Serif" font-size="10.00">Ponca::KNearestIndexQuery</text>
<text text-anchor="middle" x="630.5" y="-212" font-family="Helvetica,sans-Serif" font-size="10.00">&lt; DataPoint::Scalar &gt;</text>
<polyline fill="none" stroke="#666666" points="554,-205 707,-205 "/>
<text text-anchor="middle" x="630.5" y="-193" font-family="Helvetica,sans-Serif" font-size="10.00"> </text>
<polyline fill="none" stroke="#666666" points="554,-186 707,-186 "/>
<text text-anchor="middle" x="630.5" y="-174" font-family="Helvetica,sans-Serif" font-size="10.00"> </text>
</a>
</g>
</g>
<!-- Node5&#45;&gt;Node6 -->
<g id="edge5" class="edge">
<title>Node5&#45;&gt;Node6</title>
<path fill="none" stroke="orange" d="M629.16,-289.2C629.43,-271.61 629.74,-251.61 629.99,-235.21"/>
<polygon fill="orange" stroke="orange" points="625.66,-289.18 629.01,-299.23 632.66,-289.29 625.66,-289.18"/>
<text text-anchor="middle" x="684.5" y="-273" font-family="Helvetica,sans-Serif" font-size="10.00"> &lt; DataPoint::Scalar &gt;</text>
</g>
<!-- Node7 -->
<g id="node7" class="node">
<title>Node7</title>
<g id="a_node7"><a xlink:href="classPonca_1_1KdTreeKNearestIndexQuery.html" target="_top" xlink:title=" ">
<polygon fill="white" stroke="#bfbfbf" points="545.5,-6 545.5,-107 715.5,-107 715.5,-6 545.5,-6"/>
<text text-anchor="start" x="553.5" y="-95" font-family="Helvetica,sans-Serif" font-size="10.00">Ponca::KdTreeKNearestIndex</text>
<text text-anchor="middle" x="630.5" y="-84" font-family="Helvetica,sans-Serif" font-size="10.00">Query&lt; DataPoint &gt;</text>
<polyline fill="none" stroke="#bfbfbf" points="545.5,-77 715.5,-77 "/>
<text text-anchor="middle" x="630.5" y="-65" font-family="Helvetica,sans-Serif" font-size="10.00"> </text>
<polyline fill="none" stroke="#bfbfbf" points="545.5,-58 715.5,-58 "/>
<text text-anchor="start" x="553.5" y="-46" font-family="Helvetica,sans-Serif" font-size="10.00">+ KdTreeKNearestIndexQuery()</text>
<text text-anchor="start" x="553.5" y="-35" font-family="Helvetica,sans-Serif" font-size="10.00">+ begin()</text>
<text text-anchor="start" x="553.5" y="-24" font-family="Helvetica,sans-Serif" font-size="10.00">+ end()</text>
<text text-anchor="start" x="553.5" y="-13" font-family="Helvetica,sans-Serif" font-size="10.00"># search()</text>
</a>
</g>
</g>
<!-- Node6&#45;&gt;Node7 -->
<g id="edge6" class="edge">
<title>Node6&#45;&gt;Node7</title>
<path fill="none" stroke="#63b8ff" d="M630.5,-156.53C630.5,-140.93 630.5,-123.22 630.5,-107.14"/>
<polygon fill="none" stroke="#63b8ff" points="627,-156.95 630.5,-166.95 634,-156.95 627,-156.95"/>
</g>
<!-- Node12 -->
<g id="node12" class="node">
<title>Node12</title>
<g id="a_node12"><a xlink:href="group__spatialpartitioning.html#structPonca_1_1NearestIndexQuery" target="_top" xlink:title="Base Query class combining QueryInputIsIndex and QueryOutputIsNearest.">
<polygon fill="white" stroke="#666666" points="186.5,-299.5 186.5,-367.5 332.5,-367.5 332.5,-299.5 186.5,-299.5"/>
<text text-anchor="start" x="194.5" y="-355.5" font-family="Helvetica,sans-Serif" font-size="10.00">Ponca::NearestIndexQuery</text>
<text text-anchor="middle" x="259.5" y="-344.5" font-family="Helvetica,sans-Serif" font-size="10.00">&lt; Scalar &gt;</text>
<polyline fill="none" stroke="#666666" points="186.5,-337.5 332.5,-337.5 "/>
<text text-anchor="middle" x="259.5" y="-325.5" font-family="Helvetica,sans-Serif" font-size="10.00"> </text>
<polyline fill="none" stroke="#666666" points="186.5,-318.5 332.5,-318.5 "/>
<text text-anchor="middle" x="259.5" y="-306.5" font-family="Helvetica,sans-Serif" font-size="10.00"> </text>
</a>
</g>
</g>
<!-- Node11&#45;&gt;Node12 -->
<g id="edge11" class="edge">
<title>Node11&#45;&gt;Node12</title>
<path fill="none" stroke="#63b8ff" d="M260.05,-400.63C259.96,-389.42 259.86,-377.92 259.78,-367.73"/>
<polygon fill="none" stroke="#63b8ff" points="256.55,-400.84 260.13,-410.81 263.55,-400.79 256.55,-400.84"/>
</g>
<!-- Node13 -->
<g id="node13" class="node">
<title>Node13</title>
<g id="a_node13"><a xlink:href="group__spatialpartitioning.html" target="_top" xlink:title=" ">
<polygon fill="white" stroke="#666666" points="184.5,-167 184.5,-235 330.5,-235 330.5,-167 184.5,-167"/>
<text text-anchor="start" x="192.5" y="-223" font-family="Helvetica,sans-Serif" font-size="10.00">Ponca::NearestIndexQuery</text>
<text text-anchor="middle" x="257.5" y="-212" font-family="Helvetica,sans-Serif" font-size="10.00">&lt; DataPoint::Scalar &gt;</text>
<polyline fill="none" stroke="#666666" points="184.5,-205 330.5,-205 "/>
<text text-anchor="middle" x="257.5" y="-193" font-family="Helvetica,sans-Serif" font-size="10.00"> </text>
<polyline fill="none" stroke="#666666" points="184.5,-186 330.5,-186 "/>
<text text-anchor="middle" x="257.5" y="-174" font-family="Helvetica,sans-Serif" font-size="10.00"> </text>
</a>
</g>
</g>
<!-- Node12&#45;&gt;Node13 -->
<g id="edge12" class="edge">
<title>Node12&#45;&gt;Node13</title>
<path fill="none" stroke="orange" d="M258.84,-289.2C258.57,-271.61 258.26,-251.61 258.01,-235.21"/>
<polygon fill="orange" stroke="orange" points="255.34,-289.29 258.99,-299.23 262.34,-289.18 255.34,-289.29"/>
<text text-anchor="middle" x="314.5" y="-273" font-family="Helvetica,sans-Serif" font-size="10.00"> &lt; DataPoint::Scalar &gt;</text>
</g>
<!-- Node14 -->
<g id="node14" class="node">
<title>Node14</title>
<g id="a_node14"><a xlink:href="classPonca_1_1KdTreeNearestIndexQuery.html" target="_top" xlink:title=" ">
<polygon fill="white" stroke="#bfbfbf" points="174,-6 174,-107 337,-107 337,-6 174,-6"/>
<text text-anchor="start" x="182" y="-95" font-family="Helvetica,sans-Serif" font-size="10.00">Ponca::KdTreeNearestIndex</text>
<text text-anchor="middle" x="255.5" y="-84" font-family="Helvetica,sans-Serif" font-size="10.00">Query&lt; DataPoint &gt;</text>
<polyline fill="none" stroke="#bfbfbf" points="174,-77 337,-77 "/>
<text text-anchor="middle" x="255.5" y="-65" font-family="Helvetica,sans-Serif" font-size="10.00"> </text>
<polyline fill="none" stroke="#bfbfbf" points="174,-58 337,-58 "/>
<text text-anchor="start" x="182" y="-46" font-family="Helvetica,sans-Serif" font-size="10.00">+ KdTreeNearestIndexQuery()</text>
<text text-anchor="start" x="182" y="-35" font-family="Helvetica,sans-Serif" font-size="10.00">+ begin()</text>
<text text-anchor="start" x="182" y="-24" font-family="Helvetica,sans-Serif" font-size="10.00">+ end()</text>
<text text-anchor="start" x="182" y="-13" font-family="Helvetica,sans-Serif" font-size="10.00"># search()</text>
</a>
</g>
</g>
<!-- Node13&#45;&gt;Node14 -->
<g id="edge13" class="edge">
<title>Node13&#45;&gt;Node14</title>
<path fill="none" stroke="#63b8ff" d="M256.89,-156.53C256.67,-140.93 256.42,-123.22 256.2,-107.14"/>
<polygon fill="none" stroke="#63b8ff" points="253.4,-157 257.04,-166.95 260.4,-156.9 253.4,-157"/>
</g>
<!-- Node16 -->
<g id="node16" class="node">
<title>Node16</title>
<g id="a_node16"><a xlink:href="group__spatialpartitioning.html#structPonca_1_1RangeIndexQuery" target="_top" xlink:title="Base Query class combining QueryInputIsIndex and QueryOutputIsRange.">
<polygon fill="white" stroke="#666666" points="372,-299.5 372,-367.5 511,-367.5 511,-299.5 372,-299.5"/>
<text text-anchor="start" x="380" y="-355.5" font-family="Helvetica,sans-Serif" font-size="10.00">Ponca::RangeIndexQuery</text>
<text text-anchor="middle" x="441.5" y="-344.5" font-family="Helvetica,sans-Serif" font-size="10.00">&lt; Scalar &gt;</text>
<polyline fill="none" stroke="#666666" points="372,-337.5 511,-337.5 "/>
<text text-anchor="middle" x="441.5" y="-325.5" font-family="Helvetica,sans-Serif" font-size="10.00"> </text>
<polyline fill="none" stroke="#666666" points="372,-318.5 511,-318.5 "/>
<text text-anchor="middle" x="441.5" y="-306.5" font-family="Helvetica,sans-Serif" font-size="10.00"> </text>
</a>
</g>
</g>
<!-- Node15&#45;&gt;Node16 -->
<g id="edge15" class="edge">
<title>Node15&#45;&gt;Node16</title>
<path fill="none" stroke="#63b8ff" d="M441.5,-400.63C441.5,-389.42 441.5,-377.92 441.5,-367.73"/>
<polygon fill="none" stroke="#63b8ff" points="438,-400.81 441.5,-410.81 445,-400.81 438,-400.81"/>
</g>
<!-- Node17 -->
<g id="node17" class="node">
<title>Node17</title>
<g id="a_node17"><a xlink:href="group__spatialpartitioning.html" target="_top" xlink:title=" ">
<polygon fill="white" stroke="#666666" points="372,-167 372,-235 511,-235 511,-167 372,-167"/>
<text text-anchor="start" x="380" y="-223" font-family="Helvetica,sans-Serif" font-size="10.00">Ponca::RangeIndexQuery</text>
<text text-anchor="middle" x="441.5" y="-212" font-family="Helvetica,sans-Serif" font-size="10.00">&lt; DataPoint::Scalar &gt;</text>
<polyline fill="none" stroke="#666666" points="372,-205 511,-205 "/>
<text text-anchor="middle" x="441.5" y="-193" font-family="Helvetica,sans-Serif" font-size="10.00"> </text>
<polyline fill="none" stroke="#666666" points="372,-186 511,-186 "/>
<text text-anchor="middle" x="441.5" y="-174" font-family="Helvetica,sans-Serif" font-size="10.00"> </text>
</a>
</g>
</g>
<!-- Node16&#45;&gt;Node17 -->
<g id="edge16" class="edge">
<title>Node16&#45;&gt;Node17</title>
<path fill="none" stroke="orange" d="M441.5,-289.2C441.5,-271.61 441.5,-251.61 441.5,-235.21"/>
<polygon fill="orange" stroke="orange" points="438,-289.23 441.5,-299.23 445,-289.23 438,-289.23"/>
<text text-anchor="middle" x="496.5" y="-273" font-family="Helvetica,sans-Serif" font-size="10.00"> &lt; DataPoint::Scalar &gt;</text>
</g>
<!-- Node18 -->
<g id="node18" class="node">
<title>Node18</title>
<g id="a_node18"><a xlink:href="classPonca_1_1KdTreeRangeIndexQuery.html" target="_top" xlink:title=" ">
<polygon fill="white" stroke="#bfbfbf" points="355.5,-0.5 355.5,-112.5 527.5,-112.5 527.5,-0.5 355.5,-0.5"/>
<text text-anchor="start" x="363.5" y="-100.5" font-family="Helvetica,sans-Serif" font-size="10.00">Ponca::KdTreeRangeIndexQuery</text>
<text text-anchor="middle" x="441.5" y="-89.5" font-family="Helvetica,sans-Serif" font-size="10.00">&lt; DataPoint &gt;</text>
<polyline fill="none" stroke="#bfbfbf" points="355.5,-82.5 527.5,-82.5 "/>
<text text-anchor="start" x="363.5" y="-70.5" font-family="Helvetica,sans-Serif" font-size="10.00"># Iterator</text>
<polyline fill="none" stroke="#bfbfbf" points="355.5,-63.5 527.5,-63.5 "/>
<text text-anchor="start" x="363.5" y="-51.5" font-family="Helvetica,sans-Serif" font-size="10.00">+ KdTreeRangeIndexQuery()</text>
<text text-anchor="start" x="363.5" y="-40.5" font-family="Helvetica,sans-Serif" font-size="10.00">+ begin()</text>
<text text-anchor="start" x="363.5" y="-29.5" font-family="Helvetica,sans-Serif" font-size="10.00">+ end()</text>
<text text-anchor="start" x="363.5" y="-18.5" font-family="Helvetica,sans-Serif" font-size="10.00"># initialize()</text>
<text text-anchor="start" x="363.5" y="-7.5" font-family="Helvetica,sans-Serif" font-size="10.00"># advance()</text>
</a>
</g>
</g>
<!-- Node17&#45;&gt;Node18 -->
<g id="edge17" class="edge">
<title>Node17&#45;&gt;Node18</title>
<path fill="none" stroke="#63b8ff" d="M441.5,-156.71C441.5,-142.85 441.5,-127.3 441.5,-112.7"/>
<polygon fill="none" stroke="#63b8ff" points="438,-156.95 441.5,-166.95 445,-156.95 438,-156.95"/>
</g>
<!-- Node20 -->
<g id="node20" class="node">
<title>Node20</title>
<g id="a_node20"><a xlink:href="group__spatialpartitioning.html#structPonca_1_1QueryInputIsPosition" target="_top" xlink:title="Base class for queries storing points.">
<polygon fill="white" stroke="#666666" points="1151,-544.5 1151,-612.5 1304,-612.5 1304,-544.5 1151,-544.5"/>
<text text-anchor="start" x="1159" y="-600.5" font-family="Helvetica,sans-Serif" font-size="10.00">Ponca::QueryInputIsPosition</text>
<text text-anchor="middle" x="1227.5" y="-589.5" font-family="Helvetica,sans-Serif" font-size="10.00">&lt; DataPoint &gt;</text>
<polyline fill="none" stroke="#666666" points="1151,-582.5 1304,-582.5 "/>
<text text-anchor="middle" x="1227.5" y="-570.5" font-family="Helvetica,sans-Serif" font-size="10.00"> </text>
<polyline fill="none" stroke="#666666" points="1151,-563.5 1304,-563.5 "/>
<text text-anchor="start" x="1159" y="-551.5" font-family="Helvetica,sans-Serif" font-size="10.00">+ QueryInputIsPosition()</text>
</a>
</g>
</g>
<!-- Node19&#45;&gt;Node20 -->
<g id="edge19" class="edge">
<title>Node19&#45;&gt;Node20</title>
<path fill="none" stroke="#63b8ff" d="M1157.9,-643.53C1169.29,-633.05 1181.01,-622.27 1191.5,-612.62"/>
<polygon fill="none" stroke="#63b8ff" points="1155.46,-641.02 1150.47,-650.37 1160.2,-646.17 1155.46,-641.02"/>
</g>
<!-- Node21 -->
<g id="node21" class="node">
<title>Node21</title>
<g id="a_node21"><a xlink:href="group__spatialpartitioning.html" target="_top" xlink:title=" ">
<polygon fill="white" stroke="#bfbfbf" points="1106,-405.5 1106,-506.5 1255,-506.5 1255,-405.5 1106,-405.5"/>
<text text-anchor="start" x="1114" y="-494.5" font-family="Helvetica,sans-Serif" font-size="10.00">Ponca::Query&lt; QueryInput</text>
<text text-anchor="start" x="1114" y="-483.5" font-family="Helvetica,sans-Serif" font-size="10.00">IsPosition&lt; DataPoint</text>
<text text-anchor="start" x="1114" y="-472.5" font-family="Helvetica,sans-Serif" font-size="10.00"> &gt;, QueryOutputIsKNearest</text>
<text text-anchor="middle" x="1180.5" y="-461.5" font-family="Helvetica,sans-Serif" font-size="10.00">&lt; DataPoint::Scalar &gt; &gt;</text>
<polyline fill="none" stroke="#bfbfbf" points="1106,-454.5 1255,-454.5 "/>
<text text-anchor="middle" x="1180.5" y="-442.5" font-family="Helvetica,sans-Serif" font-size="10.00"> </text>
<polyline fill="none" stroke="#bfbfbf" points="1106,-435.5 1255,-435.5 "/>
<text text-anchor="start" x="1114" y="-423.5" font-family="Helvetica,sans-Serif" font-size="10.00">+ Query()</text>
<text text-anchor="start" x="1114" y="-412.5" font-family="Helvetica,sans-Serif" font-size="10.00">+ Query()</text>
</a>
</g>
</g>
<!-- Node20&#45;&gt;Node21 -->
<g id="edge20" class="edge">
<title>Node20&#45;&gt;Node21</title>
<path fill="none" stroke="#63b8ff" d="M1210.82,-534.73C1207.3,-525.7 1203.55,-516.1 1199.94,-506.84"/>
<polygon fill="none" stroke="#63b8ff" points="1207.64,-536.21 1214.53,-544.25 1214.16,-533.67 1207.64,-536.21"/>
</g>
<!-- Node24 -->
<g id="node24" class="node">
<title>Node24</title>
<g id="a_node24"><a xlink:href="group__spatialpartitioning.html" target="_top" xlink:title=" ">
<polygon fill="white" stroke="#bfbfbf" points="1273.5,-405.5 1273.5,-506.5 1419.5,-506.5 1419.5,-405.5 1273.5,-405.5"/>
<text text-anchor="start" x="1281.5" y="-494.5" font-family="Helvetica,sans-Serif" font-size="10.00">Ponca::Query&lt; QueryInput</text>
<text text-anchor="start" x="1281.5" y="-483.5" font-family="Helvetica,sans-Serif" font-size="10.00">IsPosition&lt; DataPoint</text>
<text text-anchor="start" x="1281.5" y="-472.5" font-family="Helvetica,sans-Serif" font-size="10.00"> &gt;, QueryOutputIsNearest</text>
<text text-anchor="middle" x="1346.5" y="-461.5" font-family="Helvetica,sans-Serif" font-size="10.00">&lt; DataPoint::Scalar &gt; &gt;</text>
<polyline fill="none" stroke="#bfbfbf" points="1273.5,-454.5 1419.5,-454.5 "/>
<text text-anchor="middle" x="1346.5" y="-442.5" font-family="Helvetica,sans-Serif" font-size="10.00"> </text>
<polyline fill="none" stroke="#bfbfbf" points="1273.5,-435.5 1419.5,-435.5 "/>
<text text-anchor="start" x="1281.5" y="-423.5" font-family="Helvetica,sans-Serif" font-size="10.00">+ Query()</text>
<text text-anchor="start" x="1281.5" y="-412.5" font-family="Helvetica,sans-Serif" font-size="10.00">+ Query()</text>
</a>
</g>
</g>
<!-- Node20&#45;&gt;Node24 -->
<g id="edge23" class="edge">
<title>Node20&#45;&gt;Node24</title>
<path fill="none" stroke="#63b8ff" d="M1267.48,-537.02C1277.04,-527.34 1287.35,-516.89 1297.28,-506.84"/>
<polygon fill="none" stroke="#63b8ff" points="1264.87,-534.68 1260.33,-544.25 1269.85,-539.6 1264.87,-534.68"/>
</g>
<!-- Node27 -->
<g id="node27" class="node">
<title>Node27</title>
<g id="a_node27"><a xlink:href="group__spatialpartitioning.html" target="_top" xlink:title=" ">
<polygon fill="white" stroke="#bfbfbf" points="1447.5,-405.5 1447.5,-506.5 1593.5,-506.5 1593.5,-405.5 1447.5,-405.5"/>
<text text-anchor="start" x="1455.5" y="-494.5" font-family="Helvetica,sans-Serif" font-size="10.00">Ponca::Query&lt; QueryInput</text>
<text text-anchor="start" x="1455.5" y="-483.5" font-family="Helvetica,sans-Serif" font-size="10.00">IsPosition&lt; DataPoint</text>
<text text-anchor="start" x="1455.5" y="-472.5" font-family="Helvetica,sans-Serif" font-size="10.00"> &gt;, QueryOutputIsRange</text>
<text text-anchor="middle" x="1520.5" y="-461.5" font-family="Helvetica,sans-Serif" font-size="10.00">&lt; DataPoint::Scalar &gt; &gt;</text>
<polyline fill="none" stroke="#bfbfbf" points="1447.5,-454.5 1593.5,-454.5 "/>
<text text-anchor="middle" x="1520.5" y="-442.5" font-family="Helvetica,sans-Serif" font-size="10.00"> </text>
<polyline fill="none" stroke="#bfbfbf" points="1447.5,-435.5 1593.5,-435.5 "/>
<text text-anchor="start" x="1455.5" y="-423.5" font-family="Helvetica,sans-Serif" font-size="10.00">+ Query()</text>
<text text-anchor="start" x="1455.5" y="-412.5" font-family="Helvetica,sans-Serif" font-size="10.00">+ Query()</text>
</a>
</g>
</g>
<!-- Node20&#45;&gt;Node27 -->
<g id="edge26" class="edge">
<title>Node20&#45;&gt;Node27</title>
<path fill="none" stroke="#63b8ff" d="M1313.53,-550.71C1349.56,-538.62 1391.57,-523.38 1428.5,-507 1434.73,-504.24 1441.11,-501.21 1447.46,-498.05"/>
<polygon fill="none" stroke="#63b8ff" points="1312.41,-547.39 1304.02,-553.87 1314.62,-554.04 1312.41,-547.39"/>
</g>
<!-- Node22 -->
<g id="node22" class="node">
<title>Node22</title>
<g id="a_node22"><a xlink:href="group__spatialpartitioning.html#structPonca_1_1KNearestPointQuery" target="_top" xlink:title="Base Query class combining QueryInputIsPosition and QueryOutputIsKNearest.">
<polygon fill="white" stroke="#666666" points="1093,-299.5 1093,-367.5 1244,-367.5 1244,-299.5 1093,-299.5"/>
<text text-anchor="start" x="1101" y="-355.5" font-family="Helvetica,sans-Serif" font-size="10.00">Ponca::KNearestPointQuery</text>
<text text-anchor="middle" x="1168.5" y="-344.5" font-family="Helvetica,sans-Serif" font-size="10.00">&lt; DataPoint &gt;</text>
<polyline fill="none" stroke="#666666" points="1093,-337.5 1244,-337.5 "/>
<text text-anchor="middle" x="1168.5" y="-325.5" font-family="Helvetica,sans-Serif" font-size="10.00"> </text>
<polyline fill="none" stroke="#666666" points="1093,-318.5 1244,-318.5 "/>
<text text-anchor="middle" x="1168.5" y="-306.5" font-family="Helvetica,sans-Serif" font-size="10.00"> </text>
</a>
</g>
</g>
<!-- Node21&#45;&gt;Node22 -->
<g id="edge21" class="edge">
<title>Node21&#45;&gt;Node22</title>
<path fill="none" stroke="#63b8ff" d="M1174.53,-395.07C1173.59,-385.61 1172.65,-376.14 1171.8,-367.59"/>
<polygon fill="none" stroke="#63b8ff" points="1171.08,-395.69 1175.55,-405.29 1178.04,-394.99 1171.08,-395.69"/>
</g>
<!-- Node23 -->
<g id="node23" class="node">
<title>Node23</title>
<g id="a_node23"><a xlink:href="classPonca_1_1KdTreeKNearestPointQuery.html" target="_top" xlink:title=" ">
<polygon fill="white" stroke="#bfbfbf" points="1081,-150.5 1081,-251.5 1248,-251.5 1248,-150.5 1081,-150.5"/>
<text text-anchor="start" x="1089" y="-239.5" font-family="Helvetica,sans-Serif" font-size="10.00">Ponca::KdTreeKNearestPoint</text>
<text text-anchor="middle" x="1164.5" y="-228.5" font-family="Helvetica,sans-Serif" font-size="10.00">Query&lt; DataPoint &gt;</text>
<polyline fill="none" stroke="#bfbfbf" points="1081,-221.5 1248,-221.5 "/>
<text text-anchor="middle" x="1164.5" y="-209.5" font-family="Helvetica,sans-Serif" font-size="10.00"> </text>
<polyline fill="none" stroke="#bfbfbf" points="1081,-202.5 1248,-202.5 "/>
<text text-anchor="start" x="1089" y="-190.5" font-family="Helvetica,sans-Serif" font-size="10.00">+ KdTreeKNearestPointQuery()</text>
<text text-anchor="start" x="1089" y="-179.5" font-family="Helvetica,sans-Serif" font-size="10.00">+ begin()</text>
<text text-anchor="start" x="1089" y="-168.5" font-family="Helvetica,sans-Serif" font-size="10.00">+ end()</text>
<text text-anchor="start" x="1089" y="-157.5" font-family="Helvetica,sans-Serif" font-size="10.00"># search()</text>
</a>
</g>
</g>
<!-- Node22&#45;&gt;Node23 -->
<g id="edge22" class="edge">
<title>Node22&#45;&gt;Node23</title>
<path fill="none" stroke="#63b8ff" d="M1167.17,-289.1C1166.81,-277.21 1166.41,-264.21 1166.03,-251.98"/>
<polygon fill="none" stroke="#63b8ff" points="1163.68,-289.34 1167.48,-299.23 1170.67,-289.13 1163.68,-289.34"/>
</g>
<!-- Node25 -->
<g id="node25" class="node">
<title>Node25</title>
<g id="a_node25"><a xlink:href="group__spatialpartitioning.html#structPonca_1_1NearestPointQuery" target="_top" xlink:title="Base Query class combining QueryInputIsPosition and QueryOutputIsNearest.">
<polygon fill="white" stroke="#666666" points="1274.5,-299.5 1274.5,-367.5 1418.5,-367.5 1418.5,-299.5 1274.5,-299.5"/>
<text text-anchor="start" x="1282.5" y="-355.5" font-family="Helvetica,sans-Serif" font-size="10.00">Ponca::NearestPointQuery</text>
<text text-anchor="middle" x="1346.5" y="-344.5" font-family="Helvetica,sans-Serif" font-size="10.00">&lt; DataPoint &gt;</text>
<polyline fill="none" stroke="#666666" points="1274.5,-337.5 1418.5,-337.5 "/>
<text text-anchor="middle" x="1346.5" y="-325.5" font-family="Helvetica,sans-Serif" font-size="10.00"> </text>
<polyline fill="none" stroke="#666666" points="1274.5,-318.5 1418.5,-318.5 "/>
<text text-anchor="middle" x="1346.5" y="-306.5" font-family="Helvetica,sans-Serif" font-size="10.00"> </text>
</a>
</g>
</g>
<!-- Node24&#45;&gt;Node25 -->
<g id="edge24" class="edge">
<title>Node24&#45;&gt;Node25</title>
<path fill="none" stroke="#63b8ff" d="M1346.5,-395.07C1346.5,-385.61 1346.5,-376.14 1346.5,-367.59"/>
<polygon fill="none" stroke="#63b8ff" points="1343,-395.29 1346.5,-405.29 1350,-395.29 1343,-395.29"/>
</g>
<!-- Node26 -->
<g id="node26" class="node">
<title>Node26</title>
<g id="a_node26"><a xlink:href="classPonca_1_1KdTreeNearestPointQuery.html" target="_top" xlink:title=" ">
<polygon fill="white" stroke="#bfbfbf" points="1266,-150.5 1266,-251.5 1427,-251.5 1427,-150.5 1266,-150.5"/>
<text text-anchor="start" x="1274" y="-239.5" font-family="Helvetica,sans-Serif" font-size="10.00">Ponca::KdTreeNearestPoint</text>
<text text-anchor="middle" x="1346.5" y="-228.5" font-family="Helvetica,sans-Serif" font-size="10.00">Query&lt; DataPoint &gt;</text>
<polyline fill="none" stroke="#bfbfbf" points="1266,-221.5 1427,-221.5 "/>
<text text-anchor="middle" x="1346.5" y="-209.5" font-family="Helvetica,sans-Serif" font-size="10.00"> </text>
<polyline fill="none" stroke="#bfbfbf" points="1266,-202.5 1427,-202.5 "/>
<text text-anchor="start" x="1274" y="-190.5" font-family="Helvetica,sans-Serif" font-size="10.00">+ KdTreeNearestPointQuery()</text>
<text text-anchor="start" x="1274" y="-179.5" font-family="Helvetica,sans-Serif" font-size="10.00">+ begin()</text>
<text text-anchor="start" x="1274" y="-168.5" font-family="Helvetica,sans-Serif" font-size="10.00">+ end()</text>
<text text-anchor="start" x="1274" y="-157.5" font-family="Helvetica,sans-Serif" font-size="10.00"># search()</text>
</a>
</g>
</g>
<!-- Node25&#45;&gt;Node26 -->
<g id="edge25" class="edge">
<title>Node25&#45;&gt;Node26</title>
<path fill="none" stroke="#63b8ff" d="M1346.5,-289.1C1346.5,-277.21 1346.5,-264.21 1346.5,-251.98"/>
<polygon fill="none" stroke="#63b8ff" points="1343,-289.23 1346.5,-299.23 1350,-289.23 1343,-289.23"/>
</g>
<!-- Node28 -->
<g id="node28" class="node">
<title>Node28</title>
<g id="a_node28"><a xlink:href="group__spatialpartitioning.html#structPonca_1_1RangePointQuery" target="_top" xlink:title="Base Query class combining QueryInputIsPosition and QueryOutputIsRange.">
<polygon fill="white" stroke="#666666" points="1460,-299.5 1460,-367.5 1597,-367.5 1597,-299.5 1460,-299.5"/>
<text text-anchor="start" x="1468" y="-355.5" font-family="Helvetica,sans-Serif" font-size="10.00">Ponca::RangePointQuery</text>
<text text-anchor="middle" x="1528.5" y="-344.5" font-family="Helvetica,sans-Serif" font-size="10.00">&lt; DataPoint &gt;</text>
<polyline fill="none" stroke="#666666" points="1460,-337.5 1597,-337.5 "/>
<text text-anchor="middle" x="1528.5" y="-325.5" font-family="Helvetica,sans-Serif" font-size="10.00"> </text>
<polyline fill="none" stroke="#666666" points="1460,-318.5 1597,-318.5 "/>
<text text-anchor="middle" x="1528.5" y="-306.5" font-family="Helvetica,sans-Serif" font-size="10.00"> </text>
</a>
</g>
</g>
<!-- Node27&#45;&gt;Node28 -->
<g id="edge27" class="edge">
<title>Node27&#45;&gt;Node28</title>
<path fill="none" stroke="#63b8ff" d="M1524.48,-395.07C1525.11,-385.61 1525.74,-376.14 1526.3,-367.59"/>
<polygon fill="none" stroke="#63b8ff" points="1520.97,-395.08 1523.8,-405.29 1527.95,-395.55 1520.97,-395.08"/>
</g>
<!-- Node29 -->
<g id="node29" class="node">
<title>Node29</title>
<g id="a_node29"><a xlink:href="classPonca_1_1KdTreeRangePointQuery.html" target="_top" xlink:title=" ">
<polygon fill="white" stroke="#bfbfbf" points="1445.5,-150.5 1445.5,-251.5 1615.5,-251.5 1615.5,-150.5 1445.5,-150.5"/>
<text text-anchor="start" x="1453.5" y="-239.5" font-family="Helvetica,sans-Serif" font-size="10.00">Ponca::KdTreeRangePointQuery</text>
<text text-anchor="middle" x="1530.5" y="-228.5" font-family="Helvetica,sans-Serif" font-size="10.00">&lt; DataPoint &gt;</text>
<polyline fill="none" stroke="#bfbfbf" points="1445.5,-221.5 1615.5,-221.5 "/>
<text text-anchor="start" x="1453.5" y="-209.5" font-family="Helvetica,sans-Serif" font-size="10.00"># Iterator</text>
<polyline fill="none" stroke="#bfbfbf" points="1445.5,-202.5 1615.5,-202.5 "/>
<text text-anchor="start" x="1453.5" y="-190.5" font-family="Helvetica,sans-Serif" font-size="10.00">+ KdTreeRangePointQuery()</text>
<text text-anchor="start" x="1453.5" y="-179.5" font-family="Helvetica,sans-Serif" font-size="10.00">+ begin()</text>
<text text-anchor="start" x="1453.5" y="-168.5" font-family="Helvetica,sans-Serif" font-size="10.00">+ end()</text>
<text text-anchor="start" x="1453.5" y="-157.5" font-family="Helvetica,sans-Serif" font-size="10.00"># advance()</text>
</a>
</g>
</g>
<!-- Node28&#45;&gt;Node29 -->
<g id="edge28" class="edge">
<title>Node28&#45;&gt;Node29</title>
<path fill="none" stroke="#63b8ff" d="M1529.17,-289.1C1529.35,-277.21 1529.55,-264.21 1529.73,-251.98"/>
<polygon fill="none" stroke="#63b8ff" points="1525.66,-289.18 1529.01,-299.23 1532.66,-289.29 1525.66,-289.18"/>
</g>
<!-- Node30&#45;&gt;Node2 -->
<g id="edge30" class="edge">
<title>Node30&#45;&gt;Node2</title>
<path fill="none" stroke="orange" d="M900.89,-780.44C898.28,-776.99 895.8,-773.49 893.5,-770 887.55,-760.96 882.1,-750.7 877.4,-740.79"/>
<polygon fill="orange" stroke="orange" points="898.21,-782.69 907.14,-788.39 903.71,-778.37 898.21,-782.69"/>
<text text-anchor="middle" x="913" y="-762" font-family="Helvetica,sans-Serif" font-size="10.00"> &lt; int &gt;</text>
</g>
<!-- Node30&#45;&gt;Node19 -->
<g id="edge31" class="edge">
<title>Node30&#45;&gt;Node19</title>
<path fill="none" stroke="orange" d="M947.22,-778.06C948.81,-771.22 951.42,-764.65 955.5,-759 973.84,-733.59 1004.63,-718.43 1033.31,-709.43"/>
<polygon fill="orange" stroke="orange" points="943.72,-777.78 945.57,-788.21 950.63,-778.9 943.72,-777.78"/>
<text text-anchor="middle" x="1022" y="-762" font-family="Helvetica,sans-Serif" font-size="10.00"> &lt; DataPoint::VectorType &gt;</text>
</g>
</g>
</svg>
