<?xml version="1.0" encoding="UTF-8" standalone="no"?>
<!DOCTYPE svg PUBLIC "-//W3C//DTD SVG 1.1//EN"
 "http://www.w3.org/Graphics/SVG/1.1/DTD/svg11.dtd">
<!-- Generated by graphviz version 2.43.0 (0)
 -->
<!-- Title: Ponca::QueryOutputIsNearest&lt; Index, Scalar &gt; Pages: 1 -->
<svg width="350pt" height="623pt"
 viewBox="0.00 0.00 349.50 623.00" xmlns="http://www.w3.org/2000/svg" xmlns:xlink="http://www.w3.org/1999/xlink">
<g id="graph0" class="graph" transform="scale(1 1) rotate(0) translate(4 619)">
<title>Ponca::QueryOutputIsNearest&lt; Index, Scalar &gt;</title>
<!-- Node1 -->
<g id="Node000001" class="node">
<title>Node1</title>
<g id="a_Node000001"><a xlink:title="Base class for nearest queries.">
<polygon fill="#999999" stroke="transparent" points="250,-529 92,-529 92,-409 250,-409 250,-529"/>
<text text-anchor="start" x="98.5" y="-517" font-family="Helvetica,sans-Serif" font-size="10.00">Ponca::QueryOutputIsNearest</text>
<text text-anchor="start" x="128" y="-506" font-family="Helvetica,sans-Serif" font-size="10.00">&lt; Index, Scalar &gt;</text>
<text text-anchor="start" x="96" y="-491" font-family="Helvetica,sans-Serif" font-size="10.00">#</text>
<text text-anchor="start" x="109" y="-491" font-family="Helvetica,sans-Serif" font-size="10.00">m_nearest</text>
<text text-anchor="start" x="96" y="-476" font-family="Helvetica,sans-Serif" font-size="10.00">#</text>
<text text-anchor="start" x="109" y="-476" font-family="Helvetica,sans-Serif" font-size="10.00">m_squared_distance</text>
<text text-anchor="start" x="96" y="-461" font-family="Helvetica,sans-Serif" font-size="10.00">+</text>
<text text-anchor="start" x="109" y="-461" font-family="Helvetica,sans-Serif" font-size="10.00">QueryOutputIsNearest()</text>
<text text-anchor="start" x="96" y="-446" font-family="Helvetica,sans-Serif" font-size="10.00">+</text>
<text text-anchor="start" x="109" y="-446" font-family="Helvetica,sans-Serif" font-size="10.00">get()</text>
<text text-anchor="start" x="96" y="-431" font-family="Helvetica,sans-Serif" font-size="10.00">#</text>
<text text-anchor="start" x="109" y="-431" font-family="Helvetica,sans-Serif" font-size="10.00">reset()</text>
<text text-anchor="start" x="96" y="-416" font-family="Helvetica,sans-Serif" font-size="10.00">#</text>
<text text-anchor="start" x="109" y="-416" font-family="Helvetica,sans-Serif" font-size="10.00">descentDistanceThreshold()</text>
<polygon fill="#666666" stroke="#666666" points="92,-501 92,-501 250,-501 250,-501 92,-501"/>
<polygon fill="#666666" stroke="#666666" points="92,-471 92,-471 107,-471 107,-471 92,-471"/>
<polygon fill="#666666" stroke="#666666" points="107,-471 107,-471 250,-471 250,-471 107,-471"/>
<polygon fill="none" stroke="#666666" points="92,-409 92,-529 250,-529 250,-409 92,-409"/>
</a>
</g>
</g>
<!-- Node3 -->
<g id="Node000003" class="node">
<title>Node3</title>
<g id="a_Node000003"><a xlink:href="group__spatialpartitioning.html" target="_top" xlink:title=" ">
<polygon fill="white" stroke="transparent" points="164,-334 0,-334 0,-248 164,-248 164,-334"/>
<text text-anchor="start" x="5" y="-322" font-family="Helvetica,sans-Serif" font-size="10.00">Ponca::Query&lt; QueryInput</text>
<text text-anchor="start" x="5" y="-311" font-family="Helvetica,sans-Serif" font-size="10.00">IsIndex&lt; Index &gt;, QueryOutput</text>
<text text-anchor="start" x="10" y="-300" font-family="Helvetica,sans-Serif" font-size="10.00">IsNearest&lt; Index, Scalar &gt; &gt;</text>
<text text-anchor="start" x="80" y="-285" font-family="Helvetica,sans-Serif" font-size="10.00"> </text>
<text text-anchor="start" x="30.5" y="-270" font-family="Helvetica,sans-Serif" font-size="10.00">+</text>
<text text-anchor="start" x="70" y="-270" font-family="Helvetica,sans-Serif" font-size="10.00">Query()</text>
<text text-anchor="start" x="30.5" y="-255" font-family="Helvetica,sans-Serif" font-size="10.00">+</text>
<text text-anchor="start" x="70" y="-255" font-family="Helvetica,sans-Serif" font-size="10.00">Query()</text>
<polygon fill="#bfbfbf" stroke="#bfbfbf" points="0,-295 0,-295 164,-295 164,-295 0,-295"/>
<polygon fill="#bfbfbf" stroke="#bfbfbf" points="0,-280 0,-280 164,-280 164,-280 0,-280"/>
<polygon fill="none" stroke="#bfbfbf" points="0,-248 0,-334 164,-334 164,-248 0,-248"/>
</a>
</g>
</g>
<!-- Node1&#45;&gt;Node3 -->
<g id="edge2_Node000001_Node000003" class="edge">
<title>Node1&#45;&gt;Node3</title>
<g id="a_edge2_Node000001_Node000003"><a xlink:title=" ">
<path fill="none" stroke="#63b8ff" d="M136.56,-399.88C125.38,-377.78 113.31,-353.91 103.37,-334.26"/>
<polygon fill="none" stroke="#63b8ff" points="133.48,-401.56 141.12,-408.9 139.73,-398.4 133.48,-401.56"/>
</a>
</g>
</g>
<!-- Node5 -->
<g id="Node000005" class="node">
<title>Node5</title>
<g id="a_Node000005"><a xlink:href="group__spatialpartitioning.html" target="_top" xlink:title=" ">
<polygon fill="white" stroke="transparent" points="340,-351 182,-351 182,-231 340,-231 340,-351"/>
<text text-anchor="start" x="188.5" y="-339" font-family="Helvetica,sans-Serif" font-size="10.00">Ponca::QueryOutputIsNearest</text>
<text text-anchor="start" x="191" y="-328" font-family="Helvetica,sans-Serif" font-size="10.00">&lt; Index, DataPoint::Scalar &gt;</text>
<text text-anchor="start" x="186" y="-313" font-family="Helvetica,sans-Serif" font-size="10.00">#</text>
<text text-anchor="start" x="199" y="-313" font-family="Helvetica,sans-Serif" font-size="10.00">m_nearest</text>
<text text-anchor="start" x="186" y="-298" font-family="Helvetica,sans-Serif" font-size="10.00">#</text>
<text text-anchor="start" x="199" y="-298" font-family="Helvetica,sans-Serif" font-size="10.00">m_squared_distance</text>
<text text-anchor="start" x="186" y="-283" font-family="Helvetica,sans-Serif" font-size="10.00">+</text>
<text text-anchor="start" x="199" y="-283" font-family="Helvetica,sans-Serif" font-size="10.00">QueryOutputIsNearest()</text>
<text text-anchor="start" x="186" y="-268" font-family="Helvetica,sans-Serif" font-size="10.00">+</text>
<text text-anchor="start" x="199" y="-268" font-family="Helvetica,sans-Serif" font-size="10.00">get()</text>
<text text-anchor="start" x="186" y="-253" font-family="Helvetica,sans-Serif" font-size="10.00">#</text>
<text text-anchor="start" x="199" y="-253" font-family="Helvetica,sans-Serif" font-size="10.00">reset()</text>
<text text-anchor="start" x="186" y="-238" font-family="Helvetica,sans-Serif" font-size="10.00">#</text>
<text text-anchor="start" x="199" y="-238" font-family="Helvetica,sans-Serif" font-size="10.00">descentDistanceThreshold()</text>
<polygon fill="#666666" stroke="#666666" points="182,-323 182,-323 340,-323 340,-323 182,-323"/>
<polygon fill="#666666" stroke="#666666" points="182,-293 182,-293 197,-293 197,-293 182,-293"/>
<polygon fill="#666666" stroke="#666666" points="197,-293 197,-293 340,-293 340,-293 197,-293"/>
<polygon fill="none" stroke="#666666" points="182,-231 182,-351 340,-351 340,-231 182,-231"/>
</a>
</g>
</g>
<!-- Node1&#45;&gt;Node5 -->
<g id="edge4_Node000001_Node000005" class="edge">
<title>Node1&#45;&gt;Node5</title>
<g id="a_edge4_Node000001_Node000005"><a xlink:title=" ">
<path fill="none" stroke="orange" d="M205.97,-399.62C214.13,-383.65 222.76,-366.77 230.71,-351.24"/>
<polygon fill="orange" stroke="orange" points="202.66,-398.41 201.22,-408.9 208.89,-401.6 202.66,-398.41"/>
</a>
</g>
<text text-anchor="start" x="222" y="-383" font-family="Helvetica,sans-Serif" font-size="10.00" fill="grey"> &lt; Index, DataPoint</text>
<text text-anchor="middle" x="270" y="-372" font-family="Helvetica,sans-Serif" font-size="10.00" fill="grey">::Scalar &gt;</text>
</g>
<!-- Node2 -->
<g id="Node000002" class="node">
<title>Node2</title>
<g id="a_Node000002"><a xlink:href="group__spatialpartitioning.html#structPonca_1_1QueryOutputBase" target="_top" xlink:title="Base class for queries output type.">
<polygon fill="white" stroke="transparent" points="237,-615 105,-615 105,-566 237,-566 237,-615"/>
<text text-anchor="start" x="110" y="-602.5" font-family="Helvetica,sans-Serif" font-size="10.00">Ponca::QueryOutputBase</text>
<text text-anchor="start" x="169" y="-587.5" font-family="Helvetica,sans-Serif" font-size="10.00"> </text>
<text text-anchor="start" x="169" y="-572.5" font-family="Helvetica,sans-Serif" font-size="10.00"> </text>
<polygon fill="#666666" stroke="#666666" points="105,-597.5 105,-597.5 237,-597.5 237,-597.5 105,-597.5"/>
<polygon fill="#666666" stroke="#666666" points="105,-582.5 105,-582.5 237,-582.5 237,-582.5 105,-582.5"/>
<polygon fill="none" stroke="#666666" points="105,-566 105,-615 237,-615 237,-566 105,-566"/>
</a>
</g>
</g>
<!-- Node2&#45;&gt;Node1 -->
<g id="edge1_Node000001_Node000002" class="edge">
<title>Node2&#45;&gt;Node1</title>
<g id="a_edge1_Node000001_Node000002"><a xlink:title=" ">
<path fill="none" stroke="#63b8ff" d="M171,-555.86C171,-547.54 171,-538.37 171,-529.22"/>
<polygon fill="none" stroke="#63b8ff" points="167.5,-555.89 171,-565.89 174.5,-555.89 167.5,-555.89"/>
</a>
</g>
</g>
<!-- Node4 -->
<g id="Node000004" class="node">
<title>Node4</title>
<g id="a_Node000004"><a xlink:href="group__spatialpartitioning.html#structPonca_1_1NearestIndexQuery" target="_top" xlink:title="Base Query class combining QueryInputIsIndex and QueryOutputIsNearest.">
<polygon fill="white" stroke="transparent" points="152,-175.5 12,-175.5 12,-115.5 152,-115.5 152,-175.5"/>
<text text-anchor="start" x="17" y="-163.5" font-family="Helvetica,sans-Serif" font-size="10.00">Ponca::NearestIndexQuery</text>
<text text-anchor="start" x="39" y="-152.5" font-family="Helvetica,sans-Serif" font-size="10.00">&lt; Index, Scalar &gt;</text>
<text text-anchor="start" x="80" y="-137.5" font-family="Helvetica,sans-Serif" font-size="10.00"> </text>
<text text-anchor="start" x="80" y="-122.5" font-family="Helvetica,sans-Serif" font-size="10.00"> </text>
<polygon fill="#666666" stroke="#666666" points="12,-147.5 12,-147.5 152,-147.5 152,-147.5 12,-147.5"/>
<polygon fill="#666666" stroke="#666666" points="12,-132.5 12,-132.5 152,-132.5 152,-132.5 12,-132.5"/>
<polygon fill="none" stroke="#666666" points="12,-115.5 12,-175.5 152,-175.5 152,-115.5 12,-115.5"/>
</a>
</g>
</g>
<!-- Node3&#45;&gt;Node4 -->
<g id="edge3_Node000003_Node000004" class="edge">
<title>Node3&#45;&gt;Node4</title>
<g id="a_edge3_Node000003_Node000004"><a xlink:title=" ">
<path fill="none" stroke="#63b8ff" d="M82,-237.7C82,-216.82 82,-193.56 82,-175.76"/>
<polygon fill="none" stroke="#63b8ff" points="78.5,-237.72 82,-247.72 85.5,-237.72 78.5,-237.72"/>
</a>
</g>
</g>
<!-- Node6 -->
<g id="Node000006" class="node">
<title>Node6</title>
<g id="a_Node000006"><a xlink:href="group__spatialpartitioning.html" target="_top" xlink:title=" ">
<polygon fill="white" stroke="transparent" points="341.5,-194 180.5,-194 180.5,-97 341.5,-97 341.5,-194"/>
<text text-anchor="start" x="186" y="-181.5" font-family="Helvetica,sans-Serif" font-size="10.00">Ponca::Query&lt; QueryInput</text>
<text text-anchor="start" x="186" y="-170.5" font-family="Helvetica,sans-Serif" font-size="10.00">IsPosition&lt; DataPoint</text>
<text text-anchor="start" x="186" y="-159.5" font-family="Helvetica,sans-Serif" font-size="10.00"> &gt;, QueryOutputIsNearest</text>
<text text-anchor="start" x="186" y="-148.5" font-family="Helvetica,sans-Serif" font-size="10.00">&lt; Index, DataPoint::Scalar &gt; &gt;</text>
<text text-anchor="start" x="259.5" y="-133.5" font-family="Helvetica,sans-Serif" font-size="10.00"> </text>
<text text-anchor="start" x="210.5" y="-118.5" font-family="Helvetica,sans-Serif" font-size="10.00">+</text>
<text text-anchor="start" x="249" y="-118.5" font-family="Helvetica,sans-Serif" font-size="10.00">Query()</text>
<text text-anchor="start" x="210.5" y="-103.5" font-family="Helvetica,sans-Serif" font-size="10.00">+</text>
<text text-anchor="start" x="249" y="-103.5" font-family="Helvetica,sans-Serif" font-size="10.00">Query()</text>
<polygon fill="#bfbfbf" stroke="#bfbfbf" points="181,-143.5 181,-143.5 342,-143.5 342,-143.5 181,-143.5"/>
<polygon fill="#bfbfbf" stroke="#bfbfbf" points="181,-128.5 181,-128.5 342,-128.5 342,-128.5 181,-128.5"/>
<polygon fill="none" stroke="#bfbfbf" points="180.5,-97 180.5,-194 341.5,-194 341.5,-97 180.5,-97"/>
</a>
</g>
</g>
<!-- Node5&#45;&gt;Node6 -->
<g id="edge5_Node000005_Node000006" class="edge">
<title>Node5&#45;&gt;Node6</title>
<g id="a_edge5_Node000005_Node000006"><a xlink:title=" ">
<path fill="none" stroke="#63b8ff" d="M261,-220.72C261,-211.73 261,-202.7 261,-194.18"/>
<polygon fill="none" stroke="#63b8ff" points="257.5,-220.8 261,-230.8 264.5,-220.8 257.5,-220.8"/>
</a>
</g>
</g>
<!-- Node7 -->
<g id="Node000007" class="node">
<title>Node7</title>
<g id="a_Node000007"><a xlink:href="group__spatialpartitioning.html#structPonca_1_1NearestPointQuery" target="_top" xlink:title="Base Query class combining QueryInputIsPosition and QueryOutputIsNearest.">
<polygon fill="white" stroke="transparent" points="330,-60 192,-60 192,0 330,0 330,-60"/>
<text text-anchor="start" x="197" y="-48" font-family="Helvetica,sans-Serif" font-size="10.00">Ponca::NearestPointQuery</text>
<text text-anchor="start" x="209" y="-37" font-family="Helvetica,sans-Serif" font-size="10.00">&lt; Index, DataPoint &gt;</text>
<text text-anchor="start" x="259" y="-22" font-family="Helvetica,sans-Serif" font-size="10.00"> </text>
<text text-anchor="start" x="259" y="-7" font-family="Helvetica,sans-Serif" font-size="10.00"> </text>
<polygon fill="#666666" stroke="#666666" points="192,-32 192,-32 330,-32 330,-32 192,-32"/>
<polygon fill="#666666" stroke="#666666" points="192,-17 192,-17 330,-17 330,-17 192,-17"/>
<polygon fill="none" stroke="#666666" points="192,0 192,-60 330,-60 330,0 192,0"/>
</a>
</g>
</g>
<!-- Node6&#45;&gt;Node7 -->
<g id="edge6_Node000006_Node000007" class="edge">
<title>Node6&#45;&gt;Node7</title>
<g id="a_edge6_Node000006_Node000007"><a xlink:title=" ">
<path fill="none" stroke="#63b8ff" d="M261,-86.48C261,-77.4 261,-68.36 261,-60.3"/>
<polygon fill="none" stroke="#63b8ff" points="257.5,-86.69 261,-96.69 264.5,-86.69 257.5,-86.69"/>
</a>
</g>
</g>
</g>
</svg>
