<?xml version="1.0" encoding="UTF-8" standalone="no"?>
<!DOCTYPE svg PUBLIC "-//W3C//DTD SVG 1.1//EN"
 "http://www.w3.org/Graphics/SVG/1.1/DTD/svg11.dtd">
<!-- Generated by graphviz version 2.43.0 (0)
 -->
<!-- Title: Ponca::KNearestIndexQuery&lt; Index, Scalar &gt; Pages: 1 -->
<svg width="663pt" height="1104pt"
 viewBox="0.00 0.00 662.50 1104.00" xmlns="http://www.w3.org/2000/svg" xmlns:xlink="http://www.w3.org/1999/xlink">
<g id="graph0" class="graph" transform="scale(1 1) rotate(0) translate(4 1100)">
<title>Ponca::KNearestIndexQuery&lt; Index, Scalar &gt;</title>
<!-- Node1 -->
<g id="node1" class="node">
<title>Node1</title>
<g id="a_node1"><a xlink:title="Base Query class combining QueryInputIsIndex and QueryOutputIsKNearest.">
<polygon fill="#999999" stroke="#666666" points="299.5,-0.5 299.5,-68.5 452.5,-68.5 452.5,-0.5 299.5,-0.5"/>
<text text-anchor="start" x="307.5" y="-56.5" font-family="Helvetica,sans-Serif" font-size="10.00">Ponca::KNearestIndexQuery</text>
<text text-anchor="middle" x="376" y="-45.5" font-family="Helvetica,sans-Serif" font-size="10.00">&lt; Index, Scalar &gt;</text>
<polyline fill="none" stroke="#666666" points="299.5,-38.5 452.5,-38.5 "/>
<text text-anchor="middle" x="376" y="-26.5" font-family="Helvetica,sans-Serif" font-size="10.00"> </text>
<polyline fill="none" stroke="#666666" points="299.5,-19.5 452.5,-19.5 "/>
<text text-anchor="middle" x="376" y="-7.5" font-family="Helvetica,sans-Serif" font-size="10.00"> </text>
</a>
</g>
</g>
<!-- Node2 -->
<g id="node2" class="node">
<title>Node2</title>
<g id="a_node2"><a xlink:href="group__spatialpartitioning.html" target="_top" xlink:title=" ">
<polygon fill="white" stroke="#bfbfbf" points="291,-106.5 291,-196.5 461,-196.5 461,-106.5 291,-106.5"/>
<text text-anchor="start" x="299" y="-184.5" font-family="Helvetica,sans-Serif" font-size="10.00">Ponca::Query&lt; QueryInput</text>
<text text-anchor="start" x="299" y="-173.5" font-family="Helvetica,sans-Serif" font-size="10.00">IsIndex&lt; Index &gt;, QueryOutput</text>
<text text-anchor="middle" x="376" y="-162.5" font-family="Helvetica,sans-Serif" font-size="10.00">IsKNearest&lt; Index, Scalar &gt; &gt;</text>
<polyline fill="none" stroke="#bfbfbf" points="291,-155.5 461,-155.5 "/>
<text text-anchor="middle" x="376" y="-143.5" font-family="Helvetica,sans-Serif" font-size="10.00"> </text>
<polyline fill="none" stroke="#bfbfbf" points="291,-136.5 461,-136.5 "/>
<text text-anchor="start" x="299" y="-124.5" font-family="Helvetica,sans-Serif" font-size="10.00">+ Query()</text>
<text text-anchor="start" x="299" y="-113.5" font-family="Helvetica,sans-Serif" font-size="10.00">+ Query()</text>
</a>
</g>
</g>
<!-- Node2&#45;&gt;Node1 -->
<g id="edge1" class="edge">
<title>Node2&#45;&gt;Node1</title>
<path fill="none" stroke="#63b8ff" d="M376,-96.23C376,-86.8 376,-77.26 376,-68.62"/>
<polygon fill="none" stroke="#63b8ff" points="372.5,-96.37 376,-106.37 379.5,-96.37 372.5,-96.37"/>
</g>
<!-- Node3 -->
<g id="node3" class="node">
<title>Node3</title>
<g id="a_node3"><a xlink:href="group__spatialpartitioning.html#structPonca_1_1QueryInputIsIndex" target="_top" xlink:title="Base class for queries storing points.">
<polygon fill="white" stroke="#666666" points="88.5,-272 88.5,-362 229.5,-362 229.5,-272 88.5,-272"/>
<text text-anchor="start" x="96.5" y="-350" font-family="Helvetica,sans-Serif" font-size="10.00">Ponca::QueryInputIsIndex</text>
<text text-anchor="middle" x="159" y="-339" font-family="Helvetica,sans-Serif" font-size="10.00">&lt; Index &gt;</text>
<polyline fill="none" stroke="#666666" points="88.5,-332 229.5,-332 "/>
<text text-anchor="middle" x="159" y="-320" font-family="Helvetica,sans-Serif" font-size="10.00"> </text>
<polyline fill="none" stroke="#666666" points="88.5,-313 229.5,-313 "/>
<text text-anchor="start" x="96.5" y="-301" font-family="Helvetica,sans-Serif" font-size="10.00">+ QueryInputIsIndex()</text>
<text text-anchor="start" x="96.5" y="-290" font-family="Helvetica,sans-Serif" font-size="10.00"># skipIndexFunctor()</text>
<text text-anchor="start" x="96.5" y="-279" font-family="Helvetica,sans-Serif" font-size="10.00"># getInputPosition()</text>
</a>
</g>
</g>
<!-- Node3&#45;&gt;Node2 -->
<g id="edge2" class="edge">
<title>Node3&#45;&gt;Node2</title>
<path fill="none" stroke="#63b8ff" d="M225.58,-265.84C254.92,-243.73 289.1,-217.97 317.46,-196.61"/>
<polygon fill="none" stroke="#63b8ff" points="223.32,-263.16 217.44,-271.97 227.53,-268.75 223.32,-263.16"/>
</g>
<!-- Node4 -->
<g id="node4" class="node">
<title>Node4</title>
<g id="a_node4"><a xlink:href="group__spatialpartitioning.html" target="_top" xlink:title=" ">
<polygon fill="white" stroke="#666666" points="20,-470.5 20,-560.5 134,-560.5 134,-470.5 20,-470.5"/>
<text text-anchor="start" x="28" y="-548.5" font-family="Helvetica,sans-Serif" font-size="10.00">Ponca::QueryInput&lt;</text>
<text text-anchor="middle" x="77" y="-537.5" font-family="Helvetica,sans-Serif" font-size="10.00"> Index &gt;</text>
<polyline fill="none" stroke="#666666" points="20,-530.5 134,-530.5 "/>
<text text-anchor="middle" x="77" y="-518.5" font-family="Helvetica,sans-Serif" font-size="10.00"> </text>
<polyline fill="none" stroke="#666666" points="20,-511.5 134,-511.5 "/>
<text text-anchor="start" x="28" y="-499.5" font-family="Helvetica,sans-Serif" font-size="10.00">+ QueryInput()</text>
<text text-anchor="start" x="28" y="-488.5" font-family="Helvetica,sans-Serif" font-size="10.00">+ input()</text>
<text text-anchor="start" x="28" y="-477.5" font-family="Helvetica,sans-Serif" font-size="10.00"># editInput()</text>
</a>
</g>
</g>
<!-- Node4&#45;&gt;Node3 -->
<g id="edge3" class="edge">
<title>Node4&#45;&gt;Node3</title>
<path fill="none" stroke="#63b8ff" d="M99.3,-461.05C112.23,-430.08 128.3,-391.56 140.52,-362.29"/>
<polygon fill="none" stroke="#63b8ff" points="96.02,-459.82 95.4,-470.4 102.48,-462.52 96.02,-459.82"/>
</g>
<!-- Node5 -->
<g id="node5" class="node">
<title>Node5</title>
<g id="a_node5"><a xlink:href="group__spatialpartitioning.html#structPonca_1_1QueryInputBase" target="_top" xlink:title="Base class for queries input type.">
<polygon fill="white" stroke="#666666" points="0,-933.5 0,-990.5 130,-990.5 130,-933.5 0,-933.5"/>
<text text-anchor="middle" x="65" y="-978.5" font-family="Helvetica,sans-Serif" font-size="10.00">Ponca::QueryInputBase</text>
<polyline fill="none" stroke="#666666" points="0,-971.5 130,-971.5 "/>
<text text-anchor="middle" x="65" y="-959.5" font-family="Helvetica,sans-Serif" font-size="10.00"> </text>
<polyline fill="none" stroke="#666666" points="0,-952.5 130,-952.5 "/>
<text text-anchor="middle" x="65" y="-940.5" font-family="Helvetica,sans-Serif" font-size="10.00"> </text>
</a>
</g>
</g>
<!-- Node5&#45;&gt;Node4 -->
<g id="edge4" class="edge">
<title>Node5&#45;&gt;Node4</title>
<path fill="none" stroke="#63b8ff" d="M63.38,-922.74C62.82,-907.84 62.27,-890.63 62,-875 60.44,-785.68 57.76,-763.23 62,-674 63.82,-635.59 68.14,-592.09 71.68,-560.55"/>
<polygon fill="none" stroke="#63b8ff" points="59.9,-923.26 63.78,-933.12 66.89,-922.99 59.9,-923.26"/>
</g>
<!-- Node6 -->
<g id="node6" class="node">
<title>Node6</title>
<g id="a_node6"><a xlink:href="group__spatialpartitioning.html#structPonca_1_1QueryInput" target="_top" xlink:title="Base class for typed queries input type.">
<polygon fill="white" stroke="#666666" points="71,-729.5 71,-819.5 185,-819.5 185,-729.5 71,-729.5"/>
<text text-anchor="start" x="79" y="-807.5" font-family="Helvetica,sans-Serif" font-size="10.00">Ponca::QueryInput&lt;</text>
<text text-anchor="middle" x="128" y="-796.5" font-family="Helvetica,sans-Serif" font-size="10.00"> InputType_ &gt;</text>
<polyline fill="none" stroke="#666666" points="71,-789.5 185,-789.5 "/>
<text text-anchor="middle" x="128" y="-777.5" font-family="Helvetica,sans-Serif" font-size="10.00"> </text>
<polyline fill="none" stroke="#666666" points="71,-770.5 185,-770.5 "/>
<text text-anchor="start" x="79" y="-758.5" font-family="Helvetica,sans-Serif" font-size="10.00">+ QueryInput()</text>
<text text-anchor="start" x="79" y="-747.5" font-family="Helvetica,sans-Serif" font-size="10.00">+ input()</text>
<text text-anchor="start" x="79" y="-736.5" font-family="Helvetica,sans-Serif" font-size="10.00"># editInput()</text>
</a>
</g>
</g>
<!-- Node5&#45;&gt;Node6 -->
<g id="edge6" class="edge">
<title>Node5&#45;&gt;Node6</title>
<path fill="none" stroke="#63b8ff" d="M77.72,-923.55C87.91,-893.54 102.23,-851.36 112.99,-819.7"/>
<polygon fill="none" stroke="#63b8ff" points="74.33,-922.63 74.43,-933.23 80.96,-924.89 74.33,-922.63"/>
</g>
<!-- Node6&#45;&gt;Node4 -->
<g id="edge5" class="edge">
<title>Node6&#45;&gt;Node4</title>
<path fill="none" stroke="orange" d="M117.24,-719.27C107.87,-672.06 94.46,-604.47 85.74,-560.53"/>
<polygon fill="orange" stroke="orange" points="113.85,-720.19 119.23,-729.32 120.72,-718.83 113.85,-720.19"/>
<text text-anchor="middle" x="131.5" y="-642.5" font-family="Helvetica,sans-Serif" font-size="10.00"> &lt; Index &gt;</text>
</g>
<!-- Node7 -->
<g id="node7" class="node">
<title>Node7</title>
<g id="a_node7"><a xlink:href="group__spatialpartitioning.html#structPonca_1_1QueryOutputIsKNearest" target="_top" xlink:title="Base class for knearest queries.">
<polygon fill="white" stroke="#666666" points="292.5,-266.5 292.5,-367.5 459.5,-367.5 459.5,-266.5 292.5,-266.5"/>
<text text-anchor="start" x="300.5" y="-355.5" font-family="Helvetica,sans-Serif" font-size="10.00">Ponca::QueryOutputIsKNearest</text>
<text text-anchor="middle" x="376" y="-344.5" font-family="Helvetica,sans-Serif" font-size="10.00">&lt; Index, Scalar &gt;</text>
<polyline fill="none" stroke="#666666" points="292.5,-337.5 459.5,-337.5 "/>
<text text-anchor="middle" x="376" y="-325.5" font-family="Helvetica,sans-Serif" font-size="10.00"> </text>
<polyline fill="none" stroke="#666666" points="292.5,-318.5 459.5,-318.5 "/>
<text text-anchor="start" x="300.5" y="-306.5" font-family="Helvetica,sans-Serif" font-size="10.00">+ QueryOutputIsKNearest()</text>
<text text-anchor="start" x="300.5" y="-295.5" font-family="Helvetica,sans-Serif" font-size="10.00">+ queue()</text>
<text text-anchor="start" x="300.5" y="-284.5" font-family="Helvetica,sans-Serif" font-size="10.00"># reset()</text>
<text text-anchor="start" x="300.5" y="-273.5" font-family="Helvetica,sans-Serif" font-size="10.00"># descentDistanceThreshold()</text>
</a>
</g>
</g>
<!-- Node7&#45;&gt;Node2 -->
<g id="edge7" class="edge">
<title>Node7&#45;&gt;Node2</title>
<path fill="none" stroke="#63b8ff" d="M376,-255.97C376,-236.31 376,-214.85 376,-196.6"/>
<polygon fill="none" stroke="#63b8ff" points="372.5,-256.06 376,-266.06 379.5,-256.06 372.5,-256.06"/>
</g>
<!-- Node8 -->
<g id="node8" class="node">
<title>Node8</title>
<g id="a_node8"><a xlink:href="group__spatialpartitioning.html#structPonca_1_1QueryOutputBase" target="_top" xlink:title="Base class for queries output type.">
<polygon fill="white" stroke="#666666" points="152,-487 152,-544 290,-544 290,-487 152,-487"/>
<text text-anchor="middle" x="221" y="-532" font-family="Helvetica,sans-Serif" font-size="10.00">Ponca::QueryOutputBase</text>
<polyline fill="none" stroke="#666666" points="152,-525 290,-525 "/>
<text text-anchor="middle" x="221" y="-513" font-family="Helvetica,sans-Serif" font-size="10.00"> </text>
<polyline fill="none" stroke="#666666" points="152,-506 290,-506 "/>
<text text-anchor="middle" x="221" y="-494" font-family="Helvetica,sans-Serif" font-size="10.00"> </text>
</a>
</g>
</g>
<!-- Node8&#45;&gt;Node7 -->
<g id="edge8" class="edge">
<title>Node8&#45;&gt;Node7</title>
<path fill="none" stroke="#63b8ff" d="M249.13,-478.51C263.94,-459.59 282.42,-436.02 299,-415 311.12,-399.64 324.35,-382.94 336.37,-367.8"/>
<polygon fill="none" stroke="#63b8ff" points="246.21,-476.55 242.81,-486.59 251.73,-480.87 246.21,-476.55"/>
</g>
<!-- Node9 -->
<g id="node9" class="node">
<title>Node9</title>
<g id="a_node9"><a xlink:href="classPonca_1_1limited__priority__queue.html" target="_top" xlink:title=" ">
<polygon fill="white" stroke="#666666" points="308,-415.5 308,-615.5 516,-615.5 516,-415.5 308,-415.5"/>
<text text-anchor="start" x="316" y="-603.5" font-family="Helvetica,sans-Serif" font-size="10.00">Ponca::limited_priority</text>
<text text-anchor="start" x="316" y="-592.5" font-family="Helvetica,sans-Serif" font-size="10.00">_queue&lt; Ponca::IndexSquaredDistance</text>
<text text-anchor="middle" x="412" y="-581.5" font-family="Helvetica,sans-Serif" font-size="10.00">&lt; Index, Scalar &gt; &gt;</text>
<polyline fill="none" stroke="#666666" points="308,-574.5 516,-574.5 "/>
<text text-anchor="start" x="316" y="-562.5" font-family="Helvetica,sans-Serif" font-size="10.00"># m_comp</text>
<text text-anchor="start" x="316" y="-551.5" font-family="Helvetica,sans-Serif" font-size="10.00"># m_size</text>
<polyline fill="none" stroke="#666666" points="308,-544.5 516,-544.5 "/>
<text text-anchor="start" x="316" y="-532.5" font-family="Helvetica,sans-Serif" font-size="10.00">+ limited_priority_queue()</text>
<text text-anchor="start" x="316" y="-521.5" font-family="Helvetica,sans-Serif" font-size="10.00">+ limited_priority_queue()</text>
<text text-anchor="start" x="316" y="-510.5" font-family="Helvetica,sans-Serif" font-size="10.00">+ limited_priority_queue()</text>
<text text-anchor="start" x="316" y="-499.5" font-family="Helvetica,sans-Serif" font-size="10.00">+ limited_priority_queue()</text>
<text text-anchor="start" x="316" y="-488.5" font-family="Helvetica,sans-Serif" font-size="10.00">+ ~limited_priority_queue()</text>
<text text-anchor="start" x="316" y="-477.5" font-family="Helvetica,sans-Serif" font-size="10.00">+ operator=()</text>
<text text-anchor="start" x="316" y="-466.5" font-family="Helvetica,sans-Serif" font-size="10.00">+ begin()</text>
<text text-anchor="start" x="316" y="-455.5" font-family="Helvetica,sans-Serif" font-size="10.00">+ begin()</text>
<text text-anchor="start" x="316" y="-444.5" font-family="Helvetica,sans-Serif" font-size="10.00">+ cbegin()</text>
<text text-anchor="start" x="316" y="-433.5" font-family="Helvetica,sans-Serif" font-size="10.00">+ end()</text>
<text text-anchor="start" x="316" y="-422.5" font-family="Helvetica,sans-Serif" font-size="10.00">and 16 more...</text>
</a>
</g>
</g>
<!-- Node9&#45;&gt;Node7 -->
<g id="edge9" class="edge">
<title>Node9&#45;&gt;Node7</title>
<path fill="none" stroke="#404040" d="M393.84,-415.39C391.61,-403.2 389.38,-391.03 387.29,-379.63"/>
<polygon fill="none" stroke="#404040" points="387.25,-379.39 382.23,-374.21 385.09,-367.59 390.1,-372.77 387.25,-379.39"/>
<text text-anchor="middle" x="418.5" y="-389" font-family="Helvetica,sans-Serif" font-size="10.00"> #m_queue</text>
</g>
<!-- Node10 -->
<g id="node10" class="node">
<title>Node10</title>
<g id="a_node10"><a xlink:title=" ">
<polygon fill="white" stroke="#666666" points="219,-735 219,-814 351,-814 351,-735 219,-735"/>
<text text-anchor="start" x="227" y="-802" font-family="Helvetica,sans-Serif" font-size="10.00">std::vector&lt; Ponca</text>
<text text-anchor="start" x="227" y="-791" font-family="Helvetica,sans-Serif" font-size="10.00">::IndexSquaredDistance</text>
<text text-anchor="middle" x="285" y="-780" font-family="Helvetica,sans-Serif" font-size="10.00">&lt; Index, Scalar &gt; &gt;</text>
<polyline fill="none" stroke="#666666" points="219,-773 351,-773 "/>
<text text-anchor="start" x="227" y="-761" font-family="Helvetica,sans-Serif" font-size="10.00">+ elements</text>
<polyline fill="none" stroke="#666666" points="219,-754 351,-754 "/>
<text text-anchor="middle" x="285" y="-742" font-family="Helvetica,sans-Serif" font-size="10.00"> </text>
</a>
</g>
</g>
<!-- Node10&#45;&gt;Node9 -->
<g id="edge10" class="edge">
<title>Node10&#45;&gt;Node9</title>
<path fill="none" stroke="#404040" d="M304.15,-734.75C318.4,-705.91 338.61,-665.02 357.68,-626.42"/>
<polygon fill="none" stroke="#404040" points="357.71,-626.36 356.78,-619.21 363.03,-615.61 363.95,-622.76 357.71,-626.36"/>
<text text-anchor="middle" x="369" y="-642.5" font-family="Helvetica,sans-Serif" font-size="10.00"> #m_c</text>
</g>
<!-- Node11 -->
<g id="node11" class="node">
<title>Node11</title>
<g id="a_node11"><a xlink:title=" ">
<polygon fill="white" stroke="#666666" points="236.5,-933.5 236.5,-990.5 333.5,-990.5 333.5,-933.5 236.5,-933.5"/>
<text text-anchor="middle" x="285" y="-978.5" font-family="Helvetica,sans-Serif" font-size="10.00">std::vector&lt; T &gt;</text>
<polyline fill="none" stroke="#666666" points="236.5,-971.5 333.5,-971.5 "/>
<text text-anchor="middle" x="285" y="-959.5" font-family="Helvetica,sans-Serif" font-size="10.00"> </text>
<polyline fill="none" stroke="#666666" points="236.5,-952.5 333.5,-952.5 "/>
<text text-anchor="middle" x="285" y="-940.5" font-family="Helvetica,sans-Serif" font-size="10.00"> </text>
</a>
</g>
</g>
<!-- Node11&#45;&gt;Node10 -->
<g id="edge11" class="edge">
<title>Node11&#45;&gt;Node10</title>
<path fill="none" stroke="orange" d="M285,-923C285,-891.22 285,-846.08 285,-814.12"/>
<polygon fill="orange" stroke="orange" points="281.5,-923.23 285,-933.23 288.5,-923.23 281.5,-923.23"/>
<text text-anchor="start" x="285" y="-907" font-family="Helvetica,sans-Serif" font-size="10.00"> &lt; Ponca::IndexSquaredDistance</text>
<text text-anchor="middle" x="365" y="-896" font-family="Helvetica,sans-Serif" font-size="10.00">&lt; Index, Scalar &gt; &gt;</text>
</g>
<!-- Node12 -->
<g id="node12" class="node">
<title>Node12</title>
<g id="a_node12"><a xlink:title=" ">
<polygon fill="white" stroke="#bfbfbf" points="270.5,-1038.5 270.5,-1095.5 299.5,-1095.5 299.5,-1038.5 270.5,-1038.5"/>
<text text-anchor="middle" x="285" y="-1083.5" font-family="Helvetica,sans-Serif" font-size="10.00">T</text>
<polyline fill="none" stroke="#bfbfbf" points="270.5,-1076.5 299.5,-1076.5 "/>
<text text-anchor="middle" x="285" y="-1064.5" font-family="Helvetica,sans-Serif" font-size="10.00"> </text>
<polyline fill="none" stroke="#bfbfbf" points="270.5,-1057.5 299.5,-1057.5 "/>
<text text-anchor="middle" x="285" y="-1045.5" font-family="Helvetica,sans-Serif" font-size="10.00"> </text>
</a>
</g>
</g>
<!-- Node12&#45;&gt;Node11 -->
<g id="edge12" class="edge">
<title>Node12&#45;&gt;Node11</title>
<path fill="none" stroke="#404040" d="M285,-1038.4C285,-1027.55 285,-1014.87 285,-1003.05"/>
<polygon fill="none" stroke="#404040" points="285,-1002.68 281,-996.68 285,-990.68 289,-996.68 285,-1002.68"/>
<text text-anchor="middle" x="314" y="-1012" font-family="Helvetica,sans-Serif" font-size="10.00"> +elements</text>
</g>
<!-- Node13 -->
<g id="node13" class="node">
<title>Node13</title>
<g id="a_node13"><a xlink:href="classPonca_1_1limited__priority__queue.html" target="_top" xlink:title="The limited_priority_queue class is similar to std::priority_queue but has a limited capacity and han...">
<polygon fill="white" stroke="#666666" points="369,-674.5 369,-874.5 523,-874.5 523,-674.5 369,-674.5"/>
<text text-anchor="start" x="377" y="-862.5" font-family="Helvetica,sans-Serif" font-size="10.00">Ponca::limited_priority</text>
<text text-anchor="middle" x="446" y="-851.5" font-family="Helvetica,sans-Serif" font-size="10.00">_queue&lt; T, CompareT &gt;</text>
<polyline fill="none" stroke="#666666" points="369,-844.5 523,-844.5 "/>
<text text-anchor="start" x="377" y="-832.5" font-family="Helvetica,sans-Serif" font-size="10.00"># m_c</text>
<text text-anchor="start" x="377" y="-821.5" font-family="Helvetica,sans-Serif" font-size="10.00"># m_comp</text>
<text text-anchor="start" x="377" y="-810.5" font-family="Helvetica,sans-Serif" font-size="10.00"># m_size</text>
<polyline fill="none" stroke="#666666" points="369,-803.5 523,-803.5 "/>
<text text-anchor="start" x="377" y="-791.5" font-family="Helvetica,sans-Serif" font-size="10.00">+ limited_priority_queue()</text>
<text text-anchor="start" x="377" y="-780.5" font-family="Helvetica,sans-Serif" font-size="10.00">+ limited_priority_queue()</text>
<text text-anchor="start" x="377" y="-769.5" font-family="Helvetica,sans-Serif" font-size="10.00">+ limited_priority_queue()</text>
<text text-anchor="start" x="377" y="-758.5" font-family="Helvetica,sans-Serif" font-size="10.00">+ limited_priority_queue()</text>
<text text-anchor="start" x="377" y="-747.5" font-family="Helvetica,sans-Serif" font-size="10.00">+ ~limited_priority_queue()</text>
<text text-anchor="start" x="377" y="-736.5" font-family="Helvetica,sans-Serif" font-size="10.00">+ operator=()</text>
<text text-anchor="start" x="377" y="-725.5" font-family="Helvetica,sans-Serif" font-size="10.00">+ begin()</text>
<text text-anchor="start" x="377" y="-714.5" font-family="Helvetica,sans-Serif" font-size="10.00">+ begin()</text>
<text text-anchor="start" x="377" y="-703.5" font-family="Helvetica,sans-Serif" font-size="10.00">+ cbegin()</text>
<text text-anchor="start" x="377" y="-692.5" font-family="Helvetica,sans-Serif" font-size="10.00">+ end()</text>
<text text-anchor="start" x="377" y="-681.5" font-family="Helvetica,sans-Serif" font-size="10.00">and 16 more...</text>
</a>
</g>
</g>
<!-- Node13&#45;&gt;Node9 -->
<g id="edge13" class="edge">
<title>Node13&#45;&gt;Node9</title>
<path fill="none" stroke="orange" d="M431.53,-664.16C429.4,-648.04 427.21,-631.5 425.11,-615.6"/>
<polygon fill="orange" stroke="orange" points="428.07,-664.68 432.85,-674.14 435.01,-663.76 428.07,-664.68"/>
<text text-anchor="start" x="431" y="-648" font-family="Helvetica,sans-Serif" font-size="10.00"> &lt; Ponca::IndexSquaredDistance</text>
<text text-anchor="middle" x="511" y="-637" font-family="Helvetica,sans-Serif" font-size="10.00">&lt; Index, Scalar &gt; &gt;</text>
</g>
<!-- Node14 -->
<g id="node14" class="node">
<title>Node14</title>
<g id="a_node14"><a xlink:href="group__spatialpartitioning.html#structPonca_1_1Query" target="_top" xlink:title=" ">
<polygon fill="white" stroke="#bfbfbf" points="499.5,-277.5 499.5,-356.5 616.5,-356.5 616.5,-277.5 499.5,-277.5"/>
<text text-anchor="start" x="507.5" y="-344.5" font-family="Helvetica,sans-Serif" font-size="10.00">Ponca::Query&lt; Input</text>
<text text-anchor="middle" x="558" y="-333.5" font-family="Helvetica,sans-Serif" font-size="10.00">_, Output_ &gt;</text>
<polyline fill="none" stroke="#bfbfbf" points="499.5,-326.5 616.5,-326.5 "/>
<text text-anchor="middle" x="558" y="-314.5" font-family="Helvetica,sans-Serif" font-size="10.00"> </text>
<polyline fill="none" stroke="#bfbfbf" points="499.5,-307.5 616.5,-307.5 "/>
<text text-anchor="start" x="507.5" y="-295.5" font-family="Helvetica,sans-Serif" font-size="10.00">+ Query()</text>
<text text-anchor="start" x="507.5" y="-284.5" font-family="Helvetica,sans-Serif" font-size="10.00">+ Query()</text>
</a>
</g>
</g>
<!-- Node14&#45;&gt;Node2 -->
<g id="edge14" class="edge">
<title>Node14&#45;&gt;Node2</title>
<path fill="none" stroke="orange" d="M507.11,-270.28C481.51,-247.28 450.62,-219.53 425.25,-196.75"/>
<polygon fill="orange" stroke="orange" points="505.09,-273.17 514.87,-277.25 509.77,-267.97 505.09,-273.17"/>
<text text-anchor="start" x="478" y="-240" font-family="Helvetica,sans-Serif" font-size="10.00"> &lt; QueryInputIsIndex</text>
<text text-anchor="start" x="478" y="-229" font-family="Helvetica,sans-Serif" font-size="10.00">&lt; Index &gt;, QueryOutputIsKNearest</text>
<text text-anchor="middle" x="564" y="-218" font-family="Helvetica,sans-Serif" font-size="10.00">&lt; Index, Scalar &gt; &gt;</text>
</g>
<!-- Node15 -->
<g id="node15" class="node">
<title>Node15</title>
<g id="a_node15"><a xlink:title=" ">
<polygon fill="white" stroke="#bfbfbf" points="534.5,-487 534.5,-544 581.5,-544 581.5,-487 534.5,-487"/>
<text text-anchor="middle" x="558" y="-532" font-family="Helvetica,sans-Serif" font-size="10.00">Input_</text>
<polyline fill="none" stroke="#bfbfbf" points="534.5,-525 581.5,-525 "/>
<text text-anchor="middle" x="558" y="-513" font-family="Helvetica,sans-Serif" font-size="10.00"> </text>
<polyline fill="none" stroke="#bfbfbf" points="534.5,-506 581.5,-506 "/>
<text text-anchor="middle" x="558" y="-494" font-family="Helvetica,sans-Serif" font-size="10.00"> </text>
</a>
</g>
</g>
<!-- Node15&#45;&gt;Node14 -->
<g id="edge15" class="edge">
<title>Node15&#45;&gt;Node14</title>
<path fill="none" stroke="#63b8ff" d="M558,-476.62C558,-442.15 558,-391.5 558,-356.76"/>
<polygon fill="none" stroke="#63b8ff" points="554.5,-476.76 558,-486.76 561.5,-476.76 554.5,-476.76"/>
</g>
<!-- Node16 -->
<g id="node16" class="node">
<title>Node16</title>
<g id="a_node16"><a xlink:title=" ">
<polygon fill="white" stroke="#bfbfbf" points="599.5,-487 599.5,-544 654.5,-544 654.5,-487 599.5,-487"/>
<text text-anchor="middle" x="627" y="-532" font-family="Helvetica,sans-Serif" font-size="10.00">Output_</text>
<polyline fill="none" stroke="#bfbfbf" points="599.5,-525 654.5,-525 "/>
<text text-anchor="middle" x="627" y="-513" font-family="Helvetica,sans-Serif" font-size="10.00"> </text>
<polyline fill="none" stroke="#bfbfbf" points="599.5,-506 654.5,-506 "/>
<text text-anchor="middle" x="627" y="-494" font-family="Helvetica,sans-Serif" font-size="10.00"> </text>
</a>
</g>
</g>
<!-- Node16&#45;&gt;Node14 -->
<g id="edge16" class="edge">
<title>Node16&#45;&gt;Node14</title>
<path fill="none" stroke="#63b8ff" d="M613.86,-477.07C601.75,-442.59 583.86,-391.65 571.61,-356.76"/>
<polygon fill="none" stroke="#63b8ff" points="610.64,-478.49 617.26,-486.76 617.25,-476.17 610.64,-478.49"/>
</g>
</g>
</svg>
