<?xml version="1.0" encoding="UTF-8" standalone="no"?>
<!DOCTYPE svg PUBLIC "-//W3C//DTD SVG 1.1//EN"
 "http://www.w3.org/Graphics/SVG/1.1/DTD/svg11.dtd">
<!-- Generated by graphviz version 2.43.0 (0)
 -->
<!-- Title: Ponca::KNearestIndexQuery&lt; Index, Scalar &gt; Pages: 1 -->
<svg width="513pt" height="1014pt"
 viewBox="0.00 0.00 512.50 1014.00" xmlns="http://www.w3.org/2000/svg" xmlns:xlink="http://www.w3.org/1999/xlink">
<g id="graph0" class="graph" transform="scale(1 1) rotate(0) translate(4 1010)">
<title>Ponca::KNearestIndexQuery&lt; Index, Scalar &gt;</title>
<!-- Node1 -->
<g id="node1" class="node">
<title>Node1</title>
<g id="a_node1"><a xlink:title="Base Query class combining QueryInputIsIndex and QueryOutputIsKNearest.">
<polygon fill="#999999" stroke="#666666" points="166,-277.5 166,-345.5 319,-345.5 319,-277.5 166,-277.5"/>
<text text-anchor="start" x="174" y="-333.5" font-family="Helvetica,sans-Serif" font-size="10.00">Ponca::KNearestIndexQuery</text>
<text text-anchor="middle" x="242.5" y="-322.5" font-family="Helvetica,sans-Serif" font-size="10.00">&lt; Index, Scalar &gt;</text>
<polyline fill="none" stroke="#666666" points="166,-315.5 319,-315.5 "/>
<text text-anchor="middle" x="242.5" y="-303.5" font-family="Helvetica,sans-Serif" font-size="10.00"> </text>
<polyline fill="none" stroke="#666666" points="166,-296.5 319,-296.5 "/>
<text text-anchor="middle" x="242.5" y="-284.5" font-family="Helvetica,sans-Serif" font-size="10.00"> </text>
</a>
</g>
</g>
<!-- Node12 -->
<g id="node12" class="node">
<title>Node12</title>
<g id="a_node12"><a xlink:href="group__spatialpartitioning.html" target="_top" xlink:title=" ">
<polygon fill="white" stroke="#666666" points="166,-128.5 166,-207.5 319,-207.5 319,-128.5 166,-128.5"/>
<text text-anchor="start" x="174" y="-195.5" font-family="Helvetica,sans-Serif" font-size="10.00">Ponca::KNearestIndexQuery</text>
<text text-anchor="start" x="174" y="-184.5" font-family="Helvetica,sans-Serif" font-size="10.00">&lt; Traits::IndexType, Traits</text>
<text text-anchor="middle" x="242.5" y="-173.5" font-family="Helvetica,sans-Serif" font-size="10.00">::DataPoint::Scalar &gt;</text>
<polyline fill="none" stroke="#666666" points="166,-166.5 319,-166.5 "/>
<text text-anchor="middle" x="242.5" y="-154.5" font-family="Helvetica,sans-Serif" font-size="10.00"> </text>
<polyline fill="none" stroke="#666666" points="166,-147.5 319,-147.5 "/>
<text text-anchor="middle" x="242.5" y="-135.5" font-family="Helvetica,sans-Serif" font-size="10.00"> </text>
</a>
</g>
</g>
<!-- Node1&#45;&gt;Node12 -->
<g id="edge12" class="edge">
<title>Node1&#45;&gt;Node12</title>
<path fill="none" stroke="orange" d="M242.5,-267.16C242.5,-248.2 242.5,-226.14 242.5,-207.73"/>
<polygon fill="orange" stroke="orange" points="239,-267.32 242.5,-277.32 246,-267.32 239,-267.32"/>
<text text-anchor="start" x="242.5" y="-251" font-family="Helvetica,sans-Serif" font-size="10.00"> &lt; Traits::IndexType,</text>
<text text-anchor="start" x="242.5" y="-240" font-family="Helvetica,sans-Serif" font-size="10.00"> Traits::DataPoint::</text>
<text text-anchor="middle" x="292.5" y="-229" font-family="Helvetica,sans-Serif" font-size="10.00">Scalar &gt;</text>
</g>
<!-- Node2 -->
<g id="node2" class="node">
<title>Node2</title>
<g id="a_node2"><a xlink:href="group__spatialpartitioning.html" target="_top" xlink:title=" ">
<polygon fill="white" stroke="#bfbfbf" points="157.5,-383.5 157.5,-473.5 327.5,-473.5 327.5,-383.5 157.5,-383.5"/>
<text text-anchor="start" x="165.5" y="-461.5" font-family="Helvetica,sans-Serif" font-size="10.00">Ponca::Query&lt; QueryInput</text>
<text text-anchor="start" x="165.5" y="-450.5" font-family="Helvetica,sans-Serif" font-size="10.00">IsIndex&lt; Index &gt;, QueryOutput</text>
<text text-anchor="middle" x="242.5" y="-439.5" font-family="Helvetica,sans-Serif" font-size="10.00">IsKNearest&lt; Index, Scalar &gt; &gt;</text>
<polyline fill="none" stroke="#bfbfbf" points="157.5,-432.5 327.5,-432.5 "/>
<text text-anchor="middle" x="242.5" y="-420.5" font-family="Helvetica,sans-Serif" font-size="10.00"> </text>
<polyline fill="none" stroke="#bfbfbf" points="157.5,-413.5 327.5,-413.5 "/>
<text text-anchor="start" x="165.5" y="-401.5" font-family="Helvetica,sans-Serif" font-size="10.00">+ Query()</text>
<text text-anchor="start" x="165.5" y="-390.5" font-family="Helvetica,sans-Serif" font-size="10.00">+ Query()</text>
</a>
</g>
</g>
<!-- Node2&#45;&gt;Node1 -->
<g id="edge1" class="edge">
<title>Node2&#45;&gt;Node1</title>
<path fill="none" stroke="#63b8ff" d="M242.5,-373.23C242.5,-363.8 242.5,-354.26 242.5,-345.62"/>
<polygon fill="none" stroke="#63b8ff" points="239,-373.37 242.5,-383.37 246,-373.37 239,-373.37"/>
</g>
<!-- Node3 -->
<g id="node3" class="node">
<title>Node3</title>
<g id="a_node3"><a xlink:href="group__spatialpartitioning.html#structPonca_1_1QueryInputIsIndex" target="_top" xlink:title="Base class for queries storing points.">
<polygon fill="white" stroke="#666666" points="0,-549 0,-639 141,-639 141,-549 0,-549"/>
<text text-anchor="start" x="8" y="-627" font-family="Helvetica,sans-Serif" font-size="10.00">Ponca::QueryInputIsIndex</text>
<text text-anchor="middle" x="70.5" y="-616" font-family="Helvetica,sans-Serif" font-size="10.00">&lt; Index &gt;</text>
<polyline fill="none" stroke="#666666" points="0,-609 141,-609 "/>
<text text-anchor="middle" x="70.5" y="-597" font-family="Helvetica,sans-Serif" font-size="10.00"> </text>
<polyline fill="none" stroke="#666666" points="0,-590 141,-590 "/>
<text text-anchor="start" x="8" y="-578" font-family="Helvetica,sans-Serif" font-size="10.00">+ QueryInputIsIndex()</text>
<text text-anchor="start" x="8" y="-567" font-family="Helvetica,sans-Serif" font-size="10.00"># skipIndexFunctor()</text>
<text text-anchor="start" x="8" y="-556" font-family="Helvetica,sans-Serif" font-size="10.00"># getInputPosition()</text>
</a>
</g>
</g>
<!-- Node3&#45;&gt;Node2 -->
<g id="edge2" class="edge">
<title>Node3&#45;&gt;Node2</title>
<path fill="none" stroke="#63b8ff" d="M124.36,-541.8C147.31,-519.98 173.83,-494.78 195.92,-473.78"/>
<polygon fill="none" stroke="#63b8ff" points="121.88,-539.33 117.05,-548.75 126.71,-544.4 121.88,-539.33"/>
</g>
<!-- Node4 -->
<g id="node4" class="node">
<title>Node4</title>
<g id="a_node4"><a xlink:href="group__spatialpartitioning.html" target="_top" xlink:title=" ">
<polygon fill="white" stroke="#666666" points="13.5,-682.5 13.5,-772.5 127.5,-772.5 127.5,-682.5 13.5,-682.5"/>
<text text-anchor="start" x="21.5" y="-760.5" font-family="Helvetica,sans-Serif" font-size="10.00">Ponca::QueryInput&lt;</text>
<text text-anchor="middle" x="70.5" y="-749.5" font-family="Helvetica,sans-Serif" font-size="10.00"> Index &gt;</text>
<polyline fill="none" stroke="#666666" points="13.5,-742.5 127.5,-742.5 "/>
<text text-anchor="middle" x="70.5" y="-730.5" font-family="Helvetica,sans-Serif" font-size="10.00"> </text>
<polyline fill="none" stroke="#666666" points="13.5,-723.5 127.5,-723.5 "/>
<text text-anchor="start" x="21.5" y="-711.5" font-family="Helvetica,sans-Serif" font-size="10.00">+ QueryInput()</text>
<text text-anchor="start" x="21.5" y="-700.5" font-family="Helvetica,sans-Serif" font-size="10.00">+ input()</text>
<text text-anchor="start" x="21.5" y="-689.5" font-family="Helvetica,sans-Serif" font-size="10.00"># editInput()</text>
</a>
</g>
</g>
<!-- Node4&#45;&gt;Node3 -->
<g id="edge3" class="edge">
<title>Node4&#45;&gt;Node3</title>
<path fill="none" stroke="#63b8ff" d="M70.5,-672.05C70.5,-661.13 70.5,-649.78 70.5,-639.26"/>
<polygon fill="none" stroke="#63b8ff" points="67,-672.35 70.5,-682.35 74,-672.35 67,-672.35"/>
</g>
<!-- Node5 -->
<g id="node5" class="node">
<title>Node5</title>
<g id="a_node5"><a xlink:href="group__spatialpartitioning.html#structPonca_1_1QueryInputBase" target="_top" xlink:title="Base class for queries input type.">
<polygon fill="white" stroke="#666666" points="1.5,-948.5 1.5,-1005.5 131.5,-1005.5 131.5,-948.5 1.5,-948.5"/>
<text text-anchor="middle" x="66.5" y="-993.5" font-family="Helvetica,sans-Serif" font-size="10.00">Ponca::QueryInputBase</text>
<polyline fill="none" stroke="#666666" points="1.5,-986.5 131.5,-986.5 "/>
<text text-anchor="middle" x="66.5" y="-974.5" font-family="Helvetica,sans-Serif" font-size="10.00"> </text>
<polyline fill="none" stroke="#666666" points="1.5,-967.5 131.5,-967.5 "/>
<text text-anchor="middle" x="66.5" y="-955.5" font-family="Helvetica,sans-Serif" font-size="10.00"> </text>
</a>
</g>
</g>
<!-- Node5&#45;&gt;Node4 -->
<g id="edge4" class="edge">
<title>Node5&#45;&gt;Node4</title>
<path fill="none" stroke="#63b8ff" d="M67.11,-937.96C67.84,-893.36 69.03,-819.58 69.79,-772.54"/>
<polygon fill="none" stroke="#63b8ff" points="63.61,-938.03 66.95,-948.09 70.61,-938.15 63.61,-938.03"/>
</g>
<!-- Node6 -->
<g id="node6" class="node">
<title>Node6</title>
<g id="a_node6"><a xlink:href="group__spatialpartitioning.html#structPonca_1_1QueryInput" target="_top" xlink:title="Base class for typed queries input type.">
<polygon fill="white" stroke="#666666" points="82.5,-820.5 82.5,-910.5 196.5,-910.5 196.5,-820.5 82.5,-820.5"/>
<text text-anchor="start" x="90.5" y="-898.5" font-family="Helvetica,sans-Serif" font-size="10.00">Ponca::QueryInput&lt;</text>
<text text-anchor="middle" x="139.5" y="-887.5" font-family="Helvetica,sans-Serif" font-size="10.00"> InputType_ &gt;</text>
<polyline fill="none" stroke="#666666" points="82.5,-880.5 196.5,-880.5 "/>
<text text-anchor="middle" x="139.5" y="-868.5" font-family="Helvetica,sans-Serif" font-size="10.00"> </text>
<polyline fill="none" stroke="#666666" points="82.5,-861.5 196.5,-861.5 "/>
<text text-anchor="start" x="90.5" y="-849.5" font-family="Helvetica,sans-Serif" font-size="10.00">+ QueryInput()</text>
<text text-anchor="start" x="90.5" y="-838.5" font-family="Helvetica,sans-Serif" font-size="10.00">+ input()</text>
<text text-anchor="start" x="90.5" y="-827.5" font-family="Helvetica,sans-Serif" font-size="10.00"># editInput()</text>
</a>
</g>
</g>
<!-- Node5&#45;&gt;Node6 -->
<g id="edge6" class="edge">
<title>Node5&#45;&gt;Node6</title>
<path fill="none" stroke="#63b8ff" d="M90.47,-940.04C96.72,-930.68 103.51,-920.48 110.01,-910.74"/>
<polygon fill="none" stroke="#63b8ff" points="87.56,-938.11 84.92,-948.37 93.38,-941.99 87.56,-938.11"/>
</g>
<!-- Node6&#45;&gt;Node4 -->
<g id="edge5" class="edge">
<title>Node6&#45;&gt;Node4</title>
<path fill="none" stroke="orange" d="M112.49,-811.26C106.05,-798.56 99.24,-785.15 93.03,-772.9"/>
<polygon fill="orange" stroke="orange" points="109.45,-813.01 117.1,-820.34 115.69,-809.84 109.45,-813.01"/>
<text text-anchor="middle" x="134" y="-794" font-family="Helvetica,sans-Serif" font-size="10.00"> &lt; Index &gt;</text>
</g>
<!-- Node7 -->
<g id="node7" class="node">
<title>Node7</title>
<g id="a_node7"><a xlink:href="group__spatialpartitioning.html#structPonca_1_1QueryOutputIsKNearest" target="_top" xlink:title="Base class for knearest queries.">
<polygon fill="white" stroke="#666666" points="159,-543.5 159,-644.5 326,-644.5 326,-543.5 159,-543.5"/>
<text text-anchor="start" x="167" y="-632.5" font-family="Helvetica,sans-Serif" font-size="10.00">Ponca::QueryOutputIsKNearest</text>
<text text-anchor="middle" x="242.5" y="-621.5" font-family="Helvetica,sans-Serif" font-size="10.00">&lt; Index, Scalar &gt;</text>
<polyline fill="none" stroke="#666666" points="159,-614.5 326,-614.5 "/>
<text text-anchor="start" x="167" y="-602.5" font-family="Helvetica,sans-Serif" font-size="10.00"># m_queue</text>
<polyline fill="none" stroke="#666666" points="159,-595.5 326,-595.5 "/>
<text text-anchor="start" x="167" y="-583.5" font-family="Helvetica,sans-Serif" font-size="10.00">+ QueryOutputIsKNearest()</text>
<text text-anchor="start" x="167" y="-572.5" font-family="Helvetica,sans-Serif" font-size="10.00">+ queue()</text>
<text text-anchor="start" x="167" y="-561.5" font-family="Helvetica,sans-Serif" font-size="10.00"># reset()</text>
<text text-anchor="start" x="167" y="-550.5" font-family="Helvetica,sans-Serif" font-size="10.00"># descentDistanceThreshold()</text>
</a>
</g>
</g>
<!-- Node7&#45;&gt;Node2 -->
<g id="edge7" class="edge">
<title>Node7&#45;&gt;Node2</title>
<path fill="none" stroke="#63b8ff" d="M242.5,-532.97C242.5,-513.31 242.5,-491.85 242.5,-473.6"/>
<polygon fill="none" stroke="#63b8ff" points="239,-533.06 242.5,-543.06 246,-533.06 239,-533.06"/>
</g>
<!-- Node8 -->
<g id="node8" class="node">
<title>Node8</title>
<g id="a_node8"><a xlink:href="group__spatialpartitioning.html#structPonca_1_1QueryOutputBase" target="_top" xlink:title="Base class for queries output type.">
<polygon fill="white" stroke="#666666" points="173.5,-699 173.5,-756 311.5,-756 311.5,-699 173.5,-699"/>
<text text-anchor="middle" x="242.5" y="-744" font-family="Helvetica,sans-Serif" font-size="10.00">Ponca::QueryOutputBase</text>
<polyline fill="none" stroke="#666666" points="173.5,-737 311.5,-737 "/>
<text text-anchor="middle" x="242.5" y="-725" font-family="Helvetica,sans-Serif" font-size="10.00"> </text>
<polyline fill="none" stroke="#666666" points="173.5,-718 311.5,-718 "/>
<text text-anchor="middle" x="242.5" y="-706" font-family="Helvetica,sans-Serif" font-size="10.00"> </text>
</a>
</g>
</g>
<!-- Node8&#45;&gt;Node7 -->
<g id="edge8" class="edge">
<title>Node8&#45;&gt;Node7</title>
<path fill="none" stroke="#63b8ff" d="M242.5,-688.84C242.5,-675.06 242.5,-659.25 242.5,-644.58"/>
<polygon fill="none" stroke="#63b8ff" points="239,-688.93 242.5,-698.93 246,-688.93 239,-688.93"/>
</g>
<!-- Node9 -->
<g id="node9" class="node">
<title>Node9</title>
<g id="a_node9"><a xlink:href="group__spatialpartitioning.html#structPonca_1_1Query" target="_top" xlink:title=" ">
<polygon fill="white" stroke="#bfbfbf" points="344,-554.5 344,-633.5 461,-633.5 461,-554.5 344,-554.5"/>
<text text-anchor="start" x="352" y="-621.5" font-family="Helvetica,sans-Serif" font-size="10.00">Ponca::Query&lt; Input</text>
<text text-anchor="middle" x="402.5" y="-610.5" font-family="Helvetica,sans-Serif" font-size="10.00">_, Output_ &gt;</text>
<polyline fill="none" stroke="#bfbfbf" points="344,-603.5 461,-603.5 "/>
<text text-anchor="middle" x="402.5" y="-591.5" font-family="Helvetica,sans-Serif" font-size="10.00"> </text>
<polyline fill="none" stroke="#bfbfbf" points="344,-584.5 461,-584.5 "/>
<text text-anchor="start" x="352" y="-572.5" font-family="Helvetica,sans-Serif" font-size="10.00">+ Query()</text>
<text text-anchor="start" x="352" y="-561.5" font-family="Helvetica,sans-Serif" font-size="10.00">+ Query()</text>
</a>
</g>
</g>
<!-- Node9&#45;&gt;Node2 -->
<g id="edge9" class="edge">
<title>Node9&#45;&gt;Node2</title>
<path fill="none" stroke="orange" d="M357.47,-546.98C335.02,-524.04 308,-496.43 285.8,-473.75"/>
<polygon fill="orange" stroke="orange" points="355.09,-549.55 364.58,-554.25 360.09,-544.66 355.09,-549.55"/>
<text text-anchor="start" x="332.5" y="-517" font-family="Helvetica,sans-Serif" font-size="10.00"> &lt; QueryInputIsIndex</text>
<text text-anchor="start" x="332.5" y="-506" font-family="Helvetica,sans-Serif" font-size="10.00">&lt; Index &gt;, QueryOutputIsKNearest</text>
<text text-anchor="middle" x="418.5" y="-495" font-family="Helvetica,sans-Serif" font-size="10.00">&lt; Index, Scalar &gt; &gt;</text>
</g>
<!-- Node10 -->
<g id="node10" class="node">
<title>Node10</title>
<g id="a_node10"><a xlink:title=" ">
<polygon fill="white" stroke="#bfbfbf" points="354,-699 354,-756 401,-756 401,-699 354,-699"/>
<text text-anchor="middle" x="377.5" y="-744" font-family="Helvetica,sans-Serif" font-size="10.00">Input_</text>
<polyline fill="none" stroke="#bfbfbf" points="354,-737 401,-737 "/>
<text text-anchor="middle" x="377.5" y="-725" font-family="Helvetica,sans-Serif" font-size="10.00"> </text>
<polyline fill="none" stroke="#bfbfbf" points="354,-718 401,-718 "/>
<text text-anchor="middle" x="377.5" y="-706" font-family="Helvetica,sans-Serif" font-size="10.00"> </text>
</a>
</g>
</g>
<!-- Node10&#45;&gt;Node9 -->
<g id="edge10" class="edge">
<title>Node10&#45;&gt;Node9</title>
<path fill="none" stroke="#63b8ff" d="M384.7,-688.63C387.99,-671.33 391.88,-650.87 395.18,-633.5"/>
<polygon fill="none" stroke="#63b8ff" points="381.17,-688.46 382.74,-698.93 388.05,-689.76 381.17,-688.46"/>
</g>
<!-- Node11 -->
<g id="node11" class="node">
<title>Node11</title>
<g id="a_node11"><a xlink:title=" ">
<polygon fill="white" stroke="#bfbfbf" points="419,-699 419,-756 474,-756 474,-699 419,-699"/>
<text text-anchor="middle" x="446.5" y="-744" font-family="Helvetica,sans-Serif" font-size="10.00">Output_</text>
<polyline fill="none" stroke="#bfbfbf" points="419,-737 474,-737 "/>
<text text-anchor="middle" x="446.5" y="-725" font-family="Helvetica,sans-Serif" font-size="10.00"> </text>
<polyline fill="none" stroke="#bfbfbf" points="419,-718 474,-718 "/>
<text text-anchor="middle" x="446.5" y="-706" font-family="Helvetica,sans-Serif" font-size="10.00"> </text>
</a>
</g>
</g>
<!-- Node11&#45;&gt;Node9 -->
<g id="edge11" class="edge">
<title>Node11&#45;&gt;Node9</title>
<path fill="none" stroke="#63b8ff" d="M433.99,-689.12C428.17,-671.72 421.25,-651.04 415.38,-633.5"/>
<polygon fill="none" stroke="#63b8ff" points="430.78,-690.56 437.28,-698.93 437.42,-688.34 430.78,-690.56"/>
</g>
<!-- Node13 -->
<g id="node13" class="node">
<title>Node13</title>
<g id="a_node13"><a xlink:href="classPonca_1_1KnnGraphKNearestQuery.html" target="_top" xlink:title=" ">
<polygon fill="white" stroke="#bfbfbf" points="155.5,-0.5 155.5,-90.5 329.5,-90.5 329.5,-0.5 155.5,-0.5"/>
<text text-anchor="start" x="163.5" y="-78.5" font-family="Helvetica,sans-Serif" font-size="10.00">Ponca::KnnGraphKNearestQuery</text>
<text text-anchor="middle" x="242.5" y="-67.5" font-family="Helvetica,sans-Serif" font-size="10.00">&lt; Traits &gt;</text>
<polyline fill="none" stroke="#bfbfbf" points="155.5,-60.5 329.5,-60.5 "/>
<text text-anchor="start" x="163.5" y="-48.5" font-family="Helvetica,sans-Serif" font-size="10.00"># m_graph</text>
<polyline fill="none" stroke="#bfbfbf" points="155.5,-41.5 329.5,-41.5 "/>
<text text-anchor="start" x="163.5" y="-29.5" font-family="Helvetica,sans-Serif" font-size="10.00">+ KnnGraphKNearestQuery()</text>
<text text-anchor="start" x="163.5" y="-18.5" font-family="Helvetica,sans-Serif" font-size="10.00">+ begin()</text>
<text text-anchor="start" x="163.5" y="-7.5" font-family="Helvetica,sans-Serif" font-size="10.00">+ end()</text>
</a>
</g>
</g>
<!-- Node12&#45;&gt;Node13 -->
<g id="edge13" class="edge">
<title>Node12&#45;&gt;Node13</title>
<path fill="none" stroke="#63b8ff" d="M242.5,-118.14C242.5,-109.05 242.5,-99.6 242.5,-90.66"/>
<polygon fill="none" stroke="#63b8ff" points="239,-118.21 242.5,-128.21 246,-118.21 239,-118.21"/>
</g>
</g>
</svg>
