<?xml version="1.0" encoding="UTF-8" standalone="no"?>
<!DOCTYPE svg PUBLIC "-//W3C//DTD SVG 1.1//EN"
 "http://www.w3.org/Graphics/SVG/1.1/DTD/svg11.dtd">
<!-- Generated by graphviz version 2.43.0 (0)
 -->
<!-- Title: Ponca::RangeIndexQuery&lt; Index, Scalar &gt; Pages: 1 -->
<svg width="492pt" height="770pt"
 viewBox="0.00 0.00 491.50 770.00" xmlns="http://www.w3.org/2000/svg" xmlns:xlink="http://www.w3.org/1999/xlink">
<g id="graph0" class="graph" transform="scale(1 1) rotate(0) translate(4 766)">
<title>Ponca::RangeIndexQuery&lt; Index, Scalar &gt;</title>
<!-- Node1 -->
<g id="node1" class="node">
<title>Node1</title>
<g id="a_node1"><a xlink:title="Base Query class combining QueryInputIsIndex and QueryOutputIsRange.">
<polygon fill="#999999" stroke="#666666" points="172,-0.5 172,-68.5 311,-68.5 311,-0.5 172,-0.5"/>
<text text-anchor="start" x="180" y="-56.5" font-family="Helvetica,sans-Serif" font-size="10.00">Ponca::RangeIndexQuery</text>
<text text-anchor="middle" x="241.5" y="-45.5" font-family="Helvetica,sans-Serif" font-size="10.00">&lt; Index, Scalar &gt;</text>
<polyline fill="none" stroke="#666666" points="172,-38.5 311,-38.5 "/>
<text text-anchor="middle" x="241.5" y="-26.5" font-family="Helvetica,sans-Serif" font-size="10.00"> </text>
<polyline fill="none" stroke="#666666" points="172,-19.5 311,-19.5 "/>
<text text-anchor="middle" x="241.5" y="-7.5" font-family="Helvetica,sans-Serif" font-size="10.00"> </text>
</a>
</g>
</g>
<!-- Node2 -->
<g id="node2" class="node">
<title>Node2</title>
<g id="a_node2"><a xlink:href="group__spatialpartitioning.html" target="_top" xlink:title=" ">
<polygon fill="white" stroke="#bfbfbf" points="156.5,-106.5 156.5,-196.5 326.5,-196.5 326.5,-106.5 156.5,-106.5"/>
<text text-anchor="start" x="164.5" y="-184.5" font-family="Helvetica,sans-Serif" font-size="10.00">Ponca::Query&lt; QueryInput</text>
<text text-anchor="start" x="164.5" y="-173.5" font-family="Helvetica,sans-Serif" font-size="10.00">IsIndex&lt; Index &gt;, QueryOutput</text>
<text text-anchor="middle" x="241.5" y="-162.5" font-family="Helvetica,sans-Serif" font-size="10.00">IsRange&lt; Index, Scalar &gt; &gt;</text>
<polyline fill="none" stroke="#bfbfbf" points="156.5,-155.5 326.5,-155.5 "/>
<text text-anchor="middle" x="241.5" y="-143.5" font-family="Helvetica,sans-Serif" font-size="10.00"> </text>
<polyline fill="none" stroke="#bfbfbf" points="156.5,-136.5 326.5,-136.5 "/>
<text text-anchor="start" x="164.5" y="-124.5" font-family="Helvetica,sans-Serif" font-size="10.00">+ Query()</text>
<text text-anchor="start" x="164.5" y="-113.5" font-family="Helvetica,sans-Serif" font-size="10.00">+ Query()</text>
</a>
</g>
</g>
<!-- Node2&#45;&gt;Node1 -->
<g id="edge1" class="edge">
<title>Node2&#45;&gt;Node1</title>
<path fill="none" stroke="#63b8ff" d="M241.5,-96.23C241.5,-86.8 241.5,-77.26 241.5,-68.62"/>
<polygon fill="none" stroke="#63b8ff" points="238,-96.37 241.5,-106.37 245,-96.37 238,-96.37"/>
</g>
<!-- Node3 -->
<g id="node3" class="node">
<title>Node3</title>
<g id="a_node3"><a xlink:href="group__spatialpartitioning.html#structPonca_1_1QueryInputIsIndex" target="_top" xlink:title="Base class for queries storing points.">
<polygon fill="white" stroke="#666666" points="0,-288.5 0,-378.5 141,-378.5 141,-288.5 0,-288.5"/>
<text text-anchor="start" x="8" y="-366.5" font-family="Helvetica,sans-Serif" font-size="10.00">Ponca::QueryInputIsIndex</text>
<text text-anchor="middle" x="70.5" y="-355.5" font-family="Helvetica,sans-Serif" font-size="10.00">&lt; Index &gt;</text>
<polyline fill="none" stroke="#666666" points="0,-348.5 141,-348.5 "/>
<text text-anchor="middle" x="70.5" y="-336.5" font-family="Helvetica,sans-Serif" font-size="10.00"> </text>
<polyline fill="none" stroke="#666666" points="0,-329.5 141,-329.5 "/>
<text text-anchor="start" x="8" y="-317.5" font-family="Helvetica,sans-Serif" font-size="10.00">+ QueryInputIsIndex()</text>
<text text-anchor="start" x="8" y="-306.5" font-family="Helvetica,sans-Serif" font-size="10.00"># skipIndexFunctor()</text>
<text text-anchor="start" x="8" y="-295.5" font-family="Helvetica,sans-Serif" font-size="10.00"># getInputPosition()</text>
</a>
</g>
</g>
<!-- Node3&#45;&gt;Node2 -->
<g id="edge2" class="edge">
<title>Node3&#45;&gt;Node2</title>
<path fill="none" stroke="#63b8ff" d="M119.32,-281.11C144.64,-254.45 175.26,-222.23 199.51,-196.7"/>
<polygon fill="none" stroke="#63b8ff" points="116.68,-278.81 112.33,-288.47 121.76,-283.63 116.68,-278.81"/>
</g>
<!-- Node4 -->
<g id="node4" class="node">
<title>Node4</title>
<g id="a_node4"><a xlink:href="group__spatialpartitioning.html" target="_top" xlink:title=" ">
<polygon fill="white" stroke="#666666" points="13.5,-438.5 13.5,-528.5 127.5,-528.5 127.5,-438.5 13.5,-438.5"/>
<text text-anchor="start" x="21.5" y="-516.5" font-family="Helvetica,sans-Serif" font-size="10.00">Ponca::QueryInput&lt;</text>
<text text-anchor="middle" x="70.5" y="-505.5" font-family="Helvetica,sans-Serif" font-size="10.00"> Index &gt;</text>
<polyline fill="none" stroke="#666666" points="13.5,-498.5 127.5,-498.5 "/>
<text text-anchor="middle" x="70.5" y="-486.5" font-family="Helvetica,sans-Serif" font-size="10.00"> </text>
<polyline fill="none" stroke="#666666" points="13.5,-479.5 127.5,-479.5 "/>
<text text-anchor="start" x="21.5" y="-467.5" font-family="Helvetica,sans-Serif" font-size="10.00">+ QueryInput()</text>
<text text-anchor="start" x="21.5" y="-456.5" font-family="Helvetica,sans-Serif" font-size="10.00">+ input()</text>
<text text-anchor="start" x="21.5" y="-445.5" font-family="Helvetica,sans-Serif" font-size="10.00"># editInput()</text>
</a>
</g>
</g>
<!-- Node4&#45;&gt;Node3 -->
<g id="edge3" class="edge">
<title>Node4&#45;&gt;Node3</title>
<path fill="none" stroke="#63b8ff" d="M70.5,-428.5C70.5,-412.09 70.5,-394.26 70.5,-378.59"/>
<polygon fill="none" stroke="#63b8ff" points="67,-428.5 70.5,-438.5 74,-428.5 67,-428.5"/>
</g>
<!-- Node5 -->
<g id="node5" class="node">
<title>Node5</title>
<g id="a_node5"><a xlink:href="group__spatialpartitioning.html#structPonca_1_1QueryInputBase" target="_top" xlink:title="Base class for queries input type.">
<polygon fill="white" stroke="#666666" points="1.5,-704.5 1.5,-761.5 131.5,-761.5 131.5,-704.5 1.5,-704.5"/>
<text text-anchor="middle" x="66.5" y="-749.5" font-family="Helvetica,sans-Serif" font-size="10.00">Ponca::QueryInputBase</text>
<polyline fill="none" stroke="#666666" points="1.5,-742.5 131.5,-742.5 "/>
<text text-anchor="middle" x="66.5" y="-730.5" font-family="Helvetica,sans-Serif" font-size="10.00"> </text>
<polyline fill="none" stroke="#666666" points="1.5,-723.5 131.5,-723.5 "/>
<text text-anchor="middle" x="66.5" y="-711.5" font-family="Helvetica,sans-Serif" font-size="10.00"> </text>
</a>
</g>
</g>
<!-- Node5&#45;&gt;Node4 -->
<g id="edge4" class="edge">
<title>Node5&#45;&gt;Node4</title>
<path fill="none" stroke="#63b8ff" d="M67.11,-693.96C67.84,-649.36 69.03,-575.58 69.79,-528.54"/>
<polygon fill="none" stroke="#63b8ff" points="63.61,-694.03 66.95,-704.09 70.61,-694.15 63.61,-694.03"/>
</g>
<!-- Node6 -->
<g id="node6" class="node">
<title>Node6</title>
<g id="a_node6"><a xlink:href="group__spatialpartitioning.html#structPonca_1_1QueryInput" target="_top" xlink:title="Base class for typed queries input type.">
<polygon fill="white" stroke="#666666" points="82.5,-576.5 82.5,-666.5 196.5,-666.5 196.5,-576.5 82.5,-576.5"/>
<text text-anchor="start" x="90.5" y="-654.5" font-family="Helvetica,sans-Serif" font-size="10.00">Ponca::QueryInput&lt;</text>
<text text-anchor="middle" x="139.5" y="-643.5" font-family="Helvetica,sans-Serif" font-size="10.00"> InputType_ &gt;</text>
<polyline fill="none" stroke="#666666" points="82.5,-636.5 196.5,-636.5 "/>
<text text-anchor="middle" x="139.5" y="-624.5" font-family="Helvetica,sans-Serif" font-size="10.00"> </text>
<polyline fill="none" stroke="#666666" points="82.5,-617.5 196.5,-617.5 "/>
<text text-anchor="start" x="90.5" y="-605.5" font-family="Helvetica,sans-Serif" font-size="10.00">+ QueryInput()</text>
<text text-anchor="start" x="90.5" y="-594.5" font-family="Helvetica,sans-Serif" font-size="10.00">+ input()</text>
<text text-anchor="start" x="90.5" y="-583.5" font-family="Helvetica,sans-Serif" font-size="10.00"># editInput()</text>
</a>
</g>
</g>
<!-- Node5&#45;&gt;Node6 -->
<g id="edge6" class="edge">
<title>Node5&#45;&gt;Node6</title>
<path fill="none" stroke="#63b8ff" d="M90.47,-696.04C96.72,-686.68 103.51,-676.48 110.01,-666.74"/>
<polygon fill="none" stroke="#63b8ff" points="87.56,-694.11 84.92,-704.37 93.38,-697.99 87.56,-694.11"/>
</g>
<!-- Node6&#45;&gt;Node4 -->
<g id="edge5" class="edge">
<title>Node6&#45;&gt;Node4</title>
<path fill="none" stroke="orange" d="M112.49,-567.26C106.05,-554.56 99.24,-541.15 93.03,-528.9"/>
<polygon fill="orange" stroke="orange" points="109.45,-569.01 117.1,-576.34 115.69,-565.84 109.45,-569.01"/>
<text text-anchor="middle" x="134" y="-550" font-family="Helvetica,sans-Serif" font-size="10.00"> &lt; Index &gt;</text>
</g>
<!-- Node7 -->
<g id="node7" class="node">
<title>Node7</title>
<g id="a_node7"><a xlink:href="group__spatialpartitioning.html#structPonca_1_1QueryOutputIsRange" target="_top" xlink:title="Base class for range queries.">
<polygon fill="white" stroke="#666666" points="159.5,-266.5 159.5,-400.5 323.5,-400.5 323.5,-266.5 159.5,-266.5"/>
<text text-anchor="start" x="167.5" y="-388.5" font-family="Helvetica,sans-Serif" font-size="10.00">Ponca::QueryOutputIsRange</text>
<text text-anchor="middle" x="241.5" y="-377.5" font-family="Helvetica,sans-Serif" font-size="10.00">&lt; Index, Scalar &gt;</text>
<polyline fill="none" stroke="#666666" points="159.5,-370.5 323.5,-370.5 "/>
<text text-anchor="start" x="167.5" y="-358.5" font-family="Helvetica,sans-Serif" font-size="10.00"># m_squared_radius</text>
<polyline fill="none" stroke="#666666" points="159.5,-351.5 323.5,-351.5 "/>
<text text-anchor="start" x="167.5" y="-339.5" font-family="Helvetica,sans-Serif" font-size="10.00">+ QueryOutputIsRange()</text>
<text text-anchor="start" x="167.5" y="-328.5" font-family="Helvetica,sans-Serif" font-size="10.00">+ radius()</text>
<text text-anchor="start" x="167.5" y="-317.5" font-family="Helvetica,sans-Serif" font-size="10.00">+ squared_radius()</text>
<text text-anchor="start" x="167.5" y="-306.5" font-family="Helvetica,sans-Serif" font-size="10.00">+ set_radius()</text>
<text text-anchor="start" x="167.5" y="-295.5" font-family="Helvetica,sans-Serif" font-size="10.00">+ set_squared_radius()</text>
<text text-anchor="start" x="167.5" y="-284.5" font-family="Helvetica,sans-Serif" font-size="10.00"># reset()</text>
<text text-anchor="start" x="167.5" y="-273.5" font-family="Helvetica,sans-Serif" font-size="10.00"># descentDistanceThreshold()</text>
</a>
</g>
</g>
<!-- Node7&#45;&gt;Node2 -->
<g id="edge7" class="edge">
<title>Node7&#45;&gt;Node2</title>
<path fill="none" stroke="#63b8ff" d="M241.5,-256.28C241.5,-235.92 241.5,-214.59 241.5,-196.6"/>
<polygon fill="none" stroke="#63b8ff" points="238,-256.5 241.5,-266.5 245,-256.5 238,-256.5"/>
</g>
<!-- Node8 -->
<g id="node8" class="node">
<title>Node8</title>
<g id="a_node8"><a xlink:href="group__spatialpartitioning.html#structPonca_1_1QueryOutputBase" target="_top" xlink:title="Base class for queries output type.">
<polygon fill="white" stroke="#666666" points="172.5,-455 172.5,-512 310.5,-512 310.5,-455 172.5,-455"/>
<text text-anchor="middle" x="241.5" y="-500" font-family="Helvetica,sans-Serif" font-size="10.00">Ponca::QueryOutputBase</text>
<polyline fill="none" stroke="#666666" points="172.5,-493 310.5,-493 "/>
<text text-anchor="middle" x="241.5" y="-481" font-family="Helvetica,sans-Serif" font-size="10.00"> </text>
<polyline fill="none" stroke="#666666" points="172.5,-474 310.5,-474 "/>
<text text-anchor="middle" x="241.5" y="-462" font-family="Helvetica,sans-Serif" font-size="10.00"> </text>
</a>
</g>
</g>
<!-- Node8&#45;&gt;Node7 -->
<g id="edge8" class="edge">
<title>Node8&#45;&gt;Node7</title>
<path fill="none" stroke="#63b8ff" d="M241.5,-444.43C241.5,-431.05 241.5,-415.61 241.5,-400.6"/>
<polygon fill="none" stroke="#63b8ff" points="238,-444.66 241.5,-454.66 245,-444.66 238,-444.66"/>
</g>
<!-- Node9 -->
<g id="node9" class="node">
<title>Node9</title>
<g id="a_node9"><a xlink:href="group__spatialpartitioning.html#structPonca_1_1Query" target="_top" xlink:title=" ">
<polygon fill="white" stroke="#bfbfbf" points="342,-294 342,-373 459,-373 459,-294 342,-294"/>
<text text-anchor="start" x="350" y="-361" font-family="Helvetica,sans-Serif" font-size="10.00">Ponca::Query&lt; Input</text>
<text text-anchor="middle" x="400.5" y="-350" font-family="Helvetica,sans-Serif" font-size="10.00">_, Output_ &gt;</text>
<polyline fill="none" stroke="#bfbfbf" points="342,-343 459,-343 "/>
<text text-anchor="middle" x="400.5" y="-331" font-family="Helvetica,sans-Serif" font-size="10.00"> </text>
<polyline fill="none" stroke="#bfbfbf" points="342,-324 459,-324 "/>
<text text-anchor="start" x="350" y="-312" font-family="Helvetica,sans-Serif" font-size="10.00">+ Query()</text>
<text text-anchor="start" x="350" y="-301" font-family="Helvetica,sans-Serif" font-size="10.00">+ Query()</text>
</a>
</g>
</g>
<!-- Node9&#45;&gt;Node2 -->
<g id="edge9" class="edge">
<title>Node9&#45;&gt;Node2</title>
<path fill="none" stroke="orange" d="M359.71,-286.32C335.37,-258.76 304.62,-223.96 280.59,-196.75"/>
<polygon fill="orange" stroke="orange" points="357.15,-288.71 366.39,-293.89 362.39,-284.07 357.15,-288.71"/>
<text text-anchor="start" x="326.5" y="-240" font-family="Helvetica,sans-Serif" font-size="10.00"> &lt; QueryInputIsIndex</text>
<text text-anchor="start" x="326.5" y="-229" font-family="Helvetica,sans-Serif" font-size="10.00">&lt; Index &gt;, QueryOutputIsRange</text>
<text text-anchor="middle" x="405" y="-218" font-family="Helvetica,sans-Serif" font-size="10.00">&lt; Index, Scalar &gt; &gt;</text>
</g>
<!-- Node10 -->
<g id="node10" class="node">
<title>Node10</title>
<g id="a_node10"><a xlink:title=" ">
<polygon fill="white" stroke="#bfbfbf" points="353,-455 353,-512 400,-512 400,-455 353,-455"/>
<text text-anchor="middle" x="376.5" y="-500" font-family="Helvetica,sans-Serif" font-size="10.00">Input_</text>
<polyline fill="none" stroke="#bfbfbf" points="353,-493 400,-493 "/>
<text text-anchor="middle" x="376.5" y="-481" font-family="Helvetica,sans-Serif" font-size="10.00"> </text>
<polyline fill="none" stroke="#bfbfbf" points="353,-474 400,-474 "/>
<text text-anchor="middle" x="376.5" y="-462" font-family="Helvetica,sans-Serif" font-size="10.00"> </text>
</a>
</g>
</g>
<!-- Node10&#45;&gt;Node9 -->
<g id="edge10" class="edge">
<title>Node10&#45;&gt;Node9</title>
<path fill="none" stroke="#63b8ff" d="M382.63,-444.71C386.19,-422.76 390.66,-395.18 394.24,-373.1"/>
<polygon fill="none" stroke="#63b8ff" points="379.16,-444.23 381.01,-454.66 386.07,-445.35 379.16,-444.23"/>
</g>
<!-- Node11 -->
<g id="node11" class="node">
<title>Node11</title>
<g id="a_node11"><a xlink:title=" ">
<polygon fill="white" stroke="#bfbfbf" points="418,-455 418,-512 473,-512 473,-455 418,-455"/>
<text text-anchor="middle" x="445.5" y="-500" font-family="Helvetica,sans-Serif" font-size="10.00">Output_</text>
<polyline fill="none" stroke="#bfbfbf" points="418,-493 473,-493 "/>
<text text-anchor="middle" x="445.5" y="-481" font-family="Helvetica,sans-Serif" font-size="10.00"> </text>
<polyline fill="none" stroke="#bfbfbf" points="418,-474 473,-474 "/>
<text text-anchor="middle" x="445.5" y="-462" font-family="Helvetica,sans-Serif" font-size="10.00"> </text>
</a>
</g>
</g>
<!-- Node11&#45;&gt;Node9 -->
<g id="edge11" class="edge">
<title>Node11&#45;&gt;Node9</title>
<path fill="none" stroke="#63b8ff" d="M434.1,-445C427.41,-423.01 418.98,-395.28 412.24,-373.1"/>
<polygon fill="none" stroke="#63b8ff" points="430.78,-446.11 437.04,-454.66 437.48,-444.08 430.78,-446.11"/>
</g>
</g>
</svg>
