<?xml version="1.0" encoding="UTF-8" standalone="no"?>
<!DOCTYPE svg PUBLIC "-//W3C//DTD SVG 1.1//EN"
 "http://www.w3.org/Graphics/SVG/1.1/DTD/svg11.dtd">
<!-- Generated by graphviz version 2.43.0 (0)
 -->
<!-- Title: Ponca::IndexSquaredDistance&lt; Index, Scalar &gt; Pages: 1 -->
<svg width="527pt" height="248pt"
 viewBox="0.00 0.00 527.00 248.00" xmlns="http://www.w3.org/2000/svg" xmlns:xlink="http://www.w3.org/1999/xlink">
<g id="graph0" class="graph" transform="scale(1 1) rotate(0) translate(4 244)">
<title>Ponca::IndexSquaredDistance&lt; Index, Scalar &gt;</title>
<!-- Node1 -->
<g id="node1" class="node">
<title>Node1</title>
<g id="a_node1"><a xlink:title="Associates an index with a distance.">
<polygon fill="#999999" stroke="#666666" points="179,-160.5 179,-239.5 340,-239.5 340,-160.5 179,-160.5"/>
<text text-anchor="start" x="187" y="-227.5" font-family="Helvetica,sans-Serif" font-size="10.00">Ponca::IndexSquaredDistance</text>
<text text-anchor="middle" x="259.5" y="-216.5" font-family="Helvetica,sans-Serif" font-size="10.00">&lt; Index, Scalar &gt;</text>
<polyline fill="none" stroke="#666666" points="179,-209.5 340,-209.5 "/>
<text text-anchor="start" x="187" y="-197.5" font-family="Helvetica,sans-Serif" font-size="10.00">+ index</text>
<text text-anchor="start" x="187" y="-186.5" font-family="Helvetica,sans-Serif" font-size="10.00">+ squared_distance</text>
<polyline fill="none" stroke="#666666" points="179,-179.5 340,-179.5 "/>
<text text-anchor="start" x="187" y="-167.5" font-family="Helvetica,sans-Serif" font-size="10.00">+ operator&lt;()</text>
</a>
</g>
</g>
<!-- Node2 -->
<g id="node2" class="node">
<title>Node2</title>
<g id="a_node2"><a xlink:href="structPonca_1_1IndexSquaredDistance.html" target="_top" xlink:title=" ">
<polygon fill="white" stroke="#666666" points="0,-6 0,-85 161,-85 161,-6 0,-6"/>
<text text-anchor="start" x="8" y="-73" font-family="Helvetica,sans-Serif" font-size="10.00">Ponca::IndexSquaredDistance</text>
<text text-anchor="middle" x="80.5" y="-62" font-family="Helvetica,sans-Serif" font-size="10.00">&lt; Index, DataPoint::Scalar &gt;</text>
<polyline fill="none" stroke="#666666" points="0,-55 161,-55 "/>
<text text-anchor="start" x="8" y="-43" font-family="Helvetica,sans-Serif" font-size="10.00">+ index</text>
<text text-anchor="start" x="8" y="-32" font-family="Helvetica,sans-Serif" font-size="10.00">+ squared_distance</text>
<polyline fill="none" stroke="#666666" points="0,-25 161,-25 "/>
<text text-anchor="start" x="8" y="-13" font-family="Helvetica,sans-Serif" font-size="10.00">+ operator&lt;()</text>
</a>
</g>
</g>
<!-- Node1&#45;&gt;Node2 -->
<g id="edge1" class="edge">
<title>Node1&#45;&gt;Node2</title>
<path fill="none" stroke="orange" d="M176.19,-154.71C170.37,-150.65 164.74,-146.41 159.5,-142 139.9,-125.53 121.45,-103.73 107.32,-85.12"/>
<polygon fill="orange" stroke="orange" points="174.58,-157.84 184.83,-160.5 178.48,-152.02 174.58,-157.84"/>
<text text-anchor="start" x="159.5" y="-128.5" font-family="Helvetica,sans-Serif" font-size="10.00"> &lt; Index, DataPoint</text>
<text text-anchor="middle" x="207.5" y="-117.5" font-family="Helvetica,sans-Serif" font-size="10.00">::Scalar &gt;</text>
</g>
<!-- Node3 -->
<g id="node3" class="node">
<title>Node3</title>
<g id="a_node3"><a xlink:href="structPonca_1_1IndexSquaredDistance.html" target="_top" xlink:title=" ">
<polygon fill="white" stroke="#666666" points="179,-0.5 179,-90.5 340,-90.5 340,-0.5 179,-0.5"/>
<text text-anchor="start" x="187" y="-78.5" font-family="Helvetica,sans-Serif" font-size="10.00">Ponca::IndexSquaredDistance</text>
<text text-anchor="start" x="187" y="-67.5" font-family="Helvetica,sans-Serif" font-size="10.00">&lt; Traits::IndexType, Traits</text>
<text text-anchor="middle" x="259.5" y="-56.5" font-family="Helvetica,sans-Serif" font-size="10.00">::DataPoint::Scalar &gt;</text>
<polyline fill="none" stroke="#666666" points="179,-49.5 340,-49.5 "/>
<text text-anchor="start" x="187" y="-37.5" font-family="Helvetica,sans-Serif" font-size="10.00">+ index</text>
<text text-anchor="start" x="187" y="-26.5" font-family="Helvetica,sans-Serif" font-size="10.00">+ squared_distance</text>
<polyline fill="none" stroke="#666666" points="179,-19.5 340,-19.5 "/>
<text text-anchor="start" x="187" y="-7.5" font-family="Helvetica,sans-Serif" font-size="10.00">+ operator&lt;()</text>
</a>
</g>
</g>
<!-- Node1&#45;&gt;Node3 -->
<g id="edge2" class="edge">
<title>Node1&#45;&gt;Node3</title>
<path fill="none" stroke="orange" d="M259.5,-150.12C259.5,-131.03 259.5,-109.31 259.5,-90.7"/>
<polygon fill="orange" stroke="orange" points="256,-150.12 259.5,-160.12 263,-150.12 256,-150.12"/>
<text text-anchor="start" x="259.5" y="-134" font-family="Helvetica,sans-Serif" font-size="10.00"> &lt; Traits::IndexType,</text>
<text text-anchor="start" x="259.5" y="-123" font-family="Helvetica,sans-Serif" font-size="10.00"> Traits::DataPoint::</text>
<text text-anchor="middle" x="309.5" y="-112" font-family="Helvetica,sans-Serif" font-size="10.00">Scalar &gt;</text>
</g>
<!-- Node4 -->
<g id="node4" class="node">
<title>Node4</title>
<g id="a_node4"><a xlink:href="structPonca_1_1IndexSquaredDistance.html" target="_top" xlink:title=" ">
<polygon fill="white" stroke="#666666" points="358,-6 358,-85 519,-85 519,-6 358,-6"/>
<text text-anchor="start" x="366" y="-73" font-family="Helvetica,sans-Serif" font-size="10.00">Ponca::IndexSquaredDistance</text>
<text text-anchor="middle" x="438.5" y="-62" font-family="Helvetica,sans-Serif" font-size="10.00">&lt; IndexType, Scalar &gt;</text>
<polyline fill="none" stroke="#666666" points="358,-55 519,-55 "/>
<text text-anchor="start" x="366" y="-43" font-family="Helvetica,sans-Serif" font-size="10.00">+ index</text>
<text text-anchor="start" x="366" y="-32" font-family="Helvetica,sans-Serif" font-size="10.00">+ squared_distance</text>
<polyline fill="none" stroke="#666666" points="358,-25 519,-25 "/>
<text text-anchor="start" x="366" y="-13" font-family="Helvetica,sans-Serif" font-size="10.00">+ operator&lt;()</text>
</a>
</g>
</g>
<!-- Node1&#45;&gt;Node4 -->
<g id="edge3" class="edge">
<title>Node1&#45;&gt;Node4</title>
<path fill="none" stroke="orange" d="M346.83,-154.69C352.66,-150.67 358.28,-146.43 363.5,-142 382.64,-125.78 400.19,-104 413.49,-85.34"/>
<polygon fill="orange" stroke="orange" points="344.57,-151.99 338.16,-160.43 348.43,-157.83 344.57,-151.99"/>
<text text-anchor="middle" x="449.5" y="-123" font-family="Helvetica,sans-Serif" font-size="10.00"> &lt; IndexType, Scalar &gt;</text>
</g>
</g>
</svg>
