<?xml version="1.0" encoding="UTF-8" standalone="no"?>
<!DOCTYPE svg PUBLIC "-//W3C//DTD SVG 1.1//EN"
 "http://www.w3.org/Graphics/SVG/1.1/DTD/svg11.dtd">
<!-- Generated by graphviz version 2.43.0 (0)
 -->
<!-- Title: Ponca::QueryInputIsPosition&lt; DataPoint &gt; Pages: 1 -->
<!--zoomable 724 -->

<svg id="main" version="1.1" xmlns="http://www.w3.org/2000/svg" xmlns:xlink="http://www.w3.org/1999/xlink" xml:space="preserve" onload="init(evt)">
<style type="text/css"><![CDATA[
.node, .edge {opacity: 0.7;}
.node.selected, .edge.selected {opacity: 1;}
.edge:hover path { stroke: red; }
.edge:hover polygon { stroke: red; fill: red; }
]]></style>

<defs>
  <circle id="rim" cx="0" cy="0" r="7"/>
  <circle id="rim2" cx="0" cy="0" r="3.5"/>
  <g id="zoomPlus">
    <use xlink:href="#rim" fill="#404040"><set attributeName="fill" to="#808080" begin="zoomplus.mouseover" end="zoomplus.mouseout"/></use>
    <path d="M-4,0h8M0,-4v8" fill="none" stroke="white" stroke-width="1.5" pointer-events="none"/>
  </g>
  <g id="zoomMin">
    <use xlink:href="#rim" fill="#404040"><set attributeName="fill" to="#808080" begin="zoomminus.mouseover" end="zoomminus.mouseout"/></use>
    <path d="M-4,0h8" fill="none" stroke="white" stroke-width="1.5" pointer-events="none"/>
  </g>
  <g id="arrowUp" transform="translate(30 24)">
    <use xlink:href="#rim"/>
    <path pointer-events="none" fill="none" stroke="white" stroke-width="1.5" d="M0,-3.0v7 M-2.5,-0.5L0,-3.0L2.5,-0.5"/>
  </g>
  <g id="arrowRight" transform="rotate(90) translate(36 -43)">
    <use xlink:href="#rim"/>
    <path pointer-events="none" fill="none" stroke="white" stroke-width="1.5" d="M0,-3.0v7 M-2.5,-0.5L0,-3.0L2.5,-0.5"/>
  </g>
  <g id="arrowDown" transform="rotate(180) translate(-30 -48)">
    <use xlink:href="#rim"/>
    <path pointer-events="none" fill="none" stroke="white" stroke-width="1.5" d="M0,-3.0v7 M-2.5,-0.5L0,-3.0L2.5,-0.5"/>
  </g>
  <g id="arrowLeft" transform="rotate(270) translate(-36 17)">
    <use xlink:href="#rim"/>
    <path pointer-events="none" fill="none" stroke="white" stroke-width="1.5" d="M0,-3.0v7 M-2.5,-0.5L0,-3.0L2.5,-0.5"/>
  </g>
  <g id="resetDef">
    <use xlink:href="#rim2" fill="#404040"><set attributeName="fill" to="#808080" begin="reset.mouseover" end="reset.mouseout"/></use>
  </g>
</defs>
<script type="application/ecmascript">
var viewWidth = 527;
var viewHeight = 724;
var sectionId = 'dynsection-9';
</script>
<script type="application/ecmascript" xlink:href="svg.min.js"/>
<svg id="graph" class="graph">
<g id="viewport">
<title>Ponca::QueryInputIsPosition&lt; DataPoint &gt;</title>
<!-- Node1 -->
<g id="Node000001" class="node">
<title>Node1</title>
<g id="a_Node000001"><a xlink:title="Extension of QueryInput that handles a position based search, in a partitioning structure.">
<polygon fill="#999999" stroke="transparent" points="333,-366 186,-366 186,-261 333,-261 333,-366"/>
<text text-anchor="start" x="191.5" y="-353.5" font-family="Helvetica,sans-Serif" font-size="10.00">Ponca::QueryInputIsPosition</text>
<text text-anchor="start" x="224.5" y="-342.5" font-family="Helvetica,sans-Serif" font-size="10.00">&lt; DataPoint &gt;</text>
<text text-anchor="start" x="258" y="-327.5" font-family="Helvetica,sans-Serif" font-size="10.00"> </text>
<text text-anchor="start" x="194.5" y="-312.5" font-family="Helvetica,sans-Serif" font-size="10.00">+</text>
<text text-anchor="start" x="211.5" y="-312.5" font-family="Helvetica,sans-Serif" font-size="10.00">QueryInputIsPosition()</text>
<text text-anchor="start" x="194.5" y="-297.5" font-family="Helvetica,sans-Serif" font-size="10.00">+</text>
<text text-anchor="start" x="211.5" y="-297.5" font-family="Helvetica,sans-Serif" font-size="10.00">operator()()</text>
<text text-anchor="start" x="194.5" y="-282.5" font-family="Helvetica,sans-Serif" font-size="10.00">#</text>
<text text-anchor="start" x="211.5" y="-282.5" font-family="Helvetica,sans-Serif" font-size="10.00">skipIndexFunctor()</text>
<text text-anchor="start" x="194.5" y="-267.5" font-family="Helvetica,sans-Serif" font-size="10.00">#</text>
<text text-anchor="start" x="211.5" y="-267.5" font-family="Helvetica,sans-Serif" font-size="10.00">getInputPosition()</text>
<polygon fill="#666666" stroke="#666666" points="186.5,-337.5 186.5,-337.5 333.5,-337.5 333.5,-337.5 186.5,-337.5"/>
<polygon fill="#666666" stroke="#666666" points="186.5,-322.5 186.5,-322.5 333.5,-322.5 333.5,-322.5 186.5,-322.5"/>
<polygon fill="none" stroke="#666666" points="186,-261 186,-366 333,-366 333,-261 186,-261"/>
</a>
</g>
</g>
<!-- Node5 -->
<g id="Node000005" class="node">
<title>Node5</title>
<g id="a_Node000005"><a xlink:href="group__spatialpartitioning.html" target="_top" xlink:title=" ">
<polygon fill="white" stroke="transparent" points="161,-224 0,-224 0,-97 161,-97 161,-224"/>
<text text-anchor="start" x="5.5" y="-211.5" font-family="Helvetica,sans-Serif" font-size="10.00">Ponca::Query&lt; QueryInput</text>
<text text-anchor="start" x="5.5" y="-200.5" font-family="Helvetica,sans-Serif" font-size="10.00">IsPosition&lt; DataPoint</text>
<text text-anchor="start" x="5.5" y="-189.5" font-family="Helvetica,sans-Serif" font-size="10.00"> &gt;, QueryOutputIsKNearest</text>
<text text-anchor="start" x="5.5" y="-178.5" font-family="Helvetica,sans-Serif" font-size="10.00">&lt; Index, DataPoint::Scalar &gt; &gt;</text>
<text text-anchor="start" x="79" y="-163.5" font-family="Helvetica,sans-Serif" font-size="10.00"> </text>
<text text-anchor="start" x="25" y="-148.5" font-family="Helvetica,sans-Serif" font-size="10.00">+</text>
<text text-anchor="start" x="58.5" y="-148.5" font-family="Helvetica,sans-Serif" font-size="10.00">Query()</text>
<text text-anchor="start" x="25" y="-133.5" font-family="Helvetica,sans-Serif" font-size="10.00">+</text>
<text text-anchor="start" x="58.5" y="-133.5" font-family="Helvetica,sans-Serif" font-size="10.00">Query()</text>
<text text-anchor="start" x="25" y="-118.5" font-family="Helvetica,sans-Serif" font-size="10.00">+</text>
<text text-anchor="start" x="58.5" y="-118.5" font-family="Helvetica,sans-Serif" font-size="10.00">operator()()</text>
<text text-anchor="start" x="25" y="-103.5" font-family="Helvetica,sans-Serif" font-size="10.00">+</text>
<text text-anchor="start" x="58.5" y="-103.5" font-family="Helvetica,sans-Serif" font-size="10.00">operator()()</text>
<polygon fill="#666666" stroke="#666666" points="0.5,-173.5 0.5,-173.5 161.5,-173.5 161.5,-173.5 0.5,-173.5"/>
<polygon fill="#666666" stroke="#666666" points="0.5,-158.5 0.5,-158.5 161.5,-158.5 161.5,-158.5 0.5,-158.5"/>
<polygon fill="none" stroke="#666666" points="0,-97 0,-224 161,-224 161,-97 0,-97"/>
</a>
</g>
</g>
<!-- Node1&#45;&gt;Node5 -->
<g id="edge5_Node000001_Node000005" class="edge">
<title>Node1&#45;&gt;Node5</title>
<g id="a_edge5_Node000001_Node000005"><a xlink:title=" ">
<path fill="none" stroke="#63b8ff" d="M190.72,-254.48C178.9,-244.51 166.58,-234.12 154.63,-224.04"/>
<polygon fill="none" stroke="#63b8ff" points="188.5,-257.18 198.4,-260.96 193.01,-251.83 188.5,-257.18"/>
</a>
</g>
</g>
<!-- Node7 -->
<g id="Node000007" class="node">
<title>Node7</title>
<g id="a_Node000007"><a xlink:href="group__spatialpartitioning.html" target="_top" xlink:title=" ">
<polygon fill="white" stroke="transparent" points="340,-224 179,-224 179,-97 340,-97 340,-224"/>
<text text-anchor="start" x="184.5" y="-211.5" font-family="Helvetica,sans-Serif" font-size="10.00">Ponca::Query&lt; QueryInput</text>
<text text-anchor="start" x="184.5" y="-200.5" font-family="Helvetica,sans-Serif" font-size="10.00">IsPosition&lt; DataPoint</text>
<text text-anchor="start" x="184.5" y="-189.5" font-family="Helvetica,sans-Serif" font-size="10.00"> &gt;, QueryOutputIsNearest</text>
<text text-anchor="start" x="184.5" y="-178.5" font-family="Helvetica,sans-Serif" font-size="10.00">&lt; Index, DataPoint::Scalar &gt; &gt;</text>
<text text-anchor="start" x="258" y="-163.5" font-family="Helvetica,sans-Serif" font-size="10.00"> </text>
<text text-anchor="start" x="204" y="-148.5" font-family="Helvetica,sans-Serif" font-size="10.00">+</text>
<text text-anchor="start" x="237.5" y="-148.5" font-family="Helvetica,sans-Serif" font-size="10.00">Query()</text>
<text text-anchor="start" x="204" y="-133.5" font-family="Helvetica,sans-Serif" font-size="10.00">+</text>
<text text-anchor="start" x="237.5" y="-133.5" font-family="Helvetica,sans-Serif" font-size="10.00">Query()</text>
<text text-anchor="start" x="204" y="-118.5" font-family="Helvetica,sans-Serif" font-size="10.00">+</text>
<text text-anchor="start" x="237.5" y="-118.5" font-family="Helvetica,sans-Serif" font-size="10.00">operator()()</text>
<text text-anchor="start" x="204" y="-103.5" font-family="Helvetica,sans-Serif" font-size="10.00">+</text>
<text text-anchor="start" x="237.5" y="-103.5" font-family="Helvetica,sans-Serif" font-size="10.00">operator()()</text>
<polygon fill="#666666" stroke="#666666" points="179.5,-173.5 179.5,-173.5 340.5,-173.5 340.5,-173.5 179.5,-173.5"/>
<polygon fill="#666666" stroke="#666666" points="179.5,-158.5 179.5,-158.5 340.5,-158.5 340.5,-158.5 179.5,-158.5"/>
<polygon fill="none" stroke="#666666" points="179,-97 179,-224 340,-224 340,-97 179,-97"/>
</a>
</g>
</g>
<!-- Node1&#45;&gt;Node7 -->
<g id="edge7_Node000001_Node000007" class="edge">
<title>Node1&#45;&gt;Node7</title>
<g id="a_edge7_Node000001_Node000007"><a xlink:title=" ">
<path fill="none" stroke="#63b8ff" d="M259.5,-250.76C259.5,-241.94 259.5,-232.87 259.5,-224.04"/>
<polygon fill="none" stroke="#63b8ff" points="256,-250.96 259.5,-260.96 263,-250.96 256,-250.96"/>
</a>
</g>
</g>
<!-- Node9 -->
<g id="Node000009" class="node">
<title>Node9</title>
<g id="a_Node000009"><a xlink:href="group__spatialpartitioning.html" target="_top" xlink:title=" ">
<polygon fill="white" stroke="transparent" points="519,-224 358,-224 358,-97 519,-97 519,-224"/>
<text text-anchor="start" x="363.5" y="-211.5" font-family="Helvetica,sans-Serif" font-size="10.00">Ponca::Query&lt; QueryInput</text>
<text text-anchor="start" x="363.5" y="-200.5" font-family="Helvetica,sans-Serif" font-size="10.00">IsPosition&lt; DataPoint</text>
<text text-anchor="start" x="363.5" y="-189.5" font-family="Helvetica,sans-Serif" font-size="10.00"> &gt;, QueryOutputIsRange</text>
<text text-anchor="start" x="363.5" y="-178.5" font-family="Helvetica,sans-Serif" font-size="10.00">&lt; Index, DataPoint::Scalar &gt; &gt;</text>
<text text-anchor="start" x="437" y="-163.5" font-family="Helvetica,sans-Serif" font-size="10.00"> </text>
<text text-anchor="start" x="383" y="-148.5" font-family="Helvetica,sans-Serif" font-size="10.00">+</text>
<text text-anchor="start" x="416.5" y="-148.5" font-family="Helvetica,sans-Serif" font-size="10.00">Query()</text>
<text text-anchor="start" x="383" y="-133.5" font-family="Helvetica,sans-Serif" font-size="10.00">+</text>
<text text-anchor="start" x="416.5" y="-133.5" font-family="Helvetica,sans-Serif" font-size="10.00">Query()</text>
<text text-anchor="start" x="383" y="-118.5" font-family="Helvetica,sans-Serif" font-size="10.00">+</text>
<text text-anchor="start" x="416.5" y="-118.5" font-family="Helvetica,sans-Serif" font-size="10.00">operator()()</text>
<text text-anchor="start" x="383" y="-103.5" font-family="Helvetica,sans-Serif" font-size="10.00">+</text>
<text text-anchor="start" x="416.5" y="-103.5" font-family="Helvetica,sans-Serif" font-size="10.00">operator()()</text>
<polygon fill="#666666" stroke="#666666" points="358.5,-173.5 358.5,-173.5 519.5,-173.5 519.5,-173.5 358.5,-173.5"/>
<polygon fill="#666666" stroke="#666666" points="358.5,-158.5 358.5,-158.5 519.5,-158.5 519.5,-158.5 358.5,-158.5"/>
<polygon fill="none" stroke="#666666" points="358,-97 358,-224 519,-224 519,-97 358,-97"/>
</a>
</g>
</g>
<!-- Node1&#45;&gt;Node9 -->
<g id="edge9_Node000001_Node000009" class="edge">
<title>Node1&#45;&gt;Node9</title>
<g id="a_edge9_Node000001_Node000009"><a xlink:title=" ">
<path fill="none" stroke="#63b8ff" d="M328.28,-254.48C340.1,-244.51 352.42,-234.12 364.37,-224.04"/>
<polygon fill="none" stroke="#63b8ff" points="325.99,-251.83 320.6,-260.96 330.5,-257.18 325.99,-251.83"/>
</a>
</g>
</g>
<!-- Node2 -->
<g id="Node000002" class="node">
<title>Node2</title>
<g id="a_Node000002"><a xlink:href="group__spatialpartitioning.html" target="_top" xlink:title=" ">
<polygon fill="white" stroke="transparent" points="325.5,-493 193.5,-493 193.5,-403 325.5,-403 325.5,-493"/>
<text text-anchor="start" x="198.5" y="-481" font-family="Helvetica,sans-Serif" font-size="10.00">Ponca::QueryInput&lt;</text>
<text text-anchor="start" x="198.5" y="-470" font-family="Helvetica,sans-Serif" font-size="10.00"> DataPoint::VectorType &gt;</text>
<text text-anchor="start" x="257.5" y="-455" font-family="Helvetica,sans-Serif" font-size="10.00"> </text>
<text text-anchor="start" x="209.5" y="-440" font-family="Helvetica,sans-Serif" font-size="10.00">+</text>
<text text-anchor="start" x="234.5" y="-440" font-family="Helvetica,sans-Serif" font-size="10.00">QueryInput()</text>
<text text-anchor="start" x="209.5" y="-425" font-family="Helvetica,sans-Serif" font-size="10.00">+</text>
<text text-anchor="start" x="234.5" y="-425" font-family="Helvetica,sans-Serif" font-size="10.00">input()</text>
<text text-anchor="start" x="209.5" y="-410" font-family="Helvetica,sans-Serif" font-size="10.00">#</text>
<text text-anchor="start" x="234.5" y="-410" font-family="Helvetica,sans-Serif" font-size="10.00">setInput()</text>
<polygon fill="#666666" stroke="#666666" points="193.5,-465 193.5,-465 325.5,-465 325.5,-465 193.5,-465"/>
<polygon fill="#666666" stroke="#666666" points="193.5,-450 193.5,-450 325.5,-450 325.5,-450 193.5,-450"/>
<polygon fill="none" stroke="#666666" points="193.5,-403 193.5,-493 325.5,-493 325.5,-403 193.5,-403"/>
</a>
</g>
</g>
<!-- Node2&#45;&gt;Node1 -->
<g id="edge1_Node000001_Node000002" class="edge">
<title>Node2&#45;&gt;Node1</title>
<g id="a_edge1_Node000001_Node000002"><a xlink:title=" ">
<path fill="none" stroke="#63b8ff" d="M259.5,-392.76C259.5,-383.99 259.5,-374.94 259.5,-366.23"/>
<polygon fill="none" stroke="#63b8ff" points="256,-392.88 259.5,-402.88 263,-392.88 256,-392.88"/>
</a>
</g>
</g>
<!-- Node3 -->
<g id="Node000003" class="node">
<title>Node3</title>
<g id="a_Node000003"><a xlink:href="group__spatialpartitioning.html#structPonca_1_1QueryInputBase" target="_top" xlink:title="Base class for queries input type.">
<polygon fill="white" stroke="transparent" points="317.5,-716 193.5,-716 193.5,-667 317.5,-667 317.5,-716"/>
<text text-anchor="start" x="198.5" y="-703.5" font-family="Helvetica,sans-Serif" font-size="10.00">Ponca::QueryInputBase</text>
<text text-anchor="start" x="253.5" y="-688.5" font-family="Helvetica,sans-Serif" font-size="10.00"> </text>
<text text-anchor="start" x="253.5" y="-673.5" font-family="Helvetica,sans-Serif" font-size="10.00"> </text>
<polygon fill="#666666" stroke="#666666" points="193.5,-698.5 193.5,-698.5 317.5,-698.5 317.5,-698.5 193.5,-698.5"/>
<polygon fill="#666666" stroke="#666666" points="193.5,-683.5 193.5,-683.5 317.5,-683.5 317.5,-683.5 193.5,-683.5"/>
<polygon fill="none" stroke="#666666" points="193.5,-667 193.5,-716 317.5,-716 317.5,-667 193.5,-667"/>
</a>
</g>
</g>
<!-- Node3&#45;&gt;Node2 -->
<g id="edge2_Node000002_Node000003" class="edge">
<title>Node3&#45;&gt;Node2</title>
<g id="a_edge2_Node000002_Node000003"><a xlink:title=" ">
<path fill="none" stroke="#63b8ff" d="M256.06,-656.74C256.77,-613.97 257.99,-540.19 258.77,-493.04"/>
<polygon fill="none" stroke="#63b8ff" points="252.56,-656.85 255.89,-666.9 259.56,-656.96 252.56,-656.85"/>
</a>
</g>
</g>
<!-- Node4 -->
<g id="Node000004" class="node">
<title>Node4</title>
<g id="a_Node000004"><a xlink:href="group__spatialpartitioning.html#structPonca_1_1QueryInput" target="_top" xlink:title="Base class for Query input type.">
<polygon fill="white" stroke="transparent" points="379.5,-630 271.5,-630 271.5,-540 379.5,-540 379.5,-630"/>
<text text-anchor="start" x="276.5" y="-618" font-family="Helvetica,sans-Serif" font-size="10.00">Ponca::QueryInput&lt;</text>
<text text-anchor="start" x="292" y="-607" font-family="Helvetica,sans-Serif" font-size="10.00"> InputType_ &gt;</text>
<text text-anchor="start" x="323.5" y="-592" font-family="Helvetica,sans-Serif" font-size="10.00"> </text>
<text text-anchor="start" x="281.5" y="-577" font-family="Helvetica,sans-Serif" font-size="10.00">+</text>
<text text-anchor="start" x="300.5" y="-577" font-family="Helvetica,sans-Serif" font-size="10.00">QueryInput()</text>
<text text-anchor="start" x="281.5" y="-562" font-family="Helvetica,sans-Serif" font-size="10.00">+</text>
<text text-anchor="start" x="300.5" y="-562" font-family="Helvetica,sans-Serif" font-size="10.00">input()</text>
<text text-anchor="start" x="281.5" y="-547" font-family="Helvetica,sans-Serif" font-size="10.00">#</text>
<text text-anchor="start" x="300.5" y="-547" font-family="Helvetica,sans-Serif" font-size="10.00">setInput()</text>
<polygon fill="#666666" stroke="#666666" points="271.5,-602 271.5,-602 379.5,-602 379.5,-602 271.5,-602"/>
<polygon fill="#666666" stroke="#666666" points="271.5,-587 271.5,-587 379.5,-587 379.5,-587 271.5,-587"/>
<polygon fill="none" stroke="#666666" points="271.5,-540 271.5,-630 379.5,-630 379.5,-540 271.5,-540"/>
</a>
</g>
</g>
<!-- Node3&#45;&gt;Node4 -->
<g id="edge4_Node000004_Node000003" class="edge">
<title>Node3&#45;&gt;Node4</title>
<g id="a_edge4_Node000004_Node000003"><a xlink:title=" ">
<path fill="none" stroke="#63b8ff" d="M277.1,-658.26C283.04,-649.39 289.59,-639.6 295.91,-630.18"/>
<polygon fill="none" stroke="#63b8ff" points="274.04,-656.53 271.38,-666.79 279.86,-660.43 274.04,-656.53"/>
</a>
</g>
</g>
<!-- Node4&#45;&gt;Node2 -->
<g id="edge3_Node000002_Node000004" class="edge">
<title>Node4&#45;&gt;Node2</title>
<g id="a_edge3_Node000002_Node000004"><a xlink:title=" ">
<path fill="none" stroke="orange" d="M299.35,-530.52C293.32,-518.19 286.97,-505.2 281.16,-493.3"/>
<polygon fill="orange" stroke="orange" points="296.35,-532.35 303.89,-539.8 302.64,-529.27 296.35,-532.35"/>
</a>
</g>
<text text-anchor="middle" x="360" y="-514" font-family="Helvetica,sans-Serif" font-size="10.00" fill="grey"> &lt; DataPoint::VectorType &gt;</text>
</g>
<!-- Node6 -->
<g id="Node000006" class="node">
<title>Node6</title>
<g id="a_Node000006"><a xlink:href="group__spatialpartitioning.html#structPonca_1_1KNearestPointQuery" target="_top" xlink:title="Base Query class combining QueryInputIsPosition and QueryOutputIsKNearest.">
<polygon fill="white" stroke="transparent" points="153,-60 8,-60 8,0 153,0 153,-60"/>
<text text-anchor="start" x="13.5" y="-48" font-family="Helvetica,sans-Serif" font-size="10.00">Ponca::KNearestPointQuery</text>
<text text-anchor="start" x="29" y="-37" font-family="Helvetica,sans-Serif" font-size="10.00">&lt; Index, DataPoint &gt;</text>
<text text-anchor="start" x="79" y="-22" font-family="Helvetica,sans-Serif" font-size="10.00"> </text>
<text text-anchor="start" x="79" y="-7" font-family="Helvetica,sans-Serif" font-size="10.00"> </text>
<polygon fill="#666666" stroke="#666666" points="8.5,-32 8.5,-32 153.5,-32 153.5,-32 8.5,-32"/>
<polygon fill="#666666" stroke="#666666" points="8.5,-17 8.5,-17 153.5,-17 153.5,-17 8.5,-17"/>
<polygon fill="none" stroke="#666666" points="8,0 8,-60 153,-60 153,0 8,0"/>
</a>
</g>
</g>
<!-- Node5&#45;&gt;Node6 -->
<g id="edge6_Node000005_Node000006" class="edge">
<title>Node5&#45;&gt;Node6</title>
<g id="a_edge6_Node000005_Node000006"><a xlink:title=" ">
<path fill="none" stroke="#63b8ff" d="M80.5,-86.62C80.5,-77.34 80.5,-68.3 80.5,-60.3"/>
<polygon fill="none" stroke="#63b8ff" points="77,-86.76 80.5,-96.76 84,-86.76 77,-86.76"/>
</a>
</g>
</g>
<!-- Node8 -->
<g id="Node000008" class="node">
<title>Node8</title>
<g id="a_Node000008"><a xlink:href="group__spatialpartitioning.html#structPonca_1_1NearestPointQuery" target="_top" xlink:title="Base Query class combining QueryInputIsPosition and QueryOutputIsNearest.">
<polygon fill="white" stroke="transparent" points="328.5,-60 190.5,-60 190.5,0 328.5,0 328.5,-60"/>
<text text-anchor="start" x="195.5" y="-48" font-family="Helvetica,sans-Serif" font-size="10.00">Ponca::NearestPointQuery</text>
<text text-anchor="start" x="207.5" y="-37" font-family="Helvetica,sans-Serif" font-size="10.00">&lt; Index, DataPoint &gt;</text>
<text text-anchor="start" x="257.5" y="-22" font-family="Helvetica,sans-Serif" font-size="10.00"> </text>
<text text-anchor="start" x="257.5" y="-7" font-family="Helvetica,sans-Serif" font-size="10.00"> </text>
<polygon fill="#666666" stroke="#666666" points="190.5,-32 190.5,-32 328.5,-32 328.5,-32 190.5,-32"/>
<polygon fill="#666666" stroke="#666666" points="190.5,-17 190.5,-17 328.5,-17 328.5,-17 190.5,-17"/>
<polygon fill="none" stroke="#666666" points="190.5,0 190.5,-60 328.5,-60 328.5,0 190.5,0"/>
</a>
</g>
</g>
<!-- Node7&#45;&gt;Node8 -->
<g id="edge8_Node000007_Node000008" class="edge">
<title>Node7&#45;&gt;Node8</title>
<g id="a_edge8_Node000007_Node000008"><a xlink:title=" ">
<path fill="none" stroke="#63b8ff" d="M259.5,-86.62C259.5,-77.34 259.5,-68.3 259.5,-60.3"/>
<polygon fill="none" stroke="#63b8ff" points="256,-86.76 259.5,-96.76 263,-86.76 256,-86.76"/>
</a>
</g>
</g>
<!-- Node10 -->
<g id="Node000010" class="node">
<title>Node10</title>
<g id="a_Node000010"><a xlink:href="group__spatialpartitioning.html#structPonca_1_1RangePointQuery" target="_top" xlink:title="Base Query class combining QueryInputIsPosition and QueryOutputIsRange.">
<polygon fill="white" stroke="transparent" points="504,-60 373,-60 373,0 504,0 504,-60"/>
<text text-anchor="start" x="378.5" y="-48" font-family="Helvetica,sans-Serif" font-size="10.00">Ponca::RangePointQuery</text>
<text text-anchor="start" x="387" y="-37" font-family="Helvetica,sans-Serif" font-size="10.00">&lt; Index, DataPoint &gt;</text>
<text text-anchor="start" x="437" y="-22" font-family="Helvetica,sans-Serif" font-size="10.00"> </text>
<text text-anchor="start" x="437" y="-7" font-family="Helvetica,sans-Serif" font-size="10.00"> </text>
<polygon fill="#666666" stroke="#666666" points="373.5,-32 373.5,-32 504.5,-32 504.5,-32 373.5,-32"/>
<polygon fill="#666666" stroke="#666666" points="373.5,-17 373.5,-17 504.5,-17 504.5,-17 373.5,-17"/>
<polygon fill="none" stroke="#666666" points="373,0 373,-60 504,-60 504,0 373,0"/>
</a>
</g>
</g>
<!-- Node9&#45;&gt;Node10 -->
<g id="edge10_Node000009_Node000010" class="edge">
<title>Node9&#45;&gt;Node10</title>
<g id="a_edge10_Node000009_Node000010"><a xlink:title=" ">
<path fill="none" stroke="#63b8ff" d="M438.5,-86.62C438.5,-77.34 438.5,-68.3 438.5,-60.3"/>
<polygon fill="none" stroke="#63b8ff" points="435,-86.76 438.5,-96.76 442,-86.76 435,-86.76"/>
</a>
</g>
</g>
</g>
</svg>

<g id="navigator" transform="translate(0 0)" fill="#404254">
  <rect fill="#f2f5e9" fill-opacity="0.5" stroke="#606060" stroke-width=".5" x="0" y="0" width="60" height="60"/>
  <use id="zoomplus" xlink:href="#zoomPlus" x="17" y="9" onmousedown="handleZoom(evt,'in')"/>
  <use id="zoomminus" xlink:href="#zoomMin" x="42" y="9" onmousedown="handleZoom(evt,'out')"/>
  <use id="reset" xlink:href="#resetDef" x="30" y="36" onmousedown="handleReset()"/>
   <use id="arrowup" xlink:href="#arrowUp" x="0" y="0" onmousedown="handlePan(0,-1)"/>
  <use id="arrowright" xlink:href="#arrowRight" x="0" y="0" onmousedown="handlePan(1,0)"/>
  <use id="arrowdown" xlink:href="#arrowDown" x="0" y="0" onmousedown="handlePan(0,1)"/>
  <use id="arrowleft" xlink:href="#arrowLeft" x="0" y="0" onmousedown="handlePan(-1,0)"/>
</g>
<svg viewBox="0 0 15 15" width="100%" height="30px" preserveAspectRatio="xMaxYMin meet">
 <g id="arrow_out" transform="scale(0.3 0.3)">
  <a xlink:href="structPonca_1_1QueryInputIsPosition__inherit__graph_org.svg" target="_base">
   <rect id="button" ry="5" rx="5" y="6" x="6" height="38" width="38"
        fill="#f2f5e9" fill-opacity="0.5" stroke="#606060" stroke-width="1.0"/>
   <path id="arrow"
     d="M 11.500037,31.436501 C 11.940474,20.09759 22.043105,11.32322 32.158766,21.979434 L 37.068811,17.246167 C 37.068811,17.246167 37.088388,32 37.088388,32 L 22.160133,31.978069 C 22.160133,31.978069 26.997745,27.140456 26.997745,27.140456 C 18.528582,18.264221 13.291696,25.230495 11.500037,31.436501 z"
     style="fill:#404040;"/>
  </a>
 </g>
</svg>

<style type='text/css'>
<![CDATA[
[data-mouse-over-selected='false'] { opacity: 0.7; }
[data-mouse-over-selected='true']  { opacity: 1.0; }
]]>
</style>
<script type="application/ecmascript"><![CDATA[
document.addEventListener('DOMContentLoaded', (event) => {
  highlightEdges();
  highlightAdjacentNodes();
});
]]></script>
</svg>
