<?xml version="1.0" encoding="UTF-8" standalone="no"?>
<!DOCTYPE svg PUBLIC "-//W3C//DTD SVG 1.1//EN"
 "http://www.w3.org/Graphics/SVG/1.1/DTD/svg11.dtd">
<!-- Generated by graphviz version 2.43.0 (0)
 -->
<!-- Title: Ponca::QueryOutputIsKNearest&lt; Index, Scalar &gt; Pages: 1 -->
<svg width="364pt" height="610pt"
 viewBox="0.00 0.00 363.50 610.00" xmlns="http://www.w3.org/2000/svg" xmlns:xlink="http://www.w3.org/1999/xlink">
<g id="graph0" class="graph" transform="scale(1 1) rotate(0) translate(4 606)">
<title>Ponca::QueryOutputIsKNearest&lt; Index, Scalar &gt;</title>
<!-- Node1 -->
<g id="node1" class="node">
<title>Node1</title>
<g id="a_node1"><a xlink:title="Base class for knearest queries.">
<polygon fill="#999999" stroke="#666666" points="94.5,-405.5 94.5,-506.5 261.5,-506.5 261.5,-405.5 94.5,-405.5"/>
<text text-anchor="start" x="102.5" y="-494.5" font-family="Helvetica,sans-Serif" font-size="10.00">Ponca::QueryOutputIsKNearest</text>
<text text-anchor="middle" x="178" y="-483.5" font-family="Helvetica,sans-Serif" font-size="10.00">&lt; Index, Scalar &gt;</text>
<polyline fill="none" stroke="#666666" points="94.5,-476.5 261.5,-476.5 "/>
<text text-anchor="start" x="102.5" y="-464.5" font-family="Helvetica,sans-Serif" font-size="10.00"># m_queue</text>
<polyline fill="none" stroke="#666666" points="94.5,-457.5 261.5,-457.5 "/>
<text text-anchor="start" x="102.5" y="-445.5" font-family="Helvetica,sans-Serif" font-size="10.00">+ QueryOutputIsKNearest()</text>
<text text-anchor="start" x="102.5" y="-434.5" font-family="Helvetica,sans-Serif" font-size="10.00">+ queue()</text>
<text text-anchor="start" x="102.5" y="-423.5" font-family="Helvetica,sans-Serif" font-size="10.00"># reset()</text>
<text text-anchor="start" x="102.5" y="-412.5" font-family="Helvetica,sans-Serif" font-size="10.00"># descentDistanceThreshold()</text>
</a>
</g>
</g>
<!-- Node3 -->
<g id="node3" class="node">
<title>Node3</title>
<g id="a_node3"><a xlink:href="group__spatialpartitioning.html" target="_top" xlink:title=" ">
<polygon fill="white" stroke="#bfbfbf" points="0,-251 0,-341 170,-341 170,-251 0,-251"/>
<text text-anchor="start" x="8" y="-329" font-family="Helvetica,sans-Serif" font-size="10.00">Ponca::Query&lt; QueryInput</text>
<text text-anchor="start" x="8" y="-318" font-family="Helvetica,sans-Serif" font-size="10.00">IsIndex&lt; Index &gt;, QueryOutput</text>
<text text-anchor="middle" x="85" y="-307" font-family="Helvetica,sans-Serif" font-size="10.00">IsKNearest&lt; Index, Scalar &gt; &gt;</text>
<polyline fill="none" stroke="#bfbfbf" points="0,-300 170,-300 "/>
<text text-anchor="middle" x="85" y="-288" font-family="Helvetica,sans-Serif" font-size="10.00"> </text>
<polyline fill="none" stroke="#bfbfbf" points="0,-281 170,-281 "/>
<text text-anchor="start" x="8" y="-269" font-family="Helvetica,sans-Serif" font-size="10.00">+ Query()</text>
<text text-anchor="start" x="8" y="-258" font-family="Helvetica,sans-Serif" font-size="10.00">+ Query()</text>
</a>
</g>
</g>
<!-- Node1&#45;&gt;Node3 -->
<g id="edge2" class="edge">
<title>Node1&#45;&gt;Node3</title>
<path fill="none" stroke="#63b8ff" d="M143.76,-396.82C132.9,-378.38 121.09,-358.31 110.92,-341.03"/>
<polygon fill="none" stroke="#63b8ff" points="140.74,-398.6 148.83,-405.44 146.77,-395.05 140.74,-398.6"/>
</g>
<!-- Node5 -->
<g id="node5" class="node">
<title>Node5</title>
<g id="a_node5"><a xlink:href="group__spatialpartitioning.html" target="_top" xlink:title=" ">
<polygon fill="white" stroke="#666666" points="188.5,-245.5 188.5,-346.5 355.5,-346.5 355.5,-245.5 188.5,-245.5"/>
<text text-anchor="start" x="196.5" y="-334.5" font-family="Helvetica,sans-Serif" font-size="10.00">Ponca::QueryOutputIsKNearest</text>
<text text-anchor="middle" x="272" y="-323.5" font-family="Helvetica,sans-Serif" font-size="10.00">&lt; Index, DataPoint::Scalar &gt;</text>
<polyline fill="none" stroke="#666666" points="188.5,-316.5 355.5,-316.5 "/>
<text text-anchor="start" x="196.5" y="-304.5" font-family="Helvetica,sans-Serif" font-size="10.00"># m_queue</text>
<polyline fill="none" stroke="#666666" points="188.5,-297.5 355.5,-297.5 "/>
<text text-anchor="start" x="196.5" y="-285.5" font-family="Helvetica,sans-Serif" font-size="10.00">+ QueryOutputIsKNearest()</text>
<text text-anchor="start" x="196.5" y="-274.5" font-family="Helvetica,sans-Serif" font-size="10.00">+ queue()</text>
<text text-anchor="start" x="196.5" y="-263.5" font-family="Helvetica,sans-Serif" font-size="10.00"># reset()</text>
<text text-anchor="start" x="196.5" y="-252.5" font-family="Helvetica,sans-Serif" font-size="10.00"># descentDistanceThreshold()</text>
</a>
</g>
</g>
<!-- Node1&#45;&gt;Node5 -->
<g id="edge4" class="edge">
<title>Node1&#45;&gt;Node5</title>
<path fill="none" stroke="orange" d="M212.81,-396.49C222.55,-380.11 233.05,-362.47 242.46,-346.65"/>
<polygon fill="orange" stroke="orange" points="209.59,-395.06 207.48,-405.44 215.61,-398.64 209.59,-395.06"/>
<text text-anchor="start" x="231" y="-379" font-family="Helvetica,sans-Serif" font-size="10.00"> &lt; Index, DataPoint</text>
<text text-anchor="middle" x="279" y="-368" font-family="Helvetica,sans-Serif" font-size="10.00">::Scalar &gt;</text>
</g>
<!-- Node2 -->
<g id="node2" class="node">
<title>Node2</title>
<g id="a_node2"><a xlink:href="group__spatialpartitioning.html#structPonca_1_1QueryOutputBase" target="_top" xlink:title="Base class for queries output type.">
<polygon fill="white" stroke="#666666" points="109,-544.5 109,-601.5 247,-601.5 247,-544.5 109,-544.5"/>
<text text-anchor="middle" x="178" y="-589.5" font-family="Helvetica,sans-Serif" font-size="10.00">Ponca::QueryOutputBase</text>
<polyline fill="none" stroke="#666666" points="109,-582.5 247,-582.5 "/>
<text text-anchor="middle" x="178" y="-570.5" font-family="Helvetica,sans-Serif" font-size="10.00"> </text>
<polyline fill="none" stroke="#666666" points="109,-563.5 247,-563.5 "/>
<text text-anchor="middle" x="178" y="-551.5" font-family="Helvetica,sans-Serif" font-size="10.00"> </text>
</a>
</g>
</g>
<!-- Node2&#45;&gt;Node1 -->
<g id="edge1" class="edge">
<title>Node2&#45;&gt;Node1</title>
<path fill="none" stroke="#63b8ff" d="M178,-534.19C178,-525.43 178,-515.99 178,-506.81"/>
<polygon fill="none" stroke="#63b8ff" points="174.5,-534.45 178,-544.45 181.5,-534.45 174.5,-534.45"/>
</g>
<!-- Node4 -->
<g id="node4" class="node">
<title>Node4</title>
<g id="a_node4"><a xlink:href="group__spatialpartitioning.html#structPonca_1_1KNearestIndexQuery" target="_top" xlink:title="Base Query class combining QueryInputIsIndex and QueryOutputIsKNearest.">
<polygon fill="white" stroke="#666666" points="8.5,-123 8.5,-191 161.5,-191 161.5,-123 8.5,-123"/>
<text text-anchor="start" x="16.5" y="-179" font-family="Helvetica,sans-Serif" font-size="10.00">Ponca::KNearestIndexQuery</text>
<text text-anchor="middle" x="85" y="-168" font-family="Helvetica,sans-Serif" font-size="10.00">&lt; Index, Scalar &gt;</text>
<polyline fill="none" stroke="#666666" points="8.5,-161 161.5,-161 "/>
<text text-anchor="middle" x="85" y="-149" font-family="Helvetica,sans-Serif" font-size="10.00"> </text>
<polyline fill="none" stroke="#666666" points="8.5,-142 161.5,-142 "/>
<text text-anchor="middle" x="85" y="-130" font-family="Helvetica,sans-Serif" font-size="10.00"> </text>
</a>
</g>
</g>
<!-- Node3&#45;&gt;Node4 -->
<g id="edge3" class="edge">
<title>Node3&#45;&gt;Node4</title>
<path fill="none" stroke="#63b8ff" d="M85,-240.67C85,-223.93 85,-206.01 85,-191.15"/>
<polygon fill="none" stroke="#63b8ff" points="81.5,-240.9 85,-250.9 88.5,-240.9 81.5,-240.9"/>
</g>
<!-- Node6 -->
<g id="node6" class="node">
<title>Node6</title>
<g id="a_node6"><a xlink:href="group__spatialpartitioning.html" target="_top" xlink:title=" ">
<polygon fill="white" stroke="#bfbfbf" points="188.5,-106.5 188.5,-207.5 355.5,-207.5 355.5,-106.5 188.5,-106.5"/>
<text text-anchor="start" x="196.5" y="-195.5" font-family="Helvetica,sans-Serif" font-size="10.00">Ponca::Query&lt; QueryInput</text>
<text text-anchor="start" x="196.5" y="-184.5" font-family="Helvetica,sans-Serif" font-size="10.00">IsPosition&lt; DataPoint</text>
<text text-anchor="start" x="196.5" y="-173.5" font-family="Helvetica,sans-Serif" font-size="10.00"> &gt;, QueryOutputIsKNearest</text>
<text text-anchor="middle" x="272" y="-162.5" font-family="Helvetica,sans-Serif" font-size="10.00">&lt; Index, DataPoint::Scalar &gt; &gt;</text>
<polyline fill="none" stroke="#bfbfbf" points="188.5,-155.5 355.5,-155.5 "/>
<text text-anchor="middle" x="272" y="-143.5" font-family="Helvetica,sans-Serif" font-size="10.00"> </text>
<polyline fill="none" stroke="#bfbfbf" points="188.5,-136.5 355.5,-136.5 "/>
<text text-anchor="start" x="196.5" y="-124.5" font-family="Helvetica,sans-Serif" font-size="10.00">+ Query()</text>
<text text-anchor="start" x="196.5" y="-113.5" font-family="Helvetica,sans-Serif" font-size="10.00">+ Query()</text>
</a>
</g>
</g>
<!-- Node5&#45;&gt;Node6 -->
<g id="edge5" class="edge">
<title>Node5&#45;&gt;Node6</title>
<path fill="none" stroke="#63b8ff" d="M272,-234.95C272,-225.81 272,-216.47 272,-207.58"/>
<polygon fill="none" stroke="#63b8ff" points="268.5,-235.15 272,-245.15 275.5,-235.15 268.5,-235.15"/>
</g>
<!-- Node7 -->
<g id="node7" class="node">
<title>Node7</title>
<g id="a_node7"><a xlink:href="group__spatialpartitioning.html#structPonca_1_1KNearestPointQuery" target="_top" xlink:title="Base Query class combining QueryInputIsPosition and QueryOutputIsKNearest.">
<polygon fill="white" stroke="#666666" points="196.5,-0.5 196.5,-68.5 347.5,-68.5 347.5,-0.5 196.5,-0.5"/>
<text text-anchor="start" x="204.5" y="-56.5" font-family="Helvetica,sans-Serif" font-size="10.00">Ponca::KNearestPointQuery</text>
<text text-anchor="middle" x="272" y="-45.5" font-family="Helvetica,sans-Serif" font-size="10.00">&lt; Index, DataPoint &gt;</text>
<polyline fill="none" stroke="#666666" points="196.5,-38.5 347.5,-38.5 "/>
<text text-anchor="middle" x="272" y="-26.5" font-family="Helvetica,sans-Serif" font-size="10.00"> </text>
<polyline fill="none" stroke="#666666" points="196.5,-19.5 347.5,-19.5 "/>
<text text-anchor="middle" x="272" y="-7.5" font-family="Helvetica,sans-Serif" font-size="10.00"> </text>
</a>
</g>
</g>
<!-- Node6&#45;&gt;Node7 -->
<g id="edge6" class="edge">
<title>Node6&#45;&gt;Node7</title>
<path fill="none" stroke="#63b8ff" d="M272,-96.07C272,-86.61 272,-77.14 272,-68.59"/>
<polygon fill="none" stroke="#63b8ff" points="268.5,-96.29 272,-106.29 275.5,-96.29 268.5,-96.29"/>
</g>
</g>
</svg>
