<?xml version="1.0" encoding="UTF-8" standalone="no"?>
<!DOCTYPE svg PUBLIC "-//W3C//DTD SVG 1.1//EN"
 "http://www.w3.org/Graphics/SVG/1.1/DTD/svg11.dtd">
<!-- Generated by graphviz version 2.43.0 (0)
 -->
<!-- Title: Ponca::QueryOutputIsNearest&lt; Index, Scalar &gt; Pages: 1 -->
<svg width="362pt" height="632pt"
 viewBox="0.00 0.00 361.50 632.00" xmlns="http://www.w3.org/2000/svg" xmlns:xlink="http://www.w3.org/1999/xlink">
<g id="graph0" class="graph" transform="scale(1 1) rotate(0) translate(4 628)">
<title>Ponca::QueryOutputIsNearest&lt; Index, Scalar &gt;</title>
<!-- Node1 -->
<g id="node1" class="node">
<title>Node1</title>
<g id="a_node1"><a xlink:title="Base class for nearest queries.">
<polygon fill="#999999" stroke="#666666" points="95,-416.5 95,-528.5 259,-528.5 259,-416.5 95,-416.5"/>
<text text-anchor="start" x="103" y="-516.5" font-family="Helvetica,sans-Serif" font-size="10.00">Ponca::QueryOutputIsNearest</text>
<text text-anchor="middle" x="177" y="-505.5" font-family="Helvetica,sans-Serif" font-size="10.00">&lt; Index, Scalar &gt;</text>
<polyline fill="none" stroke="#666666" points="95,-498.5 259,-498.5 "/>
<text text-anchor="start" x="103" y="-486.5" font-family="Helvetica,sans-Serif" font-size="10.00"># m_nearest</text>
<text text-anchor="start" x="103" y="-475.5" font-family="Helvetica,sans-Serif" font-size="10.00"># m_squared_distance</text>
<polyline fill="none" stroke="#666666" points="95,-468.5 259,-468.5 "/>
<text text-anchor="start" x="103" y="-456.5" font-family="Helvetica,sans-Serif" font-size="10.00">+ QueryOutputIsNearest()</text>
<text text-anchor="start" x="103" y="-445.5" font-family="Helvetica,sans-Serif" font-size="10.00">+ get()</text>
<text text-anchor="start" x="103" y="-434.5" font-family="Helvetica,sans-Serif" font-size="10.00"># reset()</text>
<text text-anchor="start" x="103" y="-423.5" font-family="Helvetica,sans-Serif" font-size="10.00"># descentDistanceThreshold()</text>
</a>
</g>
</g>
<!-- Node3 -->
<g id="node3" class="node">
<title>Node3</title>
<g id="a_node3"><a xlink:href="group__spatialpartitioning.html" target="_top" xlink:title=" ">
<polygon fill="white" stroke="#bfbfbf" points="0,-256.5 0,-346.5 170,-346.5 170,-256.5 0,-256.5"/>
<text text-anchor="start" x="8" y="-334.5" font-family="Helvetica,sans-Serif" font-size="10.00">Ponca::Query&lt; QueryInput</text>
<text text-anchor="start" x="8" y="-323.5" font-family="Helvetica,sans-Serif" font-size="10.00">IsIndex&lt; Index &gt;, QueryOutput</text>
<text text-anchor="middle" x="85" y="-312.5" font-family="Helvetica,sans-Serif" font-size="10.00">IsNearest&lt; Index, Scalar &gt; &gt;</text>
<polyline fill="none" stroke="#bfbfbf" points="0,-305.5 170,-305.5 "/>
<text text-anchor="middle" x="85" y="-293.5" font-family="Helvetica,sans-Serif" font-size="10.00"> </text>
<polyline fill="none" stroke="#bfbfbf" points="0,-286.5 170,-286.5 "/>
<text text-anchor="start" x="8" y="-274.5" font-family="Helvetica,sans-Serif" font-size="10.00">+ Query()</text>
<text text-anchor="start" x="8" y="-263.5" font-family="Helvetica,sans-Serif" font-size="10.00">+ Query()</text>
</a>
</g>
</g>
<!-- Node1&#45;&gt;Node3 -->
<g id="edge2" class="edge">
<title>Node1&#45;&gt;Node3</title>
<path fill="none" stroke="#63b8ff" d="M142.06,-407.31C131.05,-387.09 119.14,-365.22 109.07,-346.72"/>
<polygon fill="none" stroke="#63b8ff" points="139.02,-409.05 146.88,-416.16 145.17,-405.71 139.02,-409.05"/>
</g>
<!-- Node5 -->
<g id="node5" class="node">
<title>Node5</title>
<g id="a_node5"><a xlink:href="group__spatialpartitioning.html" target="_top" xlink:title=" ">
<polygon fill="white" stroke="#666666" points="188,-245.5 188,-357.5 352,-357.5 352,-245.5 188,-245.5"/>
<text text-anchor="start" x="196" y="-345.5" font-family="Helvetica,sans-Serif" font-size="10.00">Ponca::QueryOutputIsNearest</text>
<text text-anchor="middle" x="270" y="-334.5" font-family="Helvetica,sans-Serif" font-size="10.00">&lt; Index, DataPoint::Scalar &gt;</text>
<polyline fill="none" stroke="#666666" points="188,-327.5 352,-327.5 "/>
<text text-anchor="start" x="196" y="-315.5" font-family="Helvetica,sans-Serif" font-size="10.00"># m_nearest</text>
<text text-anchor="start" x="196" y="-304.5" font-family="Helvetica,sans-Serif" font-size="10.00"># m_squared_distance</text>
<polyline fill="none" stroke="#666666" points="188,-297.5 352,-297.5 "/>
<text text-anchor="start" x="196" y="-285.5" font-family="Helvetica,sans-Serif" font-size="10.00">+ QueryOutputIsNearest()</text>
<text text-anchor="start" x="196" y="-274.5" font-family="Helvetica,sans-Serif" font-size="10.00">+ get()</text>
<text text-anchor="start" x="196" y="-263.5" font-family="Helvetica,sans-Serif" font-size="10.00"># reset()</text>
<text text-anchor="start" x="196" y="-252.5" font-family="Helvetica,sans-Serif" font-size="10.00"># descentDistanceThreshold()</text>
</a>
</g>
</g>
<!-- Node1&#45;&gt;Node5 -->
<g id="edge4" class="edge">
<title>Node1&#45;&gt;Node5</title>
<path fill="none" stroke="orange" d="M212.37,-407.22C221.36,-390.9 230.93,-373.5 239.64,-357.67"/>
<polygon fill="orange" stroke="orange" points="209.21,-405.71 207.45,-416.16 215.34,-409.09 209.21,-405.71"/>
<text text-anchor="start" x="230" y="-390" font-family="Helvetica,sans-Serif" font-size="10.00"> &lt; Index, DataPoint</text>
<text text-anchor="middle" x="278" y="-379" font-family="Helvetica,sans-Serif" font-size="10.00">::Scalar &gt;</text>
</g>
<!-- Node2 -->
<g id="node2" class="node">
<title>Node2</title>
<g id="a_node2"><a xlink:href="group__spatialpartitioning.html#structPonca_1_1QueryOutputBase" target="_top" xlink:title="Base class for queries output type.">
<polygon fill="white" stroke="#666666" points="108,-566.5 108,-623.5 246,-623.5 246,-566.5 108,-566.5"/>
<text text-anchor="middle" x="177" y="-611.5" font-family="Helvetica,sans-Serif" font-size="10.00">Ponca::QueryOutputBase</text>
<polyline fill="none" stroke="#666666" points="108,-604.5 246,-604.5 "/>
<text text-anchor="middle" x="177" y="-592.5" font-family="Helvetica,sans-Serif" font-size="10.00"> </text>
<polyline fill="none" stroke="#666666" points="108,-585.5 246,-585.5 "/>
<text text-anchor="middle" x="177" y="-573.5" font-family="Helvetica,sans-Serif" font-size="10.00"> </text>
</a>
</g>
</g>
<!-- Node2&#45;&gt;Node1 -->
<g id="edge1" class="edge">
<title>Node2&#45;&gt;Node1</title>
<path fill="none" stroke="#63b8ff" d="M177,-556.11C177,-547.36 177,-537.88 177,-528.57"/>
<polygon fill="none" stroke="#63b8ff" points="173.5,-556.35 177,-566.35 180.5,-556.35 173.5,-556.35"/>
</g>
<!-- Node4 -->
<g id="node4" class="node">
<title>Node4</title>
<g id="a_node4"><a xlink:href="group__spatialpartitioning.html#structPonca_1_1NearestIndexQuery" target="_top" xlink:title="Base Query class combining QueryInputIsIndex and QueryOutputIsNearest.">
<polygon fill="white" stroke="#666666" points="12,-123 12,-191 158,-191 158,-123 12,-123"/>
<text text-anchor="start" x="20" y="-179" font-family="Helvetica,sans-Serif" font-size="10.00">Ponca::NearestIndexQuery</text>
<text text-anchor="middle" x="85" y="-168" font-family="Helvetica,sans-Serif" font-size="10.00">&lt; Index, Scalar &gt;</text>
<polyline fill="none" stroke="#666666" points="12,-161 158,-161 "/>
<text text-anchor="middle" x="85" y="-149" font-family="Helvetica,sans-Serif" font-size="10.00"> </text>
<polyline fill="none" stroke="#666666" points="12,-142 158,-142 "/>
<text text-anchor="middle" x="85" y="-130" font-family="Helvetica,sans-Serif" font-size="10.00"> </text>
</a>
</g>
</g>
<!-- Node3&#45;&gt;Node4 -->
<g id="edge3" class="edge">
<title>Node3&#45;&gt;Node4</title>
<path fill="none" stroke="#63b8ff" d="M85,-246.16C85,-227.73 85,-207.71 85,-191.41"/>
<polygon fill="none" stroke="#63b8ff" points="81.5,-246.19 85,-256.19 88.5,-246.19 81.5,-246.19"/>
</g>
<!-- Node6 -->
<g id="node6" class="node">
<title>Node6</title>
<g id="a_node6"><a xlink:href="group__spatialpartitioning.html" target="_top" xlink:title=" ">
<polygon fill="white" stroke="#bfbfbf" points="186.5,-106.5 186.5,-207.5 353.5,-207.5 353.5,-106.5 186.5,-106.5"/>
<text text-anchor="start" x="194.5" y="-195.5" font-family="Helvetica,sans-Serif" font-size="10.00">Ponca::Query&lt; QueryInput</text>
<text text-anchor="start" x="194.5" y="-184.5" font-family="Helvetica,sans-Serif" font-size="10.00">IsPosition&lt; DataPoint</text>
<text text-anchor="start" x="194.5" y="-173.5" font-family="Helvetica,sans-Serif" font-size="10.00"> &gt;, QueryOutputIsNearest</text>
<text text-anchor="middle" x="270" y="-162.5" font-family="Helvetica,sans-Serif" font-size="10.00">&lt; Index, DataPoint::Scalar &gt; &gt;</text>
<polyline fill="none" stroke="#bfbfbf" points="186.5,-155.5 353.5,-155.5 "/>
<text text-anchor="middle" x="270" y="-143.5" font-family="Helvetica,sans-Serif" font-size="10.00"> </text>
<polyline fill="none" stroke="#bfbfbf" points="186.5,-136.5 353.5,-136.5 "/>
<text text-anchor="start" x="194.5" y="-124.5" font-family="Helvetica,sans-Serif" font-size="10.00">+ Query()</text>
<text text-anchor="start" x="194.5" y="-113.5" font-family="Helvetica,sans-Serif" font-size="10.00">+ Query()</text>
</a>
</g>
</g>
<!-- Node5&#45;&gt;Node6 -->
<g id="edge5" class="edge">
<title>Node5&#45;&gt;Node6</title>
<path fill="none" stroke="#63b8ff" d="M270,-235.13C270,-225.96 270,-216.65 270,-207.83"/>
<polygon fill="none" stroke="#63b8ff" points="266.5,-235.41 270,-245.41 273.5,-235.41 266.5,-235.41"/>
</g>
<!-- Node7 -->
<g id="node7" class="node">
<title>Node7</title>
<g id="a_node7"><a xlink:href="group__spatialpartitioning.html#structPonca_1_1NearestPointQuery" target="_top" xlink:title="Base Query class combining QueryInputIsPosition and QueryOutputIsNearest.">
<polygon fill="white" stroke="#666666" points="198,-0.5 198,-68.5 342,-68.5 342,-0.5 198,-0.5"/>
<text text-anchor="start" x="206" y="-56.5" font-family="Helvetica,sans-Serif" font-size="10.00">Ponca::NearestPointQuery</text>
<text text-anchor="middle" x="270" y="-45.5" font-family="Helvetica,sans-Serif" font-size="10.00">&lt; Index, DataPoint &gt;</text>
<polyline fill="none" stroke="#666666" points="198,-38.5 342,-38.5 "/>
<text text-anchor="middle" x="270" y="-26.5" font-family="Helvetica,sans-Serif" font-size="10.00"> </text>
<polyline fill="none" stroke="#666666" points="198,-19.5 342,-19.5 "/>
<text text-anchor="middle" x="270" y="-7.5" font-family="Helvetica,sans-Serif" font-size="10.00"> </text>
</a>
</g>
</g>
<!-- Node6&#45;&gt;Node7 -->
<g id="edge6" class="edge">
<title>Node6&#45;&gt;Node7</title>
<path fill="none" stroke="#63b8ff" d="M270,-96.07C270,-86.61 270,-77.14 270,-68.59"/>
<polygon fill="none" stroke="#63b8ff" points="266.5,-96.29 270,-106.29 273.5,-96.29 266.5,-96.29"/>
</g>
</g>
</svg>
