<?xml version="1.0" encoding="UTF-8" standalone="no"?>
<!DOCTYPE svg PUBLIC "-//W3C//DTD SVG 1.1//EN"
 "http://www.w3.org/Graphics/SVG/1.1/DTD/svg11.dtd">
<!-- Generated by graphviz version 2.43.0 (0)
 -->
<!-- Title: Ponca::QueryOutputBase Pages: 1 -->
<!--zoomable 258 -->

<svg id="main" version="1.1" xmlns="http://www.w3.org/2000/svg" xmlns:xlink="http://www.w3.org/1999/xlink" xml:space="preserve" onload="init(evt)">
<style type="text/css"><![CDATA[
.node, .edge {opacity: 0.7;}
.node.selected, .edge.selected {opacity: 1;}
.edge:hover path { stroke: red; }
.edge:hover polygon { stroke: red; fill: red; }
]]></style>

<defs>
  <circle id="rim" cx="0" cy="0" r="7"/>
  <circle id="rim2" cx="0" cy="0" r="3.5"/>
  <g id="zoomPlus">
    <use xlink:href="#rim" fill="#404040"><set attributeName="fill" to="#808080" begin="zoomplus.mouseover" end="zoomplus.mouseout"/></use>
    <path d="M-4,0h8M0,-4v8" fill="none" stroke="white" stroke-width="1.5" pointer-events="none"/>
  </g>
  <g id="zoomMin">
    <use xlink:href="#rim" fill="#404040"><set attributeName="fill" to="#808080" begin="zoomminus.mouseover" end="zoomminus.mouseout"/></use>
    <path d="M-4,0h8" fill="none" stroke="white" stroke-width="1.5" pointer-events="none"/>
  </g>
  <g id="arrowUp" transform="translate(30 24)">
    <use xlink:href="#rim"/>
    <path pointer-events="none" fill="none" stroke="white" stroke-width="1.5" d="M0,-3.0v7 M-2.5,-0.5L0,-3.0L2.5,-0.5"/>
  </g>
  <g id="arrowRight" transform="rotate(90) translate(36 -43)">
    <use xlink:href="#rim"/>
    <path pointer-events="none" fill="none" stroke="white" stroke-width="1.5" d="M0,-3.0v7 M-2.5,-0.5L0,-3.0L2.5,-0.5"/>
  </g>
  <g id="arrowDown" transform="rotate(180) translate(-30 -48)">
    <use xlink:href="#rim"/>
    <path pointer-events="none" fill="none" stroke="white" stroke-width="1.5" d="M0,-3.0v7 M-2.5,-0.5L0,-3.0L2.5,-0.5"/>
  </g>
  <g id="arrowLeft" transform="rotate(270) translate(-36 17)">
    <use xlink:href="#rim"/>
    <path pointer-events="none" fill="none" stroke="white" stroke-width="1.5" d="M0,-3.0v7 M-2.5,-0.5L0,-3.0L2.5,-0.5"/>
  </g>
  <g id="resetDef">
    <use xlink:href="#rim2" fill="#404040"><set attributeName="fill" to="#808080" begin="reset.mouseover" end="reset.mouseout"/></use>
  </g>
</defs>
<script type="application/ecmascript">
var viewWidth = 540;
var viewHeight = 258;
var sectionId = 'dynsection-2';
</script>
<script type="application/ecmascript" xlink:href="svg.min.js"/>
<svg id="graph" class="graph">
<g id="viewport">
<title>Ponca::QueryOutputBase</title>
<!-- Node1 -->
<g id="Node000001" class="node">
<title>Node1</title>
<g id="a_Node000001"><a xlink:title="Base class for queries output types.">
<polygon fill="#999999" stroke="transparent" points="342.5,-250 210.5,-250 210.5,-201 342.5,-201 342.5,-250"/>
<text text-anchor="start" x="215.5" y="-237.5" font-family="Helvetica,sans-Serif" font-size="10.00">Ponca::QueryOutputBase</text>
<text text-anchor="start" x="274.5" y="-222.5" font-family="Helvetica,sans-Serif" font-size="10.00"> </text>
<text text-anchor="start" x="274.5" y="-207.5" font-family="Helvetica,sans-Serif" font-size="10.00"> </text>
<polygon fill="#666666" stroke="#666666" points="210.5,-232.5 210.5,-232.5 342.5,-232.5 342.5,-232.5 210.5,-232.5"/>
<polygon fill="#666666" stroke="#666666" points="210.5,-217.5 210.5,-217.5 342.5,-217.5 342.5,-217.5 210.5,-217.5"/>
<polygon fill="none" stroke="#666666" points="210.5,-201 210.5,-250 342.5,-250 342.5,-201 210.5,-201"/>
</a>
</g>
</g>
<!-- Node2 -->
<g id="Node000002" class="node">
<title>Node2</title>
<g id="a_Node000002"><a xlink:href="group__spatialpartitioning.html#structPonca_1_1QueryOutputIsKNearest" target="_top" xlink:title="Class to construct the knearest queries.">
<polygon fill="white" stroke="transparent" points="179,-142.5 0,-142.5 0,-22.5 179,-22.5 179,-142.5"/>
<text text-anchor="start" x="5.5" y="-130.5" font-family="Helvetica,sans-Serif" font-size="10.00">Ponca::QueryOutputIsKNearest</text>
<text text-anchor="start" x="5.5" y="-119.5" font-family="Helvetica,sans-Serif" font-size="10.00">&lt; Index, Scalar, MAX_KNN_SIZE &gt;</text>
<text text-anchor="start" x="9.5" y="-104.5" font-family="Helvetica,sans-Serif" font-size="10.00">#</text>
<text text-anchor="start" x="27.5" y="-104.5" font-family="Helvetica,sans-Serif" font-size="10.00">m_queue</text>
<text text-anchor="start" x="9.5" y="-89.5" font-family="Helvetica,sans-Serif" font-size="10.00">+</text>
<text text-anchor="start" x="27.5" y="-89.5" font-family="Helvetica,sans-Serif" font-size="10.00">QueryOutputIsKNearest()</text>
<text text-anchor="start" x="9.5" y="-74.5" font-family="Helvetica,sans-Serif" font-size="10.00">+</text>
<text text-anchor="start" x="27.5" y="-74.5" font-family="Helvetica,sans-Serif" font-size="10.00">operator()()</text>
<text text-anchor="start" x="9.5" y="-59.5" font-family="Helvetica,sans-Serif" font-size="10.00">+</text>
<text text-anchor="start" x="27.5" y="-59.5" font-family="Helvetica,sans-Serif" font-size="10.00">queue()</text>
<text text-anchor="start" x="9.5" y="-44.5" font-family="Helvetica,sans-Serif" font-size="10.00">#</text>
<text text-anchor="start" x="27.5" y="-44.5" font-family="Helvetica,sans-Serif" font-size="10.00">reset()</text>
<text text-anchor="start" x="9.5" y="-29.5" font-family="Helvetica,sans-Serif" font-size="10.00">#</text>
<text text-anchor="start" x="27.5" y="-29.5" font-family="Helvetica,sans-Serif" font-size="10.00">descentDistanceThreshold()</text>
<polygon fill="#666666" stroke="#666666" points="0.5,-114.5 0.5,-114.5 179.5,-114.5 179.5,-114.5 0.5,-114.5"/>
<polygon fill="#666666" stroke="#666666" points="0.5,-99.5 0.5,-99.5 25.5,-99.5 25.5,-99.5 0.5,-99.5"/>
<polygon fill="#666666" stroke="#666666" points="25.5,-99.5 25.5,-99.5 179.5,-99.5 179.5,-99.5 25.5,-99.5"/>
<polygon fill="none" stroke="#666666" points="0,-22.5 0,-142.5 179,-142.5 179,-22.5 0,-22.5"/>
</a>
</g>
</g>
<!-- Node1&#45;&gt;Node2 -->
<g id="edge1_Node000001_Node000002" class="edge">
<title>Node1&#45;&gt;Node2</title>
<g id="a_edge1_Node000001_Node000002"><a xlink:title=" ">
<path fill="none" stroke="#63b8ff" d="M231.5,-195.26C217.53,-185.87 202.2,-175.24 188.5,-165 179.05,-157.94 169.27,-150.31 159.7,-142.65"/>
<polygon fill="none" stroke="#63b8ff" points="229.74,-198.29 240,-200.94 233.63,-192.47 229.74,-198.29"/>
</a>
</g>
</g>
<!-- Node3 -->
<g id="Node000003" class="node">
<title>Node3</title>
<g id="a_Node000003"><a xlink:href="group__spatialpartitioning.html#structPonca_1_1QueryOutputIsNearest" target="_top" xlink:title="Class to construct the nearest query output.">
<polygon fill="white" stroke="transparent" points="355.5,-150 197.5,-150 197.5,-15 355.5,-15 355.5,-150"/>
<text text-anchor="start" x="204" y="-137.5" font-family="Helvetica,sans-Serif" font-size="10.00">Ponca::QueryOutputIsNearest</text>
<text text-anchor="start" x="233.5" y="-126.5" font-family="Helvetica,sans-Serif" font-size="10.00">&lt; Index, Scalar &gt;</text>
<text text-anchor="start" x="201.5" y="-111.5" font-family="Helvetica,sans-Serif" font-size="10.00">#</text>
<text text-anchor="start" x="214.5" y="-111.5" font-family="Helvetica,sans-Serif" font-size="10.00">m_nearest</text>
<text text-anchor="start" x="201.5" y="-96.5" font-family="Helvetica,sans-Serif" font-size="10.00">#</text>
<text text-anchor="start" x="214.5" y="-96.5" font-family="Helvetica,sans-Serif" font-size="10.00">m_squared_distance</text>
<text text-anchor="start" x="201.5" y="-81.5" font-family="Helvetica,sans-Serif" font-size="10.00">+</text>
<text text-anchor="start" x="214.5" y="-81.5" font-family="Helvetica,sans-Serif" font-size="10.00">QueryOutputIsNearest()</text>
<text text-anchor="start" x="201.5" y="-66.5" font-family="Helvetica,sans-Serif" font-size="10.00">+</text>
<text text-anchor="start" x="214.5" y="-66.5" font-family="Helvetica,sans-Serif" font-size="10.00">operator()()</text>
<text text-anchor="start" x="201.5" y="-51.5" font-family="Helvetica,sans-Serif" font-size="10.00">+</text>
<text text-anchor="start" x="214.5" y="-51.5" font-family="Helvetica,sans-Serif" font-size="10.00">get()</text>
<text text-anchor="start" x="201.5" y="-36.5" font-family="Helvetica,sans-Serif" font-size="10.00">#</text>
<text text-anchor="start" x="214.5" y="-36.5" font-family="Helvetica,sans-Serif" font-size="10.00">reset()</text>
<text text-anchor="start" x="201.5" y="-21.5" font-family="Helvetica,sans-Serif" font-size="10.00">#</text>
<text text-anchor="start" x="214.5" y="-21.5" font-family="Helvetica,sans-Serif" font-size="10.00">descentDistanceThreshold()</text>
<polygon fill="#666666" stroke="#666666" points="197.5,-121.5 197.5,-121.5 355.5,-121.5 355.5,-121.5 197.5,-121.5"/>
<polygon fill="#666666" stroke="#666666" points="197.5,-91.5 197.5,-91.5 212.5,-91.5 212.5,-91.5 197.5,-91.5"/>
<polygon fill="#666666" stroke="#666666" points="212.5,-91.5 212.5,-91.5 355.5,-91.5 355.5,-91.5 212.5,-91.5"/>
<polygon fill="none" stroke="#666666" points="197.5,-15 197.5,-150 355.5,-150 355.5,-15 197.5,-15"/>
</a>
</g>
</g>
<!-- Node1&#45;&gt;Node3 -->
<g id="edge2_Node000001_Node000003" class="edge">
<title>Node1&#45;&gt;Node3</title>
<g id="a_edge2_Node000001_Node000003"><a xlink:title=" ">
<path fill="none" stroke="#63b8ff" d="M276.5,-190.72C276.5,-178.47 276.5,-164.17 276.5,-150.08"/>
<polygon fill="none" stroke="#63b8ff" points="273,-190.9 276.5,-200.9 280,-190.9 273,-190.9"/>
</a>
</g>
</g>
<!-- Node4 -->
<g id="Node000004" class="node">
<title>Node4</title>
<g id="a_Node000004"><a xlink:href="group__spatialpartitioning.html#structPonca_1_1QueryOutputIsRange" target="_top" xlink:title="Class to construct the range query output.">
<polygon fill="white" stroke="transparent" points="531.5,-165 373.5,-165 373.5,0 531.5,0 531.5,-165"/>
<text text-anchor="start" x="384" y="-152.5" font-family="Helvetica,sans-Serif" font-size="10.00">Ponca::QueryOutputIsRange</text>
<text text-anchor="start" x="409.5" y="-141.5" font-family="Helvetica,sans-Serif" font-size="10.00">&lt; Index, Scalar &gt;</text>
<text text-anchor="start" x="377.5" y="-126.5" font-family="Helvetica,sans-Serif" font-size="10.00">#</text>
<text text-anchor="start" x="390.5" y="-126.5" font-family="Helvetica,sans-Serif" font-size="10.00">m_squared_radius</text>
<text text-anchor="start" x="377.5" y="-111.5" font-family="Helvetica,sans-Serif" font-size="10.00">+</text>
<text text-anchor="start" x="390.5" y="-111.5" font-family="Helvetica,sans-Serif" font-size="10.00">QueryOutputIsRange()</text>
<text text-anchor="start" x="377.5" y="-96.5" font-family="Helvetica,sans-Serif" font-size="10.00">+</text>
<text text-anchor="start" x="390.5" y="-96.5" font-family="Helvetica,sans-Serif" font-size="10.00">operator()()</text>
<text text-anchor="start" x="377.5" y="-81.5" font-family="Helvetica,sans-Serif" font-size="10.00">+</text>
<text text-anchor="start" x="390.5" y="-81.5" font-family="Helvetica,sans-Serif" font-size="10.00">radius()</text>
<text text-anchor="start" x="377.5" y="-66.5" font-family="Helvetica,sans-Serif" font-size="10.00">+</text>
<text text-anchor="start" x="390.5" y="-66.5" font-family="Helvetica,sans-Serif" font-size="10.00">squaredRadius()</text>
<text text-anchor="start" x="377.5" y="-51.5" font-family="Helvetica,sans-Serif" font-size="10.00">+</text>
<text text-anchor="start" x="390.5" y="-51.5" font-family="Helvetica,sans-Serif" font-size="10.00">setRadius()</text>
<text text-anchor="start" x="377.5" y="-36.5" font-family="Helvetica,sans-Serif" font-size="10.00">+</text>
<text text-anchor="start" x="390.5" y="-36.5" font-family="Helvetica,sans-Serif" font-size="10.00">setSquaredRadius()</text>
<text text-anchor="start" x="377.5" y="-21.5" font-family="Helvetica,sans-Serif" font-size="10.00">#</text>
<text text-anchor="start" x="390.5" y="-21.5" font-family="Helvetica,sans-Serif" font-size="10.00">reset()</text>
<text text-anchor="start" x="377.5" y="-6.5" font-family="Helvetica,sans-Serif" font-size="10.00">#</text>
<text text-anchor="start" x="390.5" y="-6.5" font-family="Helvetica,sans-Serif" font-size="10.00">descentDistanceThreshold()</text>
<polygon fill="#666666" stroke="#666666" points="373.5,-136.5 373.5,-136.5 531.5,-136.5 531.5,-136.5 373.5,-136.5"/>
<polygon fill="#666666" stroke="#666666" points="373.5,-121.5 373.5,-121.5 388.5,-121.5 388.5,-121.5 373.5,-121.5"/>
<polygon fill="#666666" stroke="#666666" points="388.5,-121.5 388.5,-121.5 531.5,-121.5 531.5,-121.5 388.5,-121.5"/>
<polygon fill="none" stroke="#666666" points="373.5,0 373.5,-165 531.5,-165 531.5,0 373.5,0"/>
</a>
</g>
</g>
<!-- Node1&#45;&gt;Node4 -->
<g id="edge3_Node000001_Node000004" class="edge">
<title>Node1&#45;&gt;Node4</title>
<g id="a_edge3_Node000001_Node000004"><a xlink:title=" ">
<path fill="none" stroke="#63b8ff" d="M322.62,-195.24C336.4,-185.99 351.34,-175.44 364.5,-165 367.44,-162.67 370.39,-160.26 373.36,-157.81"/>
<polygon fill="none" stroke="#63b8ff" points="320.61,-192.37 314.21,-200.82 324.48,-198.21 320.61,-192.37"/>
</a>
</g>
</g>
</g>
</svg>

<g id="navigator" transform="translate(0 0)" fill="#404254">
  <rect fill="#f2f5e9" fill-opacity="0.5" stroke="#606060" stroke-width=".5" x="0" y="0" width="60" height="60"/>
  <use id="zoomplus" xlink:href="#zoomPlus" x="17" y="9" onmousedown="handleZoom(evt,'in')"/>
  <use id="zoomminus" xlink:href="#zoomMin" x="42" y="9" onmousedown="handleZoom(evt,'out')"/>
  <use id="reset" xlink:href="#resetDef" x="30" y="36" onmousedown="handleReset()"/>
   <use id="arrowup" xlink:href="#arrowUp" x="0" y="0" onmousedown="handlePan(0,-1)"/>
  <use id="arrowright" xlink:href="#arrowRight" x="0" y="0" onmousedown="handlePan(1,0)"/>
  <use id="arrowdown" xlink:href="#arrowDown" x="0" y="0" onmousedown="handlePan(0,1)"/>
  <use id="arrowleft" xlink:href="#arrowLeft" x="0" y="0" onmousedown="handlePan(-1,0)"/>
</g>
<svg viewBox="0 0 15 15" width="100%" height="30px" preserveAspectRatio="xMaxYMin meet">
 <g id="arrow_out" transform="scale(0.3 0.3)">
  <a xlink:href="structPonca_1_1QueryOutputBase__inherit__graph_org.svg" target="_base">
   <rect id="button" ry="5" rx="5" y="6" x="6" height="38" width="38"
        fill="#f2f5e9" fill-opacity="0.5" stroke="#606060" stroke-width="1.0"/>
   <path id="arrow"
     d="M 11.500037,31.436501 C 11.940474,20.09759 22.043105,11.32322 32.158766,21.979434 L 37.068811,17.246167 C 37.068811,17.246167 37.088388,32 37.088388,32 L 22.160133,31.978069 C 22.160133,31.978069 26.997745,27.140456 26.997745,27.140456 C 18.528582,18.264221 13.291696,25.230495 11.500037,31.436501 z"
     style="fill:#404040;"/>
  </a>
 </g>
</svg>

<style type='text/css'>
<![CDATA[
[data-mouse-over-selected='false'] { opacity: 0.7; }
[data-mouse-over-selected='true']  { opacity: 1.0; }
]]>
</style>
<script type="application/ecmascript"><![CDATA[
document.addEventListener('DOMContentLoaded', (event) => {
  highlightEdges();
  highlightAdjacentNodes();
});
]]></script>
</svg>
