<?xml version="1.0" encoding="UTF-8" standalone="no"?>
<!DOCTYPE svg PUBLIC "-//W3C//DTD SVG 1.1//EN"
 "http://www.w3.org/Graphics/SVG/1.1/DTD/svg11.dtd">
<!-- Generated by graphviz version 2.43.0 (0)
 -->
<!-- Title: Ponca::RangeIndexQuery&lt; Index, Scalar &gt; Pages: 1 -->
<svg width="474pt" height="760pt"
 viewBox="0.00 0.00 473.50 760.00" xmlns="http://www.w3.org/2000/svg" xmlns:xlink="http://www.w3.org/1999/xlink">
<g id="graph0" class="graph" transform="scale(1 1) rotate(0) translate(4 756)">
<title>Ponca::RangeIndexQuery&lt; Index, Scalar &gt;</title>
<!-- Node1 -->
<g id="Node000001" class="node">
<title>Node1</title>
<g id="a_Node000001"><a xlink:title="Base Query class combining QueryInputIsIndex and QueryOutputIsRange.">
<polygon fill="#999999" stroke="transparent" points="299,-60 166,-60 166,0 299,0 299,-60"/>
<text text-anchor="start" x="171.5" y="-48" font-family="Helvetica,sans-Serif" font-size="10.00">Ponca::RangeIndexQuery</text>
<text text-anchor="start" x="190" y="-37" font-family="Helvetica,sans-Serif" font-size="10.00">&lt; Index, Scalar &gt;</text>
<text text-anchor="start" x="231" y="-22" font-family="Helvetica,sans-Serif" font-size="10.00"> </text>
<text text-anchor="start" x="231" y="-7" font-family="Helvetica,sans-Serif" font-size="10.00"> </text>
<polygon fill="#666666" stroke="#666666" points="166.5,-32 166.5,-32 299.5,-32 299.5,-32 166.5,-32"/>
<polygon fill="#666666" stroke="#666666" points="166.5,-17 166.5,-17 299.5,-17 299.5,-17 166.5,-17"/>
<polygon fill="none" stroke="#666666" points="166,0 166,-60 299,-60 299,0 166,0"/>
</a>
</g>
</g>
<!-- Node2 -->
<g id="Node000002" class="node">
<title>Node2</title>
<g id="a_Node000002"><a xlink:href="group__spatialpartitioning.html" target="_top" xlink:title=" ">
<polygon fill="white" stroke="transparent" points="314.5,-183 150.5,-183 150.5,-97 314.5,-97 314.5,-183"/>
<text text-anchor="start" x="155.5" y="-171" font-family="Helvetica,sans-Serif" font-size="10.00">Ponca::Query&lt; QueryInput</text>
<text text-anchor="start" x="155.5" y="-160" font-family="Helvetica,sans-Serif" font-size="10.00">IsIndex&lt; Index &gt;, QueryOutput</text>
<text text-anchor="start" x="164.5" y="-149" font-family="Helvetica,sans-Serif" font-size="10.00">IsRange&lt; Index, Scalar &gt; &gt;</text>
<text text-anchor="start" x="230.5" y="-134" font-family="Helvetica,sans-Serif" font-size="10.00"> </text>
<text text-anchor="start" x="181" y="-119" font-family="Helvetica,sans-Serif" font-size="10.00">+</text>
<text text-anchor="start" x="220.5" y="-119" font-family="Helvetica,sans-Serif" font-size="10.00">Query()</text>
<text text-anchor="start" x="181" y="-104" font-family="Helvetica,sans-Serif" font-size="10.00">+</text>
<text text-anchor="start" x="220.5" y="-104" font-family="Helvetica,sans-Serif" font-size="10.00">Query()</text>
<polygon fill="#bfbfbf" stroke="#bfbfbf" points="150.5,-144 150.5,-144 314.5,-144 314.5,-144 150.5,-144"/>
<polygon fill="#bfbfbf" stroke="#bfbfbf" points="150.5,-129 150.5,-129 314.5,-129 314.5,-129 150.5,-129"/>
<polygon fill="none" stroke="#bfbfbf" points="150.5,-97 150.5,-183 314.5,-183 314.5,-97 150.5,-97"/>
</a>
</g>
</g>
<!-- Node2&#45;&gt;Node1 -->
<g id="edge1_Node000001_Node000002" class="edge">
<title>Node2&#45;&gt;Node1</title>
<g id="a_edge1_Node000001_Node000002"><a xlink:title=" ">
<path fill="none" stroke="#63b8ff" d="M232.5,-86.69C232.5,-77.54 232.5,-68.33 232.5,-60.1"/>
<polygon fill="none" stroke="#63b8ff" points="229,-86.94 232.5,-96.94 236,-86.94 229,-86.94"/>
</a>
</g>
</g>
<!-- Node3 -->
<g id="Node000003" class="node">
<title>Node3</title>
<g id="a_Node000003"><a xlink:href="group__spatialpartitioning.html#structPonca_1_1QueryInputIsIndex" target="_top" xlink:title="Base class for queries storing points.">
<polygon fill="white" stroke="transparent" points="135,-372 0,-372 0,-282 135,-282 135,-372"/>
<text text-anchor="start" x="5.5" y="-360" font-family="Helvetica,sans-Serif" font-size="10.00">Ponca::QueryInputIsIndex</text>
<text text-anchor="start" x="43" y="-349" font-family="Helvetica,sans-Serif" font-size="10.00">&lt; Index &gt;</text>
<text text-anchor="start" x="66" y="-334" font-family="Helvetica,sans-Serif" font-size="10.00"> </text>
<text text-anchor="start" x="8.5" y="-319" font-family="Helvetica,sans-Serif" font-size="10.00">+</text>
<text text-anchor="start" x="25.5" y="-319" font-family="Helvetica,sans-Serif" font-size="10.00">QueryInputIsIndex()</text>
<text text-anchor="start" x="8.5" y="-304" font-family="Helvetica,sans-Serif" font-size="10.00">#</text>
<text text-anchor="start" x="25.5" y="-304" font-family="Helvetica,sans-Serif" font-size="10.00">skipIndexFunctor()</text>
<text text-anchor="start" x="8.5" y="-289" font-family="Helvetica,sans-Serif" font-size="10.00">#</text>
<text text-anchor="start" x="25.5" y="-289" font-family="Helvetica,sans-Serif" font-size="10.00">getInputPosition()</text>
<polygon fill="#666666" stroke="#666666" points="0.5,-344 0.5,-344 135.5,-344 135.5,-344 0.5,-344"/>
<polygon fill="#666666" stroke="#666666" points="0.5,-329 0.5,-329 135.5,-329 135.5,-329 0.5,-329"/>
<polygon fill="none" stroke="#666666" points="0,-282 0,-372 135,-372 135,-282 0,-282"/>
</a>
</g>
</g>
<!-- Node3&#45;&gt;Node2 -->
<g id="edge2_Node000002_Node000003" class="edge">
<title>Node3&#45;&gt;Node2</title>
<g id="a_edge2_Node000002_Node000003"><a xlink:title=" ">
<path fill="none" stroke="#63b8ff" d="M113.75,-274.14C139.4,-245.38 170.9,-210.07 195,-183.04"/>
<polygon fill="none" stroke="#63b8ff" points="111.07,-271.9 107.02,-281.69 116.29,-276.55 111.07,-271.9"/>
</a>
</g>
</g>
<!-- Node4 -->
<g id="Node000004" class="node">
<title>Node4</title>
<g id="a_Node000004"><a xlink:href="group__spatialpartitioning.html" target="_top" xlink:title=" ">
<polygon fill="white" stroke="transparent" points="121.5,-529 13.5,-529 13.5,-439 121.5,-439 121.5,-529"/>
<text text-anchor="start" x="18.5" y="-517" font-family="Helvetica,sans-Serif" font-size="10.00">Ponca::QueryInput&lt;</text>
<text text-anchor="start" x="46.5" y="-506" font-family="Helvetica,sans-Serif" font-size="10.00"> Index &gt;</text>
<text text-anchor="start" x="65.5" y="-491" font-family="Helvetica,sans-Serif" font-size="10.00"> </text>
<text text-anchor="start" x="23.5" y="-476" font-family="Helvetica,sans-Serif" font-size="10.00">+</text>
<text text-anchor="start" x="42.5" y="-476" font-family="Helvetica,sans-Serif" font-size="10.00">QueryInput()</text>
<text text-anchor="start" x="23.5" y="-461" font-family="Helvetica,sans-Serif" font-size="10.00">+</text>
<text text-anchor="start" x="42.5" y="-461" font-family="Helvetica,sans-Serif" font-size="10.00">input()</text>
<text text-anchor="start" x="23.5" y="-446" font-family="Helvetica,sans-Serif" font-size="10.00">#</text>
<text text-anchor="start" x="42.5" y="-446" font-family="Helvetica,sans-Serif" font-size="10.00">editInput()</text>
<polygon fill="#666666" stroke="#666666" points="13.5,-501 13.5,-501 121.5,-501 121.5,-501 13.5,-501"/>
<polygon fill="#666666" stroke="#666666" points="13.5,-486 13.5,-486 121.5,-486 121.5,-486 13.5,-486"/>
<polygon fill="none" stroke="#666666" points="13.5,-439 13.5,-529 121.5,-529 121.5,-439 13.5,-439"/>
</a>
</g>
</g>
<!-- Node4&#45;&gt;Node3 -->
<g id="edge3_Node000003_Node000004" class="edge">
<title>Node4&#45;&gt;Node3</title>
<g id="a_edge3_Node000003_Node000004"><a xlink:title=" ">
<path fill="none" stroke="#63b8ff" d="M67.5,-428.92C67.5,-410.35 67.5,-389.8 67.5,-372.11"/>
<polygon fill="none" stroke="#63b8ff" points="64,-429 67.5,-439 71,-429 64,-429"/>
</a>
</g>
</g>
<!-- Node5 -->
<g id="Node000005" class="node">
<title>Node5</title>
<g id="a_Node000005"><a xlink:href="group__spatialpartitioning.html#structPonca_1_1QueryInputBase" target="_top" xlink:title="Base class for queries input type.">
<polygon fill="white" stroke="transparent" points="125.5,-752 1.5,-752 1.5,-703 125.5,-703 125.5,-752"/>
<text text-anchor="start" x="6.5" y="-739.5" font-family="Helvetica,sans-Serif" font-size="10.00">Ponca::QueryInputBase</text>
<text text-anchor="start" x="61.5" y="-724.5" font-family="Helvetica,sans-Serif" font-size="10.00"> </text>
<text text-anchor="start" x="61.5" y="-709.5" font-family="Helvetica,sans-Serif" font-size="10.00"> </text>
<polygon fill="#666666" stroke="#666666" points="1.5,-734.5 1.5,-734.5 125.5,-734.5 125.5,-734.5 1.5,-734.5"/>
<polygon fill="#666666" stroke="#666666" points="1.5,-719.5 1.5,-719.5 125.5,-719.5 125.5,-719.5 1.5,-719.5"/>
<polygon fill="none" stroke="#666666" points="1.5,-703 1.5,-752 125.5,-752 125.5,-703 1.5,-703"/>
</a>
</g>
</g>
<!-- Node5&#45;&gt;Node4 -->
<g id="edge4_Node000004_Node000005" class="edge">
<title>Node5&#45;&gt;Node4</title>
<g id="a_edge4_Node000004_Node000005"><a xlink:title=" ">
<path fill="none" stroke="#63b8ff" d="M64.06,-692.74C64.77,-649.97 65.99,-576.19 66.77,-529.04"/>
<polygon fill="none" stroke="#63b8ff" points="60.56,-692.85 63.89,-702.9 67.56,-692.96 60.56,-692.85"/>
</a>
</g>
</g>
<!-- Node6 -->
<g id="Node000006" class="node">
<title>Node6</title>
<g id="a_Node000006"><a xlink:href="group__spatialpartitioning.html#structPonca_1_1QueryInput" target="_top" xlink:title="Base class for typed queries input type.">
<polygon fill="white" stroke="transparent" points="187.5,-666 79.5,-666 79.5,-576 187.5,-576 187.5,-666"/>
<text text-anchor="start" x="84.5" y="-654" font-family="Helvetica,sans-Serif" font-size="10.00">Ponca::QueryInput&lt;</text>
<text text-anchor="start" x="100" y="-643" font-family="Helvetica,sans-Serif" font-size="10.00"> InputType_ &gt;</text>
<text text-anchor="start" x="131.5" y="-628" font-family="Helvetica,sans-Serif" font-size="10.00"> </text>
<text text-anchor="start" x="89.5" y="-613" font-family="Helvetica,sans-Serif" font-size="10.00">+</text>
<text text-anchor="start" x="108.5" y="-613" font-family="Helvetica,sans-Serif" font-size="10.00">QueryInput()</text>
<text text-anchor="start" x="89.5" y="-598" font-family="Helvetica,sans-Serif" font-size="10.00">+</text>
<text text-anchor="start" x="108.5" y="-598" font-family="Helvetica,sans-Serif" font-size="10.00">input()</text>
<text text-anchor="start" x="89.5" y="-583" font-family="Helvetica,sans-Serif" font-size="10.00">#</text>
<text text-anchor="start" x="108.5" y="-583" font-family="Helvetica,sans-Serif" font-size="10.00">editInput()</text>
<polygon fill="#666666" stroke="#666666" points="79.5,-638 79.5,-638 187.5,-638 187.5,-638 79.5,-638"/>
<polygon fill="#666666" stroke="#666666" points="79.5,-623 79.5,-623 187.5,-623 187.5,-623 79.5,-623"/>
<polygon fill="none" stroke="#666666" points="79.5,-576 79.5,-666 187.5,-666 187.5,-576 79.5,-576"/>
</a>
</g>
</g>
<!-- Node5&#45;&gt;Node6 -->
<g id="edge6_Node000006_Node000005" class="edge">
<title>Node5&#45;&gt;Node6</title>
<g id="a_edge6_Node000006_Node000005"><a xlink:title=" ">
<path fill="none" stroke="#63b8ff" d="M85.1,-694.26C91.04,-685.39 97.59,-675.6 103.91,-666.18"/>
<polygon fill="none" stroke="#63b8ff" points="82.04,-692.53 79.38,-702.79 87.86,-696.43 82.04,-692.53"/>
</a>
</g>
</g>
<!-- Node6&#45;&gt;Node4 -->
<g id="edge5_Node000004_Node000006" class="edge">
<title>Node6&#45;&gt;Node4</title>
<g id="a_edge5_Node000004_Node000006"><a xlink:title=" ">
<path fill="none" stroke="orange" d="M107.35,-566.52C101.32,-554.19 94.97,-541.2 89.16,-529.3"/>
<polygon fill="orange" stroke="orange" points="104.35,-568.35 111.89,-575.8 110.64,-565.27 104.35,-568.35"/>
</a>
</g>
<text text-anchor="middle" x="129" y="-550" font-family="Helvetica,sans-Serif" font-size="10.00" fill="grey"> &lt; Index &gt;</text>
</g>
<!-- Node7 -->
<g id="Node000007" class="node">
<title>Node7</title>
<g id="a_Node000007"><a xlink:href="group__spatialpartitioning.html#structPonca_1_1QueryOutputIsRange" target="_top" xlink:title="Base class for range queries.">
<polygon fill="white" stroke="transparent" points="311.5,-402 153.5,-402 153.5,-252 311.5,-252 311.5,-402"/>
<text text-anchor="start" x="164" y="-390" font-family="Helvetica,sans-Serif" font-size="10.00">Ponca::QueryOutputIsRange</text>
<text text-anchor="start" x="189.5" y="-379" font-family="Helvetica,sans-Serif" font-size="10.00">&lt; Index, Scalar &gt;</text>
<text text-anchor="start" x="157.5" y="-364" font-family="Helvetica,sans-Serif" font-size="10.00">#</text>
<text text-anchor="start" x="170.5" y="-364" font-family="Helvetica,sans-Serif" font-size="10.00">m_squared_radius</text>
<text text-anchor="start" x="157.5" y="-349" font-family="Helvetica,sans-Serif" font-size="10.00">+</text>
<text text-anchor="start" x="170.5" y="-349" font-family="Helvetica,sans-Serif" font-size="10.00">QueryOutputIsRange()</text>
<text text-anchor="start" x="157.5" y="-334" font-family="Helvetica,sans-Serif" font-size="10.00">+</text>
<text text-anchor="start" x="170.5" y="-334" font-family="Helvetica,sans-Serif" font-size="10.00">radius()</text>
<text text-anchor="start" x="157.5" y="-319" font-family="Helvetica,sans-Serif" font-size="10.00">+</text>
<text text-anchor="start" x="170.5" y="-319" font-family="Helvetica,sans-Serif" font-size="10.00">squared_radius()</text>
<text text-anchor="start" x="157.5" y="-304" font-family="Helvetica,sans-Serif" font-size="10.00">+</text>
<text text-anchor="start" x="170.5" y="-304" font-family="Helvetica,sans-Serif" font-size="10.00">set_radius()</text>
<text text-anchor="start" x="157.5" y="-289" font-family="Helvetica,sans-Serif" font-size="10.00">+</text>
<text text-anchor="start" x="170.5" y="-289" font-family="Helvetica,sans-Serif" font-size="10.00">set_squared_radius()</text>
<text text-anchor="start" x="157.5" y="-274" font-family="Helvetica,sans-Serif" font-size="10.00">#</text>
<text text-anchor="start" x="170.5" y="-274" font-family="Helvetica,sans-Serif" font-size="10.00">reset()</text>
<text text-anchor="start" x="157.5" y="-259" font-family="Helvetica,sans-Serif" font-size="10.00">#</text>
<text text-anchor="start" x="170.5" y="-259" font-family="Helvetica,sans-Serif" font-size="10.00">descentDistanceThreshold()</text>
<polygon fill="#666666" stroke="#666666" points="153.5,-374 153.5,-374 311.5,-374 311.5,-374 153.5,-374"/>
<polygon fill="#666666" stroke="#666666" points="153.5,-359 153.5,-359 168.5,-359 168.5,-359 153.5,-359"/>
<polygon fill="#666666" stroke="#666666" points="168.5,-359 168.5,-359 311.5,-359 311.5,-359 168.5,-359"/>
<polygon fill="none" stroke="#666666" points="153.5,-252 153.5,-402 311.5,-402 311.5,-252 153.5,-252"/>
</a>
</g>
</g>
<!-- Node7&#45;&gt;Node2 -->
<g id="edge7_Node000002_Node000007" class="edge">
<title>Node7&#45;&gt;Node2</title>
<g id="a_edge7_Node000002_Node000007"><a xlink:title=" ">
<path fill="none" stroke="#63b8ff" d="M232.5,-241.62C232.5,-221.39 232.5,-200.62 232.5,-183.25"/>
<polygon fill="none" stroke="#63b8ff" points="229,-241.82 232.5,-251.82 236,-241.82 229,-241.82"/>
</a>
</g>
</g>
<!-- Node8 -->
<g id="Node000008" class="node">
<title>Node8</title>
<g id="a_Node000008"><a xlink:href="group__spatialpartitioning.html#structPonca_1_1QueryOutputBase" target="_top" xlink:title="Base class for queries output type.">
<polygon fill="white" stroke="transparent" points="298.5,-508.5 166.5,-508.5 166.5,-459.5 298.5,-459.5 298.5,-508.5"/>
<text text-anchor="start" x="171.5" y="-496" font-family="Helvetica,sans-Serif" font-size="10.00">Ponca::QueryOutputBase</text>
<text text-anchor="start" x="230.5" y="-481" font-family="Helvetica,sans-Serif" font-size="10.00"> </text>
<text text-anchor="start" x="230.5" y="-466" font-family="Helvetica,sans-Serif" font-size="10.00"> </text>
<polygon fill="#666666" stroke="#666666" points="166.5,-491 166.5,-491 298.5,-491 298.5,-491 166.5,-491"/>
<polygon fill="#666666" stroke="#666666" points="166.5,-476 166.5,-476 298.5,-476 298.5,-476 166.5,-476"/>
<polygon fill="none" stroke="#666666" points="166.5,-459.5 166.5,-508.5 298.5,-508.5 298.5,-459.5 166.5,-459.5"/>
</a>
</g>
</g>
<!-- Node8&#45;&gt;Node7 -->
<g id="edge8_Node000007_Node000008" class="edge">
<title>Node8&#45;&gt;Node7</title>
<g id="a_edge8_Node000007_Node000008"><a xlink:title=" ">
<path fill="none" stroke="#63b8ff" d="M232.5,-449.42C232.5,-435.5 232.5,-418.76 232.5,-402.23"/>
<polygon fill="none" stroke="#63b8ff" points="229,-449.46 232.5,-459.46 236,-449.46 229,-449.46"/>
</a>
</g>
</g>
<!-- Node9 -->
<g id="Node000009" class="node">
<title>Node9</title>
<g id="a_Node000009"><a xlink:href="group__spatialpartitioning.html#structPonca_1_1Query" target="_top" xlink:title=" ">
<polygon fill="white" stroke="transparent" points="440,-364.5 329,-364.5 329,-289.5 440,-289.5 440,-364.5"/>
<text text-anchor="start" x="334.5" y="-352" font-family="Helvetica,sans-Serif" font-size="10.00">Ponca::Query&lt; Input</text>
<text text-anchor="start" x="354.5" y="-341" font-family="Helvetica,sans-Serif" font-size="10.00">_, Output_ &gt;</text>
<text text-anchor="start" x="383" y="-326" font-family="Helvetica,sans-Serif" font-size="10.00"> </text>
<text text-anchor="start" x="346.5" y="-311" font-family="Helvetica,sans-Serif" font-size="10.00">+</text>
<text text-anchor="start" x="372.5" y="-311" font-family="Helvetica,sans-Serif" font-size="10.00">Query()</text>
<text text-anchor="start" x="346.5" y="-296" font-family="Helvetica,sans-Serif" font-size="10.00">+</text>
<text text-anchor="start" x="372.5" y="-296" font-family="Helvetica,sans-Serif" font-size="10.00">Query()</text>
<polygon fill="#bfbfbf" stroke="#bfbfbf" points="329.5,-336 329.5,-336 440.5,-336 440.5,-336 329.5,-336"/>
<polygon fill="#bfbfbf" stroke="#bfbfbf" points="329.5,-321 329.5,-321 440.5,-321 440.5,-321 329.5,-321"/>
<polygon fill="none" stroke="#bfbfbf" points="329,-289.5 329,-364.5 440,-364.5 440,-289.5 329,-289.5"/>
</a>
</g>
</g>
<!-- Node9&#45;&gt;Node2 -->
<g id="edge9_Node000002_Node000009" class="edge">
<title>Node9&#45;&gt;Node2</title>
<g id="a_edge9_Node000002_Node000009"><a xlink:title=" ">
<path fill="none" stroke="orange" d="M348.09,-281.69C323.57,-251.84 291.42,-212.71 267.26,-183.3"/>
<polygon fill="orange" stroke="orange" points="345.42,-283.95 354.47,-289.45 350.83,-279.5 345.42,-283.95"/>
</a>
</g>
<text text-anchor="start" x="308.5" y="-226" font-family="Helvetica,sans-Serif" font-size="10.00" fill="grey"> &lt; QueryInputIsIndex</text>
<text text-anchor="start" x="308.5" y="-215" font-family="Helvetica,sans-Serif" font-size="10.00" fill="grey">&lt; Index &gt;, QueryOutputIsRange</text>
<text text-anchor="middle" x="387" y="-204" font-family="Helvetica,sans-Serif" font-size="10.00" fill="grey">&lt; Index, Scalar &gt; &gt;</text>
</g>
<!-- Node10 -->
<g id="Node000010" class="node">
<title>Node10</title>
<g id="a_Node000010"><a xlink:title=" ">
<polygon fill="white" stroke="transparent" points="381,-508.5 340,-508.5 340,-459.5 381,-459.5 381,-508.5"/>
<text text-anchor="start" x="345.5" y="-496" font-family="Helvetica,sans-Serif" font-size="10.00">Input_</text>
<text text-anchor="start" x="359" y="-481" font-family="Helvetica,sans-Serif" font-size="10.00"> </text>
<text text-anchor="start" x="359" y="-466" font-family="Helvetica,sans-Serif" font-size="10.00"> </text>
<polygon fill="#bfbfbf" stroke="#bfbfbf" points="340.5,-491 340.5,-491 381.5,-491 381.5,-491 340.5,-491"/>
<polygon fill="#bfbfbf" stroke="#bfbfbf" points="340.5,-476 340.5,-476 381.5,-476 381.5,-476 340.5,-476"/>
<polygon fill="none" stroke="#bfbfbf" points="340,-459.5 340,-508.5 381,-508.5 381,-459.5 340,-459.5"/>
</a>
</g>
</g>
<!-- Node10&#45;&gt;Node9 -->
<g id="edge10_Node000009_Node000010" class="edge">
<title>Node10&#45;&gt;Node9</title>
<g id="a_edge10_Node000009_Node000010"><a xlink:title=" ">
<path fill="none" stroke="#63b8ff" d="M365.71,-449.37C369.57,-424.42 374.83,-390.43 378.81,-364.77"/>
<polygon fill="none" stroke="#63b8ff" points="362.22,-449.04 364.15,-459.46 369.13,-450.11 362.22,-449.04"/>
</a>
</g>
</g>
<!-- Node11 -->
<g id="Node000011" class="node">
<title>Node11</title>
<g id="a_Node000011"><a xlink:title=" ">
<polygon fill="white" stroke="transparent" points="448,-508.5 399,-508.5 399,-459.5 448,-459.5 448,-508.5"/>
<text text-anchor="start" x="404.5" y="-496" font-family="Helvetica,sans-Serif" font-size="10.00">Output_</text>
<text text-anchor="start" x="422" y="-481" font-family="Helvetica,sans-Serif" font-size="10.00"> </text>
<text text-anchor="start" x="422" y="-466" font-family="Helvetica,sans-Serif" font-size="10.00"> </text>
<polygon fill="#bfbfbf" stroke="#bfbfbf" points="399.5,-491 399.5,-491 448.5,-491 448.5,-491 399.5,-491"/>
<polygon fill="#bfbfbf" stroke="#bfbfbf" points="399.5,-476 399.5,-476 448.5,-476 448.5,-476 399.5,-476"/>
<polygon fill="none" stroke="#bfbfbf" points="399,-459.5 399,-508.5 448,-508.5 448,-459.5 399,-459.5"/>
</a>
</g>
</g>
<!-- Node11&#45;&gt;Node9 -->
<g id="edge11_Node000009_Node000011" class="edge">
<title>Node11&#45;&gt;Node9</title>
<g id="a_edge11_Node000009_Node000011"><a xlink:title=" ">
<path fill="none" stroke="#63b8ff" d="M415.12,-449.71C408.84,-424.73 400.24,-390.55 393.75,-364.77"/>
<polygon fill="none" stroke="#63b8ff" points="411.74,-450.62 417.58,-459.46 418.53,-448.91 411.74,-450.62"/>
</a>
</g>
</g>
</g>
</svg>
