<?xml version="1.0" encoding="UTF-8" standalone="no"?>
<!DOCTYPE svg PUBLIC "-//W3C//DTD SVG 1.1//EN"
 "http://www.w3.org/Graphics/SVG/1.1/DTD/svg11.dtd">
<!-- Generated by graphviz version 2.43.0 (0)
 -->
<!-- Title: Ponca::RangePointQuery&lt; DataPoint &gt; Pages: 1 -->
<svg width="609pt" height="844pt"
 viewBox="0.00 0.00 608.50 844.00" xmlns="http://www.w3.org/2000/svg" xmlns:xlink="http://www.w3.org/1999/xlink">
<g id="graph0" class="graph" transform="scale(1 1) rotate(0) translate(4 840)">
<title>Ponca::RangePointQuery&lt; DataPoint &gt;</title>
<!-- Node1 -->
<g id="node1" class="node">
<title>Node1</title>
<g id="a_node1"><a xlink:title="Base Query class combining QueryInputIsPosition and QueryOutputIsRange.">
<polygon fill="#999999" stroke="#666666" points="402.5,-174 259.5,-174 259.5,-133 402.5,-133 402.5,-174"/>
<text text-anchor="start" x="267.5" y="-162" font-family="Helvetica,sans-Serif" font-size="10.00">{Ponca::RangePointQuery</text>
<text text-anchor="middle" x="331" y="-151" font-family="Helvetica,sans-Serif" font-size="10.00">&lt; DataPoint &gt;</text>
<text text-anchor="middle" x="331" y="-140" font-family="Helvetica,sans-Serif" font-size="10.00">||}</text>
</a>
</g>
</g>
<!-- Node13 -->
<g id="node13" class="node">
<title>Node13</title>
<g id="a_node13"><a xlink:href="classPonca_1_1KdTreeRangePointQuery.html" target="_top" xlink:title=" ">
<polygon fill="white" stroke="#bfbfbf" points="419,-96 243,-96 243,0 419,0 419,-96"/>
<text text-anchor="start" x="251" y="-84" font-family="Helvetica,sans-Serif" font-size="10.00">{Ponca::KdTreeRangePointQuery</text>
<text text-anchor="middle" x="331" y="-73" font-family="Helvetica,sans-Serif" font-size="10.00">&lt; DataPoint &gt;</text>
<text text-anchor="start" x="251" y="-62" font-family="Helvetica,sans-Serif" font-size="10.00">|# Iterator</text>
<text text-anchor="start" x="251" y="-51" font-family="Helvetica,sans-Serif" font-size="10.00">|+ KdTreeRangePointQuery()</text>
<text text-anchor="start" x="251" y="-40" font-family="Helvetica,sans-Serif" font-size="10.00">+ begin()</text>
<text text-anchor="start" x="251" y="-29" font-family="Helvetica,sans-Serif" font-size="10.00">+ end()</text>
<text text-anchor="start" x="251" y="-18" font-family="Helvetica,sans-Serif" font-size="10.00"># advance()</text>
<text text-anchor="middle" x="331" y="-7" font-family="Helvetica,sans-Serif" font-size="10.00">}</text>
</a>
</g>
</g>
<!-- Node1&#45;&gt;Node13 -->
<g id="edge14" class="edge">
<title>Node1&#45;&gt;Node13</title>
<path fill="none" stroke="#63b8ff" d="M331,-122.41C331,-114.25 331,-105.22 331,-96.36"/>
<polygon fill="none" stroke="#63b8ff" points="327.5,-122.54 331,-132.54 334.5,-122.54 327.5,-122.54"/>
</g>
<!-- Node2 -->
<g id="node2" class="node">
<title>Node2</title>
<g id="a_node2"><a xlink:href="group__spatialpartitioning.html" target="_top" xlink:title=" ">
<polygon fill="white" stroke="#bfbfbf" points="407,-296 255,-296 255,-211 407,-211 407,-296"/>
<text text-anchor="start" x="263" y="-284" font-family="Helvetica,sans-Serif" font-size="10.00">{Ponca::Query&lt; QueryInput</text>
<text text-anchor="start" x="263" y="-273" font-family="Helvetica,sans-Serif" font-size="10.00">IsPosition&lt; DataPoint</text>
<text text-anchor="start" x="263" y="-262" font-family="Helvetica,sans-Serif" font-size="10.00"> &gt;, QueryOutputIsRange</text>
<text text-anchor="middle" x="331" y="-251" font-family="Helvetica,sans-Serif" font-size="10.00">&lt; DataPoint::Scalar &gt; &gt;</text>
<text text-anchor="start" x="263" y="-240" font-family="Helvetica,sans-Serif" font-size="10.00">||+ Query()</text>
<text text-anchor="start" x="263" y="-229" font-family="Helvetica,sans-Serif" font-size="10.00">+ Query()</text>
<text text-anchor="middle" x="331" y="-218" font-family="Helvetica,sans-Serif" font-size="10.00">}</text>
</a>
</g>
</g>
<!-- Node2&#45;&gt;Node1 -->
<g id="edge1" class="edge">
<title>Node2&#45;&gt;Node1</title>
<path fill="none" stroke="#63b8ff" d="M331,-200.72C331,-191.29 331,-181.99 331,-174.24"/>
<polygon fill="none" stroke="#63b8ff" points="327.5,-200.94 331,-210.94 334.5,-200.94 327.5,-200.94"/>
</g>
<!-- Node3 -->
<g id="node3" class="node">
<title>Node3</title>
<g id="a_node3"><a xlink:href="group__spatialpartitioning.html#structPonca_1_1QueryInputIsPosition" target="_top" xlink:title="Base class for queries storing points.">
<polygon fill="white" stroke="#666666" points="222.5,-450 63.5,-450 63.5,-398 222.5,-398 222.5,-450"/>
<text text-anchor="start" x="71.5" y="-438" font-family="Helvetica,sans-Serif" font-size="10.00">{Ponca::QueryInputIsPosition</text>
<text text-anchor="middle" x="143" y="-427" font-family="Helvetica,sans-Serif" font-size="10.00">&lt; DataPoint &gt;</text>
<text text-anchor="start" x="71.5" y="-416" font-family="Helvetica,sans-Serif" font-size="10.00">||+ QueryInputIsPosition()</text>
<text text-anchor="middle" x="143" y="-405" font-family="Helvetica,sans-Serif" font-size="10.00">}</text>
</a>
</g>
</g>
<!-- Node3&#45;&gt;Node2 -->
<g id="edge2" class="edge">
<title>Node3&#45;&gt;Node2</title>
<path fill="none" stroke="#63b8ff" d="M178.85,-390.87C208.81,-364.01 251.76,-325.52 284.39,-296.28"/>
<polygon fill="none" stroke="#63b8ff" points="176.26,-388.49 171.15,-397.77 180.93,-393.71 176.26,-388.49"/>
</g>
<!-- Node4 -->
<g id="node4" class="node">
<title>Node4</title>
<g id="a_node4"><a xlink:href="group__spatialpartitioning.html" target="_top" xlink:title=" ">
<polygon fill="white" stroke="#666666" points="185,-626 47,-626 47,-552 185,-552 185,-626"/>
<text text-anchor="start" x="55" y="-614" font-family="Helvetica,sans-Serif" font-size="10.00">{Ponca::QueryInput&lt;</text>
<text text-anchor="middle" x="116" y="-603" font-family="Helvetica,sans-Serif" font-size="10.00"> DataPoint::VectorType &gt;</text>
<text text-anchor="start" x="55" y="-592" font-family="Helvetica,sans-Serif" font-size="10.00">||+ QueryInput()</text>
<text text-anchor="start" x="55" y="-581" font-family="Helvetica,sans-Serif" font-size="10.00">+ input()</text>
<text text-anchor="start" x="55" y="-570" font-family="Helvetica,sans-Serif" font-size="10.00"># editInput()</text>
<text text-anchor="middle" x="116" y="-559" font-family="Helvetica,sans-Serif" font-size="10.00">}</text>
</a>
</g>
</g>
<!-- Node4&#45;&gt;Node3 -->
<g id="edge3" class="edge">
<title>Node4&#45;&gt;Node3</title>
<path fill="none" stroke="#63b8ff" d="M123.67,-541.7C128.57,-512.09 134.75,-474.79 138.78,-450.45"/>
<polygon fill="none" stroke="#63b8ff" points="120.17,-541.39 121.99,-551.83 127.08,-542.53 120.17,-541.39"/>
</g>
<!-- Node5 -->
<g id="node5" class="node">
<title>Node5</title>
<g id="a_node5"><a xlink:href="group__spatialpartitioning.html#structPonca_1_1QueryInputBase" target="_top" xlink:title="Base class for queries input type.">
<polygon fill="white" stroke="#666666" points="136,-836 0,-836 0,-806 136,-806 136,-836"/>
<text text-anchor="middle" x="68" y="-824" font-family="Helvetica,sans-Serif" font-size="10.00">{Ponca::QueryInputBase</text>
<text text-anchor="middle" x="68" y="-813" font-family="Helvetica,sans-Serif" font-size="10.00">||}</text>
</a>
</g>
</g>
<!-- Node5&#45;&gt;Node4 -->
<g id="edge4" class="edge">
<title>Node5&#45;&gt;Node4</title>
<path fill="none" stroke="#63b8ff" d="M67.11,-795.74C66.7,-770.34 67.52,-729.41 75,-695 80.16,-671.29 89.94,-645.91 98.65,-626.05"/>
<polygon fill="none" stroke="#63b8ff" points="63.62,-796.02 67.36,-805.93 70.62,-795.85 63.62,-796.02"/>
</g>
<!-- Node6 -->
<g id="node6" class="node">
<title>Node6</title>
<g id="a_node6"><a xlink:href="group__spatialpartitioning.html#structPonca_1_1QueryInput" target="_top" xlink:title="Base class for typed queries input type.">
<polygon fill="white" stroke="#666666" points="204,-769 84,-769 84,-695 204,-695 204,-769"/>
<text text-anchor="start" x="92" y="-757" font-family="Helvetica,sans-Serif" font-size="10.00">{Ponca::QueryInput&lt;</text>
<text text-anchor="middle" x="144" y="-746" font-family="Helvetica,sans-Serif" font-size="10.00"> InputType_ &gt;</text>
<text text-anchor="start" x="92" y="-735" font-family="Helvetica,sans-Serif" font-size="10.00">||+ QueryInput()</text>
<text text-anchor="start" x="92" y="-724" font-family="Helvetica,sans-Serif" font-size="10.00">+ input()</text>
<text text-anchor="start" x="92" y="-713" font-family="Helvetica,sans-Serif" font-size="10.00"># editInput()</text>
<text text-anchor="middle" x="144" y="-702" font-family="Helvetica,sans-Serif" font-size="10.00">}</text>
</a>
</g>
</g>
<!-- Node5&#45;&gt;Node6 -->
<g id="edge6" class="edge">
<title>Node5&#45;&gt;Node6</title>
<path fill="none" stroke="#63b8ff" d="M87.15,-798.08C94.8,-789.32 103.83,-778.99 112.41,-769.17"/>
<polygon fill="none" stroke="#63b8ff" points="84.49,-795.8 80.55,-805.63 89.76,-800.41 84.49,-795.8"/>
</g>
<!-- Node6&#45;&gt;Node4 -->
<g id="edge5" class="edge">
<title>Node6&#45;&gt;Node4</title>
<path fill="none" stroke="orange" d="M119.51,-685.48C118.53,-682.66 117.68,-679.82 117,-677 113.02,-660.56 112.33,-641.85 112.81,-626.01"/>
<polygon fill="orange" stroke="orange" points="116.32,-686.93 123.23,-694.96 122.83,-684.37 116.32,-686.93"/>
<text text-anchor="middle" x="183.5" y="-669" font-family="Helvetica,sans-Serif" font-size="10.00"> &lt; DataPoint::VectorType &gt;</text>
</g>
<!-- Node7 -->
<g id="node7" class="node">
<title>Node7</title>
<g id="a_node7"><a xlink:href="group__spatialpartitioning.html" target="_top" xlink:title=" ">
<polygon fill="white" stroke="#666666" points="410.5,-483 251.5,-483 251.5,-365 410.5,-365 410.5,-483"/>
<text text-anchor="start" x="259.5" y="-471" font-family="Helvetica,sans-Serif" font-size="10.00">{Ponca::QueryOutputIsRange</text>
<text text-anchor="middle" x="331" y="-460" font-family="Helvetica,sans-Serif" font-size="10.00">&lt; DataPoint::Scalar &gt;</text>
<text text-anchor="start" x="259.5" y="-449" font-family="Helvetica,sans-Serif" font-size="10.00">|# m_squared_radius</text>
<text text-anchor="start" x="259.5" y="-438" font-family="Helvetica,sans-Serif" font-size="10.00">|+ QueryOutputIsRange()</text>
<text text-anchor="start" x="259.5" y="-427" font-family="Helvetica,sans-Serif" font-size="10.00">+ radius()</text>
<text text-anchor="start" x="259.5" y="-416" font-family="Helvetica,sans-Serif" font-size="10.00">+ squared_radius()</text>
<text text-anchor="start" x="259.5" y="-405" font-family="Helvetica,sans-Serif" font-size="10.00">+ set_radius()</text>
<text text-anchor="start" x="259.5" y="-394" font-family="Helvetica,sans-Serif" font-size="10.00">+ set_squared_radius()</text>
<text text-anchor="start" x="259.5" y="-383" font-family="Helvetica,sans-Serif" font-size="10.00"># reset()</text>
<text text-anchor="middle" x="331" y="-372" font-family="Helvetica,sans-Serif" font-size="10.00">}</text>
</a>
</g>
</g>
<!-- Node7&#45;&gt;Node2 -->
<g id="edge7" class="edge">
<title>Node7&#45;&gt;Node2</title>
<path fill="none" stroke="#63b8ff" d="M331,-354.35C331,-334.62 331,-313.7 331,-296.14"/>
<polygon fill="none" stroke="#63b8ff" points="327.5,-354.54 331,-364.54 334.5,-354.54 327.5,-354.54"/>
</g>
<!-- Node8 -->
<g id="node8" class="node">
<title>Node8</title>
<g id="a_node8"><a xlink:href="group__spatialpartitioning.html#structPonca_1_1QueryOutputBase" target="_top" xlink:title="Base class for queries output type.">
<polygon fill="white" stroke="#666666" points="386,-747 242,-747 242,-717 386,-717 386,-747"/>
<text text-anchor="middle" x="314" y="-735" font-family="Helvetica,sans-Serif" font-size="10.00">{Ponca::QueryOutputBase</text>
<text text-anchor="middle" x="314" y="-724" font-family="Helvetica,sans-Serif" font-size="10.00">||}</text>
</a>
</g>
</g>
<!-- Node8&#45;&gt;Node7 -->
<g id="edge8" class="edge">
<title>Node8&#45;&gt;Node7</title>
<path fill="none" stroke="#63b8ff" d="M302.27,-707.52C294.82,-691.26 285.88,-668.87 282,-648 272.41,-596.44 270.64,-581.2 282,-530 285.51,-514.19 291.65,-497.94 298.43,-483.09"/>
<polygon fill="none" stroke="#63b8ff" points="299.21,-709.24 306.65,-716.78 305.54,-706.25 299.21,-709.24"/>
</g>
<!-- Node9 -->
<g id="node9" class="node">
<title>Node9</title>
<g id="a_node9"><a xlink:href="group__spatialpartitioning.html#structPonca_1_1QueryOutputIsRange" target="_top" xlink:title="Base class for range queries.">
<polygon fill="white" stroke="#666666" points="450.5,-648 291.5,-648 291.5,-530 450.5,-530 450.5,-648"/>
<text text-anchor="start" x="299.5" y="-636" font-family="Helvetica,sans-Serif" font-size="10.00">{Ponca::QueryOutputIsRange</text>
<text text-anchor="middle" x="371" y="-625" font-family="Helvetica,sans-Serif" font-size="10.00">&lt; Scalar &gt;</text>
<text text-anchor="start" x="299.5" y="-614" font-family="Helvetica,sans-Serif" font-size="10.00">|# m_squared_radius</text>
<text text-anchor="start" x="299.5" y="-603" font-family="Helvetica,sans-Serif" font-size="10.00">|+ QueryOutputIsRange()</text>
<text text-anchor="start" x="299.5" y="-592" font-family="Helvetica,sans-Serif" font-size="10.00">+ radius()</text>
<text text-anchor="start" x="299.5" y="-581" font-family="Helvetica,sans-Serif" font-size="10.00">+ squared_radius()</text>
<text text-anchor="start" x="299.5" y="-570" font-family="Helvetica,sans-Serif" font-size="10.00">+ set_radius()</text>
<text text-anchor="start" x="299.5" y="-559" font-family="Helvetica,sans-Serif" font-size="10.00">+ set_squared_radius()</text>
<text text-anchor="start" x="299.5" y="-548" font-family="Helvetica,sans-Serif" font-size="10.00"># reset()</text>
<text text-anchor="middle" x="371" y="-537" font-family="Helvetica,sans-Serif" font-size="10.00">}</text>
</a>
</g>
</g>
<!-- Node8&#45;&gt;Node9 -->
<g id="edge10" class="edge">
<title>Node8&#45;&gt;Node9</title>
<path fill="none" stroke="#63b8ff" d="M323.59,-707.27C330.13,-691.09 339.1,-668.92 347.47,-648.21"/>
<polygon fill="none" stroke="#63b8ff" points="320.18,-706.38 319.67,-716.96 326.67,-709.01 320.18,-706.38"/>
</g>
<!-- Node9&#45;&gt;Node7 -->
<g id="edge9" class="edge">
<title>Node9&#45;&gt;Node7</title>
<path fill="none" stroke="orange" d="M354.21,-519.58C351.25,-507.5 348.18,-495.02 345.3,-483.25"/>
<polygon fill="orange" stroke="orange" points="350.89,-520.74 356.67,-529.61 357.69,-519.07 350.89,-520.74"/>
<text text-anchor="middle" x="408" y="-504" font-family="Helvetica,sans-Serif" font-size="10.00"> &lt; DataPoint::Scalar &gt;</text>
</g>
<!-- Node10 -->
<g id="node10" class="node">
<title>Node10</title>
<g id="a_node10"><a xlink:href="group__spatialpartitioning.html#structPonca_1_1Query" target="_top" xlink:title=" ">
<polygon fill="white" stroke="#bfbfbf" points="556.5,-455.5 433.5,-455.5 433.5,-392.5 556.5,-392.5 556.5,-455.5"/>
<text text-anchor="start" x="441.5" y="-443.5" font-family="Helvetica,sans-Serif" font-size="10.00">{Ponca::Query&lt; Input</text>
<text text-anchor="middle" x="495" y="-432.5" font-family="Helvetica,sans-Serif" font-size="10.00">_, Output_ &gt;</text>
<text text-anchor="start" x="441.5" y="-421.5" font-family="Helvetica,sans-Serif" font-size="10.00">||+ Query()</text>
<text text-anchor="start" x="441.5" y="-410.5" font-family="Helvetica,sans-Serif" font-size="10.00">+ Query()</text>
<text text-anchor="middle" x="495" y="-399.5" font-family="Helvetica,sans-Serif" font-size="10.00">}</text>
</a>
</g>
</g>
<!-- Node10&#45;&gt;Node2 -->
<g id="edge11" class="edge">
<title>Node10&#45;&gt;Node2</title>
<path fill="none" stroke="orange" d="M458.28,-385.28C432.55,-358.83 398.14,-323.48 371.58,-296.2"/>
<polygon fill="orange" stroke="orange" points="455.82,-387.76 465.3,-392.49 460.83,-382.88 455.82,-387.76"/>
<text text-anchor="start" x="418" y="-339" font-family="Helvetica,sans-Serif" font-size="10.00"> &lt; QueryInputIsPosition</text>
<text text-anchor="start" x="418" y="-328" font-family="Helvetica,sans-Serif" font-size="10.00">&lt; DataPoint &gt;, QueryOutputIs</text>
<text text-anchor="middle" x="492.5" y="-317" font-family="Helvetica,sans-Serif" font-size="10.00">Range&lt; DataPoint::Scalar &gt; &gt;</text>
</g>
<!-- Node11 -->
<g id="node11" class="node">
<title>Node11</title>
<g id="a_node11"><a xlink:title=" ">
<polygon fill="white" stroke="#bfbfbf" points="521.5,-604 468.5,-604 468.5,-574 521.5,-574 521.5,-604"/>
<text text-anchor="middle" x="495" y="-592" font-family="Helvetica,sans-Serif" font-size="10.00">{Input_</text>
<text text-anchor="middle" x="495" y="-581" font-family="Helvetica,sans-Serif" font-size="10.00">||}</text>
</a>
</g>
</g>
<!-- Node11&#45;&gt;Node10 -->
<g id="edge12" class="edge">
<title>Node11&#45;&gt;Node10</title>
<path fill="none" stroke="#63b8ff" d="M495,-563.45C495,-534.69 495,-487.03 495,-455.81"/>
<polygon fill="none" stroke="#63b8ff" points="491.5,-563.82 495,-573.82 498.5,-563.82 491.5,-563.82"/>
</g>
<!-- Node12 -->
<g id="node12" class="node">
<title>Node12</title>
<g id="a_node12"><a xlink:title=" ">
<polygon fill="white" stroke="#bfbfbf" points="600.5,-604 539.5,-604 539.5,-574 600.5,-574 600.5,-604"/>
<text text-anchor="middle" x="570" y="-592" font-family="Helvetica,sans-Serif" font-size="10.00">{Output_</text>
<text text-anchor="middle" x="570" y="-581" font-family="Helvetica,sans-Serif" font-size="10.00">||}</text>
</a>
</g>
</g>
<!-- Node12&#45;&gt;Node10 -->
<g id="edge13" class="edge">
<title>Node12&#45;&gt;Node10</title>
<path fill="none" stroke="#63b8ff" d="M559.23,-564.59C546.06,-535.96 523.73,-487.44 509.18,-455.81"/>
<polygon fill="none" stroke="#63b8ff" points="556.12,-566.2 563.48,-573.82 562.47,-563.27 556.12,-566.2"/>
</g>
</g>
</svg>
