<?xml version="1.0" encoding="UTF-8" standalone="no"?>
<svg
   xmlns:dc="http://purl.org/dc/elements/1.1/"
   xmlns:cc="http://creativecommons.org/ns#"
   xmlns:rdf="http://www.w3.org/1999/02/22-rdf-syntax-ns#"
   xmlns:svg="http://www.w3.org/2000/svg"
   xmlns="http://www.w3.org/2000/svg"
   xmlns:sodipodi="http://sodipodi.sourceforge.net/DTD/sodipodi-0.dtd"
   xmlns:inkscape="http://www.inkscape.org/namespaces/inkscape"
   version="1.1"
   width="400"
   height="150"
   id="svg2"
   inkscape:version="0.48.4 r9939"
   sodipodi:docname="finalize_vertex_cross.svg"
   style="fill:#ffffff">
  <metadata
     id="metadata40">
    <rdf:RDF>
      <cc:Work
         rdf:about="">
        <dc:format>image/svg+xml</dc:format>
        <dc:type
           rdf:resource="http://purl.org/dc/dcmitype/StillImage" />
        <dc:title></dc:title>
      </cc:Work>
    </rdf:RDF>
  </metadata>
  <defs
     id="defs38">
    <marker
       inkscape:stockid="TriangleOutL"
       orient="auto"
       refY="0"
       refX="0"
       id="TriangleOutL"
       style="overflow:visible">
      <path
         inkscape:connector-curvature="0"
         id="path4421"
         d="m 5.77,0 -8.65,5 0,-10 8.65,5 z"
         style="fill-rule:evenodd;stroke:#000000;stroke-width:1pt"
         transform="scale(0.8,0.8)" />
    </marker>
  </defs>
  <sodipodi:namedview
     pagecolor="#ffffff"
     bordercolor="#666666"
     borderopacity="1"
     objecttolerance="10"
     gridtolerance="10"
     guidetolerance="10"
     inkscape:pageopacity="0"
     inkscape:pageshadow="2"
     inkscape:window-width="1918"
     inkscape:window-height="1032"
     id="namedview36"
     showgrid="false"
     inkscape:snap-bbox="true"
     inkscape:zoom="1.5733333"
     inkscape:cx="75"
     inkscape:cy="75"
     inkscape:window-x="0"
     inkscape:window-y="0"
     inkscape:window-maximized="1"
     inkscape:current-layer="svg2">
    <sodipodi:guide
       position="0,0"
       orientation="0,400"
       id="guide3393" />
    <sodipodi:guide
       position="400,0"
       orientation="-150,0"
       id="guide3395" />
    <sodipodi:guide
       position="400,150"
       orientation="0,-400"
       id="guide3397" />
    <sodipodi:guide
       position="0,150"
       orientation="150,0"
       id="guide3399" />
  </sodipodi:namedview>
  <!--<circle cx="20.115112976" cy="48.7769342685" r="6" stroke="black" fill="none" stroke-width="2"/>-->
  <!--<rect x="13.115112976" y="41.7769342685" width="14" height="14" stroke="black" fill="none" stroke-width="1"/>-->
  <!--<circle cx="135.0" cy="85.0" r="6" stroke="black" fill="none" stroke-width="2"/>-->
  <!--<rect x="128.0" y="78.0" width="14" height="14" stroke="black" fill="none" stroke-width="1"/>-->
  <path
     style="fill:none;stroke:#000000;stroke-width:1px;stroke-linecap:butt;stroke-linejoin:miter;stroke-opacity:1;marker-end:url(#TriangleOutL)"
     d="m 175,75 50,0"
     id="path5402"
     inkscape:connector-curvature="0" />
  <g
     style="fill:#ffffff"
     id="g4248"
     transform="translate(0.5,0)">
    <rect
       id="rect4210"
       height="150"
       width="150"
       y="0"
       x="0"
       style="fill:#ffffff" />
    <line
       id="line4212"
       y2="75"
       x2="150"
       y1="75"
       x1="75"
       style="stroke:#000000" />
    <line
       id="line4214"
       y2="10.05"
       x2="112.5"
       y1="75"
       x1="75"
       style="stroke:#000000" />
    <line
       id="line4216"
       y2="31.981768"
       x2="13.563597"
       y1="75"
       x1="75"
       style="stroke:#000000" />
    <line
       id="line4218"
       y2="75"
       x2="0"
       y1="75"
       x1="75"
       style="stroke:#000000" />
    <line
       id="line4220"
       y2="139.95"
       x2="37.5"
       y1="75"
       x1="75"
       style="stroke:#000000" />
    <circle
       id="circle4222"
       r="6"
       cy="65"
       cx="135"
       sodipodi:cx="135"
       sodipodi:cy="65"
       sodipodi:rx="6"
       sodipodi:ry="6"
       style="fill:#ff0000"
       d="m 141,65 c 0,3.313708 -2.68629,6 -6,6 -3.31371,0 -6,-2.686292 -6,-6 0,-3.313708 2.68629,-6 6,-6 3.31371,0 6,2.686292 6,6 z" />
    <text
       id="text4224"
       y="32.038967"
       x="110.16085"
       style="fill:#000000">1</text>
    <text
       id="text4226"
       y="22.038748"
       x="92.840469"
       style="fill:#000000">1</text>
    <circle
       id="circle4228"
       r="6"
       cy="32.393894"
       cx="31.586641"
       sodipodi:cx="31.586641"
       sodipodi:cy="32.393894"
       sodipodi:rx="6"
       sodipodi:ry="6"
       style="fill:#00ff00"
       d="m 37.586641,32.393894 c 0,3.313709 -2.686291,6 -6,6 -3.313708,0 -6,-2.686291 -6,-6 0,-3.313708 2.686292,-6 6,-6 3.313709,0 6,2.686292 6,6 z" />
    <circle
       id="circle4230"
       r="6"
       cy="48.776936"
       cx="20.115112"
       sodipodi:cx="20.115112"
       sodipodi:cy="48.776936"
       sodipodi:rx="6"
       sodipodi:ry="6"
       style="fill:#00ff00"
       d="m 26.115112,48.776936 c 0,3.313708 -2.686291,6 -6,6 -3.313708,0 -6,-2.686292 -6,-6 0,-3.313709 2.686292,-6 6,-6 3.313709,0 6,2.686291 6,6 z" />
    <circle
       id="circle4232"
       r="2"
       cy="65"
       cx="15"
       sodipodi:cx="15"
       sodipodi:cy="65"
       sodipodi:rx="2"
       sodipodi:ry="2"
       style="fill:#000000"
       d="m 17,65 c 0,1.104569 -0.895431,2 -2,2 -1.104569,0 -2,-0.895431 -2,-2 0,-1.104569 0.895431,-2 2,-2 1.104569,0 2,0.895431 2,2 z" />
    <circle
       id="circle4234"
       r="2"
       cy="85"
       cx="15"
       sodipodi:cx="15"
       sodipodi:cy="85"
       sodipodi:rx="2"
       sodipodi:ry="2"
       style="fill:#000000"
       d="m 17,85 c 0,1.104569 -0.895431,2 -2,2 -1.104569,0 -2,-0.895431 -2,-2 0,-1.104569 0.895431,-2 2,-2 1.104569,0 2,0.895431 2,2 z" />
    <text
       id="text4236"
       y="125.96104"
       x="32.839149"
       style="fill:#000000">1</text>
    <text
       id="text4238"
       y="135.96126"
       x="50.159531"
       style="fill:#000000">1</text>
    <circle
       id="circle4240"
       r="6"
       cy="85"
       cx="135"
       sodipodi:cx="135"
       sodipodi:cy="85"
       sodipodi:rx="6"
       sodipodi:ry="6"
       style="fill:#ff0000"
       d="m 141,85 c 0,3.313708 -2.68629,6 -6,6 -3.31371,0 -6,-2.686292 -6,-6 0,-3.313708 2.68629,-6 6,-6 3.31371,0 6,2.686292 6,6 z" />
  </g>
  <g
     style="fill:#ffffff"
     id="g4381"
     transform="translate(249.5,0)">
    <rect
       id="rect4343"
       height="150"
       width="150"
       y="0"
       x="0"
       style="fill:#ffffff" />
    <line
       id="line4345"
       y2="75"
       x2="150"
       y1="75"
       x1="75"
       style="stroke:#000000" />
    <line
       id="line4347"
       y2="10.05"
       x2="112.5"
       y1="75"
       x1="75"
       style="stroke:#000000" />
    <line
       id="line4349"
       y2="31.9818"
       x2="13.5636"
       y1="75"
       x1="75"
       style="stroke:#000000" />
    <line
       id="line4351"
       y2="75"
       x2="0"
       y1="75"
       x1="75"
       style="stroke:#000000" />
    <line
       id="line4353"
       y2="139.95"
       x2="37.5"
       y1="75"
       x1="75"
       style="stroke:#000000" />
    <circle
       id="circle4355"
       r="6"
       cy="65"
       cx="135"
       sodipodi:cx="135"
       sodipodi:cy="65"
       sodipodi:rx="6"
       sodipodi:ry="6"
       style="fill:#ff0000"
       d="m 141,65 c 0,3.313708 -2.68629,6 -6,6 -3.31371,0 -6,-2.686292 -6,-6 0,-3.313708 2.68629,-6 6,-6 3.31371,0 6,2.686292 6,6 z" />
    <circle
       id="circle4357"
       r="6"
       cy="28.038967"
       cx="113.66085"
       sodipodi:cx="113.66085"
       sodipodi:cy="28.038967"
       sodipodi:rx="6"
       sodipodi:ry="6"
       style="fill:#966900"
       d="m 119.66085,28.038967 c 0,3.313709 -2.68629,6 -6,6 -3.31371,0 -6,-2.686291 -6,-6 0,-3.313708 2.68629,-6 6,-6 3.31371,0 6,2.686292 6,6 z" />
    <circle
       id="circle4359"
       r="6"
       cy="18.038748"
       cx="96.340469"
       sodipodi:cx="96.340469"
       sodipodi:cy="18.038748"
       sodipodi:rx="6"
       sodipodi:ry="6"
       style="fill:#966900"
       d="m 102.34047,18.038748 c 0,3.313708 -2.686292,6 -6.000001,6 -3.313708,0 -6,-2.686292 -6,-6 0,-3.313709 2.686292,-6 6,-6 3.313709,0 6.000001,2.686291 6.000001,6 z" />
    <circle
       id="circle4361"
       r="6"
       cy="32.393909"
       cx="31.586628"
       sodipodi:cx="31.586628"
       sodipodi:cy="32.393909"
       sodipodi:rx="6"
       sodipodi:ry="6"
       style="fill:#00ff00"
       d="m 37.586628,32.393909 c 0,3.313709 -2.686292,6 -6,6 -3.313709,0 -6,-2.686291 -6,-6 0,-3.313708 2.686291,-6 6,-6 3.313708,0 6,2.686292 6,6 z" />
    <circle
       id="circle4363"
       r="6"
       cy="48.776951"
       cx="20.115105"
       sodipodi:cx="20.115105"
       sodipodi:cy="48.776951"
       sodipodi:rx="6"
       sodipodi:ry="6"
       style="fill:#00ff00"
       d="m 26.115105,48.776951 c 0,3.313708 -2.686292,6 -6,6 -3.313709,0 -6,-2.686292 -6,-6 0,-3.313709 2.686291,-6 6,-6 3.313708,0 6,2.686291 6,6 z" />
    <circle
       id="circle4365"
       r="6"
       cy="65"
       cx="15"
       sodipodi:cx="15"
       sodipodi:cy="65"
       sodipodi:rx="6"
       sodipodi:ry="6"
       style="fill:#29d600"
       d="m 21,65 c 0,3.313708 -2.686292,6 -6,6 -3.313708,0 -6,-2.686292 -6,-6 0,-3.313708 2.686292,-6 6,-6 3.313708,0 6,2.686292 6,6 z" />
    <circle
       id="circle4367"
       r="6"
       cy="85"
       cx="15"
       sodipodi:cx="15"
       sodipodi:cy="85"
       sodipodi:rx="6"
       sodipodi:ry="6"
       style="fill:#29d600"
       d="m 21,85 c 0,3.313708 -2.686292,6 -6,6 -3.313708,0 -6,-2.686292 -6,-6 0,-3.313708 2.686292,-6 6,-6 3.313708,0 6,2.686292 6,6 z" />
    <circle
       id="circle4369"
       r="6"
       cy="121.96104"
       cx="36.339149"
       sodipodi:cx="36.339149"
       sodipodi:cy="121.96104"
       sodipodi:rx="6"
       sodipodi:ry="6"
       style="fill:#718e00"
       d="m 42.339149,121.96104 c 0,3.31371 -2.686291,6 -6,6 -3.313708,0 -6,-2.68629 -6,-6 0,-3.31371 2.686292,-6 6,-6 3.313709,0 6,2.68629 6,6 z" />
    <circle
       id="circle4371"
       r="6"
       cy="131.96126"
       cx="53.659531"
       sodipodi:cx="53.659531"
       sodipodi:cy="131.96126"
       sodipodi:rx="6"
       sodipodi:ry="6"
       style="fill:#718e00"
       d="m 59.659531,131.96126 c 0,3.31371 -2.686292,6 -6,6 -3.313709,0 -6,-2.68629 -6,-6 0,-3.31371 2.686291,-6 6,-6 3.313708,0 6,2.68629 6,6 z" />
    <circle
       id="circle4373"
       r="6"
       cy="85"
       cx="135"
       sodipodi:cx="135"
       sodipodi:cy="85"
       sodipodi:rx="6"
       sodipodi:ry="6"
       style="fill:#ff0000"
       d="m 141,85 c 0,3.313708 -2.68629,6 -6,6 -3.31371,0 -6,-2.686292 -6,-6 0,-3.313708 2.68629,-6 6,-6 3.31371,0 6,2.686292 6,6 z" />
  </g>
</svg>
